<svg xmlns="http://www.w3.org/2000/svg" viewBox="0 0 24 24"><path d="M18.06,2C19.66,2,19.99,2.33,19.99,3.93L19.99,20.06C19.99,21.66,19.66,21.99,18.06,21.99L17.93,21.99C16.33,21.99,16,21.66,16,20.06L16,3.93C16,2.33,16.33,2,17.93,2Z" fill="currentColor"/><path d="M4.07,2.87L4.14,2.8C5.27,1.67,5.74,1.67,6.87,2.8L13.27,9.17C15,10.94,15,13.07,13.27,14.84L6.87,21.21C5.74,22.34,5.27,22.34,4.14,21.21L4.07,21.14C2.94,20.01,2.94,19.54,4.07,18.41L10.44,12.01L4.07,5.61C2.94,4.48,2.94,4.01,4.07,2.88Z" fill="currentColor"/></svg>