<svg xmlns="http://www.w3.org/2000/svg" viewBox="0 0 24 24"><path d="M13,15.1L3.57,5.63L5.67,3.56L15.14,12.99C15.87,13.72,15.84,14.26,15.11,14.99L15.04,15.09C14.31,15.82,13.74,15.82,13.01,15.09Z" fill="currentColor"/><path d="M2,2.63C2,2.16,2.17,2,2.63,2L8.1,2C9.13,2,9.27,2.27,8.53,3L3,8.53C2.3,9.23,2,9.13,2,8.1Z" fill="currentColor"/><path d="M22,6L22,18C22,20.47,20.47,22,18,22L6,22C3.53,22,2,20.47,2,18L2,12.93C2,12.33,2.33,12,2.93,12L3.06,12C3.66,12,3.99,12.33,3.99,12.93L3.99,17.6C3.99,19.6,4.39,20,6.39,20L17.59,20C19.59,20,19.99,19.6,19.99,17.6L19.99,6.4C19.99,4.4,19.59,4,17.59,4L12.92,4C12.32,4,11.99,3.67,11.99,3.07L11.99,2.94C11.99,2.34,12.32,2.01,12.92,2.01L17.99,2.01C20.46,2.01,21.99,3.54,21.99,6.01Z" fill="currentColor"/></svg>