<svg xmlns="http://www.w3.org/2000/svg" viewBox="0 0 24 24" fill="currentColor"><path d="M14.48,19.3L14.5,14.9C14.5,14.57,14.63,14.45,14.95,14.45L19.28,14.45C19.78,14.45,19.86,14.57,19.5,14.92L14.98,19.44C14.63,19.79,14.48,19.76,14.48,19.29ZM15.28,16.8L16.83,15.23L20.51,18.95C21.05,19.5,21.05,19.93,20.51,20.48L20.51,20.48C19.96,21.02,19.53,21.02,18.98,20.48ZM11.5,11.05C11.5,11.37,11.37,11.5,11.05,11.5L6.72,11.5C6.22,11.5,6.15,11.37,6.5,11.03L11.02,6.5C11.37,6.15,11.52,6.18,11.52,6.65ZM7.02,5.48L10.72,9.15L9.17,10.73L5.49,7C4.94,6.45,4.94,6.03,5.49,5.48L5.49,5.48C6.04,4.93,6.47,4.93,7.01,5.48Z"/></svg>