<svg xmlns="http://www.w3.org/2000/svg" viewBox="0 0 24 24" fill="currentColor"><path d="M11.88,6.57C11.88,5.8,12.18,5.5,12.95,5.5L13.04,5.5C13.82,5.5,14.12,5.8,14.12,6.57L14.12,12.14L11.89,12.14ZM16.08,10.85L13.68,13.92C13.17,14.54,12.83,14.54,12.33,13.92L9.93,10.87C9.5,10.32,9.65,9.99,10.35,9.99L15.66,9.99C16.33,9.99,16.5,10.31,16.08,10.84ZM17.52,20.5L8.5,20.5C6.65,20.5,5.5,19.35,5.5,17.5L5.5,15.57C5.5,14.8,5.8,14.5,6.57,14.5L6.67,14.5C7.44,14.5,7.74,14.8,7.74,15.57L7.74,17.5C7.74,18.05,7.95,18.25,8.49,18.25L17.52,18.25C18.09,18.25,18.27,18.05,18.27,17.5L18.27,15.57C18.27,14.8,18.57,14.5,19.34,14.5L19.44,14.5C20.21,14.5,20.51,14.8,20.51,15.57L20.51,17.5C20.51,19.35,19.36,20.5,17.51,20.5Z"/></svg>