<svg xmlns="http://www.w3.org/2000/svg" viewBox="0 0 24 24" fill="currentColor"><path d="M17.25,11.52C17.1,11.09,17.2,10.72,17.55,10.45L17.88,10.2C18.23,9.93,18.55,10,18.75,10.4C19.13,11.21,19.3,12.08,19.3,13.01C19.3,16.48,16.47,19.31,13,19.31L13,21.18C13,22.03,12.72,22.16,12.05,21.65L8.3,18.86C7.7,18.38,7.7,18.03,8.3,17.56L12.05,14.76C12.72,14.26,13,14.39,13,15.23L13,17.51C15.48,17.51,17.5,15.48,17.5,13.01C17.5,12.5,17.42,12.01,17.25,11.53ZM13.95,4.35L17.7,7.15C18.3,7.62,18.3,7.97,17.7,8.45L13.95,11.25C13.28,11.75,13,11.62,13,10.77L13,8.5C10.52,8.5,8.5,10.52,8.5,13C8.5,13.5,8.57,14,8.75,14.48C8.9,14.9,8.8,15.28,8.45,15.55L8.13,15.8C7.77,16.07,7.45,16,7.25,15.59C6.87,14.79,6.7,13.92,6.7,12.99C6.7,9.52,9.53,6.69,13,6.69L13,4.82C13,3.97,13.28,3.84,13.95,4.34Z"/></svg>