<svg xmlns="http://www.w3.org/2000/svg" viewBox="0 0 24 24" fill="currentColor"><path d="M19.75,14.55L17.5,14.55L17.5,13C17.5,9.9,14.97,7.38,11.88,7.38C8.78,7.38,6.25,9.9,6.25,13C6.25,16.1,8.78,18.63,11.88,18.63C12.15,18.63,12.42,18.6,12.7,18.57C13.45,18.45,13.8,18.7,13.95,19.45L13.98,19.58C14.13,20.33,13.88,20.68,13.13,20.8C12.7,20.85,12.3,20.88,11.88,20.88C7.55,20.88,4,17.33,4,13C4,8.67,7.55,5.13,11.88,5.13C16.2,5.13,19.75,8.67,19.75,13ZM21.65,15.38L19.25,18.43C18.75,19.05,18.4,19.05,17.9,18.43L15.5,15.36C15.07,14.83,15.25,14.51,15.93,14.51L21.23,14.51C21.93,14.51,22.08,14.83,21.66,15.38Z"/></svg>