<svg xmlns="http://www.w3.org/2000/svg" viewBox="0 0 24 24"><path d="M19.17,1.9L23.24,5.1C24.07,5.77,24.07,6.23,23.24,6.9L19.14,10.1C18.44,10.67,18.01,10.43,18.01,9.53L18.01,7.5L17.48,7.5C16.45,7.5,15.78,7.8,15.11,8.57L13.43,10.49L11.42,8.24L12.95,6.5C14.28,5,15.38,4.5,17.38,4.5L18.01,4.5L18.01,2.47C18.01,1.54,18.44,1.34,19.18,1.9Z" fill="currentColor"/><path d="M19.13,13.9L23.23,17.1C24.06,17.77,24.06,18.23,23.23,18.9L19.16,22.1C18.43,22.67,17.99,22.47,17.99,21.53L17.99,14.46C17.99,13.56,18.42,13.33,19.12,13.89Z" fill="currentColor"/><path d="M0,17.93C0,16.9,0.4,16.5,1.43,16.5L2.73,16.5C3.76,16.5,4.43,16.2,5.1,15.43L6.76,13.53L8.76,15.79L7.26,17.5C5.93,19,4.83,19.5,2.83,19.5L1.43,19.5C0.4,19.5,0,19.1,0,18.07Z" fill="currentColor"/><path d="M17.47,16.5L18,16.5L18,19.5L17.37,19.5C15.37,19.5,14.27,19,12.94,17.5L5.11,8.57C4.44,7.8,3.78,7.5,2.74,7.5L1.44,7.5C0.41,7.5,0.01,7.1,0.01,6.07L0.01,5.94C0.01,4.91,0.41,4.51,1.44,4.51L2.84,4.51C4.84,4.51,5.94,5.01,7.27,6.51L15.1,15.44C15.77,16.21,16.43,16.51,17.47,16.51Z" fill="currentColor"/></svg>