<svg xmlns="http://www.w3.org/2000/svg" viewBox="0 0 24 24" fill="currentColor"><path d="M17.05,7.82L13.7,11.8C13.19,12.4,12.8,12.4,12.29,11.8L8.94,7.82C8.44,7.22,8.54,7,9.32,7L16.67,7C17.44,7,17.55,7.22,17.04,7.82ZM13.05,22L12.96,22C12.18,22,11.88,21.7,11.88,20.93L11.88,17.1L14.13,17.1L14.13,20.93C14.13,21.7,13.83,22,13.06,22ZM9.32,18.87C8.55,18.87,8.45,18.65,8.93,18.05L12.32,13.94C12.8,13.34,13.2,13.34,13.67,13.94L17.07,18.05C17.54,18.65,17.45,18.87,16.67,18.87ZM11.88,5.07C11.88,4.3,12.18,4,12.95,4L13.04,4C13.82,4,14.12,4.3,14.12,5.07L14.12,9.4L11.87,9.4Z"/></svg>