<svg xmlns="http://www.w3.org/2000/svg" viewBox="0 0 24 24" fill="currentColor"><path d="M16,15.53C16,15.88,15.87,16,15.53,16L11.43,16C10.65,16,10.55,15.8,11.1,15.25L15.25,11.1C15.78,10.58,16,10.65,16,11.42ZM14.82,13.28L13.25,14.83L5.84,7.46C5.52,7.13,5.54,6.86,5.97,6.43L6.42,6C6.85,5.57,7.12,5.55,7.45,5.87ZM20.5,8.5L20.5,17.5C20.5,19.35,19.35,20.5,17.5,20.5L8.5,20.5C6.65,20.5,5.5,19.35,5.5,17.5L5.5,12.2C5.5,11.75,5.75,11.5,6.2,11.5L6.29,11.5C6.74,11.5,6.99,11.75,6.99,12.2L6.99,17.2C6.99,18.7,7.29,19,8.79,19L17.19,19C18.69,19,18.99,18.7,18.99,17.2L18.99,8.8C18.99,7.3,18.69,7,17.19,7L12.19,7C11.74,7,11.49,6.75,11.49,6.3L11.49,6.21C11.49,5.76,11.74,5.51,12.19,5.51L17.49,5.51C19.34,5.51,20.49,6.66,20.49,8.51Z"/></svg>