<svg xmlns="http://www.w3.org/2000/svg" viewBox="0 0 24 24"><path d="M10.97,21.13L10.9,21.2C9.77,22.33,9.3,22.33,8.17,21.2L1.77,14.83C0.04,13.06,0.04,10.93,1.77,9.16L8.17,2.79C9.3,1.66,9.77,1.66,10.9,2.79L10.97,2.86C12.1,3.99,12.1,4.46,10.97,5.59L4.6,11.99L10.97,18.39C12.1,19.52,12.1,19.99,10.97,21.12Z" fill="currentColor"/><path d="M22.97,21.13L22.9,21.2C21.77,22.33,21.3,22.33,20.17,21.2L13.77,14.83C12.04,13.06,12.04,10.93,13.77,9.16L20.17,2.79C21.3,1.66,21.77,1.66,22.9,2.79L22.97,2.86C24.1,3.99,24.1,4.46,22.97,5.59L16.6,11.99L22.97,18.39C24.1,19.52,24.1,19.99,22.97,21.12Z" fill="currentColor"/></svg>