<svg xmlns="http://www.w3.org/2000/svg" viewBox="0 0 24 24"><path d="M13.97,20.4L14,14.53C14,14.1,14.17,13.93,14.6,13.93L20.37,13.93C21.04,13.93,21.14,14.1,20.67,14.56L14.64,20.59C14.17,21.06,13.97,21.02,13.97,20.39Z" fill="currentColor"/><path d="M19.97,21.97L15.04,17.07L17.11,14.97L22.01,19.94C22.74,20.67,22.74,21.24,22.01,21.97L22.01,21.97C21.28,22.7,20.71,22.7,19.98,21.97Z" fill="currentColor"/><path d="M3.63,13.93L9.4,13.93C9.83,13.93,10,14.1,10,14.53L10.03,20.4C10.03,21.03,9.83,21.07,9.36,20.6L3.33,14.57C2.86,14.1,2.96,13.94,3.63,13.94Z" fill="currentColor"/><path d="M4.03,21.97C3.3,22.7,2.73,22.7,2,21.97L2,21.97C1.27,21.24,1.27,20.67,2,19.94L6.9,14.97L8.97,17.07Z" fill="currentColor"/><path d="M20.37,10L14.6,10C14.17,10,14,9.83,14,9.4L13.97,3.53C13.97,2.9,14.17,2.86,14.64,3.33L20.67,9.36C21.14,9.83,21.04,9.99,20.37,9.99Z" fill="currentColor"/><path d="M19.97,1.97C20.7,1.24,21.27,1.24,22,1.97L22,1.97C22.73,2.7,22.73,3.27,22,4L17.1,8.97L15.03,6.87Z" fill="currentColor"/><path d="M10.03,3.53L10,9.4C10,9.83,9.83,10,9.4,10L3.63,10C2.96,10,2.86,9.83,3.33,9.37L9.36,3.34C9.83,2.87,10.03,2.91,10.03,3.54Z" fill="currentColor"/><path d="M4.03,1.97L8.96,6.87L6.89,8.97L1.99,4C1.26,3.27,1.26,2.7,1.99,1.97L1.99,1.97C2.72,1.24,3.29,1.24,4.02,1.97Z" fill="currentColor"/></svg>