<svg xmlns="http://www.w3.org/2000/svg" viewBox="0 0 24 24" fill="currentColor"><path d="M12.23,19.85L12.18,19.9C11.33,20.75,10.98,20.75,10.13,19.9L5.33,15.12C4.03,13.79,4.03,12.2,5.33,10.87L10.13,6.09C10.98,5.24,11.33,5.24,12.18,6.09L12.23,6.14C13.08,6.99,13.08,7.34,12.23,8.19L7.45,12.99L12.23,17.79C13.08,18.64,13.08,18.99,12.23,19.84ZM21.23,19.85L21.17,19.9C20.33,20.75,19.97,20.75,19.13,19.9L14.33,15.12C13.03,13.79,13.03,12.2,14.33,10.87L19.13,6.09C19.97,5.24,20.33,5.24,21.17,6.09L21.23,6.14C22.07,6.99,22.07,7.34,21.23,8.19L16.45,12.99L21.23,17.79C22.07,18.64,22.07,18.99,21.23,19.84Z"/></svg>