<svg xmlns="http://www.w3.org/2000/svg" viewBox="0 0 24 24"><path d="M19.13,13.9L23.23,17.1C24.06,17.77,24.06,18.23,23.23,18.9L19.16,22.1C18.43,22.67,17.99,22.47,17.99,21.53L17.99,14.46C17.99,13.56,18.42,13.33,19.12,13.89Z" fill="currentColor"/><path d="M19.17,1.9L23.24,5.1C24.07,5.77,24.07,6.23,23.24,6.9L19.14,10.1C18.44,10.67,18.01,10.43,18.01,9.53L18.01,2.46C18.01,1.53,18.44,1.33,19.18,1.89Z" fill="currentColor"/><path d="M4.2,13.5L1.43,13.5C0.4,13.5,0,13.1,0,12.07L0,11.94C0,10.91,0.4,10.51,1.43,10.51L4.13,10.51C5.13,10.51,5.7,10.24,6.33,9.51L8.93,6.51C10.23,5.01,11.33,4.51,13.33,4.51L18.66,4.51L18.66,7.51L13.39,7.51C12.39,7.51,11.82,7.78,11.19,8.51L8.59,11.51C7.29,13.01,6.19,13.51,4.19,13.51Z" fill="currentColor"/><path d="M9.47,13.47L11.2,15.5C11.83,16.23,12.4,16.5,13.4,16.5L18.67,16.5L18.67,19.5L13.34,19.5C11.34,19.5,10.24,19,8.94,17.47L7.01,15.24C7.91,14.87,8.68,14.34,9.48,13.47Z" fill="currentColor"/></svg>