<svg xmlns="http://www.w3.org/2000/svg" viewBox="0 0 24 24" fill="currentColor"><path d="M12.3,21.12C7.35,16.17,8.38,13,12.66,8.75L13.88,7.49L17.05,10.67L15.83,11.92C12.28,15.44,11.08,16.72,13.9,19.55L14.25,19.9C14.88,20.52,14.91,21.15,14.4,21.62C13.88,22.15,13.28,22.1,12.68,21.5ZM5.5,6.21C5.5,5.76,5.75,5.51,6.2,5.51L6.29,5.51C6.74,5.51,6.99,5.76,6.99,6.21L6.99,19.8C6.99,20.25,6.74,20.5,6.29,20.5L6.2,20.5C5.75,20.5,5.5,20.25,5.5,19.8ZM18.25,13.02L11.45,6.25C10.9,5.7,11,5.5,11.77,5.5L17.92,5.5C18.69,5.5,18.99,5.8,18.99,6.57L18.99,12.7C18.99,13.47,18.79,13.58,18.24,13.02Z"/></svg>