<svg xmlns="http://www.w3.org/2000/svg" viewBox="0 0 24 24" fill="currentColor"><path d="M14.13,19.43C14.13,20.2,13.83,20.5,13.05,20.5L12.96,20.5C12.18,20.5,11.88,20.2,11.88,19.43L11.88,13.86L14.11,13.86ZM9.93,15.15L12.33,12.08C12.83,11.46,13.17,11.46,13.68,12.08L16.08,15.13C16.5,15.68,16.35,16.01,15.65,16.01L10.35,16.01C9.67,16.01,9.5,15.69,9.92,15.16ZM8.48,5.5L17.5,5.5C19.35,5.5,20.5,6.65,20.5,8.5L20.5,10.43C20.5,11.2,20.2,11.5,19.43,11.5L19.33,11.5C18.56,11.5,18.26,11.2,18.26,10.43L18.26,8.5C18.26,7.92,18.09,7.75,17.51,7.75L8.49,7.75C7.94,7.75,7.74,7.92,7.74,8.5L7.74,10.43C7.74,11.2,7.44,11.5,6.66,11.5L6.57,11.5C5.79,11.5,5.49,11.2,5.49,10.43L5.49,8.5C5.49,6.65,6.64,5.5,8.49,5.5Z"/></svg>