<svg xmlns="http://www.w3.org/2000/svg" viewBox="0 0 24 24"><path d="M11,8.9L20.43,18.37L18.33,20.44L8.86,11.01C8.13,10.28,8.16,9.74,8.89,9.01L8.96,8.91C9.69,8.18,10.26,8.18,10.99,8.91Z" fill="currentColor"/><path d="M22,21.37C22,21.84,21.83,22,21.37,22L15.9,22C14.87,22,14.73,21.73,15.47,21L21,15.47C21.7,14.77,22,14.87,22,15.9Z" fill="currentColor"/><path d="M2,18L2,6C2,3.53,3.53,2,6,2L18,2C20.47,2,22,3.53,22,6L22,11.07C22,11.67,21.67,12,21.07,12L20.94,12C20.34,12,20.01,11.67,20.01,11.07L20.01,6.4C20.01,4.4,19.61,4,17.61,4L6.41,4C4.41,4,4.01,4.4,4.01,6.4L4.01,17.6C4.01,19.6,4.41,20,6.41,20L11.08,20C11.68,20,12.01,20.33,12.01,20.93L12.01,21.06C12.01,21.66,11.68,21.99,11.08,21.99L6.01,21.99C3.54,21.99,2.01,20.46,2.01,17.99Z" fill="currentColor"/></svg>