<svg xmlns="http://www.w3.org/2000/svg" viewBox="0 0 24 24"><path d="M15.87,18C17.47,18,18,17.47,18,15.87L18,13.44C18,12.41,18.4,12.01,19.43,12.01L19.56,12.01C20.59,12.01,20.99,12.41,20.99,13.44L20.99,15.67C20.99,19.67,19.66,21,15.66,21L6.83,21L6.83,18Z" fill="currentColor"/><path d="M3,10.57L3,8.34C3,4.34,4.33,3.01,8.33,3.01L17.16,3.01L17.16,6.01L8.13,6.01C6.53,6.01,6,6.54,6,8.14L6,10.57C6,11.6,5.6,12,4.57,12L4.44,12C3.41,12,3.01,11.6,3.01,10.57Z" fill="currentColor"/><path d="M18.17,0.43L22.24,3.63C23.07,4.3,23.07,4.76,22.24,5.43L18.14,8.63C17.44,9.2,17.01,8.96,17.01,8.06L17.01,0.99C17.01,0.06,17.44,-0.14,18.18,0.42Z" fill="currentColor"/><path d="M5.83,23.57L1.76,20.37C0.93,19.7,0.93,19.24,1.76,18.57L5.86,15.37C6.56,14.8,6.99,15.04,6.99,15.94L6.99,23.01C6.99,23.94,6.56,24.14,5.82,23.58Z" fill="currentColor"/></svg>