<svg xmlns="http://www.w3.org/2000/svg" viewBox="0 0 24 24" fill="currentColor"><path d="M14.13,14.18C14.13,14.95,13.83,15.25,13.05,15.25L12.96,15.25C12.18,15.25,11.88,14.95,11.88,14.18L11.88,7.86L14.11,7.86ZM9.93,9.15L12.33,6.08C12.83,5.46,13.17,5.46,13.68,6.08L16.08,9.13C16.5,9.68,16.35,10.01,15.65,10.01L10.35,10.01C9.67,10.01,9.5,9.69,9.92,9.16ZM17.52,20.5L8.5,20.5C6.65,20.5,5.5,19.35,5.5,17.5L5.5,15.57C5.5,14.8,5.8,14.5,6.57,14.5L6.67,14.5C7.44,14.5,7.74,14.8,7.74,15.57L7.74,17.5C7.74,18.05,7.95,18.25,8.49,18.25L17.52,18.25C18.09,18.25,18.27,18.05,18.27,17.5L18.27,15.57C18.27,14.8,18.57,14.5,19.34,14.5L19.44,14.5C20.21,14.5,20.51,14.8,20.51,15.57L20.51,17.5C20.51,19.35,19.36,20.5,17.51,20.5Z"/></svg>