<svg xmlns="http://www.w3.org/2000/svg" viewBox="0 0 24 24"><path d="M16.57,14.1C17.7,12.97,18.17,12.97,19.3,14.1L19.37,14.17C20.5,15.3,20.5,15.77,19.37,16.9L13.87,22.4C12.47,23.83,11.54,23.83,10.14,22.4L4.64,16.9C3.51,15.77,3.51,15.3,4.64,14.17L5.54,13.27C5.87,12.94,6.27,12.94,6.61,13.27L12.01,18.64Z" fill="currentColor"/><path d="M20.56,2C21.59,2,21.99,2.4,21.99,3.43L21.99,4.56C21.99,5.59,21.59,5.99,20.56,5.99L3.43,5.99C2.4,5.99,2,5.59,2,4.56L2,3.43C2,2.4,2.4,2,3.43,2Z" fill="currentColor"/><path d="M11.93,8L12.06,8C13.66,8,13.99,8.33,13.99,9.93L13.99,20.8L9.99,20.8L9.99,9.93C9.99,8.33,10.32,8,11.92,8Z" fill="currentColor"/></svg>