<svg xmlns="http://www.w3.org/2000/svg" viewBox="0 0 24 24"><path d="M8.63,16C8.16,16,8,15.83,8,15.37L8,9.9C8,8.87,8.27,8.73,9,9.47L14.53,15C15.23,15.7,15.13,16,14.1,16Z" fill="currentColor"/><path d="M11.63,14.43L9.56,12.33L19.39,2.46C19.82,2.03,20.19,2.06,20.76,2.63L21.33,3.23C21.9,3.8,21.93,4.16,21.5,4.6Z" fill="currentColor"/><path d="M18,22L6,22C3.53,22,2,20.47,2,18L2,6C2,3.53,3.53,2,6,2L13.07,2C13.67,2,14,2.33,14,2.93L14,3.06C14,3.66,13.67,3.99,13.07,3.99L6.4,3.99C4.4,3.99,4,4.39,4,6.39L4,17.59C4,19.59,4.4,19.99,6.4,19.99L17.6,19.99C19.6,19.99,20,19.59,20,17.59L20,10.92C20,10.32,20.33,9.99,20.93,9.99L21.06,9.99C21.66,9.99,21.99,10.32,21.99,10.92L21.99,17.99C21.99,20.46,20.46,21.99,17.99,21.99Z" fill="currentColor"/></svg>