<svg xmlns="http://www.w3.org/2000/svg" viewBox="0 0 24 24"><path d="M15.63,1.97L21.4,1.97C21.83,1.97,22,2.14,22,2.57L22.03,8.44C22.03,9.07,21.83,9.11,21.36,8.64L15.33,2.61C14.86,2.14,14.96,1.98,15.63,1.98Z" fill="currentColor"/><path d="M16.03,10C15.3,10.73,14.73,10.73,14,10L14,10C13.27,9.27,13.27,8.7,14,7.97L18.9,3L20.97,5.1Z" fill="currentColor"/><path d="M8.37,22.03L2.6,22.03C2.17,22.03,2,21.86,2,21.43L1.97,15.56C1.97,14.93,2.17,14.89,2.64,15.36L8.67,21.39C9.14,21.86,9.04,22.02,8.37,22.02Z" fill="currentColor"/><path d="M7.97,14C8.7,13.27,9.27,13.27,10,14L10,14C10.73,14.73,10.73,15.3,10,16.03L5.1,21L3.03,18.9Z" fill="currentColor"/></svg>