<svg xmlns="http://www.w3.org/2000/svg" viewBox="0 0 24 24"><path d="M10.67,16.33L6.8,12.46C6.47,12.13,6.47,11.86,6.8,11.53L10.67,7.66C11.37,6.96,11.67,7.06,11.67,8.09L11.67,15.89C11.67,16.92,11.4,17.06,10.67,16.32Z" fill="currentColor"/><path d="M23.17,13.5L10.04,13.47L10.04,10.5L23.17,10.5C23.77,10.5,24,10.8,24,11.57L24,12.44C24,13.21,23.77,13.51,23.17,13.51Z" fill="currentColor"/><path d="M6,22C3.53,22,2,20.47,2,18L2,6C2,3.53,3.53,2,6,2L18,2C20.47,2,22,3.53,22,6L22,7.1C22,7.7,21.67,8.03,21.07,8.03L20.94,8.03C20.34,8.03,20.01,7.7,20.01,7.1L20.01,6.4C20.01,4.4,19.61,4,17.61,4L6.41,4C4.41,4,4.01,4.4,4.01,6.4L4.01,17.6C4.01,19.6,4.41,20,6.41,20L17.61,20C19.61,20,20.01,19.6,20.01,17.6L20.01,16.97C20.01,16.37,20.34,16.04,20.94,16.04L21.07,16.04C21.67,16.04,22,16.37,22,16.97L22,18C22,20.47,20.47,22,18,22Z" fill="currentColor"/></svg>