<svg xmlns="http://www.w3.org/2000/svg" viewBox="0 0 24 24" fill="currentColor"><path d="M17.5,10.1C17.5,8.9,17.1,8.5,15.9,8.5L14.08,8.5C13.31,8.5,13.01,8.2,13.01,7.43L13.01,7.33C13.01,6.56,13.31,6.26,14.08,6.26L15.75,6.26C18.75,6.26,19.75,7.25,19.75,10.25L19.75,16.88L17.5,16.88ZM11.93,19.75L10.25,19.75C7.25,19.75,6.26,18.75,6.26,15.75L6.26,9.13L8.51,9.13L8.51,15.9C8.51,17.1,8.9,17.5,10.11,17.5L11.93,17.5C12.7,17.5,13,17.8,13,18.57L13,18.67C13,19.44,12.7,19.74,11.93,19.74ZM4.32,8.37L6.72,5.32C7.23,4.7,7.57,4.7,8.07,5.32L10.47,8.39C10.9,8.92,10.72,9.24,10.04,9.24L4.74,9.24C4.04,9.24,3.89,8.92,4.31,8.36ZM21.68,17.63L19.28,20.68C18.77,21.3,18.43,21.3,17.93,20.68L15.53,17.61C15.1,17.08,15.28,16.76,15.96,16.76L21.26,16.76C21.96,16.76,22.11,17.08,21.69,17.63Z"/></svg>