<svg xmlns="http://www.w3.org/2000/svg" viewBox="0 0 24 24" fill="currentColor"><path d="M10.47,16C10.12,16,10,15.87,10,15.53L10,11.43C10,10.65,10.2,10.55,10.75,11.1L14.9,15.25C15.42,15.78,15.35,16,14.58,16ZM12.72,14.82L11.17,13.25L18.54,5.84C18.87,5.52,19.14,5.54,19.57,5.97L20,6.42C20.43,6.85,20.45,7.12,20.13,7.45ZM17.5,20.5L8.5,20.5C6.65,20.5,5.5,19.35,5.5,17.5L5.5,8.5C5.5,6.65,6.65,5.5,8.5,5.5L13.8,5.5C14.25,5.5,14.5,5.75,14.5,6.2L14.5,6.29C14.5,6.74,14.25,6.99,13.8,6.99L8.8,6.99C7.3,6.99,7,7.29,7,8.79L7,17.19C7,18.69,7.3,18.99,8.8,18.99L17.2,18.99C18.7,18.99,19,18.69,19,17.19L19,12.19C19,11.74,19.25,11.49,19.7,11.49L19.79,11.49C20.25,11.49,20.49,11.74,20.49,12.19L20.49,17.49C20.49,19.34,19.34,20.49,17.49,20.49Z"/></svg>