<svg xmlns="http://www.w3.org/2000/svg" viewBox="0 0 24 24" fill="currentColor"><path d="M18.53,12.18L14.4,16.3C13.35,17.37,12.66,17.37,11.61,16.3L7.48,12.17C6.63,11.33,6.63,10.97,7.48,10.13L8.16,9.45C8.4,9.2,8.7,9.2,8.96,9.45L13.01,13.48L16.44,10.08C17.28,9.23,17.64,9.23,18.48,10.08L18.54,10.13C19.38,10.98,19.38,11.33,18.54,12.18ZM6.58,20.5C5.81,20.5,5.51,20.2,5.51,19.43L5.51,18.58C5.51,17.81,5.81,17.51,6.58,17.51L19.43,17.51C20.2,17.51,20.5,17.81,20.5,18.58L20.5,19.43C20.5,20.2,20.2,20.5,19.43,20.5ZM11.5,6.95C11.5,5.75,11.75,5.5,12.95,5.5L13.04,5.5C14.25,5.5,14.49,5.75,14.49,6.95L14.49,15.1L11.49,15.1Z"/></svg>