<svg xmlns="http://www.w3.org/2000/svg" viewBox="0 0 24 24" fill="currentColor"><path d="M12.53,12.4C12.1,12.57,11.88,12.42,11.88,11.97L11.88,9.1L14.13,9.1L14.13,10.6C14.13,11.37,13.85,11.8,13.15,12.1ZM9.21,10C8.43,10,8.3,9.75,8.78,9.15L12.35,4.53C12.83,3.93,13.18,3.93,13.65,4.53L17.23,9.15C17.7,9.75,17.58,10,16.8,10ZM8.77,16.85C8.3,16.25,8.42,16,9.2,16L16.8,16C17.57,16,17.7,16.25,17.22,16.85L13.65,21.48C13.17,22.08,12.82,22.08,12.35,21.48ZM13.47,13.6C13.9,13.43,14.13,13.58,14.13,14.03L14.13,17.65L11.88,17.65L11.88,15.4C11.88,14.63,12.15,14.2,12.85,13.9Z"/></svg>