<svg xmlns="http://www.w3.org/2000/svg" viewBox="0 0 24 24" fill="currentColor"><path d="M10.42,14.5C11.19,14.5,11.49,14.8,11.49,15.57L11.49,19.79C11.49,20.25,11.24,20.49,10.79,20.49L10.7,20.49C10.25,20.49,10,20.25,10,19.79L10,17.04L6.45,20.59C6.13,20.91,5.78,20.91,5.45,20.59L5.4,20.54C5.08,20.21,5.08,19.86,5.4,19.54L8.95,15.99L6.2,15.99C5.75,15.99,5.5,15.75,5.5,15.29L5.5,15.2C5.5,14.75,5.75,14.5,6.2,14.5ZM15.58,11.5C14.81,11.5,14.51,11.2,14.51,10.43L14.51,6.21C14.51,5.76,14.75,5.51,15.21,5.51L15.3,5.51C15.75,5.51,16,5.76,16,6.21L16,8.96L19.55,5.41C19.87,5.09,20.22,5.09,20.55,5.41L20.6,5.46C20.92,5.78,20.92,6.14,20.6,6.46L17.05,10.01L19.8,10.01C20.25,10.01,20.5,10.25,20.5,10.71L20.5,10.8C20.5,11.25,20.25,11.5,19.8,11.5Z"/></svg>