<svg xmlns="http://www.w3.org/2000/svg" viewBox="0 0 24 24" fill="currentColor"><path d="M15.53,10C15.88,10,16,10.13,16,10.47L16,14.58C16,15.35,15.8,15.45,15.25,14.9L11.1,10.75C10.58,10.23,10.65,10,11.42,10ZM13.28,11.18L14.83,12.75L7.46,20.16C7.13,20.48,6.86,20.45,6.43,20.03L6,19.58C5.57,19.15,5.55,18.88,5.87,18.55ZM8.5,5.5L17.5,5.5C19.35,5.5,20.5,6.65,20.5,8.5L20.5,17.5C20.5,19.35,19.35,20.5,17.5,20.5L12.2,20.5C11.75,20.5,11.5,20.25,11.5,19.8L11.5,19.71C11.5,19.25,11.75,19.01,12.2,19.01L17.2,19.01C18.7,19.01,19,18.71,19,17.21L19,8.81C19,7.31,18.7,7.01,17.2,7.01L8.8,7.01C7.3,7.01,7,7.31,7,8.81L7,13.81C7,14.26,6.75,14.51,6.3,14.51L6.21,14.51C5.76,14.51,5.51,14.26,5.51,13.81L5.51,8.51C5.51,6.66,6.66,5.51,8.51,5.51Z"/></svg>