<svg xmlns="http://www.w3.org/2000/svg" viewBox="0 0 24 24" fill="currentColor"><path d="M14.5,15.58C14.5,14.81,14.8,14.51,15.57,14.51L19.79,14.51C20.25,14.51,20.49,14.75,20.49,15.21L20.49,15.3C20.49,15.75,20.25,16,19.79,16L17.04,16L20.59,19.55C20.91,19.87,20.91,20.22,20.59,20.55L20.54,20.6C20.21,20.92,19.86,20.92,19.54,20.6L15.99,17.05L15.99,19.8C15.99,20.25,15.75,20.5,15.29,20.5L15.2,20.5C14.75,20.5,14.5,20.25,14.5,19.8ZM11.5,10.42C11.5,11.19,11.2,11.49,10.43,11.49L6.21,11.49C5.76,11.49,5.51,11.24,5.51,10.79L5.51,10.7C5.51,10.25,5.76,10,6.21,10L8.96,10L5.41,6.45C5.09,6.13,5.09,5.78,5.41,5.45L5.46,5.4C5.78,5.08,6.14,5.08,6.46,5.4L10.01,8.95L10.01,6.2C10.01,5.75,10.25,5.5,10.71,5.5L10.8,5.5C11.25,5.5,11.5,5.75,11.5,6.2Z"/></svg>