<svg xmlns="http://www.w3.org/2000/svg" viewBox="0 0 24 24"><path d="M10.03,6.33C9.46,6.53,8.96,6.4,8.6,5.93L8.27,5.5C7.9,5.03,8,4.6,8.54,4.33C9.61,3.83,10.77,3.6,12.01,3.6C16.64,3.6,20.41,7.37,20.41,12L22.91,12C24.04,12,24.21,12.37,23.54,13.27L19.81,18.27C19.18,19.07,18.71,19.07,18.08,18.27L14.35,13.27C13.68,12.37,13.85,12,14.98,12L18.01,12C18.01,8.7,15.31,6,12.01,6C11.34,6,10.68,6.1,10.04,6.33Z" fill="currentColor"/><path d="M0.47,10.73L4.2,5.73C4.83,4.93,5.3,4.93,5.93,5.73L9.66,10.73C10.33,11.63,10.16,12,9.03,12L6,12C6,15.3,8.7,18,12,18C12.67,18,13.33,17.9,13.97,17.67C14.54,17.47,15.04,17.6,15.4,18.07L15.73,18.5C16.1,18.97,16,19.4,15.46,19.67C14.39,20.17,13.23,20.4,11.99,20.4C7.36,20.4,3.59,16.63,3.59,12L1.09,12C-0.04,12,-0.21,11.63,0.46,10.73Z" fill="currentColor"/></svg>