<svg xmlns="http://www.w3.org/2000/svg" viewBox="0 0 24 24" fill="currentColor"><path d="M16.43,14.58C17.27,13.73,17.63,13.73,18.48,14.58L18.53,14.63C19.38,15.48,19.38,15.83,18.53,16.68L14.4,20.8C13.35,21.87,12.66,21.87,11.61,20.8L7.48,16.68C6.63,15.83,6.63,15.48,7.48,14.63L8.16,13.95C8.4,13.71,8.7,13.71,8.96,13.95L13.01,17.98ZM19.42,5.5C20.19,5.5,20.49,5.8,20.49,6.57L20.49,7.42C20.49,8.19,20.19,8.49,19.42,8.49L6.57,8.49C5.8,8.49,5.5,8.19,5.5,7.42L5.5,6.57C5.5,5.8,5.8,5.5,6.57,5.5ZM12.95,10L13.04,10C14.25,10,14.49,10.25,14.49,11.45L14.49,19.6L11.49,19.6L11.49,11.45C11.49,10.25,11.74,10,12.94,10Z"/></svg>