<svg xmlns="http://www.w3.org/2000/svg" viewBox="0 0 24 24" fill="currentColor"><path d="M14.42,7.65L16.82,4.58C17.33,3.95,17.67,3.95,18.17,4.58L20.57,7.63C21,8.18,20.85,8.51,20.15,8.51L14.84,8.51C14.17,8.51,14,8.19,14.42,7.66ZM5.43,7.62L7.83,4.57C8.33,3.95,8.67,3.95,9.18,4.57L11.58,7.64C12,8.17,11.82,8.49,11.15,8.49L5.85,8.49C5.15,8.49,5,8.17,5.42,7.61ZM14.13,18.85L14.13,20.93C14.13,21.7,13.83,22,13.05,22L12.96,22C12.18,22,11.88,21.7,11.88,20.93L11.88,18.9C11.88,18.15,11.68,17.73,11.13,17.25L8.88,15.3C7.76,14.33,7.38,13.5,7.38,12L7.38,8L9.63,8L9.63,11.96C9.63,12.71,9.83,13.13,10.38,13.61L12.63,15.56C13.76,16.53,14.13,17.36,14.13,18.86ZM14.1,14.9L15.63,13.6C16.17,13.13,16.38,12.7,16.38,11.95L16.38,8L18.63,8L18.63,12C18.63,13.5,18.25,14.32,17.1,15.3L15.43,16.74C15.15,16.07,14.75,15.49,14.1,14.89Z"/></svg>