<svg xmlns="http://www.w3.org/2000/svg" viewBox="0 0 24 24" fill="currentColor"><path d="M17.54,5.5C18.75,5.5,18.99,5.75,18.99,6.95L18.99,19.04C18.99,20.25,18.75,20.49,17.54,20.49L17.45,20.49C16.25,20.49,16,20.25,16,19.04L16,6.95C16,5.75,16.25,5.5,17.45,5.5ZM7.05,6.15L7.11,6.1C7.95,5.25,8.3,5.25,9.15,6.1L13.95,10.88C15.25,12.21,15.25,13.8,13.95,15.13L9.15,19.91C8.31,20.75,7.95,20.75,7.11,19.91L7.05,19.86C6.21,19.01,6.21,18.66,7.05,17.81L11.83,13.01L7.05,8.21C6.21,7.36,6.21,7.01,7.05,6.16Z"/></svg>