<svg xmlns="http://www.w3.org/2000/svg" viewBox="0 0 24 24"><path d="M20.67,19.23L19.24,20.66L13.61,15.03L15.04,13.6Z" fill="currentColor"/><path d="M22,20.6C22,21.63,21.6,22.03,20.57,22.03L15.57,22C14.44,22,14.3,21.7,15.1,20.9L20.9,15.1C21.7,14.3,22,14.43,22,15.57Z" fill="currentColor"/><path d="M4,13.33C4,14,4,14,4.67,14L13.34,14C14.01,14,14.01,14,14.01,13.33L14.01,4.66C14.01,3.99,14.01,3.99,13.34,3.99L4.67,3.99C4,3.99,4,3.99,4,4.66Z" fill="currentColor"/><path d="M2,4.66C2,2.66,2.67,1.99,4.67,1.99L13.34,1.99C15.34,1.99,16.01,2.66,16.01,4.66L16.01,13.33C16.01,15.33,15.34,16,13.34,16L4.67,16C2.67,16,2,15.33,2,13.33Z" fill="currentColor"/></svg>