<svg xmlns="http://www.w3.org/2000/svg" viewBox="0 0 24 24" fill="currentColor"><path d="M13.7,4.88C18.65,9.83,17.62,13,13.35,17.25L12.12,18.51L8.95,15.33L10.17,14.08C13.72,10.56,14.92,9.28,12.1,6.45L11.75,6.1C11.13,5.48,11.1,4.85,11.6,4.38C12.12,3.85,12.72,3.9,13.32,4.5ZM20.5,19.79C20.5,20.25,20.25,20.49,19.8,20.49L19.71,20.49C19.25,20.49,19.01,20.25,19.01,19.79L19.01,6.2C19.01,5.75,19.25,5.5,19.71,5.5L19.8,5.5C20.25,5.5,20.5,5.75,20.5,6.2ZM7.75,12.98L14.55,19.75C15.1,20.3,15,20.5,14.23,20.5L8.08,20.5C7.31,20.5,7.01,20.2,7.01,19.43L7.01,13.3C7.01,12.53,7.21,12.42,7.76,12.98Z"/></svg>