<svg xmlns="http://www.w3.org/2000/svg" viewBox="0 0 24 24"><path d="M9.67,18.5L3.74,18.5L3.74,15.5L9.87,15.5C11.47,15.5,12,14.97,12,13.37L12,7.34C12,3.34,13.33,2.01,17.33,2.01L20.56,2.01C21.59,2.01,21.99,2.41,21.99,3.44L21.99,3.57C21.99,4.6,21.59,5,20.56,5L17.13,5C15.53,5,15,5.53,15,7.13L15,13.16C15,17.16,13.67,18.49,9.67,18.49Z" fill="currentColor"/><path d="M4.87,21.1L0.77,17.9C-0.06,17.23,-0.06,16.77,0.77,16.1L4.84,12.9C5.57,12.33,6.01,12.53,6.01,13.47L6.01,20.54C6.01,21.44,5.58,21.67,4.88,21.11Z" fill="currentColor"/></svg>