<svg xmlns="http://www.w3.org/2000/svg" viewBox="0 0 24 24"><path d="M14.33,5.57L20.26,5.57L20.26,8.57L14.13,8.57C12.53,8.57,12,9.1,12,10.7L12,16.73C12,20.73,10.67,22.06,6.67,22.06L3.44,22.06C2.41,22.06,2.01,21.66,2.01,20.63L2.01,20.5C2.01,19.47,2.41,19.07,3.44,19.07L6.87,19.07C8.47,19.07,9,18.54,9,16.94L9,10.91C9,6.91,10.33,5.58,14.33,5.58Z" fill="currentColor"/><path d="M19.13,2.97L23.23,6.17C24.06,6.84,24.06,7.3,23.23,7.97L19.16,11.17C18.43,11.74,17.99,11.54,17.99,10.6L17.99,3.53C17.99,2.63,18.42,2.4,19.12,2.96Z" fill="currentColor"/></svg>