<svg xmlns="http://www.w3.org/2000/svg" viewBox="0 0 24 24"><path d="M7,17.5L11,13.5C11.73,12.77,12.27,12.77,13,13.5L17,17.5C17.43,17.93,17.43,18.4,17,18.83L16.9,18.9C16.47,19.33,16,19.33,15.57,18.9L13,16.33L13,23.03C13,23.63,12.67,23.96,12.07,23.96L11.94,23.96C11.34,23.96,11.01,23.63,11.01,23.03L11.01,16.33L8.44,18.9C8.01,19.33,7.54,19.33,7.11,18.9L7.01,18.83C6.58,18.4,6.58,17.93,7.01,17.5Z" fill="currentColor"/><path d="M17,6.47L13,10.47C12.27,11.2,11.73,11.2,11,10.47L7,6.47C6.57,6.04,6.57,5.57,7,5.14L7.1,5.07C7.53,4.64,8,4.64,8.43,5.07L11,7.64L11,0.94C11,0.34,11.33,0.01,11.93,0.01L12.06,0.01C12.66,0.01,12.99,0.34,12.99,0.94L12.99,7.64L15.56,5.07C15.99,4.64,16.46,4.64,16.89,5.07L16.99,5.14C17.42,5.57,17.42,6.04,16.99,6.47Z" fill="currentColor"/></svg>