<svg xmlns="http://www.w3.org/2000/svg" viewBox="0 0 24 24"><path d="M5.94,22C4.34,22,4.01,21.67,4.01,20.07L4.01,3.94C4.01,2.34,4.34,2.01,5.94,2.01L6.07,2.01C7.67,2.01,8,2.34,8,3.94L8,20.07C8,21.67,7.67,22,6.07,22Z" fill="currentColor"/><path d="M19.93,21.13L19.86,21.2C18.73,22.33,18.26,22.33,17.13,21.2L10.73,14.83C9,13.06,9,10.93,10.73,9.16L17.13,2.79C18.26,1.66,18.73,1.66,19.86,2.79L19.93,2.86C21.06,3.99,21.06,4.46,19.93,5.59L13.56,11.99L19.93,18.39C21.06,19.52,21.06,19.99,19.93,21.12Z" fill="currentColor"/></svg>