<svg xmlns="http://www.w3.org/2000/svg" viewBox="0 0 24 24"><path d="M10.5,10.43C10.5,9.4,10.9,9,11.93,9L12.06,9C13.09,9,13.49,9.4,13.49,10.43L13.49,18.86L10.52,18.86Z" fill="currentColor"/><path d="M16.1,17.13L12.9,21.23C12.23,22.06,11.77,22.06,11.1,21.23L7.9,17.16C7.33,16.43,7.53,15.99,8.47,15.99L15.54,15.99C16.44,15.99,16.67,16.42,16.11,17.12Z" fill="currentColor"/><path d="M5.97,2L18,2C20.47,2,22,3.53,22,6L22,8.57C22,9.6,21.6,10,20.57,10L20.44,10C19.41,10,19.01,9.6,19.01,8.57L19.01,6C19.01,5.23,18.78,5,18.01,5L5.98,5C5.25,5,4.98,5.23,4.98,6L4.98,8.57C4.98,9.6,4.58,10,3.55,10L3.42,10C2.39,10,1.99,9.6,1.99,8.57L1.99,6C1.99,3.53,3.52,2,5.99,2Z" fill="currentColor"/></svg>