<svg xmlns="http://www.w3.org/2000/svg" viewBox="0 0 24 24"><path d="M11.57,4.63L17.07,10.13C18.5,11.53,18.5,12.46,17.07,13.86L11.57,19.36C10.44,20.49,9.97,20.49,8.84,19.36L7.94,18.46C7.61,18.13,7.61,17.73,7.94,17.39L13.31,11.99L8.78,7.42C7.65,6.29,7.65,5.82,8.78,4.69L8.85,4.62C9.98,3.49,10.45,3.49,11.58,4.62Z" fill="currentColor"/><path d="M24,20.56C24,21.59,23.6,21.99,22.57,21.99L21.44,21.99C20.41,21.99,20.01,21.59,20.01,20.56L20.01,3.43C20.01,2.4,20.41,2,21.44,2L22.57,2C23.6,2,24,2.4,24,3.43Z" fill="currentColor"/><path d="M1.93,14C0.33,14,0,13.67,0,12.07L0,11.94C0,10.34,0.33,10.01,1.93,10.01L15.46,10.01L15.46,14.01Z" fill="currentColor"/></svg>