<svg xmlns="http://www.w3.org/2000/svg" viewBox="0 0 24 24"><path d="M3.44,22C2.41,22,2.01,21.6,2.01,20.57L2.01,14.94C2.01,14.34,2.34,14.01,2.94,14.01L3.07,14.01C3.67,14.01,4,14.34,4,14.94L4,18.61L8.73,13.88C9.16,13.45,9.63,13.45,10.06,13.88L10.13,13.95C10.56,14.38,10.56,14.85,10.13,15.28L5.4,20.01L9.07,20.01C9.67,20.01,10,20.34,10,20.94L10,21.07C10,21.67,9.67,22,9.07,22Z" fill="currentColor"/><path d="M2,3.44C2,2.41,2.4,2.01,3.43,2.01L9.06,2.01C9.66,2.01,9.99,2.34,9.99,2.94L9.99,3.07C9.99,3.67,9.66,4,9.06,4L5.39,4L10.12,8.73C10.55,9.16,10.55,9.63,10.12,10.06L10.05,10.13C9.62,10.56,9.15,10.56,8.72,10.13L3.99,5.4L3.99,9.07C3.99,9.67,3.66,10,3.06,10L2.93,10C2.33,10,2,9.67,2,9.07Z" fill="currentColor"/><path d="M20.56,2C21.59,2,21.99,2.4,21.99,3.43L21.99,9.06C21.99,9.66,21.66,9.99,21.06,9.99L20.93,9.99C20.33,9.99,20,9.66,20,9.06L20,5.39L15.27,10.12C14.84,10.55,14.37,10.55,13.94,10.12L13.87,10.05C13.44,9.62,13.44,9.15,13.87,8.72L18.6,3.99L14.93,3.99C14.33,3.99,14,3.66,14,3.06L14,2.93C14,2.33,14.33,2,14.93,2Z" fill="currentColor"/><path d="M22,20.56C22,21.59,21.6,21.99,20.57,21.99L14.94,21.99C14.34,21.99,14.01,21.66,14.01,21.06L14.01,20.93C14.01,20.33,14.34,20,14.94,20L18.61,20L13.88,15.27C13.45,14.84,13.45,14.37,13.88,13.94L13.95,13.87C14.38,13.44,14.85,13.44,15.28,13.87L20.01,18.6L20.01,14.93C20.01,14.33,20.34,14,20.94,14L21.07,14C21.67,14,22,14.33,22,14.93Z" fill="currentColor"/></svg>