<svg xmlns="http://www.w3.org/2000/svg" viewBox="0 0 24 24" fill="currentColor"><path d="M9.75,12L12.65,9.1C12.9,8.85,13.11,8.85,13.35,9.1L16.25,12C16.78,12.53,16.71,12.75,15.93,12.75L10.08,12.75C9.31,12.75,9.21,12.55,9.76,12ZM11.88,21.38L11.9,11.53L14.13,11.53L14.13,21.38C14.13,21.83,13.9,22,13.32,22L12.67,22C12.09,22,11.87,21.83,11.87,21.38ZM5.5,8.5C5.5,6.65,6.65,5.5,8.5,5.5L17.5,5.5C19.35,5.5,20.5,6.65,20.5,8.5L20.5,17.5C20.5,19.35,19.35,20.5,17.5,20.5L16.67,20.5C16.22,20.5,15.98,20.25,15.98,19.8L15.98,19.71C15.98,19.25,16.22,19.01,16.67,19.01L17.2,19.01C18.7,19.01,19,18.71,19,17.21L19,8.81C19,7.31,18.7,7.01,17.2,7.01L8.8,7.01C7.3,7.01,7,7.31,7,8.81L7,17.21C7,18.71,7.3,19.01,8.8,19.01L9.27,19.01C9.72,19.01,9.97,19.25,9.97,19.71L9.97,19.8C9.97,20.25,9.72,20.5,9.27,20.5L8.5,20.5C6.65,20.5,5.5,19.35,5.5,17.5Z"/></svg>