<svg xmlns="http://www.w3.org/2000/svg" viewBox="0 0 24 24" fill="currentColor"><path d="M19.5,7.58L15.28,11.8L14.21,10.73L18.43,6.5ZM19.43,5.48C20.2,5.48,20.5,5.78,20.5,6.55L20.5,10.32C20.5,11.17,20.27,11.27,19.67,10.68L15.32,6.33C14.72,5.73,14.82,5.5,15.68,5.5ZM14,19C14.5,19,14.5,19,14.5,18.5L14.5,11.99C14.5,11.49,14.5,11.49,14,11.49L7.49,11.49C6.99,11.49,6.99,11.49,6.99,11.99L6.99,18.5C6.99,19,6.99,19,7.49,19ZM7.49,20.5C5.99,20.5,5.49,20,5.49,18.5L5.49,11.99C5.49,10.49,5.99,9.99,7.49,9.99L14,9.99C15.5,9.99,16,10.49,16,11.99L16,18.5C16,20,15.5,20.5,14,20.5Z"/></svg>