<svg xmlns="http://www.w3.org/2000/svg" viewBox="0 0 24 24" fill="currentColor"><path d="M9.25,17.13L12.25,14.13C12.8,13.58,13.2,13.58,13.75,14.13L16.75,17.13C17.07,17.45,17.07,17.8,16.75,18.12L16.67,18.17C16.35,18.5,16,18.5,15.68,18.17L13.75,16.25L13.75,21.27C13.75,21.72,13.5,21.97,13.05,21.97L12.96,21.97C12.5,21.97,12.26,21.72,12.26,21.27L12.26,16.25L10.33,18.17C10.01,18.5,9.65,18.5,9.33,18.17L9.26,18.12C8.94,17.8,8.94,17.45,9.26,17.13ZM16.75,8.85L13.75,11.85C13.2,12.4,12.8,12.4,12.25,11.85L9.25,8.85C8.93,8.53,8.93,8.18,9.25,7.86L9.32,7.8C9.65,7.48,10,7.48,10.32,7.8L12.25,9.73L12.25,4.71C12.25,4.26,12.5,4.01,12.95,4.01L13.04,4.01C13.5,4.01,13.74,4.26,13.74,4.71L13.74,9.73L15.67,7.8C15.99,7.48,16.34,7.48,16.67,7.8L16.74,7.86C17.07,8.18,17.07,8.53,16.74,8.85Z"/></svg>