<svg xmlns="http://www.w3.org/2000/svg" viewBox="0 0 24 24" fill="currentColor"><path d="M25.43,11.83C26.05,12.33,26.05,12.67,25.43,13.18L22.36,15.58C21.83,16,21.51,15.82,21.51,15.15L21.51,13.63L21.11,13.63C20.34,13.63,19.84,13.85,19.33,14.43L18.07,15.87L16.56,14.18L17.71,12.88C18.71,11.75,19.54,11.38,21.04,11.38L21.51,11.38L21.51,9.85C21.51,9.16,21.83,9.01,22.38,9.43ZM22.35,18.42L25.42,20.82C26.04,21.33,26.04,21.67,25.42,22.17L22.37,24.57C21.82,25,21.49,24.85,21.49,24.15L21.49,18.84C21.49,18.17,21.81,18,22.34,18.42ZM8,21.45C8,20.67,8.3,20.38,9.07,20.38L10.05,20.38C10.82,20.38,11.32,20.15,11.82,19.57L13.07,18.15L14.57,19.84L13.45,21.13C12.45,22.25,11.62,22.63,10.12,22.63L9.07,22.63C8.3,22.63,8,22.33,8,21.55ZM21.5,20.38L21.5,22.63L21.03,22.63C19.53,22.63,18.7,22.25,17.71,21.13L11.83,14.43C11.33,13.85,10.84,13.63,10.05,13.63L9.08,13.63C8.31,13.63,8.01,13.32,8.01,12.55L8.01,12.46C8.01,11.68,8.31,11.38,9.08,11.38L10.13,11.38C11.63,11.38,12.46,11.76,13.45,12.88L19.33,19.58C19.83,20.16,20.32,20.38,21.1,20.38Z"/></svg>