<svg xmlns="http://www.w3.org/2000/svg" viewBox="0 0 24 24" fill="currentColor"><path d="M4.88,12.3C9.83,7.35,13,8.38,17.25,12.66L18.51,13.88L15.33,17.05L14.08,15.83C10.56,12.28,9.28,11.08,6.45,13.9L6.1,14.25C5.48,14.88,4.85,14.91,4.38,14.4C3.85,13.88,3.9,13.28,4.5,12.68ZM19.79,5.5C20.25,5.5,20.49,5.75,20.49,6.2L20.49,6.29C20.49,6.74,20.25,6.99,19.79,6.99L6.2,6.99C5.75,6.99,5.5,6.74,5.5,6.29L5.5,6.2C5.5,5.75,5.75,5.5,6.2,5.5ZM12.98,18.25L19.75,11.45C20.3,10.9,20.5,11,20.5,11.77L20.5,17.92C20.5,18.69,20.2,18.99,19.43,18.99L13.3,18.99C12.53,18.99,12.42,18.79,12.98,18.24Z"/></svg>