<svg xmlns="http://www.w3.org/2000/svg" viewBox="0 0 24 24"><path d="M7.67,10.67L11.54,6.8C11.87,6.47,12.14,6.47,12.47,6.8L16.34,10.67C17.04,11.37,16.94,11.67,15.91,11.67L8.11,11.67C7.08,11.67,6.94,11.4,7.68,10.67Z" fill="currentColor"/><path d="M10.5,23.17L10.53,10.04L13.5,10.04L13.5,23.17C13.5,23.77,13.2,24,12.43,24L11.56,24C10.79,24,10.49,23.77,10.49,23.17Z" fill="currentColor"/><path d="M2,6C2,3.53,3.53,2,6,2L18,2C20.47,2,22,3.53,22,6L22,18C22,20.47,20.47,22,18,22L16.9,22C16.3,22,15.97,21.67,15.97,21.07L15.97,20.94C15.97,20.34,16.3,20.01,16.9,20.01L17.6,20.01C19.6,20.01,20,19.61,20,17.61L20,6.41C20,4.41,19.6,4.01,17.6,4.01L6.4,4.01C4.4,4.01,4,4.41,4,6.41L4,17.61C4,19.61,4.4,20.01,6.4,20.01L7.03,20.01C7.63,20.01,7.96,20.34,7.96,20.94L7.96,21.07C7.96,21.67,7.63,22,7.03,22L6,22C3.53,22,2,20.47,2,18Z" fill="currentColor"/></svg>