<svg xmlns="http://www.w3.org/2000/svg" viewBox="0 0 24 24"><path d="M20.07,10C21.67,10,22,10.33,22,11.93L22,12.06C22,13.66,21.67,13.99,20.07,13.99L11.14,13.96L11.14,9.99Z" fill="currentColor"/><path d="M7.74,12.9C6.91,12.23,6.91,11.77,7.74,11.1L13.77,6.3C14.67,5.6,15,5.77,15,6.9L15,17.1C15,18.23,14.67,18.4,13.77,17.7Z" fill="currentColor"/><path d="M4.06,2C5.66,2,5.99,2.33,5.99,3.93L5.99,20.06C5.99,21.66,5.66,21.99,4.06,21.99L3.93,21.99C2.33,21.99,2,21.66,2,20.06L2,3.93C2,2.33,2.33,2,3.93,2Z" fill="currentColor"/></svg>