<svg xmlns="http://www.w3.org/2000/svg" viewBox="0 0 24 24"><path d="M16.33,13.33L12.46,17.2C12.13,17.53,11.86,17.53,11.53,17.2L7.66,13.33C6.96,12.63,7.06,12.33,8.09,12.33L15.89,12.33C16.92,12.33,17.06,12.6,16.32,13.33Z" fill="currentColor"/><path d="M13.5,0.83L13.47,13.96L10.5,13.96L10.5,0.83C10.5,0.23,10.8,0,11.57,0L12.44,0C13.21,0,13.51,0.23,13.51,0.83Z" fill="currentColor"/><path d="M22,18C22,20.47,20.47,22,18,22L6,22C3.53,22,2,20.47,2,18L2,6C2,3.53,3.53,2,6,2L7.1,2C7.7,2,8.03,2.33,8.03,2.93L8.03,3.06C8.03,3.66,7.7,3.99,7.1,3.99L6.4,3.99C4.4,3.99,4,4.39,4,6.39L4,17.59C4,19.59,4.4,19.99,6.4,19.99L17.6,19.99C19.6,19.99,20,19.59,20,17.59L20,6.39C20,4.39,19.6,3.99,17.6,3.99L16.97,3.99C16.37,3.99,16.04,3.66,16.04,3.06L16.04,2.93C16.04,2.33,16.37,2,16.97,2L18,2C20.47,2,22,3.53,22,6Z" fill="currentColor"/></svg>