<svg xmlns="http://www.w3.org/2000/svg" viewBox="0 0 24 24" fill="currentColor"><path d="M8.13,10.2L8.45,10.45C8.8,10.73,8.9,11.1,8.75,11.52C8.57,12,8.5,12.5,8.5,13C8.5,15.48,10.52,17.5,13,17.5L13,15.23C13,14.38,13.28,14.25,13.95,14.75L17.7,17.55C18.3,18.02,18.3,18.38,17.7,18.85L13.95,21.65C13.28,22.15,13,22.02,13,21.18L13,19.3C9.53,19.3,6.7,16.47,6.7,13C6.7,12.08,6.87,11.2,7.25,10.4C7.45,10,7.77,9.92,8.13,10.2ZM12.05,11.25L8.3,8.46C7.7,7.98,7.7,7.63,8.3,7.16L12.05,4.36C12.72,3.86,13,3.98,13,4.83L13,6.71C16.47,6.71,19.3,9.54,19.3,13.01C19.3,13.93,19.13,14.81,18.75,15.61C18.55,16.01,18.23,16.08,17.88,15.81L17.55,15.56C17.2,15.29,17.1,14.91,17.25,14.49C17.43,14.02,17.5,13.52,17.5,13.02C17.5,10.54,15.48,8.52,13,8.52L13,10.79C13,11.63,12.72,11.76,12.05,11.26Z"/></svg>