<svg xmlns="http://www.w3.org/2000/svg" viewBox="0 0 24 24" fill="currentColor"><path d="M19.05,11.5C20.25,11.5,20.5,11.75,20.5,12.95L20.5,13.04C20.5,14.25,20.25,14.49,19.05,14.49L12.36,14.47L12.36,11.49ZM9.8,13.67C9.18,13.17,9.18,12.83,9.8,12.32L14.33,8.72C15,8.2,15.25,8.33,15.25,9.17L15.25,16.82C15.25,17.67,15,17.8,14.33,17.27ZM7.04,5.5C8.25,5.5,8.49,5.75,8.49,6.95L8.49,19.04C8.49,20.25,8.25,20.49,7.04,20.49L6.95,20.49C5.75,20.49,5.5,20.25,5.5,19.04L5.5,6.95C5.5,5.75,5.75,5.5,6.95,5.5Z"/></svg>