<svg xmlns="http://www.w3.org/2000/svg" viewBox="0 0 24 24" fill="currentColor"><path d="M12.68,4.5C13.28,3.9,13.88,3.85,14.4,4.38C14.91,4.85,14.88,5.48,14.25,6.1L13.9,6.45C11.07,9.28,12.27,10.55,15.83,14.08L17.05,15.33L13.88,18.5L12.66,17.25C8.38,13,7.35,9.83,12.3,4.88ZM5.5,6.21C5.5,5.76,5.75,5.51,6.2,5.51L6.29,5.51C6.74,5.51,6.99,5.76,6.99,6.21L6.99,19.8C6.99,20.25,6.74,20.5,6.29,20.5L6.2,20.5C5.75,20.5,5.5,20.25,5.5,19.8ZM17.93,20.5L11.78,20.5C11.01,20.5,10.9,20.3,11.46,19.75L18.26,12.98C18.8,12.43,19.01,12.53,19.01,13.3L19.01,19.43C19.01,20.2,18.71,20.5,17.94,20.5Z"/></svg>