<svg xmlns="http://www.w3.org/2000/svg" viewBox="0 0 24 24"><path d="M23.33,11.57C24.13,12.37,24.2,13.17,23.5,13.87C22.87,14.54,22.03,14.5,21.2,13.67L20.73,13.2C16.96,9.43,15.26,11.03,10.56,15.77L8.89,17.4L4.66,13.17L6.33,11.54C12,5.84,16.23,4.47,22.83,11.07Z" fill="currentColor"/><path d="M21.06,2C21.66,2,21.99,2.33,21.99,2.93L21.99,3.06C21.99,3.66,21.66,3.99,21.06,3.99L2.93,3.99C2.33,3.99,2,3.66,2,3.06L2,2.93C2,2.33,2.33,2,2.93,2Z" fill="currentColor"/><path d="M2,18.57L2,10.37C2,9.34,2.27,9.2,3,9.94L12.03,19.01C12.76,19.74,12.63,20.01,11.6,20.01L3.43,20.01C2.4,20.01,2,19.61,2,18.58Z" fill="currentColor"/></svg>