<svg xmlns="http://www.w3.org/2000/svg" viewBox="0 0 24 24" fill="currentColor"><path d="M11.88,11.82C11.88,11.05,12.18,10.75,12.95,10.75L13.04,10.75C13.82,10.75,14.12,11.05,14.12,11.82L14.12,18.14L11.89,18.14ZM16.08,16.85L13.68,19.92C13.17,20.54,12.83,20.54,12.33,19.92L9.93,16.87C9.5,16.32,9.65,15.99,10.35,15.99L15.66,15.99C16.33,15.99,16.5,16.31,16.08,16.84ZM8.48,5.5L17.5,5.5C19.35,5.5,20.5,6.65,20.5,8.5L20.5,10.43C20.5,11.2,20.2,11.5,19.43,11.5L19.33,11.5C18.56,11.5,18.26,11.2,18.26,10.43L18.26,8.5C18.26,7.92,18.09,7.75,17.51,7.75L8.49,7.75C7.94,7.75,7.74,7.92,7.74,8.5L7.74,10.43C7.74,11.2,7.44,11.5,6.66,11.5L6.57,11.5C5.79,11.5,5.49,11.2,5.49,10.43L5.49,8.5C5.49,6.65,6.64,5.5,8.49,5.5Z"/></svg>