<svg xmlns="http://www.w3.org/2000/svg" viewBox="0 0 24 24"><path d="M14.1,7.43C12.97,6.3,12.97,5.83,14.1,4.7L14.17,4.63C15.3,3.5,15.77,3.5,16.9,4.63L22.4,10.13C23.83,11.53,23.83,12.46,22.4,13.86L16.9,19.36C15.77,20.49,15.3,20.49,14.17,19.36L13.27,18.46C12.94,18.13,12.94,17.73,13.27,17.39L18.64,11.99Z" fill="currentColor"/><path d="M2,3.44C2,2.41,2.4,2.01,3.43,2.01L4.56,2.01C5.59,2.01,5.99,2.41,5.99,3.44L5.99,20.57C5.99,21.6,5.59,22,4.56,22L3.43,22C2.4,22,2,21.6,2,20.57Z" fill="currentColor"/><path d="M8,12.07L8,11.94C8,10.34,8.33,10.01,9.93,10.01L20.8,10.01L20.8,14.01L9.93,14.01C8.33,14.01,8,13.68,8,12.08Z" fill="currentColor"/></svg>