<svg xmlns="http://www.w3.org/2000/svg" viewBox="0 0 24 24"><path d="M10,3.93C10,2.33,10.33,2,11.93,2L12.06,2C13.66,2,13.99,2.33,13.99,3.93L13.96,12.86L9.99,12.86Z" fill="currentColor"/><path d="M12.9,16.26C12.23,17.09,11.77,17.09,11.1,16.26L6.3,10.23C5.6,9.33,5.77,9,6.9,9L17.1,9C18.23,9,18.4,9.33,17.7,10.23Z" fill="currentColor"/><path d="M2,19.94C2,18.34,2.33,18.01,3.93,18.01L20.06,18.01C21.66,18.01,21.99,18.34,21.99,19.94L21.99,20.07C21.99,21.67,21.66,22,20.06,22L3.93,22C2.33,22,2,21.67,2,20.07Z" fill="currentColor"/></svg>