<svg xmlns="http://www.w3.org/2000/svg" viewBox="0 0 24 24"><path d="M12.43,23.33C11.63,24.13,10.83,24.2,10.13,23.5C9.46,22.87,9.5,22.03,10.33,21.2L10.8,20.73C14.57,16.96,12.97,15.26,8.23,10.56L6.6,8.89L10.83,4.66L12.46,6.33C18.16,12,19.53,16.23,12.93,22.83Z" fill="currentColor"/><path d="M22,21.06C22,21.66,21.67,21.99,21.07,21.99L20.94,21.99C20.34,21.99,20.01,21.66,20.01,21.06L20.01,2.93C20.01,2.33,20.34,2,20.94,2L21.07,2C21.67,2,22,2.33,22,2.93Z" fill="currentColor"/><path d="M5.43,2L13.63,2C14.66,2,14.8,2.27,14.06,3L4.99,12.03C4.26,12.76,3.99,12.63,3.99,11.6L3.99,3.43C3.99,2.4,4.39,2,5.42,2Z" fill="currentColor"/></svg>