<svg xmlns="http://www.w3.org/2000/svg" viewBox="0 0 24 24" fill="currentColor"><path d="M19.43,11.88C20.2,11.88,20.5,12.18,20.5,12.95L20.5,13.04C20.5,13.82,20.2,14.12,19.43,14.12L13.86,14.12L13.86,11.89ZM15.15,16.08L12.08,13.68C11.46,13.17,11.46,12.83,12.08,12.33L15.13,9.93C15.68,9.5,16.01,9.65,16.01,10.35L16.01,15.66C16.01,16.33,15.69,16.5,15.16,16.08ZM5.5,17.52L5.5,8.5C5.5,6.65,6.65,5.5,8.5,5.5L10.43,5.5C11.2,5.5,11.5,5.8,11.5,6.57L11.5,6.67C11.5,7.44,11.2,7.74,10.43,7.74L8.5,7.74C7.95,7.74,7.75,7.92,7.75,8.49L7.75,17.52C7.75,18.06,7.95,18.27,8.5,18.27L10.43,18.27C11.2,18.27,11.5,18.57,11.5,19.34L11.5,19.44C11.5,20.21,11.2,20.51,10.43,20.51L8.5,20.51C6.65,20.51,5.5,19.36,5.5,17.51Z"/></svg>