<svg xmlns="http://www.w3.org/2000/svg" viewBox="0 0 24 24" fill="currentColor"><path d="M9.7,7.68L12.68,4.2C12.9,3.93,13.11,3.93,13.33,4.2L16.31,7.68C16.81,8.28,16.71,8.5,15.93,8.5L10.08,8.5C9.31,8.5,9.21,8.27,9.71,7.68ZM14.13,16.05C14.13,16.63,13.95,16.86,13.5,16.86L12.51,16.88C12.06,16.88,11.88,16.65,11.88,16.08L11.88,7.28L14.13,7.28ZM20.5,19C20.5,20.85,19.35,22,17.5,22L8.5,22C6.65,22,5.5,20.85,5.5,19L5.5,13C5.5,11.15,6.65,10,8.5,10L9.32,10C9.77,10,10.02,10.25,10.02,10.7L10.02,10.79C10.02,11.25,9.77,11.49,9.32,11.49L8.8,11.49C7.3,11.49,7,11.79,7,13.29L7,18.69C7,20.19,7.3,20.49,8.8,20.49L17.2,20.49C18.7,20.49,19,20.19,19,18.69L19,13.29C19,11.79,18.7,11.49,17.2,11.49L16.73,11.49C16.28,11.49,16.03,11.25,16.03,10.79L16.03,10.7C16.03,10.25,16.28,10,16.73,10L17.5,10C19.35,10,20.5,11.15,20.5,13Z"/></svg>