<svg xmlns="http://www.w3.org/2000/svg" viewBox="0 0 24 24" fill="currentColor"><path d="M6.95,14.5C5.75,14.5,5.5,14.25,5.5,13.05L5.5,12.96C5.5,11.75,5.75,11.51,6.95,11.51L13.64,11.53L13.64,14.51ZM16.2,12.33C16.82,12.83,16.82,13.17,16.2,13.68L11.67,17.28C11,17.8,10.75,17.67,10.75,16.83L10.75,9.18C10.75,8.33,11,8.2,11.67,8.73ZM18.96,20.5C17.75,20.5,17.51,20.25,17.51,19.05L17.51,6.96C17.51,5.76,17.75,5.51,18.96,5.51L19.05,5.51C20.25,5.51,20.5,5.76,20.5,6.96L20.5,19.05C20.5,20.25,20.25,20.5,19.05,20.5Z"/></svg>