<svg xmlns="http://www.w3.org/2000/svg" viewBox="0 0 24 24"><path d="M1.97,8.43L2,2.56C2,2.13,2.17,1.96,2.6,1.96L8.37,1.96C9.04,1.96,9.14,2.13,8.67,2.59L2.64,8.62C2.17,9.09,1.97,9.05,1.97,8.42Z" fill="currentColor"/><path d="M7.97,10L3.04,5.1L5.11,3L10.01,7.97C10.74,8.7,10.74,9.27,10.01,10L10.01,10C9.28,10.73,8.71,10.73,7.98,10Z" fill="currentColor"/><path d="M22.03,15.57L22,21.44C22,21.87,21.83,22.04,21.4,22.04L15.63,22.04C14.96,22.04,14.86,21.87,15.33,21.41L21.36,15.38C21.83,14.91,22.03,14.95,22.03,15.58Z" fill="currentColor"/><path d="M16.03,14L20.96,18.9L18.89,21L13.99,16.03C13.26,15.3,13.26,14.73,13.99,14L13.99,14C14.72,13.27,15.29,13.27,16.02,14Z" fill="currentColor"/></svg>