<svg xmlns="http://www.w3.org/2000/svg" viewBox="0 0 24 24" fill="currentColor"><path d="M12,16.25L9.1,13.34C8.85,13.1,8.85,12.89,9.1,12.65L12,9.74C12.53,9.22,12.75,9.29,12.75,10.07L12.75,15.92C12.75,16.69,12.55,16.79,12,16.24ZM11.53,14.1L11.53,11.87L21.38,11.87C21.83,11.87,22,12.1,22,12.68L22,13.33C22,13.91,21.83,14.13,21.38,14.13ZM8.5,20.5C6.65,20.5,5.5,19.35,5.5,17.5L5.5,8.5C5.5,6.65,6.65,5.5,8.5,5.5L17.5,5.5C19.35,5.5,20.5,6.65,20.5,8.5L20.5,9.32C20.5,9.77,20.25,10.02,19.8,10.02L19.71,10.02C19.25,10.02,19.01,9.77,19.01,9.32L19.01,8.8C19.01,7.3,18.71,7,17.21,7L8.81,7C7.31,7,7.01,7.3,7.01,8.8L7.01,17.2C7.01,18.7,7.31,19,8.81,19L17.21,19C18.71,19,19.01,18.7,19.01,17.2L19.01,16.73C19.01,16.28,19.25,16.03,19.71,16.03L19.8,16.03C20.25,16.03,20.5,16.28,20.5,16.73L20.5,17.5C20.5,19.35,19.35,20.5,17.5,20.5Z"/></svg>