<svg xmlns="http://www.w3.org/2000/svg" viewBox="0 0 24 24"><path d="M3.33,19.23L8.96,13.6L10.39,15.03L4.76,20.66Z" fill="currentColor"/><path d="M3.43,22.03C2.4,22.03,2,21.63,2,20.6L2,15.57C2,14.44,2.3,14.3,3.1,15.1L8.9,20.9C9.7,21.7,9.57,22,8.43,22Z" fill="currentColor"/><path d="M10.67,4C10,4,10,4,10,4.67L10,13.34C10,14.01,10,14.01,10.67,14.01L19.34,14.01C20.01,14.01,20.01,14.01,20.01,13.34L20.01,4.67C20.01,4,20.01,4,19.34,4Z" fill="currentColor"/><path d="M19.34,2C21.34,2,22.01,2.67,22.01,4.67L22.01,13.34C22.01,15.34,21.34,16.01,19.34,16.01L10.67,16.01C8.67,16.01,8,15.34,8,13.34L8,4.67C8,2.67,8.67,2,10.67,2Z" fill="currentColor"/></svg>