<svg xmlns="http://www.w3.org/2000/svg" viewBox="0 0 24 24" fill="currentColor"><path d="M14.75,8.18L19.2,8.18L19.2,10.43L14.6,10.43C13.4,10.43,13,10.82,13,12.02L13,16.55C13,19.55,12,20.55,9,20.55L6.58,20.55C5.81,20.55,5.51,20.25,5.51,19.47L5.51,19.38C5.51,18.6,5.81,18.3,6.58,18.3L9.15,18.3C10.35,18.3,10.75,17.91,10.75,16.71L10.75,12.18C10.75,9.18,11.75,8.19,14.75,8.19ZM18.35,6.23L21.42,8.63C22.04,9.13,22.04,9.48,21.42,9.98L18.37,12.38C17.82,12.81,17.49,12.66,17.49,11.95L17.49,6.65C17.49,5.97,17.81,5.8,18.34,6.22Z"/></svg>