<svg xmlns="http://www.w3.org/2000/svg" viewBox="0 0 24 24" fill="currentColor"><path d="M15.8,8.13L15.55,8.45C15.27,8.8,14.9,8.9,14.48,8.75C14.01,8.57,13.5,8.5,13,8.5C10.53,8.5,8.5,10.52,8.5,13L10.77,13C11.62,13,11.75,13.28,11.25,13.95L8.45,17.7C7.98,18.3,7.62,18.3,7.15,17.7L4.35,13.95C3.85,13.28,3.98,13,4.83,13L6.7,13C6.7,9.53,9.53,6.7,13,6.7C13.92,6.7,14.8,6.87,15.6,7.25C16,7.45,16.08,7.77,15.81,8.13ZM14.75,12.05L17.54,8.3C18.02,7.7,18.37,7.7,18.84,8.3L21.64,12.05C22.14,12.72,22.02,13,21.17,13L19.29,13C19.29,16.47,16.46,19.3,12.99,19.3C12.07,19.3,11.19,19.13,10.39,18.75C9.99,18.55,9.92,18.23,10.19,17.88L10.44,17.55C10.71,17.2,11.09,17.1,11.51,17.25C11.98,17.43,12.48,17.5,12.98,17.5C15.46,17.5,17.48,15.48,17.48,13L15.21,13C14.37,13,14.24,12.72,14.74,12.05Z"/></svg>