<svg xmlns="http://www.w3.org/2000/svg" viewBox="0 0 24 24"><path d="M16,15.37C16,15.84,15.83,16,15.37,16L9.9,16C8.87,16,8.73,15.73,9.47,15L15,9.47C15.7,8.77,16,8.87,16,9.9Z" fill="currentColor"/><path d="M14.43,12.37L12.33,14.44L2.46,4.61C2.03,4.18,2.06,3.81,2.63,3.24L3.23,2.67C3.8,2.1,4.16,2.07,4.6,2.5Z" fill="currentColor"/><path d="M22,6L22,18C22,20.47,20.47,22,18,22L6,22C3.53,22,2,20.47,2,18L2,10.93C2,10.33,2.33,10,2.93,10L3.06,10C3.66,10,3.99,10.33,3.99,10.93L3.99,17.6C3.99,19.6,4.39,20,6.39,20L17.59,20C19.59,20,19.99,19.6,19.99,17.6L19.99,6.4C19.99,4.4,19.59,4,17.59,4L10.92,4C10.32,4,9.99,3.67,9.99,3.07L9.99,2.94C9.99,2.34,10.32,2.01,10.92,2.01L17.99,2.01C20.46,2.01,21.99,3.54,21.99,6.01Z" fill="currentColor"/></svg>