<svg xmlns="http://www.w3.org/2000/svg" viewBox="0 0 24 24" fill="currentColor"><path d="M10,10.47C10,10.12,10.13,10,10.47,10L14.58,10C15.35,10,15.45,10.2,14.9,10.75L10.75,14.9C10.23,15.42,10,15.35,10,14.58ZM11.18,12.72L12.75,11.17L20.16,18.54C20.48,18.87,20.45,19.14,20.03,19.57L19.58,20C19.15,20.43,18.88,20.45,18.55,20.13ZM5.5,17.5L5.5,8.5C5.5,6.65,6.65,5.5,8.5,5.5L17.5,5.5C19.35,5.5,20.5,6.65,20.5,8.5L20.5,13.8C20.5,14.25,20.25,14.5,19.8,14.5L19.71,14.5C19.25,14.5,19.01,14.25,19.01,13.8L19.01,8.8C19.01,7.3,18.71,7,17.21,7L8.81,7C7.31,7,7.01,7.3,7.01,8.8L7.01,17.2C7.01,18.7,7.31,19,8.81,19L13.81,19C14.26,19,14.51,19.25,14.51,19.7L14.51,19.79C14.51,20.25,14.26,20.49,13.81,20.49L8.51,20.49C6.66,20.49,5.51,19.34,5.51,17.49Z"/></svg>