<svg xmlns="http://www.w3.org/2000/svg" viewBox="0 0 24 24"><path d="M10.43,13.5C9.4,13.5,9,13.1,9,12.07L9,11.94C9,10.91,9.4,10.51,10.43,10.51L18.86,10.51L18.86,13.48Z" fill="currentColor"/><path d="M17.13,7.9L21.23,11.1C22.06,11.77,22.06,12.23,21.23,12.9L17.16,16.1C16.43,16.67,15.99,16.47,15.99,15.53L15.99,8.46C15.99,7.56,16.42,7.33,17.12,7.89Z" fill="currentColor"/><path d="M2,18.03L2,6C2,3.53,3.53,2,6,2L8.57,2C9.6,2,10,2.4,10,3.43L10,3.56C10,4.59,9.6,4.99,8.57,4.99L6,4.99C5.27,4.99,5,5.22,5,5.99L5,18.02C5,18.75,5.27,19.02,6,19.02L8.57,19.02C9.6,19.02,10,19.42,10,20.45L10,20.58C10,21.61,9.6,22.01,8.57,22.01L6,22.01C3.53,22.01,2,20.48,2,18.01Z" fill="currentColor"/></svg>