<svg xmlns="http://www.w3.org/2000/svg" viewBox="0 0 24 24" fill="currentColor"><path d="M6.5,18.42L10.72,14.2L11.79,15.27L7.57,19.5ZM6.57,20.52C5.8,20.52,5.5,20.22,5.5,19.45L5.5,15.68C5.5,14.83,5.72,14.73,6.32,15.33L10.67,19.68C11.27,20.28,11.18,20.5,10.32,20.5ZM12,7C11.5,7,11.5,7,11.5,7.5L11.5,14C11.5,14.51,11.5,14.51,12,14.51L18.5,14.51C19.01,14.51,19.01,14.51,19.01,14L19.01,7.5C19.01,7,19.01,7,18.5,7ZM18.5,5.5C20,5.5,20.51,6,20.51,7.5L20.51,14C20.51,15.5,20,16.01,18.5,16.01L12,16.01C10.5,16.01,10,15.5,10,14L10,7.5C10,6,10.5,5.5,12,5.5Z"/></svg>