<svg xmlns="http://www.w3.org/2000/svg" viewBox="0 0 24 24"><path d="M19.37,10.9L13.87,16.4C12.47,17.83,11.54,17.83,10.14,16.4L4.64,10.9C3.51,9.77,3.51,9.3,4.64,8.17L5.54,7.27C5.87,6.94,6.27,6.94,6.61,7.27L12.01,12.64L16.58,8.11C17.71,6.98,18.18,6.98,19.31,8.11L19.38,8.18C20.51,9.31,20.51,9.78,19.38,10.91Z" fill="currentColor"/><path d="M3.44,22C2.41,22,2.01,21.6,2.01,20.57L2.01,19.44C2.01,18.41,2.41,18.01,3.44,18.01L20.57,18.01C21.6,18.01,22,18.41,22,19.44L22,20.57C22,21.6,21.6,22,20.57,22Z" fill="currentColor"/><path d="M10,3.93C10,2.33,10.33,2,11.93,2L12.06,2C13.66,2,13.99,2.33,13.99,3.93L13.99,14.8L9.99,14.8Z" fill="currentColor"/></svg>