<svg xmlns="http://www.w3.org/2000/svg" viewBox="0 0 24 24" fill="currentColor"><path d="M14.5,19.05C14.5,20.25,14.25,20.5,13.05,20.5L12.96,20.5C11.75,20.5,11.51,20.25,11.51,19.05L11.53,12.36L14.51,12.36ZM12.33,9.8C12.83,9.18,13.17,9.18,13.68,9.8L17.28,14.33C17.8,15,17.67,15.25,16.83,15.25L9.18,15.25C8.33,15.25,8.2,15,8.73,14.33ZM20.5,7.04C20.5,8.25,20.25,8.49,19.05,8.49L6.96,8.49C5.76,8.49,5.51,8.25,5.51,7.04L5.51,6.95C5.51,5.75,5.76,5.5,6.96,5.5L19.05,5.5C20.25,5.5,20.5,5.75,20.5,6.95Z"/></svg>