<svg xmlns="http://www.w3.org/2000/svg" viewBox="0 0 24 24" fill="currentColor"><path d="M14.18,11.88C14.95,11.88,15.25,12.18,15.25,12.95L15.25,13.04C15.25,13.82,14.95,14.12,14.18,14.12L7.86,14.12L7.86,11.89ZM9.15,16.08L6.08,13.68C5.46,13.17,5.46,12.83,6.08,12.33L9.13,9.93C9.68,9.5,10.01,9.65,10.01,10.35L10.01,15.66C10.01,16.33,9.69,16.5,9.16,16.08ZM20.5,8.48L20.5,17.5C20.5,19.35,19.35,20.5,17.5,20.5L15.57,20.5C14.8,20.5,14.5,20.2,14.5,19.43L14.5,19.33C14.5,18.56,14.8,18.26,15.57,18.26L17.5,18.26C18.08,18.26,18.25,18.05,18.25,17.51L18.25,8.49C18.25,7.91,18.08,7.74,17.5,7.74L15.57,7.74C14.8,7.74,14.5,7.44,14.5,6.66L14.5,6.57C14.5,5.79,14.8,5.49,15.57,5.49L17.5,5.49C19.35,5.49,20.5,6.64,20.5,8.49Z"/></svg>