<svg xmlns="http://www.w3.org/2000/svg" viewBox="0 0 24 24" fill="currentColor"><path d="M15.72,5.48L20.05,5.48C20.37,5.48,20.5,5.6,20.5,5.93L20.52,10.33C20.52,10.8,20.37,10.83,20.02,10.48L15.5,5.96C15.14,5.6,15.22,5.48,15.72,5.48ZM16.02,11.5C15.48,12.05,15.05,12.05,14.5,11.5L14.5,11.5C13.95,10.95,13.95,10.52,14.5,9.98L18.17,6.25L19.73,7.83ZM10.28,20.52L5.95,20.52C5.63,20.52,5.5,20.39,5.5,20.07L5.48,15.67C5.48,15.2,5.63,15.17,5.98,15.52L10.5,20.04C10.86,20.39,10.78,20.52,10.28,20.52ZM9.98,14.5C10.53,13.95,10.95,13.95,11.5,14.5L11.5,14.5C12.05,15.05,12.05,15.48,11.5,16.02L7.82,19.75L6.27,18.17Z"/></svg>