<svg xmlns="http://www.w3.org/2000/svg" viewBox="0 0 24 24"><path d="M10.5,1.83L13.5,1.83L13.5,10.95L12,12.34L10.5,10.95Z" fill="currentColor"/><path d="M16.43,11.2C17.13,10.47,17.8,10.17,18.83,10.17L19.16,10.17L19.16,13.17L19.76,13.17C18.73,13.17,18.06,13.47,17.36,14.24L15.3,16.49C15.06,15.57,14.59,14.83,13.8,14.03Z" fill="currentColor"/><path d="M13.5,20.53L13.5,22.56C13.5,23.59,13.1,23.99,12.07,23.99L11.94,23.99C10.91,23.99,10.51,23.59,10.51,22.56L10.51,20.23C10.51,19.2,10.24,18.5,9.54,17.73L6.64,14.56C5.94,13.79,5.27,13.49,4.24,13.49L4.51,13.49L4.51,10.49L5.18,10.49C6.21,10.49,6.88,10.79,7.58,11.52L11.68,15.92C13.05,17.35,13.51,18.52,13.51,20.52Z" fill="currentColor"/><path d="M19.13,7.9L23.23,11.1C24.06,11.77,24.06,12.23,23.23,12.9L19.16,16.1C18.43,16.67,17.99,16.47,17.99,15.53L17.99,8.46C17.99,7.56,18.42,7.33,19.12,7.89Z" fill="currentColor"/><path d="M4.83,16.1L0.76,12.9C-0.07,12.23,-0.07,11.77,0.76,11.1L4.86,7.9C5.56,7.33,5.99,7.57,5.99,8.47L5.99,15.54C5.99,16.47,5.56,16.67,4.82,16.11Z" fill="currentColor"/><path d="M7.9,4.87L11.1,0.77C11.77,-0.06,12.23,-0.06,12.9,0.77L16.1,4.84C16.67,5.57,16.47,6.01,15.53,6.01L8.46,6.01C7.56,6.01,7.33,5.58,7.89,4.88Z" fill="currentColor"/></svg>