<svg xmlns="http://www.w3.org/2000/svg" viewBox="0 0 24 24" fill="currentColor"><path d="M19.42,5.5C20.19,5.5,20.49,5.8,20.49,6.57L20.49,10.79C20.49,11.24,20.25,11.49,19.79,11.49L19.7,11.49C19.25,11.49,19,11.24,19,10.79L19,8.04L15.45,11.59C15.13,11.91,14.78,11.91,14.45,11.59L14.4,11.54C14.08,11.21,14.08,10.86,14.4,10.54L17.95,6.99L15.2,6.99C14.75,6.99,14.5,6.74,14.5,6.29L14.5,6.2C14.5,5.75,14.75,5.5,15.2,5.5ZM6.58,20.5C5.81,20.5,5.51,20.2,5.51,19.43L5.51,15.21C5.51,14.75,5.76,14.51,6.21,14.51L6.3,14.51C6.75,14.51,7,14.75,7,15.21L7,17.96L10.55,14.41C10.87,14.09,11.22,14.09,11.54,14.41L11.6,14.46C11.92,14.79,11.92,15.14,11.6,15.46L8.05,19.01L10.8,19.01C11.25,19.01,11.5,19.25,11.5,19.71L11.5,19.8C11.5,20.25,11.25,20.5,10.8,20.5Z"/></svg>