<svg xmlns="http://www.w3.org/2000/svg" viewBox="0 0 24 24"><path d="M18.9,17.4L13.6,12.93C12.8,12.26,12.8,11.73,13.6,11.06L18.9,6.59C19.7,5.92,20,6.06,20,7.09L20,16.89C20,17.92,19.7,18.06,18.9,17.39Z" fill="currentColor"/><path d="M0,12.07L0,11.94C0,10.91,0.4,10.51,1.43,10.51L6.53,10.51L6.53,13.51L1.43,13.51C0.4,13.51,0,13.11,0,12.08Z" fill="currentColor"/><path d="M4.17,7.1C4.17,6.07,4.47,5.93,5.27,6.57L10.74,11.1C11.54,11.73,11.54,12.27,10.74,12.9L5.27,17.43C4.47,18.06,4.17,17.93,4.17,16.9Z" fill="currentColor"/><path d="M22.57,10.5C23.6,10.5,24,10.9,24,11.93L24,12.06C24,13.09,23.6,13.49,22.57,13.49L16.8,13.49L16.8,10.49Z" fill="currentColor"/></svg>