<svg xmlns="http://www.w3.org/2000/svg" viewBox="0 0 24 24"><path d="M8,8.63C8,8.16,8.17,8,8.63,8L14.1,8C15.13,8,15.27,8.27,14.53,9L9,14.53C8.3,15.23,8,15.13,8,14.1Z" fill="currentColor"/><path d="M9.57,11.63L11.67,9.56L21.54,19.39C21.97,19.82,21.94,20.19,21.37,20.76L20.77,21.33C20.2,21.9,19.84,21.93,19.4,21.5Z" fill="currentColor"/><path d="M2,18L2,6C2,3.53,3.53,2,6,2L18,2C20.47,2,22,3.53,22,6L22,13.07C22,13.67,21.67,14,21.07,14L20.94,14C20.34,14,20.01,13.67,20.01,13.07L20.01,6.4C20.01,4.4,19.61,4,17.61,4L6.41,4C4.41,4,4.01,4.4,4.01,6.4L4.01,17.6C4.01,19.6,4.41,20,6.41,20L13.08,20C13.68,20,14.01,20.33,14.01,20.93L14.01,21.06C14.01,21.66,13.68,21.99,13.08,21.99L6.01,21.99C3.54,21.99,2.01,20.46,2.01,17.99Z" fill="currentColor"/></svg>