<svg xmlns="http://www.w3.org/2000/svg" viewBox="0 0 24 24"><path d="M14,20.07C14,21.67,13.67,22,12.07,22L11.94,22C10.34,22,10.01,21.67,10.01,20.07L10.04,11.14L14.01,11.14Z" fill="currentColor"/><path d="M11.1,7.74C11.77,6.91,12.23,6.91,12.9,7.74L17.7,13.77C18.4,14.67,18.23,15,17.1,15L6.9,15C5.77,15,5.6,14.67,6.3,13.77Z" fill="currentColor"/><path d="M22,4.06C22,5.66,21.67,5.99,20.07,5.99L3.94,5.99C2.34,5.99,2.01,5.66,2.01,4.06L2.01,3.93C2.01,2.33,2.34,2,3.94,2L20.07,2C21.67,2,22,2.33,22,3.93Z" fill="currentColor"/></svg>