<svg xmlns="http://www.w3.org/2000/svg" viewBox="0 0 24 24"><path d="M3.43,20C2.4,20,2,19.6,2,18.57L2,18.44C2,17.41,2.4,17.01,3.43,17.01L16.6,17.01L16.6,20.01Z" fill="currentColor"/><path d="M17.2,14.4L21.3,17.6C22.13,18.27,22.13,18.73,21.3,19.4L17.23,22.6C16.5,23.17,16.06,22.97,16.06,22.03L16.06,14.96C16.06,14.06,16.49,13.83,17.19,14.39Z" fill="currentColor"/><path d="M20.57,4C21.6,4,22,4.4,22,5.43L22,5.56C22,6.59,21.6,6.99,20.57,6.99L7.4,6.99L7.4,3.99Z" fill="currentColor"/><path d="M6.8,9.6L2.7,6.4C1.87,5.73,1.87,5.27,2.7,4.6L6.77,1.4C7.5,0.83,7.94,1.03,7.94,1.97L7.94,9.04C7.94,9.94,7.51,10.17,6.81,9.61Z" fill="currentColor"/></svg>