<svg xmlns="http://www.w3.org/2000/svg" viewBox="0 0 24 24" fill="currentColor"><path d="M5.5,6.58C5.5,5.81,5.8,5.51,6.57,5.51L10.79,5.51C11.24,5.51,11.49,5.76,11.49,6.21L11.49,6.3C11.49,6.75,11.24,7,10.79,7L8.04,7L11.59,10.55C11.91,10.87,11.91,11.22,11.59,11.54L11.54,11.6C11.21,11.92,10.86,11.92,10.54,11.6L6.99,8.05L6.99,10.8C6.99,11.25,6.74,11.5,6.29,11.5L6.2,11.5C5.75,11.5,5.5,11.25,5.5,10.8ZM20.5,19.42C20.5,20.19,20.2,20.49,19.43,20.49L15.21,20.49C14.75,20.49,14.51,20.25,14.51,19.79L14.51,19.7C14.51,19.25,14.75,19,15.21,19L17.96,19L14.41,15.45C14.09,15.13,14.09,14.78,14.41,14.45L14.46,14.4C14.79,14.08,15.14,14.08,15.46,14.4L19.01,17.95L19.01,15.2C19.01,14.75,19.25,14.5,19.71,14.5L19.8,14.5C20.25,14.5,20.5,14.75,20.5,15.2Z"/></svg>