<svg xmlns="http://www.w3.org/2000/svg" viewBox="0 0 24 24"><path d="M8.9,13L18.37,3.57L20.44,5.67L11.01,15.14C10.28,15.87,9.74,15.84,9.01,15.11L8.91,15.04C8.18,14.31,8.18,13.74,8.91,13.01Z" fill="currentColor"/><path d="M21.37,2C21.84,2,22,2.17,22,2.63L22,8.1C22,9.13,21.73,9.27,21,8.53L15.47,3C14.77,2.3,14.87,2,15.9,2Z" fill="currentColor"/><path d="M18,22L6,22C3.53,22,2,20.47,2,18L2,6C2,3.53,3.53,2,6,2L11.07,2C11.67,2,12,2.33,12,2.93L12,3.06C12,3.66,11.67,3.99,11.07,3.99L6.4,3.99C4.4,3.99,4,4.39,4,6.39L4,17.59C4,19.59,4.4,19.99,6.4,19.99L17.6,19.99C19.6,19.99,20,19.59,20,17.59L20,12.92C20,12.32,20.33,11.99,20.93,11.99L21.06,11.99C21.66,11.99,21.99,12.32,21.99,12.92L21.99,17.99C21.99,20.46,20.46,21.99,17.99,21.99Z" fill="currentColor"/></svg>