<svg xmlns="http://www.w3.org/2000/svg" viewBox="0 0 24 24"><path d="M9.7,5.57C13.7,5.57,15.03,6.9,15.03,10.9L15.03,16.93C15.03,18.53,15.56,19.06,17.16,19.06L20.59,19.06C21.62,19.06,22.02,19.46,22.02,20.49L22.02,20.62C22.02,21.65,21.62,22.05,20.59,22.05L17.36,22.05C13.36,22.05,12.03,20.72,12.03,16.72L12.03,10.69C12.03,9.09,11.5,8.56,9.9,8.56L3.77,8.56L3.77,5.56Z" fill="currentColor"/><path d="M4.87,11.17L0.8,7.97C-0.03,7.3,-0.03,6.84,0.8,6.17L4.9,2.97C5.6,2.4,6.03,2.64,6.03,3.54L6.03,10.61C6.03,11.54,5.6,11.74,4.86,11.18Z" fill="currentColor"/></svg>