<svg xmlns="http://www.w3.org/2000/svg" viewBox="0 0 24 24" fill="currentColor"><path d="M10.68,13.75L17.78,6.68L19.33,8.25L12.26,15.36C11.71,15.9,11.31,15.88,10.76,15.33L10.68,15.28C10.14,14.73,10.14,14.3,10.68,13.76ZM20.03,5.5C20.38,5.5,20.5,5.63,20.5,5.97L20.5,10.07C20.5,10.85,20.3,10.95,19.75,10.4L15.6,6.25C15.08,5.72,15.15,5.5,15.92,5.5ZM17.5,20.5L8.5,20.5C6.65,20.5,5.5,19.35,5.5,17.5L5.5,8.5C5.5,6.65,6.65,5.5,8.5,5.5L12.3,5.5C12.75,5.5,13,5.75,13,6.2L13,6.29C13,6.74,12.75,6.99,12.3,6.99L8.8,6.99C7.3,6.99,7,7.29,7,8.79L7,17.19C7,18.69,7.3,18.99,8.8,18.99L17.2,18.99C18.7,18.99,19,18.69,19,17.19L19,13.69C19,13.24,19.25,12.99,19.7,12.99L19.79,12.99C20.25,12.99,20.49,13.24,20.49,13.69L20.49,17.49C20.49,19.34,19.34,20.49,17.49,20.49Z"/></svg>