<svg xmlns="http://www.w3.org/2000/svg" viewBox="0 0 24 24"><path d="M15.87,6.83C15.84,6,16.2,5.8,16.87,6.3L23.3,11.13C24.1,11.76,24.1,12.23,23.3,12.86L16.87,17.69C16.2,18.19,15.84,17.99,15.87,17.16L16,14.03L14.83,14.03C14.23,14.03,13.76,13.73,13.53,13.16L12.8,11.36C12.4,10.39,12.63,10.03,13.67,10.03L16,10.03Z" fill="currentColor"/><path d="M0.7,11.13L7.13,6.3C7.8,5.8,8.16,6,8.13,6.83L8,10.03L9.2,10.03C9.8,10.03,10.27,10.33,10.5,10.9L11.23,12.7C11.63,13.67,11.4,14.03,10.36,14.03L7.99,14.03L8.12,17.16C8.15,17.99,7.79,18.19,7.12,17.69L0.69,12.86C-0.11,12.23,-0.11,11.76,0.69,11.13Z" fill="currentColor"/></svg>