<svg xmlns="http://www.w3.org/2000/svg" viewBox="0 0 24 24" fill="currentColor"><path d="M14,9.75L16.9,12.65C17.15,12.9,17.15,13.11,16.9,13.35L14,16.25C13.47,16.78,13.25,16.71,13.25,15.93L13.25,10.08C13.25,9.31,13.45,9.21,14,9.76ZM4.62,11.88L14.47,11.9L14.47,14.13L4.62,14.13C4.17,14.13,4,13.9,4,13.32L4,12.67C4,12.09,4.17,11.87,4.62,11.87ZM17.5,5.5C19.35,5.5,20.5,6.65,20.5,8.5L20.5,17.5C20.5,19.35,19.35,20.5,17.5,20.5L8.5,20.5C6.65,20.5,5.5,19.35,5.5,17.5L5.5,16.67C5.5,16.22,5.75,15.98,6.2,15.98L6.29,15.98C6.74,15.98,6.99,16.22,6.99,16.67L6.99,17.2C6.99,18.7,7.29,19,8.79,19L17.19,19C18.69,19,18.99,18.7,18.99,17.2L18.99,8.8C18.99,7.3,18.69,7,17.19,7L8.79,7C7.29,7,6.99,7.3,6.99,8.8L6.99,9.27C6.99,9.72,6.74,9.97,6.29,9.97L6.2,9.97C5.75,9.97,5.5,9.72,5.5,9.27L5.5,8.5C5.5,6.65,6.65,5.5,8.5,5.5Z"/></svg>