<svg xmlns="http://www.w3.org/2000/svg" viewBox="0 0 24 24"><path d="M15.1,11L5.63,20.43L3.56,18.33L12.99,8.86C13.72,8.13,14.26,8.16,14.99,8.89L15.09,8.96C15.82,9.69,15.82,10.26,15.09,10.99Z" fill="currentColor"/><path d="M2.63,22C2.16,22,2,21.83,2,21.37L2,15.9C2,14.87,2.27,14.73,3,15.47L8.53,21C9.23,21.7,9.13,22,8.1,22Z" fill="currentColor"/><path d="M6,2L18,2C20.47,2,22,3.53,22,6L22,18C22,20.47,20.47,22,18,22L12.93,22C12.33,22,12,21.67,12,21.07L12,20.94C12,20.34,12.33,20.01,12.93,20.01L17.6,20.01C19.6,20.01,20,19.61,20,17.61L20,6.41C20,4.41,19.6,4.01,17.6,4.01L6.4,4.01C4.4,4.01,4,4.41,4,6.41L4,11.08C4,11.68,3.67,12.01,3.07,12.01L2.94,12.01C2.34,12.01,2.01,11.68,2.01,11.08L2.01,6.01C2.01,3.54,3.54,2.01,6.01,2.01Z" fill="currentColor"/></svg>