<svg xmlns="http://www.w3.org/2000/svg" viewBox="0 0 24 24"><path d="M13.9,4.87L17.1,0.77C17.77,-0.06,18.23,-0.06,18.9,0.77L22.1,4.84C22.67,5.57,22.47,6.01,21.53,6.01L14.46,6.01C13.56,6.01,13.33,5.58,13.89,4.88Z" fill="currentColor"/><path d="M1.9,4.83L5.1,0.76C5.77,-0.07,6.23,-0.07,6.9,0.76L10.1,4.86C10.67,5.56,10.43,5.99,9.53,5.99L2.46,5.99C1.53,5.99,1.33,5.56,1.89,4.82Z" fill="currentColor"/><path d="M13.5,19.8L13.5,22.57C13.5,23.6,13.1,24,12.07,24L11.94,24C10.91,24,10.51,23.6,10.51,22.57L10.51,19.87C10.51,18.87,10.24,18.3,9.51,17.67L6.51,15.07C5.01,13.77,4.51,12.67,4.51,10.67L4.51,5.34L7.51,5.34L7.51,10.61C7.51,11.61,7.78,12.18,8.51,12.81L11.51,15.41C13.01,16.71,13.51,17.81,13.51,19.81Z" fill="currentColor"/><path d="M13.47,14.53L15.5,12.8C16.23,12.17,16.5,11.6,16.5,10.6L16.5,5.33L19.5,5.33L19.5,10.66C19.5,12.66,19,13.76,17.47,15.06L15.24,16.99C14.87,16.09,14.34,15.32,13.47,14.52Z" fill="currentColor"/></svg>