<svg xmlns="http://www.w3.org/2000/svg" viewBox="0 0 24 24"><path d="M17.4,5.1L12.93,10.4C12.26,11.2,11.73,11.2,11.06,10.4L6.59,5.1C5.92,4.3,6.06,4,7.09,4L16.89,4C17.92,4,18.06,4.3,17.39,5.1Z" fill="currentColor"/><path d="M12.07,24L11.94,24C10.91,24,10.51,23.6,10.51,22.57L10.51,17.47L13.51,17.47L13.51,22.57C13.51,23.6,13.11,24,12.08,24Z" fill="currentColor"/><path d="M7.1,19.83C6.07,19.83,5.93,19.53,6.57,18.73L11.1,13.26C11.73,12.46,12.27,12.46,12.9,13.26L17.43,18.73C18.06,19.53,17.93,19.83,16.9,19.83Z" fill="currentColor"/><path d="M10.5,1.43C10.5,0.4,10.9,0,11.93,0L12.06,0C13.09,0,13.49,0.4,13.49,1.43L13.49,7.2L10.49,7.2Z" fill="currentColor"/></svg>