<svg xmlns="http://www.w3.org/2000/svg" viewBox="0 0 24 24" fill="currentColor"><path d="M19.9,21.5C21.1,21.5,21.5,21.1,21.5,19.9L21.5,18.08C21.5,17.31,21.8,17.01,22.57,17.01L22.67,17.01C23.44,17.01,23.74,17.31,23.74,18.08L23.74,19.75C23.74,22.75,22.74,23.75,19.74,23.75L13.12,23.75L13.12,21.5ZM10.25,15.93L10.25,14.25C10.25,11.25,11.25,10.26,14.25,10.26L20.87,10.26L20.87,12.51L14.1,12.51C12.9,12.51,12.5,12.9,12.5,14.11L12.5,15.93C12.5,16.7,12.2,17,11.43,17L11.33,17C10.56,17,10.26,16.7,10.26,15.93ZM21.63,8.32L24.68,10.72C25.3,11.23,25.3,11.57,24.68,12.07L21.61,14.47C21.08,14.9,20.76,14.72,20.76,14.04L20.76,8.74C20.76,8.04,21.08,7.89,21.63,8.31ZM12.37,25.68L9.32,23.28C8.7,22.77,8.7,22.43,9.32,21.93L12.39,19.53C12.92,19.1,13.24,19.28,13.24,19.96L13.24,25.26C13.24,25.96,12.92,26.11,12.36,25.69Z"/></svg>