<svg xmlns="http://www.w3.org/2000/svg" viewBox="0 0 24 24"><path d="M22.83,12.93C16.23,19.53,12,18.16,6.33,12.46L4.66,10.83L8.89,6.6L10.56,8.23C15.26,12.96,16.96,14.56,20.73,10.8L21.2,10.33C22.03,9.5,22.87,9.46,23.5,10.13C24.2,10.83,24.13,11.63,23.33,12.43Z" fill="currentColor"/><path d="M2.94,22C2.34,22,2.01,21.67,2.01,21.07L2.01,20.94C2.01,20.34,2.34,20.01,2.94,20.01L21.07,20.01C21.67,20.01,22,20.34,22,20.94L22,21.07C22,21.67,21.67,22,21.07,22Z" fill="currentColor"/><path d="M12.03,5L3,14.07C2.27,14.8,2,14.67,2,13.64L2,5.44C2,4.41,2.4,4.01,3.43,4.01L11.6,4.01C12.63,4.01,12.77,4.28,12.03,5.01Z" fill="currentColor"/></svg>