<svg xmlns="http://www.w3.org/2000/svg" viewBox="0 0 24 24"><path d="M20.67,4.77L15.04,10.4L13.61,8.97L19.24,3.34Z" fill="currentColor"/><path d="M20.57,1.97C21.6,1.97,22,2.37,22,3.4L22,8.43C22,9.56,21.7,9.7,20.9,8.9L15.1,3.1C14.3,2.3,14.43,2,15.57,2Z" fill="currentColor"/><path d="M13.33,20C14,20,14,20,14,19.33L14,10.66C14,9.99,14,9.99,13.33,9.99L4.66,9.99C3.99,9.99,3.99,9.99,3.99,10.66L3.99,19.33C3.99,20,3.99,20,4.66,20Z" fill="currentColor"/><path d="M4.66,22C2.66,22,1.99,21.33,1.99,19.33L1.99,10.66C1.99,8.66,2.66,7.99,4.66,7.99L13.33,7.99C15.33,7.99,16,8.66,16,10.66L16,19.33C16,21.33,15.33,22,13.33,22Z" fill="currentColor"/></svg>