<svg xmlns="http://www.w3.org/2000/svg" viewBox="0 0 24 24"><path d="M18,8.13C18,6.53,17.47,6,15.87,6L13.44,6C12.41,6,12.01,5.6,12.01,4.57L12.01,4.44C12.01,3.41,12.41,3.01,13.44,3.01L15.67,3.01C19.67,3.01,21,4.34,21,8.34L21,17.17L18,17.17Z" fill="currentColor"/><path d="M10.57,21L8.34,21C4.34,21,3.01,19.67,3.01,15.67L3.01,6.84L6.01,6.84L6.01,15.87C6.01,17.47,6.54,18,8.14,18L10.57,18C11.6,18,12,18.4,12,19.43L12,19.56C12,20.59,11.6,20.99,10.57,20.99Z" fill="currentColor"/><path d="M0.43,5.83L3.63,1.76C4.3,0.93,4.76,0.93,5.43,1.76L8.63,5.86C9.2,6.56,8.96,6.99,8.06,6.99L0.99,6.99C0.06,6.99,-0.14,6.56,0.42,5.82Z" fill="currentColor"/><path d="M23.57,18.17L20.37,22.24C19.7,23.07,19.24,23.07,18.57,22.24L15.37,18.14C14.8,17.44,15.04,17.01,15.94,17.01L23.01,17.01C23.94,17.01,24.14,17.44,23.58,18.18Z" fill="currentColor"/></svg>