<svg xmlns="http://www.w3.org/2000/svg" viewBox="0 0 24 24"><path d="M13.57,10.5C14.6,10.5,15,10.9,15,11.93L15,12.06C15,13.09,14.6,13.49,13.57,13.49L5.14,13.49L5.14,10.52Z" fill="currentColor"/><path d="M6.87,16.1L2.77,12.9C1.94,12.23,1.94,11.77,2.77,11.1L6.84,7.9C7.57,7.33,8.01,7.53,8.01,8.47L8.01,15.54C8.01,16.44,7.58,16.67,6.88,16.11Z" fill="currentColor"/><path d="M22,5.97L22,18C22,20.47,20.47,22,18,22L15.43,22C14.4,22,14,21.6,14,20.57L14,20.44C14,19.41,14.4,19.01,15.43,19.01L18,19.01C18.77,19.01,19,18.74,19,18.01L19,5.98C19,5.21,18.77,4.98,18,4.98L15.43,4.98C14.4,4.98,14,4.58,14,3.55L14,3.42C14,2.39,14.4,1.99,15.43,1.99L18,1.99C20.47,1.99,22,3.52,22,5.99Z" fill="currentColor"/></svg>