<svg xmlns="http://www.w3.org/2000/svg" viewBox="0 0 24 24"><path d="M0.67,12.43C-0.13,11.63,-0.2,10.83,0.5,10.13C1.13,9.46,1.97,9.5,2.8,10.33L3.27,10.8C7.04,14.57,8.74,12.97,13.44,8.23L15.11,6.6L19.34,10.83L17.67,12.46C12,18.16,7.77,19.53,1.17,12.93Z" fill="currentColor"/><path d="M2.94,22C2.34,22,2.01,21.67,2.01,21.07L2.01,20.94C2.01,20.34,2.34,20.01,2.94,20.01L21.07,20.01C21.67,20.01,22,20.34,22,20.94L22,21.07C22,21.67,21.67,22,21.07,22Z" fill="currentColor"/><path d="M22,5.43L22,13.63C22,14.66,21.73,14.8,21,14.06L11.97,4.99C11.24,4.26,11.37,3.99,12.4,3.99L20.57,3.99C21.6,3.99,22,4.39,22,5.42Z" fill="currentColor"/></svg>