<svg xmlns="http://www.w3.org/2000/svg" viewBox="0 0 24 24" fill="currentColor"><path d="M6.25,13C6.25,8.67,9.8,5.13,14.13,5.13C18.45,5.13,22,8.67,22,13C22,17.33,18.45,20.88,14.13,20.88C13.7,20.88,13.3,20.85,12.87,20.8C12.12,20.67,11.88,20.33,12.02,19.58L12.05,19.45C12.2,18.7,12.55,18.45,13.3,18.57C13.58,18.59,13.85,18.63,14.13,18.63C17.22,18.63,19.75,16.1,19.75,13C19.75,9.9,17.22,7.38,14.13,7.38C11.03,7.38,8.5,9.9,8.5,13L8.5,14.55L6.25,14.55ZM10.5,15.35L8.1,18.42C7.6,19.04,7.25,19.04,6.75,18.42L4.35,15.37C3.92,14.82,4.07,14.49,4.78,14.49L10.08,14.49C10.76,14.49,10.93,14.81,10.51,15.34Z"/></svg>