<svg xmlns="http://www.w3.org/2000/svg" viewBox="0 0 24 24" fill="currentColor"><path d="M12.25,5.12C14.27,5.12,16.28,5.9,17.82,7.43L18.92,8.53L17.33,10.13L16.23,9.02C15.12,7.92,13.68,7.37,12.25,7.37C9.15,7.37,6.63,9.9,6.63,13C6.63,16.1,9.15,18.62,12.25,18.62C14.18,18.62,15.65,17.75,16.77,16.37C17.22,15.75,17.65,15.68,18.3,16.1L18.37,16.17C19.02,16.6,19.1,17.02,18.65,17.65C17.07,19.62,14.97,20.85,12.25,20.85C7.7,20.85,4.38,17.2,4.38,13C4.38,8.55,7.98,5.12,12.25,5.12ZM20.82,7.77L21.29,11.62C21.39,12.39,21.12,12.67,20.34,12.57L16.46,12.1C15.79,12.02,15.69,11.67,16.16,11.2L19.91,7.45C20.39,6.98,20.74,7.07,20.81,7.77Z"/></svg>