<svg xmlns="http://www.w3.org/2000/svg" viewBox="0 0 24 24" fill="currentColor"><path d="M11.5,6.95C11.5,5.75,11.75,5.5,12.95,5.5L13.04,5.5C14.25,5.5,14.49,5.75,14.49,6.95L14.47,13.64L11.49,13.64ZM13.67,16.2C13.17,16.82,12.83,16.82,12.32,16.2L8.72,11.67C8.2,11,8.33,10.75,9.17,10.75L16.82,10.75C17.67,10.75,17.8,11,17.27,11.67ZM5.5,18.96C5.5,17.75,5.75,17.51,6.95,17.51L19.04,17.51C20.25,17.51,20.49,17.75,20.49,18.96L20.49,19.05C20.49,20.25,20.25,20.5,19.04,20.5L6.95,20.5C5.75,20.5,5.5,20.25,5.5,19.05Z"/></svg>