<svg xmlns="http://www.w3.org/2000/svg" viewBox="0 0 24 24" fill="currentColor"><path d="M7,6.57C7,5.8,7.3,5.5,8.07,5.5L8.17,5.5C8.94,5.5,9.24,5.8,9.24,6.57L9.24,16.45L6.99,16.45ZM11.2,16.9L8.8,19.97C8.3,20.6,7.95,20.6,7.45,19.97L5.05,16.92C4.62,16.37,4.77,16.04,5.48,16.04L10.78,16.04C11.46,16.04,11.63,16.37,11.21,16.89ZM19,19.43C19,20.2,18.7,20.5,17.93,20.5L17.83,20.5C17.06,20.5,16.76,20.2,16.76,19.43L16.76,9.55L19.01,9.55ZM14.8,9.1L17.2,6.03C17.7,5.4,18.05,5.4,18.55,6.03L20.95,9.08C21.38,9.63,21.23,9.96,20.52,9.96L15.22,9.96C14.54,9.96,14.37,9.63,14.79,9.11Z"/></svg>