<svg xmlns="http://www.w3.org/2000/svg" viewBox="0 0 24 24"><path d="M10.5,3.43C10.5,2.4,10.9,2,11.93,2L12.06,2C13.09,2,13.49,2.4,13.49,3.43L13.49,10.86L10.52,10.86Z" fill="currentColor"/><path d="M16.1,9.13L12.9,13.23C12.23,14.06,11.77,14.06,11.1,13.23L7.9,9.16C7.33,8.43,7.53,7.99,8.47,7.99L15.54,7.99C16.44,7.99,16.67,8.42,16.11,9.12Z" fill="currentColor"/><path d="M18.03,22L6,22C3.53,22,2,20.47,2,18L2,15.43C2,14.4,2.4,14,3.43,14L3.56,14C4.59,14,4.99,14.4,4.99,15.43L4.99,18C4.99,18.73,5.26,19,5.99,19L18.02,19C18.79,19,19.02,18.73,19.02,18L19.02,15.43C19.02,14.4,19.42,14,20.45,14L20.58,14C21.61,14,22.01,14.4,22.01,15.43L22.01,18C22.01,20.47,20.48,22,18.01,22Z" fill="currentColor"/></svg>