<svg xmlns="http://www.w3.org/2000/svg" viewBox="0 0 24 24"><path d="M3.43,13.5C2.4,13.5,2,13.1,2,12.07L2,11.94C2,10.91,2.4,10.51,3.43,10.51L10.86,10.51L10.86,13.48Z" fill="currentColor"/><path d="M9.13,7.9L13.23,11.1C14.06,11.77,14.06,12.23,13.23,12.9L9.16,16.1C8.43,16.67,7.99,16.47,7.99,15.53L7.99,8.46C7.99,7.56,8.42,7.33,9.12,7.89Z" fill="currentColor"/><path d="M22,5.97L22,18C22,20.47,20.47,22,18,22L15.43,22C14.4,22,14,21.6,14,20.57L14,20.44C14,19.41,14.4,19.01,15.43,19.01L18,19.01C18.77,19.01,19,18.74,19,18.01L19,5.98C19,5.21,18.77,4.98,18,4.98L15.43,4.98C14.4,4.98,14,4.58,14,3.55L14,3.42C14,2.39,14.4,1.99,15.43,1.99L18,1.99C20.47,1.99,22,3.52,22,5.99Z" fill="currentColor"/></svg>