<svg xmlns="http://www.w3.org/2000/svg" viewBox="0 0 24 24"><path d="M11.07,22.83C4.47,16.23,5.84,12,11.54,6.33L13.17,4.66L17.4,8.89L15.77,10.56C11.04,15.26,9.44,16.96,13.2,20.73L13.67,21.2C14.5,22.03,14.54,22.87,13.87,23.5C13.17,24.2,12.37,24.13,11.57,23.33Z" fill="currentColor"/><path d="M2,2.94C2,2.34,2.33,2.01,2.93,2.01L3.06,2.01C3.66,2.01,3.99,2.34,3.99,2.94L3.99,21.07C3.99,21.67,3.66,22,3.06,22L2.93,22C2.33,22,2,21.67,2,21.07Z" fill="currentColor"/><path d="M19,12.03L9.93,3C9.2,2.27,9.33,2,10.36,2L18.56,2C19.59,2,19.99,2.4,19.99,3.43L19.99,11.6C19.99,12.63,19.72,12.77,18.99,12.03Z" fill="currentColor"/></svg>