<svg xmlns="http://www.w3.org/2000/svg" viewBox="0 0 24 24" fill="currentColor"><path d="M8.85,9.25L11.85,12.25C12.4,12.8,12.4,13.2,11.85,13.75L8.85,16.75C8.53,17.07,8.18,17.07,7.86,16.75L7.8,16.67C7.48,16.35,7.48,16,7.8,15.68L9.73,13.75L4.71,13.75C4.26,13.75,4.01,13.5,4.01,13.05L4.01,12.96C4.01,12.5,4.26,12.26,4.71,12.26L9.73,12.26L7.8,10.33C7.48,10.01,7.48,9.65,7.8,9.33L7.86,9.26C8.18,8.94,8.53,8.94,8.85,9.26ZM17.15,16.75L14.15,13.75C13.6,13.2,13.6,12.8,14.15,12.25L17.15,9.25C17.47,8.93,17.82,8.93,18.14,9.25L18.2,9.32C18.52,9.65,18.52,10,18.2,10.32L16.27,12.25L21.29,12.25C21.75,12.25,21.99,12.5,21.99,12.95L21.99,13.04C21.99,13.5,21.75,13.74,21.29,13.74L16.27,13.74L18.2,15.67C18.52,15.99,18.52,16.34,18.2,16.67L18.14,16.74C17.82,17.07,17.47,17.07,17.15,16.74Z"/></svg>