<svg xmlns="http://www.w3.org/2000/svg" viewBox="0 0 24 24" fill="currentColor"><path d="M15.9,9.12C15.88,8.5,16.15,8.35,16.65,8.73L21.48,12.35C22.08,12.82,22.08,13.17,21.48,13.64L16.65,17.27C16.15,17.64,15.88,17.49,15.9,16.87L16,14.52L15.12,14.52C14.67,14.52,14.32,14.3,14.15,13.87L13.6,12.52C13.3,11.79,13.47,11.52,14.25,11.52L16,11.52ZM4.53,12.35L9.35,8.73C9.85,8.35,10.12,8.5,10.1,9.12L10,11.52L10.9,11.52C11.35,11.52,11.7,11.75,11.87,12.18L12.42,13.52C12.72,14.25,12.55,14.52,11.77,14.52L9.99,14.52L10.09,16.87C10.11,17.49,9.84,17.64,9.34,17.27L4.52,13.64C3.92,13.17,3.92,12.82,4.52,12.35Z"/></svg>