<svg xmlns="http://www.w3.org/2000/svg" viewBox="0 0 24 24" fill="currentColor"><path d="M5.95,20.52C5.63,20.52,5.5,20.39,5.5,20.07L5.48,15.67C5.48,15.2,5.63,15.17,5.98,15.52L10.5,20.04C10.86,20.39,10.78,20.52,10.28,20.52ZM9.98,14.5C10.53,13.95,10.95,13.95,11.5,14.5L11.5,14.5C12.05,15.05,12.05,15.48,11.5,16.02L7.82,19.75L6.27,18.17ZM5.5,5.92C5.5,5.6,5.63,5.47,5.95,5.47L10.28,5.47C10.78,5.47,10.85,5.6,10.5,5.94L5.98,10.46C5.63,10.82,5.48,10.79,5.48,10.32ZM9.98,11.5L6.28,7.82L7.83,6.25L11.51,9.98C12.06,10.52,12.06,10.95,11.51,11.5L11.51,11.5C10.96,12.05,10.53,12.05,9.99,11.5ZM20.52,15.68L20.5,20.08C20.5,20.4,20.37,20.53,20.05,20.53L15.72,20.53C15.22,20.53,15.14,20.4,15.5,20.06L20.02,15.54C20.37,15.18,20.52,15.21,20.52,15.69ZM19.72,18.17L18.17,19.75L14.49,16.02C13.95,15.48,13.95,15.05,14.49,14.5L14.49,14.5C15.04,13.95,15.47,13.95,16.02,14.5ZM20.05,5.48C20.37,5.48,20.5,5.6,20.5,5.93L20.52,10.33C20.52,10.8,20.37,10.83,20.02,10.48L15.5,5.96C15.14,5.6,15.22,5.48,15.72,5.48ZM16.02,11.5C15.48,12.05,15.05,12.05,14.5,11.5L14.5,11.5C13.95,10.95,13.95,10.52,14.5,9.98L18.17,6.25L19.73,7.83Z"/></svg>