<svg xmlns="http://www.w3.org/2000/svg" viewBox="0 0 24 24" fill="currentColor"><path d="M12.25,10.68L19.32,17.78L17.75,19.33L10.64,12.26C10.1,11.71,10.12,11.31,10.67,10.76L10.72,10.68C11.27,10.14,11.69,10.14,12.24,10.68ZM20.5,20.03C20.5,20.38,20.37,20.5,20.03,20.5L15.93,20.5C15.15,20.5,15.05,20.3,15.6,19.75L19.75,15.6C20.28,15.08,20.5,15.15,20.5,15.92ZM5.5,17.5L5.5,8.5C5.5,6.65,6.65,5.5,8.5,5.5L17.5,5.5C19.35,5.5,20.5,6.65,20.5,8.5L20.5,12.3C20.5,12.75,20.25,13,19.8,13L19.71,13C19.25,13,19.01,12.75,19.01,12.3L19.01,8.8C19.01,7.3,18.71,7,17.21,7L8.81,7C7.31,7,7.01,7.3,7.01,8.8L7.01,17.2C7.01,18.7,7.31,19,8.81,19L12.31,19C12.76,19,13.01,19.25,13.01,19.7L13.01,19.79C13.01,20.25,12.76,20.49,12.31,20.49L8.51,20.49C6.66,20.49,5.51,19.34,5.51,17.49Z"/></svg>