<svg xmlns="http://www.w3.org/2000/svg" viewBox="0 0 24 24" fill="currentColor"><path d="M15.9,17.5C17.1,17.5,17.5,17.1,17.5,15.9L17.5,14.08C17.5,13.31,17.8,13.01,18.57,13.01L18.67,13.01C19.44,13.01,19.74,13.31,19.74,14.08L19.74,15.75C19.74,18.75,18.74,19.75,15.74,19.75L9.12,19.75L9.12,17.5ZM6.25,11.93L6.25,10.25C6.25,7.25,7.25,6.26,10.25,6.26L16.87,6.26L16.87,8.51L10.1,8.51C8.9,8.51,8.5,8.9,8.5,10.11L8.5,11.93C8.5,12.7,8.2,13,7.43,13L7.33,13C6.56,13,6.26,12.7,6.26,11.93ZM17.63,4.32L20.68,6.72C21.3,7.23,21.3,7.57,20.68,8.07L17.61,10.47C17.08,10.9,16.76,10.72,16.76,10.04L16.76,4.74C16.76,4.04,17.08,3.89,17.63,4.31ZM8.37,21.68L5.32,19.28C4.7,18.77,4.7,18.43,5.32,17.93L8.39,15.53C8.92,15.1,9.24,15.28,9.24,15.96L9.24,21.26C9.24,21.96,8.92,22.11,8.36,21.69Z"/></svg>