<svg xmlns="http://www.w3.org/2000/svg" viewBox="0 0 24 24" fill="currentColor"><path d="M6.25,16.13L6.25,17.93C6.25,18.7,5.95,19,5.18,19L5.08,19C4.31,19,4.01,18.7,4.01,17.93L4.01,16.13C4.01,10.53,8.11,6.75,13.01,6.75C15.69,6.75,18.13,7.93,19.81,9.83L18.11,11.33C16.86,9.9,15.03,9,13.01,9C9.28,9,6.26,11.91,6.26,16.13ZM21.38,8.57L21.85,12.42C21.95,13.2,21.68,13.47,20.9,13.38L17.02,12.9C16.34,12.83,16.25,12.47,16.72,12L20.47,8.25C20.94,7.78,21.3,7.88,21.37,8.57ZM13,13.5C14.35,13.5,15.5,14.65,15.5,16C15.5,17.35,14.35,18.5,13,18.5C11.65,18.5,10.5,17.35,10.5,16C10.5,14.65,11.65,13.5,13,13.5Z"/></svg>