<svg xmlns="http://www.w3.org/2000/svg" viewBox="0 0 24 24"><path d="M5.5,8.27L5.93,8.6C6.4,8.97,6.53,9.47,6.33,10.03C6.1,10.66,6,11.33,6,12C6,15.3,8.7,18,12,18L12,14.97C12,13.84,12.37,13.67,13.27,14.34L18.27,18.07C19.07,18.7,19.07,19.17,18.27,19.8L13.27,23.53C12.37,24.2,12,24.03,12,22.9L12,20.4C7.37,20.4,3.6,16.63,3.6,12C3.6,10.77,3.83,9.6,4.33,8.53C4.6,8,5.03,7.9,5.5,8.26Z" fill="currentColor"/><path d="M10.73,9.67L5.73,5.94C4.93,5.31,4.93,4.84,5.73,4.21L10.73,0.48C11.63,-0.19,12,-0.02,12,1.11L12,3.61C16.63,3.61,20.4,7.38,20.4,12.01C20.4,13.24,20.17,14.41,19.67,15.48C19.4,16.01,18.97,16.11,18.5,15.75L18.07,15.42C17.6,15.05,17.47,14.55,17.67,13.99C17.9,13.36,18,12.69,18,12.02C18,8.72,15.3,6.02,12,6.02L12,9.05C12,10.18,11.63,10.35,10.73,9.68Z" fill="currentColor"/></svg>