<svg xmlns="http://www.w3.org/2000/svg" viewBox="0 0 24 24" fill="currentColor"><path d="M11.52,8.75C11.09,8.9,10.72,8.8,10.45,8.45L10.2,8.13C9.93,7.77,10,7.45,10.4,7.25C11.21,6.87,12.08,6.7,13.01,6.7C16.48,6.7,19.31,9.53,19.31,13L21.18,13C22.03,13,22.16,13.28,21.65,13.95L18.86,17.7C18.38,18.3,18.03,18.3,17.56,17.7L14.76,13.95C14.26,13.28,14.39,13,15.23,13L17.51,13C17.51,10.52,15.48,8.5,13.01,8.5C12.5,8.5,12.01,8.57,11.53,8.75ZM4.35,12.05L7.15,8.3C7.62,7.7,7.97,7.7,8.45,8.3L11.25,12.05C11.75,12.72,11.62,13,10.77,13L8.5,13C8.5,15.48,10.52,17.5,13,17.5C13.5,17.5,14,17.42,14.48,17.25C14.9,17.1,15.28,17.2,15.55,17.55L15.8,17.88C16.07,18.23,16,18.55,15.59,18.75C14.79,19.13,13.92,19.3,12.99,19.3C9.52,19.3,6.69,16.47,6.69,13L4.82,13C3.97,13,3.84,12.72,4.34,12.05Z"/></svg>