<svg xmlns="http://www.w3.org/2000/svg" viewBox="0 0 24 24" fill="currentColor"><path d="M14.58,9.57C13.73,8.73,13.73,8.37,14.58,7.52L14.63,7.47C15.48,6.62,15.83,6.62,16.68,7.47L20.8,11.6C21.87,12.65,21.87,13.35,20.8,14.39L16.68,18.52C15.83,19.37,15.48,19.37,14.63,18.52L13.95,17.84C13.71,17.6,13.71,17.3,13.95,17.04L17.98,12.99ZM5.5,6.58C5.5,5.81,5.8,5.51,6.57,5.51L7.42,5.51C8.19,5.51,8.49,5.81,8.49,6.58L8.49,19.43C8.49,20.2,8.19,20.5,7.42,20.5L6.57,20.5C5.8,20.5,5.5,20.2,5.5,19.43ZM10,13.05L10,12.96C10,11.75,10.25,11.51,11.45,11.51L19.6,11.51L19.6,14.51L11.45,14.51C10.25,14.51,10,14.26,10,13.06Z"/></svg>