<svg xmlns="http://www.w3.org/2000/svg" viewBox="0 0 24 24" fill="currentColor"><path d="M11.25,17.88L6.8,17.88L6.8,15.63L11.4,15.63C12.6,15.63,13,15.23,13,14.03L13,9.5C13,6.5,14,5.51,17,5.51L19.42,5.51C20.19,5.51,20.49,5.81,20.49,6.58L20.49,6.68C20.49,7.45,20.19,7.75,19.42,7.75L16.85,7.75C15.65,7.75,15.25,8.15,15.25,9.35L15.25,13.87C15.25,16.87,14.25,17.87,11.25,17.87ZM7.65,19.83L4.58,17.43C3.95,16.92,3.95,16.58,4.58,16.08L7.63,13.68C8.18,13.25,8.51,13.4,8.51,14.1L8.51,19.41C8.51,20.08,8.19,20.25,7.66,19.83Z"/></svg>