<svg xmlns="http://www.w3.org/2000/svg" viewBox="0 0 24 24"><path d="M15.37,8C15.84,8,16,8.17,16,8.63L16,14.1C16,15.13,15.73,15.27,15,14.53L9.47,9C8.77,8.3,8.87,8,9.9,8Z" fill="currentColor"/><path d="M12.37,9.57L14.44,11.67L4.61,21.54C4.18,21.97,3.81,21.94,3.24,21.37L2.67,20.77C2.1,20.2,2.07,19.84,2.5,19.4Z" fill="currentColor"/><path d="M6,2L18,2C20.47,2,22,3.53,22,6L22,18C22,20.47,20.47,22,18,22L10.93,22C10.33,22,10,21.67,10,21.07L10,20.94C10,20.34,10.33,20.01,10.93,20.01L17.6,20.01C19.6,20.01,20,19.61,20,17.61L20,6.41C20,4.41,19.6,4.01,17.6,4.01L6.4,4.01C4.4,4.01,4,4.41,4,6.41L4,13.08C4,13.68,3.67,14.01,3.07,14.01L2.94,14.01C2.34,14.01,2.01,13.68,2.01,13.08L2.01,6.01C2.01,3.54,3.54,2.01,6.01,2.01Z" fill="currentColor"/></svg>