<svg xmlns="http://www.w3.org/2000/svg" viewBox="0 0 24 24" fill="currentColor"><path d="M11.88,5.37L14.13,5.37L14.13,12.21L13,13.25L11.88,12.21ZM16.32,12.4C16.85,11.85,17.35,11.63,18.12,11.63L18.37,11.63L18.37,13.88L18.82,13.88C18.05,13.88,17.54,14.1,17.02,14.68L15.48,16.37C15.3,15.68,14.94,15.12,14.35,14.52ZM14.13,19.4L14.13,20.92C14.13,21.69,13.83,21.99,13.05,21.99L12.96,21.99C12.18,21.99,11.88,21.69,11.88,20.92L11.88,19.17C11.88,18.4,11.68,17.88,11.15,17.3L8.98,14.92C8.46,14.34,7.95,14.12,7.18,14.12L7.38,14.12L7.38,11.87L7.88,11.87C8.66,11.87,9.16,12.09,9.68,12.64L12.76,15.94C13.79,17.01,14.13,17.89,14.13,19.39ZM18.35,9.93L21.42,12.33C22.04,12.83,22.04,13.17,21.42,13.68L18.37,16.08C17.82,16.5,17.49,16.35,17.49,15.65L17.49,10.35C17.49,9.67,17.81,9.5,18.34,9.92ZM7.62,16.08L4.57,13.68C3.95,13.17,3.95,12.83,4.57,12.33L7.64,9.93C8.17,9.5,8.49,9.68,8.49,10.35L8.49,15.66C8.49,16.35,8.17,16.5,7.61,16.08ZM9.93,7.65L12.33,4.58C12.83,3.95,13.17,3.95,13.68,4.58L16.08,7.63C16.5,8.18,16.35,8.51,15.65,8.51L10.35,8.51C9.67,8.51,9.5,8.19,9.92,7.66Z"/></svg>