<svg xmlns="http://www.w3.org/2000/svg" viewBox="0 0 24 24"><path d="M13.07,2.87L13.14,2.8C14.27,1.67,14.74,1.67,15.87,2.8L22.27,9.17C24,10.94,24,13.07,22.27,14.84L15.87,21.21C14.74,22.34,14.27,22.34,13.14,21.21L13.07,21.14C11.94,20.01,11.94,19.54,13.07,18.41L19.44,12.01L13.07,5.61C11.94,4.48,11.94,4.01,13.07,2.88Z" fill="currentColor"/><path d="M1.07,2.87L1.14,2.8C2.27,1.67,2.74,1.67,3.87,2.8L10.27,9.17C12,10.94,12,13.07,10.27,14.84L3.87,21.21C2.74,22.34,2.27,22.34,1.14,21.21L1.07,21.14C-0.06,20.01,-0.06,19.54,1.07,18.41L7.44,12.01L1.07,5.61C-0.06,4.48,-0.06,4.01,1.07,2.88Z" fill="currentColor"/></svg>