<svg xmlns="http://www.w3.org/2000/svg" viewBox="0 0 24 24"><path d="M17.67,10.03C17.47,9.46,17.6,8.96,18.07,8.6L18.5,8.27C18.97,7.9,19.4,8,19.67,8.54C20.17,9.61,20.4,10.77,20.4,12.01C20.4,16.64,16.63,20.41,12,20.41L12,22.91C12,24.04,11.63,24.21,10.73,23.54L5.73,19.81C4.93,19.18,4.93,18.71,5.73,18.08L10.73,14.35C11.63,13.68,12,13.85,12,14.98L12,18.01C15.3,18.01,18,15.31,18,12.01C18,11.34,17.9,10.68,17.67,10.04Z" fill="currentColor"/><path d="M13.27,0.47L18.27,4.2C19.07,4.83,19.07,5.3,18.27,5.93L13.27,9.66C12.37,10.33,12,10.16,12,9.03L12,6C8.7,6,6,8.7,6,12C6,12.67,6.1,13.33,6.33,13.97C6.53,14.54,6.4,15.04,5.93,15.4L5.5,15.73C5.03,16.1,4.6,16,4.33,15.46C3.83,14.39,3.6,13.23,3.6,11.99C3.6,7.36,7.37,3.59,12,3.59L12,1.09C12,-0.04,12.37,-0.21,13.27,0.46Z" fill="currentColor"/></svg>