<svg xmlns="http://www.w3.org/2000/svg" viewBox="0 0 24 24" fill="currentColor"><path d="M6.57,14.13C5.8,14.13,5.5,13.83,5.5,13.05L5.5,12.96C5.5,12.18,5.8,11.88,6.57,11.88L12.14,11.88L12.14,14.11ZM10.85,9.93L13.92,12.33C14.54,12.83,14.54,13.17,13.92,13.68L10.87,16.08C10.32,16.5,9.99,16.35,9.99,15.65L9.99,10.35C9.99,9.67,10.31,9.5,10.84,9.92ZM20.5,8.48L20.5,17.5C20.5,19.35,19.35,20.5,17.5,20.5L15.57,20.5C14.8,20.5,14.5,20.2,14.5,19.43L14.5,19.33C14.5,18.56,14.8,18.26,15.57,18.26L17.5,18.26C18.08,18.26,18.25,18.05,18.25,17.51L18.25,8.49C18.25,7.91,18.08,7.74,17.5,7.74L15.57,7.74C14.8,7.74,14.5,7.44,14.5,6.66L14.5,6.57C14.5,5.79,14.8,5.49,15.57,5.49L17.5,5.49C19.35,5.49,20.5,6.64,20.5,8.49Z"/></svg>