<svg xmlns="http://www.w3.org/2000/svg" viewBox="0 0 24 24"><path d="M13.33,7.67L17.2,11.54C17.53,11.87,17.53,12.14,17.2,12.47L13.33,16.34C12.63,17.04,12.33,16.94,12.33,15.91L12.33,8.11C12.33,7.08,12.6,6.94,13.33,7.68Z" fill="currentColor"/><path d="M0.83,10.5L13.96,10.53L13.96,13.5L0.83,13.5C0.23,13.5,0,13.2,0,12.43L0,11.56C0,10.79,0.23,10.49,0.83,10.49Z" fill="currentColor"/><path d="M18,2C20.47,2,22,3.53,22,6L22,18C22,20.47,20.47,22,18,22L6,22C3.53,22,2,20.47,2,18L2,16.9C2,16.3,2.33,15.97,2.93,15.97L3.06,15.97C3.66,15.97,3.99,16.3,3.99,16.9L3.99,17.6C3.99,19.6,4.39,20,6.39,20L17.59,20C19.59,20,19.99,19.6,19.99,17.6L19.99,6.4C19.99,4.4,19.59,4,17.59,4L6.39,4C4.39,4,3.99,4.4,3.99,6.4L3.99,7.03C3.99,7.63,3.66,7.96,3.06,7.96L2.93,7.96C2.33,7.96,2,7.63,2,7.03L2,6C2,3.53,3.53,2,6,2Z" fill="currentColor"/></svg>