<svg xmlns="http://www.w3.org/2000/svg" viewBox="0 0 24 24" fill="currentColor"><path d="M13.32,21.5C12.72,22.1,12.12,22.15,11.6,21.63C11.09,21.15,11.12,20.52,11.75,19.9L12.1,19.55C14.93,16.72,13.73,15.45,10.17,11.92L8.95,10.67L12.12,7.5L13.34,8.75C17.62,13,18.65,16.17,13.7,21.12ZM20.5,19.79C20.5,20.25,20.25,20.49,19.8,20.49L19.71,20.49C19.25,20.49,19.01,20.25,19.01,19.79L19.01,6.2C19.01,5.75,19.25,5.5,19.71,5.5L19.8,5.5C20.25,5.5,20.5,5.75,20.5,6.2ZM8.07,5.5L14.22,5.5C15,5.5,15.1,5.7,14.54,6.25L7.74,13.02C7.19,13.57,6.99,13.47,6.99,12.7L6.99,6.57C6.99,5.8,7.29,5.5,8.06,5.5Z"/></svg>