<svg xmlns="http://www.w3.org/2000/svg" viewBox="0 0 24 24" fill="currentColor"><path d="M16.25,14L13.34,16.9C13.1,17.15,12.89,17.15,12.65,16.9L9.74,14C9.22,13.47,9.29,13.25,10.07,13.25L15.92,13.25C16.69,13.25,16.79,13.45,16.24,14ZM14.13,4.62L14.1,14.47L11.87,14.47L11.87,4.62C11.87,4.17,12.1,4,12.68,4L13.33,4C13.91,4,14.13,4.17,14.13,4.62ZM20.5,17.5C20.5,19.35,19.35,20.5,17.5,20.5L8.5,20.5C6.65,20.5,5.5,19.35,5.5,17.5L5.5,8.5C5.5,6.65,6.65,5.5,8.5,5.5L9.32,5.5C9.77,5.5,10.02,5.75,10.02,6.2L10.02,6.29C10.02,6.74,9.77,6.99,9.32,6.99L8.8,6.99C7.3,6.99,7,7.29,7,8.79L7,17.19C7,18.69,7.3,18.99,8.8,18.99L17.2,18.99C18.7,18.99,19,18.69,19,17.19L19,8.79C19,7.29,18.7,6.99,17.2,6.99L16.73,6.99C16.28,6.99,16.03,6.74,16.03,6.29L16.03,6.2C16.03,5.75,16.28,5.5,16.73,5.5L17.5,5.5C19.35,5.5,20.5,6.65,20.5,8.5Z"/></svg>