<svg xmlns="http://www.w3.org/2000/svg" viewBox="0 0 24 24" fill="currentColor"><path d="M16.3,18.33L13.32,21.8C13.1,22.08,12.89,22.08,12.67,21.8L9.69,18.33C9.19,17.73,9.29,17.5,10.07,17.5L15.92,17.5C16.69,17.5,16.8,17.73,16.29,18.33ZM11.88,9.95C11.88,9.37,12.05,9.14,12.5,9.14L13.5,9.12C13.95,9.12,14.12,9.35,14.12,9.93L14.12,18.72L11.87,18.72ZM5.5,7C5.5,5.15,6.65,4,8.5,4L17.5,4C19.35,4,20.5,5.15,20.5,7L20.5,13C20.5,14.85,19.35,16,17.5,16L16.67,16C16.22,16,15.98,15.75,15.98,15.3L15.98,15.21C15.98,14.75,16.22,14.51,16.67,14.51L17.2,14.51C18.7,14.51,19,14.21,19,12.71L19,7.31C19,5.81,18.7,5.51,17.2,5.51L8.8,5.51C7.3,5.51,7,5.81,7,7.31L7,12.71C7,14.21,7.3,14.51,8.8,14.51L9.27,14.51C9.72,14.51,9.97,14.75,9.97,15.2L9.97,15.3C9.97,15.75,9.72,16,9.27,16L8.5,16C6.65,16,5.5,14.85,5.5,13Z"/></svg>