<svg xmlns="http://www.w3.org/2000/svg" viewBox="0 0 24 24" fill="currentColor"><path d="M6.72,14.45L11.05,14.45C11.37,14.45,11.5,14.58,11.5,14.9L11.52,19.3C11.52,19.77,11.37,19.8,11.02,19.45L6.5,14.93C6.14,14.58,6.22,14.46,6.72,14.46ZM7.02,20.48C6.47,21.02,6.05,21.02,5.5,20.48L5.5,20.48C4.95,19.93,4.95,19.5,5.5,18.95L9.18,15.23L10.73,16.8ZM19.28,11.5L14.95,11.5C14.63,11.5,14.5,11.37,14.5,11.05L14.48,6.65C14.48,6.18,14.63,6.15,14.98,6.5L19.5,11.02C19.86,11.37,19.78,11.49,19.28,11.49ZM18.98,5.48C19.52,4.93,19.95,4.93,20.5,5.48L20.5,5.48C21.05,6.02,21.05,6.45,20.5,7L16.83,10.73L15.27,9.15Z"/></svg>