<svg xmlns="http://www.w3.org/2000/svg" viewBox="0 0 24 24" fill="currentColor"><path d="M4.5,13.32C3.9,12.72,3.85,12.12,4.38,11.6C4.85,11.09,5.48,11.12,6.1,11.75L6.45,12.1C9.28,14.93,10.55,13.73,14.08,10.17L15.33,8.95L18.5,12.12L17.25,13.34C13,17.62,9.83,18.65,4.88,13.7ZM6.21,20.5C5.76,20.5,5.51,20.25,5.51,19.8L5.51,19.71C5.51,19.25,5.76,19.01,6.21,19.01L19.8,19.01C20.25,19.01,20.5,19.25,20.5,19.71L20.5,19.8C20.5,20.25,20.25,20.5,19.8,20.5ZM20.5,8.07L20.5,14.22C20.5,15,20.3,15.1,19.75,14.54L12.98,7.74C12.43,7.19,12.53,6.99,13.3,6.99L19.43,6.99C20.2,6.99,20.5,7.29,20.5,8.06Z"/></svg>