<svg xmlns="http://www.w3.org/2000/svg" viewBox="0 0 24 24" fill="currentColor"><path d="M10.42,14.5C11.19,14.5,11.49,14.8,11.49,15.57L11.49,19.79C11.49,20.25,11.24,20.49,10.79,20.49L10.7,20.49C10.25,20.49,10,20.25,10,19.79L10,17.04L6.45,20.59C6.13,20.91,5.78,20.91,5.45,20.59L5.4,20.54C5.08,20.21,5.08,19.86,5.4,19.54L8.95,15.99L6.2,15.99C5.75,15.99,5.5,15.75,5.5,15.29L5.5,15.2C5.5,14.75,5.75,14.5,6.2,14.5ZM11.5,10.42C11.5,11.19,11.2,11.49,10.43,11.49L6.21,11.49C5.76,11.49,5.51,11.24,5.51,10.79L5.51,10.7C5.51,10.25,5.76,10,6.21,10L8.96,10L5.41,6.45C5.09,6.13,5.09,5.78,5.41,5.45L5.46,5.4C5.78,5.08,6.14,5.08,6.46,5.4L10.01,8.95L10.01,6.2C10.01,5.75,10.25,5.5,10.71,5.5L10.8,5.5C11.25,5.5,11.5,5.75,11.5,6.2ZM15.58,11.5C14.81,11.5,14.51,11.2,14.51,10.43L14.51,6.21C14.51,5.76,14.75,5.51,15.21,5.51L15.3,5.51C15.75,5.51,16,5.76,16,6.21L16,8.96L19.55,5.41C19.87,5.09,20.22,5.09,20.55,5.41L20.6,5.46C20.92,5.78,20.92,6.14,20.6,6.46L17.05,10.01L19.8,10.01C20.25,10.01,20.5,10.25,20.5,10.71L20.5,10.8C20.5,11.25,20.25,11.5,19.8,11.5ZM14.5,15.58C14.5,14.81,14.8,14.51,15.57,14.51L19.79,14.51C20.25,14.51,20.49,14.75,20.49,15.21L20.49,15.3C20.49,15.75,20.25,16,19.79,16L17.04,16L20.59,19.55C20.91,19.87,20.91,20.22,20.59,20.55L20.54,20.6C20.21,20.92,19.86,20.92,19.54,20.6L15.99,17.05L15.99,19.8C15.99,20.25,15.75,20.5,15.29,20.5L15.2,20.5C14.75,20.5,14.5,20.25,14.5,19.8Z"/></svg>