<svg xmlns="http://www.w3.org/2000/svg" viewBox="0 0 24 24" fill="currentColor"><path d="M5.48,10.32L5.5,5.92C5.5,5.6,5.63,5.47,5.95,5.47L10.28,5.47C10.78,5.47,10.85,5.6,10.5,5.94L5.98,10.46C5.63,10.82,5.48,10.79,5.48,10.32ZM9.98,11.5L6.28,7.82L7.83,6.25L11.51,9.98C12.06,10.52,12.06,10.95,11.51,11.5L11.51,11.5C10.96,12.05,10.53,12.05,9.99,11.5ZM20.52,15.68L20.5,20.08C20.5,20.4,20.37,20.53,20.05,20.53L15.72,20.53C15.22,20.53,15.14,20.4,15.5,20.06L20.02,15.54C20.37,15.18,20.52,15.21,20.52,15.69ZM16.02,14.5L19.72,18.17L18.17,19.75L14.49,16.02C13.95,15.48,13.95,15.05,14.49,14.5L14.49,14.5C15.04,13.95,15.47,13.95,16.02,14.5Z"/></svg>