<svg xmlns="http://www.w3.org/2000/svg" viewBox="0 0 24 24" fill="currentColor"><path d="M11.82,14.13C11.05,14.13,10.75,13.83,10.75,13.05L10.75,12.96C10.75,12.18,11.05,11.88,11.82,11.88L18.14,11.88L18.14,14.11ZM16.85,9.93L19.92,12.33C20.54,12.83,20.54,13.17,19.92,13.68L16.87,16.08C16.32,16.5,15.99,16.35,15.99,15.65L15.99,10.35C15.99,9.67,16.31,9.5,16.84,9.92ZM5.5,17.52L5.5,8.5C5.5,6.65,6.65,5.5,8.5,5.5L10.43,5.5C11.2,5.5,11.5,5.8,11.5,6.57L11.5,6.67C11.5,7.44,11.2,7.74,10.43,7.74L8.5,7.74C7.95,7.74,7.75,7.92,7.75,8.49L7.75,17.52C7.75,18.06,7.95,18.27,8.5,18.27L10.43,18.27C11.2,18.27,11.5,18.57,11.5,19.34L11.5,19.44C11.5,20.21,11.2,20.51,10.43,20.51L8.5,20.51C6.65,20.51,5.5,19.36,5.5,17.51Z"/></svg>