<svg xmlns="http://www.w3.org/2000/svg" viewBox="0 0 24 24" fill="currentColor"><path d="M6.58,20.5C5.81,20.5,5.51,20.2,5.51,19.43L5.51,15.21C5.51,14.75,5.76,14.51,6.21,14.51L6.3,14.51C6.75,14.51,7,14.75,7,15.21L7,17.96L10.55,14.41C10.87,14.09,11.22,14.09,11.54,14.41L11.6,14.46C11.92,14.79,11.92,15.14,11.6,15.46L8.05,19.01L10.8,19.01C11.25,19.01,11.5,19.25,11.5,19.71L11.5,19.8C11.5,20.25,11.25,20.5,10.8,20.5ZM5.5,6.58C5.5,5.81,5.8,5.51,6.57,5.51L10.79,5.51C11.24,5.51,11.49,5.76,11.49,6.21L11.49,6.3C11.49,6.75,11.24,7,10.79,7L8.04,7L11.59,10.55C11.91,10.87,11.91,11.22,11.59,11.54L11.54,11.6C11.21,11.92,10.86,11.92,10.54,11.6L6.99,8.05L6.99,10.8C6.99,11.25,6.74,11.5,6.29,11.5L6.2,11.5C5.75,11.5,5.5,11.25,5.5,10.8ZM19.42,5.5C20.19,5.5,20.49,5.8,20.49,6.57L20.49,10.79C20.49,11.24,20.25,11.49,19.79,11.49L19.7,11.49C19.25,11.49,19,11.24,19,10.79L19,8.04L15.45,11.59C15.13,11.91,14.78,11.91,14.45,11.59L14.4,11.54C14.08,11.21,14.08,10.86,14.4,10.54L17.95,6.99L15.2,6.99C14.75,6.99,14.5,6.74,14.5,6.29L14.5,6.2C14.5,5.75,14.75,5.5,15.2,5.5ZM20.5,19.42C20.5,20.19,20.2,20.49,19.43,20.49L15.21,20.49C14.75,20.49,14.51,20.25,14.51,19.79L14.51,19.7C14.51,19.25,14.75,19,15.21,19L17.96,19L14.41,15.45C14.09,15.13,14.09,14.78,14.41,14.45L14.46,14.4C14.79,14.08,15.14,14.08,15.46,14.4L19.01,17.95L19.01,15.2C19.01,14.75,19.25,14.5,19.71,14.5L19.8,14.5C20.25,14.5,20.5,14.75,20.5,15.2Z"/></svg>