<svg xmlns="http://www.w3.org/2000/svg" viewBox="0 0 24 24" fill="currentColor"><path d="M7.68,16.3L4.2,13.32C3.93,13.1,3.93,12.89,4.2,12.67L7.68,9.69C8.28,9.19,8.5,9.29,8.5,10.07L8.5,15.92C8.5,16.69,8.27,16.8,7.68,16.29ZM16.05,11.88C16.63,11.88,16.86,12.05,16.86,12.5L16.88,13.5C16.88,13.95,16.65,14.12,16.08,14.12L7.28,14.12L7.28,11.87ZM19,5.5C20.85,5.5,22,6.65,22,8.5L22,17.5C22,19.35,20.85,20.5,19,20.5L13,20.5C11.15,20.5,10,19.35,10,17.5L10,16.67C10,16.22,10.25,15.98,10.7,15.98L10.79,15.98C11.25,15.98,11.49,16.22,11.49,16.67L11.49,17.2C11.49,18.7,11.79,19,13.29,19L18.69,19C20.19,19,20.49,18.7,20.49,17.2L20.49,8.8C20.49,7.3,20.19,7,18.69,7L13.29,7C11.79,7,11.49,7.3,11.49,8.8L11.49,9.27C11.49,9.72,11.25,9.97,10.79,9.97L10.7,9.97C10.25,9.97,10,9.72,10,9.27L10,8.5C10,6.65,11.15,5.5,13,5.5Z"/></svg>