<svg xmlns="http://www.w3.org/2000/svg" viewBox="0 0 24 24" fill="currentColor"><path d="M18.17,17.05L14.2,13.7C13.6,13.19,13.6,12.8,14.2,12.29L18.17,8.94C18.77,8.44,19,8.54,19,9.32L19,16.67C19,17.44,18.77,17.55,18.17,17.04ZM4,13.05L4,12.96C4,12.18,4.3,11.88,5.07,11.88L8.9,11.88L8.9,14.13L5.07,14.13C4.3,14.13,4,13.83,4,13.06ZM7.13,9.32C7.13,8.55,7.35,8.45,7.95,8.93L12.05,12.32C12.65,12.8,12.65,13.2,12.05,13.67L7.95,17.07C7.35,17.54,7.13,17.45,7.13,16.67ZM20.93,11.88C21.7,11.88,22,12.18,22,12.95L22,13.04C22,13.82,21.7,14.12,20.93,14.12L16.6,14.12L16.6,11.87Z"/></svg>