<svg xmlns="http://www.w3.org/2000/svg" viewBox="0 0 24 24" fill="currentColor"><path d="M7.63,16.17L7.71,16.1C8.36,15.67,8.78,15.75,9.23,16.38C10.35,17.75,11.83,18.63,13.75,18.63C16.85,18.63,19.38,16.1,19.38,13C19.38,9.9,16.85,7.38,13.75,7.38C12.32,7.38,10.88,7.92,9.77,9.02L8.67,10.13L7.07,8.53L8.18,7.43C9.73,5.9,11.72,5.12,13.75,5.12C18.02,5.12,21.63,8.55,21.63,13C21.63,17.2,18.3,20.85,13.75,20.85C11.03,20.85,8.93,19.63,7.35,17.65C6.9,17.03,6.98,16.6,7.63,16.17ZM9.53,12.1L5.65,12.57C4.88,12.67,4.6,12.4,4.7,11.62L5.17,7.77C5.24,7.08,5.6,6.97,6.07,7.45L9.82,11.2C10.29,11.67,10.2,12.03,9.52,12.1Z"/></svg>