<svg xmlns="http://www.w3.org/2000/svg" viewBox="0 0 24 24"><path d="M11.57,0.67C12.37,-0.13,13.17,-0.2,13.87,0.5C14.54,1.13,14.5,1.97,13.67,2.8L13.2,3.27C9.43,7.04,11.03,8.74,15.77,13.44L17.4,15.11L13.17,19.34L11.54,17.67C5.84,12,4.47,7.77,11.07,1.17Z" fill="currentColor"/><path d="M2,2.94C2,2.34,2.33,2.01,2.93,2.01L3.06,2.01C3.66,2.01,3.99,2.34,3.99,2.94L3.99,21.07C3.99,21.67,3.66,22,3.06,22L2.93,22C2.33,22,2,21.67,2,21.07Z" fill="currentColor"/><path d="M18.57,22L10.37,22C9.34,22,9.2,21.73,9.94,21L19.01,11.97C19.74,11.24,20.01,11.37,20.01,12.4L20.01,20.57C20.01,21.6,19.61,22,18.58,22Z" fill="currentColor"/></svg>