<svg xmlns="http://www.w3.org/2000/svg" viewBox="0 0 24 24"><path d="M3.63,13.93L9.4,13.93C9.83,13.93,10,14.1,10,14.53L10.03,20.4C10.03,21.03,9.83,21.07,9.36,20.6L3.33,14.57C2.86,14.1,2.96,13.94,3.63,13.94Z" fill="currentColor"/><path d="M4.03,21.97C3.3,22.7,2.73,22.7,2,21.97L2,21.97C1.27,21.24,1.27,20.67,2,19.94L6.9,14.97L8.97,17.07Z" fill="currentColor"/><path d="M20.37,10L14.6,10C14.17,10,14,9.83,14,9.4L13.97,3.53C13.97,2.9,14.17,2.86,14.64,3.33L20.67,9.36C21.14,9.83,21.04,9.99,20.37,9.99Z" fill="currentColor"/><path d="M19.97,1.97C20.7,1.24,21.27,1.24,22,1.97L22,1.97C22.73,2.7,22.73,3.27,22,4L17.1,8.97L15.03,6.87Z" fill="currentColor"/></svg>