<svg xmlns="http://www.w3.org/2000/svg" viewBox="0 0 24 24"><path d="M11.37,11.2C10.8,11.43,10.5,11.23,10.5,10.63L10.5,6.8L13.5,6.8L13.5,8.8C13.5,9.83,13.13,10.4,12.2,10.8Z" fill="currentColor"/><path d="M6.94,8C5.91,8,5.74,7.67,6.37,6.87L11.14,0.7C11.77,-0.1,12.24,-0.1,12.87,0.7L17.64,6.87C18.27,7.67,18.11,8,17.07,8Z" fill="currentColor"/><path d="M6.36,17.13C5.73,16.33,5.89,16,6.93,16L17.06,16C18.09,16,18.26,16.33,17.63,17.13L12.86,23.3C12.23,24.1,11.76,24.1,11.13,23.3Z" fill="currentColor"/><path d="M12.63,12.8C13.2,12.57,13.5,12.77,13.5,13.37L13.5,18.2L10.5,18.2L10.5,15.2C10.5,14.17,10.87,13.6,11.8,13.2Z" fill="currentColor"/></svg>