<svg xmlns="http://www.w3.org/2000/svg" viewBox="0 0 24 24"><path d="M20.56,2C21.59,2,21.99,2.4,21.99,3.43L21.99,9.06C21.99,9.66,21.66,9.99,21.06,9.99L20.93,9.99C20.33,9.99,20,9.66,20,9.06L20,5.39L15.27,10.12C14.84,10.55,14.37,10.55,13.94,10.12L13.87,10.05C13.44,9.62,13.44,9.15,13.87,8.72L18.6,3.99L14.93,3.99C14.33,3.99,14,3.66,14,3.06L14,2.93C14,2.33,14.33,2,14.93,2Z" fill="currentColor"/><path d="M3.44,22C2.41,22,2.01,21.6,2.01,20.57L2.01,14.94C2.01,14.34,2.34,14.01,2.94,14.01L3.07,14.01C3.67,14.01,4,14.34,4,14.94L4,18.61L8.73,13.88C9.16,13.45,9.63,13.45,10.06,13.88L10.13,13.95C10.56,14.38,10.56,14.85,10.13,15.28L5.4,20.01L9.07,20.01C9.67,20.01,10,20.34,10,20.94L10,21.07C10,21.67,9.67,22,9.07,22Z" fill="currentColor"/></svg>