<svg xmlns="http://www.w3.org/2000/svg" viewBox="0 0 24 24"><path d="M7.6,4.9L11.57,0.27C11.87,-0.1,12.14,-0.1,12.44,0.27L16.41,4.9C17.08,5.7,16.94,6,15.91,6L8.11,6C7.08,6,6.94,5.7,7.61,4.9Z" fill="currentColor"/><path d="M13.5,16.07C13.5,16.84,13.27,17.14,12.67,17.14L11.34,17.17C10.74,17.17,10.51,16.87,10.51,16.1L10.51,4.37L13.51,4.37Z" fill="currentColor"/><path d="M22,20C22,22.47,20.47,24,18,24L6,24C3.53,24,2,22.47,2,20L2,12C2,9.53,3.53,8,6,8L7.1,8C7.7,8,8.03,8.33,8.03,8.93L8.03,9.06C8.03,9.66,7.7,9.99,7.1,9.99L6.4,9.99C4.4,9.99,4,10.39,4,12.39L4,19.59C4,21.59,4.4,21.99,6.4,21.99L17.6,21.99C19.6,21.99,20,21.59,20,19.59L20,12.39C20,10.39,19.6,9.99,17.6,9.99L16.97,9.99C16.37,9.99,16.04,9.66,16.04,9.06L16.04,8.93C16.04,8.33,16.37,8,16.97,8L18,8C20.47,8,22,9.53,22,12Z" fill="currentColor"/></svg>