<svg xmlns="http://www.w3.org/2000/svg" viewBox="0 0 24 24"><path d="M13.5,13.57C13.5,14.6,13.1,15,12.07,15L11.94,15C10.91,15,10.51,14.6,10.51,13.57L10.51,5.14L13.48,5.14Z" fill="currentColor"/><path d="M7.9,6.87L11.1,2.77C11.77,1.94,12.23,1.94,12.9,2.77L16.1,6.84C16.67,7.57,16.47,8.01,15.53,8.01L8.46,8.01C7.56,8.01,7.33,7.58,7.89,6.88Z" fill="currentColor"/><path d="M18.03,22L6,22C3.53,22,2,20.47,2,18L2,15.43C2,14.4,2.4,14,3.43,14L3.56,14C4.59,14,4.99,14.4,4.99,15.43L4.99,18C4.99,18.73,5.26,19,5.99,19L18.02,19C18.79,19,19.02,18.73,19.02,18L19.02,15.43C19.02,14.4,19.42,14,20.45,14L20.58,14C21.61,14,22.01,14.4,22.01,15.43L22.01,18C22.01,20.47,20.48,22,18.01,22Z" fill="currentColor"/></svg>