<svg xmlns="http://www.w3.org/2000/svg" viewBox="0 0 24 24" fill="currentColor"><path d="M11.27,8.18C14.27,8.18,15.27,9.18,15.27,12.18L15.27,16.7C15.27,17.9,15.67,18.29,16.87,18.29L19.44,18.29C20.21,18.29,20.52,18.59,20.52,19.37L20.52,19.46C20.52,20.24,20.21,20.54,19.44,20.54L17.02,20.54C14.02,20.54,13.02,19.54,13.02,16.54L13.02,12.02C13.02,10.82,12.63,10.42,11.43,10.42L6.83,10.42L6.83,8.17ZM7.65,12.38L4.6,9.98C3.98,9.47,3.98,9.13,4.6,8.63L7.67,6.23C8.2,5.8,8.52,5.98,8.52,6.65L8.52,11.96C8.52,12.65,8.2,12.8,7.64,12.38Z"/></svg>