<svg xmlns="http://www.w3.org/2000/svg" viewBox="0 0 24 24" fill="currentColor"><path d="M20.93,19L20.83,19C20.06,19,19.76,18.7,19.76,17.93L19.76,16.13C19.76,11.91,16.73,9,13.01,9C10.98,9,9.16,9.9,7.91,11.33L6.21,9.83C7.88,7.93,10.33,6.75,13.01,6.75C17.91,6.75,22.01,10.53,22.01,16.13L22.01,17.93C22.01,18.7,21.71,19,20.94,19ZM8.97,12.9L5.1,13.38C4.32,13.47,4.04,13.2,4.14,12.42L4.62,8.58C4.69,7.88,5.04,7.77,5.52,8.25L9.27,12C9.74,12.48,9.64,12.83,8.96,12.9ZM10.5,16C10.5,14.65,11.65,13.5,13,13.5C14.35,13.5,15.5,14.65,15.5,16C15.5,17.35,14.35,18.5,13,18.5C11.65,18.5,10.5,17.35,10.5,16Z"/></svg>