<svg xmlns="http://www.w3.org/2000/svg" viewBox="0 0 24 24"><path d="M4,3.43C4,2.4,4.4,2,5.43,2L5.56,2C6.59,2,6.99,2.4,6.99,3.43L6.99,16.6L3.99,16.6Z" fill="currentColor"/><path d="M9.6,17.2L6.4,21.3C5.73,22.13,5.27,22.13,4.6,21.3L1.4,17.23C0.83,16.5,1.03,16.06,1.97,16.06L9.04,16.06C9.94,16.06,10.17,16.49,9.61,17.19Z" fill="currentColor"/><path d="M20,20.57C20,21.6,19.6,22,18.57,22L18.44,22C17.41,22,17.01,21.6,17.01,20.57L17.01,7.4L20.01,7.4Z" fill="currentColor"/><path d="M14.4,6.8L17.6,2.7C18.27,1.87,18.73,1.87,19.4,2.7L22.6,6.77C23.17,7.5,22.97,7.94,22.03,7.94L14.96,7.94C14.06,7.94,13.83,7.51,14.39,6.81Z" fill="currentColor"/></svg>