<svg xmlns="http://www.w3.org/2000/svg" viewBox="0 0 24 24" fill="currentColor"><path d="M6.57,19C5.8,19,5.5,18.7,5.5,17.93L5.5,17.83C5.5,17.06,5.8,16.76,6.57,16.76L16.45,16.76L16.45,19.01ZM16.9,14.8L19.97,17.2C20.6,17.7,20.6,18.05,19.97,18.55L16.92,20.95C16.37,21.38,16.04,21.23,16.04,20.52L16.04,15.22C16.04,14.54,16.37,14.37,16.89,14.79ZM19.43,7C20.2,7,20.5,7.3,20.5,8.07L20.5,8.17C20.5,8.94,20.2,9.24,19.43,9.24L9.55,9.24L9.55,6.99ZM9.1,11.2L6.03,8.8C5.4,8.3,5.4,7.95,6.03,7.45L9.08,5.05C9.63,4.62,9.96,4.77,9.96,5.48L9.96,10.78C9.96,11.46,9.63,11.63,9.11,11.21Z"/></svg>