<svg xmlns="http://www.w3.org/2000/svg" viewBox="0 0 24 24" fill="currentColor"><path d="M18.35,14.42L21.42,16.82C22.04,17.33,22.04,17.67,21.42,18.17L18.37,20.57C17.82,21,17.49,20.85,17.49,20.15L17.49,14.84C17.49,14.17,17.81,14,18.34,14.42ZM18.38,5.43L21.43,7.83C22.05,8.33,22.05,8.67,21.43,9.18L18.36,11.58C17.83,12,17.51,11.82,17.51,11.15L17.51,5.85C17.51,5.15,17.83,5,18.38,5.42ZM7.15,14.13L5.07,14.13C4.3,14.13,4,13.83,4,13.05L4,12.96C4,12.18,4.3,11.88,5.07,11.88L7.1,11.88C7.85,11.88,8.27,11.68,8.75,11.13L10.7,8.88C11.67,7.76,12.5,7.38,14,7.38L17.99,7.38L17.99,9.63L14.04,9.63C13.29,9.63,12.86,9.83,12.39,10.38L10.44,12.63C9.47,13.76,8.64,14.13,7.14,14.13ZM11.1,14.1L12.4,15.63C12.87,16.17,13.3,16.38,14.05,16.38L18,16.38L18,18.63L14.01,18.63C12.51,18.63,11.68,18.25,10.71,17.1L9.26,15.43C9.93,15.15,10.51,14.75,11.11,14.1Z"/></svg>