<svg xmlns="http://www.w3.org/2000/svg" viewBox="0 0 24 24" fill="currentColor"><path d="M14.48,19.3L14.5,14.9C14.5,14.57,14.63,14.45,14.95,14.45L19.28,14.45C19.78,14.45,19.86,14.57,19.5,14.92L14.98,19.44C14.63,19.79,14.48,19.76,14.48,19.29ZM15.28,16.8L16.83,15.23L20.51,18.95C21.05,19.5,21.05,19.93,20.51,20.48L20.51,20.48C19.96,21.02,19.53,21.02,18.98,20.48ZM6.72,14.45L11.05,14.45C11.37,14.45,11.5,14.58,11.5,14.9L11.52,19.3C11.52,19.77,11.37,19.8,11.02,19.45L6.5,14.93C6.14,14.58,6.22,14.46,6.72,14.46ZM7.02,20.48C6.47,21.02,6.05,21.02,5.5,20.48L5.5,20.48C4.95,19.93,4.95,19.5,5.5,18.95L9.18,15.23L10.73,16.8ZM19.28,11.5L14.95,11.5C14.63,11.5,14.5,11.37,14.5,11.05L14.48,6.65C14.48,6.18,14.63,6.15,14.98,6.5L19.5,11.02C19.86,11.37,19.78,11.49,19.28,11.49ZM18.98,5.48C19.52,4.93,19.95,4.93,20.5,5.48L20.5,5.48C21.05,6.02,21.05,6.45,20.5,7L16.83,10.73L15.27,9.15ZM11.5,11.05C11.5,11.37,11.37,11.5,11.05,11.5L6.72,11.5C6.22,11.5,6.15,11.37,6.5,11.03L11.02,6.5C11.37,6.15,11.52,6.18,11.52,6.65ZM7.02,5.48L10.72,9.15L9.17,10.73L5.49,7C4.94,6.45,4.94,6.03,5.49,5.48L5.49,5.48C6.04,4.93,6.47,4.93,7.01,5.48Z"/></svg>