<svg xmlns="http://www.w3.org/2000/svg" viewBox="0 0 24 24"><path d="M3,16.17L3,18.57C3,19.6,2.6,20,1.57,20L1.44,20C0.41,20,0.01,19.6,0.01,18.57L0.01,16.17C0.01,8.7,5.48,3.67,12.01,3.67C15.58,3.67,18.84,5.24,21.08,7.77L18.81,9.77C17.14,7.87,14.71,6.67,12.01,6.67C7.04,6.67,3.01,10.54,3.01,16.17Z" fill="currentColor"/><path d="M23.17,6.1L23.8,11.23C23.93,12.26,23.57,12.63,22.53,12.5L17.36,11.87C16.46,11.77,16.33,11.3,16.96,10.67L21.96,5.67C22.59,5.04,23.06,5.17,23.16,6.1Z" fill="currentColor"/><path d="M8.67,16C8.67,14.2,10.2,12.67,12,12.67C13.8,12.67,15.33,14.2,15.33,16C15.33,17.8,13.8,19.33,12,19.33C10.2,19.33,8.67,17.8,8.67,16Z" fill="currentColor"/></svg>