<svg xmlns="http://www.w3.org/2000/svg" viewBox="0 0 24 24"><path d="M14.33,18.5C10.33,18.5,9,17.17,9,13.17L9,7.14C9,5.54,8.47,5.01,6.87,5.01L3.44,5.01C2.41,5.01,2.01,4.61,2.01,3.58L2.01,3.45C2.01,2.42,2.41,2.02,3.44,2.02L6.67,2.02C10.67,2.02,12,3.35,12,7.35L12,13.38C12,14.98,12.53,15.51,14.13,15.51L20.26,15.51L20.26,18.51Z" fill="currentColor"/><path d="M19.17,12.9L23.24,16.1C24.07,16.77,24.07,17.23,23.24,17.9L19.14,21.1C18.44,21.67,18.01,21.43,18.01,20.53L18.01,13.46C18.01,12.53,18.44,12.33,19.18,12.89Z" fill="currentColor"/></svg>