<svg xmlns="http://www.w3.org/2000/svg" viewBox="0 0 24 24"><path d="M13.5,20.57C13.5,21.6,13.1,22,12.07,22L11.94,22C10.91,22,10.51,21.6,10.51,20.57L10.51,13.14L13.48,13.14Z" fill="currentColor"/><path d="M7.9,14.87L11.1,10.77C11.77,9.94,12.23,9.94,12.9,10.77L16.1,14.84C16.67,15.57,16.47,16.01,15.53,16.01L8.46,16.01C7.56,16.01,7.33,15.58,7.89,14.88Z" fill="currentColor"/><path d="M5.97,2L18,2C20.47,2,22,3.53,22,6L22,8.57C22,9.6,21.6,10,20.57,10L20.44,10C19.41,10,19.01,9.6,19.01,8.57L19.01,6C19.01,5.23,18.78,5,18.01,5L5.98,5C5.25,5,4.98,5.23,4.98,6L4.98,8.57C4.98,9.6,4.58,10,3.55,10L3.42,10C2.39,10,1.99,9.6,1.99,8.57L1.99,6C1.99,3.53,3.52,2,5.99,2Z" fill="currentColor"/></svg>