<svg xmlns="http://www.w3.org/2000/svg" viewBox="0 0 24 24" fill="currentColor"><path d="M21.5,12.68C22.1,13.28,22.15,13.88,21.63,14.4C21.15,14.91,20.52,14.88,19.9,14.25L19.55,13.9C16.72,11.07,15.45,12.27,11.92,15.83L10.67,17.05L7.5,13.88L8.75,12.66C13,8.38,16.17,7.35,21.12,12.3ZM19.79,5.5C20.25,5.5,20.49,5.75,20.49,6.2L20.49,6.29C20.49,6.74,20.25,6.99,19.79,6.99L6.2,6.99C5.75,6.99,5.5,6.74,5.5,6.29L5.5,6.2C5.5,5.75,5.75,5.5,6.2,5.5ZM5.5,17.93L5.5,11.78C5.5,11.01,5.7,10.9,6.25,11.46L13.02,18.26C13.57,18.8,13.47,19.01,12.7,19.01L6.57,19.01C5.8,19.01,5.5,18.71,5.5,17.94Z"/></svg>