<svg xmlns="http://www.w3.org/2000/svg" viewBox="0 0 24 24" fill="currentColor"><path d="M15.33,12.25L8.22,19.32L6.67,17.75L13.74,10.64C14.29,10.1,14.7,10.12,15.24,10.67L15.32,10.72C15.87,11.27,15.87,11.69,15.32,12.24ZM5.97,20.5C5.62,20.5,5.5,20.37,5.5,20.03L5.5,15.93C5.5,15.15,5.7,15.05,6.25,15.6L10.4,19.75C10.92,20.28,10.85,20.5,10.08,20.5ZM8.5,5.5L17.5,5.5C19.35,5.5,20.5,6.65,20.5,8.5L20.5,17.5C20.5,19.35,19.35,20.5,17.5,20.5L13.7,20.5C13.25,20.5,13,20.25,13,19.8L13,19.71C13,19.25,13.25,19.01,13.7,19.01L17.2,19.01C18.7,19.01,19,18.71,19,17.21L19,8.81C19,7.31,18.7,7.01,17.2,7.01L8.8,7.01C7.3,7.01,7,7.31,7,8.81L7,12.31C7,12.76,6.75,13.01,6.3,13.01L6.21,13.01C5.76,13.01,5.51,12.76,5.51,12.31L5.51,8.51C5.51,6.66,6.66,5.51,8.51,5.51Z"/></svg>