<svg xmlns="http://www.w3.org/2000/svg" viewBox="0 0 24 24" fill="currentColor"><path d="M14.75,17.88C11.75,17.88,10.75,16.88,10.75,13.88L10.75,9.36C10.75,8.16,10.35,7.76,9.15,7.76L6.58,7.76C5.81,7.76,5.51,7.46,5.51,6.69L5.51,6.59C5.51,5.82,5.81,5.52,6.58,5.52L9,5.52C12,5.52,13,6.51,13,9.51L13,14.04C13,15.24,13.4,15.63,14.6,15.63L19.2,15.63L19.2,17.88ZM18.38,13.67L21.43,16.07C22.05,16.58,22.05,16.92,21.43,17.42L18.36,19.82C17.83,20.25,17.51,20.07,17.51,19.4L17.51,14.09C17.51,13.4,17.83,13.25,18.38,13.67Z"/></svg>