<svg xmlns="http://www.w3.org/2000/svg" viewBox="0 0 24 24" fill="currentColor"><path d="M8.46,20.5C7.25,20.5,7.01,20.25,7.01,19.05L7.01,6.96C7.01,5.76,7.25,5.51,8.46,5.51L8.55,5.51C9.75,5.51,10,5.76,10,6.96L10,19.05C10,20.25,9.75,20.5,8.55,20.5ZM18.95,19.85L18.89,19.9C18.05,20.75,17.7,20.75,16.85,19.9L12.05,15.12C10.75,13.79,10.75,12.2,12.05,10.87L16.85,6.09C17.7,5.24,18.05,5.24,18.89,6.09L18.95,6.14C19.79,6.99,19.79,7.34,18.95,8.19L14.17,12.99L18.95,17.79C19.79,18.64,19.79,18.99,18.95,19.84Z"/></svg>