<svg xmlns="http://www.w3.org/2000/svg" viewBox="0 0 24 24"><path d="M16.4,19.1L12.43,23.73C12.13,24.1,11.86,24.1,11.56,23.73L7.59,19.1C6.92,18.3,7.06,18,8.09,18L15.89,18C16.92,18,17.06,18.3,16.39,19.1Z" fill="currentColor"/><path d="M10.5,7.93C10.5,7.16,10.73,6.86,11.33,6.86L12.66,6.83C13.26,6.83,13.49,7.13,13.49,7.9L13.49,19.63L10.49,19.63Z" fill="currentColor"/><path d="M2,4C2,1.53,3.53,0,6,0L18,0C20.47,0,22,1.53,22,4L22,12C22,14.47,20.47,16,18,16L16.9,16C16.3,16,15.97,15.67,15.97,15.07L15.97,14.94C15.97,14.34,16.3,14.01,16.9,14.01L17.6,14.01C19.6,14.01,20,13.61,20,11.61L20,4.41C20,2.41,19.6,2.01,17.6,2.01L6.4,2.01C4.4,2.01,4,2.41,4,4.41L4,11.61C4,13.61,4.4,14.01,6.4,14.01L7.03,14.01C7.63,14.01,7.96,14.34,7.96,14.94L7.96,15.07C7.96,15.67,7.63,16,7.03,16L6,16C3.53,16,2,14.47,2,12Z" fill="currentColor"/></svg>