<svg xmlns="http://www.w3.org/2000/svg" viewBox="0 0 24 24"><path d="M19.1,7.6L23.73,11.57C24.1,11.87,24.1,12.14,23.73,12.44L19.1,16.41C18.3,17.08,18,16.94,18,15.91L18,8.11C18,7.08,18.3,6.94,19.1,7.61Z" fill="currentColor"/><path d="M7.93,13.5C7.16,13.5,6.86,13.27,6.86,12.67L6.83,11.34C6.83,10.74,7.13,10.51,7.9,10.51L19.63,10.51L19.63,13.51Z" fill="currentColor"/><path d="M4,22C1.53,22,0,20.47,0,18L0,6C0,3.53,1.53,2,4,2L12,2C14.47,2,16,3.53,16,6L16,7.1C16,7.7,15.67,8.03,15.07,8.03L14.94,8.03C14.34,8.03,14.01,7.7,14.01,7.1L14.01,6.4C14.01,4.4,13.61,4,11.61,4L4.41,4C2.41,4,2.01,4.4,2.01,6.4L2.01,17.6C2.01,19.6,2.41,20,4.41,20L11.61,20C13.61,20,14.01,19.6,14.01,17.6L14.01,16.97C14.01,16.37,14.34,16.04,14.94,16.04L15.07,16.04C15.67,16.04,16,16.37,16,16.97L16,18C16,20.47,14.47,22,12,22Z" fill="currentColor"/></svg>