<svg xmlns="http://www.w3.org/2000/svg" viewBox="0 0 24 24" fill="currentColor"><path d="M12.68,7.47L16.8,11.6C17.88,12.65,17.88,13.35,16.8,14.39L12.68,18.52C11.83,19.37,11.48,19.37,10.63,18.52L9.96,17.84C9.71,17.6,9.71,17.3,9.96,17.04L13.98,12.99L10.58,9.56C9.74,8.72,9.74,8.37,10.58,7.52L10.64,7.46C11.48,6.62,11.84,6.62,12.68,7.46ZM22,19.42C22,20.19,21.7,20.49,20.93,20.49L20.08,20.49C19.31,20.49,19.01,20.19,19.01,19.42L19.01,6.57C19.01,5.8,19.31,5.5,20.08,5.5L20.93,5.5C21.7,5.5,22,5.8,22,6.57ZM5.45,14.5C4.25,14.5,4,14.25,4,13.05L4,12.96C4,11.75,4.25,11.51,5.45,11.51L15.6,11.51L15.6,14.51Z"/></svg>