<svg xmlns="http://www.w3.org/2000/svg" viewBox="0 0 24 24"><path d="M4.9,16.4L0.27,12.43C-0.1,12.13,-0.1,11.86,0.27,11.56L4.9,7.59C5.7,6.92,6,7.06,6,8.09L6,15.89C6,16.92,5.7,17.06,4.9,16.39Z" fill="currentColor"/><path d="M16.07,10.5C16.84,10.5,17.14,10.73,17.14,11.33L17.17,12.66C17.17,13.26,16.87,13.49,16.1,13.49L4.37,13.49L4.37,10.49Z" fill="currentColor"/><path d="M20,2C22.47,2,24,3.53,24,6L24,18C24,20.47,22.47,22,20,22L12,22C9.53,22,8,20.47,8,18L8,16.9C8,16.3,8.33,15.97,8.93,15.97L9.06,15.97C9.66,15.97,9.99,16.3,9.99,16.9L9.99,17.6C9.99,19.6,10.39,20,12.39,20L19.59,20C21.59,20,21.99,19.6,21.99,17.6L21.99,6.4C21.99,4.4,21.59,4,19.59,4L12.39,4C10.39,4,9.99,4.4,9.99,6.4L9.99,7.03C9.99,7.63,9.66,7.96,9.06,7.96L8.93,7.96C8.33,7.96,8,7.63,8,7.03L8,6C8,3.53,9.53,2,12,2Z" fill="currentColor"/></svg>