<svg xmlns="http://www.w3.org/2000/svg" viewBox="0 0 24 24"><path d="M22.57,20L22.44,20C21.41,20,21.01,19.6,21.01,18.57L21.01,16.17C21.01,10.54,16.98,6.67,12.01,6.67C9.31,6.67,6.88,7.87,5.21,9.77L2.94,7.77C5.17,5.24,8.44,3.67,12.01,3.67C18.54,3.67,24.01,8.7,24.01,16.17L24.01,18.57C24.01,19.6,23.61,20,22.58,20Z" fill="currentColor"/><path d="M6.63,11.87L1.46,12.5C0.43,12.63,0.06,12.27,0.19,11.23L0.82,6.1C0.92,5.17,1.39,5.03,2.02,5.67L7.02,10.67C7.65,11.3,7.52,11.77,6.62,11.87Z" fill="currentColor"/><path d="M8.67,16C8.67,14.2,10.2,12.67,12,12.67C13.8,12.67,15.33,14.2,15.33,16C15.33,17.8,13.8,19.33,12,19.33C10.2,19.33,8.67,17.8,8.67,16Z" fill="currentColor"/></svg>