<svg xmlns="http://www.w3.org/2000/svg" viewBox="0 0 24 24"><path d="M3.93,14C2.33,14,2,13.67,2,12.07L2,11.94C2,10.34,2.33,10.01,3.93,10.01L12.86,10.04L12.86,14.01Z" fill="currentColor"/><path d="M16.26,11.1C17.09,11.77,17.09,12.23,16.26,12.9L10.23,17.7C9.33,18.4,9,18.23,9,17.1L9,6.9C9,5.77,9.33,5.6,10.23,6.3Z" fill="currentColor"/><path d="M19.94,22C18.34,22,18.01,21.67,18.01,20.07L18.01,3.94C18.01,2.34,18.34,2.01,19.94,2.01L20.07,2.01C21.67,2.01,22,2.34,22,3.94L22,20.07C22,21.67,21.67,22,20.07,22Z" fill="currentColor"/></svg>