<svg xmlns="http://www.w3.org/2000/svg" viewBox="0 0 24 24" fill="currentColor"><path d="M19.5,18.42L18.43,19.5L14.21,15.27L15.28,14.2ZM20.5,19.45C20.5,20.22,20.2,20.52,19.43,20.52L15.68,20.5C14.83,20.5,14.73,20.27,15.33,19.67L19.68,15.32C20.28,14.72,20.5,14.82,20.5,15.68ZM7,14C7,14.5,7,14.5,7.5,14.5L14,14.5C14.51,14.5,14.51,14.5,14.51,14L14.51,7.49C14.51,6.99,14.51,6.99,14,6.99L7.5,6.99C7,6.99,7,6.99,7,7.49ZM5.5,7.49C5.5,5.99,6,5.49,7.5,5.49L14,5.49C15.5,5.49,16.01,5.99,16.01,7.49L16.01,14C16.01,15.5,15.5,16,14,16L7.5,16C6,16,5.5,15.5,5.5,14Z"/></svg>