<svg xmlns="http://www.w3.org/2000/svg" viewBox="0 0 24 24"><path d="M15.73,5.5L15.4,5.93C15.03,6.4,14.53,6.53,13.97,6.33C13.34,6.1,12.67,6,12,6C8.7,6,6,8.7,6,12L9.03,12C10.16,12,10.33,12.37,9.66,13.27L5.93,18.27C5.3,19.07,4.83,19.07,4.2,18.27L0.47,13.27C-0.2,12.37,-0.03,12,1.1,12L3.6,12C3.6,7.37,7.37,3.6,12,3.6C13.23,3.6,14.4,3.83,15.47,4.33C16,4.6,16.1,5.03,15.74,5.5Z" fill="currentColor"/><path d="M14.33,10.73L18.06,5.73C18.69,4.93,19.16,4.93,19.79,5.73L23.52,10.73C24.19,11.63,24.02,12,22.89,12L20.39,12C20.39,16.63,16.62,20.4,11.99,20.4C10.76,20.4,9.59,20.17,8.52,19.67C7.99,19.4,7.89,18.97,8.25,18.5L8.58,18.07C8.95,17.6,9.45,17.47,10.01,17.67C10.64,17.9,11.31,18,11.98,18C15.28,18,17.98,15.3,17.98,12L14.95,12C13.82,12,13.65,11.63,14.32,10.73Z" fill="currentColor"/></svg>