<svg xmlns="http://www.w3.org/2000/svg" viewBox="0 0 24 24"><path d="M12.93,1.17C19.53,7.77,18.16,12,12.46,17.67L10.83,19.34L6.6,15.11L8.23,13.44C12.96,8.74,14.56,7.04,10.8,3.27L10.33,2.8C9.5,1.97,9.46,1.13,10.13,0.5C10.83,-0.2,11.63,-0.13,12.43,0.67Z" fill="currentColor"/><path d="M22,21.06C22,21.66,21.67,21.99,21.07,21.99L20.94,21.99C20.34,21.99,20.01,21.66,20.01,21.06L20.01,2.93C20.01,2.33,20.34,2,20.94,2L21.07,2C21.67,2,22,2.33,22,2.93Z" fill="currentColor"/><path d="M5,11.97L14.07,21C14.8,21.73,14.67,22,13.64,22L5.44,22C4.41,22,4.01,21.6,4.01,20.57L4.01,12.4C4.01,11.37,4.28,11.23,5.01,11.97Z" fill="currentColor"/></svg>