<svg xmlns="http://www.w3.org/2000/svg" viewBox="0 0 24 24" fill="currentColor"><path d="M13.8,6.15L13.86,6.1C14.7,5.25,15.06,5.25,15.9,6.1L20.7,10.88C22,12.21,22,13.8,20.7,15.13L15.9,19.91C15.06,20.75,14.7,20.75,13.86,19.91L13.8,19.86C12.96,19.01,12.96,18.66,13.8,17.81L18.58,13.01L13.8,8.21C12.96,7.36,12.96,7.01,13.8,6.16ZM4.8,6.15L4.86,6.1C5.7,5.25,6.05,5.25,6.9,6.1L11.7,10.88C13,12.21,13,13.8,11.7,15.13L6.9,19.91C6.06,20.75,5.7,20.75,4.86,19.91L4.8,19.86C3.96,19.01,3.96,18.66,4.8,17.81L9.58,13.01L4.8,8.21C3.96,7.36,3.96,7.01,4.8,6.16Z"/></svg>