<svg xmlns="http://www.w3.org/2000/svg" viewBox="0 0 24 24"><path d="M20.57,10.5C21.6,10.5,22,10.9,22,11.93L22,12.06C22,13.09,21.6,13.49,20.57,13.49L13.14,13.49L13.14,10.52Z" fill="currentColor"/><path d="M14.87,16.1L10.77,12.9C9.94,12.23,9.94,11.77,10.77,11.1L14.84,7.9C15.57,7.33,16.01,7.53,16.01,8.47L16.01,15.54C16.01,16.44,15.58,16.67,14.88,16.11Z" fill="currentColor"/><path d="M2,18.03L2,6C2,3.53,3.53,2,6,2L8.57,2C9.6,2,10,2.4,10,3.43L10,3.56C10,4.59,9.6,4.99,8.57,4.99L6,4.99C5.27,4.99,5,5.22,5,5.99L5,18.02C5,18.75,5.27,19.02,6,19.02L8.57,19.02C9.6,19.02,10,19.42,10,20.45L10,20.58C10,21.61,9.6,22.01,8.57,22.01L6,22.01C3.53,22.01,2,20.48,2,18.01Z" fill="currentColor"/></svg>