<svg xmlns="http://www.w3.org/2000/svg" viewBox="0 0 24 24"><path d="M14,15.44C14,14.41,14.4,14.01,15.43,14.01L21.06,14.01C21.66,14.01,21.99,14.34,21.99,14.94L21.99,15.07C21.99,15.67,21.66,16,21.06,16L17.39,16L22.12,20.73C22.55,21.16,22.55,21.63,22.12,22.06L22.05,22.13C21.62,22.56,21.15,22.56,20.72,22.13L15.99,17.4L15.99,21.07C15.99,21.67,15.66,22,15.06,22L14.93,22C14.33,22,14,21.67,14,21.07Z" fill="currentColor"/><path d="M10,8.56C10,9.59,9.6,9.99,8.57,9.99L2.94,9.99C2.34,9.99,2.01,9.66,2.01,9.06L2.01,8.93C2.01,8.33,2.34,8,2.94,8L6.61,8L1.88,3.27C1.45,2.84,1.45,2.37,1.88,1.94L1.95,1.87C2.38,1.44,2.85,1.44,3.28,1.87L8.01,6.6L8.01,2.93C8.01,2.33,8.34,2,8.94,2L9.07,2C9.67,2,10,2.33,10,2.93Z" fill="currentColor"/></svg>