<svg xmlns="http://www.w3.org/2000/svg" viewBox="0 0 24 24" fill="currentColor"><path d="M18.38,5.43L21.43,7.83C22.05,8.33,22.05,8.67,21.43,9.18L18.36,11.58C17.83,12,17.51,11.82,17.51,11.15L17.51,9.63L17.11,9.63C16.34,9.63,15.84,9.85,15.33,10.43L14.07,11.87L12.56,10.18L13.71,8.88C14.71,7.75,15.54,7.38,17.04,7.38L17.51,7.38L17.51,5.85C17.51,5.16,17.83,5.01,18.38,5.43ZM18.35,14.42L21.42,16.82C22.04,17.33,22.04,17.67,21.42,18.17L18.37,20.57C17.82,21,17.49,20.85,17.49,20.15L17.49,14.84C17.49,14.17,17.81,14,18.34,14.42ZM4,17.45C4,16.67,4.3,16.38,5.07,16.38L6.05,16.38C6.82,16.38,7.32,16.15,7.82,15.57L9.07,14.15L10.57,15.84L9.45,17.13C8.45,18.25,7.62,18.63,6.12,18.63L5.07,18.63C4.3,18.63,4,18.33,4,17.55ZM17.1,16.38L17.5,16.38L17.5,18.63L17.03,18.63C15.53,18.63,14.7,18.25,13.71,17.13L7.83,10.43C7.33,9.85,6.84,9.63,6.06,9.63L5.08,9.63C4.31,9.63,4.01,9.32,4.01,8.55L4.01,8.46C4.01,7.68,4.31,7.38,5.08,7.38L6.13,7.38C7.63,7.38,8.46,7.76,9.45,8.88L15.33,15.58C15.83,16.16,16.32,16.38,17.1,16.38Z"/></svg>