<svg xmlns="http://www.w3.org/2000/svg" viewBox="0 0 24 24"><path d="M1.17,11.07C7.77,4.47,12,5.84,17.67,11.54L19.34,13.17L15.11,17.4L13.44,15.77C8.74,11.04,7.04,9.44,3.27,13.2L2.8,13.67C1.97,14.5,1.13,14.54,0.5,13.87C-0.2,13.17,-0.13,12.37,0.67,11.57Z" fill="currentColor"/><path d="M21.06,2C21.66,2,21.99,2.33,21.99,2.93L21.99,3.06C21.99,3.66,21.66,3.99,21.06,3.99L2.93,3.99C2.33,3.99,2,3.66,2,3.06L2,2.93C2,2.33,2.33,2,2.93,2Z" fill="currentColor"/><path d="M11.97,19L21,9.93C21.73,9.2,22,9.33,22,10.36L22,18.56C22,19.59,21.6,19.99,20.57,19.99L12.4,19.99C11.37,19.99,11.23,19.72,11.97,18.99Z" fill="currentColor"/></svg>