<svg xmlns="http://www.w3.org/2000/svg" viewBox="0 0 24 24" fill="currentColor"><path d="M13.75,15.33L6.68,8.22L8.25,6.67L15.36,13.74C15.9,14.29,15.88,14.7,15.33,15.24L15.28,15.32C14.73,15.87,14.3,15.87,13.76,15.32ZM5.5,5.97C5.5,5.62,5.63,5.5,5.97,5.5L10.07,5.5C10.85,5.5,10.95,5.7,10.4,6.25L6.25,10.4C5.72,10.92,5.5,10.85,5.5,10.08ZM20.5,8.5L20.5,17.5C20.5,19.35,19.35,20.5,17.5,20.5L8.5,20.5C6.65,20.5,5.5,19.35,5.5,17.5L5.5,13.7C5.5,13.25,5.75,13,6.2,13L6.29,13C6.74,13,6.99,13.25,6.99,13.7L6.99,17.2C6.99,18.7,7.29,19,8.79,19L17.19,19C18.69,19,18.99,18.7,18.99,17.2L18.99,8.8C18.99,7.3,18.69,7,17.19,7L13.69,7C13.24,7,12.99,6.75,12.99,6.3L12.99,6.21C12.99,5.76,13.24,5.51,13.69,5.51L17.49,5.51C19.34,5.51,20.49,6.66,20.49,8.51Z"/></svg>