<svg xmlns="http://www.w3.org/2000/svg" viewBox="0 0 24 24" fill="currentColor"><path d="M21.12,13.7C16.17,18.65,13,17.62,8.75,13.35L7.49,12.12L10.67,8.95L11.92,10.17C15.44,13.72,16.72,14.92,19.55,12.1L19.9,11.75C20.52,11.13,21.15,11.1,21.62,11.6C22.15,12.12,22.1,12.72,21.5,13.32ZM6.21,20.5C5.76,20.5,5.51,20.25,5.51,19.8L5.51,19.71C5.51,19.25,5.76,19.01,6.21,19.01L19.8,19.01C20.25,19.01,20.5,19.25,20.5,19.71L20.5,19.8C20.5,20.25,20.25,20.5,19.8,20.5ZM13.02,7.75L6.25,14.55C5.7,15.1,5.5,15,5.5,14.23L5.5,8.08C5.5,7.31,5.8,7.01,6.57,7.01L12.7,7.01C13.47,7.01,13.58,7.21,13.02,7.76Z"/></svg>