<svg xmlns="http://www.w3.org/2000/svg" viewBox="0 0 24 24"><path d="M6.47,7L10.47,11C11.2,11.73,11.2,12.27,10.47,13L6.47,17C6.04,17.43,5.57,17.43,5.14,17L5.07,16.9C4.64,16.47,4.64,16,5.07,15.57L7.64,13L0.94,13C0.34,13,0.01,12.67,0.01,12.07L0.01,11.94C0.01,11.34,0.34,11.01,0.94,11.01L7.64,11.01L5.07,8.44C4.64,8.01,4.64,7.54,5.07,7.11L5.14,7.01C5.57,6.58,6.04,6.58,6.47,7.01Z" fill="currentColor"/><path d="M17.53,17L13.53,13C12.8,12.27,12.8,11.73,13.53,11L17.53,7C17.96,6.57,18.43,6.57,18.86,7L18.93,7.1C19.36,7.53,19.36,8,18.93,8.43L16.36,11L23.06,11C23.66,11,23.99,11.33,23.99,11.93L23.99,12.06C23.99,12.66,23.66,12.99,23.06,12.99L16.36,12.99L18.93,15.56C19.36,15.99,19.36,16.46,18.93,16.89L18.86,16.99C18.43,17.42,17.96,17.42,17.53,16.99Z" fill="currentColor"/></svg>