<svg xmlns="http://www.w3.org/2000/svg" viewBox="0 0 24 24" fill="currentColor"><path d="M18.33,9.7L21.8,12.68C22.08,12.9,22.08,13.11,21.8,13.33L18.33,16.31C17.73,16.81,17.5,16.71,17.5,15.93L17.5,10.08C17.5,9.31,17.73,9.21,18.33,9.71ZM9.95,14.13C9.37,14.13,9.14,13.95,9.14,13.5L9.12,12.51C9.12,12.06,9.35,11.88,9.93,11.88L18.72,11.88L18.72,14.13ZM7,20.5C5.15,20.5,4,19.35,4,17.5L4,8.5C4,6.65,5.15,5.5,7,5.5L13,5.5C14.85,5.5,16,6.65,16,8.5L16,9.32C16,9.77,15.75,10.02,15.3,10.02L15.21,10.02C14.75,10.02,14.51,9.77,14.51,9.32L14.51,8.8C14.51,7.3,14.21,7,12.71,7L7.31,7C5.81,7,5.51,7.3,5.51,8.8L5.51,17.2C5.51,18.7,5.81,19,7.31,19L12.71,19C14.21,19,14.51,18.7,14.51,17.2L14.51,16.73C14.51,16.28,14.75,16.03,15.2,16.03L15.3,16.03C15.75,16.03,16,16.28,16,16.73L16,17.5C16,19.35,14.85,20.5,13,20.5Z"/></svg>