<svg xmlns="http://www.w3.org/2000/svg" viewBox="0 0 24 24"><path d="M19.33,16L18,16L18,9L20,9L20,4L15,4L15,6L8,6L8,4.67C8,2.67,8.67,2,10.67,2L19.34,2C21.34,2,22.01,2.67,22.01,4.67L22.01,13.34C22.01,15.34,21.34,16.01,19.34,16.01Z" fill="currentColor"/><path d="M4.66,22C2.66,22,1.99,21.33,1.99,19.33L1.99,10.66C1.99,8.66,2.66,7.99,4.66,7.99L13.33,7.99C15.33,7.99,16,8.66,16,10.66L16,19.33C16,21.33,15.33,22,13.33,22Z" fill="currentColor"/><path d="M4,20L9,20L9,15L14,15L14,10L9,10L9,15L4,15Z" fill="currentColor"/></svg>