<svg xmlns="http://www.w3.org/2000/svg" viewBox="0 0 24 24"><path d="M19.33,22L4.66,22C2.66,22,1.99,21.33,1.99,19.33L1.99,4.66C1.99,2.66,2.66,1.99,4.66,1.99L11.99,1.99L11.99,11.99L21.99,11.99L21.99,19.32C21.99,21.32,21.32,21.99,19.32,21.99Z" fill="currentColor"/><path d="M4,20L12,20L12,12L4,12Z" fill="currentColor"/><path d="M20.83,1.13C21.56,0.4,22.13,0.4,22.86,1.13L22.86,1.13C23.59,1.86,23.59,2.43,22.86,3.16L19.66,6.39L21.66,8.39C22.13,8.82,22.03,8.99,21.36,8.99L15.59,8.99C15.16,8.99,14.99,8.82,14.99,8.39L14.99,2.56C14.99,1.93,15.16,1.89,15.66,2.36L17.59,4.33Z" fill="currentColor"/></svg>