<svg xmlns="http://www.w3.org/2000/svg" viewBox="0 0 24 24" fill="currentColor"><path d="M13.7,20.5C13.25,20.5,13,20.25,13,19.8L13,19.73C13,19.28,13.25,19.03,13.7,19.03L15.95,19.03C17.82,19.03,19,17.85,19,15.98L19,7L18.1,7C17.55,7,17.43,6.75,17.78,6.3L19.23,4.43C19.6,3.95,19.9,3.95,20.27,4.43L21.7,6.3C22.02,6.75,21.9,7,21.35,7L20.5,7L20.5,15.98C20.5,18.75,18.75,20.5,15.95,20.5ZM6.78,21.57C6.4,22.04,6.1,22.04,5.73,21.57L4.3,19.7C3.98,19.25,4.1,19,4.65,19L5.5,19L5.5,10.02C5.5,7.25,7.25,5.5,10.05,5.5L12.3,5.5C12.75,5.5,13,5.75,13,6.2L13,6.27C13,6.72,12.75,6.97,12.3,6.97L10.05,6.97C8.18,6.97,7,8.15,7,10.02L7,19L7.9,19C8.45,19,8.57,19.25,8.22,19.7ZM10.11,17.5C8.91,17.5,8.51,17.1,8.51,15.9L8.51,10.11C8.51,8.91,8.91,8.51,10.11,8.51L15.9,8.51C17.1,8.51,17.5,8.91,17.5,10.11L17.5,15.9C17.5,17.1,17.1,17.5,15.9,17.5ZM10,16L13,16L13,13L16,13L16,10L13,10L13,13L10,13Z"/></svg>