<svg xmlns="http://www.w3.org/2000/svg" viewBox="0 0 24 24"><path d="M4,20L10.01,20L11.15,22L4.66,22C2.66,22,1.99,21.33,1.99,19.33L1.99,4.66C1.99,2.66,2.66,1.99,4.66,1.99L19.33,1.99C21.33,1.99,22,2.66,22,4.66L22,12.29C21.77,12.22,21.53,12.15,21.28,12.09L20,11.77L20,4L12,4L12,12L13.73,12L13.73,15.01C13.13,14.45,12.55,14.07,12,13.86L12,12L4,12Z" fill="currentColor"/><path d="M15.36,16.63C15.37,16.64,15.38,16.65,15.39,16.66Z" fill="currentColor"/><path d="M10.3,16.47C10.8,15.5,11.47,15.54,12.67,16.77L13.97,18.07C14.97,19.1,15.74,18.2,15.74,16.94L15.74,8.41C15.74,7.68,15.91,7.21,16.74,7.21C17.37,7.21,17.74,7.68,17.74,8.41L17.74,13.28L20.81,14.05C23.64,14.75,24.44,16.08,23.78,18.98L22.61,24.01L14.61,24.01Z" fill="currentColor"/></svg>