<svg xmlns="http://www.w3.org/2000/svg" viewBox="0 0 24 24" fill="currentColor"><path d="M5.5,19L10.89,19L12.39,20.5L6,20.5C4.5,20.5,3.99,20,3.99,18.5L3.99,7.49C3.99,5.99,4.5,5.49,6,5.49L17,5.49C18.5,5.49,19,5.99,19,7.49L19,12.05C18.5,11.87,18,11.73,17.5,11.63L17.5,6.99L11.5,6.99L11.5,12.59C11.25,12.72,11,12.85,10.77,12.99L5.5,12.99ZM19.83,18.2L18.83,19.17C17.28,17.62,14.76,17.62,13.2,19.17L12.21,18.2C14.31,16.1,17.73,16.1,19.83,18.2ZM14.35,20.35C15.27,19.2,16.75,19.2,17.63,20.37L16,22ZM22,16L21,17C18.23,14.22,13.78,14.22,11.03,17L10.03,16C13.33,12.7,18.71,12.7,22.01,16Z"/></svg>