<svg xmlns="http://www.w3.org/2000/svg" viewBox="0 0 24 24"><path d="M2,20L6,20L6,16L2,16Z" fill="currentColor"/><path d="M6,16L8,16C8,18.39,9.04,20.54,10.7,22L2.67,22C0.67,22,0,21.33,0,19.33L0,4.66C0,2.66,0.67,1.99,2.67,1.99L17.34,1.99C19.34,1.99,20.01,2.66,20.01,4.66L20.01,9.06C19.38,8.7,18.7,8.42,17.98,8.24L17.98,8L18.01,8L18.01,4L14.01,4L14.01,8L12.01,8L10.01,8L10.01,10.7C9.66,11.1,9.34,11.54,9.07,12L6.01,12Z" fill="currentColor"/><path d="M2,12L6,12L6,8L2,8Z" fill="currentColor"/><path d="M6,8L10,8L10,4L6,4Z" fill="currentColor"/><path d="M20,16C20,13.73,18.27,12,16,12C13.73,12,12,13.73,12,16C12,18.27,13.73,20,16,20C18.27,20,20,18.27,20,16Z" fill="currentColor"/><path d="M10,16C10,12.7,12.7,10,16,10C19.3,10,22,12.7,22,16C22,19.3,19.3,22,16,22C12.7,22,10,19.3,10,16Z" fill="currentColor"/><path d="M23.6,23.4L23.47,23.53C23.04,23.96,22.57,23.96,22.14,23.53L18.44,19.83L19.91,18.36L23.61,22.06C24.04,22.49,24.04,22.96,23.61,23.39Z" fill="currentColor"/></svg>