<svg xmlns="http://www.w3.org/2000/svg" viewBox="0 0 24 24" fill="currentColor"><path d="M5.5,19L11.24,19C11.1,19.43,10.88,19.84,10.54,20.5L6,20.5C4.5,20.5,4,20,4,18.5L4,7.49C4,5.99,4.5,5.49,6,5.49L13.69,5.49C13.59,5.94,13.57,6.44,13.64,6.99L11.5,6.99L11.5,12.4C11.49,12.56,11.48,12.74,11.48,12.92L11.48,12.99L5.5,12.99ZM12.25,20.5C13,19,13,19,13,15.98L22,15.98C22,19,22,19,21.25,20.5ZM17.5,5.51C16.95,5.51,16.5,5.96,16.5,6.5C16.5,7.05,16.95,7.5,17.5,7.5C18.05,7.5,18.5,7.05,18.5,6.5C18.5,5.96,18.05,5.51,17.5,5.51ZM22,12.95L22,14.5L13,14.5L13,12.95C13,11.75,13.23,11.39,14.3,10.87L16.12,9.99L15.39,7.84C14.52,5.29,16.02,3.99,17.47,3.99C18.95,3.99,20.45,5.29,19.57,7.89L18.87,9.99L20.7,10.87C21.77,11.4,21.99,11.75,21.99,12.95Z"/></svg>