<svg xmlns="http://www.w3.org/2000/svg" viewBox="0 0 24 24"><path d="M2,20L9.97,20L9.97,22L2.67,22C0.67,22,0,21.33,0,19.33L0,4.66C0,2.66,0.67,1.99,2.67,1.99L17.34,1.99C19.34,1.99,20.01,2.66,20.01,4.66L20.01,6.55C19.4,6.38,18.73,6.29,18.01,6.29L18.01,3.99L10.01,3.99L10.01,6.29L10,11.99L2.01,11.99Z" fill="currentColor"/><path d="M19.17,20.96C19.17,20.29,18.67,19.79,18,19.79C17.33,19.79,16.83,20.29,16.83,20.96C16.83,21.63,17.33,22.13,18,22.13C18.67,22.13,19.17,21.63,19.17,20.96Z" fill="currentColor"/><path d="M20,12.37C20,11.1,19.23,10.3,18,10.3C16.77,10.3,16,11.1,16,12.37L16,15.97L22.63,15.97C23.6,15.97,24,16.37,24,17.4L24,22.6C24,23.57,23.6,23.97,22.57,23.97L13.37,23.97C12.4,23.97,12,23.57,12,22.54L12,17.34C12,16.37,12.4,15.97,13.43,15.97L14,15.97L14,12.37C14,9.87,15.53,8.3,18,8.3C20.47,8.3,22,9.87,22,12.37L22,12.74L20,12.74Z" fill="currentColor"/></svg>