<svg xmlns="http://www.w3.org/2000/svg" viewBox="0 0 24 24" fill="currentColor"><path d="M13.07,20.5C13.07,16.95,16.3,18.42,16.4,14.27L15.17,14.27C15.02,14,14.97,13.7,14.97,13.4L15.59,13L17.5,13L17.5,8.5C17.51,8.5,17.52,8.5,17.52,8.5C18.09,8.5,18.61,8.71,19,9.06L19,12.23C18.89,12.32,18.78,12.41,18.65,12.47L19,12.69L19,14.27L18.65,14.27C18.67,15.05,18.8,15.63,19,16.09L19,18.5C19,20,18.5,20.5,17,20.5ZM5.5,19L11.5,19L11.5,13L5.5,13ZM17.52,7C17.52,7,17.51,7,17.5,7L11.5,7L11.5,13L13.49,13C13.54,14.04,13.78,14.84,14.29,15.77L14.44,15.77C13.52,17.04,11.57,17.06,11.57,20.5L6,20.5C4.5,20.5,4,20,4,18.5L4,7.49C4,5.99,4.5,5.49,6,5.49L17,5.49C18.45,5.49,18.96,5.96,19,7.32C18.54,7.11,18.04,6.99,17.53,6.99ZM13.08,20.5C13.08,16.95,16.3,18.42,16.4,14.27L15.18,14.27C15.03,14,14.97,13.7,14.97,13.4L16.4,12.48C15.67,12.1,15.35,11.33,15.35,10.62C15.35,9.45,16.32,8.5,17.52,8.5C18.72,8.5,19.7,9.45,19.7,10.62C19.7,11.32,19.38,12.1,18.65,12.48L20.07,13.4C20.07,13.7,20.02,14,19.87,14.28L18.65,14.28C18.75,18.42,22,16.95,22,20.5Z"/></svg>