<svg xmlns="http://www.w3.org/2000/svg" viewBox="0 0 24 24" fill="currentColor"><path d="M5.5,19L10.3,19C10.5,19.54,10.78,20.04,11.14,20.5L6,20.5C4.5,20.5,4,20,4,18.5L4,7.49C4,5.99,4.5,5.49,6,5.49L17,5.49C18.5,5.49,19.01,5.99,19.01,7.49L19.01,11.57C18.54,11.42,18.03,11.33,17.51,11.28L17.51,7L11.51,7L11.51,13L11.85,13C11.73,13.1,11.62,13.22,11.51,13.33L11.51,13L5.51,13ZM21.27,21.98L20.13,21.36C19.62,21.11,19.25,21.08,18.75,21.26C18.1,21.43,17.38,21.54,16.73,21.54C13.6,21.54,11.48,19.66,11.48,17.13C11.48,14.63,13.6,12.76,16.73,12.76C19.86,12.76,21.98,14.63,21.98,17.13C21.98,17.94,21.78,18.66,21.43,19.29C21.11,19.71,21.08,20.06,21.33,20.56L21.84,21.56C21.96,21.8,21.78,22.26,21.29,21.99ZM16.75,16.2C16.23,16.2,15.8,16.63,15.8,17.13C15.8,17.65,16.23,18.08,16.75,18.08C17.25,18.08,17.67,17.65,17.67,17.13C17.67,16.62,17.25,16.2,16.75,16.2ZM14,16.2C13.47,16.2,13.04,16.63,13.04,17.13C13.04,17.65,13.47,18.08,14,18.08C14.5,18.08,14.92,17.65,14.92,17.13C14.92,16.62,14.49,16.2,14,16.2ZM19.5,16.2C18.98,16.2,18.55,16.63,18.55,17.13C18.55,17.65,18.98,18.08,19.5,18.08C20.01,18.08,20.43,17.65,20.43,17.13C20.43,16.62,20,16.2,19.5,16.2Z"/></svg>