<svg xmlns="http://www.w3.org/2000/svg" viewBox="0 0 24 24" fill="currentColor"><path d="M20.5,7.5L20.5,12C20.5,10.23,19.45,9,17.5,9C15.55,9,14.5,10.23,14.5,12L14.5,12.75L13.7,12.75C13.44,12.75,13.21,12.77,13,12.83L13,7.01L7,7.01L7,13.01L12.5,13.01C11.84,13.34,11.5,14,11.5,14.96L11.5,16.06C11.5,17.95,11.93,19.49,12.75,20.51L7.5,20.51C6,20.51,5.5,20,5.5,18.5L5.5,7.5C5.5,6,6,5.5,7.5,5.5L18.5,5.5C20,5.5,20.51,6,20.51,7.5ZM17.45,22L17.54,22C18,22,18.24,21.75,18.24,21.3L18.24,20.5C20.7,20.5,21.99,18.77,21.99,16.05L21.99,15.21C21.99,14.58,21.75,14.25,21.29,14.25C20.77,14.25,20.49,14.58,20.49,15.21L20.49,16.05C20.49,17.8,19.79,19,17.49,19C15.19,19,14.49,17.8,14.49,16.05L14.49,15.21C14.49,14.58,14.25,14.25,13.77,14.25C13.26,14.25,12.99,14.58,12.99,15.21L12.99,16.05C12.99,18.77,14.29,20.5,16.74,20.5L16.74,21.3C16.74,21.75,16.99,22,17.44,22ZM19,15.8L19,12C19,11.17,18.48,10.5,17.5,10.5C16.52,10.5,16,11.17,16,12L16,15.8C16,16.83,16.52,17.5,17.5,17.5C18.48,17.5,19,16.83,19,15.8Z"/></svg>