<svg xmlns="http://www.w3.org/2000/svg" viewBox="0 0 24 24" fill="currentColor"><path d="M5.5,19L7.47,19C7.88,19.52,8.32,20.03,8.79,20.5L5.99,20.5C4.49,20.5,3.99,20,3.99,18.5L3.99,6.57C3.99,5.8,4.29,5.5,5.06,5.5L16.99,5.5C18.49,5.5,18.99,6,18.99,7.5L18.99,12.52C17.85,11.89,16.59,11.5,15.24,11.5C14.99,11.5,14.74,11.52,14.49,11.54L14.49,10L11.49,10L11.49,12.5C11.21,12.66,10.93,12.82,10.66,13L8.49,13L8.49,14.85C8.14,15.22,7.81,15.61,7.51,16L5.49,16ZM5.5,13L8.5,13L8.5,10L5.5,10ZM8.5,10L11.5,10L11.5,7L8.5,7ZM14.5,10L17.5,10L17.5,7L14.5,7ZM17.6,17.53C17.6,16.26,16.55,15.21,15.25,15.21C13.95,15.21,12.9,16.25,12.9,17.53C12.9,18.83,13.95,19.88,15.25,19.88C16.55,19.88,17.6,18.83,17.6,17.53ZM8.25,17.52C10,15.05,12.32,13,15.25,13C18.15,13,20.5,15.05,22,17.52C20.5,20.02,18.15,22,15.25,22C12.32,22,10,20.03,8.25,17.52Z"/></svg>