<svg xmlns="http://www.w3.org/2000/svg" viewBox="0 0 24 24" fill="currentColor"><path d="M19.8,13C20.25,13,20.5,13.25,20.5,13.7L20.5,15.95C20.5,18.75,18.75,20.5,15.98,20.5L7,20.5L7,21.35C7,21.89,6.75,22.02,6.3,21.7L4.43,20.27C3.95,19.9,3.95,19.6,4.43,19.23L6.3,17.78C6.75,17.43,7,17.55,7,18.1L7,19L15.98,19C17.85,19,19.03,17.82,19.03,15.95L19.03,13.7C19.03,13.25,19.28,13,19.73,13ZM21.57,5.73C22.04,6.1,22.04,6.4,21.57,6.78L19.7,8.22C19.25,8.58,19,8.45,19,7.9L19,7L10.02,7C8.15,7,6.97,8.18,6.97,10.05L6.97,12.3C6.97,12.75,6.72,13,6.27,13L6.2,13C5.75,13,5.5,12.75,5.5,12.3L5.5,10.05C5.5,7.26,7.25,5.5,10.02,5.5L19,5.5L19,4.65C19,4.11,19.25,3.98,19.7,4.3ZM15.89,8.5C17.09,8.5,17.49,8.9,17.49,10.1L17.49,15.89C17.49,17.09,17.09,17.49,15.89,17.49L10.1,17.49C8.9,17.49,8.5,17.09,8.5,15.89L8.5,10.1C8.5,8.9,8.9,8.5,10.1,8.5ZM16,10L13,10L13,13L10,13L10,16L13,16L13,13L16,13Z"/></svg>