<svg xmlns="http://www.w3.org/2000/svg" viewBox="0 0 24 24"><path d="M2,20L6,20L6,16L2,16Z" fill="currentColor"/><path d="M10,20L10,22L2.67,22C0.67,22,0,21.33,0,19.33L0,4.66C0,2.66,0.67,1.99,2.67,1.99L17.34,1.99C19.34,1.99,20.01,2.66,20.01,4.66L20.01,6.55C19.4,6.38,18.73,6.29,18.01,6.29L18.01,3.99L14.01,3.99L14.01,7.57C13.85,7.7,13.7,7.84,13.56,7.99L10.01,7.99L10.01,11.99L12.02,11.99C12.01,12.11,12.01,12.23,12.01,12.36L12.01,14.03C10.83,14.22,10.25,14.8,10.07,16L10.01,16L10.01,16.97Z" fill="currentColor"/><path d="M6,16L10,16L10,12L6,12Z" fill="currentColor"/><path d="M2,12L6,12L6,8L2,8Z" fill="currentColor"/><path d="M6,8L10,8L10,4L6,4Z" fill="currentColor"/><path d="M19.17,20.96C19.17,20.29,18.67,19.79,18,19.79C17.33,19.79,16.83,20.29,16.83,20.96C16.83,21.63,17.33,22.13,18,22.13C18.67,22.13,19.17,21.63,19.17,20.96Z" fill="currentColor"/><path d="M20,12.37C20,11.1,19.23,10.3,18,10.3C16.77,10.3,16,11.1,16,12.37L16,15.97L22.63,15.97C23.6,15.97,24,16.37,24,17.4L24,22.6C24,23.57,23.6,23.97,22.57,23.97L13.37,23.97C12.4,23.97,12,23.57,12,22.54L12,17.34C12,16.37,12.4,15.97,13.43,15.97L14,15.97L14,12.37C14,9.87,15.53,8.3,18,8.3C20.47,8.3,22,9.87,22,12.37L22,12.74L20,12.74Z" fill="currentColor"/></svg>