<svg xmlns="http://www.w3.org/2000/svg" viewBox="0 0 24 24" fill="currentColor"><path d="M5.5,19L10.38,19C10.56,19.53,10.81,20.04,11.12,20.5L6,20.5C4.5,20.5,3.99,20,3.99,18.5L3.99,7.49C3.99,5.99,4.5,5.49,6,5.49L17,5.49C18.5,5.49,19,5.99,19,7.49L19,10.37C18.52,10.21,18.02,10.09,17.5,10.04L17.5,7L11.5,7L11.5,12.49C11.37,12.66,11.25,12.83,11.13,13L5.5,13ZM16.75,13C14.64,13,13,14.63,13,16.75C13,18.85,14.65,20.5,16.75,20.5C18.87,20.5,20.5,18.86,20.5,16.75C20.5,14.62,18.88,13,16.75,13ZM16.75,11.5C19.65,11.5,22,13.85,22,16.75C22,19.62,19.65,22,16.75,22C13.88,22,11.5,19.62,11.5,16.75C11.5,13.85,13.88,11.5,16.75,11.5ZM15.6,16.52C15.8,16.05,16.05,15.8,16.52,15.6L18.98,14.53L17.91,16.98C17.7,17.45,17.45,17.71,16.98,17.91L14.53,18.98Z"/></svg>