<svg xmlns="http://www.w3.org/2000/svg" viewBox="0 0 24 24" fill="currentColor"><path d="M7.49,20.5C5.99,20.5,5.49,20,5.49,18.5L5.49,10.49C5.49,8.99,5.99,8.49,7.49,8.49L13.86,8.49L12.38,9.99L11.5,9.99L11.5,10.88L11.48,10.9L11.5,10.91L11.5,14.49L7,14.49L7,18.99L11.5,18.99L11.5,14.49L15.08,14.49L15.09,14.51L15.11,14.49L16,14.49L16,13.61L17.5,12.14L17.5,18.5C17.5,20,17,20.5,15.5,20.5ZM15.38,12.15C14.83,12.7,14.4,12.7,13.86,12.15L13.86,12.15C13.31,11.6,13.31,11.18,13.86,10.63L17,7.46L15.5,5.96C15.15,5.63,15.23,5.51,15.73,5.51L20.06,5.51C20.38,5.51,20.51,5.63,20.51,5.96L20.51,10.33C20.51,10.8,20.38,10.83,20,10.48L18.56,9Z"/></svg>