<svg xmlns="http://www.w3.org/2000/svg" viewBox="0 0 24 24"><path d="M2,20L10,20L10,12L2,12Z" fill="currentColor"/><path d="M0,4.67C0,2.67,0.67,2,2.67,2L17.34,2C19.34,2,20.01,2.67,20.01,4.67L20.01,6L18.01,6L18.01,4L10.01,4L10.01,12L11.14,12C11.43,13.97,12.11,14.97,13.28,16.03C11.63,17.61,11.14,18.94,11.01,22L2.67,22C0.67,22,0,21.33,0,19.33Z" fill="currentColor"/><path d="M14.44,24C13.41,24,13.01,23.6,13.01,22.57C13.04,18.67,13.38,18.44,16.44,16C13.37,13.57,13.04,13.37,13.01,9.47C13.01,8.44,13.41,8.04,14.44,8.04L22.57,8.04C23.6,8.04,24,8.44,24,9.47C23.97,13.37,23.63,13.57,20.57,16C23.64,18.43,23.97,18.67,24,22.57C24,23.6,23.6,24,22.57,24Z" fill="currentColor"/><path d="M14.97,22L22.04,22C22.04,18.6,18.84,19.93,18.84,17.67L18.84,16.04C18.84,15.44,19.07,14.84,19.44,14.41L21.87,11.64C22.4,11.01,21.9,10.91,18.4,10.91C15.1,10.91,14.63,11.01,15.13,11.61L17.56,14.41C17.93,14.84,18.16,15.44,18.16,16.04L18.16,17.67C18.16,19.94,14.96,18.7,14.96,22Z" fill="currentColor"/></svg>