<svg xmlns="http://www.w3.org/2000/svg" viewBox="0 0 24 24"><path d="M17.33,22L2.66,22C0.66,22,-0.01,21.33,-0.01,19.33L-0.01,4.66C-0.01,2.66,0.66,1.99,2.66,1.99L6.18,1.99C4.91,3.65,4.16,5.72,4.16,7.99L1.99,7.99L1.99,11.99L4.99,11.99C5.26,12.61,5.6,13.2,5.99,13.74L5.99,15.99L1.99,15.99L1.99,19.99L5.99,19.99L5.99,15.99L8.24,15.99C8.78,16.38,9.37,16.71,9.99,16.99L9.99,19.99L13.99,19.99L13.99,17.82C15.42,17.82,16.79,17.52,18.02,16.95L19.99,18.92L19.99,19.32C19.99,21.32,19.32,21.99,17.32,21.99Z" fill="currentColor"/><path d="M23.2,17.2L23.07,17.33C22.34,18.06,21.8,18.06,21.07,17.33L17.2,13.46L19.33,11.36L23.16,15.19C23.89,15.92,23.93,16.46,23.19,17.19Z" fill="currentColor"/><path d="M19.83,8C19.83,4.58,17.42,2.17,14,2.17C10.58,2.17,8.17,4.58,8.17,8C8.17,11.42,10.58,13.83,14,13.83C17.42,13.83,19.83,11.42,19.83,8Z" fill="currentColor"/><path d="M6.17,8C6.17,3.75,9.76,0.17,14,0.17C18.25,0.17,21.83,3.76,21.83,8C21.83,12.25,18.24,15.83,14,15.83C9.75,15.83,6.17,12.24,6.17,8Z" fill="currentColor"/><path d="M10,8C10,5.8,11.8,4,14,4L14,8Z" fill="currentColor"/><path d="M14,8L18,8C18,10.2,16.2,12,14,12Z" fill="currentColor"/></svg>