<svg xmlns="http://www.w3.org/2000/svg" viewBox="0 0 24 24"><path d="M17.33,22L2.66,22C0.66,22,-0.01,21.33,-0.01,19.33L-0.01,4.66C-0.01,2.66,0.66,1.99,2.66,1.99L8.55,1.99C8.16,2.61,7.85,3.28,7.64,3.99L1.99,3.99L1.99,9.32L7.32,9.32L7.32,14.65L1.99,14.65L1.99,19.98L7.32,19.98L7.32,14.65L12.65,14.65L12.65,19.98L17.98,19.98L17.98,14.65L19.98,14.65L19.98,19.32C19.98,21.32,19.31,21.99,17.31,21.99Z" fill="currentColor"/><path d="M9.75,4C9.98,3.43,10.29,2.89,10.67,2.41L10.67,4Z" fill="currentColor"/><path d="M9.34,6.34C9.34,2.84,12.21,0.01,15.67,0.01C19.17,0.01,22,2.84,22,6.34C22,9.81,19.17,12.67,15.67,12.67C12.2,12.67,9.34,9.8,9.34,6.34Z" fill="currentColor"/><path d="M20,6.34C20,3.94,18.07,2.01,15.67,2.01C13.3,2.01,11.34,3.94,11.34,6.34C11.34,8.71,13.31,10.67,15.67,10.67C18.07,10.67,20,8.7,20,6.34Z" fill="currentColor"/><path d="M23.63,14.33L23.56,14.4C23.13,14.83,22.66,14.83,22.23,14.4L18.36,10.53L19.79,9.13L23.62,13C24.05,13.43,24.05,13.9,23.62,14.33Z" fill="currentColor"/><path d="M13.33,8.67L13.33,4L18,4L18,8.67Z" fill="currentColor"/></svg>