<svg xmlns="http://www.w3.org/2000/svg" viewBox="0 0 24 24" fill="currentColor"><path d="M5.5,19L9.5,19L9.5,7L5.5,7ZM4,7.5C4,6,4.5,5.5,6,5.5L17,5.5C18.5,5.5,19.01,6,19.01,7.5L19.01,9.93C18.55,9.69,18.03,9.55,17.51,9.55L17.51,7L13.51,7L13.51,18.61C13.01,19.13,12.53,19.77,12.23,20.5L6.01,20.5C4.51,20.5,4.01,20,4.01,18.5ZM21.57,22L13.42,22C13.42,20.6,14.27,19.88,15.05,19.2C15.8,18.6,16.5,18,16.5,16.86L16.5,16.33L15.37,16.33C15.22,16.11,15.17,15.81,15.17,15.5L16.5,14.7C15.87,14.25,15.54,13.67,15.54,13C15.54,11.93,16.42,11.05,17.49,11.05C18.57,11.05,19.44,11.93,19.44,13C19.44,13.67,19.12,14.25,18.49,14.65L19.82,15.5C19.82,15.8,19.77,16.1,19.62,16.32L18.49,16.32L18.49,16.85C18.49,18,19.19,18.59,19.94,19.2C20.71,19.87,21.57,20.6,21.57,21.99Z"/></svg>