<svg xmlns="http://www.w3.org/2000/svg" viewBox="0 0 24 24"><path d="M2,20L9.06,20C9.49,20.75,10.05,21.43,10.69,22L2.66,22C0.66,22,-0.01,21.33,-0.01,19.33L-0.01,4.66C-0.01,2.66,0.66,1.99,2.66,1.99L17.33,1.99C19.33,1.99,20,2.66,20,4.66L20,9.06C19.38,8.7,18.71,8.43,18,8.25L18,4L10,4L10,10.7C9.65,11.1,9.33,11.54,9.06,12L2,12Z" fill="currentColor"/><path d="M20,16C20,13.73,18.27,12,16,12C13.73,12,12,13.73,12,16C12,18.27,13.73,20,16,20C18.27,20,20,18.27,20,16Z" fill="currentColor"/><path d="M10,16C10,12.7,12.7,10,16,10C19.3,10,22,12.7,22,16C22,19.3,19.3,22,16,22C12.7,22,10,19.3,10,16Z" fill="currentColor"/><path d="M23.6,23.4L23.47,23.53C23.04,23.96,22.57,23.96,22.14,23.53L18.44,19.83L19.91,18.36L23.61,22.06C24.04,22.49,24.04,22.96,23.61,23.39Z" fill="currentColor"/></svg>