<svg xmlns="http://www.w3.org/2000/svg" viewBox="0 0 24 24" fill="currentColor"><path d="M18.56,20.5L18.75,19.97C19.67,17.3,18.41,15.59,15.71,14.4L15.3,14.22L15.3,13L19,13L19,7L13,7L13,10.15C12.98,10.15,12.95,10.15,12.93,10.15C11.8,10.15,10.8,11.19,10.8,12.55L10.8,13L7,13L7,19L8.67,19L9.36,20.5L7.5,20.5C6,20.5,5.5,20,5.5,18.5L5.5,7.49C5.5,5.99,6,5.49,7.5,5.49L18.5,5.49C20,5.49,20.51,5.99,20.51,7.49L20.51,18.5C20.51,19.97,20.02,20.48,18.56,20.5ZM8.97,16.1C9.35,15.63,10.04,15.5,10.68,16.57L11.1,17.3C11.65,18.22,12.3,17.65,12.3,16.95L12.3,12.54C12.3,11.99,12.43,11.64,13.05,11.64C13.52,11.64,13.8,11.99,13.8,12.54L13.8,15.19L15.1,15.77C17.1,16.64,18.05,17.36,17.33,19.46L16.45,21.99L11.7,21.99Z"/></svg>