<svg xmlns="http://www.w3.org/2000/svg" viewBox="0 0 24 24" fill="currentColor"><path d="M18.5,20.5L7.49,20.5C5.99,20.5,5.49,20,5.49,18.5L5.49,7.49C5.49,5.99,5.99,5.49,7.49,5.49L12.99,5.49L12.99,12.99L20.49,12.99L20.49,18.49C20.49,19.99,19.99,20.49,18.49,20.49ZM7,19L13,19L13,13L7,13ZM19.62,4.85C20.17,4.3,20.6,4.3,21.14,4.85L21.14,4.85C21.69,5.39,21.69,5.82,21.14,6.37L18.75,8.79L20.25,10.29C20.6,10.62,20.52,10.74,20.02,10.74L15.69,10.74C15.37,10.74,15.24,10.62,15.24,10.29L15.24,5.92C15.24,5.45,15.37,5.42,15.75,5.77L17.19,7.25Z"/></svg>