<svg xmlns="http://www.w3.org/2000/svg" viewBox="0 0 24 24" fill="currentColor"><path d="M5.5,19L7.47,19C7.88,19.52,8.32,20.03,8.79,20.5L5.99,20.5C4.49,20.5,3.99,20,3.99,18.5L3.99,7.49C3.99,5.99,4.49,5.49,5.99,5.49L17,5.49C18.5,5.49,19,5.99,19,7.49L19,12.51C18.52,12.25,18.02,12.02,17.5,11.86L17.5,7L11.5,7L11.5,12.5C11.21,12.65,10.94,12.82,10.67,13L5.5,13ZM15.25,15.21C13.95,15.21,12.9,16.25,12.9,17.53C12.9,18.83,13.95,19.88,15.25,19.88C16.55,19.88,17.6,18.83,17.6,17.53C17.6,16.26,16.55,15.21,15.25,15.21ZM15.25,13C18.15,13,20.5,15.05,22,17.52C20.5,20.02,18.15,22,15.25,22C12.32,22,10,20.03,8.25,17.52C10,15.05,12.32,13,15.25,13Z"/></svg>