<svg xmlns="http://www.w3.org/2000/svg" viewBox="0 0 24 24"><path d="M2,20L4.63,20C5.17,20.69,5.76,21.37,6.39,22L2.66,22C0.66,22,-0.01,21.33,-0.01,19.33L-0.01,4.66C-0.01,2.66,0.66,1.99,2.66,1.99L17.33,1.99C19.33,1.99,20,2.66,20,4.66L20,11.35C19.36,11,18.69,10.7,18,10.48L18,4L10,4L10,11.33C9.62,11.54,9.25,11.76,8.89,12L2,12Z" fill="currentColor"/><path d="M18.13,18.04C18.13,16.34,16.73,14.94,15,14.94C13.27,14.94,11.87,16.34,11.87,18.04C11.87,19.77,13.27,21.17,15,21.17C16.73,21.17,18.13,19.77,18.13,18.04Z" fill="currentColor"/><path d="M5.67,18.03C8,14.73,11.1,12,15,12C18.87,12,22,14.73,24,18.03C22,21.36,18.87,24,15,24C11.1,24,8,21.37,5.67,18.03Z" fill="currentColor"/></svg>