<svg xmlns="http://www.w3.org/2000/svg" viewBox="0 0 24 24"><path d="M15.55,14.92C15.56,14.92,15.56,14.92,15.57,14.93Z" fill="currentColor"/><path d="M0,6.13C0,4.53,0.53,4,2.13,4L12.55,4C12.43,4.55,12.37,5.16,12.37,5.83C12.37,5.89,12.37,5.94,12.37,6L8,6L8,8.8C7.64,9.63,7.43,10.64,7.43,11.83C7.43,11.89,7.43,11.94,7.43,12L2,12L2,18L4.5,18C4.19,18.6,4,19.27,3.95,20L2.14,20C0.54,20,0.01,19.47,0.01,17.87Z" fill="currentColor"/><path d="M14.37,5.83C14.37,3.36,15.37,2,17.37,2C19.54,2,20.5,3.37,20.5,5.83C20.5,9,19.23,8.83,19.23,9.9C19.23,10.43,19.43,10.7,19.9,10.83L21.93,11.53C23.43,12,24,12.76,24,14.36L24,15.99L18.49,15.99C18.21,15.84,17.91,15.72,17.59,15.62L16.92,15.39C17.24,14.58,17.57,13.26,17.57,11.82C17.57,8.84,16.3,7.01,14.38,6.31C14.37,6.16,14.37,5.99,14.37,5.82Z" fill="currentColor"/><path d="M5.93,20.37C5.93,18.77,6.5,18,8.03,17.54L9.96,16.87C10.43,16.7,10.63,16.47,10.63,15.9C10.63,14.87,9.43,14.87,9.43,11.83C9.43,9.36,10.4,8,12.43,8C14.6,8,15.56,9.37,15.56,11.83C15.56,14.86,14.29,14.86,14.29,15.9C14.29,16.43,14.46,16.7,14.96,16.83L16.96,17.53C18.49,18,19.06,18.76,19.06,20.36L19.06,21.99L5.93,21.99Z" fill="currentColor"/></svg>