<svg xmlns="http://www.w3.org/2000/svg" viewBox="0 0 24 24"><path d="M2,20L7.33,20L7.33,4L2,4Z" fill="currentColor"/><path d="M0,4.67C0,2.67,0.67,2,2.67,2L17.34,2C19.34,2,20.01,2.67,20.01,4.67L20.01,7.9C19.4,7.58,18.71,7.4,18.01,7.4L18.01,4L12.68,4L12.68,19.48C12.01,20.18,11.37,21.03,10.98,22L2.68,22C0.68,22,0.01,21.33,0.01,19.33Z" fill="currentColor"/><path d="M23.43,24L12.56,24C12.56,22.13,13.69,21.17,14.73,20.27C15.73,19.47,16.66,18.67,16.66,17.14L16.66,16.44L15.16,16.44C14.96,16.14,14.89,15.74,14.89,15.34L16.66,14.27C15.83,13.67,15.39,12.9,15.39,12C15.39,10.57,16.56,9.4,17.99,9.4C19.42,9.4,20.59,10.57,20.59,12C20.59,12.9,20.16,13.67,19.32,14.2L21.09,15.33C21.09,15.73,21.02,16.13,20.82,16.43L19.32,16.43L19.32,17.13C19.32,18.66,20.25,19.46,21.25,20.26C22.28,21.16,23.42,22.13,23.42,23.99Z" fill="currentColor"/></svg>