<svg xmlns="http://www.w3.org/2000/svg" viewBox="0 0 24 24"><path d="M4.66,22C2.66,22,1.99,21.33,1.99,19.33L1.99,8.66C1.99,6.66,2.66,5.99,4.66,5.99L13.14,5.99L11.17,7.99L10,7.99L10,9.18L9.98,9.2L10,9.22L10,13.99L4,13.99L4,19.99L10,19.99L10,13.99L14.77,13.99L14.79,14.01L14.81,13.99L16,13.99L16,12.82L18,10.85L18,19.33C18,21.33,17.33,22,15.33,22Z" fill="currentColor"/><path d="M15.17,10.87C14.44,11.6,13.87,11.6,13.14,10.87L13.14,10.87C12.41,10.14,12.41,9.57,13.14,8.84L17.34,4.61L15.34,2.61C14.87,2.18,14.97,2.01,15.64,2.01L21.41,2.01C21.84,2.01,22.01,2.18,22.01,2.61L22.01,8.44C22.01,9.07,21.84,9.11,21.34,8.64L19.41,6.67Z" fill="currentColor"/></svg>