<svg xmlns="http://www.w3.org/2000/svg" viewBox="0 0 24 24" fill="currentColor"><path d="M5.5,19L8.5,19L8.5,16L5.5,16ZM11.5,19L12.38,19C12.32,19.43,12.28,19.93,12.26,20.5L6,20.5C4.5,20.5,4,20,4,18.5L4,7.49C4,5.99,4.5,5.49,6,5.49L17,5.49C18.5,5.49,19.01,5.99,19.01,7.49L19.01,8.49L17.51,8.49L17.51,6.99L14.51,6.99L14.51,8.51C13.52,8.6,12.77,9.15,12.43,9.99L11.51,9.99L11.51,12.99L12.35,12.99C12.57,14.45,13.07,15.21,13.94,15.99L11.51,15.99ZM8.5,16L11.5,16L11.5,13L8.5,13ZM5.5,13L8.5,13L8.5,10L5.5,10ZM8.5,10L11.5,10L11.5,7L8.5,7ZM14.83,22C14.06,22,13.76,21.7,13.76,20.93C13.78,18,14.04,17.83,16.33,16C14.03,14.18,13.78,14.03,13.76,11.1C13.76,10.33,14.06,10.03,14.83,10.03L20.93,10.03C21.7,10.03,22,10.33,22,11.1C21.98,14.03,21.72,14.18,19.43,16C21.73,17.82,21.98,18,22,20.93C22,21.7,21.7,22,20.93,22ZM15.23,20.5L20.53,20.5C20.53,17.95,18.13,18.95,18.13,17.25L18.13,16.03C18.13,15.58,18.3,15.13,18.58,14.81L20.4,12.73C20.8,12.26,20.43,12.18,17.8,12.18C15.33,12.18,14.97,12.26,15.35,12.71L17.17,14.81C17.45,15.13,17.62,15.58,17.62,16.03L17.62,17.25C17.62,18.96,15.22,18.03,15.22,20.5Z"/></svg>