<svg xmlns="http://www.w3.org/2000/svg" viewBox="0 0 24 24"><path d="M4,20L10.13,20C10.18,20.63,10.29,21.3,10.49,22L4.67,22C2.67,22,2,21.33,2,19.33L2,4.66C2,2.66,2.67,1.99,4.67,1.99L19.34,1.99C21.34,1.99,22.01,2.66,22.01,4.66L22.01,7.89C21.41,7.46,20.74,7.14,20.01,6.94L20.01,4L12.01,4L12.01,10.14C11.73,10.7,11.53,11.32,11.41,12L4.01,12Z" fill="currentColor"/><path d="M13.43,12L20,12L20,9.03C20.84,9.36,21.53,9.92,22,10.7L22,19.34C22,19.58,21.99,19.8,21.97,20.01L12.13,20.01C11.83,16.74,13.46,16.74,13.36,14.94L13.29,13.91C13.24,13.21,13.29,12.57,13.42,12.01Z" fill="currentColor"/><path d="M20.27,21.33C19.97,22.96,18.8,23.33,18.04,23.33C17.27,23.33,16.11,22.96,15.77,21.33Z" fill="currentColor"/><path d="M23.87,20L12.14,20C11.84,16.73,13.47,16.73,13.37,14.93L13.3,13.9C13.07,10.43,15.1,8.67,17.97,8.67C20.87,8.67,22.94,10.54,22.7,14.1L22.63,15.13C22.53,16.93,24.2,16.8,23.86,20Z" fill="currentColor"/></svg>