<svg xmlns="http://www.w3.org/2000/svg" viewBox="0 0 24 24"><path d="M12.1,22C12.1,17.27,16.4,19.23,16.53,13.7L14.9,13.7C14.7,13.33,14.63,12.93,14.63,12.53L15.45,12L18,12L18,6C18.01,6,18.02,6,18.03,6C18.79,6,19.48,6.28,20,6.75L20,10.98C19.86,11.1,19.71,11.21,19.53,11.29L20,11.59L20,13.69L19.53,13.69C19.56,14.73,19.73,15.51,20,16.12L20,19.33C20,21.33,19.33,22,17.33,22Z" fill="currentColor"/><path d="M2,20L10,20L10,12L2,12Z" fill="currentColor"/><path d="M18.03,4C18.02,4,18.01,4,18,4L10,4L10,12L12.65,12C12.72,13.38,13.04,14.45,13.72,15.7L13.92,15.7C12.7,17.38,10.1,17.41,10.1,22L2.67,22C0.67,22,0,21.33,0,19.33L0,4.66C0,2.66,0.67,1.99,2.67,1.99L17.34,1.99C19.26,1.99,19.95,2.61,20,4.43C19.39,4.15,18.72,3.99,18.04,3.99Z" fill="currentColor"/><path d="M12.1,22C12.1,17.27,16.4,19.23,16.53,13.7L14.9,13.7C14.7,13.33,14.63,12.93,14.63,12.53L16.53,11.3C15.56,10.8,15.13,9.77,15.13,8.83C15.13,7.26,16.43,6,18.03,6C19.63,6,20.93,7.27,20.93,8.83C20.93,9.76,20.5,10.8,19.53,11.3L21.43,12.53C21.43,12.93,21.36,13.33,21.16,13.7L19.53,13.7C19.66,19.23,24,17.27,24,22Z" fill="currentColor"/></svg>