<svg xmlns="http://www.w3.org/2000/svg" viewBox="0 0 24 24"><path d="M19.41,22L19.66,21.29C20.89,17.73,19.22,15.45,15.61,13.87L15.07,13.63L15.07,12L20,12L20,4L12,4L12,8.2C11.97,8.2,11.93,8.2,11.9,8.2C10.4,8.2,9.07,9.59,9.07,11.4L9.07,12L4,12L4,20L6.22,20L7.14,22L4.67,22C2.67,22,2,21.33,2,19.33L2,4.66C2,2.66,2.67,1.99,4.67,1.99L19.34,1.99C21.34,1.99,22.01,2.66,22.01,4.66L22.01,19.33C22.01,21.3,21.36,21.98,19.42,22Z" fill="currentColor"/><path d="M6.63,16.13C7.13,15.5,8.06,15.33,8.9,16.76L9.47,17.73C10.2,18.96,11.07,18.2,11.07,17.26L11.07,11.39C11.07,10.66,11.24,10.19,12.07,10.19C12.7,10.19,13.07,10.66,13.07,11.39L13.07,14.92L14.8,15.69C17.47,16.86,18.73,17.82,17.77,20.62L16.6,23.99L10.27,23.99Z" fill="currentColor"/></svg>