<svg xmlns="http://www.w3.org/2000/svg" viewBox="0 0 24 24"><path d="M10.03,4.03C10.17,2.52,10.9,2,12.67,2L19.34,2C21.34,2,22.01,2.67,22.01,4.67L22.01,11.34C22.01,13.11,21.49,13.84,19.98,13.98C20,13.78,20.01,13.57,20.01,13.34L20.01,8.54C20.01,5.14,18.88,4.01,15.48,4.01L10.68,4.01C10.45,4.01,10.24,4.02,10.04,4.04Z" fill="currentColor"/><path d="M6.03,8.03C6.17,6.52,6.9,6,8.67,6L15.34,6C17.34,6,18.01,6.67,18.01,8.67L18.01,15.34C18.01,17.11,17.49,17.84,15.98,17.98C16,17.78,16.01,17.57,16.01,17.34L16.01,12.54C16.01,9.14,14.88,8.01,11.48,8.01L6.68,8.01C6.45,8.01,6.24,8.02,6.04,8.04Z" fill="currentColor"/><path d="M4.66,22C2.66,22,1.99,21.33,1.99,19.33L1.99,12.66C1.99,10.66,2.66,9.99,4.66,9.99L11.33,9.99C13.33,9.99,14,10.66,14,12.66L14,19.33C14,21.33,13.33,22,11.33,22Z" fill="currentColor"/><path d="M4,20L8,20L8,16L12,16L12,12L8,12L8,16L4,16Z" fill="currentColor"/></svg>