<svg xmlns="http://www.w3.org/2000/svg" viewBox="0 0 24 24"><path d="M2,20L4.63,20C5.17,20.69,5.76,21.37,6.39,22L2.66,22C0.66,22,-0.01,21.33,-0.01,19.33L-0.01,3.43C-0.01,2.4,0.39,2,1.42,2L17.32,2C19.32,2,19.99,2.67,19.99,4.67L19.99,11.36C18.47,10.52,16.78,10,14.99,10C14.65,10,14.32,10.02,13.99,10.05L13.99,8L9.99,8L9.99,11.33C9.61,11.54,9.24,11.76,8.88,12L5.99,12L5.99,14.47C5.52,14.96,5.08,15.48,4.68,16L1.99,16Z" fill="currentColor"/><path d="M2,12L6,12L6,8L2,8Z" fill="currentColor"/><path d="M6,8L10,8L10,4L6,4Z" fill="currentColor"/><path d="M14,8L18,8L18,4L14,4Z" fill="currentColor"/><path d="M18.13,18.04C18.13,16.34,16.73,14.94,15,14.94C13.27,14.94,11.87,16.34,11.87,18.04C11.87,19.77,13.27,21.17,15,21.17C16.73,21.17,18.13,19.77,18.13,18.04Z" fill="currentColor"/><path d="M5.67,18.03C8,14.73,11.1,12,15,12C18.87,12,22,14.73,24,18.03C22,21.36,18.87,24,15,24C11.1,24,8,21.37,5.67,18.03Z" fill="currentColor"/></svg>