<svg xmlns="http://www.w3.org/2000/svg" viewBox="0 0 24 24" fill="currentColor"><path d="M5.5,19L8.5,19L8.5,16L5.5,16ZM8.5,16L10,16C10,17.79,10.78,19.41,12.02,20.5L6,20.5C4.5,20.5,4,20,4,18.5L4,7.49C4,5.99,4.5,5.49,6,5.49L17,5.49C18.5,5.49,19.01,5.99,19.01,7.49L19.01,10.79C18.54,10.52,18.02,10.31,17.48,10.18L17.48,10L17.51,10L17.51,7L14.51,7L14.51,10L13.01,10L11.51,10L11.51,12.02C11.24,12.32,11,12.65,10.8,13L8.51,13ZM5.5,13L8.5,13L8.5,10L5.5,10ZM8.5,10L11.5,10L11.5,7L8.5,7ZM16,13C14.3,13,13,14.3,13,16C13,17.7,14.3,19,16,19C17.7,19,19,17.7,19,16C19,14.3,17.7,13,16,13ZM16,11.5C18.48,11.5,20.5,13.52,20.5,16C20.5,18.48,18.48,20.5,16,20.5C13.52,20.5,11.5,18.48,11.5,16C11.5,13.52,13.52,11.5,16,11.5ZM21.7,21.55L21.6,21.65C21.28,21.97,20.93,21.97,20.61,21.65L17.83,18.87L18.93,17.77L21.71,20.54C22.03,20.87,22.03,21.22,21.71,21.54Z"/></svg>