<svg xmlns="http://www.w3.org/2000/svg" viewBox="0 0 24 24"><path d="M2,20L8.5,20C8.75,20.71,9.08,21.38,9.49,22L2.66,22C0.66,22,-0.01,21.33,-0.01,19.33L-0.01,4.66C-0.01,2.66,0.66,1.99,2.66,1.99L17.33,1.99C19.33,1.99,20,2.66,20,4.66L20,8.5C19.36,8.28,18.69,8.12,18,8.05L18,4L10,4L10,11.32C9.82,11.54,9.66,11.77,9.5,12L2,12Z" fill="currentColor"/><path d="M22,17C22,14.16,19.84,12,17,12C14.19,12,12,14.17,12,17C12,19.8,14.2,22,17,22C19.83,22,22,19.81,22,17Z" fill="currentColor"/><path d="M10,17C10,13.13,13.17,10,17,10C20.87,10,24,13.13,24,17C24,20.83,20.87,24,17,24C13.17,24,10,20.83,10,17Z" fill="currentColor"/><path d="M15.47,16.7C15.74,16.07,16.07,15.73,16.7,15.47L19.97,14.04L18.54,17.31C18.27,17.94,17.94,18.28,17.31,18.54L14.04,19.97Z" fill="currentColor"/></svg>