<svg xmlns="http://www.w3.org/2000/svg" viewBox="0 0 24 24"><path d="M12.93,22C12.33,22,12,21.67,12,21.07L12,20.97C12,20.37,12.33,20.04,12.93,20.04L15.93,20.04C18.43,20.04,20,18.47,20,15.97L20,4L18.8,4C18.07,4,17.9,3.67,18.37,3.07L20.3,0.57C20.8,-0.06,21.2,-0.06,21.7,0.57L23.6,3.07C24.03,3.67,23.87,4,23.13,4L22,4L22,15.97C22,19.67,19.67,22,15.93,22Z" fill="currentColor"/><path d="M3.7,23.43C3.2,24.06,2.8,24.06,2.3,23.43L0.4,20.93C-0.03,20.33,0.13,20,0.87,20L2,20L2,8.03C2,4.33,4.33,2,8.07,2L11.07,2C11.67,2,12,2.33,12,2.93L12,3.03C12,3.63,11.67,3.96,11.07,3.96L8.07,3.96C5.57,3.96,4,5.53,4,8.03L4,20L5.2,20C5.93,20,6.1,20.33,5.63,20.93Z" fill="currentColor"/><path d="M8.14,18C6.54,18,6.01,17.47,6.01,15.87L6.01,8.14C6.01,6.54,6.54,6.01,8.14,6.01L15.87,6.01C17.47,6.01,18,6.54,18,8.14L18,15.87C18,17.47,17.47,18,15.87,18Z" fill="currentColor"/><path d="M8,16L12,16L12,12L16,12L16,8L12,8L12,12L8,12Z" fill="currentColor"/></svg>