<svg xmlns="http://www.w3.org/2000/svg" viewBox="0 0 24 24"><path d="M15.6,22L2.4,22C0.6,22,0,21.4,0,19.6L0,6.4C0,4.6,0.6,4,2.4,4L8.67,4C8.49,4.58,8.38,5.18,8.34,5.8L5.39,5.8L5.39,9.4L1.79,9.4L1.79,13L5.39,13L5.39,16.6L1.79,16.6L1.79,20.2L5.39,20.2L5.39,16.6L8.99,16.6L8.99,20.2L12.59,20.2L12.59,16.6L16.19,16.6L16.19,13.9C16.81,13.88,17.41,13.79,17.99,13.63L17.99,19.6C17.99,21.4,17.39,22,15.59,22Z" fill="currentColor"/><path d="M12.6,16.6L9,16.6L9,13L12.43,13C12.49,13.03,12.54,13.06,12.6,13.09Z" fill="currentColor"/><path d="M9,13L5.4,13L5.4,9.4L9,9.4Z" fill="currentColor"/><path d="M9,9.4L9,9.33C9.01,9.35,9.02,9.38,9.03,9.4Z" fill="currentColor"/><path d="M14,8L14,4L18,4L18,8Z" fill="currentColor"/><path d="M20,6C20,3.8,18.2,2,16,2C13.8,2,12,3.8,12,6C12,8.2,13.8,10,16,10C18.2,10,20,8.2,20,6Z" fill="currentColor"/><path d="M10,6C10,2.7,12.7,0,16,0C19.3,0,22,2.7,22,6C22,7.3,21.6,8.47,20.9,9.47L23.53,12.1C23.96,12.53,23.96,13,23.53,13.43L23.43,13.5C23,13.93,22.53,13.93,22.1,13.5L19.47,10.87C18.47,11.6,17.3,12,16,12C12.7,12,10,9.3,10,6Z" fill="currentColor"/></svg>