<svg xmlns="http://www.w3.org/2000/svg" viewBox="0 0 24 24"><path d="M11.4,3.33L11.4,5L7,5L7,3.43C7,2.4,7.4,2,8.43,2L20.56,2C21.59,2,21.99,2.4,21.99,3.43L21.99,15.56C21.99,16.59,21.59,16.99,20.56,16.99L18.99,16.99L18.99,12.59L20.66,12.59L20.66,9.49L18.99,9.49L18.99,6.42C18.99,6.41,18.99,6.4,18.99,6.39L20.66,6.39L20.66,3.32L17.59,3.32L17.59,4.99C17.58,4.99,17.57,4.99,17.56,4.99L14.51,4.99L14.53,3.32Z" fill="currentColor"/><path d="M17,20.56C17,21.59,16.6,21.99,15.57,21.99L3.44,21.99C2.41,21.99,2.01,21.59,2.01,20.56L2.01,8.43C2.01,7.4,2.41,7,3.44,7L15.57,7C16.6,7,17,7.4,17,8.43Z" fill="currentColor"/><path d="M15.67,17.6L15.67,14.5L12.6,14.5L12.6,17.6Z" fill="currentColor"/><path d="M12.6,20.67L12.6,17.6L9.5,17.6L9.47,20.67Z" fill="currentColor"/><path d="M6.4,20.67L6.4,17.6L3.33,17.6L3.33,20.67Z" fill="currentColor"/><path d="M9.5,17.6L9.5,14.5L12.6,14.5L12.6,11.4L9.5,11.4L9.47,14.5L6.4,14.5L6.4,17.6Z" fill="currentColor"/><path d="M15.67,11.4L15.67,8.33L12.6,8.33L12.6,11.4Z" fill="currentColor"/><path d="M6.4,14.5L6.4,11.4L3.33,11.4L3.33,14.5Z" fill="currentColor"/><path d="M9.5,11.4L9.5,8.33L6.4,8.33L6.4,11.4Z" fill="currentColor"/></svg>