<svg xmlns="http://www.w3.org/2000/svg" viewBox="0 0 24 24" fill="currentColor"><path d="M5.5,19L9.25,19L9.25,15.25L5.5,15.25ZM4,12C4,10.5,4.5,10,6,10L12.5,10C13.32,10,13.83,10.15,14.14,10.52C13.54,10.77,12.98,11.09,12.49,11.5L9.25,11.5L9.25,15.25L10.17,15.25C10.06,15.73,10,16.23,10,16.75C10,18.14,10.41,19.43,11.13,20.5L6,20.5C4.5,20.5,4,20,4,18.5ZM8.5,7.5C8.5,6,9,5.5,10.5,5.5L17,5.5C18.5,5.5,19.01,6,19.01,7.5L19.01,10.38C18.53,10.22,18.02,10.1,17.51,10.04L17.51,7.01L13.76,7.01L13.76,8.51L8.51,8.51ZM16.75,11.52C19.62,11.52,21.98,13.87,21.98,16.75C21.98,19.6,19.63,21.98,16.75,21.98C13.9,21.98,11.52,19.6,11.52,16.75C11.52,13.88,13.9,11.52,16.75,11.52ZM15.98,19.77C15.98,20.25,16.22,20.5,16.67,20.5L16.75,20.5C17.22,20.5,17.48,20.25,17.48,19.8L17.48,17.5L19.8,17.5C20.25,17.5,20.5,17.25,20.5,16.77L20.5,16.7C20.5,16.25,20.25,16,19.77,16L17.47,16L17.47,13.73C17.47,13.25,17.22,13,16.77,13L16.7,13C16.23,13,15.97,13.25,15.97,13.7L15.97,16L13.7,16C13.25,16,13,16.25,13,16.73L13,16.8C13,17.25,13.25,17.5,13.73,17.5L15.98,17.5Z"/></svg>