<svg xmlns="http://www.w3.org/2000/svg" viewBox="0 0 24 24" fill="currentColor"><path d="M7,19L10,19L10,16L7,16ZM10,16L10.21,16C10.18,16.09,10.16,16.19,10.15,16.29L12.35,20.5L7.5,20.5C6,20.5,5.49,20,5.49,18.5L5.49,7.49C5.49,5.99,6,5.49,7.5,5.49L18.5,5.49C20,5.49,20.5,5.99,20.5,7.49L20.5,13.25C20.33,13.19,20.15,13.13,19.96,13.07L19,12.8L19,10.29C19,10.19,18.99,10.09,18.98,9.99L19,9.99L19,6.99L16,6.99L16,8.02C15.2,8.3,14.62,9.05,14.52,9.99L13,9.99L13,12.99L14.5,12.99L14.5,15.25C14.04,14.83,13.51,14.61,13,14.53L13,12.99L10,12.99ZM7,13L10,13L10,10L7,10ZM10,10L13,10L13,7L10,7ZM11.82,16.25C12.2,15.97,12.82,15.65,13.6,16.47L14.3,17.22C15.05,18.05,16,17.65,16,16.7L16,10.3C16,9.68,16.23,9.4,16.75,9.4C17.27,9.4,17.5,9.68,17.5,10.3L17.5,13.95L19.55,14.53C21.67,15.13,22.27,16.05,21.77,18.23L20.9,22L14.82,22Z"/></svg>