<svg xmlns="http://www.w3.org/2000/svg" viewBox="0 0 24 24" fill="currentColor"><path d="M5.5,19L8.5,19C8.5,19.01,8.5,19.02,8.5,19.02L8.5,20.5L6,20.5C4.5,20.5,4,20,4,18.5L4,7.49C4,5.99,4.5,5.49,6,5.49L17,5.49C18.33,5.49,18.87,5.88,18.98,6.99L18.33,6.99L17.51,6.99L14.9,6.99L11.51,6.99L11.51,10.72C10.82,11.26,10.36,12.05,10.25,12.99L5.51,12.99ZM16.5,11.3C16.05,9.72,17.01,8.5,18.33,8.5C19.62,8.5,20.65,9.63,20.13,11.3L19.47,13.4L20.45,13.98C21.45,14.58,22,14.93,22,16.02L22,17.5L18.5,17.5C18.12,16.78,17.46,16.22,16.61,15.71L16.91,14.74C17.31,13.44,17.12,12.29,16.54,11.45ZM10,19.02C10,17.92,10.52,17.58,11.52,16.98L12.5,16.4L11.85,14.3C11.34,12.72,12.35,11.5,13.67,11.5C14.96,11.5,15.99,12.63,15.47,14.3L14.81,16.4L15.79,16.98C16.79,17.58,17.34,17.93,17.34,19.02L17.34,20.5L9.99,20.5Z"/></svg>