<svg xmlns="http://www.w3.org/2000/svg" viewBox="0 0 24 24"><path d="M6.3,22L8.3,20L12,20L12,16.3L16.3,12L20,12L20,8.3L22,6.3L22,19.33C22,21.33,21.33,22,19.33,22Z" fill="currentColor"/><path d="M21.9,3.53L20,5.43L13.43,12L12,13.43L5.43,20L3.53,21.9L2.09,23.34L2.06,23.37C1.63,23.8,1.16,23.8,0.73,23.37L0.63,23.27C0.2,22.84,0.2,22.37,0.63,21.94L2.1,20.47C2.03,20.15,2,19.78,2,19.34L2,4.67C2,2.67,2.67,2,4.67,2L19.34,2C19.78,2,20.15,2.03,20.47,2.1L21.97,0.6C22.4,0.17,22.87,0.17,23.3,0.6L23.4,0.7C23.82,1.12,23.83,1.58,23.43,2C23.42,2.01,23.41,2.02,23.4,2.03Z" fill="currentColor"/><path d="M4,12L4,18.57L10.57,12Z" fill="currentColor"/><path d="M12,4L12,10.57L18.57,4Z" fill="currentColor"/></svg>