<svg xmlns="http://www.w3.org/2000/svg" viewBox="0 0 24 24" fill="currentColor"><path d="M8.72,20.5L13,16.23L13,19L16,19L16,16L19,16L19,13L16.23,13L20.5,8.73L20.5,18.5C20.5,20,20,20.5,18.5,20.5ZM7,13L10,13L10,14.93L11.93,13L10,13L10,10L13,10L13,11.93L14.93,10L13,10L13,7L10,7L10,10L7,10ZM16,16L13.23,16L16,13.23ZM20.42,6.65L19,8.07L17.07,10L16,11.07L14.07,13L13,14.07L11.07,16L10,17.07L8.07,19L6.65,20.42L5.57,21.5L5.54,21.53C5.22,21.85,4.87,21.85,4.55,21.53L4.47,21.45C4.15,21.13,4.15,20.78,4.47,20.45L5.57,19.35C5.52,19.11,5.5,18.83,5.5,18.5L5.5,7.5C5.5,6,6,5.5,7.5,5.5L18.5,5.5C18.84,5.5,19.11,5.52,19.35,5.57L20.48,4.45C20.8,4.13,21.15,4.13,21.47,4.45L21.55,4.52C21.87,4.84,21.87,5.18,21.57,5.5C21.56,5.51,21.56,5.51,21.55,5.52ZM7,16L7,17.93L8.93,16ZM16,7L16,8.93L17.93,7Z"/></svg>