<svg xmlns="http://www.w3.org/2000/svg" viewBox="0 0 24 24" fill="currentColor"><path d="M7,19L11.6,19C11.63,19.47,11.72,19.98,11.87,20.5L7.5,20.5C6,20.5,5.5,20,5.5,18.5L5.5,7.49C5.5,5.99,6,5.49,7.5,5.49L18.5,5.49C20,5.49,20.51,5.99,20.51,7.49L20.51,9.92C20.06,9.59,19.55,9.35,19.01,9.21L19.01,7L13.01,7L13.01,11.61C12.8,12.03,12.65,12.49,12.56,13L7.01,13ZM14.07,13L19,13L19,10.77C19.63,11.02,20.15,11.44,20.5,12.02L20.5,18.5C20.5,18.68,20.49,18.85,20.48,19.01L13.1,19.01C12.87,16.55,14.1,16.55,14.02,15.21L13.97,14.43C13.93,13.91,13.97,13.43,14.06,13.01ZM19.2,20C18.98,21.22,18.1,21.5,17.53,21.5C16.95,21.5,16.08,21.22,15.83,20ZM21.9,19L13.11,19C12.88,16.55,14.1,16.55,14.03,15.2L13.98,14.42C13.8,11.82,15.33,10.5,17.48,10.5C19.65,10.5,21.2,11.9,21.02,14.57L20.97,15.35C20.9,16.7,22.15,16.6,21.89,19Z"/></svg>