<svg xmlns="http://www.w3.org/2000/svg" viewBox="0 0 24 24"><path d="M2,20L6,20L6,16L2,16Z" fill="currentColor"/><path d="M10,20L11.18,20C11.09,20.58,11.04,21.24,11.01,22L2.67,22C0.67,22,0,21.33,0,19.33L0,4.66C0,2.66,0.67,1.99,2.67,1.99L17.34,1.99C19.34,1.99,20.01,2.66,20.01,4.66L20.01,5.99L18.01,5.99L18.01,3.99L14.01,3.99L14.01,6.01C12.7,6.13,11.7,6.87,11.24,7.99L10.01,7.99L10.01,11.99L11.14,11.99C11.43,13.94,12.09,14.95,13.25,15.99L10.01,15.99Z" fill="currentColor"/><path d="M6,16L10,16L10,12L6,12Z" fill="currentColor"/><path d="M2,12L6,12L6,8L2,8Z" fill="currentColor"/><path d="M6,8L10,8L10,4L6,4Z" fill="currentColor"/><path d="M14.44,24C13.41,24,13.01,23.6,13.01,22.57C13.04,18.67,13.38,18.44,16.44,16C13.37,13.57,13.04,13.37,13.01,9.47C13.01,8.44,13.41,8.04,14.44,8.04L22.57,8.04C23.6,8.04,24,8.44,24,9.47C23.97,13.37,23.63,13.57,20.57,16C23.64,18.43,23.97,18.67,24,22.57C24,23.6,23.6,24,22.57,24Z" fill="currentColor"/><path d="M14.97,22L22.04,22C22.04,18.6,18.84,19.93,18.84,17.67L18.84,16.04C18.84,15.44,19.07,14.84,19.44,14.41L21.87,11.64C22.4,11.01,21.9,10.91,18.4,10.91C15.1,10.91,14.63,11.01,15.13,11.61L17.56,14.41C17.93,14.84,18.16,15.44,18.16,16.04L18.16,17.67C18.16,19.94,14.96,18.7,14.96,22Z" fill="currentColor"/></svg>