<svg xmlns="http://www.w3.org/2000/svg" viewBox="0 0 24 24"><path d="M2,20L9.19,20L11.18,22L2.66,22C0.66,22,-0.01,21.33,-0.01,19.33L-0.01,4.66C-0.01,2.66,0.66,1.99,2.66,1.99L17.33,1.99C19.33,1.99,20,2.66,20,4.66L20,10.73C19.34,10.49,18.67,10.31,18,10.18L18,3.99L10,3.99L10,11.46C9.67,11.63,9.34,11.8,9.03,11.99L2,11.99Z" fill="currentColor"/><path d="M21.1,18.93L19.77,20.23C17.7,18.16,14.34,18.16,12.27,20.23L10.94,18.93C13.74,16.13,18.31,16.13,21.11,18.93Z" fill="currentColor"/><path d="M13.8,21.8C15.03,20.27,17,20.27,18.17,21.83L16,24Z" fill="currentColor"/><path d="M24,16L22.67,17.33C18.97,13.63,13.04,13.63,9.37,17.33L8.04,16C12.44,11.6,19.61,11.6,24.01,16Z" fill="currentColor"/></svg>