<svg xmlns="http://www.w3.org/2000/svg" viewBox="0 0 24 24" fill="currentColor"><path d="M5.5,19L10.79,19C11.12,19.56,11.54,20.07,12.02,20.5L5.99,20.5C4.49,20.5,3.99,20,3.99,18.5L3.99,7.49C3.99,5.99,4.49,5.49,5.99,5.49L17,5.49C18.5,5.49,19,5.99,19,7.49L19,10.79C18.54,10.52,18.03,10.32,17.5,10.19L17.5,7L11.5,7L11.5,12.02C11.24,12.32,11,12.65,10.79,13L5.5,13ZM19,16C19,14.3,17.7,13,16,13C14.3,13,13,14.3,13,16C13,17.7,14.3,19,16,19C17.7,19,19,17.7,19,16ZM11.5,16C11.5,13.52,13.52,11.5,16,11.5C18.48,11.5,20.5,13.52,20.5,16C20.5,18.48,18.48,20.5,16,20.5C13.52,20.5,11.5,18.48,11.5,16ZM21.7,21.55L21.6,21.65C21.28,21.97,20.93,21.97,20.61,21.65L17.83,18.87L18.93,17.77L21.71,20.54C22.03,20.87,22.03,21.22,21.71,21.54Z"/></svg>