<svg xmlns="http://www.w3.org/2000/svg" viewBox="0 0 24 24"><path d="M4.66,22C2.66,22,1.99,21.33,1.99,19.33L1.99,4.66C1.99,2.66,2.66,1.99,4.66,1.99L19.33,1.99C21.33,1.99,22,2.66,22,4.66L22,19.33C22,21.33,21.33,22,19.33,22Z" fill="currentColor"/><path d="M4,20L8,20L8,16L4,16Z" fill="currentColor"/><path d="M12,20L16,20L16,16L20,16L20,12L16,12L16,16L12,16Z" fill="currentColor"/><path d="M4,12L8,12L8,8L12,8L12,4L8,4L8,8L4,8Z" fill="currentColor"/><path d="M16,8L20,8L20,4L16,4Z" fill="currentColor"/><path d="M9.67,14.3C10.14,14.77,10.6,14.8,11.1,14.3L11.97,13.43L12.9,14.3C13.4,14.77,13.83,14.77,14.3,14.3C14.77,13.83,14.77,13.33,14.3,12.87L13.4,12L14.3,11.1C14.77,10.63,14.77,10.17,14.3,9.7C13.83,9.23,13.37,9.2,12.87,9.7L11.97,10.6L11.1,9.73C10.63,9.26,10.17,9.26,9.7,9.73C9.23,10.2,9.23,10.73,9.7,11.16L10.57,11.99L9.67,12.89C9.2,13.36,9.2,13.82,9.67,14.29Z" fill="currentColor"/></svg>