<svg xmlns="http://www.w3.org/2000/svg" viewBox="0 0 24 24" fill="currentColor"><path d="M17,20.5L11.5,20.5L11.5,19.17C11.5,17.67,11.95,17,13.25,16.38L15.07,15.5L14.3,13.22C14.27,13.15,14.24,13.07,14.22,13C13.32,10,14.89,8.5,16.74,8.5C17,8.5,17.25,8.53,17.49,8.58C18.1,8.72,18.62,9.05,18.99,9.56C19.56,10.34,19.73,11.56,19.16,13.19L18.99,13.71L18.39,15.49L18.99,15.77L20.27,16.39C21.56,17.01,21.99,17.66,21.99,19.16L21.99,20.49ZM5.5,19L10,19C10,19.06,10,19.11,10,19.17L10,20.5L6,20.5C4.5,20.5,4,20,4,18.5L4,7.49C4,5.99,4.5,5.49,6,5.49L17,5.49C18.5,5.49,19.01,5.99,19.01,7.49C18.56,7.17,18.04,6.99,17.51,6.99L16.76,6.99L11.51,6.99L11.51,12.99L5.51,12.99ZM11.5,13L12.68,13C12.73,13.23,12.8,13.46,12.88,13.71L13.23,14.73L12.6,15.02C12.19,15.22,11.82,15.46,11.5,15.73Z"/></svg>