<svg xmlns="http://www.w3.org/2000/svg" viewBox="0 0 24 24"><path d="M2,20L6,20L6,16L2,16Z" fill="currentColor"/><path d="M6,16L8.03,16C8.33,18.46,9.71,20.57,11.69,22L2.67,22C0.67,22,0,21.33,0,19.33L0,4.66C0,2.66,0.67,1.99,2.67,1.99L17.34,1.99C19.1,1.99,19.83,2.51,19.98,3.99L18.01,3.99L15.48,3.99L14.01,3.99L14.01,5.46L11.48,7.99L10.01,7.99L10.01,9.46C9.32,10.18,8.81,11.04,8.48,11.99L6.01,11.99Z" fill="currentColor"/><path d="M2,12L6,12L6,8L2,8Z" fill="currentColor"/><path d="M6,8L10,8L10,4L6,4Z" fill="currentColor"/><path d="M22.9,18.73C22.53,19.23,22.07,19.26,21.63,18.9L21.53,18.8C21.1,18.43,21.03,17.93,21.36,17.43C21.76,16.7,21.99,15.86,21.99,15C21.99,12.23,19.72,10,16.96,10L16.96,8C20.79,8,23.99,11.17,23.99,15C23.99,16.37,23.59,17.67,22.89,18.73Z" fill="currentColor"/><path d="M17.03,20L17.03,22C13.2,22,10,18.83,10,15C10,13.63,10.4,12.33,11.1,11.27C11.47,10.77,11.93,10.74,12.37,11.1L12.47,11.2C12.9,11.57,12.97,12.07,12.64,12.57C12.24,13.3,12.01,14.14,12.01,15C12.01,17.77,14.28,20,17.04,20Z" fill="currentColor"/><path d="M18,23.66C17.37,24.23,17,24.06,17,23.23L17,18.76C17,17.93,17.37,17.76,18,18.33L20.53,20.56C20.86,20.86,20.86,21.13,20.53,21.43Z" fill="currentColor"/><path d="M17,11.24C17,12.07,16.63,12.24,16,11.67L13.47,9.44C13.14,9.14,13.14,8.87,13.47,8.57L16,6.34C16.63,5.77,17,5.94,17,6.77Z" fill="currentColor"/><path d="M17,11.24C17,12.07,16.63,12.24,16,11.67L13.47,9.44C13.14,9.14,13.14,8.87,13.47,8.57L16,6.34C16.63,5.77,17,5.94,17,6.77Z" fill="currentColor"/></svg>