<svg xmlns="http://www.w3.org/2000/svg" viewBox="0 0 24 24" fill="currentColor"><path d="M17,20.5L5.99,20.5C4.49,20.5,3.99,20,3.99,18.5L3.99,7.49C3.99,5.99,4.49,5.49,5.99,5.49L10.41,5.49C10.12,5.96,9.89,6.46,9.73,6.99L5.49,6.99L5.49,10.99L9.49,10.99L9.49,14.99L5.49,14.99L5.49,18.98L9.49,18.98L9.49,14.99L13.49,14.99L13.49,18.98L17.48,18.98L17.48,14.99L18.98,14.99L18.98,18.49C18.98,19.99,18.48,20.49,16.98,20.49ZM11.31,7C11.48,6.57,11.72,6.17,12,5.81L12,7ZM15.75,4.01C18.38,4.01,20.5,6.13,20.5,8.76C20.5,11.36,18.38,13.5,15.75,13.5C13.15,13.5,11.01,11.35,11.01,8.76C11.01,6.13,13.16,4.01,15.75,4.01ZM15.75,5.51C13.98,5.51,12.51,6.96,12.51,8.75C12.51,10.53,13.98,12,15.75,12C17.55,12,19,10.52,19,8.75C19,6.96,17.55,5.51,15.75,5.51ZM21.72,14.75L21.67,14.8C21.35,15.12,21,15.12,20.67,14.8L17.77,11.9L18.84,10.85L21.71,13.75C22.04,14.07,22.04,14.42,21.71,14.75ZM14,10.5L14,7L17.5,7L17.5,10.5Z"/></svg>