<svg xmlns="http://www.w3.org/2000/svg" viewBox="0 0 24 24"><path d="M2,20L9.65,20C9.47,20.57,9.18,21.12,8.72,22L2.67,22C0.67,22,0,21.33,0,19.33L0,4.66C0,2.66,0.67,1.99,2.67,1.99L12.92,1.99C12.79,2.59,12.76,3.26,12.85,3.99L10,3.99L10,11.2C9.98,11.42,9.97,11.65,9.97,11.89L9.97,11.99L2,11.99Z" fill="currentColor"/><path d="M11,22C12,20,12,20,12,15.97L24,15.97C24,20,24,20,23,22Z" fill="currentColor"/><path d="M19.33,3.34C19.33,2.61,18.73,2.01,18,2.01C17.27,2.01,16.67,2.61,16.67,3.34C16.67,4.07,17.27,4.67,18,4.67C18.73,4.67,19.33,4.07,19.33,3.34Z" fill="currentColor"/><path d="M24,11.93L24,14L12,14L12,11.93C12,10.33,12.3,9.86,13.73,9.16L16.16,7.99L15.19,5.12C14.02,1.72,16.02,-0.01,17.96,-0.01C19.93,-0.01,21.93,1.72,20.76,5.19L19.83,7.99L22.26,9.16C23.69,9.86,23.99,10.33,23.99,11.93Z" fill="currentColor"/></svg>