<svg xmlns="http://www.w3.org/2000/svg" viewBox="0 0 24 24"><path d="M2,20L8.5,20C8.75,20.71,9.08,21.38,9.49,22L2.66,22C0.66,22,-0.01,21.33,-0.01,19.33L-0.01,4.66C-0.01,2.66,0.66,1.99,2.66,1.99L17.33,1.99C19.33,1.99,20,2.66,20,4.66L20,8.5C19.36,8.28,18.69,8.12,18,8.05L18,4L10,4L10,12L10.04,12C10.03,12.02,10.01,12.04,10,12.06L10,12L2,12Z" fill="currentColor"/><path d="M10,17C10,13.13,13.17,10,17,10C20.87,10,24,13.13,24,17C24,20.83,20.87,24,17,24C13.17,24,10,20.83,10,17Z" fill="currentColor"/><path d="M20.33,17C20.33,15.17,18.83,13.67,17,13.67C15.17,13.67,13.67,15.17,13.67,17C13.67,18.83,15.17,20.33,17,20.33C18.83,20.33,20.33,18.83,20.33,17Z" fill="currentColor"/></svg>