<svg xmlns="http://www.w3.org/2000/svg" viewBox="0 0 24 24" fill="currentColor"><path d="M12.55,6.5L12.55,7.75L9.25,7.75L9.25,6.57C9.25,5.8,9.55,5.5,10.32,5.5L19.42,5.5C20.19,5.5,20.49,5.8,20.49,6.57L20.49,15.67C20.49,16.44,20.19,16.74,19.42,16.74L18.24,16.74L18.24,13.44L19.5,13.44L19.5,11.12L18.24,11.12L18.24,8.82C18.24,8.81,18.24,8.8,18.24,8.79L19.5,8.79L19.5,6.49L17.19,6.49L17.19,7.74C17.19,7.74,17.18,7.74,17.17,7.74L14.88,7.74L14.9,6.49ZM16.75,19.42C16.75,20.19,16.45,20.49,15.68,20.49L6.58,20.49C5.81,20.49,5.51,20.19,5.51,19.42L5.51,10.32C5.51,9.55,5.81,9.25,6.58,9.25L15.68,9.25C16.45,9.25,16.75,9.55,16.75,10.32ZM15.75,17.2L15.75,14.88L13.45,14.88L13.45,17.2ZM13.45,19.5L13.45,17.2L11.13,17.2L11.1,19.5ZM8.8,19.5L8.8,17.2L6.5,17.2L6.5,19.5ZM11.13,17.2L11.13,14.88L13.45,14.88L13.45,12.55L11.13,12.55L11.1,14.88L8.8,14.88L8.8,17.2ZM15.75,12.55L15.75,10.25L13.45,10.25L13.45,12.55ZM8.8,14.88L8.8,12.55L6.5,12.55L6.5,14.88ZM11.13,12.55L11.13,10.25L8.8,10.25L8.8,12.55Z"/></svg>