<svg xmlns="http://www.w3.org/2000/svg" viewBox="0 0 24 24" fill="currentColor"><path d="M5.5,19L8.5,19L8.5,16L5.5,16ZM11.5,19L11.5,20.5L6,20.5C4.5,20.5,4,20,4,18.5L4,7.49C4,5.99,4.5,5.49,6,5.49L17,5.49C18.33,5.49,18.87,5.88,18.98,6.99L17.51,6.99L16.79,6.99L14.51,6.99L14.51,9.99L14.53,9.99L14.51,10.01L14.51,9.99L11.51,9.99L11.51,12.99L13.5,12.99C13.55,14.03,13.79,15.05,14.26,15.99L13.02,15.99L11.52,15.99L11.52,17.63ZM8.5,16L11.5,16L11.5,13L8.5,13ZM5.5,13L8.5,13L8.5,10L5.5,10ZM8.5,10L11.5,10L11.5,7L8.5,7ZM21.92,20.5L13.05,20.5C13.05,17.4,16.11,17.88,16.35,14.8L16.41,14.5L15.15,14.5C15,14.15,14.93,13.77,14.93,13.4L16.4,12.5C15.78,12.12,15.35,11.35,15.35,10.62C15.35,9.45,16.31,8.5,17.48,8.5C18.66,8.5,19.63,9.45,19.63,10.62C19.63,11.4,19.25,12.07,18.58,12.48L20.06,13.4C20.06,13.77,19.98,14.15,19.83,14.5L18.58,14.5L18.63,14.8C18.86,17.88,21.93,17.4,21.93,20.5Z"/></svg>