<svg xmlns="http://www.w3.org/2000/svg" viewBox="0 0 24 24" fill="currentColor"><path d="M15.66,15.19C15.67,15.19,15.67,15.19,15.68,15.2ZM4,8.6C4,7.4,4.4,7,5.6,7L13.41,7C13.32,7.41,13.28,7.87,13.28,8.37C13.28,8.42,13.28,8.46,13.28,8.5L10,8.5L10,10.6C9.73,11.22,9.57,11.98,9.57,12.87C9.57,12.92,9.57,12.96,9.57,13L5.5,13L5.5,17.5L7.38,17.5C7.14,17.95,7,18.45,6.96,19L5.61,19C4.41,19,4.01,18.6,4.01,17.4ZM14.78,8.37C14.78,6.52,15.53,5.5,17.03,5.5C18.66,5.5,19.38,6.53,19.38,8.37C19.38,10.75,18.42,10.62,18.42,11.43C18.42,11.82,18.57,12.03,18.93,12.12L20.45,12.65C21.57,13,22,13.57,22,14.77L22,15.99L17.87,15.99C17.66,15.88,17.43,15.79,17.19,15.71L16.69,15.54C16.93,14.93,17.18,13.94,17.18,12.86C17.18,10.63,16.23,9.26,14.79,8.73C14.78,8.62,14.78,8.49,14.78,8.36ZM8.45,19.28C8.45,18.08,8.88,17.5,10.02,17.16L11.47,16.65C11.82,16.52,11.97,16.35,11.97,15.92C11.97,15.15,11.07,15.15,11.07,12.87C11.07,11.02,11.8,10,13.32,10C14.95,10,15.67,11.03,15.67,12.87C15.67,15.14,14.72,15.14,14.72,15.92C14.72,16.32,14.85,16.52,15.22,16.62L16.72,17.15C17.87,17.5,18.3,18.07,18.3,19.27L18.3,20.49L8.45,20.49Z"/></svg>