<svg xmlns="http://www.w3.org/2000/svg" viewBox="0 0 24 24" fill="currentColor"><path d="M5.5,19L11.48,19L11.48,20.5L6,20.5C4.5,20.5,4,20,4,18.5L4,7.49C4,5.99,4.5,5.49,6,5.49L17,5.49C18.5,5.49,19.01,5.99,19.01,7.49L19.01,8.91C18.55,8.79,18.05,8.72,17.51,8.72L17.51,6.99L11.51,6.99L11.51,8.72L11.5,12.99L5.51,12.99ZM18.38,19.72C18.38,19.22,18,18.84,17.5,18.84C17,18.84,16.62,19.22,16.62,19.72C16.62,20.22,17,20.6,17.5,20.6C18,20.6,18.38,20.22,18.38,19.72ZM19,13.28C19,12.33,18.42,11.73,17.5,11.73C16.58,11.73,16,12.33,16,13.28L16,15.98L20.97,15.98C21.7,15.98,22,16.28,22,17.05L22,20.95C22,21.68,21.7,21.98,20.93,21.98L14.03,21.98C13.3,21.98,13,21.68,13,20.91L13,17.01C13,16.28,13.3,15.98,14.07,15.98L14.5,15.98L14.5,13.28C14.5,11.4,15.65,10.23,17.5,10.23C19.35,10.23,20.5,11.4,20.5,13.28L20.5,13.56L19,13.56Z"/></svg>