<svg xmlns="http://www.w3.org/2000/svg" viewBox="0 0 24 24"><path d="M4,20L8,20L8,16L4,16Z" fill="currentColor"/><path d="M8,16L8.28,16C8.24,16.12,8.22,16.25,8.2,16.38L11.13,22L4.66,22C2.66,22,1.99,21.33,1.99,19.33L1.99,4.66C1.99,2.66,2.66,1.99,4.66,1.99L19.33,1.99C21.33,1.99,22,2.66,22,4.66L22,12.33C21.77,12.25,21.53,12.17,21.28,12.1L20,11.74L20,8.39C20,8.25,19.99,8.12,19.98,7.99L20,7.99L20,3.99L16,3.99L16,5.36C14.93,5.74,14.16,6.73,14.02,7.99L12,7.99L12,11.99L14,11.99L14,15C13.38,14.44,12.68,14.14,12,14.04L12,11.99L8,11.99Z" fill="currentColor"/><path d="M4,12L8,12L8,8L4,8Z" fill="currentColor"/><path d="M8,8L12,8L12,4L8,4Z" fill="currentColor"/><path d="M10.43,16.33C10.93,15.96,11.76,15.53,12.8,16.63L13.73,17.63C14.73,18.73,16,18.2,16,16.93L16,8.4C16,7.57,16.3,7.2,17,7.2C17.7,7.2,18,7.57,18,8.4L18,13.27L20.73,14.04C23.56,14.84,24.36,16.07,23.7,18.97L22.53,24L14.43,24Z" fill="currentColor"/></svg>