<svg xmlns="http://www.w3.org/2000/svg" viewBox="0 0 24 24" fill="currentColor"><path d="M7,19L11.13,19C11.21,19.07,11.31,19.13,11.42,19.2L12,19.53L12,20.17C12,20.28,12,20.39,12.02,20.49L7.5,20.49C6,20.49,5.49,19.99,5.49,18.49L5.49,7.49C5.49,5.99,6,5.49,7.5,5.49L18.5,5.49C20,5.49,20.5,5.99,20.5,7.49L20.5,11.25C20.07,10.9,19.55,10.67,19,10.59L19,6.98L13,6.98L13,11.25C12.49,11.68,12.12,12.28,12.02,12.98L7,12.98ZM15.1,21.25C14.9,21.53,14.63,21.57,14.35,21.42L13.9,21.14C13.62,21,13.52,20.72,13.67,20.42L13.9,19.89C14,19.69,13.95,19.42,13.77,19.12L13.12,17.97C13.02,17.77,12.77,17.65,12.42,17.62L12.05,17.57C11.69,17.54,11.52,17.32,11.52,16.99L11.52,16.49C11.52,16.13,11.69,15.94,12.05,15.91L12.59,15.83C12.82,15.83,13.04,15.66,13.22,15.36L13.87,14.21C13.97,14.01,13.97,13.74,13.82,13.44L13.67,13.07C13.52,12.77,13.61,12.49,13.89,12.34L14.34,12.06C14.62,11.91,14.89,11.96,15.09,12.23L15.44,12.71C15.57,12.88,15.84,12.98,16.17,12.98L17.5,12.98C17.72,12.98,17.95,12.83,18.15,12.56L18.4,12.23C18.6,11.96,18.87,11.91,19.15,12.06L19.6,12.34C19.88,12.49,19.97,12.77,19.82,13.07L19.6,13.59C19.5,13.79,19.55,14.06,19.73,14.36L20.38,15.51C20.48,15.71,20.73,15.83,21.08,15.86L21.45,15.92C21.8,15.94,21.98,16.14,21.98,16.49L21.98,17C21.98,17.32,21.8,17.54,21.45,17.57L20.91,17.65C20.68,17.65,20.45,17.82,20.28,18.12L19.63,19.27C19.53,19.47,19.53,19.74,19.68,20.04L19.83,20.42C19.98,20.72,19.88,21,19.61,21.14L19.16,21.42C18.88,21.57,18.61,21.52,18.41,21.25L18.05,20.78C17.93,20.61,17.68,20.5,17.33,20.5L16,20.5C15.77,20.5,15.55,20.65,15.35,20.93ZM15,16.75C15,17.73,15.78,18.5,16.75,18.5C17.73,18.5,18.5,17.72,18.5,16.75C18.5,15.77,17.72,15,16.75,15C15.77,15,15,15.78,15,16.75Z"/></svg>