<svg xmlns="http://www.w3.org/2000/svg" viewBox="0 0 24 24"><path d="M2,20L6,20L6,16.63C6.17,16.92,6.42,17.22,6.73,17.54L11.18,22.01L2.66,22.01C0.66,22.01,-0.01,21.34,-0.01,19.34L-0.01,4.67C-0.01,2.67,0.66,2,2.66,2L17.33,2C19.33,2,20,2.67,20,4.67L20,10.74C18.71,10.27,17.37,10.01,16.03,10.01C15.34,10.01,14.66,10.07,14,10.18L14,8.01L10,8.01L10,11.48C9.67,11.65,9.34,11.82,9.03,12.01L6,12.01L6,14.59C5.7,15.08,5.61,15.54,5.73,16.01L2,16.01Z" fill="currentColor"/><path d="M2,12L6,12L6,8L2,8Z" fill="currentColor"/><path d="M6,8L10,8L10,4L6,4Z" fill="currentColor"/><path d="M14,8L18,8L18,4L14,4Z" fill="currentColor"/><path d="M21.1,18.93L19.77,20.23C17.7,18.16,14.34,18.16,12.27,20.23L10.94,18.93C13.74,16.13,18.31,16.13,21.11,18.93Z" fill="currentColor"/><path d="M13.8,21.8C15.03,20.27,17,20.27,18.17,21.83L16,24Z" fill="currentColor"/><path d="M24,16L22.67,17.33C18.97,13.63,13.04,13.63,9.37,17.33L8.04,16C12.44,11.6,19.61,11.6,24.01,16Z" fill="currentColor"/></svg>