<svg xmlns="http://www.w3.org/2000/svg" viewBox="0 0 24 24"><path d="M19.33,22L4.66,22C2.66,22,1.99,21.33,1.99,19.33L1.99,4.66C1.99,2.66,2.66,1.99,4.66,1.99L11.99,1.99L11.99,3.99L11.99,11.99L3.99,11.99L3.99,19.99L11.99,19.99L11.99,11.99L19.99,11.99L21.99,11.99L21.99,19.32C21.99,21.32,21.32,21.99,19.32,21.99Z" fill="currentColor"/><path d="M22.57,0C23.6,0,24,0.4,24,1.43L24,5.86C24,6.89,23.73,7.03,23,6.29L16.7,-0.01Z" fill="currentColor"/><path d="M22.97,3.1L16.34,9.67L14.34,7.67L20.91,1Z" fill="currentColor"/></svg>