<svg xmlns="http://www.w3.org/2000/svg" viewBox="0 0 24 24"><path d="M2,20L6,20L6,16L2,16Z" fill="currentColor"/><path d="M9.89,20.26L10.66,20.71L10.66,21.56C10.66,21.71,10.67,21.85,10.69,21.99L2.66,21.99C0.66,21.99,-0.01,21.32,-0.01,19.32L-0.01,4.65C-0.01,2.65,0.66,1.98,2.66,1.98L17.33,1.98C19.33,1.98,20,2.65,20,4.65L20,8.8C19.26,8.71,18.48,8.84,17.76,9.25L17.01,9.68L16.2,9.23C15.49,8.84,14.73,8.72,14,8.81L14,7.98L10,7.98L10,11.98L10.7,11.98C10.68,12.14,10.67,12.31,10.67,12.48L10.67,13.33L10,13.72L10,11.98L6,11.98L6,15.98L8.22,15.98C7.8,17.54,8.35,19.35,9.89,20.24Z" fill="currentColor"/><path d="M2,12L6,12L6,8L2,8Z" fill="currentColor"/><path d="M6,8L10,8L10,4L6,4Z" fill="currentColor"/><path d="M14,8L18,8L18,4L14,4Z" fill="currentColor"/><path d="M14.8,23C14.53,23.37,14.17,23.43,13.8,23.23L13.2,22.86C12.83,22.66,12.7,22.29,12.9,21.89L13.2,21.19C13.33,20.92,13.27,20.56,13.03,20.16L12.16,18.63C12.03,18.36,11.69,18.2,11.23,18.16L10.73,18.09C10.26,18.06,10.03,17.76,10.03,17.32L10.03,16.65C10.03,16.18,10.26,15.92,10.73,15.88L11.46,15.78C11.76,15.78,12.06,15.55,12.29,15.15L13.16,13.62C13.29,13.35,13.29,12.99,13.09,12.59L12.89,12.09C12.69,11.69,12.82,11.32,13.19,11.12L13.79,10.75C14.16,10.55,14.52,10.62,14.79,10.98L15.26,11.61C15.43,11.84,15.79,11.98,16.23,11.98L18,11.98C18.3,11.98,18.6,11.78,18.87,11.41L19.2,10.98C19.47,10.61,19.83,10.55,20.2,10.75L20.8,11.12C21.17,11.32,21.3,11.69,21.1,12.09L20.8,12.79C20.67,13.06,20.73,13.42,20.97,13.82L21.84,15.35C21.97,15.62,22.31,15.78,22.77,15.82L23.27,15.89C23.74,15.92,23.97,16.19,23.97,16.66L23.97,17.33C23.97,17.76,23.74,18.06,23.27,18.1L22.54,18.2C22.24,18.2,21.94,18.43,21.71,18.83L20.84,20.36C20.71,20.63,20.71,20.99,20.91,21.39L21.11,21.89C21.31,22.29,21.18,22.66,20.81,22.86L20.21,23.23C19.84,23.43,19.48,23.36,19.21,23L18.74,22.37C18.57,22.14,18.24,22,17.77,22L16,22C15.7,22,15.4,22.2,15.13,22.57Z" fill="currentColor"/><path d="M14.67,17C14.67,18.3,15.7,19.33,17,19.33C18.3,19.33,19.33,18.3,19.33,17C19.33,15.7,18.3,14.67,17,14.67C15.7,14.67,14.67,15.7,14.67,17Z" fill="currentColor"/></svg>