<svg xmlns="http://www.w3.org/2000/svg" viewBox="0 0 24 24" fill="currentColor"><path d="M5.5,19L8.5,19L8.5,16.47C8.63,16.69,8.81,16.91,9.05,17.16L12.38,20.51L6,20.51C4.5,20.51,3.99,20,3.99,18.5L3.99,7.5C3.99,6,4.5,5.5,6,5.5L17,5.5C18.5,5.5,19,6,19,7.5L19,12.05C18.03,11.7,17.03,11.51,16.02,11.51C15.5,11.51,15,11.55,14.5,11.63L14.5,10.01L11.5,10.01L11.5,12.61C11.25,12.74,11,12.86,10.77,13.01L8.5,13.01L8.5,14.94C8.27,15.31,8.21,15.65,8.3,16.01L5.5,16.01ZM5.5,13L8.5,13L8.5,10L5.5,10ZM8.5,10L11.5,10L11.5,7L8.5,7ZM14.5,10L17.5,10L17.5,7L14.5,7ZM18.83,19.17C17.28,17.62,14.76,17.62,13.2,19.17L12.21,18.2C14.31,16.1,17.73,16.1,19.83,18.2ZM14.35,20.35C15.27,19.2,16.75,19.2,17.63,20.37L16,22ZM22,16L21,17C18.23,14.22,13.78,14.22,11.03,17L10.03,16C13.33,12.7,18.71,12.7,22.01,16Z"/></svg>