<svg xmlns="http://www.w3.org/2000/svg" viewBox="0 0 24 24"><path d="M2,20L6,20L6,16L2,16Z" fill="currentColor"/><path d="M10,20L10,22L2.67,22C0.67,22,0,21.33,0,19.33L0,4.66C0,2.66,0.67,1.99,2.67,1.99L17.34,1.99C19.1,1.99,19.83,2.51,19.98,3.99L18.01,3.99L17.05,3.99L14.01,3.99L14.01,7.99L14.04,7.99L14.01,8.02L14.01,7.99L10.01,7.99L10.01,11.99L12.66,11.99C12.73,13.37,13.05,14.73,13.68,15.99L12.03,15.99L10.02,15.99L10.02,18.18Z" fill="currentColor"/><path d="M6,16L10,16L10,12L6,12Z" fill="currentColor"/><path d="M2,12L6,12L6,8L2,8Z" fill="currentColor"/><path d="M6,8L10,8L10,4L6,4Z" fill="currentColor"/><path d="M23.9,22L12.07,22C12.07,17.87,16.14,18.5,16.47,14.4L16.54,14L14.87,14C14.67,13.53,14.57,13.03,14.57,12.53L16.54,11.33C15.71,10.83,15.14,9.8,15.14,8.83C15.14,7.26,16.41,6,17.97,6C19.54,6,20.84,7.27,20.84,8.83C20.84,9.86,20.34,10.76,19.44,11.3L21.41,12.53C21.41,13.03,21.31,13.53,21.11,14L19.44,14L19.51,14.4C19.81,18.5,23.91,17.87,23.91,22Z" fill="currentColor"/></svg>