<svg xmlns="http://www.w3.org/2000/svg" viewBox="0 0 24 24"><path d="M2,20L6,20C6,20.01,6,20.02,6,20.03L6,22L2.67,22C0.67,22,0,21.33,0,19.33L0,4.66C0,2.66,0.67,1.99,2.67,1.99L17.34,1.99C19.1,1.99,19.83,2.51,19.98,3.99L19.11,3.99L18.01,3.99L14.54,3.99L10.01,3.99L10.01,8.96C9.1,9.68,8.48,10.74,8.33,11.99L2.01,11.99Z" fill="currentColor"/><path d="M16.67,9.73C16.07,7.63,17.34,6,19.1,6C20.83,6,22.2,7.5,21.5,9.73L20.63,12.53L21.93,13.3C23.26,14.1,24,14.57,24,16.03L24,18L19.33,18C18.83,17.04,17.95,16.29,16.81,15.61L17.21,14.32C17.75,12.59,17.49,11.05,16.72,9.93Z" fill="currentColor"/><path d="M8,20.03C8,18.56,8.7,18.1,10.03,17.3L11.33,16.53L10.46,13.73C9.79,11.63,11.13,10,12.89,10C14.62,10,15.99,11.5,15.29,13.73L14.42,16.53L15.72,17.3C17.05,18.1,17.79,18.57,17.79,20.03L17.79,22L7.99,22Z" fill="currentColor"/></svg>