<svg xmlns="http://www.w3.org/2000/svg" viewBox="0 0 24 24" fill="currentColor"><path d="M7,19L11.51,19L12.36,20.5L7.5,20.5C6,20.5,5.49,20,5.49,18.5L5.49,7.49C5.49,5.99,6,5.49,7.5,5.49L18.5,5.49C20,5.49,20.5,5.99,20.5,7.49L20.5,13.22C20.33,13.16,20.15,13.11,19.96,13.07L19,12.83L19,7L13,7L13,13L14.3,13L14.3,15.26C13.85,14.84,13.41,14.55,13,14.39L13,13L7,13ZM15.52,16.47C15.53,16.48,15.54,16.49,15.54,16.5ZM11.73,16.35C12.1,15.63,12.6,15.65,13.5,16.58L14.48,17.55C15.23,18.33,15.81,17.65,15.81,16.71L15.81,10.31C15.81,9.76,15.93,9.41,16.55,9.41C17.03,9.41,17.3,9.76,17.3,10.31L17.3,13.96L19.61,14.54C21.73,15.06,22.33,16.06,21.84,18.23L20.96,22.01L14.96,22.01Z"/></svg>