<svg xmlns="http://www.w3.org/2000/svg" viewBox="0 0 24 24" fill="currentColor"><path d="M8.72,20.5L10.22,19L13,19L13,16.23L16.23,13L19,13L19,10.23L20.5,8.73L20.5,18.5C20.5,20,20,20.5,18.5,20.5ZM20.42,6.65L19,8.07L14.07,13L13,14.07L8.07,19L6.65,20.42L5.57,21.5L5.54,21.53C5.22,21.85,4.87,21.85,4.55,21.53L4.47,21.45C4.15,21.13,4.15,20.78,4.47,20.45L5.57,19.35C5.52,19.11,5.5,18.83,5.5,18.5L5.5,7.5C5.5,6,6,5.5,7.5,5.5L18.5,5.5C18.84,5.5,19.11,5.52,19.35,5.57L20.48,4.45C20.8,4.13,21.15,4.13,21.47,4.45L21.55,4.52C21.87,4.84,21.87,5.18,21.57,5.5C21.56,5.51,21.56,5.51,21.55,5.52ZM7,13L7,17.93L11.93,13ZM13,7L13,11.93L17.93,7Z"/></svg>