<svg xmlns="http://www.w3.org/2000/svg" viewBox="0 0 24 24"><path d="M2,20L9.64,20C9.55,20.32,9.5,20.65,9.5,20.97L9.5,22L2.67,22C0.67,22,0,21.33,0,19.33L0,4.66C0,2.66,0.67,1.99,2.67,1.99L17.34,1.99C19.34,1.99,20.01,2.66,20.01,4.66L20.01,5.54C19.35,5.23,18.68,5.02,18.01,4.89L18.01,3.99L10.01,3.99L10.01,10.54L9.44,11.35C9.31,11.54,9.2,11.76,9.12,12L2.01,12Z" fill="currentColor"/><path d="M10,15.44C10.74,15.98,11.73,16.3,12.64,16.33C12.45,16.64,12.28,16.97,12.15,17.3C11.16,17.72,10.44,18.39,10,19.15Z" fill="currentColor"/><path d="M11.1,13.77C10.77,13.47,10.77,12.94,11.07,12.5L12.37,10.67C12.97,9.84,12.97,9.37,13.3,8.5C13.37,8.3,13.5,7.93,13.93,7.6C14.33,7.23,14.63,6.97,14.8,6.53L14.93,5.8C15,5.53,15.2,5.33,15.43,5.33L16.83,6.76C19.66,6.93,22.8,8.99,22.8,13.63C22.8,15,21.9,17.46,21.63,18.9C23.13,19.13,24,19.83,24,20.97L24,22L11.5,22L11.5,20.97C11.5,19.84,12.33,19.14,13.8,18.9C13.83,15.13,17.7,14.4,17.7,12.57C17.7,12,17.37,11.54,17.23,11.37L16.8,11.87C16.4,12.3,15.63,13.07,14.77,13.07C13.64,13.1,13.6,13.9,13.1,14.4C12.97,14.5,11.6,14.2,11.1,13.77Z" fill="currentColor"/></svg>