<svg xmlns="http://www.w3.org/2000/svg" viewBox="0 0 24 24"><path d="M17.33,22L10,22L10,20.23C10,18.23,10.6,17.33,12.33,16.5L14.76,15.33L13.73,12.3C13.7,12.2,13.66,12.1,13.63,12C12.43,8,14.52,6,16.99,6C17.33,6,17.67,6.04,17.99,6.11C18.8,6.3,19.5,6.74,19.99,7.41C20.75,8.46,20.98,10.08,20.22,12.26L19.99,12.95L19.19,15.32L19.99,15.7L21.69,16.52C23.42,17.35,23.99,18.22,23.99,20.22L23.99,21.99Z" fill="currentColor"/><path d="M2,20L8,20C8,20.08,8,20.15,8,20.23L8,22L2.67,22C0.67,22,0,21.33,0,19.33L0,4.66C0,2.66,0.67,1.99,2.67,1.99L17.34,1.99C19.34,1.99,20.01,2.66,20.01,4.66C19.42,4.23,18.72,3.99,18.01,3.99L17.01,3.99L10.01,3.99L10.01,11.99L2.01,11.99Z" fill="currentColor"/><path d="M10,12L11.57,12C11.64,12.31,11.73,12.62,11.84,12.94L12.3,14.3L11.47,14.7C10.92,14.96,10.43,15.28,10,15.64Z" fill="currentColor"/></svg>