<svg xmlns="http://www.w3.org/2000/svg" viewBox="0 0 24 24"><path d="M21.07,12C21.67,12,22,12.33,22,12.93L22,15.93C22,19.66,19.67,22,15.97,22L4,22L4,23.13C4,23.86,3.67,24.03,3.07,23.6L0.57,21.7C-0.06,21.2,-0.06,20.8,0.57,20.3L3.07,18.37C3.67,17.9,4,18.07,4,18.8L4,20L15.97,20C18.47,20,20.04,18.43,20.04,15.93L20.04,12.93C20.04,12.33,20.37,12,20.97,12Z" fill="currentColor"/><path d="M23.43,2.3C24.06,2.8,24.06,3.2,23.43,3.7L20.93,5.63C20.33,6.1,20,5.93,20,5.2L20,4L8.03,4C5.53,4,3.96,5.57,3.96,8.07L3.96,11.07C3.96,11.67,3.63,12,3.03,12L2.93,12C2.33,12,2,11.67,2,11.07L2,8.07C2,4.34,4.33,2,8.03,2L20,2L20,0.87C20,0.14,20.33,-0.03,20.93,0.4Z" fill="currentColor"/><path d="M15.86,6C17.46,6,17.99,6.53,17.99,8.13L17.99,15.86C17.99,17.46,17.46,17.99,15.86,17.99L8.13,17.99C6.53,17.99,6,17.46,6,15.86L6,8.13C6,6.53,6.53,6,8.13,6Z" fill="currentColor"/><path d="M16,8L12,8L12,12L8,12L8,16L12,16L12,12L16,12Z" fill="currentColor"/></svg>