<svg xmlns="http://www.w3.org/2000/svg" viewBox="0 0 24 24" fill="currentColor"><path d="M5.5,19L11.23,19C11.16,19.24,11.13,19.49,11.13,19.73L11.13,20.5L6,20.5C4.5,20.5,4,20,4,18.5L4,7.49C4,5.99,4.5,5.49,6,5.49L17,5.49C18.5,5.49,19.01,5.99,19.01,7.49L19.01,8.15C18.51,7.92,18.01,7.76,17.51,7.67L17.51,6.99L11.51,6.99L11.51,11.9L11.08,12.51C10.98,12.65,10.9,12.82,10.84,13L5.51,13ZM11.5,15.58C12.05,15.98,12.8,16.23,13.48,16.25C13.34,16.48,13.21,16.73,13.11,16.98C12.37,17.29,11.83,17.79,11.5,18.36ZM12.33,14.33C12.08,14.1,12.08,13.71,12.3,13.38L13.28,12C13.73,11.38,13.73,11.03,13.98,10.38C14.03,10.23,14.13,9.95,14.45,9.7C14.75,9.42,14.97,9.23,15.1,8.9L15.2,8.35C15.25,8.15,15.4,8,15.57,8L16.62,9.07C18.74,9.2,21.1,10.74,21.1,14.22C21.1,15.25,20.42,17.09,20.22,18.17C21.35,18.35,22,18.87,22,19.73L22,20.5L12.62,20.5L12.62,19.73C12.62,18.88,13.25,18.36,14.35,18.17C14.37,15.35,17.27,14.8,17.27,13.43C17.27,13,17.03,12.66,16.92,12.53L16.6,12.9C16.3,13.23,15.72,13.8,15.08,13.8C14.23,13.83,14.2,14.42,13.82,14.8C13.73,14.88,12.7,14.65,12.33,14.33Z"/></svg>