<svg xmlns="http://www.w3.org/2000/svg" viewBox="0 0 24 24" fill="currentColor"><path d="M15.7,20.5L5.8,20.5C4.45,20.5,4,20.05,4,18.7L4,8.8C4,7.45,4.45,7,5.8,7L10.5,7C10.37,7.44,10.29,7.89,10.26,8.35L8.04,8.35L8.04,11.05L5.34,11.05L5.34,13.75L8.04,13.75L8.04,16.45L5.34,16.45L5.34,19.15L8.04,19.15L8.04,16.45L10.74,16.45L10.74,19.15L13.44,19.15L13.44,16.45L16.14,16.45L16.14,14.43C16.61,14.41,17.06,14.34,17.49,14.22L17.49,18.7C17.49,20.05,17.04,20.5,15.69,20.5ZM13.45,16.45L10.75,16.45L10.75,13.75L13.32,13.75C13.37,13.77,13.41,13.79,13.45,13.82ZM10.75,13.75L8.05,13.75L8.05,11.05L10.75,11.05ZM10.75,11.05L10.75,11C10.76,11.01,10.77,11.04,10.77,11.05ZM14.5,10L14.5,7L17.5,7L17.5,10ZM19,8.5C19,6.85,17.65,5.5,16,5.5C14.35,5.5,13,6.85,13,8.5C13,10.15,14.35,11.5,16,11.5C17.65,11.5,19,10.15,19,8.5ZM21.65,13.08C21.97,13.4,21.97,13.75,21.65,14.07L21.57,14.13C21.25,14.45,20.9,14.45,20.57,14.13L18.6,12.15C17.85,12.7,16.97,13,16,13C13.52,13,11.5,10.98,11.5,8.5C11.5,6.03,13.52,4,16,4C18.48,4,20.5,6.03,20.5,8.5C20.5,9.48,20.2,10.35,19.67,11.1Z"/></svg>