<svg xmlns="http://www.w3.org/2000/svg" viewBox="0 0 24 24" fill="currentColor"><path d="M11.52,7.02C11.63,5.89,12.17,5.5,13.5,5.5L18.5,5.5C20,5.5,20.51,6,20.51,7.5L20.51,12.5C20.51,13.83,20.12,14.38,18.98,14.48C19,14.34,19.01,14.18,19.01,14L19.01,10.4C19.01,7.85,18.16,7.01,15.61,7.01L12.01,7.01C11.84,7.01,11.68,7.01,11.53,7.03ZM8.52,10.02C8.63,8.89,9.17,8.5,10.5,8.5L15.5,8.5C17,8.5,17.51,9,17.51,10.5L17.51,15.5C17.51,16.83,17.12,17.38,15.98,17.48C16,17.34,16.01,17.18,16.01,17L16.01,13.4C16.01,10.85,15.16,10.01,12.61,10.01L9.01,10.01C8.84,10.01,8.68,10.01,8.53,10.03ZM7.5,20.5C6,20.5,5.49,20,5.49,18.5L5.49,13.49C5.49,11.99,6,11.49,7.5,11.49L12.5,11.49C14,11.49,14.5,11.99,14.5,13.49L14.5,18.5C14.5,20,14,20.5,12.5,20.5ZM7,19L10,19L10,16L13,16L13,13L10,13L10,16L7,16Z"/></svg>