<svg xmlns="http://www.w3.org/2000/svg" viewBox="0 0 24 24"><path d="M22,19.34C22,21.34,21.33,22.01,19.33,22.01L4.66,22.01C2.66,22.01,1.99,21.34,1.99,19.34L1.99,4.67C1.99,2.67,2.66,2,4.66,2L19.33,2C21.33,2,22,2.67,22,4.67Z" fill="currentColor"/><path d="M20,20L20,16L16,16L16,20Z" fill="currentColor"/><path d="M12,20L12,16L8,16L8,20Z" fill="currentColor"/><path d="M16,16L16,12L12,12L12,16Z" fill="currentColor"/><path d="M20,12L20,8L16,8L16,12Z" fill="currentColor"/><path d="M8,16L8,12L4,12L4,16Z" fill="currentColor"/><path d="M12,12L12,8L8,8L8,12Z" fill="currentColor"/><path d="M16,8L16,4L12,4L12,8Z" fill="currentColor"/><path d="M8,8L8,4L4,4L4,8Z" fill="currentColor"/></svg>