<svg xmlns="http://www.w3.org/2000/svg" viewBox="0 0 24 24" fill="currentColor"><path d="M17,20.5L5.99,20.5C4.49,20.5,3.99,20,3.99,18.5L3.99,7.49C3.99,5.99,4.49,5.49,5.99,5.49L8.63,5.49C7.68,6.74,7.12,8.29,7.12,9.99L5.49,9.99L5.49,12.99L7.74,12.99C7.94,13.46,8.2,13.9,8.49,14.3L8.49,15.99L5.49,15.99L5.49,18.99L8.49,18.99L8.49,15.99L10.18,15.99C10.58,16.29,11.03,16.53,11.49,16.74L11.49,18.99L14.49,18.99L14.49,17.37C15.56,17.37,16.59,17.14,17.52,16.71L18.99,18.19L18.99,18.49C18.99,19.99,18.49,20.49,16.99,20.49ZM21.4,16.9L21.3,17C20.75,17.54,20.35,17.54,19.8,17L16.9,14.09L18.5,12.52L21.37,15.39C21.92,15.94,21.95,16.34,21.39,16.89ZM14.5,5.63C11.94,5.63,10.13,7.43,10.13,10C10.13,12.56,11.94,14.37,14.5,14.37C17.07,14.37,18.87,12.56,18.87,10C18.87,7.43,17.06,5.63,14.5,5.63ZM14.5,4.13C17.69,4.13,20.37,6.82,20.37,10C20.37,13.19,17.68,15.87,14.5,15.87C11.31,15.87,8.63,13.18,8.63,10C8.63,6.81,11.32,4.13,14.5,4.13ZM11.5,10C11.5,8.35,12.85,7,14.5,7L14.5,10ZM14.5,10L17.5,10C17.5,11.65,16.15,13,14.5,13Z"/></svg>