<svg xmlns="http://www.w3.org/2000/svg" viewBox="0 0 24 24" fill="currentColor"><path d="M7.49,20.5C5.99,20.5,5.49,20,5.49,18.5L5.49,7.49C5.49,5.99,5.99,5.49,7.49,5.49L18.5,5.49C20,5.49,20.5,5.99,20.5,7.49L20.5,18.5C20.5,20,20,20.5,18.5,20.5ZM7,19L10,19L10,16L7,16ZM13,19L16,19L16,16L19,16L19,13L16,13L16,16L13,16ZM7,13L10,13L10,10L13,10L13,7L10,7L10,10L7,10ZM16,10L19,10L19,7L16,7ZM11.25,14.73C11.61,15.08,11.95,15.1,12.32,14.73L12.98,14.07L13.67,14.73C14.05,15.08,14.37,15.08,14.72,14.73C15.08,14.37,15.08,14,14.72,13.65L14.05,13L14.72,12.32C15.08,11.97,15.08,11.63,14.72,11.27C14.37,10.92,14.03,10.9,13.65,11.27L12.98,11.95L12.32,11.3C11.97,10.95,11.63,10.95,11.27,11.3C10.92,11.65,10.92,12.05,11.27,12.37L11.93,12.99L11.25,13.67C10.9,14.02,10.9,14.37,11.25,14.72Z"/></svg>