<svg xmlns="http://www.w3.org/2000/svg" viewBox="0 0 24 24"><path d="M12,22.5C6.23,22.5,1.5,17.77,1.5,12C1.5,6.23,6.23,1.5,12,1.5C17.77,1.5,22.5,6.23,22.5,12C22.5,17.77,17.77,22.5,12,22.5Z" fill="currentColor"/><path d="M12,3.5C7.33,3.5,3.5,7.33,3.5,12C3.5,16.67,7.33,20.5,12,20.5C16.67,20.5,20.5,16.67,20.5,12C20.5,7.33,16.67,3.5,12,3.5Z" fill="currentColor"/><path d="M14.9,11.27L10.3,8.17C9.67,7.77,9.3,7.94,9.3,8.7L9.3,15.3C9.3,16.03,9.67,16.23,10.3,15.83L14.9,12.73C15.67,12.2,15.67,11.8,14.9,11.26Z" fill="currentColor"/></svg>