<svg xmlns="http://www.w3.org/2000/svg" viewBox="0 0 24 24"><path d="M22.5,12C22.5,6.2,17.8,1.5,12,1.5C6.2,1.5,1.5,6.2,1.5,12C1.5,17.8,6.2,22.5,12,22.5C17.8,22.5,22.5,17.8,22.5,12Z" fill="currentColor"/><path d="M5.17,12C5.17,8.27,8.27,5.17,12,5.17C15.73,5.17,18.83,8.27,18.83,12C18.83,15.73,15.73,18.83,12,18.83C8.27,18.83,5.17,15.73,5.17,12Z" fill="currentColor"/><path d="M15.17,12C15.17,10.27,13.74,8.83,12,8.83C10.27,8.83,8.83,10.26,8.83,12C8.83,13.73,10.26,15.17,12,15.17C13.73,15.17,15.17,13.74,15.17,12Z" fill="currentColor"/></svg>