<svg xmlns="http://www.w3.org/2000/svg" viewBox="0 0 24 24"><path d="M1.5,12C1.5,6.2,6.2,1.5,12,1.5C17.8,1.5,22.5,6.2,22.5,12C22.5,17.8,17.8,22.5,12,22.5C6.2,22.5,1.5,17.8,1.5,12Z" fill="currentColor"/><path d="M13.83,17.03C13.83,15.9,13.13,15.16,12.03,15.16C10.9,15.16,10.16,15.89,10.16,17.03C10.16,18.13,10.89,18.83,12.03,18.83C13.13,18.83,13.83,18.13,13.83,17.03Z" fill="currentColor"/><path d="M10.47,12.04C10.54,12.74,10.84,13.01,11.54,13.01L12.44,13.01C13.14,13.01,13.44,12.74,13.51,12.04L14.11,7.07C14.28,5.57,13.78,5,12.34,5L11.67,5C10.24,5,9.74,5.57,9.9,7.07Z" fill="currentColor"/></svg>