<svg xmlns="http://www.w3.org/2000/svg" viewBox="0 0 24 24" fill="currentColor"><path d="M5.13,13C5.13,8.67,8.67,5.13,13,5.13C17.33,5.13,20.88,8.67,20.88,13C20.88,17.33,17.33,20.88,13,20.88C8.67,20.88,5.13,17.33,5.13,13ZM19.38,13C19.38,9.5,16.5,6.63,13,6.63C9.5,6.63,6.63,9.5,6.63,13C6.63,16.5,9.5,19.38,13,19.38C16.5,19.38,19.38,16.5,19.38,13ZM10.23,16.6C10.1,17.07,10.28,17.2,10.68,16.92L13,15.27L15.3,16.9C15.7,17.2,15.88,17.07,15.75,16.6L15.06,13.83L17.16,12.23C17.53,11.91,17.48,11.7,16.98,11.68L14.26,11.46L13.29,8.98C13.08,8.51,12.89,8.51,12.71,8.98L11.79,11.46L9.01,11.68C8.51,11.7,8.46,11.91,8.84,12.21L10.96,13.83Z"/></svg>