<svg xmlns="http://www.w3.org/2000/svg" viewBox="0 0 24 24" fill="currentColor"><path d="M5.13,13C5.13,8.67,8.67,5.13,13,5.13C17.33,5.13,20.88,8.67,20.88,13C20.88,17.33,17.33,20.88,13,20.88C8.67,20.88,5.13,17.33,5.13,13ZM19.38,13C19.38,9.5,16.5,6.63,13,6.63C9.5,6.63,6.63,9.5,6.63,13C6.63,16.5,9.5,19.38,13,19.38C16.5,19.38,19.38,16.5,19.38,13ZM13.75,8.45L16.85,11.54C17.17,11.87,17.17,12.22,16.85,12.54L16.77,12.59C16.45,12.92,16.1,12.92,15.77,12.59L13,9.8L10.22,12.62C9.9,12.95,9.55,12.95,9.23,12.62L9.15,12.55C8.83,12.23,8.83,11.87,9.15,11.55L12.25,8.45C12.8,7.91,13.2,7.91,13.75,8.45ZM13.75,17C13.75,17.32,13.5,17.5,13.05,17.5L12.96,17.5C12.5,17.5,12.26,17.33,12.26,17L12.26,9.77L13.76,9.77Z"/></svg>