<svg xmlns="http://www.w3.org/2000/svg" viewBox="0 0 24 24"><path d="M12,22.5C6.23,22.5,1.5,17.77,1.5,12C1.5,6.23,6.23,1.5,12,1.5C17.77,1.5,22.5,6.23,22.5,12C22.5,17.77,17.77,22.5,12,22.5Z" fill="currentColor"/><path d="M12,3.5C7.33,3.5,3.5,7.33,3.5,12C3.5,16.67,7.33,20.5,12,20.5C16.67,20.5,20.5,16.67,20.5,12C20.5,7.33,16.67,3.5,12,3.5Z" fill="currentColor"/><path d="M16.16,12C16.99,12,17.16,12.37,16.63,13.03L12.93,17.4C12.26,18.2,11.73,18.2,11.06,17.4L7.36,13.03C6.83,12.36,6.99,12,7.83,12Z" fill="currentColor"/><path d="M11.93,6L12.06,6C13.09,6,13.49,6.4,13.49,7.43L13.49,13.33L10.49,13.33L10.49,7.43C10.49,6.4,10.89,6,11.92,6Z" fill="currentColor"/></svg>