<svg xmlns="http://www.w3.org/2000/svg" viewBox="0 0 24 24" fill="currentColor"><path d="M18.5,15.55L14.32,11.93C13.12,10.88,11.92,11.23,11.42,12.1C10.91,12.98,11.27,14.1,12.64,14.63L17.84,16.65C18.14,16.75,18.41,16.67,18.56,16.41L18.62,16.31C18.77,16.03,18.71,15.76,18.49,15.56ZM11.5,18.29C11.5,18.75,11.75,18.99,12.2,18.99L13.79,18.99C14.25,18.99,14.49,18.75,14.49,18.29L14.49,18.2C14.49,17.75,14.25,17.5,13.79,17.5L12.2,17.5C11.75,17.5,11.5,17.75,11.5,18.2ZM5.13,13C5.13,8.65,8.65,5.13,13,5.13C17.35,5.13,20.88,8.65,20.88,13C20.88,17.35,17.35,20.88,13,20.88C8.65,20.88,5.13,17.35,5.13,13Z"/></svg>