<svg xmlns="http://www.w3.org/2000/svg" viewBox="0 0 24 24"><path d="M12,20.5C14,20.5,15.83,19.83,17.28,18.69L13.45,14.86L14.86,13.45L18.69,17.28C19.83,15.84,20.5,14.01,20.5,12C20.5,10.76,20.24,9.58,19.77,8.53L21.24,7.06C22.04,8.54,22.49,10.22,22.49,12.01C22.49,17.78,17.76,22.51,11.99,22.51C10.2,22.51,8.52,22.06,7.04,21.26L8.51,19.79C9.57,20.26,10.74,20.52,11.98,20.52Z" fill="currentColor"/><path d="M23.4,2.03L20.1,5.33L18.71,6.72L13.43,12L12.02,13.41L6.74,18.69L5.35,20.08L2.11,23.32L2.08,23.35C1.65,23.78,1.18,23.78,0.75,23.35L0.65,23.25C0.22,22.82,0.22,22.35,0.65,21.92L3.92,18.65C2.42,16.83,1.52,14.51,1.52,11.99C1.52,6.22,6.25,1.49,12.02,1.49C14.54,1.49,16.86,2.39,18.68,3.89L21.98,0.59C22.41,0.16,22.88,0.16,23.31,0.59L23.41,0.69C23.83,1.11,23.84,1.57,23.44,1.99C23.43,2,23.42,2.01,23.41,2.02Z" fill="currentColor"/><path d="M5.3,17.27L10.58,11.99L5.31,6.72C4.17,8.16,3.5,9.99,3.5,12C3.5,14,4.17,15.82,5.3,17.27Z" fill="currentColor"/><path d="M11.99,10.58L17.27,5.3C15.83,4.17,14,3.5,12,3.5C10,3.5,8.17,4.17,6.72,5.31Z" fill="currentColor"/></svg>