<svg xmlns="http://www.w3.org/2000/svg" viewBox="0 0 24 24" fill="currentColor"><path d="M9.29,19.94L10.41,18.82C11.2,19.18,12.08,19.38,13,19.38C16.5,19.38,19.38,16.5,19.38,13C19.38,12.08,19.17,11.2,18.82,10.4L19.94,9.29C20.54,10.4,20.88,11.66,20.88,13C20.88,17.33,17.33,20.88,13,20.88C11.66,20.88,10.4,20.54,9.29,19.94ZM19.07,8L18.01,9.06L9.07,18L8,19.07L5.57,21.5L5.55,21.52C5.23,21.84,4.88,21.84,4.55,21.52L4.48,21.45C4.16,21.12,4.16,20.77,4.48,20.45L6.93,18C5.81,16.63,5.13,14.89,5.13,13C5.13,8.67,8.68,5.13,13.01,5.13C14.9,5.13,16.64,5.8,18,6.93L20.48,4.45C20.8,4.13,21.15,4.13,21.47,4.45L21.55,4.53C21.87,4.84,21.87,5.19,21.57,5.5C21.56,5.51,21.56,5.52,21.55,5.52ZM6.63,13C6.63,14.48,7.13,15.84,8,16.93L16.94,7.99C15.85,7.14,14.48,6.62,13.01,6.62C9.5,6.62,6.63,9.49,6.63,12.99Z"/></svg>