<svg xmlns="http://www.w3.org/2000/svg" viewBox="0 0 24 24"><path d="M18.87,13L17.99,13C18.02,12.67,18.04,12.34,18.04,12C18.04,11.66,18.02,11.33,17.99,11L18.87,11C19.47,11,19.8,11.33,19.8,11.93L19.8,12.06C19.8,12.66,19.47,12.99,18.87,12.99Z" fill="currentColor"/><path d="M15.98,6C15.47,5.33,14.87,4.72,14.21,4.2C14.78,4.07,15.38,4,15.99,4C20.39,4,23.99,7.6,23.99,12C23.99,16.4,20.39,20,15.99,20C15.38,20,14.78,19.93,14.21,19.8C14.87,19.27,15.47,18.67,15.98,18C15.99,18,15.99,18,16,18C19.37,18,22,15.37,22,12C22,8.63,19.37,6,16,6C16,6,15.99,6,15.98,6Z" fill="currentColor"/><path d="M0,12C0,7.57,3.6,4,8,4C12.43,4,16.03,7.57,16.03,12C16.03,16.43,12.43,20,8,20C3.6,20,0,16.43,0,12Z" fill="currentColor"/><path d="M8.2,17.33C8.8,17.33,9.13,17,9.13,16.4L9.13,13L12.4,13C13,13,13.33,12.67,13.33,12.07L13.33,11.94C13.33,11.34,13,11.01,12.4,11.01L9.13,11.01L9.13,7.61C9.13,7.01,8.8,6.68,8.2,6.68L8.07,6.68C7.47,6.68,7.14,7.01,7.14,7.61L7.14,11.01L3.64,11.01C3.04,11.01,2.71,11.34,2.71,11.94L2.71,12.07C2.71,12.67,3.04,13,3.64,13L7.14,13L7.14,16.4C7.14,17,7.47,17.33,8.07,17.33Z" fill="currentColor"/></svg>