<svg xmlns="http://www.w3.org/2000/svg" viewBox="0 0 24 24"><path d="M22.5,12C22.5,17.77,17.77,22.5,12,22.5C6.23,22.5,1.5,17.77,1.5,12C1.5,6.23,6.23,1.5,12,1.5C17.77,1.5,22.5,6.23,22.5,12Z" fill="currentColor"/><path d="M3.5,12C3.5,16.67,7.33,20.5,12,20.5C16.67,20.5,20.5,16.67,20.5,12C20.5,7.33,16.67,3.5,12,3.5C7.33,3.5,3.5,7.33,3.5,12Z" fill="currentColor"/><path d="M11.27,9.1L8.17,13.7C7.77,14.33,7.97,14.7,8.7,14.7L15.3,14.7C16.07,14.7,16.23,14.33,15.83,13.7L12.73,9.1C12.2,8.33,11.8,8.33,11.26,9.1Z" fill="currentColor"/></svg>