<svg xmlns="http://www.w3.org/2000/svg" viewBox="0 0 24 24"><path d="M1.5,12C1.5,6.23,6.23,1.5,12,1.5C17.77,1.5,22.5,6.23,22.5,12C22.5,17.77,17.77,22.5,12,22.5C6.23,22.5,1.5,17.77,1.5,12Z" fill="currentColor"/><path d="M20.5,12C20.5,7.33,16.67,3.5,12,3.5C7.33,3.5,3.5,7.33,3.5,12C3.5,16.67,7.33,20.5,12,20.5C16.67,20.5,20.5,16.67,20.5,12Z" fill="currentColor"/><path d="M10.73,16.83C10.73,17.63,11.06,17.93,11.96,17.93L12.03,17.93C12.93,17.93,13.26,17.63,13.26,16.83L13.26,11.4C13.26,10.6,12.93,10.3,12.03,10.3L11.96,10.3C11.06,10.3,10.73,10.6,10.73,11.4Z" fill="currentColor"/><path d="M13.56,7.16C13.56,6.23,12.93,5.63,12.03,5.63C11.1,5.63,10.43,6.23,10.43,7.16C10.43,8.09,11.1,8.73,12.03,8.73C12.93,8.73,13.56,8.1,13.56,7.16Z" fill="currentColor"/></svg>