<svg xmlns="http://www.w3.org/2000/svg" viewBox="0 0 24 24"><path d="M11,22.5C5.23,22.5,0.5,17.77,0.5,12C0.5,6.23,5.23,1.5,11,1.5C13.8,1.5,16.36,2.62,18.25,4.42L16.3,6.22C14.91,4.94,13.05,4.16,11,4.16C6.67,4.16,3.17,7.66,3.17,11.99C3.17,16.32,6.67,19.82,11,19.82C15.33,19.82,18.83,16.32,18.83,11.99C18.83,10.85,18.59,9.77,18.15,8.79L20.25,7.05C21.04,8.53,21.5,10.21,21.5,11.99C21.5,17.76,16.77,22.49,11,22.49Z" fill="currentColor"/><path d="M11,17.17C8.17,17.17,5.83,14.84,5.83,12C5.83,9.17,8.16,6.83,11,6.83C12.26,6.83,13.42,7.29,14.32,8.05L12.46,9.77C12.04,9.49,11.53,9.33,10.99,9.33C9.52,9.33,8.32,10.53,8.32,12C8.32,13.47,9.52,14.67,10.99,14.67C12.26,14.67,13.34,13.76,13.6,12.56L15.97,10.6C16.1,11.04,16.16,11.51,16.16,12C16.16,14.83,13.83,17.17,10.99,17.17Z" fill="currentColor"/><path d="M11.37,12.37C10.64,13,9.94,12.24,10.57,11.54L16.17,5.54L17.34,1.57C17.87,-0.36,18.31,-0.36,18.97,1.5L19.67,3.5L21.67,4.57C23.4,5.54,23.34,5.94,21.37,6.27L17.54,6.87Z" fill="currentColor"/></svg>