<svg xmlns="http://www.w3.org/2000/svg" viewBox="0 0 24 24" fill="currentColor"><path d="M13,5.13C17.33,5.13,20.88,8.67,20.88,13C20.88,17.33,17.33,20.88,13,20.88C8.67,20.88,5.13,17.33,5.13,13C5.13,8.67,8.67,5.13,13,5.13ZM13,6.63C9.5,6.63,6.63,9.5,6.63,13C6.63,16.5,9.5,19.38,13,19.38C16.5,19.38,19.38,16.5,19.38,13C19.38,9.5,16.5,6.63,13,6.63ZM9.3,13.65L11.38,15.73C11.7,16.05,12.05,16.05,12.38,15.73L16.75,11.3C17.07,10.98,17.07,10.63,16.75,10.33L16.67,10.25C16.35,9.93,16,9.93,15.7,10.25L11.87,14.1L10.32,12.58C10,12.26,9.65,12.26,9.35,12.58L9.27,12.65C8.97,12.98,8.97,13.33,9.29,13.65Z"/></svg>