<svg xmlns="http://www.w3.org/2000/svg" viewBox="0 0 24 24" fill="currentColor"><path d="M13,5.13C17.33,5.13,20.88,8.67,20.88,13C20.88,17.33,17.33,20.88,13,20.88C8.67,20.88,5.13,17.33,5.13,13C5.13,8.67,8.67,5.13,13,5.13ZM13,6.63C9.5,6.63,6.63,9.5,6.63,13C6.63,16.5,9.5,19.38,13,19.38C16.5,19.38,19.38,16.5,19.38,13C19.38,9.5,16.5,6.63,13,6.63ZM9.9,16.11C10.26,16.46,10.63,16.48,10.95,16.16L13,14.06L15.08,16.13C15.4,16.46,15.77,16.43,16.13,16.08L16.13,16.08C16.45,15.76,16.43,15.38,16.07,15.03L14.05,13.01L16.1,11.01C16.45,10.65,16.47,10.28,16.15,9.96L16.1,9.9C15.75,9.55,15.37,9.53,15.05,9.85L13,11.95L10.92,9.87C10.6,9.55,10.23,9.57,9.87,9.93L9.87,9.93C9.55,10.25,9.57,10.62,9.93,10.98L11.95,13L9.9,15C9.55,15.36,9.53,15.73,9.85,16.05Z"/></svg>