<svg xmlns="http://www.w3.org/2000/svg" viewBox="0 0 24 24" fill="currentColor"><path d="M13,20.88C8.65,20.88,5.13,17.35,5.13,13C5.13,8.65,8.65,5.13,13,5.13C17.35,5.13,20.88,8.65,20.88,13C20.88,17.35,17.35,20.88,13,20.88ZM12.95,14.22C16.32,14.22,17.13,12.32,17.13,11.05C17.13,8.8,15.25,7.62,13.25,7.62C11.52,7.62,10.22,8.57,9.55,9.2C9.2,9.59,9.17,9.89,9.5,10.3L9.97,10.88C10.32,11.3,10.59,11.3,10.95,10.93C11.45,10.48,12.32,9.88,13.32,9.88C14.07,9.88,14.88,10.16,14.88,11.08C14.88,11.88,14.22,11.98,12.95,11.98L12.65,11.98C12.1,11.98,11.9,12.18,11.9,12.71L11.9,13.48C11.9,14.03,12.1,14.23,12.63,14.23ZM13,15.38C12.15,15.38,11.63,15.9,11.63,16.75C11.63,17.6,12.15,18.12,13,18.12C13.85,18.12,14.37,17.6,14.37,16.75C14.37,15.9,13.85,15.38,13,15.38Z"/></svg>