<svg xmlns="http://www.w3.org/2000/svg" viewBox="0 0 24 24" fill="currentColor"><path d="M13,20.88C8.65,20.88,5.13,17.35,5.13,13C5.13,8.65,8.65,5.13,13,5.13C17.35,5.13,20.88,8.65,20.88,13C20.88,17.35,17.35,20.88,13,20.88ZM17.5,13L17.6,12.9C18.14,12.35,18.14,11.95,17.6,11.4L14.42,8.23C13.35,7.16,12.65,7.16,11.57,8.23L8.4,11.4C7.85,11.95,7.85,12.35,8.4,12.9L8.5,13C9.05,13.55,9.45,13.52,10,12.98L11.87,11.1L11.87,17.5C11.87,18.05,12.17,18.25,12.95,18.25L13.04,18.25C13.82,18.25,14.12,18.05,14.12,17.5L14.12,11.1L15.99,12.98C16.54,13.52,16.95,13.56,17.49,13Z"/></svg>