<svg xmlns="http://www.w3.org/2000/svg" viewBox="0 0 24 24"><path d="M1.5,12C1.5,6.23,6.23,1.5,12,1.5C17.77,1.5,22.5,6.23,22.5,12C22.5,17.77,17.77,22.5,12,22.5C6.23,22.5,1.5,17.77,1.5,12Z" fill="currentColor"/><path d="M20.5,12C20.5,7.33,16.67,3.5,12,3.5C7.33,3.5,3.5,7.33,3.5,12C3.5,16.67,7.33,20.5,12,20.5C16.67,20.5,20.5,16.67,20.5,12Z" fill="currentColor"/><path d="M7.87,16.14C8.34,16.61,8.84,16.64,9.27,16.21L12,13.41L14.77,16.18C15.2,16.61,15.7,16.58,16.17,16.11L16.17,16.11C16.6,15.68,16.57,15.18,16.1,14.71L13.4,12.01L16.13,9.34C16.6,8.87,16.63,8.37,16.2,7.94L16.13,7.87C15.66,7.4,15.16,7.37,14.73,7.8L12,10.6L9.23,7.83C8.8,7.4,8.3,7.43,7.83,7.9L7.83,7.9C7.4,8.33,7.43,8.83,7.9,9.3L10.6,12L7.87,14.67C7.4,15.14,7.37,15.64,7.8,16.07Z" fill="currentColor"/></svg>