<svg xmlns="http://www.w3.org/2000/svg" viewBox="0 0 24 24"><path d="M14.61,5.82C14.61,5.82,14.6,5.81,14.6,5.81L4.81,15.6C5.72,16.28,6.81,16.73,8,16.9C8,16.93,8,16.97,8,17C8,17.66,8.07,18.31,8.2,18.93C3.64,18.52,0.03,14.66,0.03,10C0.03,5.07,4.06,1.03,9,1.03C11.83,1.03,14.36,2.36,16.01,4.42Z" fill="currentColor"/><path d="M2.03,10C2.03,11.58,2.53,13.03,3.39,14.19L13.18,4.4C12.02,3.54,10.58,3.04,8.99,3.04C5.09,3.04,2.02,6.1,2.02,10.01Z" fill="currentColor"/><path d="M22,17C22,14.23,19.77,12,17,12L17,10C20.83,10,24,13.17,24,17Z" fill="currentColor"/><path d="M12,17L10,17C10,15.3,10.62,13.73,11.65,12.51L13.15,13.81C12.43,14.68,12,15.79,12,17.01Z" fill="currentColor"/><path d="M13.47,11.44C13.14,11.14,13.14,10.87,13.47,10.57L16,8.34C16.63,7.77,17,7.94,17,8.77L17,13.24C17,14.07,16.63,14.24,16,13.67Z" fill="currentColor"/><path d="M24,17C24,20.83,20.83,24,17,24C13.17,24,10,20.83,10,17Z" fill="currentColor"/><path d="M12,17C12,19.77,14.23,22,17,22C19.77,22,22,19.77,22,17Z" fill="currentColor"/></svg>