<svg xmlns="http://www.w3.org/2000/svg" viewBox="0 0 24 24" fill="currentColor"><path d="M13,5.13C17.33,5.13,20.88,8.67,20.88,13C20.88,17.33,17.33,20.88,13,20.88C8.67,20.88,5.13,17.33,5.13,13C5.13,8.67,8.67,5.13,13,5.13ZM13,6.63C9.5,6.63,6.63,9.5,6.63,13C6.63,16.5,9.5,19.38,13,19.38C16.5,19.38,19.38,16.5,19.38,13C19.38,9.5,16.5,6.63,13,6.63ZM9.25,13.04C9.25,13.5,9.5,13.74,9.95,13.74L16.05,13.74C16.5,13.74,16.74,13.5,16.74,13.04L16.74,12.95C16.74,12.5,16.5,12.25,16.05,12.25L9.95,12.25C9.5,12.25,9.25,12.5,9.25,12.95Z"/></svg>