<svg xmlns="http://www.w3.org/2000/svg" viewBox="0 0 24 24" fill="currentColor"><path d="M13,20.88C8.67,20.88,5.13,17.33,5.13,13C5.13,8.67,8.67,5.13,13,5.13C17.33,5.13,20.88,8.67,20.88,13C20.88,17.33,17.33,20.88,13,20.88ZM13,6.63C9.5,6.63,6.63,9.5,6.63,13C6.63,16.5,9.5,19.38,13,19.38C16.5,19.38,19.38,16.5,19.38,13C19.38,9.5,16.5,6.63,13,6.63ZM15.17,12.45L11.72,10.13C11.25,9.83,10.97,9.96,10.97,10.52L10.97,15.47C10.97,16.02,11.25,16.17,11.72,15.87L15.17,13.55C15.75,13.15,15.75,12.85,15.17,12.44Z"/></svg>