<svg xmlns="http://www.w3.org/2000/svg" viewBox="0 0 24 24"><path d="M10.23,10.57L4.66,15.4C4.36,15.67,4.29,16.03,4.49,16.4L4.56,16.53C4.76,16.9,5.13,17,5.53,16.86L12.46,14.16C14.29,13.46,14.76,11.96,14.09,10.79C13.42,9.62,11.82,9.16,10.22,10.56Z" fill="currentColor"/><path d="M10,19.06C10,19.66,10.33,19.99,10.93,19.99L13.06,19.99C13.66,19.99,13.99,19.66,13.99,19.06L13.99,18.93C13.99,18.33,13.66,18,13.06,18L10.93,18C10.33,18,10,18.33,10,18.93Z" fill="currentColor"/><path d="M1.5,12C1.5,6.2,6.2,1.5,12,1.5C17.8,1.5,22.5,6.2,22.5,12C22.5,17.8,17.8,22.5,12,22.5C6.2,22.5,1.5,17.8,1.5,12Z" fill="currentColor"/></svg>