<svg xmlns="http://www.w3.org/2000/svg" viewBox="0 0 24 24" fill="currentColor"><path d="M5.13,13C5.13,8.67,8.67,5.13,13,5.13C17.33,5.13,20.88,8.67,20.88,13C20.88,17.33,17.33,20.88,13,20.88C8.67,20.88,5.13,17.33,5.13,13ZM19.38,13C19.38,9.5,16.5,6.63,13,6.63C9.5,6.63,6.63,9.5,6.63,13C6.63,16.5,9.5,19.38,13,19.38C16.5,19.38,19.38,16.5,19.38,13ZM11.3,17.03L11.35,17.08C11.67,17.4,12.03,17.4,12.35,17.08L15.92,13.5C16.25,13.18,16.25,12.83,15.92,12.51L12.35,8.93C12.02,8.61,11.67,8.61,11.35,8.93L11.27,9C10.95,9.33,10.95,9.68,11.27,10L14.3,13.02L11.3,16.02C10.98,16.34,10.98,16.7,11.3,17.02Z"/></svg>