<svg xmlns="http://www.w3.org/2000/svg" viewBox="0 0 24 24" fill="currentColor"><path d="M12.25,17.5C9.75,17.5,7.75,15.5,7.75,13C7.75,10.5,9.75,8.5,12.25,8.5ZM12.25,20.85C7.7,20.85,4.38,17.2,4.38,13C4.38,8.55,7.98,5.12,12.25,5.12C14.27,5.12,16.3,5.9,17.82,7.43L19.55,9.15L18.45,10.25L16.72,8.51C15.5,7.25,13.85,6.65,12.22,6.65C8.72,6.65,5.87,9.5,5.87,13.01C5.87,16.51,8.72,19.36,12.22,19.36C14.55,19.36,16.34,18.23,17.64,16.49C17.89,16.11,18.24,16.06,18.62,16.31L18.71,16.37C19.09,16.61,19.14,16.97,18.89,17.34C17.29,19.52,15.12,20.87,12.24,20.87ZM21.38,8.07L21.85,11.92C21.95,12.69,21.68,12.97,20.9,12.87L17.02,12.4C16.34,12.32,16.25,11.97,16.72,11.5L20.47,7.75C20.94,7.28,21.3,7.37,21.37,8.07Z"/></svg>