<svg xmlns="http://www.w3.org/2000/svg" viewBox="0 0 24 24"><path d="M1.5,12C1.5,6.23,6.23,1.5,12,1.5C17.77,1.5,22.5,6.23,22.5,12C22.5,17.77,17.77,22.5,12,22.5C6.23,22.5,1.5,17.77,1.5,12Z" fill="currentColor"/><path d="M20.5,12C20.5,7.33,16.67,3.5,12,3.5C7.33,3.5,3.5,7.33,3.5,12C3.5,16.67,7.33,20.5,12,20.5C16.67,20.5,20.5,16.67,20.5,12Z" fill="currentColor"/><path d="M10.27,7.73L10.94,12.33C11.04,12.9,11.31,13.13,11.91,13.13L12.11,13.13C12.71,13.13,12.98,12.9,13.08,12.33L13.75,7.73C13.95,6.5,13.52,6.03,12.25,6.03L11.82,6.03C10.55,6.03,10.12,6.5,10.29,7.73Z" fill="currentColor"/><path d="M13.57,16.23C13.57,15.3,12.97,14.7,12,14.7C11.03,14.7,10.43,15.3,10.43,16.23C10.43,17.2,11.03,17.8,12,17.8C12.97,17.8,13.57,17.2,13.57,16.23Z" fill="currentColor"/></svg>