<svg xmlns="http://www.w3.org/2000/svg" viewBox="0 0 24 24" fill="currentColor"><path d="M5.13,13C5.13,8.67,8.67,5.13,13,5.13C17.33,5.13,20.88,8.67,20.88,13C20.88,17.33,17.33,20.88,13,20.88C8.67,20.88,5.13,17.33,5.13,13ZM19.38,13C19.38,9.5,16.5,6.63,13,6.63C9.5,6.63,6.63,9.5,6.63,13C6.63,16.5,9.5,19.38,13,19.38C16.5,19.38,19.38,16.5,19.38,13ZM12.23,16.02C12.23,16.5,12.48,16.75,12.93,16.75L13,16.75C13.47,16.75,13.73,16.5,13.73,16.05L13.73,13.75L16.05,13.75C16.5,13.75,16.75,13.5,16.75,13.02L16.75,12.95C16.75,12.5,16.5,12.25,16.02,12.25L13.72,12.25L13.72,9.98C13.72,9.51,13.47,9.25,13.02,9.25L12.95,9.25C12.48,9.25,12.22,9.5,12.22,9.95L12.22,12.25L9.95,12.25C9.5,12.25,9.25,12.5,9.25,12.98L9.25,13.05C9.25,13.5,9.5,13.75,9.98,13.75L12.23,13.75Z"/></svg>