<svg xmlns="http://www.w3.org/2000/svg" viewBox="0 0 24 24" fill="currentColor"><path d="M13,5.13C17.33,5.13,20.88,8.67,20.88,13C20.88,17.33,17.33,20.88,13,20.88C8.67,20.88,5.13,17.33,5.13,13C5.13,8.67,8.67,5.13,13,5.13ZM13,7.13C9.75,7.13,7.13,9.75,7.13,13C7.13,16.25,9.75,18.87,13,18.87C16.25,18.87,18.87,16.25,18.87,13C18.87,9.75,16.25,7.13,13,7.13ZM13,9.12C15.12,9.12,16.88,10.87,16.88,13C16.88,15.12,15.13,16.88,13,16.88C10.88,16.88,9.12,15.13,9.12,13C9.12,10.88,10.87,9.12,13,9.12ZM13,11C11.9,11,11,11.9,11,13C11,14.1,11.9,15,13,15C14.1,15,15,14.1,15,13C15,11.9,14.1,11,13,11Z"/></svg>