<svg xmlns="http://www.w3.org/2000/svg" viewBox="0 0 24 24"><path d="M1.5,12C1.5,6.23,6.23,1.5,12,1.5C17.77,1.5,22.5,6.23,22.5,12C22.5,17.77,17.77,22.5,12,22.5C6.23,22.5,1.5,17.77,1.5,12Z" fill="currentColor"/><path d="M20.5,12C20.5,7.33,16.67,3.5,12,3.5C7.33,3.5,3.5,7.33,3.5,12C3.5,16.67,7.33,20.5,12,20.5C16.67,20.5,20.5,16.67,20.5,12Z" fill="currentColor"/><path d="M10.97,16.03C10.97,16.66,11.3,17,11.9,17L12,17C12.63,17,12.97,16.67,12.97,16.07L12.97,13L16.07,13C16.67,13,17,12.67,17,12.03L17,11.93C17,11.33,16.67,11,16.03,11L12.96,11L12.96,7.97C12.96,7.34,12.63,7,12.03,7L11.93,7C11.3,7,10.96,7.33,10.96,7.93L10.96,11L7.93,11C7.33,11,7,11.33,7,11.97L7,12.07C7,12.67,7.33,13,7.97,13L10.97,13Z" fill="currentColor"/></svg>