<svg xmlns="http://www.w3.org/2000/svg" viewBox="0 0 24 24"><path d="M15.75,18.64C14.45,21.04,11.92,22.67,9,22.67C4.77,22.67,1.33,19.24,1.33,15C1.33,12.08,2.96,9.55,5.36,8.25C5.34,8.5,5.33,8.75,5.33,9C5.33,9.52,5.37,10.03,5.45,10.53C4.15,11.55,3.33,13.15,3.33,15C3.33,18.2,5.79,20.67,9,20.67C10.85,20.67,12.45,19.85,13.47,18.55C13.97,18.63,14.48,18.67,15,18.67C15.25,18.67,15.5,18.66,15.75,18.64Z" fill="currentColor"/><path d="M20.67,9C20.67,5.8,18.21,3.33,15,3.33C11.8,3.33,9.33,5.79,9.33,9C9.33,12.2,11.79,14.67,15,14.67C18.2,14.67,20.67,12.21,20.67,9Z" fill="currentColor"/><path d="M7.33,9C7.33,4.77,10.76,1.33,15,1.33C19.23,1.33,22.67,4.76,22.67,9C22.67,13.23,19.24,16.67,15,16.67C10.77,16.67,7.33,13.24,7.33,9Z" fill="currentColor"/></svg>