<svg xmlns="http://www.w3.org/2000/svg" viewBox="0 0 24 24" fill="currentColor"><path d="M5.13,13C5.13,8.67,8.67,5.13,13,5.13C17.33,5.13,20.88,8.67,20.88,13C20.88,17.33,17.33,20.88,13,20.88C8.67,20.88,5.13,17.33,5.13,13ZM19.38,13C19.38,9.5,16.5,6.63,13,6.63C9.5,6.63,6.63,9.5,6.63,13C6.63,16.5,9.5,19.38,13,19.38C16.5,19.38,19.38,16.5,19.38,13ZM14.7,8.97L14.65,8.92C14.33,8.6,13.98,8.6,13.65,8.92L10.07,12.5C9.75,12.82,9.75,13.17,10.07,13.5L13.65,17.07C13.97,17.39,14.33,17.39,14.65,17.07L14.72,17C15.05,16.67,15.05,16.32,14.72,16L11.7,12.98L14.7,9.98C15.02,9.65,15.02,9.3,14.7,8.98Z"/></svg>