<svg xmlns="http://www.w3.org/2000/svg" viewBox="0 0 24 24" fill="currentColor"><path d="M13,5.13C17.35,5.13,20.88,8.65,20.88,13C20.88,17.35,17.35,20.88,13,20.88C8.65,20.88,5.13,17.35,5.13,13C5.13,8.65,8.65,5.13,13,5.13ZM13.02,15.37C12.18,15.37,11.62,15.92,11.62,16.77C11.62,17.6,12.17,18.12,13.02,18.12C13.85,18.12,14.37,17.6,14.37,16.77C14.37,15.92,13.85,15.37,13.02,15.37ZM11.85,13.03C11.91,13.55,12.13,13.76,12.66,13.76L13.33,13.76C13.86,13.76,14.08,13.55,14.13,13.03L14.58,9.3C14.71,8.18,14.34,7.75,13.26,7.75L12.75,7.75C11.68,7.75,11.31,8.18,11.43,9.3Z"/></svg>