<svg xmlns="http://www.w3.org/2000/svg" viewBox="0 0 24 24" fill="currentColor"><path d="M20.88,13C20.88,17.33,17.33,20.88,13,20.88C8.67,20.88,5.13,17.33,5.13,13C5.13,8.67,8.67,5.13,13,5.13C17.33,5.13,20.88,8.67,20.88,13ZM6.63,13C6.63,16.5,9.5,19.38,13,19.38C16.5,19.38,19.38,16.5,19.38,13C19.38,9.5,16.5,6.63,13,6.63C9.5,6.63,6.63,9.5,6.63,13ZM12,13.15C12,13.7,12.21,13.9,12.73,13.9L13.05,13.9C15.5,13.9,16.48,12.6,16.48,11.15C16.48,8.35,12.9,7.38,10.16,9.48C9.76,9.83,9.73,10.1,10.03,10.53L10.11,10.6C10.43,11.03,10.71,11.07,11.1,10.73C12.66,9.66,14.98,9.6,14.98,11.2C14.98,12.1,14.23,12.4,13.05,12.4L12.75,12.4C12.21,12.4,12,12.6,12,13.13ZM14,16.38C14,15.75,13.62,15.38,13,15.38C12.38,15.38,12,15.75,12,16.38C12,17,12.38,17.37,13,17.37C13.62,17.37,14,17,14,16.38Z"/></svg>