<svg xmlns="http://www.w3.org/2000/svg" viewBox="0 0 24 24" fill="currentColor"><path d="M13,20.75C9.25,20.75,5.25,19.72,5.25,18.1C5.25,17.4,5.97,16.81,7.09,16.37C8.85,16.96,11.05,17.2,13,17.2C14.96,17.2,17.16,16.96,18.92,16.37C20.04,16.81,20.75,17.4,20.75,18.1C20.75,19.73,16.76,20.75,13.01,20.75ZM10.72,15.54C7.79,15.22,5.26,14.29,5.25,12.98C5.27,12.29,6,11.7,7.13,11.26C8.89,11.84,11.06,12.06,13,12.06C14.93,12.06,17.11,11.83,18.87,11.26C20,11.7,20.74,12.28,20.75,12.98C20.73,14.29,18.2,15.22,15.28,15.54C15.32,15.54,15.36,15.55,15.39,15.56C14.61,15.65,13.8,15.7,13,15.7C12.2,15.7,11.39,15.66,10.61,15.56C10.65,15.55,10.68,15.55,10.72,15.54ZM13,10.35C13.73,10.35,14.46,10.39,15.17,10.46C14.46,10.54,13.73,10.58,13,10.58C12.27,10.58,11.54,10.54,10.82,10.46C11.54,10.39,12.27,10.35,13,10.35ZM13,5.25C16.75,5.25,20.75,6.28,20.75,7.9C20.75,9.55,16.75,10.58,13,10.58C9.25,10.58,5.25,9.55,5.25,7.9C5.25,6.27,9.25,5.25,13,5.25Z"/></svg>