<svg xmlns="http://www.w3.org/2000/svg" viewBox="0 0 24 24" fill="currentColor"><path d="M5.13,13C5.13,8.65,8.65,5.13,13,5.13C17.35,5.13,20.88,8.65,20.88,13C20.88,17.35,17.35,20.88,13,20.88C8.65,20.88,5.13,17.35,5.13,13ZM13,17.5L13.1,17.6C13.64,18.14,14.05,18.14,14.6,17.6L17.77,14.42C18.84,13.35,18.84,12.65,17.77,11.57L14.6,8.4C14.05,7.85,13.64,7.85,13.1,8.4L13,8.5C12.45,9.05,12.47,9.45,13.02,10L14.9,11.87L8.5,11.87C7.95,11.87,7.75,12.17,7.75,12.95L7.75,13.04C7.75,13.82,7.95,14.12,8.5,14.12L14.9,14.12L13.02,15.99C12.47,16.54,12.44,16.95,13,17.49Z"/></svg>