<svg xmlns="http://www.w3.org/2000/svg" viewBox="0 0 24 24" fill="currentColor"><path d="M13,20.88C11.66,20.88,10.4,20.54,9.29,19.94L10.78,18.45C11.46,18.72,12.21,18.88,13,18.88C16.25,18.88,18.87,16.25,18.87,13.01C18.87,12.22,18.72,11.47,18.44,10.79L19.93,9.29C20.53,10.4,20.87,11.66,20.87,13.01C20.87,17.33,17.32,20.88,12.99,20.88ZM12.4,16.83L16.83,12.4C16.86,12.6,16.88,12.8,16.88,13C16.88,15.12,15.13,16.88,13,16.88C12.8,16.88,12.6,16.86,12.4,16.83ZM21.55,5.52L19.07,8L17.66,9.41L16.22,10.85L14.85,12.22L12.23,14.84L10.86,16.21L9.42,17.65L8.01,19.06L5.58,21.49L5.56,21.51C5.24,21.84,4.88,21.84,4.56,21.51L4.49,21.44C4.16,21.12,4.16,20.76,4.49,20.44L6.94,17.99C5.81,16.62,5.14,14.88,5.14,12.99C5.14,8.67,8.69,5.12,13.01,5.12C14.9,5.12,16.64,5.79,18.01,6.92L20.48,4.44C20.81,4.12,21.16,4.12,21.48,4.44L21.56,4.52C21.87,4.83,21.88,5.18,21.58,5.49C21.57,5.5,21.56,5.51,21.56,5.52ZM7.13,13C7.13,14.35,7.58,15.6,8.34,16.59L9.78,15.14C9.37,14.53,9.13,13.79,9.13,13C9.13,10.88,10.88,9.12,13.01,9.12C13.79,9.12,14.54,9.36,15.15,9.77L16.59,8.33C15.6,7.57,14.36,7.12,13.01,7.12C9.76,7.12,7.13,9.75,7.13,12.99ZM11.16,13.77L13.77,11.16C13.53,11.06,13.28,11,13,11C11.9,11,11,11.9,11,13C11,13.27,11.05,13.53,11.16,13.77Z"/></svg>