<svg xmlns="http://www.w3.org/2000/svg" viewBox="0 0 24 24" fill="currentColor"><path d="M13,5.13C17.35,5.13,20.88,8.65,20.88,13C20.88,17.35,17.35,20.88,13,20.88C8.65,20.88,5.13,17.35,5.13,13C5.13,8.65,8.65,5.13,13,5.13ZM11.5,18.29C11.5,18.75,11.75,18.99,12.2,18.99L13.79,18.99C14.25,18.99,14.49,18.75,14.49,18.29L14.49,18.2C14.49,17.75,14.25,17.5,13.79,17.5L12.2,17.5C11.75,17.5,11.5,17.75,11.5,18.2ZM14.63,12.5L13.65,6.97C13.58,6.65,13.38,6.47,13.05,6.47L12.96,6.47C12.65,6.47,12.43,6.64,12.38,6.97L11.43,12.39C11.15,13.95,12.05,14.82,13.05,14.82C14.08,14.8,14.88,13.94,14.63,12.5Z"/></svg>