<svg xmlns="http://www.w3.org/2000/svg" viewBox="0 0 24 24" fill="currentColor"><path d="M15.81,17.98C14.84,19.78,12.94,21,10.75,21C7.58,21,5,18.43,5,15.25C5,13.06,6.22,11.15,8.02,10.19C8,10.38,8,10.56,8,10.75C8,14.69,11.3,18,15.25,18C15.44,18,15.63,18,15.81,17.98ZM16.39,16.39C16.02,16.46,15.64,16.5,15.25,16.5C12.08,16.5,9.5,13.93,9.5,10.75C9.5,10.36,9.54,9.98,9.61,9.61C9.98,9.54,10.36,9.5,10.75,9.5C13.92,9.5,16.5,12.07,16.5,15.25C16.5,15.64,16.46,16.02,16.39,16.39ZM9.5,10.75C9.5,7.58,12.07,5,15.25,5C18.42,5,21,7.57,21,10.75C21,13.92,18.43,16.5,15.25,16.5C12.08,16.5,9.5,13.93,9.5,10.75Z"/></svg>