<svg xmlns="http://www.w3.org/2000/svg" viewBox="0 0 24 24" fill="currentColor"><path d="M5.13,13C5.13,8.67,8.67,5.13,13,5.13C17.33,5.13,20.88,8.67,20.88,13C20.88,17.33,17.33,20.88,13,20.88C8.67,20.88,5.13,17.33,5.13,13ZM19.38,13C19.38,9.5,16.5,6.63,13,6.63C9.5,6.63,6.63,9.5,6.63,13C6.63,16.5,9.5,19.38,13,19.38C16.5,19.38,19.38,16.5,19.38,13ZM12.25,17.55L9.15,14.46C8.83,14.13,8.83,13.78,9.15,13.46L9.23,13.4C9.55,13.08,9.9,13.08,10.23,13.4L13,16.2L15.77,13.38C16.1,13.05,16.45,13.05,16.77,13.38L16.85,13.45C17.17,13.77,17.17,14.13,16.85,14.45L13.75,17.54C13.2,18.09,12.8,18.09,12.25,17.54ZM12.25,9C12.25,8.68,12.5,8.5,12.95,8.5L13.04,8.5C13.5,8.5,13.74,8.67,13.74,9L13.74,16.23L12.24,16.23Z"/></svg>