<svg xmlns="http://www.w3.org/2000/svg" viewBox="0 0 24 24"><path d="M12,1.5C17.77,1.5,22.5,6.23,22.5,12C22.5,17.77,17.77,22.5,12,22.5C6.23,22.5,1.5,17.77,1.5,12C1.5,6.23,6.23,1.5,12,1.5Z" fill="currentColor"/><path d="M12,20.5C16.67,20.5,20.5,16.67,20.5,12C20.5,7.33,16.67,3.5,12,3.5C7.33,3.5,3.5,7.33,3.5,12C3.5,16.67,7.33,20.5,12,20.5Z" fill="currentColor"/><path d="M9.1,12.73L13.7,15.83C14.33,16.23,14.7,16.03,14.7,15.3L14.7,8.7C14.7,7.93,14.33,7.77,13.7,8.17L9.1,11.27C8.33,11.8,8.33,12.2,9.1,12.74Z" fill="currentColor"/></svg>