<svg xmlns="http://www.w3.org/2000/svg" viewBox="0 0 24 24" fill="currentColor"><path d="M13,20.88C8.67,20.88,5.13,17.33,5.13,13C5.13,8.67,8.67,5.13,13,5.13C17.33,5.13,20.88,8.67,20.88,13C20.88,17.33,17.33,20.88,13,20.88ZM13,6.63C9.5,6.63,6.63,9.5,6.63,13C6.63,16.5,9.5,19.38,13,19.38C16.5,19.38,19.38,16.5,19.38,13C19.38,9.5,16.5,6.63,13,6.63ZM16.12,13C16.74,13,16.87,13.28,16.47,13.77L13.7,17.05C13.19,17.65,12.8,17.65,12.29,17.05L9.52,13.77C9.12,13.27,9.24,13,9.87,13ZM12.95,8.5L13.04,8.5C13.82,8.5,14.12,8.8,14.12,9.57L14.12,14L11.87,14L11.87,9.57C11.87,8.8,12.17,8.5,12.94,8.5Z"/></svg>