<svg xmlns="http://www.w3.org/2000/svg" viewBox="0 0 24 24" fill="currentColor"><path d="M13,5.13C17.33,5.13,20.88,8.67,20.88,13C20.88,17.33,17.33,20.88,13,20.88C8.67,20.88,5.13,17.33,5.13,13C5.13,8.67,8.67,5.13,13,5.13ZM13,6.63C9.5,6.63,6.63,9.5,6.63,13C6.63,16.5,9.5,19.38,13,19.38C16.5,19.38,19.38,16.5,19.38,13C19.38,9.5,16.5,6.63,13,6.63ZM17.03,14.7L17.08,14.65C17.4,14.33,17.4,13.98,17.08,13.65L13.5,10.07C13.18,9.75,12.83,9.75,12.51,10.07L8.93,13.65C8.61,13.97,8.61,14.33,8.93,14.65L9,14.72C9.33,15.05,9.68,15.05,10,14.72L13.02,11.7L16.02,14.7C16.34,15.02,16.7,15.02,17.02,14.7Z"/></svg>