<svg xmlns="http://www.w3.org/2000/svg" viewBox="0 0 24 24"><path d="M22.5,12C22.5,17.77,17.77,22.5,12,22.5C6.23,22.5,1.5,17.77,1.5,12C1.5,6.23,6.23,1.5,12,1.5C17.77,1.5,22.5,6.23,22.5,12Z" fill="currentColor"/><path d="M3.5,12C3.5,16.67,7.33,20.5,12,20.5C16.67,20.5,20.5,16.67,20.5,12C20.5,7.33,16.67,3.5,12,3.5C7.33,3.5,3.5,7.33,3.5,12Z" fill="currentColor"/><path d="M10.67,12.2C10.67,12.93,10.94,13.2,11.64,13.2L12.07,13.2C15.34,13.2,16.64,11.47,16.64,9.53C16.64,5.8,11.87,4.5,8.21,7.3C7.68,7.77,7.64,8.13,8.04,8.7L8.14,8.8C8.57,9.37,8.94,9.43,9.47,8.97C11.54,7.54,14.64,7.47,14.64,9.6C14.64,10.8,13.64,11.2,12.07,11.2L11.67,11.2C10.94,11.2,10.67,11.47,10.67,12.17Z" fill="currentColor"/><path d="M13.33,16.5C13.33,15.67,12.83,15.17,12,15.17C11.17,15.17,10.67,15.67,10.67,16.5C10.67,17.33,11.17,17.83,12,17.83C12.83,17.83,13.33,17.33,13.33,16.5Z" fill="currentColor"/></svg>