<svg xmlns="http://www.w3.org/2000/svg" viewBox="0 0 24 24"><path d="M1.5,12C1.5,6.23,6.23,1.5,12,1.5C17.77,1.5,22.5,6.23,22.5,12C22.5,17.77,17.77,22.5,12,22.5C6.23,22.5,1.5,17.77,1.5,12Z" fill="currentColor"/><path d="M20.5,12C20.5,7.33,16.67,3.5,12,3.5C7.33,3.5,3.5,7.33,3.5,12C3.5,16.67,7.33,20.5,12,20.5C16.67,20.5,20.5,16.67,20.5,12Z" fill="currentColor"/><path d="M13,5.93L17.13,10.06C17.56,10.49,17.56,10.96,17.13,11.39L17.03,11.46C16.6,11.89,16.13,11.89,15.7,11.46L12,7.73L8.3,11.5C7.87,11.93,7.4,11.93,6.97,11.5L6.87,11.4C6.44,10.97,6.44,10.5,6.87,10.07L11,5.94C11.73,5.21,12.27,5.21,13,5.94Z" fill="currentColor"/><path d="M13,17.33C13,17.76,12.67,18,12.07,18L11.94,18C11.34,18,11.01,17.77,11.01,17.33L11.01,7.7L13.01,7.7Z" fill="currentColor"/></svg>