<svg xmlns="http://www.w3.org/2000/svg" viewBox="0 0 24 24"><path d="M1.5,12C1.5,6.2,6.2,1.5,12,1.5C17.8,1.5,22.5,6.2,22.5,12C22.5,17.8,17.8,22.5,12,22.5C6.2,22.5,1.5,17.8,1.5,12Z" fill="currentColor"/><path d="M10,19.06C10,19.66,10.33,19.99,10.93,19.99L13.06,19.99C13.66,19.99,13.99,19.66,13.99,19.06L13.99,18.93C13.99,18.33,13.66,18,13.06,18L10.93,18C10.33,18,10,18.33,10,18.93Z" fill="currentColor"/><path d="M12.07,14.43C13.44,14.4,14.5,13.26,14.17,11.33L12.87,3.96C12.77,3.53,12.5,3.29,12.07,3.29L11.94,3.29C11.54,3.29,11.24,3.52,11.17,3.96L9.9,11.19C9.53,13.26,10.73,14.42,12.07,14.42Z" fill="currentColor"/></svg>