<svg xmlns="http://www.w3.org/2000/svg" viewBox="0 0 24 24" fill="currentColor"><path d="M20.88,13C20.88,17.33,17.33,20.88,13,20.88C8.67,20.88,5.13,17.33,5.13,13C5.13,8.67,8.67,5.13,13,5.13C17.33,5.13,20.88,8.67,20.88,13ZM19.38,13C19.38,9.5,16.5,6.63,13,6.63C9.5,6.63,6.63,9.5,6.63,13C6.63,16.5,9.5,19.38,13,19.38C16.5,19.38,19.38,16.5,19.38,13ZM9.88,13C9.26,13,9.13,12.72,9.53,12.23L12.3,8.95C12.8,8.35,13.2,8.35,13.71,8.95L16.48,12.23C16.88,12.73,16.76,13,16.13,13ZM13.05,17.5L12.96,17.5C12.18,17.5,11.88,17.2,11.88,16.43L11.88,12L14.13,12L14.13,16.43C14.13,17.2,13.83,17.5,13.06,17.5Z"/></svg>