<svg xmlns="http://www.w3.org/2000/svg" viewBox="0 0 24 24" fill="currentColor"><path d="M13,5.13C17.35,5.13,20.88,8.65,20.88,13C20.88,17.35,17.35,20.88,13,20.88C8.65,20.88,5.13,17.35,5.13,13C5.13,8.65,8.65,5.13,13,5.13ZM11.88,17.28C11.88,17.97,12.18,18.25,12.95,18.25L13.04,18.25C13.82,18.25,14.12,17.97,14.12,17.28L14.12,12.48C14.12,11.78,13.82,11.5,13.04,11.5L12.95,11.5C12.17,11.5,11.87,11.78,11.87,12.48ZM13.02,7.38C12.2,7.38,11.62,7.92,11.62,8.73C11.62,9.55,12.2,10.13,13.02,10.13C13.83,10.13,14.37,9.55,14.37,8.73C14.37,7.92,13.83,7.38,13.02,7.38Z"/></svg>