<svg xmlns="http://www.w3.org/2000/svg" viewBox="0 0 24 24"><path d="M1.5,12C1.5,6.23,6.23,1.5,12,1.5C17.77,1.5,22.5,6.23,22.5,12C22.5,17.77,17.77,22.5,12,22.5C6.23,22.5,1.5,17.77,1.5,12Z" fill="currentColor"/><path d="M20.5,12C20.5,7.33,16.67,3.5,12,3.5C7.33,3.5,3.5,7.33,3.5,12C3.5,16.67,7.33,20.5,12,20.5C16.67,20.5,20.5,16.67,20.5,12Z" fill="currentColor"/><path d="M11,18.07L6.87,13.94C6.44,13.51,6.44,13.04,6.87,12.61L6.97,12.54C7.4,12.11,7.87,12.11,8.3,12.54L12,16.27L15.7,12.5C16.13,12.07,16.6,12.07,17.03,12.5L17.13,12.6C17.56,13.03,17.56,13.5,17.13,13.93L13,18.06C12.27,18.79,11.73,18.79,11,18.06Z" fill="currentColor"/><path d="M11,6.67C11,6.24,11.33,6,11.93,6L12.06,6C12.66,6,12.99,6.23,12.99,6.67L12.99,16.3L10.99,16.3Z" fill="currentColor"/></svg>