<svg xmlns="http://www.w3.org/2000/svg" viewBox="0 0 24 24"><path d="M11,22.5C5.23,22.5,0.5,17.77,0.5,12C0.5,6.23,5.23,1.5,11,1.5C15.34,1.5,19.1,4.19,20.69,7.98L19.13,9.54C18.06,6.06,14.81,3.51,11,3.51C6.33,3.51,2.5,7.34,2.5,12.01C2.5,16.68,6.33,20.51,11,20.51C15.67,20.51,19.5,16.68,19.5,12.01L21.34,10.17C21.45,10.77,21.5,11.38,21.5,12.01C21.5,17.78,16.77,22.51,11,22.51Z" fill="currentColor"/><path d="M11.8,17.3C11.07,18.03,10.53,18,9.8,17.27L4.5,11.97C3.77,11.24,3.77,10.67,4.5,9.94L4.6,9.84C5.33,9.11,5.9,9.11,6.63,9.84L10.8,14.01L21.3,3.54C22.03,2.81,22.57,2.81,23.3,3.54L23.43,3.67C24.16,4.4,24.16,4.94,23.43,5.67Z" fill="currentColor"/></svg>