<svg xmlns="http://www.w3.org/2000/svg" viewBox="0 0 24 24" fill="currentColor"><path d="M5.13,13C5.13,8.67,8.67,5.13,13,5.13C17.33,5.13,20.88,8.67,20.88,13C20.88,17.33,17.33,20.88,13,20.88C8.67,20.88,5.13,17.33,5.13,13ZM19.38,13C19.38,9.5,16.5,6.63,13,6.63C9.5,6.63,6.63,9.5,6.63,13C6.63,16.5,9.5,19.38,13,19.38C16.5,19.38,19.38,16.5,19.38,13ZM12.55,16.85C12.23,17.17,11.88,17.17,11.55,16.85L8.46,13.75C7.91,13.2,7.91,12.8,8.46,12.25L11.55,9.15C11.88,8.83,12.23,8.83,12.55,9.15L12.63,9.23C12.95,9.55,12.95,9.9,12.63,10.23L9.8,13L12.6,15.78C12.92,16.1,12.92,16.45,12.6,16.77ZM17.5,12.95L17.5,13.04C17.5,13.5,17.33,13.74,17,13.74L9.77,13.74L9.77,12.24L17,12.24C17.32,12.24,17.5,12.49,17.5,12.94Z"/></svg>