<svg xmlns="http://www.w3.org/2000/svg" viewBox="0 0 24 24"><path d="M1.5,12C1.5,6.23,6.23,1.5,12,1.5C17.77,1.5,22.5,6.23,22.5,12C22.5,17.77,17.77,22.5,12,22.5C6.23,22.5,1.5,17.77,1.5,12Z" fill="currentColor"/><path d="M20.5,12C20.5,7.33,16.67,3.5,12,3.5C7.33,3.5,3.5,7.33,3.5,12C3.5,16.67,7.33,20.5,12,20.5C16.67,20.5,20.5,16.67,20.5,12Z" fill="currentColor"/><path d="M7,12.06C7,12.66,7.33,12.99,7.93,12.99L16.06,12.99C16.66,12.99,16.99,12.66,16.99,12.06L16.99,11.93C16.99,11.33,16.66,11,16.06,11L7.93,11C7.33,11,7,11.33,7,11.93Z" fill="currentColor"/></svg>