<svg xmlns="http://www.w3.org/2000/svg" viewBox="0 0 24 24" fill="currentColor"><path d="M12.25,20.88C7.92,20.88,4.38,17.33,4.38,13C4.38,8.67,7.92,5.13,12.25,5.13C14.35,5.13,16.27,5.96,17.69,7.31L16.23,8.67C15.18,7.71,13.79,7.12,12.25,7.12C9,7.12,6.38,9.75,6.38,12.99C6.38,16.24,9,18.87,12.25,18.87C15.5,18.87,18.12,16.24,18.12,12.99C18.12,12.14,17.94,11.33,17.61,10.59L19.19,9.29C19.78,10.4,20.13,11.66,20.13,12.99C20.13,17.32,16.58,20.87,12.25,20.87ZM12.25,16.88C10.13,16.88,8.37,15.13,8.37,13C8.37,10.88,10.12,9.12,12.25,9.12C13.2,9.12,14.07,9.47,14.74,10.04L13.35,11.33C13.03,11.12,12.65,11,12.24,11C11.14,11,10.24,11.9,10.24,13C10.24,14.1,11.14,15,12.24,15C13.2,15,14,14.32,14.2,13.42L15.98,11.95C16.08,12.28,16.12,12.63,16.12,13C16.12,15.12,14.37,16.88,12.24,16.88ZM12.53,13.28C11.98,13.75,11.46,13.18,11.93,12.66L16.13,8.16L17,5.18C17.4,3.73,17.73,3.73,18.23,5.13L18.75,6.63L20.25,7.43C21.55,8.16,21.5,8.46,20.03,8.7L17.15,9.15Z"/></svg>