<svg xmlns="http://www.w3.org/2000/svg" viewBox="0 0 24 24" fill="currentColor"><path d="M16.58,15.53C16.06,15.82,15.43,15.81,13.94,15.26L15.05,14.15C15.53,14.56,15.96,14.73,16.25,14.58C16.61,14.37,16.61,13.69,16.34,12.85L16.98,12.21C17.5,13.42,17.77,14.85,16.57,15.52ZM10.86,16.01L10.83,16.02C10.62,16.12,10.4,16.12,10.17,16.02C9.42,15.5,9,14.77,8.95,13.85C8.95,13.6,9.08,13.4,9.27,13.3L10.38,12.65C11.05,12.25,11.3,11.88,11.43,11.1C11.7,9.42,12.05,8.87,12.53,8.57C14.2,7.59,15.69,9.83,16.26,10.79L15.69,11.36C14.84,9.9,13.77,9,13.23,9.32C12.68,9.62,12.93,11.04,13.75,12.49C13.85,12.66,13.95,12.83,14.06,12.98L10.91,16.13ZM11.53,17.67L12.61,16.59C12.71,16.76,12.82,16.92,12.92,17.07C13.3,17.6,13.25,17.77,12.72,18.07L12.52,18.17C12,18.47,11.82,18.41,11.6,17.84ZM13.7,11.35C14.2,11.22,14.62,11.25,14.92,11.78C14.96,11.86,15,11.94,15.02,12.02L14.42,12.63C14.16,12.21,13.95,11.82,13.69,11.35ZM19.38,13C19.38,9.45,16.55,6.63,13,6.63C9.45,6.63,6.63,9.45,6.63,13C6.63,16.55,9.45,19.38,13,19.38C16.55,19.38,19.38,16.55,19.38,13ZM5.13,13C5.13,8.67,8.67,5.13,13,5.13C17.33,5.13,20.88,8.67,20.88,13C20.88,17.33,17.33,20.88,13,20.88C8.67,20.88,5.13,17.33,5.13,13ZM7.55,17.39L17.42,7.52L18.48,8.57L8.6,18.45Z"/></svg>