<svg xmlns="http://www.w3.org/2000/svg" viewBox="0 0 24 24" fill="currentColor"><path d="M5.13,13C5.13,8.67,8.67,5.13,13,5.13C17.33,5.13,20.88,8.67,20.88,13C20.88,17.33,17.33,20.88,13,20.88C8.67,20.88,5.13,17.33,5.13,13ZM19.38,13C19.38,9.5,16.5,6.63,13,6.63C9.5,6.63,6.63,9.5,6.63,13C6.63,16.5,9.5,19.38,13,19.38C16.5,19.38,19.38,16.5,19.38,13ZM13.4,9.23L13.45,9.15C13.77,8.83,14.13,8.83,14.45,9.15L17.54,12.25C18.09,12.8,18.09,13.2,17.54,13.75L14.45,16.85C14.13,17.17,13.77,17.17,13.45,16.85L13.38,16.77C13.05,16.45,13.05,16.1,13.38,15.77L16.2,13L13.4,10.22C13.08,9.9,13.08,9.55,13.4,9.23ZM8.5,13.05L8.5,12.96C8.5,12.5,8.67,12.26,9,12.26L16.23,12.26L16.23,13.76L9,13.76C8.68,13.76,8.5,13.51,8.5,13.06Z"/></svg>