<svg xmlns="http://www.w3.org/2000/svg" viewBox="0 0 24 24" fill="currentColor"><path d="M14.33,14.07L18.5,10.45C18.73,10.25,18.78,9.98,18.63,9.7L18.58,9.6C18.43,9.32,18.15,9.25,17.85,9.35L12.66,11.38C11.28,11.9,10.93,13.03,11.43,13.91C11.94,14.79,13.14,15.13,14.34,14.08ZM11.5,18.29C11.5,18.75,11.75,18.99,12.2,18.99L13.79,18.99C14.25,18.99,14.49,18.75,14.49,18.29L14.49,18.2C14.49,17.75,14.25,17.5,13.79,17.5L12.2,17.5C11.75,17.5,11.5,17.75,11.5,18.2ZM5.13,13C5.13,8.65,8.65,5.13,13,5.13C17.35,5.13,20.88,8.65,20.88,13C20.88,17.35,17.35,20.88,13,20.88C8.65,20.88,5.13,17.35,5.13,13Z"/></svg>