<svg xmlns="http://www.w3.org/2000/svg" viewBox="0 0 24 24" fill="currentColor"><path d="M17.31,10.02C17.13,10.01,16.94,10,16.75,10C16.42,10,16.1,10.02,15.78,10.07C15.61,9.44,15.33,8.86,14.95,8.36L7.61,15.7C8.29,16.21,9.11,16.55,10,16.68C10,16.7,10,16.73,10,16.75C10,17.25,10.05,17.73,10.15,18.2C6.73,17.89,4.02,15,4.02,11.5C4.02,7.8,7.04,4.77,10.75,4.77C13.94,4.77,16.63,7.02,17.31,10.02ZM5.52,11.5C5.52,12.69,5.9,13.77,6.54,14.64L13.88,7.3C13.02,6.66,11.94,6.28,10.74,6.28C7.82,6.28,5.51,8.58,5.51,11.51ZM16.75,11.52C19.62,11.52,21.98,13.87,21.98,16.75C21.98,19.6,19.63,21.98,16.75,21.98C13.9,21.98,11.52,19.6,11.52,16.75C11.52,13.88,13.9,11.52,16.75,11.52ZM16.13,16.93C16.18,17.28,16.33,17.4,16.71,17.4L16.8,17.4C17.18,17.4,17.33,17.27,17.38,16.93L17.75,14.25C17.85,13.56,17.63,13.28,16.88,13.28L16.63,13.28C15.88,13.28,15.66,13.56,15.75,14.25ZM16.75,18.33C16.2,18.33,15.85,18.68,15.85,19.23C15.85,19.77,16.2,20.13,16.75,20.13C17.3,20.13,17.65,19.77,17.65,19.23C17.65,18.68,17.3,18.33,16.75,18.33Z"/></svg>