<svg xmlns="http://www.w3.org/2000/svg" viewBox="0 0 24 24"><path d="M1.5,12C1.5,6.23,6.23,1.5,12,1.5C17.77,1.5,22.5,6.23,22.5,12C22.5,17.77,17.77,22.5,12,22.5C6.23,22.5,1.5,17.77,1.5,12Z" fill="currentColor"/><path d="M20.5,12C20.5,7.33,16.67,3.5,12,3.5C7.33,3.5,3.5,7.33,3.5,12C3.5,16.67,7.33,20.5,12,20.5C16.67,20.5,20.5,16.67,20.5,12Z" fill="currentColor"/><path d="M12,16.16C12,16.99,11.63,17.16,10.97,16.63L6.6,12.93C5.8,12.26,5.8,11.73,6.6,11.06L10.97,7.36C11.64,6.83,12,6.99,12,7.83Z" fill="currentColor"/><path d="M18,11.93L18,12.06C18,13.09,17.6,13.49,16.57,13.49L10.67,13.49L10.67,10.49L16.57,10.49C17.6,10.49,18,10.89,18,11.92Z" fill="currentColor"/></svg>