<svg xmlns="http://www.w3.org/2000/svg" viewBox="0 0 24 24" fill="currentColor"><path d="M13,5.13C17.35,5.13,20.88,8.65,20.88,13C20.88,17.35,17.35,20.88,13,20.88C8.65,20.88,5.13,17.35,5.13,13C5.13,8.65,8.65,5.13,13,5.13ZM9.1,16.83C9.7,17.43,10.15,17.45,10.7,16.9L13,14.6L15.3,16.9C15.85,17.45,16.3,17.4,16.9,16.8L16.9,16.8C17.45,16.26,17.4,15.81,16.8,15.21L14.61,13.01L16.83,10.81C17.43,10.21,17.48,9.76,16.93,9.21L16.91,9.19C16.31,8.59,15.86,8.57,15.31,9.12L13.01,11.42L10.7,9.12C10.16,8.57,9.71,8.61,9.11,9.21L9.11,9.21C8.56,9.76,8.6,10.21,9.21,10.81L11.4,13.01L9.17,15.21C8.57,15.81,8.52,16.26,9.08,16.8Z"/></svg>