<svg xmlns="http://www.w3.org/2000/svg" viewBox="0 0 24 24"><path d="M12,1.5C17.77,1.5,22.5,6.23,22.5,12C22.5,17.77,17.77,22.5,12,22.5C6.23,22.5,1.5,17.77,1.5,12C1.5,6.23,6.23,1.5,12,1.5Z" fill="currentColor"/><path d="M12,20.5C16.67,20.5,20.5,16.67,20.5,12C20.5,7.33,16.67,3.5,12,3.5C7.33,3.5,3.5,7.33,3.5,12C3.5,16.67,7.33,20.5,12,20.5Z" fill="currentColor"/><path d="M7.84,12C7.01,12,6.84,11.63,7.37,10.97L11.07,6.6C11.74,5.8,12.27,5.8,12.94,6.6L16.64,10.97C17.17,11.64,17.01,12,16.17,12Z" fill="currentColor"/><path d="M12.07,18L11.94,18C10.91,18,10.51,17.6,10.51,16.57L10.51,10.67L13.51,10.67L13.51,16.57C13.51,17.6,13.11,18,12.08,18Z" fill="currentColor"/></svg>