<svg xmlns="http://www.w3.org/2000/svg" viewBox="0 0 24 24" fill="currentColor"><path d="M20.88,13C20.88,17.33,17.33,20.88,13,20.88C8.67,20.88,5.13,17.33,5.13,13C5.13,8.67,8.67,5.13,13,5.13C17.33,5.13,20.88,8.67,20.88,13ZM19.38,13C19.38,9.5,16.5,6.63,13,6.63C9.5,6.63,6.63,9.5,6.63,13C6.63,16.5,9.5,19.38,13,19.38C16.5,19.38,19.38,16.5,19.38,13ZM10.82,13.55L14.27,15.87C14.75,16.17,15.02,16.02,15.02,15.48L15.02,10.53C15.02,9.95,14.75,9.83,14.27,10.13L10.82,12.45C10.25,12.85,10.25,13.15,10.82,13.56Z"/></svg>