<svg xmlns="http://www.w3.org/2000/svg" viewBox="0 0 24 24"><path d="M1.5,12C1.5,6.23,6.23,1.5,12,1.5C17.77,1.5,22.5,6.23,22.5,12C22.5,17.77,17.77,22.5,12,22.5C6.23,22.5,1.5,17.77,1.5,12Z" fill="currentColor"/><path d="M20.5,12C20.5,7.33,16.67,3.5,12,3.5C7.33,3.5,3.5,7.33,3.5,12C3.5,16.67,7.33,20.5,12,20.5C16.67,20.5,20.5,16.67,20.5,12Z" fill="currentColor"/><path d="M17.37,14.27L17.44,14.2C17.87,13.77,17.87,13.3,17.44,12.87L12.67,8.1C12.24,7.67,11.77,7.67,11.34,8.1L6.57,12.87C6.14,13.3,6.14,13.77,6.57,14.2L6.67,14.3C7.1,14.73,7.57,14.73,8,14.3L12.03,10.27L16.03,14.27C16.46,14.7,16.93,14.7,17.36,14.27Z" fill="currentColor"/></svg>