<svg xmlns="http://www.w3.org/2000/svg" viewBox="0 0 24 24"><path d="M1.5,12C1.5,6.23,6.23,1.5,12,1.5C17.77,1.5,22.5,6.23,22.5,12C22.5,17.77,17.77,22.5,12,22.5C6.23,22.5,1.5,17.77,1.5,12Z" fill="currentColor"/><path d="M20.5,12C20.5,7.33,16.67,3.5,12,3.5C7.33,3.5,3.5,7.33,3.5,12C3.5,16.67,7.33,20.5,12,20.5C16.67,20.5,20.5,16.67,20.5,12Z" fill="currentColor"/><path d="M8.3,16.8C8.13,17.43,8.37,17.6,8.9,17.23L12,15.03L15.07,17.2C15.6,17.6,15.84,17.43,15.67,16.8L14.74,13.1L17.54,10.97C18.04,10.54,17.97,10.27,17.31,10.24L13.68,9.94L12.38,6.64C12.11,6.01,11.85,6.01,11.61,6.64L10.38,9.94L6.68,10.24C6.01,10.27,5.95,10.54,6.45,10.94L9.28,13.11Z" fill="currentColor"/></svg>