<svg xmlns="http://www.w3.org/2000/svg" viewBox="0 0 24 24" fill="currentColor"><path d="M18.15,13.75L17.49,13.75C17.52,13.5,17.53,13.25,17.53,13C17.53,12.75,17.52,12.5,17.49,12.25L18.15,12.25C18.6,12.25,18.85,12.5,18.85,12.95L18.85,13.04C18.85,13.5,18.6,13.74,18.15,13.74ZM15.98,8.5C15.6,8,15.15,7.54,14.66,7.15C15.09,7.05,15.54,7,15.99,7C19.29,7,21.99,9.7,21.99,13C21.99,16.3,19.29,19,15.99,19C15.54,19,15.09,18.95,14.66,18.85C15.15,18.45,15.6,18,15.98,17.5C15.98,17.5,15.99,17.5,16,17.5C18.53,17.5,20.5,15.53,20.5,13C20.5,10.47,18.53,8.5,16,8.5C16,8.5,15.99,8.5,15.98,8.5ZM4,13C4,9.68,6.7,7,10,7C13.32,7,16.02,9.68,16.02,13C16.02,16.32,13.32,19,10,19C6.7,19,4,16.32,4,13ZM10.15,17C10.6,17,10.85,16.75,10.85,16.3L10.85,13.75L13.3,13.75C13.75,13.75,14,13.5,14,13.05L14,12.96C14,12.5,13.75,12.26,13.3,12.26L10.85,12.26L10.85,9.71C10.85,9.26,10.6,9.01,10.15,9.01L10.05,9.01C9.6,9.01,9.35,9.26,9.35,9.71L9.35,12.26L6.73,12.26C6.28,12.26,6.03,12.5,6.03,12.96L6.03,13.05C6.03,13.5,6.28,13.75,6.73,13.75L9.35,13.75L9.35,16.3C9.35,16.75,9.6,17,10.05,17Z"/></svg>