<svg xmlns="http://www.w3.org/2000/svg" viewBox="0 0 24 24"><path d="M12,22.5C10.21,22.5,8.53,22.05,7.05,21.25L9.04,19.26C9.95,19.63,10.95,19.84,12,19.84C16.33,19.84,19.83,16.34,19.83,12.01C19.83,10.96,19.63,9.96,19.25,9.05L21.24,7.06C22.04,8.54,22.49,10.22,22.49,12.01C22.49,17.78,17.76,22.51,11.99,22.51Z" fill="currentColor"/><path d="M11.2,17.11L17.11,11.2C17.15,11.46,17.17,11.73,17.17,12C17.17,14.83,14.84,17.17,12,17.17C11.73,17.17,11.46,17.15,11.2,17.11Z" fill="currentColor"/><path d="M23.4,2.03L20.1,5.33L18.22,7.21L16.3,9.13L14.47,10.96L10.98,14.45L9.15,16.28L7.23,18.2L5.35,20.08L2.11,23.32L2.08,23.35C1.65,23.78,1.18,23.78,0.75,23.35L0.65,23.25C0.22,22.82,0.22,22.35,0.65,21.92L3.92,18.65C2.42,16.83,1.52,14.51,1.52,11.99C1.52,6.22,6.25,1.49,12.02,1.49C14.54,1.49,16.86,2.39,18.68,3.89L21.98,0.59C22.41,0.16,22.88,0.16,23.31,0.59L23.41,0.69C23.83,1.11,23.84,1.57,23.44,1.99C23.43,2,23.42,2.01,23.41,2.02Z" fill="currentColor"/><path d="M4.17,12C4.17,13.8,4.77,15.46,5.79,16.78L7.71,14.86C7.16,14.04,6.84,13.05,6.84,12C6.84,9.17,9.17,6.83,12.01,6.83C13.06,6.83,14.05,7.15,14.87,7.7L16.79,5.78C15.47,4.76,13.81,4.16,12.01,4.16C7.68,4.16,4.18,7.66,4.18,11.99Z" fill="currentColor"/><path d="M9.54,13.03L13.03,9.54C12.71,9.41,12.37,9.33,12,9.33C10.53,9.33,9.33,10.53,9.33,12C9.33,12.36,9.4,12.71,9.54,13.03Z" fill="currentColor"/></svg>