<svg xmlns="http://www.w3.org/2000/svg" viewBox="0 0 24 24"><path d="M1.5,12C1.5,6.23,6.23,1.5,12,1.5C17.77,1.5,22.5,6.23,22.5,12C22.5,17.77,17.77,22.5,12,22.5C6.23,22.5,1.5,17.77,1.5,12Z" fill="currentColor"/><path d="M20.5,12C20.5,7.33,16.67,3.5,12,3.5C7.33,3.5,3.5,7.33,3.5,12C3.5,16.67,7.33,20.5,12,20.5C16.67,20.5,20.5,16.67,20.5,12Z" fill="currentColor"/><path d="M12.53,6.97L12.6,6.87C13.03,6.44,13.5,6.44,13.93,6.87L18.06,11C18.79,11.73,18.79,12.27,18.06,13L13.93,17.13C13.5,17.56,13.03,17.56,12.6,17.13L12.5,17.03C12.07,16.6,12.07,16.13,12.5,15.7L16.27,12L12.54,8.3C12.11,7.87,12.11,7.4,12.54,6.97Z" fill="currentColor"/><path d="M6,12.07L6,11.94C6,11.34,6.23,11.01,6.67,11.01L16.3,11.01L16.3,13.01L6.67,13.01C6.24,13.01,6,12.68,6,12.08Z" fill="currentColor"/></svg>