<svg xmlns="http://www.w3.org/2000/svg" viewBox="0 0 24 24" fill="currentColor"><path d="M5.13,13C5.13,8.67,8.67,5.13,13,5.13C17.33,5.13,20.88,8.67,20.88,13C20.88,17.33,17.33,20.88,13,20.88C8.67,20.88,5.13,17.33,5.13,13ZM19.38,13C19.38,9.5,16.5,6.63,13,6.63C9.5,6.63,6.63,9.5,6.63,13C6.63,16.5,9.5,19.38,13,19.38C16.5,19.38,19.38,16.5,19.38,13ZM12.05,16.62C12.05,17.22,12.29,17.45,12.97,17.45L13.02,17.45C13.7,17.45,13.95,17.22,13.95,16.62L13.95,12.55C13.95,11.95,13.7,11.72,13.02,11.72L12.97,11.72C12.29,11.72,12.05,11.95,12.05,12.55ZM14.17,9.37C14.17,8.67,13.7,8.22,13.02,8.22C12.33,8.22,11.82,8.67,11.82,9.37C11.82,10.07,12.33,10.55,13.02,10.55C13.7,10.55,14.17,10.07,14.17,9.37Z"/></svg>