<svg xmlns="http://www.w3.org/2000/svg" viewBox="0 0 24 24" fill="currentColor"><path d="M5.13,13C5.13,8.67,8.67,5.13,13,5.13C17.33,5.13,20.88,8.67,20.88,13C20.88,17.33,17.33,20.88,13,20.88C8.67,20.88,5.13,17.33,5.13,13ZM19.38,13C19.38,9.5,16.5,6.63,13,6.63C9.5,6.63,6.63,9.5,6.63,13C6.63,16.5,9.5,19.38,13,19.38C16.5,19.38,19.38,16.5,19.38,13ZM8.97,11.3L8.92,11.35C8.6,11.67,8.6,12.03,8.92,12.35L12.5,15.92C12.82,16.25,13.17,16.25,13.5,15.92L17.07,12.35C17.39,12.02,17.39,11.67,17.07,11.35L17,11.27C16.67,10.95,16.32,10.95,16,11.27L12.98,14.3L9.98,11.3C9.65,10.98,9.3,10.98,8.98,11.3Z"/></svg>