<svg xmlns="http://www.w3.org/2000/svg" viewBox="0 0 24 24" fill="currentColor"><path d="M20.88,13C20.88,17.35,17.35,20.88,13,20.88C8.65,20.88,5.13,17.35,5.13,13C5.13,8.65,8.65,5.13,13,5.13C17.35,5.13,20.88,8.65,20.88,13ZM8.5,13L8.4,13.1C7.85,13.64,7.85,14.05,8.4,14.6L11.57,17.77C12.65,18.84,13.35,18.84,14.42,17.77L17.6,14.6C18.14,14.05,18.14,13.64,17.6,13.1L17.5,13C16.95,12.45,16.55,12.47,16,13.02L14.13,14.9L14.13,8.5C14.13,7.95,13.83,7.75,13.05,7.75L12.96,7.75C12.18,7.75,11.88,7.95,11.88,8.5L11.88,14.9L10.01,13.02C9.46,12.47,9.05,12.44,8.51,13Z"/></svg>