<svg xmlns="http://www.w3.org/2000/svg" viewBox="0 0 24 24"><path d="M7.05,21.25L8.54,19.76C9.6,20.24,10.77,20.5,12,20.5C16.67,20.5,20.5,16.67,20.5,12C20.5,10.77,20.23,9.6,19.76,8.54L21.25,7.05C22.05,8.53,22.5,10.21,22.5,12C22.5,17.77,17.77,22.5,12,22.5C10.21,22.5,8.53,22.05,7.05,21.25Z" fill="currentColor"/><path d="M20.1,5.33L18.68,6.75L6.76,18.67L5.34,20.09L2.1,23.33L2.07,23.36C1.64,23.79,1.17,23.79,0.74,23.36L0.64,23.26C0.21,22.83,0.21,22.36,0.64,21.93L3.91,18.66C2.41,16.84,1.51,14.52,1.51,12C1.51,6.23,6.24,1.5,12.01,1.5C14.53,1.5,16.85,2.4,18.67,3.9L21.97,0.6C22.4,0.17,22.87,0.17,23.3,0.6L23.4,0.7C23.82,1.12,23.83,1.58,23.43,2C23.42,2.01,23.41,2.02,23.4,2.03Z" fill="currentColor"/><path d="M3.5,12C3.5,13.97,4.18,15.79,5.33,17.24L17.25,5.32C15.8,4.18,13.98,3.49,12.01,3.49C7.34,3.49,3.51,7.32,3.51,11.99Z" fill="currentColor"/></svg>