<svg xmlns="http://www.w3.org/2000/svg" viewBox="0 0 24 24" fill="currentColor"><path d="M16.8,11.05L14.2,13.6C13.13,14.65,12.23,14.3,11.85,13.65C11.5,13.03,11.65,12.06,13.11,11.65L16.61,10.7C17.08,10.55,17.16,10.7,16.81,11.05ZM11.43,16.75C10.98,16.75,10.75,16.5,10.75,16.05L10.75,15.92C10.75,15.47,11,15.25,11.45,15.25L14.58,15.25C15.03,15.25,15.25,15.5,15.25,15.95L15.25,16.08C15.25,16.53,15,16.75,14.55,16.75ZM13,5.13C17.33,5.13,20.88,8.67,20.88,13C20.88,17.33,17.33,20.88,13,20.88C8.67,20.88,5.13,17.33,5.13,13C5.13,8.67,8.67,5.13,13,5.13ZM13,6.63C9.5,6.63,6.63,9.5,6.63,13C6.63,16.5,9.5,19.38,13,19.38C16.5,19.38,19.38,16.5,19.38,13C19.38,9.5,16.5,6.63,13,6.63Z"/></svg>