<svg xmlns="http://www.w3.org/2000/svg" viewBox="0 0 24 24" fill="currentColor"><path d="M13,20.88C8.65,20.88,5.13,17.35,5.13,13C5.13,8.65,8.65,5.13,13,5.13C17.35,5.13,20.88,8.65,20.88,13C20.88,17.35,17.35,20.88,13,20.88ZM13,8.5L12.9,8.4C12.35,7.85,11.95,7.85,11.4,8.4L8.23,11.57C7.16,12.65,7.16,13.35,8.23,14.42L11.4,17.6C11.95,18.14,12.35,18.14,12.9,17.6L13,17.5C13.55,16.95,13.52,16.55,12.98,16L11.1,14.13L17.5,14.13C18.05,14.13,18.25,13.83,18.25,13.05L18.25,12.96C18.25,12.18,18.05,11.88,17.5,11.88L11.1,11.88L12.98,10.01C13.52,9.46,13.56,9.05,13,8.51Z"/></svg>