<svg xmlns="http://www.w3.org/2000/svg" viewBox="0 0 24 24"><path d="M12,22.33C7,22.33,1.67,20.96,1.67,18.8C1.67,17.87,2.63,17.08,4.12,16.49C6.47,17.28,9.4,17.6,12,17.6C14.61,17.6,17.54,17.28,19.89,16.49C21.38,17.08,22.34,17.87,22.34,18.8C22.34,20.97,17.01,22.33,12.01,22.33Z" fill="currentColor"/><path d="M8.81,15.42C8.86,15.41,8.91,15.41,8.96,15.4C5.06,14.97,1.68,13.73,1.67,11.98C1.68,11.06,2.67,10.28,4.18,9.69C6.52,10.46,9.42,10.76,12,10.76C14.58,10.76,17.48,10.45,19.82,9.69C21.33,10.28,22.32,11.05,22.33,11.98C22.31,13.73,18.93,14.97,15.04,15.4C15.09,15.4,15.14,15.41,15.19,15.42C14.15,15.54,13.07,15.6,12,15.6C10.93,15.6,9.85,15.54,8.81,15.42Z" fill="currentColor"/><path d="M9.1,8.62C10.05,8.52,11.03,8.47,12,8.47C12.97,8.47,13.95,8.52,14.9,8.62C13.95,8.72,12.97,8.77,12,8.77C11.03,8.77,10.05,8.72,9.1,8.62Z" fill="currentColor"/><path d="M1.67,5.2C1.67,3.03,7,1.67,12,1.67C17,1.67,22.33,3.04,22.33,5.2C22.33,7.4,17,8.77,12,8.77C7,8.77,1.67,7.4,1.67,5.2Z" fill="currentColor"/></svg>