<svg xmlns="http://www.w3.org/2000/svg" viewBox="0 0 24 24" fill="currentColor"><path d="M13,20.88C8.67,20.88,5.13,17.33,5.13,13C5.13,8.67,8.67,5.13,13,5.13C17.33,5.13,20.88,8.67,20.88,13C20.88,17.33,17.33,20.88,13,20.88ZM13,19.38C16.5,19.38,19.38,16.5,19.38,13C19.38,9.5,16.5,6.63,13,6.63C9.5,6.63,6.63,9.5,6.63,13C6.63,16.5,9.5,19.38,13,19.38ZM12.45,10.82L10.13,14.27C9.83,14.75,9.98,15.02,10.52,15.02L15.47,15.02C16.05,15.02,16.17,14.75,15.87,14.27L13.55,10.82C13.15,10.25,12.85,10.25,12.44,10.82Z"/></svg>