<svg xmlns="http://www.w3.org/2000/svg" viewBox="0 0 24 24"><path d="M13.77,13.43L19.34,8.6C19.64,8.33,19.71,7.97,19.51,7.6L19.44,7.47C19.24,7.1,18.87,7,18.47,7.14L11.54,9.84C9.71,10.54,9.24,12.04,9.91,13.21C10.58,14.38,12.18,14.84,13.78,13.44Z" fill="currentColor"/><path d="M10,19.06C10,19.66,10.33,19.99,10.93,19.99L13.06,19.99C13.66,19.99,13.99,19.66,13.99,19.06L13.99,18.93C13.99,18.33,13.66,18,13.06,18L10.93,18C10.33,18,10,18.33,10,18.93Z" fill="currentColor"/><path d="M1.5,12C1.5,6.2,6.2,1.5,12,1.5C17.8,1.5,22.5,6.2,22.5,12C22.5,17.8,17.8,22.5,12,22.5C6.2,22.5,1.5,17.8,1.5,12Z" fill="currentColor"/></svg>