<svg xmlns="http://www.w3.org/2000/svg" viewBox="0 0 24 24"><path d="M1.5,12C1.5,6.23,6.23,1.5,12,1.5C17.77,1.5,22.5,6.23,22.5,12C22.5,17.77,17.77,22.5,12,22.5C6.23,22.5,1.5,17.77,1.5,12Z" fill="currentColor"/><path d="M19.83,12C19.83,7.67,16.33,4.17,12,4.17C7.67,4.17,4.17,7.67,4.17,12C4.17,16.33,7.67,19.83,12,19.83C16.33,19.83,19.83,16.33,19.83,12Z" fill="currentColor"/><path d="M6.83,12C6.83,9.17,9.16,6.83,12,6.83C14.83,6.83,17.17,9.16,17.17,12C17.17,14.83,14.84,17.17,12,17.17C9.17,17.17,6.83,14.84,6.83,12Z" fill="currentColor"/><path d="M14.67,12C14.67,10.53,13.47,9.33,12,9.33C10.53,9.33,9.33,10.53,9.33,12C9.33,13.47,10.53,14.67,12,14.67C13.47,14.67,14.67,13.47,14.67,12Z" fill="currentColor"/></svg>