<svg xmlns="http://www.w3.org/2000/svg" viewBox="0 0 24 24" fill="currentColor"><path d="M13,5.13C17.33,5.13,20.88,8.67,20.88,13C20.88,17.33,17.33,20.88,13,20.88C8.67,20.88,5.13,17.33,5.13,13C5.13,8.67,8.67,5.13,13,5.13ZM13,6.63C9.5,6.63,6.63,9.5,6.63,13C6.63,16.5,9.5,19.38,13,19.38C16.5,19.38,19.38,16.5,19.38,13C19.38,9.5,16.5,6.63,13,6.63ZM11.7,9.8L12.21,13.25C12.28,13.67,12.48,13.85,12.93,13.85L13.08,13.85C13.53,13.85,13.73,13.67,13.81,13.25L14.31,9.8C14.46,8.87,14.14,8.52,13.19,8.52L12.87,8.52C11.91,8.52,11.59,8.88,11.72,9.8ZM13,15.02C12.27,15.02,11.82,15.48,11.82,16.17C11.82,16.9,12.27,17.35,13,17.35C13.73,17.35,14.18,16.9,14.18,16.17C14.18,15.48,13.73,15.02,13,15.02Z"/></svg>