<svg xmlns="http://www.w3.org/2000/svg" viewBox="0 0 24 24"><path d="M17.07,9.4L13.6,12.8C12.17,14.2,10.97,13.73,10.47,12.87C10,12.04,10.2,10.74,12.14,10.2L16.81,8.93C17.44,8.73,17.54,8.93,17.08,9.4Z" fill="currentColor"/><path d="M9.9,17C9.3,17,9,16.67,9,16.07L9,15.9C9,15.3,9.33,15,9.93,15L14.1,15C14.7,15,15,15.33,15,15.93L15,16.1C15,16.7,14.67,17,14.07,17Z" fill="currentColor"/><path d="M1.5,12C1.5,6.23,6.23,1.5,12,1.5C17.77,1.5,22.5,6.23,22.5,12C22.5,17.77,17.77,22.5,12,22.5C6.23,22.5,1.5,17.77,1.5,12Z" fill="currentColor"/><path d="M20.5,12C20.5,7.33,16.67,3.5,12,3.5C7.33,3.5,3.5,7.33,3.5,12C3.5,16.67,7.33,20.5,12,20.5C16.67,20.5,20.5,16.67,20.5,12Z" fill="currentColor"/></svg>