<svg xmlns="http://www.w3.org/2000/svg" viewBox="0 0 24 24" fill="currentColor"><path d="M13,5.13C17.33,5.13,20.88,8.67,20.88,13C20.88,17.33,17.33,20.88,13,20.88C8.67,20.88,5.13,17.33,5.13,13C5.13,8.67,8.67,5.13,13,5.13ZM13,6.63C9.5,6.63,6.63,9.5,6.63,13C6.63,16.5,9.5,19.38,13,19.38C16.5,19.38,19.38,16.5,19.38,13C19.38,9.5,16.5,6.63,13,6.63ZM13.55,15.17L15.87,11.72C16.17,11.25,16.05,10.97,15.48,10.97L10.53,10.97C9.98,10.97,9.83,11.25,10.13,11.72L12.45,15.17C12.85,15.75,13.15,15.75,13.56,15.17Z"/></svg>