<svg xmlns="http://www.w3.org/2000/svg" viewBox="0 0 24 24" fill="currentColor"><path d="M18.35,11.16C17.54,8.54,15.11,6.63,12.25,6.63C8.75,6.63,5.87,9.5,5.87,13.01C5.87,16.51,8.75,19.38,12.25,19.38C15.75,19.38,18.63,16.51,18.63,13.01L20,11.63C20.09,12.08,20.13,12.54,20.13,13.01C20.13,17.34,16.58,20.88,12.25,20.88C7.92,20.88,4.38,17.33,4.38,13C4.38,8.67,7.92,5.13,12.25,5.13C15.5,5.13,18.33,7.14,19.52,9.98ZM12.85,16.98C12.3,17.52,11.9,17.5,11.35,16.95L7.38,12.98C6.83,12.43,6.83,12,7.38,11.46L7.45,11.38C8,10.83,8.43,10.83,8.97,11.38L12.1,14.51L19.97,6.65C20.52,6.11,20.93,6.11,21.47,6.65L21.57,6.75C22.12,7.3,22.12,7.7,21.57,8.25Z"/></svg>