<svg xmlns="http://www.w3.org/2000/svg" viewBox="0 0 24 24" fill="currentColor"><path d="M14.15,8.25C14.52,7.98,14.73,8.05,14.88,8.5L15.33,9.85L16.7,9.83C16.9,9.83,17.04,9.86,17.12,9.93L10.77,16.28L10.72,16.11L9.32,16.13C8.84,16.13,8.72,15.96,8.87,15.51L9.29,14.18L8.17,13.33C7.79,13.05,7.79,12.86,8.17,12.58L9.29,11.78L8.87,10.45C8.72,10,8.84,9.83,9.32,9.83L10.72,9.85L11.15,8.5C11.3,8.05,11.5,7.98,11.87,8.25L13.02,9.1ZM11.38,17.82L17.13,12.07L17.87,12.6C18.25,12.88,18.25,13.07,17.87,13.35L16.73,14.18L17.15,15.5C17.3,15.96,17.18,16.13,16.7,16.13L15.33,16.1L14.88,17.45C14.73,17.91,14.53,17.98,14.15,17.7L13.03,16.85L11.88,17.7C11.66,17.86,11.51,17.9,11.39,17.82ZM13,6.63C9.45,6.63,6.63,9.45,6.63,13C6.63,16.55,9.45,19.38,13,19.38C16.55,19.38,19.38,16.55,19.38,13C19.38,9.45,16.55,6.63,13,6.63ZM13,5.13C17.33,5.13,20.88,8.67,20.88,13C20.88,17.33,17.33,20.88,13,20.88C8.67,20.88,5.13,17.33,5.13,13C5.13,8.67,8.67,5.13,13,5.13ZM7.55,17.39L17.42,7.52L18.48,8.57L8.6,18.45Z"/></svg>