<svg xmlns="http://www.w3.org/2000/svg" viewBox="0 0 24 24"><path d="M1.5,12C1.5,6.23,6.23,1.5,12,1.5C17.77,1.5,22.5,6.23,22.5,12C22.5,17.77,17.77,22.5,12,22.5C6.23,22.5,1.5,17.77,1.5,12Z" fill="currentColor"/><path d="M20.5,12C20.5,7.33,16.67,3.5,12,3.5C7.33,3.5,3.5,7.33,3.5,12C3.5,16.67,7.33,20.5,12,20.5C16.67,20.5,20.5,16.67,20.5,12Z" fill="currentColor"/><path d="M6.63,9.73L6.56,9.8C6.13,10.23,6.13,10.7,6.56,11.13L11.33,15.9C11.76,16.33,12.23,16.33,12.66,15.9L17.43,11.13C17.86,10.7,17.86,10.23,17.43,9.8L17.33,9.7C16.9,9.27,16.43,9.27,16,9.7L11.97,13.73L7.97,9.73C7.54,9.3,7.07,9.3,6.64,9.73Z" fill="currentColor"/></svg>