<svg xmlns="http://www.w3.org/2000/svg" viewBox="0 0 24 24" fill="currentColor"><path d="M13,5.13C17.35,5.13,20.88,8.65,20.88,13C20.88,17.35,17.35,20.88,13,20.88C8.65,20.88,5.13,17.35,5.13,13C5.13,8.65,8.65,5.13,13,5.13ZM9.53,17.4C9.38,18,9.58,18.15,10.1,17.8L13.01,15.75L15.88,17.8C16.4,18.15,16.61,18,16.46,17.4L15.58,13.95L18.18,11.93C18.68,11.53,18.61,11.28,17.98,11.23L14.58,10.98L13.36,7.89C13.13,7.31,12.86,7.31,12.63,7.89L11.48,10.98L8.01,11.23C7.39,11.28,7.31,11.53,7.81,11.91L10.43,13.95Z"/></svg>