<svg xmlns="http://www.w3.org/2000/svg" viewBox="0 0 24 24" fill="currentColor"><path d="M14.96,8.37C14.96,8.37,14.95,8.36,14.95,8.36L7.61,15.7C8.29,16.21,9.11,16.55,10,16.68C10,16.7,10,16.73,10,16.75C10,17.25,10.05,17.73,10.15,18.2C6.73,17.89,4.02,15,4.02,11.5C4.02,7.8,7.04,4.77,10.75,4.77C12.87,4.77,14.77,5.77,16.01,7.32ZM5.52,11.5C5.52,12.69,5.9,13.77,6.54,14.64L13.88,7.3C13.02,6.66,11.94,6.28,10.74,6.28C7.82,6.28,5.51,8.58,5.51,11.51ZM20.5,16.75C20.5,14.67,18.83,13,16.75,13L16.75,11.5C19.62,11.5,22,13.88,22,16.75ZM13,16.75L11.5,16.75C11.5,15.48,11.96,14.3,12.74,13.38L13.86,14.36C13.32,15.01,13,15.84,13,16.76ZM14.1,12.58C13.86,12.36,13.86,12.15,14.1,11.93L16,10.26C16.47,9.83,16.75,9.96,16.75,10.58L16.75,13.93C16.75,14.55,16.47,14.68,16,14.25ZM22,16.75C22,19.62,19.62,22,16.75,22C13.88,22,11.5,19.62,11.5,16.75ZM13,16.75C13,18.83,14.67,20.5,16.75,20.5C18.83,20.5,20.5,18.83,20.5,16.75Z"/></svg>