<svg xmlns="http://www.w3.org/2000/svg" viewBox="0 0 24 24"><path d="M1.5,12C1.5,6.2,6.2,1.5,12,1.5C17.8,1.5,22.5,6.2,22.5,12C22.5,17.8,17.8,22.5,12,22.5C6.2,22.5,1.5,17.8,1.5,12Z" fill="currentColor"/><path d="M10.5,17.7C10.5,18.63,10.9,19,11.93,19L12.06,19C13.09,19,13.49,18.63,13.49,17.7L13.49,11.3C13.49,10.37,13.09,10,12.06,10L11.93,10C10.9,10,10.5,10.37,10.5,11.3Z" fill="currentColor"/><path d="M13.83,6.3C13.83,5.23,13.1,4.5,12.03,4.5C10.93,4.5,10.16,5.23,10.16,6.3C10.16,7.4,10.93,8.17,12.03,8.17C13.1,8.17,13.83,7.4,13.83,6.3Z" fill="currentColor"/></svg>