<svg xmlns="http://www.w3.org/2000/svg" viewBox="0 0 24 24"><path d="M22.5,12C22.5,17.77,17.77,22.5,12,22.5C6.23,22.5,1.5,17.77,1.5,12C1.5,6.23,6.23,1.5,12,1.5C17.77,1.5,22.5,6.23,22.5,12Z" fill="currentColor"/><path d="M3.5,12C3.5,16.67,7.33,20.5,12,20.5C16.67,20.5,20.5,16.67,20.5,12C20.5,7.33,16.67,3.5,12,3.5C7.33,3.5,3.5,7.33,3.5,12Z" fill="currentColor"/><path d="M12,7.84C12,7.01,12.37,6.84,13.03,7.37L17.4,11.07C18.2,11.74,18.2,12.27,17.4,12.94L13.03,16.64C12.36,17.17,12,17.01,12,16.17Z" fill="currentColor"/><path d="M6,12.07L6,11.94C6,10.91,6.4,10.51,7.43,10.51L13.33,10.51L13.33,13.51L7.43,13.51C6.4,13.51,6,13.11,6,12.08Z" fill="currentColor"/></svg>