<svg xmlns="http://www.w3.org/2000/svg" viewBox="0 0 24 24" fill="currentColor"><path d="M10.75,21C7.58,21,5,18.43,5,15.25C5,13.06,6.22,11.16,8.02,10.19C8,10.38,8,10.56,8,10.75C8,11.14,8.03,11.52,8.09,11.9C7.11,12.66,6.5,13.86,6.5,15.25C6.5,17.65,8.34,19.5,10.75,19.5C12.14,19.5,13.34,18.89,14.1,17.91C14.48,17.97,14.86,18,15.25,18C15.44,18,15.63,18,15.81,17.98C14.84,19.78,12.94,21,10.75,21ZM15.25,6.5C12.85,6.5,11,8.34,11,10.75C11,13.15,12.84,15,15.25,15C17.65,15,19.5,13.16,19.5,10.75C19.5,8.35,17.66,6.5,15.25,6.5ZM15.25,5C18.42,5,21,7.57,21,10.75C21,13.92,18.43,16.5,15.25,16.5C12.08,16.5,9.5,13.93,9.5,10.75C9.5,7.58,12.07,5,15.25,5Z"/></svg>