<svg xmlns="http://www.w3.org/2000/svg" viewBox="0 0 24 24"><path d="M11,18C7.67,18,5,15.33,5,12C5,8.67,7.67,6,11,6Z" fill="currentColor"/><path d="M11,22.47C4.93,22.47,0.5,17.6,0.5,12C0.5,6.07,5.3,1.5,11,1.5C13.7,1.5,16.4,2.53,18.43,4.57L20.73,6.87L19.26,8.34L16.96,6.01C15.33,4.34,13.13,3.54,10.96,3.54C6.29,3.54,2.49,7.34,2.49,12.01C2.49,16.68,6.29,20.48,10.96,20.48C14.06,20.48,16.46,18.98,18.19,16.65C18.52,16.15,18.99,16.08,19.49,16.42L19.62,16.49C20.12,16.82,20.19,17.29,19.85,17.79C17.72,20.69,14.82,22.49,10.98,22.49Z" fill="currentColor"/><path d="M23.17,5.43L23.8,10.56C23.93,11.59,23.57,11.96,22.53,11.83L17.36,11.2C16.46,11.1,16.33,10.63,16.96,10L21.96,5C22.59,4.37,23.06,4.5,23.16,5.43Z" fill="currentColor"/></svg>