<svg xmlns="http://www.w3.org/2000/svg" viewBox="0 0 24 24" fill="currentColor"><path d="M13,19.38C14.5,19.38,15.87,18.87,16.96,18.02L14.09,15.14L15.15,14.09L18.02,16.96C18.87,15.88,19.38,14.51,19.38,13C19.38,12.07,19.18,11.19,18.83,10.4L19.93,9.29C20.53,10.4,20.87,11.66,20.87,13.01C20.87,17.33,17.32,20.88,12.99,20.88C11.65,20.88,10.39,20.54,9.28,19.95L10.38,18.84C11.18,19.2,12.06,19.39,12.99,19.39ZM21.55,5.52L19.07,8L18.03,9.04L14.07,13L13.01,14.06L9.05,18.02L8.01,19.06L5.58,21.49L5.56,21.51C5.24,21.84,4.88,21.84,4.56,21.51L4.49,21.44C4.16,21.12,4.16,20.76,4.49,20.44L6.94,17.99C5.81,16.62,5.14,14.88,5.14,12.99C5.14,8.67,8.69,5.12,13.01,5.12C14.9,5.12,16.64,5.79,18.01,6.92L20.48,4.44C20.81,4.12,21.16,4.12,21.48,4.44L21.56,4.52C21.87,4.83,21.88,5.18,21.58,5.49C21.57,5.5,21.56,5.51,21.56,5.52ZM11.94,12.99L7.98,9.04C7.13,10.12,6.63,11.49,6.63,13C6.63,14.5,7.13,15.87,7.98,16.95ZM12.99,11.94L16.95,7.98C15.87,7.13,14.5,6.63,13,6.63C11.5,6.63,10.13,7.13,9.04,7.98Z"/></svg>