<svg xmlns="http://www.w3.org/2000/svg" viewBox="0 0 24 24"><path d="M7.04,21.26L21.26,7.04C22.05,8.52,22.5,10.2,22.5,12C22.5,17.8,17.8,22.5,12,22.5C10.21,22.5,8.52,22.05,7.04,21.26Z" fill="currentColor"/><path d="M20.11,5.32L5.33,20.1L2.1,23.33L2.07,23.36C1.64,23.79,1.17,23.79,0.74,23.36L0.64,23.26C0.21,22.83,0.21,22.36,0.64,21.93L3.9,18.67C2.4,16.86,1.51,14.53,1.51,12C1.51,6.2,6.21,1.5,12.01,1.5C14.54,1.5,16.87,2.4,18.68,3.89L21.97,0.6C22.4,0.17,22.87,0.17,23.3,0.6L23.4,0.7C23.82,1.12,23.83,1.58,23.43,2C23.42,2.01,23.41,2.02,23.4,2.03Z" fill="currentColor"/></svg>