<svg xmlns="http://www.w3.org/2000/svg" viewBox="0 0 24 24"><path d="M12,22.5C6.2,22.5,1.5,17.8,1.5,12C1.5,6.2,6.2,1.5,12,1.5C17.8,1.5,22.5,6.2,22.5,12C22.5,17.8,17.8,22.5,12,22.5Z" fill="currentColor"/><path d="M18,12L18.13,11.87C18.86,11.14,18.86,10.6,18.13,9.87L13.9,5.64C12.47,4.21,11.53,4.21,10.1,5.64L5.87,9.87C5.14,10.6,5.14,11.14,5.87,11.87L6,12C6.73,12.73,7.27,12.7,8,11.97L10.5,9.47L10.5,18C10.5,18.73,10.9,19,11.93,19L12.06,19C13.09,19,13.49,18.73,13.49,18L13.49,9.47L15.99,11.97C16.72,12.7,17.26,12.74,17.99,12Z" fill="currentColor"/></svg>