<svg xmlns="http://www.w3.org/2000/svg" viewBox="0 0 24 24"><path d="M1.5,12C1.5,6.23,6.23,1.5,12,1.5C17.77,1.5,22.5,6.23,22.5,12C22.5,17.77,17.77,22.5,12,22.5C6.23,22.5,1.5,17.77,1.5,12Z" fill="currentColor"/><path d="M20.5,12C20.5,7.33,16.67,3.5,12,3.5C7.33,3.5,3.5,7.33,3.5,12C3.5,16.67,7.33,20.5,12,20.5C16.67,20.5,20.5,16.67,20.5,12Z" fill="currentColor"/><path d="M9.73,17.37L9.8,17.44C10.23,17.87,10.7,17.87,11.13,17.44L15.9,12.67C16.33,12.24,16.33,11.77,15.9,11.34L11.13,6.57C10.7,6.14,10.23,6.14,9.8,6.57L9.7,6.67C9.27,7.1,9.27,7.57,9.7,8L13.73,12.03L9.73,16.03C9.3,16.46,9.3,16.93,9.73,17.36Z" fill="currentColor"/></svg>