<svg xmlns="http://www.w3.org/2000/svg" viewBox="0 0 24 24"><path d="M1.5,12C1.5,6.23,6.23,1.5,12,1.5C17.77,1.5,22.5,6.23,22.5,12C22.5,17.77,17.77,22.5,12,22.5C6.23,22.5,1.5,17.77,1.5,12Z" fill="currentColor"/><path d="M20.5,12C20.5,7.33,16.67,3.5,12,3.5C7.33,3.5,3.5,7.33,3.5,12C3.5,16.67,7.33,20.5,12,20.5C16.67,20.5,20.5,16.67,20.5,12Z" fill="currentColor"/><path d="M12.73,14.9L15.83,10.3C16.23,9.67,16.06,9.3,15.3,9.3L8.7,9.3C7.97,9.3,7.77,9.67,8.17,10.3L11.27,14.9C11.8,15.67,12.2,15.67,12.74,14.9Z" fill="currentColor"/></svg>