<svg xmlns="http://www.w3.org/2000/svg" viewBox="0 0 24 24" fill="currentColor"><path d="M20.88,13C20.88,17.33,17.33,20.88,13,20.88C8.67,20.88,5.13,17.33,5.13,13C5.13,8.67,8.67,5.13,13,5.13C17.33,5.13,20.88,8.67,20.88,13ZM6.63,13C6.63,16.5,9.5,19.38,13,19.38C16.5,19.38,19.38,16.5,19.38,13C19.38,9.5,16.5,6.63,13,6.63C9.5,6.63,6.63,9.5,6.63,13ZM13,9.88C13,9.26,13.28,9.13,13.77,9.53L17.05,12.3C17.65,12.8,17.65,13.2,17.05,13.71L13.77,16.48C13.27,16.88,13,16.76,13,16.13ZM8.5,13.05L8.5,12.96C8.5,12.18,8.8,11.88,9.57,11.88L14,11.88L14,14.13L9.57,14.13C8.8,14.13,8.5,13.83,8.5,13.06Z"/></svg>