<svg xmlns="http://www.w3.org/2000/svg" viewBox="0 0 24 24"><path d="M1.5,12C1.5,6.23,6.23,1.5,12,1.5C17.77,1.5,22.5,6.23,22.5,12C22.5,17.77,17.77,22.5,12,22.5C6.23,22.5,1.5,17.77,1.5,12Z" fill="currentColor"/><path d="M20.5,12C20.5,7.33,16.67,3.5,12,3.5C7.33,3.5,3.5,7.33,3.5,12C3.5,16.67,7.33,20.5,12,20.5C16.67,20.5,20.5,16.67,20.5,12Z" fill="currentColor"/><path d="M11.47,17.03L11.4,17.13C10.97,17.56,10.5,17.56,10.07,17.13L5.94,13C5.21,12.27,5.21,11.73,5.94,11L10.07,6.87C10.5,6.44,10.97,6.44,11.4,6.87L11.5,6.97C11.93,7.4,11.93,7.87,11.5,8.3L7.73,12L11.46,15.7C11.89,16.13,11.89,16.6,11.46,17.03Z" fill="currentColor"/><path d="M18,11.93L18,12.06C18,12.66,17.77,12.99,17.33,12.99L7.7,12.99L7.7,10.99L17.33,10.99C17.76,10.99,18,11.32,18,11.92Z" fill="currentColor"/></svg>