<svg xmlns="http://www.w3.org/2000/svg" viewBox="0 0 24 24" fill="currentColor"><path d="M5.13,13C5.13,8.67,8.67,5.13,13,5.13C17.33,5.13,20.88,8.67,20.88,13C20.88,17.33,17.33,20.88,13,20.88C8.67,20.88,5.13,17.33,5.13,13ZM19.38,13C19.38,9.5,16.5,6.63,13,6.63C9.5,6.63,6.63,9.5,6.63,13C6.63,16.5,9.5,19.38,13,19.38C16.5,19.38,19.38,16.5,19.38,13ZM13,16.12C13,16.74,12.72,16.87,12.23,16.47L8.95,13.7C8.35,13.19,8.35,12.8,8.95,12.29L12.23,9.52C12.73,9.12,13,9.24,13,9.87ZM17.5,12.95L17.5,13.04C17.5,13.82,17.2,14.12,16.43,14.12L12,14.12L12,11.87L16.43,11.87C17.2,11.87,17.5,12.17,17.5,12.94Z"/></svg>