<svg xmlns="http://www.w3.org/2000/svg" viewBox="0 0 24 24"><path d="M1.5,12C1.5,6.23,6.23,1.5,12,1.5C17.77,1.5,22.5,6.23,22.5,12C22.5,17.77,17.77,22.5,12,22.5C6.23,22.5,1.5,17.77,1.5,12Z" fill="currentColor"/><path d="M20.5,12C20.5,7.33,16.67,3.5,12,3.5C7.33,3.5,3.5,7.33,3.5,12C3.5,16.67,7.33,20.5,12,20.5C16.67,20.5,20.5,16.67,20.5,12Z" fill="currentColor"/><path d="M7.07,12.87L9.84,15.64C10.27,16.07,10.74,16.07,11.17,15.64L17,9.74C17.43,9.31,17.43,8.84,17,8.44L16.9,8.34C16.47,7.91,16,7.91,15.6,8.34L10.5,13.47L8.43,11.44C8,11.01,7.53,11.01,7.13,11.44L7.03,11.54C6.63,11.97,6.63,12.44,7.06,12.87Z" fill="currentColor"/></svg>