<svg xmlns="http://www.w3.org/2000/svg" viewBox="0 0 24 24"><path d="M12,1.5C17.8,1.5,22.5,6.2,22.5,12C22.5,17.8,17.8,22.5,12,22.5C6.2,22.5,1.5,17.8,1.5,12C1.5,6.2,6.2,1.5,12,1.5Z" fill="currentColor"/><path d="M6,12L5.87,12.13C5.14,12.86,5.14,13.4,5.87,14.13L10.1,18.36C11.53,19.79,12.47,19.79,13.9,18.36L18.13,14.13C18.86,13.4,18.86,12.86,18.13,12.13L18,12C17.27,11.27,16.73,11.3,16,12.03L13.5,14.53L13.5,6C13.5,5.27,13.1,5,12.07,5L11.94,5C10.91,5,10.51,5.27,10.51,6L10.51,14.53L8.01,12.03C7.28,11.3,6.74,11.26,6.01,12Z" fill="currentColor"/></svg>