<svg xmlns="http://www.w3.org/2000/svg" viewBox="0 0 24 24"><path d="M19.33,15.4L13.76,10.57C12.16,9.17,10.56,9.64,9.89,10.8C9.22,11.97,9.69,13.47,11.52,14.17L18.45,16.87C18.85,17,19.22,16.9,19.42,16.54L19.49,16.41C19.69,16.04,19.62,15.68,19.32,15.41Z" fill="currentColor"/><path d="M10,19.06C10,19.66,10.33,19.99,10.93,19.99L13.06,19.99C13.66,19.99,13.99,19.66,13.99,19.06L13.99,18.93C13.99,18.33,13.66,18,13.06,18L10.93,18C10.33,18,10,18.33,10,18.93Z" fill="currentColor"/><path d="M1.5,12C1.5,6.2,6.2,1.5,12,1.5C17.8,1.5,22.5,6.2,22.5,12C22.5,17.8,17.8,22.5,12,22.5C6.2,22.5,1.5,17.8,1.5,12Z" fill="currentColor"/></svg>