<svg xmlns="http://www.w3.org/2000/svg" viewBox="0 0 24 24"><path d="M1.5,12C1.5,6.23,6.23,1.5,12,1.5C17.77,1.5,22.5,6.23,22.5,12C22.5,17.77,17.77,22.5,12,22.5C6.23,22.5,1.5,17.77,1.5,12Z" fill="currentColor"/><path d="M20.5,12C20.5,7.33,16.67,3.5,12,3.5C7.33,3.5,3.5,7.33,3.5,12C3.5,16.67,7.33,20.5,12,20.5C16.67,20.5,20.5,16.67,20.5,12Z" fill="currentColor"/><path d="M14.27,6.63L14.2,6.56C13.77,6.13,13.3,6.13,12.87,6.56L8.1,11.33C7.67,11.76,7.67,12.23,8.1,12.66L12.87,17.43C13.3,17.86,13.77,17.86,14.2,17.43L14.3,17.33C14.73,16.9,14.73,16.43,14.3,16L10.27,11.97L14.27,7.97C14.7,7.54,14.7,7.07,14.27,6.64Z" fill="currentColor"/></svg>