<svg xmlns="http://www.w3.org/2000/svg" viewBox="0 0 24 24"><path d="M9,1.03C13.26,1.03,16.84,4.03,17.75,8.03C17.5,8.01,17.25,8,17,8C16.56,8,16.13,8.03,15.71,8.09C15.48,7.25,15.1,6.48,14.6,5.81L4.81,15.6C5.72,16.28,6.81,16.73,8,16.9C8,16.93,8,16.97,8,17C8,17.66,8.07,18.31,8.2,18.93C3.64,18.52,0.03,14.66,0.03,10C0.03,5.07,4.06,1.03,9,1.03Z" fill="currentColor"/><path d="M2.03,10C2.03,11.58,2.53,13.03,3.39,14.19L13.18,4.4C12.02,3.54,10.58,3.04,8.99,3.04C5.09,3.04,2.02,6.1,2.02,10.01Z" fill="currentColor"/><path d="M10.03,17C10.03,13.17,13.2,10.03,17,10.03C20.83,10.03,23.97,13.16,23.97,17C23.97,20.8,20.84,23.97,17,23.97C13.2,23.97,10.03,20.8,10.03,17Z" fill="currentColor"/><path d="M16.17,17.24C16.24,17.71,16.44,17.87,16.94,17.87L17.07,17.87C17.57,17.87,17.77,17.7,17.84,17.24L18.34,13.67C18.47,12.74,18.17,12.37,17.17,12.37L16.84,12.37C15.84,12.37,15.54,12.74,15.67,13.67Z" fill="currentColor"/><path d="M18.2,20.3C18.2,19.57,17.73,19.1,17,19.1C16.27,19.1,15.8,19.57,15.8,20.3C15.8,21.03,16.27,21.5,17,21.5C17.73,21.5,18.2,21.03,18.2,20.3Z" fill="currentColor"/></svg>