<svg xmlns="http://www.w3.org/2000/svg" viewBox="0 0 24 24"><path d="M1.33,15C1.33,12.08,2.96,9.54,5.36,8.25C5.34,8.5,5.33,8.75,5.33,9C5.33,14.26,9.73,18.67,15,18.67C15.25,18.67,15.5,18.66,15.75,18.64C14.45,21.04,11.92,22.67,9,22.67C4.77,22.67,1.33,19.24,1.33,15Z" fill="currentColor"/><path d="M7.33,9C7.33,8.48,7.38,7.97,7.48,7.48C7.97,7.38,8.48,7.33,9,7.33C13.23,7.33,16.67,10.76,16.67,15C16.67,15.52,16.62,16.03,16.52,16.52C16.03,16.62,15.52,16.67,15,16.67C10.77,16.67,7.33,13.24,7.33,9Z" fill="currentColor"/><path d="M7.33,9C7.33,4.77,10.76,1.33,15,1.33C19.23,1.33,22.67,4.76,22.67,9C22.67,13.23,19.24,16.67,15,16.67C10.77,16.67,7.33,13.24,7.33,9Z" fill="currentColor"/></svg>