<svg xmlns="http://www.w3.org/2000/svg" viewBox="0 0 24 24" fill="currentColor"><path d="M11.67,11.93L7.5,15.55C7.27,15.75,7.22,16.02,7.37,16.3L7.42,16.4C7.57,16.67,7.85,16.75,8.15,16.64L13.35,14.62C14.72,14.09,15.07,12.97,14.57,12.09C14.06,11.21,12.87,10.87,11.66,11.92ZM11.5,18.29C11.5,18.75,11.75,18.99,12.2,18.99L13.79,18.99C14.25,18.99,14.49,18.75,14.49,18.29L14.49,18.2C14.49,17.75,14.25,17.5,13.79,17.5L12.2,17.5C11.75,17.5,11.5,17.75,11.5,18.2ZM5.13,13C5.13,8.65,8.65,5.13,13,5.13C17.35,5.13,20.88,8.65,20.88,13C20.88,17.35,17.35,20.88,13,20.88C8.65,20.88,5.13,17.35,5.13,13Z"/></svg>