<svg xmlns="http://www.w3.org/2000/svg" viewBox="0 0 24 24" fill="currentColor"><path d="M10.8,19L12.38,19C12.32,19.43,12.28,19.93,12.26,20.5L5.58,20.5C4.08,20.5,4.01,19.4,4.63,17.93L5.48,16L5.5,16L5.5,7.5C5.5,6,6,5.5,7.5,5.5L18.5,5.5C20,5.5,20.51,6,20.51,7.5L20.51,8.5L19.01,8.5L19.01,7.5C19.01,7,19.01,7,18.5,7L7.5,7C7,7,7,7,7,7.5L7,16L13.93,16C13.94,16.01,13.94,16.02,13.95,16.02C13.44,16.51,13.07,16.97,12.82,17.5L10.95,17.5ZM14.83,22C14.06,22,13.76,21.7,13.76,20.93C13.78,18,14.04,17.83,16.33,16C14.03,14.18,13.78,14.03,13.76,11.1C13.76,10.33,14.06,10.03,14.83,10.03L20.93,10.03C21.7,10.03,22,10.33,22,11.1C21.98,14.03,21.72,14.18,19.43,16C21.73,17.82,21.98,18,22,20.93C22,21.7,21.7,22,20.93,22ZM15.23,20.5L20.53,20.5C20.53,17.95,18.13,18.95,18.13,17.25L18.13,16.03C18.13,15.58,18.3,15.13,18.58,14.81L20.4,12.73C20.8,12.26,20.43,12.18,17.8,12.18C15.33,12.18,14.97,12.26,15.35,12.71L17.17,14.81C17.45,15.13,17.62,15.58,17.62,16.03L17.62,17.25C17.62,18.96,15.22,18.03,15.22,20.5Z"/></svg>