<svg xmlns="http://www.w3.org/2000/svg" viewBox="0 0 24 24"><path d="M9.07,20L14.97,20L14.84,18L9.27,18Z" fill="currentColor"/><path d="M2.1,22C0.1,22,0,20.53,0.83,18.57L1.96,16L21.96,16L23.13,18.57C23.86,20.3,24,22,21.83,22Z" fill="currentColor"/><path d="M20,16L20,4.67C20,4,20,4,19.33,4L4.66,4C3.99,4,3.99,4,3.99,4.67L3.99,16L1.99,16L1.99,4.67C1.99,2.67,2.66,2,4.66,2L19.33,2C21.33,2,22,2.67,22,4.67L22,16Z" fill="currentColor"/><path d="M10.07,13L8.67,13L6.47,7L7.87,7L9.97,12.6L8.84,12.6L10.91,7L12.38,7Z" fill="currentColor"/><path d="M14.97,13.1C13.7,13.1,12.6,12.3,12.6,12.3L13.17,11.23C13.17,11.23,14.04,11.8,14.97,11.8C15.87,11.8,16.2,11.67,16.2,11.3C16.2,10.23,12.57,11.27,12.57,8.8C12.57,7.6,13.54,6.9,15.07,6.9C16.27,6.9,17.34,7.53,17.34,7.53L16.87,8.56C16.87,8.56,15.84,8.19,15.07,8.19C14.17,8.19,13.87,8.46,13.87,8.79C13.87,9.86,17.5,8.79,17.5,11.29C17.5,12.36,16.47,13.09,14.97,13.09Z" fill="currentColor"/></svg>