<svg xmlns="http://www.w3.org/2000/svg" viewBox="0 0 24 24"><path d="M9.07,20L14.97,20L14.84,18L9.27,18Z" fill="currentColor"/><path d="M2.1,22C0.1,22,0,20.53,0.83,18.57L1.96,16L21.96,16L23.13,18.57C23.86,20.3,24,22,21.83,22Z" fill="currentColor"/><path d="M20,16L20,4.67C20,4,20,4,19.33,4L4.66,4C3.99,4,3.99,4,3.99,4.67L3.99,16L1.99,16L1.99,4.67C1.99,2.67,2.66,2,4.66,2L19.33,2C21.33,2,22,2.67,22,4.67L22,16Z" fill="currentColor"/><path d="M8.67,13.97L6,13.97L6,10.97L8.67,10.97Z" fill="currentColor"/><path d="M18,13.97L15.33,13.97L15.33,7.97L18,7.97Z" fill="currentColor"/><path d="M13.33,13.97L10.66,13.97L10.66,5.97L13.33,5.97Z" fill="currentColor"/></svg>