<svg xmlns="http://www.w3.org/2000/svg" viewBox="0 0 24 24" fill="currentColor"><path d="M6.74,20.5C5.24,20.5,4.74,20,4.74,18.5L4.74,16.49C4.74,14.99,5.24,14.49,6.74,14.49L19.25,14.49C20.75,14.49,21.25,14.99,21.25,16.49L21.25,18.5C21.25,20,20.75,20.5,19.25,20.5ZM8.75,17.48C8.75,16.93,8.3,16.48,7.75,16.48C7.2,16.48,6.75,16.93,6.75,17.48C6.75,18.02,7.2,18.47,7.75,18.47C8.3,18.48,8.75,18.02,8.75,17.48ZM8.55,11.5L14.46,11.5L14.46,10L8.55,10ZM7,7.5C7,6,7.5,5.5,9,5.5L17,5.5C18.5,5.5,19.01,6,19.01,7.5L19.01,13L7.01,13ZM8.55,8.5L15.95,8.5L15.95,7L8.55,7Z"/></svg>