<svg xmlns="http://www.w3.org/2000/svg" viewBox="0 0 24 24"><path d="M6.66,22C4.66,22,3.99,21.33,3.99,19.33L3.99,4.66C3.99,2.66,4.66,1.99,6.66,1.99L17.33,1.99C19.33,1.99,20,2.66,20,4.66L20,19.33C20,21.33,19.33,22,17.33,22Z" fill="currentColor"/><path d="M13.53,19C13.53,18.2,12.83,17.5,12.03,17.5C11.2,17.5,10.53,18.2,10.53,19C10.53,19.83,11.2,20.5,12.03,20.5C12.83,20.5,13.53,19.83,13.53,19Z" fill="currentColor"/><path d="M6,16L18,16L18,4L6,4Z" fill="currentColor"/><path d="M11.37,9.67L11.37,14.24L14,14.24L14,12.94L12.7,12.94L12.7,9.67C13.57,9.37,14.2,8.57,14.2,7.6C14.2,6.4,13.23,5.43,12.03,5.43C10.83,5.43,9.86,6.4,9.86,7.6C9.86,8.57,10.49,9.37,11.36,9.67Z" fill="currentColor"/><path d="M11.3,7.2C11.3,6.8,11.6,6.5,12.03,6.5C12.46,6.47,12.76,6.8,12.76,7.2C12.76,7.6,12.46,7.93,12.03,7.93C11.6,7.9,11.3,7.6,11.3,7.2Z" fill="currentColor"/></svg>