<svg xmlns="http://www.w3.org/2000/svg" viewBox="0 0 24 24" fill="currentColor"><path d="M9.25,19C7.88,19,7,18.15,7,16.75L6.25,16.75C5.75,16.75,5.5,16.5,5.5,16C5.5,15.5,5.75,15.25,6.25,15.25L7,15.25L7,13.75L6.25,13.75C5.75,13.75,5.5,13.5,5.5,13C5.5,12.5,5.75,12.25,6.25,12.25L7,12.25L7,10.75L6.25,10.75C5.75,10.75,5.5,10.5,5.5,10C5.5,9.5,5.75,9.25,6.25,9.25L7,9.25C7,7.77,7.88,7,9.25,7L9.25,6.25C9.25,5.75,9.5,5.5,10,5.5C10.5,5.5,10.75,5.75,10.75,6.25L10.75,7L12.25,7L12.25,6.25C12.25,5.75,12.5,5.5,13,5.5C13.5,5.5,13.75,5.75,13.75,6.25L13.75,7L15.25,7L15.25,6.25C15.25,5.75,15.5,5.5,16,5.5C16.5,5.5,16.75,5.75,16.75,6.25L16.75,7C18.1,7,19,7.77,19,9.25L19.75,9.25C20.25,9.25,20.5,9.5,20.5,10C20.5,10.5,20.25,10.75,19.75,10.75L19,10.75L19,12.25L19.75,12.25C20.25,12.25,20.5,12.5,20.5,13C20.5,13.5,20.25,13.75,19.75,13.75L19,13.75L19,15.25L19.75,15.25C20.25,15.25,20.5,15.5,20.5,16C20.5,16.5,20.25,16.75,19.75,16.75L19,16.75C19,18.15,18.1,19,16.75,19L16.75,19.75C16.75,20.25,16.5,20.5,16,20.5C15.5,20.5,15.25,20.25,15.25,19.75L15.25,19L13.75,19L13.75,19.75C13.75,20.25,13.5,20.5,13,20.5C12.5,20.5,12.25,20.25,12.25,19.75L12.25,19L10.75,19L10.75,19.75C10.75,20.25,10.5,20.5,10,20.5C9.5,20.5,9.25,20.25,9.25,19.75ZM11.55,16.75C12,16.75,12.25,16.5,12.25,16.05L12.25,15.96C12.25,15.5,12,15.26,11.55,15.26L9.25,15.26L9.25,13.76L11.18,13.76C11.95,13.76,12.25,13.46,12.25,12.69L12.25,10.34C12.25,9.57,11.95,9.27,11.18,9.27L8.46,9.27C8.01,9.27,7.76,9.51,7.76,9.96L7.76,10.06C7.76,10.51,8.01,10.76,8.46,10.76L10.76,10.76L10.76,12.26L8.83,12.26C8.06,12.26,7.76,12.56,7.76,13.33L7.76,15.68C7.76,16.45,8.06,16.75,8.83,16.75ZM18.25,13.32C18.25,12.55,17.95,12.25,17.18,12.25L15.25,12.25L15.25,10.75L17.55,10.75C18,10.75,18.25,10.5,18.25,10.05L18.25,9.96C18.25,9.5,18,9.26,17.55,9.26L14.83,9.26C14.06,9.26,13.76,9.56,13.76,10.33L13.76,12.68C13.76,13.45,14.06,13.75,14.83,13.75L16.76,13.75L16.76,15.25L14.46,15.25C14,15.25,13.76,15.5,13.76,15.95L13.76,16.04C13.76,16.5,14,16.74,14.46,16.74L17.18,16.74C17.95,16.74,18.25,16.44,18.25,15.67Z"/></svg>