<svg xmlns="http://www.w3.org/2000/svg" viewBox="0 0 24 24" fill="currentColor"><path d="M7.75,19C6.38,19,5.5,18.15,5.5,16.75L4.75,16.75C4.25,16.75,4,16.5,4,16C4,15.5,4.25,15.25,4.75,15.25L5.5,15.25L5.5,13.75L4.75,13.75C4.25,13.75,4,13.5,4,13C4,12.5,4.25,12.25,4.75,12.25L5.5,12.25L5.5,10.75L4.75,10.75C4.25,10.75,4,10.5,4,10C4,9.5,4.25,9.25,4.75,9.25L5.5,9.25C5.5,7.77,6.38,7,7.75,7L7.75,6.25C7.75,5.75,8,5.5,8.5,5.5C9,5.5,9.25,5.75,9.25,6.25L9.25,7L10.75,7L10.75,6.25C10.75,5.75,11,5.5,11.5,5.5C12,5.5,12.25,5.75,12.25,6.25L12.25,7L13.75,7L13.75,6.25C13.75,5.75,14,5.5,14.5,5.5C15,5.5,15.25,5.75,15.25,6.25L15.25,7C16.35,7,17.15,7.51,17.41,8.5L14.8,8.5C13.28,8.5,12.23,9.55,12.23,11.08C12.25,13.94,12.76,14.94,13.95,16.02C13.02,16.92,12.58,17.7,12.38,19L12.25,19L12.25,19.75C12.25,20.25,12,20.5,11.5,20.5C11,20.5,10.75,20.25,10.75,19.75L10.75,19L9.25,19L9.25,19.75C9.25,20.25,9,20.5,8.5,20.5C8,20.5,7.75,20.25,7.75,19.75ZM14.83,22C14.06,22,13.76,21.7,13.76,20.93C13.78,18,14.04,17.83,16.33,16C14.03,14.18,13.78,14.03,13.76,11.1C13.76,10.33,14.06,10.03,14.83,10.03L20.93,10.03C21.7,10.03,22,10.33,22,11.1C21.98,14.03,21.72,14.18,19.43,16C21.73,17.82,21.98,18,22,20.93C22,21.7,21.7,22,20.93,22ZM15.23,20.5L20.53,20.5C20.53,17.95,18.13,18.95,18.13,17.25L18.13,16.03C18.13,15.58,18.3,15.13,18.58,14.81L20.4,12.73C20.8,12.26,20.43,12.18,17.8,12.18C15.33,12.18,14.97,12.26,15.35,12.71L17.17,14.81C17.45,15.13,17.62,15.58,17.62,16.03L17.62,17.25C17.62,18.96,15.22,18.03,15.22,20.5Z"/></svg>