<svg xmlns="http://www.w3.org/2000/svg" viewBox="0 0 24 24" fill="currentColor"><path d="M7.77,13.75L7.77,12.25L5.99,12.25C4.49,12.25,3.99,11.75,3.99,10.25L3.99,7.5C3.99,6,4.49,5.49,5.99,5.49L17,5.49C18.5,5.49,19,6,19,7.5L19,10.25C19,10.38,19,10.5,18.98,10.61C18.43,10.54,17.85,10.64,17.32,10.95L16.76,11.28L16.15,10.94C14.68,10.13,12.89,10.86,12.24,12.25L9.25,12.25L9.25,13.75L12,13.75L12,14.01L11.43,14.35C10.81,14.71,10.41,15.26,10.21,15.87C9.54,15.9,9.01,16.44,9.01,17.12C9.01,17.82,9.56,18.37,10.26,18.37C10.35,18.37,10.45,18.36,10.53,18.34C10.75,18.68,11.05,18.97,11.43,19.19L12.01,19.53L12.01,20.16C12.01,20.28,12.02,20.38,12.03,20.49L6.01,20.49C4.51,20.49,4.01,19.98,4.01,18.48L4.01,15.73C4.01,14.23,4.51,13.73,6.01,13.73ZM6.75,15.87C6.05,15.87,5.5,16.42,5.5,17.13C5.5,17.82,6.05,18.38,6.75,18.38C7.45,18.38,8,17.83,8,17.13C8,16.43,7.46,15.87,6.75,15.87ZM6.75,7.62C6.05,7.62,5.5,8.17,5.5,8.88C5.5,9.57,6.05,10.13,6.75,10.13C7.45,10.13,8,9.58,8,8.88C8,8.18,7.46,7.62,6.75,7.62ZM10.25,7.62C9.55,7.62,9,8.17,9,8.88C9,9.57,9.54,10.13,10.25,10.13C10.95,10.13,11.5,9.58,11.5,8.88C11.5,8.18,10.95,7.62,10.25,7.62ZM15.1,21.25C14.9,21.53,14.63,21.57,14.35,21.42L13.9,21.14C13.62,21,13.52,20.72,13.67,20.42L13.9,19.89C14,19.69,13.95,19.42,13.77,19.12L13.12,17.97C13.02,17.77,12.77,17.65,12.42,17.62L12.05,17.57C11.69,17.54,11.52,17.32,11.52,16.99L11.52,16.49C11.52,16.13,11.69,15.94,12.05,15.91L12.59,15.83C12.82,15.83,13.04,15.66,13.22,15.36L13.87,14.21C13.97,14.01,13.97,13.74,13.82,13.44L13.67,13.07C13.52,12.77,13.61,12.49,13.89,12.34L14.34,12.06C14.62,11.91,14.89,11.96,15.09,12.23L15.44,12.71C15.57,12.88,15.84,12.98,16.17,12.98L17.5,12.98C17.72,12.98,17.95,12.83,18.15,12.56L18.4,12.23C18.6,11.96,18.87,11.91,19.15,12.06L19.6,12.34C19.88,12.49,19.97,12.77,19.82,13.07L19.6,13.59C19.5,13.79,19.55,14.06,19.73,14.36L20.38,15.51C20.48,15.71,20.73,15.83,21.08,15.86L21.45,15.92C21.8,15.94,21.98,16.14,21.98,16.49L21.98,17C21.98,17.32,21.8,17.54,21.45,17.57L20.91,17.65C20.68,17.65,20.45,17.82,20.28,18.12L19.63,19.27C19.53,19.47,19.53,19.74,19.68,20.04L19.83,20.42C19.98,20.72,19.88,21,19.61,21.14L19.16,21.42C18.88,21.57,18.61,21.52,18.41,21.25L18.05,20.78C17.93,20.61,17.68,20.5,17.33,20.5L16,20.5C15.77,20.5,15.55,20.65,15.35,20.93ZM16.75,18.5C17.73,18.5,18.5,17.72,18.5,16.75C18.5,15.77,17.72,15,16.75,15C15.77,15,15,15.78,15,16.75C15,17.73,15.78,18.5,16.75,18.5Z"/></svg>