<svg xmlns="http://www.w3.org/2000/svg" viewBox="0 0 24 24"><path d="M7,21L7,20C5.17,20,4,18.87,4,17L3,17C2.33,17,2,16.67,2,16C2,15.33,2.33,15,3,15L4,15L4,13L3,13C2.33,13,2,12.67,2,12C2,11.33,2.33,11,3,11L4,11L4,9L3,9C2.33,9,2,8.67,2,8C2,7.33,2.33,7,3,7L4,7C4,5.03,5.17,4,7,4L7,3C7,2.33,7.33,2,8,2C8.67,2,9,2.33,9,3L9,4L11,4L11,3C11,2.33,11.33,2,12,2C12.67,2,13,2.33,13,3L13,4L15,4L15,3C15,2.33,15.33,2,16,2C16.67,2,17,2.33,17,3L17,4C18.8,4,20,5.03,20,7L21,7C21.67,7,22,7.33,22,8C22,8.67,21.67,9,21,9L20,9L20,11L21,11C21.67,11,22,11.33,22,12C22,12.67,21.67,13,21,13L20,13L20,15L21,15C21.67,15,22,15.33,22,16C22,16.67,21.67,17,21,17L20,17C20,18.87,18.8,20,17,20L17,21C17,21.67,16.67,22,16,22C15.33,22,15,21.67,15,21L15,20L13,20L13,21C13,21.67,12.67,22,12,22C11.33,22,11,21.67,11,21L11,20L9,20L9,21C9,21.67,8.67,22,8,22C7.33,22,7,21.67,7,21Z" fill="currentColor"/><path d="M10.07,17C10.67,17,11,16.67,11,16.07L11,15.94C11,15.34,10.67,15.01,10.07,15.01L7,15.01L7,13.01L9.57,13.01C10.6,13.01,11,12.61,11,11.58L11,8.45C11,7.42,10.6,7.02,9.57,7.02L5.94,7.02C5.34,7.02,5.01,7.35,5.01,7.95L5.01,8.08C5.01,8.68,5.34,9.01,5.94,9.01L9.01,9.01L9.01,11.01L6.44,11.01C5.41,11.01,5.01,11.41,5.01,12.44L5.01,15.57C5.01,16.6,5.41,17,6.44,17Z" fill="currentColor"/><path d="M18.07,17C18.67,17,19,16.67,19,16.07L19,15.94C19,15.34,18.67,15.01,18.07,15.01L15,15.01L15,13.01L17.57,13.01C18.6,13.01,19,12.61,19,11.58L19,8.45C19,7.42,18.6,7.02,17.57,7.02L13.94,7.02C13.34,7.02,13.01,7.35,13.01,7.95L13.01,8.08C13.01,8.68,13.34,9.01,13.94,9.01L17.01,9.01L17.01,11.01L14.44,11.01C13.41,11.01,13.01,11.41,13.01,12.44L13.01,15.57C13.01,16.6,13.41,17,14.44,17Z" fill="currentColor"/></svg>