<svg xmlns="http://www.w3.org/2000/svg" viewBox="0 0 24 24"><path d="M6,20C5.33,20,5,19.67,5,19L5,18C3.17,18,2,16.87,2,15L1,15C0.33,15,0,14.67,0,14C0,13.33,0.33,13,1,13L2,13L2,11L1,11C0.33,11,0,10.67,0,10C0,9.33,0.33,9,1,9L2,9L2,7L1,7C0.33,7,0,6.67,0,6C0,5.33,0.33,5,1,5L2,5C2,3.03,3.17,2,5,2L5,1C5,0.33,5.33,0,6,0C6.67,0,7,0.33,7,1L7,2L9,2L9,1C9,0.33,9.33,0,10,0C10.67,0,11,0.33,11,1L11,2L13,2L13,1C13,0.33,13.33,0,14,0C14.67,0,15,0.33,15,1L15,2C16.47,2,17.53,2.69,17.88,4C15.36,4.07,13.17,6.34,13.17,8.83C13.17,9.34,13.31,9.97,13.59,10.61C12.12,12.06,12.31,14.32,14.16,15.6C13.96,15.81,13.68,16.04,13.28,16.37C12.76,16.83,12.21,17.37,11.73,17.99L11,17.99L11,18.99C11,19.03,11,19.07,11,19.1C10.88,19.33,10.77,19.56,10.67,19.81C10.51,19.93,10.28,19.99,10,19.99C9.33,19.99,9,19.66,9,18.99L9,17.99L7,17.99L7,18.99C7,19.66,6.67,19.99,6,19.99Z" fill="currentColor"/><path d="M23.77,22L12.24,22C12.24,19.93,13.44,18.9,14.57,17.9C15.67,17,16.57,16.17,16.57,14.47L16.57,13.8L14.9,13.8C14.7,13.4,14.6,12.97,14.6,12.5L16.57,11.33C15.64,10.63,15.17,9.83,15.17,8.83C15.17,7.3,16.44,6,18,6C19.57,6,20.83,7.3,20.83,8.83C20.83,9.83,20.36,10.63,19.43,11.26L21.43,12.49C21.43,12.96,21.36,13.39,21.1,13.79L19.43,13.79L19.43,14.46C19.43,16.16,20.66,16.99,21.76,17.89C22.89,18.89,23.76,19.92,23.76,21.99Z" fill="currentColor"/></svg>