<svg xmlns="http://www.w3.org/2000/svg" viewBox="0 0 24 24"><path d="M7,21L7,20C5.17,20,4,18.87,4,17L3,17C2.33,17,2,16.67,2,16C2,15.33,2.33,15,3,15L4,15L4,13L3,13C2.33,13,2,12.67,2,12C2,11.33,2.33,11,3,11L4,11L4,9L3,9C2.33,9,2,8.67,2,8C2,7.33,2.33,7,3,7L4,7C4,5.03,5.17,4,7,4L7,3C7,2.33,7.33,2,8,2C8.67,2,9,2.33,9,3L9,4L11,4L11,3C11,2.33,11.33,2,12,2C12.67,2,13,2.33,13,3L13,4L15,4L15,3C15,2.33,15.33,2,16,2C16.67,2,17,2.33,17,3L17,4C18.8,4,20,5.03,20,7L21,7C21.67,7,22,7.33,22,8C22,8.67,21.67,9,21,9L20,9L20,11L21,11C21.67,11,22,11.33,22,12C22,12.67,21.67,13,21,13L20,13L20,15L21,15C21.67,15,22,15.33,22,16C22,16.67,21.67,17,21,17L20,17C20,18.87,18.8,20,17,20L17,21C17,21.67,16.67,22,16,22C15.33,22,15,21.67,15,21L15,20L13,20L13,21C13,21.67,12.67,22,12,22C11.33,22,11,21.67,11,21L11,20L9,20L9,21C9,21.67,8.67,22,8,22C7.33,22,7,21.67,7,21Z" fill="currentColor"/><path d="M9.43,16.03L12.26,7.96L10.26,7.96L8.49,13.36L6.46,7.96L4.56,7.96L7.53,16.03Z" fill="currentColor"/><path d="M15.83,16.17C17.9,16.17,19.2,15.17,19.2,13.74C19.2,10.27,14.3,11.84,14.3,10.37C14.3,9.94,14.73,9.57,15.93,9.57C17.03,9.57,18.33,10.1,18.33,10.1L19,8.67C19,8.67,17.57,7.8,15.93,7.8C13.86,7.8,12.5,8.77,12.5,10.37C12.5,13.7,17.5,12.17,17.5,13.74C17.5,14.24,17.07,14.41,15.83,14.41C14.53,14.41,13.33,13.64,13.33,13.64L12.56,15.11C12.56,15.11,14.09,16.18,15.83,16.18Z" fill="currentColor"/></svg>