<svg xmlns="http://www.w3.org/2000/svg" viewBox="0 0 24 24"><path d="M5,21L5,20C3.17,20,2,18.87,2,17L1,17C0.33,17,0,16.67,0,16C0,15.33,0.33,15,1,15L2,15L2,13L1,13C0.33,13,0,12.67,0,12C0,11.33,0.33,11,1,11L2,11L2,9L1,9C0.33,9,0,8.67,0,8C0,7.33,0.33,7,1,7L2,7C2,5.03,3.17,4,5,4L5,3C5,2.33,5.33,2,6,2C6.67,2,7,2.33,7,3L7,4L9,4L9,3C9,2.33,9.33,2,10,2C10.67,2,11,2.33,11,3L11,4L13,4L13,3C13,2.33,13.33,2,14,2C14.67,2,15,2.33,15,3L15,4C16.47,4,17.53,4.68,17.88,6L14.4,6C12.37,6,10.97,7.4,10.97,9.44C11,13.25,11.68,14.59,13.27,16.03C12.03,17.22,11.44,18.26,11.18,20L11,20L11,21C11,21.67,10.67,22,10,22C9.33,22,9,21.67,9,21L9,20L7,20L7,21C7,21.67,6.67,22,6,22C5.33,22,5,21.67,5,21Z" fill="currentColor"/><path d="M14.44,24C13.41,24,13.01,23.6,13.01,22.57C13.04,18.67,13.38,18.44,16.44,16C13.37,13.57,13.04,13.37,13.01,9.47C13.01,8.44,13.41,8.04,14.44,8.04L22.57,8.04C23.6,8.04,24,8.44,24,9.47C23.97,13.37,23.63,13.57,20.57,16C23.64,18.43,23.97,18.67,24,22.57C24,23.6,23.6,24,22.57,24Z" fill="currentColor"/><path d="M14.97,22L22.04,22C22.04,18.6,18.84,19.93,18.84,17.67L18.84,16.04C18.84,15.44,19.07,14.84,19.44,14.41L21.87,11.64C22.4,11.01,21.9,10.91,18.4,10.91C15.1,10.91,14.63,11.01,15.13,11.61L17.56,14.41C17.93,14.84,18.16,15.44,18.16,16.04L18.16,17.67C18.16,19.94,14.96,18.7,14.96,22Z" fill="currentColor"/></svg>