<svg xmlns="http://www.w3.org/2000/svg" viewBox="0 0 24 24"><path d="M20.04,22L23.22,18.79C23.87,20.44,23.91,22,21.83,22Z" fill="currentColor"/><path d="M1.97,16L2,16L2,4.67C2,2.67,2.67,2,4.67,2L19.34,2C21.34,2,22.01,2.67,22.01,4.67L22.01,7.91C21.37,7.68,20.69,7.56,20.01,7.56L20.01,4.68C20.01,4.01,20.01,4.01,19.34,4.01L4.67,4.01C4,4.01,4,4.01,4,4.68L4,16.01L9.16,16.01C7.6,17.81,7.27,20.07,7.98,22.01L2.1,22.01C0.1,22.01,0,20.54,0.83,18.58Z" fill="currentColor"/><path d="M14.97,18.57C13.37,16.97,13.37,14.47,15.1,12.77L17.03,10.87C18.8,9.1,21.26,9.17,22.8,10.77C24.37,12.27,24.43,14.74,22.67,16.5L21.04,18.13C21.17,17.03,21.01,16.26,20.84,15.5L21.24,15.1C22.31,14.03,22.24,13,21.41,12.17C20.51,11.24,19.51,11.17,18.44,12.27L16.51,14.2C15.48,15.2,15.48,16.23,16.38,17.13C16.58,17.33,16.68,17.53,16.68,17.86C16.68,18.39,16.25,18.86,15.68,18.86C15.41,18.86,15.18,18.73,14.98,18.56Z" fill="currentColor"/><path d="M10.77,22.77C9.24,21.27,9.17,18.8,10.94,17.04L12.57,15.37C12.44,16.47,12.6,17.24,12.77,18L12.34,18.43C11.27,19.5,11.34,20.5,12.21,21.36C13.08,22.26,14.08,22.33,15.18,21.26L17.11,19.33C18.11,18.33,18.11,17.26,17.21,16.4C17.04,16.2,16.91,16,16.91,15.67C16.91,15.14,17.34,14.67,17.91,14.67C18.18,14.67,18.44,14.8,18.61,14.94C20.21,16.57,20.21,19.04,18.51,20.77L16.58,22.67C14.81,24.44,12.31,24.37,10.78,22.77Z" fill="currentColor"/></svg>