<svg xmlns="http://www.w3.org/2000/svg" viewBox="0 0 24 24"><path d="M3.66,22C1.66,22,0.99,21.33,0.99,19.33L0.99,16.66C0.99,14.66,1.66,13.99,3.66,13.99L20.33,13.99C22.33,13.99,23,14.66,23,16.66L23,19.33C23,21.33,22.33,22,20.33,22Z" fill="currentColor"/><path d="M6.33,17.97C6.33,17.24,5.73,16.64,5,16.64C4.27,16.64,3.67,17.24,3.67,17.97C3.67,18.7,4.27,19.3,5,19.3C5.73,19.3,6.33,18.7,6.33,17.97Z" fill="currentColor"/><path d="M6.07,10L13.94,10L13.94,8L6.07,8Z" fill="currentColor"/><path d="M4,4.67C4,2.67,4.67,2,6.67,2L17.34,2C19.34,2,20.01,2.67,20.01,4.67L20.01,12L4.01,12Z" fill="currentColor"/><path d="M6.07,6L15.94,6L15.94,4L6.07,4Z" fill="currentColor"/></svg>