<svg xmlns="http://www.w3.org/2000/svg" viewBox="0 0 24 24" fill="currentColor"><path d="M5.48,16L5.5,16L5.5,7.5C5.5,6,6,5.5,7.5,5.5L18.5,5.5C20,5.5,20.51,6,20.51,7.5L20.51,11.13C20.04,10.82,19.54,10.56,19.01,10.38L19.01,7.5C19.01,7,19.01,7,18.5,7L7.5,7C7,7,7,7,7,7.5L7,16L10.04,16C10.01,16.25,10,16.5,10,16.75C10,18.14,10.41,19.43,11.12,20.5L5.57,20.5C4.07,20.5,4,19.4,4.62,17.93ZM16.75,13C14.67,13,13,14.67,13,16.75C13,18.83,14.67,20.5,16.75,20.5C18.83,20.5,20.5,18.83,20.5,16.75C20.5,14.67,18.83,13,16.75,13ZM16.75,11.5C19.65,11.5,22,13.85,22,16.75C22,19.65,19.65,22,16.75,22C13.85,22,11.5,19.65,11.5,16.75C11.5,13.85,13.85,11.5,16.75,11.5ZM16.75,15.95C16.3,15.95,15.95,16.3,15.95,16.75C15.95,17.2,16.3,17.55,16.75,17.55C17.2,17.55,17.55,17.2,17.55,16.75C17.55,16.3,17.2,15.95,16.75,15.95ZM16.75,14.45C18.02,14.45,19.05,15.48,19.05,16.75C19.05,18.02,18.02,19.05,16.75,19.05C15.48,19.05,14.45,18.02,14.45,16.75C14.45,15.48,15.48,14.45,16.75,14.45Z"/></svg>