<svg xmlns="http://www.w3.org/2000/svg" viewBox="0 0 24 24"><path d="M14.9,18C15.05,18,14.27,18.85,14.27,18.57C14.44,13.04,17.67,11.42,17.67,8.97C17.67,5.48,15.36,3.34,11.97,3.34C9.04,3.34,6.34,5.18,6.34,8.94C6.34,11.42,9.57,13.04,9.74,18.57C9.73,18.85,8.95,18,9.11,18Z" fill="currentColor"/><path d="M14.9,20L9.1,20C8.07,20,7.7,19.6,7.73,18.57C7.6,14.24,4.33,13,4.33,8.94C4.33,3.91,8.23,1.34,11.96,1.34C16.33,1.34,19.66,4.41,19.66,8.97C19.66,13,16.39,14.24,16.26,18.57C16.29,19.6,15.93,20,14.89,20Z" fill="currentColor"/><path d="M9.87,22L14.2,22C13.93,23.03,12.87,23.43,12.03,23.43C11.2,23.43,10.13,23.03,9.86,22Z" fill="currentColor"/></svg>