<svg xmlns="http://www.w3.org/2000/svg" viewBox="0 0 24 24" fill="currentColor"><path d="M17.2,19C17.97,19,18.27,18.7,18.27,17.93L18.27,14.08C18.27,13.31,17.97,13.01,17.2,13.01L8.85,13.01C8.08,13.01,7.78,13.31,7.78,14.08L7.78,17.93C7.78,18.7,8.08,19,8.85,19ZM19.75,7.62C20.3,8.15,20.52,8.65,20.52,9.42L20.52,18.5C20.52,20,20.02,20.5,18.52,20.5L7.52,20.5C6.02,20.5,5.51,20,5.51,18.5L5.51,7.49C5.51,5.99,6.02,5.49,7.52,5.49L8.47,5.49L8.47,10.79C8.47,11.24,8.72,11.49,9.17,11.49L16.79,11.49C17.25,11.49,17.49,11.24,17.49,10.79L17.49,5.49ZM13.75,10L13.75,7L16,7L16,10Z"/></svg>