<svg xmlns="http://www.w3.org/2000/svg" viewBox="0 0 24 24"><path d="M9.07,20L10,20L10,22L2.1,22C0.1,22,0,20.53,0.83,18.57L1.96,16L1.99,16L1.99,4.67C1.99,2.67,2.66,2,4.66,2L19.33,2C21.33,2,22,2.67,22,4.67L22,8.24C21.39,7.95,20.72,7.73,20,7.59L20,4.67C20,4,20,4,19.33,4L4.66,4C3.99,4,3.99,4,3.99,4.67L3.99,16L9.99,16L9.99,18L9.26,18Z" fill="currentColor"/><path d="M22.57,23.97L13.4,23.97C12.43,23.97,12.03,23.57,12.03,22.54L12.03,17.34C12.03,16.37,12.43,15.97,13.46,15.97L13.99,15.97L13.99,13.7C13.99,11.2,15.52,9.63,17.99,9.63C20.46,9.63,21.99,11.2,21.99,13.7L21.99,15.97L22.62,15.97C23.59,15.97,23.99,16.37,23.99,17.4L23.99,22.6C23.99,23.57,23.59,23.97,22.56,23.97Z" fill="currentColor"/><path d="M19.17,20.96C19.17,20.29,18.67,19.79,18,19.79C17.33,19.79,16.83,20.29,16.83,20.96C16.83,21.63,17.33,22.13,18,22.13C18.67,22.13,19.17,21.63,19.17,20.96Z" fill="currentColor"/><path d="M16,15.97L20,15.97L20,13.7C20,12.43,19.23,11.63,18,11.63C16.77,11.63,16,12.43,16,13.7Z" fill="currentColor"/></svg>