<svg xmlns="http://www.w3.org/2000/svg" viewBox="0 0 24 24"><path d="M5.03,13L5.03,11L2.66,11C0.66,11,-0.01,10.33,-0.01,8.33L-0.01,4.66C-0.01,2.66,0.66,1.99,2.66,1.99L17.33,1.99C19.33,1.99,20,2.66,20,4.66L20,8.33C20,8.59,19.99,8.82,19.96,9.04C18.79,8.38,17.44,8,16,8C13.46,8,11.21,9.17,9.74,11L7,11L7,13L8.58,13C8.22,13.89,8.02,14.85,8,15.87C7.23,16.02,6.67,16.69,6.67,17.5C6.67,18.43,7.4,19.17,8.34,19.17C8.44,19.17,8.54,19.16,8.64,19.14C9.11,20.24,9.82,21.22,10.7,22L2.67,22C0.67,22,0,21.33,0,19.33L0,15.66C0,13.66,0.67,12.99,2.67,12.99Z" fill="currentColor"/><path d="M5.34,17.5C5.34,16.57,4.61,15.83,3.67,15.83C2.74,15.83,2,16.56,2,17.5C2,18.43,2.73,19.17,3.67,19.17C4.6,19.17,5.34,18.44,5.34,17.5Z" fill="currentColor"/><path d="M5.34,6.5C5.34,5.57,4.61,4.83,3.67,4.83C2.74,4.83,2,5.56,2,6.5C2,7.43,2.73,8.17,3.67,8.17C4.6,8.17,5.34,7.44,5.34,6.5Z" fill="currentColor"/><path d="M10,6.5C10,5.57,9.27,4.83,8.33,4.83C7.4,4.83,6.66,5.56,6.66,6.5C6.66,7.43,7.39,8.17,8.33,8.17C9.26,8.17,10,7.44,10,6.5Z" fill="currentColor"/><path d="M20,16C20,13.73,18.27,12,16,12C13.73,12,12,13.73,12,16C12,18.27,13.73,20,16,20C18.27,20,20,18.27,20,16Z" fill="currentColor"/><path d="M10,16C10,12.7,12.7,10,16,10C19.3,10,22,12.7,22,16C22,19.3,19.3,22,16,22C12.7,22,10,19.3,10,16Z" fill="currentColor"/><path d="M23.6,23.4L23.47,23.53C23.04,23.96,22.57,23.96,22.14,23.53L18.44,19.83L19.91,18.36L23.61,22.06C24.04,22.49,24.04,22.96,23.61,23.39Z" fill="currentColor"/></svg>