<svg xmlns="http://www.w3.org/2000/svg" viewBox="0 0 24 24" fill="currentColor"><path d="M5.48,11.5L5.5,11.5L5.5,20C5.5,21.5,6,22,7.5,22L18.5,22C20,22,20.51,21.5,20.51,20L20.51,17.21C20.03,17.39,19.52,17.63,19.01,17.91L19.01,20C19.01,20.5,19.01,20.5,18.5,20.5L7.5,20.5C7,20.5,7,20.5,7,20L7,11.5L10,11.5L10,10.8C10,9.01,10.16,8.18,11.67,7L5.57,7C4.07,7,4,8.1,4.62,9.57ZM22,15.14C20.78,15.42,18.9,15.77,16.75,17.55C14.63,15.75,12.75,15.42,11.5,15.15L11.5,10.77C11.5,8.22,11.82,8.05,16.75,5.5C21.68,8,22,8.18,22,10.77ZM20.03,12.6L16.45,9.02C16.1,8.67,15.8,8.67,15.45,9.02L13.6,10.88C13.25,11.23,13.25,11.53,13.6,11.88L13.65,11.93C14.01,12.28,14.31,12.28,14.65,11.93L15.95,10.63L18.97,13.65C19.32,14,19.62,14,19.97,13.65L20.02,13.6C20.37,13.25,20.37,12.95,20.02,12.6Z"/></svg>