<svg xmlns="http://www.w3.org/2000/svg" viewBox="0 0 24 24"><path d="M1.97,16L2,16L2,4.67C2,2.67,2.67,2,4.67,2L19.34,2C21.34,2,22.01,2.67,22.01,4.67L22.01,8.39C21.37,8.14,20.7,7.83,20.01,7.46L20.01,4.67C20.01,4,20.01,4,19.34,4L4.67,4C4,4,4,4,4,4.67L4,16L8,16L8,16.93C8,19.32,8.21,20.42,10.23,22L2.1,22C0.1,22,0,20.53,0.83,18.57Z" fill="currentColor"/><path d="M24,16.97L24,11.14C22.37,10.77,19.87,10.31,17,7.94C14.17,10.34,11.67,10.77,10,11.14L10,16.97C10,20.37,10.43,20.6,17,24C23.57,20.67,24,20.43,24,16.97Z" fill="currentColor"/><path d="M21.37,14.53L16.6,19.3C16.13,19.77,15.73,19.77,15.27,19.3L12.8,16.83C12.33,16.36,12.33,15.96,12.8,15.5L12.87,15.43C13.34,14.96,13.74,14.96,14.2,15.43L15.93,17.16L19.96,13.13C20.43,12.66,20.83,12.66,21.29,13.13L21.36,13.2C21.83,13.67,21.83,14.07,21.36,14.53Z" fill="currentColor"/></svg>