<svg xmlns="http://www.w3.org/2000/svg" viewBox="0 0 24 24"><path d="M9.07,20L14.97,20L14.84,18L9.27,18Z" fill="currentColor"/><path d="M2.1,22C0.1,22,0,20.53,0.83,18.57L1.96,16L1.99,16L1.99,4.67C1.99,2.67,2.66,2,4.66,2L10.66,2C10.02,2.57,9.47,3.25,9.04,4L4.66,4C3.99,4,3.99,4,3.99,4.67L3.99,16L15.99,16L19.99,16L21.96,16L23.13,18.57C23.86,20.3,24,22,21.83,22Z" fill="currentColor"/><path d="M20,8C20,5.73,18.27,4,16,4C13.73,4,12,5.73,12,8C12,10.27,13.73,12,16,12C18.27,12,20,10.27,20,8Z" fill="currentColor"/><path d="M10,8C10,4.7,12.7,2,16,2C19.3,2,22,4.7,22,8C22,11.3,19.3,14,16,14C12.7,14,10,11.3,10,8Z" fill="currentColor"/><path d="M23.6,15.4L23.47,15.53C23.04,15.96,22.57,15.96,22.14,15.53L18.44,11.83L19.91,10.36L23.61,14.06C24.04,14.49,24.04,14.96,23.61,15.39Z" fill="currentColor"/></svg>