<svg xmlns="http://www.w3.org/2000/svg" viewBox="0 0 24 24" fill="currentColor"><path d="M7.49,20.5C5.99,20.5,5.49,20,5.49,18.5L5.49,14.99C5.49,13.49,5.99,12.99,7.49,12.99L18.5,12.99C20,12.99,20.5,13.49,20.5,14.99L20.5,18.5C20.5,20,20,20.5,18.5,20.5ZM10.25,16.75C10.25,16.05,9.71,15.5,9,15.5C8.3,15.5,7.75,16.04,7.75,16.75C7.75,17.45,8.3,18,9,18C9.7,18,10.25,17.46,10.25,16.75ZM13.75,16.75C13.75,16.05,13.2,15.5,12.5,15.5C11.8,15.5,11.25,16.04,11.25,16.75C11.25,17.45,11.79,18,12.5,18C13.2,18,13.75,17.46,13.75,16.75ZM9.93,9.15L12.33,6.08C12.83,5.46,13.17,5.46,13.68,6.08L16.08,9.13C16.5,9.68,16.35,10.01,15.65,10.01L10.35,10.01C9.67,10.01,9.5,9.69,9.92,9.16Z"/></svg>