<svg xmlns="http://www.w3.org/2000/svg" viewBox="0 0 24 24" fill="currentColor"><path d="M19.96,9.27C20.32,9.33,20.5,9.57,20.5,10C20.5,10.5,20.25,10.75,19.75,10.75L19,10.75L19,12.25L19.75,12.25C20.25,12.25,20.5,12.5,20.5,13C20.5,13.5,20.25,13.75,19.75,13.75L19,13.75L19,15.25L19.75,15.25C20.25,15.25,20.5,15.5,20.5,16C20.5,16.5,20.25,16.75,19.75,16.75L19,16.75C19,18.15,18.1,19,16.75,19L16.75,19.75C16.75,20.25,16.5,20.5,16,20.5C15.5,20.5,15.25,20.25,15.25,19.75L15.25,19L13.75,19L13.75,19.75C13.75,20.25,13.5,20.5,13,20.5C12.5,20.5,12.25,20.25,12.25,19.75L12.25,19L10.75,19L10.75,19.75C10.75,20.25,10.5,20.5,10,20.5C9.57,20.5,9.33,20.32,9.27,19.96ZM18.83,8.25L8.25,18.82L5.57,21.5L5.55,21.52C5.23,21.84,4.88,21.84,4.55,21.52L4.48,21.45C4.16,21.12,4.16,20.77,4.48,20.45L7.19,17.74C7.07,17.45,7.01,17.12,7.01,16.74L6.26,16.74C5.75,16.74,5.51,16.5,5.51,15.99C5.51,15.49,5.75,15.24,6.26,15.24L7.01,15.24L7.01,13.74L6.26,13.74C5.75,13.74,5.51,13.5,5.51,12.99C5.51,12.49,5.75,12.24,6.26,12.24L7.01,12.24L7.01,10.74L6.26,10.74C5.75,10.74,5.51,10.5,5.51,9.99C5.51,9.49,5.75,9.24,6.26,9.24L7.01,9.24C7.01,7.77,7.88,6.99,9.26,6.99L9.26,6.24C9.26,5.74,9.5,5.49,10.01,5.49C10.51,5.49,10.76,5.74,10.76,6.24L10.76,6.99L12.26,6.99L12.26,6.24C12.26,5.74,12.5,5.49,13.01,5.49C13.51,5.49,13.76,5.74,13.76,6.24L13.76,6.99L15.26,6.99L15.26,6.24C15.26,5.74,15.5,5.49,16.01,5.49C16.51,5.49,16.76,5.74,16.76,6.24L16.76,6.99C17.12,6.99,17.46,7.05,17.75,7.17L20.48,4.44C20.8,4.12,21.15,4.12,21.47,4.44L21.55,4.52C21.87,4.83,21.87,5.18,21.57,5.49C21.56,5.5,21.56,5.51,21.55,5.52Z"/></svg>