<svg xmlns="http://www.w3.org/2000/svg" viewBox="0 0 24 24" fill="currentColor"><path d="M15.17,17.5C15.29,17.5,14.7,18.14,14.7,17.93C14.83,13.78,17.25,12.56,17.25,10.73C17.25,8.11,15.52,6.51,12.98,6.51C10.78,6.51,8.75,7.89,8.75,10.71C8.75,12.57,11.18,13.78,11.3,17.93C11.3,18.14,10.71,17.5,10.83,17.5ZM15.17,19L10.82,19C10.05,19,9.77,18.7,9.8,17.93C9.7,14.68,7.25,13.75,7.25,10.71C7.25,6.93,10.17,5,12.97,5C16.25,5,18.74,7.31,18.74,10.73C18.74,13.75,16.29,14.68,16.2,17.93C16.22,18.7,15.95,19,15.17,19ZM11.4,20.5L14.65,20.5C14.45,21.27,13.65,21.57,13.02,21.57C12.4,21.57,11.6,21.27,11.4,20.5Z"/></svg>