<svg xmlns="http://www.w3.org/2000/svg" viewBox="0 0 24 24"><path d="M2.17,22C0.67,22,0,20.87,0,19.73C0,19.2,0.2,18.66,0.5,18.23L2,16L2,4.67C2,2.67,2.67,2,4.67,2L19.34,2C21.1,2,21.83,2.52,21.98,4L19.35,4L19.34,4L11.97,4L4.67,4C4,4,4,4,4,4.67L4,16L10,16L10,18L6.93,18L6,20L10,20L10,22Z" fill="currentColor"/><path d="M21.33,22L14.66,22C12.66,22,11.99,21.33,11.99,19.33L11.99,8.66C11.99,6.66,12.66,5.99,14.66,5.99L19.99,5.99L21.32,5.99C23.32,5.99,23.99,6.66,23.99,8.66L23.99,19.33C23.99,21.33,23.32,22,21.32,22Z" fill="currentColor"/><path d="M19.53,19C19.53,18.2,18.83,17.5,18.03,17.5C17.2,17.5,16.53,18.2,16.53,19C16.53,19.83,17.2,20.5,18.03,20.5C18.83,20.5,19.53,19.83,19.53,19Z" fill="currentColor"/><path d="M14.03,16L22.03,16L22.03,8L14.03,8Z" fill="currentColor"/></svg>