<svg xmlns="http://www.w3.org/2000/svg" viewBox="0 0 24 24" fill="currentColor"><path d="M7.75,20.07C7.75,19.3,8.05,19,8.82,19L10.88,19L12.34,20.5L7.75,20.5ZM4,7.5C4,6,4.5,5.5,6,5.5L17,5.5C18.5,5.5,19.01,6,19.01,7.5L19.01,11.89C18.51,11.74,18.01,11.63,17.51,11.55L17.51,7.5C17.51,7,17.51,7,17,7L6,7C5.5,7,5.5,7,5.5,7.5L5.5,15.5C5.5,16.01,5.5,16.01,6,16.01L7.99,16.01L9.44,17.51L6.01,17.51C4.51,17.51,4.01,17,4.01,15.51ZM12.23,18.18C14.26,15.85,17.75,15.85,19.77,18.18L18.63,19.16C17.06,17.35,14.94,17.35,13.37,19.16ZM14.4,20.35C15.3,19.2,16.71,19.2,17.58,20.35L16,22ZM10.09,16C13.31,12.43,18.68,12.43,21.9,16L20.79,17C18.02,13.93,13.98,13.93,11.21,17Z"/></svg>