<svg xmlns="http://www.w3.org/2000/svg" viewBox="0 0 24 24" fill="currentColor"><path d="M9.25,19C7.88,19,7,18.15,7,16.75L6.25,16.75C5.75,16.75,5.5,16.5,5.5,16C5.5,15.5,5.75,15.25,6.25,15.25L7,15.25L7,13.75L6.25,13.75C5.75,13.75,5.5,13.5,5.5,13C5.5,12.5,5.75,12.25,6.25,12.25L7,12.25L7,10.75L6.25,10.75C5.75,10.75,5.5,10.5,5.5,10C5.5,9.5,5.75,9.25,6.25,9.25L7,9.25C7,7.77,7.88,7,9.25,7L9.25,6.25C9.25,5.75,9.5,5.5,10,5.5C10.5,5.5,10.75,5.75,10.75,6.25L10.75,7L12.25,7L12.25,6.25C12.25,5.75,12.5,5.5,13,5.5C13.5,5.5,13.75,5.75,13.75,6.25L13.75,7L15.25,7L15.25,6.25C15.25,5.75,15.5,5.5,16,5.5C16.5,5.5,16.75,5.75,16.75,6.25L16.75,7C18.1,7,19,7.77,19,9.25L19.75,9.25C20.25,9.25,20.5,9.5,20.5,10C20.5,10.5,20.25,10.75,19.75,10.75L19,10.75L19,12.25L19.75,12.25C20.25,12.25,20.5,12.5,20.5,13C20.5,13.5,20.25,13.75,19.75,13.75L19,13.75L19,15.25L19.75,15.25C20.25,15.25,20.5,15.5,20.5,16C20.5,16.5,20.25,16.75,19.75,16.75L19,16.75C19,18.15,18.1,19,16.75,19L16.75,19.75C16.75,20.25,16.5,20.5,16,20.5C15.5,20.5,15.25,20.25,15.25,19.75L15.25,19L13.75,19L13.75,19.75C13.75,20.25,13.5,20.5,13,20.5C12.5,20.5,12.25,20.25,12.25,19.75L12.25,19L10.75,19L10.75,19.75C10.75,20.25,10.5,20.5,10,20.5C9.5,20.5,9.25,20.25,9.25,19.75ZM10.8,16.75C11.25,16.75,11.5,16.5,11.5,16.05L11.5,10.33C11.5,9.56,11.2,9.26,10.43,9.26L9.21,9.26C8.76,9.26,8.51,9.51,8.51,9.96L8.51,10.05C8.51,10.5,8.76,10.75,9.21,10.75L10.01,10.75L10.01,16.05C10.01,16.5,10.26,16.75,10.71,16.75ZM16.8,16.75C17.25,16.75,17.5,16.5,17.5,16.05L17.5,9.96C17.5,9.5,17.25,9.26,16.8,9.26L16.71,9.26C16.25,9.26,16.01,9.5,16.01,9.96L16.01,12.26L14.51,12.26L14.51,9.96C14.51,9.5,14.26,9.26,13.81,9.26L13.71,9.26C13.26,9.26,13.02,9.5,13.02,9.96L13.02,12.68C13.02,13.45,13.32,13.75,14.09,13.75L16.02,13.75L16.02,16.05C16.02,16.5,16.26,16.75,16.71,16.75Z"/></svg>