<svg xmlns="http://www.w3.org/2000/svg" viewBox="0 0 24 24"><path d="M6.66,22C4.66,22,3.99,21.33,3.99,19.33L3.99,4.66C3.99,2.66,4.66,1.99,6.66,1.99L17.33,1.99C19.33,1.99,20,2.66,20,4.66L20,19.33C20,21.33,19.33,22,17.33,22Z" fill="currentColor"/><path d="M13.53,19C13.53,18.2,12.83,17.5,12.03,17.5C11.2,17.5,10.53,18.2,10.53,19C10.53,19.83,11.2,20.5,12.03,20.5C12.83,20.5,13.53,19.83,13.53,19Z" fill="currentColor"/><path d="M6,16L18,16L18,4L6,4Z" fill="currentColor"/><path d="M16.4,8.53L11.63,13.3C11.16,13.77,10.76,13.77,10.3,13.3L7.83,10.83C7.36,10.36,7.36,9.96,7.83,9.5L7.9,9.43C8.37,8.96,8.77,8.96,9.23,9.43L10.96,11.16L14.99,7.13C15.46,6.66,15.86,6.66,16.32,7.13L16.39,7.2C16.86,7.67,16.86,8.07,16.39,8.53Z" fill="currentColor"/></svg>