<svg xmlns="http://www.w3.org/2000/svg" viewBox="0 0 24 24"><path d="M7,21L7,20C5.17,20,4,18.87,4,17L3,17C2.33,17,2,16.67,2,16C2,15.33,2.33,15,3,15L4,15L4,13L3,13C2.33,13,2,12.67,2,12C2,11.33,2.33,11,3,11L4,11L4,9L3,9C2.33,9,2,8.67,2,8C2,7.33,2.33,7,3,7L4,7C4,5.03,5.17,4,7,4L7,3C7,2.33,7.33,2,8,2C8.67,2,9,2.33,9,3L9,4L11,4L11,3C11,2.33,11.33,2,12,2C12.67,2,13,2.33,13,3L13,4L15,4L15,3C15,2.33,15.33,2,16,2C16.67,2,17,2.33,17,3L17,4C18.8,4,20,5.03,20,7L21,7C21.67,7,22,7.33,22,8C22,8.67,21.67,9,21,9L20,9L20,11L21,11C21.67,11,22,11.33,22,12C22,12.67,21.67,13,21,13L20,13L20,15L21,15C21.67,15,22,15.33,22,16C22,16.67,21.67,17,21,17L20,17C20,18.87,18.8,20,17,20L17,21C17,21.67,16.67,22,16,22C15.33,22,15,21.67,15,21L15,20L13,20L13,21C13,21.67,12.67,22,12,22C11.33,22,11,21.67,11,21L11,20L9,20L9,21C9,21.67,8.67,22,8,22C7.33,22,7,21.67,7,21Z" fill="currentColor"/><path d="M11.07,17C11.67,17,12,16.67,12,16.07L12,15.94C12,15.34,11.67,15.01,11.07,15.01L8,15.01L8,13.01L10.57,13.01C11.6,13.01,12,12.61,12,11.58L12,8.45C12,7.42,11.6,7.02,10.57,7.02L6.94,7.02C6.34,7.02,6.01,7.35,6.01,7.95L6.01,8.08C6.01,8.68,6.34,9.01,6.94,9.01L10.01,9.01L10.01,11.01L7.44,11.01C6.41,11.01,6.01,11.41,6.01,12.44L6.01,15.57C6.01,16.6,6.41,17,7.44,17Z" fill="currentColor"/><path d="M17.07,17C17.67,17,18,16.67,18,16.07L18,8.44C18,7.41,17.6,7.01,16.57,7.01L14.94,7.01C14.34,7.01,14.01,7.34,14.01,7.94L14.01,8.07C14.01,8.67,14.34,9,14.94,9L16.01,9L16.01,16.07C16.01,16.67,16.34,17,16.94,17Z" fill="currentColor"/></svg>