<svg xmlns="http://www.w3.org/2000/svg" viewBox="0 0 24 24" fill="currentColor"><path d="M13,4C13.62,4,14.13,4.5,14.13,5.13C14.13,5.75,13.62,6.25,13,6.25C12.38,6.25,11.88,5.75,11.88,5.13C11.88,4.5,12.38,4,13,4ZM5.5,10.38C6.12,10.38,6.63,10.88,6.63,11.5C6.63,12.12,6.12,12.63,5.5,12.63C4.88,12.63,4.38,12.12,4.38,11.5C4.38,10.88,4.88,10.38,5.5,10.38ZM20.5,10.38C21.12,10.38,21.63,10.88,21.63,11.5C21.63,12.12,21.12,12.63,20.5,12.63C19.88,12.63,19.38,12.12,19.38,11.5C19.38,10.88,19.88,10.38,20.5,10.38ZM18,5.37C18.63,5.37,19.13,5.88,19.13,6.5C19.13,7.12,18.63,7.62,18,7.62C17.38,7.62,16.88,7.12,16.88,6.5C16.88,5.88,17.38,5.37,18,5.37ZM8,5.37C8.62,5.37,9.12,5.88,9.12,6.5C9.12,7.12,8.62,7.62,8,7.62C7.38,7.62,6.87,7.12,6.87,6.5C6.87,5.88,7.38,5.37,8,5.37ZM14.33,19L11.68,19C10.91,19,10.61,18.7,10.61,17.93L10.61,18.17C10.61,15.38,8.38,15.5,8.38,12.1C8.38,9.75,10.4,7.75,13.01,7.75C15.61,7.75,17.63,9.75,17.63,12.1C17.63,15.5,15.41,15.38,15.41,18.17L15.41,17.93C15.41,18.7,15.11,19,14.34,19ZM14.65,20.5C14.45,21.27,13.65,21.57,13.02,21.57C12.4,21.57,11.6,21.27,11.4,20.5Z"/></svg>