<svg xmlns="http://www.w3.org/2000/svg" viewBox="0 0 24 24" fill="currentColor"><path d="M10.8,19L15.23,19L15.13,17.5L10.95,17.5ZM5.57,20.5C4.07,20.5,4,19.4,4.62,17.93L5.47,16L20.47,16L21.35,17.93C21.89,19.23,22,20.5,20.37,20.5ZM19,16L19,7.5C19,7,19,7,18.5,7L7.49,7C6.99,7,6.99,7,6.99,7.5L6.99,16L5.49,16L5.49,7.5C5.49,6,5.99,5.5,7.49,5.5L18.5,5.5C20,5.5,20.5,6,20.5,7.5L20.5,16ZM11.55,13.75L10.5,13.75L8.85,9.25L9.9,9.25L11.48,13.45L10.63,13.45L12.18,9.25L13.29,9.25ZM15.23,13.83C14.27,13.83,13.45,13.23,13.45,13.23L13.88,12.42C13.88,12.42,14.53,12.85,15.23,12.85C15.9,12.85,16.15,12.75,16.15,12.48C16.15,11.67,13.43,12.45,13.43,10.6C13.43,9.7,14.15,9.18,15.3,9.18C16.2,9.18,17,9.65,17,9.65L16.65,10.42C16.65,10.42,15.88,10.14,15.3,10.14C14.63,10.14,14.4,10.35,14.4,10.59C14.4,11.4,17.13,10.59,17.13,12.47C17.13,13.27,16.35,13.82,15.23,13.82Z"/></svg>