<svg xmlns="http://www.w3.org/2000/svg" viewBox="0 0 24 24"><path d="M19.33,22L12.66,22C10.66,22,9.99,21.33,9.99,19.33L9.99,8.66C9.99,6.66,10.66,5.99,12.66,5.99L15.99,5.99L17.99,5.99L19.32,5.99C21.32,5.99,21.99,6.66,21.99,8.66L21.99,19.33C21.99,21.33,21.32,22,19.32,22Z" fill="currentColor"/><path d="M17.53,19C17.53,18.2,16.83,17.5,16.03,17.5C15.2,17.5,14.53,18.2,14.53,19C14.53,19.83,15.2,20.5,16.03,20.5C16.83,20.5,17.53,19.83,17.53,19Z" fill="currentColor"/><path d="M12.03,16L20.03,16L20.03,8L12.03,8Z" fill="currentColor"/><path d="M15.34,4L15.33,4L9.96,4L4.66,4C3.99,4,3.99,4,3.99,4.67L3.99,19.34C3.99,20.01,3.99,20.01,4.66,20.01L7.99,20.01L7.99,22.01L4.66,22.01C2.66,22.01,1.99,21.34,1.99,19.34L1.99,4.67C1.99,2.67,2.66,2,4.66,2L15.33,2C17.09,2,17.82,2.52,17.97,4Z" fill="currentColor"/></svg>