<svg xmlns="http://www.w3.org/2000/svg" viewBox="0 0 24 24"><path d="M5,21.43C5,20.4,5.4,20,6.43,20L9.18,20L11.12,22L5,22Z" fill="currentColor"/><path d="M0,4.67C0,2.67,0.67,2,2.67,2L17.34,2C19.34,2,20.01,2.67,20.01,4.67L20.01,10.52C19.35,10.32,18.68,10.17,18.01,10.07L18.01,4.67C18.01,4,18.01,4,17.34,4L2.67,4C2,4,2,4,2,4.67L2,15.34C2,16.01,2,16.01,2.67,16.01L5.32,16.01L7.26,18.01L2.68,18.01C0.68,18.01,0.01,17.34,0.01,15.34Z" fill="currentColor"/><path d="M10.98,18.91C13.68,15.8,18.33,15.8,21.02,18.91L19.51,20.22C17.41,17.8,14.59,17.8,12.49,20.22Z" fill="currentColor"/><path d="M13.87,21.8C15.07,20.27,16.94,20.27,18.1,21.8L16,24Z" fill="currentColor"/><path d="M8.12,16C12.42,11.24,19.57,11.24,23.87,16L22.39,17.34C18.69,13.24,13.31,13.24,9.61,17.34Z" fill="currentColor"/></svg>