<svg xmlns="http://www.w3.org/2000/svg" viewBox="0 0 24 24"><path d="M5.03,13L5.03,11L2.66,11C0.66,11,-0.01,10.33,-0.01,8.33L-0.01,4.66C-0.01,2.66,0.66,1.99,2.66,1.99L17.33,1.99C19.33,1.99,20,2.66,20,4.66L20,8.33C20,8.5,20,8.66,19.98,8.81C19.24,8.72,18.47,8.85,17.76,9.27L17.01,9.7L16.2,9.25C14.24,8.17,11.85,9.14,10.99,11L7,11L7,13L10.67,13L10.67,13.35L9.9,13.8C9.08,14.28,8.54,15.01,8.28,15.83C7.38,15.86,6.68,16.58,6.68,17.49C6.68,18.42,7.41,19.16,8.35,19.16C8.47,19.16,8.6,19.15,8.71,19.12C9,19.57,9.4,19.96,9.91,20.25L10.68,20.7L10.68,21.55C10.68,21.7,10.69,21.84,10.71,21.98L2.68,21.98C0.68,21.98,0.01,21.31,0.01,19.31L0.01,15.64C0.01,13.64,0.68,12.97,2.68,12.97Z" fill="currentColor"/><path d="M5.34,17.5C5.34,16.57,4.61,15.83,3.67,15.83C2.74,15.83,2,16.56,2,17.5C2,18.43,2.73,19.17,3.67,19.17C4.6,19.17,5.34,18.44,5.34,17.5Z" fill="currentColor"/><path d="M5.34,6.5C5.34,5.57,4.61,4.83,3.67,4.83C2.74,4.83,2,5.56,2,6.5C2,7.43,2.73,8.17,3.67,8.17C4.6,8.17,5.34,7.44,5.34,6.5Z" fill="currentColor"/><path d="M10,6.5C10,5.57,9.27,4.83,8.33,4.83C7.4,4.83,6.66,5.56,6.66,6.5C6.66,7.43,7.39,8.17,8.33,8.17C9.26,8.17,10,7.44,10,6.5Z" fill="currentColor"/><path d="M14.8,23C14.53,23.37,14.17,23.43,13.8,23.23L13.2,22.86C12.83,22.66,12.7,22.29,12.9,21.89L13.2,21.19C13.33,20.92,13.27,20.56,13.03,20.16L12.16,18.63C12.03,18.36,11.69,18.2,11.23,18.16L10.73,18.09C10.26,18.06,10.03,17.76,10.03,17.32L10.03,16.65C10.03,16.18,10.26,15.92,10.73,15.88L11.46,15.78C11.76,15.78,12.06,15.55,12.29,15.15L13.16,13.62C13.29,13.35,13.29,12.99,13.09,12.59L12.89,12.09C12.69,11.69,12.82,11.32,13.19,11.12L13.79,10.75C14.16,10.55,14.52,10.62,14.79,10.98L15.26,11.61C15.43,11.84,15.79,11.98,16.23,11.98L18,11.98C18.3,11.98,18.6,11.78,18.87,11.41L19.2,10.98C19.47,10.61,19.83,10.55,20.2,10.75L20.8,11.12C21.17,11.32,21.3,11.69,21.1,12.09L20.8,12.79C20.67,13.06,20.73,13.42,20.97,13.82L21.84,15.35C21.97,15.62,22.31,15.78,22.77,15.82L23.27,15.89C23.74,15.92,23.97,16.19,23.97,16.66L23.97,17.33C23.97,17.76,23.74,18.06,23.27,18.1L22.54,18.2C22.24,18.2,21.94,18.43,21.71,18.83L20.84,20.36C20.71,20.63,20.71,20.99,20.91,21.39L21.11,21.89C21.31,22.29,21.18,22.66,20.81,22.86L20.21,23.23C19.84,23.43,19.48,23.36,19.21,23L18.74,22.37C18.57,22.14,18.24,22,17.77,22L16,22C15.7,22,15.4,22.2,15.13,22.57Z" fill="currentColor"/><path d="M14.67,17C14.67,18.3,15.7,19.33,17,19.33C18.3,19.33,19.33,18.3,19.33,17C19.33,15.7,18.3,14.67,17,14.67C15.7,14.67,14.67,15.7,14.67,17Z" fill="currentColor"/></svg>