<svg xmlns="http://www.w3.org/2000/svg" viewBox="0 0 24 24"><path d="M1.97,16L2,16L2,4.67C2,2.67,2.67,2,4.67,2L19.34,2C21.34,2,22.01,2.67,22.01,4.67L22.01,8L20.01,8L20.01,4.67C20.01,4,20.01,4,19.34,4L4.67,4C4,4,4,4,4,4.67L4,16L8.1,16L8.1,22L2.1,22C0.1,22,0,20.53,0.83,18.57Z" fill="currentColor"/><path d="M10,20L10,18L12,18L12,16L10,16L10,14L12,14C12,12.57,12.57,12,14,12L14,10L16,10L16,12L18,12L18,10L20,10L20,12C21.43,12,22,12.57,22,14L24,14L24,16L22,16L22,18L24,18L24,20L22,20C22,21.43,21.43,22,20,22L20,24L18,24L18,22L16,22L16,24L14,24L14,22C12.57,22,12,21.43,12,20Z" fill="currentColor"/></svg>