<svg xmlns="http://www.w3.org/2000/svg" viewBox="0 0 24 24"><path d="M17.33,22L6.66,22C6.54,22,6.42,22,6.3,21.99L12.29,16L17.99,16L17.99,10.3L19.99,8.3L19.99,19.33C19.99,21.33,19.32,22,17.32,22Z" fill="currentColor"/><path d="M13.53,19C13.53,18.2,12.83,17.5,12.03,17.5C11.2,17.5,10.53,18.2,10.53,19C10.53,19.83,11.2,20.5,12.03,20.5C12.83,20.5,13.53,19.83,13.53,19Z" fill="currentColor"/><path d="M6,16L6.57,16L18,4.57L18,4L6,4Z" fill="currentColor"/><path d="M20,5.43L18,7.43L9.43,16L4.33,21.1L2.09,23.34L2.06,23.37C1.63,23.8,1.16,23.8,0.73,23.37L0.63,23.27C0.2,22.84,0.2,22.37,0.63,21.94L4,18.57L4,4.67C4,2.67,4.67,2,6.67,2L17.34,2C18.57,2,19.29,2.25,19.67,2.9L21.97,0.6C22.4,0.17,22.87,0.17,23.3,0.6L23.4,0.7C23.82,1.12,23.83,1.58,23.43,2C23.42,2.01,23.41,2.02,23.4,2.03Z" fill="currentColor"/></svg>