<svg xmlns="http://www.w3.org/2000/svg" viewBox="0 0 24 24"><path d="M7,21.43C7,20.4,7.4,20,8.43,20L15.56,20C16.59,20,16.99,20.4,16.99,21.43L16.99,22L6.99,22Z" fill="currentColor"/><path d="M19.33,16C20,16,20,16,20,15.33L20,4.66C20,3.99,20,3.99,19.33,3.99L4.66,3.99C3.99,3.99,3.99,3.99,3.99,4.66L3.99,15.33C3.99,16,3.99,16,4.66,16Z" fill="currentColor"/><path d="M4.66,18C2.66,18,1.99,17.33,1.99,15.33L1.99,4.66C1.99,2.66,2.66,1.99,4.66,1.99L19.33,1.99C21.33,1.99,22,2.66,22,4.66L22,15.33C22,17.33,21.33,18,19.33,18Z" fill="currentColor"/></svg>