<svg xmlns="http://www.w3.org/2000/svg" viewBox="0 0 24 24"><path d="M14.57,20L9.44,20C8.41,20,8.01,19.6,8.01,18.57L8.01,18.64C8.01,14.01,4.34,14.21,4.34,8.54C4.34,4.64,7.67,1.34,12.01,1.34C16.34,1.34,19.68,4.64,19.68,8.54C19.68,14.21,16.01,14.01,16.01,18.64L16.01,18.57C16.01,19.6,15.61,20,14.58,20Z" fill="currentColor"/><path d="M9.87,22L14.2,22C13.93,23.03,12.87,23.43,12.03,23.43C11.2,23.43,10.13,23.03,9.86,22Z" fill="currentColor"/><path d="M10.27,5.73L10.94,10.33C11.04,10.9,11.31,11.13,11.91,11.13L12.11,11.13C12.71,11.13,12.98,10.9,13.08,10.33L13.75,5.73C13.95,4.5,13.52,4.03,12.25,4.03L11.82,4.03C10.55,4.03,10.12,4.5,10.29,5.73Z" fill="currentColor"/><path d="M13.57,14.23C13.57,13.3,12.97,12.7,12,12.7C11.03,12.7,10.43,13.3,10.43,14.23C10.43,15.2,11.03,15.8,12,15.8C12.97,15.8,13.57,15.2,13.57,14.23Z" fill="currentColor"/></svg>