<svg xmlns="http://www.w3.org/2000/svg" viewBox="0 0 24 24" fill="currentColor"><path d="M7.77,13.75L7.77,12.25L5.99,12.25C4.49,12.25,3.99,11.75,3.99,10.25L3.99,7.5C3.99,6,4.49,5.49,5.99,5.49L17,5.49C18.5,5.49,19,6,19,7.5L19,10.25C19,10.44,18.99,10.62,18.97,10.78C18.09,10.29,17.08,10,16,10C14.1,10,12.41,10.88,11.3,12.25L9.25,12.25L9.25,13.75L10.44,13.75C10.17,14.42,10.02,15.14,10,15.9C9.42,16.02,9,16.52,9,17.13C9,17.82,9.55,18.38,10.25,18.38C10.33,18.38,10.4,18.37,10.48,18.36C10.83,19.18,11.37,19.91,12.03,20.5L6,20.5C4.5,20.5,4,20,4,18.5L4,15.74C4,14.24,4.5,13.74,6,13.74ZM6.75,15.87C6.05,15.87,5.5,16.42,5.5,17.13C5.5,17.82,6.05,18.38,6.75,18.38C7.45,18.38,8,17.83,8,17.13C8,16.43,7.46,15.87,6.75,15.87ZM6.75,7.62C6.05,7.62,5.5,8.17,5.5,8.88C5.5,9.57,6.05,10.13,6.75,10.13C7.45,10.13,8,9.58,8,8.88C8,8.18,7.46,7.62,6.75,7.62ZM10.25,7.62C9.55,7.62,9,8.17,9,8.88C9,9.57,9.54,10.13,10.25,10.13C10.95,10.13,11.5,9.58,11.5,8.88C11.5,8.18,10.95,7.62,10.25,7.62ZM16,13C14.3,13,13,14.3,13,16C13,17.7,14.3,19,16,19C17.7,19,19,17.7,19,16C19,14.3,17.7,13,16,13ZM16,11.5C18.48,11.5,20.5,13.52,20.5,16C20.5,18.48,18.48,20.5,16,20.5C13.52,20.5,11.5,18.48,11.5,16C11.5,13.52,13.52,11.5,16,11.5ZM21.7,21.55L21.6,21.65C21.28,21.97,20.93,21.97,20.61,21.65L17.83,18.87L18.93,17.77L21.71,20.54C22.03,20.87,22.03,21.22,21.71,21.54Z"/></svg>