<svg xmlns="http://www.w3.org/2000/svg" viewBox="0 0 24 24" fill="currentColor"><path d="M18.5,20.5L13.49,20.5C11.99,20.5,11.49,20,11.49,18.5L11.49,10.49C11.49,8.99,11.99,8.49,13.49,8.49L15.99,8.49L17.49,8.49L18.49,8.49C19.99,8.49,20.49,8.99,20.49,10.49L20.49,18.5C20.49,20,19.99,20.5,18.49,20.5ZM16.02,17.13C15.4,17.13,14.9,17.65,14.9,18.25C14.9,18.87,15.4,19.38,16.02,19.38C16.62,19.38,17.15,18.87,17.15,18.25C17.15,17.65,16.62,17.13,16.02,17.13ZM13.02,16L19.02,16L19.02,10L13.02,10ZM15.5,7L15.5,7L11.47,7L7.49,7C6.99,7,6.99,7,6.99,7.5L6.99,18.5C6.99,19.01,6.99,19.01,7.49,19.01L9.99,19.01L9.99,20.51L7.49,20.51C5.99,20.51,5.49,20,5.49,18.51L5.49,7.5C5.49,6,5.99,5.5,7.49,5.5L15.5,5.5C16.82,5.5,17.37,5.89,17.48,7Z"/></svg>