<svg xmlns="http://www.w3.org/2000/svg" viewBox="0 0 24 24"><path d="M4.7,22C2.7,22,2.03,21.33,2.03,19.33L2.03,14.66C2.03,12.66,2.7,11.99,4.7,11.99L19.37,11.99C21.37,11.99,22.04,12.66,22.04,14.66L22.04,19.33C22.04,21.33,21.37,22,19.37,22Z" fill="currentColor"/><path d="M8.37,17C8.37,16.07,7.64,15.33,6.7,15.33C5.77,15.33,5.03,16.06,5.03,17C5.03,17.93,5.76,18.67,6.7,18.67C7.63,18.67,8.37,17.94,8.37,17Z" fill="currentColor"/><path d="M13.04,17C13.04,16.07,12.31,15.33,11.37,15.33C10.44,15.33,9.7,16.06,9.7,17C9.7,17.93,10.43,18.67,11.37,18.67C12.3,18.67,13.04,17.94,13.04,17Z" fill="currentColor"/><path d="M16.13,3.13L12.93,7.23C12.26,8.06,11.8,8.06,11.13,7.23L7.93,3.16C7.36,2.43,7.56,1.99,8.5,1.99L15.57,1.99C16.47,1.99,16.7,2.42,16.14,3.12Z" fill="currentColor"/></svg>