<svg xmlns="http://www.w3.org/2000/svg" viewBox="0 0 24 24" fill="currentColor"><path d="M8.5,19C8,19,7.75,18.75,7.75,18.25L7.75,17.5C6.38,17.5,5.5,16.65,5.5,15.25L4.75,15.25C4.25,15.25,4,15,4,14.5C4,14,4.25,13.75,4.75,13.75L5.5,13.75L5.5,12.25L4.75,12.25C4.25,12.25,4,12,4,11.5C4,11,4.25,10.75,4.75,10.75L5.5,10.75L5.5,9.25L4.75,9.25C4.25,9.25,4,9,4,8.5C4,8,4.25,7.75,4.75,7.75L5.5,7.75C5.5,6.27,6.38,5.5,7.75,5.5L7.75,4.75C7.75,4.25,8,4,8.5,4C9,4,9.25,4.25,9.25,4.75L9.25,5.5L10.75,5.5L10.75,4.75C10.75,4.25,11,4,11.5,4C12,4,12.25,4.25,12.25,4.75L12.25,5.5L13.75,5.5L13.75,4.75C13.75,4.25,14,4,14.5,4C15,4,15.25,4.25,15.25,4.75L15.25,5.5C16.35,5.5,17.15,6.02,17.41,7C15.52,7.05,13.88,8.75,13.88,10.62C13.88,11,13.98,11.48,14.19,11.96C13.09,13.04,13.23,14.74,14.62,15.7C14.47,15.86,14.26,16.03,13.96,16.28C13.57,16.62,13.16,17.03,12.8,17.49L12.25,17.49L12.25,18.24C12.25,18.27,12.25,18.3,12.25,18.33C12.16,18.5,12.08,18.67,12,18.86C11.88,18.95,11.71,18.99,11.5,18.99C11,18.99,10.75,18.75,10.75,18.24L10.75,17.49L9.25,17.49L9.25,18.24C9.25,18.75,9,18.99,8.5,18.99ZM21.83,20.5L13.18,20.5C13.18,18.95,14.08,18.17,14.93,17.42C15.75,16.75,16.43,16.13,16.43,14.85L16.43,14.35L15.17,14.35C15.02,14.05,14.95,13.73,14.95,13.37L16.43,12.5C15.73,11.97,15.38,11.37,15.38,10.62C15.38,9.47,16.33,8.5,17.5,8.5C18.68,8.5,19.62,9.47,19.62,10.62C19.62,11.37,19.27,11.97,18.57,12.44L20.07,13.37C20.07,13.72,20.02,14.04,19.83,14.34L18.57,14.34L18.57,14.84C18.57,16.12,19.5,16.74,20.32,17.42C21.17,18.17,21.82,18.94,21.82,20.49Z"/></svg>