<svg xmlns="http://www.w3.org/2000/svg" viewBox="0 0 24 24" fill="currentColor"><path d="M8.99,20.5C7.49,20.5,6.99,20,6.99,18.5L6.99,7.49C6.99,5.99,7.49,5.49,8.99,5.49L17,5.49C18.5,5.49,19,5.99,19,7.49L19,18.5C19,20,18.5,20.5,17,20.5ZM14.15,18.25C14.15,17.65,13.62,17.13,13.02,17.13C12.4,17.13,11.9,17.65,11.9,18.25C11.9,18.87,12.4,19.38,13.02,19.38C13.62,19.38,14.15,18.87,14.15,18.25ZM8.5,16L17.5,16L17.5,7L8.5,7ZM16.3,10.4L12.72,13.97C12.37,14.33,12.07,14.33,11.72,13.97L9.87,12.12C9.52,11.77,9.52,11.47,9.87,11.12L9.92,11.07C10.28,10.72,10.58,10.72,10.92,11.07L12.22,12.37L15.24,9.35C15.59,8.99,15.89,8.99,16.24,9.35L16.29,9.4C16.64,9.75,16.64,10.05,16.29,10.4Z"/></svg>