<svg xmlns="http://www.w3.org/2000/svg" viewBox="0 0 24 24"><path d="M7.03,13.1L7.03,10.9L9,10.9L9,13.1Z" fill="currentColor"/><path d="M4.66,22C2.66,22,1.99,21.33,1.99,19.33L1.99,15.66C1.99,13.66,2.66,12.99,4.66,12.99L19.33,12.99C21.33,12.99,22,13.66,22,15.66L22,19.33C22,21.33,21.33,22,19.33,22Z" fill="currentColor"/><path d="M7.34,17.5C7.34,16.57,6.61,15.83,5.67,15.83C4.74,15.83,4,16.56,4,17.5C4,18.43,4.73,19.17,5.67,19.17C6.6,19.17,7.34,18.44,7.34,17.5Z" fill="currentColor"/><path d="M12,17.5C12,16.57,11.27,15.83,10.33,15.83C9.4,15.83,8.66,16.56,8.66,17.5C8.66,18.43,9.39,19.17,10.33,19.17C11.26,19.17,12,18.44,12,17.5Z" fill="currentColor"/><path d="M4.66,11C2.66,11,1.99,10.33,1.99,8.33L1.99,4.66C1.99,2.66,2.66,1.99,4.66,1.99L19.33,1.99C21.33,1.99,22,2.66,22,4.66L22,8.33C22,10.33,21.33,11,19.33,11Z" fill="currentColor"/><path d="M7.34,6.5C7.34,5.57,6.61,4.83,5.67,4.83C4.74,4.83,4,5.56,4,6.5C4,7.43,4.73,8.17,5.67,8.17C6.6,8.17,7.34,7.44,7.34,6.5Z" fill="currentColor"/><path d="M12,6.5C12,5.57,11.27,4.83,10.33,4.83C9.4,4.83,8.66,5.56,8.66,6.5C8.66,7.43,9.39,8.17,10.33,8.17C11.26,8.17,12,7.44,12,6.5Z" fill="currentColor"/></svg>