<svg xmlns="http://www.w3.org/2000/svg" viewBox="0 0 24 24"><path d="M7,21L7,20C5.17,20,4,18.87,4,17L3,17C2.33,17,2,16.67,2,16C2,15.33,2.33,15,3,15L4,15L4,13L3,13C2.33,13,2,12.67,2,12C2,11.33,2.33,11,3,11L4,11L4,9L3,9C2.33,9,2,8.67,2,8C2,7.33,2.33,7,3,7L4,7C4,5.03,5.17,4,7,4L7,3C7,2.33,7.33,2,8,2C8.67,2,9,2.33,9,3L9,4L11,4L11,3C11,2.33,11.33,2,12,2C12.67,2,13,2.33,13,3L13,4L15,4L15,3C15,2.33,15.33,2,16,2C16.67,2,17,2.33,17,3L17,4C18.8,4,20,5.03,20,7L21,7C21.67,7,22,7.33,22,8C22,8.67,21.67,9,21,9L20,9L20,11L21,11C21.67,11,22,11.33,22,12C22,12.67,21.67,13,21,13L20,13L20,15L21,15C21.67,15,22,15.33,22,16C22,16.67,21.67,17,21,17L20,17C20,18.87,18.8,20,17,20L17,21C17,21.67,16.67,22,16,22C15.33,22,15,21.67,15,21L15,20L13,20L13,21C13,21.67,12.67,22,12,22C11.33,22,11,21.67,11,21L11,20L9,20L9,21C9,21.67,8.67,22,8,22C7.33,22,7,21.67,7,21Z" fill="currentColor"/><path d="M10.27,7.73L10.94,12.33C11.04,12.9,11.31,13.13,11.91,13.13L12.11,13.13C12.71,13.13,12.98,12.9,13.08,12.33L13.75,7.73C13.95,6.5,13.52,6.03,12.25,6.03L11.82,6.03C10.55,6.03,10.12,6.5,10.29,7.73Z" fill="currentColor"/><path d="M13.57,16.23C13.57,15.3,12.97,14.7,12,14.7C11.03,14.7,10.43,15.3,10.43,16.23C10.43,17.2,11.03,17.8,12,17.8C12.97,17.8,13.57,17.2,13.57,16.23Z" fill="currentColor"/></svg>