<svg xmlns="http://www.w3.org/2000/svg" viewBox="0 0 24 24" fill="currentColor"><path d="M11.08,19C10.32,19,10.02,18.71,10.01,17.97C10.01,17.96,10.01,17.94,10.01,17.92C9.98,14.5,7.26,14.63,7.26,10.4C7.26,7.47,9.75,5,13.01,5C16.26,5,18.76,7.47,18.76,10.4C18.76,14.63,16.04,14.5,16.01,17.92C16.01,17.93,16.01,17.95,16.01,17.97C15.99,18.71,15.69,19,14.93,19ZM14.65,20.5C14.45,21.27,13.65,21.57,13.02,21.57C12.4,21.57,11.6,21.27,11.4,20.5ZM12.95,12.55C15.82,12.55,16.5,10.92,16.5,9.85C16.5,7.92,14.92,6.93,13.22,6.93C11.74,6.93,10.64,7.73,10.07,8.28C9.77,8.6,9.75,8.85,10.02,9.2L10.41,9.67C10.71,10.05,10.94,10.05,11.24,9.75C11.69,9.35,12.41,8.85,13.26,8.85C13.91,8.85,14.59,9.07,14.59,9.87C14.59,10.55,14.04,10.62,12.94,10.62L12.69,10.62C12.24,10.62,12.07,10.8,12.07,11.22L12.07,11.92C12.07,12.37,12.24,12.54,12.67,12.54ZM14.18,14.67C14.18,13.98,13.73,13.52,13,13.52C12.27,13.52,11.82,13.98,11.82,14.67C11.82,15.4,12.27,15.85,13,15.85C13.73,15.85,14.18,15.4,14.18,14.67Z"/></svg>