<svg xmlns="http://www.w3.org/2000/svg" viewBox="0 0 24 24" fill="currentColor"><path d="M9.27,13.83L9.27,12.18L10.75,12.18L10.75,13.83ZM7.49,20.5C5.99,20.5,5.49,20,5.49,18.5L5.49,15.74C5.49,14.24,5.99,13.74,7.49,13.74L18.5,13.74C20,13.74,20.5,14.24,20.5,15.74L20.5,18.5C20.5,20,20,20.5,18.5,20.5ZM9.5,17.13C9.5,16.43,8.96,15.87,8.25,15.87C7.55,15.87,7,16.42,7,17.13C7,17.82,7.55,18.38,8.25,18.38C8.95,18.38,9.5,17.83,9.5,17.13ZM13,17.13C13,16.43,12.45,15.87,11.75,15.87C11.05,15.87,10.5,16.42,10.5,17.13C10.5,17.82,11.04,18.38,11.75,18.38C12.45,18.38,13,17.83,13,17.13ZM7.49,12.25C5.99,12.25,5.49,11.75,5.49,10.25L5.49,7.5C5.49,6,5.99,5.49,7.49,5.49L18.5,5.49C20,5.49,20.5,6,20.5,7.5L20.5,10.25C20.5,11.75,20,12.25,18.5,12.25ZM9.5,8.88C9.5,8.18,8.96,7.62,8.25,7.62C7.55,7.62,7,8.17,7,8.88C7,9.57,7.55,10.13,8.25,10.13C8.95,10.13,9.5,9.58,9.5,8.88ZM13,8.88C13,8.18,12.45,7.62,11.75,7.62C11.05,7.62,10.5,8.17,10.5,8.88C10.5,9.57,11.04,10.13,11.75,10.13C12.45,10.13,13,9.58,13,8.88Z"/></svg>