<svg xmlns="http://www.w3.org/2000/svg" viewBox="0 0 24 24" fill="currentColor"><path d="M10.8,19L11.5,19L11.5,20.5L5.57,20.5C4.07,20.5,4,19.4,4.62,17.93L5.47,16L5.49,16L5.49,7.5C5.49,6,6,5.5,7.5,5.5L18.5,5.5C20,5.5,20.5,6,20.5,7.5L20.5,10.18C20.04,9.96,19.54,9.8,19,9.69L19,7.5C19,7,19,7,18.5,7L7.49,7C6.99,7,6.99,7,6.99,7.5L6.99,16L11.49,16L11.49,17.5L10.94,17.5ZM20.93,21.98L14.05,21.98C13.32,21.98,13.02,21.68,13.02,20.91L13.02,17C13.02,16.28,13.32,15.98,14.09,15.98L14.49,15.98L14.49,14.27C14.49,12.4,15.64,11.22,17.49,11.22C19.34,11.22,20.49,12.4,20.49,14.27L20.49,15.98L20.96,15.98C21.69,15.98,21.99,16.28,21.99,17.05L21.99,20.95C21.99,21.68,21.69,21.98,20.92,21.98ZM18.38,19.72C18.38,19.22,18,18.84,17.5,18.84C17,18.84,16.62,19.22,16.62,19.72C16.62,20.22,17,20.6,17.5,20.6C18,20.6,18.38,20.22,18.38,19.72ZM16,15.98L19,15.98L19,14.27C19,13.32,18.42,12.72,17.5,12.72C16.58,12.72,16,13.32,16,14.27Z"/></svg>