<svg xmlns="http://www.w3.org/2000/svg" viewBox="0 0 24 24"><path d="M9.07,20L14.97,20L14.84,18L9.27,18Z" fill="currentColor"/><path d="M2.1,22C0.1,22,0,20.53,0.83,18.57L1.96,16L21.96,16L23.13,18.57C23.86,20.3,24,22,21.83,22Z" fill="currentColor"/><path d="M20,16L20,4.67C20,4,20,4,19.33,4L4.66,4C3.99,4,3.99,4,3.99,4.67L3.99,16L1.99,16L1.99,4.67C1.99,2.67,2.66,2,4.66,2L19.33,2C21.33,2,22,2.67,22,4.67L22,16Z" fill="currentColor"/><path d="M17.3,8.17L11.53,14C10.96,14.57,10.5,14.57,9.93,14L6.9,10.97C6.33,10.4,6.33,9.94,6.9,9.37L7,9.27C7.57,8.7,8.03,8.7,8.6,9.27L10.73,11.37L15.6,6.5C16.17,5.93,16.63,5.93,17.23,6.5L17.26,6.57C17.86,7.14,17.86,7.6,17.29,8.17Z" fill="currentColor"/></svg>