<svg xmlns="http://www.w3.org/2000/svg" viewBox="0 0 24 24" fill="currentColor"><path d="M10.8,19L15.23,19L15.13,17.5L10.95,17.5ZM5.57,20.5C4.07,20.5,4,19.4,4.62,17.93L5.47,16L5.49,16L5.49,7.5C5.49,6,5.99,5.5,7.49,5.5L11.99,5.5C11.51,5.93,11.1,6.44,10.78,7L7.5,7C6.99,7,6.99,7,6.99,7.5L6.99,16L15.99,16L18.99,16L20.47,16L21.35,17.93C21.9,19.23,22,20.5,20.37,20.5ZM16,7C14.3,7,13,8.3,13,10C13,11.7,14.3,13,16,13C17.7,13,19,11.7,19,10C19,8.3,17.7,7,16,7ZM16,5.5C18.48,5.5,20.5,7.52,20.5,10C20.5,12.48,18.48,14.5,16,14.5C13.52,14.5,11.5,12.48,11.5,10C11.5,7.52,13.52,5.5,16,5.5ZM21.7,15.55L21.6,15.65C21.28,15.97,20.93,15.97,20.61,15.65L17.83,12.87L18.93,11.77L21.71,14.54C22.03,14.87,22.03,15.22,21.71,15.54Z"/></svg>