<svg xmlns="http://www.w3.org/2000/svg" viewBox="0 0 24 24"><path d="M17.33,20C18,20,18,20,18,19.33L18,4.66C18,3.99,18,3.99,17.33,3.99L6.66,3.99C5.99,3.99,5.99,3.99,5.99,4.66L5.99,19.33C5.99,20,5.99,20,6.66,20Z" fill="currentColor"/><path d="M6.66,22C4.66,22,3.99,21.33,3.99,19.33L3.99,4.66C3.99,2.66,4.66,1.99,6.66,1.99L17.33,1.99C19.33,1.99,20,2.66,20,4.66L20,19.33C20,21.33,19.33,22,17.33,22Z" fill="currentColor"/><path d="M13.57,8L10.44,8C9.41,8,9.01,7.6,9.01,6.57L9.01,6L15.01,6L15.01,6.57C15.01,7.6,14.61,8,13.58,8Z" fill="currentColor"/></svg>