<svg xmlns="http://www.w3.org/2000/svg" viewBox="0 0 24 24"><path d="M7,21L7,20C5.17,20,4,18.87,4,17L3,17C2.33,17,2,16.67,2,16C2,15.33,2.33,15,3,15L4,15L4,13L3,13C2.33,13,2,12.67,2,12C2,11.33,2.33,11,3,11L4,11L4,9L3,9C2.33,9,2,8.67,2,8C2,7.33,2.33,7,3,7L4,7C4,5.03,5.17,4,7,4L7,3C7,2.33,7.33,2,8,2C8.67,2,9,2.33,9,3L9,4L11,4L11,3C11,2.33,11.33,2,12,2C12.67,2,13,2.33,13,3L13,4L15,4L15,3C15,2.33,15.33,2,16,2C16.67,2,17,2.33,17,3L17,4C18.8,4,20,5.03,20,7L21,7C21.67,7,22,7.33,22,8C22,8.67,21.67,9,21,9L20,9L20,11L21,11C21.67,11,22,11.33,22,12C22,12.67,21.67,13,21,13L20,13L20,15L21,15C21.67,15,22,15.33,22,16C22,16.67,21.67,17,21,17L20,17C20,18.87,18.8,20,17,20L17,21C17,21.67,16.67,22,16,22C15.33,22,15,21.67,15,21L15,20L13,20L13,21C13,21.67,12.67,22,12,22C11.33,22,11,21.67,11,21L11,20L9,20L9,21C9,21.67,8.67,22,8,22C7.33,22,7,21.67,7,21Z" fill="currentColor"/><path d="M9.07,17C9.67,17,10,16.67,10,16.07L10,8.44C10,7.41,9.6,7.01,8.57,7.01L6.94,7.01C6.34,7.01,6.01,7.34,6.01,7.94L6.01,8.07C6.01,8.67,6.34,9,6.94,9L8.01,9L8.01,16.07C8.01,16.67,8.34,17,8.94,17Z" fill="currentColor"/><path d="M18,12.43C18,11.4,17.6,11,16.57,11L14,11L14,9L17.07,9C17.67,9,18,8.67,18,8.07L18,7.94C18,7.34,17.67,7.01,17.07,7.01L13.44,7.01C12.41,7.01,12.01,7.41,12.01,8.44L12.01,11.57C12.01,12.6,12.41,13,13.44,13L16.01,13L16.01,15L12.94,15C12.34,15,12.01,15.33,12.01,15.93L12.01,16.06C12.01,16.66,12.34,16.99,12.94,16.99L16.57,16.99C17.6,16.99,18,16.59,18,15.56Z" fill="currentColor"/></svg>