<svg xmlns="http://www.w3.org/2000/svg" viewBox="0 0 24 24" fill="currentColor"><path d="M10.8,19L15.23,19L15.13,17.5L10.95,17.5ZM5.57,20.5C4.07,20.5,4,19.4,4.62,17.93L5.47,16L20.47,16L21.35,17.93C21.89,19.23,22,20.5,20.37,20.5ZM19,16L19,7.5C19,7,19,7,18.5,7L7.49,7C6.99,7,6.99,7,6.99,7.5L6.99,16L5.49,16L5.49,7.5C5.49,6,5.99,5.5,7.49,5.5L18.5,5.5C20,5.5,20.5,6,20.5,7.5L20.5,16ZM16.98,10.13L12.65,14.5C12.22,14.93,11.88,14.93,11.45,14.5L9.18,12.23C8.75,11.8,8.75,11.46,9.18,11.03L9.25,10.95C9.68,10.53,10.02,10.53,10.45,10.95L12.05,12.53L15.7,8.88C16.13,8.45,16.47,8.45,16.92,8.88L16.95,8.93C17.4,9.36,17.4,9.7,16.97,10.13Z"/></svg>