<svg xmlns="http://www.w3.org/2000/svg" viewBox="0 0 24 24"><path d="M14.57,20L9.44,20C8.43,20,8.02,19.62,8.01,18.63C8.01,18.61,8.01,18.59,8.01,18.56C7.97,14,4.34,14.17,4.34,8.53C4.34,4.63,7.67,1.33,12.01,1.33C16.34,1.33,19.68,4.63,19.68,8.53C19.68,14.17,16.05,14,16.01,18.56C16.01,18.58,16.01,18.6,16.01,18.63C15.99,19.61,15.59,20,14.58,20Z" fill="currentColor"/><path d="M9.87,22L14.2,22C13.93,23.03,12.87,23.43,12.03,23.43C11.2,23.43,10.13,23.03,9.86,22Z" fill="currentColor"/><path d="M11.93,11.4C15.76,11.4,16.66,9.23,16.66,7.8C16.66,5.23,14.56,3.9,12.29,3.9C10.32,3.9,8.86,4.97,8.09,5.7C7.69,6.13,7.66,6.47,8.02,6.93L8.55,7.56C8.95,8.06,9.25,8.06,9.65,7.66C10.25,7.13,11.22,6.46,12.35,6.46C13.22,6.46,14.12,6.76,14.12,7.83C14.12,8.73,13.39,8.83,11.92,8.83L11.59,8.83C10.99,8.83,10.76,9.06,10.76,9.63L10.76,10.56C10.76,11.16,10.99,11.39,11.56,11.39Z" fill="currentColor"/><path d="M13.57,14.23C13.57,13.3,12.97,12.7,12,12.7C11.03,12.7,10.43,13.3,10.43,14.23C10.43,15.2,11.03,15.8,12,15.8C12.97,15.8,13.57,15.2,13.57,14.23Z" fill="currentColor"/></svg>