<svg xmlns="http://www.w3.org/2000/svg" viewBox="0 0 24 24" fill="currentColor"><path d="M10.8,19L15.23,19L15.13,17.5L10.95,17.5ZM5.57,20.5C4.07,20.5,4,19.4,4.62,17.93L5.47,16L20.47,16L21.35,17.93C21.89,19.23,22,20.5,20.37,20.5ZM19,16L19,7.5C19,7,19,7,18.5,7L7.49,7C6.99,7,6.99,7,6.99,7.5L6.99,16L5.49,16L5.49,7.5C5.49,6,5.99,5.5,7.49,5.5L18.5,5.5C20,5.5,20.5,6,20.5,7.5L20.5,16ZM10.5,14.48L8.5,14.48L8.5,12.23L10.5,12.23ZM17.5,14.48L15.5,14.48L15.5,9.98L17.5,9.98ZM14,14.48L11.99,14.48L11.99,8.48L14,8.48Z"/></svg>