<svg xmlns="http://www.w3.org/2000/svg" viewBox="0 0 24 24" fill="currentColor"><path d="M5.48,16L5.5,16L5.5,7.5C5.5,6,6,5.5,7.5,5.5L18.5,5.5C20,5.5,20.51,6,20.51,7.5L20.51,11.13C20.04,10.82,19.54,10.56,19.01,10.38L19.01,7.5C19.01,7,19.01,7,18.5,7L7.5,7C7,7,7,7,7,7.5L7,16L10.04,16C10.01,16.25,10,16.5,10,16.75C10,18.14,10.41,19.43,11.12,20.5L5.57,20.5C4.07,20.5,4,19.4,4.62,17.93ZM20.5,16.75C20.5,14.62,18.88,13,16.75,13C14.64,13,13,14.63,13,16.75C13,18.85,14.65,20.5,16.75,20.5C18.87,20.5,20.5,18.86,20.5,16.75ZM11.5,16.75C11.5,13.85,13.88,11.5,16.75,11.5C19.65,11.5,22,13.85,22,16.75C22,19.62,19.65,22,16.75,22C13.88,22,11.5,19.62,11.5,16.75ZM13.17,19.27L19.27,13.17L20.33,14.23L14.23,20.33Z"/></svg>