<svg xmlns="http://www.w3.org/2000/svg" viewBox="0 0 24 24"><path d="M7,21L7,20C5.17,20,4,18.87,4,17L3,17C2.33,17,2,16.67,2,16C2,15.33,2.33,15,3,15L4,15L4,13L3,13C2.33,13,2,12.67,2,12C2,11.33,2.33,11,3,11L4,11L4,9L3,9C2.33,9,2,8.67,2,8C2,7.33,2.33,7,3,7L4,7C4,5.03,5.17,4,7,4L7,3C7,2.33,7.33,2,8,2C8.67,2,9,2.33,9,3L9,4L11,4L11,3C11,2.33,11.33,2,12,2C12.67,2,13,2.33,13,3L13,4L15,4L15,3C15,2.33,15.33,2,16,2C16.67,2,17,2.33,17,3L17,4C18.8,4,20,5.03,20,7L21,7C21.67,7,22,7.33,22,8C22,8.67,21.67,9,21,9L20,9L20,11L21,11C21.67,11,22,11.33,22,12C22,12.67,21.67,13,21,13L20,13L20,15L21,15C21.67,15,22,15.33,22,16C22,16.67,21.67,17,21,17L20,17C20,18.87,18.8,20,17,20L17,21C17,21.67,16.67,22,16,22C15.33,22,15,21.67,15,21L15,20L13,20L13,21C13,21.67,12.67,22,12,22C11.33,22,11,21.67,11,21L11,20L9,20L9,21C9,21.67,8.67,22,8,22C7.33,22,7,21.67,7,21Z" fill="currentColor"/><path d="M17.63,10.13C18.26,9.5,18.26,9.03,17.63,8.4L17.53,8.33C16.9,7.7,16.43,7.7,15.8,8.33L10.63,13.5L8.4,11.27C7.77,10.64,7.3,10.64,6.67,11.27L6.6,11.37C5.97,12,5.97,12.47,6.6,13.1L9.77,16.27C10.4,16.9,10.87,16.9,11.5,16.27Z" fill="currentColor"/></svg>