<svg xmlns="http://www.w3.org/2000/svg" viewBox="0 0 24 24"><path d="M10.5,1.5C10.5,0.67,11.17,0,12,0C12.83,0,13.5,0.67,13.5,1.5C13.5,2.33,12.83,3,12,3C11.17,3,10.5,2.33,10.5,1.5Z" fill="currentColor"/><path d="M0.5,10C0.5,9.17,1.17,8.5,2,8.5C2.83,8.5,3.5,9.17,3.5,10C3.5,10.83,2.83,11.5,2,11.5C1.17,11.5,0.5,10.83,0.5,10Z" fill="currentColor"/><path d="M20.5,10C20.5,9.17,21.17,8.5,22,8.5C22.83,8.5,23.5,9.17,23.5,10C23.5,10.83,22.83,11.5,22,11.5C21.17,11.5,20.5,10.83,20.5,10Z" fill="currentColor"/><path d="M17.17,3.33C17.17,2.5,17.84,1.83,18.67,1.83C19.5,1.83,20.17,2.5,20.17,3.33C20.17,4.16,19.5,4.83,18.67,4.83C17.84,4.83,17.17,4.16,17.17,3.33Z" fill="currentColor"/><path d="M3.83,3.33C3.83,2.5,4.5,1.83,5.33,1.83C6.16,1.83,6.83,2.5,6.83,3.33C6.83,4.16,6.16,4.83,5.33,4.83C4.5,4.83,3.83,4.16,3.83,3.33Z" fill="currentColor"/><path d="M13.77,20L10.24,20C9.21,20,8.81,19.6,8.81,18.57L8.81,18.9C8.81,15.17,5.84,15.33,5.84,10.8C5.84,7.67,8.54,5,12.01,5C15.48,5,18.18,7.67,18.18,10.8C18.18,15.33,15.21,15.17,15.21,18.9L15.21,18.57C15.21,19.6,14.81,20,13.78,20Z" fill="currentColor"/><path d="M9.87,22L14.2,22C13.93,23.03,12.87,23.43,12.03,23.43C11.2,23.43,10.13,23.03,9.86,22Z" fill="currentColor"/></svg>