<svg xmlns="http://www.w3.org/2000/svg" viewBox="0 0 24 24" fill="currentColor"><path d="M17,20.5L8.99,20.5C8.9,20.5,8.81,20.5,8.72,20.49L13.22,16L17.49,16L17.49,11.73L18.99,10.23L18.99,18.5C18.99,20,18.49,20.5,16.99,20.5ZM14.15,18.25C14.15,17.65,13.62,17.13,13.02,17.13C12.4,17.13,11.9,17.65,11.9,18.25C11.9,18.87,12.4,19.38,13.02,19.38C13.62,19.38,14.15,18.87,14.15,18.25ZM8.5,16L8.93,16L17.5,7.43L17.5,7L8.5,7ZM19,8.07L17.5,9.57L11.07,16L7.25,19.83L5.57,21.51L5.54,21.53C5.22,21.85,4.87,21.85,4.55,21.53L4.47,21.45C4.15,21.13,4.15,20.78,4.47,20.46L7,17.93L7,7.5C7,6,7.5,5.5,9,5.5L17,5.5C17.93,5.5,18.47,5.69,18.75,6.18L20.48,4.45C20.8,4.13,21.15,4.13,21.48,4.45L21.55,4.53C21.87,4.84,21.87,5.19,21.57,5.5C21.57,5.51,21.56,5.52,21.55,5.52Z"/></svg>