<svg xmlns="http://www.w3.org/2000/svg" viewBox="0 0 24 24" fill="currentColor"><path d="M10.8,19L11.79,19C11.61,19.46,11.5,19.96,11.5,20.5L5.57,20.5C4.07,20.5,4,19.4,4.62,17.93L5.47,16L5.49,16L5.49,7.5C5.49,6,6,5.5,7.5,5.5L18.5,5.5C20,5.5,20.5,6,20.5,7.5L20.5,8.65C20.12,8.1,19.6,7.65,19,7.36C18.99,7.01,18.95,7.01,18.5,7.01L17.5,7.01L7.5,7.01C7,7.01,7,7.01,7,7.51L7,16.01L14.28,16.01C14.15,16.11,14,16.22,13.84,16.35C13.46,16.68,13.07,17.06,12.71,17.51L10.95,17.51ZM20.5,15.83L20.5,15.84C20.49,15.83,20.48,15.83,20.48,15.83ZM13,20.5C13,18.95,13.95,18.25,14.8,17.5C15.63,16.85,16.4,16.17,16.4,14.93L16.4,14.33L15.14,14.33C15,14.08,14.92,13.75,14.92,13.43L16.4,12.55C15.7,12.05,15.35,11.4,15.35,10.65C15.35,9.48,16.32,8.5,17.5,8.5C18.68,8.5,19.65,9.48,19.65,10.65C19.65,11.4,19.3,12.06,18.6,12.48L20.08,13.43C20.08,13.75,20,14.08,19.86,14.33L18.6,14.33L18.6,14.93C18.6,16.18,19.38,16.86,20.2,17.5C21.05,18.25,22,18.95,22,20.5Z"/></svg>