<svg xmlns="http://www.w3.org/2000/svg" viewBox="0 0 24 24" fill="currentColor"><path d="M11.08,19C10.31,19,10.01,18.7,10.01,17.93L10.01,17.98C10.01,14.51,7.26,14.66,7.26,10.41C7.26,7.48,9.75,5.01,13.01,5.01C16.26,5.01,18.76,7.48,18.76,10.41C18.76,14.66,16.01,14.51,16.01,17.98L16.01,17.93C16.01,18.7,15.71,19,14.93,19ZM14.65,20.5C14.45,21.27,13.65,21.57,13.02,21.57C12.4,21.57,11.6,21.27,11.4,20.5ZM11.7,8.3L12.21,11.75C12.28,12.18,12.48,12.35,12.93,12.35L13.08,12.35C13.53,12.35,13.73,12.18,13.81,11.75L14.31,8.3C14.46,7.38,14.14,7.02,13.19,7.02L12.87,7.02C11.91,7.02,11.59,7.38,11.72,8.3ZM13,13.52C12.27,13.52,11.82,13.98,11.82,14.67C11.82,15.4,12.27,15.85,13,15.85C13.73,15.85,14.18,15.4,14.18,14.67C14.18,13.98,13.73,13.52,13,13.52Z"/></svg>