<svg xmlns="http://www.w3.org/2000/svg" viewBox="0 0 24 24"><path d="M4.66,22C2.66,22,1.99,21.33,1.99,19.33L1.99,14.66C1.99,12.66,2.66,11.99,4.66,11.99L19.33,11.99C21.33,11.99,22,12.66,22,14.66L22,19.33C22,21.33,21.33,22,19.33,22Z" fill="currentColor"/><path d="M8.34,17C8.34,16.07,7.61,15.33,6.67,15.33C5.74,15.33,5,16.06,5,17C5,17.93,5.73,18.67,6.67,18.67C7.6,18.67,8.34,17.94,8.34,17Z" fill="currentColor"/><path d="M13,17C13,16.07,12.27,15.33,11.33,15.33C10.4,15.33,9.66,16.06,9.66,17C9.66,17.93,10.39,18.67,11.33,18.67C12.26,18.67,13,17.94,13,17Z" fill="currentColor"/><path d="M7.9,6.87L11.1,2.77C11.77,1.94,12.23,1.94,12.9,2.77L16.1,6.84C16.67,7.57,16.47,8.01,15.53,8.01L8.46,8.01C7.56,8.01,7.33,7.58,7.89,6.88Z" fill="currentColor"/></svg>