<svg xmlns="http://www.w3.org/2000/svg" viewBox="0 0 24 24"><path d="M1.97,16L2,16L2,4.67C2,2.67,2.67,2,4.67,2L19.34,2C21.34,2,22.01,2.67,22.01,4.67L22.01,9.5C21.39,9.09,20.72,8.75,20.01,8.51L20.01,4.67C20.01,4,20.01,4,19.34,4L4.67,4C4,4,4,4,4,4.67L4,16L8.05,16C8.01,16.33,8,16.66,8,17C8,18.86,8.55,20.57,9.5,22L2.1,22C0.1,22,0,20.53,0.83,18.57Z" fill="currentColor"/><path d="M22,17C22,14.23,19.77,12,17,12C14.23,12,12,14.23,12,17C12,19.77,14.23,22,17,22C19.77,22,22,19.77,22,17Z" fill="currentColor"/><path d="M10,17C10,13.13,13.13,10,17,10C20.87,10,24,13.13,24,17C24,20.87,20.87,24,17,24C13.13,24,10,20.87,10,17Z" fill="currentColor"/><path d="M18.07,17C18.07,16.4,17.6,15.93,17,15.93C16.4,15.93,15.93,16.4,15.93,17C15.93,17.6,16.4,18.07,17,18.07C17.6,18.07,18.07,17.6,18.07,17Z" fill="currentColor"/><path d="M13.93,17C13.93,15.3,15.3,13.93,17,13.93C18.7,13.93,20.07,15.3,20.07,17C20.07,18.7,18.7,20.07,17,20.07C15.3,20.07,13.93,18.7,13.93,17Z" fill="currentColor"/></svg>