<svg xmlns="http://www.w3.org/2000/svg" viewBox="0 0 24 24"><path d="M9.07,20L10.39,20C10.15,20.61,10,21.28,10,22L2.1,22C0.1,22,0,20.53,0.83,18.57L1.96,16L1.99,16L1.99,4.67C1.99,2.67,2.66,2,4.66,2L19.33,2C21.33,2,22,2.67,22,4.67L22,6.2C21.49,5.47,20.8,4.87,20,4.48C19.99,4.01,19.93,4.01,19.33,4.01L18,4.01L4.67,4.01C4,4.01,4,4.01,4,4.68L4,16.01L13.71,16.01C13.53,16.15,13.34,16.3,13.12,16.47C12.62,16.91,12.09,17.42,11.61,18.01L9.27,18.01Z" fill="currentColor"/><path d="M22,15.77L22,15.79C21.99,15.78,21.98,15.78,21.97,15.77Z" fill="currentColor"/><path d="M12,22C12,19.93,13.27,19,14.4,18C15.5,17.13,16.53,16.23,16.53,14.57L16.53,13.77L14.86,13.77C14.66,13.44,14.56,13,14.56,12.57L16.53,11.4C15.6,10.73,15.13,9.87,15.13,8.87C15.13,7.3,16.43,6,18,6C19.57,6,20.87,7.3,20.87,8.87C20.87,9.87,20.4,10.74,19.47,11.3L21.44,12.57C21.44,13,21.34,13.44,21.14,13.77L19.47,13.77L19.47,14.57C19.47,16.24,20.5,17.14,21.6,18C22.73,19,24,19.93,24,22Z" fill="currentColor"/></svg>