<svg xmlns="http://www.w3.org/2000/svg" viewBox="0 0 24 24" fill="currentColor"><path d="M5.63,20.5C4.5,20.5,4,19.65,4,18.8C4,18.4,4.15,18,4.38,17.67L5.5,16L5.5,7.5C5.5,6,6,5.5,7.5,5.5L18.5,5.5C19.83,5.5,20.37,5.89,20.48,7L18.51,7L18.5,7L12.98,7L7.5,7C7,7,7,7,7,7.5L7,16L11.5,16L11.5,17.5L9.2,17.5L8.5,19L11.5,19L11.5,20.5ZM20,20.5L14.99,20.5C13.49,20.5,12.99,20,12.99,18.5L12.99,10.49C12.99,8.99,13.49,8.49,14.99,8.49L18.99,8.49L19.99,8.49C21.49,8.49,21.99,8.99,21.99,10.49L21.99,18.5C21.99,20,21.49,20.5,19.99,20.5ZM17.52,17.13C16.9,17.13,16.4,17.65,16.4,18.25C16.4,18.87,16.9,19.38,17.52,19.38C18.12,19.38,18.65,18.87,18.65,18.25C18.65,17.65,18.12,17.13,17.52,17.13ZM14.52,16L20.52,16L20.52,10L14.52,10Z"/></svg>