<svg xmlns="http://www.w3.org/2000/svg" viewBox="0 0 24 24" fill="currentColor"><path d="M5.48,16L5.5,16L5.5,7.5C5.5,6,6,5.5,7.5,5.5L18.5,5.5C20,5.5,20.51,6,20.51,7.5L20.51,10L19.01,10L19.01,7.5C19.01,7,19.01,7,18.5,7L7.5,7C7,7,7,7,7,7.5L7,16L10.07,16L10.07,20.5L5.57,20.5C4.07,20.5,4,19.4,4.62,17.93ZM11.5,19L11.5,17.5L13,17.5L13,16L11.5,16L11.5,14.5L13,14.5C13,13.43,13.43,13,14.5,13L14.5,11.5L16,11.5L16,13L17.5,13L17.5,11.5L19,11.5L19,13C20.07,13,20.5,13.43,20.5,14.5L22,14.5L22,16L20.5,16L20.5,17.5L22,17.5L22,19L20.5,19C20.5,20.07,20.07,20.5,19,20.5L19,22L17.5,22L17.5,20.5L16,20.5L16,22L14.5,22L14.5,20.5C13.43,20.5,13,20.07,13,19Z"/></svg>