<svg xmlns="http://www.w3.org/2000/svg" viewBox="0 0 24 24" fill="currentColor"><path d="M7.53,20.5C6.03,20.5,5.52,20,5.52,18.5L5.52,14.99C5.52,13.49,6.03,12.99,7.53,12.99L18.53,12.99C20.03,12.99,20.53,13.49,20.53,14.99L20.53,18.5C20.53,20,20.03,20.5,18.53,20.5ZM9.02,15.5C8.33,15.5,7.77,16.04,7.77,16.75C7.77,17.45,8.32,18,9.02,18C9.72,18,10.28,17.46,10.28,16.75C10.28,16.05,9.73,15.5,9.02,15.5ZM12.53,15.5C11.83,15.5,11.27,16.04,11.27,16.75C11.27,17.45,11.82,18,12.53,18C13.23,18,13.78,17.46,13.78,16.75C13.78,16.05,13.23,15.5,12.53,15.5ZM16.1,6.35L13.7,9.42C13.19,10.04,12.85,10.04,12.35,9.42L9.95,6.37C9.52,5.82,9.67,5.49,10.38,5.49L15.68,5.49C16.35,5.49,16.52,5.81,16.11,6.34Z"/></svg>