<svg xmlns="http://www.w3.org/2000/svg" viewBox="0 0 24 24"><path d="M8,22C7.33,22,7,21.67,7,21L7,20C5.17,20,4,18.87,4,17L3,17C2.33,17,2,16.67,2,16C2,15.33,2.33,15,3,15L4,15L4,13L3,13C2.33,13,2,12.67,2,12C2,11.33,2.33,11,3,11L4,11L4,9L3,9C2.33,9,2,8.67,2,8C2,7.33,2.33,7,3,7L4,7C4,5.03,5.17,4,7,4L7,3C7,2.33,7.33,2,8,2C8.67,2,9,2.33,9,3L9,4L11,4L11,3C11,2.33,11.33,2,12,2C12.67,2,13,2.33,13,3L13,4L15,4L15,3C15,2.33,15.33,2,16,2C16.67,2,17,2.33,17,3L17,4C18.8,4,20,5.03,20,7L21,7C21.67,7,22,7.33,22,8C22,8.67,21.67,9,21,9L20.78,9C19.82,8.66,18.73,8.7,17.76,9.27L17.01,9.7L16.2,9.25C13.76,7.91,10.67,9.73,10.67,12.5L10.67,13.35L9.9,13.8C7.62,15.12,7.49,18.44,9.51,19.99L9.01,19.99L9.01,20.99C9.01,21.66,8.68,21.99,8.01,21.99Z" fill="currentColor"/><path d="M14.84,23C14.57,23.37,14.21,23.43,13.84,23.23L13.24,22.86C12.87,22.66,12.74,22.29,12.94,21.89L13.24,21.19C13.37,20.92,13.31,20.56,13.07,20.16L12.2,18.63C12.07,18.36,11.73,18.2,11.27,18.16L10.77,18.09C10.3,18.06,10.07,17.76,10.07,17.32L10.07,16.65C10.07,16.18,10.3,15.92,10.77,15.88L11.5,15.78C11.8,15.78,12.1,15.55,12.33,15.15L13.2,13.62C13.33,13.35,13.33,12.99,13.13,12.59L12.93,12.09C12.73,11.69,12.86,11.32,13.23,11.12L13.83,10.75C14.2,10.55,14.56,10.62,14.83,10.98L15.3,11.61C15.47,11.84,15.83,11.98,16.27,11.98L18.04,11.98C18.34,11.98,18.64,11.78,18.91,11.41L19.24,10.98C19.51,10.61,19.87,10.55,20.24,10.75L20.84,11.12C21.21,11.32,21.34,11.69,21.14,12.09L20.84,12.79C20.71,13.06,20.77,13.42,21.01,13.82L21.88,15.35C22.01,15.62,22.35,15.78,22.81,15.82L23.31,15.89C23.78,15.92,24.01,16.19,24.01,16.66L24.01,17.33C24.01,17.76,23.78,18.06,23.31,18.1L22.58,18.2C22.28,18.2,21.98,18.43,21.75,18.83L20.88,20.36C20.75,20.63,20.75,20.99,20.95,21.39L21.15,21.89C21.35,22.29,21.22,22.66,20.85,22.86L20.25,23.23C19.88,23.43,19.52,23.36,19.25,23L18.78,22.37C18.61,22.14,18.28,22,17.81,22L16.04,22C15.74,22,15.44,22.2,15.17,22.57Z" fill="currentColor"/><path d="M14.7,17C14.7,18.3,15.73,19.33,17.03,19.33C18.33,19.33,19.36,18.3,19.36,17C19.36,15.7,18.33,14.67,17.03,14.67C15.73,14.67,14.7,15.7,14.7,17Z" fill="currentColor"/></svg>