<svg xmlns="http://www.w3.org/2000/svg" viewBox="0 0 24 24"><path d="M7.02,21.28L10.3,18L18,18L18,10.3L21.28,7.02C21.76,7.11,22,7.43,22,8C22,8.67,21.67,9,21,9L20,9L20,11L21,11C21.67,11,22,11.33,22,12C22,12.67,21.67,13,21,13L20,13L20,15L21,15C21.67,15,22,15.33,22,16C22,16.67,21.67,17,21,17L20,17C20,18.87,18.8,20,17,20L17,21C17,21.67,16.67,22,16,22C15.33,22,15,21.67,15,21L15,20L13,20L13,21C13,21.67,12.67,22,12,22C11.33,22,11,21.67,11,21L11,20L9,20L9,21C9,21.67,8.67,22,8,22C7.43,22,7.11,21.76,7.02,21.28Z" fill="currentColor"/><path d="M23.4,2.03L19.77,5.66L18,7.43L7.43,18L5.67,19.76L2.1,23.33L2.07,23.36C1.64,23.79,1.17,23.79,0.74,23.36L0.64,23.26C0.21,22.83,0.21,22.36,0.64,21.93L4.25,18.32C4.09,17.93,4.01,17.49,4.01,16.99L3.01,16.99C2.34,16.99,2.01,16.66,2.01,15.99C2.01,15.32,2.34,14.99,3.01,14.99L4.01,14.99L4.01,12.99L3.01,12.99C2.34,12.99,2.01,12.66,2.01,11.99C2.01,11.32,2.34,10.99,3.01,10.99L4.01,10.99L4.01,8.99L3.01,8.99C2.34,8.99,2.01,8.66,2.01,7.99C2.01,7.32,2.34,6.99,3.01,6.99L4.01,6.99C4.01,5.02,5.18,3.99,7.01,3.99L7.01,2.99C7.01,2.32,7.34,1.99,8.01,1.99C8.68,1.99,9.01,2.32,9.01,2.99L9.01,3.99L11.01,3.99L11.01,2.99C11.01,2.32,11.34,1.99,12.01,1.99C12.68,1.99,13.01,2.32,13.01,2.99L13.01,3.99L15.01,3.99L15.01,2.99C15.01,2.32,15.34,1.99,16.01,1.99C16.68,1.99,17.01,2.32,17.01,2.99L17.01,3.99C17.5,3.99,17.95,4.07,18.34,4.22L21.97,0.59C22.4,0.16,22.87,0.16,23.3,0.59L23.4,0.69C23.82,1.11,23.83,1.57,23.43,1.99C23.42,2,23.41,2.01,23.4,2.02Z" fill="currentColor"/><path d="M6,6L6,16.57L16.57,6Z" fill="currentColor"/></svg>