<svg xmlns="http://www.w3.org/2000/svg" viewBox="0 0 24 24" fill="currentColor"><path d="M5.48,11.5L5.5,11.5L5.5,20C5.5,21.5,6,22,7.5,22L18.5,22C20,22,20.51,21.5,20.51,20L20.51,17.21C20.03,17.39,19.52,17.63,19.01,17.91L19.01,20C19.01,20.5,19.01,20.5,18.5,20.5L7.5,20.5C7,20.5,7,20.5,7,20L7,11.5L10,11.5L10,10.8C10,9.01,10.16,8.18,11.67,7L5.57,7C4.07,7,4,8.1,4.62,9.57ZM22,10.77L22,15.14C20.78,15.42,18.9,15.77,16.75,17.55C14.63,15.75,12.75,15.42,11.5,15.15L11.5,10.77C11.5,8.22,11.82,8.05,16.75,5.5C21.68,8,22,8.18,22,10.77ZM16.67,7.75C16.22,7.75,15.98,8,15.98,8.48L15.98,10.75L13.73,10.75C13.25,10.75,13,11,13,11.45L13,11.52C13,12,13.25,12.25,13.7,12.25L15.97,12.25L15.97,14.55C15.97,15,16.22,15.25,16.7,15.25L16.77,15.25C17.22,15.25,17.47,15,17.47,14.52L17.47,12.25L19.77,12.25C20.25,12.25,20.5,12,20.5,11.55L20.5,11.48C20.5,11,20.25,10.75,19.8,10.75L17.48,10.75L17.48,8.45C17.48,8,17.23,7.75,16.75,7.75Z"/></svg>