<svg xmlns="http://www.w3.org/2000/svg" viewBox="0 0 24 24"><path d="M17.6,20C18.63,20,19.03,19.6,19.03,18.57L19.03,13.44C19.03,12.41,18.63,12.01,17.6,12.01L6.47,12.01C5.44,12.01,5.04,12.41,5.04,13.44L5.04,18.57C5.04,19.6,5.44,20,6.47,20Z" fill="currentColor"/><path d="M21,4.83C21.73,5.53,22.03,6.2,22.03,7.23L22.03,19.33C22.03,21.33,21.36,22,19.36,22L4.69,22C2.69,22,2.02,21.33,2.02,19.33L2.02,4.66C2.02,2.66,2.69,1.99,4.69,1.99L5.96,1.99L5.96,9.06C5.96,9.66,6.29,9.99,6.89,9.99L17.06,9.99C17.66,9.99,17.99,9.66,17.99,9.06L17.99,1.99Z" fill="currentColor"/><path d="M13,8L13,4L16,4L16,8Z" fill="currentColor"/></svg>