<svg xmlns="http://www.w3.org/2000/svg" viewBox="0 0 24 24" fill="currentColor"><path d="M9.25,19C7.88,19,7,18.15,7,16.75L6.25,16.75C5.75,16.75,5.5,16.5,5.5,16C5.5,15.5,5.75,15.25,6.25,15.25L7,15.25L7,13.75L6.25,13.75C5.75,13.75,5.5,13.5,5.5,13C5.5,12.5,5.75,12.25,6.25,12.25L7,12.25L7,10.75L6.25,10.75C5.75,10.75,5.5,10.5,5.5,10C5.5,9.5,5.75,9.25,6.25,9.25L7,9.25C7,7.77,7.88,7,9.25,7L9.25,6.25C9.25,5.75,9.5,5.5,10,5.5C10.5,5.5,10.75,5.75,10.75,6.25L10.75,7L12.25,7L12.25,6.25C12.25,5.75,12.5,5.5,13,5.5C13.5,5.5,13.75,5.75,13.75,6.25L13.75,7L15.25,7L15.25,6.25C15.25,5.75,15.5,5.5,16,5.5C16.5,5.5,16.75,5.75,16.75,6.25L16.75,7C18.1,7,19,7.77,19,9.25L19.75,9.25C20.25,9.25,20.5,9.5,20.5,10C20.5,10.5,20.25,10.75,19.75,10.75L19,10.75L19,12.25L19.75,12.25C20.25,12.25,20.5,12.5,20.5,13C20.5,13.5,20.25,13.75,19.75,13.75L19,13.75L19,15.25L19.75,15.25C20.25,15.25,20.5,15.5,20.5,16C20.5,16.5,20.25,16.75,19.75,16.75L19,16.75C19,18.15,18.1,19,16.75,19L16.75,19.75C16.75,20.25,16.5,20.5,16,20.5C15.5,20.5,15.25,20.25,15.25,19.75L15.25,19L13.75,19L13.75,19.75C13.75,20.25,13.5,20.5,13,20.5C12.5,20.5,12.25,20.25,12.25,19.75L12.25,19L10.75,19L10.75,19.75C10.75,20.25,10.5,20.5,10,20.5C9.5,20.5,9.25,20.25,9.25,19.75ZM12.3,16.75C12.75,16.75,13,16.5,13,16.05L13,15.96C13,15.5,12.75,15.26,12.3,15.26L10,15.26L10,13.76L11.93,13.76C12.7,13.76,13,13.46,13,12.69L13,10.34C13,9.57,12.7,9.27,11.93,9.27L9.21,9.27C8.76,9.27,8.51,9.51,8.51,9.96L8.51,10.06C8.51,10.51,8.76,10.76,9.21,10.76L11.51,10.76L11.51,12.26L9.58,12.26C8.81,12.26,8.51,12.56,8.51,13.33L8.51,15.68C8.51,16.45,8.81,16.75,9.58,16.75ZM16.8,16.75C17.25,16.75,17.5,16.5,17.5,16.05L17.5,10.33C17.5,9.56,17.2,9.26,16.43,9.26L15.21,9.26C14.75,9.26,14.51,9.51,14.51,9.96L14.51,10.05C14.51,10.5,14.75,10.75,15.21,10.75L16.01,10.75L16.01,16.05C16.01,16.5,16.25,16.75,16.71,16.75Z"/></svg>