<svg xmlns="http://www.w3.org/2000/svg" viewBox="0 0 24 24" fill="currentColor"><path d="M18.5,20.5L7.49,20.5C5.99,20.5,5.49,20,5.49,18.5L5.49,10L20.49,10L20.49,18.5C20.49,20,19.99,20.5,18.49,20.5ZM5.83,8.5C5.06,8.5,4.76,8.2,4.76,7.43L4.76,6.58C4.76,5.81,5.06,5.51,5.83,5.51L20.18,5.51C20.95,5.51,21.25,5.81,21.25,6.58L21.25,7.43C21.25,8.2,20.95,8.5,20.18,8.5ZM9.87,12.29C9.87,12.75,10.12,12.99,10.57,12.99L15.42,12.99C15.87,12.99,16.12,12.75,16.12,12.29L16.12,12.2C16.12,11.75,15.87,11.5,15.42,11.5L10.57,11.5C10.12,11.5,9.87,11.75,9.87,12.2Z"/></svg>