<svg xmlns="http://www.w3.org/2000/svg" viewBox="0 0 24 24" fill="currentColor"><path d="M5.5,6.57C5.5,5.8,5.8,5.5,6.57,5.5L16.42,5.5C17.19,5.5,17.49,5.8,17.49,6.57L17.49,11.5L15.99,11.5L15.99,9.25L13.74,9.25L13.74,7L11.49,7L11.49,9.25L9.24,9.25L9.24,7L6.99,7L6.99,9.25L9.24,9.25L9.24,10C9.22,10,9.19,10,9.17,10L5.49,10ZM11.5,9.25L13.75,9.25L13.75,11.5L11.52,11.5ZM18.92,20.5L6.65,20.5C5.87,20.5,5.52,20.2,5.37,19.45L4.04,12.48C3.95,11.88,4.25,11.5,4.87,11.5L7.77,11.5C8.54,11.5,8.97,11.78,9.27,12.48L9.22,12.35C9.39,12.78,9.74,13,10.19,13L16.17,13C16.95,13,17.3,13.3,17.39,14.07L18.02,19C18.11,19.7,18.99,19.73,18.99,18.75L18.99,9.25L21.17,9.25C21.79,9.25,22.09,9.63,21.97,10.23L20.19,19.45C20.04,20.2,19.69,20.5,18.92,20.5Z"/></svg>