<svg xmlns="http://www.w3.org/2000/svg" viewBox="0 0 24 24" fill="currentColor"><path d="M17.52,10.47C17.52,8.97,17.02,8.47,15.52,8.47L10.02,8.47L10.02,6.52C10.02,5.15,10.72,3.99,13.02,3.99L19.08,3.99C19.53,3.99,19.77,4.24,19.77,4.69L19.77,4.79C19.77,5.24,19.53,5.49,19.08,5.49L12.35,5.49C11.15,5.49,11.15,6.96,12.35,6.96L19.45,6.96C20.22,6.96,20.52,7.26,20.52,8.04L20.52,14.88C20.52,15.66,20.22,15.96,19.45,15.96L17.52,15.96ZM14.95,21.98L7.53,21.98C6.03,21.98,5.52,21.47,5.52,19.97L5.52,12.53C5.52,11.15,6.22,9.98,8.52,9.98L14.58,9.98C15.03,9.98,15.27,10.22,15.27,10.67L15.27,10.77C15.27,11.22,15.03,11.47,14.58,11.47L7.85,11.47C6.65,11.47,6.65,12.97,7.85,12.97L14.95,12.97C15.72,12.97,16.02,13.27,16.02,14.04L16.02,20.89C16.02,21.66,15.72,21.96,14.95,21.96Z"/></svg>