<svg xmlns="http://www.w3.org/2000/svg" viewBox="0 0 24 24" fill="currentColor"><path d="M6.78,19.25C4.68,17.13,4.77,13.85,7.02,11.57L12.42,6.15C14.13,4.45,16.3,4.35,17.95,5.98C19.62,7.65,19.43,9.78,17.73,11.45L12.33,16.88C11.28,17.93,9.8,18.05,8.9,17.12C8,16.22,8.1,14.75,9.15,13.7L14.37,8.45C14.7,8.12,15.05,8.12,15.37,8.45L15.45,8.5C15.77,8.82,15.77,9.17,15.45,9.5L10.22,14.77C9.77,15.2,9.67,15.77,9.97,16.07C10.27,16.37,10.82,16.24,11.25,15.79L16.67,10.39C17.82,9.21,17.92,8.06,16.87,7.04C15.84,6.01,14.62,6.08,13.47,7.21L8.1,12.63C6.42,14.28,6.32,16.66,7.85,18.18C9.35,19.68,11.73,19.58,13.38,17.9L18.63,12.65C18.95,12.33,19.3,12.33,19.62,12.65L19.68,12.73C20,13.05,20,13.4,19.68,13.73L14.45,18.98C12.18,21.23,8.9,21.32,6.78,19.22Z"/></svg>