<svg xmlns="http://www.w3.org/2000/svg" viewBox="0 0 24 24" fill="currentColor"><path d="M11.52,13L11.52,12.98L11.5,11.5L16,11.5L16,7L11.5,7L11.5,11.5L9.93,11.5L7,11.5L5.5,11.5L5.5,7.1C5.5,5.9,5.9,5.5,7.1,5.5L15.89,5.5C17.09,5.5,17.49,5.9,17.49,7.1L17.49,13ZM18.42,20.5L7.1,20.5C6.33,20.5,5.95,20.2,5.73,19.47L4.08,13.94C3.9,13.34,4.17,12.99,4.8,12.99L8.9,12.99C9.68,12.99,10.13,13.27,10.48,13.94L10.25,13.55C10.61,14.22,11.06,14.5,11.83,14.5L16.18,14.5C16.95,14.5,17.33,14.8,17.48,15.55L18.32,19.25C18.42,19.7,19,19.72,19,19.25L19,8.5L21.08,8.5C21.7,8.5,22,8.87,21.88,9.47L19.73,19.45C19.58,20.2,19.2,20.5,18.43,20.5Z"/></svg>