<svg xmlns="http://www.w3.org/2000/svg" viewBox="0 0 24 24" fill="currentColor"><path d="M17.93,20.5L8.5,20.5C6.65,20.5,5.5,19.35,5.5,17.5L5.5,8.05C5.5,6.68,6.2,5.5,8.5,5.5L16.8,5.5C17.25,5.5,17.5,5.75,17.5,6.2L17.5,6.29C17.5,6.74,17.25,6.99,16.8,6.99L7.82,6.99C6.63,6.99,6.63,8.49,7.82,8.49L17.93,8.49C18.7,8.49,19,8.79,19,9.56L19,19.41C19,20.18,18.7,20.48,17.93,20.48ZM14.97,18.25C14.97,17.33,14.42,16.85,13.9,16.4C13.4,15.97,12.95,15.6,12.95,14.82L12.95,14.5L13.7,14.5C13.77,14.33,13.83,14.15,13.83,13.95L12.95,13.43C13.38,13.13,13.57,12.73,13.57,12.3C13.57,11.57,12.99,11,12.27,11C11.54,11,10.98,11.58,10.98,12.3C10.98,12.73,11.2,13.13,11.6,13.43L10.72,13.95C10.72,14.15,10.77,14.33,10.85,14.5L11.6,14.5L11.6,14.82C11.6,15.6,11.15,15.97,10.65,16.4C10.12,16.85,9.57,17.32,9.57,18.25Z"/></svg>