<svg xmlns="http://www.w3.org/2000/svg" viewBox="0 0 24 24" fill="currentColor"><path d="M12.25,10.32L12.25,20.17C12.25,20.34,12.08,20.42,11.95,20.27C10.65,18.57,9.32,18.24,7.47,18.24L5.07,18.24C4.3,18.24,4,17.94,4,17.17L4,8.07C4,7.3,4.3,7,5.07,7L7.79,7C10.04,7,11.04,7.47,11.69,8.33C12.09,9,12.24,9.55,12.24,10.33ZM13.75,20.18L13.75,10.33C13.75,9.56,13.9,9,14.3,8.33C14.68,7.82,15.18,7.46,16,7.23L16,16L18.25,13.62L20.5,16L20.5,7L20.93,7C21.7,7,22,7.3,22,8.07L22,17.17C22,17.94,21.7,18.24,20.93,18.24L18.53,18.24C16.68,18.24,15.36,18.57,14.05,20.27C13.92,20.42,13.75,20.34,13.75,20.17Z"/></svg>