<svg xmlns="http://www.w3.org/2000/svg" viewBox="0 0 24 24"><path d="M7.83,11.06C7.83,11.66,8.16,11.99,8.76,11.99L15.23,11.99C15.83,11.99,16.16,11.66,16.16,11.06L16.16,10.93C16.16,10.33,15.83,10,15.23,10L8.76,10C8.16,10,7.83,10.33,7.83,10.93Z" fill="currentColor"/><path d="M19.33,20C20,20,20,20,20,19.33L20,9.43C20,8.71,19.95,8.55,19.55,7.96L17.02,4.29C16.82,3.99,16.82,3.99,16.44,3.99L7.57,3.99C7.19,3.99,7.19,3.99,6.99,4.29L4.46,7.96C4.06,8.55,4.01,8.71,4.01,9.43L4.01,19.33C4.01,20,4.01,20,4.68,20Z" fill="currentColor"/><path d="M19.33,22L4.66,22C2.66,22,1.99,21.33,1.99,19.33L1.99,9.43C1.99,8.4,2.22,7.66,2.79,6.83L5.32,3.16C5.89,2.33,6.52,1.99,7.55,1.99L16.42,1.99C17.45,1.99,18.09,2.32,18.65,3.16L21.18,6.83C21.75,7.66,21.98,8.4,21.98,9.43L21.98,19.33C21.98,21.33,21.31,22,19.31,22Z" fill="currentColor"/><path d="M3.57,8L20.44,8L20.44,20.67L3.57,20.67Z" fill="currentColor"/></svg>