<svg xmlns="http://www.w3.org/2000/svg" viewBox="0 0 24 24" fill="currentColor"><path d="M8.5,21.75C7.73,22.3,7,21.83,7,20.85L7,7.5C7,6,7.5,5.5,9,5.5L17,5.5C18.5,5.5,19.01,6,19.01,7.5L19.01,20.85C19.01,21.83,18.28,22.3,17.51,21.75L13.01,18.51ZM12.23,15.27C12.23,15.75,12.48,16,12.93,16L13,16C13.47,16,13.73,15.75,13.73,15.3L13.73,13L16.05,13C16.5,13,16.75,12.75,16.75,12.27L16.75,12.2C16.75,11.75,16.5,11.5,16.02,11.5L13.72,11.5L13.72,9.23C13.72,8.75,13.47,8.5,13.02,8.5L12.95,8.5C12.48,8.5,12.22,8.75,12.22,9.2L12.22,11.5L9.95,11.5C9.5,11.5,9.25,11.75,9.25,12.23L9.25,12.3C9.25,12.75,9.5,13,9.98,13L12.23,13Z"/></svg>