<svg xmlns="http://www.w3.org/2000/svg" viewBox="0 0 24 24" fill="currentColor"><path d="M6.27,9.42L12.22,4.85C13.12,4.17,13.74,4.12,14.72,4.68L20.25,7.8C20.94,8.2,20.97,8.55,20.32,9.02L18.69,10.28C18.07,10.1,17.42,10,16.74,10C14.37,10,12.3,11.19,11.1,13.02L7.24,10.85C6.34,10.32,6.04,11.45,6.96,11.97L10.56,14C10.41,14.34,10.29,14.7,10.19,15.08L6.56,13.02C5.28,12.29,4.74,10.57,6.26,9.42ZM6.47,14.48L6.65,14.35L10.02,16.25C10,16.42,10,16.58,10,16.75C10,17.02,10.02,17.29,10.04,17.55L7.38,16.05C6.5,15.55,6.2,16.67,7.1,17.2L10.4,19.05C10.65,19.73,11,20.37,11.44,20.93L6.81,18.33C5.28,17.45,4.91,15.61,6.48,14.48ZM19.83,10.73L20.27,10.41C20.78,10.69,20.91,10.95,20.7,11.26C20.42,11.07,20.14,10.89,19.84,10.74ZM16.75,11.52C19.62,11.52,21.98,13.87,21.98,16.75C21.98,19.6,19.63,21.98,16.75,21.98C13.9,21.98,11.52,19.6,11.52,16.75C11.52,13.88,13.9,11.52,16.75,11.52ZM15.98,19.77C15.98,20.25,16.22,20.5,16.67,20.5L16.75,20.5C17.22,20.5,17.48,20.25,17.48,19.8L17.48,17.5L19.8,17.5C20.25,17.5,20.5,17.25,20.5,16.77L20.5,16.7C20.5,16.25,20.25,16,19.77,16L17.47,16L17.47,13.73C17.47,13.25,17.22,13,16.77,13L16.7,13C16.23,13,15.97,13.25,15.97,13.7L15.97,16L13.7,16C13.25,16,13,16.25,13,16.73L13,16.8C13,17.25,13.25,17.5,13.73,17.5L15.98,17.5Z"/></svg>