<svg xmlns="http://www.w3.org/2000/svg" viewBox="0 0 24 24" fill="currentColor"><path d="M18.5,20.5L7.49,20.5C5.99,20.5,5.49,20,5.49,18.5L5.49,7.49C5.49,5.99,5.99,5.49,7.49,5.49L10.87,5.49C11.18,4.61,12.01,3.99,12.99,3.99C13.98,3.99,14.81,4.61,15.12,5.49L18.49,5.49C19.99,5.49,20.49,5.99,20.49,7.49L20.49,18.5C20.49,20,19.99,20.5,18.49,20.5ZM13,5.37C12.53,5.37,12.12,5.77,12.12,6.25C12.12,6.72,12.52,7.13,13,7.13C13.47,7.13,13.88,6.73,13.88,6.25C13.88,5.78,13.48,5.37,13,5.37ZM9.85,11.46C9.48,11.96,9.63,12.26,10.25,12.26L11.88,12.26L11.88,16.81C11.88,17.26,12.12,17.51,12.57,17.51L13.42,17.51C13.87,17.51,14.12,17.26,14.12,16.81L14.12,12.26L15.74,12.26C16.37,12.26,16.52,11.96,16.14,11.45L13.42,7.95C13.14,7.6,12.84,7.6,12.57,7.95Z"/></svg>