<svg xmlns="http://www.w3.org/2000/svg" viewBox="0 0 24 24"><path d="M19.33,22L4.66,22C2.66,22,1.99,21.33,1.99,19.33L1.99,4.66C1.99,2.66,2.66,1.99,4.66,1.99L9.16,1.99C9.57,0.82,10.68,-0.01,11.99,-0.01C13.31,-0.01,14.41,0.82,14.82,1.99L19.32,1.99C21.32,1.99,21.99,2.66,21.99,4.66L21.99,19.33C21.99,21.33,21.32,22,19.32,22Z" fill="currentColor"/><path d="M13.17,3C13.17,2.37,12.64,1.83,12,1.83C11.37,1.83,10.83,2.36,10.83,3C10.83,3.63,11.36,4.17,12,4.17C12.63,4.17,13.17,3.64,13.17,3Z" fill="currentColor"/><path d="M7.67,17.13L13.5,16.4C14.33,16.3,14.47,15.87,13.9,15.3L12.37,13.77L16.64,9.47C17.07,9.04,17.07,8.57,16.64,8.14L15.84,7.37C15.41,6.94,14.94,6.94,14.51,7.37L10.24,11.64L8.71,10.11C8.14,9.54,7.71,9.68,7.61,10.51L6.88,16.34C6.78,16.94,7.08,17.24,7.68,17.14Z" fill="currentColor"/></svg>