<svg xmlns="http://www.w3.org/2000/svg" viewBox="0 0 24 24"><path d="M2.67,2L16.36,2L11.53,6.87C10.8,7.6,10.46,8.3,10.33,9.34L9.53,14.47L14.7,13.67C15.73,13.54,16.4,13.17,17.13,12.44L20,9.55L20,19.34C20,21.34,19.33,22.01,17.33,22.01L8,22.01L8,16.68C8,14.68,7.33,14.01,5.33,14.01L0,14.01L0,4.68C0,2.68,0.67,2.01,2.67,2.01Z" fill="currentColor"/><path d="M6,16L6,22L0,16Z" fill="currentColor"/><path d="M11.9,12.1L12.33,8.93L20.63,0.53C21.23,-0.07,21.83,-0.34,23.06,0.83C24.29,2.06,24.03,2.66,23.39,3.3L15.09,11.67Z" fill="currentColor"/></svg>