<svg xmlns="http://www.w3.org/2000/svg" viewBox="0 0 24 24" fill="currentColor"><path d="M11.5,16.73L11.5,20.5L7,20.5C5.15,20.5,4,19.35,4,17.5L4,8.05C4,6.68,4.7,5.5,7,5.5L15.3,5.5C15.75,5.5,16,5.75,16,6.2L16,6.29C16,6.74,15.75,6.99,15.3,6.99L6.32,6.99C5.13,6.99,5.13,8.49,6.32,8.49L17.93,8.49C18.7,8.49,19,8.79,19,9.56L19,9.91C18.54,9.78,18.04,9.71,17.5,9.71C14.73,9.71,13,11.46,13,14.27L13,14.51C11.9,14.69,11.5,15.32,11.5,16.71ZM20.93,21.98L14.05,21.98C13.32,21.98,13.02,21.68,13.02,20.91L13.02,17C13.02,16.28,13.32,15.98,14.09,15.98L14.49,15.98L14.49,14.27C14.49,12.4,15.64,11.22,17.49,11.22C19.34,11.22,20.49,12.4,20.49,14.27L20.49,15.98L20.96,15.98C21.69,15.98,21.99,16.28,21.99,17.05L21.99,20.95C21.99,21.68,21.69,21.98,20.92,21.98ZM17.5,18.84C17,18.84,16.62,19.22,16.62,19.72C16.62,20.22,17,20.6,17.5,20.6C18,20.6,18.38,20.22,18.38,19.72C18.38,19.22,18,18.84,17.5,18.84ZM16,15.98L19,15.98L19,14.27C19,13.32,18.42,12.72,17.5,12.72C16.58,12.72,16,13.32,16,14.27Z"/></svg>