<svg xmlns="http://www.w3.org/2000/svg" viewBox="0 0 24 24" fill="currentColor"><path d="M18.5,20.5L7.49,20.5C5.99,20.5,5.49,20,5.49,18.5L5.49,7.49C5.49,5.99,5.99,5.49,7.49,5.49L10.87,5.49C11.18,4.61,12.01,3.99,12.99,3.99C13.98,3.99,14.81,4.61,15.12,5.49L18.49,5.49C19.99,5.49,20.49,5.99,20.49,7.49L20.49,18.5C20.49,20,19.99,20.5,18.49,20.5ZM13.88,6.25C13.88,5.78,13.48,5.37,13,5.37C12.53,5.37,12.12,5.77,12.12,6.25C12.12,6.72,12.52,7.13,13,7.13C13.47,7.13,13.88,6.73,13.88,6.25ZM14.13,13.75L14.13,9.2C14.13,8.75,13.88,8.5,13.43,8.5L12.58,8.5C12.13,8.5,11.88,8.75,11.88,9.2L11.88,13.75L10.26,13.75C9.63,13.75,9.48,14.05,9.86,14.55L12.58,18.05C12.86,18.41,13.16,18.41,13.43,18.05L16.15,14.55C16.52,14.05,16.38,13.75,15.75,13.75Z"/></svg>