<svg xmlns="http://www.w3.org/2000/svg" viewBox="0 0 24 24" fill="currentColor"><path d="M9.7,19.7L9.7,20.5L7,20.5C5.15,20.5,4,19.35,4,17.5L4,8.05C4,6.68,4.7,5.5,7,5.5L15.3,5.5C15.75,5.5,16,5.75,16,6.2L16,6.29C16,6.54,15.92,6.73,15.78,6.85C15.34,6.45,14.76,6.2,14.15,6.2C13.46,6.2,12.81,6.51,12.33,7L6.32,7C5.12,7,5.12,8.5,6.32,8.5L9.51,8.5C8.91,8.98,8.49,9.71,8.49,10.45C8.49,11.21,8.99,12.04,9.66,12.54L11.18,17.18C10.2,17.78,9.69,18.76,9.69,19.7ZM12.23,10.86C12.23,10.87,12.23,10.87,12.23,10.87ZM11.2,19.7C11.2,18.75,11.85,18.22,13.08,18.12L10.9,11.5C10.38,11.42,10,10.97,10,10.45C10,9.92,10.45,9.45,11,9.45C11.52,9.45,11.97,9.9,11.97,10.48C11.97,10.73,11.92,10.93,11.75,11.1L13.57,13.45L13.8,9.8C13.29,9.57,13.07,9.25,13.07,8.77C13.07,8.17,13.54,7.7,14.14,7.7C14.74,7.7,15.17,8.17,15.17,8.77C15.17,9.14,15.04,9.44,14.77,9.65L15.99,13.3L17.19,9.65C16.92,9.44,16.77,9.14,16.77,8.77C16.77,8.22,17.24,7.7,17.84,7.7C18.44,7.7,18.89,8.17,18.89,8.77C18.89,9.24,18.66,9.57,18.16,9.8L18.41,13.45L20.21,11.1C20.04,10.93,19.96,10.73,19.96,10.48C19.96,9.95,20.43,9.45,20.96,9.45C21.58,9.45,21.98,10,21.98,10.45C21.98,10.92,21.61,11.42,21.06,11.5L18.91,18.12C20.13,18.25,20.79,18.74,20.79,19.7L20.79,20.5L11.18,20.5Z"/></svg>