<svg xmlns="http://www.w3.org/2000/svg" viewBox="0 0 24 24"><path d="M18.57,22L6,22C3.53,22,2,20.47,2,18L2,5.4C2,3.57,2.93,2,6,2L17.07,2C17.67,2,18,2.33,18,2.93L18,3.06C18,3.66,17.67,3.99,17.07,3.99L5.1,3.99C3.5,3.99,3.5,5.99,5.1,5.99L18.57,5.99C19.6,5.99,20,6.39,20,7.42L20,20.55C20,21.58,19.6,21.98,18.57,21.98Z" fill="currentColor"/><path d="M14.63,19C14.63,17.77,13.9,17.13,13.2,16.53C12.53,15.96,11.93,15.46,11.93,14.43L11.93,14L12.93,14C13.03,13.77,13.1,13.53,13.1,13.27L11.93,12.57C12.5,12.17,12.76,11.64,12.76,11.07C12.76,10.1,11.99,9.34,11.03,9.34C10.06,9.34,9.3,10.11,9.3,11.07C9.3,11.64,9.6,12.17,10.13,12.57L8.96,13.27C8.96,13.54,9.03,13.77,9.13,14L10.13,14L10.13,14.43C10.13,15.46,9.53,15.96,8.86,16.53C8.16,17.13,7.43,17.76,7.43,19Z" fill="currentColor"/></svg>