<svg xmlns="http://www.w3.org/2000/svg" viewBox="0 0 24 24" fill="currentColor"><path d="M4,6.5C4,5.88,4.38,5.5,5,5.5L9.57,5.5C10.02,5.5,10.38,5.72,10.52,6.15L10.92,7.11C11.07,7.53,11.42,7.76,11.87,7.76L18,7.76C18.62,7.76,19,8.13,19,8.75L19,10.8C18.12,10.29,17.09,10.01,16,10.01C12.68,10.01,10,12.69,10,16.01C10,17.8,10.78,19.41,12.02,20.51L6.5,20.51C4.63,20.51,4.01,19.88,4.01,18.01ZM16,13C14.3,13,13,14.3,13,16C13,17.7,14.3,19,16,19C17.7,19,19,17.7,19,16C19,14.3,17.7,13,16,13ZM16,11.5C18.48,11.5,20.5,13.52,20.5,16C20.5,18.48,18.48,20.5,16,20.5C13.52,20.5,11.5,18.48,11.5,16C11.5,13.52,13.52,11.5,16,11.5ZM21.7,21.55L21.6,21.65C21.28,21.97,20.93,21.97,20.61,21.65L17.83,18.87L18.93,17.77L21.71,20.54C22.03,20.87,22.03,21.22,21.71,21.54Z"/></svg>