<svg xmlns="http://www.w3.org/2000/svg" viewBox="0 0 24 24"><path d="M6,2L17.07,2C17.67,2,18,2.33,18,2.93L18,3.06C18,3.66,17.67,3.99,17.07,3.99L5.1,3.99C3.5,3.99,3.5,5.99,5.1,5.99L18.57,5.99C19.6,5.99,20,6.39,20,7.42L20,9.95L15.43,9.95C13.4,9.95,12,11.35,12,13.38L12,21.98L4.67,21.98C2.67,21.98,2,21.31,2,19.31L2,5.38C2,3.55,2.93,1.98,6,1.98Z" fill="currentColor"/><path d="M14.44,23.74C14.17,23.91,14.01,23.81,14.01,23.51L14.01,13.44C14.01,12.41,14.41,12.01,15.44,12.01L20.57,12.01C21.6,12.01,22,12.41,22,13.44L22,23.51C22,23.81,21.83,23.91,21.6,23.74L18.5,21.67C18.27,21.5,17.93,21.5,17.67,21.67Z" fill="currentColor"/></svg>