<svg xmlns="http://www.w3.org/2000/svg" viewBox="0 0 24 24"><path d="M19.33,22L4.66,22C2.66,22,1.99,21.33,1.99,19.33L1.99,4.66C1.99,2.66,2.66,1.99,4.66,1.99L9.16,1.99C9.57,0.82,10.68,-0.01,11.99,-0.01C13.31,-0.01,14.41,0.82,14.82,1.99L19.32,1.99C21.32,1.99,21.99,2.66,21.99,4.66L21.99,19.33C21.99,21.33,21.32,22,19.32,22Z" fill="currentColor"/><path d="M13.17,3C13.17,2.37,12.64,1.83,12,1.83C11.37,1.83,10.83,2.36,10.83,3C10.83,3.63,11.36,4.17,12,4.17C12.63,4.17,13.17,3.64,13.17,3Z" fill="currentColor"/><path d="M9.94,16.2C10.61,16.7,11.01,16.5,11.01,15.67L11.01,13.5L17.08,13.5C17.68,13.5,18.01,13.17,18.01,12.57L18.01,11.44C18.01,10.84,17.68,10.51,17.08,10.51L11.01,10.51L11.01,8.34C11.01,7.51,10.61,7.31,9.94,7.81L5.27,11.44C4.8,11.81,4.8,12.21,5.27,12.57Z" fill="currentColor"/></svg>