<svg xmlns="http://www.w3.org/2000/svg" viewBox="0 0 24 24"><path d="M0,3.33C0,2.5,0.5,2,1.33,2L7.43,2C8.03,2,8.5,2.3,8.7,2.87L9.23,4.14C9.43,4.71,9.9,5.01,10.5,5.01L18.67,5.01C19.5,5.01,20,5.51,20,6.34L20,9.07C18.82,8.39,17.46,8.01,16,8.01C11.57,8.01,8,11.58,8,16.01C8,18.4,9.04,20.55,10.7,22.01L3.34,22.01C0.84,22.01,0.01,21.18,0.01,18.68Z" fill="currentColor"/><path d="M20,16C20,13.73,18.27,12,16,12C13.73,12,12,13.73,12,16C12,18.27,13.73,20,16,20C18.27,20,20,18.27,20,16Z" fill="currentColor"/><path d="M10,16C10,12.7,12.7,10,16,10C19.3,10,22,12.7,22,16C22,19.3,19.3,22,16,22C12.7,22,10,19.3,10,16Z" fill="currentColor"/><path d="M23.6,23.4L23.47,23.53C23.04,23.96,22.57,23.96,22.14,23.53L18.44,19.83L19.91,18.36L23.61,22.06C24.04,22.49,24.04,22.96,23.61,23.39Z" fill="currentColor"/></svg>