<svg xmlns="http://www.w3.org/2000/svg" viewBox="0 0 24 24" fill="currentColor"><path d="M4,8.05C4,6.68,4.7,5.5,7,5.5L15.3,5.5C15.75,5.5,16,5.75,16,6.2L16,6.29C16,6.74,15.75,6.99,15.3,6.99L6.32,6.99C5.13,6.99,5.13,8.49,6.32,8.49L17.93,8.49C18.7,8.49,19,8.79,19,9.56L19,9.99L16,9.99C12.65,9.99,10,12.64,10,15.99C10,17.8,10.77,19.4,12,20.49L7,20.49C5.15,20.49,4,19.34,4,17.49ZM16,13C14.3,13,13,14.3,13,16C13,17.7,14.3,19,16,19C17.7,19,19,17.7,19,16C19,14.3,17.7,13,16,13ZM16,11.5C18.48,11.5,20.5,13.52,20.5,16C20.5,18.48,18.48,20.5,16,20.5C13.52,20.5,11.5,18.48,11.5,16C11.5,13.52,13.52,11.5,16,11.5ZM21.7,21.55L21.6,21.65C21.28,21.97,20.93,21.97,20.61,21.65L17.83,18.87L18.93,17.77L21.71,20.54C22.03,20.87,22.03,21.22,21.71,21.54Z"/></svg>