<svg xmlns="http://www.w3.org/2000/svg" viewBox="0 0 24 24"><path d="M11,8.43L11,11.56L13,9.56L13,8.43C13,7.4,13.2,6.66,13.73,5.76C14.56,4.67,15.82,4.05,18.56,4L21.96,0.6C22.39,0.17,22.86,0.17,23.29,0.6L23.39,0.7C23.81,1.12,23.82,1.58,23.42,2C23.41,2.01,23.4,2.02,23.39,2.03L21.42,4L12.99,12.43L10.99,14.43L6.32,19.1L2.09,23.33L2.06,23.36C1.63,23.79,1.16,23.79,0.73,23.36L0.63,23.26C0.2,22.83,0.2,22.36,0.63,21.93L3.56,19L1.43,19C0.4,19,0,18.6,0,17.57L0,5.44C0,4.41,0.4,4.01,1.43,4.01L5.06,4.01C8.06,4.01,9.39,4.64,10.26,5.78C10.79,6.68,10.99,7.41,10.99,8.45Z" fill="currentColor"/><path d="M13,15.3L23.8,4.5C23.94,4.72,24,5.03,24,5.44L24,17.57C24,18.6,23.6,19,22.57,19L19.37,19C16.9,19,15.14,19.43,13.4,21.7C13.23,21.9,13,21.8,13,21.57Z" fill="currentColor"/><path d="M11,17.3L11,21.57C11,21.8,10.77,21.9,10.6,21.7C9.92,20.81,9.24,20.2,8.51,19.79Z" fill="currentColor"/></svg>