<svg xmlns="http://www.w3.org/2000/svg" viewBox="0 0 24 24"><path d="M6,23.67C4.97,24.4,4,23.77,4,22.47L4,4.67C4,2.67,4.67,2,6.67,2L17.34,2C19.34,2,20.01,2.67,20.01,4.67L20.01,22.47C20.01,23.77,19.04,24.4,18.01,23.67L12.01,19.34Z" fill="currentColor"/><path d="M10.97,15.03C10.97,15.66,11.3,16,11.9,16L12,16C12.63,16,12.97,15.67,12.97,15.07L12.97,12L16.07,12C16.67,12,17,11.67,17,11.03L17,10.93C17,10.33,16.67,10,16.03,10L12.96,10L12.96,6.97C12.96,6.34,12.63,6,12.03,6L11.93,6C11.3,6,10.96,6.33,10.96,6.93L10.96,10L7.93,10C7.33,10,7,10.33,7,10.97L7,11.07C7,11.67,7.33,12,7.97,12L10.97,12Z" fill="currentColor"/></svg>