<svg xmlns="http://www.w3.org/2000/svg" viewBox="0 0 24 24"><path d="M16.92,4.41C16.51,4,16.51,4,15.9,4L4.67,4C4,4,4,4,4,4.67L4,19.34C4,20.01,4,20.01,4.67,20.01L19.34,20.01C20.01,20.01,20.01,20.01,20.01,19.34L20.01,8.11C20.01,7.51,20.01,7.51,19.6,7.09Z" fill="currentColor"/><path d="M18.33,3L21,5.67C21.73,6.4,22,7.07,22,8.1L22,19.33C22,21.33,21.33,22,19.33,22L4.66,22C2.66,22,1.99,21.33,1.99,19.33L1.99,4.66C1.99,2.66,2.66,1.99,4.66,1.99L15.89,1.99C16.92,1.99,17.59,2.26,18.32,2.99Z" fill="currentColor"/><path d="M16,8L16,2.97L21.03,8Z" fill="currentColor"/></svg>