<svg xmlns="http://www.w3.org/2000/svg" viewBox="0 0 24 24"><path d="M0,3.4C0,1.57,0.93,0,4,0L15.07,0C15.67,0,16,0.33,16,0.93L16,1.06C16,1.66,15.67,1.99,15.07,1.99L3.1,1.99C1.5,1.99,1.5,3.99,3.1,3.99L18.57,3.99C19.6,3.99,20,4.39,20,5.42L20,8.49C19.06,8.16,18.05,7.99,17,7.99C12,7.99,8,11.99,8,16.99C8,18.04,8.18,19.05,8.5,19.99L4,19.99C1.53,19.99,0,18.46,0,15.99Z" fill="currentColor"/><path d="M10.03,17C10.03,13.17,13.2,10.03,17,10.03C20.83,10.03,23.97,13.16,23.97,17C23.97,20.8,20.84,23.97,17,23.97C13.2,23.97,10.03,20.8,10.03,17Z" fill="currentColor"/><path d="M16.17,17.24C16.24,17.71,16.44,17.87,16.94,17.87L17.07,17.87C17.57,17.87,17.77,17.7,17.84,17.24L18.34,13.67C18.47,12.74,18.17,12.37,17.17,12.37L16.84,12.37C15.84,12.37,15.54,12.74,15.67,13.67Z" fill="currentColor"/><path d="M18.2,20.3C18.2,19.57,17.73,19.1,17,19.1C16.27,19.1,15.8,19.57,15.8,20.3C15.8,21.03,16.27,21.5,17,21.5C17.73,21.5,18.2,21.03,18.2,20.3Z" fill="currentColor"/></svg>