<svg xmlns="http://www.w3.org/2000/svg" viewBox="0 0 24 24"><path d="M19.33,22L4.66,22C2.66,22,1.99,21.33,1.99,19.33L1.99,4.66C1.99,2.66,2.66,1.99,4.66,1.99L9.16,1.99C9.57,0.82,10.68,-0.01,11.99,-0.01C13.31,-0.01,14.41,0.82,14.82,1.99L19.32,1.99C21.32,1.99,21.99,2.66,21.99,4.66L21.99,19.33C21.99,21.33,21.32,22,19.32,22Z" fill="currentColor"/><path d="M13.17,3C13.17,2.37,12.64,1.83,12,1.83C11.37,1.83,10.83,2.36,10.83,3C10.83,3.63,11.36,4.17,12,4.17C12.63,4.17,13.17,3.64,13.17,3Z" fill="currentColor"/><path d="M12,14.13L15.5,17.63C16.23,18.36,16.77,18.36,17.5,17.63L17.63,17.5C18.36,16.77,18.36,16.23,17.63,15.5L14.13,12L17.63,8.5C18.36,7.77,18.36,7.23,17.63,6.5L17.5,6.37C16.77,5.64,16.23,5.64,15.5,6.37L12,9.87L8.5,6.37C7.77,5.64,7.23,5.64,6.5,6.37L6.37,6.5C5.64,7.23,5.64,7.77,6.37,8.5L9.87,12L6.37,15.5C5.64,16.23,5.64,16.77,6.37,17.5L6.5,17.63C7.23,18.36,7.77,18.36,8.5,17.63Z" fill="currentColor"/></svg>