<svg xmlns="http://www.w3.org/2000/svg" viewBox="0 0 24 24" fill="currentColor"><path d="M17.93,20.5L8.68,20.5L19.01,10.17L19.01,19.42C19.01,20.19,18.71,20.49,17.93,20.49ZM21.53,5.5L5.53,21.5C5.48,21.55,5.44,21.59,5.4,21.65C5.13,21.83,4.83,21.8,4.56,21.52L4.48,21.44C4.16,21.12,4.16,20.77,4.48,20.45L5.86,19.07C5.63,18.62,5.51,18.1,5.51,17.49L5.51,8.04C5.51,6.67,6.21,5.49,8.51,5.49L15.31,5.49C15.76,5.49,16.01,5.74,16.01,6.19L16.01,6.29C16.01,6.74,15.76,6.98,15.31,6.98L7.83,6.98C6.63,6.98,6.63,8.48,7.83,8.48L16.44,8.48L20.49,4.43C20.81,4.11,21.16,4.11,21.48,4.43L21.56,4.51C21.84,4.79,21.87,5.08,21.69,5.36C21.63,5.39,21.58,5.43,21.54,5.48Z"/></svg>