<svg xmlns="http://www.w3.org/2000/svg" viewBox="0 0 24 24"><path d="M3.03,7.23L10.96,1.13C12.16,0.23,12.99,0.16,14.29,0.9L21.66,5.07C22.59,5.6,22.63,6.07,21.76,6.7L19.58,8.37C18.76,8.13,17.89,8,16.99,8C13.83,8,11.07,9.59,9.47,12.03L4.32,9.13C3.12,8.43,2.72,9.93,3.95,10.63L8.75,13.33C8.55,13.79,8.38,14.27,8.25,14.77L3.41,12.03C1.71,11.06,0.98,8.76,3.01,7.23Z" fill="currentColor"/><path d="M3.3,13.97L3.53,13.8L8.02,16.34C8,16.56,8,16.78,8,17C8,17.36,8.02,17.72,8.06,18.07L4.5,16.07C3.33,15.4,2.93,16.9,4.13,17.6L8.53,20.07C8.86,20.98,9.33,21.83,9.92,22.58L3.74,19.11C1.71,17.94,1.21,15.48,3.31,13.98Z" fill="currentColor"/><path d="M21.11,8.98L21.7,8.54C22.37,8.92,22.55,9.27,22.26,9.68C21.9,9.42,21.52,9.19,21.12,8.98Z" fill="currentColor"/><path d="M10.03,17C10.03,13.17,13.2,10.03,17,10.03C20.83,10.03,23.97,13.16,23.97,17C23.97,20.8,20.84,23.97,17,23.97C13.2,23.97,10.03,20.8,10.03,17Z" fill="currentColor"/><path d="M15.97,21.03C15.97,21.66,16.3,22,16.9,22L17,22C17.63,22,17.97,21.67,17.97,21.07L17.97,18L21.07,18C21.67,18,22,17.67,22,17.03L22,16.93C22,16.33,21.67,16,21.03,16L17.96,16L17.96,12.97C17.96,12.34,17.63,12,17.03,12L16.93,12C16.3,12,15.96,12.33,15.96,12.93L15.96,16L12.93,16C12.33,16,12,16.33,12,16.97L12,17.07C12,17.67,12.33,18,12.97,18L15.97,18Z" fill="currentColor"/></svg>