<svg xmlns="http://www.w3.org/2000/svg" viewBox="0 0 24 24"><path d="M19.33,22L4.66,22C2.66,22,1.99,21.33,1.99,19.33L1.99,4.66C1.99,2.66,2.66,1.99,4.66,1.99L9.16,1.99C9.57,0.82,10.68,-0.01,11.99,-0.01C13.31,-0.01,14.41,0.82,14.82,1.99L19.32,1.99C21.32,1.99,21.99,2.66,21.99,4.66L21.99,19.33C21.99,21.33,21.32,22,19.32,22Z" fill="currentColor"/><path d="M13.17,3C13.17,2.37,12.64,1.83,12,1.83C11.37,1.83,10.83,2.36,10.83,3C10.83,3.63,11.36,4.17,12,4.17C12.63,4.17,13.17,3.64,13.17,3Z" fill="currentColor"/><path d="M5.63,13.27L9.4,17.04C10.13,17.77,10.67,17.77,11.4,17.04L18.63,9.77C19.36,9.07,19.33,8.5,18.6,7.77L18.53,7.67C17.8,6.94,17.23,6.94,16.5,7.67L10.4,13.77L7.77,11.14C7.04,10.41,6.47,10.44,5.74,11.17L5.64,11.24C4.91,11.97,4.91,12.54,5.64,13.27Z" fill="currentColor"/></svg>