<svg xmlns="http://www.w3.org/2000/svg" viewBox="0 0 24 24"><path d="M19.33,22L4.66,22C2.66,22,1.99,21.33,1.99,19.33L1.99,4.66C1.99,2.66,2.66,1.99,4.66,1.99L9.16,1.99C9.57,0.82,10.68,-0.01,11.99,-0.01C13.31,-0.01,14.41,0.82,14.82,1.99L19.32,1.99C21.32,1.99,21.99,2.66,21.99,4.66L21.99,19.33C21.99,21.33,21.32,22,19.32,22Z" fill="currentColor"/><path d="M13.17,3C13.17,2.37,12.64,1.83,12,1.83C11.37,1.83,10.83,2.36,10.83,3C10.83,3.63,11.36,4.17,12,4.17C12.63,4.17,13.17,3.64,13.17,3Z" fill="currentColor"/><path d="M17.13,16.33L16.4,10.5C16.3,9.67,15.87,9.53,15.3,10.1L13.77,11.63L9.47,7.36C9.04,6.93,8.57,6.93,8.14,7.36L7.37,8.16C6.94,8.59,6.94,9.06,7.37,9.49L11.64,13.76L10.11,15.29C9.54,15.86,9.68,16.29,10.51,16.39L16.34,17.12C16.94,17.22,17.24,16.92,17.14,16.32Z" fill="currentColor"/></svg>