<svg xmlns="http://www.w3.org/2000/svg" viewBox="0 0 24 24"><path d="M2,19.33L2,4.66C2,2.66,2.67,1.99,4.67,1.99L19.34,1.99C21.34,1.99,22.01,2.66,22.01,4.66L22.01,13.99L16.68,13.99C14.68,13.99,14.01,14.66,14.01,16.66L14.01,21.99L4.68,21.99C2.68,21.99,2.01,21.32,2.01,19.32Z" fill="currentColor"/><path d="M16,16L22,16L16,22Z" fill="currentColor"/><path d="M10.5,2L10.53,6L8.1,6C7.07,6,6.93,6.3,7.63,7.07L11.56,11.54C11.86,11.87,12.13,11.87,12.43,11.54L16.36,7.07C17.06,6.3,16.93,6,15.89,6L13.49,6L13.49,2Z" fill="currentColor"/></svg>