<svg xmlns="http://www.w3.org/2000/svg" viewBox="0 0 24 24"><path d="M19.33,22L4.66,22C2.66,22,1.99,21.33,1.99,19.33L1.99,4.66C1.99,2.66,2.66,1.99,4.66,1.99L13.99,1.99L13.99,7.32C13.99,9.32,14.66,9.99,16.66,9.99L21.99,9.99L21.99,19.32C21.99,21.32,21.32,21.99,19.32,21.99Z" fill="currentColor"/><path d="M16,8L16,2L22,8Z" fill="currentColor"/><path d="M10.5,22L13.5,22L13.5,18L15.9,18C16.93,18,17.07,17.7,16.37,16.93L12.44,12.46C12.14,12.13,11.87,12.13,11.57,12.46L7.64,16.93C6.94,17.7,7.07,18,8.11,18L10.54,18Z" fill="currentColor"/></svg>