<svg xmlns="http://www.w3.org/2000/svg" viewBox="0 0 24 24"><path d="M0,5.4C0,3.57,0.93,2,4,2L15.07,2C15.67,2,16,2.33,16,2.93L16,3.06C16,3.66,15.67,3.99,15.07,3.99L3.1,3.99C1.5,3.99,1.5,5.99,3.1,5.99L18.57,5.99C19.6,5.99,20,6.39,20,7.42L20,7.99L16,7.99C11.53,7.99,8,11.52,8,15.99C8,18.4,9.03,20.53,10.67,21.99L4,21.99C1.53,21.99,0,20.46,0,17.99Z" fill="currentColor"/><path d="M20,16C20,13.73,18.27,12,16,12C13.73,12,12,13.73,12,16C12,18.27,13.73,20,16,20C18.27,20,20,18.27,20,16Z" fill="currentColor"/><path d="M10,16C10,12.7,12.7,10,16,10C19.3,10,22,12.7,22,16C22,19.3,19.3,22,16,22C12.7,22,10,19.3,10,16Z" fill="currentColor"/><path d="M23.6,23.4L23.47,23.53C23.04,23.96,22.57,23.96,22.14,23.53L18.44,19.83L19.91,18.36L23.61,22.06C24.04,22.49,24.04,22.96,23.61,23.39Z" fill="currentColor"/></svg>