<svg xmlns="http://www.w3.org/2000/svg" viewBox="0 0 24 24" fill="currentColor"><path d="M4,6.55C4,5.18,4.7,4,7,4L15.3,4C15.75,4,16,4.25,16,4.7L16,4.79C16,5.24,15.75,5.49,15.3,5.49L6.32,5.49C5.13,5.49,5.13,6.99,6.32,6.99L17.93,6.99C18.7,6.99,19,7.29,19,8.06L19,10.37C18.29,10.12,17.54,9.99,16.75,9.99C13,9.99,10,12.99,10,16.74C10,17.53,10.13,18.29,10.38,18.99L7,18.99C5.15,18.99,4,17.84,4,15.99ZM16.75,11.52C19.62,11.52,21.98,13.87,21.98,16.75C21.98,19.6,19.63,21.98,16.75,21.98C13.9,21.98,11.52,19.6,11.52,16.75C11.52,13.88,13.9,11.52,16.75,11.52ZM16.13,16.93C16.18,17.28,16.33,17.4,16.71,17.4L16.8,17.4C17.18,17.4,17.33,17.27,17.38,16.93L17.75,14.25C17.85,13.56,17.63,13.28,16.88,13.28L16.63,13.28C15.88,13.28,15.66,13.56,15.75,14.25ZM16.75,18.33C16.2,18.33,15.85,18.68,15.85,19.23C15.85,19.77,16.2,20.13,16.75,20.13C17.3,20.13,17.65,19.77,17.65,19.23C17.65,18.68,17.3,18.33,16.75,18.33Z"/></svg>