<svg xmlns="http://www.w3.org/2000/svg" viewBox="0 0 24 24" fill="currentColor"><path d="M8.5,5.5L16.8,5.5C17.25,5.5,17.5,5.75,17.5,6.2L17.5,6.29C17.5,6.74,17.25,6.99,16.8,6.99L7.82,6.99C6.63,6.99,6.63,8.49,7.82,8.49L17.93,8.49C18.7,8.49,19,8.79,19,9.56L19,11.46L15.57,11.46C14.05,11.46,13,12.51,13,14.04L13,20.48L7.5,20.48C6,20.48,5.5,19.98,5.5,18.48L5.5,8.03C5.5,6.66,6.2,5.48,8.5,5.48ZM14.83,21.8C14.63,21.93,14.51,21.86,14.51,21.63L14.51,14.08C14.51,13.31,14.81,13.01,15.58,13.01L19.43,13.01C20.2,13.01,20.5,13.31,20.5,14.08L20.5,21.63C20.5,21.86,20.37,21.93,20.2,21.8L17.88,20.25C17.7,20.13,17.45,20.13,17.25,20.25Z"/></svg>