<svg xmlns="http://www.w3.org/2000/svg" viewBox="0 0 24 24"><path d="M6,23.67C4.97,24.4,4,23.77,4,22.47L4,4.67C4,2.67,4.67,2,6.67,2L17.34,2C19.34,2,20.01,2.67,20.01,4.67L20.01,22.47C20.01,23.77,19.04,24.4,18.01,23.67L12.01,19.34Z" fill="currentColor"/><path d="M8.33,14.6C8.8,15.07,9.26,15.1,9.76,14.6L11.96,12.4L14.23,14.6C14.7,15.07,15.16,15.07,15.63,14.6C16.1,14.13,16.13,13.63,15.63,13.17L13.4,10.97L15.63,8.74C16.1,8.27,16.1,7.81,15.63,7.34C15.16,6.87,14.7,6.84,14.2,7.34L11.97,9.57L9.77,7.37C9.3,6.9,8.84,6.9,8.37,7.37C7.9,7.84,7.87,8.34,8.37,8.8L10.57,10.97L8.34,13.2C7.87,13.67,7.87,14.13,8.34,14.6Z" fill="currentColor"/></svg>