<svg xmlns="http://www.w3.org/2000/svg" viewBox="0 0 24 24"><path d="M19.33,22L4.66,22C2.66,22,1.99,21.33,1.99,19.33L1.99,4.66C1.99,2.66,2.66,1.99,4.66,1.99L9.16,1.99C9.57,0.82,10.68,-0.01,11.99,-0.01C13.31,-0.01,14.41,0.82,14.82,1.99L19.32,1.99C21.32,1.99,21.99,2.66,21.99,4.66L21.99,19.33C21.99,21.33,21.32,22,19.32,22Z" fill="currentColor"/><path d="M13.17,3C13.17,2.37,12.64,1.83,12,1.83C11.37,1.83,10.83,2.36,10.83,3C10.83,3.63,11.36,4.17,12,4.17C12.63,4.17,13.17,3.64,13.17,3Z" fill="currentColor"/><path d="M6.87,7.67L7.6,13.5C7.7,14.33,8.13,14.47,8.7,13.9L10.23,12.37L14.53,16.64C14.96,17.07,15.43,17.07,15.86,16.64L16.63,15.84C17.06,15.41,17.06,14.94,16.63,14.51L12.36,10.24L13.89,8.71C14.46,8.14,14.32,7.71,13.49,7.61L7.66,6.88C7.06,6.78,6.76,7.08,6.86,7.68Z" fill="currentColor"/></svg>