<svg xmlns="http://www.w3.org/2000/svg" viewBox="0 0 24 24"><path d="M18.57,22L6,22C3.53,22,2,20.47,2,18L2,5.4C2,3.57,2.93,2,6,2L17.07,2C17.67,2,18,2.33,18,2.93L18,3.06C18,3.66,17.67,3.99,17.07,3.99L5.1,3.99C3.5,3.99,3.5,5.99,5.1,5.99L18.57,5.99C19.6,5.99,20,6.39,20,7.42L20,20.55C20,21.58,19.6,21.98,18.57,21.98Z" fill="currentColor"/><path d="M12.1,19.93C13.1,19.93,14.1,19.8,15,19.53C16,19.2,16.37,18.66,16.37,17.63L16.37,17.33C16.37,16.3,16,16.03,15.04,16.4C14.04,16.67,13.14,16.8,12.37,16.8C10.57,16.8,9.4,16.27,9.14,15.13L15.41,15.13C16.44,15.13,16.84,14.73,16.91,13.7C16.81,10,14.68,7.93,11.31,7.93C7.84,7.93,5.34,9.93,5.34,13.9C5.34,18,8.51,19.93,12.11,19.93Z" fill="currentColor"/><path d="M9.1,12.47C9.27,11.44,10.13,10.94,11.3,10.94C12.47,10.94,13.3,11.37,13.4,12.47Z" fill="currentColor"/></svg>