<svg xmlns="http://www.w3.org/2000/svg" viewBox="0 0 24 24"><path d="M19.33,22L4.66,22C2.66,22,1.99,21.33,1.99,19.33L1.99,4.66C1.99,2.66,2.66,1.99,4.66,1.99L9.16,1.99C9.57,0.82,10.68,-0.01,11.99,-0.01C13.31,-0.01,14.41,0.82,14.82,1.99L19.32,1.99C21.32,1.99,21.99,2.66,21.99,4.66L21.99,19.33C21.99,21.33,21.32,22,19.32,22Z" fill="currentColor"/><path d="M13.17,3C13.17,2.37,12.64,1.83,12,1.83C11.37,1.83,10.83,2.36,10.83,3C10.83,3.63,11.36,4.17,12,4.17C12.63,4.17,13.17,3.64,13.17,3Z" fill="currentColor"/><path d="M7.8,9.94C7.3,10.61,7.5,11.01,8.33,11.01L10.5,11.01L10.5,17.08C10.5,17.68,10.83,18.01,11.43,18.01L12.56,18.01C13.16,18.01,13.49,17.68,13.49,17.08L13.49,11.01L15.66,11.01C16.49,11.01,16.69,10.61,16.19,9.94L12.56,5.27C12.19,4.8,11.79,4.8,11.43,5.27Z" fill="currentColor"/></svg>