<svg xmlns="http://www.w3.org/2000/svg" viewBox="0 0 24 24"><path d="M4,9L4,6L14,6L14,9Z" fill="currentColor"/><path d="M4,17.93L4,11L8,11L8,17.93Z" fill="currentColor"/><path d="M10,17L10,15L14,15L14,17Z" fill="currentColor"/><path d="M10,13L10,11L14,11L14,13Z" fill="currentColor"/><path d="M21.76,18.87C20.8,22.42,16,22.16,16,18.53L16,5C16,4,16,4,15,4L3,4C2,4,2,4,2,5L2,18.93C2,19.93,2,19.93,3,19.93L17.97,19.93C19.54,19.93,19.54,19.93,19.92,18.2L21.89,9.14C22.08,8.23,22.08,8.23,21.37,8.14L19.97,7.97L20.21,5.98L21.61,6.15C23.78,6.42,24.31,7.35,23.84,9.55L21.87,18.62C21.2,21.65,19.8,21.92,17.97,21.92L3,21.92C0.77,21.92,0,21.15,0,18.92L0,4.99C0,2.76,0.77,1.99,3,1.99L15,1.99C17.23,1.99,18,2.76,18,4.99L18,18.52C18,19.95,19.47,19.75,19.83,18.59Z" fill="currentColor"/></svg>