<svg xmlns="http://www.w3.org/2000/svg" viewBox="0 0 24 24" fill="currentColor"><path d="M18.5,20.5L7.49,20.5C5.99,20.5,5.49,20,5.49,18.5L5.49,7.49C5.49,5.99,5.99,5.49,7.49,5.49L10.87,5.49C11.18,4.61,12.01,3.99,12.99,3.99C13.98,3.99,14.81,4.61,15.12,5.49L18.49,5.49C19.99,5.49,20.49,5.99,20.49,7.49L20.49,18.5C20.49,20,19.99,20.5,18.49,20.5ZM13.88,6.25C13.88,5.78,13.48,5.37,13,5.37C12.53,5.37,12.12,5.77,12.12,6.25C12.12,6.72,12.52,7.13,13,7.13C13.47,7.13,13.88,6.73,13.88,6.25ZM9.15,9.75L9.7,14.13C9.77,14.75,10.1,14.85,10.52,14.42L11.67,13.28L14.9,16.48C15.22,16.8,15.57,16.8,15.89,16.48L16.47,15.88C16.79,15.56,16.79,15.2,16.47,14.88L13.27,11.68L14.42,10.53C14.85,10.1,14.74,9.78,14.12,9.71L9.75,9.16C9.3,9.08,9.07,9.31,9.15,9.76Z"/></svg>