<svg xmlns="http://www.w3.org/2000/svg" viewBox="0 0 24 24"><path d="M11.27,23.33L3.7,19.1C1.63,17.93,1.13,15.47,3.23,13.97L3.46,13.8L12.56,18.9L21.76,11.9L21.73,11.87C22.66,12.44,22.7,12.9,21.83,13.54L12.56,20.61L4.46,16.08C3.26,15.41,2.86,16.91,4.09,17.61L12.56,22.34L21.76,15.37L21.73,15.34C22.66,15.91,22.7,16.37,21.83,17.01L13.76,23.18C12.89,23.81,12.19,23.88,11.26,23.35Z" fill="currentColor"/><path d="M11.27,16.47L3.37,12.04C1.67,11.07,0.94,8.77,2.97,7.24L10.97,1.14C12.17,0.24,13,0.17,14.3,0.91L21.73,5.08C22.66,5.61,22.7,6.08,21.83,6.71L12.56,13.78L4.29,9.15C3.06,8.45,2.66,9.95,3.92,10.65L12.55,15.48L21.75,8.55C22.65,9.07,22.67,9.53,21.82,10.15L13.75,16.32C12.88,16.95,12.18,17.02,11.25,16.49Z" fill="currentColor"/><path d="M7.83,7.87C7.73,7.97,7.73,8.1,7.9,8.17C8.03,8.24,8.87,8.8,10.13,9.47C11.26,10.1,12.23,10.57,12.33,10.7C12.5,10.73,12.63,10.73,12.76,10.6C13.29,10.07,13.43,9.47,13.19,9C12.86,8.13,13.16,7.57,13.39,7.27L13.92,7.57C14.19,7.47,14.39,7.37,14.65,7.1L14.38,6.43C14.78,6.33,15.21,6.13,15.48,5.86C16.08,5.19,15.98,4.43,15.28,4.03C14.55,3.63,13.51,3.86,12.91,4.43C12.61,4.7,12.54,5.1,12.54,5.4L11.64,5.43C11.37,5.7,11.31,5.86,11.31,6.1L11.81,6.43C11.51,6.63,10.88,7.1,9.71,7.06C9.04,7.06,8.34,7.33,7.81,7.86Z" fill="currentColor"/></svg>