<svg xmlns="http://www.w3.org/2000/svg" viewBox="0 0 24 24" fill="currentColor"><path d="M18.5,20.5L7.49,20.5C5.99,20.5,5.49,20,5.49,18.5L5.49,7.49C5.49,5.99,5.99,5.49,7.49,5.49L10.87,5.49C11.18,4.61,12.01,3.99,12.99,3.99C13.98,3.99,14.81,4.61,15.12,5.49L18.49,5.49C19.99,5.49,20.49,5.99,20.49,7.49L20.49,18.5C20.49,20,19.99,20.5,18.49,20.5ZM13,5.37C12.53,5.37,12.12,5.77,12.12,6.25C12.12,6.72,12.52,7.13,13,7.13C13.47,7.13,13.88,6.73,13.88,6.25C13.88,5.78,13.48,5.37,13,5.37ZM9.75,16.85L14.13,16.3C14.75,16.22,14.85,15.9,14.42,15.47L13.28,14.33L16.48,11.1C16.8,10.78,16.8,10.43,16.48,10.1L15.88,9.53C15.56,9.2,15.2,9.2,14.88,9.53L11.68,12.73L10.53,11.58C10.1,11.15,9.78,11.26,9.71,11.88L9.16,16.25C9.08,16.7,9.31,16.93,9.76,16.85Z"/></svg>