<svg xmlns="http://www.w3.org/2000/svg" viewBox="0 0 24 24"><path d="M18.57,22L6,22C3.53,22,2,20.47,2,18L2,5.4C2,3.57,2.93,2,6,2L17.07,2C17.67,2,18,2.33,18,2.93L18,3.06C18,3.66,17.67,3.99,17.07,3.99L5.1,3.99C3.5,3.99,3.5,5.99,5.1,5.99L18.57,5.99C19.6,5.99,20,6.39,20,7.42L20,20.55C20,21.58,19.6,21.98,18.57,21.98Z" fill="currentColor"/><path d="M10.37,20.17C11.47,20.17,12.37,19.9,13.17,19.24C13.37,19.81,13.77,20.01,14.54,20.01L14.61,20.01C15.64,20.01,16.04,19.61,16.04,18.58L16.04,6.01L13.04,6.01L13.04,10.61C12.44,10.18,11.61,9.84,10.41,9.84C7.64,9.84,5.34,11.61,5.34,14.91C5.34,18.04,7.37,20.18,10.37,20.18Z" fill="currentColor"/><path d="M8.33,15C8.33,13.63,9.33,12.7,10.73,12.7C12.1,12.7,13.03,13.63,13.03,15C13.03,16.37,12.1,17.3,10.73,17.3C9.33,17.3,8.33,16.37,8.33,15Z" fill="currentColor"/></svg>