<svg xmlns="http://www.w3.org/2000/svg" viewBox="0 0 24 24" fill="currentColor"><path d="M9.87,12.29C9.87,12.75,10.12,12.99,10.57,12.99L15.42,12.99C15.87,12.99,16.12,12.75,16.12,12.29L16.12,12.2C16.12,11.75,15.87,11.5,15.42,11.5L10.57,11.5C10.12,11.5,9.87,11.75,9.87,12.2ZM18.5,19C19,19,19,19,19,18.5L19,11.07C19,10.53,18.96,10.41,18.66,9.97L16.77,7.22C16.62,6.99,16.62,6.99,16.33,6.99L9.68,6.99C9.39,6.99,9.39,6.99,9.24,7.22L7.35,9.97C7.05,10.41,7.01,10.53,7.01,11.07L7.01,18.5C7.01,19,7.01,19,7.51,19ZM18.5,20.5L7.49,20.5C5.99,20.5,5.49,20,5.49,18.5L5.49,11.07C5.49,10.3,5.66,9.74,6.09,9.12L7.99,6.37C8.42,5.75,8.89,5.49,9.66,5.49L16.31,5.49C17.09,5.49,17.57,5.74,17.99,6.37L19.88,9.12C20.31,9.74,20.48,10.3,20.48,11.07L20.48,18.5C20.48,20,19.98,20.5,18.48,20.5ZM6.68,10L19.33,10L19.33,19.5L6.68,19.5Z"/></svg>