<svg xmlns="http://www.w3.org/2000/svg" viewBox="0 0 24 24" fill="currentColor"><path d="M17.93,20.5L7.5,20.5C6,20.5,5.5,20,5.5,18.5L5.5,8.05C5.5,6.68,6.2,5.5,8.5,5.5L16.8,5.5C17.25,5.5,17.5,5.75,17.5,6.2L17.5,6.29C17.5,6.74,17.25,6.99,16.8,6.99L7.82,6.99C6.63,6.99,6.63,8.49,7.82,8.49L17.93,8.49C18.7,8.49,19,8.79,19,9.56L19,19.41C19,20.18,18.7,20.48,17.93,20.48ZM9.32,17.25C8.75,17.25,8.4,17.61,8.4,18.18C8.4,18.75,8.75,19.13,9.32,19.13C9.9,19.13,10.25,18.75,10.25,18.18C10.25,17.6,9.89,17.25,9.32,17.25ZM11.78,14.8C11.2,14.8,10.82,15.17,10.82,15.75C10.82,16.33,11.2,16.67,11.78,16.67C12.35,16.67,12.7,16.32,12.7,15.75C12.7,15.17,12.35,14.8,11.78,14.8ZM14.22,17.25C13.64,17.25,13.3,17.6,13.3,18.17C13.3,18.75,13.65,19.1,14.22,19.1C14.8,19.1,15.17,18.75,15.17,18.17C15.17,17.6,14.8,17.25,14.22,17.25ZM9.32,12.33C8.75,12.33,8.4,12.7,8.4,13.28C8.4,13.86,8.75,14.2,9.32,14.2C9.9,14.2,10.25,13.85,10.25,13.28C10.25,12.7,9.89,12.33,9.32,12.33ZM16.67,17.25C16.1,17.25,15.75,17.61,15.75,18.18C15.75,18.75,16.1,19.13,16.67,19.13C17.25,19.13,17.6,18.75,17.6,18.18C17.6,17.6,17.25,17.25,16.67,17.25ZM11.78,12.35C11.2,12.35,10.82,12.72,10.82,13.3C10.82,13.85,11.2,14.2,11.78,14.2C12.35,14.2,12.7,13.85,12.7,13.3C12.7,12.72,12.35,12.35,11.78,12.35ZM9.32,9.87C8.75,9.87,8.4,10.25,8.4,10.82C8.4,11.4,8.75,11.75,9.32,11.75C9.9,11.75,10.25,11.39,10.25,10.82C10.25,10.25,9.89,9.87,9.32,9.87ZM14.22,14.8C13.64,14.8,13.3,15.15,13.3,15.7C13.3,16.28,13.65,16.65,14.22,16.65C14.8,16.65,15.17,16.28,15.17,15.7C15.17,15.15,14.8,14.8,14.22,14.8ZM16.67,12.33C16.1,12.33,15.75,12.7,15.75,13.28C15.75,13.86,16.1,14.2,16.67,14.2C17.25,14.2,17.6,13.85,17.6,13.28C17.6,12.7,17.25,12.33,16.67,12.33ZM14.22,9.9C13.64,9.9,13.3,10.25,13.3,10.82C13.3,11.4,13.65,11.75,14.22,11.75C14.8,11.75,15.17,11.39,15.17,10.82C15.17,10.25,14.8,9.9,14.22,9.9ZM16.67,9.87C16.1,9.87,15.75,10.25,15.75,10.82C15.75,11.4,16.1,11.75,16.67,11.75C17.25,11.75,17.6,11.39,17.6,10.82C17.6,10.25,17.25,9.87,16.67,9.87Z"/></svg>