<svg xmlns="http://www.w3.org/2000/svg" viewBox="0 0 24 24"><path d="M11.27,23.33L3.74,19.1C1.71,17.93,1.21,15.47,3.31,13.97L3.54,13.8L12.57,18.9L21.7,11.9L21.67,11.87C22.6,12.44,22.64,12.9,21.77,13.54L12.57,20.61L4.5,16.08C3.33,15.41,2.93,16.91,4.13,17.61L12.56,22.34L21.69,15.37L21.66,15.34C22.59,15.91,22.63,16.37,21.76,17.01L13.76,23.18C12.89,23.81,12.19,23.88,11.26,23.35Z" fill="currentColor"/><path d="M11.27,16.47L3.44,12.04C1.74,11.07,1.01,8.77,3.04,7.24L10.97,1.14C12.17,0.24,13,0.17,14.3,0.91L21.67,5.08C22.6,5.61,22.64,6.08,21.77,6.71L12.57,13.78L4.34,9.15C3.14,8.45,2.74,9.95,3.97,10.65L12.57,15.48L21.7,8.55C22.6,9.07,22.62,9.53,21.77,10.15L13.77,16.32C12.9,16.95,12.2,17.02,11.27,16.49Z" fill="currentColor"/></svg>