<svg xmlns="http://www.w3.org/2000/svg" viewBox="0 0 24 24" fill="currentColor"><path d="M10.45,19.7L10.45,20.5L7,20.5C5.15,20.5,4,19.35,4,17.5L4,8.05C4,6.68,4.7,5.5,7,5.5L15.3,5.5C15.75,5.5,16,5.75,16,6.2L16,6.29C16,6.74,15.75,6.99,15.3,6.99L6.32,6.99C5.13,6.99,5.13,8.49,6.32,8.49L11.63,8.49L11.85,11.52C11.91,12.12,12.24,12.79,12.75,13.31L12.11,16.84C10.98,17.46,10.44,18.53,10.44,19.69ZM13.3,18.83L14.55,11.83L18.96,11.83L20.21,18.83ZM11.95,19.7C11.95,18.33,12.75,17.62,16.75,17.62C20.73,17.62,21.55,18.32,21.55,19.7L21.55,20.5L11.95,20.5ZM19.1,13.05L14.39,13.05C13.67,12.55,13.4,11.98,13.35,11.4L13.2,9.08C13.67,8.88,14.04,8.78,14.49,8.78L14.79,10.11L15.79,10.11L15.96,8.58C15.96,8.58,16.39,8.51,16.73,8.51C17.09,8.51,17.51,8.58,17.51,8.58L17.68,10.11L18.68,10.11L18.98,8.78C19.43,8.78,19.8,8.88,20.27,9.08L20.13,11.4C20.07,11.98,19.8,12.55,19.08,13.05Z"/></svg>