<svg xmlns="http://www.w3.org/2000/svg" viewBox="0 0 24 24" fill="currentColor"><path d="M4,6.5C4,5.88,4.38,5.5,5,5.5L9.57,5.5C10.02,5.5,10.38,5.72,10.52,6.15L10.92,7.11C11.07,7.53,11.42,7.76,11.87,7.76L18,7.76C18.62,7.76,19,8.13,19,8.75L19,9.67C17.86,9.67,16.68,10.12,15.72,11.08L11.13,15.73C9.74,17.12,9.42,18.96,9.98,20.51L6.51,20.51C4.63,20.51,4.01,19.89,4.01,18.01ZM15.23,17.93C14.03,16.73,14.03,14.85,15.32,13.58L16.77,12.15C18.1,10.82,19.95,10.88,21.1,12.08C22.28,13.2,22.32,15.05,21,16.38L19.78,17.6C19.88,16.77,19.76,16.2,19.63,15.63L19.93,15.33C20.73,14.52,20.68,13.75,20.06,13.13C19.38,12.43,18.63,12.38,17.83,13.2L16.38,14.65C15.61,15.4,15.61,16.17,16.29,16.85C16.44,17,16.51,17.15,16.51,17.4C16.51,17.79,16.19,18.15,15.76,18.15C15.56,18.15,15.39,18.05,15.24,17.92ZM13.43,15.53C13.33,16.35,13.45,16.93,13.58,17.5L13.25,17.82C12.45,18.62,12.5,19.37,13.16,20.02C13.81,20.69,14.56,20.75,15.38,19.94L16.83,18.5C17.58,17.75,17.58,16.94,16.91,16.3C16.78,16.15,16.68,16,16.68,15.75C16.68,15.35,17,15,17.43,15C17.63,15,17.83,15.1,17.96,15.2C19.16,16.43,19.16,18.28,17.88,19.58L16.43,21C15.11,22.33,13.23,22.28,12.08,21.08C10.93,19.95,10.88,18.1,12.21,16.78Z"/></svg>