<svg xmlns="http://www.w3.org/2000/svg" viewBox="0 0 24 24" fill="currentColor"><path d="M18.5,20.5L7.49,20.5C5.99,20.5,5.49,20,5.49,18.5L5.49,7.49C5.49,5.99,5.99,5.49,7.49,5.49L10.87,5.49C11.18,4.61,12.01,3.99,12.99,3.99C13.98,3.99,14.81,4.61,15.12,5.49L18.49,5.49C19.99,5.49,20.49,5.99,20.49,7.49L20.49,18.5C20.49,20,19.99,20.5,18.49,20.5ZM13,5.37C12.53,5.37,12.12,5.77,12.12,6.25C12.12,6.72,12.52,7.13,13,7.13C13.47,7.13,13.88,6.73,13.88,6.25C13.88,5.78,13.48,5.37,13,5.37ZM11.88,17.15C11.88,17.95,12.18,18.25,12.95,18.25L13.02,18.25C13.83,18.25,14.13,17.95,14.13,17.18L14.13,14.13L17.18,14.13C17.95,14.13,18.25,13.83,18.25,13.02L18.25,12.95C18.25,12.18,17.95,11.88,17.15,11.88L14.13,11.88L14.13,8.85C14.13,8.05,13.83,7.75,13.05,7.75L12.98,7.75C12.18,7.75,11.88,8.05,11.88,8.82L11.88,11.88L8.82,11.88C8.05,11.88,7.75,12.18,7.75,12.98L7.75,13.05C7.75,13.83,8.05,14.13,8.85,14.13L11.88,14.13Z"/></svg>