<svg xmlns="http://www.w3.org/2000/svg" viewBox="0 0 24 24"><path d="M7.6,20.93L7.6,22L4,22C1.53,22,0,20.47,0,18L0,5.4C0,3.57,0.93,2,4,2L15.07,2C15.67,2,16,2.33,16,2.93L16,3.06C16,3.39,15.9,3.64,15.71,3.8C15.12,3.27,14.35,2.93,13.53,2.93C12.62,2.93,11.75,3.35,11.11,4L3.09,4C1.49,4,1.49,6,3.09,6L7.34,6C6.54,6.64,5.99,7.61,5.99,8.6C5.99,9.62,6.65,10.72,7.54,11.38L9.57,17.57C8.26,18.37,7.59,19.68,7.59,20.93Z" fill="currentColor"/><path d="M10.97,9.14C10.98,9.16,10.98,9.16,10.97,9.16Z" fill="currentColor"/><path d="M9.6,20.93C9.6,19.66,10.47,18.96,12.1,18.83L9.2,10C8.5,9.9,8,9.3,8,8.6C8,7.9,8.6,7.27,9.33,7.27C10.03,7.27,10.63,7.87,10.63,8.64C10.63,8.97,10.56,9.24,10.33,9.47L12.76,12.6L13.06,7.73C12.39,7.43,12.09,7,12.09,6.36C12.09,5.56,12.72,4.93,13.52,4.93C14.32,4.93,14.89,5.56,14.89,6.36C14.89,6.86,14.72,7.26,14.36,7.53L15.99,12.4L17.59,7.53C17.22,7.26,17.02,6.86,17.02,6.36C17.02,5.63,17.65,4.93,18.45,4.93C19.25,4.93,19.85,5.56,19.85,6.36C19.85,6.99,19.55,7.43,18.88,7.73L19.21,12.6L21.61,9.47C21.38,9.24,21.28,8.97,21.28,8.64C21.28,7.94,21.91,7.27,22.61,7.27C23.44,7.27,23.98,8,23.98,8.6C23.98,9.23,23.48,9.9,22.75,10L19.88,18.83C21.51,19,22.38,19.66,22.38,20.93L22.38,22L9.58,22Z" fill="currentColor"/></svg>