<svg xmlns="http://www.w3.org/2000/svg" viewBox="0 0 24 24"><path d="M19.33,22L4.66,22C2.66,22,1.99,21.33,1.99,19.33L1.99,4.66C1.99,2.66,2.66,1.99,4.66,1.99L9.16,1.99C9.57,0.82,10.68,-0.01,11.99,-0.01C13.31,-0.01,14.41,0.82,14.82,1.99L19.32,1.99C21.32,1.99,21.99,2.66,21.99,4.66L21.99,19.33C21.99,21.33,21.32,22,19.32,22Z" fill="currentColor"/><path d="M13.17,3C13.17,2.37,12.64,1.83,12,1.83C11.37,1.83,10.83,2.36,10.83,3C10.83,3.63,11.36,4.17,12,4.17C12.63,4.17,13.17,3.64,13.17,3Z" fill="currentColor"/><path d="M14.06,7.8C13.39,7.3,12.99,7.5,12.99,8.33L12.99,10.5L6.92,10.5C6.32,10.5,5.99,10.83,5.99,11.43L5.99,12.56C5.99,13.16,6.32,13.49,6.92,13.49L12.99,13.49L12.99,15.66C12.99,16.49,13.39,16.69,14.06,16.19L18.73,12.56C19.2,12.19,19.2,11.79,18.73,11.43Z" fill="currentColor"/></svg>