<svg xmlns="http://www.w3.org/2000/svg" viewBox="0 0 24 24" fill="currentColor"><path d="M17.97,20.5L5.99,20.5C4.49,20.5,3.99,20,3.99,18.5L3.99,7.49C3.99,5.99,4.49,5.49,5.99,5.49L15.5,5.49C17,5.49,17.5,5.99,17.5,7.49L17.5,17.9C17.5,18.42,17.75,18.67,18.27,18.67C18.8,18.67,19.05,18.42,19.05,17.9L18.97,8.5L20.25,8.63C21.75,8.75,22.17,9.3,21.95,10.78L20.9,17.98C20.55,20.28,19.34,20.51,17.97,20.51ZM6.25,17.5L9.25,17.5L9.25,11.5L6.25,11.5ZM10.75,16L15.25,16L15.25,14.5L10.75,14.5ZM10.75,13L15.25,13L15.25,11.5L10.75,11.5ZM6.25,10L15.25,10L15.25,7.75L6.25,7.75Z"/></svg>