<svg xmlns="http://www.w3.org/2000/svg" viewBox="0 0 24 24" fill="currentColor"><path d="M18.5,20.5L7.49,20.5C5.99,20.5,5.49,20,5.49,18.5L5.49,7.49C5.49,5.99,5.99,5.49,7.49,5.49L10.87,5.49C11.18,4.61,12.01,3.99,12.99,3.99C13.98,3.99,14.81,4.61,15.12,5.49L18.49,5.49C19.99,5.49,20.49,5.99,20.49,7.49L20.49,18.5C20.49,20,19.99,20.5,18.49,20.5ZM13.88,6.25C13.88,5.78,13.48,5.37,13,5.37C12.53,5.37,12.12,5.77,12.12,6.25C12.12,6.72,12.52,7.13,13,7.13C13.47,7.13,13.88,6.73,13.88,6.25ZM13,14.6L15.63,17.22C16.17,17.77,16.58,17.77,17.13,17.22L17.22,17.13C17.77,16.58,17.77,16.17,17.22,15.63L14.6,13L17.22,10.38C17.77,9.83,17.77,9.42,17.22,8.88L17.13,8.78C16.58,8.23,16.17,8.23,15.63,8.78L13,11.4L10.38,8.78C9.83,8.23,9.42,8.23,8.88,8.78L8.78,8.88C8.23,9.42,8.23,9.83,8.78,10.38L11.4,13L8.78,15.63C8.23,16.17,8.23,16.58,8.78,17.13L8.88,17.22C9.42,17.77,9.83,17.77,10.38,17.22Z"/></svg>