<svg xmlns="http://www.w3.org/2000/svg" viewBox="0 0 24 24"><path d="M18.03,8.63C18.03,6.63,17.36,5.96,15.36,5.96L8.03,5.96L8.03,3.36C8.03,1.53,8.96,-0.01,12.03,-0.01L20.1,-0.01C20.7,-0.01,21.03,0.32,21.03,0.92L21.03,1.05C21.03,1.65,20.7,1.98,20.1,1.98L11.13,1.98C9.53,1.98,9.53,3.95,11.13,3.95L20.6,3.95C21.63,3.95,22.03,4.35,22.03,5.38L22.03,14.51C22.03,15.54,21.63,15.94,20.6,15.94L18.03,15.94Z" fill="currentColor"/><path d="M14.6,23.97L4.7,23.97C2.7,23.97,2.03,23.3,2.03,21.3L2.03,11.37C2.03,9.54,2.96,7.97,6.03,7.97L14.1,7.97C14.7,7.97,15.03,8.3,15.03,8.9L15.03,9.03C15.03,9.63,14.7,9.96,14.1,9.96L5.13,9.96C3.53,9.96,3.53,11.96,5.13,11.96L14.6,11.96C15.63,11.96,16.03,12.36,16.03,13.39L16.03,22.52C16.03,23.55,15.63,23.95,14.6,23.95Z" fill="currentColor"/></svg>