<svg xmlns="http://www.w3.org/2000/svg" viewBox="0 0 24 24" fill="currentColor"><path d="M12.45,21.5L6.77,18.32C5.22,17.45,4.85,15.6,6.42,14.48L6.59,14.35L13.42,18.17L20.32,12.92L20.3,12.9C20.99,13.33,21.02,13.67,20.37,14.15L13.42,19.46L7.34,16.06C6.44,15.56,6.14,16.68,7.07,17.21L13.42,20.75L20.32,15.53L20.3,15.5C21,15.93,21.02,16.28,20.37,16.76L14.32,21.38C13.67,21.86,13.14,21.91,12.45,21.51ZM12.45,16.35L6.53,13.03C5.25,12.3,4.71,10.58,6.23,9.43L12.23,4.85C13.13,4.18,13.75,4.13,14.72,4.68L20.3,7.81C20.99,8.21,21.02,8.56,20.37,9.03L13.42,14.33L7.22,10.86C6.29,10.34,5.99,11.46,6.94,11.99L13.41,15.61L20.31,10.41C20.99,10.8,21,11.15,20.37,11.61L14.31,16.24C13.66,16.71,13.13,16.76,12.44,16.37ZM9.87,9.9C9.8,9.98,9.8,10.07,9.93,10.13C10.02,10.18,10.65,10.6,11.6,11.1C12.45,11.58,13.17,11.93,13.25,12.03C13.38,12.05,13.47,12.05,13.57,11.95C13.97,11.55,14.07,11.1,13.89,10.75C13.65,10.1,13.87,9.68,14.04,9.45L14.44,9.68C14.64,9.6,14.79,9.53,14.99,9.33L14.79,8.82C15.09,8.75,15.41,8.6,15.61,8.4C16.06,7.89,15.99,7.32,15.46,7.02C14.91,6.72,14.13,6.9,13.68,7.32C13.46,7.53,13.41,7.83,13.41,8.05L12.73,8.07C12.53,8.28,12.48,8.4,12.48,8.58L12.86,8.82C12.63,8.97,12.16,9.33,11.28,9.3C10.78,9.3,10.26,9.5,9.86,9.9Z"/></svg>