<svg xmlns="http://www.w3.org/2000/svg" viewBox="0 0 24 24"><path d="M10.03,12L10.02,11.97L10,10L16,10L16,4L10,4L10,10L7.9,10L4,10L2,10L2,4.13C2,2.53,2.53,2,4.13,2L15.86,2C17.46,2,17.99,2.53,17.99,4.13L17.99,12Z" fill="currentColor"/><path d="M19.23,22L4.13,22C3.1,22,2.6,21.6,2.3,20.63L0.1,13.26C-0.13,12.46,0.23,11.99,1.07,11.99L6.54,11.99C7.57,11.99,8.17,12.36,8.64,13.26L8.34,12.73C8.81,13.63,9.41,14,10.44,14L16.24,14C17.27,14,17.77,14.4,17.97,15.4L19.1,20.33C19.23,20.93,20,20.96,20,20.33L20,6L22.77,6C23.6,6,24,6.5,23.84,7.3L20.97,20.6C20.77,21.6,20.27,22,19.24,22Z" fill="currentColor"/></svg>