<svg xmlns="http://www.w3.org/2000/svg" viewBox="0 0 24 24"><path d="M19.33,22L4.66,22C2.66,22,1.99,21.33,1.99,19.33L1.99,4.66C1.99,2.66,2.66,1.99,4.66,1.99L9.16,1.99C9.57,0.82,10.68,-0.01,11.99,-0.01C13.31,-0.01,14.41,0.82,14.82,1.99L19.32,1.99C21.32,1.99,21.99,2.66,21.99,4.66L21.99,19.33C21.99,21.33,21.32,22,19.32,22Z" fill="currentColor"/><path d="M13.17,3C13.17,2.37,12.64,1.83,12,1.83C11.37,1.83,10.83,2.36,10.83,3C10.83,3.63,11.36,4.17,12,4.17C12.63,4.17,13.17,3.64,13.17,3Z" fill="currentColor"/><path d="M10.5,17.53C10.5,18.6,10.9,19,11.93,19L12.03,19C13.1,19,13.5,18.6,13.5,17.57L13.5,13.5L17.57,13.5C18.6,13.5,19,13.1,19,12.03L19,11.93C19,10.9,18.6,10.5,17.53,10.5L13.5,10.5L13.5,6.47C13.5,5.4,13.1,5,12.07,5L11.97,5C10.9,5,10.5,5.4,10.5,6.43L10.5,10.5L6.43,10.5C5.4,10.5,5,10.9,5,11.97L5,12.07C5,13.1,5.4,13.5,6.47,13.5L10.5,13.5Z" fill="currentColor"/></svg>