<svg xmlns="http://www.w3.org/2000/svg" viewBox="0 0 24 24" fill="currentColor"><path d="M18.5,20.5L7.49,20.5C5.99,20.5,5.49,20,5.49,18.5L5.49,7.49C5.49,5.99,5.99,5.49,7.49,5.49L10.87,5.49C11.18,4.61,12.01,3.99,12.99,3.99C13.98,3.99,14.81,4.61,15.12,5.49L18.49,5.49C19.99,5.49,20.49,5.99,20.49,7.49L20.49,18.5C20.49,20,19.99,20.5,18.49,20.5ZM13,5.37C12.53,5.37,12.12,5.77,12.12,6.25C12.12,6.72,12.52,7.13,13,7.13C13.47,7.13,13.88,6.73,13.88,6.25C13.88,5.78,13.48,5.37,13,5.37ZM16.85,16.25L16.3,11.87C16.22,11.25,15.9,11.15,15.47,11.57L14.33,12.72L11.1,9.52C10.78,9.2,10.43,9.2,10.1,9.52L9.53,10.12C9.2,10.44,9.2,10.79,9.53,11.12L12.73,14.32L11.58,15.47C11.15,15.89,11.26,16.22,11.88,16.29L16.25,16.84C16.7,16.92,16.93,16.69,16.85,16.24Z"/></svg>