<svg xmlns="http://www.w3.org/2000/svg" viewBox="0 0 24 24" fill="currentColor"><path d="M4.92,14.5C3.85,13.43,3.85,12.72,4.92,11.65L11.17,5.4C12.24,4.33,12.95,4.33,14.02,5.4L20.02,11.4L10.92,20.5ZM12.45,15.85C12.77,16.17,13.13,16.17,13.45,15.85L15.38,13.92C15.7,13.6,15.7,13.25,15.38,12.93L15.33,12.87C15,12.55,14.65,12.55,14.33,12.87L12.4,14.77C12.08,15.09,12.08,15.44,12.4,15.77ZM19,19.8C19.02,20.25,19.3,20.5,19.75,20.5L19.83,20.5C20.28,20.5,20.5,20.25,20.45,19.8L19.83,13.6L18.63,14.85Z"/></svg>