<svg xmlns="http://www.w3.org/2000/svg" viewBox="0 0 24 24" fill="currentColor"><path d="M18.5,20.5L7.49,20.5C5.99,20.5,5.49,20,5.49,18.5L5.49,7.49C5.49,5.99,5.99,5.49,7.49,5.49L10.87,5.49C11.18,4.61,12.01,3.99,12.99,3.99C13.98,3.99,14.81,4.61,15.12,5.49L18.49,5.49C19.99,5.49,20.49,5.99,20.49,7.49L20.49,18.5C20.49,20,19.99,20.5,18.49,20.5ZM13,5.37C12.53,5.37,12.12,5.77,12.12,6.25C12.12,6.72,12.52,7.13,13,7.13C13.47,7.13,13.88,6.73,13.88,6.25C13.88,5.78,13.48,5.37,13,5.37ZM14.55,9.85C14.04,9.48,13.74,9.63,13.74,10.25L13.74,11.88L9.19,11.88C8.74,11.88,8.49,12.12,8.49,12.57L8.49,13.42C8.49,13.87,8.74,14.12,9.19,14.12L13.74,14.12L13.74,15.74C13.74,16.37,14.04,16.52,14.55,16.14L18.05,13.42C18.4,13.14,18.4,12.84,18.05,12.57Z"/></svg>