<svg xmlns="http://www.w3.org/2000/svg" viewBox="0 0 24 24"><path d="M8.6,20.93L8.6,22L4,22C1.53,22,0,20.47,0,18L0,5.4C0,3.57,0.93,2,4,2L15.07,2C15.67,2,16,2.33,16,2.93L16,3.06C16,3.66,15.67,3.99,15.07,3.99L3.1,3.99C1.5,3.99,1.5,5.99,3.1,5.99L10.18,5.99L10.47,10.02C10.55,10.83,10.99,11.72,11.67,12.42L10.82,17.12C9.31,17.95,8.59,19.37,8.59,20.92Z" fill="currentColor"/><path d="M12.4,19.77L14.07,10.44L19.94,10.44L21.61,19.77Z" fill="currentColor"/><path d="M10.6,20.93C10.6,19.1,11.67,18.16,17,18.16C22.3,18.16,23.4,19.09,23.4,20.93L23.4,22L10.6,22Z" fill="currentColor"/><path d="M20.13,12.07L13.86,12.07C12.89,11.4,12.53,10.64,12.46,9.87L12.26,6.77C12.89,6.5,13.39,6.37,13.99,6.37L14.39,8.14L15.72,8.14L15.95,6.11C15.95,6.11,16.52,6.01,16.98,6.01C17.45,6.01,18.01,6.11,18.01,6.11L18.24,8.14L19.57,8.14L19.97,6.37C20.57,6.37,21.07,6.5,21.7,6.77L21.5,9.87C21.43,10.64,21.07,11.4,20.1,12.07Z" fill="currentColor"/></svg>