<svg xmlns="http://www.w3.org/2000/svg" viewBox="0 0 24 24"><path d="M6,2.5C6,2.2,6.2,2,6.5,2L12.2,2C12.5,2,12.77,2.2,12.9,2.47L13.37,3.54C13.5,3.81,13.77,4.01,14.07,4.01L21.5,4.01C21.8,4.01,22,4.21,22,4.51L22,13.31C22,15.06,21.49,15.79,20.03,15.94L20.03,10.51C20.03,9.21,18.83,8.01,17.53,8.01L10.9,8.01L10.75,7.69C10.45,6.75,9.3,5.98,8.2,5.98L6,5.98Z" fill="currentColor"/><path d="M15.33,22L4.66,22C2.66,22,1.99,21.33,1.99,19.33L1.99,8.5C1.99,8.2,2.19,8,2.49,8L8.19,8C8.49,8,8.76,8.17,8.89,8.47L9.39,9.54C9.52,9.84,9.79,10.01,10.09,10.01L17.49,10.01C17.79,10.01,17.99,10.21,17.99,10.51L17.99,19.34C17.99,21.34,17.32,22.01,15.32,22.01Z" fill="currentColor"/></svg>