<svg xmlns="http://www.w3.org/2000/svg" viewBox="0 0 24 24"><path d="M12.22,6C12.2,6.02,12.17,6.04,12.14,6.07C11.77,6.35,10.97,7.64,10.91,7.82C10.46,8.99,10.46,9.18,10.23,9.5L8.92,11.35C8.16,12.45,8.33,14.42,9.27,15.26C10.02,15.91,11.13,16.29,12.13,16.33C11.94,16.64,11.77,16.97,11.64,17.3C9.9,18.04,8.99,19.55,8.99,20.96L8.99,21.99L3.99,21.99C1.52,21.99,-0.01,20.46,-0.01,17.99L-0.01,5.39C-0.01,3.56,0.92,1.99,3.99,1.99L15.06,1.99C15.66,1.99,15.99,2.32,15.99,2.92L15.99,3.05C15.99,3.23,15.96,3.38,15.91,3.51C14.79,3.1,13.95,3.41,13.37,3.99L3.1,3.99C1.5,3.99,1.5,5.99,3.1,5.99Z" fill="currentColor"/><path d="M10.6,13.77C10.27,13.47,10.27,12.94,10.57,12.5L11.87,10.67C12.47,9.84,12.47,9.37,12.8,8.5C12.87,8.3,13,7.93,13.43,7.6C13.83,7.23,14.13,6.97,14.3,6.53L14.43,5.8C14.5,5.53,14.7,5.33,14.93,5.33L16.33,6.76C19.16,6.93,22.3,8.99,22.3,13.63C22.3,15,21.4,17.46,21.13,18.9C22.63,19.13,23.5,19.83,23.5,20.97L23.5,22L11,22L11,20.97C11,19.84,11.83,19.14,13.3,18.9C13.33,15.13,17.2,14.4,17.2,12.57C17.2,12,16.87,11.54,16.73,11.37L16.3,11.87C15.9,12.3,15.13,13.07,14.27,13.07C13.14,13.1,13.1,13.9,12.6,14.4C12.47,14.5,11.1,14.2,10.6,13.77Z" fill="currentColor"/></svg>