<svg xmlns="http://www.w3.org/2000/svg" viewBox="0 0 24 24"><path d="M4.67,22C2.67,22,2,21.33,2,19.33L2,4.66C2,2.66,2.67,1.99,4.67,1.99L16,1.99L16,21.99Z" fill="currentColor"/><path d="M6,18L16,18L16,6L6,6L6,8L16,8L16,11L6,11L6,13L16,13L16,16L6,16Z" fill="currentColor"/><path d="M21.66,23.16C21.19,24.06,20.79,24.06,20.33,23.16L18.66,20.16C18.19,19.26,17.99,18.49,17.99,17.46L17.99,2.66C17.99,0.66,18.66,-0.01,20.66,-0.01L21.33,-0.01C23.33,-0.01,24,0.66,24,2.66L24,17.43C24,18.46,23.8,19.23,23.33,20.13Z" fill="currentColor"/></svg>