<svg xmlns="http://www.w3.org/2000/svg" viewBox="0 0 24 24"><path d="M3.7,20.33C0.9,17.5,1.03,13.13,4.03,10.1L11.23,2.87C13.5,0.6,16.4,0.47,18.6,2.64C20.83,4.87,20.57,7.71,18.3,9.94L11.1,17.17C9.7,18.57,7.73,18.74,6.53,17.5C5.33,16.3,5.46,14.33,6.86,12.93L13.83,5.93C14.26,5.5,14.73,5.5,15.16,5.93L15.26,6C15.69,6.43,15.69,6.9,15.26,7.33L8.29,14.36C7.69,14.93,7.56,15.69,7.96,16.09C8.36,16.49,9.09,16.32,9.66,15.72L16.89,8.52C18.42,6.95,18.56,5.42,17.16,4.05C15.79,2.68,14.16,2.78,12.63,4.28L5.46,11.51C3.23,13.71,3.09,16.88,5.13,18.91C7.13,20.91,10.3,20.78,12.5,18.54L19.5,11.54C19.93,11.11,20.4,11.11,20.83,11.54L20.9,11.64C21.33,12.07,21.33,12.54,20.9,12.97L13.93,19.97C10.9,22.97,6.53,23.1,3.7,20.3Z" fill="currentColor"/></svg>