<svg xmlns="http://www.w3.org/2000/svg" viewBox="0 0 24 24"><path d="M19.33,22L4.66,22C2.66,22,1.99,21.33,1.99,19.33L1.99,4.66C1.99,2.66,2.66,1.99,4.66,1.99L9.16,1.99C9.57,0.82,10.68,-0.01,11.99,-0.01C13.31,-0.01,14.41,0.82,14.82,1.99L19.32,1.99C21.32,1.99,21.99,2.66,21.99,4.66L21.99,19.33C21.99,21.33,21.32,22,19.32,22Z" fill="currentColor"/><path d="M13.17,3C13.17,2.37,12.64,1.83,12,1.83C11.37,1.83,10.83,2.36,10.83,3C10.83,3.63,11.36,4.17,12,4.17C12.63,4.17,13.17,3.64,13.17,3Z" fill="currentColor"/><path d="M6,8.03C6,8.63,6.33,8.96,6.93,8.96L17.06,8.96C17.66,8.96,17.99,8.63,17.99,8.03L17.99,7.9C17.99,7.3,17.66,6.97,17.06,6.97L6.93,6.97C6.33,6.97,6,7.3,6,7.9Z" fill="currentColor"/><path d="M6,16.03C6,16.63,6.33,16.96,6.93,16.96L13.06,16.96C13.66,16.96,13.99,16.63,13.99,16.03L13.99,15.9C13.99,15.3,13.66,14.97,13.06,14.97L6.93,14.97C6.33,14.97,6,15.3,6,15.9Z" fill="currentColor"/><path d="M6,12.03C6,12.63,6.33,12.96,6.93,12.96L17.06,12.96C17.66,12.96,17.99,12.63,17.99,12.03L17.99,11.9C17.99,11.3,17.66,10.97,17.06,10.97L6.93,10.97C6.33,10.97,6,11.3,6,11.9Z" fill="currentColor"/></svg>