<svg xmlns="http://www.w3.org/2000/svg" viewBox="0 0 24 24" fill="currentColor"><path d="M12.45,21.5L6.8,18.32C5.28,17.45,4.91,15.6,6.48,14.48L6.66,14.35L13.43,18.17L20.28,12.92L20.25,12.9C20.95,13.33,20.98,13.67,20.33,14.15L13.43,19.46L7.38,16.06C6.5,15.56,6.2,16.68,7.1,17.21L13.42,20.75L20.27,15.53L20.25,15.5C20.94,15.93,20.97,16.28,20.32,16.76L14.32,21.38C13.67,21.86,13.14,21.91,12.45,21.51ZM12.45,16.35L6.58,13.03C5.3,12.3,4.76,10.58,6.28,9.43L12.23,4.85C13.13,4.18,13.75,4.13,14.72,4.68L20.25,7.81C20.95,8.21,20.98,8.56,20.33,9.03L13.43,14.33L7.25,10.86C6.35,10.34,6.05,11.46,6.98,11.99L13.43,15.61L20.28,10.41C20.95,10.8,20.97,11.15,20.33,11.61L14.33,16.24C13.68,16.71,13.15,16.76,12.45,16.37Z"/></svg>