<svg xmlns="http://www.w3.org/2000/svg" viewBox="0 0 24 24"><path d="M0,5.4C0,3.57,0.93,2,4,2L15.07,2C15.67,2,16,2.33,16,2.93L16,3.06C16,3.66,15.67,3.99,15.07,3.99L3.1,3.99C1.5,3.99,1.5,5.99,3.1,5.99L14.71,5.99C13.35,6.82,12.4,8.33,12.4,9.92C12.4,10.37,12.53,10.93,12.77,11.51C11.47,12.86,11.61,14.91,13.22,16.14C13.06,16.29,12.85,16.47,12.57,16.7C11.2,17.9,9.7,19.69,9.7,21.99L4,21.99C1.53,21.99,0,20.46,0,17.99Z" fill="currentColor"/><path d="M22.43,22L11.56,22C11.56,18.2,15.33,18.8,15.59,15.03L15.66,14.4L14.13,14.4C13.96,14.07,13.86,13.67,13.86,13.3L15.66,12.2C14.76,11.63,14.39,10.8,14.39,9.93C14.39,8.5,15.56,7.33,16.99,7.33C18.42,7.33,19.59,8.5,19.59,9.93C19.59,10.86,19.32,11.53,18.32,12.2L20.12,13.3C20.12,13.67,20.02,14.07,19.85,14.4L18.32,14.4L18.39,15.03C18.66,18.8,22.42,18.2,22.42,22Z" fill="currentColor"/></svg>