<svg xmlns="http://www.w3.org/2000/svg" viewBox="0 0 24 24"><path d="M11,8.43L11,21.56C11,21.79,10.77,21.89,10.6,21.69C8.87,19.42,7.1,18.99,4.63,18.99L1.43,18.99C0.4,18.99,0,18.59,0,17.56L0,5.43C0,4.4,0.4,4,1.43,4L5.06,4C8.06,4,9.39,4.63,10.26,5.77C10.79,6.67,10.99,7.4,10.99,8.44Z" fill="currentColor"/><path d="M13,21.57L13,8.44C13,7.41,13.2,6.67,13.73,5.77C14.6,4.64,15.93,4,18.93,4L22.56,4C23.59,4,23.99,4.4,23.99,5.43L23.99,17.56C23.99,18.59,23.59,18.99,22.56,18.99L19.36,18.99C16.89,18.99,15.13,19.42,13.39,21.69C13.22,21.89,12.99,21.79,12.99,21.56Z" fill="currentColor"/></svg>