<svg xmlns="http://www.w3.org/2000/svg" viewBox="0 0 24 24" fill="currentColor"><path d="M7,10.75L7,8.5L14.5,8.5L14.5,10.75ZM7,17.45L7,12.25L10,12.25L10,17.45ZM11.5,16.75L11.5,15.25L14.5,15.25L14.5,16.75ZM11.5,13.75L11.5,12.25L14.5,12.25L14.5,13.75ZM20.32,18.15C19.6,20.82,16,20.62,16,17.9L16,7.75C16,7,16,7,15.25,7L6.25,7C5.5,7,5.5,7,5.5,7.75L5.5,18.2C5.5,18.95,5.5,18.95,6.25,18.95L17.48,18.95C18.66,18.95,18.66,18.95,18.94,17.65L20.42,10.85C20.56,10.17,20.56,10.17,20.03,10.1L18.98,9.98L19.16,8.48L20.21,8.61C21.83,8.81,22.23,9.51,21.88,11.16L20.4,17.96C19.9,20.24,18.85,20.44,17.48,20.44L6.25,20.44C4.58,20.44,4,19.86,4,18.19L4,7.74C4,6.07,4.58,5.49,6.25,5.49L15.25,5.49C16.92,5.49,17.5,6.07,17.5,7.74L17.5,17.89C17.5,18.96,18.6,18.81,18.87,17.94Z"/></svg>