<svg xmlns="http://www.w3.org/2000/svg" viewBox="0 0 24 24"><path d="M18.57,22L6.24,22L20.01,8.23L20.01,20.56C20.01,21.59,19.61,21.99,18.58,21.99Z" fill="currentColor"/><path d="M23.37,2L2.04,23.33C1.97,23.4,1.92,23.46,1.87,23.53C1.5,23.78,1.11,23.73,0.74,23.36L0.64,23.26C0.21,22.83,0.21,22.36,0.64,21.93L2.48,20.09C2.17,19.5,2.01,18.8,2.01,17.99L2.01,5.39C2.01,3.56,2.94,1.99,6.01,1.99L15.08,1.99C15.68,1.99,16.01,2.32,16.01,2.92L16.01,3.05C16.01,3.65,15.68,3.98,15.08,3.98L5.11,3.98C3.51,3.98,3.51,5.98,5.11,5.98L16.58,5.98L21.98,0.58C22.41,0.15,22.88,0.15,23.31,0.58L23.41,0.68C23.78,1.05,23.83,1.44,23.58,1.81C23.51,1.86,23.44,1.91,23.38,1.98Z" fill="currentColor"/></svg>