<svg xmlns="http://www.w3.org/2000/svg" viewBox="0 0 24 24" fill="currentColor"><path d="M10.75,19.7L10.75,20.5L7,20.5C5.15,20.5,4,19.35,4,17.5L4,8.05C4,6.68,4.7,5.5,7,5.5L15.3,5.5C15.75,5.5,16,5.75,16,6.2L16,6.29C16,6.3,16,6.3,16,6.31C15.57,6.44,15.17,6.68,14.83,7L6.33,7C5.13,7,5.13,8.5,6.33,8.5L13.94,8.5C13.88,8.73,13.85,8.96,13.85,9.2C13.85,9.28,13.85,9.41,13.88,9.65C12.86,10.88,11.84,12.76,11.84,14.67C11.84,15.58,12.03,16.41,12.31,17.13C11.26,17.71,10.74,18.69,10.74,19.7ZM12.25,19.7C12.25,18.75,13.1,18.12,14.52,18.1C13.87,17.15,13.35,16.1,13.35,14.67C13.35,12.1,15.5,10.1,15.5,10.1C15.35,9.48,15.35,9.35,15.35,9.2C15.35,8.35,15.97,7.7,16.75,7.7C17.52,7.7,18.15,8.35,18.15,9.2C18.15,9.45,18.13,9.9,17.78,10.32C16.75,11.5,16,13.15,15.88,15.1L17.21,15.1C17.3,13.47,17.81,12.12,18.69,11.05C19.31,11.5,20.16,13.05,20.16,14.67C20.16,16.15,19.69,17.2,19.02,18.1C20.42,18.15,21.27,18.75,21.27,19.7L21.27,20.5L12.27,20.5Z"/></svg>