<svg xmlns="http://www.w3.org/2000/svg" viewBox="0 0 24 24" fill="currentColor"><path d="M17.93,20.5L8.5,20.5C6.65,20.5,5.5,19.35,5.5,17.5L5.5,8.05C5.5,6.68,6.2,5.5,8.5,5.5L16.8,5.5C17.25,5.5,17.5,5.75,17.5,6.2L17.5,6.29C17.5,6.74,17.25,6.99,16.8,6.99L7.82,6.99C6.63,6.99,6.63,8.49,7.82,8.49L17.93,8.49C18.7,8.49,19,8.79,19,9.56L19,19.41C19,20.18,18.7,20.48,17.93,20.48ZM16.28,17C16.28,16.23,16,16.02,15.28,16.3C14.53,16.5,13.86,16.6,13.28,16.6C11.93,16.6,11.05,16.2,10.85,15.35L15.56,15.35C16.33,15.35,16.63,15.05,16.68,14.28C16.61,11.5,15.01,9.95,12.48,9.95C9.88,9.95,8,11.45,8,14.43C8,17.5,10.38,18.95,13.08,18.95C13.83,18.95,14.58,18.85,15.25,18.65C16,18.4,16.28,18,16.28,17.22ZM10.82,13.35C10.95,12.58,11.6,12.21,12.47,12.21C13.35,12.21,13.97,12.53,14.05,13.35Z"/></svg>