<svg xmlns="http://www.w3.org/2000/svg" viewBox="0 0 24 24" fill="currentColor"><path d="M18.5,20.5L7.49,20.5C5.99,20.5,5.49,20,5.49,18.5L5.49,7.49C5.49,5.99,5.99,5.49,7.49,5.49L10.87,5.49C11.18,4.61,12.01,3.99,12.99,3.99C13.98,3.99,14.81,4.61,15.12,5.49L18.49,5.49C19.99,5.49,20.49,5.99,20.49,7.49L20.49,18.5C20.49,20,19.99,20.5,18.49,20.5ZM13,5.37C12.53,5.37,12.12,5.77,12.12,6.25C12.12,6.72,12.52,7.13,13,7.13C13.47,7.13,13.88,6.73,13.88,6.25C13.88,5.78,13.48,5.37,13,5.37ZM8.22,13.95L11.05,16.78C11.6,17.33,12,17.33,12.55,16.78L17.97,11.33C18.52,10.8,18.5,10.38,17.95,9.83L17.9,9.75C17.35,9.21,16.92,9.21,16.38,9.75L11.8,14.33L9.83,12.36C9.28,11.81,8.85,11.83,8.3,12.38L8.23,12.43C7.68,12.98,7.68,13.4,8.23,13.95Z"/></svg>