<svg xmlns="http://www.w3.org/2000/svg" viewBox="0 0 24 24"><path d="M20,7.55C18.48,7.55,16.91,8.15,15.63,9.43L9.5,15.63C7.65,17.48,7.22,19.93,7.98,22L2.67,22C0.67,22,0,21.33,0,19.33L0,10L5.33,10C7.33,10,8,9.33,8,7.33L8,2L17.33,2C19.33,2,20,2.67,20,4.67Z" fill="currentColor"/><path d="M6,8L0,8L6,2Z" fill="currentColor"/><path d="M14.97,18.57C13.37,16.97,13.37,14.47,15.1,12.77L17.03,10.87C18.8,9.1,21.26,9.17,22.8,10.77C24.37,12.27,24.43,14.74,22.67,16.5L21.04,18.13C21.17,17.03,21.01,16.26,20.84,15.5L21.24,15.1C22.31,14.03,22.24,13,21.41,12.17C20.51,11.24,19.51,11.17,18.44,12.27L16.51,14.2C15.48,15.2,15.48,16.23,16.38,17.13C16.58,17.33,16.68,17.53,16.68,17.86C16.68,18.39,16.25,18.86,15.68,18.86C15.41,18.86,15.18,18.73,14.98,18.56Z" fill="currentColor"/><path d="M10.77,22.77C9.24,21.27,9.17,18.8,10.94,17.04L12.57,15.37C12.44,16.47,12.6,17.24,12.77,18L12.34,18.43C11.27,19.5,11.34,20.5,12.21,21.36C13.08,22.26,14.08,22.33,15.18,21.26L17.11,19.33C18.11,18.33,18.11,17.26,17.21,16.4C17.04,16.2,16.91,16,16.91,15.67C16.91,15.14,17.34,14.67,17.91,14.67C18.18,14.67,18.44,14.8,18.61,14.94C20.21,16.57,20.21,19.04,18.51,20.77L16.58,22.67C14.81,24.44,12.31,24.37,10.78,22.77Z" fill="currentColor"/></svg>