<svg xmlns="http://www.w3.org/2000/svg" viewBox="0 0 24 24"><path d="M9,20.93L9,22L4,22C1.53,22,0,20.47,0,18L0,5.4C0,3.57,0.93,2,4,2L15.07,2C15.67,2,16,2.33,16,2.93L16,3.06C16,3.07,16,3.07,16,3.08C15.42,3.25,14.89,3.58,14.44,4L3.1,4C1.5,4,1.5,6,3.1,6L13.25,6C13.17,6.3,13.13,6.61,13.13,6.93C13.13,7.04,13.13,7.22,13.17,7.53C11.81,9.18,10.46,11.68,10.46,14.23C10.46,15.44,10.71,16.54,11.08,17.5C9.68,18.28,8.99,19.59,8.99,20.93Z" fill="currentColor"/><path d="M11,20.93C11,19.66,12.13,18.83,14.03,18.8C13.16,17.53,12.46,16.13,12.46,14.23C12.46,10.8,15.33,8.13,15.33,8.13C15.13,7.3,15.13,7.13,15.13,6.93C15.13,5.8,15.96,4.93,17,4.93C18.03,4.93,18.87,5.8,18.87,6.93C18.87,7.26,18.84,7.86,18.37,8.43C17,10,16,12.2,15.84,14.8L17.61,14.8C17.74,12.63,18.41,10.83,19.58,9.4C20.41,10,21.55,12.07,21.55,14.23C21.55,16.2,20.92,17.6,20.02,18.8C21.89,18.87,23.02,19.67,23.02,20.93L23.02,22L11.02,22Z" fill="currentColor"/></svg>