<svg xmlns="http://www.w3.org/2000/svg" viewBox="0 0 24 24" fill="currentColor"><path d="M12.25,10.32L12.25,12.67L13.75,11.17L13.75,10.32C13.75,9.55,13.9,9,14.3,8.32C14.92,7.5,15.87,7.04,17.92,7L20.47,4.45C20.79,4.13,21.14,4.13,21.47,4.45L21.54,4.52C21.86,4.84,21.87,5.18,21.57,5.5C21.56,5.51,21.55,5.51,21.54,5.52L20.07,7L13.74,13.32L12.24,14.82L8.74,18.33L5.57,21.5L5.55,21.52C5.22,21.84,4.87,21.84,4.55,21.52L4.47,21.45C4.15,21.12,4.15,20.77,4.47,20.45L6.67,18.25L5.07,18.25C4.3,18.25,4,17.95,4,17.18L4,8.08C4,7.31,4.3,7.01,5.07,7.01L7.8,7.01C10.05,7.01,11.04,7.48,11.7,8.33C12.09,9.01,12.24,9.56,12.24,10.34ZM13.75,15.48L21.85,7.38C21.96,7.54,22,7.77,22,8.08L22,17.18C22,17.95,21.7,18.25,20.93,18.25L18.53,18.25C16.68,18.25,15.36,18.57,14.05,20.27C13.92,20.42,13.75,20.35,13.75,20.18ZM12.25,16.97L12.25,20.18C12.25,20.35,12.08,20.42,11.95,20.27C11.44,19.61,10.93,19.15,10.38,18.84Z"/></svg>