<svg xmlns="http://www.w3.org/2000/svg" viewBox="0 0 24 24"><path d="M10,16.97L10,22L3.33,22C0.83,22,0,21.17,0,18.67L0,3.34C0,2.51,0.5,2.01,1.33,2.01L7.43,2.01C8.03,2.01,8.5,2.31,8.7,2.88L9.23,4.15C9.43,4.72,9.9,5.02,10.5,5.02L18.67,5.02C19.5,5.02,20,5.52,20,6.35L20,7.91C19.39,7.74,18.72,7.65,18,7.65C14.3,7.65,12,9.98,12,13.72L12,14.05C10.53,14.28,10,15.12,10,16.98Z" fill="currentColor"/><path d="M22.57,23.97L13.4,23.97C12.43,23.97,12.03,23.57,12.03,22.54L12.03,17.34C12.03,16.37,12.43,15.97,13.46,15.97L13.99,15.97L13.99,13.7C13.99,11.2,15.52,9.63,17.99,9.63C20.46,9.63,21.99,11.2,21.99,13.7L21.99,15.97L22.62,15.97C23.59,15.97,23.99,16.37,23.99,17.4L23.99,22.6C23.99,23.57,23.59,23.97,22.56,23.97Z" fill="currentColor"/><path d="M19.17,20.96C19.17,20.29,18.67,19.79,18,19.79C17.33,19.79,16.83,20.29,16.83,20.96C16.83,21.63,17.33,22.13,18,22.13C18.67,22.13,19.17,21.63,19.17,20.96Z" fill="currentColor"/><path d="M16,15.97L20,15.97L20,13.7C20,12.43,19.23,11.63,18,11.63C16.77,11.63,16,12.43,16,13.7Z" fill="currentColor"/></svg>