<svg xmlns="http://www.w3.org/2000/svg" viewBox="0 0 24 24" fill="currentColor"><path d="M4,8.05C4,6.68,4.7,5.5,7,5.5L15.3,5.5C15.75,5.5,16,5.75,16,6.2L16,6.29C16,6.74,15.75,6.99,15.3,6.99L6.32,6.99C5.13,6.99,5.13,8.49,6.32,8.49L15.03,8.49C14.01,9.11,13.3,10.25,13.3,11.44C13.3,11.78,13.4,12.2,13.58,12.63C12.6,13.64,12.71,15.18,13.92,16.1C13.8,16.22,13.64,16.35,13.43,16.52C12.4,17.42,11.28,18.77,11.28,20.49L7,20.49C5.15,20.49,4,19.34,4,17.49ZM12.67,20.5C12.67,17.65,15.5,18.1,15.69,15.27L15.75,14.8L14.6,14.8C14.47,14.55,14.39,14.25,14.39,13.98L15.75,13.15C15.07,12.72,14.79,12.1,14.79,11.45C14.79,10.38,15.67,9.5,16.74,9.5C17.82,9.5,18.69,10.38,18.69,11.45C18.69,12.14,18.49,12.65,17.74,13.15L19.09,13.98C19.09,14.25,19.02,14.55,18.89,14.8L17.74,14.8L17.79,15.27C18,18.1,20.82,17.65,20.82,20.5Z"/></svg>