<svg xmlns="http://www.w3.org/2000/svg" viewBox="0 0 24 24" fill="currentColor"><path d="M8.5,5.88C8.5,5.65,8.65,5.5,8.88,5.5L13.15,5.5C13.38,5.5,13.58,5.65,13.67,5.85L14.03,6.66C14.12,6.86,14.33,7.01,14.55,7.01L20.12,7.01C20.35,7.01,20.5,7.16,20.5,7.38L20.5,13.98C20.5,15.3,20.12,15.84,19.02,15.96L19.02,11.88C19.02,10.91,18.12,10.01,17.15,10.01L12.17,10.01L12.06,9.77C11.84,9.06,10.97,8.48,10.15,8.48L8.5,8.48ZM15.5,20.5L7.49,20.5C5.99,20.5,5.49,20,5.49,18.5L5.49,10.37C5.49,10.15,5.64,10,5.87,10L10.14,10C10.37,10,10.57,10.13,10.67,10.35L11.04,11.15C11.14,11.38,11.34,11.51,11.57,11.51L17.12,11.51C17.34,11.51,17.49,11.66,17.49,11.88L17.49,18.5C17.49,20,16.99,20.51,15.49,20.51Z"/></svg>