<svg xmlns="http://www.w3.org/2000/svg" viewBox="0 0 24 24" fill="currentColor"><path d="M17.93,20.5L8.5,20.5C6.65,20.5,5.5,19.35,5.5,17.5L5.5,8.05C5.5,6.68,6.2,5.5,8.5,5.5L16.8,5.5C17.25,5.5,17.5,5.75,17.5,6.2L17.5,6.29C17.5,6.74,17.25,6.99,16.8,6.99L7.82,6.99C6.63,6.99,6.63,8.49,7.82,8.49L17.93,8.49C18.7,8.49,19,8.79,19,9.56L19,19.41C19,20.18,18.7,20.48,17.93,20.48ZM11.78,19.13C12.6,19.13,13.28,18.93,13.88,18.43C14.03,18.86,14.33,19.01,14.9,19.01L14.96,19.01C15.73,19.01,16.03,18.71,16.03,17.94L16.03,8.51L13.78,8.51L13.78,11.96C13.33,11.64,12.71,11.38,11.81,11.38C9.73,11.38,8,12.71,8,15.18C8,17.53,9.53,19.14,11.78,19.14ZM10.25,15.25C10.25,14.22,11,13.52,12.05,13.52C13.08,13.52,13.77,14.22,13.77,15.25C13.77,16.28,13.08,16.98,12.05,16.98C11,16.98,10.25,16.28,10.25,15.25Z"/></svg>