<svg xmlns="http://www.w3.org/2000/svg" viewBox="0 0 24 24" fill="currentColor"><path d="M8.5,21.75C7.73,22.3,7,21.83,7,20.85L7,7.5C7,6,7.5,5.5,9,5.5L17,5.5C18.5,5.5,19.01,6,19.01,7.5L19.01,20.85C19.01,21.83,18.28,22.3,17.51,21.75L13.01,18.51ZM12.97,13.3L14.67,14.95C15.02,15.3,15.37,15.3,15.72,14.95C16.07,14.6,16.1,14.22,15.72,13.88L14.05,12.23L15.72,10.56C16.07,10.2,16.07,9.86,15.72,9.51C15.37,9.15,15.02,9.13,14.65,9.51L12.98,11.18L11.33,9.53C10.97,9.18,10.63,9.18,10.28,9.53C9.92,9.88,9.9,10.26,10.28,10.6L11.93,12.23L10.25,13.9C9.9,14.25,9.9,14.6,10.25,14.95C10.6,15.3,10.95,15.33,11.32,14.95Z"/></svg>