<svg xmlns="http://www.w3.org/2000/svg" viewBox="0 0 24 24" fill="currentColor"><path d="M12.25,10.32L12.25,20.17C12.25,20.34,12.08,20.42,11.95,20.27C10.65,18.57,9.32,18.24,7.47,18.24L5.07,18.24C4.3,18.24,4,17.94,4,17.17L4,8.07C4,7.3,4.3,7,5.07,7L7.79,7C10.04,7,11.04,7.47,11.69,8.33C12.09,9,12.24,9.55,12.24,10.33ZM13.75,20.18L13.75,10.33C13.75,9.56,13.9,9,14.3,8.33C14.95,7.48,15.95,7,18.2,7L20.92,7C21.69,7,21.99,7.3,21.99,8.07L21.99,17.17C21.99,17.94,21.69,18.24,20.92,18.24L18.52,18.24C16.67,18.24,15.35,18.57,14.04,20.27C13.91,20.42,13.74,20.34,13.74,20.17Z"/></svg>