<svg xmlns="http://www.w3.org/2000/svg" viewBox="0 0 24 24" fill="currentColor"><path d="M11.5,20.5L6.5,20.5C4.62,20.5,4,19.88,4,18L4,6.51C4,5.88,4.38,5.51,5,5.51L9.57,5.51C10.02,5.51,10.38,5.73,10.52,6.16L10.92,7.11C11.07,7.54,11.42,7.77,11.87,7.77L18,7.77C18.62,7.77,19,8.14,19,8.76L19,9.93C18.54,9.81,18.04,9.74,17.5,9.74C14.73,9.74,13,11.49,13,14.29L13,14.54C11.9,14.71,11.5,15.34,11.5,16.73ZM20.93,21.98L14.05,21.98C13.32,21.98,13.02,21.68,13.02,20.91L13.02,17C13.02,16.28,13.32,15.98,14.09,15.98L14.49,15.98L14.49,14.27C14.49,12.4,15.64,11.22,17.49,11.22C19.34,11.22,20.49,12.4,20.49,14.27L20.49,15.98L20.96,15.98C21.69,15.98,21.99,16.28,21.99,17.05L21.99,20.95C21.99,21.68,21.69,21.98,20.92,21.98ZM18.38,19.72C18.38,19.22,18,18.84,17.5,18.84C17,18.84,16.62,19.22,16.62,19.72C16.62,20.22,17,20.6,17.5,20.6C18,20.6,18.38,20.22,18.38,19.72ZM16,15.98L19,15.98L19,14.27C19,13.32,18.42,12.72,17.5,12.72C16.58,12.72,16,13.32,16,14.27Z"/></svg>