<svg xmlns="http://www.w3.org/2000/svg" viewBox="0 0 24 24" fill="currentColor"><path d="M16.69,7.31C16.38,7,16.38,7,15.93,7L7.5,7C7,7,7,7,7,7.5L7,18.5C7,19.01,7,19.01,7.5,19.01L18.51,19.01C19.01,19.01,19.01,19.01,19.01,18.5L19.01,10.08C19.01,9.63,19.01,9.63,18.7,9.32ZM17.75,6.25L19.75,8.25C20.3,8.8,20.5,9.3,20.5,10.07L20.5,18.5C20.5,20,20,20.5,18.5,20.5L7.49,20.5C5.99,20.5,5.49,20,5.49,18.5L5.49,7.49C5.49,5.99,5.99,5.49,7.49,5.49L15.92,5.49C16.69,5.49,17.19,5.69,17.74,6.24ZM16,10L16,6.23L19.77,10Z"/></svg>