<svg xmlns="http://www.w3.org/2000/svg" viewBox="0 0 24 24"><path d="M18.57,22L4.67,22C2.67,22,2,21.33,2,19.33L2,5.4C2,3.57,2.93,2,6,2L17.07,2C17.67,2,18,2.33,18,2.93L18,3.06C18,3.66,17.67,3.99,17.07,3.99L5.1,3.99C3.5,3.99,3.5,5.99,5.1,5.99L18.57,5.99C19.6,5.99,20,6.39,20,7.42L20,20.55C20,21.58,19.6,21.98,18.57,21.98Z" fill="currentColor"/><path d="M8.33,18.9C8.33,18.13,7.86,17.67,7.1,17.67C6.33,17.67,5.87,18.14,5.87,18.9C5.87,19.67,6.34,20.17,7.1,20.17C7.87,20.17,8.33,19.67,8.33,18.9Z" fill="currentColor"/><path d="M11.6,15.67C11.6,14.9,11.13,14.4,10.37,14.4C9.6,14.4,9.1,14.9,9.1,15.67C9.1,16.44,9.6,16.9,10.37,16.9C11.14,16.9,11.6,16.43,11.6,15.67Z" fill="currentColor"/><path d="M14.9,18.9C14.9,18.13,14.4,17.67,13.63,17.67C12.86,17.67,12.4,18.14,12.4,18.9C12.4,19.67,12.87,20.13,13.63,20.13C14.4,20.13,14.9,19.66,14.9,18.9Z" fill="currentColor"/><path d="M8.33,12.37C8.33,11.6,7.86,11.1,7.1,11.1C6.33,11.1,5.87,11.6,5.87,12.37C5.87,13.14,6.34,13.6,7.1,13.6C7.87,13.6,8.33,13.13,8.33,12.37Z" fill="currentColor"/><path d="M18.13,18.9C18.13,18.13,17.66,17.67,16.9,17.67C16.13,17.67,15.67,18.14,15.67,18.9C15.67,19.67,16.14,20.17,16.9,20.17C17.67,20.17,18.13,19.67,18.13,18.9Z" fill="currentColor"/><path d="M11.6,12.4C11.6,11.63,11.13,11.13,10.37,11.13C9.6,11.13,9.1,11.63,9.1,12.4C9.1,13.13,9.6,13.6,10.37,13.6C11.14,13.6,11.6,13.13,11.6,12.4Z" fill="currentColor"/><path d="M8.33,9.1C8.33,8.33,7.86,7.83,7.1,7.83C6.33,7.83,5.87,8.33,5.87,9.1C5.87,9.87,6.34,10.33,7.1,10.33C7.87,10.33,8.33,9.86,8.33,9.1Z" fill="currentColor"/><path d="M14.9,15.6C14.9,14.87,14.4,14.4,13.63,14.4C12.86,14.4,12.4,14.87,12.4,15.6C12.4,16.37,12.87,16.87,13.63,16.87C14.4,16.87,14.9,16.37,14.9,15.6Z" fill="currentColor"/><path d="M18.13,12.37C18.13,11.6,17.66,11.1,16.9,11.1C16.13,11.1,15.67,11.6,15.67,12.37C15.67,13.14,16.14,13.6,16.9,13.6C17.67,13.6,18.13,13.13,18.13,12.37Z" fill="currentColor"/><path d="M14.9,9.1C14.9,8.33,14.4,7.87,13.63,7.87C12.86,7.87,12.4,8.34,12.4,9.1C12.4,9.87,12.87,10.33,13.63,10.33C14.4,10.33,14.9,9.86,14.9,9.1Z" fill="currentColor"/><path d="M18.13,9.1C18.13,8.33,17.66,7.83,16.9,7.83C16.13,7.83,15.67,8.33,15.67,9.1C15.67,9.87,16.14,10.33,16.9,10.33C17.67,10.33,18.13,9.86,18.13,9.1Z" fill="currentColor"/></svg>