<svg xmlns="http://www.w3.org/2000/svg" viewBox="0 0 24 24"><path d="M2,3.43C2,2.4,2.4,2,3.43,2L16.56,2C17.59,2,17.99,2.4,17.99,3.43L17.99,10L15.99,10L15.99,7L12.99,7L12.99,4L9.99,4L9.99,7L6.99,7L6.99,4L3.99,4L3.99,7L6.99,7L6.99,8C6.96,8,6.92,8,6.89,8L1.99,8Z" fill="currentColor"/><path d="M10,7L13,7L13,10L10.03,10Z" fill="currentColor"/><path d="M19.9,22L3.53,22C2.5,22,2.03,21.6,1.83,20.6L0.06,11.3C-0.07,10.5,0.33,10,1.16,10L5.03,10C6.06,10,6.63,10.37,7.03,11.3L6.96,11.13C7.19,11.7,7.66,12,8.26,12L16.23,12C17.26,12,17.73,12.4,17.86,13.43L18.69,20C18.82,20.93,19.99,20.97,19.99,19.67L19.99,7L22.89,7C23.72,7,24.12,7.5,23.96,8.3L21.59,20.6C21.39,21.6,20.92,22,19.89,22Z" fill="currentColor"/></svg>