<svg xmlns="http://www.w3.org/2000/svg" viewBox="0 0 24 24"><path d="M19.33,22L4.66,22C2.66,22,1.99,21.33,1.99,19.33L1.99,4.66C1.99,2.66,2.66,1.99,4.66,1.99L9.16,1.99C9.57,0.82,10.68,-0.01,11.99,-0.01C13.31,-0.01,14.41,0.82,14.82,1.99L19.32,1.99C21.32,1.99,21.99,2.66,21.99,4.66L21.99,19.33C21.99,21.33,21.32,22,19.32,22Z" fill="currentColor"/><path d="M13.17,3C13.17,2.37,12.64,1.83,12,1.83C11.37,1.83,10.83,2.36,10.83,3C10.83,3.63,11.36,4.17,12,4.17C12.63,4.17,13.17,3.64,13.17,3Z" fill="currentColor"/><path d="M16.33,6.87L10.5,7.6C9.67,7.7,9.53,8.13,10.1,8.7L11.63,10.23L7.36,14.53C6.93,14.96,6.93,15.43,7.36,15.86L8.16,16.63C8.59,17.06,9.06,17.06,9.49,16.63L13.76,12.36L15.29,13.89C15.86,14.46,16.29,14.32,16.39,13.49L17.12,7.66C17.22,7.06,16.92,6.76,16.32,6.86Z" fill="currentColor"/></svg>