<svg xmlns="http://www.w3.org/2000/svg" viewBox="0 0 24 24"><path d="M19.33,22L4.66,22C2.66,22,1.99,21.33,1.99,19.33L1.99,8L21.99,8L21.99,19.33C21.99,21.33,21.32,22,19.32,22Z" fill="currentColor"/><path d="M2.44,6C1.41,6,1.01,5.6,1.01,4.57L1.01,3.44C1.01,2.41,1.41,2.01,2.44,2.01L21.57,2.01C22.6,2.01,23,2.41,23,3.44L23,4.57C23,5.6,22.6,6,21.57,6Z" fill="currentColor"/><path d="M7.83,11.06C7.83,11.66,8.16,11.99,8.76,11.99L15.23,11.99C15.83,11.99,16.16,11.66,16.16,11.06L16.16,10.93C16.16,10.33,15.83,10,15.23,10L8.76,10C8.16,10,7.83,10.33,7.83,10.93Z" fill="currentColor"/></svg>