<svg xmlns="http://www.w3.org/2000/svg" viewBox="0 0 24 24"><path d="M18.63,22L2.66,22C0.66,22,-0.01,21.33,-0.01,19.33L-0.01,4.66C-0.01,2.66,0.66,1.99,2.66,1.99L15.33,1.99C17.33,1.99,18,2.66,18,4.66L18,18.53C18,19.23,18.33,19.56,19.03,19.56C19.73,19.56,20.06,19.23,20.06,18.53L19.96,6L21.66,6.17C23.66,6.34,24.23,7.07,23.93,9.04L22.53,18.64C22.06,21.71,20.46,22.01,18.63,22.01Z" fill="currentColor"/><path d="M3,18L7,18L7,10L3,10Z" fill="currentColor"/><path d="M9,16L15,16L15,14L9,14Z" fill="currentColor"/><path d="M9,12L15,12L15,10L9,10Z" fill="currentColor"/><path d="M3,8L15,8L15,5L3,5Z" fill="currentColor"/></svg>