<svg xmlns="http://www.w3.org/2000/svg" viewBox="0 0 24 24" fill="currentColor"><path d="M13.16,8.5C13.15,8.52,13.13,8.53,13.11,8.55C12.83,8.76,12.23,9.73,12.18,9.87C11.85,10.74,11.85,10.88,11.67,11.13L10.69,12.51C10.12,13.34,10.25,14.81,10.95,15.44C11.52,15.93,12.35,16.22,13.1,16.25C12.96,16.48,12.83,16.73,12.73,16.97C11.42,17.53,10.74,18.66,10.74,19.72L10.74,20.49L6.99,20.49C5.14,20.49,3.99,19.34,3.99,17.49L3.99,8.04C3.99,6.67,4.69,5.49,6.99,5.49L15.29,5.49C15.75,5.49,15.99,5.74,15.99,6.19L15.99,6.29C15.99,6.42,15.97,6.53,15.93,6.63C15.09,6.32,14.46,6.56,14.03,6.99L6.33,6.99C5.13,6.99,5.13,8.49,6.33,8.49ZM11.95,14.33C11.7,14.1,11.7,13.71,11.93,13.38L12.9,12C13.35,11.38,13.35,11.03,13.6,10.38C13.65,10.23,13.75,9.95,14.07,9.7C14.37,9.42,14.6,9.23,14.73,8.9L14.82,8.35C14.88,8.15,15.03,8,15.2,8L16.25,9.07C18.37,9.2,20.73,10.74,20.73,14.22C20.73,15.25,20.05,17.09,19.85,18.17C20.97,18.35,21.63,18.87,21.63,19.73L21.63,20.5L12.25,20.5L12.25,19.73C12.25,18.88,12.87,18.36,13.98,18.17C14,15.35,16.9,14.8,16.9,13.43C16.9,13,16.65,12.66,16.55,12.53L16.23,12.9C15.93,13.23,15.35,13.8,14.7,13.8C13.86,13.83,13.83,14.42,13.45,14.8C13.35,14.88,12.33,14.65,11.95,14.33Z"/></svg>