<svg xmlns="http://www.w3.org/2000/svg" viewBox="0 0 24 24"><path d="M1.23,14C-0.2,12.57,-0.2,11.63,1.23,10.2L9.56,1.87C10.99,0.44,11.93,0.44,13.36,1.87L21.36,9.87L9.23,22Z" fill="currentColor"/><path d="M11.2,15.7L11.27,15.8C11.7,16.23,12.17,16.23,12.6,15.8L15.17,13.23C15.6,12.8,15.6,12.33,15.17,11.9L15.1,11.83C14.67,11.4,14.2,11.4,13.77,11.83L11.2,14.36C10.77,14.79,10.77,15.26,11.2,15.69Z" fill="currentColor"/><path d="M20,21.07C20.03,21.67,20.4,22,21,22L21.1,22C21.7,22,22,21.67,21.93,21.07L21.1,12.8L19.5,14.47Z" fill="currentColor"/></svg>