<svg xmlns="http://www.w3.org/2000/svg" viewBox="0 0 24 24" fill="currentColor"><path d="M12.98,5.25C14.27,5.25,15.28,6.21,15.28,7.52C15.28,8.82,14.28,9.83,12.98,9.83C11.68,9.83,10.73,8.83,10.73,7.52C10.73,6.2,11.68,5.25,12.98,5.25ZM7,16.2C8.33,16.2,9.27,17.19,9.27,18.5C9.27,19.79,8.32,20.75,7,20.75C5.7,20.75,4.7,19.79,4.7,18.5C4.7,17.2,5.7,16.2,7,16.2ZM13.02,16.2C14.35,16.2,15.3,17.19,15.3,18.5C15.3,19.79,14.34,20.75,13.02,20.75C11.73,20.75,10.72,19.79,10.72,18.5C10.72,17.2,11.72,16.2,13.02,16.2ZM9.98,10.75C11.3,10.75,12.25,11.73,12.25,13.02C12.25,14.32,11.3,15.27,9.98,15.27C8.68,15.27,7.68,14.32,7.68,13.02C7.68,11.73,8.67,10.75,9.98,10.75ZM18.98,16.17C20.27,16.17,21.28,17.12,21.28,18.47C21.28,19.75,20.28,20.75,18.98,20.75C17.68,20.75,16.73,19.75,16.73,18.47C16.73,17.12,17.68,16.17,18.98,16.17ZM16.02,10.73C17.32,10.73,18.33,11.68,18.33,13C18.33,14.3,17.33,15.27,16.02,15.27C14.73,15.27,13.77,14.3,13.77,13C13.77,11.67,14.73,10.73,16.02,10.73Z"/></svg>