<svg xmlns="http://www.w3.org/2000/svg" viewBox="0 0 24 24" fill="currentColor"><path d="M18.98,5.33C19.93,5.33,20.65,6.02,20.65,7C20.65,7.95,19.92,8.67,18.98,8.67C18.02,8.67,17.33,7.95,17.33,7C17.33,6.03,18.02,5.33,18.98,5.33ZM7.02,17.33C7.97,17.33,8.67,18.05,8.67,19C8.67,19.98,7.98,20.67,7.02,20.67C6.07,20.67,5.35,19.98,5.35,19C5.35,18.05,6.08,17.33,7.02,17.33ZM11,17.33C11.97,17.33,12.67,18.02,12.67,18.98C12.67,19.93,11.97,20.65,11,20.65C10.04,20.65,9.32,19.92,9.32,18.98C9.32,18.02,10.05,17.33,11,17.33ZM11,13.35C11.97,13.35,12.67,14.08,12.67,15.02C12.67,15.98,11.97,16.67,11,16.67C10.04,16.67,9.32,15.98,9.32,15.02C9.32,14.07,10.05,13.35,11,13.35ZM15,17.33C15.98,17.33,16.68,18.02,16.68,18.98C16.68,19.93,15.98,20.65,15,20.65C14.05,20.65,13.33,19.92,13.33,18.98C13.33,18.02,14.06,17.33,15,17.33ZM18.98,17.33C19.93,17.33,20.65,18.05,20.65,19C20.65,19.98,19.92,20.67,18.98,20.67C18.02,20.67,17.33,19.98,17.33,19C17.33,18.05,18.02,17.33,18.98,17.33ZM15,13.35C15.98,13.35,16.68,14.08,16.68,15.02C16.68,15.98,15.98,16.67,15,16.67C14.05,16.67,13.33,15.98,13.33,15.02C13.33,14.07,14.06,13.35,15,13.35ZM18.98,13.33C19.93,13.33,20.65,14.03,20.65,15C20.65,15.95,19.92,16.67,18.98,16.67C18.02,16.67,17.33,15.95,17.33,15C17.33,14.03,18.02,13.33,18.98,13.33ZM15,9.36C15.98,9.36,16.68,10.08,16.68,11.03C16.68,11.98,15.98,12.68,15,12.68C14.05,12.68,13.33,11.98,13.33,11.03C13.33,10.08,14.06,9.36,15,9.36ZM18.98,9.33C19.93,9.33,20.65,10.03,20.65,11C20.65,11.96,19.92,12.68,18.98,12.68C18.02,12.68,17.33,11.95,17.33,11C17.33,10.03,18.02,9.33,18.98,9.33Z"/></svg>