<svg xmlns="http://www.w3.org/2000/svg" viewBox="0 0 24 24" fill="currentColor"><path d="M21.3,12.25C21.75,12.25,22,12.5,22,12.95L22,13.04C22,13.5,21.75,13.74,21.3,13.74L19.5,13.74L19.5,12.24ZM13,7.75L7,7.75L7,6.25L13,6.25ZM6.25,13L6.25,7L7.75,7L7.75,13ZM4,12.96C4,12.5,4.25,12.26,4.7,12.26L5.8,12.26C6.25,12.26,6.5,12.5,6.5,12.96L6.5,13.05C6.5,13.5,6.25,13.75,5.8,13.75L4.7,13.75C4.25,13.75,4,13.5,4,13.05ZM19,17.13C20.05,17.13,20.88,17.95,20.88,19C20.88,20.05,20.05,20.88,19,20.88C17.95,20.88,17.13,20.05,17.13,19C17.13,17.95,17.95,17.13,19,17.13ZM7,5.13C8.05,5.13,8.88,5.95,8.88,7C8.88,8.05,8.05,8.88,7,8.88C5.95,8.88,5.13,8.05,5.13,7C5.13,5.95,5.95,5.13,7,5.13ZM13,5.13C14.05,5.13,14.88,5.95,14.88,7C14.88,8.05,14.05,8.88,13,8.88C11.95,8.88,11.13,8.05,11.13,7C11.13,5.95,11.95,5.13,13,5.13ZM7,11.13C8.05,11.13,8.88,11.95,8.88,13C8.88,14.05,8.05,14.88,7,14.88C5.95,14.88,5.13,14.05,5.13,13C5.13,11.95,5.95,11.13,7,11.13ZM19,5.13C20.05,5.13,20.88,5.95,20.88,7C20.88,8.05,20.05,8.88,19,8.88C17.95,8.88,17.13,8.05,17.13,7C17.13,5.95,17.95,5.13,19,5.13ZM7,17.13C8.05,17.13,8.88,17.95,8.88,19C8.88,20.05,8.05,20.88,7,20.88C5.95,20.88,5.13,20.05,5.13,19C5.13,17.95,5.95,17.13,7,17.13ZM13,11.13C14.05,11.13,14.88,11.95,14.88,13C14.88,14.05,14.05,14.88,13,14.88C11.95,14.88,11.13,14.05,11.13,13C11.13,11.95,11.95,11.13,13,11.13ZM19,11.13C20.05,11.13,20.88,11.95,20.88,13C20.88,14.05,20.05,14.88,19,14.88C17.95,14.88,17.13,14.05,17.13,13C17.13,11.95,17.95,11.13,19,11.13ZM13,17.13C14.05,17.13,14.88,17.95,14.88,19C14.88,20.05,14.05,20.88,13,20.88C11.95,20.88,11.13,20.05,11.13,19C11.13,17.95,11.95,17.13,13,17.13ZM13.75,8L13.75,19L12.25,19L12.25,8ZM19.75,13L19.75,19L18.25,19L18.25,13ZM19.02,19.75L13,19.75L13,18.25L19.02,18.25Z"/></svg>