<svg xmlns="http://www.w3.org/2000/svg" viewBox="0 0 24 24" fill="currentColor"><path d="M11.35,7C11.35,6.03,12.05,5.33,13,5.33C13.95,5.33,14.67,6.02,14.67,7C14.67,7.95,13.95,8.67,13,8.67C12.05,8.67,11.35,7.95,11.35,7ZM4.6,19C4.6,18.05,5.33,17.33,6.27,17.33C7.23,17.33,7.92,18.05,7.92,19C7.92,19.98,7.23,20.67,6.27,20.67C5.32,20.67,4.6,19.98,4.6,19ZM9.08,18.98C9.08,18.02,9.8,17.33,10.75,17.33C11.73,17.33,12.42,18.02,12.42,18.98C12.42,19.93,11.73,20.65,10.75,20.65C9.8,20.65,9.08,19.92,9.08,18.98ZM13.58,18.98C13.58,18.02,14.3,17.33,15.25,17.33C16.23,17.33,16.92,18.02,16.92,18.98C16.92,19.93,16.23,20.65,15.25,20.65C14.3,20.65,13.58,19.92,13.58,18.98ZM18.08,19C18.08,18.05,18.77,17.33,19.73,17.33C20.68,17.33,21.4,18.05,21.4,19C21.4,19.98,20.67,20.67,19.73,20.67C18.77,20.67,18.08,19.98,18.08,19ZM9.1,11.03C9.1,10.08,9.83,9.36,10.77,9.36C11.75,9.36,12.45,10.08,12.45,11.03C12.45,11.98,11.75,12.68,10.77,12.68C9.82,12.68,9.1,11.98,9.1,11.03ZM13.6,11C13.6,10.03,14.3,9.33,15.25,9.33C16.2,9.33,16.92,10.03,16.92,11C16.92,11.96,16.2,12.68,15.25,12.68C14.3,12.68,13.6,11.95,13.6,11ZM6.85,15C6.85,14.05,7.58,13.33,8.52,13.33C9.47,13.33,10.17,14.06,10.17,15C10.17,15.98,9.48,16.67,8.52,16.67C7.57,16.67,6.85,15.98,6.85,15ZM11.33,14.98C11.33,14.03,12.05,13.33,13,13.33C13.98,13.33,14.67,14.03,14.67,14.98C14.67,15.93,13.98,16.65,13,16.65C12.05,16.65,11.33,15.93,11.33,14.98ZM15.83,14.98C15.83,14.03,16.55,13.33,17.5,13.33C18.48,13.33,19.17,14.03,19.17,14.98C19.17,15.93,18.48,16.65,17.5,16.65C16.55,16.65,15.83,15.93,15.83,14.98Z"/></svg>