<svg xmlns="http://www.w3.org/2000/svg" viewBox="0 0 24 24" fill="currentColor"><path d="M17.33,7C17.33,6.03,18.02,5.33,18.98,5.33C19.93,5.33,20.65,6.02,20.65,7C20.65,7.95,19.92,8.67,18.98,8.67C18.02,8.67,17.33,7.95,17.33,7ZM5.35,19C5.35,18.05,6.08,17.33,7.02,17.33C7.97,17.33,8.67,18.05,8.67,19C8.67,19.98,7.98,20.67,7.02,20.67C6.07,20.67,5.35,19.98,5.35,19ZM5.35,15C5.35,14.03,6.08,13.33,7.02,13.33C7.97,13.33,8.67,14.03,8.67,15C8.67,15.95,7.98,16.67,7.02,16.67C6.07,16.67,5.35,15.95,5.35,15ZM5.35,11C5.35,10.03,6.08,9.33,7.02,9.33C7.97,9.33,8.67,10.03,8.67,11C8.67,11.96,7.98,12.68,7.02,12.68C6.07,12.68,5.35,11.95,5.35,11ZM11.33,18.98C11.33,18.02,12.05,17.33,13,17.33C13.98,17.33,14.67,18.02,14.67,18.98C14.67,19.93,13.98,20.65,13,20.65C12.05,20.65,11.33,19.92,11.33,18.98ZM17.33,19C17.33,18.05,18.02,17.33,18.98,17.33C19.93,17.33,20.65,18.05,20.65,19C20.65,19.98,19.92,20.67,18.98,20.67C18.02,20.67,17.33,19.98,17.33,19ZM11.33,15.02C11.33,14.07,12.05,13.35,13,13.35C13.98,13.35,14.67,14.08,14.67,15.02C14.67,15.98,13.98,16.67,13,16.67C12.05,16.67,11.33,15.98,11.33,15.02ZM5.35,7C5.35,6.03,6.08,5.33,7.02,5.33C7.97,5.33,8.67,6.02,8.67,7C8.67,7.95,7.98,8.67,7.02,8.67C6.07,8.67,5.35,7.95,5.35,7ZM17.33,15C17.33,14.03,18.02,13.33,18.98,13.33C19.93,13.33,20.65,14.03,20.65,15C20.65,15.95,19.92,16.67,18.98,16.67C18.02,16.67,17.33,15.95,17.33,15ZM11.33,11.03C11.33,10.08,12.05,9.36,13,9.36C13.98,9.36,14.67,10.08,14.67,11.03C14.67,11.98,13.98,12.68,13,12.68C12.05,12.68,11.33,11.98,11.33,11.03ZM17.33,11C17.33,10.03,18.02,9.33,18.98,9.33C19.93,9.33,20.65,10.03,20.65,11C20.65,11.96,19.92,12.68,18.98,12.68C18.02,12.68,17.33,11.95,17.33,11ZM11.33,7.02C11.33,6.07,12.05,5.35,13,5.35C13.98,5.35,14.67,6.08,14.67,7.02C14.67,7.98,13.98,8.67,13,8.67C12.05,8.67,11.33,7.98,11.33,7.02Z"/></svg>