<svg xmlns="http://www.w3.org/2000/svg" viewBox="0 0 24 24"><path d="M17.83,4C17.83,2.8,18.8,1.83,20,1.83C21.2,1.83,22.17,2.8,22.17,4C22.17,5.2,21.2,6.17,20,6.17C18.8,6.17,17.83,5.2,17.83,4Z" fill="currentColor"/><path d="M1.83,20C1.83,18.8,2.8,17.83,4,17.83C5.2,17.83,6.17,18.8,6.17,20C6.17,21.2,5.2,22.17,4,22.17C2.8,22.17,1.83,21.2,1.83,20Z" fill="currentColor"/><path d="M9.83,12C9.83,10.8,10.8,9.83,12,9.83C13.2,9.83,14.17,10.8,14.17,12C14.17,13.2,13.2,14.17,12,14.17C10.8,14.17,9.83,13.2,9.83,12Z" fill="currentColor"/><path d="M17.83,20C17.83,18.8,18.8,17.83,20,17.83C21.2,17.83,22.17,18.8,22.17,20C22.17,21.2,21.2,22.17,20,22.17C18.8,22.17,17.83,21.2,17.83,20Z" fill="currentColor"/><path d="M1.83,4C1.83,2.8,2.8,1.83,4,1.83C5.2,1.83,6.17,2.8,6.17,4C6.17,5.2,5.2,6.17,4,6.17C2.8,6.17,1.83,5.2,1.83,4Z" fill="currentColor"/></svg>