<svg xmlns="http://www.w3.org/2000/svg" viewBox="0 0 24 24"><path d="M1.8,4C1.8,2.7,2.77,1.77,4.03,1.77C5.3,1.77,6.23,2.7,6.23,4C6.23,5.27,5.3,6.23,4.03,6.23C2.76,6.23,1.8,5.26,1.8,4Z" fill="currentColor"/><path d="M17.77,20C17.77,18.73,18.7,17.77,19.97,17.77C21.24,17.77,22.2,18.74,22.2,20C22.2,21.3,21.23,22.23,19.97,22.23C18.7,22.23,17.77,21.3,17.77,20Z" fill="currentColor"/><path d="M17.77,14.67C17.77,13.37,18.7,12.44,19.97,12.44C21.24,12.44,22.2,13.37,22.2,14.67C22.2,15.94,21.23,16.9,19.97,16.9C18.7,16.9,17.77,15.93,17.77,14.67Z" fill="currentColor"/><path d="M7.1,19.97C7.1,18.7,8.03,17.77,9.33,17.77C10.6,17.77,11.56,18.7,11.56,19.97C11.56,21.24,10.59,22.2,9.33,22.2C8.03,22.2,7.1,21.23,7.1,19.97Z" fill="currentColor"/><path d="M1.8,20C1.8,18.73,2.77,17.77,4.03,17.77C5.3,17.77,6.23,18.74,6.23,20C6.23,21.3,5.3,22.23,4.03,22.23C2.76,22.23,1.8,21.3,1.8,20Z" fill="currentColor"/><path d="M12.44,9.37C12.44,8.1,13.37,7.14,14.67,7.14C15.94,7.14,16.9,8.11,16.9,9.37C16.9,10.64,15.93,11.57,14.67,11.57C13.37,11.57,12.44,10.64,12.44,9.37Z" fill="currentColor"/><path d="M7.1,14.7C7.1,13.43,8.03,12.47,9.33,12.47C10.6,12.47,11.56,13.44,11.56,14.7C11.56,15.97,10.59,16.9,9.33,16.9C8.03,16.9,7.1,15.97,7.1,14.7Z" fill="currentColor"/><path d="M17.77,4C17.77,2.7,18.7,1.77,19.97,1.77C21.24,1.77,22.2,2.7,22.2,4C22.2,5.27,21.23,6.23,19.97,6.23C18.7,6.23,17.77,5.26,17.77,4Z" fill="currentColor"/><path d="M1.8,9.34C1.8,8.04,2.77,7.11,4.03,7.11C5.3,7.11,6.23,8.04,6.23,9.34C6.23,10.61,5.3,11.57,4.03,11.57C2.76,11.57,1.8,10.6,1.8,9.34Z" fill="currentColor"/></svg>