<svg xmlns="http://www.w3.org/2000/svg" viewBox="0 0 24 24" fill="currentColor"><path d="M16,5.33C16.95,5.33,17.67,6.02,17.67,7C17.67,7.95,16.95,8.67,16,8.67C15.05,8.67,14.35,7.95,14.35,7C14.35,6.03,15.05,5.33,16,5.33ZM10.02,17.33C11,17.33,11.7,18.02,11.7,18.98C11.7,19.93,11,20.65,10.02,20.65C9.07,20.65,8.35,19.92,8.35,18.98C8.35,18.02,9.08,17.33,10.02,17.33ZM16,17.33C16.95,17.33,17.67,18.05,17.67,19C17.67,19.98,16.95,20.67,16,20.67C15.05,20.67,14.35,19.98,14.35,19C14.35,18.05,15.05,17.33,16,17.33ZM10.02,11.35C11,11.35,11.7,12.08,11.7,13.02C11.7,13.98,11,14.67,10.02,14.67C9.07,14.67,8.35,13.98,8.35,13.02C8.35,12.07,9.08,11.35,10.02,11.35ZM16,11.33C16.95,11.33,17.67,12.02,17.67,13C17.67,13.95,16.95,14.67,16,14.67C15.05,14.67,14.35,13.95,14.35,13C14.35,12.02,15.05,11.33,16,11.33ZM10.02,5.35C11,5.35,11.7,6.08,11.7,7.02C11.7,7.98,11,8.67,10.02,8.67C9.07,8.67,8.35,7.98,8.35,7.02C8.35,6.07,9.08,5.35,10.02,5.35Z"/></svg>