<svg xmlns="http://www.w3.org/2000/svg" viewBox="0 0 24 24"><path d="M19.67,3C19.67,2.27,20.27,1.67,21,1.67C21.73,1.67,22.33,2.27,22.33,3C22.33,3.73,21.73,4.33,21,4.33C20.27,4.33,19.67,3.73,19.67,3Z" fill="currentColor"/><path d="M1.67,21C1.67,20.27,2.27,19.67,3,19.67C3.73,19.67,4.33,20.27,4.33,21C4.33,21.73,3.73,22.33,3,22.33C2.27,22.33,1.67,21.73,1.67,21Z" fill="currentColor"/><path d="M7.67,21C7.67,20.27,8.27,19.67,9,19.67C9.73,19.67,10.33,20.27,10.33,21C10.33,21.73,9.73,22.33,9,22.33C8.27,22.33,7.67,21.73,7.67,21Z" fill="currentColor"/><path d="M1.67,15C1.67,14.27,2.27,13.67,3,13.67C3.73,13.67,4.33,14.27,4.33,15C4.33,15.73,3.73,16.33,3,16.33C2.27,16.33,1.67,15.73,1.67,15Z" fill="currentColor"/><path d="M13.67,21C13.67,20.27,14.27,19.67,15,19.67C15.73,19.67,16.33,20.27,16.33,21C16.33,21.73,15.73,22.33,15,22.33C14.27,22.33,13.67,21.73,13.67,21Z" fill="currentColor"/><path d="M1.67,9C1.67,8.27,2.27,7.67,3,7.67C3.73,7.67,4.33,8.27,4.33,9C4.33,9.73,3.73,10.33,3,10.33C2.27,10.33,1.67,9.73,1.67,9Z" fill="currentColor"/><path d="M19.67,21C19.67,20.27,20.27,19.67,21,19.67C21.73,19.67,22.33,20.27,22.33,21C22.33,21.73,21.73,22.33,21,22.33C20.27,22.33,19.67,21.73,19.67,21Z" fill="currentColor"/><path d="M1.67,3C1.67,2.27,2.27,1.67,3,1.67C3.73,1.67,4.33,2.27,4.33,3C4.33,3.73,3.73,4.33,3,4.33C2.27,4.33,1.67,3.73,1.67,3Z" fill="currentColor"/><path d="M7.67,3C7.67,2.27,8.27,1.67,9,1.67C9.73,1.67,10.33,2.27,10.33,3C10.33,3.73,9.73,4.33,9,4.33C8.27,4.33,7.67,3.73,7.67,3Z" fill="currentColor"/><path d="M19.67,15C19.67,14.27,20.27,13.67,21,13.67C21.73,13.67,22.33,14.27,22.33,15C22.33,15.73,21.73,16.33,21,16.33C20.27,16.33,19.67,15.73,19.67,15Z" fill="currentColor"/><path d="M13.67,3C13.67,2.27,14.27,1.67,15,1.67C15.73,1.67,16.33,2.27,16.33,3C16.33,3.73,15.73,4.33,15,4.33C14.27,4.33,13.67,3.73,13.67,3Z" fill="currentColor"/><path d="M19.67,9C19.67,8.27,20.27,7.67,21,7.67C21.73,7.67,22.33,8.27,22.33,9C22.33,9.73,21.73,10.33,21,10.33C20.27,10.33,19.67,9.73,19.67,9Z" fill="currentColor"/></svg>