<svg xmlns="http://www.w3.org/2000/svg" viewBox="0 0 24 24" fill="currentColor"><path d="M19.75,21C20.2,21,20.5,20.7,20.5,20.25C20.5,19.78,20.2,19.48,19.75,19.48C19.3,19.48,19,19.78,19,20.25C19,20.7,19.3,21,19.75,21ZM6.25,7.53C6.7,7.53,7,7.23,7,6.78C7,6.3,6.7,6,6.25,6C5.8,6,5.5,6.3,5.5,6.78C5.5,7.23,5.8,7.53,6.25,7.53ZM6.25,10.88C6.7,10.88,7,10.58,7,10.13C7,9.68,6.7,9.38,6.25,9.38C5.8,9.38,5.5,9.68,5.5,10.13C5.5,10.58,5.8,10.88,6.25,10.88ZM9.63,7.5C10.07,7.5,10.38,7.2,10.38,6.75C10.38,6.3,10.07,6,9.63,6C9.18,6,8.88,6.3,8.88,6.75C8.88,7.2,9.18,7.5,9.63,7.5ZM6.25,14.25C6.7,14.25,7,13.95,7,13.5C7,13.05,6.7,12.75,6.25,12.75C5.8,12.75,5.5,13.05,5.5,13.5C5.5,13.95,5.8,14.25,6.25,14.25ZM6.25,17.63C6.7,17.63,7,17.33,7,16.88C7,16.43,6.7,16.13,6.25,16.13C5.8,16.13,5.5,16.43,5.5,16.88C5.5,17.33,5.8,17.63,6.25,17.63ZM16.38,7.5C16.83,7.5,17.13,7.2,17.13,6.75C17.13,6.3,16.83,6,16.38,6C15.92,6,15.63,6.3,15.63,6.75C15.63,7.2,15.92,7.5,16.38,7.5ZM6.25,21C6.7,21,7,20.7,7,20.25C7,19.78,6.7,19.48,6.25,19.48C5.8,19.48,5.5,19.78,5.5,20.25C5.5,20.7,5.8,21,6.25,21ZM19.75,7.53C20.2,7.53,20.5,7.23,20.5,6.78C20.5,6.3,20.2,6,19.75,6C19.3,6,19,6.3,19,6.78C19,7.23,19.3,7.53,19.75,7.53ZM19.75,10.88C20.2,10.88,20.5,10.58,20.5,10.13C20.5,9.68,20.2,9.38,19.75,9.38C19.3,9.38,19,9.68,19,10.13C19,10.58,19.3,10.88,19.75,10.88ZM9.63,21C10.07,21,10.38,20.7,10.38,20.25C10.38,19.8,10.07,19.5,9.63,19.5C9.18,19.5,8.88,19.8,8.88,20.25C8.88,20.7,9.18,21,9.63,21ZM19.75,14.25C20.2,14.25,20.5,13.95,20.5,13.5C20.5,13.05,20.2,12.75,19.75,12.75C19.3,12.75,19,13.05,19,13.5C19,13.95,19.3,14.25,19.75,14.25ZM13,21C13.45,21,13.75,20.7,13.75,20.25C13.75,19.8,13.45,19.5,13,19.5C12.55,19.5,12.25,19.8,12.25,20.25C12.25,20.7,12.55,21,13,21ZM19.75,17.63C20.2,17.63,20.5,17.33,20.5,16.88C20.5,16.43,20.2,16.13,19.75,16.13C19.3,16.13,19,16.43,19,16.88C19,17.33,19.3,17.63,19.75,17.63ZM16.38,21C16.83,21,17.13,20.7,17.13,20.25C17.13,19.8,16.83,19.5,16.38,19.5C15.92,19.5,15.63,19.8,15.63,20.25C15.63,20.7,15.92,21,16.38,21ZM11.88,10.13C11.88,9.78,12.08,9.58,12.42,9.58L13.57,9.58C13.92,9.58,14.12,9.78,14.12,10.13C14.14,11.08,14.27,11.16,15.15,11.8C15.75,12.27,16.77,12.9,16.77,14.55C16.77,16.55,15.2,17.73,13.17,17.73C12.12,17.73,11.17,17.43,10.08,16.55C9.8,16.3,9.78,16,10.02,15.65L10.65,14.82C10.85,14.52,11.15,14.52,11.47,14.77C12.17,15.27,12.75,15.47,13.22,15.47C13.91,15.47,14.52,15.09,14.52,14.47C14.52,14,14.16,13.67,13.41,13.17C11.99,12.18,11.86,12.15,11.86,10.12ZM13,7.86C11.85,7.86,11.82,7.8,11.82,6.68C11.82,5.5,11.84,5.5,13,5.5C14.13,5.5,14.15,5.55,14.15,6.68C14.15,7.83,14.13,7.86,13,7.86Z"/></svg>