<svg xmlns="http://www.w3.org/2000/svg" viewBox="0 0 24 24" fill="currentColor"><path d="M19,5.37C19.9,5.37,20.63,6.1,20.63,7C20.63,7.9,19.9,8.63,19,8.63C18.1,8.63,17.37,7.9,17.37,7C17.37,6.1,18.1,5.37,19,5.37ZM7,17.37C7.9,17.37,8.63,18.1,8.63,19C8.63,19.9,7.9,20.63,7,20.63C6.1,20.63,5.37,19.9,5.37,19C5.37,18.1,6.1,17.37,7,17.37ZM13,17.37C13.9,17.37,14.63,18.1,14.63,19C14.63,19.9,13.9,20.63,13,20.63C12.1,20.63,11.37,19.9,11.37,19C11.37,18.1,12.1,17.37,13,17.37ZM7,11.37C7.9,11.37,8.63,12.1,8.63,13C8.63,13.9,7.9,14.63,7,14.63C6.1,14.63,5.37,13.9,5.37,13C5.37,12.1,6.1,11.37,7,11.37ZM19,17.37C19.9,17.37,20.63,18.1,20.63,19C20.63,19.9,19.9,20.63,19,20.63C18.1,20.63,17.37,19.9,17.37,19C17.37,18.1,18.1,17.37,19,17.37ZM7,5.37C7.9,5.37,8.63,6.1,8.63,7C8.63,7.9,7.9,8.63,7,8.63C6.1,8.63,5.37,7.9,5.37,7C5.37,6.1,6.1,5.37,7,5.37ZM19,11.37C19.9,11.37,20.63,12.1,20.63,13C20.63,13.9,19.9,14.63,19,14.63C18.1,14.63,17.37,13.9,17.37,13C17.37,12.1,18.1,11.37,19,11.37ZM13,5.37C13.9,5.37,14.63,6.1,14.63,7C14.63,7.9,13.9,8.63,13,8.63C12.1,8.63,11.37,7.9,11.37,7C11.37,6.1,12.1,5.37,13,5.37Z"/></svg>