<svg xmlns="http://www.w3.org/2000/svg" viewBox="0 0 24 24"><path d="M8.97,4.7C8.97,2.93,10.24,1.67,11.97,1.67C13.7,1.67,15.04,2.94,15.04,4.7C15.04,6.43,13.71,7.77,11.97,7.77C10.24,7.77,8.97,6.44,8.97,4.7Z" fill="currentColor"/><path d="M0.93,19.33C0.93,17.6,2.26,16.26,4,16.26C5.77,16.26,7.03,17.59,7.03,19.33C7.03,21.06,5.76,22.33,4,22.33C2.27,22.33,0.93,21.06,0.93,19.33Z" fill="currentColor"/><path d="M8.96,19.33C8.96,17.6,10.29,16.26,12.03,16.26C13.8,16.26,15.06,17.59,15.06,19.33C15.06,21.06,13.79,22.33,12.03,22.33C10.3,22.33,8.96,21.06,8.96,19.33Z" fill="currentColor"/><path d="M4.9,12.03C4.9,10.3,6.23,9,7.97,9C9.74,9,11,10.3,11,12.03C11,13.76,9.73,15.03,7.97,15.03C6.24,15.03,4.9,13.76,4.9,12.03Z" fill="currentColor"/><path d="M16.97,19.3C16.97,17.5,18.24,16.23,19.97,16.23C21.7,16.23,23.04,17.5,23.04,19.3C23.04,21,21.71,22.33,19.97,22.33C18.24,22.33,16.97,21,16.97,19.3Z" fill="currentColor"/><path d="M13.03,12C13.03,10.23,14.3,8.97,16.03,8.97C17.76,8.97,19.1,10.24,19.1,12C19.1,13.73,17.77,15.03,16.03,15.03C14.3,15.03,13.03,13.73,13.03,12Z" fill="currentColor"/></svg>