<svg xmlns="http://www.w3.org/2000/svg" viewBox="0 0 24 24"><path d="M13.8,4C13.8,2.7,14.73,1.77,16,1.77C17.27,1.77,18.23,2.7,18.23,4C18.23,5.27,17.26,6.23,16,6.23C14.73,6.23,13.8,5.26,13.8,4Z" fill="currentColor"/><path d="M5.8,19.97C5.8,18.7,6.77,17.77,8.03,17.77C9.33,17.77,10.26,18.7,10.26,19.97C10.26,21.24,9.33,22.2,8.03,22.2C6.76,22.2,5.8,21.23,5.8,19.97Z" fill="currentColor"/><path d="M13.8,20C13.8,18.73,14.73,17.77,16,17.77C17.27,17.77,18.23,18.74,18.23,20C18.23,21.3,17.26,22.23,16,22.23C14.73,22.23,13.8,21.3,13.8,20Z" fill="currentColor"/><path d="M5.8,12.03C5.8,10.76,6.77,9.8,8.03,9.8C9.33,9.8,10.26,10.77,10.26,12.03C10.26,13.3,9.33,14.23,8.03,14.23C6.76,14.23,5.8,13.3,5.8,12.03Z" fill="currentColor"/><path d="M13.8,12C13.8,10.7,14.73,9.77,16,9.77C17.27,9.77,18.23,10.7,18.23,12C18.23,13.27,17.26,14.23,16,14.23C14.73,14.23,13.8,13.26,13.8,12Z" fill="currentColor"/><path d="M5.8,4.03C5.8,2.76,6.77,1.8,8.03,1.8C9.33,1.8,10.26,2.77,10.26,4.03C10.26,5.3,9.33,6.23,8.03,6.23C6.76,6.23,5.8,5.3,5.8,4.03Z" fill="currentColor"/></svg>