<svg xmlns="http://www.w3.org/2000/svg" viewBox="0 0 24 24" fill="currentColor"><path d="M17.33,15C17.33,14.03,18.02,13.33,18.98,13.33C19.93,13.33,20.65,14.03,20.65,15C20.65,15.95,19.92,16.67,18.98,16.67C18.02,16.67,17.33,15.95,17.33,15ZM13.33,18.98C13.33,18.02,14.03,17.33,15,17.33C15.96,17.33,16.68,18.02,16.68,18.98C16.68,19.93,15.95,20.65,15,20.65C14.03,20.65,13.33,19.92,13.33,18.98ZM13.33,15.02C13.33,14.07,14.03,13.35,15,13.35C15.96,13.35,16.68,14.08,16.68,15.02C16.68,15.98,15.95,16.67,15,16.67C14.03,16.67,13.33,15.98,13.33,15.02ZM5.35,19C5.35,18.05,6.08,17.33,7.02,17.33C7.97,17.33,8.67,18.05,8.67,19C8.67,19.98,7.98,20.67,7.02,20.67C6.07,20.67,5.35,19.98,5.35,19ZM9.32,15.02C9.32,14.07,10.02,13.35,11,13.35C11.95,13.35,12.67,14.08,12.67,15.02C12.67,15.98,11.94,16.67,11,16.67C10.02,16.67,9.32,15.98,9.32,15.02ZM17.33,7C17.33,6.03,18.02,5.33,18.98,5.33C19.93,5.33,20.65,6.02,20.65,7C20.65,7.95,19.92,8.67,18.98,8.67C18.02,8.67,17.33,7.95,17.33,7ZM9.32,11.03C9.32,10.08,10.02,9.36,11,9.36C11.95,9.36,12.67,10.08,12.67,11.03C12.67,11.98,11.94,12.68,11,12.68C10.02,12.68,9.32,11.98,9.32,11.03ZM5.35,11C5.35,10.03,6.08,9.33,7.02,9.33C7.97,9.33,8.67,10.03,8.67,11C8.67,11.96,7.98,12.68,7.02,12.68C6.07,12.68,5.35,11.95,5.35,11ZM9.32,7.02C9.32,6.07,10.02,5.35,11,5.35C11.95,5.35,12.67,6.08,12.67,7.02C12.67,7.98,11.94,8.67,11,8.67C10.02,8.67,9.32,7.98,9.32,7.02Z"/></svg>