<svg xmlns="http://www.w3.org/2000/svg" viewBox="0 0 24 24" fill="currentColor"><path d="M5.5,6.25C5.5,5.78,5.8,5.5,6.25,5.5C6.7,5.5,7,5.8,7,6.25C7,6.72,6.7,7.02,6.25,7.02C5.8,7.02,5.5,6.72,5.5,6.25ZM9.5,8.83C9.5,9.3,9.2,9.58,8.75,9.58C8.3,9.6,8,9.3,8,8.83C8,8.38,8.3,8.1,8.75,8.1C9.2,8.1,9.5,8.4,9.5,8.83ZM10.64,11.42C10.64,10.95,10.95,10.65,11.37,10.67C11.85,10.67,12.14,10.97,12.12,11.42C12.14,11.85,11.85,12.15,11.37,12.15C10.95,12.17,10.64,11.88,10.64,11.42ZM19,6.25C19,5.8,19.3,5.5,19.75,5.5C20.2,5.5,20.5,5.78,20.5,6.25C20.5,6.72,20.2,7.02,19.75,7.02C19.3,7.02,19,6.72,19,6.25ZM18,8.83C18,9.3,17.7,9.6,17.25,9.58C16.8,9.58,16.5,9.3,16.5,8.83C16.5,8.4,16.8,8.1,17.25,8.1C17.7,8.1,18,8.38,18,8.83ZM13.88,11.42C13.86,10.97,14.16,10.67,14.63,10.67C15.06,10.65,15.36,10.95,15.36,11.42C15.36,11.87,15.06,12.17,14.63,12.15C14.16,12.15,13.86,11.85,13.88,11.42ZM7,19.75C7,20.2,6.7,20.5,6.25,20.5C5.8,20.5,5.5,20.22,5.5,19.75C5.5,19.28,5.8,18.98,6.25,18.98C6.7,18.98,7,19.28,7,19.75ZM8,17.17C8,16.7,8.3,16.4,8.75,16.42C9.2,16.42,9.5,16.7,9.5,17.17C9.5,17.6,9.2,17.9,8.75,17.9C8.3,17.9,8,17.62,8,17.17ZM12.12,14.57C12.14,15.02,11.85,15.32,11.37,15.32C10.95,15.35,10.64,15.05,10.64,14.57C10.64,14.12,10.95,13.82,11.37,13.85C11.85,13.85,12.14,14.15,12.12,14.57ZM20.5,19.75C20.5,20.22,20.2,20.5,19.75,20.5C19.3,20.5,19,20.2,19,19.75C19,19.28,19.3,18.98,19.75,18.98C20.2,18.98,20.5,19.28,20.5,19.75ZM16.5,17.17C16.5,16.7,16.8,16.42,17.25,16.42C17.7,16.4,18,16.7,18,17.17C18,17.62,17.7,17.9,17.25,17.9C16.8,17.9,16.5,17.6,16.5,17.17ZM15.36,14.57C15.36,15.05,15.06,15.35,14.63,15.32C14.16,15.32,13.86,15.02,13.88,14.57C13.86,14.15,14.16,13.85,14.63,13.85C15.06,13.82,15.36,14.13,15.36,14.57Z"/></svg>