<svg xmlns="http://www.w3.org/2000/svg" viewBox="0 0 24 24"><path d="M4,19L11,19L11,11.97L13,11.97L13,21L4,21Z" fill="currentColor"/><path d="M12,11L20,11L20,13L12,13Z" fill="currentColor"/><path d="M21,3.97L21,12L19,12L19,3.97Z" fill="currentColor"/><path d="M17.5,4C17.5,2.6,18.6,1.5,20,1.5C21.4,1.5,22.5,2.6,22.5,4C22.5,5.4,21.4,6.5,20,6.5C18.6,6.5,17.5,5.4,17.5,4Z" fill="currentColor"/><path d="M1.5,20C1.5,18.6,2.6,17.5,4,17.5C5.4,17.5,6.5,18.6,6.5,20C6.5,21.4,5.4,22.5,4,22.5C2.6,22.5,1.5,21.4,1.5,20Z" fill="currentColor"/><path d="M1.5,12C1.5,10.6,2.6,9.5,4,9.5C5.4,9.5,6.5,10.6,6.5,12C6.5,13.4,5.4,14.5,4,14.5C2.6,14.5,1.5,13.4,1.5,12Z" fill="currentColor"/><path d="M9.5,20C9.5,18.6,10.6,17.5,12,17.5C13.4,17.5,14.5,18.6,14.5,20C14.5,21.4,13.4,22.5,12,22.5C10.6,22.5,9.5,21.4,9.5,20Z" fill="currentColor"/><path d="M1.5,4C1.5,2.6,2.6,1.5,4,1.5C5.4,1.5,6.5,2.6,6.5,4C6.5,5.4,5.4,6.5,4,6.5C2.6,6.5,1.5,5.4,1.5,4Z" fill="currentColor"/><path d="M17.5,20C17.5,18.6,18.6,17.5,20,17.5C21.4,17.5,22.5,18.6,22.5,20C22.5,21.4,21.4,22.5,20,22.5C18.6,22.5,17.5,21.4,17.5,20Z" fill="currentColor"/><path d="M9.5,12C9.5,10.6,10.6,9.5,12,9.5C13.4,9.5,14.5,10.6,14.5,12C14.5,13.4,13.4,14.5,12,14.5C10.6,14.5,9.5,13.4,9.5,12Z" fill="currentColor"/><path d="M9.5,4C9.5,2.6,10.6,1.5,12,1.5C13.4,1.5,14.5,2.6,14.5,4C14.5,5.4,13.4,6.5,12,6.5C10.6,6.5,9.5,5.4,9.5,4Z" fill="currentColor"/><path d="M17.5,12C17.5,10.6,18.6,9.5,20,9.5C21.4,9.5,22.5,10.6,22.5,12C22.5,13.4,21.4,14.5,20,14.5C18.6,14.5,17.5,13.4,17.5,12Z" fill="currentColor"/></svg>