<svg xmlns="http://www.w3.org/2000/svg" viewBox="0 0 24 24"><path d="M20,3C20,2.4,20.4,2,21,2C21.6,2,22,2.4,22,3C22,3.63,21.6,4.03,21,4.03C20.4,4.03,20,3.63,20,3Z" fill="currentColor"/><path d="M2,20.97C2,20.37,2.4,19.97,3,19.97C3.6,19.97,4,20.37,4,20.97C4,21.6,3.6,22,3,22C2.4,22,2,21.6,2,20.97Z" fill="currentColor"/><path d="M2,16.5C2,15.9,2.4,15.5,3,15.5C3.6,15.5,4,15.9,4,16.5C4,17.1,3.6,17.5,3,17.5C2.4,17.5,2,17.1,2,16.5Z" fill="currentColor"/><path d="M6.5,21C6.5,20.4,6.9,20,7.5,20C8.1,20,8.5,20.4,8.5,21C8.5,21.6,8.1,22,7.5,22C6.9,22,6.5,21.6,6.5,21Z" fill="currentColor"/><path d="M2,12C2,11.4,2.4,11,3,11C3.6,11,4,11.4,4,12C4,12.6,3.6,13,3,13C2.4,13,2,12.6,2,12Z" fill="currentColor"/><path d="M2,7.5C2,6.9,2.4,6.5,3,6.5C3.6,6.5,4,6.9,4,7.5C4,8.1,3.6,8.5,3,8.5C2.4,8.5,2,8.1,2,7.5Z" fill="currentColor"/><path d="M15.5,21C15.5,20.4,15.9,20,16.5,20C17.1,20,17.5,20.4,17.5,21C17.5,21.6,17.1,22,16.5,22C15.9,22,15.5,21.6,15.5,21Z" fill="currentColor"/><path d="M2,3C2,2.4,2.4,2,3,2C3.6,2,4,2.4,4,3C4,3.63,3.6,4.03,3,4.03C2.4,4.03,2,3.63,2,3Z" fill="currentColor"/><path d="M20,20.97C20,20.37,20.4,19.97,21,19.97C21.6,19.97,22,20.37,22,20.97C22,21.6,21.6,22,21,22C20.4,22,20,21.6,20,20.97Z" fill="currentColor"/><path d="M20,16.5C20,15.9,20.4,15.5,21,15.5C21.6,15.5,22,15.9,22,16.5C22,17.1,21.6,17.5,21,17.5C20.4,17.5,20,17.1,20,16.5Z" fill="currentColor"/><path d="M6.5,3C6.5,2.4,6.9,2,7.5,2C8.1,2,8.5,2.4,8.5,3C8.5,3.6,8.1,4,7.5,4C6.9,4,6.5,3.6,6.5,3Z" fill="currentColor"/><path d="M20,12C20,11.4,20.4,11,21,11C21.6,11,22,11.4,22,12C22,12.6,21.6,13,21,13C20.4,13,20,12.6,20,12Z" fill="currentColor"/><path d="M11,3C11,2.4,11.4,2,12,2C12.6,2,13,2.4,13,3C13,3.6,12.6,4,12,4C11.4,4,11,3.6,11,3Z" fill="currentColor"/><path d="M20,7.5C20,6.9,20.4,6.5,21,6.5C21.6,6.5,22,6.9,22,7.5C22,8.1,21.6,8.5,21,8.5C20.4,8.5,20,8.1,20,7.5Z" fill="currentColor"/><path d="M15.5,3C15.5,2.4,15.9,2,16.5,2C17.1,2,17.5,2.4,17.5,3C17.5,3.6,17.1,4,16.5,4C15.9,4,15.5,3.6,15.5,3Z" fill="currentColor"/><path d="M10.5,16.5C10.5,16.97,10.77,17.23,11.23,17.23L12.76,17.23C13.23,17.23,13.49,16.96,13.49,16.5C13.52,15.23,13.69,15.13,14.86,14.27C15.66,13.64,17.03,12.8,17.03,10.6C17.03,7.93,14.93,6.37,12.23,6.37C10.83,6.37,9.56,6.77,8.1,7.94C7.73,8.27,7.7,8.67,8.03,9.14L8.86,10.24C9.13,10.64,9.53,10.64,9.96,10.31C10.89,9.64,11.66,9.38,12.29,9.38C13.22,9.38,14.02,9.88,14.02,10.71C14.02,11.34,13.55,11.78,12.55,12.44C10.65,13.77,10.48,13.81,10.48,16.51Z" fill="currentColor"/><path d="M13.53,21.1C13.53,19.57,13.5,19.53,12,19.53C10.47,19.53,10.43,19.6,10.43,21.1C10.43,22.67,10.46,22.67,12,22.67C13.5,22.67,13.53,22.6,13.53,21.1Z" fill="currentColor"/></svg>