<svg xmlns="http://www.w3.org/2000/svg" viewBox="0 0 24 24" fill="currentColor"><path d="M18.75,6.25C18.75,5.7,19.2,5.25,19.75,5.25C20.3,5.25,20.75,5.7,20.75,6.25C20.75,6.8,20.3,7.25,19.75,7.25C19.2,7.25,18.75,6.8,18.75,6.25ZM5.25,19.75C5.25,19.2,5.7,18.75,6.25,18.75C6.8,18.75,7.25,19.2,7.25,19.75C7.25,20.3,6.8,20.75,6.25,20.75C5.7,20.75,5.25,20.3,5.25,19.75ZM9.75,19.75C9.75,19.2,10.2,18.75,10.75,18.75C11.3,18.75,11.75,19.2,11.75,19.75C11.75,20.3,11.3,20.75,10.75,20.75C10.2,20.75,9.75,20.3,9.75,19.75ZM5.25,15.25C5.25,14.7,5.7,14.25,6.25,14.25C6.8,14.25,7.25,14.7,7.25,15.25C7.25,15.8,6.8,16.25,6.25,16.25C5.7,16.25,5.25,15.8,5.25,15.25ZM14.25,19.75C14.25,19.2,14.7,18.75,15.25,18.75C15.8,18.75,16.25,19.2,16.25,19.75C16.25,20.3,15.8,20.75,15.25,20.75C14.7,20.75,14.25,20.3,14.25,19.75ZM5.25,10.75C5.25,10.2,5.7,9.75,6.25,9.75C6.8,9.75,7.25,10.2,7.25,10.75C7.25,11.3,6.8,11.75,6.25,11.75C5.7,11.75,5.25,11.3,5.25,10.75ZM18.75,19.75C18.75,19.2,19.2,18.75,19.75,18.75C20.3,18.75,20.75,19.2,20.75,19.75C20.75,20.3,20.3,20.75,19.75,20.75C19.2,20.75,18.75,20.3,18.75,19.75ZM5.25,6.25C5.25,5.7,5.7,5.25,6.25,5.25C6.8,5.25,7.25,5.7,7.25,6.25C7.25,6.8,6.8,7.25,6.25,7.25C5.7,7.25,5.25,6.8,5.25,6.25ZM9.75,6.25C9.75,5.7,10.2,5.25,10.75,5.25C11.3,5.25,11.75,5.7,11.75,6.25C11.75,6.8,11.3,7.25,10.75,7.25C10.2,7.25,9.75,6.8,9.75,6.25ZM18.75,15.25C18.75,14.7,19.2,14.25,19.75,14.25C20.3,14.25,20.75,14.7,20.75,15.25C20.75,15.8,20.3,16.25,19.75,16.25C19.2,16.25,18.75,15.8,18.75,15.25ZM14.25,6.25C14.25,5.7,14.7,5.25,15.25,5.25C15.8,5.25,16.25,5.7,16.25,6.25C16.25,6.8,15.8,7.25,15.25,7.25C14.7,7.25,14.25,6.8,14.25,6.25ZM18.75,10.75C18.75,10.2,19.2,9.75,19.75,9.75C20.3,9.75,20.75,10.2,20.75,10.75C20.75,11.3,20.3,11.75,19.75,11.75C19.2,11.75,18.75,11.3,18.75,10.75Z"/></svg>