<svg xmlns="http://www.w3.org/2000/svg" viewBox="0 0 24 24" fill="currentColor"><path d="M12.25,4.7C12.25,4.25,12.5,4,12.95,4L13.04,4C13.5,4,13.74,4.25,13.74,4.7L13.74,6.5L12.24,6.5ZM7.75,13L7.75,19L6.25,19L6.25,13ZM13,19.75L7,19.75L7,18.25L13,18.25ZM12.96,22C12.5,22,12.26,21.75,12.26,21.3L12.26,20.2C12.26,19.75,12.5,19.5,12.96,19.5L13.05,19.5C13.5,19.5,13.75,19.75,13.75,20.2L13.75,21.3C13.75,21.75,13.5,22,13.05,22ZM19,5.13C20.05,5.13,20.88,5.95,20.88,7C20.88,8.05,20.05,8.88,19,8.88C17.95,8.88,17.13,8.05,17.13,7C17.13,5.95,17.95,5.13,19,5.13ZM7,17.13C8.05,17.13,8.88,17.95,8.88,19C8.88,20.05,8.05,20.88,7,20.88C5.95,20.88,5.13,20.05,5.13,19C5.13,17.95,5.95,17.13,7,17.13ZM7,11.13C8.05,11.13,8.88,11.95,8.88,13C8.88,14.05,8.05,14.88,7,14.88C5.95,14.88,5.13,14.05,5.13,13C5.13,11.95,5.95,11.13,7,11.13ZM13,17.13C14.05,17.13,14.88,17.95,14.88,19C14.88,20.05,14.05,20.88,13,20.88C11.95,20.88,11.13,20.05,11.13,19C11.13,17.95,11.95,17.13,13,17.13ZM7,5.13C8.05,5.13,8.88,5.95,8.88,7C8.88,8.05,8.05,8.88,7,8.88C5.95,8.88,5.13,8.05,5.13,7C5.13,5.95,5.95,5.13,7,5.13ZM19,17.13C20.05,17.13,20.88,17.95,20.88,19C20.88,20.05,20.05,20.88,19,20.88C17.95,20.88,17.13,20.05,17.13,19C17.13,17.95,17.95,17.13,19,17.13ZM13,11.13C14.05,11.13,14.88,11.95,14.88,13C14.88,14.05,14.05,14.88,13,14.88C11.95,14.88,11.13,14.05,11.13,13C11.13,11.95,11.95,11.13,13,11.13ZM13,5.13C14.05,5.13,14.88,5.95,14.88,7C14.88,8.05,14.05,8.88,13,8.88C11.95,8.88,11.13,8.05,11.13,7C11.13,5.95,11.95,5.13,13,5.13ZM19,11.13C20.05,11.13,20.88,11.95,20.88,13C20.88,14.05,20.05,14.88,19,14.88C17.95,14.88,17.13,14.05,17.13,13C17.13,11.95,17.95,11.13,19,11.13ZM8,12.25L19,12.25L19,13.75L8,13.75ZM13,6.25L19,6.25L19,7.75L13,7.75ZM19.75,6.98L19.75,13L18.25,13L18.25,6.98Z"/></svg>