<svg xmlns="http://www.w3.org/2000/svg" viewBox="0 0 24 24" fill="currentColor"><path d="M7.02,5.33C7.97,5.33,8.67,6.02,8.67,7C8.67,7.95,7.98,8.67,7.02,8.67C6.07,8.67,5.35,7.95,5.35,7C5.35,6.03,6.08,5.33,7.02,5.33ZM18.98,17.33C19.93,17.33,20.65,18.05,20.65,19C20.65,19.98,19.92,20.67,18.98,20.67C18.02,20.67,17.33,19.98,17.33,19C17.33,18.05,18.02,17.33,18.98,17.33ZM18.98,13.33C19.93,13.33,20.65,14.03,20.65,15C20.65,15.95,19.92,16.67,18.98,16.67C18.02,16.67,17.33,15.95,17.33,15C17.33,14.03,18.02,13.33,18.98,13.33ZM11,17.33C11.95,17.33,12.67,18.02,12.67,18.98C12.67,19.93,11.94,20.65,11,20.65C10.02,20.65,9.32,19.92,9.32,18.98C9.32,18.02,10.02,17.33,11,17.33ZM7.02,17.33C7.97,17.33,8.67,18.05,8.67,19C8.67,19.98,7.98,20.67,7.02,20.67C6.07,20.67,5.35,19.98,5.35,19C5.35,18.05,6.08,17.33,7.02,17.33ZM15,9.36C15.96,9.36,16.68,10.08,16.68,11.03C16.68,11.98,15.95,12.68,15,12.68C14.03,12.68,13.33,11.98,13.33,11.03C13.33,10.08,14.03,9.36,15,9.36ZM11,13.35C11.95,13.35,12.67,14.08,12.67,15.02C12.67,15.98,11.94,16.67,11,16.67C10.02,16.67,9.32,15.98,9.32,15.02C9.32,14.07,10.02,13.35,11,13.35ZM18.98,5.33C19.93,5.33,20.65,6.02,20.65,7C20.65,7.95,19.92,8.67,18.98,8.67C18.02,8.67,17.33,7.95,17.33,7C17.33,6.03,18.02,5.33,18.98,5.33ZM7.02,9.33C7.97,9.33,8.67,10.03,8.67,11C8.67,11.96,7.98,12.68,7.02,12.68C6.07,12.68,5.35,11.95,5.35,11C5.35,10.03,6.08,9.33,7.02,9.33Z"/></svg>