<svg xmlns="http://www.w3.org/2000/svg" viewBox="0 0 24 24"><path d="M17.77,14.67C17.77,13.37,18.7,12.44,19.97,12.44C21.24,12.44,22.2,13.37,22.2,14.67C22.2,15.94,21.23,16.9,19.97,16.9C18.7,16.9,17.77,15.93,17.77,14.67Z" fill="currentColor"/><path d="M12.44,19.97C12.44,18.7,13.37,17.77,14.67,17.77C15.94,17.77,16.9,18.7,16.9,19.97C16.9,21.24,15.93,22.2,14.67,22.2C13.37,22.2,12.44,21.23,12.44,19.97Z" fill="currentColor"/><path d="M12.44,14.7C12.44,13.43,13.37,12.47,14.67,12.47C15.94,12.47,16.9,13.44,16.9,14.7C16.9,15.97,15.93,16.9,14.67,16.9C13.37,16.9,12.44,15.97,12.44,14.7Z" fill="currentColor"/><path d="M1.8,20C1.8,18.73,2.77,17.77,4.03,17.77C5.3,17.77,6.23,18.74,6.23,20C6.23,21.3,5.3,22.23,4.03,22.23C2.76,22.23,1.8,21.3,1.8,20Z" fill="currentColor"/><path d="M7.1,14.7C7.1,13.43,8.03,12.47,9.33,12.47C10.6,12.47,11.56,13.44,11.56,14.7C11.56,15.97,10.59,16.9,9.33,16.9C8.03,16.9,7.1,15.97,7.1,14.7Z" fill="currentColor"/><path d="M17.77,4C17.77,2.7,18.7,1.77,19.97,1.77C21.24,1.77,22.2,2.7,22.2,4C22.2,5.27,21.23,6.23,19.97,6.23C18.7,6.23,17.77,5.26,17.77,4Z" fill="currentColor"/><path d="M7.1,9.37C7.1,8.1,8.03,7.14,9.33,7.14C10.6,7.14,11.56,8.11,11.56,9.37C11.56,10.64,10.59,11.57,9.33,11.57C8.03,11.57,7.1,10.64,7.1,9.37Z" fill="currentColor"/><path d="M1.8,9.34C1.8,8.04,2.77,7.11,4.03,7.11C5.3,7.11,6.23,8.04,6.23,9.34C6.23,10.61,5.3,11.57,4.03,11.57C2.76,11.57,1.8,10.6,1.8,9.34Z" fill="currentColor"/><path d="M7.1,4.03C7.1,2.76,8.03,1.8,9.33,1.8C10.6,1.8,11.56,2.77,11.56,4.03C11.56,5.3,10.59,6.23,9.33,6.23C8.03,6.23,7.1,5.3,7.1,4.03Z" fill="currentColor"/></svg>