<svg xmlns="http://www.w3.org/2000/svg" viewBox="0 0 24 24"><path d="M17.77,4C17.77,2.7,18.7,1.77,19.97,1.77C21.24,1.77,22.2,2.7,22.2,4C22.2,5.27,21.23,6.23,19.97,6.23C18.7,6.23,17.77,5.26,17.77,4Z" fill="currentColor"/><path d="M1.8,20C1.8,18.73,2.77,17.77,4.03,17.77C5.3,17.77,6.23,18.74,6.23,20C6.23,21.3,5.3,22.23,4.03,22.23C2.76,22.23,1.8,21.3,1.8,20Z" fill="currentColor"/><path d="M1.8,14.67C1.8,13.37,2.77,12.44,4.03,12.44C5.3,12.44,6.23,13.37,6.23,14.67C6.23,15.94,5.3,16.9,4.03,16.9C2.76,16.9,1.8,15.93,1.8,14.67Z" fill="currentColor"/><path d="M1.8,9.34C1.8,8.04,2.77,7.11,4.03,7.11C5.3,7.11,6.23,8.04,6.23,9.34C6.23,10.61,5.3,11.57,4.03,11.57C2.76,11.57,1.8,10.6,1.8,9.34Z" fill="currentColor"/><path d="M9.77,19.97C9.77,18.7,10.74,17.77,12,17.77C13.3,17.77,14.23,18.7,14.23,19.97C14.23,21.24,13.3,22.2,12,22.2C10.73,22.2,9.77,21.23,9.77,19.97Z" fill="currentColor"/><path d="M17.77,20C17.77,18.73,18.7,17.77,19.97,17.77C21.24,17.77,22.2,18.74,22.2,20C22.2,21.3,21.23,22.23,19.97,22.23C18.7,22.23,17.77,21.3,17.77,20Z" fill="currentColor"/><path d="M9.77,14.7C9.77,13.43,10.74,12.47,12,12.47C13.3,12.47,14.23,13.44,14.23,14.7C14.23,15.97,13.3,16.9,12,16.9C10.73,16.9,9.77,15.97,9.77,14.7Z" fill="currentColor"/><path d="M1.8,4C1.8,2.7,2.77,1.77,4.03,1.77C5.3,1.77,6.23,2.7,6.23,4C6.23,5.27,5.3,6.23,4.03,6.23C2.76,6.23,1.8,5.26,1.8,4Z" fill="currentColor"/><path d="M17.77,14.67C17.77,13.37,18.7,12.44,19.97,12.44C21.24,12.44,22.2,13.37,22.2,14.67C22.2,15.94,21.23,16.9,19.97,16.9C18.7,16.9,17.77,15.93,17.77,14.67Z" fill="currentColor"/><path d="M9.77,9.37C9.77,8.1,10.74,7.14,12,7.14C13.3,7.14,14.23,8.11,14.23,9.37C14.23,10.64,13.3,11.57,12,11.57C10.73,11.57,9.77,10.64,9.77,9.37Z" fill="currentColor"/><path d="M17.77,9.34C17.77,8.04,18.7,7.11,19.97,7.11C21.24,7.11,22.2,8.04,22.2,9.34C22.2,10.61,21.23,11.57,19.97,11.57C18.7,11.57,17.77,10.6,17.77,9.34Z" fill="currentColor"/><path d="M9.77,4.03C9.77,2.76,10.74,1.8,12,1.8C13.3,1.8,14.23,2.77,14.23,4.03C14.23,5.3,13.3,6.23,12,6.23C10.73,6.23,9.77,5.3,9.77,4.03Z" fill="currentColor"/></svg>