<svg xmlns="http://www.w3.org/2000/svg" viewBox="0 0 24 24"><path d="M17.77,4C17.77,2.7,18.7,1.77,19.97,1.77C21.24,1.77,22.2,2.7,22.2,4C22.2,5.27,21.23,6.23,19.97,6.23C18.7,6.23,17.77,5.26,17.77,4Z" fill="currentColor"/><path d="M1.8,20C1.8,18.73,2.77,17.77,4.03,17.77C5.3,17.77,6.23,18.74,6.23,20C6.23,21.3,5.3,22.23,4.03,22.23C2.76,22.23,1.8,21.3,1.8,20Z" fill="currentColor"/><path d="M7.1,19.97C7.1,18.7,8.07,17.77,9.33,17.77C10.63,17.77,11.56,18.7,11.56,19.97C11.56,21.24,10.63,22.2,9.33,22.2C8.06,22.2,7.1,21.23,7.1,19.97Z" fill="currentColor"/><path d="M7.1,14.7C7.1,13.43,8.07,12.47,9.33,12.47C10.63,12.47,11.56,13.44,11.56,14.7C11.56,15.97,10.63,16.9,9.33,16.9C8.06,16.9,7.1,15.97,7.1,14.7Z" fill="currentColor"/><path d="M12.44,19.97C12.44,18.7,13.41,17.77,14.67,17.77C15.97,17.77,16.9,18.7,16.9,19.97C16.9,21.24,15.97,22.2,14.67,22.2C13.4,22.2,12.44,21.23,12.44,19.97Z" fill="currentColor"/><path d="M17.77,20C17.77,18.73,18.7,17.77,19.97,17.77C21.24,17.77,22.2,18.74,22.2,20C22.2,21.3,21.23,22.23,19.97,22.23C18.7,22.23,17.77,21.3,17.77,20Z" fill="currentColor"/><path d="M12.44,14.7C12.44,13.43,13.41,12.47,14.67,12.47C15.97,12.47,16.9,13.44,16.9,14.7C16.9,15.97,15.97,16.9,14.67,16.9C13.4,16.9,12.44,15.97,12.44,14.7Z" fill="currentColor"/><path d="M17.77,14.67C17.77,13.37,18.7,12.44,19.97,12.44C21.24,12.44,22.2,13.37,22.2,14.67C22.2,15.94,21.23,16.9,19.97,16.9C18.7,16.9,17.77,15.93,17.77,14.67Z" fill="currentColor"/><path d="M12.44,9.37C12.44,8.1,13.41,7.14,14.67,7.14C15.97,7.14,16.9,8.11,16.9,9.37C16.9,10.64,15.97,11.57,14.67,11.57C13.4,11.57,12.44,10.64,12.44,9.37Z" fill="currentColor"/><path d="M17.77,9.34C17.77,8.04,18.7,7.11,19.97,7.11C21.24,7.11,22.2,8.04,22.2,9.34C22.2,10.61,21.23,11.57,19.97,11.57C18.7,11.57,17.77,10.6,17.77,9.34Z" fill="currentColor"/></svg>