<svg xmlns="http://www.w3.org/2000/svg" viewBox="0 0 24 24" fill="currentColor"><path d="M19.75,5.5C20.2,5.5,20.5,5.8,20.5,6.25C20.5,6.72,20.2,7.02,19.75,7.02C19.3,7.02,19,6.72,19,6.25C19,5.8,19.3,5.5,19.75,5.5ZM6.25,18.98C6.7,18.98,7,19.28,7,19.73C7,20.2,6.7,20.5,6.25,20.5C5.8,20.5,5.5,20.2,5.5,19.73C5.5,19.28,5.8,18.98,6.25,18.98ZM6.25,15.63C6.7,15.63,7,15.92,7,16.38C7,16.83,6.7,17.13,6.25,17.13C5.8,17.13,5.5,16.83,5.5,16.38C5.5,15.92,5.8,15.63,6.25,15.63ZM9.63,19C10.07,19,10.38,19.3,10.38,19.75C10.38,20.2,10.07,20.5,9.63,20.5C9.18,20.5,8.88,20.2,8.88,19.75C8.88,19.3,9.18,19,9.63,19ZM6.25,12.25C6.7,12.25,7,12.55,7,13C7,13.45,6.7,13.75,6.25,13.75C5.8,13.75,5.5,13.45,5.5,13C5.5,12.55,5.8,12.25,6.25,12.25ZM6.25,8.88C6.7,8.88,7,9.18,7,9.63C7,10.07,6.7,10.38,6.25,10.38C5.8,10.38,5.5,10.07,5.5,9.63C5.5,9.18,5.8,8.88,6.25,8.88ZM6.25,5.5C6.7,5.5,7,5.8,7,6.25C7,6.72,6.7,7.02,6.25,7.02C5.8,7.02,5.5,6.72,5.5,6.25C5.5,5.8,5.8,5.5,6.25,5.5ZM9.63,5.5C10.07,5.5,10.38,5.8,10.38,6.25C10.38,6.7,10.07,7,9.63,7C9.18,7,8.88,6.7,8.88,6.25C8.88,5.8,9.18,5.5,9.63,5.5ZM13,5.5C13.45,5.5,13.75,5.8,13.75,6.25C13.75,6.7,13.45,7,13,7C12.55,7,12.25,6.7,12.25,6.25C12.25,5.8,12.55,5.5,13,5.5ZM19.75,8.88C20.2,8.88,20.5,9.18,20.5,9.63C20.5,10.07,20.2,10.38,19.75,10.38C19.3,10.38,19,10.07,19,9.63C19,9.18,19.3,8.88,19.75,8.88ZM16.38,5.5C16.83,5.5,17.13,5.8,17.13,6.25C17.13,6.7,16.83,7,16.38,7C15.92,7,15.63,6.7,15.63,6.25C15.63,5.8,15.92,5.5,16.38,5.5ZM16,13C14.3,13,13,14.3,13,16C13,17.7,14.3,19,16,19C17.7,19,19,17.7,19,16C19,14.3,17.7,13,16,13ZM16,11.5C18.48,11.5,20.5,13.52,20.5,16C20.5,18.48,18.48,20.5,16,20.5C13.52,20.5,11.5,18.48,11.5,16C11.5,13.52,13.52,11.5,16,11.5ZM21.7,21.55L21.6,21.65C21.28,21.97,20.93,21.97,20.61,21.65L17.83,18.87L18.93,17.77L21.71,20.54C22.03,20.87,22.03,21.22,21.71,21.54Z"/></svg>