<svg xmlns="http://www.w3.org/2000/svg" viewBox="0 0 24 24"><path d="M9.8,4C9.8,2.7,10.73,1.77,12,1.77C13.27,1.77,14.23,2.7,14.23,4C14.23,5.27,13.26,6.23,12,6.23C10.73,6.23,9.8,5.26,9.8,4Z" fill="currentColor"/><path d="M0.8,20C0.8,18.73,1.77,17.77,3.03,17.77C4.3,17.77,5.23,18.74,5.23,20C5.23,21.3,4.3,22.23,3.03,22.23C1.76,22.23,0.8,21.3,0.8,20Z" fill="currentColor"/><path d="M6.77,19.97C6.77,18.7,7.74,17.77,9,17.77C10.3,17.77,11.23,18.7,11.23,19.97C11.23,21.24,10.3,22.2,9,22.2C7.73,22.2,6.77,21.23,6.77,19.97Z" fill="currentColor"/><path d="M12.77,19.97C12.77,18.7,13.74,17.77,15,17.77C16.3,17.77,17.23,18.7,17.23,19.97C17.23,21.24,16.3,22.2,15,22.2C13.73,22.2,12.77,21.23,12.77,19.97Z" fill="currentColor"/><path d="M18.77,20C18.77,18.73,19.7,17.77,20.97,17.77C22.24,17.77,23.2,18.74,23.2,20C23.2,21.3,22.23,22.23,20.97,22.23C19.7,22.23,18.77,21.3,18.77,20Z" fill="currentColor"/><path d="M6.8,9.37C6.8,8.1,7.77,7.14,9.03,7.14C10.33,7.14,11.26,8.11,11.26,9.37C11.26,10.64,10.33,11.57,9.03,11.57C7.76,11.57,6.8,10.64,6.8,9.37Z" fill="currentColor"/><path d="M12.8,9.34C12.8,8.04,13.73,7.11,15,7.11C16.27,7.11,17.23,8.04,17.23,9.34C17.23,10.61,16.26,11.57,15,11.57C13.73,11.57,12.8,10.6,12.8,9.34Z" fill="currentColor"/><path d="M3.8,14.67C3.8,13.4,4.77,12.44,6.03,12.44C7.3,12.44,8.23,13.41,8.23,14.67C8.23,15.97,7.3,16.9,6.03,16.9C4.76,16.9,3.8,15.97,3.8,14.67Z" fill="currentColor"/><path d="M9.77,14.64C9.77,13.37,10.74,12.44,12,12.44C13.3,12.44,14.23,13.37,14.23,14.64C14.23,15.91,13.3,16.87,12,16.87C10.73,16.87,9.77,15.9,9.77,14.64Z" fill="currentColor"/><path d="M15.77,14.64C15.77,13.37,16.74,12.44,18,12.44C19.3,12.44,20.23,13.37,20.23,14.64C20.23,15.91,19.3,16.87,18,16.87C16.73,16.87,15.77,15.9,15.77,14.64Z" fill="currentColor"/></svg>