<svg xmlns="http://www.w3.org/2000/svg" viewBox="0 0 24 24"><path d="M2,3C2,2.37,2.4,2,3,2C3.6,2,4,2.4,4,3C4,3.63,3.6,4.03,3,4.03C2.4,4.03,2,3.63,2,3Z" fill="currentColor"/><path d="M7.33,6.44C7.33,7.07,6.93,7.44,6.33,7.44C5.73,7.47,5.33,7.07,5.33,6.44C5.33,5.84,5.73,5.47,6.33,5.47C6.93,5.47,7.33,5.87,7.33,6.44Z" fill="currentColor"/><path d="M8.86,9.9C8.86,9.27,9.26,8.87,9.83,8.9C10.46,8.9,10.86,9.3,10.83,9.9C10.86,10.47,10.46,10.87,9.83,10.87C9.26,10.9,8.86,10.5,8.86,9.9Z" fill="currentColor"/><path d="M20,3C20,2.4,20.4,2,21,2C21.6,2,22,2.37,22,3C22,3.63,21.6,4.03,21,4.03C20.4,4.03,20,3.63,20,3Z" fill="currentColor"/><path d="M18.67,6.44C18.67,7.07,18.27,7.47,17.67,7.44C17.07,7.44,16.67,7.07,16.67,6.44C16.67,5.87,17.07,5.47,17.67,5.47C18.27,5.47,18.67,5.84,18.67,6.44Z" fill="currentColor"/><path d="M13.17,9.9C13.14,9.3,13.54,8.9,14.17,8.9C14.74,8.87,15.14,9.27,15.14,9.9C15.14,10.5,14.74,10.9,14.17,10.87C13.54,10.87,13.14,10.47,13.17,9.9Z" fill="currentColor"/><path d="M4,21C4,21.6,3.6,22,3,22C2.4,22,2,21.63,2,21C2,20.37,2.4,19.97,3,19.97C3.6,19.97,4,20.37,4,21Z" fill="currentColor"/><path d="M5.33,17.56C5.33,16.93,5.73,16.53,6.33,16.56C6.93,16.56,7.33,16.93,7.33,17.56C7.33,18.13,6.93,18.53,6.33,18.53C5.73,18.53,5.33,18.16,5.33,17.56Z" fill="currentColor"/><path d="M10.83,14.1C10.86,14.7,10.46,15.1,9.83,15.1C9.26,15.13,8.86,14.73,8.86,14.1C8.86,13.5,9.26,13.1,9.83,13.13C10.46,13.13,10.86,13.53,10.83,14.1Z" fill="currentColor"/><path d="M22,21C22,21.63,21.6,22,21,22C20.4,22,20,21.6,20,21C20,20.37,20.4,19.97,21,19.97C21.6,19.97,22,20.37,22,21Z" fill="currentColor"/><path d="M16.67,17.56C16.67,16.93,17.07,16.56,17.67,16.56C18.27,16.53,18.67,16.93,18.67,17.56C18.67,18.16,18.27,18.53,17.67,18.53C17.07,18.53,16.67,18.13,16.67,17.56Z" fill="currentColor"/><path d="M15.14,14.1C15.14,14.73,14.74,15.13,14.17,15.1C13.54,15.1,13.14,14.7,13.17,14.1C13.14,13.53,13.54,13.13,14.17,13.13C14.74,13.1,15.14,13.5,15.14,14.1Z" fill="currentColor"/></svg>