<svg xmlns="http://www.w3.org/2000/svg" viewBox="0 0 24 24"><path d="M20,3C20,2.4,20.4,2,21,2C21.6,2,22,2.4,22,3C22,3.63,21.6,4.03,21,4.03C20.4,4.03,20,3.63,20,3Z" fill="currentColor"/><path d="M2,20.97C2,20.37,2.4,19.97,3,19.97C3.6,19.97,4,20.37,4,20.97C4,21.6,3.6,22,3,22C2.4,22,2,21.6,2,20.97Z" fill="currentColor"/><path d="M2,16.5C2,15.9,2.4,15.5,3,15.5C3.6,15.5,4,15.9,4,16.5C4,17.1,3.6,17.5,3,17.5C2.4,17.5,2,17.1,2,16.5Z" fill="currentColor"/><path d="M6.5,21C6.5,20.4,6.9,20,7.5,20C8.1,20,8.5,20.4,8.5,21C8.5,21.6,8.1,22,7.5,22C6.9,22,6.5,21.6,6.5,21Z" fill="currentColor"/><path d="M2,12C2,11.4,2.4,11,3,11C3.6,11,4,11.4,4,12C4,12.6,3.6,13,3,13C2.4,13,2,12.6,2,12Z" fill="currentColor"/><path d="M2,7.5C2,6.9,2.4,6.5,3,6.5C3.6,6.5,4,6.9,4,7.5C4,8.1,3.6,8.5,3,8.5C2.4,8.5,2,8.1,2,7.5Z" fill="currentColor"/><path d="M2,3C2,2.4,2.4,2,3,2C3.6,2,4,2.4,4,3C4,3.63,3.6,4.03,3,4.03C2.4,4.03,2,3.63,2,3Z" fill="currentColor"/><path d="M6.5,3C6.5,2.4,6.9,2,7.5,2C8.1,2,8.5,2.4,8.5,3C8.5,3.6,8.1,4,7.5,4C6.9,4,6.5,3.6,6.5,3Z" fill="currentColor"/><path d="M11,3C11,2.4,11.4,2,12,2C12.6,2,13,2.4,13,3C13,3.6,12.6,4,12,4C11.4,4,11,3.6,11,3Z" fill="currentColor"/><path d="M20,7.5C20,6.9,20.4,6.5,21,6.5C21.6,6.5,22,6.9,22,7.5C22,8.1,21.6,8.5,21,8.5C20.4,8.5,20,8.1,20,7.5Z" fill="currentColor"/><path d="M15.5,3C15.5,2.4,15.9,2,16.5,2C17.1,2,17.5,2.4,17.5,3C17.5,3.6,17.1,4,16.5,4C15.9,4,15.5,3.6,15.5,3Z" fill="currentColor"/><path d="M14.8,23C14.53,23.37,14.17,23.43,13.8,23.23L13.2,22.86C12.83,22.66,12.7,22.29,12.9,21.89L13.2,21.19C13.33,20.92,13.27,20.56,13.03,20.16L12.16,18.63C12.03,18.36,11.69,18.2,11.23,18.16L10.73,18.09C10.26,18.06,10.03,17.76,10.03,17.32L10.03,16.65C10.03,16.18,10.26,15.92,10.73,15.88L11.46,15.78C11.76,15.78,12.06,15.55,12.29,15.15L13.16,13.62C13.29,13.35,13.29,12.99,13.09,12.59L12.89,12.09C12.69,11.69,12.82,11.32,13.19,11.12L13.79,10.75C14.16,10.55,14.52,10.62,14.79,10.98L15.26,11.61C15.43,11.84,15.79,11.98,16.23,11.98L18,11.98C18.3,11.98,18.6,11.78,18.87,11.41L19.2,10.98C19.47,10.61,19.83,10.55,20.2,10.75L20.8,11.12C21.17,11.32,21.3,11.69,21.1,12.09L20.8,12.79C20.67,13.06,20.73,13.42,20.97,13.82L21.84,15.35C21.97,15.62,22.31,15.78,22.77,15.82L23.27,15.89C23.74,15.92,23.97,16.19,23.97,16.66L23.97,17.33C23.97,17.76,23.74,18.06,23.27,18.1L22.54,18.2C22.24,18.2,21.94,18.43,21.71,18.83L20.84,20.36C20.71,20.63,20.71,20.99,20.91,21.39L21.11,21.89C21.31,22.29,21.18,22.66,20.81,22.86L20.21,23.23C19.84,23.43,19.48,23.36,19.21,23L18.74,22.37C18.57,22.14,18.24,22,17.77,22L16,22C15.7,22,15.4,22.2,15.13,22.57Z" fill="currentColor"/><path d="M14.67,17C14.67,18.3,15.7,19.33,17,19.33C18.3,19.33,19.33,18.3,19.33,17C19.33,15.7,18.3,14.67,17,14.67C15.7,14.67,14.67,15.7,14.67,17Z" fill="currentColor"/></svg>