<svg xmlns="http://www.w3.org/2000/svg" viewBox="0 0 24 24" fill="currentColor"><path d="M19.75,21C20.2,21,20.5,20.7,20.5,20.25C20.5,19.78,20.2,19.48,19.75,19.48C19.3,19.48,19,19.78,19,20.25C19,20.7,19.3,21,19.75,21ZM6.25,7.53C6.7,7.53,7,7.23,7,6.78C7,6.3,6.7,6,6.25,6C5.8,6,5.5,6.3,5.5,6.78C5.5,7.23,5.8,7.53,6.25,7.53ZM6.25,10.88C6.7,10.88,7,10.58,7,10.13C7,9.68,6.7,9.38,6.25,9.38C5.8,9.38,5.5,9.68,5.5,10.13C5.5,10.58,5.8,10.88,6.25,10.88ZM9.63,7.5C10.07,7.5,10.38,7.2,10.38,6.75C10.38,6.3,10.07,6,9.63,6C9.18,6,8.88,6.3,8.88,6.75C8.88,7.2,9.18,7.5,9.63,7.5ZM6.25,14.25C6.7,14.25,7,13.95,7,13.5C7,13.05,6.7,12.75,6.25,12.75C5.8,12.75,5.5,13.05,5.5,13.5C5.5,13.95,5.8,14.25,6.25,14.25ZM6.25,17.63C6.7,17.63,7,17.33,7,16.88C7,16.43,6.7,16.13,6.25,16.13C5.8,16.13,5.5,16.43,5.5,16.88C5.5,17.33,5.8,17.63,6.25,17.63ZM16.38,7.5C16.83,7.5,17.13,7.2,17.13,6.75C17.13,6.3,16.83,6,16.38,6C15.92,6,15.63,6.3,15.63,6.75C15.63,7.2,15.92,7.5,16.38,7.5ZM6.25,21C6.7,21,7,20.7,7,20.25C7,19.78,6.7,19.48,6.25,19.48C5.8,19.48,5.5,19.78,5.5,20.25C5.5,20.7,5.8,21,6.25,21ZM19.75,7.53C20.2,7.53,20.5,7.23,20.5,6.78C20.5,6.3,20.2,6,19.75,6C19.3,6,19,6.3,19,6.78C19,7.23,19.3,7.53,19.75,7.53ZM19.75,10.88C20.2,10.88,20.5,10.58,20.5,10.13C20.5,9.68,20.2,9.38,19.75,9.38C19.3,9.38,19,9.68,19,10.13C19,10.58,19.3,10.88,19.75,10.88ZM9.63,21C10.07,21,10.38,20.7,10.38,20.25C10.38,19.8,10.07,19.5,9.63,19.5C9.18,19.5,8.88,19.8,8.88,20.25C8.88,20.7,9.18,21,9.63,21ZM19.75,14.25C20.2,14.25,20.5,13.95,20.5,13.5C20.5,13.05,20.2,12.75,19.75,12.75C19.3,12.75,19,13.05,19,13.5C19,13.95,19.3,14.25,19.75,14.25ZM13,21C13.45,21,13.75,20.7,13.75,20.25C13.75,19.8,13.45,19.5,13,19.5C12.55,19.5,12.25,19.8,12.25,20.25C12.25,20.7,12.55,21,13,21ZM19.75,17.63C20.2,17.63,20.5,17.33,20.5,16.88C20.5,16.43,20.2,16.13,19.75,16.13C19.3,16.13,19,16.43,19,16.88C19,17.33,19.3,17.63,19.75,17.63ZM16.38,21C16.83,21,17.13,20.7,17.13,20.25C17.13,19.8,16.83,19.5,16.38,19.5C15.92,19.5,15.63,19.8,15.63,20.25C15.63,20.7,15.92,21,16.38,21ZM12,9.85C12.02,9.57,12.18,9.42,12.45,9.42L13.52,9.42C13.8,9.42,13.95,9.57,13.98,9.85L14.25,16.98C14.28,17.33,14.08,17.52,13.73,17.52L12.23,17.52C11.88,17.52,11.68,17.32,11.7,16.98ZM12.98,7.78C11.85,7.78,11.85,7.78,11.85,6.68C11.85,5.5,11.85,5.5,12.98,5.5C14.13,5.5,14.13,5.5,14.13,6.68C14.13,7.78,14.13,7.78,12.98,7.78Z"/></svg>