<svg xmlns="http://www.w3.org/2000/svg" viewBox="0 0 24 24"><path d="M6.3,22L19.36,8.94C22.25,9.63,24,12.27,24,15.37C24,19.07,20.97,22,16.73,22Z" fill="currentColor"/><path d="M23.4,2.03L17.61,7.82L3.78,21.65L2.1,23.33L2.07,23.36C1.64,23.79,1.17,23.79,0.74,23.36L0.64,23.26C0.21,22.83,0.21,22.36,0.64,21.93L1.96,20.61C0.77,19.61,0.01,18.13,0.01,16.29C0.01,13.12,2.64,11.16,4.94,10.89C3.17,5.16,7.17,1.82,11.14,1.82C13.99,1.82,16.03,3.47,17,5.56L21.97,0.59C22.4,0.16,22.87,0.16,23.3,0.59L23.4,0.69C23.82,1.11,23.83,1.57,23.43,1.99C23.42,2,23.41,2.01,23.4,2.02Z" fill="currentColor"/></svg>