<svg xmlns="http://www.w3.org/2000/svg" viewBox="0 0 24 24"><path d="M9.5,22.5C8.67,23.1,8.2,22.97,7.87,21.97L6.9,19L3.8,19C2.77,19,2.5,18.63,2.8,17.63L3.77,14.66L1.24,12.83C0.41,12.23,0.41,11.76,1.24,11.16L3.77,9.33L2.8,6.36C2.5,5.36,2.77,4.99,3.8,4.99L6.9,4.99L7.87,2.02C8.2,1.02,8.67,0.89,9.5,1.49L12,3.32L14.53,1.49C15.36,0.89,15.83,1.02,16.13,2.02L17.1,4.99L20.23,4.99C21.26,4.99,21.53,5.36,21.23,6.36L20.26,9.33L22.76,11.2C23.59,11.8,23.59,12.27,22.76,12.87L20.26,14.67L21.23,17.64C21.53,18.64,21.26,19.01,20.23,19.01L17.1,19.01L16.13,21.98C15.83,22.98,15.36,23.11,14.53,22.51L12,20.68Z" fill="currentColor"/><path d="M9.37,20.1L12,18.2L14.63,20.1L15.63,17L18.93,17L17.9,13.9L20.53,12L17.93,10.1L18.93,7L15.63,7L14.63,3.9L12,5.8L9.37,3.9L8.34,7L5.11,7L6.14,10.1L3.51,12L6.14,13.9L5.11,17L8.34,17Z" fill="currentColor"/></svg>