<svg xmlns="http://www.w3.org/2000/svg" viewBox="0 0 24 24"><path d="M8.83,22.37C7.86,22.74,7.33,22.54,6.96,21.57L5.99,19.24C5.76,18.67,5.32,18.24,4.76,18.01L2.43,17.04C1.46,16.67,1.26,16.14,1.63,15.17L2.6,12.87C2.83,12.3,2.83,11.7,2.6,11.14L1.63,8.84C1.26,7.87,1.46,7.34,2.43,6.97L4.76,6C5.33,5.77,5.76,5.33,5.99,4.77L6.96,2.44C7.33,1.47,7.86,1.27,8.83,1.64L11.13,2.61C11.7,2.84,12.3,2.84,12.86,2.61L15.16,1.64C16.13,1.27,16.66,1.47,17.03,2.44L18,4.77C18.23,5.34,18.67,5.77,19.23,6L21.56,6.97C22.53,7.34,22.73,7.87,22.36,8.84L21.39,11.14C21.16,11.71,21.16,12.31,21.39,12.87L22.36,15.17C22.73,16.14,22.53,16.67,21.56,17.04L19.23,18.01C18.66,18.24,18.23,18.68,18,19.24L17.03,21.57C16.66,22.54,16.13,22.74,15.16,22.37L12.86,21.4C12.29,21.17,11.69,21.17,11.13,21.4Z" fill="currentColor"/><path d="M18.63,9.77C19.36,9.07,19.33,8.5,18.6,7.77L18.53,7.67C17.8,6.94,17.23,6.94,16.5,7.67L10.4,13.77L7.77,11.14C7.04,10.41,6.47,10.44,5.74,11.17L5.64,11.24C4.91,11.97,4.91,12.54,5.64,13.27L9.41,17.04C10.14,17.77,10.68,17.77,11.41,17.04Z" fill="currentColor"/></svg>