<svg xmlns="http://www.w3.org/2000/svg" viewBox="0 0 24 24" fill="currentColor"><path d="M11.13,20.88C10.5,21.33,10.15,21.23,9.9,20.48L9.18,18.25L6.85,18.25C6.08,18.25,5.88,17.97,6.1,17.22L6.83,15L4.93,13.62C4.31,13.17,4.31,12.82,4.93,12.37L6.83,11L6.1,8.77C5.88,8.02,6.08,7.74,6.85,7.74L9.18,7.74L9.9,5.51C10.15,4.76,10.5,4.67,11.13,5.12L13,6.49L14.9,5.12C15.52,4.67,15.87,4.76,16.1,5.51L16.83,7.74L19.17,7.74C19.95,7.74,20.15,8.02,19.92,8.77L19.2,11L21.07,12.4C21.69,12.85,21.69,13.2,21.07,13.65L19.2,15L19.92,17.23C20.15,17.98,19.95,18.26,19.17,18.26L16.83,18.26L16.1,20.48C15.87,21.23,15.52,21.33,14.9,20.88L13,19.51ZM11.03,19.08L13,17.65L14.97,19.08L15.72,16.75L18.2,16.75L17.42,14.42L19.4,13L17.45,11.57L18.2,9.25L15.72,9.25L14.97,6.92L13,8.35L11.03,6.92L10.25,9.25L7.83,9.25L8.6,11.57L6.63,13L8.6,14.42L7.83,16.75L10.25,16.75Z"/></svg>