<svg xmlns="http://www.w3.org/2000/svg" viewBox="0 0 24 24" fill="currentColor"><path d="M4,16.23C4,13.85,5.97,12.38,7.7,12.18C6.37,7.88,9.37,5.37,12.35,5.37C13.68,5.37,14.79,5.85,15.6,6.6L11.82,10.38C10.38,11.82,9.75,13.45,9.75,15.25C9.75,17.38,10.71,19.26,12.23,20.5L8.42,20.5C6.04,20.5,3.99,18.83,3.99,16.23ZM20.22,18.18L20.15,18.1C19.82,17.82,19.77,17.45,20.02,17.07C20.32,16.52,20.49,15.89,20.49,15.25C20.49,13.17,18.79,11.5,16.72,11.5L16.72,10C19.59,10,21.99,12.38,21.99,15.25C21.99,16.28,21.69,17.25,21.17,18.05C20.9,18.42,20.55,18.45,20.22,18.18ZM16.77,19L16.77,20.5C13.9,20.5,11.5,18.12,11.5,15.25C11.5,14.22,11.8,13.25,12.32,12.45C12.6,12.08,12.95,12.05,13.28,12.32L13.35,12.4C13.68,12.68,13.73,13.05,13.48,13.43C13.18,13.98,13.01,14.61,13.01,15.25C13.01,17.33,14.71,19,16.78,19ZM17.5,21.75C17.03,22.17,16.75,22.04,16.75,21.42L16.75,18.07C16.75,17.45,17.03,17.32,17.5,17.75L19.4,19.42C19.64,19.65,19.64,19.85,19.4,20.07ZM16.75,12.43C16.75,13.05,16.47,13.18,16,12.75L14.1,11.08C13.86,10.85,13.86,10.65,14.1,10.43L16,8.75C16.47,8.33,16.75,8.45,16.75,9.08ZM16.75,12.43C16.75,13.05,16.47,13.18,16,12.75L14.1,11.08C13.86,10.85,13.86,10.65,14.1,10.43L16,8.75C16.47,8.33,16.75,8.45,16.75,9.08Z"/></svg>