<svg xmlns="http://www.w3.org/2000/svg" viewBox="0 0 24 24"><path d="M7.15,19.3L12,15.85L16.87,19.32C17.23,19.59,17.23,19.59,17.15,19.18L15.72,13.17L20.07,9.83C20.23,9.71,20.23,9.71,20,9.69L14.23,9.02L12.1,3.43C12,3.17,12,3.17,11.9,3.43L9.73,9.02L3.99,9.7C3.78,9.72,3.78,9.72,3.97,9.87L8.24,13.18L6.85,19.19C6.76,19.58,6.76,19.58,7.15,19.31Z" fill="currentColor"/><path d="M8.3,20.93C5.67,22.76,4.2,21.83,4.9,18.73L6,13.96L2.73,11.43C0.43,9.6,0.86,8,3.76,7.7L8.29,7.17L10.02,2.7C11.09,-0.03,12.89,0,13.95,2.7L15.65,7.17L20.22,7.7C23.25,8.07,23.69,9.67,21.25,11.43L17.95,13.96L19.08,18.73C19.78,21.96,18.35,22.9,15.68,20.93L11.98,18.3Z" fill="currentColor"/></svg>