<svg xmlns="http://www.w3.org/2000/svg" viewBox="0 0 24 24" fill="currentColor"><path d="M14.9,5.11C15.52,4.66,15.87,4.76,16.1,5.51L16.83,7.74L19.17,7.74C19.95,7.74,20.15,8.01,19.92,8.76L19.2,10.99L21.07,12.34C21.69,12.79,21.69,13.14,21.07,13.59L19.2,15L19.92,17.22C20.15,17.97,19.95,18.25,19.17,18.25L16.83,18.25L16.1,20.48C15.87,21.23,15.52,21.33,14.9,20.88L13,19.5L11.13,20.88C10.5,21.33,10.15,21.23,9.9,20.48L9.18,18.25L6.85,18.25C6.08,18.25,5.88,17.97,6.1,17.22L6.83,14.99L4.93,13.62C4.31,13.17,4.31,12.82,4.93,12.37L6.83,11L6.1,8.77C5.88,8.02,6.08,7.74,6.85,7.74L9.18,7.74L9.9,5.52C10.15,4.77,10.5,4.67,11.13,5.12L13,6.49ZM12.93,11.99C12.38,11.99,12.15,12.19,12.08,12.69L11.48,16.74C11.31,17.81,11.68,18.24,12.81,18.24L13.2,18.24C14.33,18.24,14.7,17.81,14.53,16.74L13.93,12.69C13.86,12.18,13.63,11.99,13.08,11.99ZM11.63,9.23C11.63,10.08,12.15,10.61,13,10.61C13.85,10.61,14.37,10.08,14.37,9.23C14.37,8.39,13.85,7.86,13,7.86C12.15,7.86,11.63,8.39,11.63,9.23Z"/></svg>