<svg xmlns="http://www.w3.org/2000/svg" viewBox="0 0 24 24"><path d="M11,12.93C11,12.33,11.27,12,11.77,12L12.07,12C12.67,12,13,12.27,13,12.77L13,23.07C13,23.67,12.73,24,12.23,24L11.93,24C11.33,24,11,23.73,11,23.23Z" fill="currentColor"/><path d="M8.17,19.77L11.77,17.7L11.77,20L9.3,21.4C8.8,21.7,8.37,21.63,8.1,21.2L7.97,20.93C7.67,20.43,7.74,20,8.17,19.76Z" fill="currentColor"/><path d="M15.7,19.67C16.2,19.97,16.37,20.37,16.1,20.8L15.97,21.07C15.67,21.57,15.27,21.74,14.84,21.5L12.24,20L12.24,17.7Z" fill="currentColor"/><path d="M13.3,12.4C12.8,12.7,12.37,12.63,12.1,12.2L11.97,11.93C11.67,11.43,11.74,11,12.17,10.73L21.1,5.6C21.6,5.3,22.03,5.37,22.3,5.8L22.43,6.07C22.73,6.57,22.66,7,22.23,7.27Z" fill="currentColor"/><path d="M20.63,11.43L17.03,9.36L19.03,8.19L21.5,9.62C22,9.92,22.17,10.32,21.9,10.75L21.77,11.02C21.47,11.52,21.07,11.69,20.64,11.42Z" fill="currentColor"/><path d="M16.8,4.97C16.8,4.37,17.07,4.04,17.57,4.04L17.87,4.04C18.47,4.04,18.8,4.31,18.8,4.81L18.8,7.81L16.8,8.98Z" fill="currentColor"/><path d="M11.7,10.66C12.2,10.96,12.37,11.36,12.1,11.79L11.97,12.06C11.67,12.56,11.27,12.73,10.84,12.46L1.91,7.33C1.41,7.03,1.24,6.63,1.51,6.2L1.64,5.93C1.94,5.43,2.34,5.26,2.77,5.53Z" fill="currentColor"/><path d="M7.2,4.8L7.2,8.93L5.2,7.8L5.2,4.97C5.2,4.37,5.47,4.04,5.97,4.04L6.27,4.04C6.87,4.04,7.2,4.31,7.2,4.81Z" fill="currentColor"/><path d="M3.5,11.37C3,11.67,2.57,11.6,2.3,11.17L2.17,10.9C1.87,10.4,1.94,9.97,2.37,9.7L4.97,8.2L6.97,9.33Z" fill="currentColor"/><path d="M11.77,12C11.27,12,11,11.67,11,11.07L11,0.77C11,0.27,11.33,0,11.93,0L12.23,0C12.73,0,13,0.33,13,0.93L13,11.23C13,11.73,12.67,12,12.07,12Z" fill="currentColor"/><path d="M8.17,4.23C7.74,4,7.67,3.56,7.97,3.06L8.1,2.79C8.37,2.36,8.8,2.29,9.3,2.59L11.77,3.99L11.77,6.29Z" fill="currentColor"/><path d="M15.7,4.33L12.23,6.3L12.23,4L14.83,2.5C15.26,2.27,15.66,2.43,15.96,2.93L16.09,3.2C16.36,3.63,16.19,4.03,15.69,4.33Z" fill="currentColor"/><path d="M12.33,11.73C12.56,11.3,13,11.23,13.5,11.53L22.5,16.53C22.93,16.76,23,17.2,22.7,17.7L22.57,17.97C22.34,18.4,21.9,18.47,21.4,18.17L12.4,13.17C11.97,12.94,11.9,12.5,12.2,12Z" fill="currentColor"/><path d="M20.83,12.37C21.26,12.1,21.66,12.27,22,12.77L22.13,13C22.4,13.43,22.23,13.83,21.73,14.17L19.3,15.64L17.3,14.51Z" fill="currentColor"/><path d="M17.13,18.9L17.06,14.9L19.09,16.03L19.12,19.03C19.12,19.53,18.79,19.8,18.19,19.8L17.89,19.83C17.39,19.83,17.12,19.5,17.12,18.9Z" fill="currentColor"/><path d="M12.1,12.2C12.37,12.63,12.2,13.03,11.7,13.33L2.77,18.46C2.34,18.73,1.94,18.56,1.64,18.06L1.51,17.79C1.24,17.36,1.41,16.96,1.91,16.66L10.84,11.53C11.27,11.26,11.67,11.43,11.97,11.93Z" fill="currentColor"/><path d="M7.2,19.2C7.2,19.7,6.87,19.97,6.27,19.97L5.97,19.97C5.47,19.97,5.2,19.64,5.2,19.04L5.2,16.21L7.2,15.08Z" fill="currentColor"/><path d="M3.5,12.63L6.97,14.66L4.97,15.79L2.37,14.29C1.94,14.02,1.87,13.59,2.17,13.09L2.3,12.82C2.57,12.39,3,12.32,3.5,12.62Z" fill="currentColor"/></svg>