<svg xmlns="http://www.w3.org/2000/svg" viewBox="0 0 24 24" fill="currentColor"><path d="M13.08,21.25C11.59,21.25,10.23,20.82,9.16,20.07L18.01,11.21C18.72,12.19,19.26,13.45,19.26,15.37C19.26,18.87,16.46,21.24,13.08,21.24ZM21.55,5.52L17,10.08L11.66,15.42L11.26,15.81L8.04,19.04L5.57,21.5L5.55,21.52C5.23,21.84,4.88,21.84,4.55,21.52L4.48,21.45C4.16,21.12,4.16,20.77,4.48,20.45L7.23,17.7C6.93,17.01,6.76,16.22,6.76,15.37C6.76,13.4,7.61,12.2,8.71,10.97C8.61,12.92,9.18,14.22,9.93,15L11.09,13.84C8.34,5.43,14.51,3.99,14.51,3.99C13.96,6.6,14.8,7.86,15.92,9L20.48,4.44C20.8,4.12,21.15,4.12,21.47,4.44L21.55,4.52C21.87,4.84,21.87,5.19,21.55,5.52Z"/></svg>