<svg xmlns="http://www.w3.org/2000/svg" viewBox="0 0 24 24" fill="currentColor"><path d="M10.62,20.78C9.9,21.05,9.5,20.91,9.22,20.18L8.49,18.43C8.32,18,7.99,17.68,7.57,17.51L5.82,16.78C5.09,16.5,4.95,16.1,5.22,15.38L5.95,13.65C6.12,13.22,6.12,12.77,5.95,12.35L5.22,10.63C4.95,9.9,5.09,9.5,5.82,9.23L7.57,8.5C8,8.33,8.32,8,8.49,7.58L9.22,5.83C9.5,5.1,9.9,4.95,10.62,5.23L12.35,5.96C12.78,6.13,13.23,6.13,13.65,5.96L15.37,5.23C16.1,4.95,16.5,5.1,16.77,5.83L17.5,7.58C17.67,8,18,8.33,18.42,8.5L20.17,9.23C20.9,9.5,21.05,9.9,20.77,10.63L20.04,12.35C19.87,12.78,19.87,13.23,20.04,13.65L20.77,15.38C21.05,16.1,20.9,16.5,20.17,16.78L18.42,17.51C18,17.68,17.67,18.01,17.5,18.43L16.77,20.18C16.5,20.9,16.1,21.05,15.37,20.78L13.65,20.05C13.22,19.88,12.77,19.88,12.35,20.05ZM17.97,11.33C18.52,10.8,18.5,10.38,17.95,9.83L17.9,9.75C17.35,9.21,16.92,9.21,16.37,9.75L11.8,14.33L9.83,12.36C9.28,11.81,8.85,11.83,8.3,12.38L8.23,12.43C7.68,12.98,7.68,13.4,8.23,13.95L11.06,16.78C11.6,17.33,12.01,17.33,12.56,16.78Z"/></svg>