<svg xmlns="http://www.w3.org/2000/svg" viewBox="0 0 24 24" fill="currentColor"><path d="M13,15.89L16.65,18.49C16.92,18.69,16.92,18.69,16.86,18.38L15.79,13.88L19.05,11.37C19.17,11.28,19.17,11.28,19,11.27L14.67,10.77L13.08,6.57C13,6.38,13,6.38,12.93,6.57L11.3,10.77L6.99,11.28C6.84,11.29,6.84,11.29,6.98,11.4L10.18,13.88L9.14,18.39C9.07,18.68,9.07,18.68,9.36,18.48ZM10.23,19.7C8.25,21.07,7.15,20.37,7.68,18.05L8.5,14.47L6.05,12.57C4.32,11.2,4.65,10,6.82,9.78L10.22,9.38L11.52,6.03C12.32,3.98,13.67,4,14.46,6.03L15.74,9.38L19.17,9.78C21.44,10.05,21.77,11.25,19.94,12.57L17.46,14.47L18.31,18.05C18.84,20.47,17.76,21.17,15.76,19.7L12.99,17.73Z"/></svg>