<svg xmlns="http://www.w3.org/2000/svg" viewBox="0 0 24 24"><path d="M14.53,22.5C15.36,23.1,15.83,22.97,16.13,21.97L17.1,19L20.23,19C21.26,19,21.53,18.63,21.23,17.63L20.26,14.66L22.76,12.86C23.59,12.26,23.59,11.79,22.76,11.19L20.26,9.32L21.23,6.35C21.53,5.35,21.26,4.98,20.23,4.98L17.1,4.98L16.13,2.01C15.83,1.01,15.36,0.88,14.53,1.48L12,3.31L9.5,1.48C8.67,0.88,8.2,1.01,7.87,2.01L6.9,4.98L3.8,4.98C2.77,4.98,2.5,5.35,2.8,6.35L3.77,9.32L1.24,11.15C0.41,11.75,0.41,12.22,1.24,12.82L3.77,14.65L2.8,17.62C2.5,18.62,2.77,18.99,3.8,18.99L6.9,18.99L7.87,21.96C8.2,22.96,8.67,23.09,9.5,22.49L12,20.66Z" fill="currentColor"/><path d="M12.1,13.33L11.9,13.33C11.17,13.33,10.87,13.06,10.77,12.4L9.97,7C9.74,5.57,10.24,5,11.74,5L12.27,5C13.77,5,14.27,5.57,14.04,7L13.24,12.4C13.14,13.07,12.84,13.33,12.11,13.33Z" fill="currentColor"/><path d="M10.17,17C10.17,15.87,10.87,15.17,12,15.17C13.13,15.17,13.83,15.87,13.83,17C13.83,18.13,13.13,18.83,12,18.83C10.87,18.83,10.17,18.13,10.17,17Z" fill="currentColor"/></svg>