<svg xmlns="http://www.w3.org/2000/svg" viewBox="0 0 24 24" fill="currentColor"><path d="M11.5,16.73L11.5,20.5L8.43,20.5C6.05,20.5,4,18.83,4,16.23C4,13.85,5.97,12.38,7.7,12.18C6.37,7.88,9.37,5.37,12.35,5.37C15.17,5.37,16.91,7.52,17.19,9.73C14.6,9.86,13,11.58,13,14.27L13,14.52C11.9,14.69,11.5,15.32,11.5,16.72ZM20.93,22L14.05,22C13.32,22,13.02,21.7,13.02,20.93L13.02,17.03C13.02,16.3,13.32,16,14.09,16L14.49,16L14.49,14.3C14.49,12.42,15.64,11.25,17.49,11.25C19.34,11.25,20.49,12.42,20.49,14.3L20.49,16L20.96,16C21.69,16,21.99,16.3,21.99,17.07L21.99,20.97C21.99,21.7,21.69,22,20.92,22ZM17.5,18.87C17,18.87,16.62,19.25,16.62,19.75C16.62,20.25,17,20.63,17.5,20.63C18,20.63,18.38,20.25,18.38,19.75C18.38,19.25,18,18.87,17.5,18.87ZM16,16L19,16L19,14.3C19,13.35,18.42,12.75,17.5,12.75C16.58,12.75,16,13.35,16,14.3Z"/></svg>