<svg xmlns="http://www.w3.org/2000/svg" viewBox="0 0 24 24" fill="currentColor"><path d="M9.57,19.65L17.74,11.48C18.29,12.65,18.63,13.81,18.63,15.12C18.63,18.52,16.1,20.75,13.08,20.75C11.75,20.75,10.53,20.36,9.57,19.65ZM21.55,5.52L16.99,10.08L8.48,18.59L5.58,21.5L5.55,21.52C5.23,21.84,4.88,21.84,4.55,21.52L4.48,21.45C4.16,21.12,4.16,20.77,4.48,20.45L7.73,17.2C7.5,16.58,7.38,15.88,7.38,15.12C7.38,11.82,9.48,9.48,12.05,5.52C12.85,4.25,13.15,4.25,13.98,5.52C14.76,6.73,15.5,7.79,16.15,8.77L20.47,4.45C20.79,4.13,21.14,4.13,21.47,4.45L21.54,4.53C21.86,4.84,21.87,5.19,21.57,5.5C21.56,5.51,21.55,5.52,21.54,5.52Z"/></svg>