<svg xmlns="http://www.w3.org/2000/svg" viewBox="0 0 24 24"><path d="M7.42,20.87L18.32,9.97C19.06,11.53,19.5,13.08,19.5,14.83C19.5,19.36,16.13,22.33,12.1,22.33C10.33,22.33,8.71,21.81,7.42,20.87Z" fill="currentColor"/><path d="M23.4,2.03L17.32,8.11L5.98,19.45L2.1,23.33L2.07,23.36C1.64,23.79,1.17,23.79,0.74,23.36L0.64,23.26C0.21,22.83,0.21,22.36,0.64,21.93L4.97,17.6C4.67,16.77,4.5,15.84,4.5,14.83C4.5,10.43,7.3,7.3,10.73,2.03C11.8,0.33,12.2,0.33,13.3,2.03C14.35,3.64,15.34,5.05,16.2,6.36L21.96,0.6C22.39,0.17,22.86,0.17,23.29,0.6L23.39,0.7C23.81,1.12,23.82,1.58,23.42,2C23.41,2.01,23.4,2.02,23.39,2.03Z" fill="currentColor"/></svg>