<svg xmlns="http://www.w3.org/2000/svg" viewBox="0 0 24 24" fill="currentColor"><path d="M13.02,21.25C9.55,21.25,6.72,18.95,6.72,15.17C6.72,8.95,14.47,4,14.47,4C13.25,9.83,19.22,9.27,19.22,15.08C19.22,19.03,16.42,21.25,13.02,21.25ZM15.48,18.1C16.15,18.1,16.38,17.88,16.38,17.2L16.38,12.25C16.38,11.58,16.15,11.35,15.48,11.35L14.58,11.35C13.9,11.35,13.68,11.58,13.68,12.25L13.68,17.2C13.68,17.88,13.9,18.1,14.58,18.1ZM11.43,18.1C12.1,18.1,12.32,17.88,12.32,17.2L12.32,12.25C12.32,11.58,12.1,11.35,11.43,11.35L10.53,11.35C9.85,11.35,9.63,11.58,9.63,12.25L9.63,17.2C9.63,17.88,9.85,18.1,10.53,18.1Z"/></svg>