<svg xmlns="http://www.w3.org/2000/svg" viewBox="0 0 24 24"><path d="M12.03,10.5C10.06,10.5,8.46,9.1,8.46,6.97C8.46,4.9,9.76,3.44,11.39,0.97C11.89,0.17,12.09,0.17,12.59,0.97C14.22,3.44,15.52,4.9,15.52,6.97C15.52,9.1,13.92,10.5,12.02,10.5Z" fill="currentColor"/><path d="M6.03,22.17C4.06,22.17,2.46,20.77,2.46,18.64C2.46,16.57,3.76,15.11,5.39,12.64C5.89,11.84,6.09,11.84,6.59,12.64C8.22,15.11,9.52,16.57,9.52,18.64C9.52,20.77,7.92,22.17,6.02,22.17Z" fill="currentColor"/><path d="M18,22.17C16.1,22.17,14.5,20.77,14.5,18.64C14.5,16.57,15.8,15.11,17.43,12.64C17.93,11.84,18.13,11.84,18.63,12.64C20.26,15.11,21.56,16.57,21.56,18.64C21.56,20.77,19.96,22.17,17.99,22.17Z" fill="currentColor"/></svg>