<svg xmlns="http://www.w3.org/2000/svg" viewBox="0 0 24 24" fill="currentColor"><path d="M11.13,20.88C10.5,21.33,10.15,21.23,9.9,20.48L9.62,19.61L19.67,9.55L19.2,11L21.08,12.4C21.7,12.85,21.7,13.2,21.08,13.65L19.2,15L19.93,17.23C20.16,17.98,19.95,18.26,19.18,18.26L16.83,18.26L16.11,20.48C15.88,21.23,15.53,21.33,14.9,20.88L13.01,19.51ZM21.55,5.52L19.32,7.75L8.82,18.25L5.57,21.5L5.55,21.52C5.23,21.84,4.88,21.84,4.55,21.52L4.48,21.45C4.16,21.12,4.16,20.77,4.48,20.45L6.69,18.24C6.05,18.2,5.9,17.91,6.11,17.22L6.83,15L4.94,13.62C4.31,13.17,4.31,12.82,4.94,12.37L6.83,11L6.11,8.77C5.88,8.02,6.08,7.74,6.86,7.74L9.18,7.74L9.91,5.51C10.16,4.76,10.51,4.67,11.13,5.12L13.01,6.49L14.91,5.12C15.53,4.67,15.88,4.76,16.11,5.51L16.83,7.74L17.19,7.74L20.49,4.44C20.81,4.12,21.16,4.12,21.48,4.44L21.56,4.52C21.87,4.83,21.88,5.18,21.58,5.49C21.57,5.5,21.57,5.51,21.56,5.51Z"/></svg>