<svg xmlns="http://www.w3.org/2000/svg" viewBox="0 0 24 24"><path d="M10,16.97L10,22L5.9,22C2.73,22,0,19.77,0,16.3C0,13.13,2.63,11.17,4.93,10.9C3.16,5.17,7.16,1.83,11.13,1.83C14.89,1.83,17.22,4.69,17.59,7.64C14.13,7.81,12,10.1,12,13.7L12,14.03C10.53,14.26,10,15.1,10,16.96Z" fill="currentColor"/><path d="M22.57,24L13.4,24C12.43,24,12.03,23.6,12.03,22.57L12.03,17.37C12.03,16.4,12.43,16,13.46,16L13.99,16L13.99,13.73C13.99,11.23,15.52,9.66,17.99,9.66C20.46,9.66,21.99,11.23,21.99,13.73L21.99,16L22.62,16C23.59,16,23.99,16.4,23.99,17.43L23.99,22.63C23.99,23.6,23.59,24,22.56,24Z" fill="currentColor"/><path d="M19.17,21C19.17,20.33,18.67,19.83,18,19.83C17.33,19.83,16.83,20.33,16.83,21C16.83,21.67,17.33,22.17,18,22.17C18.67,22.17,19.17,21.67,19.17,21Z" fill="currentColor"/><path d="M16,16L20,16L20,13.73C20,12.46,19.23,11.66,18,11.66C16.77,11.66,16,12.46,16,13.73Z" fill="currentColor"/></svg>