<svg xmlns="http://www.w3.org/2000/svg" viewBox="0 0 24 24" fill="currentColor"><path d="M13.02,11.88C11.54,11.88,10.35,10.82,10.35,9.23C10.35,7.68,11.32,6.58,12.54,4.73C12.92,4.13,13.07,4.13,13.44,4.73C14.66,6.58,15.64,7.68,15.64,9.23C15.64,10.83,14.44,11.88,13.02,11.88ZM8.52,20.63C7.04,20.63,5.84,19.58,5.84,17.98C5.84,16.43,6.82,15.33,8.04,13.48C8.42,12.88,8.57,12.88,8.94,13.48C10.16,15.33,11.14,16.43,11.14,17.98C11.14,19.58,9.94,20.63,8.51,20.63ZM17.5,20.63C16.08,20.63,14.88,19.58,14.88,17.98C14.88,16.43,15.85,15.33,17.07,13.48C17.45,12.88,17.6,12.88,17.97,13.48C19.2,15.33,20.17,16.43,20.17,17.98C20.17,19.58,18.97,20.63,17.49,20.63Z"/></svg>