<svg xmlns="http://www.w3.org/2000/svg" viewBox="0 0 24 24" fill="currentColor"><path d="M12.25,13.7C12.25,13.25,12.45,13,12.83,13L13.05,13C13.5,13,13.75,13.2,13.75,13.58L13.75,21.3C13.75,21.75,13.55,22,13.17,22L12.95,22C12.5,22,12.25,21.8,12.25,21.42ZM10.13,18.83L12.83,17.27L12.83,19L10.97,20.05C10.6,20.27,10.28,20.22,10.07,19.9L9.98,19.7C9.75,19.32,9.8,19,10.13,18.82ZM15.77,18.75C16.15,18.98,16.28,19.28,16.07,19.6L15.98,19.8C15.75,20.18,15.45,20.3,15.13,20.13L13.18,19L13.18,17.27ZM13.98,13.3C13.6,13.52,13.28,13.47,13.08,13.15L12.98,12.95C12.75,12.57,12.8,12.25,13.13,12.05L19.83,8.2C20.2,7.98,20.52,8.03,20.73,8.35L20.82,8.55C21.05,8.93,21,9.25,20.67,9.45ZM19.47,12.57L16.77,11.02L18.27,10.14L20.12,11.21C20.5,11.44,20.63,11.74,20.42,12.06L20.33,12.27C20.1,12.64,19.8,12.77,19.48,12.56ZM16.6,7.73C16.6,7.28,16.8,7.03,17.18,7.03L17.4,7.03C17.85,7.03,18.1,7.23,18.1,7.61L18.1,9.86L16.6,10.73ZM12.77,12C13.15,12.22,13.28,12.52,13.07,12.84L12.98,13.04C12.75,13.42,12.45,13.55,12.13,13.34L5.43,9.5C5.06,9.27,4.93,8.97,5.13,8.65L5.23,8.45C5.45,8.07,5.75,7.95,6.08,8.15ZM9.4,7.6L9.4,10.7L7.9,9.85L7.9,7.73C7.9,7.28,8.1,7.03,8.48,7.03L8.7,7.03C9.15,7.03,9.4,7.23,9.4,7.61ZM6.63,12.53C6.25,12.75,5.93,12.7,5.72,12.38L5.63,12.18C5.4,11.8,5.46,11.48,5.78,11.28L7.73,10.15L9.23,11ZM12.83,13C12.45,13,12.25,12.75,12.25,12.3L12.25,4.58C12.25,4.2,12.5,4,12.95,4L13.17,4C13.55,4,13.75,4.25,13.75,4.7L13.75,12.42C13.75,12.8,13.5,13,13.05,13ZM10.13,7.17C9.8,7,9.75,6.67,9.98,6.29L10.08,6.09C10.28,5.77,10.6,5.72,10.98,5.94L12.83,6.99L12.83,8.72ZM15.77,7.25L13.17,8.73L13.17,7L15.12,5.88C15.45,5.7,15.75,5.82,15.97,6.2L16.07,6.4C16.27,6.72,16.14,7.02,15.77,7.25ZM13.25,12.8C13.42,12.48,13.75,12.42,14.13,12.65L20.88,16.4C21.2,16.57,21.25,16.9,21.02,17.28L20.93,17.48C20.75,17.8,20.42,17.85,20.05,17.63L13.3,13.88C12.98,13.71,12.92,13.38,13.15,13ZM19.62,13.28C19.95,13.08,20.24,13.2,20.5,13.58L20.6,13.75C20.8,14.07,20.67,14.37,20.3,14.63L18.48,15.73L16.98,14.88ZM16.85,18.17L16.79,15.17L18.32,16.02L18.34,18.27C18.34,18.65,18.09,18.85,17.64,18.85L17.42,18.87C17.04,18.87,16.84,18.63,16.84,18.17ZM13.08,13.15C13.28,13.47,13.15,13.77,12.78,14L6.08,17.84C5.76,18.05,5.46,17.92,5.23,17.54L5.13,17.34C4.93,17.02,5.06,16.72,5.43,16.5L12.13,12.65C12.45,12.45,12.75,12.57,12.98,12.95ZM9.4,18.4C9.4,18.77,9.15,18.98,8.7,18.98L8.48,18.98C8.1,18.98,7.9,18.73,7.9,18.28L7.9,16.16L9.4,15.31ZM6.63,13.47L9.23,15L7.73,15.84L5.78,14.72C5.46,14.52,5.4,14.19,5.63,13.82L5.73,13.62C5.93,13.29,6.25,13.24,6.63,13.46Z"/></svg>