<svg xmlns="http://www.w3.org/2000/svg" viewBox="0 0 24 24" fill="currentColor"><path d="M8.73,20.5L18.52,10.71C20.69,11.22,22,13.2,22,15.53C22,18.3,19.73,20.5,16.55,20.5ZM21.55,5.52L17.21,9.87L6.83,20.24L5.57,21.5L5.55,21.52C5.23,21.84,4.88,21.84,4.55,21.52L4.48,21.45C4.16,21.12,4.16,20.77,4.48,20.45L5.47,19.46C4.58,18.71,4.01,17.6,4.01,16.22C4.01,13.84,5.98,12.37,7.71,12.17C6.38,7.87,9.38,5.36,12.36,5.36C14.49,5.36,16.02,6.6,16.75,8.17L20.48,4.44C20.8,4.12,21.15,4.12,21.47,4.44L21.55,4.52C21.87,4.83,21.87,5.18,21.57,5.49C21.56,5.5,21.56,5.51,21.55,5.51Z"/></svg>