<svg xmlns="http://www.w3.org/2000/svg" viewBox="0 0 24 24"><path d="M1.5,12C1.5,6.2,6.2,1.5,12,1.5C17.8,1.5,22.5,6.2,22.5,12C22.5,17.8,17.8,22.5,12,22.5C6.2,22.5,1.5,17.8,1.5,12Z" fill="currentColor"/><path d="M18,9.33C18,8.26,17.1,7.33,16.03,7.33C14.93,7.33,14,8.26,14,9.33C14,10.43,14.93,11.33,16.03,11.33C17.1,11.33,18,10.43,18,9.33Z" fill="currentColor"/><path d="M15.83,14.2C15.83,15.35,15.44,16,14.46,16C13.57,16,12.89,14.3,11.99,14.3C11.09,14.3,10.42,16,9.52,16C8.55,16,8.15,15.35,8.15,14.2L6.15,14.2C6.15,15.91,7.42,18,9.52,18C10.85,18,11.82,16.82,11.99,16.42C12.16,16.81,13.12,17.99,14.46,18C16.55,18,17.83,15.91,17.83,14.2Z" fill="currentColor"/><path d="M10,9.36C10,8.26,9.07,7.33,8,7.33C6.9,7.33,6,8.26,6,9.36C6,10.43,6.9,11.33,8,11.33C9.07,11.33,10,10.43,10,9.36Z" fill="currentColor"/></svg>