<svg xmlns="http://www.w3.org/2000/svg" viewBox="0 0 24 24" fill="currentColor"><path d="M5.13,13C5.13,8.65,8.65,5.13,13,5.13C17.35,5.13,20.88,8.65,20.88,13C20.88,17.35,17.35,20.88,13,20.88C8.65,20.88,5.13,17.35,5.13,13ZM17.5,11C17.5,10.2,16.83,9.5,16.02,9.5C15.2,9.5,14.5,10.2,14.5,11C14.5,11.82,15.2,12.5,16.02,12.5C16.83,12.5,17.5,11.82,17.5,11ZM15.87,14.65C15.87,15.51,15.58,16,14.84,16C14.18,16,13.67,14.73,12.99,14.73C12.32,14.73,11.81,16,11.14,16C10.41,16,10.11,15.51,10.11,14.65L8.61,14.65C8.61,15.93,9.56,17.5,11.14,17.5C12.14,17.5,12.86,16.62,12.99,16.32C13.11,16.61,13.84,17.49,14.84,17.5C16.41,17.5,17.37,15.93,17.37,14.65ZM11.5,11.02C11.5,10.2,10.8,9.5,10,9.5C9.18,9.5,8.5,10.2,8.5,11.02C8.5,11.82,9.18,12.5,10,12.5C10.8,12.5,11.5,11.82,11.5,11.02Z"/></svg>