<svg xmlns="http://www.w3.org/2000/svg" viewBox="0 0 24 24"><path d="M1.5,12C1.5,6.2,6.2,1.5,12,1.5C17.8,1.5,22.5,6.2,22.5,12C22.5,17.8,17.8,22.5,12,22.5C6.2,22.5,1.5,17.8,1.5,12Z" fill="currentColor"/><path d="M6.47,16.32L7.94,17.68C8.68,16.88,10.01,15.87,12.01,15.87C14.01,15.87,15.33,16.88,16.08,17.68L17.55,16.32C16.69,15.39,14.69,13.86,12.02,13.86C9.35,13.86,7.34,15.38,6.49,16.32Z" fill="currentColor"/><path d="M17.6,13.03L18.81,11.44L16.81,9.92L19.13,8.09L17.89,6.52L13.54,9.95Z" fill="currentColor"/><path d="M5.2,11.44L6.41,13.03L10.47,9.95L6.12,6.52L4.88,8.09L7.2,9.92Z" fill="currentColor"/></svg>