<svg xmlns="http://www.w3.org/2000/svg" viewBox="0 0 24 24"><path d="M1.5,12C1.5,6.2,6.2,1.5,12,1.5C17.8,1.5,22.5,6.2,22.5,12C22.5,17.8,17.8,22.5,12,22.5C6.2,22.5,1.5,17.8,1.5,12Z" fill="currentColor"/><path d="M14.6,17.3L14.52,15.75C15.68,15.55,16.7,15.22,17.34,14.81L16.26,13.13C15.48,13.63,13.89,13.97,12,13.97C10.11,13.97,8.52,13.63,7.74,13.13L6.66,14.81C7.34,15.25,8.44,15.59,9.68,15.79L9.6,17.3C9.5,19.5,11.13,20.2,12.1,20.2C13.07,20.2,14.7,19.5,14.6,17.3Z" fill="currentColor"/><path d="M10,9.36C10,8.26,9.07,7.33,8,7.33C6.9,7.33,6,8.26,6,9.36C6,10.43,6.9,11.33,8,11.33C9.07,11.33,10,10.43,10,9.36Z" fill="currentColor"/><path d="M19,11L19,9L14.07,9L14.07,11Z" fill="currentColor"/></svg>