<svg xmlns="http://www.w3.org/2000/svg" viewBox="0 0 24 24"><path d="M12,22.5C9.83,22.5,7.73,21.83,5.93,20.57C4.2,20.5,2.73,19,2.86,17.17C1.93,15.64,1.49,13.67,1.49,11.94C1.49,6.27,6.12,1.51,11.99,1.51C17.89,1.51,22.49,6.31,22.49,11.98C22.49,17.95,17.66,22.51,11.99,22.51Z" fill="currentColor"/><path d="M3.53,11.63C3.66,11.63,3.76,11.5,3.76,11.36C3.73,10.89,4.09,10.49,4.56,10.46C5.06,10.43,5.46,10.76,5.49,11.26C5.52,11.39,5.62,11.49,5.76,11.46C5.89,11.46,5.99,11.36,5.96,11.23C5.93,10.5,5.26,9.93,4.53,9.96C4.2,9.99,3.83,10.13,3.6,10.43C3.4,10.7,3.27,11.06,3.3,11.4C3.3,11.53,3.4,11.63,3.53,11.63Z" fill="currentColor"/><path d="M3.87,15.83C3.87,17.3,4.4,18.5,5.37,19C6.97,20.03,9.74,20.17,11.57,20.17C15.97,20.17,19.87,16.3,19.87,11.1L19.87,11.07C19.87,10.84,19.77,10.67,19.6,10.6L19.53,10.53C19.43,10.5,19.36,10.46,19.23,10.46C19.06,10.46,18.9,10.53,18.83,10.66C18.66,10.93,18.43,11.19,18.23,11.43C18.2,11.46,18.16,11.5,18.16,11.53C18.13,11.53,18.13,11.56,18.13,11.56C18.1,11.56,18.1,11.59,18.06,11.59C17.53,12.16,16.89,12.66,16.16,13.09C16.13,13.09,16.13,13.12,16.09,13.16C16.06,13.16,16.02,13.16,15.99,13.19C15.36,13.49,14.62,13.79,13.89,13.96L13.86,13.96C13.83,13.96,13.83,13.99,13.83,13.99L13.7,13.99C13.07,14.12,12.37,14.22,11.6,14.26C10.1,14.33,8.6,14.19,7.27,13.49C7.24,13.49,7.24,13.46,7.1,13.42C6.83,13.25,6.5,13.02,6.23,12.82C5.8,12.52,5.4,12.12,5,11.69C4.9,11.56,4.77,11.49,4.6,11.49C4.33,11.49,4.13,11.76,4.1,12.02C4.1,12.69,4.03,13.35,4,13.99C3.93,14.62,3.87,15.26,3.87,15.82Z" fill="currentColor"/><path d="M4.33,15.83C4.33,15.26,4.4,14.66,4.46,14.03C4.49,13.4,4.56,12.73,4.56,12.03C4.56,12.03,4.56,12,4.59,12L4.59,13.03C4.59,13.46,4.82,13.9,5.16,14.16C5.43,14.33,5.69,14.43,5.99,14.43C6.36,14.43,6.66,14.33,6.92,14.1L6.92,14.37C6.92,14.94,7.25,15.44,7.79,15.6C7.92,15.67,8.09,15.7,8.26,15.7C8.59,15.7,8.93,15.57,9.16,15.33C9.33,15.73,9.73,16.06,10.26,16.1L10.66,16.1C11.13,16.1,11.53,15.8,11.76,15.43C11.96,15.66,12.29,15.83,12.69,15.83C12.79,15.83,12.89,15.83,12.99,15.8L13.06,15.8C13.56,15.67,13.96,15.2,14.03,14.63C14.26,14.83,14.6,14.96,14.93,14.96C15.16,14.96,15.36,14.89,15.56,14.79L15.59,14.79C16.02,14.59,16.29,14.16,16.32,13.69C16.35,13.69,16.35,13.66,16.39,13.66C16.56,13.73,16.72,13.79,16.89,13.79C17.09,13.79,17.32,13.69,17.49,13.56C17.69,13.43,17.89,13.26,18.12,13.09C18.32,12.89,18.45,12.59,18.45,12.29L18.45,12.12C18.55,12.15,18.68,12.15,18.78,12.15C18.98,12.15,19.15,12.08,19.35,11.95C19.22,13.12,18.92,14.15,18.45,15.12C18.22,14.92,17.95,14.82,17.62,14.82C17.35,14.82,17.09,14.89,16.89,15.05C16.82,15.08,16.76,15.18,16.69,15.22C16.36,15.45,16.19,15.89,16.22,16.25L16.22,16.52C15.99,16.35,15.69,16.25,15.42,16.25C15.19,16.25,14.95,16.32,14.79,16.38L14.76,16.41C14.36,16.61,14.09,16.98,14.03,17.41C13.8,17.21,13.5,17.11,13.23,17.11C13.13,17.11,12.96,17.11,12.86,17.14C12.49,17.27,12.19,17.51,12.03,17.81C11.83,17.58,11.46,17.41,11.1,17.44C11,17.44,10.83,17.44,10.73,17.47C10.43,17.47,10.1,17.6,9.9,17.84C9.87,17.84,9.87,17.87,9.87,17.87C9.67,17.6,9.37,17.37,9.04,17.3L9.01,17.3C8.94,17.27,8.84,17.27,8.78,17.27C8.45,17.27,8.11,17.4,7.85,17.64C7.78,17.21,7.48,16.84,7.08,16.67L7.05,16.67C6.88,16.57,6.65,16.5,6.45,16.5C6.08,16.5,5.68,16.67,5.45,16.93C5.18,17.2,5.05,17.6,5.08,18L5.08,18.1C4.51,17.5,4.35,16.7,4.35,15.8Z" fill="currentColor"/><path d="M5.1,12.53L5.9,13.23C6.17,13.4,6.4,13.56,6.63,13.7C6.46,13.9,6.26,13.97,6,13.97C5.8,13.97,5.63,13.9,5.47,13.8L5.47,13.73C5.2,13.6,5.1,13.33,5.1,13.03Z" fill="currentColor"/><path d="M5.1,8.1C5.1,8.43,5.27,8.77,5.57,9.03C5.77,9.16,6,9.26,6.3,9.26L6.4,9.26C6.7,9.23,7.03,9.09,7.2,8.79C7.5,8.49,7.9,8.29,8.33,8.29C8.66,8.29,9,8.39,9.23,8.59C9.43,8.76,9.73,8.89,9.96,8.89C10.36,8.89,10.66,8.69,10.89,8.42C11.09,8.19,11.19,7.85,11.16,7.55C11.13,7.22,10.99,6.95,10.73,6.72C10.66,6.69,10.63,6.69,10.6,6.65C9.97,6.18,9.23,5.92,8.33,5.88C7.16,5.88,6.1,6.41,5.36,7.31C5.19,7.54,5.09,7.81,5.09,8.08Z" fill="currentColor"/><path d="M5.6,18.53L5.53,18C5.53,17.73,5.6,17.5,5.76,17.33C5.93,17.13,6.19,17.03,6.43,17.03C6.56,17.03,6.7,17.03,6.83,17.1L6.86,17.13C7.16,17.3,7.33,17.56,7.36,17.86L7.39,18.69L7.46,19.22C6.66,19.05,6.06,18.85,5.59,18.52Z" fill="currentColor"/><path d="M5.6,8.07C5.6,7.94,5.63,7.77,5.73,7.67C6.36,6.87,7.3,6.4,8.33,6.4L8.4,6.4C8.37,6.5,8.37,6.57,8.4,6.67C8.47,7.24,8.97,7.67,9.57,7.6C9.9,7.57,10.17,7.37,10.37,7.1C10.4,7.1,10.4,7.13,10.44,7.13C10.57,7.26,10.67,7.4,10.67,7.63L10.67,7.73C10.67,7.86,10.6,8,10.54,8.1C10.41,8.3,10.17,8.4,9.97,8.4C9.84,8.4,9.67,8.33,9.57,8.23C9.2,7.96,8.77,7.8,8.34,7.8C7.77,7.8,7.21,8.07,6.84,8.53C6.71,8.66,6.54,8.76,6.37,8.76C6.34,8.79,6.3,8.79,6.27,8.79C6.14,8.79,5.97,8.72,5.84,8.62C5.67,8.49,5.61,8.29,5.61,8.05Z" fill="currentColor"/><path d="M7.4,14.37L7.4,14.1C7.93,14.33,8.47,14.5,9.03,14.6L9.03,14.7C8.9,14.97,8.6,15.23,8.26,15.23C8.16,15.23,8.06,15.2,7.96,15.13L7.93,15.13C7.63,15.03,7.4,14.73,7.4,14.36Z" fill="currentColor"/><path d="M7.97,19.3L7.9,18.63C7.9,18.43,7.97,18.23,8.1,18.06C8.33,17.83,8.6,17.73,8.9,17.79L8.93,17.79C9.26,17.86,9.56,18.19,9.56,18.52L9.59,18.95L9.62,19.48C9.02,19.45,8.45,19.41,7.95,19.28Z" fill="currentColor"/><path d="M9.57,14.7C10.14,14.77,10.74,14.8,11.4,14.77L11.4,14.87C11.37,15.3,11.07,15.6,10.67,15.6L10.27,15.6C9.87,15.6,9.57,15.27,9.57,14.87Z" fill="currentColor"/><path d="M9.9,12.73C9.9,12.9,9.93,13.03,10,13.2C10.2,13.53,10.57,13.73,10.97,13.73C11.14,13.73,11.3,13.7,11.44,13.63L11.61,13.63L12.11,13.66L12.44,13.66C12.97,13.66,13.44,13.23,13.44,12.69L13.37,11.99C13.34,11.86,13.24,11.76,13.1,11.79L13,11.79C12.93,11.82,12.87,11.92,12.87,12.06C12.94,12.53,12.94,12.66,12.94,12.69C12.94,12.96,12.71,13.19,12.44,13.19L12.14,13.19C11.91,13.16,11.74,13.16,11.57,13.16C11.44,13.16,11.34,13.16,11.24,13.23C11.14,13.26,11.07,13.3,10.97,13.3C10.74,13.3,10.57,13.17,10.47,12.97C10.4,12.84,10.37,12.7,10.44,12.54C10.47,12.41,10.57,12.27,10.71,12.21C11.34,11.91,11.48,11.31,11.48,10.81C11.48,10.48,11.41,10.18,11.38,10.11L11.38,9.98C11.38,9.71,11.51,9.48,11.78,9.38L11.98,9.38C12.01,9.38,12.05,9.38,12.05,9.35C12.15,9.32,12.22,9.25,12.22,9.15C12.22,9.02,12.12,8.92,11.99,8.92C11.89,8.92,11.76,8.92,11.62,8.95C11.19,9.08,10.89,9.48,10.89,9.92C10.89,10.02,10.89,10.12,10.92,10.22C10.95,10.29,11.02,10.52,11.02,10.82C11.02,11.15,10.92,11.59,10.49,11.82C10.22,11.92,10.06,12.15,9.99,12.42C9.96,12.52,9.92,12.65,9.92,12.75Z" fill="currentColor"/><path d="M10.1,19.53L10.07,18.86L10.07,18.63C10.07,18.46,10.14,18.3,10.27,18.2C10.4,18.07,10.57,18,10.77,17.93L11.2,17.93C11.53,17.93,11.87,18.23,11.9,18.6L11.97,19.53C11.8,19.56,11.6,19.56,11.44,19.56C11.01,19.56,10.54,19.56,10.11,19.53Z" fill="currentColor"/><path d="M13.53,14.54L13.53,14.67C13.46,14.97,13.23,15.27,12.9,15.34C12.83,15.37,12.77,15.37,12.7,15.37C12.37,15.37,12.07,15.14,11.93,14.87C11.93,14.84,11.93,14.8,11.9,14.77C12.47,14.7,13,14.64,13.53,14.54Z" fill="currentColor"/><path d="M12.37,18.43C12.37,18.06,12.64,17.76,12.97,17.66L13,17.66C13.1,17.63,13.17,17.63,13.23,17.63C13.63,17.63,14,17.93,14.03,18.4L14.06,18.7L14.06,19.07C13.53,19.27,12.99,19.44,12.46,19.5L12.39,18.57L12.39,18.5C12.36,18.5,12.36,18.47,12.36,18.43Z" fill="currentColor"/><path d="M13.13,7.43C13.13,7.76,13.23,8.03,13.43,8.3C13.63,8.53,14,8.7,14.3,8.7C14.63,8.7,14.87,8.6,15.1,8.4C15.37,8.13,15.7,8.03,16.07,8.03C16.47,8.03,16.87,8.23,17.14,8.53C17.37,8.73,17.64,8.9,17.97,8.93L18.04,8.93C18.31,8.93,18.57,8.8,18.84,8.63C19.04,8.43,19.17,8.1,19.21,7.8L19.21,7.67C19.21,7.4,19.11,7.17,18.94,6.97C18.77,6.8,18.57,6.6,18.41,6.47C17.81,6,17.11,5.74,16.08,5.67C15.11,5.67,14.25,6,13.55,6.6C13.32,6.83,13.18,7.13,13.15,7.43Z" fill="currentColor"/><path d="M13.6,7.5C13.63,7.27,13.73,7.13,13.9,6.97C14.5,6.47,15.27,6.17,16.07,6.17L16.2,6.17C16.17,6.27,16.17,6.34,16.17,6.44C16.14,7.04,16.57,7.54,17.14,7.57C17.61,7.6,18.04,7.3,18.21,6.94C18.31,7.04,18.44,7.14,18.54,7.27C18.71,7.4,18.74,7.6,18.74,7.77C18.74,7.97,18.61,8.14,18.47,8.27C18.37,8.37,18.2,8.44,18.04,8.44L18.01,8.44C17.81,8.44,17.64,8.34,17.51,8.21C17.14,7.81,16.64,7.58,16.08,7.58C15.58,7.58,15.18,7.75,14.78,8.05C14.68,8.15,14.51,8.25,14.31,8.25C14.14,8.25,13.94,8.12,13.81,7.98C13.68,7.85,13.61,7.68,13.61,7.51Z" fill="currentColor"/><path d="M15.8,13.8C15.8,13.87,15.77,13.93,15.73,14C15.66,14.13,15.53,14.27,15.4,14.37L15.37,14.37C15.24,14.44,15.07,14.5,14.94,14.5C14.81,14.5,14.71,14.43,14.57,14.4C14.54,14.37,14.47,14.33,14.4,14.3C14.9,14.17,15.4,14,15.8,13.8Z" fill="currentColor"/><path d="M14.47,17.67C14.47,17.34,14.67,17.04,14.97,16.87L15,16.87C15.17,16.8,15.27,16.77,15.43,16.77C15.8,16.77,16.26,17.07,16.3,17.6L16.3,17.7C15.77,18.17,15.2,18.53,14.57,18.87L14.54,18.4L14.54,18.37L14.51,17.74C14.48,17.71,14.48,17.71,14.48,17.67Z" fill="currentColor"/><path d="M16.77,17.23L16.7,16.23C16.7,16,16.8,15.76,17,15.6L17.2,15.47C17.33,15.37,17.5,15.34,17.63,15.34C17.8,15.34,18,15.37,18.1,15.47C17.73,16.14,17.3,16.74,16.77,17.24Z" fill="currentColor"/><path d="M18,12.4C18,12.53,17.9,12.63,17.8,12.73C17.6,12.86,17.43,13.03,17.2,13.2L17.17,13.23L17.14,13.23C17.04,13.3,16.91,13.33,16.77,13.3C17.2,13,17.64,12.7,18,12.4Z" fill="currentColor"/><path d="M18.1,10.9C18.23,10.9,18.33,10.77,18.33,10.67L18.33,10.57C18.33,10.37,18.4,10.2,18.53,10.04C18.7,9.87,18.9,9.77,19.13,9.74C19.6,9.71,20,10.04,20.06,10.54C20.09,10.67,20.19,10.77,20.33,10.77C20.46,10.74,20.53,10.64,20.53,10.5C20.5,9.77,19.83,9.2,19.1,9.23C18.33,9.3,17.77,9.93,17.83,10.7C17.83,10.8,17.96,10.9,18.1,10.9Z" fill="currentColor"/><path d="M18.8,11.73L18.67,11.7C18.84,11.5,18.97,11.3,19.1,11.13C19.1,11.23,19.07,11.33,19.07,11.43L19.07,11.46C19.04,11.49,19.04,11.56,19,11.59L19.17,11.76L18.97,11.59C18.97,11.62,18.94,11.62,18.9,11.69C18.87,11.69,18.83,11.72,18.8,11.72Z" fill="currentColor"/></svg>