<svg xmlns="http://www.w3.org/2000/svg" viewBox="0 0 24 24"><path d="M1.5,12C1.5,6.2,6.2,1.5,12,1.5C17.8,1.5,22.5,6.2,22.5,12C22.5,17.8,17.8,22.5,12,22.5C6.2,22.5,1.5,17.8,1.5,12Z" fill="currentColor"/><path d="M18,9.36C18,8.26,17.1,7.33,16,7.33C14.93,7.33,14,8.26,14,9.36C14,10.43,14.93,11.33,16,11.33C17.1,11.33,18,10.43,18,9.36Z" fill="currentColor"/><path d="M6.93,16.37L7.47,18.3L17.07,15.63L16.53,13.7Z" fill="currentColor"/><path d="M10,9.36C10,8.26,9.07,7.33,8,7.33C6.9,7.33,6,8.26,6,9.36C6,10.43,6.9,11.33,8,11.33C9.07,11.33,10,10.43,10,9.36Z" fill="currentColor"/></svg>