<svg xmlns="http://www.w3.org/2000/svg" viewBox="0 0 24 24"><path d="M11,1.5L11,16.33C9.29,16.33,7.9,15.46,7.09,13.85L5.3,14.74C6.36,16.86,8.71,18.33,10.99,18.33L10.99,22.5C5.19,22.5,0.49,17.8,0.49,12C0.49,6.2,5.19,1.5,10.99,1.5Z" fill="currentColor"/><path d="M9,9.36C9,8.26,8.07,7.33,7,7.33C5.9,7.33,5,8.26,5,9.36C5,10.43,5.9,11.33,7,11.33C8.07,11.33,9,10.43,9,9.36Z" fill="currentColor"/><path d="M13,22.5L13,15.87C15,15.87,16.32,16.88,17.07,17.68L18.54,16.32C17.68,15.39,15.68,13.86,13.01,13.86L13.01,1.49C18.81,1.49,23.51,6.19,23.51,11.99C23.51,17.79,18.81,22.49,13.01,22.49Z" fill="currentColor"/><path d="M19,9.36C19,8.26,18.1,7.33,17,7.33C15.93,7.33,15,8.26,15,9.36C15,10.43,15.93,11.33,17,11.33C18.1,11.33,19,10.43,19,9.36Z" fill="currentColor"/></svg>