<svg xmlns="http://www.w3.org/2000/svg" viewBox="0 0 24 24" fill="currentColor"><path d="M13,20.88C11.37,20.88,9.8,20.37,8.45,19.43C7.15,19.38,6.05,18.25,6.14,16.88C5.45,15.73,5.12,14.25,5.12,12.96C5.12,8.7,8.59,5.13,12.99,5.13C17.42,5.13,20.87,8.73,20.87,12.99C20.87,17.46,17.24,20.88,12.99,20.88ZM6.65,12.72C6.75,12.72,6.82,12.63,6.82,12.52C6.8,12.17,7.07,11.87,7.42,11.85C7.79,11.82,8.1,12.07,8.12,12.45C8.14,12.54,8.21,12.62,8.32,12.6C8.42,12.6,8.49,12.52,8.47,12.42C8.45,11.88,7.95,11.45,7.4,11.47C7.15,11.49,6.87,11.6,6.7,11.82C6.55,12.03,6.45,12.3,6.47,12.55C6.47,12.65,6.55,12.72,6.65,12.72ZM6.9,15.87C6.9,16.97,7.3,17.88,8.03,18.25C9.23,19.02,11.31,19.13,12.68,19.13C15.98,19.13,18.9,16.23,18.9,12.33L18.9,12.3C18.9,12.13,18.83,12,18.7,11.95L18.65,11.9C18.57,11.88,18.52,11.85,18.42,11.85C18.29,11.85,18.18,11.9,18.12,12C18,12.2,17.82,12.39,17.67,12.57C17.65,12.59,17.62,12.63,17.62,12.65C17.6,12.65,17.6,12.67,17.6,12.67C17.57,12.67,17.57,12.69,17.54,12.69C17.15,13.12,16.67,13.49,16.12,13.82C16.1,13.82,16.1,13.84,16.07,13.87C16.04,13.87,16.02,13.87,15.99,13.89C15.52,14.12,14.96,14.34,14.42,14.47L14.39,14.47C14.37,14.47,14.37,14.49,14.37,14.49L14.27,14.49C13.8,14.59,13.28,14.66,12.7,14.69C11.57,14.75,10.45,14.64,9.45,14.12C9.43,14.12,9.43,14.09,9.32,14.06C9.12,13.94,8.87,13.77,8.67,13.61C8.35,13.39,8.05,13.09,7.75,12.77C7.67,12.67,7.58,12.62,7.45,12.62C7.25,12.62,7.1,12.82,7.07,13.02C7.07,13.52,7.02,14.01,7,14.49C6.95,14.96,6.9,15.44,6.9,15.87ZM7.25,15.87C7.25,15.44,7.3,14.99,7.35,14.52C7.37,14.05,7.42,13.55,7.42,13.02C7.42,13.02,7.42,13,7.44,13L7.44,13.77C7.44,14.09,7.62,14.42,7.87,14.62C8.07,14.75,8.27,14.82,8.49,14.82C8.77,14.82,9,14.75,9.19,14.57L9.19,14.78C9.19,15.2,9.44,15.58,9.84,15.7C9.94,15.75,10.07,15.77,10.2,15.77C10.44,15.77,10.7,15.68,10.87,15.5C11,15.8,11.3,16.04,11.7,16.07L12,16.07C12.35,16.07,12.65,15.85,12.82,15.57C12.97,15.74,13.22,15.87,13.52,15.87C13.59,15.87,13.67,15.87,13.74,15.85L13.8,15.85C14.17,15.75,14.47,15.4,14.52,14.97C14.7,15.12,14.95,15.22,15.2,15.22C15.37,15.22,15.52,15.17,15.67,15.09L15.69,15.09C16.02,14.94,16.22,14.62,16.24,14.27C16.26,14.27,16.26,14.24,16.29,14.24C16.42,14.3,16.54,14.34,16.67,14.34C16.82,14.34,16.99,14.27,17.12,14.17C17.27,14.07,17.42,13.94,17.59,13.82C17.74,13.67,17.84,13.44,17.84,13.22L17.84,13.09C17.91,13.11,18.01,13.11,18.08,13.11C18.23,13.11,18.36,13.06,18.51,12.96C18.41,13.84,18.19,14.61,17.84,15.34C17.66,15.19,17.46,15.11,17.21,15.11C17.01,15.11,16.82,15.17,16.67,15.29C16.62,15.31,16.57,15.38,16.52,15.41C16.27,15.59,16.14,15.92,16.17,16.19L16.17,16.39C15.99,16.26,15.77,16.19,15.57,16.19C15.39,16.19,15.21,16.24,15.09,16.28L15.07,16.31C14.77,16.46,14.57,16.73,14.52,17.06C14.35,16.91,14.13,16.83,13.92,16.83C13.85,16.83,13.72,16.83,13.64,16.85C13.37,16.95,13.14,17.13,13.02,17.36C12.87,17.18,12.6,17.06,12.33,17.08C12.25,17.08,12.12,17.08,12.05,17.1C11.82,17.1,11.58,17.2,11.43,17.38C11.4,17.38,11.4,17.4,11.4,17.4C11.25,17.2,11.03,17.03,10.78,16.97L10.76,16.97C10.71,16.95,10.63,16.95,10.59,16.95C10.34,16.95,10.08,17.05,9.89,17.23C9.84,16.91,9.61,16.63,9.31,16.5L9.29,16.5C9.16,16.43,8.99,16.37,8.84,16.37C8.56,16.37,8.26,16.5,8.09,16.7C7.89,16.9,7.79,17.2,7.81,17.5L7.81,17.57C7.38,17.12,7.26,16.52,7.26,15.85ZM7.82,13.4L8.43,13.92C8.63,14.05,8.8,14.17,8.97,14.27C8.85,14.42,8.7,14.48,8.5,14.48C8.35,14.48,8.22,14.42,8.1,14.35L8.1,14.3C7.9,14.2,7.83,14,7.83,13.77ZM7.82,10.07C7.82,10.32,7.95,10.58,8.18,10.77C8.33,10.87,8.5,10.95,8.73,10.95L8.8,10.95C9.03,10.92,9.27,10.82,9.4,10.59C9.63,10.37,9.93,10.22,10.25,10.22C10.5,10.22,10.75,10.29,10.92,10.44C11.07,10.57,11.3,10.67,11.47,10.67C11.77,10.67,12,10.52,12.17,10.31C12.32,10.14,12.39,9.89,12.37,9.66C12.35,9.42,12.24,9.21,12.05,9.04C12,9.02,11.97,9.02,11.95,8.99C11.48,8.63,10.92,8.44,10.25,8.41C9.37,8.41,8.58,8.81,8.02,9.48C7.89,9.66,7.82,9.86,7.82,10.06ZM8.2,17.9L8.15,17.5C8.15,17.3,8.2,17.13,8.32,17C8.45,16.85,8.64,16.77,8.82,16.77C8.92,16.77,9.02,16.77,9.12,16.82L9.14,16.85C9.37,16.98,9.5,17.17,9.52,17.39L9.54,18.02L9.59,18.41C8.99,18.29,8.54,18.14,8.19,17.89ZM8.2,10.05C8.2,9.96,8.22,9.83,8.3,9.75C8.77,9.15,9.48,8.8,10.25,8.8L10.3,8.8C10.28,8.88,10.28,8.93,10.3,9C10.35,9.43,10.73,9.75,11.18,9.7C11.43,9.68,11.63,9.53,11.78,9.32C11.8,9.32,11.8,9.35,11.83,9.35C11.93,9.45,12,9.55,12,9.72L12,9.8C12,9.89,11.95,10,11.91,10.07C11.81,10.22,11.63,10.3,11.48,10.3C11.38,10.3,11.25,10.25,11.18,10.17C10.9,9.97,10.58,9.85,10.25,9.85C9.83,9.85,9.41,10.05,9.13,10.4C9.03,10.5,8.9,10.57,8.78,10.57C8.75,10.59,8.72,10.59,8.7,10.59C8.6,10.59,8.48,10.54,8.38,10.46C8.25,10.37,8.21,10.22,8.21,10.04ZM9.55,14.78L9.55,14.58C9.95,14.75,10.35,14.88,10.77,14.95L10.77,15.03C10.68,15.23,10.45,15.42,10.2,15.42C10.12,15.42,10.05,15.4,9.97,15.35L9.95,15.35C9.72,15.27,9.55,15.05,9.55,14.77ZM9.98,18.48L9.93,17.97C9.93,17.82,9.98,17.67,10.07,17.54C10.25,17.37,10.45,17.3,10.68,17.34L10.7,17.34C10.95,17.39,11.17,17.64,11.17,17.89L11.19,18.21L11.21,18.61C10.77,18.59,10.34,18.56,9.96,18.46ZM11.18,15.02C11.61,15.08,12.05,15.1,12.55,15.08L12.55,15.15C12.53,15.48,12.3,15.7,12,15.7L11.7,15.7C11.4,15.7,11.18,15.45,11.18,15.15ZM11.43,13.55C11.43,13.68,11.45,13.77,11.5,13.9C11.65,14.15,11.93,14.3,12.23,14.3C12.36,14.3,12.48,14.27,12.58,14.22L12.71,14.22L13.08,14.25L13.33,14.25C13.73,14.25,14.08,13.92,14.08,13.52L14.03,12.99C14,12.9,13.93,12.82,13.82,12.84L13.75,12.84C13.7,12.87,13.65,12.94,13.65,13.05C13.7,13.4,13.7,13.5,13.7,13.52C13.7,13.72,13.53,13.89,13.33,13.89L13.1,13.89C12.93,13.87,12.8,13.87,12.68,13.87C12.58,13.87,12.5,13.87,12.43,13.92C12.35,13.95,12.3,13.98,12.23,13.98C12.05,13.98,11.93,13.88,11.85,13.73C11.8,13.63,11.78,13.53,11.83,13.41C11.85,13.31,11.93,13.2,12.03,13.16C12.5,12.93,12.61,12.48,12.61,12.11C12.61,11.86,12.56,11.64,12.53,11.58L12.53,11.49C12.53,11.28,12.63,11.11,12.83,11.04L12.98,11.04C13.01,11.04,13.04,11.04,13.04,11.01C13.11,10.99,13.16,10.94,13.16,10.86C13.16,10.77,13.09,10.69,12.99,10.69C12.92,10.69,12.82,10.69,12.71,10.71C12.39,10.81,12.17,11.11,12.17,11.44C12.17,11.52,12.17,11.59,12.19,11.67C12.21,11.72,12.26,11.89,12.26,12.12C12.26,12.36,12.19,12.69,11.87,12.87C11.66,12.94,11.54,13.11,11.49,13.32C11.47,13.39,11.44,13.49,11.44,13.56ZM11.57,18.65L11.55,18.14L11.55,17.97C11.55,17.84,11.61,17.73,11.7,17.65C11.8,17.55,11.93,17.5,12.08,17.45L12.4,17.45C12.65,17.45,12.9,17.67,12.92,17.95L12.98,18.65C12.85,18.67,12.7,18.67,12.58,18.67C12.26,18.67,11.9,18.67,11.58,18.65ZM14.15,14.9L14.15,15C14.1,15.23,13.92,15.45,13.68,15.5C13.62,15.53,13.58,15.53,13.53,15.53C13.28,15.53,13.05,15.36,12.95,15.15C12.95,15.13,12.95,15.1,12.93,15.08C13.35,15.02,13.75,14.98,14.15,14.9ZM13.28,17.82C13.28,17.54,13.48,17.32,13.73,17.25L13.75,17.25C13.83,17.22,13.88,17.22,13.92,17.22C14.22,17.22,14.5,17.45,14.52,17.8L14.55,18.02L14.55,18.3C14.15,18.45,13.74,18.58,13.35,18.63L13.29,17.93L13.29,17.88C13.27,17.88,13.27,17.85,13.27,17.82ZM13.85,9.57C13.85,9.82,13.92,10.02,14.07,10.22C14.22,10.4,14.5,10.52,14.73,10.52C14.97,10.52,15.15,10.45,15.33,10.3C15.53,10.1,15.78,10.02,16.05,10.02C16.35,10.02,16.65,10.17,16.86,10.4C17.03,10.55,17.23,10.67,17.48,10.7L17.53,10.7C17.73,10.7,17.93,10.6,18.13,10.47C18.28,10.32,18.38,10.07,18.41,9.85L18.41,9.75C18.41,9.55,18.33,9.38,18.21,9.23C18.08,9.1,17.93,8.95,17.81,8.85C17.36,8.5,16.83,8.3,16.06,8.25C15.33,8.25,14.69,8.5,14.16,8.95C13.99,9.12,13.88,9.35,13.86,9.57ZM14.2,9.63C14.22,9.45,14.3,9.35,14.43,9.23C14.88,8.85,15.45,8.63,16.05,8.63L16.15,8.63C16.13,8.7,16.13,8.75,16.13,8.83C16.1,9.28,16.43,9.65,16.85,9.68C17.21,9.7,17.53,9.48,17.66,9.21C17.73,9.28,17.83,9.35,17.9,9.45C18.03,9.55,18.05,9.7,18.05,9.83C18.05,9.98,17.96,10.1,17.85,10.2C17.78,10.28,17.65,10.33,17.53,10.33L17.51,10.33C17.36,10.33,17.23,10.25,17.13,10.16C16.85,9.86,16.48,9.68,16.06,9.68C15.68,9.68,15.38,9.81,15.08,10.04C15.01,10.11,14.88,10.19,14.73,10.19C14.6,10.19,14.45,10.09,14.36,9.98C14.26,9.89,14.21,9.76,14.21,9.63ZM15.85,14.35C15.85,14.4,15.83,14.45,15.8,14.5C15.74,14.6,15.65,14.7,15.55,14.78L15.53,14.78C15.43,14.83,15.3,14.88,15.2,14.88C15.11,14.88,15.03,14.82,14.93,14.8C14.9,14.78,14.85,14.75,14.8,14.72C15.17,14.63,15.55,14.5,15.85,14.35ZM14.85,17.25C14.85,17.01,15,16.78,15.23,16.65L15.25,16.65C15.38,16.6,15.45,16.58,15.57,16.58C15.85,16.58,16.2,16.8,16.23,17.2L16.23,17.27C15.83,17.63,15.4,17.9,14.93,18.15L14.9,17.8L14.9,17.78L14.88,17.3C14.86,17.28,14.86,17.28,14.86,17.25ZM16.58,16.92L16.52,16.17C16.52,16,16.6,15.82,16.75,15.7L16.9,15.6C17,15.53,17.13,15.51,17.22,15.51C17.35,15.51,17.5,15.53,17.57,15.6C17.3,16.11,16.97,16.55,16.58,16.93ZM17.5,13.3C17.5,13.4,17.42,13.47,17.35,13.55C17.2,13.64,17.07,13.77,16.9,13.9L16.88,13.92L16.85,13.92C16.78,13.98,16.68,14,16.58,13.98C16.9,13.75,17.23,13.52,17.5,13.3ZM17.57,12.17C17.67,12.17,17.75,12.08,17.75,12L17.75,11.93C17.75,11.78,17.8,11.65,17.9,11.53C18.02,11.4,18.17,11.33,18.35,11.3C18.7,11.28,19,11.53,19.04,11.9C19.07,12,19.14,12.08,19.25,12.08C19.34,12.05,19.4,11.98,19.4,11.88C19.37,11.33,18.87,10.9,18.32,10.92C17.75,10.98,17.33,11.45,17.37,12.03C17.37,12.1,17.47,12.17,17.57,12.17ZM18.1,12.8L18,12.78C18.13,12.63,18.23,12.48,18.33,12.35C18.33,12.42,18.3,12.5,18.3,12.57L18.3,12.6C18.28,12.62,18.28,12.67,18.25,12.69L18.38,12.82L18.23,12.69C18.23,12.71,18.21,12.71,18.18,12.77C18.15,12.77,18.12,12.79,18.1,12.79Z"/></svg>