<svg xmlns="http://www.w3.org/2000/svg" viewBox="0 0 24 24" fill="currentColor"><path d="M13,5.13C17.35,5.13,20.88,8.65,20.88,13C20.88,17.35,17.35,20.88,13,20.88C8.65,20.88,5.13,17.35,5.13,13C5.13,8.65,8.65,5.13,13,5.13ZM8.85,16.24L9.96,17.26C10.51,16.66,11.51,15.9,13.01,15.9C14.51,15.9,15.5,16.66,16.06,17.26L17.16,16.24C16.52,15.54,15.02,14.39,13.02,14.39C11.01,14.39,9.5,15.54,8.87,16.24ZM17.65,13.92L17.65,12.42C16.14,12.42,15.67,12.16,15.09,10.46L13.67,10.95C14.43,13.19,15.76,13.93,17.65,13.93ZM8.35,12.42L8.35,13.92C10.25,13.92,11.57,13.19,12.33,10.94L10.91,10.45C10.33,12.15,9.86,12.41,8.35,12.41Z"/></svg>