<svg xmlns="http://www.w3.org/2000/svg" viewBox="0 0 24 24"><path d="M12,22.5C6.2,22.5,1.5,17.8,1.5,12C1.5,6.23,6.13,1.57,11.87,1.5C11.97,1.5,12.04,1.5,12.14,1.5C17.84,1.57,22.44,6.17,22.51,11.87C22.51,11.97,22.51,12.04,22.51,12.14C22.44,17.87,17.78,22.51,12.01,22.51Z" fill="currentColor"/><path d="M5.25,15.77L6.74,17.1L7.95,15.74L9.88,17.93L11.88,15.73L13.79,17.9L15.94,15.68L17.26,17.1L18.73,15.74L15.98,12.76L13.87,14.94L11.91,12.71L9.91,14.91L7.97,12.7Z" fill="currentColor"/><path d="M4.36,9.81L5.38,11.53L11.01,8.2L9.99,6.48Z" fill="currentColor"/><path d="M18.62,11.53L19.64,9.81L14.01,6.48L12.99,8.2Z" fill="currentColor"/></svg>