<svg xmlns="http://www.w3.org/2000/svg" viewBox="0 0 24 24" fill="currentColor"><path d="M13,5.13C17.33,5.13,20.88,8.67,20.88,13C20.88,17.33,17.33,20.88,13,20.88C8.67,20.88,5.13,17.33,5.13,13C5.13,8.67,8.67,5.13,13,5.13ZM13,6.63C9.5,6.63,6.63,9.5,6.63,13C6.63,16.5,9.5,19.38,13,19.38C16.5,19.38,19.38,16.5,19.38,13C19.38,9.5,16.5,6.63,13,6.63ZM15.4,14.35L10.6,14.35C9.9,14.35,9.7,14.6,9.9,15.27C10.45,16.42,11.65,17.15,13,17.15C14.37,17.15,15.55,16.42,16.1,15.27C16.3,14.6,16.1,14.35,15.4,14.35ZM10.3,9.85C9.55,9.85,8.95,10.47,8.95,11.22C8.95,11.95,9.55,12.55,10.3,12.55C11.03,12.55,11.65,11.95,11.65,11.22C11.65,10.47,11.03,9.85,10.3,9.85ZM15.7,9.85C14.97,9.85,14.35,10.47,14.35,11.22C14.35,11.95,14.97,12.55,15.7,12.55C16.45,12.55,17.05,11.95,17.05,11.22C17.05,10.47,16.45,9.85,15.7,9.85Z"/></svg>