<svg xmlns="http://www.w3.org/2000/svg" viewBox="0 0 24 24" fill="currentColor"><path d="M15.75,20.5L10.28,20.5C9.51,20.5,9.21,20.2,9.21,19.43L9.21,17.95C6.75,16.98,5.13,14.97,5.13,12C5.13,7.65,8.66,5.13,13.01,5.13C17.36,5.13,20.88,7.65,20.88,12C20.88,14.95,19.26,16.95,16.83,17.93L16.83,19.43C16.83,20.2,16.53,20.5,15.76,20.5ZM11.88,12.78C11.88,11.75,11,10.88,10,10.88C8.97,10.88,8.13,11.76,8.13,12.78C8.13,13.77,8.97,14.63,10,14.63C11,14.63,11.88,13.78,11.88,12.78ZM17.88,12.78C17.88,11.75,17.03,10.88,16,10.88C15,10.88,14.13,11.76,14.13,12.78C14.13,13.77,15,14.63,16,14.63C17.03,14.63,17.88,13.78,17.88,12.78Z"/></svg>