<svg xmlns="http://www.w3.org/2000/svg" viewBox="0 0 24 24"><path d="M1.5,12C1.5,6.2,6.2,1.5,12,1.5C17.8,1.5,22.5,6.2,22.5,12C22.5,17.8,17.8,22.5,12,22.5C6.2,22.5,1.5,17.8,1.5,12Z" fill="currentColor"/><path d="M6.47,16.32L7.94,17.68C8.68,16.88,10.01,15.87,12.01,15.87C14.01,15.87,15.33,16.88,16.08,17.68L17.55,16.32C16.69,15.39,14.69,13.86,12.02,13.86C9.35,13.86,7.34,15.38,6.49,16.32Z" fill="currentColor"/><path d="M18.2,13.23L18.2,11.23C16.19,11.23,15.56,10.88,14.78,8.61L12.89,9.26C13.91,12.26,15.68,13.24,18.2,13.24Z" fill="currentColor"/><path d="M5.8,11.23L5.8,13.23C8.33,13.23,10.09,12.25,11.11,9.25L9.22,8.6C8.44,10.87,7.81,11.22,5.8,11.22Z" fill="currentColor"/></svg>