<svg xmlns="http://www.w3.org/2000/svg" viewBox="0 0 24 24"><path d="M1.5,12C1.5,6.2,6.2,1.5,12,1.5C17.8,1.5,22.5,6.2,22.5,12C22.5,17.8,17.8,22.5,12,22.5C6.2,22.5,1.5,17.8,1.5,12Z" fill="currentColor"/><path d="M17.6,13.03L18.81,11.44L16.81,9.92L19.13,8.09L17.89,6.52L13.54,9.95Z" fill="currentColor"/><path d="M5.2,11.44L6.41,13.03L10.47,9.95L6.12,6.52L4.88,8.09L7.2,9.92Z" fill="currentColor"/><path d="M17,14L7,14C7.37,16.47,9.5,18.17,12,18.17C14.5,18.17,16.63,16.47,17,14Z" fill="currentColor"/></svg>