<svg xmlns="http://www.w3.org/2000/svg" viewBox="0 0 24 24" fill="currentColor"><path d="M13,5.13C17.35,5.13,20.88,8.65,20.88,13C20.88,17.35,17.35,20.88,13,20.88C8.65,20.88,5.13,17.35,5.13,13C5.13,8.65,8.65,5.13,13,5.13ZM16,9.5C15.2,9.5,14.5,10.2,14.5,11.02C14.5,11.82,15.2,12.5,16,12.5C16.83,12.5,17.5,11.82,17.5,11.02C17.5,10.2,16.83,9.5,16,9.5ZM8.85,16.24L9.96,17.26C10.51,16.66,11.51,15.9,13.01,15.9C14.51,15.9,15.5,16.66,16.06,17.26L17.16,16.24C16.52,15.54,15.02,14.39,13.02,14.39C11.01,14.39,9.5,15.54,8.87,16.24ZM10,9.5C9.18,9.5,8.5,10.2,8.5,11.02C8.5,11.82,9.18,12.5,10,12.5C10.8,12.5,11.5,11.82,11.5,11.02C11.5,10.2,10.8,9.5,10,9.5Z"/></svg>