<svg xmlns="http://www.w3.org/2000/svg" viewBox="0 0 24 24"><path d="M1.5,12C1.5,6.23,6.23,1.5,12,1.5C17.77,1.5,22.5,6.23,22.5,12C22.5,17.77,17.77,22.5,12,22.5C6.23,22.5,1.5,17.77,1.5,12Z" fill="currentColor"/><path d="M20.5,12C20.5,7.33,16.67,3.5,12,3.5C7.33,3.5,3.5,7.33,3.5,12C3.5,16.67,7.33,20.5,12,20.5C16.67,20.5,20.5,16.67,20.5,12Z" fill="currentColor"/><path d="M16.13,15.03C16.4,14.13,16.13,13.8,15.2,13.8L8.8,13.8C7.87,13.8,7.6,14.13,7.87,15.03C8.6,16.56,10.2,17.53,12,17.53C13.83,17.53,15.4,16.56,16.13,15.03Z" fill="currentColor"/><path d="M10.2,9.63C10.2,8.63,9.37,7.8,8.4,7.8C7.4,7.8,6.6,8.63,6.6,9.63C6.6,10.6,7.4,11.4,8.4,11.4C9.37,11.4,10.2,10.6,10.2,9.63Z" fill="currentColor"/><path d="M17.4,9.63C17.4,8.63,16.6,7.8,15.6,7.8C14.63,7.8,13.8,8.63,13.8,9.63C13.8,10.6,14.63,11.4,15.6,11.4C16.6,11.4,17.4,10.6,17.4,9.63Z" fill="currentColor"/></svg>