<svg xmlns="http://www.w3.org/2000/svg" viewBox="0 0 24 24"><path d="M1.5,12C1.5,6.2,6.2,1.5,12,1.5C17.8,1.5,22.5,6.2,22.5,12C22.5,17.8,17.8,22.5,12,22.5C6.2,22.5,1.5,17.8,1.5,12Z" fill="currentColor"/><path d="M17.69,14.75L15.9,13.86C15.09,15.48,13.71,16.34,11.99,16.34C10.28,16.34,8.89,15.47,8.08,13.86L6.29,14.75C7.35,16.87,9.7,18.34,11.98,18.34C14.27,18.34,16.62,16.87,17.67,14.75Z" fill="currentColor"/><path d="M17.7,10.77C18.93,9.44,19.13,9,19.13,8.57C19.13,7.67,18.36,7.14,17.63,7.14C17.1,7.14,16.53,7.44,16,8.27C15.47,7.44,14.9,7.14,14.33,7.14C13.53,7.14,12.9,7.67,12.9,8.54C12.9,9.04,13.1,9.51,14.3,10.77L16,12.57Z" fill="currentColor"/><path d="M6.3,10.77L8,12.57L9.7,10.77C10.9,9.5,11.13,9.04,11.13,8.54C11.13,7.67,10.5,7.14,9.66,7.14C9.09,7.14,8.53,7.44,7.99,8.27C7.49,7.44,6.89,7.14,6.36,7.14C5.63,7.14,4.89,7.67,4.89,8.57C4.89,9,5.06,9.44,6.29,10.77Z" fill="currentColor"/></svg>