<svg xmlns="http://www.w3.org/2000/svg" viewBox="0 0 24 24" fill="currentColor"><path d="M14.46,13.77C14,13.77,13.76,13.53,13.76,13.08L13.76,12.6C13.76,12.15,13.93,11.73,14.26,11.43L18.84,7.02L14.46,7.02C14.01,7.02,13.77,6.78,13.77,6.33L13.77,6.23C13.77,5.78,14.01,5.53,14.46,5.53L19.81,5.53C20.26,5.53,20.51,5.78,20.51,6.23L20.51,6.7C20.51,7.15,20.34,7.58,20,7.88L15.45,12.28L19.8,12.28C20.25,12.28,20.5,12.53,20.5,12.98L20.5,13.08C20.5,13.53,20.25,13.77,19.8,13.77ZM11.54,12.23C11.99,12.23,12.24,12.48,12.24,12.93L12.24,13.4C12.24,13.85,12.07,14.28,11.74,14.58L7.16,18.98L11.54,18.98C11.99,18.98,12.23,19.23,12.23,19.68L12.23,19.77C12.23,20.22,11.99,20.47,11.54,20.47L6.19,20.47C5.74,20.47,5.49,20.22,5.49,19.77L5.49,19.3C5.49,18.85,5.67,18.42,5.99,18.12L10.55,13.72L6.2,13.72C5.75,13.72,5.5,13.47,5.5,13.02L5.5,12.93C5.5,12.48,5.75,12.23,6.2,12.23Z"/></svg>