<svg xmlns="http://www.w3.org/2000/svg" viewBox="0 0 24 24"><path d="M13.94,13.03C13.34,13.03,13.01,12.7,13.01,12.1L13.01,11.47C13.01,10.87,13.24,10.3,13.68,9.9L19.78,4.03L13.95,4.03C13.35,4.03,13.02,3.7,13.02,3.1L13.02,2.97C13.02,2.37,13.35,2.04,13.95,2.04L21.08,2.04C21.68,2.04,22.01,2.37,22.01,2.97L22.01,3.6C22.01,4.2,21.78,4.77,21.34,5.17L15.27,11.04L21.07,11.04C21.67,11.04,22,11.37,22,11.97L22,12.1C22,12.7,21.67,13.03,21.07,13.03Z" fill="currentColor"/><path d="M10.06,10.97C10.66,10.97,10.99,11.3,10.99,11.9L10.99,12.53C10.99,13.13,10.76,13.7,10.32,14.1L4.22,19.97L10.05,19.97C10.65,19.97,10.98,20.3,10.98,20.9L10.98,21.03C10.98,21.63,10.65,21.96,10.05,21.96L2.92,21.96C2.32,21.96,1.99,21.63,1.99,21.03L1.99,20.4C1.99,19.8,2.22,19.23,2.66,18.83L8.73,12.96L2.93,12.96C2.33,12.96,2,12.63,2,12.03L2,11.9C2,11.3,2.33,10.97,2.93,10.97Z" fill="currentColor"/></svg>