<svg xmlns="http://www.w3.org/2000/svg" viewBox="0 0 24 24" fill="currentColor"><path d="M13,5.13C17.35,5.13,20.88,8.65,20.88,13C20.88,17.35,17.35,20.88,13,20.88C8.65,20.88,5.13,17.35,5.13,13C5.13,8.65,8.65,5.13,13,5.13ZM17.27,15.06L15.93,14.39C15.32,15.61,14.28,16.25,12.99,16.25C11.71,16.25,10.67,15.6,10.06,14.39L8.72,15.06C9.51,16.65,11.28,17.75,12.99,17.75C14.7,17.75,16.47,16.65,17.25,15.06ZM17.27,12.08C18.2,11.08,18.35,10.75,18.35,10.43C18.35,9.75,17.77,9.36,17.22,9.36C16.82,9.36,16.4,9.58,16,10.2C15.6,9.58,15.17,9.36,14.75,9.36C14.15,9.36,13.67,9.75,13.67,10.41C13.67,10.78,13.82,11.13,14.72,12.08L16,13.43ZM8.73,12.08L10,13.43L11.27,12.08C12.17,11.13,12.35,10.78,12.35,10.4C12.35,9.75,11.87,9.35,11.24,9.35C10.82,9.35,10.4,9.58,9.99,10.2C9.62,9.58,9.17,9.36,8.77,9.36C8.22,9.36,7.67,9.75,7.67,10.43C7.67,10.75,7.79,11.08,8.72,12.08Z"/></svg>