<svg xmlns="http://www.w3.org/2000/svg" viewBox="0 0 24 24"><path d="M1.5,12C1.5,6.2,6.2,1.5,12,1.5C17.8,1.5,22.5,6.2,22.5,12C22.5,17.8,17.8,22.5,12,22.5C6.2,22.5,1.5,17.8,1.5,12Z" fill="currentColor"/><path d="M18,9.36C18,8.26,17.1,7.33,16,7.33C14.93,7.33,14,8.26,14,9.36C14,10.43,14.93,11.33,16,11.33C17.1,11.33,18,10.43,18,9.36Z" fill="currentColor"/><path d="M8.33,15.96C8.33,15.26,7.73,14.66,7,14.66C6.27,14.66,5.67,15.26,5.67,15.96C5.67,16.69,6.27,17.33,7,17.33C7.73,17.33,8.33,16.7,8.33,15.96Z" fill="currentColor"/><path d="M10,9.36C10,8.26,9.07,7.33,8,7.33C6.9,7.33,6,8.26,6,9.36C6,10.43,6.9,11.33,8,11.33C9.07,11.33,10,10.43,10,9.36Z" fill="currentColor"/><path d="M11.66,15.96C11.66,15.26,11.06,14.66,10.33,14.66C9.63,14.66,9,15.26,9,15.96C9,16.69,9.63,17.33,10.33,17.33C11.06,17.33,11.66,16.7,11.66,15.96Z" fill="currentColor"/><path d="M15,15.96C15,15.26,14.37,14.66,13.67,14.66C12.94,14.66,12.34,15.26,12.34,15.96C12.34,16.69,12.94,17.33,13.67,17.33C14.37,17.33,15,16.7,15,15.96Z" fill="currentColor"/><path d="M18.33,15.96C18.33,15.26,17.73,14.66,17,14.66C16.27,14.66,15.67,15.26,15.67,15.96C15.67,16.69,16.27,17.33,17,17.33C17.73,17.33,18.33,16.7,18.33,15.96Z" fill="currentColor"/></svg>