<svg xmlns="http://www.w3.org/2000/svg" viewBox="0 0 24 24" fill="currentColor"><path d="M5.13,13C5.13,8.65,8.65,5.13,13,5.13C17.35,5.13,20.88,8.65,20.88,13C20.88,17.35,17.35,20.88,13,20.88C8.65,20.88,5.13,17.35,5.13,13ZM14.89,15.81C15.76,15.66,16.53,15.41,17.01,15.11L16.2,13.85C15.61,14.22,14.42,14.48,13,14.48C11.58,14.48,10.39,14.22,9.81,13.85L9,15.11C9.51,15.44,10.33,15.69,11.26,15.84L11.2,16.98C11.13,18.63,12.35,19.15,13.08,19.15C13.8,19.15,15.03,18.63,14.95,16.98ZM11.5,11.02C11.5,10.2,10.8,9.5,10,9.5C9.18,9.5,8.5,10.2,8.5,11.02C8.5,11.82,9.18,12.5,10,12.5C10.8,12.5,11.5,11.82,11.5,11.02ZM17.5,11.02C17.5,10.2,16.83,9.5,16,9.5C15.2,9.5,14.5,10.2,14.5,11.02C14.5,11.82,15.2,12.5,16,12.5C16.83,12.5,17.5,11.82,17.5,11.02Z"/></svg>