<svg xmlns="http://www.w3.org/2000/svg" viewBox="0 0 24 24"><path d="M12,18.17C14,18.17,15.77,17.07,16.6,15.37C16.9,14.37,16.6,14,15.57,14L8.44,14C7.41,14,7.11,14.37,7.41,15.37C8.24,17.07,10.01,18.17,12.01,18.17Z" fill="currentColor"/><path d="M10,9.36C10,8.26,9.07,7.33,8,7.33C6.9,7.33,6,8.26,6,9.36C6,10.43,6.9,11.33,8,11.33C9.07,11.33,10,10.43,10,9.36Z" fill="currentColor"/><path d="M18,9.36C18,8.26,17.1,7.33,16,7.33C14.93,7.33,14,8.26,14,9.36C14,10.43,14.93,11.33,16,11.33C17.1,11.33,18,10.43,18,9.36Z" fill="currentColor"/><path d="M1.5,12C1.5,6.2,6.2,1.5,12,1.5C17.8,1.5,22.5,6.2,22.5,12C22.5,17.8,17.8,22.5,12,22.5C6.2,22.5,1.5,17.8,1.5,12Z" fill="currentColor"/></svg>