<svg xmlns="http://www.w3.org/2000/svg" viewBox="0 0 24 24"><path d="M15.67,22L8.37,22C7.34,22,6.94,21.6,6.94,20.57L6.94,18.6C3.67,17.3,1.51,14.63,1.51,10.67C1.51,4.87,6.21,1.5,12.01,1.5C17.81,1.5,22.51,4.87,22.51,10.67C22.51,14.6,20.34,17.27,17.11,18.57L17.11,20.57C17.11,21.6,16.71,22,15.68,22Z" fill="currentColor"/><path d="M10.5,11.7C10.5,10.33,9.33,9.17,8,9.17C6.63,9.17,5.5,10.34,5.5,11.7C5.5,13.03,6.63,14.17,8,14.17C9.33,14.17,10.5,13.04,10.5,11.7Z" fill="currentColor"/><path d="M18.5,11.7C18.5,10.33,17.37,9.17,16,9.17C14.67,9.17,13.5,10.34,13.5,11.7C13.5,13.03,14.67,14.17,16,14.17C17.37,14.17,18.5,13.04,18.5,11.7Z" fill="currentColor"/></svg>