<svg xmlns="http://www.w3.org/2000/svg" viewBox="0 0 24 24"><path d="M1.5,12C1.5,6.2,6.2,1.5,12,1.5C17.8,1.5,22.5,6.2,22.5,12C22.5,17.8,17.8,22.5,12,22.5C6.2,22.5,1.5,17.8,1.5,12Z" fill="currentColor"/><path d="M18.07,10.92C17.69,10.63,17.22,10.26,16.78,9.91C17.32,9.46,17.92,8.97,18.38,8.62L17.16,7.04C15.94,7.98,14.15,9.53,13.52,9.99C14.23,10.4,15.77,11.69,16.86,12.52Z" fill="currentColor"/><path d="M7.14,12.51C8.23,11.68,9.77,10.4,10.48,9.98C9.85,9.52,8.06,7.97,6.84,7.03L5.62,8.61C6.08,8.96,6.67,9.45,7.22,9.9C6.77,10.25,6.3,10.63,5.93,10.91Z" fill="currentColor"/><path d="M15,16.36C15,14.69,13.67,13.33,12,13.33C10.33,13.33,9,14.7,9,16.36C9,18.03,10.33,19.33,12,19.33C13.67,19.33,15,18.03,15,16.36Z" fill="currentColor"/></svg>