<svg xmlns="http://www.w3.org/2000/svg" viewBox="0 0 24 24" fill="currentColor"><path d="M13,5.13C17.35,5.13,20.88,8.65,20.88,13C20.88,17.35,17.35,20.88,13,20.88C8.65,20.88,5.13,17.35,5.13,13C5.13,8.65,8.65,5.13,13,5.13ZM8.9,9.35L7.85,10.41L8.94,11.5L7.85,12.6L8.9,13.65L10,12.56L11.1,13.65L12.15,12.6L11.06,11.5L12.15,10.4L11.1,9.35L10,10.44ZM14.9,9.35L13.85,10.41L14.94,11.5L13.85,12.6L14.9,13.65L16,12.56L17.09,13.65L18.15,12.6L17.06,11.5L18.15,10.4L17.09,9.35L16,10.44ZM13,14.99C12.02,14.99,11.25,15.8,11.25,16.77C11.25,17.75,12.02,18.5,13,18.5C13.98,18.5,14.75,17.75,14.75,16.77C14.75,15.8,13.97,14.99,13,14.99Z"/></svg>