<svg xmlns="http://www.w3.org/2000/svg" viewBox="0 0 24 24" fill="currentColor"><path d="M13,20.88C8.65,20.88,5.13,17.35,5.13,13C5.13,8.67,8.6,5.18,12.9,5.13C12.98,5.13,13.03,5.13,13.11,5.13C17.38,5.18,20.83,8.63,20.88,12.9C20.88,12.98,20.88,13.03,20.88,13.11C20.83,17.4,17.33,20.88,13.01,20.88ZM7.94,15.83L9.05,16.83L9.96,15.81L11.41,17.45L12.91,15.8L14.34,17.43L15.95,15.76L16.95,16.83L18.05,15.81L15.98,13.57L14.4,15.21L12.93,13.53L11.43,15.18L9.98,13.53ZM7.27,11.36L8.04,12.65L12.26,10.15L11.49,8.86ZM17.96,12.65L18.73,11.36L14.51,8.86L13.74,10.15Z"/></svg>