<svg xmlns="http://www.w3.org/2000/svg" viewBox="0 0 24 24"><path d="M1.5,12C1.5,6.2,6.2,1.5,12,1.5C17.8,1.5,22.5,6.2,22.5,12C22.5,17.8,17.8,22.5,12,22.5C6.2,22.5,1.5,17.8,1.5,12Z" fill="currentColor"/><path d="M6.54,7.13L5.13,8.54L6.59,10L5.13,11.46L6.54,12.87L8,11.41L9.46,12.87L10.87,11.46L9.41,10L10.87,8.54L9.46,7.13L8,8.59Z" fill="currentColor"/><path d="M14.54,7.13L13.13,8.54L14.59,10L13.13,11.46L14.54,12.87L16,11.41L17.46,12.87L18.87,11.46L17.41,10L18.87,8.54L17.46,7.13L16,8.59Z" fill="currentColor"/><path d="M14.33,17.03C14.33,15.73,13.3,14.66,12,14.66C10.7,14.66,9.67,15.73,9.67,17.03C9.67,18.33,10.7,19.33,12,19.33C13.3,19.33,14.33,18.33,14.33,17.03Z" fill="currentColor"/></svg>