<svg xmlns="http://www.w3.org/2000/svg" viewBox="0 0 24 24" fill="currentColor"><path d="M9.25,13.17L7,10.55C5.37,8.65,5.13,8.02,5.13,7.4C5.13,6.1,6.1,5.3,7.07,5.3C7.8,5.3,8.55,5.75,9.25,6.97C9.98,5.72,10.7,5.3,11.48,5.3C12.53,5.3,13.38,6.1,13.38,7.35C13.38,8.04,13.08,8.72,11.5,10.55ZM16.75,20.67L14.5,18.05C12.87,16.15,12.63,15.52,12.63,14.9C12.63,13.6,13.6,12.8,14.58,12.8C15.3,12.8,16.05,13.25,16.75,14.47C17.48,13.22,18.2,12.8,18.98,12.8C20.03,12.8,20.88,13.6,20.88,14.85C20.88,15.54,20.58,16.22,19,18.05Z"/></svg>