<svg xmlns="http://www.w3.org/2000/svg" viewBox="0 0 24 24" fill="currentColor"><path d="M7.05,7.6C7.05,6.18,8.23,5,9.66,5C11.08,5,12.26,5.92,12.26,7.6L12.26,12.68L13.78,11.16L13.78,7.61C13.78,5.94,14.96,5,16.38,5C17.34,5,18.18,5.53,18.63,6.31L20.48,4.46C20.81,4.13,21.16,4.13,21.48,4.46L21.56,4.53C21.87,4.85,21.88,5.19,21.58,5.51C21.57,5.51,21.57,5.52,21.56,5.53L19.03,8.06L13.78,13.31L12.26,14.83L7.4,19.69L5.58,21.51L5.56,21.53C5.24,21.85,4.89,21.85,4.56,21.53L4.49,21.45C4.17,21.13,4.17,20.78,4.49,20.46L6.99,17.96C5.45,17.92,4.26,16.71,4.26,15.24C4.26,14.31,4.71,13.51,5.39,13.01C4.71,12.51,4.26,11.71,4.26,10.78C4.26,9.28,5.49,8.06,7.06,8.06C7.06,8.06,7.06,8.06,7.06,7.61ZM8.5,20.73L12.25,16.98L12.25,18.4C12.25,20.07,11.07,21,9.65,21C9.23,21,8.84,20.91,8.49,20.73ZM13.77,15.45L20.64,8.58C21.33,9.08,21.78,9.88,21.78,10.78C21.78,11.7,21.33,12.5,20.65,13.01C21.33,13.51,21.78,14.3,21.78,15.23C21.78,16.73,20.55,17.96,18.98,17.96C18.98,17.96,18.98,17.96,18.98,18.41C18.98,19.83,17.8,21.01,16.38,21.01C14.95,21.01,13.77,20.09,13.77,18.41Z"/></svg>