<svg xmlns="http://www.w3.org/2000/svg" viewBox="0 0 24 24" fill="currentColor"><path d="M5.13,13C5.13,8.65,8.65,5.13,13,5.13C17.35,5.13,20.88,8.65,20.88,13C20.88,17.35,17.35,20.88,13,20.88C8.65,20.88,5.13,17.35,5.13,13ZM8.85,16.24L9.96,17.26C10.51,16.66,11.51,15.9,13.01,15.9C14.51,15.9,15.5,16.66,16.06,17.26L17.16,16.24C16.52,15.54,15.02,14.39,13.02,14.39C11.01,14.39,9.5,15.54,8.87,16.24ZM17.2,13.77L18.11,12.58L16.61,11.44L18.35,10.07L17.42,8.89L14.16,11.46ZM7.9,12.58L8.81,13.77L11.85,11.46L8.59,8.89L7.66,10.07L9.4,11.44Z"/></svg>