<svg xmlns="http://www.w3.org/2000/svg" viewBox="0 0 24 24"><path d="M7,12.23L4,8.73C1.83,6.2,1.5,5.36,1.5,4.53C1.5,2.8,2.8,1.73,4.1,1.73C5.07,1.73,6.07,2.33,7,3.96C7.97,2.29,8.93,1.73,9.97,1.73C11.37,1.73,12.5,2.8,12.5,4.46C12.5,5.39,12.1,6.29,10,8.73Z" fill="currentColor"/><path d="M17,22.23L14,18.73C11.83,16.2,11.5,15.36,11.5,14.53C11.5,12.8,12.8,11.73,14.1,11.73C15.07,11.73,16.07,12.33,17,13.96C17.97,12.29,18.93,11.73,19.97,11.73C21.37,11.73,22.5,12.8,22.5,14.46C22.5,15.39,22.1,16.29,20,18.73Z" fill="currentColor"/></svg>