<svg xmlns="http://www.w3.org/2000/svg" viewBox="0 0 24 24" fill="currentColor"><path d="M13,5.13C17.35,5.13,20.88,8.65,20.88,13C20.88,17.35,17.35,20.88,13,20.88C8.65,20.88,5.13,17.35,5.13,13C5.13,8.65,8.65,5.13,13,5.13ZM17.55,12.19C17.27,11.97,16.91,11.7,16.59,11.43C16.99,11.1,17.44,10.73,17.79,10.46L16.87,9.28C15.96,9.98,14.61,11.15,14.14,11.49C14.67,11.8,15.83,12.77,16.65,13.39ZM9.36,13.38C10.17,12.76,11.33,11.8,11.86,11.49C11.39,11.14,10.04,9.98,9.13,9.27L8.21,10.46C8.56,10.72,9,11.09,9.41,11.43C9.08,11.69,8.72,11.97,8.45,12.18ZM13,14C11.75,14,10.75,15.02,10.75,16.27C10.75,17.52,11.75,18.5,13,18.5C14.25,18.5,15.25,17.52,15.25,16.27C15.25,15.02,14.25,14,13,14Z"/></svg>