<svg xmlns="http://www.w3.org/2000/svg" viewBox="0 0 24 24" fill="currentColor"><path d="M12.25,5.13L12.25,16.25C10.97,16.25,9.93,15.59,9.32,14.39L7.98,15.05C8.77,16.64,10.53,17.75,12.24,17.75L12.24,20.88C7.89,20.88,4.37,17.35,4.37,13C4.37,8.65,7.89,5.13,12.24,5.13ZM10.75,11.02C10.75,10.2,10.05,9.5,9.25,9.5C8.43,9.5,7.75,10.2,7.75,11.02C7.75,11.82,8.43,12.5,9.25,12.5C10.05,12.5,10.75,11.82,10.75,11.02ZM13.75,20.88L13.75,15.9C15.25,15.9,16.24,16.66,16.8,17.26L17.91,16.24C17.26,15.54,15.76,14.39,13.76,14.39L13.76,5.12C18.11,5.12,21.63,8.64,21.63,12.99C21.63,17.34,18.11,20.87,13.76,20.87ZM18.25,11.02C18.25,10.2,17.58,9.5,16.75,9.5C15.95,9.5,15.25,10.2,15.25,11.02C15.25,11.82,15.95,12.5,16.75,12.5C17.58,12.5,18.25,11.82,18.25,11.02Z"/></svg>