<svg xmlns="http://www.w3.org/2000/svg" viewBox="0 0 24 24" fill="currentColor"><path d="M13,5.13C17.35,5.13,20.88,8.65,20.88,13C20.88,17.35,17.35,20.88,13,20.88C8.65,20.88,5.13,17.35,5.13,13C5.13,8.65,8.65,5.13,13,5.13ZM16,9.5C15.2,9.5,14.5,10.2,14.5,11.02C14.5,11.82,15.2,12.5,16,12.5C16.83,12.5,17.5,11.82,17.5,11.02C17.5,10.2,16.83,9.5,16,9.5ZM9.25,14.99C8.7,14.99,8.25,15.44,8.25,15.97C8.25,16.52,8.7,17,9.25,17C9.8,17,10.25,16.52,10.25,15.97C10.25,15.44,9.8,14.99,9.25,14.99ZM10,9.5C9.18,9.5,8.5,10.2,8.5,11.02C8.5,11.82,9.18,12.5,10,12.5C10.8,12.5,11.5,11.82,11.5,11.02C11.5,10.2,10.8,9.5,10,9.5ZM11.75,14.99C11.22,14.99,10.75,15.44,10.75,15.97C10.75,16.52,11.22,17,11.75,17C12.29,17,12.75,16.52,12.75,15.97C12.75,15.44,12.29,14.99,11.75,14.99ZM14.25,14.99C13.71,14.99,13.26,15.44,13.26,15.97C13.26,16.52,13.71,17,14.25,17C14.78,17,15.25,16.52,15.25,15.97C15.25,15.44,14.78,14.99,14.25,14.99ZM16.75,14.99C16.2,14.99,15.75,15.44,15.75,15.97C15.75,16.52,16.2,17,16.75,17C17.3,17,17.75,16.52,17.75,15.97C17.75,15.44,17.3,14.99,16.75,14.99Z"/></svg>