<svg xmlns="http://www.w3.org/2000/svg" viewBox="0 0 24 24" fill="currentColor"><path d="M12.26,7.6L12.26,18.4C12.26,20.07,11.08,21,9.66,21C8.23,21,7.05,19.83,7.05,18.4C7.05,17.95,7.05,17.95,7.05,17.95C5.48,17.95,4.25,16.73,4.25,15.23C4.25,14.31,4.71,13.5,5.38,13C4.71,12.5,4.25,11.7,4.25,10.77C4.25,9.27,5.48,8.05,7.05,8.05C7.05,8.05,7.05,8.05,7.05,7.6C7.05,6.18,8.23,5,9.66,5C11.08,5,12.26,5.92,12.26,7.6ZM21.77,10.77C21.77,11.7,21.32,12.5,20.65,13C21.32,13.5,21.77,14.3,21.77,15.23C21.77,16.73,20.55,17.95,18.98,17.95C18.98,17.95,18.98,17.95,18.98,18.4C18.98,19.82,17.8,21,16.38,21C14.95,21,13.77,20.08,13.77,18.4L13.77,7.6C13.77,5.93,14.95,5,16.38,5C17.8,5,18.98,6.17,18.98,7.6C18.98,8.05,18.98,8.05,18.98,8.05C20.55,8.05,21.77,9.27,21.77,10.77Z"/></svg>