<svg xmlns="http://www.w3.org/2000/svg" viewBox="0 0 24 24"><path d="M22.93,13L17.8,18.13C17.07,18.86,16.53,18.83,15.8,18.1L15.7,18.03C14.97,17.3,15,16.73,15.73,16L19.73,12L15.66,8C14.93,7.27,14.93,6.73,15.66,6L15.76,5.87C16.49,5.14,17.06,5.14,17.79,5.87L22.92,11C23.65,11.73,23.65,12.27,22.92,13Z" fill="currentColor"/><path d="M8.44,22C7.41,22,7.01,21.6,7.01,20.57L7.01,16.77C7.01,15.74,7.41,15.34,8.44,15.34L8.57,15.34C9.6,15.34,10,15.74,10,16.77L10,20.57C10,21.6,9.6,22,8.57,22Z" fill="currentColor"/><path d="M1,13.5C0.27,13.5,0,13.1,0,12.07L0,11.94C0,10.91,0.27,10.51,1,10.51L21.17,10.51L21.17,13.51Z" fill="currentColor"/><path d="M8.44,8.67C7.41,8.67,7.01,8.27,7.01,7.24L7.01,3.44C7.01,2.41,7.41,2.01,8.44,2.01L8.57,2.01C9.6,2.01,10,2.41,10,3.44L10,7.24C10,8.27,9.6,8.67,8.57,8.67Z" fill="currentColor"/></svg>