<svg xmlns="http://www.w3.org/2000/svg" viewBox="0 0 24 24" fill="currentColor"><path d="M15.63,5.5L14.13,5.5L14.13,6.71C17.27,7.22,19.75,9.8,20.09,13L17.84,13C17.54,10.44,15.75,8.88,13.01,8.88C10.26,8.88,8.46,10.44,8.18,13L5.93,13C6.26,9.8,8.74,7.22,11.89,6.71L11.89,5.5L10.39,5.5C10.39,4.22,10.71,4,13.01,4C15.32,4,15.64,4.22,15.64,5.5ZM11.92,13L12.63,10L13.38,10L14.09,13ZM17.83,22C17.06,22,16.76,21.7,16.76,20.93L16.76,15.58C16.76,14.81,17.06,14.51,17.83,14.51L20.18,14.51C20.95,14.51,21.25,14.81,21.25,15.58L21.25,20.93C21.25,21.7,20.95,22,20.18,22ZM8.18,22L4.75,22L4.75,20.5L7.75,20.5L7.75,19L5.82,19C5.05,19,4.75,18.7,4.75,17.93L4.75,15.58C4.75,14.81,5.05,14.51,5.82,14.51L8.17,14.51C8.94,14.51,9.24,14.81,9.24,15.58L9.24,20.93C9.24,21.7,8.94,22,8.17,22ZM6.25,17.5L7.75,17.5L7.75,16L6.25,16ZM12.25,20.5L13.75,20.5L13.75,19L12.25,19ZM14.18,22L11.83,22C11.06,22,10.76,21.7,10.76,20.93L10.76,15.58C10.76,14.81,11.06,14.51,11.83,14.51L15.26,14.51L15.26,16.01L12.26,16.01L12.26,17.51L14.19,17.51C14.96,17.51,15.26,17.81,15.26,18.58L15.26,20.93C15.26,21.7,14.96,22,14.19,22ZM18.25,20.5L19.75,20.5L19.75,16L18.25,16Z"/></svg>