<svg xmlns="http://www.w3.org/2000/svg" viewBox="0 0 24 24" fill="currentColor"><path d="M6.25,15.4C6.25,14.63,6.5,14.18,7.17,13.8L9.05,12.73C9.72,12.36,9.93,11.91,9.82,11.13L9.29,7.48C9.07,6,9.5,5.51,11,5.51L15,5.51C16.5,5.51,16.92,6.01,16.7,7.48L16.56,8.37L20.47,4.46C20.79,4.14,21.14,4.14,21.47,4.46L21.54,4.53C21.86,4.85,21.87,5.19,21.57,5.51C21.56,5.51,21.55,5.52,21.54,5.53L16.18,10.89L11.07,16.01L5.57,21.51L5.55,21.53C5.22,21.85,4.87,21.85,4.55,21.53L4.47,21.45C4.15,21.13,4.15,20.78,4.47,20.46L8.92,16.01L6.24,16.01ZM12.55,21.53L11.97,17.5L13.98,17.5L13.45,21.53C13.43,21.85,13.23,22,13,22C12.8,22,12.6,21.85,12.55,21.53ZM13.23,16L16.66,12.56C16.74,12.63,16.84,12.69,16.95,12.75L18.8,13.79C19.5,14.17,19.76,14.62,19.76,15.39L19.76,15.99Z"/></svg>