<svg xmlns="http://www.w3.org/2000/svg" viewBox="0 0 24 24" fill="currentColor"><path d="M13.05,14.5L12.96,14.5C12.5,14.5,12.26,14.25,12.26,13.8L12.26,6.58C12.26,5.81,12.5,5.51,13.13,5.51L19.68,5.51C20.46,5.51,20.58,5.68,20.19,6.13L18.01,8.51L20.04,10.71C20.56,11.28,20.51,11.51,19.89,11.51L13.76,11.51L13.76,13.81C13.76,14.26,13.51,14.51,13.06,14.51ZM6.27,16C7.45,16,8.5,17.05,8.5,18.23C8.5,19.45,7.45,20.5,6.27,20.5C5.05,20.5,4,19.45,4,18.23C4,17.05,5.05,16,6.27,16ZM6.27,19L6.27,17.5L19.77,17.5L19.77,19ZM13.02,16C14.2,16,15.25,17.05,15.25,18.23C15.25,19.45,14.2,20.5,13.02,20.5C11.8,20.5,10.75,19.45,10.75,18.23C10.75,17.05,11.8,16,13.02,16ZM19.75,16C21,16,22,17,22,18.25C22,19.5,21,20.5,19.75,20.5C18.5,20.5,17.5,19.5,17.5,18.25C17.5,17,18.5,16,19.75,16Z"/></svg>