<svg xmlns="http://www.w3.org/2000/svg" viewBox="0 0 24 24"><path d="M10.03,20.17L10.03,18L6.66,18C4.66,18,3.99,17.33,3.99,15.33L3.99,4.66C3.99,2.66,4.66,1.99,6.66,1.99L17.33,1.99C19.33,1.99,20,2.66,20,4.66L20,15.33C20,17.33,19.33,18,17.33,18L13.9,18L13.9,20.17L15.43,20.17C17.43,20.17,18.26,20.8,18.76,22.74L18.73,22.64C15.9,24.31,8.1,24.31,5.26,22.64L5.23,22.74C5.73,20.81,6.56,20.17,8.56,20.17Z" fill="currentColor"/><path d="M1.43,13.03C0.4,12.9,0,12.43,0,11.4L0,8.6C0,7.57,0.4,7.1,1.43,6.97L2,6.87L2,13.14Z" fill="currentColor"/><path d="M16.78,13.33L15.89,11.54C13.57,12.7,10.44,12.7,8.12,11.54L7.23,13.33C9.97,14.7,14.05,14.7,16.79,13.33Z" fill="currentColor"/><path d="M10.5,8.03C10.5,7.2,9.8,6.5,9,6.5C8.17,6.5,7.5,7.2,7.5,8.03C7.5,8.83,8.17,9.5,9,9.5C9.8,9.5,10.5,8.83,10.5,8.03Z" fill="currentColor"/><path d="M16.5,8.03C16.5,7.2,15.83,6.5,15,6.5C14.2,6.5,13.5,7.2,13.5,8.03C13.5,8.83,14.2,9.5,15,9.5C15.83,9.5,16.5,8.83,16.5,8.03Z" fill="currentColor"/><path d="M22.57,13.03L22,13.13L22,6.86L22.57,6.96C23.6,7.09,24,7.56,24,8.59L24,11.39C24,12.42,23.6,12.89,22.57,13.02Z" fill="currentColor"/></svg>