<svg xmlns="http://www.w3.org/2000/svg" viewBox="0 0 24 24"><path d="M5.93,20.7C5.5,21.63,5.03,21.73,4.23,21.07C1.73,18.64,-0.1,14.57,0.3,10.54C0.47,9.54,0.87,9.34,1.77,9.87L10.77,15.44C11.67,15.97,12.34,15.97,13.24,15.44L22.24,9.87C23.14,9.34,23.54,9.54,23.71,10.54C24.11,14.57,22.28,18.64,19.78,21.07C18.98,21.74,18.51,21.64,18.08,20.7C16.95,18.93,14.71,17.5,12.01,17.5C9.28,17.5,7.08,18.83,5.94,20.7Z" fill="currentColor"/><path d="M18.83,9.6L13.2,13.13C12.33,13.7,11.67,13.7,10.8,13.13L5.17,9.6C5.17,7.47,9.3,2,11.97,2C14.7,2,18.84,7.47,18.84,9.6Z" fill="currentColor"/></svg>