<svg xmlns="http://www.w3.org/2000/svg" viewBox="0 0 24 24" fill="currentColor"><path d="M11.52,20.42L5.6,14.5C4.52,13.43,4.52,12.72,5.57,11.63L7.1,10.05C7.4,9.75,7.72,9.58,8.13,9.98C8.6,10.5,8.6,11.5,9.23,12.13C10.03,12.88,11.33,12.88,12.08,12.03C12.83,11.26,12.83,10.06,12.08,9.33C11.43,8.66,10.33,8.79,9.85,8.36C9.4,7.91,9.6,7.58,9.9,7.25L11.5,5.66C12.57,4.58,13.28,4.58,14.35,5.63L16,7.26C16.32,7.58,16.6,7.66,16.92,7.39C17.37,6.96,17.25,6.06,17.97,5.31C18.77,4.61,19.9,4.66,20.65,5.39C21.38,6.11,21.4,7.26,20.7,8.06C19.98,8.76,19.03,8.64,18.63,9.09C18.35,9.39,18.4,9.69,18.72,9.99L20.37,11.66C21.42,12.74,21.42,13.44,20.35,14.49L14.37,20.47C13.3,21.52,12.59,21.52,11.52,20.45Z"/></svg>