<svg xmlns="http://www.w3.org/2000/svg" viewBox="0 0 24 24"><path d="M18.8,22L5.2,22C5.2,17.27,9.9,18,10.27,13.3L10.34,12.5L8.44,12.5C8.21,12.1,8.11,11.6,8.11,11.13L10.34,9.76L13.67,9.73L15.9,11.13C15.9,11.6,15.8,12.1,15.57,12.5L13.67,12.5L13.74,13.3C14.11,18,18.81,17.27,18.81,22Z" fill="currentColor"/><path d="M15.93,7.93L8.06,7.93C6.86,7.53,6.39,6.7,6.33,5.83L6.1,3.3C6.87,2.97,7.5,2.8,8.23,2.8L8.73,5L10.4,5L10.7,2.47C10.7,2.47,11.4,2.34,12,2.34C12.6,2.34,13.3,2.47,13.3,2.47L13.57,5L15.27,5L15.77,2.8C16.5,2.8,17.14,2.97,17.9,3.3L17.67,5.83C17.6,6.7,17.14,7.53,15.94,7.93Z" fill="currentColor"/></svg>