<svg xmlns="http://www.w3.org/2000/svg" viewBox="0 0 24 24"><path d="M8.8,21.63L3.33,23.2C2.36,23.5,1.96,23.2,1.96,22.17L1.96,4L0.93,4C0.33,4,0,3.67,0,3.07L0,2.94C0,2.34,0.33,2.01,0.93,2.01L1.96,2.01L1.96,1.94C1.96,1.34,2.29,1.01,2.89,1.01L2.99,1.01C3.59,1.01,3.92,1.34,3.92,1.94L3.92,2.01L20.02,2.01L20.02,1.94C20.02,1.34,20.35,1.01,20.95,1.01L21.08,1.01C21.68,1.01,22.01,1.34,22.01,1.94L22.01,2.01L23.04,2.01C23.64,2.01,23.97,2.34,23.97,2.94L23.97,3.07C23.97,3.67,23.64,4,23.04,4L22.01,4L22.01,22.17C22.01,23.2,21.61,23.5,20.64,23.2L15.17,21.63C12.77,20.96,11.17,20.96,8.77,21.63Z" fill="currentColor"/><path d="M3.97,4.57C3.97,5.6,4.37,6.04,5.4,6.17C9.8,6.6,14.2,6.6,18.6,6.17C19.63,6.04,20.03,5.6,20.03,4.57L20.03,4L3.96,4Z" fill="currentColor"/><path d="M10,16.93L10.8,13.16L9.9,13.09C9.53,13.06,9.53,11.46,9.87,11.59L11.74,12.36L11.31,14.53L12.01,14.96L12.71,14.53L12.28,12.36L14.11,11.59C14.48,11.46,14.48,13.06,14.11,13.09L13.21,13.16L13.98,16.93C14.68,16.4,15.01,15.76,15.01,14.9L15.01,11C15.01,9.33,13.68,7.97,12.01,7.97C10.38,7.97,9.01,9.34,9.01,11L9.01,14.9C9.01,15.77,9.34,16.4,10.01,16.93Z" fill="currentColor"/><path d="M7.07,19.67C7.2,19.54,7.34,19.34,7.4,18.94L8.6,18.21L9.5,19.28C9.6,19.38,9.97,19.11,10.1,18.98C10.27,18.85,10.3,18.61,8.83,16.91C7.36,15.21,7.13,15.24,6.96,15.38C6.83,15.48,6.53,15.81,6.59,15.95L7.49,16.95L6.52,17.98C6.19,18.01,5.95,18.08,5.79,18.21C5.36,18.58,5.32,19.18,5.69,19.58C6.02,20.01,6.62,20.05,7.06,19.68Z" fill="currentColor"/><path d="M8.1,12.1L8.1,10.93C8.1,10.5,8.17,10.1,8.33,9.76L7.8,9.26C6.97,8.56,5.7,8.76,5.7,8.76C5.7,8.76,5.7,10.03,6.53,10.73Z" fill="currentColor"/><path d="M16.93,19.67C17.36,20.04,17.96,20,18.3,19.57C18.67,19.17,18.63,18.57,18.2,18.2C18.07,18.07,17.8,18,17.47,17.97L16.5,16.94L17.4,15.94C17.47,15.81,17.17,15.47,17.03,15.37C16.86,15.24,16.63,15.04,15.16,16.74C13.69,18.44,13.73,18.84,13.89,18.97C14.02,19.1,14.39,19.37,14.49,19.27L15.39,18.2L16.59,18.93C16.66,19.33,16.79,19.53,16.92,19.66Z" fill="currentColor"/><path d="M15.9,10.93L15.9,12.1L17.47,10.73C18.3,10.03,18.3,8.76,18.3,8.76C18.3,8.76,17.03,8.56,16.23,9.26L15.66,9.76C15.83,10.09,15.89,10.49,15.89,10.93Z" fill="currentColor"/></svg>