<svg xmlns="http://www.w3.org/2000/svg" viewBox="0 0 24 24"><path d="M2,16L6,16L6,12L9.5,12C8.55,13.43,8,15.14,8,17C8,18.86,8.55,20.57,9.5,22L2.67,22C0.67,22,0,21.33,0,19.33L0,4.66C0,2.66,0.67,1.99,2.67,1.99L17.34,1.99C19.34,1.99,20.01,2.66,20.01,4.66L20.01,8.5C19.37,8.28,18.7,8.12,18.01,8.05L18.01,4L2.01,4Z" fill="currentColor"/><path d="M10.03,17C10.03,13.17,13.2,10.03,17,10.03C20.83,10.03,23.97,13.16,23.97,17C23.97,20.8,20.84,23.97,17,23.97C13.2,23.97,10.03,20.8,10.03,17Z" fill="currentColor"/><path d="M12.37,17.07C12.37,17.74,12.64,18,13.34,18L20.71,18C21.38,18,21.64,17.73,21.64,17.03L21.64,16.93C21.64,16.26,21.37,16,20.67,16L13.3,16C12.63,16,12.37,16.27,12.37,16.97Z" fill="currentColor"/></svg>