<svg xmlns="http://www.w3.org/2000/svg" viewBox="0 0 24 24" fill="currentColor"><path d="M10.85,20.42L4.92,14.5C3.85,13.43,3.85,12.72,4.9,11.63L6.42,10.05C6.72,9.75,7.04,9.58,7.45,9.98C7.92,10.5,7.92,11.5,8.55,12.13C9.36,12.88,10.65,12.88,11.4,12.03C12.15,11.26,12.15,10.06,11.4,9.33C10.75,8.66,9.66,8.79,9.18,8.36C8.73,7.91,8.93,7.58,9.23,7.25L10.83,5.66C11.9,4.58,12.6,4.58,13.68,5.63L15.33,7.26C15.65,7.58,15.93,7.66,16.25,7.39C16.7,6.96,16.57,6.06,17.3,5.31C18.1,4.61,19.23,4.66,19.98,5.39C20.7,6.11,20.73,7.26,20.03,8.06C19.3,8.76,18.36,8.64,17.95,9.09C17.67,9.39,17.73,9.69,18.05,9.99L18.23,10.18C17.75,10.07,17.25,10.02,16.74,10.02C12.99,10.02,9.99,13.02,9.99,16.77C9.99,18.35,10.52,19.8,11.42,20.95C11.24,20.82,11.05,20.66,10.85,20.45ZM11.52,16.75C11.52,13.88,13.9,11.52,16.75,11.52C19.62,11.52,21.98,13.87,21.98,16.75C21.98,19.6,19.63,21.98,16.75,21.98C13.9,21.98,11.52,19.6,11.52,16.75ZM14.05,19.4C14.4,19.75,14.75,19.77,15.12,19.4L16.77,17.75L18.47,19.4C18.83,19.75,19.17,19.75,19.52,19.4C19.88,19.05,19.9,18.67,19.52,18.33L17.85,16.68L19.52,15C19.88,14.65,19.88,14.31,19.52,13.95C19.17,13.6,18.83,13.58,18.45,13.95L16.78,15.63L15.13,13.98C14.78,13.62,14.43,13.62,14.08,13.98C13.73,14.33,13.7,14.7,14.08,15.05L15.73,16.68L14.06,18.35C13.7,18.7,13.7,19.05,14.06,19.4Z"/></svg>