<svg xmlns="http://www.w3.org/2000/svg" viewBox="0 0 24 24"><path d="M10.03,21.9L2.13,14C0.7,12.57,0.7,11.63,2.1,10.17L4.13,8.07C4.53,7.67,4.96,7.44,5.5,7.97C6.13,8.67,6.13,10,6.97,10.84C8.04,11.84,9.77,11.84,10.77,10.71C11.77,9.68,11.77,8.08,10.77,7.11C9.9,6.21,8.44,6.38,7.8,5.81C7.2,5.21,7.47,4.78,7.87,4.34L10,2.21C11.43,0.78,12.37,0.78,13.8,2.18L16,4.35C16.43,4.78,16.8,4.88,17.23,4.52C17.83,3.95,17.66,2.75,18.63,1.75C19.7,0.82,21.2,0.88,22.2,1.85C23.17,2.82,23.2,4.35,22.27,5.42C21.3,6.35,20.04,6.19,19.5,6.79C19.13,7.19,19.2,7.59,19.63,7.99L21.83,10.22C23.23,11.65,23.23,12.59,21.8,13.99L13.83,21.96C12.4,23.36,11.46,23.36,10.03,21.93Z" fill="currentColor"/></svg>