<svg xmlns="http://www.w3.org/2000/svg" viewBox="0 0 24 24" fill="currentColor"><path d="M21.3,10.5L19.36,11.49C21.49,12.49,20.65,13.97,19.93,17.5L22.01,19C20.96,19.98,19.96,20.5,19.01,20.5C18.69,19.38,18.13,18.6,18.5,17.22C19.43,13.94,20.06,13.12,18.03,12.17L18.18,12.1L18.03,12.17L12.6,9.5L10.9,10.33L16.46,12.98L13.95,14.26C13.28,14.63,12.73,14.63,12.06,14.26L4.76,10.53C4.03,10.16,4.03,9.88,4.74,9.53L12.03,5.99C12.73,5.63,13.29,5.63,13.98,5.99L21.26,9.51C21.99,9.89,21.99,10.13,21.31,10.51ZM12.8,19.25C11.1,19.25,9.12,18.5,7.57,17.42C6.95,16.95,6.82,16.5,7.07,15.75L7.72,13.9L11.15,15.53C12.55,16.2,13.47,16.2,14.82,15.55L16.3,14.85L17.5,17.38C16.28,18.43,14.8,19.25,12.8,19.25Z"/></svg>