<svg xmlns="http://www.w3.org/2000/svg" viewBox="0 0 24 24" fill="currentColor"><path d="M21.77,11.92C22,12.14,22,12.35,21.77,12.57L18.98,15.29C18.45,15.8,18.25,15.72,18.25,15L18.25,12.22L7.75,12.22L7.75,15C7.75,15.72,7.55,15.8,7.02,15.29L4.22,12.57C4,12.35,4,12.14,4.22,11.92L7.02,9.2C7.55,8.7,7.75,8.77,7.75,9.52L7.75,12.22L18.25,12.22L18.25,9.52C18.25,8.77,18.45,8.7,18.98,9.2ZM18.72,20.5L7.27,20.5C7.27,18.5,8.42,17.52,9.54,16.58C10.59,15.7,11.59,14.88,11.59,13.2L11.59,12.5L9.99,12.5C9.79,12.15,9.69,11.75,9.69,11.36L11.59,10.21C10.67,9.59,10.24,8.71,10.24,7.81C10.24,6.29,11.46,5.06,12.99,5.06C14.51,5.06,15.74,6.28,15.74,7.81C15.74,8.71,15.32,9.59,14.39,10.19L16.29,11.37C16.29,11.76,16.2,12.17,15.99,12.51L14.39,12.51L14.39,13.21C14.39,14.88,15.39,15.71,16.44,16.59C17.57,17.54,18.71,18.51,18.71,20.51Z"/></svg>