<svg xmlns="http://www.w3.org/2000/svg" viewBox="0 0 24 24"><path d="M3,15.2C3,14.17,3.33,13.57,4.23,13.07L6.73,11.64C7.63,11.14,7.9,10.54,7.76,9.51L7.06,4.64C6.76,2.67,7.33,2.01,9.33,2.01L14.66,2.01C16.66,2.01,17.23,2.68,16.93,4.64L16.75,5.82L21.96,0.61C22.39,0.18,22.86,0.18,23.29,0.61L23.39,0.71C23.81,1.13,23.82,1.59,23.42,2.01C23.41,2.02,23.4,2.03,23.39,2.04L16.24,9.19L9.42,16.01L2.09,23.34L2.06,23.37C1.63,23.8,1.16,23.8,0.73,23.37L0.63,23.27C0.2,22.84,0.2,22.37,0.63,21.94L6.56,16.01L2.99,16.01Z" fill="currentColor"/><path d="M11.4,23.37L10.63,18L13.3,18L12.6,23.37C12.57,23.8,12.3,24,12,24C11.73,24,11.47,23.8,11.4,23.37Z" fill="currentColor"/><path d="M12.3,16L16.88,11.42C16.99,11.5,17.12,11.59,17.27,11.66L19.74,13.06C20.67,13.56,21.01,14.16,21.01,15.19L21.01,15.99Z" fill="currentColor"/></svg>