<svg xmlns="http://www.w3.org/2000/svg" viewBox="0 0 24 24"><path d="M10.13,5.87L15.26,11C15.99,11.73,15.99,12.27,15.26,13L10.13,18.13C9.4,18.86,8.86,18.83,8.13,18.1L8.03,18.03C7.3,17.3,7.33,16.73,8.06,16L12.06,12L7.99,8C7.26,7.27,7.26,6.73,7.99,6L8.09,5.87C8.82,5.14,9.39,5.14,10.12,5.87Z" fill="currentColor"/><path d="M1,13.5C0.27,13.5,0,13.1,0,12.07L0,11.94C0,10.91,0.27,10.51,1,10.51L13.5,10.51L13.5,13.51Z" fill="currentColor"/><path d="M20.93,15.5L19.1,15.5C18.67,15.5,18.4,15.27,18.37,14.8L17.87,2.9C17.84,2.33,18.17,2,18.77,2L21.27,2C21.84,2,22.17,2.33,22.14,2.93L21.67,14.8C21.64,15.27,21.4,15.5,20.94,15.5Z" fill="currentColor"/><path d="M18.13,20.1C18.13,18.23,18.13,18.23,20,18.23C21.9,18.23,21.9,18.23,21.9,20.1C21.9,22.03,21.9,22.03,20,22.03C18.13,22.03,18.13,22.03,18.13,20.1Z" fill="currentColor"/></svg>