<svg xmlns="http://www.w3.org/2000/svg" viewBox="0 0 24 24"><path d="M3.33,22C3.33,21.65,3.36,21.34,3.4,21.06C3.39,21.08,3.37,21.09,3.36,21.11C3.58,19.78,4.31,19.25,5.2,18.78C5.8,18.46,6.49,18.17,7.13,17.67C7.68,17.22,8.12,16.79,8.41,16.35C8.76,15.8,8.86,15.24,8.65,14.62C8.56,14.34,8.4,14.05,8.17,13.74L7.6,14.37C7.07,14.94,6.1,15.94,5,15.94C4.28,15.96,3.92,16.22,3.65,16.55C3.63,16.57,3.62,16.59,3.6,16.61C3.36,16.93,3.18,17.31,2.87,17.6C2.7,17.73,0.97,17.33,0.34,16.8C-0.09,16.4,-0.13,15.73,0.27,15.17L1.94,12.84C2.32,12.31,2.51,11.89,2.66,11.47C2.81,11.05,2.92,10.62,3.14,10.07C3.2,9.9,3.27,9.69,3.43,9.46C3.45,9.43,3.46,9.41,3.48,9.38C3.5,9.35,3.52,9.33,3.54,9.3C3.64,9.17,3.78,9.03,3.94,8.9C4.47,8.43,4.94,8.13,5.04,7.57L5.24,6.57C5.31,6.27,5.64,5.77,6.21,6.34L7.68,7.84C8.03,7.86,8.37,7.92,8.72,8C8.76,8.01,8.8,8.02,8.83,8.03C8.9,8.05,8.98,8.07,9.05,8.09C12.14,9.03,14.88,12.44,14.88,17.5L14.88,20L14.88,22L8.38,22Z" fill="currentColor"/><path d="M19.3,20C19.33,17.96,18.02,17.68,16.86,17.1C16.84,16.48,16.79,15.88,16.7,15.3C17.07,15.59,17.52,15.83,18,15.83C19.17,15.83,19.2,16.63,19.73,17.13C19.86,17.26,21.23,16.93,21.76,16.5C22.09,16.17,22.13,15.63,21.79,15.2L20.46,13.33C19.83,12.46,19.86,11.96,19.49,11.06C19.39,10.86,19.26,10.49,18.86,10.16C18.43,9.76,18.06,9.49,17.96,9.06L17.79,8.26C17.76,8.03,17.46,7.59,17.02,8.06L15.85,9.33C15.31,9.35,14.8,9.45,14.33,9.6C13.91,9.05,13.44,8.55,12.95,8.11C13.57,7.77,14.23,7.54,14.92,7.43L15.79,6.6C17.36,5.1,19.12,5.97,19.59,7.63L19.79,8.33C19.79,8.33,19.82,8.4,20.12,8.63C20.75,9.2,21.12,9.86,21.32,10.4C21.89,11.87,21.72,11.73,22.02,12.17L23.39,14.07C24.29,15.3,24.16,17,23.02,18C22.56,18.39,21.8,18.75,21.13,18.96C21.33,19.66,21.36,20.63,21.28,22L16.85,22L16.85,20Z" fill="currentColor"/><path d="M5.21,18.79C4.9,19.25,4.35,19.97,3.41,21.06C3.63,19.77,4.35,19.25,5.21,18.79Z" fill="currentColor"/><path d="M10,0.8L10,5.33C10,5.96,9.8,6.06,9.3,5.66L6.37,3.26C6.17,3.06,6.17,2.93,6.37,2.76L9.3,0.46C9.8,0.06,10,0.16,10,0.79Z" fill="currentColor"/><path d="M7.9,4L7.9,2L15.67,2L15.67,4Z" fill="currentColor"/><path d="M14.73,5.64C14.2,6.07,14,5.97,14,5.27L14,0.8C14,0.17,14.2,0.07,14.7,0.47L17.63,2.77C17.83,2.94,17.83,3.07,17.63,3.27Z" fill="currentColor"/></svg>