<svg xmlns="http://www.w3.org/2000/svg" viewBox="0 0 24 24" fill="currentColor"><path d="M6.5,20.5C6.5,20.24,6.52,20,6.55,19.79C6.54,19.81,6.53,19.82,6.52,19.83C6.69,18.84,7.23,18.44,7.9,18.09C8.35,17.84,8.87,17.63,9.35,17.25C9.76,16.92,10.09,16.59,10.31,16.26C10.57,15.85,10.64,15.43,10.49,14.96C10.42,14.75,10.3,14.54,10.13,14.31L9.7,14.78C9.3,15.21,8.57,15.96,7.75,15.96C6.68,15.98,6.65,16.73,6.15,17.21C6.14,17.22,6.1,17.22,6.05,17.23C5.72,17.23,4.67,16.96,4.25,16.61C4.16,16.52,4.09,16.41,4.04,16.29C4.04,16.28,4.03,16.25,4.03,16.24C3.96,15.98,4.01,15.66,4.21,15.38L5.46,13.64C6.04,12.84,6.04,12.39,6.36,11.56C6.44,11.34,6.56,11.01,6.96,10.68C7.36,10.33,7.71,10.11,7.79,9.69L7.94,8.94C7.99,8.71,8.24,8.34,8.67,8.76L9.77,9.89C10.03,9.9,10.29,9.95,10.55,10.01C10.58,10.02,10.61,10.02,10.63,10.03C10.68,10.04,10.74,10.06,10.79,10.08C13.11,10.78,15.17,13.34,15.17,17.13L15.17,19.01L15.17,20.51L10.29,20.51ZM18.48,19C18.5,17.47,17.52,17.26,16.64,16.83C16.63,16.36,16.59,15.91,16.52,15.48C16.8,15.69,17.14,15.87,17.5,15.87C18.38,15.87,18.4,16.47,18.8,16.85C18.89,16.95,19.92,16.7,20.32,16.38C20.57,16.13,20.6,15.72,20.34,15.4L19.34,14C18.87,13.35,18.89,12.97,18.62,12.3C18.54,12.15,18.45,11.87,18.15,11.62C17.82,11.32,17.55,11.12,17.47,10.8L17.34,10.2C17.32,10.02,17.1,9.69,16.77,10.05L15.89,11C15.48,11.01,15.1,11.09,14.75,11.2C14.43,10.79,14.08,10.41,13.71,10.08C14.18,9.83,14.67,9.66,15.19,9.57L15.84,8.95C17.02,7.83,18.34,8.48,18.69,9.72L18.84,10.25C18.84,10.25,18.87,10.3,19.09,10.47C19.56,10.9,19.84,11.4,19.99,11.8C20.42,12.9,20.29,12.8,20.52,13.13L21.54,14.55C22.22,15.48,22.12,16.75,21.27,17.5C20.92,17.79,20.35,18.06,19.85,18.22C20,18.75,20.02,19.47,19.96,20.5L16.64,20.5L16.64,19ZM7.91,18.09C7.68,18.44,7.26,18.98,6.56,19.79C6.72,18.83,7.26,18.44,7.91,18.09ZM11.5,4.6L11.5,8C11.5,8.47,11.35,8.54,10.98,8.25L8.78,6.45C8.63,6.29,8.63,6.2,8.78,6.07L10.98,4.34C11.35,4.04,11.5,4.12,11.5,4.59ZM9.93,7L9.93,5.5L15.75,5.5L15.75,7ZM15.05,8.23C14.65,8.55,14.5,8.48,14.5,7.95L14.5,4.6C14.5,4.13,14.65,4.05,15.02,4.35L17.22,6.08C17.37,6.21,17.37,6.3,17.22,6.45Z"/></svg>