<svg xmlns="http://www.w3.org/2000/svg" viewBox="0 0 24 24"><path d="M1.67,16.17C1.67,12.6,3.7,10,8.64,10L9.11,10C9.71,10,10.04,10.33,10.04,10.93L10.04,13.06C10.04,13.66,10.37,13.99,10.97,13.99L11.1,13.99C11.7,13.99,12.03,13.66,12.03,13.06L12.03,10.93C12.03,10.33,12.36,10,12.96,10L21.06,10C21.66,10,21.99,10.33,21.99,10.93L21.99,14.13C21.99,14.73,21.66,15.13,21.09,15.3L19.09,15.77C16.69,16.34,16.66,16.1,14.99,19.44C11.96,25.47,1.66,24.01,1.66,16.17Z" fill="currentColor"/><path d="M7.43,7.1C7,7.53,6.53,7.53,6.13,7.07L4.13,4.87C3.73,4.4,3.73,3.94,4.16,3.5L4.26,3.43C4.69,3,5.16,3,5.56,3.46L7.53,5.63C7.93,6.1,7.93,6.56,7.5,7Z" fill="currentColor"/><path d="M10.94,6C10.34,6,10.01,5.67,10.01,5.07L10.01,1.94C10.01,1.34,10.34,1.01,10.94,1.01L11.07,1.01C11.67,1.01,12,1.34,12,1.94L12,5.07C12,5.67,11.67,6,11.07,6Z" fill="currentColor"/><path d="M15.87,7.07C15.47,7.54,15,7.54,14.57,7.1L14.5,7C14.07,6.57,14.07,6.1,14.47,5.63L16.44,3.46C16.84,2.99,17.31,2.99,17.74,3.43L17.84,3.5C18.27,3.93,18.27,4.4,17.87,4.87Z" fill="currentColor"/></svg>