<svg xmlns="http://www.w3.org/2000/svg" viewBox="0 0 24 24" fill="currentColor"><path d="M18.25,19L18.25,20.5L7.75,20.5L7.75,19ZM4.95,8.93C5.72,8.16,6.6,8.16,7.13,8.68C7.55,9.11,7.63,9.73,7.13,10.48L9.43,12.18C9.48,12.23,9.6,12.21,9.66,12.13L11.78,9.13L11.4,9.13C10.58,9.13,10.23,8.55,10.23,8C10.23,7.4,10.75,6.88,11.4,6.88L11.88,6.88L11.88,6.33C11.88,5.66,12.4,5.13,13,5.13C13.62,5.13,14.13,5.66,14.13,6.33L14.13,6.88L14.6,6.88C15.25,6.88,15.77,7.4,15.77,8C15.77,8.55,15.42,9.13,14.6,9.13L14.22,9.13L16.38,12.13C16.43,12.21,16.5,12.23,16.58,12.18L18.85,10.51C18.35,9.76,18.42,9.11,18.87,8.69C19.4,8.14,20.28,8.16,21.05,8.94L18.25,17.51L7.75,17.51Z"/></svg>