<svg xmlns="http://www.w3.org/2000/svg" viewBox="0 0 24 24" fill="currentColor"><path d="M6.58,20.5C5.81,20.5,5.51,20.2,5.51,19.43L5.51,6.58C5.51,5.81,5.81,5.51,6.58,5.51L6.68,5.51C7.45,5.51,7.75,5.81,7.75,6.58L7.75,19.43C7.75,20.2,7.45,20.5,6.68,20.5ZM20.5,9.57L20.5,16.42C20.5,17.19,20.2,17.49,19.43,17.49L16.38,17.49C14.88,17.49,14,17.14,12.93,16.12L11.97,15.24C11.43,14.7,10.9,14.49,10.12,14.49L6.69,14.49L6.67,5.49L10.1,5.49C11.6,5.49,12.47,5.82,13.6,6.82L14.7,7.8C15.28,8.3,15.8,8.49,16.58,8.49L19.43,8.49C20.2,8.49,20.5,8.79,20.5,9.57Z"/></svg>