<svg xmlns="http://www.w3.org/2000/svg" viewBox="0 0 24 24"><path d="M1.57,21.9C1.24,21.57,1.04,21.07,1.04,20.6C1.04,20.1,1.24,19.6,1.57,19.23C1.97,18.83,2.54,18.66,3.04,18.7L5.47,15.73L3.57,13.83C3.37,13.63,3.94,12.96,4.24,12.73C4.37,12.56,4.57,12.5,4.77,12.5C4.94,12.5,5.1,12.53,5.24,12.63C5.71,13.03,6.21,13.43,6.77,13.9L7.73,12.94L10.58,15.8L9.61,16.77C10.11,17.27,10.48,17.8,10.88,18.3C11.01,18.43,11.05,18.6,11.05,18.77C11.05,18.97,10.98,19.14,10.82,19.3C10.59,19.57,9.92,20.13,9.72,19.93L7.82,18.03L4.85,20.5C4.88,21,4.72,21.53,4.32,21.9C3.92,22.3,3.45,22.47,2.95,22.47C2.45,22.47,1.98,22.3,1.58,21.9Z" fill="currentColor"/><path d="M13.37,7.3L17.57,3.1C19.17,1.5,21.84,1.67,21.84,1.67C21.84,1.67,22.01,4.37,20.44,5.97L16.23,10.16Z" fill="currentColor"/><path d="M19.13,20.5L16.16,18.07L14.29,19.97C14.12,20.1,13.42,19.57,13.16,19.3C13.03,19.13,12.96,18.93,12.96,18.73C12.96,18.56,12.99,18.43,13.13,18.3C13.46,17.83,13.9,17.3,14.4,16.77L3.53,5.94C1.96,4.37,2.13,1.67,2.13,1.67C2.13,1.67,4.8,1.5,6.4,3.1L17.23,13.93C17.76,13.46,18.23,13,18.73,12.63C18.86,12.53,19.03,12.46,19.2,12.46C19.4,12.46,19.6,12.56,19.77,12.73C20,12.96,20.6,13.63,20.4,13.83L18.53,15.73L20.93,18.66C21.46,18.63,22,18.83,22.36,19.23C22.73,19.6,22.93,20.1,22.93,20.6C22.93,21.07,22.73,21.57,22.36,21.93C21.99,22.3,21.53,22.46,21.03,22.46C20.56,22.46,20.06,22.29,19.73,21.93C19.3,21.53,19.1,21,19.13,20.5Z" fill="currentColor"/></svg>