<svg xmlns="http://www.w3.org/2000/svg" viewBox="0 0 24 24"><path d="M1.04,11.73C-0.43,10.36,-0.36,9.56,1.34,8.53L9.74,3.3C11.44,2.27,12.57,2.27,14.27,3.3L22.64,8.53C24.34,9.56,24.41,10.4,22.94,11.73L21.01,13.53C21.01,10.76,17.58,9.03,12.04,9.03C6.54,9.03,3.07,10.76,3.07,13.53Z" fill="currentColor"/><path d="M5,13.4C5,11.93,7.7,11.03,11.97,11.03C16.3,11.03,19,11.93,19,13.4L19,18.27C14.5,21.27,13.77,22,12,22C10.23,22,9.5,21.27,5,18.27Z" fill="currentColor"/><path d="M22.03,24C20.86,24,20,23.97,20.3,22.57L21,19.34L21,13.54L23,11.21L23,19.34L23.77,22.57C24.1,23.97,23.14,24,22.04,24Z" fill="currentColor"/></svg>