<svg xmlns="http://www.w3.org/2000/svg" viewBox="0 0 24 24" fill="currentColor"><path d="M10.6,20.22L6.5,21.4C5.77,21.63,5.47,21.4,5.47,20.63L5.47,7L4.7,7C4.25,7,4,6.75,4,6.3L4,6.2C4,5.75,4.25,5.51,4.7,5.51L5.47,5.51L5.47,5.45C5.47,5,5.72,4.76,6.17,4.76L6.24,4.76C6.69,4.76,6.94,5,6.94,5.45L6.94,5.51L19.02,5.51L19.02,5.45C19.02,5,19.26,4.76,19.71,4.76L19.81,4.76C20.26,4.76,20.51,5,20.51,5.45L20.51,5.51L21.28,5.51C21.73,5.51,21.98,5.75,21.98,6.2L21.98,6.3C21.98,6.75,21.73,7,21.28,7L20.51,7L20.51,20.63C20.51,21.4,20.21,21.63,19.48,21.4L15.38,20.22C13.58,19.72,12.38,19.72,10.58,20.22ZM6.98,7.43C6.98,8.2,7.28,8.53,8.05,8.63C11.35,8.95,14.65,8.95,17.95,8.63C18.72,8.53,19.02,8.2,19.02,7.43L19.02,7L6.97,7ZM11.5,16.7L12.1,13.87L11.43,13.82C11.15,13.79,11.15,12.6,11.4,12.69L12.81,13.27L12.48,14.9L13.01,15.22L13.53,14.9L13.21,13.27L14.58,12.69C14.86,12.59,14.86,13.79,14.58,13.82L13.91,13.87L14.48,16.7C15.01,16.3,15.26,15.82,15.26,15.17L15.26,12.25C15.26,11,14.26,9.98,13.01,9.98C11.79,9.98,10.76,11,10.76,12.25L10.76,15.17C10.76,15.83,11.01,16.3,11.51,16.7ZM9.3,18.75C9.4,18.66,9.5,18.51,9.55,18.21L10.45,17.66L11.13,18.46C11.2,18.54,11.48,18.33,11.57,18.23C11.7,18.14,11.72,17.96,10.62,16.68C9.52,15.41,9.35,15.43,9.22,15.54C9.12,15.61,8.9,15.86,8.94,15.96L9.62,16.71L8.89,17.48C8.64,17.51,8.46,17.56,8.34,17.66C8.02,17.94,7.99,18.38,8.27,18.69C8.52,19.01,8.96,19.04,9.3,18.76ZM10.07,13.08L10.07,12.2C10.07,11.88,10.13,11.58,10.25,11.32L9.85,10.95C9.23,10.42,8.28,10.57,8.28,10.57C8.28,10.57,8.28,11.52,8.9,12.05ZM16.7,18.75C17.02,19.03,17.47,19,17.73,18.68C18,18.38,17.97,17.93,17.65,17.65C17.55,17.55,17.35,17.5,17.1,17.48L16.38,16.7L17.05,15.95C17.1,15.86,16.88,15.6,16.77,15.53C16.64,15.43,16.47,15.28,15.37,16.55C14.27,17.83,14.3,18.13,14.42,18.23C14.51,18.32,14.79,18.53,14.87,18.45L15.54,17.65L16.44,18.2C16.49,18.5,16.59,18.65,16.69,18.75ZM15.92,12.2L15.92,13.08L17.1,12.05C17.72,11.52,17.72,10.57,17.72,10.57C17.72,10.57,16.77,10.42,16.17,10.95L15.74,11.32C15.87,11.57,15.92,11.87,15.92,12.2Z"/></svg>