<svg xmlns="http://www.w3.org/2000/svg" viewBox="0 0 24 24" fill="currentColor"><path d="M13.3,17.63C15.1,17.63,16.43,16.6,16.43,15.23C16.43,14.4,15.9,13.78,15.33,13.35C15.8,12.96,16.25,12.36,16.25,11.53C16.25,10.16,14.95,9.13,13.17,9.13C11.52,9.13,10.38,9.9,9.75,10.61L10.72,11.76C11.4,11.08,12.15,10.61,13.22,10.61C14.19,10.61,14.77,10.98,14.77,11.68C14.77,12.33,14.34,12.66,12.87,12.66L11.92,12.66L11.92,14.1L12.87,14.1C14.37,14.1,14.95,14.35,14.95,15C14.95,15.68,14.33,16.18,13.3,16.18C12.18,16.18,11.35,15.58,10.73,15.06L9.75,16.16C10.43,16.86,11.65,17.64,13.3,17.64ZM9.23,20.5C6.48,20.5,5.5,19.52,5.5,16.77L5.5,9.22C5.5,7.1,6.05,5.75,7.8,5.49L8.5,6L8.5,4.89C8.5,4.17,8.78,3.99,9.25,3.99C9.72,3.99,10,4.17,10,4.89L10,6L10.77,5.49L13,5.49L15.23,5.49L16,6L16,4.89C16,4.17,16.28,3.99,16.75,3.99C17.22,3.99,17.5,4.17,17.5,4.89L17.5,6L18.2,5.49C19.95,5.74,20.5,7.09,20.5,9.22L20.5,16.77C20.5,19.53,19.52,20.5,16.77,20.5L13,20.5Z"/></svg>