<svg xmlns="http://www.w3.org/2000/svg" viewBox="0 0 24 24"><path d="M3,15.2C3,14.17,3.33,13.57,4.23,13.07L6.73,11.64C7.63,11.14,7.9,10.54,7.76,9.51L7.06,4.64C6.76,2.67,7.33,2.01,9.33,2.01L14.66,2.01C16.66,2.01,17.23,2.68,16.93,4.64L16.2,9.54C16.07,10.57,16.33,11.17,17.27,11.67L19.74,13.07C20.67,13.57,21.01,14.17,21.01,15.2L21.01,16L3.01,16Z" fill="currentColor"/><path d="M11.4,23.37L10.63,18L13.3,18L12.6,23.37C12.57,23.8,12.3,24,12,24C11.73,24,11.47,23.8,11.4,23.37Z" fill="currentColor"/></svg>