<svg xmlns="http://www.w3.org/2000/svg" viewBox="0 0 24 24" fill="currentColor"><path d="M5.25,13.75C4.9,14.03,4.55,13.98,4.28,13.62L4.22,13.52C3.95,13.17,4,12.83,4.35,12.55C5.35,11.85,6.6,11.1,7.82,10.7C8.97,11.69,10.5,12.32,13.02,12.32C15.52,12.32,17.07,11.7,18.22,10.7C19.42,11.09,20.67,11.84,21.65,12.55C22.02,12.83,22.08,13.17,21.8,13.52L21.75,13.62C21.47,13.97,21.12,14.02,20.75,13.75C20.09,13.28,19.2,12.68,18.25,12.4C18.25,16.1,17.58,19,13.02,19C8.9,19,7.75,16.52,7.75,12.4C6.75,12.68,5.93,13.28,5.25,13.75ZM7.64,21.25C7.2,21.25,6.92,21,6.89,20.55C6.84,18.92,7.47,17.63,9.12,16.2L9.52,18.13C8.67,18.68,8.32,19.43,8.39,20.55C8.45,21,8.22,21.25,7.77,21.25ZM18.38,21.25L18.28,21.25C17.83,21.25,17.61,21,17.66,20.55C17.73,19.43,17.38,18.68,16.53,18.15L16.89,16.25C18.54,17.61,19.19,18.93,19.14,20.55C19.11,21,18.84,21.25,18.39,21.25ZM17.37,9.25C14.72,11,11.27,11,8.65,9.25C9.3,7.88,10.92,7,13,7C15,7,16.65,7.88,17.37,9.25ZM13.02,10.82C8.85,10.82,7.2,8.5,7,5.45C6.98,5,7.23,4.75,7.68,4.75L7.8,4.75C8.25,4.75,8.5,5,8.53,5.45C8.7,7.64,9.83,9.32,13.03,9.32C16.2,9.32,17.3,7.65,17.48,5.45C17.5,5,17.76,4.75,18.21,4.75L18.3,4.75C18.75,4.75,19,5,18.98,5.45C18.77,8.5,17.16,10.82,13.03,10.82Z"/></svg>