<svg xmlns="http://www.w3.org/2000/svg" viewBox="0 0 24 24"><path d="M9.13,21.9L1.23,14C-0.2,12.57,-0.2,11.63,1.2,10.17L3.23,8.07C3.63,7.67,4.06,7.44,4.6,7.97C5.23,8.67,5.23,10,6.07,10.84C7.14,11.84,8.87,11.84,9.87,10.71C10.87,9.68,10.87,8.08,9.87,7.11C9,6.21,7.54,6.38,6.9,5.81C6.3,5.21,6.57,4.78,6.97,4.34L9.1,2.21C10.53,0.78,11.47,0.78,12.9,2.18L15.1,4.35C15.53,4.78,15.9,4.88,16.33,4.52C16.93,3.95,16.76,2.75,17.73,1.75C18.8,0.82,20.3,0.88,21.3,1.85C22.27,2.82,22.3,4.35,21.37,5.42C20.4,6.35,19.14,6.19,18.6,6.79C18.23,7.19,18.3,7.59,18.73,7.99L18.97,8.24C18.33,8.1,17.67,8.03,16.99,8.03C11.99,8.03,7.99,12.03,7.99,17.03C7.99,19.14,8.7,21.07,9.9,22.6C9.66,22.43,9.4,22.21,9.13,21.93Z" fill="currentColor"/><path d="M10.03,17C10.03,13.17,13.2,10.03,17,10.03C20.83,10.03,23.97,13.16,23.97,17C23.97,20.8,20.84,23.97,17,23.97C13.2,23.97,10.03,20.8,10.03,17Z" fill="currentColor"/><path d="M13.4,20.53C13.87,21,14.33,21.03,14.83,20.53L17.03,18.33L19.3,20.53C19.77,21,20.23,21,20.7,20.53C21.17,20.06,21.2,19.56,20.7,19.1L18.47,16.9L20.7,14.67C21.17,14.2,21.17,13.74,20.7,13.27C20.23,12.8,19.77,12.77,19.27,13.27L17.04,15.5L14.84,13.3C14.37,12.83,13.91,12.83,13.44,13.3C12.97,13.77,12.94,14.27,13.44,14.73L15.64,16.9L13.41,19.13C12.94,19.6,12.94,20.06,13.41,20.53Z" fill="currentColor"/></svg>