<svg xmlns="http://www.w3.org/2000/svg" viewBox="0 0 24 24" fill="currentColor"><path d="M4.7,12.72C7.17,11.73,7.52,10.6,6.02,8.4L5.33,7.4L6.55,7.77C9.1,8.52,10,7.85,10.02,5.2L10.04,4L10.79,4.95C12.42,7.05,13.57,7.05,15.2,4.95L15.95,4L15.97,5.2C15.99,7.85,16.89,8.52,19.44,7.77L20.66,7.4L19.97,8.4C18.47,10.59,18.82,11.72,21.29,12.72L21.99,13L21.29,13.28C18.82,14.28,18.47,15.4,19.97,17.61L20.66,18.6L19.44,18.23C16.89,17.48,15.99,18.15,15.97,20.8L15.95,22L15.2,21.05C13.57,18.95,12.42,18.95,10.79,21.05L10.04,22L10.02,20.8C10,18.15,9.1,17.48,6.55,18.23L5.33,18.6L6.02,17.61C7.52,15.41,7.17,14.28,4.7,13.28L4,13ZM17.5,13C17.5,10.64,15.39,8.5,13,8.5C10.64,8.5,8.5,10.64,8.5,13C8.5,15.39,10.64,17.5,13,17.5C15.38,17.5,17.5,15.38,17.5,13ZM16,13C16,14.76,14.76,16,13,16C11.26,16,10,14.76,10,13C10,11.26,11.26,10,13,10C14.76,10,16,11.26,16,13Z"/></svg>