<svg xmlns="http://www.w3.org/2000/svg" viewBox="0 0 24 24"><path d="M5,11.2C3.67,11.57,2.57,12.37,1.67,13C1.2,13.37,0.74,13.3,0.37,12.83L0.3,12.7C-0.07,12.23,0,11.77,0.47,11.4C1.8,10.47,3.47,9.47,5.1,8.93C6.63,10.26,8.67,11.1,12.03,11.1C15.36,11.1,17.43,10.27,18.96,8.93C20.56,9.46,22.23,10.46,23.53,11.4C24.03,11.77,24.1,12.23,23.73,12.7L23.66,12.83C23.29,13.3,22.83,13.36,22.33,13C21.46,12.37,20.26,11.57,19,11.2C19,16.13,18.1,20,12.03,20C6.53,20,5,16.7,5,11.2Z" fill="currentColor"/><path d="M4.86,23C4.26,23,3.89,22.67,3.86,22.07C3.79,19.9,4.63,18.17,6.83,16.27L7.36,18.84C6.23,19.57,5.76,20.57,5.86,22.07C5.93,22.67,5.63,23,5.03,23Z" fill="currentColor"/><path d="M19.17,23L19.04,23C18.44,23,18.14,22.67,18.21,22.07C18.31,20.57,17.84,19.57,16.71,18.87L17.18,16.34C19.38,18.14,20.25,19.91,20.18,22.07C20.15,22.67,19.78,23,19.18,23Z" fill="currentColor"/><path d="M12,4C14.67,4,16.87,5.17,17.83,7C14.3,9.33,9.7,9.33,6.2,7C7.07,5.17,9.23,4,12,4Z" fill="currentColor"/><path d="M12.03,9.1C6.46,9.1,4.26,6,4,1.93C3.97,1.33,4.3,1,4.9,1L5.07,1C5.67,1,6,1.33,6.04,1.93C6.27,4.86,7.77,7.1,12.04,7.1C16.27,7.1,17.74,4.87,17.97,1.93C18,1.33,18.34,1,18.94,1L19.07,1C19.67,1,20,1.33,19.97,1.93C19.7,6,17.54,9.1,12.04,9.1Z" fill="currentColor"/></svg>