<svg xmlns="http://www.w3.org/2000/svg" viewBox="0 0 24 24" fill="currentColor"><path d="M8.5,7.6C10.32,7.55,11.27,6.98,13,5.5C14.7,6.98,15.72,7.6,17.5,7.6L17.5,13.75C17.5,15.27,16.02,16.45,13,18.68C9.9,16.45,8.5,15.28,8.5,13.75ZM4.32,20.67C4.1,20.45,4,20.15,4,19.85C4,19.49,4.15,19.15,4.45,18.89C4.73,18.65,5.37,18.59,5.42,18.57L5.4,18.57L6.92,16.97L5.78,15.65C5.68,15.52,6.08,15.12,6.28,14.95C6.38,14.85,6.5,14.82,6.6,14.82C6.73,14.82,6.85,14.84,6.92,14.95L10.4,18.98C10.47,19.05,10.49,19.15,10.49,19.25C10.49,19.41,10.42,19.55,10.29,19.65C10.09,19.8,9.64,20.16,9.52,20.03L8.39,18.7L8.37,18.7L6.55,19.9C6.53,19.95,6.38,20.58,6.1,20.8C5.88,21.02,5.57,21.12,5.27,21.12C4.92,21.12,4.58,20.97,4.32,20.67ZM5.15,7.9C4,6.92,4,5.12,4,5.12C4,5.12,4.28,5.07,4.65,5.07C5.3,5.07,6.25,5.2,6.96,5.8L7.78,6.53L7.71,6.53C7.25,6.53,7.01,6.77,7.01,7.22L7.01,9.47ZM17.63,18.7L17.6,18.7L16.48,20.03C16.35,20.16,15.9,19.8,15.71,19.65C15.58,19.55,15.5,19.41,15.5,19.25C15.5,19.16,15.53,19.05,15.6,18.98L19.07,14.95C19.15,14.85,19.28,14.82,19.4,14.82C19.52,14.82,19.64,14.84,19.72,14.95C19.92,15.12,20.32,15.53,20.22,15.65L19.07,16.97L20.6,18.57L20.57,18.57C20.63,18.59,21.27,18.65,21.55,18.89C21.85,19.14,22,19.49,22,19.85C22,20.15,21.9,20.45,21.68,20.67C21.43,20.97,21.08,21.12,20.72,21.12C20.42,21.12,20.12,21.02,19.9,20.8C19.62,20.57,19.47,19.95,19.45,19.9ZM11.45,13.75C11.97,13.75,12.37,13.32,12.37,12.75C12.37,12.15,11.64,12.05,11.64,10.98C11.64,10.35,12.14,9.68,12.99,9.68C13.97,9.68,14.42,10.35,14.42,10.98C14.42,12.05,13.62,12.15,13.62,12.75C13.62,13.33,14.01,13.75,14.54,13.75L17.48,13.75L17.48,12.25L15.44,12.25C15.44,12.25,15.81,11.65,15.81,10.88C15.81,9.28,14.41,8.25,12.98,8.25C11.61,8.25,10.21,9.38,10.21,10.88C10.21,11.65,10.56,12.25,10.56,12.25L8.49,12.25L8.49,13.75ZM19,7.23C19,6.78,18.75,6.53,18.3,6.53L18.23,6.53L19.05,5.8C19.75,5.2,20.7,5.07,21.36,5.07C21.73,5.07,22.01,5.13,22.01,5.13C22.01,5.13,21.98,6.93,20.86,7.9L19.01,9.48Z"/></svg>