<svg xmlns="http://www.w3.org/2000/svg" viewBox="0 0 24 24"><path d="M21.17,22L2.84,22C0.77,22,0.11,19.43,1.77,17.83L9.5,10.1C10.23,9.37,10.5,8.7,10.5,7.67L10.5,6.5L7.97,6.5C7.37,6.5,7.04,6.17,7.04,5.57L7.04,4.44C7.04,3.84,7.37,3.51,7.97,3.51L10.5,3.51L10.5,0.94C10.5,0.34,10.83,0.01,11.43,0.01L12.56,0.01C13.16,0.01,13.49,0.34,13.49,0.94L13.49,3.51L16.02,3.51C16.62,3.51,16.95,3.84,16.95,4.44L16.95,5.57C16.95,6.17,16.62,6.5,16.02,6.5L13.49,6.5L13.49,7.7C13.49,8.73,13.79,9.4,14.49,10.13L22.22,17.83C23.89,19.43,23.22,22,21.15,22Z" fill="currentColor"/></svg>