<svg xmlns="http://www.w3.org/2000/svg" viewBox="0 0 24 24"><path d="M24,12.06C24,12.66,23.67,12.99,23.07,12.99L21.24,12.99C20.74,17.32,17.31,20.72,13.01,21.26L13.01,23.06C13.01,23.66,12.68,23.99,12.08,23.99L11.95,23.99C11.35,23.99,11.02,23.66,11.02,23.06L11.02,21.26C6.69,20.73,3.29,17.33,2.75,12.99L0.95,12.99C0.35,12.99,0.02,12.66,0.02,12.06L0.02,11.93C0.02,11.33,0.35,11,0.95,11L2.75,11C3.28,6.67,6.68,3.27,11.02,2.73L11.02,0.93C11.02,0.33,11.35,0,11.95,0L12.08,0C12.68,0,13.01,0.33,13.01,0.93L13.01,2.73C17.31,3.26,20.74,6.66,21.24,11L23.07,11C23.67,11,24,11.33,24,11.93Z" fill="currentColor"/><path d="M4.77,13C5.27,16.23,7.77,18.73,11,19.23L11,16.73C11,16.26,11.33,16,11.93,16L12.06,16C12.66,16,12.99,16.27,12.99,16.73L12.99,19.23C16.22,18.73,18.72,16.23,19.22,13L16.72,13C16.25,13,15.99,12.67,15.99,12.07L15.99,11.94C15.99,11.34,16.26,11.01,16.72,11.01L19.22,11.01C18.72,7.78,16.22,5.28,12.99,4.78L12.99,7.28C12.99,7.75,12.66,8.01,12.06,8.01L11.93,8.01C11.33,8.01,11,7.74,11,7.28L11,4.78C7.77,5.28,5.27,7.78,4.77,11.01L7.27,11.01C7.74,11.01,8,11.34,8,11.94L8,12.07C8,12.67,7.73,13,7.27,13Z" fill="currentColor"/></svg>