<svg xmlns="http://www.w3.org/2000/svg" viewBox="0 0 24 24" fill="currentColor"><path d="M19.43,20.5L6.58,20.5C5.81,20.5,5.51,20.2,5.51,19.43L5.51,11.83C5.51,11.06,5.73,10.55,6.31,10.05L12.21,4.95C12.79,4.45,13.24,4.45,13.81,4.95L19.71,10.05C20.29,10.55,20.52,11.05,20.52,11.83L20.52,19.43C20.52,20.2,20.22,20.5,19.44,20.5ZM9.42,18.27C9.48,18.8,9.67,19,10.2,19L9.77,19C10.29,19,10.46,18.8,10.42,18.27C10.42,17.62,10.64,17.25,11.09,16.98C11.57,17.3,12.2,17.5,13.02,17.5C13.87,17.5,14.5,17.3,14.95,16.98C15.4,17.25,15.62,17.63,15.62,18.27C15.57,18.8,15.75,19,16.28,19L15.83,19C16.35,19,16.55,18.8,16.6,18.27C16.58,17.37,16.3,16.75,15.65,16.12C15.92,15.54,16,14.82,16,14.1C16.52,14.25,16.97,14.47,17.33,14.7C17.75,15,18.02,14.97,18.32,14.55L18.08,14.9C18.38,14.47,18.35,14.2,17.93,13.9C17.35,13.53,16.7,13.2,16,12.98C15.23,13.63,14.2,14.05,13.02,14.05C11.84,14.05,10.82,13.62,10.04,12.98C9.32,13.2,8.69,13.53,8.12,13.9C7.69,14.2,7.67,14.48,7.97,14.9L7.69,14.55C7.99,14.97,8.27,15,8.69,14.7C9.04,14.47,9.46,14.25,9.98,14.1C9.98,14.85,10.11,15.54,10.38,16.1C9.73,16.75,9.43,17.37,9.41,18.27ZM13.02,13.3C15.22,13.3,16.27,12,16.47,9.98C16.5,9.45,16.3,9.25,15.78,9.25L16.23,9.25C15.7,9.25,15.5,9.45,15.48,9.98C15.4,10.63,15.23,11.15,14.9,11.55C14.4,11.05,13.72,10.75,13,10.75C12.27,10.75,11.6,11.03,11.1,11.52C10.8,11.15,10.6,10.6,10.56,9.97C10.5,9.44,10.31,9.24,9.78,9.24L10.23,9.24C9.71,9.24,9.51,9.44,9.54,9.97C9.74,11.99,10.81,13.29,13.04,13.29Z"/></svg>