<svg xmlns="http://www.w3.org/2000/svg" viewBox="0 0 24 24"><path d="M12.07,14L11.94,14C11.34,14,11.01,13.67,11.01,13.07L11.01,3.44C11.01,2.41,11.34,2.01,12.18,2.01L21.01,2.01C21.84,2.01,22.08,2.31,21.61,2.81L18.68,6.01L21.45,9.04C22.02,9.64,21.95,10.01,21.28,10.01L13.01,10.01L13.01,13.08C13.01,13.68,12.68,14.01,12.08,14.01Z" fill="currentColor"/><path d="M2.97,20C2.37,20,2.04,19.67,2.04,19.07L2.04,18.94C2.04,18.34,2.37,18.01,2.97,18.01L21.1,18.01C21.7,18.01,22.03,18.34,22.03,18.94L22.03,19.07C22.03,19.67,21.7,20,21.1,20Z" fill="currentColor"/><path d="M9,18.97C9,17.4,10.4,16,12.03,16C13.6,16,15,17.4,15,18.97C15,20.6,13.6,22,12.03,22C10.4,22,9,20.6,9,18.97Z" fill="currentColor"/></svg>