<svg xmlns="http://www.w3.org/2000/svg" viewBox="0 0 24 24"><path d="M19,20L19,22L5,22L5,20Z" fill="currentColor"/><path d="M1.27,6.57C2.3,5.54,3.47,5.54,4.17,6.24C4.74,6.81,4.84,7.64,4.17,8.64L7.24,10.91C7.31,10.98,7.47,10.94,7.54,10.84L10.37,6.84L9.87,6.84C8.77,6.84,8.3,6.07,8.3,5.34C8.3,4.54,9,3.84,9.87,3.84L10.5,3.84L10.5,3.11C10.5,2.21,11.2,1.51,12,1.51C12.83,1.51,13.5,2.21,13.5,3.11L13.5,3.84L14.13,3.84C15,3.84,15.7,4.54,15.7,5.34C15.7,6.07,15.23,6.84,14.13,6.84L13.63,6.84L16.5,10.84C16.57,10.94,16.67,10.97,16.77,10.91L19.8,8.68C19.13,7.68,19.23,6.81,19.83,6.25C20.53,5.52,21.7,5.55,22.73,6.58L19,18.01L5,18.01Z" fill="currentColor"/></svg>