<svg xmlns="http://www.w3.org/2000/svg" viewBox="0 0 24 24" fill="currentColor"><path d="M9.25,19L16.75,19C16.75,15.95,13.77,17.55,13.77,15.17L13.77,13.17C13.77,12.4,13.98,11.87,14.47,11.3L16.22,9.32C16.99,8.45,8.99,8.42,9.77,9.3L11.54,11.3C12.07,11.88,12.27,12.41,12.27,13.18L12.27,15.18C12.27,17.56,9.25,15.95,9.25,19.01ZM8.83,20.5C8.06,20.5,7.76,20.2,7.76,19.43C7.78,16.5,8.08,16.18,11.04,13C8.09,9.83,7.79,9.5,7.76,6.57C7.76,5.8,8.06,5.5,8.83,5.5L17.18,5.5C17.95,5.5,18.25,5.8,18.25,6.57C18.23,9.5,17.93,9.82,14.97,13C17.92,16.17,18.22,16.5,18.25,19.43C18.25,20.2,17.95,20.5,17.18,20.5Z"/></svg>