<svg xmlns="http://www.w3.org/2000/svg" viewBox="0 0 24 24"><path d="M16.1,3.13L12.9,7.23C12.23,8.06,11.77,8.06,11.1,7.23L7.9,3.16C7.33,2.43,7.53,1.99,8.47,1.99L15.54,1.99C16.44,1.99,16.67,2.42,16.11,3.12Z" fill="currentColor"/><path d="M7.9,20.83L11.1,16.76C11.77,15.93,12.23,15.93,12.9,16.76L16.1,20.86C16.67,21.56,16.43,21.99,15.53,21.99L8.46,21.99C7.53,21.99,7.33,21.56,7.89,20.82Z" fill="currentColor"/><path d="M20.87,16.1L16.77,12.9C15.94,12.23,15.94,11.77,16.77,11.1L20.84,7.9C21.57,7.33,22.01,7.53,22.01,8.47L22.01,15.54C22.01,16.44,21.58,16.67,20.88,16.11Z" fill="currentColor"/><path d="M3.17,7.9L7.24,11.1C8.07,11.77,8.07,12.23,7.24,12.9L3.14,16.1C2.44,16.67,2.01,16.43,2.01,15.53L2.01,8.46C2.01,7.53,2.44,7.33,3.18,7.89Z" fill="currentColor"/></svg>