<svg xmlns="http://www.w3.org/2000/svg" viewBox="0 0 24 24"><path d="M7.3,8.53L10.2,6.43L16.1,12.26L13.87,15.33L11.64,13.83L10.11,9.43Z" fill="currentColor"/><path d="M2.17,22L2.17,20.67C2.17,18.9,3.5,18,6.14,18L14.17,18C16.8,18,18.17,18.9,18.17,20.67L18.17,22Z" fill="currentColor"/><path d="M16.9,11.17L11.33,5.64C10.76,4.51,11,3.54,11.56,2.91L13.49,0.68C14.16,0.88,14.72,1.21,15.26,1.75L14.06,3.72L15.26,4.92L17.29,3.32C17.29,3.32,17.89,3.72,18.32,4.19C18.79,4.62,19.19,5.22,19.19,5.22L17.59,7.25L18.82,8.45L20.75,7.25C21.28,7.78,21.62,8.38,21.82,9.02L19.59,10.95C18.92,11.52,18.02,11.75,16.89,11.18Z" fill="currentColor"/><path d="M13.33,16.67L4.84,16.67L5.14,14.9L8.11,13.57Z" fill="currentColor"/><path d="M3.6,13.17L5.77,12.07L4.17,10.04Z" fill="currentColor"/><path d="M3.6,8.03L4.73,7L5.36,9.13Z" fill="currentColor"/></svg>