<svg xmlns="http://www.w3.org/2000/svg" viewBox="0 0 24 24" fill="currentColor"><path d="M16.08,6.35L13.68,9.42C13.17,10.04,12.83,10.04,12.33,9.42L9.93,6.37C9.5,5.82,9.65,5.49,10.35,5.49L15.66,5.49C16.33,5.49,16.5,5.81,16.08,6.34ZM9.93,19.62L12.33,16.57C12.83,15.95,13.17,15.95,13.68,16.57L16.08,19.64C16.5,20.17,16.32,20.49,15.65,20.49L10.35,20.49C9.65,20.49,9.5,20.17,9.92,19.62ZM19.65,16.08L16.58,13.68C15.96,13.17,15.96,12.83,16.58,12.33L19.63,9.93C20.18,9.5,20.51,9.65,20.51,10.35L20.51,15.66C20.51,16.33,20.19,16.5,19.66,16.08ZM6.38,9.93L9.43,12.33C10.05,12.83,10.05,13.17,9.43,13.68L6.36,16.08C5.83,16.5,5.51,16.32,5.51,15.65L5.51,10.35C5.51,9.65,5.83,9.5,6.39,9.92ZM7.8,13.75L7.8,12.25L10.75,12.25L10.75,13.75ZM12.25,18.23L12.25,7.78L13.75,7.78L13.75,18.23ZM15.25,13.75L15.25,12.25L18.23,12.25L18.23,13.75Z"/></svg>