<svg xmlns="http://www.w3.org/2000/svg" viewBox="0 0 24 24" fill="currentColor"><path d="M11.5,6.6L10.9,7.15C9.65,8.3,8.35,8.63,7.7,9.38C6.87,10.35,6.7,10.78,5.52,9.4L4.37,8.05C3.8,7.37,4.3,6.8,4.9,6.85C5.4,7.4,6.7,8.3,7.65,7.47L10.33,5.15C12.78,3.02,14.51,4.57,14.51,6.17C14.51,9.87,14.51,10.9,16.08,11.93L9.93,11.93C11.51,10.9,11.51,9.88,11.51,6.6ZM9.15,15.9L9.92,16.13C11.55,16.65,12.47,17.61,13.45,17.8C14.7,18.03,15.15,17.95,14.55,19.68L13.95,21.33C13.67,22.17,12.92,22.02,12.65,21.48C12.88,20.78,13.03,19.2,11.83,18.8L8.48,17.62C5.4,16.57,5.9,14.3,7.28,13.5C10.48,11.64,11.38,11.15,11.48,9.27L14.55,14.6C12.88,13.75,11.98,14.25,9.15,15.9ZM18.35,13.28L18.17,12.51C17.8,10.83,18.17,9.56,17.85,8.61C17.42,7.41,17.16,7.05,18.92,6.71L20.67,6.41C21.52,6.24,21.77,6.96,21.45,7.46C20.72,7.61,19.27,8.28,19.52,9.51L20.19,13.01C20.81,16.18,18.59,16.91,17.21,16.11C14.01,14.25,13.11,13.73,11.44,14.58L14.51,9.26C14.61,11.13,15.51,11.66,18.34,13.29Z"/></svg>