<svg xmlns="http://www.w3.org/2000/svg" viewBox="0 0 24 24" fill="currentColor"><path d="M11.52,19.13L11.52,17.5L9,17.5C7.5,17.5,6.99,17,6.99,15.5L6.99,7.49C6.99,5.99,7.5,5.49,9,5.49L17,5.49C18.5,5.49,19,5.99,19,7.49L19,15.5C19,17,18.5,17.5,17,17.5L14.42,17.5L14.42,19.13L15.57,19.13C17.07,19.13,17.7,19.6,18.07,21.05L18.05,20.98C15.92,22.23,10.07,22.23,7.94,20.98L7.92,21.05C8.3,19.61,8.92,19.13,10.42,19.13ZM5.07,13.77C4.3,13.68,4,13.32,4,12.55L4,10.45C4,9.68,4.3,9.33,5.07,9.23L5.5,9.15L5.5,13.86ZM16.59,14L15.92,12.65C14.18,13.52,11.83,13.52,10.09,12.65L9.42,14C11.48,15.02,14.54,15.02,16.59,14ZM11.88,10.02C11.88,9.4,11.35,8.88,10.75,8.88C10.13,8.88,9.63,9.4,9.63,10.02C9.63,10.62,10.13,11.13,10.75,11.13C11.35,11.13,11.88,10.62,11.88,10.02ZM16.38,10.02C16.38,9.4,15.87,8.88,15.25,8.88C14.65,8.88,14.13,9.4,14.13,10.02C14.13,10.62,14.65,11.13,15.25,11.13C15.87,11.13,16.38,10.62,16.38,10.02ZM20.93,13.77L20.5,13.85L20.5,9.15L20.93,9.22C21.7,9.32,22,9.67,22,10.44L22,12.54C22,13.32,21.7,13.67,20.93,13.77Z"/></svg>