<svg xmlns="http://www.w3.org/2000/svg" viewBox="0 0 24 24" fill="currentColor"><path d="M4.78,12.8C3.68,11.77,3.73,11.17,5.01,10.4L11.31,6.48C12.58,5.7,13.43,5.7,14.7,6.48L20.98,10.4C22.25,11.17,22.31,11.8,21.21,12.8L19.76,14.15C19.76,12.07,17.19,10.77,13.03,10.77C8.9,10.77,6.3,12.07,6.3,14.15ZM7.75,14.05C7.75,12.95,9.77,12.27,12.98,12.27C16.22,12.27,18.25,12.95,18.25,14.05L18.25,17.7C14.88,19.95,14.33,20.5,13,20.5C11.67,20.5,11.13,19.95,7.75,17.7ZM20.52,22C19.64,22,19,21.98,19.23,20.93L19.75,18.5L19.75,14.15L21.25,12.41L21.25,18.5L21.83,20.93C22.07,21.98,21.36,22,20.53,22Z"/></svg>