<svg xmlns="http://www.w3.org/2000/svg" viewBox="0 0 24 24" fill="currentColor"><path d="M5.5,20.27C5.5,18.77,5.97,18.1,7.35,17.55L8.48,17.1C10.63,16.25,10.9,16.07,10.9,15.5C10.9,13.78,9.53,13.78,9.53,10.8C9.53,10.58,9.54,10.36,9.56,10.15L11.92,11.28C12.54,11.58,13.46,11.58,14.08,11.28L16.44,10.15C16.46,10.36,16.47,10.59,16.47,10.8C16.47,13.78,15.02,13.78,15.02,15.5C15.02,16.08,15.32,16.23,17.45,17.08L18.65,17.55C20.02,18.1,20.5,18.77,20.5,20.27L20.5,20.5L5.5,20.5ZM13.65,10.35C13.18,10.58,12.83,10.58,12.36,10.35L6.45,7.53C5.98,7.3,5.98,7.15,6.45,6.93L13,4L19.52,6.93C20,7.15,20.03,7.3,19.55,7.53L17.73,8.4C18.95,9.13,19.28,10.11,18.53,12.66L20.55,13.73C19.78,14.43,19.08,14.8,18.38,14.8C17.8,14,17.2,13.5,17.48,12.42C18.18,10.02,17.95,9.48,16.75,8.88L12.7,6.87L11.5,7.47L15.57,9.45Z"/></svg>