<svg xmlns="http://www.w3.org/2000/svg" viewBox="0 0 24 24"><path d="M7,20L17,20C17,15.93,13.03,18.07,13.03,14.9L13.03,12.23C13.03,11.2,13.3,10.5,13.96,9.73L16.29,7.1C17.32,5.93,6.66,5.9,7.69,7.07L10.06,9.74C10.76,10.51,11.03,11.21,11.03,12.24L11.03,14.91C11.03,18.08,7,15.94,7,20.01Z" fill="currentColor"/><path d="M6.44,22C5.41,22,5.01,21.6,5.01,20.57C5.04,16.67,5.44,16.24,9.38,12C5.45,7.77,5.05,7.33,5.01,3.43C5.01,2.4,5.41,2,6.44,2L17.57,2C18.6,2,19,2.4,19,3.43C18.97,7.33,18.57,7.76,14.63,12C18.56,16.23,18.96,16.67,19,20.57C19,21.6,18.6,22,17.57,22Z" fill="currentColor"/></svg>