<svg xmlns="http://www.w3.org/2000/svg" viewBox="0 0 24 24"><path d="M15.5,2L13.5,2L13.5,3.62C17.7,4.29,21,7.73,21.45,12L18.45,12C18.06,8.59,15.66,6.5,12.01,6.5C8.35,6.5,5.95,8.59,5.57,12L2.57,12C3.02,7.73,6.32,4.29,10.52,3.62L10.52,2L8.52,2C8.52,0.3,8.95,0,12.02,0C15.09,0,15.52,0.3,15.52,2Z" fill="currentColor"/><path d="M10.56,12L11.5,8L12.5,8L13.45,12Z" fill="currentColor"/><path d="M18.44,24C17.41,24,17.01,23.6,17.01,22.57L17.01,15.44C17.01,14.41,17.41,14.01,18.44,14.01L21.57,14.01C22.6,14.01,23,14.41,23,15.44L23,22.57C23,23.6,22.6,24,21.57,24Z" fill="currentColor"/><path d="M5.57,24L1,24L1,22L5,22L5,20L2.43,20C1.4,20,1,19.6,1,18.57L1,15.44C1,14.41,1.4,14.01,2.43,14.01L5.56,14.01C6.59,14.01,6.99,14.41,6.99,15.44L6.99,22.57C6.99,23.6,6.59,24,5.56,24Z" fill="currentColor"/><path d="M3,18L5,18L5,16L3,16Z" fill="currentColor"/><path d="M11,22L13,22L13,20L11,20Z" fill="currentColor"/><path d="M13.57,24L10.44,24C9.41,24,9.01,23.6,9.01,22.57L9.01,15.44C9.01,14.41,9.41,14.01,10.44,14.01L15.01,14.01L15.01,16.01L11.01,16.01L11.01,18.01L13.58,18.01C14.61,18.01,15.01,18.41,15.01,19.44L15.01,22.57C15.01,23.6,14.61,24,13.58,24Z" fill="currentColor"/><path d="M19,22L21,22L21,16L19,16Z" fill="currentColor"/></svg>