<svg xmlns="http://www.w3.org/2000/svg" viewBox="0 0 24 24"><path d="M1.03,16.23C1.06,14.5,1.66,13.33,2.66,12.73C4.83,11.33,5.06,9.63,5.13,8.93L3.6,8.93C3.43,8.66,3.37,8.26,3.37,7.76L5.3,6.99C4.23,6.12,3.87,5.36,3.87,4.46C3.87,2.96,5.14,1.66,6.7,1.66C8.23,1.66,9.53,2.96,9.5,4.46C9.5,5.09,9.32,5.66,8.85,6.24C8.58,6.47,8.34,6.72,8.12,7.01C7.5,7.82,7.15,8.83,7.16,9.93C7.16,10.5,7.26,11.03,7.46,11.8C6.39,12.7,6.39,14.57,7.76,15.7L6.89,16.43C6.69,16.6,6.48,16.79,6.29,16.99C4.32,16.96,2.12,16.69,1.02,16.23Z" fill="currentColor"/><path d="M15.87,7.01L15.9,7L15.87,7.01C15.66,6.73,15.41,6.47,15.14,6.24C14.67,5.66,14.49,5.09,14.49,4.46C14.46,2.96,15.76,1.66,17.29,1.66C18.86,1.66,20.12,2.96,20.12,4.46C20.12,5.36,19.75,6.13,18.69,6.99L20.62,7.76C20.62,8.26,20.55,8.66,20.39,8.93L18.86,8.93C18.93,9.63,19.16,11.33,21.33,12.73C22.33,13.33,22.93,14.5,22.96,16.23C21.86,16.7,19.65,16.96,17.69,16.99C17.49,16.79,17.29,16.6,17.09,16.43L16.22,15.7C17.59,14.57,17.59,12.7,16.52,11.8C16.72,11.03,16.82,10.5,16.82,9.93C16.83,8.83,16.47,7.82,15.86,7.01Z" fill="currentColor"/><path d="M10.36,14.36L8.83,14.36C8.66,14.09,8.6,13.66,8.6,13.16L10.5,12.43C9.5,11.53,9.13,10.76,9.13,9.9C9.1,8.37,10.36,7.07,11.93,7.07C13.5,7.07,14.73,8.37,14.73,9.9C14.73,10.77,14.36,11.53,13.33,12.43L15.23,13.16C15.23,13.66,15.16,14.09,15,14.36L13.5,14.36C13.87,18.13,17.6,17.49,17.67,21.63C16.24,22.26,13.57,22.33,12,22.33C10.47,22.33,7.77,22.26,6.33,21.63C6.33,17.4,9.73,18.53,10.36,14.36Z" fill="currentColor"/></svg>