<svg xmlns="http://www.w3.org/2000/svg" viewBox="0 0 24 24" fill="currentColor"><path d="M19.3,16.87C19.07,17.15,18.92,17.15,18.75,16.92L16.33,13.85C15.86,13.23,15.98,13,16.76,13L17.88,13C17.88,11.36,17.17,9.87,16.04,8.85C16.2,8.43,16.29,7.98,16.29,7.5C16.29,7.01,16.19,6.53,16.01,6.09C18.46,7.43,20.13,10.03,20.13,13L21.26,13C22.03,13,22.16,13.23,21.68,13.85ZM8.2,7.5C8.2,7.98,8.29,8.43,8.45,8.86C7.33,9.89,6.63,11.37,6.63,13C6.63,16.1,9.15,18.85,12.25,18.85C13.65,18.85,14.94,18.29,15.92,17.39L17.33,19.01C15.95,20.17,14.18,20.88,12.25,20.88C7.92,20.88,4.38,17.33,4.38,13C4.38,10.04,6.03,7.45,8.47,6.1C8.3,6.54,8.2,7.01,8.2,7.5ZM17.35,18.97L12.25,20.64L7.35,18.84C7.35,17.82,7.75,16.65,8.57,16.02C10.3,14.72,10.88,14.04,10.88,11.69L9.32,11.69C9.12,11.34,9.05,11.01,9.05,10.64L10.85,9.51C10.19,9.04,9.77,8.31,9.77,7.49C9.77,6.14,10.9,5.04,12.25,5.04C13.58,5.04,14.7,6.18,14.7,7.49C14.7,8.31,14.3,9.04,13.65,9.51L15.45,10.64C15.45,11.01,15.35,11.34,15.17,11.69C15.17,11.69,13.62,11.69,13.62,11.69C13.7,14.07,14.22,14.79,15.92,16.02C16.77,16.64,17.35,17.77,17.35,18.97Z"/></svg>