<svg xmlns="http://www.w3.org/2000/svg" viewBox="0 0 24 24" fill="currentColor"><path d="M8.25,20.35C7.48,20.45,7.15,20.18,7.07,19.4L5.82,6.57C5.75,5.8,6.02,5.5,6.8,5.5L6.89,5.5C7.67,5.5,8,5.8,8.07,6.57L9.32,19.15C9.4,19.92,9.12,20.25,8.35,20.35ZM20.35,8.57L20.9,14.93C20.97,15.7,20.7,16.03,19.92,16.11L17.75,16.31C16.25,16.46,15.37,16.18,14.22,15.21L13.08,14.21C12.48,13.7,11.95,13.53,11.18,13.63L7.53,14L6.6,5.51L10.26,5.19C11.76,5.06,12.66,5.31,13.8,6.26L15.15,7.33C15.78,7.83,16.3,7.98,17.08,7.88L19.18,7.63C19.95,7.53,20.28,7.8,20.36,8.58Z"/></svg>