<svg xmlns="http://www.w3.org/2000/svg" viewBox="0 0 24 24" fill="currentColor"><path d="M6.2,19C5.75,19,5.5,18.75,5.5,18.3L5.5,18.21C5.5,17.75,5.75,17.51,6.2,17.51L13.72,17.51L13.72,19.01ZM11.5,18.23C11.5,17.05,12.55,16,13.73,16C14.95,16,16,17.05,16,18.23C16,19.45,14.95,20.5,13.73,20.5C12.55,20.5,11.5,19.45,11.5,18.23ZM13.8,14.5L13.71,14.5C13.25,14.5,13.01,14.25,13.01,13.8L13.01,6.58C13.01,5.81,13.25,5.51,13.88,5.51L20.51,5.51C21.13,5.51,21.31,5.73,20.96,6.11L18.76,8.51L20.84,10.78C21.27,11.23,21.21,11.51,20.71,11.51L14.51,11.51L14.51,13.81C14.51,14.26,14.26,14.51,13.81,14.51Z"/></svg>