<svg xmlns="http://www.w3.org/2000/svg" viewBox="0 0 24 24"><path d="M12.03,22.17C5.7,22.17,2.43,19.9,1.2,16.9C1,16.3,1.23,16,1.83,16L22.16,16C22.76,16,22.99,16.33,22.79,16.9C21.59,19.9,18.36,22.17,12.02,22.17Z" fill="currentColor"/><path d="M7.66,4.74C7.13,4.61,6.69,4.14,6.69,3.67C6.69,3.1,7.16,2.6,7.76,2.6C8.16,2.6,8.76,2.9,8.76,3.67C8.76,3.94,8.69,4.14,8.53,4.3L10.43,6.73L10.63,2.93C10.13,2.8,9.9,2.43,9.9,1.9C9.9,1.3,10.4,0.8,11,0.8C11.63,0.8,12.07,1.33,12.07,1.9C12.07,2.3,11.94,2.6,11.67,2.8L12.94,6.6L14.17,2.8C13.87,2.6,13.7,2.3,13.7,1.9C13.7,1.4,14.2,0.8,14.8,0.8C15.33,0.8,15.9,1.17,15.9,1.9C15.9,2.5,15.73,2.77,15.17,2.93L15.44,6.73L17.27,4.3C17.14,4.13,17.04,3.93,17.04,3.67C17.04,2.94,17.57,2.6,18.07,2.6C18.64,2.6,19.07,3.1,19.07,3.67C19.07,4.17,18.67,4.6,18.17,4.74L17.87,6.37C15.64,8.34,14.54,11.04,15.77,14L9.5,14C11.07,11.27,10.27,8.2,7.93,6.17Z" fill="currentColor"/><path d="M0.07,11.67L0.64,10.17C0.91,9.47,0.87,9.17,0.87,8.5C0.87,8.3,0.87,8.07,1.2,7.77C1.43,7.5,1.53,7.2,1.57,6.87L1.54,6.34C1.54,6.17,1.67,5.97,1.81,5.94L3.38,6.64L4.18,6.64C7.38,6.64,9.71,10.37,7.41,14.01L3.04,14.01C3.04,12.98,4.64,11.74,4.67,10.78C4.7,10.28,4.27,9.91,4.1,9.81L3.9,10.24C3.7,10.61,3.3,11.27,2.73,11.44C1.93,11.64,2.06,12.17,1.76,12.61C1.69,12.71,0.69,12.74,0.29,12.54C0.02,12.37,-0.08,11.97,0.06,11.67Z" fill="currentColor"/><path d="M17.43,10.1C18.23,7.93,20.63,7.13,20.63,7.13C20.46,6.13,21.3,4.96,22.53,5.36C23.8,5.76,23.53,7.43,22.66,8.06C20.79,9.43,20.79,9.43,19.76,11.46L20.59,11.79C21.69,9.92,21.69,9.92,23.36,8.66C24.23,10.79,23.99,12.63,22.49,13.99L17.82,13.99C17.32,12.96,16.92,11.56,17.42,10.09Z" fill="currentColor"/></svg>