<svg xmlns="http://www.w3.org/2000/svg" viewBox="0 0 24 24"><path d="M10.33,2.93L10.33,3.06C10.33,3.66,10,3.99,9.4,3.99L7.51,3.99C7.61,3.67,7.66,3.33,7.66,2.99C7.66,2.65,7.61,2.31,7.51,1.99L9.4,1.99C10,1.99,10.33,2.32,10.33,2.92Z" fill="currentColor"/><path d="M21.07,22L2.27,22C1.67,22,1.4,21.67,1.54,21.1L1.81,19.63C2,18.69,2.29,18.05,2.77,17.64C3.4,18.81,4.66,19.66,6.01,19.66C7.45,19.66,8.77,18.71,9.36,17.42C10.05,17.8,10.5,18.47,10.88,19.56L11.01,19.99L21.08,19.99C21.68,19.99,22.01,20.32,22.01,20.92L22.01,21.05C22.01,21.65,21.68,21.98,21.08,21.98Z" fill="currentColor"/><path d="M4,5C3.75,5,3.52,4.96,3.3,4.88C2.53,4.61,2,3.88,2,3C2,1.87,2.87,1,4,1C4.76,1,5.41,1.39,5.75,2C5.83,2.15,5.89,2.3,5.94,2.47C5.98,2.64,6.01,2.81,6.01,3C6.01,3.37,5.92,3.71,5.76,4C5.64,4.22,5.47,4.41,5.28,4.57C4.94,4.84,4.5,5,4.02,5Z" fill="currentColor"/><path d="M4,6.67C4.54,6.67,5.07,6.53,5.55,6.29L6.57,12.38C6.39,12.35,6.2,12.33,6.01,12.33C5.51,12.33,5.02,12.45,4.57,12.65L3.6,6.63C3.74,6.65,3.88,6.66,4.02,6.66Z" fill="currentColor"/><path d="M13.06,8.48C12.31,8.03,12,7.48,12,6.53L12,4.76C12,3.73,12.37,3.13,13.27,2.66L15.74,1.33C16.64,0.86,17.37,0.86,18.27,1.33L20.74,2.66C21.64,3.13,22.01,3.73,22.01,4.76L22.01,6.53C22.01,7.47,21.71,8.02,20.98,8.46C20.88,7.67,20.53,6.93,20.01,6.33L20.01,4.56L17.01,2.93L14.01,4.56L14.01,6.37C13.51,6.97,13.16,7.7,13.07,8.48Z" fill="currentColor"/><path d="M21.1,18L12.9,18C12.9,16.97,13.3,16.1,14.03,15.67C15.93,14.47,16,13.17,16,12.77L16,12.24L14.87,12.24C14.74,12.04,14.67,11.77,14.67,11.44L16,10.61C15.33,10.18,15.03,9.54,15.03,8.91C15.03,7.81,15.93,6.91,17,6.91C18.1,6.91,19,7.81,19,8.91C19,9.54,18.67,10.18,18,10.58L19.37,11.45C19.37,11.75,19.3,12.05,19.17,12.25L18,12.25L18,12.78C18,13.18,18.1,14.48,20,15.68C20.7,16.11,21.1,16.98,21.1,18.01Z" fill="currentColor"/><path d="M8,16C8,17.13,7.13,18,6,18C4.87,18,4,17.13,4,16C4,14.87,4.87,14,6,14C7.13,14,8,14.87,8,16Z" fill="currentColor"/></svg>