<svg xmlns="http://www.w3.org/2000/svg" viewBox="0 0 24 24" fill="currentColor"><path d="M4.7,12.72C7.17,11.73,7.52,10.6,6.02,8.4L5.33,7.4L6.55,7.77C9.1,8.52,10,7.85,10.02,5.2L10.04,4L10.79,4.95C12.42,7.05,13.57,7.05,15.2,4.95L15.95,4L15.97,5.2C15.99,7.85,16.89,8.52,19.44,7.77L20.66,7.4L19.97,8.4C18.47,10.59,18.82,11.72,21.29,12.72L21.99,13L17.49,13C17.49,10.64,15.38,8.5,12.99,8.5C10.63,8.5,8.49,10.64,8.49,13L3.99,13ZM10,13C10,11.26,11.26,10,13,10C14.76,10,16,11.26,16,13ZM10.05,22L10.05,21.98L10.07,21.98ZM15.95,22L15.92,21.98L15.95,21.98ZM17.83,22C17.06,22,16.76,21.7,16.76,20.93L16.76,15.58C16.76,14.81,17.06,14.51,17.83,14.51L20.18,14.51C20.95,14.51,21.25,14.81,21.25,15.58L21.25,20.93C21.25,21.7,20.95,22,20.18,22ZM8.18,22L4.75,22L4.75,20.5L7.75,20.5L7.75,19L5.82,19C5.05,19,4.75,18.7,4.75,17.93L4.75,15.58C4.75,14.81,5.05,14.51,5.82,14.51L8.17,14.51C8.94,14.51,9.24,14.81,9.24,15.58L9.24,20.93C9.24,21.7,8.94,22,8.17,22ZM6.25,17.5L7.75,17.5L7.75,16L6.25,16ZM12.25,20.5L13.75,20.5L13.75,19L12.25,19ZM14.18,22L11.83,22C11.06,22,10.76,21.7,10.76,20.93L10.76,15.58C10.76,14.81,11.06,14.51,11.83,14.51L15.26,14.51L15.26,16.01L12.26,16.01L12.26,17.51L14.19,17.51C14.96,17.51,15.26,17.81,15.26,18.58L15.26,20.93C15.26,21.7,14.96,22,14.19,22ZM18.25,20.5L19.75,20.5L19.75,16L18.25,16Z"/></svg>