<svg xmlns="http://www.w3.org/2000/svg" viewBox="0 0 24 24" fill="currentColor"><path d="M12.8,18C15.1,18,16.9,16.28,16.72,14.25L9.24,15.23C9.24,16.9,10.97,18,12.79,18ZM12.08,12.3C12.08,11.53,11.43,10.88,10.67,10.88C9.9,10.88,9.25,11.53,9.25,12.3C9.25,13.05,9.9,13.67,10.67,13.67C11.43,13.67,12.08,13.05,12.08,12.3ZM14,12.75L16.64,12.75C16.7,12.6,16.72,12.43,16.72,12.28C16.72,11.43,16.07,10.88,15.32,10.88C14.49,10.88,13.91,11.53,13.91,12.28C13.91,12.43,13.94,12.6,13.99,12.75ZM19.43,20.5L6.58,20.5C5.81,20.5,5.51,20.2,5.51,19.43L5.51,11.83C5.51,11.06,5.73,10.55,6.31,10.05L12.21,4.95C12.79,4.45,13.24,4.45,13.81,4.95L19.71,10.05C20.29,10.55,20.52,11.05,20.52,11.83L20.52,19.43C20.52,20.2,20.22,20.5,19.44,20.5Z"/></svg>