<svg xmlns="http://www.w3.org/2000/svg" viewBox="0 0 24 24" fill="currentColor"><path d="M10.33,20.5C9.56,20.5,9.26,20.2,9.26,19.43L9.26,6.58C9.26,5.81,9.56,5.51,10.33,5.51L10.43,5.51C11.2,5.51,11.5,5.81,11.5,6.58L11.5,19.43C11.5,20.2,11.2,20.5,10.43,20.5ZM5.07,14.13C4.3,14.13,4,13.83,4,13.05L4,12.96C4,12.18,4.3,11.88,5.07,11.88L7.75,11.88L7.75,14.13ZM16.55,8.43L21.72,12.57C22.08,12.85,22.08,13.15,21.72,13.42L16.55,17.57C16.2,17.84,16,17.74,16,17.29L16,8.69C16,8.24,16.2,8.14,16.55,8.41ZM13,11.88L18.15,11.88L18.15,14.1L13,14.13Z"/></svg>