<svg xmlns="http://www.w3.org/2000/svg" viewBox="0 0 24 24" fill="currentColor"><path d="M6.7,13.88L8.33,13.05L7.13,11.53ZM5.67,9.38L7.17,8L8.02,10.86ZM14.35,13.6L10.08,9.33C10.17,8.93,10.4,8.6,10.68,8.33L12.85,8.85C12.65,7.73,12.95,6.83,13.6,6.18C14.67,5.1,16.43,5.1,17.5,6.18C18.57,7.25,18.57,9,17.5,10.08C16.85,10.73,15.93,11.03,14.85,10.8L15.36,12.98C15.08,13.28,14.73,13.5,14.36,13.6ZM12.56,14.21C12.87,15.23,13.65,15.88,14.48,16.58C15.6,17.53,16.75,18.5,16.75,20.5L5.25,20.5C5.25,18.5,6.4,17.52,7.52,16.58C8.34,15.89,9.12,15.25,9.45,13.43ZM18.98,14.25L18.98,16.26L16.05,15.15Z"/></svg>