<svg xmlns="http://www.w3.org/2000/svg" viewBox="0 0 24 24" fill="currentColor"><path d="M7.82,10.55L9.72,8.65L13.09,11.07C12.31,11.57,11.64,12.23,11.12,13L10,10.9ZM4,20.5L4,19.5C4,18.18,5,17.5,6.98,17.5L10.04,17.5C10.17,18.6,10.55,19.62,11.13,20.5ZM5.07,13.88L6.7,13.05L5.5,11.53ZM5.07,10.02L5.92,9.25L6.39,10.85ZM6.23,15.17L8.46,14.18L10.18,15.21C10.08,15.63,10.02,16.06,10.01,16.5L6,16.5ZM10.32,5.88L11.47,4C11.99,4.07,12.45,4.25,12.92,4.58L12.24,6.17L13.29,6.92L14.59,5.5C14.59,5.5,15.09,5.72,15.47,6.03C15.87,6.27,16.24,6.68,16.24,6.68L15.29,8.38L16.34,9.13L17.63,8C18.09,8.36,18.41,8.75,18.61,9.21L17.85,10.1C17.49,10.04,17.12,10.01,16.73,10.01C15.79,10.01,14.89,10.2,14.07,10.55L10.46,7.94C9.88,7.17,9.96,6.44,10.31,5.89ZM20.5,16.75C20.5,14.62,18.88,13,16.75,13C14.64,13,13,14.63,13,16.75C13,18.85,14.65,20.5,16.75,20.5C18.87,20.5,20.5,18.86,20.5,16.75ZM11.5,16.75C11.5,13.85,13.88,11.5,16.75,11.5C19.65,11.5,22,13.85,22,16.75C22,19.62,19.65,22,16.75,22C13.88,22,11.5,19.62,11.5,16.75ZM13.17,19.27L19.27,13.17L20.33,14.23L14.23,20.33Z"/></svg>