<svg xmlns="http://www.w3.org/2000/svg" viewBox="0 0 24 24" fill="currentColor"><path d="M4.95,9.05C5.72,8.28,6.6,8.28,7.13,8.8C7.55,9.23,7.63,9.85,7.13,10.6L9.43,12.3C9.48,12.36,9.6,12.32,9.66,12.25L11.78,9.25L11.4,9.25C10.58,9.25,10.23,8.67,10.23,8.13C10.23,7.52,10.75,7,11.4,7L11.88,7L11.88,6.45C11.88,5.78,12.4,5.25,13,5.25C13.62,5.25,14.13,5.78,14.13,6.45L14.13,7L14.6,7C15.25,7,15.77,7.52,15.77,8.13C15.77,8.67,15.42,9.25,14.6,9.25L14.22,9.25L16.38,12.25C16.43,12.32,16.5,12.35,16.58,12.3L18.85,10.63C18.35,9.88,18.42,9.23,18.87,8.81C19.4,8.26,20.28,8.28,21.05,9.05L18.25,19.01L7.75,19.01Z"/></svg>