<svg xmlns="http://www.w3.org/2000/svg" viewBox="0 0 24 24" fill="currentColor"><path d="M7.02,18.05C9.1,18.7,11.05,19,13.02,19C15,19,16.95,18.7,19,18.08L19.77,11.8L15.52,14.15L12.99,8.97L10.49,14.17L6.24,11.79ZM5.57,18.5L4.43,9.9C4.33,9.13,4.52,8.98,5.2,9.38L9.87,12.13L12.55,6.26C12.87,5.56,13.13,5.56,13.45,6.26L16.15,12.13L20.85,9.38C21.53,8.98,21.73,9.13,21.63,9.9L20.45,18.5C20.37,18.96,20.13,19.28,19.68,19.43C17.4,20.16,15.23,20.5,13.02,20.5C10.83,20.5,8.65,20.15,6.35,19.43C5.9,19.28,5.65,18.96,5.57,18.5Z"/></svg>