<svg xmlns="http://www.w3.org/2000/svg" viewBox="0 0 24 24"><path d="M10.33,4.13C9.5,3.83,9.13,3.3,9.13,2.46C9.13,1.46,9.9,0.66,10.9,0.66C11.9,0.66,12.63,1.46,12.63,2.46C12.63,3.06,12.43,3.56,11.96,3.93L13.99,10L15.99,3.93C15.52,3.56,15.29,3.06,15.29,2.46C15.29,1.53,16.06,0.66,17.06,0.66C18.06,0.66,18.83,1.46,18.83,2.46C18.83,3.33,18.46,3.86,17.63,4.13L18.03,10.26L21.03,6.33C20.76,6.03,20.63,5.7,20.63,5.3C20.63,4.4,21.4,3.57,22.3,3.57C23.33,3.57,24,4.5,24,5.27C24,6.04,23.37,6.87,22.47,7L19.54,16L10.34,16Z" fill="currentColor"/><path d="M6,20.67C6,19.45,6.63,18.65,7.88,18.27C8.88,19.17,10,20.03,10,22.01L6,22.01Z" fill="currentColor"/><path d="M18,18C20.63,18,22,18.9,22,20.67L22,22L12,22C12,20.43,11.3,19.18,10.51,18Z" fill="currentColor"/><path d="M7.93,6L2.2,6C1.33,6,1.2,5.77,1.67,5.17L4.67,1.44C4.9,1.14,5.1,1.11,5.3,1.37L8.27,5.07C8.8,5.74,8.7,6,7.94,6Z" fill="currentColor"/><path d="M10,22L0,22C0,18.4,3.7,18.5,3.7,15.3L3.7,14.63L2.23,14.63C2.1,14.4,2,14,1.96,13.6L3.69,12.53C2.86,11.96,2.46,11.16,2.46,10.33C2.46,8.93,3.59,7.8,4.99,7.8C6.39,7.8,7.52,8.93,7.52,10.33C7.52,11.16,7.12,11.96,6.29,12.5L8.02,13.6C8.02,13.97,7.92,14.37,7.75,14.63L6.28,14.63L6.28,15.3C6.28,18.5,9.98,18.4,9.98,22Z" fill="currentColor"/></svg>