<svg xmlns="http://www.w3.org/2000/svg" viewBox="0 0 24 24" fill="currentColor"><path d="M5.5,16L8.5,16L8.5,13L11.13,13C10.41,14.07,10,15.36,10,16.75C10,18.14,10.41,19.43,11.13,20.5L6,20.5C4.5,20.5,4,20,4,18.5L4,7.49C4,5.99,4.5,5.49,6,5.49L17,5.49C18.5,5.49,19.01,5.99,19.01,7.49L19.01,10.37C18.53,10.21,18.02,10.09,17.51,10.04L17.51,7L5.51,7ZM16.75,11.52C19.62,11.52,21.98,13.87,21.98,16.75C21.98,19.6,19.63,21.98,16.75,21.98C13.9,21.98,11.52,19.6,11.52,16.75C11.52,13.88,13.9,11.52,16.75,11.52ZM13.28,16.8C13.28,17.3,13.48,17.5,14,17.5L19.53,17.5C20.04,17.5,20.23,17.3,20.23,16.77L20.23,16.7C20.23,16.2,20.03,16,19.5,16L13.98,16C13.47,16,13.28,16.2,13.28,16.73Z"/></svg>