<svg xmlns="http://www.w3.org/2000/svg" viewBox="0 0 24 24" fill="currentColor"><path d="M11.6,8.4L15.45,12.25C15.99,12.8,15.99,13.2,15.45,13.75L11.6,17.6C11.05,18.14,10.65,18.12,10.1,17.57L10.02,17.52C9.48,16.97,9.5,16.55,10.05,16L13.05,13L9.99,10C9.45,9.45,9.45,9.05,9.99,8.5L10.07,8.4C10.62,7.85,11.04,7.85,11.59,8.4ZM4.75,14.13C4.2,14.13,4,13.83,4,13.05L4,12.96C4,12.18,4.2,11.88,4.75,11.88L14.13,11.88L14.13,14.13ZM19.7,15.63L18.33,15.63C18,15.63,17.8,15.45,17.78,15.1L17.4,6.18C17.38,5.75,17.63,5.5,18.08,5.5L19.95,5.5C20.38,5.5,20.63,5.75,20.61,6.2L20.25,15.1C20.23,15.45,20.05,15.62,19.71,15.62ZM19,17.67C20.42,17.67,20.42,17.67,20.42,19.08C20.42,20.52,20.42,20.52,19,20.52C17.6,20.52,17.6,20.52,17.6,19.08C17.6,17.67,17.6,17.67,19,17.67Z"/></svg>