<svg xmlns="http://www.w3.org/2000/svg" viewBox="0 0 24 24"><path d="M0.93,11.63C4.23,10.3,4.7,8.8,2.7,5.86L1.77,4.53L3.4,5.03C6.8,6.03,8,5.13,8.03,1.6L8.06,0L9.06,1.27C11.23,4.07,12.76,4.07,14.93,1.27L15.93,0L15.96,1.6C15.99,5.13,17.19,6.03,20.59,5.03L22.22,4.53L21.29,5.86C19.29,8.79,19.76,10.29,23.06,11.63L23.99,12L17.99,12C17.99,8.86,15.18,6,11.99,6C8.84,6,5.99,8.85,5.99,12L-0.01,12Z" fill="currentColor"/><path d="M8,12C8,9.68,9.68,8,12,8C14.35,8,16,9.68,16,12Z" fill="currentColor"/><path d="M8.07,24L8.07,23.97L8.1,23.97Z" fill="currentColor"/><path d="M15.93,24L15.9,23.97L15.93,23.97Z" fill="currentColor"/><path d="M18.44,24C17.41,24,17.01,23.6,17.01,22.57L17.01,15.44C17.01,14.41,17.41,14.01,18.44,14.01L21.57,14.01C22.6,14.01,23,14.41,23,15.44L23,22.57C23,23.6,22.6,24,21.57,24Z" fill="currentColor"/><path d="M5.57,24L1,24L1,22L5,22L5,20L2.43,20C1.4,20,1,19.6,1,18.57L1,15.44C1,14.41,1.4,14.01,2.43,14.01L5.56,14.01C6.59,14.01,6.99,14.41,6.99,15.44L6.99,22.57C6.99,23.6,6.59,24,5.56,24Z" fill="currentColor"/><path d="M3,18L5,18L5,16L3,16Z" fill="currentColor"/><path d="M11,22L13,22L13,20L11,20Z" fill="currentColor"/><path d="M13.57,24L10.44,24C9.41,24,9.01,23.6,9.01,22.57L9.01,15.44C9.01,14.41,9.41,14.01,10.44,14.01L15.01,14.01L15.01,16.01L11.01,16.01L11.01,18.01L13.58,18.01C14.61,18.01,15.01,18.41,15.01,19.44L15.01,22.57C15.01,23.6,14.61,24,13.58,24Z" fill="currentColor"/><path d="M19,22L21,22L21,16L19,16Z" fill="currentColor"/></svg>