<svg xmlns="http://www.w3.org/2000/svg" viewBox="0 0 24 24" fill="currentColor"><path d="M6.3,14.15L4.78,12.8C3.68,11.77,3.73,11.17,5.01,10.4L11.31,6.48C12.58,5.7,13.43,5.7,14.7,6.48L17.01,7.92L20.48,4.45C20.8,4.13,21.15,4.13,21.48,4.45L21.55,4.53C21.87,4.84,21.87,5.19,21.57,5.5C21.57,5.51,21.56,5.51,21.55,5.52L18.33,8.74L16.03,11.04L14.73,12.34L8.73,18.34L5.58,21.49L5.56,21.51C5.24,21.84,4.89,21.84,4.56,21.51L4.49,21.44C4.17,21.12,4.17,20.76,4.49,20.44L7.77,17.16L7.77,14.04C7.77,12.97,9.66,12.31,12.66,12.27L14.13,10.8C13.78,10.77,13.42,10.77,13.04,10.77C8.91,10.77,6.31,12.06,6.31,14.14ZM20.52,22C19.64,22,19,21.98,19.23,20.93L19.75,18.5L19.75,14.15C19.75,13.04,19.01,12.14,17.67,11.56L19.65,9.58L20.97,10.4C22.23,11.17,22.29,11.78,21.25,12.76L21.25,18.5L21.83,20.93C22.08,21.98,21.36,22,20.53,22ZM16.56,12.66C17.64,12.97,18.25,13.44,18.25,14.05L18.25,17.7C14.88,19.95,14.33,20.5,13,20.5C12.05,20.5,11.49,20.21,10.01,19.22Z"/></svg>