<svg xmlns="http://www.w3.org/2000/svg" viewBox="0 0 24 24"><path d="M7.17,15.3L8.6,16.77L0.33,23.67Z" fill="currentColor"/><path d="M0.3,17.6L4.8,11.6L5.7,13.6Z" fill="currentColor"/><path d="M19.47,3.7C17.07,3.7,14.17,4.07,9.67,8.3C9.7,8.8,10.37,9.77,10.77,10.1C14.24,6.5,16.7,4.9,19.47,3.7Z" fill="currentColor"/><path d="M21.83,2.17C21.83,2.17,22.06,3.27,22.06,4.94C22.06,7.61,21.39,11.77,17.89,15.27L15.72,17.44C15.05,18.11,14.39,18.04,13.59,17.71L6.12,24.01L15.92,11.84L10.69,15.87C10.26,15.47,9.76,15.04,9.36,14.64C7.63,12.94,5.23,9.64,6.59,8.27L8.79,6.14C12.32,2.64,16.42,1.94,19.09,1.94C20.72,1.94,21.82,2.17,21.82,2.17Z" fill="currentColor"/></svg>