<svg xmlns="http://www.w3.org/2000/svg" viewBox="0 0 24 24"><path d="M12.07,14L11.94,14C11.34,14,11.01,13.67,11.01,13.07L11.01,3.44C11.01,2.41,11.34,2.01,12.18,2.01L20.91,2.01C21.94,2.01,22.11,2.24,21.58,2.84L18.68,6.01L21.38,8.94C22.08,9.71,22.01,10.01,21.18,10.01L13.01,10.01L13.01,13.08C13.01,13.68,12.68,14.01,12.08,14.01Z" fill="currentColor"/><path d="M0,18.97C0,17.4,1.4,16,3.03,16C4.6,16,6,17.4,6,18.97C6,20.6,4.6,22,3.03,22C1.4,22,0,20.6,0,18.97Z" fill="currentColor"/><path d="M3.03,20L3.03,18L21.03,18L21.03,20Z" fill="currentColor"/><path d="M9,18.97C9,17.4,10.4,16,12.03,16C13.6,16,15,17.4,15,18.97C15,20.6,13.6,22,12.03,22C10.4,22,9,20.6,9,18.97Z" fill="currentColor"/><path d="M18,19C18,17.33,19.33,16,21,16C22.67,16,24,17.33,24,19C24,20.67,22.67,22,21,22C19.33,22,18,20.67,18,19Z" fill="currentColor"/></svg>