<svg xmlns="http://www.w3.org/2000/svg" viewBox="0 0 24 24"><path d="M10.97,8L7.77,8C7.77,5.03,10.44,3.03,10.44,3.03C10.27,2.26,10.27,2.1,10.27,1.9C10.27,0.87,11.04,0.03,12,0.03C12.97,0.03,13.73,0.86,13.73,1.9C13.73,2.2,13.73,2.77,13.26,3.3C11.86,5,11.23,6.37,10.96,8Z" fill="currentColor"/><path d="M16.23,8L13,8C13.17,6.77,13.9,5.27,14.77,4.1C15.47,4.9,16.24,6.2,16.24,8Z" fill="currentColor"/><path d="M18.8,22L5.2,22C5.2,17.27,9.9,18,10.27,13.3L10.34,12.5L8.44,12.5C8.21,12.1,8.11,11.6,8.11,11.13L10.34,9.76L13.67,9.73L15.9,11.13C15.9,11.6,15.8,12.1,15.57,12.5L13.67,12.5L13.74,13.3C14.11,18,18.81,17.27,18.81,22Z" fill="currentColor"/></svg>