<svg xmlns="http://www.w3.org/2000/svg" viewBox="0 0 24 24"><path d="M1.27,6.73C2.3,5.7,3.47,5.7,4.17,6.4C4.74,6.97,4.84,7.8,4.17,8.8L7.24,11.07C7.31,11.14,7.47,11.1,7.54,11L10.37,7L9.87,7C8.77,7,8.3,6.23,8.3,5.5C8.3,4.7,9,4,9.87,4L10.5,4L10.5,3.27C10.5,2.37,11.2,1.67,12,1.67C12.83,1.67,13.5,2.37,13.5,3.27L13.5,4L14.13,4C15,4,15.7,4.7,15.7,5.5C15.7,6.23,15.23,7,14.13,7L13.63,7L16.5,11C16.57,11.1,16.67,11.13,16.77,11.07L19.8,8.84C19.13,7.84,19.23,6.97,19.83,6.41C20.53,5.68,21.7,5.71,22.73,6.74L19,20.01L5,20.01Z" fill="currentColor"/></svg>