<svg xmlns="http://www.w3.org/2000/svg" viewBox="0 0 24 24"><path d="M18,19.83C13.07,23.13,8.33,22.46,4,18.16L4.53,14.29L9.6,17.36C11.37,18.43,12.73,18.39,14.5,17.33L18,15.2Z" fill="currentColor"/><path d="M20,17.83L20.03,11.3L22,10.2L22,17.5C22,18.8,22,18.8,23.2,19.6C24.67,20.57,23.83,23.4,21.5,21.5C21,21.1,20,20.23,20,17.83Z" fill="currentColor"/><path d="M13.3,15.77C12.4,16.3,11.73,16.3,10.83,15.77L0.73,9.74C-0.17,9.21,-0.17,8.81,0.73,8.27L10.83,2.24C11.73,1.71,12.4,1.71,13.3,2.24L23.27,8.27C24.17,8.8,24.17,9.2,23.27,9.74L20.04,11.64L12.17,6.67L15.17,7.07L10.94,9.87L10.74,8.17L18.21,12.74Z" fill="currentColor"/></svg>