<svg xmlns="http://www.w3.org/2000/svg" viewBox="0 0 24 24"><path d="M19.67,5.87L1.04,23.67C0.47,24.24,-0.29,23.44,0.24,22.9L18.17,4.33C17.34,2.63,18.24,0,21.1,0C22.7,0,24,1.2,24,3.13C24,5.76,21.23,6.66,19.67,5.86Z" fill="currentColor"/><path d="M11.5,18.7L6.7,23.47C6.27,23.9,5.8,23.9,5.37,23.47L0.54,18.67C0.11,18.24,0.11,17.77,0.54,17.34L5.34,12.51C5.77,12.08,6.24,12.08,6.67,12.51L11.5,17.38C11.93,17.81,11.93,18.28,11.5,18.71Z" fill="currentColor"/><path d="M14.67,15.44C14.24,15.87,13.77,15.87,13.34,15.44L8.57,10.67C8.14,10.24,8.14,9.77,8.57,9.34L13.34,4.44C13.77,4.01,14.24,4.01,14.67,4.44L19.57,9.34C20,9.77,20,10.24,19.57,10.67Z" fill="currentColor"/><path d="M22.3,3C22.3,2.3,21.7,1.7,21,1.7C20.27,1.7,19.7,2.3,19.7,3C19.7,3.73,20.27,4.3,21,4.3C21.7,4.3,22.3,3.73,22.3,3Z" fill="currentColor"/></svg>