<svg xmlns="http://www.w3.org/2000/svg" viewBox="0 0 24 24" fill="currentColor"><path d="M8.45,19.52C8.13,20.22,7.77,20.3,7.17,19.8C5.3,17.98,3.93,14.93,4.23,11.91C4.35,11.16,4.65,11.01,5.33,11.4L12.08,15.58C12.75,15.98,13.25,15.98,13.93,15.58L20.68,11.4C21.35,11.01,21.66,11.16,21.78,11.91C22.08,14.93,20.71,17.98,18.83,19.8C18.23,20.3,17.88,20.23,17.56,19.52C16.71,18.2,15.03,17.13,13.01,17.13C10.96,17.13,9.31,18.12,8.45,19.52ZM18.12,11.2L13.9,13.85C13.25,14.27,12.75,14.27,12.1,13.85L7.88,11.2C7.88,9.6,10.97,5.5,12.98,5.5C15.02,5.5,18.13,9.6,18.13,11.2Z"/></svg>