<svg xmlns="http://www.w3.org/2000/svg" viewBox="0 0 24 24" fill="currentColor"><path d="M18.38,17.52C20.53,17.9,20.5,19.5,20.5,19.5L20.5,20.49L17.25,20.49L14.5,9.39L14.8,9.64L13.52,11.14C13.1,11.59,12.35,12.36,11.52,12.36C10.42,12.36,10.4,13.11,9.89,13.62C9.77,13.74,8.45,13.41,7.97,13.02C7.61,12.71,7.59,12.17,7.91,11.76L9.17,9.98C9.74,9.16,9.77,8.71,10.09,7.88C10.19,7.64,10.29,7.34,10.69,6.98C11.12,6.63,11.39,6.38,11.54,5.99L11.71,5.21C11.76,4.99,11.96,4.79,12.16,4.79L13.56,6.19C19.51,7.07,20.48,12.19,18.36,17.52ZM13.77,12.7L15.67,20.33C14.27,20.78,13.74,20.55,13.02,19.88C11.73,18.6,10.55,18.77,10.02,18.85L10.3,19.88C10.15,20,9.98,20.12,9.53,20.23L8.5,19.35C8.27,19.9,7.75,20.3,7.2,20.42C6.13,20.72,5.05,20.1,4.78,19.02C4.5,17.95,5.15,16.87,6.23,16.6C6.8,16.45,7.4,16.58,7.9,16.92L8.37,15.7C8.8,15.6,9,15.62,9.25,15.65L9.53,16.67C9.96,16.55,11.08,16.1,11.68,14.37C11.93,13.52,12.65,12.97,13.78,12.7Z"/></svg>