<svg xmlns="http://www.w3.org/2000/svg" viewBox="0 0 24 24" fill="currentColor"><path d="M4.15,21.85C6.75,18.35,11.52,13.58,10.7,12.75C9.85,11.9,7.15,14.7,4.12,17.33C5.6,15.45,7.42,11.95,10.59,8.75C13.99,5.38,17.09,5.25,20.37,5.63C20.76,8.93,20.64,12,17.24,15.4C14.06,18.57,10.54,20.4,8.66,21.9C11.29,18.88,14.09,16.15,13.24,15.3C12.44,14.48,7.67,19.25,4.14,21.85ZM11.37,10.73C13,10.13,14.25,9.4,15.1,9.18C14.63,10.2,13.47,11.97,12.6,13.4C14.03,12.55,15.81,11.37,16.83,10.92C16.6,11.75,15.9,13.02,15.27,14.62C18.25,12.54,19.45,10.37,19,6.99C15.65,6.54,13.45,7.74,11.37,10.72ZM6.62,9.45C9.2,6.15,10.88,5.42,12.4,5.52ZM20.47,13.62C20.57,15.12,19.87,16.82,16.55,19.38Z"/></svg>