<svg xmlns="http://www.w3.org/2000/svg" viewBox="0 0 24 24"><path d="M20.57,22L3.44,22C2.41,22,2.01,21.6,2.01,20.57L2.01,10.44C2.01,9.41,2.31,8.74,3.08,8.07L10.95,1.27C11.72,0.6,12.32,0.6,13.08,1.27L20.95,8.07C21.72,8.74,22.02,9.4,22.02,10.44L22.02,20.57C22.02,21.6,21.62,22,20.59,22Z" fill="currentColor"/><path d="M7.23,19.03C7.3,19.73,7.56,20,8.26,20L7.69,20C8.39,20,8.62,19.73,8.56,19.03C8.56,18.16,8.86,17.66,9.46,17.3C10.09,17.73,10.93,18,12.03,18C13.16,18,14,17.73,14.6,17.3C15.2,17.67,15.5,18.17,15.5,19.03C15.43,19.73,15.67,20,16.37,20L15.77,20C16.47,20,16.74,19.73,16.8,19.03C16.77,17.83,16.4,17,15.53,16.16C15.9,15.39,16,14.43,16,13.46C16.7,13.66,17.3,13.96,17.77,14.26C18.34,14.66,18.7,14.63,19.1,14.06L18.77,14.53C19.17,13.96,19.14,13.6,18.57,13.2C17.8,12.7,16.94,12.27,16,11.97C14.97,12.84,13.6,13.4,12.03,13.4C10.46,13.4,9.1,12.83,8.06,11.97C7.09,12.27,6.26,12.7,5.49,13.2C4.92,13.6,4.89,13.97,5.29,14.53L4.92,14.06C5.32,14.63,5.69,14.66,6.25,14.26C6.72,13.96,7.28,13.66,7.98,13.46C7.98,14.46,8.15,15.39,8.51,16.13C7.64,17,7.24,17.83,7.21,19.03Z" fill="currentColor"/><path d="M12.03,12.4C14.96,12.4,16.36,10.67,16.63,7.97C16.66,7.27,16.4,7,15.7,7L16.3,7C15.6,7,15.33,7.27,15.3,7.97C15.2,8.84,14.97,9.54,14.53,10.07C13.86,9.4,12.96,9,12,9C11.03,9,10.13,9.37,9.47,10.03C9.07,9.53,8.8,8.8,8.74,7.96C8.67,7.26,8.41,6.99,7.71,6.99L8.31,6.99C7.61,6.99,7.34,7.26,7.38,7.96C7.65,10.66,9.08,12.39,12.05,12.39Z" fill="currentColor"/></svg>