<svg xmlns="http://www.w3.org/2000/svg" viewBox="0 0 24 24" fill="currentColor"><path d="M18.1,20.5L7.9,20.5C7.9,16.95,11.43,17.5,11.7,13.98L11.76,13.38L10.33,13.38C10.16,13.08,10.08,12.7,10.08,12.35L11.76,11.5L14.25,11.5L15.93,12.35C15.93,12.7,15.85,13.07,15.68,13.38L14.25,13.38L14.31,13.98C14.58,17.5,18.11,16.95,18.11,20.5ZM9.83,10.52C9.73,10.62,8.8,10.38,8.42,10.07C8.2,9.87,8.2,9.5,8.4,9.2L9.3,7.95C9.73,7.37,9.73,7.04,9.95,6.45C10.01,6.29,10.1,6.05,10.38,5.82C10.68,5.57,10.88,5.39,11,5.09L11.08,4.55C11.13,4.42,11.28,4.25,11.43,4.25L12.38,5.28C14.11,5.37,16.68,6.57,16.04,10L12.96,10C12.94,9,12.94,8.65,12.68,8.45L12.36,8.77C12.06,9.07,11.56,9.62,10.99,9.62C10.19,9.64,10.16,10.19,9.84,10.52Z"/></svg>