<svg xmlns="http://www.w3.org/2000/svg" viewBox="0 0 24 24" fill="currentColor"><path d="M20,5.97C20.65,6.59,20.8,7.42,20.09,8.1C19.52,8.67,19.04,8.52,18.54,8.94C18.19,9.27,17.94,9.49,18.49,10.04L20.72,12.27C21.26,12.82,21.26,13.23,20.72,13.77L19.16,15.33C18.84,15.65,18.39,15.6,18.19,15.2C17.89,14.62,17.91,13.94,17.44,13.47C16.86,12.92,16.04,12.92,15.41,13.55C14.79,14.2,14.74,15.05,15.32,15.6C15.77,16.07,16.52,16.07,17.06,16.32C17.46,16.55,17.46,17,17.12,17.35L16.44,18.02C13.14,21.33,9.79,16.13,6.86,19.17L5.69,20.37C5.21,18.67,5.33,17.09,6.29,16.15C7.21,15.23,8.41,15.78,9.23,14.93C9.81,14.35,9.78,13.48,9.26,12.96C8.63,12.33,7.31,12.28,6.35,14.76C6.15,13.03,6.15,11.33,7.85,9.63L8.63,8.86C9,8.49,9.47,8.54,9.68,9.01C9.95,9.59,9.9,10.19,10.37,10.66C11,11.28,11.9,11.28,12.53,10.66C13.15,10.04,13.15,9.18,12.55,8.58C12.02,8.06,11.35,8.13,10.82,7.86C10.4,7.63,10.35,7.16,10.7,6.83L12.22,5.31C12.77,4.76,13.17,4.76,13.72,5.31L15.99,7.58C16.46,8.05,16.72,7.83,17.04,7.45C17.49,6.95,17.32,6.48,17.89,5.9C18.56,5.22,19.37,5.35,19.97,5.97ZM10.8,20C11.68,20.84,10.9,22.04,9.7,22L7.25,22L9.12,20.13C9.75,19.5,10.35,19.55,10.79,20Z"/></svg>