<svg xmlns="http://www.w3.org/2000/svg" viewBox="0 0 24 24"><path d="M10,3.47L9.2,4.2C7.53,5.73,5.8,6.17,4.93,7.17C3.83,8.47,3.6,9.04,2.03,7.2L0.5,5.4C-0.27,4.5,0.4,3.73,1.2,3.8C1.87,4.53,3.6,5.73,4.87,4.63L8.44,1.53C11.71,-1.3,14.01,0.76,14.01,2.9C14.01,7.83,14.01,9.2,16.11,10.57L7.91,10.57C10.01,9.2,10.01,7.84,10.01,3.47Z" fill="currentColor"/><path d="M6.87,15.87L7.9,16.17C10.07,16.87,11.3,18.14,12.6,18.4C14.27,18.7,14.87,18.6,14.07,20.9L13.27,23.1C12.9,24.23,11.9,24.03,11.54,23.3C11.84,22.37,12.04,20.27,10.44,19.73L5.97,18.16C1.87,16.76,2.54,13.73,4.37,12.66C8.64,10.19,9.84,9.53,9.97,7.03L14.07,14.13C11.84,13,10.64,13.66,6.87,15.86Z" fill="currentColor"/><path d="M19.13,12.37L18.9,11.34C18.4,9.11,18.9,7.41,18.47,6.14C17.9,4.54,17.54,4.07,19.9,3.61L22.23,3.21C23.36,2.98,23.7,3.94,23.26,4.61C22.29,4.81,20.36,5.71,20.69,7.34L21.59,12.01C22.42,16.24,19.46,17.21,17.62,16.14C13.35,13.67,12.15,12.97,9.92,14.11L14.02,7.01C14.15,9.51,15.35,10.21,19.12,12.38Z" fill="currentColor"/></svg>