<svg xmlns="http://www.w3.org/2000/svg" viewBox="0 0 24 24"><path d="M5.77,22C5.17,22,4.97,21.7,5.2,21.13L13.07,2.86C13.3,2.29,13.77,1.99,14.37,1.99L15.2,1.99C15.8,1.99,16,2.29,15.77,2.86L7.9,21.13C7.67,21.7,7.2,22,6.6,22Z" fill="currentColor"/><path d="M5.07,14L4.44,14C3.84,14,3.51,13.67,3.51,13.07L3.51,5.77C2.98,6.4,2.11,6.9,0.94,6.97C0.34,6.94,0.01,6.6,0.01,6L0.01,5.43C0.01,4.83,0.34,4.46,0.94,4.36C1.91,4.13,2.67,3.66,3.21,2.83C3.48,2.3,3.98,2,4.58,2L5.08,2C5.68,2,6.01,2.33,6.01,2.93L6.01,13.06C6.01,13.66,5.68,13.99,5.08,13.99Z" fill="currentColor"/><path d="M22.97,22L14.94,22C14.34,22,14.01,21.67,14.01,21.07L14.01,20.04C14.01,16.84,16.61,15.87,19.28,14.94C20.41,14.54,21.45,14.31,21.45,13.44C21.45,12.54,20.48,12.17,19.48,12.17C18.01,12.17,16.85,12.97,15.88,13.74C15.41,14.14,14.91,14.11,14.48,13.67L14.15,13.37C13.72,12.94,13.72,12.44,14.08,12C15.51,10.53,17.35,9.67,19.31,9.67C21.48,9.67,23.91,10.74,23.91,13.47C23.91,15.97,21.78,16.6,19.58,17.37C17.91,17.94,16.68,18.37,16.68,19.44L16.68,19.51L22.98,19.51C23.58,19.51,23.91,19.84,23.91,20.44L23.91,21.07C23.91,21.67,23.58,22,22.98,22Z" fill="currentColor"/></svg>