<svg xmlns="http://www.w3.org/2000/svg" viewBox="0 0 24 24"><path d="M2.93,20C2.33,20,2,19.67,2,19.07L2,18.94C2,18.34,2.33,18.01,2.93,18.01L12.96,18.01L12.96,20.01Z" fill="currentColor"/><path d="M10,18.97C10,17.4,11.4,16,12.97,16C14.6,16,16,17.4,16,18.97C16,20.6,14.6,22,12.97,22C11.4,22,10,20.6,10,18.97Z" fill="currentColor"/><path d="M13.07,14L12.94,14C12.34,14,12.01,13.67,12.01,13.07L12.01,3.44C12.01,2.41,12.34,2.01,13.18,2.01L22.01,2.01C22.84,2.01,23.08,2.31,22.61,2.81L19.68,6.01L22.45,9.04C23.02,9.64,22.95,10.01,22.28,10.01L14.01,10.01L14.01,13.08C14.01,13.68,13.68,14.01,13.08,14.01Z" fill="currentColor"/></svg>