<svg xmlns="http://www.w3.org/2000/svg" viewBox="0 0 24 24"><path d="M23.07,8.67L20.48,9.99C23.32,11.32,22.2,13.29,21.24,18L24.01,20C22.61,21.3,21.28,22,20.01,22C19.58,20.5,18.84,19.47,19.34,17.63C20.57,13.26,21.41,12.16,18.71,10.9L18.9,10.8L18.7,10.9L11.47,7.34L9.2,8.44L16.61,11.97L13.27,13.68C12.37,14.18,11.64,14.18,10.74,13.68L1.01,8.71C0.04,8.21,0.04,7.84,0.98,7.38L10.71,2.65C11.64,2.18,12.38,2.18,13.31,2.65L23.01,7.35C23.98,7.85,23.98,8.18,23.08,8.68Z" fill="currentColor"/><path d="M11.73,20.33C9.46,20.33,6.83,19.33,4.76,17.9C3.93,17.27,3.76,16.67,4.09,15.67L4.96,13.2L9.53,15.37C11.4,16.27,12.63,16.27,14.43,15.4L16.4,14.47L18,17.84C16.37,19.24,14.4,20.34,11.73,20.34Z" fill="currentColor"/></svg>