<svg xmlns="http://www.w3.org/2000/svg" viewBox="0 0 24 24"><path d="M11.07,14L10.94,14C10.34,14,10.01,13.67,10.01,13.07L10.01,3.44C10.01,2.41,10.34,2.01,11.18,2.01L20.01,2.01C20.84,2.01,21.08,2.31,20.61,2.81L17.68,6.01L20.45,9.04C21.02,9.64,20.95,10.01,20.28,10.01L12.01,10.01L12.01,13.08C12.01,13.68,11.68,14.01,11.08,14.01Z" fill="currentColor"/><path d="M8,18.97C8,17.4,9.4,16,11.03,16C12.6,16,14,17.4,14,18.97C14,20.6,12.6,22,11.03,22C9.4,22,8,20.6,8,18.97Z" fill="currentColor"/><path d="M21.07,20L11.04,20L11.04,18L21.07,18C21.67,18,22,18.33,22,18.93L22,19.06C22,19.66,21.67,19.99,21.07,19.99Z" fill="currentColor"/></svg>