<svg xmlns="http://www.w3.org/2000/svg" viewBox="0 0 24 24" fill="currentColor"><path d="M17.83,17.5C17.06,17.5,16.76,17.2,16.76,16.43L16.76,9.58C16.76,8.81,17.06,8.51,17.83,8.51L20.18,8.51C20.95,8.51,21.25,8.81,21.25,9.58L21.25,16.43C21.25,17.2,20.95,17.5,20.18,17.5ZM8.18,17.5L4.75,17.5L4.75,16L7.75,16L7.75,14.5L5.82,14.5C5.05,14.5,4.75,14.2,4.75,13.43L4.75,9.58C4.75,8.81,5.05,8.51,5.82,8.51L8.17,8.51C8.94,8.51,9.24,8.81,9.24,9.58L9.24,16.43C9.24,17.2,8.94,17.5,8.17,17.5ZM6.25,13L7.75,13L7.75,10L6.25,10ZM12.25,16L13.75,16L13.75,13L12.25,13ZM14.18,17.5L11.83,17.5C11.06,17.5,10.76,17.2,10.76,16.43L10.76,9.58C10.76,8.81,11.06,8.51,11.83,8.51L15.26,8.51L15.26,10.01L12.26,10.01L12.26,11.51L14.19,11.51C14.96,11.51,15.26,11.81,15.26,12.58L15.26,16.43C15.26,17.2,14.96,17.5,14.19,17.5ZM18.25,16L19.75,16L19.75,10L18.25,10Z"/></svg>