<svg xmlns="http://www.w3.org/2000/svg" viewBox="0 0 24 24" fill="currentColor"><path d="M8.33,20.5C7.88,20.5,7.73,20.27,7.9,19.85L13.8,6.14C13.98,5.72,14.33,5.49,14.78,5.49L15.4,5.49C15.85,5.49,16,5.72,15.83,6.14L9.92,19.85C9.75,20.27,9.4,20.5,8.95,20.5ZM7.8,14.5L7.33,14.5C6.88,14.5,6.63,14.25,6.63,13.8L6.63,8.33C6.23,8.8,5.58,9.17,4.71,9.23C4.25,9.21,4.01,8.95,4.01,8.5L4.01,8.07C4.01,7.62,4.25,7.34,4.71,7.27C5.43,7.1,6,6.74,6.41,6.12C6.61,5.72,6.98,5.5,7.43,5.5L7.81,5.5C8.26,5.5,8.51,5.75,8.51,6.2L8.51,13.79C8.51,14.25,8.26,14.49,7.81,14.49ZM15.2,20.5C14.75,20.5,14.51,20.25,14.51,19.8L14.51,19.03C14.51,16.63,16.46,15.9,18.46,15.2C19.31,14.9,20.09,14.73,20.09,14.08C20.09,13.4,19.36,13.13,18.61,13.13C17.51,13.13,16.64,13.73,15.91,14.3C15.56,14.6,15.18,14.58,14.86,14.25L14.61,14.03C14.29,13.7,14.29,13.33,14.56,13C15.63,11.9,17.01,11.25,18.48,11.25C20.11,11.25,21.93,12.05,21.93,14.1C21.93,15.98,20.33,16.45,18.68,17.03C17.43,17.45,16.51,17.78,16.51,18.58L16.51,18.63L21.23,18.63C21.69,18.63,21.93,18.88,21.93,19.33L21.93,19.8C21.93,20.25,21.69,20.5,21.23,20.5Z"/></svg>