<svg xmlns="http://www.w3.org/2000/svg" viewBox="0 0 24 24" fill="currentColor"><path d="M5.48,16.13C6.38,15.23,7.82,16.05,8.38,15.51L9.86,14.03L11.98,16.15L10.5,17.63C9.93,18.18,10.78,19.63,9.88,20.55C9.36,21.05,8.53,21.08,7.95,20.5C7.4,19.95,7.45,19.1,7.73,18.27C6.9,18.52,6.05,18.59,5.53,18.07C4.98,17.52,4.95,16.65,5.48,16.12ZM14.04,9.83L15.5,8.37C16.07,7.82,15.22,6.37,16.12,5.45C16.64,4.95,17.47,4.92,18.05,5.5C18.59,6.05,18.55,6.9,18.27,7.73C19.1,7.48,19.95,7.41,20.47,7.93C21.02,8.48,21.05,9.36,20.52,9.88C19.62,10.78,18.17,9.96,17.62,10.5L16.16,11.96ZM14.05,11.93L17.63,15.5C18.17,16.08,19.63,15.23,20.55,16.13C21.05,16.65,21.08,17.48,20.5,18.05C19.95,18.6,19.1,18.56,18.27,18.28C18.52,19.11,18.59,19.95,18.07,20.48C17.52,21.02,16.64,21.05,16.12,20.53C15.22,19.63,16.04,18.18,15.5,17.63L11.92,14.05ZM11.95,14.07L8.37,10.5C7.82,9.92,6.37,10.77,5.45,9.87C4.95,9.35,4.92,8.52,5.5,7.95C6.05,7.4,6.9,7.44,7.73,7.72C7.48,6.89,7.41,6.05,7.93,5.52C8.48,4.97,9.36,4.95,9.88,5.47C10.78,6.37,9.96,7.82,10.5,8.37L14.08,11.95Z"/></svg>