<svg xmlns="http://www.w3.org/2000/svg" viewBox="0 0 24 24"><path d="M3.44,22C2.41,22,2.01,21.6,2.01,20.57L2.01,3.44C2.01,2.41,2.41,2.01,3.44,2.01L3.57,2.01C4.6,2.01,5,2.41,5,3.44L5,20.57C5,21.6,4.6,22,3.57,22Z" fill="currentColor"/><path d="M22,7.43L22,16.56C22,17.59,21.6,17.99,20.57,17.99L16.5,17.99C14.5,17.99,13.33,17.52,11.9,16.16L10.63,14.99C9.9,14.26,9.2,13.99,8.16,13.99L3.59,13.99L3.56,1.99L8.13,1.99C10.13,1.99,11.3,2.42,12.8,3.76L14.27,5.06C15.04,5.73,15.74,5.99,16.77,5.99L20.57,5.99C21.6,5.99,22,6.39,22,7.42Z" fill="currentColor"/></svg>