<svg xmlns="http://www.w3.org/2000/svg" viewBox="0 0 24 24" fill="currentColor"><path d="M13.1,8.4L16.27,11.57C17.34,12.65,17.34,13.35,16.27,14.42L13.1,17.6C12.55,18.14,12.14,18.12,11.6,17.57L11.52,17.52C10.97,16.97,11,16.55,11.54,16L14.54,13L11.49,10C10.94,9.45,10.94,9.05,11.49,8.5L11.57,8.4C12.11,7.85,12.54,7.85,13.09,8.4ZM20.5,19.42C20.5,20.19,20.2,20.49,19.43,20.49L19.33,20.49C18.56,20.49,18.26,20.19,18.26,19.42L18.26,6.57C18.26,5.8,18.56,5.5,19.33,5.5L19.43,5.5C20.2,5.5,20.5,5.8,20.5,6.57ZM6.57,14.13C5.8,14.13,5.5,13.83,5.5,13.05L5.5,12.96C5.5,12.18,5.8,11.88,6.57,11.88L15.63,11.88L15.63,14.13Z"/></svg>