<svg xmlns="http://www.w3.org/2000/svg" viewBox="0 0 24 24"><path d="M23.7,10.56C24,10.86,24,11.13,23.7,11.43L19.97,15.06C19.27,15.73,19,15.63,19,14.66L19,10.96L5,10.96L5,14.66C5,15.63,4.73,15.73,4.03,15.06L0.3,11.43C0,11.13,0,10.86,0.3,10.56L4.03,6.93C4.73,6.26,5,6.36,5,7.36L5,10.96L19,10.96L19,7.36C19,6.36,19.27,6.26,19.97,6.93Z" fill="currentColor"/><path d="M19.63,22L4.36,22C4.36,19.33,5.89,18.03,7.39,16.77C8.79,15.6,10.12,14.5,10.12,12.27L10.12,11.34L7.99,11.34C7.72,10.87,7.59,10.34,7.59,9.81L10.12,8.28C8.89,7.45,8.32,6.28,8.32,5.08C8.32,3.05,9.95,1.41,11.99,1.41C14.02,1.41,15.66,3.04,15.66,5.08C15.66,6.28,15.09,7.45,13.86,8.25L16.39,9.82C16.39,10.35,16.26,10.89,15.99,11.35L13.86,11.35L13.86,12.28C13.86,14.51,15.19,15.61,16.59,16.78C18.09,18.05,19.62,19.35,19.62,22.01Z" fill="currentColor"/></svg>