<svg xmlns="http://www.w3.org/2000/svg" viewBox="0 0 24 24"><path d="M12.43,23C6.56,23,2.1,20.07,2.1,15.3C2.1,12.93,3.2,11.1,5.3,9L3.47,9C1.24,9,2.64,7.57,3.67,6.9C0.77,6.47,0.87,4.63,1.6,4.63L4.33,4.63C4.53,3.3,6,1,9.13,1C12.26,1,14.1,3.23,14.1,5.3C14.1,6.93,13.23,8.03,12.43,8.93C13.16,9.56,14.03,9.8,15.83,9.8C19.5,9.8,19.36,7.6,20.26,7.6C21.39,7.6,22.99,11.03,22.99,14.17C22.99,18.17,19.99,23,12.42,23Z" fill="currentColor"/><path d="M13,17.97L13,19.97C16.57,19.97,19.87,18.14,20.07,14.57C20,13.54,19.57,13.14,18.54,13.14L17.87,13.14C14.67,13.14,14.27,11.01,11.07,11.01C8.14,11.01,6.5,13.28,6.84,16.01L8.84,16.01C8.64,14.38,9.31,12.98,11.01,13.01C13.54,13.01,13.68,15.14,17.78,15.14C17.55,15.71,16.71,17.97,13.01,17.97Z" fill="currentColor"/><path d="M8.8,5.36C8.8,4.73,8.27,4.19,7.6,4.19C6.97,4.19,6.47,4.72,6.47,5.36C6.47,6.03,6.97,6.53,7.6,6.53C8.27,6.53,8.8,6.03,8.8,5.36Z" fill="currentColor"/></svg>