<svg xmlns="http://www.w3.org/2000/svg" viewBox="0 0 24 24" fill="currentColor"><path d="M19.33,20.5C18.56,20.5,18.26,20.2,18.26,19.43L18.26,6.58C18.26,5.81,18.56,5.51,19.33,5.51L19.43,5.51C20.2,5.51,20.5,5.81,20.5,6.58L20.5,19.43C20.5,20.2,20.2,20.5,19.43,20.5ZM6.57,14.13C5.8,14.13,5.5,13.83,5.5,13.05L5.5,12.96C5.5,12.18,5.8,11.88,6.57,11.88L13.64,11.88L13.64,14.11ZM12.05,8.43L17.37,12.57C17.72,12.85,17.72,13.15,17.37,13.42L12.05,17.57C11.69,17.84,11.5,17.74,11.5,17.29L11.5,8.69C11.5,8.24,11.7,8.14,12.05,8.41Z"/></svg>