<svg xmlns="http://www.w3.org/2000/svg" viewBox="0 0 24 24"><path d="M3.6,13.17L5.77,12.07L4.17,10.04Z" fill="currentColor"/><path d="M2.23,7.17L4.23,5.34L5.36,9.14Z" fill="currentColor"/><path d="M13.8,12.8L8.1,7.1C8.23,6.57,8.53,6.13,8.9,5.77L11.8,6.47C11.53,4.97,11.93,3.77,12.8,2.9C14.23,1.47,16.57,1.47,18,2.9C19.43,4.33,19.43,6.67,18,8.1C17.13,8.97,15.9,9.37,14.47,9.07L15.14,11.97C14.77,12.37,14.31,12.67,13.81,12.8Z" fill="currentColor"/><path d="M11.41,13.62C11.83,14.98,12.87,15.84,13.97,16.77C15.47,18.04,17,19.34,17,22L1.67,22C1.67,19.33,3.2,18.03,4.7,16.77C5.79,15.86,6.82,15,7.26,12.58Z" fill="currentColor"/><path d="M19.97,13.67L19.97,16.34L16.07,14.87Z" fill="currentColor"/></svg>