<svg xmlns="http://www.w3.org/2000/svg" viewBox="0 0 24 24" fill="currentColor"><path d="M4.78,21.75C4.35,22.18,3.78,21.58,4.18,21.18L17.63,7.25C17.01,5.97,17.68,4,19.83,4C21.03,4,22,4.9,22,6.35C22,8.32,19.92,9,18.75,8.4ZM12.63,18.02L9.02,21.6C8.7,21.92,8.35,21.92,8.03,21.6L4.4,18C4.08,17.68,4.08,17.33,4.4,17L8,13.38C8.33,13.06,8.68,13.06,9,13.38L12.63,17.04C12.95,17.36,12.95,17.71,12.63,18.03ZM15,15.58C14.68,15.9,14.33,15.9,14.01,15.58L10.43,12C10.11,11.68,10.11,11.33,10.43,11L14.01,7.33C14.33,7.01,14.68,7.01,15,7.33L18.68,11C19,11.33,19,11.68,18.68,12ZM19.75,5.28C19.2,5.28,18.77,5.73,18.77,6.25C18.77,6.8,19.2,7.23,19.75,7.23C20.27,7.23,20.73,6.8,20.73,6.25C20.73,5.73,20.27,5.28,19.75,5.28Z"/></svg>