<svg xmlns="http://www.w3.org/2000/svg" viewBox="0 0 24 24"><path d="M5.67,21.8C4.64,21.93,4.2,21.57,4.1,20.53L2.43,3.43C2.33,2.4,2.7,2,3.73,2L3.86,2C4.89,2,5.33,2.4,5.43,3.43L7.1,20.2C7.2,21.23,6.83,21.67,5.8,21.8Z" fill="currentColor"/><path d="M21.8,6.1L22.53,14.57C22.63,15.6,22.26,16.04,21.23,16.14L18.33,16.41C16.33,16.61,15.16,16.24,13.63,14.94L12.1,13.61C11.3,12.94,10.6,12.71,9.57,12.84L4.7,13.34L3.47,2.01L8.34,1.58C10.34,1.41,11.54,1.75,13.07,3.01L14.87,4.44C15.7,5.11,16.4,5.31,17.44,5.17L20.24,4.84C21.27,4.71,21.71,5.07,21.81,6.11Z" fill="currentColor"/></svg>