<svg xmlns="http://www.w3.org/2000/svg" viewBox="0 0 24 24"><path d="M12.13,5.87L16.36,10.1C17.79,11.53,17.79,12.47,16.36,13.9L12.13,18.13C11.4,18.86,10.86,18.83,10.13,18.1L10.03,18.03C9.3,17.3,9.33,16.73,10.06,16L14.06,12L9.99,8C9.26,7.27,9.26,6.73,9.99,6L10.09,5.87C10.82,5.14,11.39,5.14,12.12,5.87Z" fill="currentColor"/><path d="M22,20.56C22,21.59,21.6,21.99,20.57,21.99L20.44,21.99C19.41,21.99,19.01,21.59,19.01,20.56L19.01,3.43C19.01,2.4,19.41,2,20.44,2L20.57,2C21.6,2,22,2.4,22,3.43Z" fill="currentColor"/><path d="M3.43,13.5C2.4,13.5,2,13.1,2,12.07L2,11.94C2,10.91,2.4,10.51,3.43,10.51L15.5,10.51L15.5,13.51Z" fill="currentColor"/></svg>