<svg xmlns="http://www.w3.org/2000/svg" viewBox="0 0 24 24"><path d="M24,19.67C24,20.64,23.73,20.74,23,20.1L18.83,16.4C18.5,16.1,18.5,15.9,18.83,15.6L23,11.9C23.73,11.23,24,11.37,24,12.37Z" fill="currentColor"/><path d="M1.44,18C0.41,18,0.01,17.6,0.01,16.57L0.01,15.44C0.01,14.41,0.41,14.01,1.44,14.01L12.57,14.01C13.6,14.01,14,14.41,14,15.44L14,16.57C14,17.6,13.6,18,12.57,18Z" fill="currentColor"/><path d="M7.44,24C6.41,24,6.01,23.6,6.01,22.57L6.01,21.44C6.01,20.41,6.41,20.01,7.44,20.01L16.57,20.01C17.6,20.01,18,20.41,18,21.44L18,22.57C18,23.6,17.6,24,16.57,24Z" fill="currentColor"/><path d="M7.44,12C6.41,12,6.01,11.6,6.01,10.57L6.01,9.44C6.01,8.41,6.41,8.01,7.44,8.01L16.57,8.01C17.6,8.01,18,8.41,18,9.44L18,10.57C18,11.6,17.6,12,16.57,12Z" fill="currentColor"/><path d="M6.44,6C5.41,6,5.01,5.6,5.01,4.57L5.01,3.44C5.01,2.41,5.41,2.01,6.44,2.01L15.57,2.01C16.6,2.01,17,2.41,17,3.44L17,4.57C17,5.6,16.6,6,15.57,6Z" fill="currentColor"/></svg>