<svg xmlns="http://www.w3.org/2000/svg" viewBox="0 0 24 24"><path d="M3.07,13.53L1.04,11.73C-0.43,10.36,-0.36,9.56,1.34,8.53L9.74,3.3C11.44,2.27,12.57,2.27,14.27,3.3L17.35,5.22L21.97,0.6C22.4,0.17,22.87,0.17,23.3,0.6L23.4,0.7C23.82,1.12,23.83,1.58,23.43,2C23.42,2.01,23.41,2.02,23.4,2.03L19.11,6.32L16.04,9.39L14.31,11.12L6.31,19.12L2.11,23.32L2.08,23.35C1.65,23.78,1.18,23.78,0.75,23.35L0.65,23.25C0.22,22.82,0.22,22.35,0.65,21.92L5.02,17.55L5.02,13.38C5.02,11.96,7.54,11.08,11.55,11.02L13.51,9.06C13.04,9.03,12.56,9.02,12.05,9.02C6.55,9.02,3.08,10.75,3.08,13.52Z" fill="currentColor"/><path d="M22.03,24C20.86,24,20,23.97,20.3,22.57L21,19.34L21,13.54C21,12.05,20.01,10.86,18.23,10.08L20.87,7.44L22.63,8.54C24.3,9.56,24.39,10.38,23,11.68L23,19.34L23.77,22.57C24.1,23.97,23.14,24,22.04,24Z" fill="currentColor"/><path d="M16.75,11.55C18.19,11.96,19,12.59,19,13.4L19,18.27C14.5,21.27,13.77,22,12,22C10.73,22,9.99,21.62,8.01,20.29Z" fill="currentColor"/></svg>