<svg xmlns="http://www.w3.org/2000/svg" viewBox="0 0 24 24"><path d="M20.44,22C19.41,22,19.01,21.6,19.01,20.57L19.01,3.44C19.01,2.41,19.41,2.01,20.44,2.01L20.57,2.01C21.6,2.01,22,2.41,22,3.44L22,20.57C22,21.6,21.6,22,20.57,22Z" fill="currentColor"/><path d="M3.43,13.5C2.4,13.5,2,13.1,2,12.07L2,11.94C2,10.91,2.4,10.51,3.43,10.51L12.86,10.51L12.86,13.48Z" fill="currentColor"/><path d="M10.73,5.9L17.83,11.43C18.3,11.8,18.3,12.2,17.83,12.56L10.73,18.09C10.26,18.46,10,18.32,10,17.72L10,6.25C10,5.65,10.27,5.52,10.73,5.88Z" fill="currentColor"/></svg>