<svg xmlns="http://www.w3.org/2000/svg" viewBox="0 0 24 24" fill="currentColor"><path d="M11.75,7.1C11.13,6.87,10.85,6.48,10.85,5.85C10.85,5.1,11.43,4.5,12.18,4.5C12.93,4.5,13.47,5.1,13.47,5.85C13.47,6.29,13.32,6.67,12.97,6.95L14.49,11.5L15.99,6.95C15.64,6.67,15.47,6.29,15.47,5.84C15.47,5.15,16.04,4.5,16.79,4.5C17.54,4.5,18.12,5.09,18.12,5.84C18.12,6.5,17.84,6.89,17.22,7.1L17.52,11.69L19.77,8.75C19.57,8.52,19.47,8.27,19.47,7.97C19.47,7.3,20.05,6.68,20.72,6.68C21.5,6.68,22,7.37,22,7.95C22,8.53,21.53,9.15,20.85,9.25L18.65,16L11.75,16ZM8.5,19.5C8.5,18.59,8.97,17.99,9.91,17.7C10.66,18.38,11.5,19.02,11.5,20.51L8.5,20.51ZM17.5,17.5C19.47,17.5,20.5,18.17,20.5,19.5L20.5,20.5L13,20.5C13,19.32,12.48,18.38,11.88,17.5ZM9.95,8.5L5.65,8.5C5,8.5,4.9,8.33,5.25,7.88L7.5,5.08C7.67,4.85,7.82,4.83,7.97,5.03L10.2,7.8C10.6,8.3,10.52,8.5,9.96,8.5ZM11.5,20.5L4,20.5C4,17.8,6.78,17.88,6.78,15.48L6.78,14.97L5.67,14.97C5.58,14.8,5.5,14.5,5.47,14.2L6.77,13.4C6.15,12.97,5.85,12.37,5.85,11.75C5.85,10.7,6.69,9.85,7.74,9.85C8.79,9.85,9.64,10.7,9.64,11.75C9.64,12.37,9.34,12.97,8.72,13.38L10.02,14.2C10.02,14.48,9.94,14.78,9.81,14.97L8.71,14.97L8.71,15.48C8.71,17.88,11.48,17.8,11.48,20.5Z"/></svg>