<svg xmlns="http://www.w3.org/2000/svg" viewBox="0 0 24 24" fill="currentColor"><path d="M13.05,14.5L12.96,14.5C12.5,14.5,12.26,14.25,12.26,13.8L12.26,6.58C12.26,5.81,12.5,5.51,13.13,5.51L19.76,5.51C20.38,5.51,20.56,5.73,20.21,6.11L18.01,8.51L20.09,10.78C20.52,11.23,20.46,11.51,19.96,11.51L13.76,11.51L13.76,13.81C13.76,14.26,13.51,14.51,13.06,14.51ZM6.23,19C5.78,19,5.53,18.75,5.53,18.3L5.53,18.21C5.53,17.75,5.78,17.51,6.23,17.51L19.83,17.51C20.28,17.51,20.52,17.75,20.52,18.21L20.52,18.3C20.52,18.75,20.28,19,19.83,19ZM10.75,18.23C10.75,17.05,11.8,16,13.02,16C14.2,16,15.25,17.05,15.25,18.23C15.25,19.45,14.2,20.5,13.02,20.5C11.8,20.5,10.75,19.45,10.75,18.23Z"/></svg>