<svg xmlns="http://www.w3.org/2000/svg" viewBox="0 0 24 24" fill="currentColor"><path d="M7.55,18.33C7.65,18.75,7.95,19,8.39,19L18.29,19L19.85,12.15L16.22,14.61C15.85,14.85,15.55,14.78,15.38,14.36L12.98,8.53L10.55,14.36C10.38,14.79,10.08,14.86,9.71,14.61L6.18,12.18ZM18.72,20.5L7.27,20.5C6.82,20.5,6.52,20.25,6.42,19.83L4.04,9.53C3.95,9.1,4.1,9,4.47,9.25L9.65,12.78L12.57,5.75C12.85,5.02,13.1,5.02,13.38,5.75L16.3,12.78L21.2,9.45C21.85,9.03,22.02,9.15,21.85,9.9L19.58,19.83C19.48,20.25,19.18,20.5,18.73,20.5Z"/></svg>