<svg xmlns="http://www.w3.org/2000/svg" viewBox="0 0 24 24"><path d="M6.13,22.9C3.33,22.9,1,21.44,1,17.52C1.01,14.13,3.98,12.03,12,12.03C19.79,12.03,23.02,14.22,23.03,17.58C23.02,21.66,20.06,22.89,17.56,22.89C13.06,22.89,14.33,18.99,12.03,18.99C9.73,18.99,10.73,22.89,6.13,22.89Z" fill="currentColor"/><path d="M1.17,10.47C2.87,6.12,5.44,1.97,12.03,1.97C18.56,1.97,21.32,5.99,23.02,10.2C23.47,11.33,23.37,12.25,22.93,12.95C22.46,12.54,21.92,12.17,21.3,11.83C21.35,11.59,21.31,11.29,21.17,10.94C19.55,6.94,17.5,3.97,12.03,3.97C6.55,3.97,4.66,7.02,3.03,11.2C2.97,11.36,2.93,11.51,2.91,11.64C2.23,11.97,1.65,12.35,1.15,12.77C0.84,12.13,0.81,11.35,1.16,10.46Z" fill="currentColor"/></svg>