<svg xmlns="http://www.w3.org/2000/svg" viewBox="0 0 24 24"><path d="M11.73,18.67C14.8,18.67,17.2,16.37,16.96,13.67L6.99,14.97C6.99,17.2,9.29,18.67,11.72,18.67Z" fill="currentColor"/><path d="M10.77,11.07C10.77,10.04,9.9,9.17,8.9,9.17C7.87,9.17,7,10.04,7,11.07C7,12.07,7.87,12.9,8.9,12.9C9.9,12.9,10.77,12.07,10.77,11.07Z" fill="currentColor"/><path d="M13.33,11.67L16.86,11.67C16.93,11.47,16.96,11.24,16.96,11.04C16.96,9.91,16.09,9.17,15.09,9.17C13.99,9.17,13.22,10.04,13.22,11.04C13.22,11.24,13.25,11.47,13.32,11.67Z" fill="currentColor"/><path d="M20.57,22L3.44,22C2.41,22,2.01,21.6,2.01,20.57L2.01,10.44C2.01,9.41,2.31,8.74,3.08,8.07L10.95,1.27C11.72,0.6,12.32,0.6,13.08,1.27L20.95,8.07C21.72,8.74,22.02,9.4,22.02,10.44L22.02,20.57C22.02,21.6,21.62,22,20.59,22Z" fill="currentColor"/></svg>