<svg xmlns="http://www.w3.org/2000/svg" viewBox="0 0 24 24"><path d="M4.67,10.94C3.67,5.91,7.14,3.81,12,3.81L12,12.81C8.7,12.81,6.5,13.81,6.5,16.44C6.5,19.11,8.7,20.11,12,20.11L12,22.34C5.93,22.34,1.8,20.61,1.8,15.97C1.8,13.64,2.9,12.07,4.67,10.94Z" fill="currentColor"/><path d="M10.84,16.33C10.84,15.7,10.31,15.16,9.67,15.16C9.04,15.16,8.5,15.69,8.5,16.33C8.5,16.96,9.03,17.5,9.67,17.5C10.3,17.5,10.84,16.97,10.84,16.33Z" fill="currentColor"/><path d="M10.17,10C10.17,9.37,9.64,8.83,9,8.83C8.37,8.83,7.83,9.36,7.83,10C7.83,10.63,8.36,11.17,9,11.17C9.63,11.17,10.17,10.64,10.17,10Z" fill="currentColor"/><path d="M3,6.83C2.13,5.46,1.87,4,1.83,2.2C1.83,1.9,2,1.77,2.3,1.8C3.9,2.03,5.07,2.4,6.33,3.27C4.76,3.9,3.6,5.14,3,6.84Z" fill="currentColor"/><path d="M12,22.34L12,20.11C15.3,20.11,17.5,19.11,17.5,16.44C17.5,13.81,15.3,12.81,12,12.81L12,3.81C16.87,3.81,20.33,5.91,19.33,10.94C21.1,12.07,22.2,13.64,22.2,15.97C22.2,20.6,18.07,22.34,12,22.34Z" fill="currentColor"/><path d="M15.5,16.33C15.5,15.7,14.97,15.16,14.33,15.16C13.7,15.16,13.16,15.69,13.16,16.33C13.16,16.96,13.69,17.5,14.33,17.5C14.96,17.5,15.5,16.97,15.5,16.33Z" fill="currentColor"/><path d="M16.17,10C16.17,9.37,15.64,8.83,15,8.83C14.37,8.83,13.83,9.36,13.83,10C13.83,10.63,14.36,11.17,15,11.17C15.63,11.17,16.17,10.64,16.17,10Z" fill="currentColor"/><path d="M21,6.83C20.4,5.13,19.23,3.9,17.67,3.26C18.94,2.39,20.1,2.03,21.7,1.79C22,1.76,22.17,1.89,22.17,2.19C22.14,3.99,21.87,5.46,21,6.82Z" fill="currentColor"/></svg>