<svg xmlns="http://www.w3.org/2000/svg" viewBox="0 0 24 24"><path d="M1.97,16.17C3.17,14.97,5.1,16.07,5.84,15.34L7.81,13.37L10.64,16.2L8.67,18.17C7.9,18.9,9.04,20.84,7.84,22.07C7.14,22.74,6.04,22.77,5.27,22C4.54,21.27,4.6,20.13,4.97,19.03C3.87,19.36,2.74,19.46,2.04,18.76C1.31,18.03,1.27,16.86,1.97,16.16Z" fill="currentColor"/><path d="M13.38,7.78L15.33,5.83C16.1,5.1,14.96,3.16,16.16,1.93C16.86,1.26,17.96,1.23,18.73,2C19.46,2.73,19.4,3.87,19.03,4.97C20.13,4.64,21.26,4.54,21.96,5.24C22.69,5.97,22.73,7.14,22.03,7.84C20.83,9.04,18.9,7.94,18.16,8.67L16.21,10.62Z" fill="currentColor"/><path d="M13.4,10.57L18.17,15.34C18.9,16.11,20.84,14.97,22.07,16.17C22.74,16.87,22.77,17.97,22,18.74C21.27,19.47,20.13,19.41,19.03,19.04C19.36,20.14,19.46,21.27,18.76,21.97C18.03,22.7,16.86,22.74,16.16,22.04C14.96,20.84,16.06,18.91,15.33,18.17L10.56,13.4Z" fill="currentColor"/><path d="M10.6,13.43L5.83,8.66C5.1,7.89,3.16,9.03,1.93,7.83C1.26,7.13,1.23,6.03,2,5.26C2.73,4.53,3.87,4.59,4.97,4.96C4.64,3.86,4.54,2.73,5.24,2.03C5.97,1.3,7.14,1.26,7.84,1.96C9.04,3.16,7.94,5.09,8.67,5.83L13.44,10.6Z" fill="currentColor"/></svg>