<svg xmlns="http://www.w3.org/2000/svg" viewBox="0 0 24 24"><path d="M13.27,23.6C12.37,24.1,11.7,24.1,10.8,23.6L2.23,18.7C1.33,18.2,1,17.6,1,16.57L1,6.8C1,5.77,1.37,5.2,2.3,4.73L10.7,0.73C11.63,0.26,12.37,0.26,13.3,0.73L21.7,4.73C22.63,5.2,23,5.76,23,6.8L23,16.57C23,17.6,22.67,18.2,21.77,18.7Z" fill="currentColor"/><path d="M3.63,17.13L8.8,19.96C8.8,19.29,8.57,18.63,8.1,18.09C6.9,16.62,6.83,15.82,6.83,15.52L6.83,15.19L7.56,15.59C7.66,15.49,7.69,15.32,7.69,15.16L6.82,14.16L6.89,14.13C7.26,14.1,7.46,13.8,7.46,13.4C7.46,12.67,6.89,11.8,6.19,11.43C5.49,11.06,4.96,11.3,4.96,12C4.96,12.43,5.16,12.93,5.49,13.33L5.59,13.43L4.72,13.5C4.72,13.67,4.75,13.9,4.85,14.1L5.58,14.5L5.58,14.83C5.58,15.1,5.51,15.9,4.31,16C3.88,16.03,3.61,16.47,3.61,17.13Z" fill="currentColor"/><path d="M12.07,23.1C12.37,23.07,12.57,22.87,12.57,22.6L12.57,13.63C12.57,12.63,13.07,11.76,13.9,11.26L17.83,9.13L21.56,7.03C21.79,6.9,21.89,6.56,21.76,6.36C21.63,6.09,21.29,6.06,21.09,6.16L13.32,10.46C12.49,10.89,11.52,10.89,10.72,10.46L2.92,6.09C2.69,5.92,2.39,6.02,2.22,6.26C2.09,6.49,2.19,6.83,2.42,6.93L10.15,11.3C10.98,11.8,11.52,12.67,11.52,13.67L11.52,22.6C11.52,22.9,11.75,23.1,12.05,23.1Z" fill="currentColor"/><path d="M20.9,17C20.9,17,20.9,16.77,20.9,16.5C20.9,16.5,20.9,15.3,19.53,16.03L16.66,17.6C15.23,18.37,15.23,19.6,15.23,19.6L15.23,20.13Z" fill="currentColor"/><path d="M19.97,15.44C20.04,15.04,20.4,13.94,20.4,13.34C20.4,11.07,18.97,10.84,17.7,11.47L17.03,11.1C16.96,11.17,16.83,11.3,16.83,11.47L16.76,11.87C16.69,12.1,16.53,12.3,16.36,12.57C16.16,12.87,16.09,13.07,16.06,13.2C15.93,13.67,15.93,13.9,15.66,14.47L15.03,15.67C14.9,15.97,14.93,16.24,15.06,16.3C15.29,16.37,15.93,16.2,15.99,16.13C16.22,15.76,16.22,15.33,16.72,15.1C17.12,14.87,17.45,14.27,17.69,13.93L17.86,13.6C17.93,13.67,18.16,13.87,18.06,14.27C17.99,14.37,17.96,14.5,17.93,14.6C17.83,14.83,17.7,15.03,17.5,15.3C17.13,15.83,16.47,16.57,16.4,17.37Z" fill="currentColor"/><path d="M9.17,5.4L12,3.93C12.3,3.66,12.13,3.43,11.87,3.23L10.8,2.6C10.47,2.67,10.13,2.73,9.87,2.87L10.5,3.4L9.87,3.7L8.84,3.27C8.84,3.27,8.54,3.4,8.31,3.5C8.08,3.6,7.88,3.77,7.88,3.77L8.68,4.27L8.05,4.6L7.12,4.33C6.85,4.43,6.65,4.56,6.55,4.76L7.82,5.33C8.19,5.46,8.62,5.53,9.19,5.4Z" fill="currentColor"/><path d="M15.2,5.1C14.9,5,13.37,4.47,12.43,4.1L9.43,5.6C10.13,6.1,11.13,6.9,11.33,7.07Z" fill="currentColor"/><path d="M18.13,5.67C18.13,5.67,17.86,5.5,17.63,5.4C17.63,5.4,16.5,4.8,15.06,5.53L12.19,6.96C10.72,7.73,11.89,8.29,11.89,8.29L12.36,8.56Z" fill="currentColor"/></svg>