<svg xmlns="http://www.w3.org/2000/svg" viewBox="0 0 24 24" fill="currentColor"><path d="M8.5,13L11.13,13C10.41,14.07,10,15.36,10,16.75C10,18.14,10.41,19.43,11.13,20.5L6,20.5C4.5,20.5,4,20,4,18.5L4,7.49C4,5.99,4.5,5.49,6,5.49L17,5.49C18.5,5.49,19.01,5.99,19.01,7.49L19.01,10.37C18.53,10.21,18.02,10.09,17.51,10.04L17.51,7L5.51,7L5.51,10L8.51,10ZM11.5,10L14.5,10L14.5,10.38C13.31,10.79,12.27,11.53,11.5,12.48ZM11.52,16.75C11.52,13.88,13.9,11.52,16.75,11.52C19.62,11.52,21.98,13.87,21.98,16.75C21.98,19.6,19.63,21.98,16.75,21.98C13.9,21.98,11.52,19.6,11.52,16.75ZM16,19.5C16,20.03,16.2,20.23,16.7,20.23L16.77,20.23C17.3,20.23,17.5,20.03,17.5,19.53L17.5,17.51L19.52,17.51C20.03,17.51,20.22,17.3,20.22,16.78L20.22,16.71C20.22,16.2,20.02,16.01,19.5,16.01L17.49,16.01L17.49,14.01C17.49,13.48,17.29,13.28,16.8,13.28L16.72,13.28C16.2,13.28,15.99,13.48,15.99,13.98L15.99,16L13.97,16C13.46,16,13.27,16.2,13.27,16.73L13.27,16.8C13.27,17.31,13.47,17.5,14,17.5L16,17.5Z"/></svg>