<svg xmlns="http://www.w3.org/2000/svg" viewBox="0 0 24 24" fill="currentColor"><path d="M19.88,20.5L6.13,20.5C4.58,20.5,4.08,18.57,5.33,17.37L11.13,11.57C11.67,11.03,11.88,10.52,11.88,9.75L11.88,8.87L9.98,8.87C9.53,8.87,9.28,8.63,9.28,8.18L9.28,7.33C9.28,6.88,9.53,6.63,9.98,6.63L11.88,6.63L11.88,4.7C11.88,4.25,12.12,4.01,12.57,4.01L13.42,4.01C13.87,4.01,14.12,4.25,14.12,4.7L14.12,6.63L16.02,6.63C16.47,6.63,16.71,6.88,16.71,7.33L16.71,8.18C16.71,8.63,16.47,8.87,16.02,8.87L14.12,8.87L14.12,9.77C14.12,10.55,14.34,11.05,14.87,11.6L20.67,17.37C21.92,18.57,21.42,20.5,19.86,20.5Z"/></svg>