<svg xmlns="http://www.w3.org/2000/svg" viewBox="0 0 24 24" fill="currentColor"><path d="M6.7,10.7C6.57,10.5,6.53,10.2,6.53,9.82L7.98,9.24C7.17,8.59,6.9,8.02,6.9,7.35C6.9,6.22,7.86,5.25,9.03,5.25C10.17,5.25,11.15,6.22,11.13,7.35C11.13,7.82,10.99,8.25,10.64,8.68C10.44,8.85,10.25,9.04,10.09,9.26C9.63,9.87,9.36,10.62,9.37,11.45C9.37,11.88,9.45,12.27,9.6,12.85C8.79,13.52,8.79,14.93,9.82,15.77L9.17,16.32C9.02,16.45,8.87,16.59,8.72,16.74C7.24,16.72,5.59,16.52,4.77,16.17C4.79,14.88,5.25,14,6,13.55C7.62,12.5,7.79,11.22,7.85,10.7ZM15.9,9.26L15.93,9.25L15.9,9.26C15.75,9.05,15.56,8.85,15.36,8.68C15,8.25,14.87,7.82,14.87,7.35C14.85,6.22,15.82,5.25,16.97,5.25C18.15,5.25,19.09,6.22,19.09,7.35C19.09,8.02,18.81,8.6,18.02,9.24L19.47,9.82C19.47,10.2,19.41,10.5,19.29,10.7L18.15,10.7C18.2,11.22,18.37,12.5,20,13.55C20.75,14,21.2,14.88,21.22,16.17C20.39,16.52,18.74,16.72,17.27,16.74C17.12,16.59,16.97,16.45,16.82,16.32L16.16,15.78C17.19,14.93,17.19,13.53,16.39,12.85C16.54,12.27,16.62,11.88,16.62,11.45C16.62,10.62,16.35,9.87,15.89,9.26ZM10.62,14.77C10.5,14.57,10.45,14.25,10.45,13.87L11.88,13.32C11.13,12.65,10.85,12.07,10.85,11.43C10.82,10.28,11.77,9.3,12.95,9.3C14.13,9.3,15.05,10.28,15.05,11.43C15.05,12.08,14.77,12.65,14,13.32L15.42,13.87C15.42,14.25,15.37,14.57,15.25,14.77L14.13,14.77C14.4,17.6,17.2,17.12,17.25,20.22C16.18,20.7,14.18,20.75,13,20.75C11.85,20.75,9.83,20.7,8.75,20.22C8.75,17.05,11.3,17.9,11.77,14.77Z"/></svg>