<svg xmlns="http://www.w3.org/2000/svg" viewBox="0 0 24 24"><path d="M19.9,17.33C20.73,19,21,20.03,21.1,22L7.27,22C7.4,20.4,7.07,19.67,6.7,18.1C7.73,16.87,10.3,15.27,10.97,14.53C11.4,15.63,12.17,16.03,13.14,16.03C15.01,16.03,17.61,13.76,18.84,12.3C18.47,15.5,18.87,15.2,19.91,17.33Z" fill="currentColor"/><path d="M4.73,15.63C4.4,18.06,5.36,20.23,5.36,20.9C5.36,22.23,3.73,22.67,3.09,21.9C3.26,20.87,3.29,20.43,3.02,19.77C2.75,19.17,0.55,13.7,4.99,7.9C5.12,4.23,8.19,2.23,11.36,2.57C14.16,1.3,17.29,1.87,19.39,3.64C20.86,7.07,17.49,12.41,13.29,14.11C12.96,14.24,12.79,13.98,12.76,13.84L11.69,9.94C9.86,14.44,7.49,15.81,4.72,15.64Z" fill="currentColor"/><path d="M3.93,14.27C4.96,15.07,7.4,14.57,8.4,13.27C8.97,12.64,7.13,11.5,6.73,12.3C6.13,13.47,4.9,13.77,4.06,13.63C3.73,13.56,3.49,13.9,3.93,14.26Z" fill="currentColor"/></svg>