<svg xmlns="http://www.w3.org/2000/svg" viewBox="0 0 24 24"><path d="M18.8,22L5.2,22C5.2,17.27,9.9,18,10.27,13.3L10.34,12.5L8.44,12.5C8.21,12.1,8.11,11.6,8.11,11.13L10.34,10L13.67,10L15.9,11.13C15.9,11.6,15.8,12.1,15.57,12.5L13.67,12.5L13.74,13.3C14.11,18,18.81,17.27,18.81,22Z" fill="currentColor"/><path d="M7.77,8.7C7.64,8.83,6.4,8.5,5.9,8.1C5.6,7.83,5.6,7.33,5.87,6.93L7.07,5.26C7.64,4.49,7.64,4.06,7.94,3.26C8.01,3.06,8.14,2.73,8.51,2.43C8.91,2.1,9.18,1.86,9.34,1.46L9.44,0.73C9.51,0.56,9.71,0.33,9.91,0.33L11.18,1.7C13.48,1.83,16.91,3.43,16.05,8L11.95,8C11.92,6.67,11.92,6.2,11.58,5.93L11.15,6.36C10.75,6.76,10.08,7.49,9.32,7.49C8.25,7.52,8.22,8.26,7.79,8.69Z" fill="currentColor"/></svg>