<svg xmlns="http://www.w3.org/2000/svg" viewBox="0 0 24 24"><path d="M6,12L9.5,12C8.55,13.43,8,15.14,8,17C8,18.86,8.55,20.57,9.5,22L2.67,22C0.67,22,0,21.33,0,19.33L0,4.66C0,2.66,0.67,1.99,2.67,1.99L17.34,1.99C19.34,1.99,20.01,2.66,20.01,4.66L20.01,8.5C19.37,8.28,18.7,8.12,18.01,8.05L18.01,4L2.01,4L2.01,8L6.01,8Z" fill="currentColor"/><path d="M10,8L14,8L14,8.5C12.41,9.05,11.03,10.04,10,11.31Z" fill="currentColor"/><path d="M10.03,17C10.03,13.17,13.2,10.03,17,10.03C20.83,10.03,23.97,13.16,23.97,17C23.97,20.8,20.84,23.97,17,23.97C13.2,23.97,10.03,20.8,10.03,17Z" fill="currentColor"/><path d="M16,20.67C16,21.37,16.27,21.64,16.93,21.64L17.03,21.64C17.73,21.64,18,21.37,18,20.71L18,18.01L20.7,18.01C21.37,18.01,21.63,17.74,21.63,17.04L21.63,16.94C21.63,16.27,21.36,16.01,20.66,16.01L17.99,16.01L17.99,13.34C17.99,12.64,17.72,12.37,17.06,12.37L16.96,12.37C16.26,12.37,15.99,12.64,15.99,13.3L15.99,16L13.29,16C12.62,16,12.36,16.27,12.36,16.97L12.36,17.07C12.36,17.74,12.63,18,13.33,18L16,18Z" fill="currentColor"/></svg>