<svg xmlns="http://www.w3.org/2000/svg" viewBox="0 0 24 24"><path d="M18.8,22L5.2,22C5.2,17.27,9.9,18,10.27,13.3L10.34,12.5L8.44,12.5C8.21,12.1,8.11,11.6,8.11,11.13L10.34,9.76L13.67,9.73L15.9,11.13C15.9,11.6,15.8,12.1,15.57,12.5L13.67,12.5L13.74,13.3C14.11,18,18.81,17.27,18.81,22Z" fill="currentColor"/><path d="M12,7.77C9.03,7.77,6.87,8.44,6.87,8.44L6.67,3.34C6.67,2.94,7,2.81,7.44,3.07L9.84,4.54L11.54,1.67C11.81,1.14,12.21,1.14,12.51,1.67L14.18,4.54L16.65,3.07C17.02,2.84,17.35,2.94,17.35,3.34L17.15,8.44C17.15,8.44,14.95,7.74,12.02,7.77Z" fill="currentColor"/></svg>