<svg xmlns="http://www.w3.org/2000/svg" viewBox="0 0 24 24" fill="currentColor"><path d="M4.78,19.45C4.78,19.07,4.93,18.7,5.18,18.42C5.48,18.12,5.91,17.99,6.28,18.02L8.1,15.8L6.68,14.37C6.53,14.22,6.96,13.72,7.18,13.55C7.28,13.42,7.43,13.37,7.58,13.37C7.71,13.37,7.82,13.4,7.93,13.47C8.28,13.77,8.66,14.07,9.08,14.42L9.8,13.7L11.94,15.85L11.21,16.58C11.58,16.95,11.86,17.35,12.16,17.72C12.26,17.82,12.29,17.95,12.29,18.08C12.29,18.23,12.23,18.35,12.11,18.47C11.94,18.68,11.44,19.1,11.29,18.95L9.86,17.52L7.64,19.37C7.66,19.75,7.54,20.15,7.24,20.42C6.94,20.72,6.59,20.85,6.21,20.85C5.84,20.85,5.48,20.72,5.18,20.42C4.93,20.18,4.78,19.8,4.78,19.45ZM14.03,9.48L17.18,6.33C18.38,5.13,20.38,5.25,20.38,5.25C20.38,5.25,20.51,7.28,19.33,8.48L16.17,11.62ZM16.12,17.55L14.72,18.98C14.59,19.07,14.06,18.68,13.87,18.47C13.77,18.35,13.72,18.2,13.72,18.05C13.72,17.92,13.74,17.82,13.85,17.72C14.1,17.37,14.43,16.97,14.8,16.58L6.65,8.45C5.47,7.28,5.6,5.25,5.6,5.25C5.6,5.25,7.6,5.12,8.8,6.32L16.92,14.45C17.32,14.09,17.67,13.75,18.05,13.47C18.15,13.4,18.27,13.34,18.4,13.34C18.55,13.34,18.7,13.42,18.83,13.55C19,13.72,19.45,14.22,19.3,14.37L17.9,15.8L19.7,17.99C20.09,17.97,20.5,18.12,20.77,18.42C21.05,18.7,21.2,19.07,21.2,19.45C21.2,19.8,21.05,20.18,20.77,20.45C20.49,20.72,20.15,20.84,19.77,20.84C19.42,20.84,19.05,20.72,18.8,20.45C18.48,20.15,18.33,19.75,18.35,19.38Z"/></svg>