<svg xmlns="http://www.w3.org/2000/svg" viewBox="0 0 24 24"><path d="M4.66,22C2.66,22,1.99,21.33,1.99,19.33L1.99,4.66C1.99,2.66,2.66,1.99,4.66,1.99L19.33,1.99C21.33,1.99,22,2.66,22,4.66L22,19.33C22,21.33,21.33,22,19.33,22Z" fill="currentColor"/><path d="M4,20L8,20L8,16L4,16Z" fill="currentColor"/><path d="M12,20L16,20L16,16L12,16Z" fill="currentColor"/><path d="M8,16L12,16L12,12L8,12Z" fill="currentColor"/><path d="M4,12L8,12L8,8L4,8Z" fill="currentColor"/><path d="M16,16L20,16L20,12L16,12Z" fill="currentColor"/><path d="M12,12L16,12L16,8L12,8Z" fill="currentColor"/><path d="M8,8L12,8L12,4L8,4Z" fill="currentColor"/><path d="M16,8L20,8L20,4L16,4Z" fill="currentColor"/></svg>