<svg xmlns="http://www.w3.org/2000/svg" viewBox="0 0 24 24" fill="currentColor"><path d="M9.38,15.48L10.45,16.58L4.25,21.75ZM4.22,17.2L7.6,12.7L8.28,14.2ZM18.6,6.77C16.8,6.77,14.63,7.05,11.25,10.22C11.27,10.6,11.78,11.33,12.08,11.57C14.68,8.88,16.52,7.67,18.6,6.77ZM20.37,5.63C20.37,5.63,20.54,6.45,20.54,7.71C20.54,9.71,20.04,12.83,17.42,15.45L15.79,17.08C15.29,17.58,14.79,17.53,14.19,17.28L8.59,22.01L15.94,12.88L12.02,15.9C11.7,15.6,11.32,15.28,11.02,14.98C9.72,13.7,7.92,11.23,8.94,10.2L10.59,8.6C13.24,5.98,16.32,5.45,18.32,5.45C19.54,5.45,20.37,5.63,20.37,5.63Z"/></svg>