<svg xmlns="http://www.w3.org/2000/svg" viewBox="0 0 24 24" fill="currentColor"><path d="M13.32,21.25C8.92,21.25,5.57,19.05,5.57,15.48C5.57,13.7,6.4,12.33,7.98,10.75L6.6,10.75C4.93,10.75,5.98,9.68,6.75,9.18C4.58,8.85,4.65,7.47,5.2,7.47L7.25,7.47C7.4,6.48,8.5,4.75,10.85,4.75C13.2,4.75,14.58,6.42,14.58,7.98C14.58,9.2,13.92,10.02,13.32,10.7C13.87,11.17,14.52,11.35,15.87,11.35C18.63,11.35,18.52,9.7,19.2,9.7C20.04,9.7,21.24,12.27,21.24,14.63C21.24,17.63,18.99,21.25,13.31,21.25ZM13.75,17.48L13.75,18.98C16.43,18.98,18.9,17.61,19.05,14.93C19,14.15,18.68,13.86,17.91,13.86L17.4,13.86C15,13.86,14.7,12.26,12.3,12.26C10.1,12.26,8.87,13.96,9.13,16.01L10.63,16.01C10.48,14.79,10.98,13.73,12.26,13.76C14.15,13.76,14.26,15.36,17.33,15.36C17.16,15.78,16.53,17.48,13.76,17.48ZM10.6,8.02C10.6,7.55,10.2,7.14,9.7,7.14C9.23,7.14,8.85,7.54,8.85,8.02C8.85,8.52,9.23,8.9,9.7,8.9C10.2,8.9,10.6,8.52,10.6,8.02Z"/></svg>