<svg xmlns="http://www.w3.org/2000/svg" viewBox="0 0 24 24" fill="currentColor"><path d="M18.1,20.5L7.9,20.5C7.9,16.95,11.43,17.5,11.7,13.98L11.76,13.38L10.33,13.38C10.16,13.08,10.08,12.7,10.08,12.35L11.76,11.32L14.25,11.3L15.93,12.35C15.93,12.7,15.85,13.07,15.68,13.38L14.25,13.38L14.31,13.98C14.58,17.5,18.11,16.95,18.11,20.5ZM15.95,9.95L10.04,9.95C9.14,9.65,8.79,9.02,8.75,8.37L8.57,6.48C9.15,6.23,9.62,6.1,10.17,6.1L10.55,7.75L11.8,7.75L12.02,5.85C12.02,5.85,12.55,5.76,13,5.76C13.45,5.76,13.97,5.85,13.97,5.85L14.18,7.75L15.45,7.75L15.83,6.1C16.37,6.1,16.85,6.23,17.42,6.47L17.25,8.37C17.2,9.02,16.85,9.65,15.95,9.95Z"/></svg>