<svg xmlns="http://www.w3.org/2000/svg" viewBox="0 0 24 24"><path d="M8.37,16.93C7.14,15.96,6.54,14.76,6.54,13.23L6.54,6.1C6.54,3.07,9.01,0.6,12.01,0.6C15.01,0.6,17.48,3.07,17.48,6.1L17.48,13.23C17.48,14.76,16.88,15.96,15.61,16.93L14.18,10.03L15.81,9.93C16.48,9.9,16.51,7,15.84,7.23L12.47,8.6L13.27,12.57L12,13.34L10.73,12.57L11.53,8.6L8.13,7.23C7.5,7,7.5,9.9,8.2,9.93L9.83,10.03Z" fill="currentColor"/><path d="M3.03,21.9C2.26,22.53,1.16,22.47,0.53,21.7C-0.1,20.97,-0.04,19.87,0.7,19.23C1,18.96,1.43,18.83,2.07,18.76L3.8,16.89L2.2,15.06C2.03,14.86,2.63,14.26,2.87,14.06C3.17,13.79,3.6,13.76,6.27,16.86C8.94,19.96,8.84,20.36,8.57,20.59C8.3,20.82,7.64,21.32,7.47,21.12L5.84,19.22L3.64,20.55C3.51,21.25,3.27,21.65,3.04,21.88Z" fill="currentColor"/><path d="M4.9,6L4.9,8.13L2.07,5.66C0.57,4.36,0.54,2.03,0.54,2.03C0.54,2.03,2.84,1.7,4.34,3L5.34,3.87C5.04,4.5,4.91,5.24,4.91,6Z" fill="currentColor"/><path d="M20.97,21.9C20.74,21.67,20.5,21.27,20.37,20.57L18.17,19.24L16.54,21.14C16.37,21.34,15.71,20.84,15.44,20.61C15.17,20.38,15.07,19.64,17.74,16.54C20.41,13.44,20.84,13.81,21.14,14.07C21.37,14.27,21.97,14.87,21.81,15.07L20.21,16.9L21.94,18.77C22.57,18.84,23.01,18.97,23.31,19.24C24.04,19.87,24.11,20.97,23.48,21.71C22.85,22.48,21.75,22.54,20.98,21.91Z" fill="currentColor"/><path d="M21.93,5.67L19.1,8.14L19.1,6.01C19.1,5.24,18.97,4.51,18.67,3.88L19.67,3.01C21.17,1.71,23.47,2.04,23.47,2.04C23.47,2.04,23.44,4.37,21.94,5.67Z" fill="currentColor"/></svg>