<svg xmlns="http://www.w3.org/2000/svg" viewBox="0 0 24 24"><path d="M8.44,22C7.41,22,7.01,21.6,7.01,20.57L7.01,3.44C7.01,2.41,7.41,2.01,8.44,2.01L8.57,2.01C9.6,2.01,10,2.41,10,3.44L10,20.57C10,21.6,9.6,22,8.57,22Z" fill="currentColor"/><path d="M1.43,13.5C0.4,13.5,0,13.1,0,12.07L0,11.94C0,10.91,0.4,10.51,1.43,10.51L5,10.51L5,13.51Z" fill="currentColor"/><path d="M16.73,5.9L23.63,11.43C24.1,11.8,24.1,12.2,23.63,12.56L16.73,18.09C16.26,18.46,16,18.32,16,17.72L16,6.25C16,5.65,16.27,5.52,16.73,5.88Z" fill="currentColor"/><path d="M12,10.5L18.87,10.5L18.87,13.47L12,13.5Z" fill="currentColor"/></svg>