<svg xmlns="http://www.w3.org/2000/svg" viewBox="0 0 24 24" fill="currentColor"><path d="M22,13.04C22,13.5,21.75,13.74,21.3,13.74L19.93,13.74C19.55,16.99,16.98,19.54,13.76,19.95L13.76,21.29C13.76,21.75,13.51,21.99,13.06,21.99L12.96,21.99C12.51,21.99,12.27,21.75,12.27,21.29L12.27,19.95C9.02,19.55,6.47,17,6.06,13.74L4.71,13.74C4.26,13.74,4.02,13.5,4.02,13.04L4.02,12.95C4.02,12.5,4.26,12.25,4.71,12.25L6.06,12.25C6.46,9,9.01,6.45,12.27,6.05L12.27,4.7C12.27,4.25,12.51,4,12.96,4L13.06,4C13.51,4,13.76,4.25,13.76,4.7L13.76,6.05C16.98,6.44,19.55,8.99,19.93,12.25L21.3,12.25C21.75,12.25,22,12.5,22,12.95ZM7.58,13.75C7.95,16.17,9.83,18.05,12.25,18.42L12.25,16.55C12.25,16.2,12.5,16,12.95,16L13.04,16C13.5,16,13.74,16.2,13.74,16.55L13.74,18.42C16.16,18.05,18.04,16.17,18.41,13.75L16.54,13.75C16.19,13.75,15.99,13.5,15.99,13.05L15.99,12.96C15.99,12.5,16.2,12.26,16.54,12.26L18.41,12.26C18.04,9.83,16.16,7.96,13.74,7.58L13.74,9.46C13.74,9.81,13.5,10.01,13.04,10.01L12.95,10.01C12.5,10.01,12.25,9.8,12.25,9.46L12.25,7.58C9.83,7.96,7.95,9.83,7.58,12.26L9.45,12.26C9.8,12.26,10,12.5,10,12.96L10,13.05C10,13.5,9.8,13.75,9.45,13.75Z"/></svg>