<svg xmlns="http://www.w3.org/2000/svg" viewBox="0 0 24 24"><path d="M8.8,16.1C8.3,15.77,8.03,15.27,8.03,14.67L8.03,14.5C8.03,13.87,7.93,13.43,7.66,12.87L6.09,9.64C8.42,10.54,9.32,9.34,9.52,6.81C11.09,9.54,12.89,9.54,14.45,6.81C14.65,9.34,15.55,10.54,17.88,9.64L16.38,12.87C16.11,13.4,16.01,13.87,16.01,14.5L16.01,14.67C16.01,15.27,15.74,15.77,15.21,16.1C13.48,16.93,10.51,16.93,8.78,16.1Z" fill="currentColor"/><path d="M0.93,16.9C2.36,16.63,3.73,17.03,4.96,18.4C4.19,16.8,4.09,16.03,5.03,15.33C5.63,16.13,6.86,17.26,6.5,19.9C3.43,20.33,1.67,18.87,0.93,16.9Z" fill="currentColor"/><path d="M11.5,21.87C10.07,23.67,6.17,23.2,5.33,21.84C6.06,20.77,6.9,20.67,9.63,21.34C8.7,20.67,7.83,19.97,8.23,18.51C9.66,18.91,11.26,20.21,11.5,21.88Z" fill="currentColor"/><path d="M10.53,3.2C10.1,3.77,8.5,4.27,6.63,3.4C6.43,1.9,7.4,0.37,9.4,0.37C9.3,1.2,8.77,1.77,7.47,2.77C9.04,2.27,10.1,2.84,10.54,3.2Z" fill="currentColor"/><path d="M3.37,6.2C3.17,4.37,3.84,3.1,5.37,2.2C5.54,3.3,5.17,4.33,4.67,5.07C5.67,4.57,6.7,4.67,7.5,5.1C6.83,6.2,5.37,6.33,3.37,6.2Z" fill="currentColor"/><path d="M5.5,7.63C5,8.86,4.13,10.06,1.87,10.56C0.5,8.96,0.7,7.23,1.9,5.69C2.57,6.76,2.67,7.59,2.4,8.99C3.33,7.72,4.4,7.59,5.5,7.62Z" fill="currentColor"/><path d="M4.33,11.13C4.6,12.56,4.46,14.36,2.76,15.7C0.73,14.97,0.03,13.6,0.03,12.37C0.03,12,0.1,11.67,0.2,11.34C1.37,11.84,1.93,12.64,2.37,13.67C2.6,12.54,3.07,11.47,4.34,11.14Z" fill="currentColor"/><path d="M14.77,14.87C14.77,14.87,14.77,14.14,12,14.14C9.23,14.14,9.23,14.87,9.23,14.87C9.23,14.87,9.23,15.67,12,15.67C14.77,15.67,14.77,14.87,14.77,14.87Z" fill="currentColor"/><path d="M18.97,15.33C19.9,16.03,19.8,16.8,19.04,18.4C20.27,17.03,21.64,16.63,23.07,16.9C22.34,18.87,20.57,20.33,17.5,19.9C17.13,17.27,18.37,16.13,18.97,15.33Z" fill="currentColor"/><path d="M12.5,21.87C12.73,20.2,14.33,18.9,15.77,18.5C16.17,19.97,15.3,20.67,14.37,21.33C17.1,20.66,17.94,20.76,18.67,21.83C17.84,23.2,13.94,23.66,12.5,21.86Z" fill="currentColor"/><path d="M13.47,3.2C13.9,2.83,14.97,2.27,16.54,2.77C15.24,1.77,14.71,1.2,14.61,0.37C16.61,0.37,17.58,1.9,17.38,3.4C15.51,4.27,13.91,3.77,13.48,3.2Z" fill="currentColor"/><path d="M19.33,5.07C18.83,4.34,18.46,3.3,18.63,2.2C20.16,3.1,20.83,4.37,20.63,6.2C18.63,6.33,17.16,6.2,16.5,5.1C17.3,4.67,18.33,4.57,19.33,5.07Z" fill="currentColor"/><path d="M18.5,7.63C19.6,7.6,20.67,7.73,21.6,9C21.33,7.6,21.43,6.77,22.1,5.7C23.3,7.23,23.5,8.97,22.13,10.57C19.86,10.07,19,8.87,18.5,7.64Z" fill="currentColor"/><path d="M19.67,11.13C20.94,11.46,21.4,12.53,21.64,13.66C22.07,12.63,22.64,11.83,23.81,11.33C23.91,11.66,23.98,12,23.98,12.36C23.98,13.59,23.28,14.96,21.25,15.69C19.55,14.36,19.42,12.56,19.68,11.12Z" fill="currentColor"/></svg>