<svg xmlns="http://www.w3.org/2000/svg" viewBox="0 0 24 24"><path d="M8.8,21.63L3.33,23.2C2.36,23.5,1.96,23.2,1.96,22.17L1.96,4L0.93,4C0.33,4,0,3.67,0,3.07L0,2.94C0,2.34,0.33,2.01,0.93,2.01L1.96,2.01L1.96,1.94C1.96,1.34,2.29,1.01,2.89,1.01L2.99,1.01C3.59,1.01,3.92,1.34,3.92,1.94L3.92,2.01L20.02,2.01L20.02,1.94C20.02,1.34,20.35,1.01,20.95,1.01L21.08,1.01C21.68,1.01,22.01,1.34,22.01,1.94L22.01,2.01L23.04,2.01C23.64,2.01,23.97,2.34,23.97,2.94L23.97,3.07C23.97,3.67,23.64,4,23.04,4L22.01,4L22.01,22.17C22.01,23.2,21.61,23.5,20.64,23.2L15.17,21.63C12.77,20.96,11.17,20.96,8.77,21.63Z" fill="currentColor"/><path d="M3.97,4.57C3.97,5.6,4.37,6.04,5.4,6.17C9.8,6.6,14.2,6.6,18.6,6.17C19.63,6.04,20.03,5.6,20.03,4.57L20.03,4L3.96,4Z" fill="currentColor"/><path d="M8.27,17.57C8.27,17.74,8.37,17.87,8.57,17.87C8.77,17.87,10.17,17.94,12.04,17.94C13.87,17.94,15.27,17.91,15.47,17.87C15.67,17.84,15.8,17.74,15.8,17.57C15.8,16.57,15.4,15.77,14.7,15.34C13.5,14.57,13.3,13.67,13.2,13.17L14.03,13.17C14.23,12.87,14.33,12.67,14.33,12.14L13.4,11.54C13.77,11.17,14,10.67,14,10.14C14,9.04,13.1,8.17,12.03,8.17C10.93,8.17,10.03,9.04,10.03,10.14C10.03,10.67,10.26,11.17,10.63,11.54L9.73,12.14C9.73,12.67,9.83,12.87,10.03,13.17L10.83,13.17C10.76,13.67,10.53,14.57,9.33,15.34C8.63,15.77,8.26,16.57,8.26,17.57Z" fill="currentColor"/></svg>