<svg xmlns="http://www.w3.org/2000/svg" viewBox="0 0 24 24"><path d="M7.9,22.9C6.33,23.93,5.17,22.8,6.63,21.6L9.9,18.93C10.67,18.3,10.67,17.46,10.2,17.03C9.7,16.53,9.03,16.63,8.27,17.33L5.27,20.06C3.77,21.43,2.57,20.23,3.94,18.73L6.67,15.73C7.37,14.96,7.47,14.3,6.97,13.8C6.54,13.33,5.7,13.33,5.07,14.1L2.4,17.37C1.2,18.84,0.07,17.67,1.1,16.1L3.13,13.03C7.13,6.96,11,10.63,12.7,8.6L17.7,2.73C18.67,1.63,19.73,1,20.73,1C21.3,1,21.83,1.2,22.33,1.67C22.8,2.17,23,2.7,23,3.27C23,4.27,22.37,5.34,21.27,6.3L15.4,11.3C13.4,12.97,17.03,16.87,10.97,20.87Z" fill="currentColor"/></svg>