<svg xmlns="http://www.w3.org/2000/svg" viewBox="0 0 24 24"><path d="M12.4,18.17C14.8,18.17,16.57,16.8,16.57,14.97C16.57,13.87,15.87,13.04,15.1,12.47C15.73,11.94,16.33,11.14,16.33,10.04C16.33,8.21,14.6,6.84,12.23,6.84C10.03,6.84,8.5,7.87,7.66,8.81L8.96,10.34C9.86,9.44,10.86,8.81,12.29,8.81C13.59,8.81,14.36,9.31,14.36,10.24C14.36,11.11,13.79,11.54,11.83,11.54L10.56,11.54L10.56,13.47L11.83,13.47C13.83,13.47,14.6,13.8,14.6,14.67C14.6,15.57,13.77,16.24,12.4,16.24C10.9,16.24,9.8,15.44,8.97,14.74L7.67,16.21C8.57,17.14,10.2,18.18,12.4,18.18Z" fill="currentColor"/><path d="M6.97,22C3.3,22,2,20.7,2,17.03L2,6.96C2,4.13,2.73,2.33,5.07,1.99L6,2.66L6,1.19C6,0.22,6.37,-0.01,7,-0.01C7.63,-0.01,8,0.22,8,1.19L8,2.66L9.03,1.99L12,1.99L14.97,1.99L16,2.66L16,1.19C16,0.22,16.37,-0.01,17,-0.01C17.63,-0.01,18,0.22,18,1.19L18,2.66L18.93,1.99C21.26,2.32,22,4.12,22,6.96L22,17.03C22,20.7,20.7,22,17.03,22L12,22Z" fill="currentColor"/></svg>