<svg xmlns="http://www.w3.org/2000/svg" viewBox="0 0 24 24" fill="currentColor"><path d="M9.93,21.18C8.75,21.95,7.88,21.1,8.97,20.2L11.43,18.2C12,17.73,12,17.09,11.65,16.77C11.28,16.4,10.77,16.47,10.2,17L7.95,19.05C6.83,20.07,5.93,19.17,6.96,18.05L9,15.8C9.53,15.22,9.6,14.73,9.23,14.35C8.91,14,8.28,14,7.8,14.58L5.8,17.03C4.9,18.13,4.05,17.25,4.83,16.08L6.35,13.77C9.35,9.22,12.25,11.97,13.53,10.45L17.28,6.05C18,5.22,18.8,4.75,19.55,4.75C19.98,4.75,20.37,4.9,20.75,5.25C21.1,5.63,21.25,6.03,21.25,6.45C21.25,7.2,20.78,8.01,19.95,8.73L15.55,12.48C14.05,13.73,16.77,16.65,12.23,19.65Z"/></svg>