<svg xmlns="http://www.w3.org/2000/svg" viewBox="0 0 24 24"><path d="M10.2,21.57L7.87,19.3C7.2,21.37,5.4,22.17,4.04,22.17C2.24,22.17,0.64,20.97,0.17,19.1C-0.53,17.03,1.27,14.2,4.1,14.2C5.07,14.2,6.03,14.53,6.93,15.37L7.86,12.3C8.33,12.17,9.19,12.1,9.59,12.23L10.19,14.53L11.16,14.33C13.53,13.7,14.29,12.03,15.16,10.16C16.16,8.23,17.13,6.26,19.89,5.59L23.99,21.76C21.79,22.29,20.22,21.83,17.66,19.96C15.53,18.36,13.93,17.69,12.16,18.23L11.16,18.46L11.76,20.76C11.33,21.13,10.79,21.39,10.19,21.56Z" fill="currentColor"/></svg>