<svg xmlns="http://www.w3.org/2000/svg" viewBox="0 0 24 24" fill="currentColor"><path d="M4.75,17.14C4.76,14.6,6.99,13.02,13,13.02C18.84,13.02,21.27,14.67,21.27,17.19C21.27,20.25,19.05,21.17,17.17,21.17C13.8,21.17,14.75,18.24,13.02,18.24C11.3,18.24,12.05,21.17,8.6,21.17C6.5,21.17,4.75,20.08,4.75,17.14ZM4.88,11.85C6.15,8.59,8.08,5.48,13.02,5.48C17.92,5.48,19.99,8.49,21.27,11.65C21.6,12.5,21.53,13.19,21.2,13.71C20.85,13.41,20.44,13.13,19.98,12.87C20.01,12.69,19.98,12.47,19.88,12.21C18.66,9.21,17.13,6.98,13.02,6.98C8.91,6.98,7.5,9.27,6.27,12.4C6.23,12.52,6.2,12.63,6.18,12.73C5.67,12.98,5.24,13.26,4.86,13.58C4.63,13.1,4.61,12.51,4.87,11.85Z"/></svg>