<svg xmlns="http://www.w3.org/2000/svg" viewBox="0 0 24 24"><path d="M4.03,18.73C6.8,19.6,9.4,20,12.03,20C14.66,20,17.26,19.6,20,18.77L21.03,10.4L15.36,13.53L11.99,6.63L8.66,13.56L2.99,10.39Z" fill="currentColor"/><path d="M2.1,19.34L0.57,7.87C0.44,6.84,0.7,6.64,1.6,7.17L7.83,10.84L11.4,3.01C11.83,2.08,12.17,2.08,12.6,3.01L16.2,10.84L22.47,7.17C23.37,6.64,23.64,6.84,23.5,7.87L21.93,19.34C21.83,19.94,21.5,20.37,20.9,20.57C17.87,21.54,14.97,22,12.03,22C9.1,22,6.2,21.53,3.13,20.57C2.53,20.37,2.2,19.94,2.1,19.34Z" fill="currentColor"/></svg>