<svg xmlns="http://www.w3.org/2000/svg" viewBox="0 0 24 24" fill="currentColor"><path d="M8.15,19.4C7.02,19.4,6.02,19.25,4.97,18.82C4.28,18.5,4,18.07,4,17.3L4,16.1C4,15.32,4.28,15.14,4.97,15.48C6.12,15.98,7,16.15,7.82,16.15C8.75,16.15,9.4,15.83,9.4,15.1C9.4,14.5,9,14.18,7.95,14.18L7.43,14.18C6.65,14.18,6.35,13.88,6.35,13.11L6.35,12.93C6.35,12.16,6.6,11.71,7.28,11.28L9.29,10.03L5.07,10.03C4.3,10.03,4,9.73,4,8.96L4,8.01C4,7.23,4.3,6.93,5.07,6.93L12,6.93C12.77,6.93,13.07,7.23,13.07,8.01L13.07,10.26C12.5,10.5,12.08,10.9,11.8,11.43L10.96,11.92C11.16,12,11.35,12.09,11.52,12.21C11.47,12.45,11.44,12.72,11.44,13C11.44,14.4,12.09,15.39,13.2,15.8C13.07,17.74,11.67,19.4,8.14,19.41ZM17.46,17.5C16.25,17.5,16.01,17.25,16.01,16.05L16.01,14.5L14.46,14.5C13.25,14.5,13.01,14.25,13.01,13.05L13.01,12.96C13.01,11.75,13.25,11.51,14.46,11.51L16.01,11.51L16.01,9.96C16.01,8.75,16.25,8.51,17.46,8.51L17.55,8.51C18.75,8.51,19,8.75,19,9.96L19,11.51L20.55,11.51C21.75,11.51,22,11.75,22,12.96L22,13.05C22,14.25,21.75,14.5,20.55,14.5L19,14.5L19,16.05C19,17.25,18.75,17.5,17.55,17.5Z"/></svg>