<svg xmlns="http://www.w3.org/2000/svg" viewBox="0 0 24 24" fill="currentColor"><path d="M10.6,20.22L6.5,21.4C5.77,21.63,5.47,21.4,5.47,20.63L5.47,7L4.7,7C4.25,7,4,6.75,4,6.3L4,6.2C4,5.75,4.25,5.51,4.7,5.51L5.47,5.51L5.47,5.45C5.47,5,5.72,4.76,6.17,4.76L6.24,4.76C6.69,4.76,6.94,5,6.94,5.45L6.94,5.51L19.02,5.51L19.02,5.45C19.02,5,19.26,4.76,19.71,4.76L19.81,4.76C20.26,4.76,20.51,5,20.51,5.45L20.51,5.51L21.28,5.51C21.73,5.51,21.98,5.75,21.98,6.2L21.98,6.3C21.98,6.75,21.73,7,21.28,7L20.51,7L20.51,20.63C20.51,21.4,20.21,21.63,19.48,21.4L15.38,20.22C13.58,19.72,12.38,19.72,10.58,20.22ZM6.98,7.43C6.98,8.2,7.28,8.53,8.05,8.63C11.35,8.95,14.65,8.95,17.95,8.63C18.72,8.53,19.02,8.2,19.02,7.43L19.02,7L6.97,7ZM10.2,17.18C10.2,17.3,10.28,17.4,10.43,17.4C10.58,17.4,11.63,17.46,13.03,17.46C14.4,17.46,15.45,17.43,15.6,17.4C15.75,17.38,15.85,17.3,15.85,17.18C15.85,16.43,15.55,15.83,15.02,15.5C14.12,14.93,13.97,14.25,13.9,13.88L14.52,13.88C14.67,13.65,14.75,13.5,14.75,13.11L14.05,12.66C14.33,12.38,14.5,12,14.5,11.61C14.5,10.78,13.82,10.13,13.02,10.13C12.2,10.13,11.52,10.78,11.52,11.61C11.52,12,11.69,12.38,11.97,12.66L11.3,13.11C11.3,13.5,11.37,13.65,11.52,13.88L12.12,13.88C12.07,14.25,11.9,14.93,11,15.51C10.47,15.83,10.19,16.43,10.19,17.18Z"/></svg>