<svg xmlns="http://www.w3.org/2000/svg" viewBox="0 0 24 24"><path d="M6.48,20.92L7.54,19.23C8.84,20.04,10.37,20.51,12,20.51C13.63,20.51,15.16,20.04,16.46,19.23L17.52,20.92C15.91,21.92,14.02,22.5,12,22.5C9.98,22.5,8.09,21.92,6.48,20.92Z" fill="currentColor"/><path d="M4.47,8.07C3.85,9.25,3.5,10.58,3.5,12C3.5,13.83,4.09,15.54,5.09,16.93L6.13,15.7L4.36,13.97C4.19,13.8,4.73,13.17,4.93,12.94C5.1,12.81,5.3,12.74,5.53,12.74C5.63,12.74,5.8,12.77,5.93,12.87C6.4,13.2,6.83,13.6,7.3,14.04L9.19,12.15L11.09,15.61L9.99,16.71C10.39,17.18,10.79,17.64,11.12,18.11C11.22,18.24,11.29,18.38,11.29,18.54C11.29,18.74,11.22,18.91,11.09,19.07C10.82,19.27,10.22,19.8,10.06,19.64L8.29,17.87L5.56,20.17C5.59,20.64,5.39,21.1,5.03,21.47C4.7,21.8,4.23,22,3.8,22C3.33,22,2.87,21.83,2.53,21.47C2.2,21.14,2.03,20.67,2.03,20.2C2,19.77,2.16,19.3,2.53,18.97C2.9,18.63,3.32,18.47,3.72,18.44C2.33,16.66,1.49,14.42,1.49,12C1.49,10.16,1.97,8.42,2.82,6.91Z" fill="currentColor"/><path d="M21.17,6.91C22.01,8.42,22.5,10.16,22.5,12C22.5,14.77,21.41,17.3,19.64,19.18L18.08,17.92C19.57,16.39,20.5,14.3,20.5,12C20.5,10.59,20.15,9.25,19.53,8.07Z" fill="currentColor"/><path d="M5.71,3.61C7.47,2.29,9.65,1.5,12,1.5C14.21,1.5,16.27,2.19,17.96,3.38C19.44,2.01,21.83,2.17,21.83,2.17C21.83,2.17,22,4.64,20.53,6.14L15.61,11.08L12.14,9.2L16.52,4.82C15.21,3.99,13.66,3.51,12,3.51C9.79,3.51,7.76,4.37,6.24,5.78L6.87,4.78Z" fill="currentColor"/><path d="M10.67,10.67L14.14,12.55L12.57,14.12Z" fill="currentColor"/><path d="M21.47,21.47C21.14,21.8,20.67,22,20.24,22C19.77,22,19.31,21.83,18.97,21.47C18.6,21.1,18.4,20.64,18.44,20.17L15.71,17.87L13.94,19.64C13.77,19.81,13.17,19.27,12.91,19.07C12.78,18.94,12.71,18.7,12.71,18.54C12.71,18.41,12.78,18.24,12.88,18.11C13.21,17.64,13.61,17.18,14.01,16.71L3.48,6.14C2.01,4.64,2.18,2.17,2.18,2.17C2.18,2.17,4.68,2,6.15,3.47L16.72,14.04C17.19,13.61,17.62,13.21,18.09,12.87C18.22,12.77,18.36,12.74,18.49,12.74C18.72,12.74,18.89,12.81,19.09,12.94C19.29,13.17,19.82,13.81,19.66,13.97L17.89,15.7L20.19,18.43C20.62,18.43,21.09,18.6,21.49,18.96C21.82,19.29,21.99,19.76,21.99,20.19C22.02,20.66,21.82,21.12,21.49,21.46Z" fill="currentColor"/></svg>