<svg xmlns="http://www.w3.org/2000/svg" viewBox="0 0 24 24"><path d="M18.44,18C17.41,18,17.01,17.6,17.01,16.57L17.01,7.44C17.01,6.41,17.41,6.01,18.44,6.01L21.57,6.01C22.6,6.01,23,6.41,23,7.44L23,16.57C23,17.6,22.6,18,21.57,18Z" fill="currentColor"/><path d="M5.57,18L1,18L1,16L5,16L5,14L2.43,14C1.4,14,1,13.6,1,12.57L1,7.44C1,6.41,1.4,6.01,2.43,6.01L5.56,6.01C6.59,6.01,6.99,6.41,6.99,7.44L6.99,16.57C6.99,17.6,6.59,18,5.56,18Z" fill="currentColor"/><path d="M3,12L5,12L5,8L3,8Z" fill="currentColor"/><path d="M11,16L13,16L13,12L11,12Z" fill="currentColor"/><path d="M13.57,18L10.44,18C9.41,18,9.01,17.6,9.01,16.57L9.01,7.44C9.01,6.41,9.41,6.01,10.44,6.01L15.01,6.01L15.01,8.01L11.01,8.01L11.01,10.01L13.58,10.01C14.61,10.01,15.01,10.41,15.01,11.44L15.01,16.57C15.01,17.6,14.61,18,13.58,18Z" fill="currentColor"/><path d="M19,16L21,16L21,8L19,8Z" fill="currentColor"/></svg>