<svg xmlns="http://www.w3.org/2000/svg" viewBox="0 0 24 24" fill="currentColor"><path d="M8.86,19.69L9.66,18.42C10.63,19.03,11.78,19.38,13,19.38C14.22,19.38,15.37,19.03,16.34,18.42L17.14,19.69C15.93,20.44,14.52,20.88,13,20.88C11.48,20.88,10.07,20.44,8.86,19.69ZM7.35,10.05C6.89,10.94,6.63,11.94,6.63,13C6.63,14.37,7.07,15.65,7.82,16.7L8.6,15.77L7.27,14.48C7.14,14.35,7.55,13.88,7.7,13.7C7.83,13.61,7.98,13.55,8.15,13.55C8.22,13.55,8.35,13.58,8.45,13.65C8.8,13.9,9.12,14.2,9.48,14.53L10.89,13.11L12.32,15.71L11.49,16.53C11.79,16.88,12.09,17.23,12.34,17.58C12.42,17.68,12.47,17.79,12.47,17.91C12.47,18.05,12.42,18.18,12.32,18.3C12.12,18.45,11.67,18.85,11.55,18.73L10.22,17.4L8.17,19.13C8.19,19.48,8.04,19.83,7.77,20.1C7.53,20.35,7.17,20.5,6.85,20.5C6.5,20.5,6.15,20.37,5.9,20.1C5.65,19.86,5.52,19.5,5.52,19.15C5.5,18.83,5.62,18.48,5.9,18.23C6.18,17.97,6.49,17.85,6.79,17.83C5.75,16.5,5.12,14.82,5.12,13C5.12,11.62,5.48,10.31,6.12,9.18ZM19.88,9.18C20.51,10.31,20.88,11.62,20.88,13C20.88,15.08,20.06,16.98,18.73,18.38L17.56,17.44C18.68,16.29,19.38,14.72,19.38,13C19.38,11.94,19.11,10.94,18.65,10.05ZM8.28,6.71C9.6,5.72,11.24,5.13,13,5.13C14.66,5.13,16.2,5.64,17.47,6.54C18.58,5.51,20.37,5.63,20.37,5.63C20.37,5.63,20.5,7.48,19.4,8.61L15.71,12.31L13.11,10.9L16.39,7.62C15.41,6.99,14.25,6.63,13,6.63C11.34,6.63,9.82,7.28,8.68,8.34L9.15,7.59ZM12,12L14.61,13.41L13.43,14.59ZM20.1,20.1C19.86,20.35,19.5,20.5,19.18,20.5C18.83,20.5,18.48,20.37,18.23,20.1C17.95,19.82,17.8,19.48,17.83,19.13L15.78,17.4L14.45,18.73C14.33,18.86,13.88,18.45,13.68,18.3C13.58,18.2,13.53,18.02,13.53,17.9C13.53,17.81,13.58,17.68,13.66,17.58C13.91,17.23,14.21,16.88,14.51,16.53L6.61,8.6C5.51,7.48,5.63,5.63,5.63,5.63C5.63,5.63,7.51,5.5,8.61,6.6L16.54,14.53C16.89,14.21,17.21,13.91,17.57,13.65C17.66,13.58,17.77,13.55,17.87,13.55C18.04,13.55,18.17,13.61,18.32,13.7C18.47,13.88,18.87,14.36,18.75,14.48L17.42,15.77L19.14,17.82C19.46,17.82,19.82,17.95,20.12,18.22C20.37,18.47,20.49,18.82,20.49,19.14C20.52,19.5,20.37,19.84,20.12,20.09Z"/></svg>