<svg xmlns="http://www.w3.org/2000/svg" viewBox="0 0 24 24"><path d="M9.13,21.9L1.23,14C-0.2,12.57,-0.2,11.63,1.2,10.17L3.23,8.07C3.63,7.67,4.06,7.44,4.6,7.97C5.23,8.67,5.23,10,6.07,10.84C7.14,11.84,8.87,11.84,9.87,10.71C10.87,9.68,10.87,8.08,9.87,7.11C9,6.21,7.54,6.38,6.9,5.81C6.3,5.21,6.57,4.78,6.97,4.34L9.1,2.21C10.53,0.78,11.47,0.78,12.9,2.18L15.1,4.35C15.53,4.78,15.9,4.88,16.33,4.52C16.93,3.95,16.76,2.75,17.73,1.75C18.8,0.82,20.3,0.88,21.3,1.85C22.27,2.82,22.3,4.35,21.37,5.42C20.4,6.35,19.14,6.19,18.6,6.79C18.23,7.19,18.3,7.59,18.73,7.99L18.97,8.24C18.33,8.1,17.67,8.03,16.99,8.03C11.99,8.03,7.99,12.03,7.99,17.03C7.99,19.14,8.7,21.07,9.9,22.6C9.66,22.43,9.4,22.21,9.13,21.93Z" fill="currentColor"/><path d="M10.03,17C10.03,13.17,13.2,10.03,17,10.03C20.83,10.03,23.97,13.16,23.97,17C23.97,20.8,20.84,23.97,17,23.97C13.2,23.97,10.03,20.8,10.03,17Z" fill="currentColor"/><path d="M16.17,17.24C16.24,17.71,16.44,17.87,16.94,17.87L17.07,17.87C17.57,17.87,17.77,17.7,17.84,17.24L18.34,13.67C18.47,12.74,18.17,12.37,17.17,12.37L16.84,12.37C15.84,12.37,15.54,12.74,15.67,13.67Z" fill="currentColor"/><path d="M18.2,20.3C18.2,19.57,17.73,19.1,17,19.1C16.27,19.1,15.8,19.57,15.8,20.3C15.8,21.03,16.27,21.5,17,21.5C17.73,21.5,18.2,21.03,18.2,20.3Z" fill="currentColor"/></svg>