<svg xmlns="http://www.w3.org/2000/svg" viewBox="0 0 24 24"><path d="M0.2,23.8C3.67,19.13,10.03,12.77,8.93,11.67C7.8,10.54,4.2,14.27,0.16,17.77C2.13,15.27,4.56,10.6,8.79,6.34C13.32,1.84,17.46,1.67,21.82,2.17C22.35,6.57,22.19,10.67,17.65,15.2C13.42,19.43,8.72,21.87,6.22,23.87C9.72,19.84,13.45,16.2,12.32,15.07C11.25,13.97,4.89,20.34,0.19,23.8Z" fill="currentColor"/><path d="M9.83,8.97C12,8.17,13.66,7.2,14.8,6.9C14.17,8.27,12.63,10.63,11.47,12.53C13.37,11.4,15.74,9.83,17.1,9.23C16.8,10.33,15.87,12.03,15.03,14.16C19,11.39,20.6,8.49,20,3.99C15.53,3.39,12.6,4.99,9.83,8.96Z" fill="currentColor"/><path d="M3.5,7.26C6.93,2.86,9.17,1.89,11.2,2.03Z" fill="currentColor"/><path d="M21.96,12.83C22.09,14.83,21.16,17.1,16.73,20.5Z" fill="currentColor"/></svg>