<svg xmlns="http://www.w3.org/2000/svg" viewBox="0 0 24 24"><path d="M5.7,24L2.37,24C8.04,14.23,9.8,8.73,10.24,1.43C10.27,0.4,10.71,0,11.74,0L12.27,0C13.3,0,13.74,0.4,13.77,1.43C14.2,8.73,15.97,14.23,21.64,24L18.31,24C17.04,20.97,14.54,19.9,12.01,19.9C9.48,19.9,6.98,21,5.71,24Z" fill="currentColor"/><path d="M6.94,14C6.34,14,6.01,13.67,6.01,13.07L6.01,12.94C6.01,12.34,6.34,12.01,6.94,12.01L17.07,12.01C17.67,12.01,18,12.34,18,12.94L18,13.07C18,13.67,17.67,14,17.07,14Z" fill="currentColor"/><path d="M15,17.27C13.57,14.07,12.63,11,12,7.57C11.37,11,10.43,14.07,9,17.27Z" fill="currentColor"/></svg>