<svg xmlns="http://www.w3.org/2000/svg" viewBox="0 0 24 24" fill="currentColor"><path d="M17.5,18.87C13.8,21.35,10.25,20.84,7,17.62L7.4,14.72L11.2,17.02C12.53,17.82,13.55,17.79,14.88,17L17.5,15.4ZM19,17.37L19.02,12.47L20.5,11.65L20.5,17.12C20.5,18.1,20.5,18.1,21.4,18.7C22.5,19.43,21.87,21.55,20.13,20.12C19.75,19.83,19,19.17,19,17.37ZM13.98,15.83C13.3,16.23,12.8,16.23,12.12,15.83L4.55,11.3C3.87,10.91,3.87,10.61,4.55,10.2L12.12,5.68C12.8,5.28,13.3,5.28,13.98,5.68L21.45,10.2C22.13,10.6,22.13,10.9,21.45,11.3L19.03,12.73L13.13,9L15.38,9.3L12.21,11.4L12.06,10.13L17.66,13.55Z"/></svg>