<svg xmlns="http://www.w3.org/2000/svg" viewBox="0 0 24 24" fill="currentColor"><path d="M9.48,10.4L11.65,8.82L16.08,13.19L14.4,15.5L12.73,14.37L11.58,11.07ZM5.63,20.5L5.63,19.5C5.63,18.18,6.63,17.5,8.61,17.5L14.63,17.5C16.6,17.5,17.63,18.17,17.63,19.5L17.63,20.5ZM12.5,8.23C12.07,7.38,12.25,6.66,12.67,6.18L14.12,4.51C14.62,4.66,15.04,4.91,15.44,5.31L14.54,6.79L15.44,7.69L16.97,6.49C16.97,6.49,17.42,6.79,17.74,7.14C18.09,7.46,18.39,7.91,18.39,7.91L17.19,9.44L18.12,10.34L19.56,9.44C19.96,9.83,20.21,10.29,20.37,10.76L18.69,12.21C18.19,12.64,17.52,12.81,16.67,12.38ZM14,16.5L7.63,16.5L7.85,15.18L10.08,14.18ZM6.7,13.88L8.33,13.05L7.13,11.53ZM6.7,10.02L7.55,9.25L8.02,10.85Z"/></svg>