<svg xmlns="http://www.w3.org/2000/svg" viewBox="0 0 24 24" fill="currentColor"><path d="M20.62,16C21.07,16,21.24,16.25,21.09,16.68C20.19,18.93,17.77,20.63,13.02,20.63C8.28,20.63,5.82,18.93,4.9,16.68C4.75,16.23,4.92,16,5.37,16ZM9.75,7.55C9.35,7.46,9.02,7.11,9.02,6.75C9.02,6.32,9.37,5.95,9.82,5.95C10.12,5.95,10.57,6.17,10.57,6.75C10.57,6.96,10.52,7.11,10.4,7.23L11.82,9.05L11.97,6.2C11.6,6.1,11.42,5.82,11.42,5.43C11.42,4.98,11.8,4.6,12.25,4.6C12.72,4.6,13.05,5,13.05,5.43C13.05,5.73,12.95,5.95,12.75,6.1L13.7,8.95L14.63,6.1C14.4,5.95,14.27,5.73,14.27,5.43C14.27,5.05,14.65,4.6,15.1,4.6C15.5,4.6,15.93,4.88,15.93,5.43C15.93,5.88,15.8,6.08,15.38,6.2L15.58,9.05L16.95,7.23C16.86,7.1,16.78,6.95,16.78,6.75C16.78,6.21,17.18,5.95,17.55,5.95C17.98,5.95,18.3,6.33,18.3,6.75C18.3,7.13,18,7.45,17.63,7.55L17.4,8.78C15.73,10.26,14.91,12.28,15.83,14.5L11.13,14.5C12.3,12.45,11.7,10.15,9.95,8.63ZM4.48,11.63C4.68,11.1,4.65,10.88,4.65,10.38C4.65,10.23,4.65,10.05,4.9,9.83C5.07,9.63,5.15,9.4,5.18,9.15L5.16,8.75C5.16,8.63,5.25,8.48,5.36,8.46L6.54,8.98L7.14,8.98C9.54,8.98,11.28,11.78,9.56,14.51L6.28,14.51C6.28,13.73,7.48,12.8,7.5,12.08C7.53,11.71,7.2,11.43,7.08,11.36L6.93,11.68C6.78,11.96,6.48,12.45,6.05,12.58C5.45,12.73,5.55,13.13,5.32,13.46C5.27,13.53,4.52,13.55,4.22,13.4C4.02,13.28,3.94,12.98,4.05,12.75ZM17.07,11.57C17.67,9.95,19.47,9.35,19.47,9.35C19.34,8.6,19.98,7.72,20.9,8.02C21.85,8.32,21.65,9.57,20.99,10.04C19.59,11.07,19.59,11.07,18.82,12.59L19.44,12.84C20.27,11.44,20.27,11.44,21.52,10.5C22.17,12.09,21.99,13.47,20.87,14.49L17.36,14.49C16.99,13.72,16.69,12.67,17.06,11.57Z"/></svg>