<svg xmlns="http://www.w3.org/2000/svg" viewBox="0 0 24 24"><path d="M4.73,19.1C4.86,19.67,5.26,20,5.86,20L19.06,20L21.13,10.87L16.3,14.14C15.8,14.47,15.4,14.37,15.17,13.81L11.97,6.04L8.74,13.81C8.51,14.38,8.11,14.48,7.61,14.14L2.91,10.91Z" fill="currentColor"/><path d="M19.63,22L4.36,22C3.76,22,3.36,21.67,3.23,21.1L0.06,7.37C-0.07,6.8,0.13,6.67,0.63,7L7.53,11.7L11.43,2.33C11.8,1.36,12.13,1.36,12.5,2.33L16.4,11.7L22.93,7.27C23.8,6.7,24.03,6.87,23.8,7.87L20.77,21.1C20.64,21.67,20.24,22,19.64,22Z" fill="currentColor"/></svg>