<svg xmlns="http://www.w3.org/2000/svg" viewBox="0 0 24 24" fill="currentColor"><path d="M5.9,20.1C5.65,19.86,5.52,19.5,5.52,19.15C5.5,18.83,5.62,18.48,5.9,18.23C6.2,17.95,6.55,17.83,6.87,17.83L8.6,15.78L7.27,14.48C7.14,14.36,7.55,13.88,7.7,13.71C7.82,13.61,7.97,13.56,8.15,13.56C8.22,13.56,8.35,13.58,8.45,13.66C8.8,13.91,9.12,14.21,9.48,14.54L10.89,13.12L12.32,15.71L11.49,16.54C11.79,16.89,12.09,17.24,12.34,17.59C12.42,17.69,12.47,17.79,12.47,17.91C12.47,18.06,12.42,18.19,12.32,18.31C12.12,18.46,11.67,18.86,11.55,18.74L10.22,17.41L8.17,19.13C8.19,19.49,8.04,19.83,7.77,20.11C7.53,20.36,7.17,20.51,6.85,20.51C6.5,20.51,6.15,20.38,5.9,20.11ZM12,12L14.61,13.41L13.43,14.59ZM13.11,10.89L17.39,6.6C18.5,5.5,20.37,5.63,20.37,5.63C20.37,5.63,20.5,7.48,19.4,8.61L15.71,12.31ZM20.1,20.1C19.86,20.35,19.5,20.5,19.18,20.5C18.83,20.5,18.48,20.37,18.23,20.1C17.95,19.82,17.8,19.48,17.83,19.13L15.78,17.4L14.45,18.73C14.33,18.86,13.88,18.45,13.68,18.3C13.58,18.2,13.53,18.02,13.53,17.9C13.53,17.81,13.58,17.68,13.66,17.58C13.91,17.23,14.21,16.88,14.51,16.53L6.61,8.6C5.51,7.48,5.63,5.63,5.63,5.63C5.63,5.63,7.51,5.5,8.61,6.6L16.54,14.53C16.89,14.21,17.21,13.91,17.57,13.65C17.66,13.58,17.77,13.55,17.87,13.55C18.04,13.55,18.17,13.61,18.32,13.7C18.47,13.88,18.87,14.36,18.75,14.48L17.42,15.77L19.14,17.82C19.46,17.82,19.82,17.95,20.12,18.22C20.37,18.47,20.49,18.82,20.49,19.14C20.52,19.5,20.37,19.84,20.12,20.09Z"/></svg>