<svg xmlns="http://www.w3.org/2000/svg" viewBox="0 0 24 24" fill="currentColor"><path d="M10.85,20.42L4.92,14.5C3.85,13.43,3.85,12.72,4.9,11.63L6.42,10.05C6.72,9.75,7.04,9.58,7.45,9.98C7.92,10.5,7.92,11.5,8.55,12.13C9.36,12.88,10.65,12.88,11.4,12.03C12.15,11.26,12.15,10.06,11.4,9.33C10.75,8.66,9.66,8.79,9.18,8.36C8.73,7.91,8.93,7.58,9.23,7.25L10.83,5.66C11.9,4.58,12.6,4.58,13.68,5.63L15.33,7.26C15.65,7.58,15.93,7.66,16.25,7.39C16.7,6.96,16.57,6.06,17.3,5.31C18.1,4.61,19.23,4.66,19.98,5.39C20.7,6.11,20.73,7.26,20.03,8.06C19.3,8.76,18.36,8.64,17.95,9.09C17.67,9.39,17.73,9.69,18.05,9.99L18.23,10.18C17.75,10.07,17.25,10.02,16.74,10.02C12.99,10.02,9.99,13.02,9.99,16.77C9.99,18.35,10.52,19.8,11.42,20.95C11.24,20.82,11.05,20.66,10.85,20.45ZM11.52,16.75C11.52,13.88,13.9,11.52,16.75,11.52C19.62,11.52,21.98,13.87,21.98,16.75C21.98,19.6,19.63,21.98,16.75,21.98C13.9,21.98,11.52,19.6,11.52,16.75ZM20.03,15.65C20.38,15.3,20.38,15,20.03,14.65L19.98,14.6C19.62,14.25,19.32,14.25,18.98,14.6L15.95,17.62L14.66,16.32C14.3,15.97,14,15.97,13.66,16.32L13.61,16.38C13.25,16.73,13.25,17.03,13.61,17.37L15.46,19.23C15.81,19.58,16.11,19.58,16.46,19.23Z"/></svg>