<svg xmlns="http://www.w3.org/2000/svg" viewBox="0 0 24 24" fill="currentColor"><path d="M10.28,16.7C9.35,15.97,8.9,15.07,8.9,13.92L8.9,8.58C8.9,6.3,10.76,4.45,13.01,4.45C15.26,4.45,17.11,6.3,17.11,8.58L17.11,13.92C17.11,15.07,16.66,15.97,15.71,16.7L14.63,11.52L15.86,11.45C16.36,11.43,16.38,9.25,15.88,9.42L13.35,10.45L13.95,13.43L13,14L12.05,13.43L12.65,10.45L10.1,9.42C9.62,9.25,9.62,11.43,10.15,11.45L11.37,11.52ZM6.27,20.42C5.7,20.9,4.87,20.85,4.4,20.27C3.93,19.73,3.97,18.9,4.53,18.42C4.75,18.22,5.07,18.12,5.55,18.07L6.85,16.67L5.65,15.3C5.52,15.15,5.97,14.7,6.15,14.55C6.38,14.34,6.7,14.32,8.7,16.65C10.71,18.97,10.63,19.27,10.43,19.44C10.23,19.62,9.73,19.99,9.6,19.84L8.38,18.42L6.73,19.41C6.63,19.94,6.45,20.24,6.28,20.41ZM7.68,8.5L7.68,10.1L5.55,8.24C4.43,7.27,4.41,5.52,4.41,5.52C4.41,5.52,6.13,5.27,7.25,6.25L8,6.9C7.78,7.37,7.68,7.93,7.68,8.5ZM19.73,20.42C19.55,20.25,19.38,19.95,19.28,19.43L17.63,18.43L16.41,19.86C16.28,20,15.78,19.63,15.58,19.46C15.38,19.29,15.3,18.73,17.3,16.41C19.31,14.08,19.63,14.36,19.85,14.55C20.03,14.7,20.48,15.15,20.36,15.3L19.16,16.67L20.45,18.08C20.93,18.13,21.26,18.23,21.48,18.43C22.03,18.9,22.08,19.73,21.61,20.28C21.14,20.86,20.31,20.9,19.73,20.43ZM20.45,8.25L18.33,10.11L18.33,8.51C18.33,7.93,18.23,7.38,18,6.91L18.75,6.26C19.88,5.28,21.6,5.53,21.6,5.53C21.6,5.53,21.58,7.28,20.46,8.25Z"/></svg>