<svg xmlns="http://www.w3.org/2000/svg" viewBox="0 0 24 24" fill="currentColor"><path d="M13,13.61C10.52,13.61,8.88,14.36,8.88,16.33C8.88,18.33,10.52,19.08,13,19.08L13,20.75C8.45,20.75,5.35,19.46,5.35,15.98C5.35,14.23,6.18,13.05,7.5,12.2C6.75,8.43,9.36,6.86,13,6.86ZM12.13,16.25C12.13,15.77,11.73,15.37,11.25,15.37C10.78,15.37,10.38,15.77,10.38,16.25C10.38,16.72,10.77,17.13,11.25,17.13C11.73,17.13,12.13,16.73,12.13,16.25ZM11.63,11.5C11.63,11.03,11.23,10.62,10.75,10.62C10.28,10.62,9.87,11.02,9.87,11.5C9.87,11.97,10.27,12.38,10.75,12.38C11.22,12.38,11.63,11.98,11.63,11.5ZM6.25,9.12C5.6,8.1,5.4,7,5.37,5.65C5.37,5.43,5.5,5.33,5.72,5.35C6.93,5.52,7.8,5.8,8.75,6.45C7.57,6.92,6.7,7.86,6.25,9.13ZM13,19.08C15.48,19.08,17.13,18.33,17.13,16.33C17.13,14.36,15.48,13.61,13,13.61L13,6.86C16.65,6.86,19.25,8.43,18.5,12.2C19.82,13.05,20.65,14.23,20.65,15.98C20.65,19.45,17.55,20.75,13,20.75ZM15.63,16.25C15.63,15.77,15.23,15.37,14.75,15.37C14.27,15.37,13.87,15.77,13.87,16.25C13.87,16.72,14.27,17.13,14.75,17.13C15.22,17.13,15.63,16.73,15.63,16.25ZM16.13,11.5C16.13,11.03,15.73,10.62,15.25,10.62C14.78,10.62,14.37,11.02,14.37,11.5C14.37,11.97,14.77,12.38,15.25,12.38C15.72,12.38,16.13,11.98,16.13,11.5ZM19.75,9.12C19.3,7.85,18.42,6.93,17.25,6.45C18.21,5.79,19.08,5.52,20.28,5.34C20.5,5.32,20.63,5.42,20.63,5.64C20.61,6.99,20.4,8.1,19.75,9.12Z"/></svg>