<svg xmlns="http://www.w3.org/2000/svg" viewBox="0 0 24 24" fill="currentColor"><path d="M13.95,21.7C13.28,22.08,12.77,22.08,12.1,21.7L5.67,18.03C5,17.65,4.75,17.2,4.75,16.43L4.75,9.1C4.75,8.33,5.03,7.9,5.72,7.55L12.02,4.55C12.72,4.2,13.28,4.2,13.98,4.55L20.28,7.55C20.97,7.9,21.25,8.32,21.25,9.1L21.25,16.43C21.25,17.2,21,17.65,20.33,18.03ZM6.72,16.85L10.6,18.97C10.6,18.47,10.43,17.97,10.08,17.57C9.18,16.46,9.12,15.87,9.12,15.64L9.12,15.39L9.67,15.69C9.75,15.62,9.77,15.49,9.77,15.37L9.12,14.62L9.17,14.6C9.45,14.57,9.6,14.35,9.6,14.05C9.6,13.5,9.17,12.85,8.64,12.57C8.12,12.29,7.72,12.47,7.72,13C7.72,13.32,7.87,13.7,8.12,14L8.19,14.07L7.54,14.13C7.54,14.25,7.56,14.42,7.64,14.58L8.19,14.88L8.19,15.12C8.19,15.32,8.13,15.92,7.23,16C6.91,16.02,6.71,16.35,6.71,16.85ZM13.05,21.33C13.28,21.3,13.43,21.15,13.43,20.95L13.43,14.22C13.43,13.47,13.8,12.82,14.42,12.45L17.37,10.85L20.17,9.27C20.34,9.18,20.42,8.92,20.32,8.77C20.22,8.57,19.97,8.55,19.82,8.62L13.99,11.85C13.37,12.17,12.64,12.17,12.04,11.85L6.19,8.57C6.02,8.44,5.79,8.52,5.66,8.7C5.57,8.87,5.64,9.12,5.81,9.2L11.61,12.48C12.23,12.85,12.64,13.5,12.64,14.25L12.64,20.95C12.64,21.18,12.81,21.33,13.04,21.33ZM19.67,16.75C19.67,16.75,19.67,16.58,19.67,16.38C19.67,16.38,19.67,15.48,18.65,16.02L16.49,17.2C15.42,17.78,15.42,18.7,15.42,18.7L15.42,19.1ZM18.98,15.58C19.03,15.28,19.3,14.46,19.3,14C19.3,12.3,18.23,12.13,17.27,12.6L16.77,12.32C16.72,12.38,16.62,12.47,16.62,12.6L16.57,12.9C16.52,13.07,16.4,13.23,16.27,13.43C16.12,13.65,16.07,13.8,16.04,13.9C15.95,14.25,15.95,14.42,15.75,14.85L15.27,15.75C15.18,15.98,15.2,16.18,15.3,16.22C15.47,16.28,15.95,16.15,15.99,16.1C16.17,15.82,16.17,15.5,16.54,15.32C16.84,15.15,17.09,14.7,17.27,14.45L17.4,14.2C17.45,14.25,17.62,14.4,17.55,14.7C17.49,14.78,17.47,14.87,17.45,14.95C17.37,15.12,17.28,15.27,17.13,15.47C16.85,15.87,16.35,16.43,16.3,17.03ZM10.88,8.05L13,6.95C13.23,6.75,13.1,6.57,12.9,6.42L12.1,5.95C11.85,6,11.6,6.05,11.4,6.15L11.88,6.55L11.4,6.78L10.63,6.45C10.63,6.45,10.4,6.55,10.23,6.63C10.06,6.7,9.91,6.83,9.91,6.83L10.51,7.2L10.04,7.45L9.34,7.25C9.14,7.32,8.99,7.42,8.91,7.57L9.87,8C10.14,8.1,10.46,8.15,10.89,8.05ZM15.4,7.82C15.17,7.75,14.03,7.35,13.32,7.07L11.07,8.2C11.6,8.57,12.35,9.18,12.5,9.3ZM17.6,8.25C17.6,8.25,17.39,8.13,17.22,8.05C17.22,8.05,16.38,7.6,15.29,8.15L13.14,9.22C12.04,9.8,12.92,10.22,12.92,10.22L13.27,10.42Z"/></svg>