<svg xmlns="http://www.w3.org/2000/svg" viewBox="0 0 24 24" fill="currentColor"><path d="M7.75,19.42C7.75,20.19,7.45,20.49,6.68,20.49L6.58,20.49C5.81,20.49,5.51,20.19,5.51,19.42L5.51,6.57C5.51,5.8,5.81,5.5,6.58,5.5L6.68,5.5C7.45,5.5,7.75,5.8,7.75,6.57ZM10.32,14.13C9.55,14.13,9.25,13.83,9.25,13.05L9.25,12.96C9.25,12.18,9.55,11.88,10.32,11.88L16.64,11.88L16.64,14.11ZM15.05,8.43L20.37,12.57C20.72,12.85,20.72,13.15,20.37,13.42L15.05,17.57C14.69,17.84,14.5,17.74,14.5,17.29L14.5,8.69C14.5,8.24,14.7,8.14,15.05,8.41Z"/></svg>