<svg xmlns="http://www.w3.org/2000/svg" viewBox="0 0 24 24" fill="currentColor"><path d="M18.1,20.5L7.9,20.5C7.9,16.95,11.43,17.5,11.7,13.98L11.76,13.38L10.33,13.38C10.16,13.08,10.08,12.7,10.08,12.35L11.76,11.32L14.25,11.3L15.93,12.35C15.93,12.7,15.85,13.07,15.68,13.38L14.25,13.38L14.31,13.98C14.58,17.5,18.11,16.95,18.11,20.5ZM13,9.83C10.77,9.83,9.15,10.33,9.15,10.33L9,6.5C9,6.21,9.25,6.11,9.58,6.3L11.38,7.41L12.66,5.25C12.86,4.86,13.16,4.86,13.38,5.25L14.63,7.41L16.49,6.3C16.77,6.13,17.01,6.21,17.01,6.51L16.86,10.33C16.86,10.33,15.21,9.81,13.02,9.83Z"/></svg>