<svg xmlns="http://www.w3.org/2000/svg" viewBox="0 0 24 24"><path d="M2.53,21.47C2.2,21.14,2.03,20.67,2.03,20.2C2,19.77,2.16,19.3,2.53,18.97C2.93,18.6,3.4,18.44,3.83,18.44L6.13,15.71L4.36,13.98C4.19,13.81,4.73,13.18,4.93,12.95C5.1,12.82,5.3,12.75,5.53,12.75C5.63,12.75,5.8,12.78,5.93,12.88C6.4,13.21,6.83,13.61,7.3,14.05L9.19,12.16L11.09,15.62L9.99,16.72C10.39,17.19,10.79,17.65,11.12,18.12C11.22,18.25,11.29,18.39,11.29,18.55C11.29,18.75,11.22,18.92,11.09,19.08C10.82,19.28,10.22,19.81,10.06,19.65L8.29,17.88L5.56,20.18C5.59,20.65,5.39,21.11,5.03,21.48C4.7,21.81,4.23,22.01,3.8,22.01C3.33,22.01,2.87,21.84,2.53,21.48Z" fill="currentColor"/><path d="M10.67,10.67L14.14,12.55L12.57,14.12Z" fill="currentColor"/><path d="M12.14,9.19L17.86,3.47C19.33,2,21.83,2.17,21.83,2.17C21.83,2.17,22,4.64,20.53,6.14L15.61,11.08Z" fill="currentColor"/><path d="M21.47,21.47C21.14,21.8,20.67,22,20.24,22C19.77,22,19.31,21.83,18.97,21.47C18.6,21.1,18.4,20.64,18.44,20.17L15.71,17.87L13.94,19.64C13.77,19.81,13.17,19.27,12.91,19.07C12.78,18.94,12.71,18.7,12.71,18.54C12.71,18.41,12.78,18.24,12.88,18.11C13.21,17.64,13.61,17.18,14.01,16.71L3.48,6.14C2.01,4.64,2.18,2.17,2.18,2.17C2.18,2.17,4.68,2,6.15,3.47L16.72,14.04C17.19,13.61,17.62,13.21,18.09,12.87C18.22,12.77,18.36,12.74,18.49,12.74C18.72,12.74,18.89,12.81,19.09,12.94C19.29,13.17,19.82,13.81,19.66,13.97L17.89,15.7L20.19,18.43C20.62,18.43,21.09,18.6,21.49,18.96C21.82,19.29,21.99,19.76,21.99,20.19C22.02,20.66,21.82,21.12,21.49,21.46Z" fill="currentColor"/></svg>