<svg xmlns="http://www.w3.org/2000/svg" viewBox="0 0 24 24"><path d="M12,1.43L12,10.06C12,10.66,11.67,10.96,11.07,10.89C8.64,10.46,6.77,8.29,6.77,5.72C6.77,3.19,8.64,1.02,11.07,0.59C11.67,0.52,12,0.82,12,1.42Z" fill="currentColor"/><path d="M1.43,12L10.06,12C10.66,12,10.96,12.33,10.89,12.93C10.46,15.36,8.29,17.23,5.72,17.23C3.19,17.23,1.02,15.36,0.59,12.93C0.52,12.33,0.82,12,1.42,12Z" fill="currentColor"/><path d="M12,22.57L12,13.94C12,13.34,12.33,13.04,12.93,13.11C15.36,13.54,17.23,15.71,17.23,18.28C17.23,20.81,15.36,22.98,12.93,23.41C12.33,23.48,12,23.18,12,22.58Z" fill="currentColor"/><path d="M22.57,12L13.94,12C13.34,12,13.04,11.67,13.11,11.07C13.54,8.64,15.71,6.77,18.28,6.77C20.81,6.77,22.98,8.64,23.41,11.07C23.48,11.67,23.18,12,22.58,12Z" fill="currentColor"/></svg>