<svg xmlns="http://www.w3.org/2000/svg" viewBox="0 0 24 24"><path d="M19.17,18.03C22.04,18.53,22,20.66,22,20.66L22,21.99L17.67,21.99L14,7.19L14.4,7.52L12.7,9.52C12.13,10.12,11.13,11.15,10.03,11.15C8.56,11.15,8.53,12.15,7.86,12.82C7.69,12.99,5.93,12.55,5.29,12.02C4.82,11.62,4.79,10.89,5.22,10.35L6.89,7.98C7.66,6.88,7.69,6.28,8.12,5.18C8.25,4.85,8.39,4.45,8.92,3.98C9.49,3.51,9.85,3.18,10.05,2.65L10.28,1.62C10.35,1.32,10.61,1.05,10.88,1.05L12.75,2.92C20.68,4.09,21.98,10.92,19.15,18.02Z" fill="currentColor"/><path d="M13.03,11.6L15.56,21.77C13.69,22.37,12.99,22.07,12.03,21.17C10.3,19.47,8.73,19.7,8.03,19.8L8.4,21.17C8.2,21.34,7.97,21.5,7.37,21.64L6,20.47C5.7,21.2,5,21.74,4.27,21.9C2.84,22.3,1.4,21.47,1.04,20.03C0.67,18.6,1.54,17.16,2.97,16.8C3.74,16.6,4.54,16.77,5.2,17.23L5.83,15.6C6.4,15.47,6.66,15.5,7,15.53L7.37,16.9C7.94,16.73,9.44,16.13,10.24,13.83C10.57,12.7,11.54,11.96,13.04,11.6Z" fill="currentColor"/></svg>