<svg xmlns="http://www.w3.org/2000/svg" viewBox="0 0 24 24" fill="currentColor"><path d="M11.39,20.88C7.52,20.82,4.38,17.64,4.38,13.75C4.38,10.21,6.99,7.25,10.38,6.71L10.38,5.5L8.88,5.5C8.88,4.22,9.2,4,11.5,4C13.8,4,14.13,4.22,14.13,5.5L12.63,5.5L12.63,6.71C14.73,7.05,16.52,8.3,17.58,10.05C17.3,10.02,17.03,10,16.75,10C16.17,10,15.61,10.07,15.08,10.2C14.23,9.35,13.01,8.88,11.5,8.88C8.5,8.88,6.63,10.75,6.63,13.75C6.63,16.3,7.98,18.03,10.23,18.5C10.46,19.38,10.86,20.18,11.39,20.87ZM11.13,10L11.88,10L12.27,11.68C11.46,12.4,10.82,13.32,10.43,14.37C10.29,14.1,10.24,13.74,10.35,13.3ZM16.75,11.52C19.62,11.52,21.98,13.87,21.98,16.75C21.98,19.6,19.63,21.98,16.75,21.98C13.9,21.98,11.52,19.6,11.52,16.75C11.52,13.88,13.9,11.52,16.75,11.52ZM15.98,19.77C15.98,20.25,16.22,20.5,16.67,20.5L16.75,20.5C17.22,20.5,17.48,20.25,17.48,19.8L17.48,17.5L19.8,17.5C20.25,17.5,20.5,17.25,20.5,16.77L20.5,16.7C20.5,16.25,20.25,16,19.77,16L17.47,16L17.47,13.73C17.47,13.25,17.22,13,16.77,13L16.7,13C16.23,13,15.97,13.25,15.97,13.7L15.97,16L13.7,16C13.25,16,13,16.25,13,16.73L13,16.8C13,17.25,13.25,17.5,13.73,17.5L15.98,17.5Z"/></svg>