<svg xmlns="http://www.w3.org/2000/svg" viewBox="0 0 24 24" fill="currentColor"><path d="M11.65,20.18L9.9,18.48C9.4,20.03,8.05,20.63,7.03,20.63C5.68,20.63,4.48,19.73,4.13,18.33C3.6,16.77,4.95,14.65,7.07,14.65C7.8,14.65,8.52,14.9,9.2,15.53L9.89,13.23C10.25,13.13,10.89,13.08,11.19,13.17L11.64,14.9L12.37,14.75C14.15,14.28,14.72,13.02,15.37,11.62C16.12,10.17,16.85,8.7,18.92,8.19L21.99,20.32C20.34,20.72,19.17,20.37,17.25,18.97C15.65,17.77,14.45,17.27,13.12,17.67L12.37,17.85L12.82,19.57C12.5,19.85,12.09,20.04,11.64,20.17Z"/></svg>