<svg xmlns="http://www.w3.org/2000/svg" viewBox="0 0 24 24"><path d="M5.53,20.53C4.03,20.53,2.7,20.33,1.3,19.76C0.37,19.33,0,18.76,0,17.73L0,16.13C0,15.1,0.37,14.86,1.3,15.3C2.83,15.97,4,16.2,5.1,16.2C6.33,16.2,7.2,15.77,7.2,14.8C7.2,14,6.67,13.57,5.27,13.57L4.57,13.57C3.54,13.57,3.14,13.17,3.14,12.14L3.14,11.91C3.14,10.88,3.47,10.28,4.37,9.71L7.06,8.04L1.43,8.04C0.4,8.04,0,7.64,0,6.61L0,5.34C0,4.31,0.4,3.91,1.43,3.91L10.66,3.91C11.69,3.91,12.09,4.31,12.09,5.34L12.09,8.35C11.34,8.67,10.77,9.2,10.4,9.9L9.28,10.56C9.55,10.67,9.8,10.79,10.03,10.94C9.96,11.27,9.92,11.63,9.92,12C9.92,13.86,10.79,15.19,12.27,15.73C12.09,18.32,10.23,20.54,5.52,20.54Z" fill="currentColor"/><path d="M17.94,18C16.34,18,16.01,17.67,16.01,16.07L16.01,14L13.94,14C12.34,14,12.01,13.67,12.01,12.07L12.01,11.94C12.01,10.34,12.34,10.01,13.94,10.01L16.01,10.01L16.01,7.94C16.01,6.34,16.34,6.01,17.94,6.01L18.07,6.01C19.67,6.01,20,6.34,20,7.94L20,10.01L22.07,10.01C23.67,10.01,24,10.34,24,11.94L24,12.07C24,13.67,23.67,14,22.07,14L20,14L20,16.07C20,17.67,19.67,18,18.07,18Z" fill="currentColor"/></svg>