<svg xmlns="http://www.w3.org/2000/svg" viewBox="0 0 24 24"><path d="M21.33,2.63C22.2,3.46,22.4,4.56,21.46,5.46C20.69,6.23,20.06,6.03,19.39,6.59C18.92,7.02,18.59,7.32,19.32,8.06L22.29,11.03C23.02,11.76,23.02,12.3,22.29,13.03L20.22,15.1C19.79,15.53,19.19,15.47,18.92,14.93C18.52,14.16,18.55,13.26,17.92,12.63C17.15,11.9,16.05,11.9,15.22,12.73C14.39,13.6,14.32,14.73,15.09,15.46C15.69,16.09,16.69,16.09,17.42,16.43C17.95,16.73,17.95,17.33,17.49,17.8L16.59,18.7C12.19,23.1,7.72,16.17,3.82,20.23L2.25,21.83C1.62,19.56,1.78,17.46,3.05,16.2C4.28,14.97,5.88,15.7,6.98,14.57C7.75,13.8,7.71,12.64,7.01,11.94C6.18,11.11,4.41,11.04,3.14,14.34C2.87,12.04,2.87,9.77,5.14,7.51L6.17,6.48C6.67,5.98,7.3,6.05,7.57,6.68C7.94,7.45,7.87,8.25,8.5,8.88C9.33,9.71,10.53,9.71,11.37,8.88C12.2,8.05,12.2,6.91,11.4,6.11C10.7,5.41,9.8,5.51,9.1,5.14C8.53,4.84,8.47,4.21,8.93,3.77L10.96,1.74C11.69,1.01,12.23,1.01,12.96,1.74L15.99,4.77C16.62,5.4,16.96,5.1,17.39,4.6C17.99,3.93,17.76,3.3,18.52,2.53C19.42,1.63,20.49,1.8,21.29,2.63Z" fill="currentColor"/><path d="M9.07,21.33C10.24,22.46,9.2,24.06,7.6,24L4.33,24L6.83,21.5C7.66,20.67,8.46,20.73,9.06,21.33Z" fill="currentColor"/></svg>