<svg xmlns="http://www.w3.org/2000/svg" viewBox="0 0 24 24" fill="currentColor"><path d="M5.25,16.13C5.25,13.45,6.77,11.5,10.48,11.5L10.83,11.5C11.28,11.5,11.53,11.75,11.53,12.2L11.53,13.8C11.53,14.25,11.78,14.49,12.23,14.49L12.33,14.49C12.78,14.49,13.02,14.25,13.02,13.8L13.02,12.2C13.02,11.75,13.27,11.5,13.72,11.5L19.8,11.5C20.25,11.5,20.49,11.75,20.49,12.2L20.49,14.6C20.49,15.05,20.25,15.35,19.82,15.48L18.32,15.83C16.52,16.26,16.5,16.08,15.24,18.58C12.97,23.1,5.25,22.01,5.25,16.13ZM9.57,9.32C9.25,9.65,8.9,9.65,8.6,9.3L7.1,7.65C6.8,7.3,6.8,6.96,7.12,6.63L7.19,6.57C7.52,6.25,7.87,6.25,8.17,6.6L9.65,8.22C9.95,8.58,9.95,8.92,9.63,9.25ZM12.21,8.5C11.75,8.5,11.51,8.25,11.51,7.8L11.51,5.46C11.51,5.01,11.75,4.76,12.21,4.76L12.3,4.76C12.75,4.76,13,5.01,13,5.46L13,7.8C13,8.25,12.75,8.5,12.3,8.5ZM15.9,9.3C15.6,9.66,15.25,9.66,14.93,9.32L14.88,9.25C14.55,8.93,14.55,8.57,14.85,8.22L16.33,6.59C16.63,6.24,16.98,6.24,17.3,6.57L17.38,6.62C17.7,6.95,17.7,7.3,17.4,7.65Z"/></svg>