<svg xmlns="http://www.w3.org/2000/svg" viewBox="0 0 24 24" fill="currentColor"><path d="M11.75,6.2L11.75,6.29C11.75,6.74,11.5,6.99,11.05,6.99L9.63,6.99C9.71,6.75,9.75,6.5,9.75,6.24C9.75,5.99,9.71,5.73,9.63,5.49L11.05,5.49C11.5,5.49,11.75,5.74,11.75,6.19ZM19.8,20.5L5.7,20.5C5.25,20.5,5.05,20.25,5.15,19.83L5.36,18.72C5.5,18.02,5.72,17.54,6.08,17.23C6.55,18.11,7.49,18.75,8.51,18.75C9.59,18.75,10.58,18.03,11.02,17.07C11.54,17.35,11.87,17.85,12.16,18.67L12.26,18.99L19.81,18.99C20.26,18.99,20.51,19.24,20.51,19.69L20.51,19.79C20.51,20.24,20.26,20.48,19.81,20.48ZM7,7.75C6.81,7.75,6.64,7.72,6.47,7.66C5.9,7.46,5.5,6.91,5.5,6.25C5.5,5.4,6.15,4.75,7,4.75C7.57,4.75,8.06,5.04,8.31,5.5C8.37,5.61,8.42,5.73,8.46,5.85C8.48,5.98,8.51,6.11,8.51,6.25C8.51,6.53,8.44,6.78,8.32,7C8.23,7.17,8.1,7.31,7.96,7.43C7.71,7.63,7.38,7.75,7.01,7.75ZM7,9C7.4,9,7.8,8.9,8.16,8.72L8.93,13.29C8.79,13.26,8.65,13.25,8.51,13.25C8.13,13.25,7.76,13.34,7.43,13.49L6.7,8.97C6.8,8.99,6.91,8.99,7.02,8.99ZM13.79,10.36C13.23,10.02,13,9.61,13,8.9L13,7.57C13,6.8,13.28,6.35,13.95,6L15.8,5C16.48,4.65,17.03,4.65,17.7,5L19.55,6C20.23,6.35,20.51,6.8,20.51,7.57L20.51,8.9C20.51,9.6,20.28,10.02,19.73,10.35C19.66,9.75,19.4,9.2,19.01,8.75L19.01,7.42L16.76,6.2L14.51,7.42L14.51,8.78C14.13,9.23,13.87,9.78,13.8,10.36ZM19.83,17.5L13.68,17.5C13.68,16.73,13.98,16.08,14.52,15.75C15.95,14.85,16,13.88,16,13.58L16,13.18L15.15,13.18C15.06,13.03,15,12.83,15,12.58L16,11.96C15.5,11.64,15.27,11.16,15.27,10.68C15.27,9.86,15.95,9.18,16.75,9.18C17.58,9.18,18.25,9.86,18.25,10.68C18.25,11.16,18,11.64,17.5,11.94L18.53,12.59C18.53,12.81,18.48,13.04,18.38,13.19L17.5,13.19L17.5,13.59C17.5,13.88,17.58,14.86,19,15.76C19.52,16.08,19.83,16.73,19.83,17.51ZM8.5,17.5C7.65,17.5,7,16.85,7,16C7,15.15,7.65,14.5,8.5,14.5C9.35,14.5,10,15.15,10,16C10,16.85,9.35,17.5,8.5,17.5Z"/></svg>