<svg xmlns="http://www.w3.org/2000/svg" viewBox="0 0 24 24" fill="currentColor"><path d="M22,18.75C22,19.48,21.8,19.55,21.25,19.08L18.12,16.3C17.88,16.08,17.88,15.93,18.12,15.7L21.25,12.93C21.8,12.42,22,12.53,22,13.28ZM5.08,17.5C4.31,17.5,4.01,17.2,4.01,16.43L4.01,15.58C4.01,14.81,4.31,14.51,5.08,14.51L13.43,14.51C14.2,14.51,14.5,14.81,14.5,15.58L14.5,16.43C14.5,17.2,14.2,17.5,13.43,17.5ZM9.58,22C8.81,22,8.51,21.7,8.51,20.93L8.51,20.08C8.51,19.31,8.81,19.01,9.58,19.01L16.43,19.01C17.2,19.01,17.5,19.31,17.5,20.08L17.5,20.93C17.5,21.7,17.2,22,16.43,22ZM9.58,13C8.81,13,8.51,12.7,8.51,11.93L8.51,11.08C8.51,10.31,8.81,10.01,9.58,10.01L16.43,10.01C17.2,10.01,17.5,10.31,17.5,11.08L17.5,11.93C17.5,12.7,17.2,13,16.43,13ZM8.83,8.5C8.06,8.5,7.76,8.2,7.76,7.43L7.76,6.58C7.76,5.81,8.06,5.51,8.83,5.51L15.68,5.51C16.45,5.51,16.75,5.81,16.75,6.58L16.75,7.43C16.75,8.2,16.45,8.5,15.68,8.5Z"/></svg>