<svg xmlns="http://www.w3.org/2000/svg" viewBox="0 0 24 24"><path d="M5,20.56C5,21.59,4.6,21.99,3.57,21.99L3.44,21.99C2.41,21.99,2.01,21.59,2.01,20.56L2.01,3.43C2.01,2.4,2.41,2,3.44,2L3.57,2C4.6,2,5,2.4,5,3.43Z" fill="currentColor"/><path d="M8.43,13.5C7.4,13.5,7,13.1,7,12.07L7,11.94C7,10.91,7.4,10.51,8.43,10.51L16.86,10.51L16.86,13.48Z" fill="currentColor"/><path d="M14.73,5.9L21.83,11.43C22.3,11.8,22.3,12.2,21.83,12.56L14.73,18.09C14.26,18.46,14,18.32,14,17.72L14,6.25C14,5.65,14.27,5.52,14.73,5.88Z" fill="currentColor"/></svg>