<svg xmlns="http://www.w3.org/2000/svg" viewBox="0 0 24 24" fill="currentColor"><path d="M12.23,10L9.83,10C9.83,7.77,11.83,6.27,11.83,6.27C11.7,5.7,11.7,5.58,11.7,5.43C11.7,4.65,12.28,4.02,13,4.02C13.73,4.02,14.3,4.65,14.3,5.43C14.3,5.65,14.3,6.08,13.95,6.48C12.9,7.75,12.42,8.78,12.22,10ZM16.17,10L13.75,10C13.88,9.08,14.42,7.95,15.08,7.07C15.6,7.68,16.18,8.65,16.18,10ZM18.1,20.5L7.9,20.5C7.9,16.95,11.43,17.5,11.7,13.98L11.76,13.38L10.33,13.38C10.16,13.08,10.08,12.7,10.08,12.35L11.76,11.32L14.25,11.3L15.93,12.35C15.93,12.7,15.85,13.07,15.68,13.38L14.25,13.38L14.31,13.98C14.58,17.5,18.11,16.95,18.11,20.5Z"/></svg>