<svg xmlns="http://www.w3.org/2000/svg" viewBox="0 0 24 24" fill="currentColor"><path d="M12.3,14.5L12.21,14.5C11.75,14.5,11.51,14.25,11.51,13.8L11.51,6.58C11.51,5.81,11.75,5.51,12.38,5.51L19.01,5.51C19.63,5.51,19.81,5.73,19.46,6.11L17.26,8.51L19.34,10.78C19.77,11.23,19.71,11.51,19.21,11.51L13.01,11.51L13.01,13.81C13.01,14.26,12.76,14.51,12.31,14.51ZM12.27,16C13.45,16,14.5,17.05,14.5,18.23C14.5,19.45,13.45,20.5,12.27,20.5C11.05,20.5,10,19.45,10,18.23C10,17.05,11.05,16,12.27,16ZM19.8,19L12.28,19L12.28,17.5L19.8,17.5C20.25,17.5,20.5,17.75,20.5,18.2L20.5,18.29C20.5,18.75,20.25,18.99,19.8,18.99Z"/></svg>