<svg xmlns="http://www.w3.org/2000/svg" viewBox="0 0 24 24" fill="currentColor"><path d="M10.6,16.08C10.23,15.83,10.02,15.45,10.02,15L10.02,14.88C10.02,14.4,9.95,14.07,9.75,13.65L8.57,11.23C10.32,11.91,10.99,11,11.14,9.11C12.32,11.16,13.67,11.16,14.84,9.11C14.99,11,15.66,11.91,17.41,11.23L16.29,13.65C16.08,14.05,16.01,14.4,16.01,14.88L16.01,15C16.01,15.45,15.81,15.83,15.41,16.08C14.11,16.7,11.88,16.7,10.59,16.08ZM7.72,17.8C7.14,16.6,7.07,16.02,7.77,15.5C8.22,16.1,9.15,16.95,8.88,18.92C6.57,19.25,5.25,18.15,4.7,16.67C5.77,16.47,6.8,16.77,7.72,17.8ZM12.63,20.4C11.55,21.75,8.63,21.4,8,20.38C8.54,19.58,9.18,19.5,11.22,20C10.52,19.5,9.87,18.98,10.17,17.88C11.24,18.18,12.44,19.16,12.62,20.41ZM8.97,6.55C8.82,5.43,9.55,4.28,11.05,4.28C10.97,4.9,10.58,5.33,9.6,6.08C10.78,5.7,11.57,6.13,11.9,6.4C11.57,6.83,10.38,7.2,8.97,6.55ZM8.03,5.65C8.16,6.47,7.88,7.25,7.5,7.8C8.25,7.43,9.03,7.5,9.63,7.82C9.12,8.65,8.03,8.75,6.53,8.65C6.38,7.28,6.88,6.32,8.03,5.65ZM8.13,9.72C7.75,10.65,7.1,11.54,5.4,11.92C4.38,10.72,4.53,9.42,5.43,8.27C5.93,9.07,6,9.69,5.8,10.74C6.5,9.79,7.3,9.69,8.13,9.71ZM7.25,12.35C7.45,13.42,7.35,14.77,6.07,15.78C4.55,15.23,4.02,14.2,4.02,13.28C4.02,13,4.07,12.75,4.15,12.51C5.03,12.88,5.45,13.48,5.78,14.25C5.95,13.41,6.3,12.6,7.25,12.36ZM13,14.61C10.92,14.61,10.92,15.15,10.92,15.15C10.92,15.15,10.92,15.75,13,15.75C15.08,15.75,15.08,15.15,15.08,15.15C15.08,15.15,15.08,14.61,13,14.61ZM18.28,17.8C19.2,16.77,20.23,16.47,21.3,16.67C20.75,18.15,19.43,19.25,17.13,18.92C16.85,16.95,17.78,16.1,18.23,15.5C18.92,16.02,18.85,16.6,18.28,17.8ZM13.38,20.4C13.55,19.15,14.75,18.18,15.83,17.88C16.13,18.98,15.48,19.5,14.78,20C16.83,19.49,17.46,19.57,18,20.37C17.38,21.4,14.46,21.74,13.38,20.39ZM14.1,6.4C14.42,6.12,15.23,5.7,16.41,6.08C15.43,5.33,15.03,4.9,14.96,4.28C16.46,4.28,17.18,5.43,17.04,6.55C15.63,7.2,14.43,6.83,14.11,6.4ZM17.97,5.65C19.12,6.33,19.62,7.28,19.47,8.65C17.97,8.75,16.87,8.65,16.38,7.82C16.98,7.5,17.75,7.43,18.5,7.8C18.12,7.25,17.84,6.48,17.97,5.65ZM17.88,9.72C18.7,9.7,19.5,9.8,20.2,10.75C20,9.7,20.07,9.08,20.58,8.27C21.48,9.42,21.63,10.73,20.6,11.93C18.9,11.55,18.25,10.65,17.88,9.73ZM18.75,12.35C19.71,12.6,20.05,13.4,20.23,14.25C20.55,13.47,20.98,12.87,21.86,12.5C21.93,12.75,21.99,13,21.99,13.27C21.99,14.19,21.46,15.22,19.94,15.77C18.66,14.77,18.57,13.42,18.76,12.34Z"/></svg>