<svg xmlns="http://www.w3.org/2000/svg" viewBox="0 0 24 24"><path d="M23.57,13.13L20.4,17.16C20.1,17.53,19.9,17.53,19.67,17.23L16.44,13.13C15.81,12.3,15.97,12,17.01,12L18.51,12C18.51,9.81,17.56,7.83,16.06,6.46C16.27,5.9,16.38,5.3,16.38,4.67C16.38,4.01,16.25,3.37,16.01,2.78C19.28,4.57,21.51,8.04,21.51,12L23.01,12C24.04,12,24.21,12.3,23.58,13.13Z" fill="currentColor"/><path d="M5.96,2.8C5.73,3.38,5.6,4.01,5.6,4.66C5.6,5.3,5.72,5.91,5.93,6.48C4.44,7.85,3.5,9.82,3.5,12C3.5,16.13,6.87,19.8,11,19.8C12.87,19.8,14.58,19.05,15.89,17.85L17.77,20.01C15.94,21.56,13.57,22.5,11,22.5C5.23,22.5,0.5,17.77,0.5,12C0.5,8.06,2.71,4.59,5.96,2.8Z" fill="currentColor"/><path d="M15.9,16.03C17.03,16.86,17.8,18.36,17.8,19.96L11,22.19L4.47,19.79C4.47,18.42,5,16.86,6.1,16.02C8.4,14.29,9.17,13.39,9.17,10.25L7.1,10.25C6.83,9.78,6.73,9.35,6.73,8.85L9.13,7.35C8.26,6.72,7.7,5.75,7.7,4.65C7.7,2.85,9.2,1.38,11,1.38C12.77,1.38,14.27,2.91,14.27,4.65C14.27,5.75,13.74,6.72,12.87,7.35L15.27,8.85C15.27,9.35,15.14,9.78,14.9,10.25C14.9,10.25,12.83,10.25,12.83,10.25C12.93,13.42,13.63,14.38,15.9,16.02Z" fill="currentColor"/></svg>