<svg xmlns="http://www.w3.org/2000/svg" viewBox="0 0 24 24"><path d="M5.1,8.73L7.63,6.2L12.12,9.42C11.08,10.09,10.19,10.97,9.5,12L8,9.2Z" fill="currentColor"/><path d="M0,22L0,20.67C0,18.9,1.33,18,3.97,18L8.06,18C8.22,19.47,8.73,20.83,9.51,22Z" fill="currentColor"/><path d="M1.43,13.17L3.6,12.07L2,10.04Z" fill="currentColor"/><path d="M1.43,8.03L2.56,7L3.19,9.13Z" fill="currentColor"/><path d="M2.97,14.9L5.94,13.57L8.24,14.94C8.11,15.5,8.03,16.08,8.01,16.67L2.67,16.67Z" fill="currentColor"/><path d="M8.43,2.5L9.96,0C10.66,0.1,11.26,0.33,11.89,0.77L10.99,2.9L12.39,3.9L14.12,2C14.12,2,14.79,2.3,15.29,2.7C15.82,3.03,16.32,3.57,16.32,3.57L15.05,5.84L16.45,6.84L18.18,5.34C18.78,5.81,19.21,6.34,19.48,6.94L18.47,8.13C17.99,8.05,17.49,8.01,16.98,8.01C15.72,8.01,14.52,8.26,13.43,8.73L8.61,5.25C7.84,4.22,7.94,3.25,8.41,2.52Z" fill="currentColor"/><path d="M22,17C22,14.16,19.84,12,17,12C14.19,12,12,14.17,12,17C12,19.8,14.2,22,17,22C19.83,22,22,19.81,22,17Z" fill="currentColor"/><path d="M10,17C10,13.13,13.17,10,17,10C20.87,10,24,13.13,24,17C24,20.83,20.87,24,17,24C13.17,24,10,20.83,10,17Z" fill="currentColor"/><path d="M12.23,20.36L20.36,12.23L21.77,13.64L13.64,21.77Z" fill="currentColor"/></svg>