<svg xmlns="http://www.w3.org/2000/svg" viewBox="0 0 24 24"><path d="M6,13L6,4.8C8.43,4.73,9.7,3.97,12,2C14.27,3.97,15.63,4.8,18,4.8L18,13C18,15.03,16.03,16.6,12,19.57C7.87,16.6,6,15.04,6,13Z" fill="currentColor"/><path d="M1.7,22.83C1.23,22.83,0.77,22.63,0.43,22.23C0.13,21.93,0,21.53,0,21.13C0,20.66,0.2,20.2,0.6,19.86C0.97,19.53,1.83,19.46,1.9,19.43L1.87,19.43L3.9,17.3L2.37,15.53C2.24,15.36,2.77,14.83,3.04,14.6C3.17,14.47,3.34,14.43,3.47,14.43C3.64,14.43,3.8,14.46,3.9,14.6L8.53,19.97C8.63,20.07,8.66,20.2,8.66,20.34C8.66,20.54,8.56,20.74,8.39,20.87C8.12,21.07,7.52,21.54,7.36,21.37L5.86,19.6L5.83,19.6L3.4,21.2C3.37,21.27,3.17,22.1,2.8,22.4C2.5,22.7,2.1,22.83,1.7,22.83Z" fill="currentColor"/><path d="M1.53,5.2C0,3.9,0,1.5,0,1.5C0,1.5,0.37,1.43,0.87,1.43C1.74,1.43,3,1.6,3.94,2.4L5.04,3.37L4.94,3.37C4.34,3.37,4.01,3.7,4.01,4.3L4.01,7.3Z" fill="currentColor"/><path d="M20.6,21.2L18.17,19.6L18.14,19.6L16.64,21.37C16.47,21.54,15.87,21.07,15.61,20.87C15.44,20.74,15.34,20.54,15.34,20.34C15.34,20.21,15.37,20.07,15.47,19.97L20.1,14.6C20.2,14.47,20.37,14.43,20.53,14.43C20.7,14.43,20.86,14.46,20.96,14.6C21.23,14.83,21.76,15.37,21.63,15.53L20.1,17.3L22.13,19.43L22.1,19.43C22.17,19.46,23.03,19.53,23.4,19.86C23.8,20.19,24,20.66,24,21.13C24,21.53,23.87,21.93,23.57,22.23C23.24,22.63,22.77,22.83,22.3,22.83C21.9,22.83,21.5,22.7,21.2,22.4C20.83,22.1,20.63,21.27,20.6,21.2Z" fill="currentColor"/><path d="M9.93,13C10.63,13,11.16,12.43,11.16,11.67C11.16,10.87,10.19,10.74,10.19,9.3C10.19,8.47,10.86,7.57,11.99,7.57C13.29,7.57,13.89,8.47,13.89,9.3C13.89,10.73,12.82,10.87,12.82,11.67C12.82,12.44,13.35,13,14.05,13L17.98,13L17.98,11L15.25,11C15.25,11,15.75,10.2,15.75,9.17C15.75,7.04,13.88,5.67,11.98,5.67C10.15,5.67,8.28,7.17,8.28,9.17C8.28,10.2,8.75,11,8.75,11L5.98,11L5.98,13Z" fill="currentColor"/><path d="M20,4.3C20,3.7,19.67,3.37,19.07,3.37L18.97,3.37L20.07,2.4C21,1.6,22.27,1.43,23.14,1.43C23.64,1.43,24.01,1.5,24.01,1.5C24.01,1.5,23.98,3.9,22.48,5.2L20.01,7.3Z" fill="currentColor"/></svg>