<svg xmlns="http://www.w3.org/2000/svg" viewBox="0 0 24 24" fill="currentColor"><path d="M21.2,13.75L17.35,17.6C16.8,18.14,16.4,18.12,15.85,17.57L15.77,17.52C15.23,16.97,15.25,16.55,15.8,16L18.8,13L15.75,10C15.2,9.45,15.2,9.05,15.75,8.5L15.82,8.4C16.37,7.85,16.8,7.85,17.34,8.4L21.19,12.25C21.74,12.8,21.74,13.2,21.19,13.75ZM10.33,20.5C9.56,20.5,9.26,20.2,9.26,19.43L9.26,16.58C9.26,15.8,9.56,15.5,10.33,15.5L10.43,15.5C11.2,15.5,11.5,15.8,11.5,16.58L11.5,19.43C11.5,20.2,11.2,20.5,10.43,20.5ZM4.75,14.13C4.2,14.13,4,13.83,4,13.05L4,12.96C4,12.18,4.2,11.88,4.75,11.88L19.88,11.88L19.88,14.13ZM10.33,10.5C9.56,10.5,9.26,10.2,9.26,9.43L9.26,6.58C9.26,5.81,9.56,5.51,10.33,5.51L10.43,5.51C11.2,5.51,11.5,5.81,11.5,6.58L11.5,9.43C11.5,10.2,11.2,10.5,10.43,10.5Z"/></svg>