<svg xmlns="http://www.w3.org/2000/svg" viewBox="0 0 24 24"><path d="M9.86,22.5C4.69,22.42,0.5,18.19,0.5,13C0.5,8.28,3.98,4.34,8.5,3.62L8.5,2L6.5,2C6.5,0.3,6.93,0,10,0C13.07,0,13.5,0.3,13.5,2L11.5,2L11.5,3.62C14.3,4.07,16.69,5.74,18.11,8.07C17.74,8.03,17.37,8,17,8C16.23,8,15.48,8.1,14.77,8.27C13.64,7.13,12.01,6.5,10,6.5C6,6.5,3.5,9,3.5,13C3.5,16.4,5.3,18.71,8.3,19.33C8.61,20.5,9.14,21.57,9.85,22.49Z" fill="currentColor"/><path d="M9.5,8L10.5,8L11.03,10.24C9.94,11.2,9.09,12.43,8.57,13.82C8.38,13.47,8.32,12.99,8.47,12.4Z" fill="currentColor"/><path d="M10.03,17C10.03,13.17,13.2,10.03,17,10.03C20.83,10.03,23.97,13.16,23.97,17C23.97,20.8,20.84,23.97,17,23.97C13.2,23.97,10.03,20.8,10.03,17Z" fill="currentColor"/><path d="M15.97,21.03C15.97,21.66,16.3,22,16.9,22L17,22C17.63,22,17.97,21.67,17.97,21.07L17.97,18L21.07,18C21.67,18,22,17.67,22,17.03L22,16.93C22,16.33,21.67,16,21.03,16L17.96,16L17.96,12.97C17.96,12.34,17.63,12,17.03,12L16.93,12C16.3,12,15.96,12.33,15.96,12.93L15.96,16L12.93,16C12.33,16,12,16.33,12,16.97L12,17.07C12,17.67,12.33,18,12.97,18L15.97,18Z" fill="currentColor"/></svg>