<svg xmlns="http://www.w3.org/2000/svg" viewBox="0 0 24 24" fill="currentColor"><path d="M13,11.54C13,12,12.75,12.22,12.3,12.17C10.48,11.85,9.08,10.22,9.08,8.29C9.08,6.39,10.48,4.77,12.3,4.44C12.75,4.39,13,4.62,13,5.07ZM11.54,13C12,13,12.22,13.25,12.17,13.7C11.85,15.52,10.22,16.92,8.29,16.92C6.39,16.92,4.77,15.52,4.44,13.7C4.39,13.25,4.62,13,5.07,13ZM13,20.93L13,14.45C13,14,13.25,13.78,13.7,13.83C15.52,14.15,16.92,15.78,16.92,17.71C16.92,19.61,15.52,21.23,13.7,21.56C13.25,21.61,13,21.38,13,20.94ZM20.93,13L14.45,13C14,13,13.78,12.75,13.83,12.3C14.15,10.48,15.78,9.08,17.71,9.08C19.61,9.08,21.23,10.48,21.56,12.3C21.61,12.75,21.38,13,20.94,13Z"/></svg>