<svg xmlns="http://www.w3.org/2000/svg" viewBox="0 0 24 24" fill="currentColor"><path d="M18.92,17C19.55,18.25,19.75,19.02,19.82,20.5L9.45,20.5C9.55,19.3,9.3,18.75,9.02,17.58C9.8,16.65,11.72,15.45,12.23,14.9C12.55,15.72,13.13,16.02,13.85,16.02C15.26,16.02,17.21,14.32,18.13,13.23C17.85,15.63,18.15,15.4,18.93,17ZM7.55,15.72C7.3,17.54,8.02,19.17,8.02,19.67C8.02,20.67,6.8,21,6.32,20.42C6.45,19.65,6.47,19.32,6.27,18.83C6.06,18.38,4.41,14.27,7.74,9.93C7.84,7.17,10.14,5.67,12.52,5.93C14.62,4.98,16.97,5.4,18.54,6.73C19.64,9.3,17.12,13.31,13.97,14.58C13.72,14.68,13.59,14.48,13.57,14.38L12.77,11.46C11.39,14.83,9.62,15.86,7.54,15.73ZM10.3,13.95C10.73,13.48,9.35,12.63,9.05,13.23C8.6,14.1,7.67,14.33,7.04,14.22C6.8,14.17,6.62,14.43,6.95,14.7C7.72,15.3,9.55,14.93,10.3,13.95Z"/></svg>