<svg xmlns="http://www.w3.org/2000/svg" viewBox="0 0 24 24" fill="currentColor"><path d="M8.27,22L5.78,22C10.03,14.67,11.35,10.55,11.68,5.07C11.7,4.3,12.03,4,12.8,4L13.2,4C13.98,4,14.3,4.3,14.33,5.07C14.65,10.55,15.98,14.67,20.23,22L17.73,22C16.78,19.73,14.91,18.92,13.01,18.92C11.11,18.92,9.23,19.75,8.28,22ZM9.21,14.5C8.75,14.5,8.51,14.25,8.51,13.8L8.51,13.71C8.51,13.25,8.75,13.01,9.21,13.01L16.8,13.01C17.25,13.01,17.5,13.25,17.5,13.71L17.5,13.8C17.5,14.25,17.25,14.5,16.8,14.5ZM15.25,16.95C14.18,14.55,13.47,12.25,13,9.68C12.53,12.25,11.82,14.55,10.75,16.95Z"/></svg>