<svg xmlns="http://www.w3.org/2000/svg" viewBox="0 0 24 24"><path d="M2,21.7C2,19.7,2.63,18.8,4.47,18.07L5.97,17.47C8.84,16.34,9.2,16.1,9.2,15.34C9.2,13.04,7.37,13.04,7.37,9.07C7.37,8.77,7.38,8.48,7.41,8.2L10.56,9.71C11.38,10.1,12.62,10.1,13.44,9.71L16.59,8.2C16.62,8.48,16.63,8.78,16.63,9.07C16.63,13.04,14.7,13.04,14.7,15.34C14.7,16.11,15.1,16.31,17.93,17.44L19.53,18.07C21.36,18.8,22,19.7,22,21.7L22,22L2,22Z" fill="currentColor"/><path d="M12.87,8.47C12.24,8.77,11.77,8.77,11.14,8.47L3.27,4.7C2.64,4.4,2.64,4.2,3.27,3.9L12,0L20.7,3.9C21.33,4.2,21.37,4.4,20.73,4.7L18.3,5.87C19.93,6.84,20.37,8.14,19.37,11.54L22.07,12.97C21.04,13.9,20.1,14.4,19.17,14.4C18.4,13.33,17.6,12.67,17.97,11.23C18.9,8.03,18.6,7.3,17,6.5L11.6,3.83L10,4.63L15.43,7.26Z" fill="currentColor"/></svg>