<svg xmlns="http://www.w3.org/2000/svg" viewBox="0 0 24 24"><path d="M0.93,11.63C4.23,10.3,4.7,8.8,2.7,5.86L1.77,4.53L3.4,5.03C6.8,6.03,8,5.13,8.03,1.6L8.06,0L9.06,1.27C11.23,4.07,12.76,4.07,14.93,1.27L15.93,0L15.96,1.6C15.99,5.13,17.19,6.03,20.59,5.03L22.22,4.53L21.29,5.86C19.29,8.79,19.76,10.29,23.06,11.63L23.99,12L23.06,12.37C19.76,13.7,19.29,15.2,21.29,18.14L22.22,19.47L20.59,18.97C17.19,17.97,15.99,18.87,15.96,22.4L15.93,24L14.93,22.73C12.76,19.93,11.23,19.93,9.06,22.73L8.06,24L8.03,22.4C8,18.87,6.8,17.97,3.4,18.97L1.77,19.47L2.7,18.14C4.7,15.21,4.23,13.71,0.93,12.37L0,12Z" fill="currentColor"/><path d="M12,18C15.18,18,18,15.18,18,12C18,8.86,15.19,6,12,6C8.85,6,6,8.85,6,12C6,15.19,8.86,18,12,18Z" fill="currentColor"/><path d="M12,8C14.35,8,16,9.68,16,12C16,14.35,14.35,16,12,16C9.68,16,8,14.35,8,12C8,9.68,9.68,8,12,8Z" fill="currentColor"/></svg>