<svg xmlns="http://www.w3.org/2000/svg" viewBox="0 0 24 24" fill="currentColor"><path d="M20.46,20.5C19.25,20.5,19.01,20.25,19.01,19.05L19.01,18.96C19.01,17.75,19.25,17.51,20.46,17.51L20.55,17.51C21.75,17.51,22,17.75,22,18.96L22,19.05C22,20.25,21.75,20.5,20.55,20.5ZM5.46,20.5C4.25,20.5,4.01,20.25,4.01,19.05L4.01,18.96C4.01,17.75,4.26,17.51,5.46,17.51L5.55,17.51C6.75,17.51,7,17.75,7,18.96L7,19.05C7,20.25,6.75,20.5,5.55,20.5ZM10.45,20.5C9.25,20.5,9,20.25,9,19.05L9,18.96C9,17.75,9.25,17.51,10.45,17.51L10.55,17.51C11.75,17.51,12,17.75,12,18.96L12,19.05C12,20.25,11.75,20.5,10.55,20.5ZM15.45,20.5C14.25,20.5,14,20.25,14,19.05L14,18.96C14,17.75,14.25,17.51,15.45,17.51L15.55,17.51C16.75,17.51,17,17.75,17,18.96L17,19.05C17,20.25,16.75,20.5,15.55,20.5Z"/></svg>