<svg xmlns="http://www.w3.org/2000/svg" viewBox="0 0 24 24" fill="currentColor"><path d="M13,4.85C13.95,4.85,14.67,5.6,14.67,6.53C14.67,7.48,13.95,8.2,13,8.2C12.05,8.2,11.33,7.47,11.33,6.53C11.33,5.6,12.05,4.85,13,4.85ZM13,11.33C13.95,11.33,14.67,12.05,14.67,13C14.67,13.95,13.95,14.67,13,14.67C12.05,14.67,11.33,13.95,11.33,13C11.33,12.05,12.05,11.33,13,11.33ZM7.38,8.75L14.45,13L7.38,17.25L6.61,15.96L11.54,13.01L6.61,10.05ZM7,7.73C7.95,7.73,8.67,8.48,8.67,9.4C8.67,10.35,7.95,11.07,7,11.07C6.08,11.07,5.33,10.34,5.33,9.4C5.33,8.48,6.08,7.73,7,7.73ZM12.25,13L12.25,6.53L13.75,6.53L13.75,13ZM7,18.27C6.08,18.27,5.33,17.52,5.33,16.6C5.33,15.65,6.08,14.93,7,14.93C7.95,14.93,8.67,15.65,8.67,16.6C8.67,17.52,7.95,18.27,7,18.27ZM13,21.14C12.05,21.14,11.33,20.39,11.33,19.47C11.33,18.52,12.05,17.8,13,17.8C13.95,17.8,14.67,18.53,14.67,19.47C14.67,20.39,13.95,21.14,13,21.14ZM19.38,10.04L14.46,13L19.38,15.96L18.61,17.24L11.54,12.99L18.61,8.75ZM19,18.27C18.05,18.27,17.33,17.52,17.33,16.6C17.33,15.65,18.05,14.93,19,14.93C19.92,14.93,20.67,15.65,20.67,16.6C20.67,17.52,19.92,18.27,19,18.27ZM12.25,19.47L12.25,13L13.75,13L13.75,19.47ZM19,7.73C19.92,7.73,20.67,8.48,20.67,9.4C20.67,10.35,19.92,11.07,19,11.07C18.05,11.07,17.33,10.34,17.33,9.4C17.33,8.48,18.05,7.73,19,7.73Z"/></svg>