<svg xmlns="http://www.w3.org/2000/svg" viewBox="0 0 24 24"><path d="M19.24,22C18.34,22,18.01,21.6,18.01,20.57L18.01,3.24C18.01,2.34,18.41,2.01,19.44,2.01L20.77,2.01C21.67,2.01,22,2.41,22,3.44L22,20.77C22,21.67,21.6,22,20.57,22Z" fill="currentColor"/><path d="M3.44,22C2.41,22,2.01,21.6,2.01,20.57L2.01,9.44C2.01,8.41,2.41,8.01,3.44,8.01L4.57,8.01C5.6,8.01,6,8.41,6,9.44L6,20.57C6,21.6,5.6,22,4.57,22Z" fill="currentColor"/><path d="M11.24,22C10.34,22,10.01,21.6,10.01,20.57L10.01,15.24C10.01,14.34,10.41,14.01,11.44,14.01L12.77,14.01C13.67,14.01,14,14.41,14,15.44L14,20.77C14,21.67,13.6,22,12.57,22Z" fill="currentColor"/></svg>