<svg xmlns="http://www.w3.org/2000/svg" viewBox="0 0 24 24" fill="currentColor"><path d="M5.5,9.27L5.5,7.5C5.5,6,6,5.49,7.5,5.49L18.5,5.49C20,5.49,20.51,6,20.51,7.5L20.51,9.29C19.88,9.42,19.38,9.69,18.98,10.1L19.01,7L7.01,7L7.01,9.83C6.65,9.55,6.16,9.35,5.51,9.28ZM18.5,20.5L7.49,20.5C5.99,20.5,5.49,20,5.49,18.5L5.49,12.87C5.49,12.32,5.19,12.25,4.91,12.25L4.69,12.25C4.24,12.25,3.99,12,3.99,11.55L3.99,11.45C3.99,11,4.24,10.76,4.69,10.76L4.91,10.76C8.14,10.76,6.56,15.26,7.99,15.26C9.21,15.26,8.54,10.76,10.49,10.76C12.36,10.76,11.76,15.26,12.98,15.26C14.21,15.26,13.61,10.76,15.48,10.76C17.36,10.76,16.81,15.26,17.98,15.26C19.41,15.26,17.83,10.76,21.05,10.76L21.28,10.76C21.73,10.76,21.98,11,21.98,11.45L21.98,11.55C21.98,12,21.73,12.25,21.28,12.25L21.05,12.25C20.78,12.25,20.48,12.32,20.48,12.87L20.48,18.5C20.48,20,19.98,20.5,18.48,20.5Z"/></svg>