<svg xmlns="http://www.w3.org/2000/svg" viewBox="0 0 24 24"><path d="M2.4,22C0.4,22,0,21.6,0,19.6L0,10.4C0,8.4,0.4,8,2.4,8L2.6,8C4.6,8,5,8.4,5,10.4L5,19.6C5,21.6,4.6,22,2.6,22Z" fill="currentColor"/><path d="M9.9,22C7.9,22,7.5,21.6,7.5,19.6L7.5,7.4C7.5,5.4,7.9,5,9.9,5L10.1,5C12.1,5,12.5,5.4,12.5,7.4L12.5,19.6C12.5,19.62,12.5,19.64,12.5,19.66C11.9,20.31,11.35,21.09,10.98,21.96C10.73,21.99,10.43,22,10.1,22Z" fill="currentColor"/><path d="M15,4.4C15,2.4,15.4,2,17.4,2L17.6,2C19.6,2,20,2.4,20,4.4L20,7.9C19.39,7.58,18.7,7.4,18,7.4C16.88,7.4,15.82,7.86,15,8.59Z" fill="currentColor"/><path d="M23.43,24L12.56,24C12.56,22.13,13.69,21.17,14.73,20.27C15.73,19.47,16.66,18.67,16.66,17.14L16.66,16.44L15.16,16.44C14.96,16.14,14.89,15.74,14.89,15.34L16.66,14.27C15.83,13.67,15.39,12.9,15.39,12C15.39,10.57,16.56,9.4,17.99,9.4C19.42,9.4,20.59,10.57,20.59,12C20.59,12.9,20.16,13.67,19.32,14.2L21.09,15.33C21.09,15.73,21.02,16.13,20.82,16.43L19.32,16.43L19.32,17.13C19.32,18.66,20.25,19.46,21.25,20.26C22.28,21.16,23.42,22.13,23.42,23.99Z" fill="currentColor"/></svg>