<svg xmlns="http://www.w3.org/2000/svg" viewBox="0 0 24 24" fill="currentColor"><path d="M18.43,20.5C17.76,20.5,17.51,20.2,17.51,19.43L17.51,6.43C17.51,5.76,17.81,5.51,18.58,5.51L19.58,5.51C20.25,5.51,20.5,5.81,20.5,6.58L20.5,19.58C20.5,20.25,20.2,20.5,19.43,20.5ZM6.58,20.5C5.81,20.5,5.51,20.2,5.51,19.43L5.51,11.08C5.51,10.31,5.81,10.01,6.58,10.01L7.43,10.01C8.2,10.01,8.5,10.31,8.5,11.08L8.5,19.43C8.5,20.2,8.2,20.5,7.43,20.5ZM12.43,20.5C11.75,20.5,11.51,20.2,11.51,19.43L11.51,15.43C11.51,14.76,11.81,14.51,12.58,14.51L13.58,14.51C14.25,14.51,14.5,14.81,14.5,15.58L14.5,19.58C14.5,20.25,14.2,20.5,13.43,20.5Z"/></svg>