<svg xmlns="http://www.w3.org/2000/svg" viewBox="0 0 24 24"><path d="M1.94,22C0.34,22,0.01,21.67,0.01,20.07L0.01,9.94C0.01,8.34,0.34,8.01,1.94,8.01L2.07,8.01C3.67,8.01,4,8.34,4,9.94L4,20.07C4,21.67,3.67,22,2.07,22Z" fill="currentColor"/><path d="M7.57,22C6.27,22,6,21.67,6,20.07L6,6.57C6,5.27,6.33,5,7.93,5L8.43,5C9.73,5,10,5.33,10,6.93L10,13.74L9.89,13.8C7.48,15.2,7.48,18.85,9.89,20.26L10,20.32L10,20.43C10,21.73,9.67,22,8.07,22Z" fill="currentColor"/><path d="M12,3.6C12,2.27,12.33,2,13.93,2L14.4,2C15.73,2,16,2.33,16,3.93L16,9.14C14.62,8.49,13.07,8.8,12,9.69Z" fill="currentColor"/><path d="M14.8,23C14.53,23.37,14.17,23.43,13.8,23.23L13.2,22.86C12.83,22.66,12.7,22.29,12.9,21.89L13.2,21.19C13.33,20.92,13.27,20.56,13.03,20.16L12.16,18.63C12.03,18.36,11.69,18.2,11.23,18.16L10.73,18.09C10.26,18.06,10.03,17.76,10.03,17.32L10.03,16.65C10.03,16.18,10.26,15.92,10.73,15.88L11.46,15.78C11.76,15.78,12.06,15.55,12.29,15.15L13.16,13.62C13.29,13.35,13.29,12.99,13.09,12.59L12.89,12.09C12.69,11.69,12.82,11.32,13.19,11.12L13.79,10.75C14.16,10.55,14.52,10.62,14.79,10.98L15.26,11.61C15.43,11.84,15.79,11.98,16.23,11.98L18,11.98C18.3,11.98,18.6,11.78,18.87,11.41L19.2,10.98C19.47,10.61,19.83,10.55,20.2,10.75L20.8,11.12C21.17,11.32,21.3,11.69,21.1,12.09L20.8,12.79C20.67,13.06,20.73,13.42,20.97,13.82L21.84,15.35C21.97,15.62,22.31,15.78,22.77,15.82L23.27,15.89C23.74,15.92,23.97,16.19,23.97,16.66L23.97,17.33C23.97,17.76,23.74,18.06,23.27,18.1L22.54,18.2C22.24,18.2,21.94,18.43,21.71,18.83L20.84,20.36C20.71,20.63,20.71,20.99,20.91,21.39L21.11,21.89C21.31,22.29,21.18,22.66,20.81,22.86L20.21,23.23C19.84,23.43,19.48,23.36,19.21,23L18.74,22.37C18.57,22.14,18.24,22,17.77,22L16,22C15.7,22,15.4,22.2,15.13,22.57Z" fill="currentColor"/><path d="M14.67,17C14.67,18.3,15.7,19.33,17,19.33C18.3,19.33,19.33,18.3,19.33,17C19.33,15.7,18.3,14.67,17,14.67C15.7,14.67,14.67,15.7,14.67,17Z" fill="currentColor"/></svg>