<svg xmlns="http://www.w3.org/2000/svg" viewBox="0 0 24 24" fill="currentColor"><path d="M17.63,19.38L19.38,19.38L19.38,6.63L17.63,6.63ZM18.3,20.5C16.8,20.5,16.5,20.2,16.5,18.7L16.5,7.3C16.5,5.8,16.8,5.5,18.3,5.5L18.7,5.5C20.2,5.5,20.5,5.8,20.5,7.3L20.5,18.7C20.5,20.2,20.2,20.5,18.7,20.5ZM7.3,20.5C5.8,20.5,5.5,20.2,5.5,18.7L5.5,16.3C5.5,14.8,5.8,14.5,7.3,14.5L7.7,14.5C9.2,14.5,9.5,14.8,9.5,16.3L9.5,18.7C9.5,20.2,9.2,20.5,7.7,20.5ZM12.8,20.5C11.3,20.5,11,20.2,11,18.7L11,11.8C11,10.3,11.3,10,12.8,10L13.2,10C14.7,10,15,10.3,15,11.8L15,18.7C15,20.2,14.7,20.5,13.2,20.5Z"/></svg>