<svg xmlns="http://www.w3.org/2000/svg" viewBox="0 0 24 24" fill="currentColor"><path d="M20.5,18.5C20.5,20,20,20.5,18.5,20.5L7.49,20.5C5.99,20.5,5.49,20,5.49,18.5L5.49,13L16.79,16.7L20.49,15.1ZM5.13,13.6C4.73,13.8,4.38,13.68,4.17,13.28L4.12,13.18C3.92,12.78,4.02,12.45,4.42,12.26L6.15,11.49C13.55,8.11,12.14,17.69,19.14,14.58L20.87,13.81C21.29,13.64,21.62,13.76,21.82,14.16L21.87,14.26C22.07,14.66,21.95,14.99,21.55,15.18L19.92,15.93L16.79,16.71L5.87,13.23ZM19,12.87L19,7L7,7L7,9.45L5.5,10.13L5.5,7.5C5.5,6,6,5.5,7.5,5.5L18.5,5.5C20,5.5,20.51,6,20.51,7.5L20.51,12Z"/></svg>