<svg xmlns="http://www.w3.org/2000/svg" viewBox="0 0 24 24"><path d="M9.77,3.37C9.77,2.14,10.74,1.14,12,1.14C13.27,1.14,14.23,2.14,14.23,3.37C14.23,4.64,13.26,5.6,12,5.6C10.73,5.6,9.77,4.63,9.77,3.37Z" fill="currentColor"/><path d="M9.77,12C9.77,10.73,10.74,9.77,12,9.77C13.27,9.77,14.23,10.74,14.23,12C14.23,13.27,13.26,14.23,12,14.23C10.73,14.23,9.77,13.26,9.77,12Z" fill="currentColor"/><path d="M4.51,6.34L13.94,12L4.51,17.66L3.48,15.95L10.05,12.01L3.48,8.07Z" fill="currentColor"/><path d="M1.77,7.2C1.77,5.97,2.77,4.97,4,4.97C5.27,4.97,6.23,5.97,6.23,7.2C6.23,8.47,5.26,9.43,4,9.43C2.77,9.43,1.77,8.46,1.77,7.2Z" fill="currentColor"/><path d="M11,12L11,3.37L13,3.37L13,12Z" fill="currentColor"/><path d="M6.23,16.8C6.23,18.03,5.26,19.03,4,19.03C2.77,19.03,1.77,18.03,1.77,16.8C1.77,15.53,2.77,14.57,4,14.57C5.27,14.57,6.23,15.54,6.23,16.8Z" fill="currentColor"/><path d="M14.23,20.63C14.23,21.86,13.26,22.86,12,22.86C10.73,22.86,9.77,21.86,9.77,20.63C9.77,19.36,10.74,18.4,12,18.4C13.27,18.4,14.23,19.37,14.23,20.63Z" fill="currentColor"/><path d="M20.51,8.06L13.94,12L20.51,15.94L19.48,17.65L10.05,11.99L19.48,6.33Z" fill="currentColor"/><path d="M22.23,16.8C22.23,18.03,21.23,19.03,20,19.03C18.73,19.03,17.77,18.03,17.77,16.8C17.77,15.53,18.74,14.57,20,14.57C21.23,14.57,22.23,15.54,22.23,16.8Z" fill="currentColor"/><path d="M11,20.63L11,12L13,12L13,20.63Z" fill="currentColor"/><path d="M17.77,7.2C17.77,5.97,18.74,4.97,20,4.97C21.23,4.97,22.23,5.97,22.23,7.2C22.23,8.47,21.23,9.43,20,9.43C18.73,9.43,17.77,8.46,17.77,7.2Z" fill="currentColor"/></svg>