<svg xmlns="http://www.w3.org/2000/svg" viewBox="0 0 24 24"><path d="M19.07,22C17.07,22,16.67,21.6,16.67,19.6L16.67,4.4C16.67,2.4,17.07,2,19.07,2L19.6,2C21.6,2,22,2.4,22,4.4L22,19.6C22,21.6,21.6,22,19.6,22Z" fill="currentColor"/><path d="M4.4,22C2.4,22,2,21.6,2,19.6L2,16.4C2,14.4,2.4,14,4.4,14L4.93,14C6.93,14,7.33,14.4,7.33,16.4L7.33,19.6C7.33,21.6,6.93,22,4.93,22Z" fill="currentColor"/><path d="M11.74,22C9.74,22,9.34,21.6,9.34,19.6L9.34,10.4C9.34,8.4,9.74,8,11.74,8L12.27,8C14.27,8,14.67,8.4,14.67,10.4L14.67,19.6C14.67,21.6,14.27,22,12.27,22Z" fill="currentColor"/></svg>