<svg xmlns="http://www.w3.org/2000/svg" viewBox="0 0 24 24" fill="currentColor"><path d="M18.75,20.5C17.73,20.5,17.5,20.25,17.5,19.05L17.5,19L20.5,19L20.5,19.25C20.5,20.27,20.25,20.5,19.05,20.5ZM7.05,20.5L6.96,20.5C5.75,20.5,5.51,20.25,5.51,19.05L5.51,19L8.51,19L8.51,19.05C8.51,20.25,8.26,20.5,7.06,20.5ZM12.75,20.5C11.73,20.5,11.5,20.25,11.5,19.05L11.5,19L14.5,19L14.5,19.25C14.5,20.27,14.25,20.5,13.05,20.5ZM22,16.7L22,16.79C22,17.25,21.75,17.49,21.3,17.49L20.5,17.49L17.5,17.49L14.5,17.49L11.5,17.49L8.5,17.49L5.5,17.49L4.7,17.49C4.25,17.49,4,17.25,4,16.79L4,16.7C4,16.25,4.25,16,4.7,16L5.5,16L5.5,15.95C5.5,14.75,5.75,14.5,6.95,14.5L7.04,14.5C8.25,14.5,8.49,14.75,8.49,15.95L8.49,16L11.49,16L11.49,6.75C11.49,5.72,11.74,5.5,12.94,5.5L13.24,5.5C14.27,5.5,14.49,5.75,14.49,6.95L14.49,16L17.49,16L17.49,11.25C17.49,10.23,17.74,10,18.94,10L19.24,10C20.27,10,20.49,10.25,20.49,11.45L20.49,16L21.3,16C21.75,16,21.99,16.25,21.99,16.7Z"/></svg>