<svg xmlns="http://www.w3.org/2000/svg" viewBox="0 0 24 24"><path d="M3.43,14C2.4,14,2,13.6,2,12.57L2,11.44C2,10.41,2.4,10.01,3.43,10.01L13.9,10.01C14.93,10.01,15.33,10.41,15.33,11.44L15.33,12.57C15.33,13.6,14.93,14,13.9,14Z" fill="currentColor"/><path d="M3.43,6C2.4,6,2,5.6,2,4.57L2,3.44C2,2.41,2.4,2.01,3.43,2.01L7.23,2.01C8.26,2.01,8.66,2.41,8.66,3.44L8.66,4.57C8.66,5.6,8.26,6,7.23,6Z" fill="currentColor"/><path d="M3.44,22C2.41,22,2.01,21.6,2.01,20.57L2.01,19.44C2.01,18.41,2.41,18.01,3.44,18.01L20.57,18.01C21.6,18.01,22,18.41,22,19.44L22,20.57C22,21.6,21.6,22,20.57,22Z" fill="currentColor"/></svg>