<svg xmlns="http://www.w3.org/2000/svg" viewBox="0 0 24 24" fill="currentColor"><path d="M5.8,20.5C4.3,20.5,4,20.2,4,18.7L4,11.8C4,10.3,4.3,10,5.8,10L5.95,10C7.45,10,7.75,10.3,7.75,11.8L7.75,18.7C7.75,20.2,7.45,20.5,5.95,20.5ZM18.89,8.79C17.52,8.55,17.09,8.5,16.75,8.5C16.47,8.5,16.13,8.54,15.25,8.68L15.25,7.3C15.25,5.8,15.55,5.5,17.05,5.5L17.2,5.5C18.7,5.5,19,5.8,19,7.3L19,8.81C18.96,8.81,18.92,8.81,18.89,8.81ZM9.63,9.55C9.63,8.05,9.93,7.75,11.43,7.75L11.57,7.75C12.97,7.75,13.33,8.01,13.37,9.25C12.84,9.38,12.29,9.57,11.62,9.86L11.85,13.02C11.91,13.63,12.24,14.3,12.75,14.82L12.11,18.35C11.24,18.83,10.71,19.58,10.52,20.43C9.79,20.28,9.62,19.83,9.62,18.7ZM13.3,20.33L14.55,13.33L18.96,13.33L20.21,20.33ZM11.95,21.2C11.95,19.83,12.75,19.12,16.75,19.12C20.73,19.12,21.55,19.82,21.55,21.2L21.55,22L11.95,22ZM19.1,14.55L14.39,14.55C13.67,14.05,13.4,13.48,13.35,12.9L13.2,10.58C13.67,10.38,14.04,10.28,14.49,10.28L14.79,11.61L15.79,11.61L15.96,10.08C15.96,10.08,16.39,10.01,16.73,10.01C17.09,10.01,17.51,10.08,17.51,10.08L17.68,11.61L18.68,11.61L18.98,10.28C19.43,10.28,19.8,10.38,20.27,10.58L20.13,12.9C20.07,13.48,19.8,14.05,19.08,14.55Z"/></svg>