<svg xmlns="http://www.w3.org/2000/svg" viewBox="0 0 24 24"><path d="M15.5,5C15.5,3,17,1.5,19,1.5C21,1.5,22.5,3,22.5,5C22.5,7,21,8.5,19,8.5C17,8.5,15.5,7,15.5,5Z" fill="currentColor"/><path d="M1.5,12C1.5,10,3,8.5,5,8.5C7,8.5,8.5,10,8.5,12C8.5,14,7,15.5,5,15.5C3,15.5,1.5,14,1.5,12Z" fill="currentColor"/><path d="M15.5,19C15.5,17,17,15.5,19,15.5C21,15.5,22.5,17,22.5,19C22.5,21,21,22.5,19,22.5C17,22.5,15.5,21,15.5,19Z" fill="currentColor"/><path d="M5.45,11.11L19.45,18.11L18.56,19.9L4.56,12.9Z" fill="currentColor"/><path d="M19.45,5.89L5.45,12.89L4.56,11.1L18.56,4.1Z" fill="currentColor"/></svg>