<svg xmlns="http://www.w3.org/2000/svg" viewBox="0 0 24 24" fill="currentColor"><path d="M5.46,20.5C4.25,20.5,4.01,20.25,4.01,19.05L4.01,11.46C4.01,10.25,4.26,10.01,5.46,10.01L5.55,10.01C6.75,10.01,7,10.25,7,11.46L7,19.05C7,20.25,6.75,20.5,5.55,20.5ZM9.68,20.5C8.7,20.5,8.5,20.25,8.5,19.05L8.5,8.93C8.5,7.95,8.75,7.75,9.95,7.75L10.32,7.75C11.3,7.75,11.5,8,11.5,9.2L11.5,14.3L11.42,14.35C9.61,15.4,9.61,18.14,11.42,19.2L11.5,19.24L11.5,19.32C11.5,20.3,11.25,20.5,10.05,20.5ZM13,6.7C13,5.7,13.25,5.5,14.45,5.5L14.8,5.5C15.8,5.5,16,5.75,16,6.95L16,10.86C14.96,10.37,13.8,10.6,13,11.27ZM15.1,21.25C14.9,21.53,14.63,21.57,14.35,21.42L13.9,21.14C13.62,21,13.52,20.72,13.67,20.42L13.9,19.89C14,19.69,13.95,19.42,13.77,19.12L13.12,17.97C13.02,17.77,12.77,17.65,12.42,17.62L12.05,17.57C11.69,17.54,11.52,17.32,11.52,16.99L11.52,16.49C11.52,16.13,11.69,15.94,12.05,15.91L12.59,15.83C12.82,15.83,13.04,15.66,13.22,15.36L13.87,14.21C13.97,14.01,13.97,13.74,13.82,13.44L13.67,13.07C13.52,12.77,13.61,12.49,13.89,12.34L14.34,12.06C14.62,11.91,14.89,11.96,15.09,12.23L15.44,12.71C15.57,12.88,15.84,12.98,16.17,12.98L17.5,12.98C17.72,12.98,17.95,12.83,18.15,12.56L18.4,12.23C18.6,11.96,18.87,11.91,19.15,12.06L19.6,12.34C19.88,12.49,19.97,12.77,19.82,13.07L19.6,13.59C19.5,13.79,19.55,14.06,19.73,14.36L20.38,15.51C20.48,15.71,20.73,15.83,21.08,15.86L21.45,15.92C21.8,15.94,21.98,16.14,21.98,16.49L21.98,17C21.98,17.32,21.8,17.54,21.45,17.57L20.91,17.65C20.68,17.65,20.45,17.82,20.28,18.12L19.63,19.27C19.53,19.47,19.53,19.74,19.68,20.04L19.83,20.42C19.98,20.72,19.88,21,19.61,21.14L19.16,21.42C18.88,21.57,18.61,21.52,18.41,21.25L18.05,20.78C17.93,20.61,17.68,20.5,17.33,20.5L16,20.5C15.77,20.5,15.55,20.65,15.35,20.93ZM15,16.75C15,17.73,15.78,18.5,16.75,18.5C17.73,18.5,18.5,17.72,18.5,16.75C18.5,15.77,17.72,15,16.75,15C15.77,15,15,15.78,15,16.75Z"/></svg>