<svg xmlns="http://www.w3.org/2000/svg" viewBox="0 0 24 24" fill="currentColor"><path d="M12.96,20.52C11.75,20.52,11.51,20.28,11.51,19.08L11.51,15.2C11.51,14,11.75,13.75,12.96,13.75L13.05,13.75C14.25,13.75,14.5,14,14.5,15.2L14.5,19.08C14.5,20.28,14.25,20.52,13.05,20.52ZM6.96,20.52C5.75,20.52,5.51,20.28,5.51,19.08L5.51,18.95C5.51,17.75,5.76,17.5,6.96,17.5L7.05,17.5C8.25,17.5,8.5,17.75,8.5,18.95L8.5,19.08C8.5,20.28,8.25,20.52,7.05,20.52ZM18.96,20.52C17.75,20.52,17.51,20.28,17.51,19.08L17.51,11.45C17.51,10.25,17.75,10,18.96,10L19.05,10C20.25,10,20.5,10.25,20.5,11.45L20.5,19.08C20.5,20.28,20.25,20.52,19.05,20.52ZM14.88,7.55L9.95,12.5C9.4,13.04,9,13.04,8.45,12.5L5.88,9.93C5.33,9.38,5.33,8.95,5.88,8.4L5.95,8.33C6.5,7.78,6.92,7.78,7.47,8.33L9.2,10.05L13.27,5.98C13.82,5.43,14.25,5.43,14.79,5.98L14.87,6.05C15.42,6.6,15.42,7.03,14.87,7.55Z"/></svg>