<svg xmlns="http://www.w3.org/2000/svg" viewBox="0 0 24 24"><path d="M12.4,22.03C10.4,22.03,10,21.63,10,19.63L10,16.4C10,14.4,10.4,14,12.4,14L11.6,14C13.6,14,14,14.4,14,16.4L14,19.63C14,21.63,13.6,22.03,11.6,22.03Z" fill="currentColor"/><path d="M4.4,22.03C2.4,22.03,2,21.63,2,19.63L2,20.4C2,18.4,2.4,18,4.4,18L3.6,18C5.6,18,6,18.4,6,20.4L6,19.63C6,21.63,5.6,22.03,3.6,22.03Z" fill="currentColor"/><path d="M20.4,22.03C18.4,22.03,18,21.63,18,19.63L18,20.4C18,18.4,18.4,18,20.4,18L19.6,18C21.6,18,22,18.4,22,20.4L22,19.63C22,21.63,21.6,22.03,19.6,22.03Z" fill="currentColor"/><path d="M8.07,11.37C7.87,12.07,8.1,12.24,8.7,11.8L12,9.47L15.27,11.8C15.87,12.23,16.1,12.07,15.94,11.37L14.94,7.44L17.87,5.14C18.44,4.71,18.34,4.41,17.64,4.34L13.81,4.07L12.41,0.57C12.14,-0.1,11.84,-0.1,11.58,0.57L10.28,4.07L6.35,4.37C5.65,4.4,5.55,4.7,6.12,5.14L9.09,7.44Z" fill="currentColor"/></svg>