<svg xmlns="http://www.w3.org/2000/svg" viewBox="0 0 24 24" fill="currentColor"><path d="M15.27,19L19,19L19,7L15.27,7L15.27,5.5L18.5,5.5C20,5.5,20.5,6,20.5,7.5L20.5,18.5C20.5,20,20,20.51,18.5,20.51L15.27,20.51ZM13.77,21.3C13.77,21.75,13.53,22,13.08,22L12.98,22C12.53,22,12.28,21.75,12.28,21.3L12.28,20.5L7.53,20.5C6.03,20.5,5.53,20,5.53,18.5L5.53,7.49C5.53,5.99,6.03,5.49,7.53,5.49L12.28,5.49L12.28,4.69C12.28,4.24,12.53,3.99,12.98,3.99L13.08,3.99C13.53,3.99,13.77,4.24,13.77,4.69L13.77,19.37L13.77,20.12Z"/></svg>