<svg xmlns="http://www.w3.org/2000/svg" viewBox="0 0 24 24"><path d="M10.23,9.95C9.65,6,8.86,5,7.4,5C5.71,5,5,6.26,5,9.96Z" fill="currentColor"/><path d="M24,11C24,11.02,24,11.04,24,11.07Z" fill="currentColor"/><path d="M24,11C24,11.6,23.6,11.93,22.87,11.93L22,11.93L1.13,11.96C1.01,11.96,0.9,11.97,0.8,11.99C0.29,11.94,0.01,11.55,0,10.9C0,10.9,0,10.89,0,10.89C0,10.88,0,10.88,0,10.87C0.02,10.29,0.41,9.97,1.13,9.97L2,9.97C2.01,5.09,3.51,2,7.4,2C10.89,2,12.45,4.45,13.26,9.95L19,9.94L19,5.43C19,4.4,19.4,4,20.43,4L20.56,4C21.59,4,21.99,4.4,21.99,5.43L21.99,9.93L23.06,9.93C23.64,9.93,23.97,10.31,23.99,11Z" fill="currentColor"/><path d="M2,14L5,13.99L5,18.57C5,19.6,4.6,20,3.57,20L3.44,20C2.41,20,2.01,19.6,2.01,18.57Z" fill="currentColor"/><path d="M10.73,13.97L13.77,13.96C14.35,17.93,15.17,19,16.61,19C18.3,19,18.98,17.79,19.01,13.95L22.01,13.94C21.96,18.95,20.54,22,16.61,22C13.13,22,11.55,19.53,10.74,13.97Z" fill="currentColor"/></svg>