<svg xmlns="http://www.w3.org/2000/svg" viewBox="0 0 24 24"><path d="M11.94,22.03C10.34,22.03,10.01,21.7,10.01,20.1L10.01,14.93C10.01,13.33,10.34,13,11.94,13L12.07,13C13.67,13,14,13.33,14,14.93L14,20.1C14,21.7,13.67,22.03,12.07,22.03Z" fill="currentColor"/><path d="M3.94,22.03C2.34,22.03,2.01,21.7,2.01,20.1L2.01,19.93C2.01,18.33,2.34,18,3.94,18L4.07,18C5.67,18,6,18.33,6,19.93L6,20.1C6,21.7,5.67,22.03,4.07,22.03Z" fill="currentColor"/><path d="M19.94,22.03C18.34,22.03,18.01,21.7,18.01,20.1L18.01,9.93C18.01,8.33,18.34,8,19.94,8L20.07,8C21.67,8,22,8.33,22,9.93L22,20.1C22,21.7,21.67,22.03,20.07,22.03Z" fill="currentColor"/><path d="M14.5,4.73L7.93,11.33C7.2,12.06,6.66,12.06,5.93,11.33L2.5,7.9C1.77,7.17,1.77,6.6,2.5,5.87L2.6,5.77C3.33,5.04,3.9,5.04,4.63,5.77L6.93,8.07L12.36,2.64C13.09,1.91,13.66,1.91,14.39,2.64L14.49,2.74C15.22,3.47,15.22,4.04,14.49,4.74Z" fill="currentColor"/></svg>