<svg xmlns="http://www.w3.org/2000/svg" viewBox="0 0 24 24"><path d="M20,9L20,4L4,4L4,9L2,9L2,4.67C2,2.67,2.67,2,4.67,2L19.34,2C21.34,2,22.01,2.67,22.01,4.67L22.01,9Z" fill="currentColor"/><path d="M22,19.33C22,21.33,21.33,22,19.33,22L4.66,22C2.66,22,1.99,21.33,1.99,19.33L1.99,12.46L21.99,12.46Z" fill="currentColor"/><path d="M23.06,11C23.66,11,23.99,11.33,23.99,11.93L23.99,12.06C23.99,12.66,23.66,12.99,23.06,12.99L0.93,12.99C0.33,12.99,0,12.66,0,12.06L0,11.93C0,11.33,0.33,11,0.93,11Z" fill="currentColor"/></svg>