<svg xmlns="http://www.w3.org/2000/svg" viewBox="0 0 24 24"><path d="M2.4,22C0.4,22,0,21.6,0,19.6L0,10.4C0,8.4,0.4,8,2.4,8L2.6,8C4.6,8,5,8.4,5,10.4L5,19.6C5,21.6,4.6,22,2.6,22Z" fill="currentColor"/><path d="M7.5,13.34C7.52,13.35,7.53,13.36,7.55,13.38L9.58,19.57C8.78,20.06,8.21,20.75,7.9,21.49C7.59,21.13,7.5,20.54,7.5,19.6Z" fill="currentColor"/><path d="M10.97,11.14C10.98,11.16,10.98,11.16,10.97,11.16Z" fill="currentColor"/><path d="M7.5,7.4C7.5,5.4,7.9,5,9.9,5L10.1,5C11.01,5,11.59,5.08,11.95,5.36C11.16,5.81,10.53,6.56,10.25,7.42C9.95,7.32,9.64,7.27,9.33,7.27C8.67,7.27,8.04,7.5,7.5,7.89Z" fill="currentColor"/><path d="M15,4.4C15,2.4,15.4,2,17.4,2L17.6,2C19.6,2,20,2.4,20,4.4L20,5.34C19.53,5.08,19.01,4.94,18.47,4.94C17.53,4.94,16.64,5.4,16,6.09C15.72,5.77,15.38,5.51,15.01,5.31Z" fill="currentColor"/><path d="M9.6,22.93C9.6,21.66,10.47,20.96,12.1,20.83L9.2,12C8.5,11.9,8,11.3,8,10.6C8,9.9,8.6,9.27,9.33,9.27C10.03,9.27,10.63,9.87,10.63,10.64C10.63,10.97,10.56,11.24,10.33,11.47L12.76,14.6L13.06,9.73C12.39,9.43,12.09,9,12.09,8.36C12.09,7.56,12.72,6.93,13.52,6.93C14.32,6.93,14.89,7.56,14.89,8.36C14.89,8.86,14.72,9.26,14.36,9.53L15.99,14.4L17.59,9.53C17.22,9.26,17.02,8.86,17.02,8.36C17.02,7.63,17.65,6.93,18.45,6.93C19.25,6.93,19.85,7.56,19.85,8.36C19.85,8.99,19.55,9.43,18.88,9.73L19.21,14.6L21.61,11.47C21.38,11.24,21.28,10.97,21.28,10.64C21.28,9.94,21.91,9.27,22.61,9.27C23.44,9.27,23.98,10,23.98,10.6C23.98,11.23,23.48,11.9,22.75,12L19.88,20.83C21.51,21,22.38,21.66,22.38,22.93L22.38,24L9.58,24Z" fill="currentColor"/></svg>