<svg xmlns="http://www.w3.org/2000/svg" viewBox="0 0 24 24"><path d="M19.24,22C18.34,22,18.01,21.6,18.01,20.57L18.01,13.24C18.01,12.34,18.41,12.01,19.44,12.01L20.77,12.01C21.67,12.01,22,12.41,22,13.44L22,20.77C22,21.67,21.6,22,20.57,22Z" fill="currentColor"/><path d="M12.57,22L11.24,22C10.34,22,10.01,21.6,10.01,20.57L10.01,18.3L14.01,14.3L14.01,20.77C14.01,21.67,13.61,22,12.58,22Z" fill="currentColor"/><path d="M23.4,2.03L14,11.43L10,15.43L6,19.43L3.58,21.85L2.1,23.33L2.07,23.36C1.64,23.79,1.17,23.79,0.74,23.36L0.64,23.26C0.21,22.83,0.21,22.36,0.64,21.93L2.01,20.56L2.01,3.43C2.01,2.4,2.41,2,3.44,2L4.57,2C5.6,2,6,2.4,6,3.43L6,16.56L10,12.56L10,7.23C10,6.33,10.4,6,11.43,6L12.76,6C13.66,6,13.99,6.4,13.99,7.43L13.99,8.56L21.96,0.59C22.39,0.16,22.86,0.16,23.29,0.59L23.39,0.69C23.81,1.11,23.82,1.57,23.42,1.99C23.41,2,23.4,2.01,23.39,2.02Z" fill="currentColor"/></svg>