<svg xmlns="http://www.w3.org/2000/svg" viewBox="0 0 24 24" fill="currentColor"><path d="M20.5,21.2L20.5,21.29C20.5,21.75,20.25,21.99,19.8,21.99L15,21.99C13.5,21.99,13,21.49,13,19.99L13,18.99L9,18.99C7.5,18.99,7,18.49,7,16.99L7,13.74L4.7,13.74C4.25,13.74,4,13.5,4,13.05L4,12.95C4,12.5,4.25,12.25,4.7,12.25L7,12.25L7,9C7,7.5,7.5,7,9,7L13,7L13,6C13,4.5,13.5,4,15,4L19.8,4C20.25,4,20.5,4.25,20.5,4.7L20.5,4.8C20.5,5.25,20.25,5.49,19.8,5.49L15.21,5.49C14.75,5.49,14.51,5.74,14.51,6.19L14.51,9.29C14.51,9.74,14.75,9.98,15.21,9.98L19.8,9.98C20.25,9.98,20.5,10.23,20.5,10.68L20.5,10.78C20.5,11.23,20.25,11.48,19.8,11.48L15,11.48C13.5,11.48,13,10.98,13,9.48L13,8.48L9.2,8.48C8.75,8.48,8.5,8.73,8.5,9.18L8.5,16.77C8.5,17.22,8.75,17.47,9.2,17.47L13,17.47L13,16.59C13,15.09,13.5,14.59,15,14.59L19.8,14.59C20.25,14.59,20.5,14.84,20.5,15.29L20.5,15.38C20.5,15.83,20.25,16.08,19.8,16.08L15.21,16.08C14.75,16.08,14.51,16.33,14.51,16.78L14.51,19.76C14.51,20.21,14.75,20.45,15.21,20.45L19.8,20.45C20.25,20.45,20.5,20.7,20.5,21.15Z"/></svg>