<svg xmlns="http://www.w3.org/2000/svg" viewBox="0 0 24 24" fill="currentColor"><path d="M5.8,20.5C4.3,20.5,4,20.2,4,18.7L4,11.8C4,10.3,4.3,10,5.8,10L5.95,10C7.45,10,7.75,10.3,7.75,11.8L7.75,18.7C7.75,20.2,7.45,20.5,5.95,20.5ZM9.63,14C9.64,14.01,9.65,14.02,9.66,14.04L11.19,18.68C10.58,19.04,10.16,19.56,9.93,20.12C9.69,19.85,9.63,19.41,9.63,18.7ZM12.23,12.36C12.23,12.37,12.23,12.37,12.23,12.37ZM9.63,9.55C9.63,8.05,9.93,7.75,11.43,7.75L11.57,7.75C12.26,7.75,12.69,7.81,12.96,8.02C12.37,8.36,11.9,8.92,11.69,9.56C11.46,9.49,11.23,9.45,11,9.45C10.5,9.45,10.03,9.63,9.63,9.92ZM15.25,7.3C15.25,5.8,15.55,5.5,17.05,5.5L17.2,5.5C18.7,5.5,19,5.8,19,7.3L19,8C18.65,7.81,18.26,7.71,17.85,7.71C17.15,7.71,16.48,8.05,16,8.57C15.79,8.33,15.53,8.13,15.26,7.98ZM11.2,21.2C11.2,20.25,11.85,19.72,13.08,19.62L10.9,13C10.38,12.92,10,12.47,10,11.95C10,11.42,10.45,10.95,11,10.95C11.52,10.95,11.97,11.4,11.97,11.98C11.97,12.23,11.92,12.43,11.75,12.6L13.57,14.95L13.8,11.3C13.29,11.07,13.07,10.75,13.07,10.27C13.07,9.67,13.54,9.2,14.14,9.2C14.74,9.2,15.17,9.67,15.17,10.27C15.17,10.64,15.04,10.94,14.77,11.15L15.99,14.8L17.19,11.15C16.92,10.94,16.77,10.64,16.77,10.27C16.77,9.72,17.24,9.2,17.84,9.2C18.44,9.2,18.89,9.67,18.89,10.27C18.89,10.74,18.66,11.07,18.16,11.3L18.41,14.95L20.21,12.6C20.04,12.43,19.96,12.23,19.96,11.98C19.96,11.45,20.43,10.95,20.96,10.95C21.58,10.95,21.98,11.5,21.98,11.95C21.98,12.42,21.61,12.92,21.06,13L18.91,19.62C20.13,19.75,20.79,20.24,20.79,21.2L20.79,22L11.18,22Z"/></svg>