<svg xmlns="http://www.w3.org/2000/svg" viewBox="0 0 24 24" fill="currentColor"><path d="M5.8,20.5C4.3,20.5,4,20.2,4,18.7L4,11.8C4,10.3,4.3,10,5.8,10L5.95,10C7.45,10,7.75,10.3,7.75,11.8L7.75,18.7C7.75,20.2,7.45,20.5,5.95,20.5ZM11.43,20.5C9.93,20.5,9.63,20.2,9.63,18.7L9.63,9.55C9.63,8.05,9.93,7.75,11.43,7.75L11.57,7.75C13.08,7.75,13.38,8.05,13.38,9.55L13.38,18.7C13.38,18.71,13.38,18.73,13.38,18.75C12.93,19.23,12.51,19.82,12.23,20.47C12.05,20.49,11.82,20.5,11.57,20.5ZM15.25,7.3C15.25,5.8,15.55,5.5,17.05,5.5L17.2,5.5C18.7,5.5,19,5.8,19,7.3L19,9.93C18.54,9.69,18.02,9.55,17.5,9.55C16.66,9.55,15.86,9.9,15.25,10.44ZM21.57,22L13.42,22C13.42,20.6,14.27,19.88,15.05,19.2C15.8,18.6,16.5,18,16.5,16.86L16.5,16.33L15.37,16.33C15.22,16.11,15.17,15.81,15.17,15.5L16.5,14.7C15.87,14.25,15.54,13.67,15.54,13C15.54,11.93,16.42,11.05,17.49,11.05C18.57,11.05,19.44,11.93,19.44,13C19.44,13.67,19.12,14.25,18.49,14.65L19.82,15.5C19.82,15.8,19.77,16.1,19.62,16.32L18.49,16.32L18.49,16.85C18.49,18,19.19,18.59,19.94,19.2C20.71,19.87,21.57,20.6,21.57,21.99Z"/></svg>