<svg xmlns="http://www.w3.org/2000/svg" viewBox="0 0 24 24" fill="currentColor"><path d="M17.5,19L17.5,7L19,7L19,19ZM18.25,5.13C19.75,5.13,20.88,6.25,20.88,7.75C20.88,9.25,19.75,10.38,18.25,10.38C16.75,10.38,15.63,9.25,15.63,7.75C15.63,6.25,16.75,5.13,18.25,5.13ZM7.75,10.38C9.25,10.38,10.38,11.5,10.38,13C10.38,14.5,9.25,15.63,7.75,15.63C6.25,15.63,5.13,14.5,5.13,13C5.13,11.5,6.25,10.38,7.75,10.38ZM18.25,15.63C19.75,15.63,20.88,16.75,20.88,18.25C20.88,19.75,19.75,20.88,18.25,20.88C16.75,20.88,15.63,19.75,15.63,18.25C15.63,16.75,16.75,15.63,18.25,15.63ZM8.09,12.33L18.59,17.58L17.92,18.92L7.42,13.67ZM18.59,8.42L8.09,13.67L7.42,12.33L17.92,7.08Z"/></svg>