<svg xmlns="http://www.w3.org/2000/svg" viewBox="0 0 24 24" fill="currentColor"><path d="M20.48,18.5C20.48,20,19.97,20.5,18.47,20.5L7.5,20.5C6,20.5,5.5,20,5.5,18.5L5.5,14.92L20.48,11.84ZM18.98,9.4L18.98,7L7,7L7,11.97L5.5,12.29L5.5,7.49C5.5,5.99,6,5.49,7.5,5.49L18.47,5.49C19.97,5.49,20.48,5.99,20.48,7.49L20.48,9.05ZM4.88,15.35C4.45,15.44,4.15,15.25,4.05,14.82L4.03,14.69C3.93,14.27,4.13,13.97,4.55,13.87L21.13,10.42C21.56,10.32,21.86,10.52,21.96,10.94L21.98,11.07C22.08,11.5,21.88,11.8,21.45,11.9Z"/></svg>