<svg xmlns="http://www.w3.org/2000/svg" viewBox="0 0 24 24"><path d="M1.07,22L0.94,22C0.34,22,0.01,21.67,0.01,21.07L0.01,16.67C0.01,14.67,0.68,14,2.68,14L4.01,14L4.01,6.67C4.01,4.67,4.68,4,6.68,4L11.01,4L11.01,0.93C11.01,0.33,11.34,0,11.94,0L12.07,0C12.67,0,13,0.33,13,0.93L13,4L17.33,4C19.33,4,20,4.67,20,6.67L20,14L21.33,14C23.33,14,24,14.67,24,16.67L24,21.07C24,21.67,23.67,22,23.07,22L22.94,22C22.34,22,22.01,21.67,22.01,21.07L22.01,16.94C22.01,16.34,21.68,16.01,21.08,16.01L16.95,16.01C16.35,16.01,16.02,16.34,16.02,16.94L16.02,21.07C16.02,21.67,15.69,22,15.09,22L14.96,22C14.36,22,14.03,21.67,14.03,21.07L14.03,16.67C14.03,14.67,14.7,14,16.7,14L18.03,14L18.03,6.93C18.03,6.33,17.7,6,17.1,6L6.97,6C6.37,6,6.04,6.33,6.04,6.93L6.04,14L7.21,14C9.21,14,9.88,14.67,9.88,16.67L9.88,21.07C9.88,21.67,9.55,22,8.95,22L8.82,22C8.22,22,7.89,21.67,7.89,21.07L7.89,16.94C7.89,16.34,7.56,16.01,6.96,16.01L2.99,16.01C2.39,16.01,2.06,16.34,2.06,16.94L2.06,21.07C2.06,21.67,1.73,22,1.13,22Z" fill="currentColor"/></svg>