<svg xmlns="http://www.w3.org/2000/svg" viewBox="0 0 24 24"><path d="M19.67,22C18.3,22,18,21.67,18,20.07L18,20L22,20L22,20.33C22,21.7,21.67,22,20.07,22Z" fill="currentColor"/><path d="M4.07,22L3.94,22C2.34,22,2.01,21.67,2.01,20.07L2.01,20L6.01,20L6.01,20.07C6.01,21.67,5.68,22,4.08,22Z" fill="currentColor"/><path d="M11.67,22C10.3,22,10,21.67,10,20.07L10,20L14,20L14,20.33C14,21.7,13.67,22,12.07,22Z" fill="currentColor"/><path d="M24,16.93L24,17.06C24,17.66,23.67,17.99,23.07,17.99L22,17.99L18,17.99L14,17.99L10,17.99L6,17.99L2,17.99L0.93,17.99C0.33,17.99,0,17.66,0,17.06L0,16.93C0,16.33,0.33,16,0.93,16L2,16L2,15.93C2,14.33,2.33,14,3.93,14L4.06,14C5.66,14,5.99,14.33,5.99,15.93L5.99,16L9.99,16L9.99,3.67C9.99,2.3,10.32,2,11.92,2L12.32,2C13.69,2,13.99,2.33,13.99,3.93L13.99,16L17.99,16L17.99,9.67C17.99,8.3,18.32,8,19.92,8L20.32,8C21.69,8,21.99,8.33,21.99,9.93L21.99,16L23.06,16C23.66,16,23.99,16.33,23.99,16.93Z" fill="currentColor"/></svg>