<svg xmlns="http://www.w3.org/2000/svg" viewBox="0 0 24 24" fill="currentColor"><path d="M13.3,3.92C11.8,3.92,11.5,4.22,11.5,5.72L11.5,8.15C11.5,9.65,11.8,9.95,13.3,9.95L12.7,9.95C14.2,9.95,14.5,9.65,14.5,8.15L14.5,5.72C14.5,4.22,14.2,3.92,12.7,3.92ZM7.3,3.92C5.8,3.92,5.5,4.22,5.5,5.72L5.5,5.15C5.5,6.65,5.8,6.95,7.3,6.95L6.7,6.95C8.2,6.95,8.5,6.65,8.5,5.15L8.5,5.72C8.5,4.22,8.2,3.92,6.7,3.92ZM19.3,3.92C17.8,3.92,17.5,4.22,17.5,5.72L17.5,5.15C17.5,6.65,17.8,6.95,19.3,6.95L18.7,6.95C20.2,6.95,20.5,6.65,20.5,5.15L20.5,5.72C20.5,4.22,20.2,3.92,18.7,3.92ZM10.05,11.92C9.9,11.39,10.07,11.27,10.53,11.6L13,13.35L15.45,11.6C15.9,11.27,16.07,11.39,15.96,11.92L15.21,14.87L17.4,16.59C17.83,16.91,17.75,17.14,17.23,17.19L14.36,17.39L13.31,20.02C13.11,20.52,12.88,20.52,12.69,20.02L11.71,17.39L8.76,17.17C8.24,17.15,8.16,16.92,8.59,16.59L10.82,14.87Z"/></svg>