<svg xmlns="http://www.w3.org/2000/svg" viewBox="0 0 24 24"><path d="M15.03,20L20,20L20,4L15.03,4L15.03,2L19.33,2C21.33,2,22,2.67,22,4.67L22,19.34C22,21.34,21.33,22.01,19.33,22.01L15.03,22.01Z" fill="currentColor"/><path d="M13.03,23.07C13.03,23.67,12.7,24,12.1,24L11.97,24C11.37,24,11.04,23.67,11.04,23.07L11.04,22L4.71,22C2.71,22,2.04,21.33,2.04,19.33L2.04,4.66C2.04,2.66,2.71,1.99,4.71,1.99L11.04,1.99L11.04,0.92C11.04,0.32,11.37,-0.01,11.97,-0.01L12.1,-0.01C12.7,-0.01,13.03,0.32,13.03,0.92L13.03,20.49L13.03,21.49Z" fill="currentColor"/></svg>