<svg xmlns="http://www.w3.org/2000/svg" viewBox="0 0 24 24"><path d="M22.57,18.93C23.6,19,24,19.4,24,20.43L24,20.56C24,21.59,23.6,21.99,22.57,21.96C19.04,21.79,18.1,20.69,17,14.9C17.32,14.96,17.66,15,18.01,15C18.7,15,19.36,14.86,19.96,14.61C20.58,17.95,21.05,18.74,22.58,18.93Z" fill="currentColor"/><path d="M0,20.43C0,19.4,0.4,19,1.43,18.93C3.36,18.7,3.63,17.5,4.6,11.46C5.83,4.03,7.4,1.99,12,1.99C14.8,1.99,16.48,2.74,17.64,5C16.53,5.08,15.52,5.51,14.74,6.19C14.08,5.31,13.23,4.99,12.01,4.99C9.38,4.99,8.44,6.49,7.54,11.92C6.17,20.32,5.54,21.75,1.44,21.95C0.41,21.98,0.01,21.58,0.01,20.55Z" fill="currentColor"/><path d="M21,10C21,8.37,19.63,7,18,7C16.33,7,15,8.37,15,10C15,11.67,16.33,13,18,13C19.63,13,21,11.67,21,10Z" fill="currentColor"/></svg>