<svg xmlns="http://www.w3.org/2000/svg" viewBox="0 0 24 24" fill="currentColor"><path d="M20.93,18.2C21.7,18.25,22,18.55,22,19.32L22,19.42C22,20.19,21.7,20.49,20.93,20.47C18.28,20.34,17.58,19.52,16.75,15.17C16.99,15.22,17.25,15.25,17.51,15.25C18.03,15.25,18.52,15.14,18.97,14.96C19.44,17.46,19.79,18.05,20.94,18.2ZM4,19.32C4,18.55,4.3,18.25,5.07,18.2C6.52,18.02,6.72,17.13,7.45,12.6C8.37,7.02,9.55,5.49,13,5.49C15.1,5.49,16.36,6.05,17.23,7.75C16.4,7.81,15.64,8.13,15.06,8.64C14.56,7.98,13.92,7.74,13.01,7.74C11.04,7.74,10.33,8.87,9.66,12.94C8.63,19.24,8.16,20.31,5.08,20.46C4.31,20.48,4.01,20.18,4.01,19.41ZM19.75,11.5C19.75,10.28,18.72,9.25,17.5,9.25C16.25,9.25,15.25,10.28,15.25,11.5C15.25,12.75,16.25,13.75,17.5,13.75C18.72,13.75,19.75,12.75,19.75,11.5Z"/></svg>