<svg xmlns="http://www.w3.org/2000/svg" viewBox="0 0 24 24" fill="currentColor"><path d="M6.57,14.5C5.8,14.5,5.5,14.2,5.5,13.43L5.5,12.58C5.5,11.81,5.8,11.51,6.57,11.51L14.42,11.51C15.2,11.51,15.5,11.81,15.5,12.58L15.5,13.43C15.5,14.2,15.2,14.5,14.42,14.5ZM6.57,8.5C5.8,8.5,5.5,8.2,5.5,7.43L5.5,6.58C5.5,5.81,5.8,5.51,6.57,5.51L9.42,5.51C10.2,5.51,10.5,5.81,10.5,6.58L10.5,7.43C10.5,8.2,10.2,8.5,9.42,8.5ZM6.58,20.5C5.81,20.5,5.51,20.2,5.51,19.43L5.51,18.58C5.51,17.81,5.81,17.51,6.58,17.51L19.43,17.51C20.2,17.51,20.5,17.81,20.5,18.58L20.5,19.43C20.5,20.2,20.2,20.5,19.43,20.5Z"/></svg>