<svg xmlns="http://www.w3.org/2000/svg" viewBox="0 0 24 24"><path d="M6,20.06C6,21.66,5.67,21.99,4.07,21.99L3.94,21.99C2.34,21.99,2.01,21.66,2.01,20.06L2.01,3.93C2.01,2.33,2.34,2,3.94,2L4.07,2C5.67,2,6,2.33,6,3.93Z" fill="currentColor"/><path d="M22,20.06C22,21.66,21.67,21.99,20.07,21.99L19.94,21.99C18.34,21.99,18.01,21.66,18.01,20.06L18.01,13.93C18.01,12.33,18.34,12,19.94,12L20.07,12C21.67,12,22,12.33,22,13.93Z" fill="currentColor"/><path d="M14,20.06C14,21.66,13.67,21.99,12.07,21.99L11.94,21.99C10.34,21.99,10.01,21.66,10.01,20.06L10.01,8.93C10.01,7.33,10.34,7,11.94,7L12.07,7C13.67,7,14,7.33,14,8.93Z" fill="currentColor"/></svg>