<svg xmlns="http://www.w3.org/2000/svg" viewBox="0 0 24 24"><path d="M19.33,22L4.66,22C2.66,22,1.99,21.33,1.99,19.33L1.99,10.96L7.12,15.79C8.15,15.12,10.09,12.62,11.99,9.79C13.79,12.59,15.76,15.12,16.82,15.79L21.99,10.96L21.99,19.33C21.99,21.33,21.32,22,19.32,22Z" fill="currentColor"/><path d="M23.06,9C23.66,9,23.99,9.33,23.99,9.93L23.99,10.06C23.99,10.66,23.66,10.99,23.06,10.99L22.83,10.99C21.66,10.99,21.56,11.86,20.93,13.29C20.3,14.72,19.43,16.79,16.9,16.79C13.07,16.79,12.37,10.79,12.03,10.79C11.8,10.79,10.8,16.79,7.1,16.79C4.6,16.79,3.73,14.79,3.07,13.29C2.34,11.69,2.64,10.99,1.17,10.99L0.94,10.99C0.34,10.99,0.01,10.66,0.01,10.06L0.01,9.93C0.01,9.33,0.34,9,0.94,9L1.17,9C4.1,9,4.3,11.17,4.87,12.5C5.54,13.93,5.94,14.8,7.1,14.8C9.8,14.8,8.97,8.8,12.03,8.8C15.1,8.8,14.2,14.8,16.9,14.8C18.1,14.8,18.5,13.9,19.13,12.5C19.76,11,20.33,9,22.83,9Z" fill="currentColor"/><path d="M2,7.03L2,4.66C2,2.66,2.67,1.99,4.67,1.99L19.34,1.99C21.34,1.99,22.01,2.66,22.01,4.66L22.01,7.06C21.18,7.23,20.51,7.59,19.98,8.13L20.01,4L4.01,4L4.01,7.77C3.54,7.4,2.88,7.14,2.01,7.04Z" fill="currentColor"/></svg>