<svg xmlns="http://www.w3.org/2000/svg" viewBox="0 0 24 24" fill="currentColor"><path d="M18.43,20.5C17.76,20.5,17.51,20.2,17.51,19.43L17.51,13.93C17.51,13.26,17.81,13.01,18.58,13.01L19.58,13.01C20.25,13.01,20.5,13.31,20.5,14.08L20.5,19.58C20.5,20.25,20.2,20.5,19.43,20.5ZM13.43,20.5L12.43,20.5C11.75,20.5,11.51,20.2,11.51,19.43L11.51,17.73L14.51,14.73L14.51,19.58C14.51,20.25,14.21,20.5,13.43,20.5ZM21.55,5.52L14.5,12.57L11.5,15.57L8.5,18.57L6.69,20.39L5.57,21.5L5.55,21.53C5.23,21.85,4.88,21.85,4.55,21.53L4.48,21.45C4.16,21.13,4.16,20.78,4.48,20.45L5.51,19.43L5.51,6.58C5.51,5.81,5.81,5.51,6.58,5.51L7.43,5.51C8.2,5.51,8.5,5.81,8.5,6.58L8.5,16.43L11.5,13.43L11.5,9.43C11.5,8.75,11.8,8.51,12.57,8.51L13.57,8.51C14.24,8.51,14.49,8.81,14.49,9.58L14.49,10.43L20.47,4.45C20.79,4.13,21.14,4.13,21.47,4.45L21.54,4.53C21.86,4.84,21.87,5.19,21.57,5.5C21.56,5.51,21.55,5.51,21.54,5.52Z"/></svg>