<svg xmlns="http://www.w3.org/2000/svg" viewBox="0 0 24 24" fill="currentColor"><path d="M4.8,20.5L4.71,20.5C4.26,20.5,4.01,20.25,4.01,19.8L4.01,16.5C4.01,15,4.51,14.5,6.01,14.5L7.01,14.5L7.01,9C7.01,7.5,7.51,7,9.01,7L12.26,7L12.26,4.7C12.26,4.25,12.51,4,12.96,4L13.05,4C13.5,4,13.75,4.25,13.75,4.7L13.75,7L17,7C18.5,7,19,7.5,19,9L19,14.5L20,14.5C21.5,14.5,22,15,22,16.5L22,19.8C22,20.25,21.75,20.5,21.3,20.5L21.21,20.5C20.75,20.5,20.51,20.25,20.51,19.8L20.51,16.71C20.51,16.25,20.26,16.01,19.81,16.01L16.71,16.01C16.26,16.01,16.02,16.25,16.02,16.71L16.02,19.8C16.02,20.25,15.77,20.5,15.32,20.5L15.22,20.5C14.77,20.5,14.52,20.25,14.52,19.8L14.52,16.5C14.52,15,15.03,14.5,16.53,14.5L17.52,14.5L17.52,9.2C17.52,8.75,17.28,8.5,16.83,8.5L9.23,8.5C8.78,8.5,8.53,8.75,8.53,9.2L8.53,14.5L9.41,14.5C10.91,14.5,11.41,15,11.41,16.5L11.41,19.8C11.41,20.25,11.16,20.5,10.71,20.5L10.62,20.5C10.17,20.5,9.92,20.25,9.92,19.8L9.92,16.71C9.92,16.25,9.67,16.01,9.22,16.01L6.24,16.01C5.79,16.01,5.54,16.25,5.54,16.71L5.54,19.8C5.54,20.25,5.3,20.5,4.85,20.5Z"/></svg>