<svg xmlns="http://www.w3.org/2000/svg" viewBox="0 0 24 24" fill="currentColor"><path d="M5.8,20.5C4.3,20.5,4,20.2,4,18.7L4,11.8C4,10.3,4.3,10,5.8,10L5.95,10C7.45,10,7.75,10.3,7.75,11.8L7.75,18.7C7.75,20.2,7.45,20.5,5.95,20.5ZM11.43,20.5C9.93,20.5,9.63,20.2,9.63,18.7L9.63,9.55C9.63,8.05,9.93,7.75,11.43,7.75L11.57,7.75C13.08,7.75,13.38,8.05,13.38,9.55L13.38,10.6C11.37,11.57,10,13.62,10,16C10,17.79,10.77,19.39,12.01,20.49C11.88,20.49,11.73,20.5,11.57,20.5ZM15.25,7.3C15.25,5.8,15.55,5.5,17.05,5.5L17.2,5.5C18.7,5.5,19,5.8,19,7.3L19,10.79C18.11,10.29,17.09,10,16,10C15.74,10,15.5,10.02,15.25,10.04ZM19,16C19,14.3,17.7,13,16,13C14.3,13,13,14.3,13,16C13,17.7,14.3,19,16,19C17.7,19,19,17.7,19,16ZM11.5,16C11.5,13.52,13.52,11.5,16,11.5C18.48,11.5,20.5,13.52,20.5,16C20.5,18.48,18.48,20.5,16,20.5C13.52,20.5,11.5,18.48,11.5,16ZM21.7,21.55L21.6,21.65C21.28,21.97,20.93,21.97,20.61,21.65L17.83,18.87L18.93,17.77L21.71,20.54C22.03,20.87,22.03,21.22,21.71,21.54Z"/></svg>