<svg xmlns="http://www.w3.org/2000/svg" viewBox="0 0 24 24"><path d="M22,19.33C22,21.33,21.33,22,19.33,22L4.66,22C2.66,22,1.99,21.33,1.99,19.33L1.99,12L17.06,16.93L21.99,14.8Z" fill="currentColor"/><path d="M1.5,12.8C0.97,13.07,0.5,12.9,0.23,12.37L0.16,12.24C-0.11,11.71,0.03,11.27,0.56,11.01L2.86,9.98C12.73,5.48,10.86,18.25,20.19,14.11L22.49,13.08C23.06,12.85,23.49,13.01,23.76,13.55L23.83,13.68C24.1,14.21,23.93,14.65,23.4,14.91L21.23,15.91L17.06,16.94L2.49,12.31Z" fill="currentColor"/><path d="M20,11.83L20,4L4,4L4,7.27L2,8.17L2,4.67C2,2.67,2.67,2,4.67,2L19.34,2C21.34,2,22.01,2.67,22.01,4.67L22.01,10.67Z" fill="currentColor"/></svg>