<svg xmlns="http://www.w3.org/2000/svg" viewBox="0 0 24 24"><path d="M2.4,22C0.4,22,0,21.6,0,19.6L0,10.4C0,8.4,0.4,8,2.4,8L2.6,8C4.6,8,5,8.4,5,10.4L5,19.6C5,21.6,4.6,22,2.6,22Z" fill="currentColor"/><path d="M19.85,6.38C18.03,6.07,17.45,6,17,6C16.63,6,16.17,6.05,15,6.24L15,4.4C15,2.4,15.4,2,17.4,2L17.6,2C19.6,2,20,2.4,20,4.4L20,6.42C19.95,6.42,19.9,6.41,19.85,6.41Z" fill="currentColor"/><path d="M7.5,7.4C7.5,5.4,7.9,5,9.9,5L10.1,5C11.96,5,12.44,5.35,12.49,7C11.79,7.17,11.06,7.43,10.16,7.81L10.47,12.03C10.55,12.84,10.99,13.73,11.67,14.43L10.82,19.13C9.65,19.77,8.95,20.77,8.7,21.91C7.72,21.71,7.49,21.11,7.49,19.6Z" fill="currentColor"/><path d="M12.4,21.77L14.07,12.44L19.94,12.44L21.61,21.77Z" fill="currentColor"/><path d="M10.6,22.93C10.6,21.1,11.67,20.16,17,20.16C22.3,20.16,23.4,21.09,23.4,22.93L23.4,24L10.6,24Z" fill="currentColor"/><path d="M20.13,14.07L13.86,14.07C12.89,13.4,12.53,12.64,12.46,11.87L12.26,8.77C12.89,8.5,13.39,8.37,13.99,8.37L14.39,10.14L15.72,10.14L15.95,8.11C15.95,8.11,16.52,8.01,16.98,8.01C17.45,8.01,18.01,8.11,18.01,8.11L18.24,10.14L19.57,10.14L19.97,8.37C20.57,8.37,21.07,8.5,21.7,8.77L21.5,11.87C21.43,12.64,21.07,13.4,20.1,14.07Z" fill="currentColor"/></svg>