<svg xmlns="http://www.w3.org/2000/svg" viewBox="0 0 24 24"><path d="M2,7.03L2,4.66C2,2.66,2.67,1.99,4.67,1.99L19.34,1.99C21.34,1.99,22.01,2.66,22.01,4.66L22.01,7.06C21.18,7.23,20.51,7.59,19.98,8.13L20.01,4L4.01,4L4.01,7.77C3.54,7.4,2.88,7.14,2.01,7.04Z" fill="currentColor"/><path d="M19.33,22L4.66,22C2.66,22,1.99,21.33,1.99,19.33L1.99,11.83C1.99,11.1,1.59,11,1.22,11L0.92,11C0.32,11,-0.01,10.67,-0.01,10.07L-0.01,9.94C-0.01,9.34,0.32,9.01,0.92,9.01L1.22,9.01C5.52,9.01,3.42,15.01,5.32,15.01C6.95,15.01,6.05,9.01,8.65,9.01C11.15,9.01,10.35,15.01,11.98,15.01C13.61,15.01,12.81,9.01,15.31,9.01C17.81,9.01,17.08,15.01,18.64,15.01C20.54,15.01,18.44,9.01,22.74,9.01L23.04,9.01C23.64,9.01,23.97,9.34,23.97,9.94L23.97,10.07C23.97,10.67,23.64,11,23.04,11L22.74,11C22.37,11,21.97,11.1,21.97,11.83L21.97,19.33C21.97,21.33,21.3,22,19.3,22Z" fill="currentColor"/></svg>