<svg xmlns="http://www.w3.org/2000/svg" viewBox="0 0 24 24"><path d="M21.97,19.33C21.97,21.33,21.3,22,19.3,22L4.67,22C2.67,22,2,21.33,2,19.33L2,14.56L21.97,10.46Z" fill="currentColor"/><path d="M19.97,7.2L19.97,4L4,4L4,10.63L2,11.06L2,4.66C2,2.66,2.67,1.99,4.67,1.99L19.3,1.99C21.3,1.99,21.97,2.66,21.97,4.66L21.97,6.73Z" fill="currentColor"/><path d="M1.17,15.13C0.6,15.26,0.2,15,0.07,14.43L0.04,14.26C-0.09,13.69,0.17,13.29,0.74,13.16L22.84,8.56C23.41,8.43,23.81,8.69,23.94,9.26L23.97,9.43C24.1,10,23.84,10.4,23.27,10.53Z" fill="currentColor"/></svg>