<svg xmlns="http://www.w3.org/2000/svg" viewBox="0 0 24 24" fill="currentColor"><path d="M18.75,20.5C17.73,20.5,17.5,20.25,17.5,19.05L17.5,14.25C17.5,13.23,17.75,13,18.95,13L19.25,13C20.27,13,20.5,13.25,20.5,14.45L20.5,19.25C20.5,20.27,20.25,20.5,19.05,20.5ZM6.96,20.5C5.75,20.5,5.51,20.25,5.51,19.05L5.51,17.46C5.51,16.25,5.76,16.01,6.96,16.01L7.05,16.01C8.25,16.01,8.5,16.25,8.5,17.46L8.5,19.05C8.5,20.25,8.25,20.5,7.05,20.5ZM12.75,20.5C11.73,20.5,11.5,20.25,11.5,19.05L11.5,10L14.5,10L14.5,19.25C14.5,20.27,14.25,20.5,13.05,20.5ZM22,7.79C22,8.25,21.75,8.49,21.3,8.49L14.5,8.49L11.5,8.49L4.7,8.49C4.25,8.49,4,8.25,4,7.79L4,7.7C4,7.25,4.25,7,4.7,7L11.5,7L11.5,6.75C11.5,5.72,11.75,5.5,12.95,5.5L13.25,5.5C14.27,5.5,14.5,5.75,14.5,6.95L14.5,7L21.3,7C21.75,7,22,7.25,22,7.7Z"/></svg>