<svg xmlns="http://www.w3.org/2000/svg" viewBox="0 0 24 24"><path d="M21.94,22C20.34,22,20.01,21.67,20.01,20.07L20.01,3.94C20.01,2.34,20.34,2.01,21.94,2.01L22.07,2.01C23.67,2.01,24,2.34,24,3.94L24,20.07C24,21.67,23.67,22,22.07,22Z" fill="currentColor"/><path d="M1.94,22C0.34,22,0.01,21.67,0.01,20.07L0.01,17.94C0.01,16.34,0.34,16.01,1.94,16.01L2.07,16.01C3.67,16.01,4,16.34,4,17.94L4,20.07C4,21.67,3.67,22,2.07,22Z" fill="currentColor"/><path d="M8.6,22C7,22,6.67,21.67,6.67,20.07L6.67,12.94C6.67,11.34,7,11.01,8.6,11.01L8.73,11.01C10.33,11.01,10.66,11.34,10.66,12.94L10.66,20.07C10.66,21.67,10.33,22,8.73,22Z" fill="currentColor"/><path d="M15.27,22C13.67,22,13.34,21.67,13.34,20.07L13.34,8.94C13.34,7.34,13.67,7.01,15.27,7.01L15.4,7.01C17,7.01,17.33,7.34,17.33,8.94L17.33,20.07C17.33,21.67,17,22,15.4,22Z" fill="currentColor"/></svg>