<svg xmlns="http://www.w3.org/2000/svg" viewBox="0 0 24 24"><path d="M2.4,22C0.4,22,0,21.6,0,19.6L0,10.4C0,8.4,0.4,8,2.4,8L2.6,8C4.6,8,5,8.4,5,10.4L5,19.6C5,21.6,4.6,22,2.6,22Z" fill="currentColor"/><path d="M7.5,7.4C7.5,5.4,7.9,5,9.9,5L10.1,5C12.1,5,12.5,5.4,12.5,7.4L12.5,10.43C11.4,12.02,10.47,14.11,10.47,16.23C10.47,17.44,10.72,18.54,11.09,19.5C10.03,20.09,9.38,20.98,9.12,21.96C7.79,21.84,7.5,21.3,7.5,19.59Z" fill="currentColor"/><path d="M15,4.4C15,2.4,15.4,2,17.4,2L17.6,2C19.6,2,20,2.4,20,4.4L20,6.48C19.27,5.55,18.17,4.93,17,4.93C16.28,4.93,15.59,5.16,15,5.55Z" fill="currentColor"/><path d="M11,22.93C11,21.66,12.13,20.83,14.03,20.8C13.16,19.53,12.46,18.13,12.46,16.23C12.46,12.8,15.33,10.13,15.33,10.13C15.13,9.3,15.13,9.13,15.13,8.93C15.13,7.8,15.96,6.93,17,6.93C18.03,6.93,18.87,7.8,18.87,8.93C18.87,9.26,18.84,9.86,18.37,10.43C17,12,16,14.2,15.84,16.8L17.61,16.8C17.74,14.63,18.41,12.83,19.58,11.4C20.41,12,21.55,14.07,21.55,16.23C21.55,18.2,20.92,19.6,20.02,20.8C21.89,20.87,23.02,21.67,23.02,22.93L23.02,24L11.02,24Z" fill="currentColor"/></svg>