<svg xmlns="http://www.w3.org/2000/svg" viewBox="0 0 24 24"><path d="M2.4,22C0.4,22,0,21.6,0,19.6L0,10.4C0,8.4,0.4,8,2.4,8L2.6,8C4.6,8,5,8.4,5,10.4L5,19.6C5,21.6,4.6,22,2.6,22Z" fill="currentColor"/><path d="M9.9,22C7.9,22,7.5,21.6,7.5,19.6L7.5,7.4C7.5,5.4,7.9,5,9.9,5L10.1,5C12.1,5,12.5,5.4,12.5,7.4L12.5,8.8C9.83,10.09,8,12.83,8,16C8,18.39,9.03,20.52,10.68,21.98C10.5,21.99,10.31,22,10.1,22Z" fill="currentColor"/><path d="M15,4.4C15,2.4,15.4,2,17.4,2L17.6,2C19.6,2,20,2.4,20,4.4L20,9.06C18.82,8.38,17.46,8,16,8C15.66,8,15.33,8.02,15,8.06Z" fill="currentColor"/><path d="M20,16C20,13.73,18.27,12,16,12C13.73,12,12,13.73,12,16C12,18.27,13.73,20,16,20C18.27,20,20,18.27,20,16Z" fill="currentColor"/><path d="M10,16C10,12.7,12.7,10,16,10C19.3,10,22,12.7,22,16C22,19.3,19.3,22,16,22C12.7,22,10,19.3,10,16Z" fill="currentColor"/><path d="M23.6,23.4L23.47,23.53C23.04,23.96,22.57,23.96,22.14,23.53L18.44,19.83L19.91,18.36L23.61,22.06C24.04,22.49,24.04,22.96,23.61,23.39Z" fill="currentColor"/></svg>