<svg xmlns="http://www.w3.org/2000/svg" viewBox="0 0 24 24" fill="currentColor"><path d="M15.25,19L19,19L19,7L7,7L7,10.75L5.5,10.75L5.5,7.5C5.5,6,6,5.5,7.5,5.5L18.5,5.5C20,5.5,20.51,6,20.51,7.5L20.51,18.5C20.51,20,20,20.51,18.5,20.51L15.26,20.51ZM13.75,14.25L13.75,21.3C13.75,21.75,13.5,22,13.05,22L12.96,22C12.5,22,12.26,21.75,12.26,21.3L12.26,20.5L7.51,20.5C6.01,20.5,5.51,20,5.51,18.5L5.51,13.75L4.71,13.75C4.25,13.75,4.01,13.5,4.01,13.05L4.01,12.96C4.01,12.5,4.25,12.26,4.71,12.26L11.75,12.26C13.25,12.26,13.76,12.76,13.76,14.26Z"/></svg>