<svg xmlns="http://www.w3.org/2000/svg" viewBox="0 0 24 24"><path d="M19.94,22C18.34,22,18.01,21.67,18.01,20.07L18.01,3.94C18.01,2.34,18.34,2.01,19.94,2.01L20.07,2.01C21.67,2.01,22,2.34,22,3.94L22,20.07C22,21.67,21.67,22,20.07,22Z" fill="currentColor"/><path d="M3.94,22C2.34,22,2.01,21.67,2.01,20.07L2.01,13.94C2.01,12.34,2.34,12.01,3.94,12.01L4.07,12.01C5.67,12.01,6,12.34,6,13.94L6,20.07C6,21.67,5.67,22,4.07,22Z" fill="currentColor"/><path d="M11.94,22C10.34,22,10.01,21.67,10.01,20.07L10.01,8.94C10.01,7.34,10.34,7.01,11.94,7.01L12.07,7.01C13.67,7.01,14,7.34,14,8.94L14,20.07C14,21.67,13.67,22,12.07,22Z" fill="currentColor"/></svg>