<svg xmlns="http://www.w3.org/2000/svg" viewBox="0 0 24 24"><path d="M22,22.93L22,23.06C22,23.66,21.67,23.99,21.07,23.99L14.67,23.99C12.67,23.99,12,23.32,12,21.32L12,19.99L6.67,19.99C4.67,19.99,4,19.32,4,17.32L4,12.99L0.93,12.99C0.33,12.99,0,12.66,0,12.06L0,11.93C0,11.33,0.33,11,0.93,11L4,11L4,6.67C4,4.67,4.67,4,6.67,4L12,4L12,2.67C12,0.67,12.67,0,14.67,0L21.07,0C21.67,0,22,0.33,22,0.93L22,1.06C22,1.66,21.67,1.99,21.07,1.99L14.94,1.99C14.34,1.99,14.01,2.32,14.01,2.92L14.01,7.05C14.01,7.65,14.34,7.98,14.94,7.98L21.07,7.98C21.67,7.98,22,8.31,22,8.91L22,9.04C22,9.64,21.67,9.97,21.07,9.97L14.67,9.97C12.67,9.97,12,9.3,12,7.3L12,5.97L6.93,5.97C6.33,5.97,6,6.3,6,6.9L6,17.03C6,17.63,6.33,17.96,6.93,17.96L12,17.96L12,16.79C12,14.79,12.67,14.12,14.67,14.12L21.07,14.12C21.67,14.12,22,14.45,22,15.05L22,15.18C22,15.78,21.67,16.11,21.07,16.11L14.94,16.11C14.34,16.11,14.01,16.44,14.01,17.04L14.01,21.01C14.01,21.61,14.34,21.94,14.94,21.94L21.07,21.94C21.67,21.94,22,22.27,22,22.87Z" fill="currentColor"/></svg>