<svg xmlns="http://www.w3.org/2000/svg" viewBox="0 0 24 24" fill="currentColor"><path d="M5.07,15.25C4.3,15.25,4,14.95,4,14.18L4,14.08C4,13.31,4.3,13.01,5.07,13.01L5.88,13.01C6.87,13.01,6.9,12.99,7.23,10.86C7.88,6.58,8.8,5.25,10.7,5.25C13.32,5.25,13.77,7.48,14.13,12.93C14.42,17.75,14.6,18.5,15.3,18.5C15.83,18.5,16.11,18.15,16.58,14.8C17.1,11.07,18.05,10.75,20.13,10.75L20.93,10.75C21.7,10.75,22,11.05,22,11.82L22,11.92C22,12.69,21.7,12.99,20.93,12.99L20.13,12.99C19.13,12.99,19.08,13.02,18.77,15.15C18.12,19.67,17.2,20.75,15.3,20.75C12.68,20.75,12.23,18.8,11.88,13.07C11.6,8.52,11.4,7.5,10.7,7.5C10.17,7.5,9.89,8.1,9.42,11.2C8.88,14.93,7.95,15.25,5.88,15.25Z"/></svg>