<svg xmlns="http://www.w3.org/2000/svg" viewBox="0 0 24 24" fill="currentColor"><path d="M20.46,20.5C19.25,20.5,19.01,20.25,19.01,19.05L19.01,6.96C19.01,5.76,19.25,5.51,20.46,5.51L20.55,5.51C21.75,5.51,22,5.76,22,6.96L22,19.05C22,20.25,21.75,20.5,20.55,20.5ZM5.46,20.5C4.25,20.5,4.01,20.25,4.01,19.05L4.01,17.46C4.01,16.25,4.26,16.01,5.46,16.01L5.55,16.01C6.75,16.01,7,16.25,7,17.46L7,19.05C7,20.25,6.75,20.5,5.55,20.5ZM10.45,20.5C9.25,20.5,9,20.25,9,19.05L9,13.71C9,12.51,9.25,12.26,10.45,12.26L10.55,12.26C11.75,12.26,12,12.51,12,13.71L12,19.05C12,20.25,11.75,20.5,10.55,20.5ZM15.45,20.5C14.25,20.5,14,20.25,14,19.05L14,10.71C14,9.5,14.25,9.26,15.45,9.26L15.55,9.26C16.75,9.26,17,9.5,17,10.71L17,19.05C17,20.25,16.75,20.5,15.55,20.5Z"/></svg>