<svg xmlns="http://www.w3.org/2000/svg" viewBox="0 0 24 24" fill="currentColor"><path d="M9.85,13.1C9.33,7.64,9.33,7.5,9,7.5C8.68,7.5,8.65,7.62,8.08,11.19C7.48,14.66,7.05,15.24,5.08,15.24L5.08,15.24C4.31,15.24,4.01,14.94,4.01,14.17L4.01,14.07C4.01,13.3,4.31,13,5.08,13L5.08,13C5.63,13,5.61,13.02,5.98,10.83C6.71,6.05,7.13,5.25,9,5.25C11.01,5.25,11.43,6.36,12.03,12.88C12.53,17.63,12.68,18.51,13,18.51C13.32,18.51,13.55,17.76,13.98,13.63C14.52,7.73,14.95,6.75,17,6.75C19,6.75,19.42,7.45,20.1,11.85C20.27,13.03,20.37,13,20.92,13L20.92,13C21.69,13,21.99,13.3,21.99,14.07L21.99,14.17C21.99,14.94,21.69,15.24,20.92,15.24L20.92,15.24C18.82,15.24,18.39,14.77,17.92,11.94C17.45,9.07,17.32,9,17,9C16.68,9,16.6,9.12,16.15,13.85C15.5,19.7,15,20.75,13,20.75C11,20.75,10.55,19.57,9.85,13.1Z"/></svg>