<svg xmlns="http://www.w3.org/2000/svg" viewBox="0 0 24 24" fill="currentColor"><path d="M18.96,20.5C17.75,20.5,17.51,20.25,17.51,19.05L17.51,6.96C17.51,5.76,17.75,5.51,18.96,5.51L19.05,5.51C20.25,5.51,20.5,5.76,20.5,6.96L20.5,19.05C20.5,20.25,20.25,20.5,19.05,20.5ZM6.96,20.5C5.75,20.5,5.51,20.25,5.51,19.05L5.51,14.46C5.51,13.25,5.76,13.01,6.96,13.01L7.05,13.01C8.25,13.01,8.5,13.25,8.5,14.46L8.5,19.05C8.5,20.25,8.25,20.5,7.05,20.5ZM12.96,20.5C11.75,20.5,11.51,20.25,11.51,19.05L11.51,10.71C11.51,9.5,11.75,9.26,12.96,9.26L13.05,9.26C14.25,9.26,14.5,9.5,14.5,10.71L14.5,19.05C14.5,20.25,14.25,20.5,13.05,20.5Z"/></svg>