<svg xmlns="http://www.w3.org/2000/svg" viewBox="0 0 24 24"><path d="M19.67,22C18.3,22,18,21.67,18,20.07L18,13.67C18,12.3,18.33,12,19.93,12L20.33,12C21.7,12,22,12.33,22,13.93L22,20.33C22,21.7,21.67,22,20.07,22Z" fill="currentColor"/><path d="M3.94,22C2.34,22,2.01,21.67,2.01,20.07L2.01,17.94C2.01,16.34,2.34,16.01,3.94,16.01L4.07,16.01C5.67,16.01,6,16.34,6,17.94L6,20.07C6,21.67,5.67,22,4.07,22Z" fill="currentColor"/><path d="M11.67,22C10.3,22,10,21.67,10,20.07L10,8L14,8L14,20.33C14,21.7,13.67,22,12.07,22Z" fill="currentColor"/><path d="M24,5.06C24,5.66,23.67,5.99,23.07,5.99L14,5.99L10,5.99L0.93,5.99C0.33,5.99,0,5.66,0,5.06L0,4.93C0,4.33,0.33,4,0.93,4L10,4L10,3.67C10,2.3,10.33,2,11.93,2L12.33,2C13.7,2,14,2.33,14,3.93L14,4L23.07,4C23.67,4,24,4.33,24,4.93Z" fill="currentColor"/></svg>