<svg xmlns="http://www.w3.org/2000/svg" viewBox="0 0 24 24"><path d="M10.5,12.1C10.13,6.03,9.87,4.67,8.93,4.67C8.23,4.67,7.86,5.47,7.23,9.6C6.5,14.57,5.26,15,2.5,15L1.43,15C0.4,15,0,14.6,0,13.57L0,13.44C0,12.41,0.4,12.01,1.43,12.01L2.5,12.01C3.83,12.01,3.87,11.98,4.3,9.14C5.17,3.44,6.4,1.67,8.93,1.67C12.43,1.67,13.03,4.64,13.5,11.9C13.9,18.33,14.13,19.33,15.07,19.33C15.77,19.33,16.14,18.86,16.77,14.4C17.47,9.43,18.74,9,21.5,9L22.57,9C23.6,9,24,9.4,24,10.43L24,10.56C24,11.59,23.6,11.99,22.57,11.99L21.5,11.99C20.17,11.99,20.1,12.02,19.7,14.86C18.83,20.89,17.6,22.33,15.07,22.33C11.57,22.33,10.97,19.73,10.5,12.1Z" fill="currentColor"/></svg>