<svg xmlns="http://www.w3.org/2000/svg" viewBox="0 0 24 24" fill="currentColor"><path d="M18.5,20.5L7.49,20.5C5.99,20.5,5.49,20,5.49,18.5L5.49,12.22L9.34,15.84C10.11,15.34,11.57,13.46,12.99,11.34C14.34,13.44,15.82,15.34,16.62,15.84L20.49,12.22L20.49,18.5C20.49,20,19.99,20.5,18.49,20.5ZM21.29,10.75C21.75,10.75,21.99,11,21.99,11.45L21.99,11.54C21.99,12,21.75,12.24,21.29,12.24L21.12,12.24C20.24,12.24,20.17,12.89,19.7,13.97C19.23,15.04,18.57,16.59,16.67,16.59C13.8,16.59,13.28,12.09,13.02,12.09C12.85,12.09,12.1,16.59,9.32,16.59C7.45,16.59,6.8,15.09,6.3,13.97C5.75,12.77,5.98,12.24,4.88,12.24L4.7,12.24C4.25,12.24,4.01,11.99,4.01,11.54L4.01,11.45C4.01,11,4.25,10.75,4.7,10.75L4.88,10.75C7.07,10.75,7.22,12.38,7.65,13.38C8.15,14.45,8.45,15.1,9.32,15.1C11.35,15.1,10.73,10.6,13.02,10.6C15.32,10.6,14.65,15.1,16.67,15.1C17.57,15.1,17.88,14.43,18.35,13.38C18.82,12.25,19.25,10.75,21.12,10.75ZM5.5,9.27L5.5,7.5C5.5,6,6,5.49,7.5,5.49L18.5,5.49C20,5.49,20.51,6,20.51,7.5L20.51,9.29C19.88,9.42,19.38,9.69,18.98,10.1L19.01,7L7.01,7L7.01,9.83C6.65,9.55,6.16,9.35,5.51,9.28Z"/></svg>