<svg xmlns="http://www.w3.org/2000/svg" viewBox="0 0 24 24" fill="currentColor"><path d="M19.05,20.5L18.96,20.5C17.75,20.5,17.51,20.25,17.51,19.05L17.51,14.5L20.51,14.5L20.51,19.05C20.51,20.25,20.26,20.5,19.06,20.5ZM6.96,20.5C5.75,20.5,5.51,20.25,5.51,19.05L5.51,18.96C5.51,17.75,5.76,17.51,6.96,17.51L7.05,17.51C8.25,17.51,8.5,17.75,8.5,18.96L8.5,19.05C8.5,20.25,8.25,20.5,7.05,20.5ZM13.05,20.5L12.96,20.5C11.75,20.5,11.51,20.25,11.51,19.05L11.51,14.5L14.51,14.5L14.51,19.05C14.51,20.25,14.26,20.5,13.06,20.5ZM22,12.2L22,12.29C22,12.75,21.75,12.99,21.3,12.99L20.5,12.99L17.5,12.99L14.5,12.99L11.5,12.99L4.7,12.99C4.25,12.99,4,12.75,4,12.29L4,12.2C4,11.75,4.25,11.5,4.7,11.5L11.5,11.5L11.5,6.95C11.5,5.75,11.75,5.5,12.95,5.5L13.04,5.5C14.25,5.5,14.49,5.75,14.49,6.95L14.49,11.5L17.49,11.5L17.49,11.45C17.49,10.25,17.74,10,18.94,10L19.04,10C20.24,10,20.48,10.25,20.48,11.45L20.48,11.5L21.29,11.5C21.74,11.5,21.98,11.75,21.98,12.2Z"/></svg>