<svg xmlns="http://www.w3.org/2000/svg" viewBox="0 0 24 24"><path d="M20.07,22L19.94,22C18.34,22,18.01,21.67,18.01,20.07L18.01,14L22.01,14L22.01,20.07C22.01,21.67,21.68,22,20.08,22Z" fill="currentColor"/><path d="M3.94,22C2.34,22,2.01,21.67,2.01,20.07L2.01,19.94C2.01,18.34,2.34,18.01,3.94,18.01L4.07,18.01C5.67,18.01,6,18.34,6,19.94L6,20.07C6,21.67,5.67,22,4.07,22Z" fill="currentColor"/><path d="M12.07,22L11.94,22C10.34,22,10.01,21.67,10.01,20.07L10.01,14L14.01,14L14.01,20.07C14.01,21.67,13.68,22,12.08,22Z" fill="currentColor"/><path d="M24,10.93L24,11.06C24,11.66,23.67,11.99,23.07,11.99L22,11.99L18,11.99L14,11.99L10,11.99L0.93,11.99C0.33,11.99,0,11.66,0,11.06L0,10.93C0,10.33,0.33,10,0.93,10L10,10L10,3.93C10,2.33,10.33,2,11.93,2L12.06,2C13.66,2,13.99,2.33,13.99,3.93L13.99,10L17.99,10L17.99,9.93C17.99,8.33,18.32,8,19.92,8L20.05,8C21.65,8,21.98,8.33,21.98,9.93L21.98,10L23.05,10C23.65,10,23.98,10.33,23.98,10.93Z" fill="currentColor"/></svg>