<svg xmlns="http://www.w3.org/2000/svg" viewBox="0 0 24 24" fill="currentColor"><path d="M12.96,20.52C11.75,20.52,11.51,20.28,11.51,19.08L11.51,17.45C11.51,16.25,11.75,16,12.96,16L13.05,16C14.25,16,14.5,16.25,14.5,17.45L14.5,19.08C14.5,20.28,14.25,20.52,13.05,20.52ZM6.96,20.52C5.75,20.52,5.51,20.28,5.51,19.08L5.51,17.45C5.51,16.25,5.76,16,6.96,16L7.05,16C8.25,16,8.5,16.25,8.5,17.45L8.5,19.08C8.5,20.28,8.25,20.52,7.05,20.52ZM18.96,20.52C17.75,20.52,17.51,20.28,17.51,19.08L17.51,17.45C17.51,16.25,17.75,16,18.96,16L19.05,16C20.25,16,20.5,16.25,20.5,17.45L20.5,19.08C20.5,20.28,20.25,20.52,19.05,20.52ZM10.95,12.9C10.4,13.45,10,13.48,9.45,12.92L9.32,12.8C8.78,12.25,8.8,11.84,9.35,11.3L11.39,9.25L9.35,7.2C8.8,6.65,8.8,6.25,9.35,5.7L9.45,5.6C9.99,5.06,10.4,5.06,10.95,5.6L12.99,7.65L15.04,5.6C15.59,5.06,15.99,5.03,16.54,5.58L16.67,5.71C17.21,6.26,17.19,6.66,16.64,7.21L14.6,9.26L16.64,11.3C17.19,11.85,17.19,12.26,16.64,12.8L16.55,12.9C16,13.45,15.6,13.45,15.05,12.9L13,10.85Z"/></svg>