<svg xmlns="http://www.w3.org/2000/svg" viewBox="0 0 24 24"><path d="M11.94,22.03C10.34,22.03,10.01,21.7,10.01,20.1L10.01,17.93C10.01,16.33,10.34,16,11.94,16L12.07,16C13.67,16,14,16.33,14,17.93L14,20.1C14,21.7,13.67,22.03,12.07,22.03Z" fill="currentColor"/><path d="M3.94,22.03C2.34,22.03,2.01,21.7,2.01,20.1L2.01,17.93C2.01,16.33,2.34,16,3.94,16L4.07,16C5.67,16,6,16.33,6,17.93L6,20.1C6,21.7,5.67,22.03,4.07,22.03Z" fill="currentColor"/><path d="M19.94,22.03C18.34,22.03,18.01,21.7,18.01,20.1L18.01,17.93C18.01,16.33,18.34,16,19.94,16L20.07,16C21.67,16,22,16.33,22,17.93L22,20.1C22,21.7,21.67,22.03,20.07,22.03Z" fill="currentColor"/><path d="M9.27,11.87C8.54,12.6,8,12.64,7.27,11.9L7.1,11.73C6.37,11,6.4,10.46,7.13,9.73L9.86,7L7.13,4.27C6.4,3.54,6.4,3,7.13,2.27L7.26,2.14C7.99,1.41,8.53,1.41,9.26,2.14L11.99,4.87L14.72,2.14C15.45,1.41,15.99,1.37,16.72,2.11L16.89,2.28C17.62,3.01,17.59,3.55,16.86,4.28L14.13,7.01L16.86,9.74C17.59,10.47,17.59,11.01,16.86,11.74L16.73,11.87C16,12.6,15.46,12.6,14.73,11.87L12,9.14Z" fill="currentColor"/></svg>