<svg xmlns="http://www.w3.org/2000/svg" viewBox="0 0 24 24"><path d="M15,20L20,20L20,4L4,4L4,9L2,9L2,4.67C2,2.67,2.67,2,4.67,2L19.34,2C21.34,2,22.01,2.67,22.01,4.67L22.01,19.34C22.01,21.34,21.34,22.01,19.34,22.01L15.01,22.01Z" fill="currentColor"/><path d="M13,13.67L13,23.07C13,23.67,12.67,24,12.07,24L11.94,24C11.34,24,11.01,23.67,11.01,23.07L11.01,22L4.68,22C2.68,22,2.01,21.33,2.01,19.33L2.01,13L0.94,13C0.34,13,0.01,12.67,0.01,12.07L0.01,11.94C0.01,11.34,0.34,11.01,0.94,11.01L10.34,11.01C12.34,11.01,13.01,11.68,13.01,13.68Z" fill="currentColor"/></svg>