<svg xmlns="http://www.w3.org/2000/svg" viewBox="0 0 24 24" fill="currentColor"><path d="M5.8,20.5C4.3,20.5,4,20.2,4,18.7L4,11.8C4,10.3,4.3,10,5.8,10L5.95,10C7.45,10,7.75,10.3,7.75,11.8L7.75,18.7C7.75,20.2,7.45,20.5,5.95,20.5ZM9.63,9.55C9.63,8.05,9.93,7.75,11.43,7.75L11.57,7.75C13.08,7.75,13.38,8.05,13.38,9.55L13.38,11.82C12.55,13.02,11.85,14.58,11.85,16.17C11.85,17.08,12.04,17.91,12.32,18.63C11.52,19.07,11.04,19.73,10.84,20.47C9.84,20.38,9.63,19.98,9.63,18.69ZM15.25,7.3C15.25,5.8,15.55,5.5,17.05,5.5L17.2,5.5C18.7,5.5,19,5.8,19,7.3L19,8.86C18.45,8.16,17.63,7.7,16.75,7.7C16.21,7.7,15.69,7.87,15.25,8.16ZM12.25,21.2C12.25,20.25,13.1,19.62,14.52,19.6C13.87,18.65,13.35,17.6,13.35,16.17C13.35,13.6,15.5,11.6,15.5,11.6C15.35,10.98,15.35,10.85,15.35,10.7C15.35,9.85,15.97,9.2,16.75,9.2C17.52,9.2,18.15,9.85,18.15,10.7C18.15,10.95,18.13,11.4,17.78,11.82C16.75,13,16,14.65,15.88,16.6L17.21,16.6C17.3,14.97,17.81,13.62,18.69,12.55C19.31,13,20.16,14.55,20.16,16.17C20.16,17.65,19.69,18.7,19.02,19.6C20.42,19.65,21.27,20.25,21.27,21.2L21.27,22L12.27,22Z"/></svg>