<svg xmlns="http://www.w3.org/2000/svg" viewBox="0 0 24 24" fill="currentColor"><path d="M11.67,11.46C11.24,8.5,10.64,7.75,9.55,7.75C8.28,7.75,7.75,8.7,7.75,11.47ZM22,12.25C22,12.27,22,12.28,22,12.3ZM22,12.25C22,12.7,21.7,12.95,21.15,12.95L20.5,12.95L4.85,12.97C4.76,12.97,4.67,12.98,4.6,12.99C4.22,12.95,4.01,12.66,4,12.17C4,12.17,4,12.17,4,12.17C4,12.16,4,12.16,4,12.15C4.01,11.72,4.31,11.48,4.85,11.48L5.5,11.48C5.51,7.82,6.63,5.5,9.55,5.5C12.17,5.5,13.34,7.34,13.94,11.46L18.25,11.46L18.25,8.07C18.25,7.3,18.55,7,19.32,7L19.42,7C20.19,7,20.49,7.3,20.49,8.07L20.49,11.45L21.29,11.45C21.73,11.45,21.98,11.73,21.99,12.25ZM5.5,14.5L7.75,14.49L7.75,17.93C7.75,18.7,7.45,19,6.68,19L6.58,19C5.81,19,5.51,18.7,5.51,17.93ZM14.33,14.47C14.76,17.45,15.38,18.25,16.46,18.25C17.73,18.25,18.23,17.34,18.26,14.46L20.51,14.45C20.47,18.21,19.41,20.5,16.46,20.5C13.85,20.5,12.66,18.65,12.05,14.48Z"/></svg>