<svg xmlns="http://www.w3.org/2000/svg" viewBox="0 0 24 24"><path d="M7.8,12.13C7.1,4.86,7.1,4.66,6.67,4.66C6.24,4.66,6.2,4.83,5.44,9.59C4.64,14.22,4.07,14.99,1.44,14.99L1.44,14.99C0.41,14.99,0.01,14.59,0.01,13.56L0.01,13.43C0.01,12.4,0.41,12,1.44,12L1.44,12C2.17,12,2.14,12.03,2.64,9.1C3.61,2.73,4.17,1.67,6.67,1.67C9.34,1.67,9.9,3.14,10.7,11.84C11.37,18.17,11.57,19.34,12,19.34C12.43,19.34,12.73,18.34,13.3,12.84C14.03,4.97,14.6,3.67,17.33,3.67C20,3.67,20.56,4.6,21.46,10.47C21.69,12.04,21.83,12,22.56,12L22.56,12C23.59,12,23.99,12.4,23.99,13.43L23.99,13.56C23.99,14.59,23.59,14.99,22.56,14.99L22.56,14.99C19.76,14.99,19.19,14.36,18.56,10.59C17.93,6.76,17.76,6.66,17.33,6.66C16.9,6.66,16.8,6.83,16.2,13.13C15.33,20.93,14.67,22.33,12,22.33C9.33,22.33,8.73,20.76,7.8,12.13Z" fill="currentColor"/></svg>