<svg xmlns="http://www.w3.org/2000/svg" viewBox="0 0 24 24"><path d="M2.4,22C0.4,22,0,21.6,0,19.6L0,10.4C0,8.4,0.4,8,2.4,8L2.6,8C4.6,8,5,8.4,5,10.4L5,19.6C5,21.6,4.6,22,2.6,22Z" fill="currentColor"/><path d="M7.5,7.4C7.5,5.4,7.9,5,9.9,5L10.1,5C12.1,5,12.5,5.4,12.5,7.4L12.5,8.21C12.1,8.64,11.47,9.66,11.42,9.83C10.97,11,10.97,11.19,10.74,11.51L9.43,13.36C8.67,14.46,8.84,16.43,9.78,17.27C10.49,17.89,11.54,18.27,12.5,18.34L12.5,18.58C12.36,18.82,12.25,19.07,12.15,19.32C10.81,19.89,9.96,20.92,9.65,22.01C7.87,21.97,7.51,21.52,7.51,19.61Z" fill="currentColor"/><path d="M15,4.4C15,2.4,15.4,2,17.4,2L17.6,2C19.6,2,20,2.4,20,4.4L20,7.55C19.27,7.21,18.51,6.98,17.77,6.86L16.48,5.54C15.92,5.33,15.43,5.29,15,5.37Z" fill="currentColor"/><path d="M11.1,15.77C10.77,15.47,10.77,14.94,11.07,14.5L12.37,12.67C12.97,11.84,12.97,11.37,13.3,10.5C13.37,10.3,13.5,9.93,13.93,9.6C14.33,9.23,14.63,8.97,14.8,8.53L14.93,7.8C15,7.53,15.2,7.33,15.43,7.33L16.83,8.76C19.66,8.93,22.8,10.99,22.8,15.63C22.8,17,21.9,19.46,21.63,20.9C23.13,21.13,24,21.83,24,22.97L24,24L11.5,24L11.5,22.97C11.5,21.84,12.33,21.14,13.8,20.9C13.83,17.13,17.7,16.4,17.7,14.57C17.7,14,17.37,13.54,17.23,13.37L16.8,13.87C16.4,14.3,15.63,15.07,14.77,15.07C13.64,15.1,13.6,15.9,13.1,16.4C12.97,16.5,11.6,16.2,11.1,15.77Z" fill="currentColor"/></svg>