<svg xmlns="http://www.w3.org/2000/svg" viewBox="0 0 24 24" fill="currentColor"><path d="M5.8,20.5C4.3,20.5,4,20.2,4,18.7L4,11.8C4,10.3,4.3,10,5.8,10L5.95,10C7.45,10,7.75,10.3,7.75,11.8L7.75,18.7C7.75,20.2,7.45,20.5,5.95,20.5ZM9.63,9.55C9.63,8.05,9.93,7.75,11.43,7.75L11.57,7.75C13.08,7.75,13.38,8.05,13.38,9.55L13.38,10.16C13.08,10.48,12.6,11.25,12.56,11.37C12.23,12.25,12.23,12.39,12.05,12.63L11.07,14.02C10.5,14.85,10.63,16.32,11.33,16.95C11.87,17.42,12.65,17.7,13.38,17.76L13.38,17.94C13.27,18.12,13.19,18.3,13.11,18.49C12.11,18.92,11.47,19.69,11.24,20.51C9.9,20.48,9.63,20.14,9.63,18.71ZM15.25,7.3C15.25,5.8,15.55,5.5,17.05,5.5L17.2,5.5C18.7,5.5,19,5.8,19,7.3L19,9.66C18.45,9.41,17.88,9.23,17.33,9.15L16.36,8.16C15.94,8,15.57,7.97,15.25,8.03ZM13.28,13.5C13.73,12.88,13.73,12.53,13.98,11.88C14.03,11.73,14.13,11.45,14.45,11.2C14.75,10.92,14.97,10.73,15.1,10.4L15.2,9.85C15.25,9.65,15.4,9.5,15.57,9.5L16.62,10.57C18.74,10.7,21.1,12.24,21.1,15.72C21.1,16.75,20.42,18.59,20.22,19.67C21.35,19.85,22,20.37,22,21.23L22,22L12.62,22L12.62,21.23C12.62,20.38,13.25,19.86,14.35,19.67C14.37,16.85,17.27,16.3,17.27,14.93C17.27,14.5,17.03,14.15,16.92,14.03L16.6,14.4C16.3,14.73,15.72,15.3,15.08,15.3C14.23,15.33,14.2,15.92,13.82,16.3C13.73,16.38,12.7,16.15,12.33,15.83C12.08,15.6,12.08,15.21,12.3,14.88Z"/></svg>