<svg xmlns="http://www.w3.org/2000/svg" viewBox="0 0 24 24"><path d="M16.17,19.43C13.04,21.93,10.9,22,7.64,19.66C5.57,18.19,3.51,16.89,1.44,16.46C0.41,16.33,0.01,15.89,0.01,14.86L0.01,6.39C0.01,5.36,0.41,4.92,1.44,4.82C4.24,4.25,5.54,2.32,7.21,2.32C8.08,2.32,9.08,2.49,10.54,2.75L7.04,5.88C2.97,9.55,8.04,14.51,11.61,11.38L14.34,8.98L20.71,15.81Z" fill="currentColor"/><path d="M24,6.4L24,14.97C24,16,23.73,16.1,23.03,15.37L15.4,7.24C14.7,6.51,14.13,6.47,13.37,7.17L10.2,10C8.83,11.23,6.2,9.33,8.43,7.33L11.36,4.7C13.09,3.17,14.69,2.57,15.66,2.57C18.23,2.57,20.13,4.27,22.56,4.8C23.59,4.93,23.99,5.37,23.99,6.4Z" fill="currentColor"/></svg>