<svg xmlns="http://www.w3.org/2000/svg" viewBox="0 0 24 24"><path d="M7.27,4.57C7.87,4.3,8.4,4.17,8.97,4.17L9.4,5.97L10.73,5.97L10.96,3.9C10.96,3.9,11.53,3.8,12.03,3.8C12.53,3.8,13.1,3.9,13.1,3.9L13.3,5.97L14.67,5.97L15.1,4.17C15.67,4.17,16.2,4.3,16.8,4.57L16.63,7.7C16.6,8.07,16.5,8.44,16.31,8.79C14.48,8.68,12.57,10.2,13.16,12.49L14.49,17.89C14.7,18.71,15.01,19.42,15.41,20L8.6,20C8.99,19.41,9.3,18.71,9.51,17.89L10.84,12.49C11.42,10.23,9.57,8.71,7.75,8.79C7.56,8.44,7.46,8.08,7.43,7.71Z" fill="currentColor"/><path d="M19.8,20.27C17.9,20.27,16.9,19.24,16.43,17.4L15.1,12C14.77,10.7,16.53,10.13,17.07,11.5L17.8,13.53C18.23,14.66,20.17,14.46,20.23,13.2C20.33,10.43,20.06,10.7,18.93,6.57C18.53,5.2,20.3,4.74,20.93,6.1C23.66,11.73,24.66,11.53,23.53,17.03C23.1,19.1,21.96,20.26,19.8,20.26Z" fill="currentColor"/><path d="M4.2,20.27C2.03,20.27,0.9,19.1,0.47,17.04C-0.66,11.54,0.34,11.74,3.07,6.11C3.7,4.74,5.47,5.21,5.07,6.58C3.94,10.71,3.67,10.45,3.77,13.21C3.84,14.48,5.77,14.68,6.2,13.54L6.93,11.51C7.46,10.14,9.23,10.71,8.9,12.01L7.57,17.41C7.1,19.24,6.14,20.28,4.2,20.28Z" fill="currentColor"/></svg>