<svg xmlns="http://www.w3.org/2000/svg" viewBox="0 0 24 24"><path d="M20.1,6.93L20.77,13.36C21.04,15.83,20.34,16.86,17.9,17.39L11,18.99L11,22.56C11,23.59,10.6,23.99,9.57,23.99L9.44,23.99C8.41,23.99,8.01,23.59,8.01,22.56L8.01,14.66C8.01,13.09,7.18,12.53,5.71,13.59L3.71,15.06C2.44,15.99,1.68,15.89,0.71,14.63L0.64,14.56L7.14,7.06C7.81,6.29,8.54,5.99,9.81,5.99L19.08,5.99C19.68,5.99,20.05,6.32,20.11,6.92Z" fill="currentColor"/><path d="M20.06,0C21.66,0,21.99,0.33,21.99,1.93L21.99,2.06C21.99,3.66,21.66,3.99,20.06,3.99L9.43,3.99C8.4,3.99,8,3.52,8,2.26L8,1.73C8,0.46,8.4,0,9.43,0Z" fill="currentColor"/></svg>