<svg xmlns="http://www.w3.org/2000/svg" viewBox="0 0 24 24" fill="currentColor"><path d="M12.83,4.22L19.92,9.14C20.3,9.39,20.5,9.8,20.5,10.25L20.5,16.55C20.5,17,20.27,17.35,19.85,17.52L18.63,18.03C16.9,18.75,15.7,19,13.83,19L7.7,19C7.25,19,7,18.75,7,18.3L7,18.21C7,17.76,7.25,17.51,7.7,17.51L10.55,17.51C11,17.51,11.25,17.26,11.25,16.81L11.25,16.96C11.25,16.51,11,16.26,10.55,16.26L5.45,16.26C5,16.26,4.75,16.02,4.75,15.57L4.75,15.47C4.75,15.02,5,14.77,5.45,14.77L10.55,14.77C11,14.77,11.25,14.52,11.25,14.07L11.25,14.22C11.25,13.77,11,13.53,10.55,13.53L4.7,13.53C4.25,13.53,4,13.28,4,12.83L4,12.73C4,12.28,4.25,12.03,4.7,12.03L10.55,12.03C11,12.03,11.25,11.79,11.25,11.34L11.25,11.49C11.25,11.04,11,10.79,10.55,10.79L6.2,10.79C5.75,10.79,5.5,10.54,5.5,10.09L5.5,9.99C5.5,9.54,5.75,9.3,6.2,9.3L13.25,9.3C14.43,9.3,14.82,8.57,13.92,7.7L12.93,6.7C11.88,5.68,11.85,5.07,12.83,4.28Z"/></svg>