<svg xmlns="http://www.w3.org/2000/svg" viewBox="0 0 24 24"><path d="M16,20C18.52,20,18.52,20,21.18,12.46C21.84,10.62,21.5,10,19.7,10L14.77,10C12.84,10,11.75,8.45,12.38,6.69C13.3,3.78,13.25,2.47,10.63,2.1C10.55,3.35,10.3,4.47,9.55,6.33C8.5,8.74,6.56,9.99,3.97,9.99L4,17.89C9.61,18.24,12.61,19.99,16,19.99Z" fill="currentColor"/><path d="M2,19.83L2,8L3.97,8C5.97,8,6.9,7.4,7.7,5.57C8.67,3.17,8.67,2.4,8.67,0C15.07,0,15.6,3.13,14.27,7.33C14.1,7.8,14.24,8,14.77,8L19.7,8C22.97,8,24.07,10.33,23.07,13.13C20.04,21.73,19.57,22,16,22C11.63,22,8.33,19.83,2,19.83Z" fill="currentColor"/></svg>