<svg xmlns="http://www.w3.org/2000/svg" viewBox="0 0 24 24" fill="currentColor"><path d="M16.55,20.5L10.25,20.5C9.8,20.5,9.4,20.3,9.14,19.92L4.22,12.83C5.01,11.85,5.63,11.88,6.65,12.93L7.64,13.92C8.52,14.82,9.24,14.43,9.24,13.25L9.24,6.2C9.24,5.75,9.49,5.5,9.94,5.5L10.04,5.5C10.49,5.5,10.73,5.75,10.73,6.2L10.73,10.55C10.73,11,10.98,11.25,11.43,11.25L11.28,11.25C11.73,11.25,11.98,11,11.98,10.55L11.98,4.7C11.98,4.25,12.23,4,12.68,4L12.77,4C13.23,4,13.47,4.25,13.47,4.7L13.47,10.55C13.47,11,13.72,11.25,14.17,11.25L14.02,11.25C14.47,11.25,14.72,11,14.72,10.55L14.72,5.45C14.72,5,14.96,4.75,15.41,4.75L15.51,4.75C15.96,4.75,16.21,5,16.21,5.45L16.21,10.55C16.21,11,16.46,11.25,16.91,11.25L16.76,11.25C17.21,11.25,17.45,11,17.45,10.55L17.45,7.7C17.45,7.25,17.7,7,18.15,7L18.25,7C18.7,7,18.95,7.25,18.95,7.7L18.95,13.83C18.95,15.7,18.7,16.9,17.97,18.63L17.47,19.85C17.3,20.27,16.94,20.5,16.49,20.5Z"/></svg>