<svg xmlns="http://www.w3.org/2000/svg" viewBox="0 0 24 24"><path d="M17.4,17.9C16.87,20.33,15.83,21.03,13.37,20.77L6.94,20.1C6.34,20.03,6.01,19.67,6.01,19.07L6.01,9.8C6.01,8.53,6.31,7.8,7.08,7.13L14.58,0.63L14.65,0.7C15.92,1.67,16.02,2.43,15.08,3.7L13.61,5.7C12.54,7.17,13.11,8,14.68,8L22.58,8C23.61,8,24.01,8.4,24.01,9.43L24.01,9.56C24.01,10.59,23.61,10.99,22.58,10.99L19.01,10.99Z" fill="currentColor"/><path d="M1.94,22C0.34,22,0.01,21.67,0.01,20.07L0.01,9.44C0.01,8.41,0.48,8.01,1.74,8.01L2.27,8.01C3.54,8.01,4,8.41,4,9.44L4,20.07C4,21.67,3.67,22,2.07,22Z" fill="currentColor"/></svg>