<svg xmlns="http://www.w3.org/2000/svg" viewBox="0 0 24 24" fill="currentColor"><path d="M17.05,17.42C16.65,19.25,15.87,19.77,14.03,19.58L9.2,19.07C8.75,19.02,8.51,18.75,8.51,18.3L8.51,11.35C8.51,10.4,8.73,9.85,9.31,9.35L14.93,4.47L14.99,4.52C15.94,5.25,16.02,5.82,15.31,6.77L14.21,8.27C13.4,9.38,13.83,10,15.01,10L20.93,10C21.71,10,22.01,10.3,22.01,11.07L22.01,11.17C22.01,11.94,21.71,12.24,20.93,12.24L18.26,12.24ZM5.46,20.5C4.25,20.5,4.01,20.25,4.01,19.05L4.01,11.08C4.01,10.31,4.36,10.01,5.3,10.01L5.7,10.01C6.66,10.01,7,10.31,7,11.08L7,19.05C7,20.25,6.75,20.5,5.55,20.5Z"/></svg>