<svg xmlns="http://www.w3.org/2000/svg" viewBox="0 0 24 24" fill="currentColor"><path d="M20.85,13L19.86,17.27C19.35,19.32,18.5,19.92,16.43,19.7L11.27,19.15C10.35,19.05,10,18.7,10,17.93L10,11.3C10,10.35,10.25,9.83,10.88,9.36L12.9,7.86C13.8,7.18,14.46,6.28,14.48,5.36L14.5,4.01L14.82,4.01C16.5,4.01,16.68,5.21,16.68,6.01C16.68,7.19,16.25,7.86,15.98,8.73C15.85,9.66,16.11,10.01,16.88,10.01L19.15,10.01C20.73,10.01,21.33,10.96,20.85,13.01ZM8.5,11.07L8.5,18.5C8.5,20,7.9,20.5,6.1,20.5L5.3,20.5C4.34,20.5,4,20.2,4,19.43L4,11.08C4,10.31,4.35,10.01,5.3,10.01L7.2,10.01C8.15,10.01,8.49,10.31,8.49,11.08Z"/></svg>