<svg xmlns="http://www.w3.org/2000/svg" viewBox="0 0 24 24" fill="currentColor"><path d="M5.5,16.55L5.5,10.25C5.5,9.8,5.7,9.4,6.08,9.14L13.17,4.22C14.15,5.01,14.12,5.63,13.08,6.65L12.08,7.64C11.18,8.52,11.58,9.24,12.75,9.24L19.8,9.24C20.25,9.24,20.5,9.49,20.5,9.94L20.5,10.04C20.5,10.49,20.25,10.73,19.8,10.73L15.45,10.73C15,10.73,14.75,10.98,14.75,11.43L14.75,11.28C14.75,11.73,15,11.98,15.45,11.98L21.3,11.98C21.75,11.98,22,12.23,22,12.68L22,12.77C22,13.23,21.75,13.47,21.3,13.47L15.45,13.47C15,13.47,14.75,13.72,14.75,14.17L14.75,14.02C14.75,14.47,15,14.72,15.45,14.72L20.55,14.72C21,14.72,21.25,14.96,21.25,15.41L21.25,15.51C21.25,15.96,21,16.21,20.55,16.21L15.45,16.21C15,16.21,14.75,16.46,14.75,16.91L14.75,16.76C14.75,17.21,15,17.45,15.45,17.45L18.3,17.45C18.75,17.45,19,17.7,19,18.15L19,18.25C19,18.7,18.75,18.95,18.3,18.95L12.18,18.95C10.3,18.95,9.1,18.7,7.38,17.97L6.15,17.47C5.72,17.3,5.5,16.94,5.5,16.49Z"/></svg>