<svg xmlns="http://www.w3.org/2000/svg" viewBox="0 0 24 24" fill="currentColor"><path d="M4,5.3C4,4.85,4.25,4.55,4.68,4.46L4.65,4.46C6.13,4.1,7.11,4.01,8.61,4.01L8.88,4.01C10.38,4.01,11.11,4.46,11.79,5.81L12.76,7.76L16.46,7.76C17.13,7.76,17.51,8.13,17.51,8.81L17.51,8.96C17.51,9.63,17.13,10.01,16.46,10.01L9.5,10.01C9.96,10.71,10.13,11.61,10.2,12.54C10.25,13.88,9.75,14.33,8.25,14.33L8.27,14.33L8.22,13.83C8.09,12.33,7.6,11.6,6.27,10.93L4.62,10.1C4.22,9.9,4,9.53,4,9.08ZM22,20.7C22,21.15,21.75,21.45,21.33,21.54L21.35,21.54C19.87,21.89,18.9,21.99,17.4,21.99L17.12,21.99C15.62,21.99,14.89,21.54,14.21,20.19L13.24,18.24L9.54,18.24C8.87,18.24,8.49,17.87,8.49,17.19L8.49,17.04C8.49,16.37,8.87,15.99,9.54,15.99L16.5,15.99C16.04,15.3,15.87,14.4,15.8,13.47C15.75,12.12,16.25,11.67,17.75,11.67L17.73,11.67L17.78,12.17C17.91,13.67,18.4,14.4,19.73,15.07L21.38,15.9C21.78,16.1,22,16.47,22,16.92Z"/></svg>