<svg xmlns="http://www.w3.org/2000/svg" viewBox="0 0 24 24"><path d="M16.73,22L8.33,22C7.73,22,7.2,21.73,6.86,21.23L0.3,11.77C1.35,10.47,2.17,10.51,3.53,11.9L4.86,13.23C6.03,14.43,6.99,13.9,6.99,12.33L6.99,2.93C6.99,2.33,7.32,2,7.92,2L8.05,2C8.65,2,8.98,2.33,8.98,2.93L8.98,8.73C8.98,9.33,9.31,9.66,9.91,9.66L9.71,9.66C10.31,9.66,10.64,9.33,10.64,8.73L10.64,0.93C10.64,0.33,10.97,0,11.57,0L11.7,0C12.3,0,12.63,0.33,12.63,0.93L12.63,8.73C12.63,9.33,12.96,9.66,13.56,9.66L13.36,9.66C13.96,9.66,14.29,9.33,14.29,8.73L14.29,1.93C14.29,1.33,14.62,1,15.22,1L15.35,1C15.95,1,16.28,1.33,16.28,1.93L16.28,8.73C16.28,9.33,16.61,9.66,17.21,9.66L17.01,9.66C17.61,9.66,17.94,9.33,17.94,8.73L17.94,4.93C17.94,4.33,18.27,4,18.87,4L19,4C19.6,4,19.93,4.33,19.93,4.93L19.93,13.1C19.93,15.6,19.6,17.2,18.63,19.5L17.96,21.13C17.73,21.7,17.26,22,16.66,22Z" fill="currentColor"/></svg>