<svg xmlns="http://www.w3.org/2000/svg" viewBox="0 0 24 24"><path d="M9.67,10.4L10.67,14.73C10.9,15.63,10.57,16,9.54,16L5.91,16C4.88,16,4.41,15.6,4.18,14.6L3.85,12.93C3.38,10.73,3.95,9.86,6.18,9.53L7.95,9.23C8.95,9.06,9.45,9.4,9.68,10.4Z" fill="currentColor"/><path d="M18.27,3.8L16.8,9.63L15.27,3.5L15.34,3.1C15.57,2.1,16.07,1.8,17.07,2.03L17.24,2.06C18.24,2.29,18.54,2.79,18.27,3.79Z" fill="currentColor"/><path d="M10.23,3.77C9.96,2.77,10.26,2.27,11.26,2.04L11.36,2.04C12.36,1.81,12.86,2.11,13.13,3.11L14.56,8.44L11.39,8.44Z" fill="currentColor"/><path d="M18.3,13.73L13.5,13.5C12.47,13.47,12.07,13.03,12.07,12L12.07,11.87C12.07,10.84,12.47,10.44,13.5,10.44L17.8,10.44C22.73,10.44,22.03,14.27,20.93,16.57L18.66,21.17C18.39,21.7,17.93,22,17.33,22L6.93,22C6.33,22,5.9,21.67,5.73,21.1L5.26,19.43C4.96,18.46,5.26,18.06,6.29,18.06L10.72,18.06C14.72,18.06,13.95,14.46,18.29,13.73Z" fill="currentColor"/></svg>