<svg xmlns="http://www.w3.org/2000/svg" viewBox="0 0 24 24" fill="currentColor"><path d="M16.8,19.08L11.98,19.58C10.13,19.78,9.36,19.26,8.96,17.43L7.76,12.25L5.08,12.25C4.31,12.25,4.01,11.95,4.01,11.18L4.01,11.08C4.01,10.31,4.31,10.01,5.08,10.01L11,10.01C12.18,10.01,12.6,9.39,11.81,8.28L10.71,6.78C10.01,5.83,10.08,5.26,11.03,4.53L11.08,4.48L16.7,9.36C17.28,9.86,17.51,10.41,17.51,11.36L17.51,18.31C17.51,18.76,17.26,19.04,16.81,19.08ZM22,19.05C22,20.25,21.75,20.49,20.55,20.49L20.46,20.49C19.25,20.49,19.01,20.25,19.01,19.05L19.01,11.07C19.01,10.3,19.36,10,20.3,10L20.7,10C21.66,10,22,10.3,22,11.07Z"/></svg>