<svg xmlns="http://www.w3.org/2000/svg" viewBox="0 0 24 24"><path d="M20.77,10.6C20.84,10.23,20.64,10,20.24,10L17.41,10C16.14,10,15.18,9,15.18,7.83C15.18,6.13,16.05,5.2,15.98,3.66C15.95,2.59,15.18,1.79,14.01,1.99L14.01,3.12C14.01,4.42,13.11,5.85,12.14,6.65L8.14,9.85C8.07,9.95,7.94,9.98,7.81,9.98L2.14,9.98C2.01,9.98,2.01,9.98,2.01,10.11L2.01,19.84C2.01,19.97,2.01,19.97,2.14,19.97L4.57,19.97C5.74,19.97,6,19.64,6,17.97L16.33,19.04C18.33,19.24,19.13,18.64,19.53,16.71Z" fill="currentColor"/><path d="M22.73,10.98L21.49,17.14C20.9,20.02,19.11,21.36,16.13,21.06L7.61,20.18C7.08,21.4,6.03,22,4.57,22L2.14,22C1.04,22,0.01,20.97,0.01,19.87L0.01,10.14C0.01,9.04,1.04,8.01,2.14,8.01L7.81,8.01C7.7,8.01,6.41,8.87,6.69,8.54L10.88,5.12C11.59,4.54,12.01,3.86,12.01,3.14L12.01,0.32C16.22,-0.4,17.9,1.14,17.98,3.6C18.05,5.12,17.18,6.93,17.18,7.84C17.18,8.01,17.18,8.01,17.41,8.01L20.24,8.01C22.04,8.01,23.06,9.22,22.74,10.99Z" fill="currentColor"/><path d="M8,8.33L8,19L6,19L6,8.33Z" fill="currentColor"/></svg>