<svg xmlns="http://www.w3.org/2000/svg" viewBox="0 0 24 24"><path d="M20.6,10.37L11.6,12.77C9.83,13.24,8.73,11.27,10.27,10.34L13.3,8.47C14.2,7.94,14.23,7.47,13.47,6.77L14.27,7.47C12.8,6.14,11.67,5.8,9.7,6.27L6.03,7.1L4.06,9.2C3.66,9.67,3.13,9.77,2.59,9.5L2.39,9.43C1.86,9.16,1.76,8.76,2.09,8.26L3.59,6.06C4.16,5.23,4.76,4.73,5.69,4.29L9.16,2.76C10.99,1.93,12.26,1.76,14.23,2.09L20.6,3.09C21.6,3.26,22,3.72,22,4.76L22,8.56C22,9.59,21.6,10.09,20.6,10.36Z" fill="currentColor"/><path d="M2.9,22C2.3,22,1.97,21.67,1.97,21.07L1.97,18.37C2.74,18.64,4.8,19.57,6,20.8L6,16.4C7.7,17.13,8.93,18.37,10,19.67C10.47,18.1,11.57,16.17,13,15C13.4,15.93,13.8,17.87,14,19.67C14.57,18.64,15.7,17.57,18,16.97L18,20.8C19.27,19.73,20.9,18.87,22,18.7L22,21.07C22,21.67,21.67,22,21.07,22Z" fill="currentColor"/></svg>