<svg xmlns="http://www.w3.org/2000/svg" viewBox="0 0 24 24" fill="currentColor"><path d="M11.25,11.8L12,15.05C12.18,15.72,11.93,16,11.15,16L8.43,16C7.66,16,7.31,15.7,7.13,14.95L6.89,13.7C6.54,12.05,6.96,11.39,8.63,11.15L9.96,10.92C10.71,10.79,11.09,11.05,11.26,11.8ZM17.7,6.85L16.6,11.22L15.45,6.62L15.5,6.32C15.68,5.57,16.05,5.35,16.8,5.52L16.93,5.54C17.68,5.72,17.91,6.09,17.7,6.84ZM11.67,6.83C11.47,6.08,11.7,5.7,12.45,5.53L12.52,5.53C13.27,5.36,13.64,5.58,13.85,6.33L14.92,10.33L12.54,10.33ZM17.73,14.3L14.13,14.13C13.35,14.1,13.05,13.77,13.05,13L13.05,12.9C13.05,12.13,13.35,11.83,14.13,11.83L17.35,11.83C21.05,11.83,20.52,14.7,19.7,16.43L18,19.88C17.79,20.28,17.45,20.5,17,20.5L9.2,20.5C8.75,20.5,8.42,20.25,8.3,19.83L7.94,18.57C7.72,17.84,7.94,17.54,8.72,17.54L12.04,17.54C15.04,17.54,14.46,14.84,17.72,14.3Z"/></svg>