<svg xmlns="http://www.w3.org/2000/svg" viewBox="0 0 24 24" fill="currentColor"><path d="M16,19C17.89,19,17.89,19,19.88,13.35C20.38,11.96,20.13,11.5,18.77,11.5L15.08,11.5C13.63,11.5,12.81,10.34,13.29,9.02C13.98,6.83,13.94,5.85,11.97,5.57C11.91,6.51,11.72,7.35,11.16,8.75C10.37,10.55,8.92,11.49,6.98,11.49L7,17.42C11.21,17.68,13.46,18.99,16,18.99ZM5.5,18.87L5.5,10L6.98,10C8.48,10,9.18,9.55,9.77,8.18C10.5,6.38,10.5,5.8,10.5,4C15.3,4,15.7,6.35,14.7,9.5C14.57,9.85,14.68,10,15.08,10L18.77,10C21.23,10,22.05,11.75,21.3,13.85C19.03,20.3,18.68,20.5,16,20.5C12.72,20.5,10.25,18.87,5.5,18.87Z"/></svg>