<svg xmlns="http://www.w3.org/2000/svg" viewBox="0 0 24 24" fill="currentColor"><path d="M17.42,8.95C19.25,9.35,19.77,10.13,19.58,11.97L19.07,16.79C19.02,17.25,18.75,17.49,18.3,17.49L11.35,17.49C10.4,17.49,9.85,17.27,9.35,16.69L4.47,11.06L4.52,11.01C5.25,10.06,5.82,9.98,6.77,10.69L8.27,11.79C9.38,12.59,10,12.17,10,10.99L10,5.06C10,4.29,10.3,3.99,11.07,3.99L11.17,3.99C11.94,3.99,12.24,4.29,12.24,5.06L12.24,7.74ZM20.5,20.54C20.5,21.75,20.25,21.99,19.05,21.99L11.08,21.99C10.31,21.99,10.01,21.64,10.01,20.7L10.01,20.3C10.01,19.34,10.31,19,11.08,19L19.05,19C20.25,19,20.5,19.25,20.5,20.45Z"/></svg>