<svg xmlns="http://www.w3.org/2000/svg" viewBox="0 0 24 24"><path d="M22.47,12L21.14,17.7C20.47,20.43,19.34,21.23,16.57,20.93L9.7,20.2C8.47,20.07,8,19.6,8,18.57L8,9.74C8,8.47,8.33,7.77,9.17,7.14L11.87,5.14C13.07,4.24,13.94,3.04,13.97,1.81L14,0.01L14.43,0.01C16.66,0.01,16.9,1.61,16.9,2.68C16.9,4.25,16.33,5.15,15.97,6.31C15.8,7.54,16.14,8.01,17.17,8.01L20.2,8.01C22.3,8.01,23.1,9.28,22.47,12.01Z" fill="currentColor"/><path d="M6,9.43L6,19.33C6,21.33,5.2,22,2.8,22L1.73,22C0.46,22,0,21.6,0,20.57L0,9.44C0,8.41,0.47,8.01,1.73,8.01L4.26,8.01C5.53,8.01,5.99,8.41,5.99,9.44Z" fill="currentColor"/></svg>