<svg xmlns="http://www.w3.org/2000/svg" viewBox="0 0 24 24"><path d="M0,1.74C0,1.14,0.33,0.74,0.9,0.61L0.87,0.61C2.84,0.14,4.14,0.01,6.14,0.01L6.51,0.01C8.51,0.01,9.48,0.61,10.38,2.41L11.68,5.01L16.61,5.01C17.51,5.01,18.01,5.51,18.01,6.41L18.01,6.61C18.01,7.51,17.51,8.01,16.61,8.01L7.34,8.01C7.94,8.94,8.17,10.14,8.27,11.38C8.34,13.18,7.67,13.78,5.67,13.78L5.7,13.78L5.63,13.11C5.46,11.11,4.8,10.14,3.03,9.24L0.83,8.14C0.3,7.87,0,7.37,0,6.77Z" fill="currentColor"/><path d="M24,22.26C24,22.86,23.67,23.26,23.1,23.39L23.13,23.39C21.16,23.86,19.86,23.99,17.86,23.99L17.49,23.99C15.49,23.99,14.52,23.39,13.62,21.59L12.32,18.99L7.39,18.99C6.49,18.99,5.99,18.49,5.99,17.59L5.99,17.39C5.99,16.49,6.49,15.99,7.39,15.99L16.66,15.99C16.06,15.06,15.83,13.86,15.73,12.62C15.66,10.82,16.33,10.22,18.33,10.22L18.3,10.22L18.37,10.89C18.54,12.89,19.2,13.86,20.97,14.76L23.17,15.86C23.7,16.13,24,16.63,24,17.23Z" fill="currentColor"/></svg>