<svg xmlns="http://www.w3.org/2000/svg" viewBox="0 0 24 24"><path d="M10.97,19.13C11.8,19.7,12.3,20.73,12.3,22L2.33,22C2.33,20.73,2.83,19.7,3.7,19.13C6.03,17.7,6.1,16.13,6.1,15.6L6.1,15L4.7,15C4.53,14.7,4.47,14.33,4.47,14L6.1,12.97C5.27,12.57,4.9,11.7,4.9,10.9C4.9,9.57,6,8.5,7.33,8.5C7.99,8.5,8.6,8.78,9.04,9.22C7.01,11.11,7.96,13.85,10.14,14.36C10.11,14.58,10.05,14.8,9.93,14.99L8.53,14.99L8.56,15.59C8.59,16.12,8.63,17.69,10.96,19.12Z" fill="currentColor"/><path d="M11.6,12.77C9.9,13.24,8.7,11.3,10.3,10.34L13.3,8.51C14.2,7.94,14.23,7.48,13.47,6.78L14.27,7.48C12.8,6.15,11.67,5.81,9.7,6.28L6.03,7.11L4.06,9.21C3.66,9.68,3.13,9.78,2.59,9.51L2.42,9.44C1.89,9.17,1.79,8.77,2.12,8.27L3.59,6.1C4.16,5.23,4.76,4.73,5.69,4.3L9.16,2.77C10.99,1.94,12.26,1.77,14.23,2.1L20.6,3.1C21.6,3.27,22,3.73,22,4.77L22,8.57C22,9.6,21.6,10.1,20.6,10.37Z" fill="currentColor"/></svg>