<svg xmlns="http://www.w3.org/2000/svg" viewBox="0 0 24 24" fill="currentColor"><path d="M7.32,16.8C6.87,15.38,6.72,14.4,6.7,12.9L6.68,11.63C6.65,10.13,7.13,9.51,8.57,9.13L13.75,7.76L13.75,5.06C13.75,4.38,14.13,4.01,14.8,4.01L14.95,4.01C15.62,4.01,16,4.38,16,5.06L16,11.26C16.6,11.11,17.6,11.04,18.7,11.01C20.05,11.01,20.5,11.52,20.5,13.02L20.5,13.24L19.5,13.32C18,13.44,17.27,13.92,16.6,15.24L15.45,17.52L7.52,17.52ZM6.58,22C5.81,22,5.51,21.65,5.51,20.7L5.51,20.08C5.51,19.31,5.86,19.01,6.8,19.01L14.7,19.01C15.65,19.01,16,19.31,16,20.08L16,20.7C16,21.66,15.7,22,14.93,22Z"/></svg>