<svg xmlns="http://www.w3.org/2000/svg" viewBox="0 0 24 24"><path d="M5.17,14.78C5.38,13.59,5.8,13.01,6.37,12.63C8.7,11.2,8.77,9.63,8.77,9.1L8.77,8.5L7.37,8.5C7.2,8.2,7.14,7.83,7.14,7.5L8.77,6.47C7.94,6.07,7.57,5.2,7.57,4.4C7.57,3.07,8.67,2,10,2C11.3,2,12.4,3.07,12.4,4.4C12.4,5.2,12,5.97,11.23,6.47L12.83,7.5C12.83,7.83,12.8,8.2,12.6,8.5L11.2,8.5L11.23,9.1C11.25,9.43,11.27,10.17,11.85,11.02L11.4,10.93C7.87,10.2,6.45,14.51,9.84,15.95L11.56,16.68L6.32,16.17Z" fill="currentColor"/><path d="M20.67,21.7L13.94,22.8C11.97,23.13,10.64,22.9,8.84,22.1L5.07,20.4C4.17,20.03,3.67,19.57,3.14,18.7L1.97,16.77C1.6,16.14,1.8,15.57,2.3,15.27C2.8,14.94,3.47,15,3.9,15.6L5.57,17.6L12.04,18.23C14.51,18.5,15.07,16.53,12.71,15.53L10.44,14.56C8.71,13.83,9.34,12.03,11.11,12.39L20.68,14.36C21.65,14.56,22.01,14.96,22.01,15.96L22.01,20.16C22.01,21.13,21.64,21.53,20.68,21.69Z" fill="currentColor"/></svg>