<svg xmlns="http://www.w3.org/2000/svg" viewBox="0 0 24 24" fill="currentColor"><path d="M19.08,9.2L19.58,14.02C19.78,15.87,19.26,16.64,17.43,17.04L12.25,18.24L12.25,20.92C12.25,21.69,11.95,21.99,11.18,21.99L11.08,21.99C10.31,21.99,10.01,21.69,10.01,20.92L10.01,15C10.01,13.82,9.39,13.4,8.28,14.19L6.78,15.3C5.83,15.99,5.26,15.92,4.53,14.97L4.48,14.92L9.36,9.3C9.86,8.72,10.41,8.49,11.36,8.49L18.31,8.49C18.76,8.49,19.04,8.74,19.08,9.19ZM19.05,4C20.25,4,20.49,4.25,20.49,5.45L20.49,5.54C20.49,6.75,20.25,6.99,19.05,6.99L11.07,6.99C10.3,6.99,10,6.64,10,5.7L10,5.3C10,4.34,10.3,4,11.07,4Z"/></svg>