<svg xmlns="http://www.w3.org/2000/svg" viewBox="0 0 24 24"><path d="M8,4C5.48,4,5.48,4,2.82,11.54C2.16,13.38,2.5,14,4.3,14L9.27,14C11.17,14,12.26,15.55,11.63,17.31C10.71,20.22,10.76,21.53,13.38,21.9C13.46,20.65,13.71,19.53,14.46,17.67C15.51,15.26,17.45,14.01,20.04,14.01L20.01,6.11C14.4,5.76,11.4,4.01,8.01,4.01Z" fill="currentColor"/><path d="M8,2C12.37,2,15.67,4.17,22,4.17L22,16L20.03,16C18.03,16,17.1,16.6,16.3,18.43C15.33,20.83,15.33,21.6,15.33,24C8.93,24,8.4,20.87,9.73,16.67C9.9,16.2,9.76,16,9.26,16L4.29,16C1.02,16,-0.08,13.67,0.92,10.87C3.95,2.27,4.42,2,7.99,2Z" fill="currentColor"/></svg>