<svg xmlns="http://www.w3.org/2000/svg" viewBox="0 0 24 24" fill="currentColor"><path d="M7.88,15.09C8.04,14.19,8.35,13.76,8.78,13.47C10.52,12.4,10.58,11.22,10.58,10.83L10.58,10.38L9.53,10.38C9.4,10.15,9.35,9.87,9.35,9.63L10.58,8.85C9.96,8.55,9.68,7.9,9.68,7.3C9.68,6.3,10.5,5.5,11.5,5.5C12.48,5.5,13.3,6.3,13.3,7.3C13.3,7.9,13,8.48,12.42,8.85L13.62,9.63C13.62,9.87,13.6,10.15,13.45,10.38L12.4,10.38L12.42,10.83C12.44,11.07,12.45,11.63,12.89,12.27L12.55,12.2C9.9,11.65,8.84,14.88,11.38,15.96L12.67,16.51L8.74,16.13ZM19.5,20.27L14.46,21.1C12.98,21.35,11.98,21.18,10.63,20.58L7.8,19.3C7.13,19.02,6.75,18.68,6.36,18.03L5.48,16.58C5.2,16.11,5.35,15.68,5.73,15.45C6.1,15.21,6.6,15.25,6.93,15.7L8.18,17.2L13.03,17.67C14.88,17.88,15.3,16.4,13.53,15.65L11.83,14.92C10.53,14.37,11.01,13.02,12.33,13.29L19.51,14.77C20.24,14.92,20.51,15.22,20.51,15.97L20.51,19.12C20.51,19.85,20.23,20.15,19.51,20.27Z"/></svg>