<svg xmlns="http://www.w3.org/2000/svg" viewBox="0 0 24 24" fill="currentColor"><path d="M19.58,11.95C19.63,11.67,19.48,11.5,19.18,11.5L17.06,11.5C16.1,11.5,15.38,10.75,15.38,9.87C15.38,8.6,16.04,7.9,15.98,6.75C15.96,5.94,15.38,5.34,14.51,5.49L14.51,6.34C14.51,7.31,13.83,8.39,13.1,8.99L10.1,11.39C10.05,11.46,9.95,11.49,9.86,11.49L5.6,11.49C5.51,11.49,5.51,11.49,5.51,11.58L5.51,18.88C5.51,18.98,5.51,18.98,5.6,18.98L7.43,18.98C8.3,18.98,8.5,18.73,8.5,17.48L16.25,18.28C17.75,18.43,18.35,17.98,18.65,16.53ZM21.05,12.23L20.12,16.86C19.68,19.02,18.33,20.02,16.1,19.8L9.71,19.14C9.31,20.05,8.52,20.5,7.43,20.5L5.61,20.5C4.78,20.5,4.01,19.73,4.01,18.9L4.01,11.61C4.01,10.78,4.78,10.01,5.61,10.01L9.86,10.01C9.78,10.01,8.81,10.65,9.02,10.41L12.16,7.84C12.69,7.41,13.01,6.9,13.01,6.36L13.01,4.24C16.17,3.7,17.43,4.86,17.49,6.7C17.54,7.84,16.89,9.2,16.89,9.88C16.89,10.01,16.89,10.01,17.06,10.01L19.18,10.01C20.53,10.01,21.3,10.92,21.05,12.24ZM10,10.25L10,18.25L8.5,18.25L8.5,10.25Z"/></svg>