<svg xmlns="http://www.w3.org/2000/svg" viewBox="0 0 24 24" fill="currentColor"><path d="M6.42,14.05C6.37,14.33,6.52,14.5,6.82,14.5L8.94,14.5C9.89,14.5,10.62,15.25,10.62,16.13C10.62,17.4,9.96,18.1,10.02,19.26C10.04,20.06,10.62,20.66,11.49,20.51L11.49,19.66C11.49,18.69,12.17,17.61,12.89,17.01L15.89,14.61C15.95,14.54,16.04,14.52,16.14,14.52L20.39,14.52C20.49,14.52,20.49,14.52,20.49,14.42L20.49,7.12C20.49,7.02,20.49,7.02,20.39,7.02L18.57,7.02C17.7,7.02,17.5,7.27,17.5,8.52L9.75,7.72C8.25,7.57,7.65,8.02,7.35,9.47ZM4.95,13.77L5.88,9.14C6.32,6.98,7.67,5.98,9.9,6.21L16.29,6.86C16.69,5.95,17.48,5.5,18.57,5.5L20.39,5.5C21.22,5.5,21.99,6.27,21.99,7.1L21.99,14.39C21.99,15.22,21.22,15.99,20.39,15.99L16.14,15.99C16.22,15.99,17.19,15.35,16.98,15.59L13.84,18.16C13.31,18.59,12.99,19.1,12.99,19.64L12.99,21.76C9.83,22.3,8.57,21.14,8.52,19.3C8.46,18.16,9.12,16.8,9.12,16.12C9.12,15.99,9.12,15.99,8.94,15.99L6.82,15.99C5.47,15.99,4.71,15.08,4.95,13.76ZM16,15.75L16,7.75L17.5,7.75L17.5,15.75Z"/></svg>