<svg xmlns="http://www.w3.org/2000/svg" viewBox="0 0 24 24"><path d="M3.23,13.4C3.16,13.77,3.36,14,3.76,14L6.59,14C7.86,14,8.82,15,8.82,16.17C8.82,17.87,7.95,18.8,8.02,20.34C8.05,21.41,8.82,22.21,9.99,22.01L9.99,20.88C9.99,19.58,10.89,18.15,11.86,17.35L15.86,14.15C15.93,14.05,16.06,14.02,16.19,14.02L21.86,14.02C21.99,14.02,21.99,14.02,21.99,13.89L21.99,4.16C21.99,4.03,21.99,4.03,21.86,4.03L19.43,4.03C18.26,4.03,18,4.36,18,6.03L7.67,4.96C5.67,4.76,4.87,5.36,4.47,7.29Z" fill="currentColor"/><path d="M1.27,13.02L2.51,6.86C3.1,3.98,4.89,2.64,7.87,2.94L16.39,3.82C16.92,2.6,17.97,2,19.43,2L21.86,2C22.96,2,23.99,3.03,23.99,4.13L23.99,13.86C23.99,14.96,22.96,15.99,21.86,15.99L16.19,15.99C16.3,15.99,17.59,15.13,17.31,15.46L13.12,18.88C12.41,19.46,11.99,20.14,11.99,20.86L11.99,23.68C7.78,24.4,6.1,22.86,6.02,20.4C5.95,18.88,6.82,17.07,6.82,16.16C6.82,15.99,6.82,15.99,6.59,15.99L3.76,15.99C1.96,15.99,0.94,14.78,1.26,13.01Z" fill="currentColor"/><path d="M16,15.67L16,5L18,5L18,15.67Z" fill="currentColor"/></svg>