<svg xmlns="http://www.w3.org/2000/svg" viewBox="0 0 24 24" fill="currentColor"><path d="M16.13,18.57C13.78,20.45,12.18,20.5,9.73,18.75C8.18,17.64,6.63,16.67,5.08,16.34C4.31,16.25,4.01,15.92,4.01,15.14L4.01,8.79C4.01,8.02,4.31,7.69,5.08,7.61C7.18,7.19,8.16,5.74,9.41,5.74C10.06,5.74,10.81,5.87,11.91,6.06L9.28,8.41C6.23,11.16,10.03,14.88,12.71,12.54L14.75,10.73L19.53,15.86ZM22,8.8L22,15.23C22,16,21.8,16.07,21.27,15.53L15.55,9.43C15.03,8.88,14.6,8.85,14.03,9.38L11.65,11.5C10.62,12.42,8.65,11,10.32,9.5L12.52,7.52C13.82,6.38,15.02,5.93,15.75,5.93C17.67,5.93,19.1,7.2,20.92,7.6C21.69,7.7,21.99,8.03,21.99,8.8Z"/></svg>