<svg xmlns="http://www.w3.org/2000/svg" viewBox="0 0 24 24" fill="currentColor"><path d="M19.45,11.78L12.7,13.58C11.37,13.93,10.55,12.45,11.7,11.75L13.98,10.35C14.65,9.96,14.67,9.6,14.1,9.08L14.7,9.6C13.6,8.6,12.75,8.35,11.28,8.7L8.52,9.32L7.05,10.9C6.75,11.25,6.35,11.33,5.94,11.13L5.79,11.07C5.4,10.87,5.32,10.57,5.57,10.2L6.69,8.54C7.12,7.92,7.57,7.55,8.27,7.22L10.87,6.07C12.24,5.45,13.2,5.32,14.67,5.57L19.45,6.32C20.2,6.44,20.5,6.79,20.5,7.57L20.5,10.42C20.5,11.19,20.2,11.57,19.45,11.77ZM6.17,20.5C5.72,20.5,5.48,20.25,5.48,19.8L5.48,17.78C6.05,17.98,7.6,18.68,8.5,19.6L8.5,16.3C9.77,16.85,10.7,17.78,11.5,18.75C11.85,17.57,12.68,16.13,13.75,15.25C14.05,15.95,14.35,17.4,14.5,18.75C14.93,17.98,15.77,17.18,17.5,16.73L17.5,19.6C18.45,18.8,19.67,18.15,20.5,18.03L20.5,19.8C20.5,20.25,20.25,20.5,19.8,20.5Z"/></svg>