<svg xmlns="http://www.w3.org/2000/svg" viewBox="0 0 24 24"><path d="M17.9,6.6C20.33,7.13,21.03,8.17,20.77,10.63L20.1,17.06C20.03,17.66,19.67,17.99,19.07,17.99L9.8,17.99C8.53,17.99,7.8,17.69,7.13,16.92L0.63,9.42L0.7,9.35C1.67,8.08,2.43,7.98,3.7,8.92L5.7,10.39C7.17,11.46,8,10.89,8,9.32L8,1.42C8,0.39,8.4,-0.01,9.43,-0.01L9.56,-0.01C10.59,-0.01,10.99,0.39,10.99,1.42L10.99,4.99Z" fill="currentColor"/><path d="M22,22.06C22,23.66,21.67,23.99,20.07,23.99L9.44,23.99C8.41,23.99,8.01,23.52,8.01,22.26L8.01,21.73C8.01,20.46,8.41,20,9.44,20L20.07,20C21.67,20,22,20.33,22,21.93Z" fill="currentColor"/></svg>