<svg xmlns="http://www.w3.org/2000/svg" viewBox="0 0 24 24"><path d="M4.43,17.07C3.83,15.17,3.63,13.87,3.6,11.87L3.57,10.17C3.54,8.17,4.17,7.34,6.1,6.84L13,5.01L13,1.41C13,0.51,13.5,0.01,14.4,0.01L14.6,0.01C15.5,0.01,16,0.51,16,1.41L16,9.68C16.8,9.48,18.13,9.38,19.6,9.35C21.4,9.35,22,10.02,22,12.02L22,12.32L20.67,12.42C18.67,12.59,17.7,13.22,16.8,14.99L15.27,18.02L4.7,18.02Z" fill="currentColor"/><path d="M3.44,24C2.41,24,2.01,23.53,2.01,22.27L2.01,21.44C2.01,20.41,2.48,20.01,3.74,20.01L14.27,20.01C15.54,20.01,16,20.41,16,21.44L16,22.27C16,23.54,15.6,24,14.57,24Z" fill="currentColor"/></svg>