<svg xmlns="http://www.w3.org/2000/svg" viewBox="0 0 24 24" fill="currentColor"><path d="M10,7C8.11,7,8.11,7,6.12,12.65C5.62,14.04,5.88,14.5,7.23,14.5L10.95,14.5C12.38,14.5,13.19,15.66,12.72,16.98C12.03,19.16,12.07,20.15,14.04,20.42C14.09,19.49,14.28,18.65,14.85,17.25C15.63,15.44,17.09,14.51,19.03,14.51L19.01,8.58C14.8,8.32,12.55,7.01,10.01,7.01ZM10,5.5C13.28,5.5,15.75,7.13,20.5,7.13L20.5,16L19.02,16C17.52,16,16.83,16.45,16.23,17.82C15.5,19.62,15.5,20.2,15.5,22C10.7,22,10.3,19.65,11.3,16.5C11.43,16.15,11.32,16,10.95,16L7.22,16C4.77,16,3.94,14.25,4.69,12.15C6.96,5.7,7.32,5.5,9.99,5.5Z"/></svg>