<svg xmlns="http://www.w3.org/2000/svg" viewBox="0 0 24 24"><path d="M2,16.73L2,8.33C2,7.73,2.27,7.2,2.77,6.86L12.23,0.3C13.53,1.35,13.49,2.17,12.1,3.53L10.77,4.86C9.57,6.03,10.1,6.99,11.67,6.99L21.07,6.99C21.67,6.99,22,7.32,22,7.92L22,8.05C22,8.65,21.67,8.98,21.07,8.98L15.27,8.98C14.67,8.98,14.34,9.31,14.34,9.91L14.34,9.71C14.34,10.31,14.67,10.64,15.27,10.64L23.07,10.64C23.67,10.64,24,10.97,24,11.57L24,11.7C24,12.3,23.67,12.63,23.07,12.63L15.27,12.63C14.67,12.63,14.34,12.96,14.34,13.56L14.34,13.36C14.34,13.96,14.67,14.29,15.27,14.29L22.07,14.29C22.67,14.29,23,14.62,23,15.22L23,15.35C23,15.95,22.67,16.28,22.07,16.28L15.27,16.28C14.67,16.28,14.34,16.61,14.34,17.21L14.34,17.01C14.34,17.61,14.67,17.94,15.27,17.94L19.07,17.94C19.67,17.94,20,18.27,20,18.87L20,19C20,19.6,19.67,19.93,19.07,19.93L10.9,19.93C8.4,19.93,6.8,19.6,4.5,18.63L2.87,17.96C2.3,17.73,2,17.26,2,16.66Z" fill="currentColor"/></svg>