<svg xmlns="http://www.w3.org/2000/svg" viewBox="0 0 24 24" fill="currentColor"><path d="M9.45,7.43C9.9,7.23,10.3,7.13,10.73,7.13L11.05,8.48L12.05,8.48L12.22,6.93C12.22,6.93,12.65,6.85,13.02,6.85C13.4,6.85,13.82,6.93,13.82,6.93L13.97,8.48L15,8.48L15.32,7.13C15.75,7.13,16.15,7.23,16.6,7.43L16.47,9.77C16.45,10.05,16.37,10.33,16.23,10.59C14.85,10.51,13.43,11.65,13.87,13.37L14.87,17.42C15.02,18.03,15.26,18.57,15.56,19L10.45,19C10.74,18.56,10.97,18.03,11.13,17.42L12.13,13.37C12.56,11.67,11.18,10.53,9.81,10.59C9.67,10.33,9.59,10.06,9.57,9.78ZM18.85,19.2C17.43,19.2,16.68,18.43,16.32,17.05L15.33,13C15.08,12.02,16.4,11.6,16.8,12.62L17.35,14.15C17.67,14.99,19.13,14.84,19.17,13.9C19.25,11.82,19.04,12.02,18.2,8.93C17.9,7.9,19.23,7.55,19.7,8.57C21.75,12.8,22.5,12.65,21.65,16.77C21.33,18.33,20.47,19.2,18.85,19.2ZM7.15,19.2C5.52,19.2,4.67,18.33,4.35,16.78C3.5,12.65,4.25,12.8,6.3,8.58C6.77,7.55,8.1,7.91,7.8,8.94C6.95,12.03,6.75,11.84,6.83,13.91C6.88,14.86,8.33,15.01,8.65,14.15L9.2,12.63C9.59,11.61,10.92,12.03,10.68,13.01L9.68,17.06C9.32,18.43,8.61,19.21,7.15,19.21Z"/></svg>