<svg xmlns="http://www.w3.org/2000/svg" viewBox="0 0 24 24" fill="currentColor"><path d="M12.23,18.35C12.85,18.77,13.23,19.55,13.23,20.5L5.75,20.5C5.75,19.55,6.12,18.77,6.78,18.35C8.52,17.27,8.57,16.1,8.57,15.7L8.57,15.25L7.52,15.25C7.4,15.02,7.35,14.75,7.35,14.5L8.57,13.73C7.95,13.43,7.67,12.77,7.67,12.17C7.67,11.18,8.5,10.37,9.5,10.37C9.99,10.37,10.45,10.58,10.78,10.91C9.26,12.33,9.97,14.39,11.6,14.77C11.58,14.93,11.54,15.1,11.45,15.24L10.4,15.24L10.42,15.69C10.44,16.09,10.47,17.27,12.22,18.34ZM12.7,13.58C11.43,13.93,10.53,12.47,11.73,11.75L13.98,10.38C14.65,9.96,14.67,9.61,14.1,9.08L14.7,9.61C13.6,8.61,12.75,8.36,11.28,8.71L8.52,9.33L7.05,10.91C6.75,11.26,6.35,11.33,5.94,11.13L5.82,11.08C5.42,10.88,5.34,10.58,5.59,10.2L6.69,8.57C7.12,7.92,7.57,7.55,8.27,7.22L10.87,6.08C12.24,5.45,13.2,5.33,14.67,5.57L19.45,6.32C20.2,6.45,20.5,6.8,20.5,7.58L20.5,10.43C20.5,11.2,20.2,11.57,19.45,11.78Z"/></svg>