<svg xmlns="http://www.w3.org/2000/svg" viewBox="0 0 24 24"><path d="M11.77,0.3L21.23,6.86C21.73,7.19,22,7.73,22,8.33L22,16.73C22,17.33,21.7,17.8,21.13,18.03L19.5,18.7C17.2,19.67,15.6,20,13.1,20L4.93,20C4.33,20,4,19.67,4,19.07L4,18.94C4,18.34,4.33,18.01,4.93,18.01L8.73,18.01C9.33,18.01,9.66,17.68,9.66,17.08L9.66,17.28C9.66,16.68,9.33,16.35,8.73,16.35L1.93,16.35C1.33,16.35,1,16.02,1,15.42L1,15.29C1,14.69,1.33,14.36,1.93,14.36L8.73,14.36C9.33,14.36,9.66,14.03,9.66,13.43L9.66,13.63C9.66,13.03,9.33,12.7,8.73,12.7L0.93,12.7C0.33,12.7,0,12.37,0,11.77L0,11.64C0,11.04,0.33,10.71,0.93,10.71L8.73,10.71C9.33,10.71,9.66,10.38,9.66,9.78L9.66,9.98C9.66,9.38,9.33,9.05,8.73,9.05L2.93,9.05C2.33,9.05,2,8.72,2,8.12L2,7.99C2,7.39,2.33,7.06,2.93,7.06L12.33,7.06C13.9,7.06,14.43,6.09,13.23,4.93L11.9,3.6C10.51,2.24,10.47,1.42,11.77,0.37Z" fill="currentColor"/></svg>