<svg xmlns="http://www.w3.org/2000/svg" viewBox="0 0 24 24"><path d="M17.07,20.1L10.64,20.77C8.17,21.04,7.14,20.34,6.61,17.9L5.01,11L1.44,11C0.41,11,0.01,10.6,0.01,9.57L0.01,9.44C0.01,8.41,0.41,8.01,1.44,8.01L9.34,8.01C10.91,8.01,11.47,7.18,10.41,5.71L8.94,3.71C8.01,2.44,8.11,1.68,9.37,0.71L9.44,0.64L16.94,7.14C17.71,7.81,18.01,8.54,18.01,9.81L18.01,19.08C18.01,19.68,17.68,20.05,17.08,20.11Z" fill="currentColor"/><path d="M24,20.06C24,21.66,23.67,21.99,22.07,21.99L21.94,21.99C20.34,21.99,20.01,21.66,20.01,20.06L20.01,9.43C20.01,8.4,20.48,8,21.74,8L22.27,8C23.54,8,24,8.4,24,9.43Z" fill="currentColor"/></svg>