<svg xmlns="http://www.w3.org/2000/svg" viewBox="0 0 24 24" fill="currentColor"><path d="M16.83,14L11.97,9.12C11.43,8.6,11.45,8.17,12,7.62L11.79,7.79C12.34,7.25,12.84,7.17,13.54,7.47L13.41,7.42C14.56,7.94,14.31,7.19,15.38,6.09C16.53,4.97,18.33,4.97,19.64,6.26C20.94,7.56,21.01,9.39,19.84,10.56C18.77,11.63,18.04,11.44,18.54,12.54L18.49,12.41C18.79,13.11,18.71,13.58,18.17,14.13L18.32,13.98C17.77,14.53,17.37,14.51,16.82,13.98ZM5,19.95C5.32,19.63,5.5,19.2,5.5,18.75L5.5,16.97C5.5,16.52,5.67,16.1,6,15.77L11.25,10.52L12.28,11.57L8.28,15.57L12.5,15.57L14.4,13.7L15.48,14.77L10.23,20.02C9.9,20.34,9.48,20.52,9.03,20.52L7.25,20.52C6.8,20.52,6.37,20.7,6.05,21.02L5.65,21.42L4.6,20.35Z"/></svg>