<svg xmlns="http://www.w3.org/2000/svg" viewBox="0 0 24 24" fill="currentColor"><path d="M6,8.5C5.5,8.5,5.5,8.5,5.5,9L5.5,12.5C5.5,13.01,5.5,13.01,6,13.01L15.5,13.01C16.01,13.01,16.01,13.01,16.01,12.51L16.01,9C16.01,8.5,16.01,8.5,15.5,8.5ZM15.5,7C17,7,17.51,7.5,17.51,9L17.51,12.5C17.51,14,17,14.51,15.5,14.51L6,14.51C4.5,14.51,4,14,4,12.5L4,9C4,7.5,4.5,7,6,7ZM10,16L10,17C10,17.5,10,17.5,10.5,17.5L20,17.5C20.51,17.5,20.51,17.5,20.51,17L20.51,13.49C20.51,12.99,20.51,12.99,20,12.99L19.01,12.99L19.01,11.49L20,11.49C21.5,11.49,22.01,11.99,22.01,13.49L22.01,17C22.01,18.5,21.5,19,20,19L10.5,19C9,19,8.5,18.5,8.5,17L8.5,16Z"/></svg>