<svg xmlns="http://www.w3.org/2000/svg" viewBox="0 0 24 24"><path d="M16,3.93C16,2.33,16.33,2,17.93,2L18.06,2C19.66,2,19.99,2.33,19.99,3.93L19.99,18.53L15.99,18.53Z" fill="currentColor"/><path d="M1.94,22C0.34,22,0.01,21.67,0.01,20.07L0.01,19.94C0.01,18.34,0.34,18.01,1.94,18.01L8.07,18.01C9.67,18.01,10,18.34,10,19.94L10,20.07C10,21.67,9.67,22,8.07,22Z" fill="currentColor"/><path d="M1.94,14C0.34,14,0.01,13.67,0.01,12.07L0.01,11.94C0.01,10.34,0.34,10.01,1.94,10.01L8.07,10.01C9.67,10.01,10,10.34,10,11.94L10,12.07C10,13.67,9.67,14,8.07,14Z" fill="currentColor"/><path d="M22.1,19.17L18.9,23.24C18.23,24.07,17.77,24.07,17.1,23.24L13.9,19.14C13.33,18.44,13.57,18.01,14.47,18.01L21.54,18.01C22.47,18.01,22.67,18.44,22.11,19.18Z" fill="currentColor"/><path d="M1.93,6C0.33,6,0,5.67,0,4.07L0,3.94C0,2.34,0.33,2.01,1.93,2.01L10.4,2.01C12,2.01,12.33,2.34,12.33,3.94L12.33,4.07C12.33,5.67,12,6,10.4,6Z" fill="currentColor"/></svg>