<svg xmlns="http://www.w3.org/2000/svg" viewBox="0 0 24 24"><path d="M13.13,18.23C12.7,18.66,12.23,18.66,11.8,18.23L11.73,18.13C11.3,17.7,11.3,17.23,11.73,16.8L13.56,14.97L11.76,13.17C11.33,12.74,11.33,12.27,11.76,11.84L11.83,11.77C12.26,11.34,12.73,11.34,13.16,11.77L14.96,13.57L16.79,11.74C17.22,11.31,17.69,11.31,18.12,11.74L18.22,11.81C18.65,12.24,18.65,12.71,18.22,13.14L16.39,14.97L18.22,16.84C18.65,17.27,18.65,17.74,18.22,18.17L18.15,18.24C17.72,18.67,17.25,18.67,16.82,18.24L14.95,16.41Z" fill="currentColor"/><path d="M19.33,20C20,20,20,20,20,19.33L20,4.66C20,3.99,20,3.99,19.33,3.99L4.66,3.99C3.99,3.99,3.99,3.99,3.99,4.66L3.99,19.33C3.99,20,3.99,20,4.66,20Z" fill="currentColor"/><path d="M4.66,22C2.66,22,1.99,21.33,1.99,19.33L1.99,4.66C1.99,2.66,2.66,1.99,4.66,1.99L19.33,1.99C21.33,1.99,22,2.66,22,4.66L22,19.33C22,21.33,21.33,22,19.33,22Z" fill="currentColor"/><path d="M3,8L21,8L21,10L3,10Z" fill="currentColor"/><path d="M3,16L3,14L9,14L9,16Z" fill="currentColor"/><path d="M8,21L8,3L10,3L10,21Z" fill="currentColor"/><path d="M16,8.67L14,8.67L14,3L16,3Z" fill="currentColor"/></svg>