<svg xmlns="http://www.w3.org/2000/svg" viewBox="0 0 24 24"><path d="M18.07,6L14.4,6L1.93,6C0.33,6,0,5.67,0,4.07L0,3.94C0,2.34,0.33,2.01,1.93,2.01L18.06,2.01C19.66,2.01,19.99,2.34,19.99,3.94L19.99,4.07C19.99,5.67,19.66,6,18.06,6Z" fill="currentColor"/><path d="M0,11.93C0,10.33,0.33,10,1.93,10L10.97,10C11.02,11.84,11.25,13.05,11.68,14L1.92,14C0.32,14,-0.01,13.67,-0.01,12.07Z" fill="currentColor"/><path d="M0,19.93C0,18.33,0.33,18,1.93,18L11.76,18C11.27,19,11.08,20.2,11,22L1.93,22C0.33,22,0,21.67,0,20.07Z" fill="currentColor"/><path d="M14.44,24C13.41,24,13.01,23.6,13.01,22.57C13.04,18.67,13.38,18.44,16.44,16C13.37,13.57,13.04,13.37,13.01,9.47C13.01,8.44,13.41,8.04,14.44,8.04L22.57,8.04C23.6,8.04,24,8.44,24,9.47C23.97,13.37,23.63,13.57,20.57,16C23.64,18.43,23.97,18.67,24,22.57C24,23.6,23.6,24,22.57,24Z" fill="currentColor"/><path d="M14.97,22L22.04,22C22.04,18.6,18.84,19.93,18.84,17.67L18.84,16.04C18.84,15.44,19.07,14.84,19.44,14.41L21.87,11.64C22.4,11.01,21.9,10.91,18.4,10.91C15.1,10.91,14.63,11.01,15.13,11.61L17.56,14.41C17.93,14.84,18.16,15.44,18.16,16.04L18.16,17.67C18.16,19.94,14.96,18.7,14.96,22Z" fill="currentColor"/></svg>