<svg xmlns="http://www.w3.org/2000/svg" viewBox="0 0 24 24"><path d="M19.33,20C20,20,20,20,20,19.33L20,4.66C20,3.99,20,3.99,19.33,3.99L4.66,3.99C3.99,3.99,3.99,3.99,3.99,4.66L3.99,19.33C3.99,20,3.99,20,4.66,20Z" fill="currentColor"/><path d="M4.66,22C2.66,22,1.99,21.33,1.99,19.33L1.99,4.66C1.99,2.66,2.66,1.99,4.66,1.99L19.33,1.99C21.33,1.99,22,2.66,22,4.66L22,19.33C22,21.33,21.33,22,19.33,22Z" fill="currentColor"/><path d="M3,8L21,8L21,10L3,10Z" fill="currentColor"/><path d="M3,16L3,14L9,14L9,16Z" fill="currentColor"/><path d="M8,21L8,3L10,3L10,21Z" fill="currentColor"/><path d="M16,8.67L14,8.67L14,3L16,3Z" fill="currentColor"/></svg>