<svg xmlns="http://www.w3.org/2000/svg" viewBox="0 0 24 24" fill="currentColor"><path d="M18.5,19C19,19,19,19,19,18.5L19,7.49C19,6.99,19,6.99,18.5,6.99L7.49,6.99C6.99,6.99,6.99,6.99,6.99,7.49L6.99,18.5C6.99,19,6.99,19,7.49,19ZM7.49,20.5C5.99,20.5,5.49,20,5.49,18.5L5.49,7.49C5.49,5.99,5.99,5.49,7.49,5.49L18.5,5.49C20,5.49,20.5,5.99,20.5,7.49L20.5,18.5C20.5,20,20,20.5,18.5,20.5ZM10.88,16.17C10.55,16.5,10.2,16.5,9.88,16.17L9.83,16.1C9.5,15.77,9.5,15.42,9.83,15.1L11.95,12.98L9.85,10.88C9.53,10.55,9.53,10.2,9.85,9.88L9.9,9.83C10.23,9.5,10.58,9.5,10.9,9.83L13,11.93L15.12,9.8C15.44,9.48,15.8,9.48,16.12,9.8L16.2,9.86C16.52,10.18,16.52,10.53,16.2,10.85L14.07,12.98L16.2,15.13C16.52,15.45,16.52,15.8,16.2,16.13L16.14,16.18C15.82,16.5,15.47,16.5,15.14,16.18L12.99,14.06Z"/></svg>