<svg xmlns="http://www.w3.org/2000/svg" viewBox="0 0 24 24" fill="currentColor"><path d="M8.5,19.04C8.5,20.25,8.25,20.49,7.05,20.49L6.96,20.49C5.75,20.49,5.51,20.25,5.51,19.04L5.51,6.95C5.51,5.75,5.76,5.5,6.96,5.5L7.05,5.5C8.25,5.5,8.5,5.75,8.5,6.95ZM20.5,19.04C20.5,20.25,20.25,20.49,19.05,20.49L18.96,20.49C17.75,20.49,17.51,20.25,17.51,19.04L17.51,6.95C17.51,5.75,17.75,5.5,18.96,5.5L19.05,5.5C20.25,5.5,20.5,5.75,20.5,6.95ZM14.5,19.04C14.5,20.25,14.25,20.49,13.05,20.49L12.96,20.49C11.75,20.49,11.51,20.25,11.51,19.04L11.51,6.95C11.51,5.75,11.75,5.5,12.96,5.5L13.05,5.5C14.25,5.5,14.5,5.75,14.5,6.95Z"/></svg>