<svg xmlns="http://www.w3.org/2000/svg" viewBox="0 0 24 24" fill="currentColor"><path d="M18.7,12.25L15.55,12.25C14.2,12.25,13.75,11.8,13.75,10.45L13.75,7.3C13.75,5.95,14.25,5.5,15.75,5.5L18.51,5.5C20.01,5.5,20.51,6,20.51,7.5L20.51,10.25C20.51,11.75,20.06,12.26,18.71,12.26ZM10.25,20.5L7.5,20.5C6,20.5,5.49,20,5.49,18.5L5.49,15.74C5.49,14.24,5.94,13.74,7.29,13.74L10.44,13.74C11.79,13.74,12.24,14.19,12.24,15.54L12.24,18.69C12.24,20.04,11.74,20.49,10.24,20.49ZM10.45,12.25L7.3,12.25C5.95,12.25,5.5,11.75,5.5,10.25L5.5,7.5C5.5,6,6,5.49,7.5,5.49L10.25,5.49C11.75,5.49,12.26,5.94,12.26,7.29L12.26,10.44C12.26,11.79,11.81,12.24,10.46,12.24ZM18.5,20.5L15.74,20.5C14.24,20.5,13.74,20.05,13.74,18.7L13.74,15.55C13.74,14.2,14.19,13.75,15.54,13.75L18.69,13.75C20.04,13.75,20.49,14.25,20.49,15.75L20.49,18.51C20.49,20.01,19.99,20.51,18.49,20.51Z"/></svg>