<svg xmlns="http://www.w3.org/2000/svg" viewBox="0 0 24 24"><path d="M10.97,6.67C10.04,6.67,9.67,6.3,9.67,5.37L9.67,3.3C9.67,2.37,10.07,2,11.1,2L20.57,2C21.6,2,22,2.43,22,3.6L22,5.07C22,6.2,21.63,6.67,20.7,6.67Z" fill="currentColor"/><path d="M5.07,14.33L3.6,14.33C2.47,14.33,2,13.93,2,12.9L2,11.1C2,10.07,2.37,9.67,3.3,9.67L5.37,9.67C6.3,9.67,6.67,10.04,6.67,10.97L6.67,13.04C6.67,13.97,6.24,14.34,5.07,14.34Z" fill="currentColor"/><path d="M5.37,6.67L3.3,6.67C2.37,6.67,2,6.27,2,5.24L2,3.44C2,2.41,2.4,2.01,3.43,2.01L5.23,2.01C6.26,2.01,6.66,2.38,6.66,3.31L6.66,5.38C6.66,6.31,6.29,6.68,5.36,6.68Z" fill="currentColor"/><path d="M11.27,14.33C10.14,14.33,9.67,13.96,9.67,13.03L9.67,10.96C9.67,10.03,10.04,9.66,10.97,9.66L20.7,9.66C21.63,9.66,22,10.09,22,11.26L22,12.73C22,13.86,21.57,14.33,20.4,14.33Z" fill="currentColor"/><path d="M5.23,22L3.43,22C2.4,22,2,21.6,2,20.57L2,18.77C2,17.74,2.37,17.34,3.3,17.34L5.37,17.34C6.3,17.34,6.67,17.71,6.67,18.64L6.67,20.71C6.67,21.64,6.27,22.01,5.24,22.01Z" fill="currentColor"/><path d="M11.1,22C10.07,22,9.67,21.63,9.67,20.7L9.67,18.63C9.67,17.7,10.04,17.33,10.97,17.33L20.7,17.33C21.63,17.33,22,17.76,22,18.93L22,20.4C22,21.53,21.6,22,20.57,22Z" fill="currentColor"/></svg>