<svg xmlns="http://www.w3.org/2000/svg" viewBox="0 0 24 24"><path d="M11.44,6C10.41,6,10.01,5.6,10.01,4.57L10.01,3.44C10.01,2.41,10.41,2.01,11.44,2.01L12.57,2.01C13.6,2.01,14,2.41,14,3.44L14,4.57C14,5.6,13.6,6,12.57,6Z" fill="currentColor"/><path d="M11.44,22C10.41,22,10.01,21.6,10.01,20.57L10.01,19.44C10.01,18.41,10.41,18.01,11.44,18.01L12.57,18.01C13.6,18.01,14,18.41,14,19.44L14,20.57C14,21.6,13.6,22,12.57,22Z" fill="currentColor"/><path d="M11.44,14C10.41,14,10.01,13.6,10.01,12.57L10.01,11.44C10.01,10.41,10.41,10.01,11.44,10.01L12.57,10.01C13.6,10.01,14,10.41,14,11.44L14,12.57C14,13.6,13.6,14,12.57,14Z" fill="currentColor"/><path d="M19.44,6C18.41,6,18.01,5.6,18.01,4.57L18.01,3.44C18.01,2.41,18.41,2.01,19.44,2.01L20.57,2.01C21.6,2.01,22,2.41,22,3.44L22,4.57C22,5.6,21.6,6,20.57,6Z" fill="currentColor"/><path d="M19.44,22C18.41,22,18.01,21.6,18.01,20.57L18.01,19.44C18.01,18.41,18.41,18.01,19.44,18.01L20.57,18.01C21.6,18.01,22,18.41,22,19.44L22,20.57C22,21.6,21.6,22,20.57,22Z" fill="currentColor"/><path d="M19.44,14C18.41,14,18.01,13.6,18.01,12.57L18.01,11.44C18.01,10.41,18.41,10.01,19.44,10.01L20.57,10.01C21.6,10.01,22,10.41,22,11.44L22,12.57C22,13.6,21.6,14,20.57,14Z" fill="currentColor"/><path d="M3.44,6C2.41,6,2.01,5.6,2.01,4.57L2.01,3.44C2.01,2.41,2.41,2.01,3.44,2.01L4.57,2.01C5.6,2.01,6,2.41,6,3.44L6,4.57C6,5.6,5.6,6,4.57,6Z" fill="currentColor"/><path d="M3.44,22C2.41,22,2.01,21.6,2.01,20.57L2.01,19.44C2.01,18.41,2.41,18.01,3.44,18.01L4.57,18.01C5.6,18.01,6,18.41,6,19.44L6,20.57C6,21.6,5.6,22,4.57,22Z" fill="currentColor"/><path d="M3.44,14C2.41,14,2.01,13.6,2.01,12.57L2.01,11.44C2.01,10.41,2.41,10.01,3.44,10.01L4.57,10.01C5.6,10.01,6,10.41,6,11.44L6,12.57C6,13.6,5.6,14,4.57,14Z" fill="currentColor"/></svg>