<svg xmlns="http://www.w3.org/2000/svg" viewBox="0 0 24 24" fill="currentColor"><path d="M14.5,6.63L14.5,10L19.38,10L19.38,11.5L14.5,11.5L14.5,14.5L19.38,14.5L19.38,16L14.5,16L14.5,19.38L13,19.38L13,6.63ZM8.5,18.25C8.5,19,8.5,19,9.25,19L18.25,19C19,19,19,19,19,18.25L19,7.75C19,7,19,7,18.25,7L9.25,7C8.5,7,8.5,7,8.5,7.75L7,7.75C7,6.08,7.58,5.5,9.25,5.5L18.25,5.5C19.92,5.5,20.5,6.08,20.5,7.75L20.5,18.25C20.5,19.92,19.92,20.5,18.25,20.5L9.25,20.5C7.58,20.5,7,19.92,7,18.25ZM4.73,12.23C4.25,12.23,4,12.48,4,12.93L4,13C4,13.47,4.25,13.73,4.7,13.73L7,13.73L7,16.05C7,16.5,7.25,16.75,7.73,16.75L7.8,16.75C8.25,16.75,8.5,16.5,8.5,16.02L8.5,13.72L10.77,13.72C11.25,13.72,11.5,13.47,11.5,13.02L11.5,12.95C11.5,12.48,11.25,12.22,10.8,12.22L8.5,12.22L8.5,9.95C8.5,9.5,8.25,9.25,7.77,9.25L7.7,9.25C7.25,9.25,7,9.5,7,9.98L7,12.23Z"/></svg>