<svg xmlns="http://www.w3.org/2000/svg" viewBox="0 0 24 24"><path d="M14,3.5L14,8L20.5,8L20.5,10L14,10L14,14L20.5,14L20.5,16L14,16L14,20.5L12,20.5L12,3.5Z" fill="currentColor"/><path d="M6,19C6,20,6,20,7,20L19,20C20,20,20,20,20,19L20,5C20,4,20,4,19,4L7,4C6,4,6,4,6,5L4,5C4,2.77,4.77,2,7,2L19,2C21.23,2,22,2.77,22,5L22,19C22,21.23,21.23,22,19,22L7,22C4.77,22,4,21.23,4,19Z" fill="currentColor"/><path d="M0.97,10.97C0.34,10.97,0,11.3,0,11.9L0,12C0,12.63,0.33,12.97,0.93,12.97L4,12.97L4,16.07C4,16.67,4.33,17,4.97,17L5.07,17C5.67,17,6,16.67,6,16.03L6,12.96L9.03,12.96C9.66,12.96,10,12.63,10,12.03L10,11.93C10,11.3,9.67,10.96,9.07,10.96L6,10.96L6,7.93C6,7.33,5.67,7,5.03,7L4.93,7C4.33,7,4,7.33,4,7.97L4,10.97Z" fill="currentColor"/></svg>