<svg xmlns="http://www.w3.org/2000/svg" viewBox="0 0 24 24" fill="currentColor"><path d="M12.5,16C13,16,13,16,13,15.5L13,5.99C13,5.49,13,5.49,12.5,5.49L9,5.49C8.49,5.49,8.49,5.49,8.49,5.99L8.49,15.5C8.49,16,8.49,16,9,16ZM9,17.5C7.5,17.5,6.99,17,6.99,15.5L6.99,5.99C6.99,4.49,7.5,3.99,9,3.99L12.5,3.99C14,3.99,14.5,4.49,14.5,5.99L14.5,15.5C14.5,17,14,17.5,12.5,17.5ZM13,19L13,20C13,20.5,13,20.5,13.5,20.5L17.01,20.5C17.51,20.5,17.51,20.5,17.51,20L17.51,10.49C17.51,9.99,17.51,9.99,17.01,9.99L16.01,9.99L16.01,8.49L17.01,8.49C18.51,8.49,19.01,8.99,19.01,10.49L19.01,20C19.01,21.5,18.51,22,17.01,22L13.5,22C12,22,11.5,21.5,11.5,20L11.5,19Z"/></svg>