<svg xmlns="http://www.w3.org/2000/svg" viewBox="0 0 24 24" fill="currentColor"><path d="M12.07,9.5C11.3,9.5,11,9.2,11,8.43L11,6.57C11,5.8,11.3,5.5,12.07,5.5L13.92,5.5C14.7,5.5,15,5.8,15,6.57L15,8.43C15,9.2,14.7,9.5,13.92,9.5ZM6.58,15C5.81,15,5.51,14.7,5.51,13.93L5.51,12.08C5.51,11.31,5.81,11.01,6.58,11.01L19.43,11.01C20.2,11.01,20.5,11.31,20.5,12.08L20.5,13.93C20.5,14.7,20.2,15,19.43,15ZM6.57,9.5C5.8,9.5,5.5,9.2,5.5,8.43L5.5,6.57C5.5,5.8,5.8,5.5,6.57,5.5L8.43,5.5C9.2,5.5,9.5,5.8,9.5,6.57L9.5,8.43C9.5,9.2,9.2,9.5,8.43,9.5ZM17.58,9.5C16.8,9.5,16.5,9.2,16.5,8.43L16.5,6.57C16.5,5.8,16.8,5.5,17.58,5.5L19.43,5.5C20.2,5.5,20.5,5.8,20.5,6.57L20.5,8.43C20.5,9.2,20.2,9.5,19.43,9.5ZM6.57,20.5C5.8,20.5,5.5,20.2,5.5,19.43L5.5,17.58C5.5,16.8,5.8,16.5,6.57,16.5L8.43,16.5C9.2,16.5,9.5,16.8,9.5,17.58L9.5,19.43C9.5,20.2,9.2,20.5,8.43,20.5ZM12.07,20.5C11.3,20.5,11,20.2,11,19.43L11,17.58C11,16.8,11.3,16.5,12.07,16.5L13.92,16.5C14.7,16.5,15,16.8,15,17.58L15,19.43C15,20.2,14.7,20.5,13.92,20.5ZM17.58,20.5C16.8,20.5,16.5,20.2,16.5,19.43L16.5,17.58C16.5,16.8,16.8,16.5,17.58,16.5L19.43,16.5C20.2,16.5,20.5,16.8,20.5,17.58L20.5,19.43C20.5,20.2,20.2,20.5,19.43,20.5Z"/></svg>