<svg xmlns="http://www.w3.org/2000/svg" viewBox="0 0 24 24" fill="currentColor"><path d="M19.38,14.5L16,14.5L16,19.38L14.5,19.38L14.5,14.5L11.5,14.5L11.5,19.38L10,19.38L10,14.5L6.63,14.5L6.63,13L19.38,13ZM7.75,8.5C7,8.5,7,8.5,7,9.25L7,18.25C7,19,7,19,7.75,19L18.25,19C19,19,19,19,19,18.25L19,9.25C19,8.5,19,8.5,18.25,8.5L18.25,7C19.92,7,20.5,7.58,20.5,9.25L20.5,18.25C20.5,19.92,19.92,20.5,18.25,20.5L7.75,20.5C6.08,20.5,5.5,19.92,5.5,18.25L5.5,9.25C5.5,7.58,6.08,7,7.75,7ZM13.77,4.73C13.77,4.25,13.53,4,13.08,4L13,4C12.53,4,12.27,4.25,12.27,4.7L12.27,7L9.95,7C9.5,7,9.25,7.25,9.25,7.73L9.25,7.8C9.25,8.25,9.5,8.5,9.98,8.5L12.28,8.5L12.28,10.77C12.28,11.25,12.53,11.5,12.98,11.5L13.05,11.5C13.52,11.5,13.78,11.25,13.78,10.8L13.78,8.5L16.05,8.5C16.5,8.5,16.75,8.25,16.75,7.77L16.75,7.7C16.75,7.25,16.5,7,16.02,7L13.77,7Z"/></svg>