<svg xmlns="http://www.w3.org/2000/svg" viewBox="0 0 24 24" fill="currentColor"><path d="M10,5.88C9.38,5.88,8.88,6.38,8.88,7C8.88,7.62,9.38,8.13,10,8.13C10.62,8.13,11.13,7.62,11.13,7C11.13,6.38,10.62,5.88,10,5.88ZM11.9,20.48L11.91,20.5L6.25,20.5C4.58,20.5,4,19.92,4,18.25L4,9.25C4,7.58,4.58,7,6.25,7L7.52,7C7.52,5.63,8.63,4.53,10,4.53C11.37,4.53,12.48,5.63,12.48,7L13.75,7C15.42,7,16,7.58,16,9.25L16,10L10.47,10C8.2,10,6.97,11.23,6.97,13.5L6.97,15.51C6.97,17.78,8.2,19.01,10.47,19.01L11.34,19.01C11.3,19.48,11.47,20.01,11.89,20.49ZM13,17.48L13.3,17.48C13.19,17.48,13.1,17.48,13,17.49ZM22,13.5L22,15.51C22,17.01,21.5,17.51,20,17.51L16,17.51L16,19.01L17.2,19.01C17.65,19.01,17.75,19.21,17.45,19.56L15.7,21.68C15.4,22.03,15.1,22.03,14.8,21.68L13.05,19.56C12.75,19.2,12.85,19.01,13.3,19.01L14.5,19.01L14.5,17.51L10.5,17.51C9,17.51,8.5,17.01,8.5,15.51L8.5,13.5C8.5,12,9,11.5,10.5,11.5L20,11.5C21.5,11.5,22.01,12,22.01,13.5ZM20.5,16L20.5,13L10,13L10,16Z"/></svg>