<svg xmlns="http://www.w3.org/2000/svg" viewBox="0 0 24 24"><path d="M3.4,22L1.53,22C0.5,22,0.33,21.67,0.93,20.83L7.18,11.81L1.29,3.2C0.72,2.33,0.89,2,1.92,2L3.75,2C4.78,2,5.42,2.33,5.98,3.2L9.97,9.1L13.85,3.2C14.18,2.69,14.54,2.37,14.98,2.19L14.98,8.2L12.64,11.67L18.85,20.81C19.42,21.68,19.25,22.01,18.22,22.01L16.32,22.01C15.29,22.01,14.65,21.68,14.09,20.81L9.83,14.4L5.62,20.81C5.05,21.68,4.42,22.01,3.39,22.01Z" fill="currentColor"/><path d="M23.07,10L17.97,10C17.37,10,17.04,9.67,17.04,9.07L17.04,8.34C17.04,7.74,17.31,7.17,17.74,6.81L20.51,4.38C21.14,3.85,21.48,3.51,21.48,3.05C21.48,2.62,21.11,2.32,20.41,2.32C19.91,2.32,19.24,2.59,18.41,3.22C17.98,3.62,17.51,3.55,17.18,3.05L16.91,2.68C16.58,2.18,16.61,1.68,17.08,1.28C18.28,0.31,19.28,0.01,20.38,0.01C22.61,0.01,23.88,1.31,23.88,2.88C23.88,3.98,23.18,5.01,21.88,6.15L19.01,8.62L19.18,7.49L23.08,7.49C23.68,7.49,24.01,7.82,24.01,8.42L24.01,9.09C24.01,9.69,23.68,10.02,23.08,10.02Z" fill="currentColor"/></svg>