<svg xmlns="http://www.w3.org/2000/svg" viewBox="0 0 24 24"><path d="M4,19.33C4,20,4,20,4.67,20L8,20L8,18.65C8.67,18.79,9.35,18.63,10,18.19L10,20L14,20L14,18.16C14.65,18.62,15.33,18.79,16,18.66L16,20L19.33,20C20,20,20,20,20,19.33L20,13L17.27,13L16.27,12L17.27,11L20,11L20,4.67C20,4,20,4,19.33,4L16,4L16,5.41C15.33,5.27,14.65,5.43,14,5.88L14,3.99L10,3.99L10,5.82C9.35,5.38,8.67,5.23,8,5.38L8,3.99L4.67,3.99C4,3.99,4,3.99,4,4.66L4,10.99L6.8,10.99L7.8,11.99L6.8,12.99L4,12.99Z" fill="currentColor"/><path d="M2,4.66C2,2.66,2.67,1.99,4.67,1.99L19.34,1.99C21.34,1.99,22.01,2.66,22.01,4.66L22.01,19.33C22.01,21.33,21.34,22,19.34,22L4.67,22C2.67,22,2,21.33,2,19.33Z" fill="currentColor"/><path d="M7.8,9.17C7.37,8.74,7.37,8.27,7.8,7.84L7.87,7.77C8.3,7.34,8.77,7.34,9.2,7.77L12.03,10.6L14.83,7.8C15.26,7.37,15.73,7.37,16.16,7.8L16.23,7.87C16.66,8.3,16.66,8.77,16.23,9.2L13.43,12L16.26,14.87C16.69,15.3,16.69,15.77,16.26,16.2L16.19,16.27C15.76,16.7,15.29,16.7,14.86,16.27L12.03,13.44L9.16,16.27C8.73,16.7,8.26,16.7,7.83,16.27L7.76,16.2C7.33,15.77,7.33,15.3,7.76,14.87L10.59,12Z" fill="currentColor"/></svg>