<svg xmlns="http://www.w3.org/2000/svg" viewBox="0 0 24 24"><path d="M8.33,22L4.66,22C2.66,22,1.99,21.33,1.99,19.33L1.99,15.66C1.99,13.66,2.59,12.99,4.39,12.99L8.59,12.99C8.7,12.99,8.81,12.99,8.91,13C8.32,14.2,7.99,15.56,7.99,16.99C7.99,18.81,8.52,20.49,9.43,21.9C9.12,21.96,8.75,21.99,8.32,21.99Z" fill="currentColor"/><path d="M8.6,11L4.4,11C2.6,11,2,10.33,2,8.33L2,4.66C2,2.66,2.67,1.99,4.67,1.99L8.34,1.99C10.34,1.99,11.01,2.59,11.01,4.39L11.01,8.59C11.01,10.39,10.41,10.99,8.61,10.99Z" fill="currentColor"/><path d="M13,4.4C13,2.6,13.67,2,15.67,2L19.34,2C21.34,2,22.01,2.67,22.01,4.67L22.01,8.34C22.01,8.77,21.98,9.14,21.92,9.45C20.51,8.54,18.83,8.01,17.01,8.01C15.57,8.01,14.22,8.34,13.02,8.93C13.02,8.83,13.01,8.72,13.01,8.61Z" fill="currentColor"/><path d="M10.03,17C10.03,13.17,13.2,10.03,17,10.03C20.83,10.03,23.97,13.16,23.97,17C23.97,20.8,20.84,23.97,17,23.97C13.2,23.97,10.03,20.8,10.03,17Z" fill="currentColor"/><path d="M13.33,20.6C13.8,21.07,14.26,21.1,14.76,20.6L16.96,18.4L19.23,20.6C19.7,21.07,20.16,21.07,20.63,20.6C21.1,20.13,21.13,19.63,20.63,19.17L18.4,16.97L20.63,14.74C21.1,14.27,21.1,13.81,20.63,13.34C20.16,12.87,19.7,12.84,19.2,13.34L16.97,15.57L14.77,13.37C14.3,12.9,13.84,12.9,13.37,13.37C12.9,13.84,12.87,14.34,13.37,14.8L15.57,16.97L13.34,19.2C12.87,19.67,12.87,20.13,13.34,20.6Z" fill="currentColor"/></svg>