<svg xmlns="http://www.w3.org/2000/svg" viewBox="0 0 24 24"><path d="M6.36,4.2C7.93,5.2,8.36,7.17,7.43,8.6C7.31,8.79,7.18,8.97,7.03,9.14L4.66,11.17L3.66,10.37C1.13,8.3,0.96,6.57,1.93,5.07C2.9,3.6,4.86,3.24,6.36,4.2Z" fill="currentColor"/><path d="M3.87,8.2C4.54,8.67,5.5,8.43,5.97,7.73C6.44,7.03,6.24,6.06,5.57,5.6C4.84,5.13,3.84,5.33,3.37,6.03C2.9,6.73,3.14,7.73,3.87,8.2Z" fill="currentColor"/><path d="M16.67,2C16,2,16,2,16,2.67L16,2.89C15.35,2.94,14.67,3.14,14,3.48L14,2.67C14,0.67,14.67,0,16.67,0L19.34,0C21.34,0,22.01,0.67,22.01,2.67L22.01,21.34C22.01,23.34,21.34,24.01,19.34,24.01L16.67,24.01C14.67,24.01,14,23.34,14,21.34L14,11.64L16,10.29L16,21.34C16,22.01,16,22.01,16.67,22.01L19.34,22.01C20.01,22.01,20.01,22.01,20.01,21.34L20.01,2.67C20.01,2,20.01,2,19.34,2Z" fill="currentColor"/><path d="M9.25,14.85L11.65,13.23L11.99,13.45L11.99,17.05Z" fill="currentColor"/><path d="M3.66,13.93L12.56,6.8C16.69,3.47,18.06,5.6,18.66,6.5L4.73,15.6L5.33,13.27C5.96,14.17,6.86,14.8,7.43,15.7C8.36,17.13,7.93,19.1,6.36,20.1C4.86,21.07,2.89,20.7,1.93,19.23C0.96,17.73,1.13,16,3.66,13.93Z" fill="currentColor"/><path d="M5.57,18.7C6.24,18.23,6.44,17.27,5.97,16.57C5.5,15.87,4.54,15.64,3.87,16.1C3.14,16.57,2.9,17.57,3.37,18.27C3.84,18.97,4.84,19.17,5.57,18.7Z" fill="currentColor"/></svg>