<svg xmlns="http://www.w3.org/2000/svg" viewBox="0 0 24 24" fill="currentColor"><path d="M12.58,20.5C11.81,20.5,11.51,20.2,11.51,19.43L11.51,19.33C11.51,18.56,11.81,18.26,12.58,18.26L19.43,18.26C20.2,18.26,20.5,18.56,20.5,19.33L20.5,19.43C20.5,20.2,20.2,20.5,19.43,20.5ZM12.58,14.13C11.81,14.13,11.51,13.83,11.51,13.05L11.51,12.96C11.51,12.18,11.81,11.88,12.58,11.88L19.43,11.88C20.2,11.88,20.5,12.18,20.5,12.96L20.5,13.05C20.5,13.83,20.2,14.13,19.43,14.13ZM12.58,7.75C11.81,7.75,11.51,7.45,11.51,6.68L11.51,6.58C11.51,5.81,11.81,5.51,12.58,5.51L19.43,5.51C20.2,5.51,20.5,5.81,20.5,6.58L20.5,6.68C20.5,7.45,20.2,7.75,19.43,7.75ZM5.95,9.25L5.63,9.25C5.4,9.25,5.33,9.18,5.43,8.95L7.13,5.05C7.23,4.82,7.35,4.75,7.58,4.75L7.93,4.75C8.16,4.75,8.28,4.82,8.38,5.05L10.08,8.95C10.18,9.18,10.1,9.25,9.88,9.25L9.56,9.25C9.33,9.25,9.21,9.18,9.11,8.95L7.61,5.25L7.88,5.25L6.41,8.95C6.31,9.18,6.18,9.25,5.96,9.25ZM6.5,8.15L6.5,7.38L9.02,7.38L9.02,8.15ZM6.47,15.35C6.25,15.35,6.15,15.25,6.15,15.02L6.15,11.18C6.15,10.95,6.25,10.86,6.47,10.86L7.88,10.86C8.93,10.86,9.43,11.33,9.43,12.05C9.43,12.75,8.91,13.2,8.33,13.2L8.4,12.93C8.98,12.93,9.55,13.35,9.55,14.13C9.55,14.9,9,15.35,7.95,15.35ZM7.88,14.52C8.38,14.52,8.63,14.37,8.63,14C8.63,13.65,8.4,13.5,7.88,13.5L6.98,13.5L6.98,12.67L7.78,12.67C8.28,12.67,8.53,12.52,8.53,12.17C8.53,11.81,8.28,11.67,7.78,11.67L7.05,11.67L7.05,14.52ZM8.35,21.33C6.95,21.33,5.93,20.33,5.93,19C5.93,17.67,6.98,16.7,8.35,16.7C8.67,16.7,9,16.75,9.3,16.87C9.53,16.95,9.6,17.09,9.6,17.32L9.6,17.52C9.6,17.75,9.53,17.8,9.33,17.7C9.03,17.57,8.73,17.49,8.4,17.49C7.5,17.49,6.83,18.09,6.83,18.99C6.83,19.89,7.5,20.49,8.4,20.49C8.73,20.49,9.03,20.42,9.33,20.29C9.53,20.19,9.6,20.24,9.6,20.46L9.6,20.64C9.6,20.86,9.53,21.01,9.33,21.11C8.97,21.26,8.65,21.31,8.35,21.31Z"/></svg>