<svg xmlns="http://www.w3.org/2000/svg" viewBox="0 0 24 24"><path d="M13.23,17C15.13,17,15.4,16.73,15.4,15.67C15.4,14.63,15.25,14.47,13.23,14.47L6.33,14.47L6.33,9.47L12.63,9.47C14.24,9.47,14.6,9.12,14.6,8.17C14.6,7.24,14.36,7,12.63,7L6.8,7C6.5,7,8.83,4.67,8.83,4.97L8.83,19.04C8.83,19.34,6.5,17.01,6.8,17.01Z" fill="currentColor"/><path d="M13.23,22L6.8,22C5.1,22,3.83,20.73,3.83,19.03L3.83,4.96C3.83,3.26,5.1,1.99,6.8,1.99L12.63,1.99C17.11,1.99,19.6,5.02,19.6,8.16C19.6,11.19,17.22,14.46,12.63,14.46L6.33,14.46L6.33,9.46L13.23,9.46C18.08,9.46,20.4,12.46,20.4,15.66C20.4,18.76,18.2,21.99,13.23,21.99Z" fill="currentColor"/></svg>