<svg xmlns="http://www.w3.org/2000/svg" viewBox="0 0 24 24" fill="currentColor"><path d="M5.46,8.5C4.26,8.5,4.01,8.25,4.01,7.05L4.01,6.96C4.01,5.75,4.26,5.51,5.46,5.51L17.55,5.51C18.75,5.51,19,5.76,19,6.96L19,7.05C19,8.25,18.75,8.5,17.55,8.5ZM4,12.95C4,11.75,4.25,11.5,5.45,11.5L12.09,11.5C10.67,12.18,9.41,13.27,8.37,14.5L5.46,14.5C4.25,14.5,4.01,14.25,4.01,13.05ZM4,18.95C4,17.75,4.25,17.5,5.45,17.5L6.7,17.5C7.33,18.55,8.11,19.59,9,20.5L5.45,20.5C4.25,20.5,4,20.25,4,19.05ZM17.6,17.1C17.6,15.83,16.55,14.78,15.25,14.78C13.95,14.78,12.9,15.83,12.9,17.1C12.9,18.4,13.95,19.45,15.25,19.45C16.55,19.45,17.6,18.4,17.6,17.1ZM8.25,17.15C10,14.47,12.32,12.25,15.25,12.25C18.15,12.25,20.5,14.48,22,17.15C20.5,19.85,18.15,22,15.25,22C12.32,22,10,19.85,8.25,17.15Z"/></svg>