<svg xmlns="http://www.w3.org/2000/svg" viewBox="0 0 24 24"><path d="M10,20.5L10,16L3.5,16L3.5,14L10,14L10,10L3.5,10L3.5,8L10,8L10,3.5L12,3.5L12,20.5Z" fill="currentColor"/><path d="M18,5C18,4,18,4,17,4L5,4C4,4,4,4,4,5L4,19C4,20,4,20,5,20L17,20C18,20,18,20,18,19L20,19C20,21.23,19.23,22,17,22L5,22C2.77,22,2,21.23,2,19L2,5C2,2.77,2.77,2,5,2L17,2C19.23,2,20,2.77,20,5Z" fill="currentColor"/><path d="M23.03,13.03C23.66,13.03,24,12.7,24,12.1L24,12C24,11.37,23.67,11.03,23.07,11.03L20,11.03L20,7.93C20,7.33,19.67,7,19.03,7L18.93,7C18.33,7,18,7.33,18,7.97L18,11.04L14.97,11.04C14.34,11.04,14,11.37,14,11.97L14,12.07C14,12.7,14.33,13.04,14.93,13.04L18,13.04L18,16.07C18,16.67,18.33,17,18.97,17L19.07,17C19.67,17,20,16.67,20,16.03L20,13.03Z" fill="currentColor"/></svg>