<svg xmlns="http://www.w3.org/2000/svg" viewBox="0 0 24 24"><path d="M3.4,22L1.53,22C0.5,22,0.33,21.67,0.93,20.83L7.18,11.81L1.29,3.2C0.72,2.33,0.89,2,1.92,2L3.75,2C4.78,2,5.42,2.33,5.98,3.2L9.97,9.1L13.85,3.2C14.42,2.33,15.05,2,16.08,2L17.71,2C18.74,2,18.91,2.33,18.34,3.2L12.63,11.66L14.97,15.11L14.97,21.7C14.63,21.51,14.34,21.21,14.07,20.8L9.81,14.39L5.6,20.8C5.03,21.67,4.4,22,3.37,22Z" fill="currentColor"/><path d="M23.03,24L17.96,24C17.36,24,17.03,23.67,17.03,23.07L17.03,22.34C17.03,21.74,17.3,21.17,17.73,20.81L20.5,18.38C21.13,17.85,21.47,17.51,21.47,17.05C21.47,16.62,21.1,16.32,20.4,16.32C19.9,16.32,19.23,16.59,18.4,17.22C17.97,17.62,17.5,17.55,17.17,17.05L16.9,16.68C16.57,16.18,16.6,15.68,17.07,15.28C18.27,14.31,19.27,14.01,20.37,14.01C22.6,14.01,23.87,15.31,23.87,16.88C23.87,17.98,23.17,19.01,21.87,20.15L19,22.62L19.17,21.49L23.04,21.49C23.64,21.49,23.97,21.82,23.97,22.42L23.97,23.09C23.97,23.69,23.64,24.02,23.04,24.02Z" fill="currentColor"/></svg>