<svg xmlns="http://www.w3.org/2000/svg" viewBox="0 0 24 24"><path d="M12.37,22L8.3,22L11.63,2L15.7,2Z" fill="currentColor"/><path d="M8.94,6C7.34,6,7.01,5.67,7.01,4.07L7.01,3.94C7.01,2.34,7.34,2.01,8.94,2.01L17.07,2.01C18.67,2.01,19,2.34,19,3.94L19,4.07C19,5.67,18.67,6,17.07,6Z" fill="currentColor"/><path d="M6.94,22C5.34,22,5.01,21.67,5.01,20.07L5.01,19.94C5.01,18.34,5.34,18.01,6.94,18.01L15.07,18.01C16.67,18.01,17,18.34,17,19.94L17,20.07C17,21.67,16.67,22,15.07,22Z" fill="currentColor"/></svg>