<svg xmlns="http://www.w3.org/2000/svg" viewBox="0 0 24 24"><path d="M10.07,22L6.3,22L10.3,18C11.7,18.03,12,18.41,12,19.93L12,20.06C12,21.66,11.67,21.99,10.07,21.99Z" fill="currentColor"/><path d="M20.07,14L14.3,14L18.3,10L20.07,10C21.67,10,22,10.33,22,11.93L22,12.06C22,13.66,21.67,13.99,20.07,13.99Z" fill="currentColor"/><path d="M23.4,2.03L21.99,3.44L19.44,5.99L15.44,9.99L11.44,13.99L7.44,17.99L3.45,21.98L2.1,23.33L2.07,23.36C1.64,23.79,1.17,23.79,0.74,23.36L0.64,23.26C0.21,22.83,0.21,22.36,0.64,21.93L2.02,20.55C2.01,20.4,2.01,20.24,2.01,20.06L2.01,19.93C2.01,18.33,2.34,18,3.94,18L4.57,18L8.57,14L3.94,14C2.34,14,2.01,13.67,2.01,12.07L2.01,11.94C2.01,10.34,2.34,10.01,3.94,10.01L12.57,10.01L16.57,6.01L3.94,6.01C2.34,6.01,2.01,5.68,2.01,4.08L2.01,3.95C2.01,2.35,2.34,2.02,3.94,2.02L20.07,2.02C20.25,2.02,20.41,2.02,20.56,2.03L21.97,0.62C22.4,0.19,22.87,0.19,23.3,0.62L23.4,0.72C23.82,1.14,23.83,1.6,23.43,2.02C23.42,2.03,23.41,2.04,23.4,2.05Z" fill="currentColor"/></svg>