<svg xmlns="http://www.w3.org/2000/svg" viewBox="0 0 24 24"><path d="M1.94,6C0.34,6,0.01,5.67,0.01,4.07L0.01,3.94C0.01,2.34,0.34,2.01,1.94,2.01L18.07,2.01C19.67,2.01,20,2.34,20,3.94L20,4.07C20,5.67,19.67,6,18.07,6Z" fill="currentColor"/><path d="M0,11.93C0,10.33,0.33,10,1.93,10L10.69,10C9.51,11.04,8.65,12.43,8.24,14L1.92,14C0.32,14,-0.01,13.67,-0.01,12.07Z" fill="currentColor"/><path d="M0,19.93C0,18.33,0.33,18,1.93,18L8.25,18C8.65,19.57,9.52,20.96,10.7,22L1.94,22C0.34,22,0.01,21.67,0.01,20.07Z" fill="currentColor"/><path d="M20,16C20,13.73,18.27,12,16,12C13.73,12,12,13.73,12,16C12,18.27,13.73,20,16,20C18.27,20,20,18.27,20,16Z" fill="currentColor"/><path d="M10,16C10,12.7,12.7,10,16,10C19.3,10,22,12.7,22,16C22,19.3,19.3,22,16,22C12.7,22,10,19.3,10,16Z" fill="currentColor"/><path d="M23.6,23.4L23.47,23.53C23.04,23.96,22.57,23.96,22.14,23.53L18.44,19.83L19.91,18.36L23.61,22.06C24.04,22.49,24.04,22.96,23.61,23.39Z" fill="currentColor"/></svg>