<svg xmlns="http://www.w3.org/2000/svg" viewBox="0 0 24 24"><path d="M2.94,22C2.34,22,2.01,21.67,2.01,21.07L2.01,20.94C2.01,20.34,2.34,20.01,2.94,20.01L21.07,20.01C21.67,20.01,22,20.34,22,20.94L22,21.07C22,21.67,21.67,22,21.07,22Z" fill="currentColor"/><path d="M7.5,12.37C7.2,11.37,7.33,10.74,8.07,10L15.1,2.97C16.73,1.3,18.4,1.14,20.67,3.34C22.87,5.54,22.87,7.37,21.07,8.97L14.5,15.54C13.77,16.27,13.1,16.44,12.1,16.17L8.4,15.24Z" fill="currentColor"/><path d="M12.3,14.17L8.47,18L3,18L9.7,11.3Z" fill="currentColor"/></svg>