<svg xmlns="http://www.w3.org/2000/svg" viewBox="0 0 24 24"><path d="M1.5,3.5C1.5,2.03,2.53,1,4,1C5.47,1,6.5,2.03,6.5,3.5C6.5,4.97,5.47,6,4,6C2.53,6,1.5,4.97,1.5,3.5Z" fill="currentColor"/><path d="M1.5,20.5C1.5,19.03,2.53,18,4,18C5.47,18,6.5,19.03,6.5,20.5C6.5,21.97,5.47,23,4,23C2.53,23,1.5,21.97,1.5,20.5Z" fill="currentColor"/><path d="M1.5,12C1.5,10.53,2.53,9.5,4,9.5C5.47,9.5,6.5,10.53,6.5,12C6.5,13.47,5.47,14.5,4,14.5C2.53,14.5,1.5,13.47,1.5,12Z" fill="currentColor"/><path d="M11.44,5C10.41,5,10.01,4.6,10.01,3.57L10.01,3.44C10.01,2.41,10.41,2.01,11.44,2.01L20.57,2.01C21.6,2.01,22,2.41,22,3.44L22,3.57C22,4.6,21.6,5,20.57,5Z" fill="currentColor"/><path d="M10.46,21.78C10.37,21.72,10.29,21.64,10.23,21.55C10.3,21.63,10.38,21.7,10.46,21.78Z" fill="currentColor"/><path d="M21.78,21.54C21.72,21.63,21.64,21.71,21.55,21.77C21.63,21.7,21.7,21.62,21.78,21.54Z" fill="currentColor"/><path d="M20,16C20,13.73,18.27,12,16,12C13.73,12,12,13.73,12,16C12,18.27,13.73,20,16,20C18.27,20,20,18.27,20,16Z" fill="currentColor"/><path d="M10,16C10,12.7,12.7,10,16,10C19.3,10,22,12.7,22,16C22,19.3,19.3,22,16,22C12.7,22,10,19.3,10,16Z" fill="currentColor"/><path d="M23.6,23.4L23.47,23.53C23.04,23.96,22.57,23.96,22.14,23.53L18.44,19.83L19.91,18.36L23.61,22.06C24.04,22.49,24.04,22.96,23.61,23.39Z" fill="currentColor"/></svg>