<svg xmlns="http://www.w3.org/2000/svg" viewBox="0 0 24 24"><path d="M19.33,20C20,20,20,20,20,19.33L20,4.66C20,3.99,20,3.99,19.33,3.99L4.66,3.99C3.99,3.99,3.99,3.99,3.99,4.66L3.99,19.33C3.99,20,3.99,20,4.66,20Z" fill="currentColor"/><path d="M4.66,22C2.66,22,1.99,21.33,1.99,19.33L1.99,4.66C1.99,2.66,2.66,1.99,4.66,1.99L19.33,1.99C21.33,1.99,22,2.66,22,4.66L22,19.33C22,21.33,21.33,22,19.33,22Z" fill="currentColor"/><path d="M9.17,16.23C8.74,16.66,8.27,16.66,7.84,16.23L7.77,16.13C7.34,15.7,7.34,15.23,7.77,14.8L10.6,11.97L7.8,9.17C7.37,8.74,7.37,8.27,7.8,7.84L7.87,7.77C8.3,7.34,8.77,7.34,9.2,7.77L12,10.57L14.83,7.74C15.26,7.31,15.73,7.31,16.16,7.74L16.26,7.81C16.69,8.24,16.69,8.71,16.26,9.14L13.43,11.97L16.26,14.84C16.69,15.27,16.69,15.74,16.26,16.17L16.19,16.24C15.76,16.67,15.29,16.67,14.86,16.24L11.99,13.41Z" fill="currentColor"/></svg>