<svg xmlns="http://www.w3.org/2000/svg" viewBox="0 0 24 24" fill="currentColor"><path d="M11.5,19.38L11.5,16L6.63,16L6.63,14.5L11.5,14.5L11.5,11.5L6.63,11.5L6.63,10L11.5,10L11.5,6.63L13,6.63L13,19.38ZM17.5,7.75C17.5,7,17.5,7,16.75,7L7.75,7C7,7,7,7,7,7.75L7,18.25C7,19,7,19,7.75,19L16.75,19C17.5,19,17.5,19,17.5,18.25L19,18.25C19,19.92,18.42,20.5,16.75,20.5L7.75,20.5C6.08,20.5,5.5,19.92,5.5,18.25L5.5,7.75C5.5,6.08,6.08,5.5,7.75,5.5L16.75,5.5C18.42,5.5,19,6.08,19,7.75ZM21.27,13.77C21.75,13.77,22,13.53,22,13.08L22,13C22,12.53,21.75,12.27,21.3,12.27L19,12.27L19,9.95C19,9.5,18.75,9.25,18.27,9.25L18.2,9.25C17.75,9.25,17.5,9.5,17.5,9.98L17.5,12.28L15.23,12.28C14.75,12.28,14.5,12.53,14.5,12.98L14.5,13.05C14.5,13.52,14.75,13.78,15.2,13.78L17.5,13.78L17.5,16.05C17.5,16.5,17.75,16.75,18.23,16.75L18.3,16.75C18.75,16.75,19,16.5,19,16.02L19,13.77Z"/></svg>