<svg xmlns="http://www.w3.org/2000/svg" viewBox="0 0 24 24" fill="currentColor"><path d="M7.5,12.38L6.75,11.78C4.85,10.22,4.72,8.93,5.45,7.8C6.17,6.7,7.64,6.43,8.77,7.15C9.95,7.9,10.27,9.38,9.57,10.45C9.48,10.59,9.38,10.73,9.27,10.86ZM6.9,10.15C7.41,10.5,8.13,10.32,8.48,9.8C8.83,9.27,8.68,8.54,8.18,8.2C7.63,7.85,6.88,8,6.53,8.52C6.18,9.05,6.35,9.8,6.9,10.15ZM16.5,5.5C16,5.5,16,5.5,16,6L16,6.17C15.51,6.21,15,6.35,14.5,6.61L14.5,6C14.5,4.5,15,4,16.5,4L18.51,4C20.01,4,20.51,4.5,20.51,6L20.51,20.01C20.51,21.51,20.01,22.01,18.51,22.01L16.5,22.01C15,22.01,14.5,21.51,14.5,20.01L14.5,12.73L16,11.72L16,20.01C16,20.51,16,20.51,16.5,20.51L18.51,20.51C19.01,20.51,19.01,20.51,19.01,20.01L19.01,6C19.01,5.5,19.01,5.5,18.51,5.5ZM10.94,15.14L12.74,13.92L12.99,14.09L12.99,16.79ZM13.42,9.1C16.52,6.6,17.55,8.2,18,8.88L7.55,15.7L8,13.95C8.47,14.63,9.15,15.1,9.57,15.78C10.27,16.85,9.95,18.33,8.77,19.08C7.65,19.8,6.17,19.53,5.45,18.42C4.72,17.3,4.85,16,6.75,14.45ZM8.18,18.02C8.68,17.67,8.83,16.95,8.48,16.43C8.13,15.9,7.41,15.73,6.9,16.08C6.36,16.43,6.18,17.18,6.53,17.7C6.88,18.23,7.63,18.38,8.18,18.02Z"/></svg>