<svg xmlns="http://www.w3.org/2000/svg" viewBox="0 0 24 24"><path d="M11.94,6C10.34,6,10.01,5.67,10.01,4.07L10.01,3.94C10.01,2.34,10.34,2.01,11.94,2.01L22.07,2.01C23.67,2.01,24,2.34,24,3.94L24,4.07C24,5.67,23.67,6,22.07,6Z" fill="currentColor"/><path d="M11.94,22C10.34,22,10.01,21.67,10.01,20.07L10.01,19.94C10.01,18.34,10.34,18.01,11.94,18.01L18.07,18.01C19.67,18.01,20,18.34,20,19.94L20,20.07C20,21.67,19.67,22,18.07,22Z" fill="currentColor"/><path d="M11.94,14C10.34,14,10.01,13.67,10.01,12.07L10.01,11.94C10.01,10.34,10.34,10.01,11.94,10.01L22.07,10.01C23.67,10.01,24,10.34,24,11.94L24,12.07C24,13.67,23.67,14,22.07,14Z" fill="currentColor"/><path d="M1.13,16.14C0.33,16.77,0,16.61,0,15.57L0,8.44C0,7.41,0.33,7.24,1.13,7.87L5.4,11.14C6.2,11.77,6.2,12.24,5.4,12.87Z" fill="currentColor"/></svg>