<svg xmlns="http://www.w3.org/2000/svg" viewBox="0 0 24 24"><path d="M11.44,22C10.41,22,10.01,21.6,10.01,20.57L10.01,20.44C10.01,19.41,10.41,19.01,11.44,19.01L20.57,19.01C21.6,19.01,22,19.41,22,20.44L22,20.57C22,21.6,21.6,22,20.57,22Z" fill="currentColor"/><path d="M11.44,13.5C10.41,13.5,10.01,13.1,10.01,12.07L10.01,11.94C10.01,10.91,10.41,10.51,11.44,10.51L20.57,10.51C21.6,10.51,22,10.91,22,11.94L22,12.07C22,13.1,21.6,13.5,20.57,13.5Z" fill="currentColor"/><path d="M11.44,5C10.41,5,10.01,4.6,10.01,3.57L10.01,3.44C10.01,2.41,10.41,2.01,11.44,2.01L20.57,2.01C21.6,2.01,22,2.41,22,3.44L22,3.57C22,4.6,21.6,5,20.57,5Z" fill="currentColor"/><path d="M2.6,7L2.17,7C1.87,7,1.77,6.9,1.9,6.6L4.17,1.4C4.3,1.1,4.47,1,4.77,1L5.24,1C5.54,1,5.71,1.1,5.84,1.4L8.11,6.6C8.24,6.9,8.14,7,7.84,7L7.41,7C7.11,7,6.94,6.9,6.81,6.6L4.81,1.67L5.18,1.67L3.21,6.6C3.08,6.9,2.91,7,2.61,7Z" fill="currentColor"/><path d="M3.33,5.53L3.33,4.5L6.7,4.5L6.7,5.53Z" fill="currentColor"/><path d="M3.3,15.13C3,15.13,2.87,15,2.87,14.7L2.87,9.57C2.87,9.27,3,9.14,3.3,9.14L5.17,9.14C6.57,9.14,7.24,9.77,7.24,10.74C7.24,11.67,6.54,12.27,5.77,12.27L5.87,11.9C6.64,11.9,7.4,12.47,7.4,13.5C7.4,14.53,6.67,15.13,5.27,15.13Z" fill="currentColor"/><path d="M5.17,14.03C5.84,14.03,6.17,13.83,6.17,13.33C6.17,12.86,5.87,12.66,5.17,12.66L3.97,12.66L3.97,11.56L5.04,11.56C5.71,11.56,6.04,11.36,6.04,10.89C6.04,10.42,5.71,10.22,5.04,10.22L4.07,10.22L4.07,14.02Z" fill="currentColor"/><path d="M5.8,23.1C3.93,23.1,2.57,21.77,2.57,20C2.57,18.23,3.97,16.93,5.8,16.93C6.23,16.93,6.67,17,7.07,17.16C7.37,17.26,7.47,17.46,7.47,17.76L7.47,18.03C7.47,18.33,7.37,18.4,7.1,18.26C6.7,18.09,6.3,17.99,5.87,17.99C4.67,17.99,3.77,18.79,3.77,19.99C3.77,21.19,4.67,21.99,5.87,21.99C6.3,21.99,6.7,21.89,7.1,21.72C7.37,21.59,7.47,21.65,7.47,21.95L7.47,22.18C7.47,22.48,7.37,22.68,7.1,22.81C6.63,23.01,6.2,23.08,5.8,23.08Z" fill="currentColor"/></svg>