<svg xmlns="http://www.w3.org/2000/svg" viewBox="0 0 24 24"><path d="M2,14.97L2,13.74L3.97,12.24C4.97,11.47,5.37,11.17,5.37,10.77C5.37,10.34,4.94,10.04,4.3,10.04C3.37,10.04,2.67,10.97,2.67,10.97L1.9,10.3C1.9,10.3,2.7,9.03,4.27,9.03C5.44,9.03,6.37,9.7,6.37,10.73C6.37,11.53,5.8,12.1,4.87,12.8L3.34,13.97L6.57,13.97L6.57,14.97Z" fill="currentColor"/><path d="M4,6.43L4,1.96L2.3,3.13L1.83,2.26L4.4,0.56L5,0.56L5,6.43Z" fill="currentColor"/><path d="M4.37,23.67C2.74,23.67,1.8,22.6,1.8,22.6L2.47,21.83C2.47,21.83,3.3,22.66,4.4,22.66C5.2,22.66,5.67,22.26,5.67,21.76C5.67,21.23,5.2,20.99,4.2,20.99L3.4,20.99L3.4,19.99L4.2,19.99C5.2,19.99,5.53,19.72,5.53,19.19C5.53,18.66,5.1,18.36,4.36,18.36C3.16,18.36,2.46,19.19,2.46,19.19L1.79,18.42C1.79,18.42,2.62,17.35,4.26,17.35C5.59,17.35,6.53,18.05,6.53,19.08C6.53,20.25,5.3,20.88,4.2,20.88L4.2,20.11C5.3,20.11,6.67,20.74,6.67,21.94C6.67,22.94,5.7,23.64,4.37,23.64Z" fill="currentColor"/><path d="M11.44,22C10.41,22,10.01,21.6,10.01,20.57L10.01,20.44C10.01,19.41,10.41,19.01,11.44,19.01L20.57,19.01C21.6,19.01,22,19.41,22,20.44L22,20.57C22,21.6,21.6,22,20.57,22Z" fill="currentColor"/><path d="M11.44,13.5C10.41,13.5,10.01,13.1,10.01,12.07L10.01,11.94C10.01,10.91,10.41,10.51,11.44,10.51L20.57,10.51C21.6,10.51,22,10.91,22,11.94L22,12.07C22,13.1,21.6,13.5,20.57,13.5Z" fill="currentColor"/><path d="M11.44,5C10.41,5,10.01,4.6,10.01,3.57L10.01,3.44C10.01,2.41,10.41,2.01,11.44,2.01L20.57,2.01C21.6,2.01,22,2.41,22,3.44L22,3.57C22,4.6,21.6,5,20.57,5Z" fill="currentColor"/></svg>