<svg xmlns="http://www.w3.org/2000/svg" viewBox="0 0 24 24" fill="currentColor"><path d="M13,14.52L13,14.51C13.1,14.52,13.2,14.52,13.3,14.52ZM17.5,14.52L17.2,14.52C17.3,14.52,17.4,14.52,17.5,14.51ZM5.5,9C5.5,7.5,6,7,7.5,7L9.02,7C9.02,5.63,10.13,4.53,11.5,4.53C12.87,4.53,13.98,5.63,13.98,7L15.5,7C17,7,17.5,7.5,17.5,9L17.5,10.03L16.86,9.19C15.93,8,14.57,8,13.64,9.19L11.84,11.57C11.45,12.05,11.3,12.56,11.33,13.01L10.47,13.01C8.2,13.01,6.97,14.24,6.97,16.51L6.97,18.51C6.97,19.31,7.12,19.98,7.42,20.52C5.98,20.5,5.5,19.99,5.5,18.51ZM12.63,7C12.63,6.38,12.12,5.88,11.5,5.88C10.88,5.88,10.38,6.38,10.38,7C10.38,7.62,10.88,8.13,11.5,8.13C12.12,8.13,12.63,7.62,12.63,7ZM20,20.5L10.49,20.5C8.99,20.5,8.49,20,8.49,18.5L8.49,16.49C8.49,14.99,8.99,14.49,10.49,14.49L14.49,14.49L14.49,12.99L13.29,12.99C12.84,12.99,12.74,12.79,13.01,12.44L14.81,10.12C15.09,9.77,15.39,9.77,15.66,10.12L17.46,12.44C17.74,12.8,17.63,12.99,17.18,12.99L15.98,12.99L15.98,14.49L19.98,14.49C21.48,14.49,21.98,14.99,21.98,16.49L21.98,18.5C21.98,20,21.48,20.5,19.98,20.5ZM10,19L20.5,19L20.5,16L10,16Z"/></svg>