<svg xmlns="http://www.w3.org/2000/svg" viewBox="0 0 24 24" fill="currentColor"><path d="M7,18.5C7,19,7,19,7.5,19L10,19L10,17.99C10.5,18.09,11.01,17.97,11.5,17.64L11.5,19L14.5,19L14.5,17.62C14.99,17.96,15.5,18.09,16,17.99L16,19L18.5,19C19,19,19,19,19,18.5L19,13.75L16.95,13.75L16.2,13L16.95,12.25L19,12.25L19,7.5C19,7,19,7,18.5,7L16,7L16,8.06C15.5,7.95,14.99,8.07,14.5,8.41L14.5,6.99L11.5,6.99L11.5,8.36C11.01,8.03,10.5,7.92,10,8.03L10,6.99L7.5,6.99C7,6.99,7,6.99,7,7.49L7,12.24L9.1,12.24L9.85,12.99L9.1,13.74L7,13.74ZM5.5,7.49C5.5,5.99,6,5.49,7.5,5.49L18.5,5.49C20,5.49,20.51,5.99,20.51,7.49L20.51,18.5C20.51,20,20,20.5,18.5,20.5L7.5,20.5C6,20.5,5.5,20,5.5,18.5ZM9.85,10.88C9.53,10.55,9.53,10.2,9.85,9.88L9.9,9.83C10.23,9.5,10.58,9.5,10.9,9.83L13.02,11.95L15.12,9.85C15.45,9.53,15.8,9.53,16.12,9.85L16.17,9.9C16.5,10.23,16.5,10.58,16.17,10.9L14.07,13L16.2,15.15C16.52,15.48,16.52,15.83,16.2,16.15L16.14,16.2C15.82,16.53,15.47,16.53,15.15,16.2L13.02,14.08L10.87,16.2C10.55,16.53,10.2,16.53,9.87,16.2L9.82,16.15C9.5,15.83,9.5,15.48,9.82,15.15L11.94,13Z"/></svg>