<svg xmlns="http://www.w3.org/2000/svg" viewBox="0 0 24 24"><path d="M3.5,10L8,10L8,3.5L10,3.5L10,10L14,10L14,3.5L16,3.5L16,10L20.5,10L20.5,12L3.5,12Z" fill="currentColor"/><path d="M19,18C20,18,20,18,20,17L20,5C20,4,20,4,19,4L5,4C4,4,4,4,4,5L4,17C4,18,4,18,5,18L5,20C2.77,20,2,19.23,2,17L2,5C2,2.77,2.77,2,5,2L19,2C21.23,2,22,2.77,22,5L22,17C22,19.23,21.23,20,19,20Z" fill="currentColor"/><path d="M10.97,23.03C10.97,23.66,11.3,24,11.9,24L12,24C12.63,24,12.97,23.67,12.97,23.07L12.97,20L16.07,20C16.67,20,17,19.67,17,19.03L17,18.93C17,18.33,16.67,18,16.03,18L12.96,18L12.96,14.97C12.96,14.34,12.63,14,12.03,14L11.93,14C11.3,14,10.96,14.33,10.96,14.93L10.96,18L7.93,18C7.33,18,7,18.33,7,18.97L7,19.07C7,19.67,7.33,20,7.97,20L10.97,20Z" fill="currentColor"/></svg>