<svg xmlns="http://www.w3.org/2000/svg" viewBox="0 0 24 24" fill="currentColor"><path d="M12.58,8.5C11.81,8.5,11.51,8.2,11.51,7.43L11.51,6.58C11.51,5.81,11.81,5.51,12.58,5.51L13.43,5.51C14.2,5.51,14.5,5.81,14.5,6.58L14.5,7.43C14.5,8.2,14.2,8.5,13.43,8.5ZM12.58,20.5C11.81,20.5,11.51,20.2,11.51,19.43L11.51,18.58C11.51,17.81,11.81,17.51,12.58,17.51L13.43,17.51C14.2,17.51,14.5,17.81,14.5,18.58L14.5,19.43C14.5,20.2,14.2,20.5,13.43,20.5ZM12.58,14.5C11.81,14.5,11.51,14.2,11.51,13.43L11.51,12.58C11.51,11.81,11.81,11.51,12.58,11.51L13.43,11.51C14.2,11.51,14.5,11.81,14.5,12.58L14.5,13.43C14.5,14.2,14.2,14.5,13.43,14.5ZM18.58,8.5C17.81,8.5,17.51,8.2,17.51,7.43L17.51,6.58C17.51,5.81,17.81,5.51,18.58,5.51L19.43,5.51C20.2,5.51,20.5,5.81,20.5,6.58L20.5,7.43C20.5,8.2,20.2,8.5,19.43,8.5ZM18.58,20.5C17.81,20.5,17.51,20.2,17.51,19.43L17.51,18.58C17.51,17.81,17.81,17.51,18.58,17.51L19.43,17.51C20.2,17.51,20.5,17.81,20.5,18.58L20.5,19.43C20.5,20.2,20.2,20.5,19.43,20.5ZM18.58,14.5C17.81,14.5,17.51,14.2,17.51,13.43L17.51,12.58C17.51,11.81,17.81,11.51,18.58,11.51L19.43,11.51C20.2,11.51,20.5,11.81,20.5,12.58L20.5,13.43C20.5,14.2,20.2,14.5,19.43,14.5ZM6.58,8.5C5.81,8.5,5.51,8.2,5.51,7.43L5.51,6.58C5.51,5.81,5.81,5.51,6.58,5.51L7.43,5.51C8.2,5.51,8.5,5.81,8.5,6.58L8.5,7.43C8.5,8.2,8.2,8.5,7.43,8.5ZM6.58,20.5C5.81,20.5,5.51,20.2,5.51,19.43L5.51,18.58C5.51,17.81,5.81,17.51,6.58,17.51L7.43,17.51C8.2,17.51,8.5,17.81,8.5,18.58L8.5,19.43C8.5,20.2,8.2,20.5,7.43,20.5ZM6.58,14.5C5.81,14.5,5.51,14.2,5.51,13.43L5.51,12.58C5.51,11.81,5.81,11.51,6.58,11.51L7.43,11.51C8.2,11.51,8.5,11.81,8.5,12.58L8.5,13.43C8.5,14.2,8.2,14.5,7.43,14.5Z"/></svg>