<svg xmlns="http://www.w3.org/2000/svg" viewBox="0 0 24 24"><path d="M11.2,24C10.17,24,9.9,23.63,10.27,22.67L14.54,11.47C14.94,10.4,15.54,10,16.67,10L17.37,10C18.5,10,19.1,10.4,19.5,11.47L23.73,22.67C24.1,23.64,23.83,24,22.8,24L22.37,24C21.34,24,20.8,23.63,20.47,22.63L17,12.66L13.53,22.63C13.2,23.63,12.66,24,11.63,24Z" fill="currentColor"/><path d="M10.57,15.67C6.74,13.57,3.1,10.07,2.4,7L5.5,7C6.37,8.87,8.9,11.3,11.8,12.9Z" fill="currentColor"/><path d="M2.73,16.97C1.76,17.37,1.23,17.17,0.8,16.24L0.73,16.11C0.3,15.18,0.5,14.64,1.46,14.24C7.33,11.64,10.69,8.11,10.99,4.51L13.99,4.51C13.69,9.81,9.19,14.08,2.72,16.98Z" fill="currentColor"/><path d="M12.77,21L12.77,18L20.7,18L20.7,21Z" fill="currentColor"/><path d="M1.43,5C0.4,5,0,4.6,0,3.57L0,3.44C0,2.41,0.4,2.01,1.43,2.01L14.53,2.01C15.56,2.01,15.96,2.41,15.96,3.44L15.96,3.57C15.96,4.6,15.56,5,14.53,5Z" fill="currentColor"/><path d="M6.5,1.43C6.5,0.4,6.9,0,7.93,0L8.06,0C9.09,0,9.49,0.4,9.49,1.43L9.49,3.5L6.49,3.5Z" fill="currentColor"/></svg>