<svg xmlns="http://www.w3.org/2000/svg" viewBox="0 0 24 24"><path d="M19.33,20C20,20,20,20,20,19.33L20,16L18.65,16C18.79,15.33,18.63,14.65,18.19,14L20,14L20,10L18.16,10C18.62,9.35,18.79,8.67,18.66,8L20,8L20,4.67C20,4,20,4,19.33,4L13,4L13,6.73L12,7.73L11,6.73L11,4L4.67,4C4,4,4,4,4,4.67L4,8L5.41,8C5.27,8.67,5.43,9.35,5.88,10L3.99,10L3.99,14L5.82,14C5.38,14.65,5.23,15.33,5.38,16L3.99,16L3.99,19.33C3.99,20,3.99,20,4.66,20L10.99,20L10.99,17.2L11.99,16.2L12.99,17.2L12.99,20Z" fill="currentColor"/><path d="M4.66,22C2.66,22,1.99,21.33,1.99,19.33L1.99,4.66C1.99,2.66,2.66,1.99,4.66,1.99L19.33,1.99C21.33,1.99,22,2.66,22,4.66L22,19.33C22,21.33,21.33,22,19.33,22Z" fill="currentColor"/><path d="M9.17,16.2C8.74,16.63,8.27,16.63,7.84,16.2L7.77,16.13C7.34,15.7,7.34,15.23,7.77,14.8L10.6,11.97L7.8,9.17C7.37,8.74,7.37,8.27,7.8,7.84L7.87,7.77C8.3,7.34,8.77,7.34,9.2,7.77L12,10.57L14.87,7.74C15.3,7.31,15.77,7.31,16.2,7.74L16.27,7.81C16.7,8.24,16.7,8.71,16.27,9.14L13.44,11.97L16.27,14.84C16.7,15.27,16.7,15.74,16.27,16.17L16.2,16.24C15.77,16.67,15.3,16.67,14.87,16.24L12,13.41Z" fill="currentColor"/></svg>