<svg xmlns="http://www.w3.org/2000/svg" viewBox="0 0 24 24" fill="currentColor"><path d="M9.25,5.88C8.63,5.88,8.13,6.38,8.13,7C8.13,7.62,8.63,8.13,9.25,8.13C9.87,8.13,10.38,7.62,10.38,7C10.38,6.38,9.87,5.88,9.25,5.88ZM4,9C4,7.5,4.5,7,6,7L6.78,7C6.78,5.63,7.88,4.53,9.25,4.53C10.62,4.53,11.73,5.63,11.73,7L12.5,7C13.82,7,14.37,7.39,14.48,8.5L13,8.5C11.27,8.5,10,9.77,10,11.5L10,19L6,19C4.5,19,4,18.5,4,17ZM17.5,20C17.5,21.5,17,22,15.5,22L13.49,22C11.99,22,11.49,21.5,11.49,20L11.49,11.99C11.49,10.49,11.99,9.99,13.49,9.99L15.5,9.99C17,9.99,17.5,10.49,17.5,11.99L17.5,15.24L19,15.24L19,14.04C19,13.59,19.2,13.49,19.55,13.79L21.67,15.54C22.02,15.84,22.02,16.14,21.67,16.44L19.55,18.19C19.2,18.49,19,18.39,19,17.94L19,16.74L17.5,16.74ZM16,20.5L16,11.5L13,11.5L13,20.5Z"/></svg>