<svg xmlns="http://www.w3.org/2000/svg" viewBox="0 0 24 24"><path d="M20.5,14L16,14L16,20.5L14,20.5L14,14L10,14L10,20.5L8,20.5L8,14L3.5,14L3.5,12L20.5,12Z" fill="currentColor"/><path d="M5,6C4,6,4,6,4,7L4,19C4,20,4,20,5,20L19,20C20,20,20,20,20,19L20,7C20,6,20,6,19,6L19,4C21.23,4,22,4.77,22,7L22,19C22,21.23,21.23,22,19,22L5,22C2.77,22,2,21.23,2,19L2,7C2,4.77,2.77,4,5,4Z" fill="currentColor"/><path d="M13.03,0.97C13.03,0.34,12.7,0,12.1,0L12,0C11.37,0,11.03,0.33,11.03,0.93L11.03,4L7.93,4C7.33,4,7,4.33,7,4.97L7,5.07C7,5.67,7.33,6,7.97,6L11.04,6L11.04,9.03C11.04,9.66,11.37,10,11.97,10L12.07,10C12.7,10,13.04,9.67,13.04,9.07L13.04,6L16.07,6C16.67,6,17,5.67,17,5.03L17,4.93C17,4.33,16.67,4,16.03,4L13.03,4Z" fill="currentColor"/></svg>