<svg xmlns="http://www.w3.org/2000/svg" viewBox="0 0 24 24" fill="currentColor"><path d="M6.21,20.5C5.76,20.5,5.51,20.25,5.51,19.8L5.51,19.71C5.51,19.25,5.76,19.01,6.21,19.01L19.8,19.01C20.25,19.01,20.5,19.25,20.5,19.71L20.5,19.8C20.5,20.25,20.25,20.5,19.8,20.5ZM8.27,17.5L7.02,17.5C6.25,17.5,6.07,17.22,6.37,16.52L10.72,6.47C11.02,5.78,11.45,5.5,12.22,5.5L13.77,5.5C14.54,5.5,14.97,5.78,15.27,6.47L19.62,16.52C19.92,17.22,19.75,17.5,18.97,17.5L17.24,17.5C16.77,17.5,16.49,17.22,16.2,16.5L12.29,6.85L13.62,6.85L9.59,16.9C9.42,17.33,9.05,17.5,8.27,17.5ZM9.3,15L9.96,12.51L16.05,12.51L16.71,15Z"/></svg>