<svg xmlns="http://www.w3.org/2000/svg" viewBox="0 0 24 24"><path d="M4.2,17.64C5.2,16.07,7.17,15.64,8.6,16.57C8.79,16.69,8.97,16.82,9.14,16.97L11.17,19.34L10.37,20.34C8.3,22.87,6.57,23.04,5.07,22.07C3.6,21.1,3.24,19.14,4.2,17.64Z" fill="currentColor"/><path d="M8.2,20.13C8.67,19.46,8.43,18.5,7.73,18.03C7.03,17.56,6.06,17.76,5.6,18.43C5.13,19.16,5.33,20.16,6.03,20.63C6.73,21.1,7.73,20.86,8.2,20.13Z" fill="currentColor"/><path d="M2,7.33C2,8,2,8,2.67,8L2.89,8C2.94,8.65,3.14,9.33,3.48,10L2.67,10C0.67,10,0,9.33,0,7.33L0,4.66C0,2.66,0.67,1.99,2.67,1.99L21.34,1.99C23.34,1.99,24.01,2.66,24.01,4.66L24.01,7.33C24.01,9.33,23.34,10,21.34,10L11.64,10L10.29,8L21.34,8C22.01,8,22.01,8,22.01,7.33L22.01,4.66C22.01,3.99,22.01,3.99,21.34,3.99L2.67,3.99C2,3.99,2,3.99,2,4.66Z" fill="currentColor"/><path d="M13.22,12.34L13.44,12L17.04,12L14.84,14.75Z" fill="currentColor"/><path d="M13.93,20.34L6.8,11.44C3.47,7.31,5.6,5.94,6.5,5.34L15.6,19.27L13.27,18.67C14.17,18.04,14.8,17.14,15.7,16.57C17.13,15.64,19.1,16.07,20.1,17.64C21.07,19.14,20.7,21.11,19.23,22.07C17.73,23.04,16,22.87,13.93,20.34Z" fill="currentColor"/><path d="M18.7,18.43C18.23,17.76,17.27,17.56,16.57,18.03C15.87,18.5,15.64,19.46,16.1,20.13C16.57,20.86,17.57,21.1,18.27,20.63C18.97,20.16,19.17,19.16,18.7,18.43Z" fill="currentColor"/></svg>