<svg xmlns="http://www.w3.org/2000/svg" viewBox="0 0 24 24" fill="currentColor"><path d="M18.5,19C19,19,19,19,19,18.5L19,16L17.99,16C18.09,15.5,17.97,14.99,17.64,14.5L19,14.5L19,11.5L17.62,11.5C17.96,11.01,18.09,10.5,17.99,10L19,10L19,7.5C19,7,19,7,18.5,7L13.75,7L13.75,9.05L13,9.8L12.25,9.05L12.25,7L7.5,7C7,7,7,7,7,7.5L7,10L8.06,10C7.95,10.5,8.07,11.01,8.41,11.5L6.99,11.5L6.99,14.5L8.36,14.5C8.03,14.99,7.92,15.5,8.03,16L6.99,16L6.99,18.5C6.99,19,6.99,19,7.49,19L12.24,19L12.24,16.9L12.99,16.15L13.74,16.9L13.74,19ZM7.49,20.5C5.99,20.5,5.49,20,5.49,18.5L5.49,7.49C5.49,5.99,5.99,5.49,7.49,5.49L18.5,5.49C20,5.49,20.5,5.99,20.5,7.49L20.5,18.5C20.5,20,20,20.5,18.5,20.5ZM10.88,16.15C10.55,16.47,10.2,16.47,9.88,16.15L9.83,16.1C9.5,15.77,9.5,15.42,9.83,15.1L11.95,12.98L9.85,10.88C9.53,10.55,9.53,10.2,9.85,9.88L9.9,9.83C10.23,9.5,10.58,9.5,10.9,9.83L13,11.93L15.15,9.8C15.48,9.48,15.83,9.48,16.15,9.8L16.2,9.86C16.53,10.18,16.53,10.53,16.2,10.85L14.08,12.98L16.2,15.13C16.53,15.45,16.53,15.8,16.2,16.13L16.15,16.18C15.83,16.5,15.48,16.5,15.15,16.18L13,14.06Z"/></svg>