<svg xmlns="http://www.w3.org/2000/svg" viewBox="0 0 24 24"><path d="M21.33,20L16,20L16,10C16,7.7,14.3,6,12,6L10.03,6C10.18,4.52,10.91,4,12.67,4L13.7,4C13.7,2.17,15.17,0.7,17,0.7C18.83,0.7,20.3,2.17,20.3,4L21.33,4C23.33,4,24,4.67,24,6.67L24,17.34C24,19.34,23.33,20.01,21.33,20.01Z" fill="currentColor"/><path d="M18.5,4C18.5,3.17,17.83,2.5,17,2.5C16.17,2.5,15.5,3.17,15.5,4C15.5,4.83,16.17,5.5,17,5.5C17.83,5.5,18.5,4.83,18.5,4Z" fill="currentColor"/><path d="M11.33,24L8.66,24C6.66,24,5.99,23.33,5.99,21.33L5.99,17L3.99,17L3.99,18.6C3.99,19.2,3.72,19.33,3.26,18.93L0.43,16.6C-0.04,16.2,-0.04,15.8,0.43,15.4L3.26,13.07C3.73,12.67,3.99,12.8,3.99,13.4L3.99,15L5.99,15L5.99,10.67C5.99,8.67,6.66,8,8.66,8L11.33,8C13.33,8,14,8.67,14,10.67L14,21.34C14,23.34,13.33,24.01,11.33,24.01Z" fill="currentColor"/><path d="M8,22L12,22L12,10L8,10Z" fill="currentColor"/></svg>