<svg xmlns="http://www.w3.org/2000/svg" viewBox="0 0 24 24"><path d="M9.5,4C9.5,3.17,8.83,2.5,8,2.5C7.17,2.5,6.5,3.17,6.5,4C6.5,4.83,7.17,5.5,8,5.5C8.83,5.5,9.5,4.83,9.5,4Z" fill="currentColor"/><path d="M10.53,21.98L10.55,22L3,22C0.77,22,0,21.23,0,19L0,7C0,4.77,0.77,4,3,4L4.7,4C4.7,2.17,6.17,0.7,8,0.7C9.83,0.7,11.3,2.17,11.3,4L13,4C15.23,4,16,4.77,16,7L16,8L8.63,8C5.6,8,3.96,9.64,3.96,12.67L3.96,15.34C3.96,18.37,5.6,20.01,8.63,20.01L9.79,20.01C9.74,20.64,9.96,21.34,10.52,21.99Z" fill="currentColor"/><path d="M12,17.97L12.4,17.97C12.26,17.97,12.13,17.98,12,17.99Z" fill="currentColor"/><path d="M24,12.67L24,15.34C24,17.34,23.33,18.01,21.33,18.01L16,18.01L16,20.01L17.6,20.01C18.2,20.01,18.33,20.28,17.93,20.74L15.6,23.57C15.2,24.04,14.8,24.04,14.4,23.57L12.07,20.74C11.67,20.27,11.8,20.01,12.4,20.01L14,20.01L14,18.01L8.67,18.01C6.67,18.01,6,17.34,6,15.34L6,12.67C6,10.67,6.67,10,8.67,10L21.34,10C23.34,10,24.01,10.67,24.01,12.67Z" fill="currentColor"/><path d="M22,16L22,12L8,12L8,16Z" fill="currentColor"/></svg>