<svg xmlns="http://www.w3.org/2000/svg" viewBox="0 0 24 24"><path d="M3.94,6C2.34,6,2.01,5.67,2.01,4.07L2.01,3.94C2.01,2.34,2.34,2.01,3.94,2.01L20.07,2.01C21.67,2.01,22,2.34,22,3.94L22,4.07C22,5.67,21.67,6,20.07,6Z" fill="currentColor"/><path d="M3.94,22C2.34,22,2.01,21.67,2.01,20.07L2.01,19.94C2.01,18.34,2.34,18.01,3.94,18.01L20.07,18.01C21.67,18.01,22,18.34,22,19.94L22,20.07C22,21.67,21.67,22,20.07,22Z" fill="currentColor"/><path d="M3.94,14C2.34,14,2.01,13.67,2.01,12.07L2.01,11.94C2.01,10.34,2.34,10.01,3.94,10.01L20.07,10.01C21.67,10.01,22,10.34,22,11.94L22,12.07C22,13.67,21.67,14,20.07,14Z" fill="currentColor"/></svg>