<svg xmlns="http://www.w3.org/2000/svg" viewBox="0 0 24 24" fill="currentColor"><path d="M12.38,18.5L11.78,19.25C10.22,21.15,8.93,21.28,7.8,20.55C6.7,19.83,6.43,18.36,7.15,17.23C7.9,16.05,9.38,15.73,10.45,16.43C10.59,16.52,10.73,16.62,10.86,16.73ZM10.15,19.1C10.5,18.59,10.32,17.88,9.8,17.52C9.27,17.17,8.54,17.32,8.2,17.82C7.85,18.37,8,19.12,8.52,19.47C9.05,19.82,9.8,19.64,10.15,19.1ZM5.5,9.5C5.5,10,5.5,10,6,10L6.17,10C6.21,10.49,6.35,11,6.61,11.5L6,11.5C4.5,11.5,4,11,4,9.5L4,7.5C4,6,4.5,5.49,6,5.49L20.01,5.49C21.51,5.49,22.01,6,22.01,7.5L22.01,9.5C22.01,11,21.51,11.5,20.01,11.5L12.73,11.5L11.72,10L20.01,10C20.51,10,20.51,10,20.51,9.5L20.51,7.5C20.51,6.99,20.51,6.99,20.01,6.99L6,6.99C5.5,6.99,5.5,6.99,5.5,7.5ZM13.91,13.25L14.08,13L16.78,13L15.13,15.06ZM9.1,12.58C6.6,9.48,8.2,8.46,8.88,8L15.7,18.45L13.95,18C14.63,17.53,15.1,16.85,15.78,16.43C16.85,15.73,18.33,16.05,19.08,17.23C19.8,18.35,19.53,19.83,18.42,20.55C17.3,21.28,16,21.15,14.45,19.25ZM18.02,17.82C17.67,17.32,16.95,17.17,16.43,17.52C15.9,17.88,15.73,18.59,16.08,19.1C16.43,19.65,17.18,19.83,17.7,19.47C18.23,19.12,18.38,18.37,18.02,17.82Z"/></svg>