<svg xmlns="http://www.w3.org/2000/svg" viewBox="0 0 24 24" fill="currentColor"><path d="M6.96,8.5C5.76,8.5,5.51,8.25,5.51,7.05L5.51,6.96C5.51,5.75,5.76,5.51,6.96,5.51L19.05,5.51C20.25,5.51,20.5,5.76,20.5,6.96L20.5,7.05C20.5,8.25,20.25,8.5,19.05,8.5ZM6.96,20.5C5.76,20.5,5.51,20.25,5.51,19.05L5.51,18.96C5.51,17.75,5.76,17.51,6.96,17.51L19.05,17.51C20.25,17.51,20.5,17.75,20.5,18.96L20.5,19.05C20.5,20.25,20.25,20.5,19.05,20.5ZM6.96,14.5C5.76,14.5,5.51,14.25,5.51,13.05L5.51,12.96C5.51,11.75,5.76,11.51,6.96,11.51L19.05,11.51C20.25,11.51,20.5,11.75,20.5,12.96L20.5,13.05C20.5,14.25,20.25,14.5,19.05,14.5Z"/></svg>