<svg xmlns="http://www.w3.org/2000/svg" viewBox="0 0 24 24"><path d="M8,20L8,16L4,16L4,19C4,20,4,20,5,20Z" fill="currentColor"/><path d="M5,22C2.77,22,2,21.23,2,19L2,5C2,2.77,2.77,2,5,2L19,2C21.23,2,22,2.77,22,5L22,19C22,21.23,21.23,22,19,22Z" fill="currentColor"/><path d="M4,8L8,8L8,4L5,4C4,4,4,4,4,5Z" fill="currentColor"/><path d="M10,20L14,20L14,16L10,16Z" fill="currentColor"/><path d="M10,8L14,8L14,4L10,4Z" fill="currentColor"/><path d="M16,20L19,20C20,20,20,20,20,19L20,16L16,16Z" fill="currentColor"/><path d="M16,8L20,8L20,5C20,4,20,4,19,4L16,4Z" fill="currentColor"/></svg>