<svg xmlns="http://www.w3.org/2000/svg" viewBox="0 0 24 24"><path d="M19.6,11L15.4,11C13.6,11,13,10.4,13,8.6L13,4.4C13,2.6,13.67,2,15.67,2L19.34,2C21.34,2,22.01,2.67,22.01,4.67L22.01,8.34C22.01,10.34,21.41,11.01,19.61,11.01Z" fill="currentColor"/><path d="M8.33,22L4.66,22C2.66,22,1.99,21.33,1.99,19.33L1.99,15.66C1.99,13.66,2.59,12.99,4.39,12.99L8.59,12.99C10.39,12.99,10.99,13.59,10.99,15.39L10.99,19.59C10.99,21.39,10.32,21.99,8.32,21.99Z" fill="currentColor"/><path d="M8.6,11L4.4,11C2.6,11,2,10.33,2,8.33L2,4.66C2,2.66,2.67,1.99,4.67,1.99L8.34,1.99C10.34,1.99,11.01,2.59,11.01,4.39L11.01,8.59C11.01,10.39,10.41,10.99,8.61,10.99Z" fill="currentColor"/><path d="M19.33,22L15.66,22C13.66,22,12.99,21.4,12.99,19.6L12.99,15.4C12.99,13.6,13.59,13,15.39,13L19.59,13C21.39,13,21.99,13.67,21.99,15.67L21.99,19.34C21.99,21.34,21.32,22.01,19.32,22.01Z" fill="currentColor"/></svg>