<svg xmlns="http://www.w3.org/2000/svg" viewBox="0 0 24 24" fill="currentColor"><path d="M13.92,16.75C15.35,16.75,15.55,16.55,15.55,15.75C15.55,14.97,15.44,14.85,13.92,14.85L8.75,14.85L8.75,11.1L13.47,11.1C14.68,11.1,14.95,10.84,14.95,10.13C14.95,9.43,14.77,9.25,13.47,9.25L9.1,9.25C8.87,9.25,10.62,7.5,10.62,7.73L10.62,18.28C10.62,18.51,8.87,16.76,9.1,16.76ZM13.92,20.5L9.1,20.5C7.83,20.5,6.87,19.55,6.87,18.27L6.87,7.72C6.87,6.45,7.82,5.49,9.1,5.49L13.47,5.49C16.83,5.49,18.7,7.76,18.7,10.12C18.7,12.39,16.92,14.85,13.47,14.85L8.75,14.85L8.75,11.1L13.92,11.1C17.56,11.1,19.3,13.35,19.3,15.75C19.3,18.07,17.65,20.49,13.92,20.49Z"/></svg>