<svg xmlns="http://www.w3.org/2000/svg" viewBox="0 0 24 24"><path d="M8.5,4C8.5,3.17,7.83,2.5,7,2.5C6.17,2.5,5.5,3.17,5.5,4C5.5,4.83,6.17,5.5,7,5.5C7.83,5.5,8.5,4.83,8.5,4Z" fill="currentColor"/><path d="M0,6.67C0,4.67,0.67,4,2.67,4L3.7,4C3.7,2.17,5.17,0.7,7,0.7C8.83,0.7,10.3,2.17,10.3,4L11.33,4C13.09,4,13.82,4.52,13.97,6L12,6C9.7,6,8,7.7,8,10L8,20L2.67,20C0.67,20,0,19.33,0,17.33Z" fill="currentColor"/><path d="M18,21.33C18,23.33,17.33,24,15.33,24L12.66,24C10.66,24,9.99,23.33,9.99,21.33L9.99,10.66C9.99,8.66,10.66,7.99,12.66,7.99L15.33,7.99C17.33,7.99,18,8.66,18,10.66L18,14.99L20,14.99L20,13.39C20,12.79,20.27,12.66,20.73,13.06L23.56,15.39C24.03,15.79,24.03,16.19,23.56,16.59L20.73,18.92C20.26,19.32,20,19.19,20,18.59L20,16.99L18,16.99Z" fill="currentColor"/><path d="M16,22L16,10L12,10L12,22Z" fill="currentColor"/></svg>