<svg xmlns="http://www.w3.org/2000/svg" viewBox="0 0 24 24" fill="currentColor"><path d="M12.96,8.5C11.75,8.5,11.51,8.25,11.51,7.05L11.51,6.96C11.51,5.75,11.75,5.51,12.96,5.51L20.55,5.51C21.75,5.51,22,5.76,22,6.96L22,7.05C22,8.25,21.75,8.5,20.55,8.5ZM12.96,20.5C11.76,20.5,11.51,20.25,11.51,19.05L11.51,18.96C11.51,17.75,11.76,17.51,12.96,17.51L17.55,17.51C18.75,17.51,19,17.75,19,18.96L19,19.05C19,20.25,18.75,20.5,17.55,20.5ZM12.96,14.5C11.75,14.5,11.51,14.25,11.51,13.05L11.51,12.96C11.51,11.75,11.75,11.51,12.96,11.51L20.55,11.51C21.75,11.51,22,11.75,22,12.96L22,13.05C22,14.25,21.75,14.5,20.55,14.5ZM7.65,9.9C8.25,9.42,8.5,9.54,8.5,10.32L8.5,15.67C8.5,16.44,8.25,16.57,7.65,16.1L4.45,13.65C3.85,13.17,3.85,12.82,4.45,12.35Z"/></svg>