<svg xmlns="http://www.w3.org/2000/svg" viewBox="0 0 24 24" fill="currentColor"><path d="M14.5,6.7C17.35,7.38,19.47,9.94,19.47,13C19.47,16.02,17.35,18.61,14.5,19.3L14.5,20.55C14.5,21.75,14.25,22,13.05,22L12.96,22C11.75,22,11.51,21.75,11.51,20.55L11.51,19.29C8.69,18.6,6.54,16.01,6.54,13C6.54,9.95,8.69,7.39,11.51,6.7L11.51,5.45C11.51,4.25,11.75,4,12.96,4L13.05,4C14.25,4,14.5,4.25,14.5,5.45ZM13,9.53C11.1,9.53,9.53,11.1,9.53,13C9.53,14.9,11.1,16.47,13,16.47C14.9,16.47,16.47,14.9,16.47,13C16.47,11.1,14.9,9.53,13,9.53Z"/></svg>