<svg xmlns="http://www.w3.org/2000/svg" viewBox="0 0 24 24"><path d="M2.94,22C2.34,22,2.01,21.67,2.01,21.07L2.01,20.94C2.01,20.34,2.34,20.01,2.94,20.01L21.07,20.01C21.67,20.01,22,20.34,22,20.94L22,21.07C22,21.67,21.67,22,21.07,22Z" fill="currentColor"/><path d="M5.7,18L4.03,18C3,18,2.76,17.63,3.16,16.7L8.96,3.3C9.36,2.37,9.93,2,10.96,2L13.03,2C14.06,2,14.63,2.37,15.03,3.3L20.83,16.7C21.23,17.63,21,18,19.96,18L17.66,18C17.03,18,16.66,17.63,16.26,16.67L11.06,3.8L12.83,3.8L7.46,17.2C7.23,17.77,6.73,18,5.69,18Z" fill="currentColor"/><path d="M7.07,14.67L7.94,11.34L16.07,11.34L16.94,14.67Z" fill="currentColor"/></svg>