<svg xmlns="http://www.w3.org/2000/svg" viewBox="0 0 24 24"><path d="M8.64,7.33C7.71,7.33,7.34,6.96,7.34,6.03L7.34,3.3C7.34,2.37,7.74,2,8.77,2L11.24,2C12.27,2,12.67,2.43,12.67,3.6L12.67,5.73C12.67,6.86,12.3,7.33,11.37,7.33Z" fill="currentColor"/><path d="M1.6,14.67C0.47,14.67,0,14.27,0,13.24L0,10.77C0,9.74,0.37,9.34,1.3,9.34L4.03,9.34C4.96,9.34,5.33,9.71,5.33,10.64L5.33,13.37C5.33,14.3,4.9,14.67,3.73,14.67Z" fill="currentColor"/><path d="M1.3,7.33C0.37,7.33,0,6.93,0,5.9L0,3.43C0,2.4,0.4,2,1.43,2L3.9,2C4.93,2,5.33,2.37,5.33,3.3L5.33,6.03C5.33,6.96,4.96,7.33,4.03,7.33Z" fill="currentColor"/><path d="M15.97,7.33C15.04,7.33,14.67,6.96,14.67,6.03L14.67,3.3C14.67,2.37,15.07,2,16.1,2L18.57,2C19.6,2,20,2.4,20,3.43L20,5.9C20,6.93,19.63,7.33,18.7,7.33Z" fill="currentColor"/><path d="M1.43,22C0.4,22,0,21.6,0,20.57L0,18.1C0,17.07,0.37,16.67,1.3,16.67L4.03,16.67C4.96,16.67,5.33,17.04,5.33,17.97L5.33,20.7C5.33,21.63,4.93,22,3.9,22Z" fill="currentColor"/><path d="M7.33,10.63C7.33,9.7,7.7,9.33,8.63,9.33L11.36,9.33C11.64,9.33,11.87,9.37,12.05,9.46C10.24,10.64,8.89,12.47,8.31,14.62C7.62,14.49,7.33,14.11,7.33,13.37Z" fill="currentColor"/><path d="M7.33,17.97C7.33,17.28,7.53,16.9,8,16.75C7.99,16.83,7.99,16.92,7.99,17C7.99,18.86,8.54,20.57,9.49,22L8.76,22C7.73,22,7.33,21.63,7.33,20.7Z" fill="currentColor"/><path d="M10.03,17C10.03,13.17,13.2,10.03,17,10.03C20.83,10.03,23.97,13.16,23.97,17C23.97,20.8,20.84,23.97,17,23.97C13.2,23.97,10.03,20.8,10.03,17Z" fill="currentColor"/><path d="M13.33,20.6C13.8,21.07,14.26,21.1,14.76,20.6L16.96,18.4L19.23,20.6C19.7,21.07,20.16,21.07,20.63,20.6C21.1,20.13,21.13,19.63,20.63,19.17L18.4,16.97L20.63,14.74C21.1,14.27,21.1,13.81,20.63,13.34C20.16,12.87,19.7,12.84,19.2,13.34L16.97,15.57L14.77,13.37C14.3,12.9,13.84,12.9,13.37,13.37C12.9,13.84,12.87,14.34,13.37,14.8L15.57,16.97L13.34,19.2C12.87,19.67,12.87,20.13,13.34,20.6Z" fill="currentColor"/></svg>