<svg xmlns="http://www.w3.org/2000/svg" viewBox="0 0 24 24"><path d="M17.3,11L22,6.3L22,8.33C22,10.33,21.4,11,19.6,11Z" fill="currentColor"/><path d="M6.3,22L11,17.3L11,19.6C11,21.4,10.33,22,8.33,22Z" fill="currentColor"/><path d="M8.6,11L4.4,11C2.6,11,2,10.33,2,8.33L2,4.66C2,2.66,2.67,1.99,4.67,1.99L8.34,1.99C10.34,1.99,11.01,2.59,11.01,4.39L11.01,8.59C11.01,10.39,10.41,10.99,8.61,10.99Z" fill="currentColor"/><path d="M19.33,22L15.66,22C13.66,22,12.99,21.4,12.99,19.6L12.99,15.4C12.99,15.37,12.99,15.33,12.99,15.3L15.29,13C15.32,13,15.36,13,15.39,13L19.59,13C21.39,13,21.99,13.67,21.99,15.67L21.99,19.34C21.99,21.34,21.32,22.01,19.32,22.01Z" fill="currentColor"/><path d="M23.4,2.03L21.9,3.53L14.51,10.92L10.94,14.49L3.55,21.88L2.11,23.32L2.08,23.35C1.65,23.78,1.18,23.78,0.75,23.35L0.65,23.25C0.22,22.82,0.22,22.35,0.65,21.92L2.12,20.45C2.05,20.13,2.02,19.76,2.02,19.32L2.02,15.65C2.02,13.65,2.62,12.98,4.42,12.98L8.62,12.98C8.96,12.98,9.26,13,9.52,13.05L13.09,9.48C13.04,9.22,13.02,8.92,13.02,8.58L13.02,4.38C13.02,2.58,13.69,1.98,15.69,1.98L19.36,1.98C19.8,1.98,20.17,2.01,20.49,2.08L21.99,0.58C22.42,0.15,22.89,0.15,23.32,0.58L23.42,0.68C23.84,1.1,23.85,1.56,23.45,1.98C23.44,1.99,23.43,2,23.42,2.01Z" fill="currentColor"/></svg>