<svg xmlns="http://www.w3.org/2000/svg" viewBox="0 0 24 24" fill="currentColor"><path d="M17.55,8.5L14.8,8.5L5.45,8.5C4.25,8.5,4,8.25,4,7.05L4,6.96C4,5.75,4.25,5.51,5.45,5.51L17.54,5.51C18.74,5.51,18.99,5.76,18.99,6.96L18.99,7.05C18.99,8.25,18.74,8.5,17.54,8.5ZM4,12.95C4,11.75,4.25,11.5,5.45,11.5L12.23,11.5C12.27,12.88,12.44,13.79,12.76,14.5L5.44,14.5C4.24,14.5,3.99,14.25,3.99,13.05ZM4,18.95C4,17.75,4.25,17.5,5.45,17.5L12.82,17.5C12.45,18.25,12.31,19.15,12.25,20.5L5.45,20.5C4.25,20.5,4,20.25,4,19.05ZM14.83,22C14.06,22,13.76,21.7,13.76,20.93C13.78,18,14.04,17.83,16.33,16C14.03,14.18,13.78,14.03,13.76,11.1C13.76,10.33,14.06,10.03,14.83,10.03L20.93,10.03C21.7,10.03,22,10.33,22,11.1C21.98,14.03,21.72,14.18,19.43,16C21.73,17.82,21.98,18,22,20.93C22,21.7,21.7,22,20.93,22ZM15.23,20.5L20.53,20.5C20.53,17.95,18.13,18.95,18.13,17.25L18.13,16.03C18.13,15.58,18.3,15.13,18.58,14.81L20.4,12.73C20.8,12.26,20.43,12.18,17.8,12.18C15.33,12.18,14.97,12.26,15.35,12.71L17.17,14.81C17.45,15.13,17.62,15.58,17.62,16.03L17.62,17.25C17.62,18.96,15.22,18.03,15.22,20.5Z"/></svg>