<svg xmlns="http://www.w3.org/2000/svg" viewBox="0 0 24 24" fill="currentColor"><path d="M5.5,15.23L5.5,14.3L6.98,13.18C7.73,12.6,8.03,12.38,8.03,12.08C8.03,11.75,7.71,11.53,7.22,11.53C6.53,11.53,6,12.23,6,12.23L5.42,11.72C5.42,11.72,6.02,10.77,7.2,10.77C8.08,10.77,8.78,11.27,8.78,12.05C8.78,12.65,8.35,13.07,7.65,13.6L6.5,14.48L8.93,14.48L8.93,15.23ZM7,8.82L7,5.47L5.72,6.35L5.37,5.7L7.3,4.42L7.75,4.42L7.75,8.82ZM7.28,21.75C6.05,21.75,5.35,20.95,5.35,20.95L5.85,20.37C5.85,20.37,6.47,21,7.3,21C7.9,21,8.25,20.7,8.25,20.32C8.25,19.92,7.9,19.74,7.15,19.74L6.55,19.74L6.55,18.99L7.15,18.99C7.9,18.99,8.15,18.79,8.15,18.39C8.15,18,7.82,17.77,7.27,17.77C6.37,17.77,5.84,18.39,5.84,18.39L5.34,17.82C5.34,17.82,5.96,17.01,7.19,17.01C8.19,17.01,8.9,17.54,8.9,18.31C8.9,19.19,7.97,19.66,7.15,19.66L7.15,19.08C7.97,19.08,9,19.55,9,20.46C9,21.21,8.27,21.73,7.28,21.73ZM12.58,20.5C11.81,20.5,11.51,20.2,11.51,19.43L11.51,19.33C11.51,18.56,11.81,18.26,12.58,18.26L19.43,18.26C20.2,18.26,20.5,18.56,20.5,19.33L20.5,19.43C20.5,20.2,20.2,20.5,19.43,20.5ZM12.58,14.13C11.81,14.13,11.51,13.83,11.51,13.05L11.51,12.96C11.51,12.18,11.81,11.88,12.58,11.88L19.43,11.88C20.2,11.88,20.5,12.18,20.5,12.96L20.5,13.05C20.5,13.83,20.2,14.13,19.43,14.13ZM12.58,7.75C11.81,7.75,11.51,7.45,11.51,6.68L11.51,6.58C11.51,5.81,11.81,5.51,12.58,5.51L19.43,5.51C20.2,5.51,20.5,5.81,20.5,6.58L20.5,6.68C20.5,7.45,20.2,7.75,19.43,7.75Z"/></svg>