<svg xmlns="http://www.w3.org/2000/svg" viewBox="0 0 24 24" fill="currentColor"><path d="M13,17.75C9.63,17.75,7,15.7,7,11.27L7,6.95C7,5.75,7.25,5.5,8.45,5.5L8.54,5.5C9.75,5.5,9.99,5.75,9.99,6.95L9.99,11.27C9.99,13.73,10.97,14.75,12.99,14.75C15.07,14.75,15.99,13.75,15.99,11.27L15.99,6.95C15.99,5.75,16.24,5.5,17.44,5.5L17.54,5.5C18.74,5.5,18.98,5.75,18.98,6.95L18.98,11.27C18.98,15.68,16.46,17.75,12.98,17.75ZM6.21,20.5C5.76,20.5,5.51,20.25,5.51,19.8L5.51,19.71C5.51,19.25,5.76,19.01,6.21,19.01L19.8,19.01C20.25,19.01,20.5,19.25,20.5,19.71L20.5,19.8C20.5,20.25,20.25,20.5,19.8,20.5Z"/></svg>