<svg xmlns="http://www.w3.org/2000/svg" viewBox="0 0 24 24"><path d="M21,16L3,16L3,14L21,14Z" fill="currentColor"/><path d="M21,8L21,10L3,10L3,8Z" fill="currentColor"/><path d="M20,4.67C20,4,20,4,19.33,4L4.66,4C3.99,4,3.99,4,3.99,4.67L3.99,19.34C3.99,20.01,3.99,20.01,4.66,20.01L19.33,20.01C20,20.01,20,20.01,20,19.34Z" fill="currentColor"/><path d="M22,19.34C22,21.34,21.33,22.01,19.33,22.01L4.66,22.01C2.66,22.01,1.99,21.34,1.99,19.34L1.99,4.67C1.99,2.67,2.66,2,4.66,2L19.33,2C21.33,2,22,2.67,22,4.67Z" fill="currentColor"/></svg>