<svg xmlns="http://www.w3.org/2000/svg" viewBox="0 0 24 24" fill="currentColor"><path d="M6.63,11.5L10,11.5L10,6.63L11.5,6.63L11.5,11.5L14.5,11.5L14.5,6.63L16,6.63L16,11.5L19.38,11.5L19.38,13L6.63,13ZM18.25,17.5C19,17.5,19,17.5,19,16.75L19,7.75C19,7,19,7,18.25,7L7.75,7C7,7,7,7,7,7.75L7,16.75C7,17.5,7,17.5,7.75,17.5L7.75,19C6.08,19,5.5,18.42,5.5,16.75L5.5,7.75C5.5,6.08,6.08,5.5,7.75,5.5L18.25,5.5C19.92,5.5,20.5,6.08,20.5,7.75L20.5,16.75C20.5,18.42,19.92,19,18.25,19ZM12.23,21.27C12.23,21.75,12.48,22,12.93,22L13,22C13.47,22,13.73,21.75,13.73,21.3L13.73,19L16.05,19C16.5,19,16.75,18.75,16.75,18.27L16.75,18.2C16.75,17.75,16.5,17.5,16.02,17.5L13.72,17.5L13.72,15.23C13.72,14.75,13.47,14.5,13.02,14.5L12.95,14.5C12.48,14.5,12.22,14.75,12.22,15.2L12.22,17.5L9.95,17.5C9.5,17.5,9.25,17.75,9.25,18.23L9.25,18.3C9.25,18.75,9.5,19,9.98,19L12.23,19Z"/></svg>