<svg xmlns="http://www.w3.org/2000/svg" viewBox="0 0 24 24" fill="currentColor"><path d="M6.55,20.5L5.15,20.5C4.38,20.5,4.25,20.25,4.7,19.62L9.38,12.86L4.97,6.4C4.54,5.75,4.67,5.5,5.44,5.5L6.81,5.5C7.58,5.5,8.06,5.75,8.48,6.4L11.48,10.82L14.39,6.4C14.63,6.02,14.91,5.78,15.23,5.64L15.23,10.15L13.48,12.75L18.14,19.61C18.57,20.26,18.44,20.51,17.67,20.51L16.24,20.51C15.47,20.51,14.99,20.26,14.57,19.61L11.37,14.8L8.22,19.61C7.79,20.26,7.32,20.51,6.54,20.51ZM21.3,11.5L17.48,11.5C17.03,11.5,16.78,11.25,16.78,10.8L16.78,10.25C16.78,9.8,16.98,9.38,17.3,9.11L19.38,7.29C19.85,6.89,20.11,6.63,20.11,6.29C20.11,5.97,19.83,5.74,19.31,5.74C18.93,5.74,18.43,5.94,17.81,6.42C17.48,6.72,17.13,6.66,16.88,6.29L16.68,6.01C16.43,5.64,16.46,5.26,16.81,4.96C17.71,4.23,18.46,4.01,19.29,4.01C20.96,4.01,21.91,4.98,21.91,6.16C21.91,6.99,21.38,7.76,20.41,8.61L18.26,10.47L18.38,9.62L21.31,9.62C21.76,9.62,22.01,9.87,22.01,10.32L22.01,10.82C22.01,11.27,21.76,11.52,21.31,11.52Z"/></svg>