<svg xmlns="http://www.w3.org/2000/svg" viewBox="0 0 24 24" fill="currentColor"><path d="M6.55,20.5L5.15,20.5C4.38,20.5,4.25,20.25,4.7,19.62L9.38,12.86L4.97,6.4C4.54,5.75,4.67,5.5,5.44,5.5L6.81,5.5C7.58,5.5,8.06,5.75,8.48,6.4L11.48,10.82L14.39,6.4C14.82,5.75,15.29,5.5,16.06,5.5L17.28,5.5C18.05,5.5,18.18,5.75,17.75,6.4L13.47,12.75L15.23,15.33L15.23,20.27C14.97,20.13,14.75,19.91,14.55,19.6L11.36,14.79L8.2,19.6C7.77,20.25,7.3,20.5,6.53,20.5ZM21.27,22L17.47,22C17.02,22,16.77,21.75,16.77,21.3L16.77,20.75C16.77,20.3,16.98,19.88,17.3,19.61L19.38,17.79C19.85,17.39,20.1,17.13,20.1,16.79C20.1,16.46,19.82,16.24,19.3,16.24C18.92,16.24,18.42,16.44,17.8,16.91C17.48,17.21,17.13,17.16,16.88,16.79L16.67,16.51C16.43,16.13,16.45,15.76,16.8,15.46C17.7,14.73,18.45,14.51,19.28,14.51C20.95,14.51,21.9,15.48,21.9,16.66C21.9,17.48,21.38,18.26,20.4,19.11L18.25,20.96L18.38,20.12L21.28,20.12C21.73,20.12,21.98,20.36,21.98,20.81L21.98,21.32C21.98,21.77,21.73,22.01,21.28,22.01Z"/></svg>