<svg xmlns="http://www.w3.org/2000/svg" viewBox="0 0 24 24" fill="currentColor"><path d="M16,6.95C16,5.75,16.25,5.5,17.45,5.5L17.54,5.5C18.75,5.5,18.99,5.75,18.99,6.95L18.99,17.9L15.99,17.9ZM5.46,20.5C4.25,20.5,4.01,20.25,4.01,19.05L4.01,18.96C4.01,17.75,4.26,17.51,5.46,17.51L10.05,17.51C11.25,17.51,11.5,17.75,11.5,18.96L11.5,19.05C11.5,20.25,11.25,20.5,10.05,20.5ZM5.46,14.5C4.25,14.5,4.01,14.25,4.01,13.05L4.01,12.96C4.01,11.75,4.26,11.51,5.46,11.51L10.05,11.51C11.25,11.51,11.5,11.75,11.5,12.96L11.5,13.05C11.5,14.25,11.25,14.5,10.05,14.5ZM18.18,21.43C17.67,22.05,17.33,22.05,16.83,21.43L14.43,18.36C14,17.83,14.18,17.51,14.85,17.51L20.16,17.51C20.85,17.51,21,17.83,20.58,18.38ZM5.45,8.5C4.25,8.5,4,8.25,4,7.05L4,6.96C4,5.75,4.25,5.51,5.45,5.51L11.8,5.51C13,5.51,13.25,5.76,13.25,6.96L13.25,7.05C13.25,8.25,13,8.5,11.8,8.5Z"/></svg>