<svg xmlns="http://www.w3.org/2000/svg" viewBox="0 0 24 24" fill="currentColor"><path d="M5.13,6.63C5.13,5.52,5.9,4.75,7,4.75C8.1,4.75,8.88,5.52,8.88,6.63C8.88,7.73,8.1,8.5,7,8.5C5.9,8.5,5.13,7.73,5.13,6.63ZM5.13,19.38C5.13,18.27,5.9,17.5,7,17.5C8.1,17.5,8.88,18.27,8.88,19.38C8.88,20.48,8.1,21.25,7,21.25C5.9,21.25,5.13,20.48,5.13,19.38ZM5.13,13C5.13,11.9,5.9,11.13,7,11.13C8.1,11.13,8.88,11.9,8.88,13C8.88,14.1,8.1,14.88,7,14.88C5.9,14.88,5.13,14.1,5.13,13ZM12.58,7.75C11.81,7.75,11.51,7.45,11.51,6.68L11.51,6.58C11.51,5.81,11.81,5.51,12.58,5.51L19.43,5.51C20.2,5.51,20.5,5.81,20.5,6.58L20.5,6.68C20.5,7.45,20.2,7.75,19.43,7.75ZM11.85,20.34C11.78,20.29,11.72,20.23,11.67,20.16C11.73,20.22,11.79,20.27,11.85,20.34ZM20.34,20.16C20.29,20.22,20.23,20.28,20.16,20.33C20.22,20.27,20.27,20.21,20.34,20.16ZM19,16C19,14.3,17.7,13,16,13C14.3,13,13,14.3,13,16C13,17.7,14.3,19,16,19C17.7,19,19,17.7,19,16ZM11.5,16C11.5,13.52,13.52,11.5,16,11.5C18.48,11.5,20.5,13.52,20.5,16C20.5,18.48,18.48,20.5,16,20.5C13.52,20.5,11.5,18.48,11.5,16ZM21.7,21.55L21.6,21.65C21.28,21.97,20.93,21.97,20.61,21.65L17.83,18.87L18.93,17.77L21.71,20.54C22.03,20.87,22.03,21.22,21.71,21.54Z"/></svg>