<svg xmlns="http://www.w3.org/2000/svg" viewBox="0 0 24 24"><path d="M12,14.03L12,14.01C12.13,14.02,12.26,14.03,12.4,14.03Z" fill="currentColor"/><path d="M18,14.03L17.6,14.03C17.74,14.03,17.87,14.02,18,14.01Z" fill="currentColor"/><path d="M2,6.67C2,4.67,2.67,4,4.67,4L6.7,4C6.7,2.17,8.17,0.7,10,0.7C11.83,0.7,13.3,2.17,13.3,4L15.33,4C17.33,4,18,4.67,18,6.67L18,8.04L17.15,6.92C15.91,5.34,14.09,5.34,12.85,6.92L10.45,10.09C9.94,10.74,9.73,11.41,9.77,12.01L8.63,12.01C5.6,12.01,3.96,13.65,3.96,16.68L3.96,19.35C3.96,20.41,4.16,21.31,4.56,22.02C2.64,22,2,21.32,2,19.35Z" fill="currentColor"/><path d="M11.5,4C11.5,3.17,10.83,2.5,10,2.5C9.17,2.5,8.5,3.17,8.5,4C8.5,4.83,9.17,5.5,10,5.5C10.83,5.5,11.5,4.83,11.5,4Z" fill="currentColor"/><path d="M21.33,22L8.66,22C6.66,22,5.99,21.33,5.99,19.33L5.99,16.66C5.99,14.66,6.66,13.99,8.66,13.99L13.99,13.99L13.99,11.99L12.39,11.99C11.79,11.99,11.66,11.72,12.02,11.26L14.42,8.16C14.79,7.69,15.19,7.69,15.55,8.16L17.95,11.26C18.32,11.73,18.18,11.99,17.58,11.99L15.98,11.99L15.98,13.99L21.31,13.99C23.31,13.99,23.98,14.66,23.98,16.66L23.98,19.33C23.98,21.33,23.31,22,21.31,22Z" fill="currentColor"/><path d="M8,20L22,20L22,16L8,16Z" fill="currentColor"/></svg>