<svg xmlns="http://www.w3.org/2000/svg" viewBox="0 0 24 24"><path d="M6.94,6C5.34,6,5.01,5.67,5.01,4.07L5.01,3.94C5.01,2.34,5.34,2.01,6.94,2.01L17.07,2.01C18.67,2.01,19,2.34,19,3.94L19,4.07C19,5.67,18.67,6,17.07,6Z" fill="currentColor"/><path d="M8.94,22C7.34,22,7.01,21.67,7.01,20.07L7.01,19.94C7.01,18.34,7.34,18.01,8.94,18.01L15.07,18.01C16.67,18.01,17,18.34,17,19.94L17,20.07C17,21.67,16.67,22,15.07,22Z" fill="currentColor"/><path d="M3.94,14C2.34,14,2.01,13.67,2.01,12.07L2.01,11.94C2.01,10.34,2.34,10.01,3.94,10.01L20.07,10.01C21.67,10.01,22,10.34,22,11.94L22,12.07C22,13.67,21.67,14,20.07,14Z" fill="currentColor"/></svg>