<svg xmlns="http://www.w3.org/2000/svg" viewBox="0 0 24 24" fill="currentColor"><path d="M10.25,20.5L7.5,20.5C6,20.5,5.49,20,5.49,18.5L5.49,15.74C5.49,14.24,5.94,13.74,7.29,13.74L10.44,13.74C10.52,13.74,10.61,13.74,10.68,13.75C10.24,14.65,9.99,15.67,9.99,16.74C9.99,18.11,10.39,19.37,11.07,20.42C10.84,20.47,10.56,20.49,10.24,20.49ZM10.45,12.25L7.3,12.25C5.95,12.25,5.5,11.75,5.5,10.25L5.5,7.5C5.5,6,6,5.49,7.5,5.49L10.25,5.49C11.75,5.49,12.26,5.94,12.26,7.29L12.26,10.44C12.26,11.79,11.81,12.24,10.46,12.24ZM13.75,7.3C13.75,5.95,14.25,5.5,15.75,5.5L18.51,5.5C20.01,5.5,20.51,6,20.51,7.5L20.51,10.25C20.51,10.58,20.49,10.86,20.44,11.09C19.38,10.4,18.12,10.01,16.76,10.01C15.68,10.01,14.67,10.25,13.77,10.7C13.76,10.62,13.76,10.54,13.76,10.46ZM11.52,16.75C11.52,13.88,13.9,11.52,16.75,11.52C19.62,11.52,21.98,13.87,21.98,16.75C21.98,19.6,19.63,21.98,16.75,21.98C13.9,21.98,11.52,19.6,11.52,16.75ZM16.72,17.8L18.42,19.45C18.77,19.8,19.12,19.8,19.47,19.45C19.82,19.1,19.85,18.72,19.47,18.38L17.8,16.73L19.47,15.06C19.82,14.7,19.82,14.36,19.47,14.01C19.12,13.65,18.77,13.63,18.4,14.01L16.73,15.68L15.08,14.03C14.72,13.68,14.38,13.68,14.03,14.03C13.67,14.38,13.65,14.76,14.03,15.1L15.68,16.73L14,18.4C13.65,18.75,13.65,19.1,14,19.45C14.35,19.8,14.69,19.83,15.07,19.45Z"/></svg>