<svg xmlns="http://www.w3.org/2000/svg" viewBox="0 0 24 24" fill="currentColor"><path d="M12.4,22C11.63,22,11.43,21.72,11.7,21L14.9,12.6C15.2,11.8,15.65,11.5,16.5,11.5L17.03,11.5C17.87,11.5,18.32,11.8,18.62,12.6L21.8,21C22.07,21.73,21.87,22,21.1,22L20.78,22C20,22,19.6,21.72,19.35,20.97L16.75,13.49L14.15,20.97C13.9,21.72,13.5,22,12.72,22ZM11.93,15.75C9.05,14.18,6.33,11.55,5.8,9.25L8.13,9.25C8.78,10.65,10.68,12.47,12.85,13.67ZM6.05,16.73C5.32,17.03,4.92,16.88,4.6,16.18L4.55,16.08C4.23,15.38,4.38,14.98,5.1,14.68C9.5,12.73,12.02,10.08,12.24,7.38L14.49,7.38C14.27,11.36,10.89,14.56,6.04,16.73ZM13.58,19.75L13.58,17.5L19.52,17.5L19.52,19.75ZM5.07,7.75C4.3,7.75,4,7.45,4,6.68L4,6.58C4,5.81,4.3,5.51,5.07,5.51L14.9,5.51C15.67,5.51,15.97,5.81,15.97,6.58L15.97,6.68C15.97,7.45,15.67,7.75,14.9,7.75ZM8.88,5.07C8.88,4.3,9.18,4,9.95,4L10.04,4C10.82,4,11.12,4.3,11.12,5.07L11.12,6.63L8.87,6.63Z"/></svg>