<svg xmlns="http://www.w3.org/2000/svg" viewBox="0 0 24 24" fill="currentColor"><path d="M9.21,8.5C8,8.5,7.76,8.25,7.76,7.05L7.76,6.96C7.76,5.75,8,5.51,9.21,5.51L16.8,5.51C18,5.51,18.25,5.76,18.25,6.96L18.25,7.05C18.25,8.25,18,8.5,16.8,8.5ZM10.71,20.5C9.51,20.5,9.26,20.25,9.26,19.05L9.26,18.96C9.26,17.75,9.51,17.51,10.71,17.51L15.3,17.51C16.5,17.51,16.75,17.75,16.75,18.96L16.75,19.05C16.75,20.25,16.5,20.5,15.3,20.5ZM6.96,14.5C5.76,14.5,5.51,14.25,5.51,13.05L5.51,12.96C5.51,11.75,5.76,11.51,6.96,11.51L19.05,11.51C20.25,11.51,20.5,11.75,20.5,12.96L20.5,13.05C20.5,14.25,20.25,14.5,19.05,14.5Z"/></svg>