<svg xmlns="http://www.w3.org/2000/svg" viewBox="0 0 24 24" fill="currentColor"><path d="M12.23,9C11.53,9,11.25,8.73,11.25,8.03L11.25,6.47C11.25,5.78,11.55,5.5,12.32,5.5L19.43,5.5C20.2,5.5,20.5,5.82,20.5,6.7L20.5,7.8C20.5,8.65,20.22,9,19.52,9ZM7.8,14.75L6.7,14.75C5.85,14.75,5.5,14.45,5.5,13.67L5.5,12.32C5.5,11.55,5.78,11.25,6.47,11.25L8.03,11.25C8.72,11.25,9,11.53,9,12.23L9,13.78C9,14.48,8.68,14.75,7.8,14.75ZM8.03,9L6.47,9C5.78,9,5.5,8.7,5.5,7.93L5.5,6.58C5.5,5.81,5.8,5.51,6.57,5.51L7.92,5.51C8.69,5.51,8.99,5.79,8.99,6.48L8.99,8.04C8.99,8.73,8.72,9.01,8.02,9.01ZM12.45,14.75C11.6,14.75,11.25,14.47,11.25,13.77L11.25,12.22C11.25,11.52,11.53,11.24,12.23,11.24L19.52,11.24C20.22,11.24,20.5,11.57,20.5,12.44L20.5,13.55C20.5,14.39,20.18,14.75,19.3,14.75ZM7.92,20.5L6.57,20.5C5.8,20.5,5.5,20.2,5.5,19.43L5.5,18.08C5.5,17.3,5.78,17,6.48,17L8.03,17C8.73,17,9,17.28,9,17.98L9,19.53C9,20.23,8.7,20.51,7.93,20.51ZM12.32,20.5C11.55,20.5,11.25,20.22,11.25,19.52L11.25,17.97C11.25,17.27,11.53,17,12.23,17L19.53,17C20.22,17,20.5,17.32,20.5,18.2L20.5,19.3C20.5,20.15,20.2,20.5,19.43,20.5Z"/></svg>