<svg xmlns="http://www.w3.org/2000/svg" viewBox="0 0 24 24"><path d="M12,18.33C7.5,18.33,4,15.6,4,9.7L4,3.93C4,2.33,4.33,2,5.93,2L6.06,2C7.66,2,7.99,2.33,7.99,3.93L7.99,9.7C7.99,12.97,9.29,14.33,11.99,14.33C14.76,14.33,15.99,13,15.99,9.7L15.99,3.93C15.99,2.33,16.32,2,17.92,2L18.05,2C19.65,2,19.98,2.33,19.98,3.93L19.98,9.7C19.98,15.57,16.61,18.33,11.98,18.33Z" fill="currentColor"/><path d="M2.94,22C2.34,22,2.01,21.67,2.01,21.07L2.01,20.94C2.01,20.34,2.34,20.01,2.94,20.01L21.07,20.01C21.67,20.01,22,20.34,22,20.94L22,21.07C22,21.67,21.67,22,21.07,22Z" fill="currentColor"/></svg>