<svg xmlns="http://www.w3.org/2000/svg" viewBox="0 0 24 24" fill="currentColor"><path d="M20,19L16,19L16,11.5C16,9.77,14.73,8.5,13,8.5L11.52,8.5C11.63,7.39,12.18,7,13.5,7L14.27,7C14.27,5.63,15.38,4.53,16.75,4.53C18.12,4.53,19.23,5.63,19.23,7L20,7C21.5,7,22,7.5,22,9L22,17C22,18.5,21.5,19.01,20,19.01ZM17.88,7C17.88,6.38,17.37,5.88,16.75,5.88C16.13,5.88,15.63,6.38,15.63,7C15.63,7.62,16.13,8.13,16.75,8.13C17.37,8.13,17.88,7.62,17.88,7ZM12.5,22L10.5,22C9,22,8.49,21.5,8.49,20L8.49,16.75L6.99,16.75L6.99,17.95C6.99,18.4,6.79,18.5,6.45,18.2L4.32,16.45C3.97,16.15,3.97,15.85,4.32,15.55L6.45,13.8C6.8,13.5,6.99,13.6,6.99,14.05L6.99,15.25L8.49,15.25L8.49,12C8.49,10.5,9,10,10.5,10L12.5,10C14,10,14.5,10.5,14.5,12L14.5,20C14.5,21.5,14,22.01,12.5,22.01ZM10,20.5L13,20.5L13,11.5L10,11.5Z"/></svg>