<svg xmlns="http://www.w3.org/2000/svg" viewBox="0 0 24 24" fill="currentColor"><path d="M16.98,12.25L20.5,8.73L20.5,10.25C20.5,11.75,20.05,12.25,18.7,12.25ZM8.73,20.5L12.25,16.98L12.25,18.7C12.25,20.05,11.75,20.5,10.25,20.5ZM10.45,12.25L7.3,12.25C5.95,12.25,5.5,11.75,5.5,10.25L5.5,7.5C5.5,6,6,5.49,7.5,5.49L10.25,5.49C11.75,5.49,12.26,5.94,12.26,7.29L12.26,10.44C12.26,11.79,11.81,12.24,10.46,12.24ZM18.5,20.5L15.74,20.5C14.24,20.5,13.74,20.05,13.74,18.7L13.74,15.55C13.74,15.53,13.74,15.5,13.74,15.48L15.47,13.75C15.49,13.75,15.52,13.75,15.54,13.75L18.69,13.75C20.04,13.75,20.49,14.25,20.49,15.75L20.49,18.51C20.49,20.01,19.99,20.51,18.49,20.51ZM21.55,5.52L20.42,6.65L14.88,12.19L12.2,14.87L6.66,20.41L5.58,21.49L5.56,21.51C5.24,21.84,4.88,21.84,4.56,21.51L4.49,21.44C4.16,21.12,4.16,20.76,4.49,20.44L5.59,19.34C5.54,19.1,5.51,18.82,5.51,18.49L5.51,15.74C5.51,14.24,5.96,13.74,7.31,13.74L10.46,13.74C10.72,13.74,10.94,13.75,11.14,13.79L13.82,11.11C13.78,10.92,13.76,10.69,13.76,10.44L13.76,7.29C13.76,5.94,14.27,5.49,15.77,5.49L18.52,5.49C18.85,5.49,19.13,5.51,19.37,5.56L20.49,4.44C20.81,4.11,21.17,4.11,21.49,4.44L21.57,4.51C21.88,4.83,21.89,5.17,21.59,5.49C21.58,5.49,21.57,5.5,21.57,5.51Z"/></svg>