<svg xmlns="http://www.w3.org/2000/svg" viewBox="0 0 24 24"><path d="M1.5,3.5C1.5,2.03,2.53,1,4,1C5.47,1,6.5,2.03,6.5,3.5C6.5,4.97,5.47,6,4,6C2.53,6,1.5,4.97,1.5,3.5Z" fill="currentColor"/><path d="M1.5,20.5C1.5,19.03,2.53,18,4,18C5.47,18,6.5,19.03,6.5,20.5C6.5,21.97,5.47,23,4,23C2.53,23,1.5,21.97,1.5,20.5Z" fill="currentColor"/><path d="M1.5,12C1.5,10.53,2.53,9.5,4,9.5C5.47,9.5,6.5,10.53,6.5,12C6.5,13.47,5.47,14.5,4,14.5C2.53,14.5,1.5,13.47,1.5,12Z" fill="currentColor"/><path d="M11.44,22C10.41,22,10.01,21.6,10.01,20.57L10.01,20.44C10.01,19.41,10.41,19.01,11.44,19.01L20.57,19.01C21.6,19.01,22,19.41,22,20.44L22,20.57C22,21.6,21.6,22,20.57,22Z" fill="currentColor"/><path d="M11.44,13.5C10.41,13.5,10.01,13.1,10.01,12.07L10.01,11.94C10.01,10.91,10.41,10.51,11.44,10.51L20.57,10.51C21.6,10.51,22,10.91,22,11.94L22,12.07C22,13.1,21.6,13.5,20.57,13.5Z" fill="currentColor"/><path d="M11.44,5C10.41,5,10.01,4.6,10.01,3.57L10.01,3.44C10.01,2.41,10.41,2.01,11.44,2.01L20.57,2.01C21.6,2.01,22,2.41,22,3.44L22,3.57C22,4.6,21.6,5,20.57,5Z" fill="currentColor"/></svg>