<svg xmlns="http://www.w3.org/2000/svg" viewBox="0 0 24 24" fill="currentColor"><path d="M11.98,9.5C11.28,9.5,11,9.22,11,8.52L11,6.47C11,5.78,11.3,5.5,12.08,5.5L13.93,5.5C14.7,5.5,15,5.82,15,6.7L15,8.3C15,9.14,14.72,9.5,14.03,9.5ZM6.7,15C5.85,15,5.5,14.7,5.5,13.93L5.5,12.08C5.5,11.31,5.78,11.01,6.47,11.01L8.52,11.01C9.22,11.01,9.5,11.28,9.5,11.98L9.5,14.03C9.5,14.73,9.18,15,8.3,15ZM6.47,9.5C5.78,9.5,5.5,9.2,5.5,8.43L5.5,6.57C5.5,5.8,5.8,5.5,6.57,5.5L8.42,5.5C9.2,5.5,9.5,5.78,9.5,6.47L9.5,8.52C9.5,9.22,9.22,9.5,8.52,9.5ZM12.21,15C11.36,15,11.01,14.73,11.01,14.03L11.01,11.98C11.01,11.28,11.28,11,11.98,11L14.03,11C14.73,11,15,11.33,15,12.21L15,13.8C15,14.65,14.68,15,13.8,15ZM17.48,9.5C16.78,9.5,16.5,9.22,16.5,8.52L16.5,6.47C16.5,5.78,16.8,5.5,17.57,5.5L19.43,5.5C20.2,5.5,20.5,5.8,20.5,6.57L20.5,8.42C20.5,9.2,20.22,9.5,19.52,9.5ZM17.7,15C16.86,15,16.5,14.73,16.5,14.03L16.5,11.98C16.5,11.28,16.78,11,17.48,11L19.52,11C20.22,11,20.5,11.3,20.5,12.08L20.5,13.93C20.5,14.7,20.18,15,19.3,15ZM6.57,20.5C5.8,20.5,5.5,20.2,5.5,19.43L5.5,17.58C5.5,16.8,5.78,16.5,6.47,16.5L8.52,16.5C9.22,16.5,9.5,16.78,9.5,17.48L9.5,19.53C9.5,20.22,9.2,20.5,8.43,20.5ZM12.07,20.5C11.3,20.5,11,20.22,11,19.52L11,17.48C11,16.78,11.27,16.5,11.97,16.5L14.02,16.5C14.72,16.5,15,16.82,15,17.7L15,19.3C15,20.15,14.7,20.5,13.92,20.5ZM17.58,20.5C16.8,20.5,16.5,20.22,16.5,19.52L16.5,17.48C16.5,16.78,16.78,16.5,17.48,16.5L19.53,16.5C20.22,16.5,20.5,16.8,20.5,17.57L20.5,19.43C20.5,20.2,20.2,20.5,19.43,20.5Z"/></svg>