<svg xmlns="http://www.w3.org/2000/svg" viewBox="0 0 24 24"><path d="M17.1,13.33L10.63,6.83C9.9,6.13,9.93,5.56,10.66,4.83L10.39,5.06C11.12,4.33,11.79,4.23,12.72,4.63L12.55,4.56C14.08,5.26,13.75,4.26,15.18,2.79C16.71,1.29,19.11,1.29,20.85,3.02C22.58,4.75,22.68,7.19,21.12,8.75C19.69,10.18,18.72,9.92,19.39,11.38L19.32,11.21C19.72,12.14,19.62,12.78,18.89,13.51L19.09,13.31C18.36,14.04,17.82,14.01,17.09,13.31Z" fill="currentColor"/><path d="M1.33,21.27C1.76,20.84,2,20.27,2,19.67L2,17.3C2,16.7,2.23,16.13,2.67,15.7L9.67,8.7L11.04,10.1L5.71,15.43L11.34,15.43L13.87,12.93L15.3,14.36L8.3,21.36C7.87,21.79,7.3,22.03,6.7,22.03L4.33,22.03C3.73,22.03,3.16,22.26,2.73,22.7L2.2,23.23L0.8,21.8Z" fill="currentColor"/></svg>