<svg xmlns="http://www.w3.org/2000/svg" viewBox="0 0 24 24" fill="currentColor"><path d="M10.48,9.5C9.78,9.5,9.5,9.22,9.5,8.52L9.5,6.47C9.5,5.78,9.8,5.5,10.58,5.5L12.43,5.5C13.2,5.5,13.5,5.82,13.5,6.7L13.5,8.3C13.5,9.14,13.22,9.5,12.53,9.5ZM5.2,15C4.35,15,4,14.7,4,13.93L4,12.08C4,11.31,4.28,11.01,4.97,11.01L7.02,11.01C7.72,11.01,8,11.28,8,11.98L8,14.03C8,14.73,7.68,15,6.8,15ZM4.97,9.5C4.28,9.5,4,9.2,4,8.43L4,6.57C4,5.8,4.3,5.5,5.07,5.5L6.92,5.5C7.7,5.5,8,5.78,8,6.47L8,8.52C8,9.22,7.72,9.5,7.02,9.5ZM15.98,9.5C15.28,9.5,15,9.22,15,8.52L15,6.47C15,5.78,15.3,5.5,16.07,5.5L17.93,5.5C18.7,5.5,19,5.8,19,6.57L19,8.42C19,9.2,18.72,9.5,18.02,9.5ZM5.07,20.5C4.3,20.5,4,20.2,4,19.43L4,17.58C4,16.8,4.28,16.5,4.97,16.5L7.02,16.5C7.72,16.5,8,16.78,8,17.48L8,19.53C8,20.22,7.7,20.5,6.93,20.5ZM9.5,11.97C9.5,11.28,9.77,11,10.47,11L12.52,11C12.73,11,12.9,11.03,13.04,11.1C11.68,11.98,10.67,13.35,10.23,14.96C9.71,14.87,9.5,14.58,9.5,14.03ZM9.5,17.48C9.5,16.96,9.65,16.67,10,16.56C9.99,16.62,9.99,16.69,9.99,16.75C9.99,18.14,10.41,19.43,11.12,20.5L10.57,20.5C9.8,20.5,9.5,20.22,9.5,19.52ZM11.52,16.75C11.52,13.88,13.9,11.52,16.75,11.52C19.62,11.52,21.98,13.87,21.98,16.75C21.98,19.6,19.63,21.98,16.75,21.98C13.9,21.98,11.52,19.6,11.52,16.75ZM14,19.45C14.35,19.8,14.69,19.83,15.07,19.45L16.72,17.8L18.42,19.45C18.77,19.8,19.12,19.8,19.47,19.45C19.82,19.1,19.85,18.72,19.47,18.38L17.8,16.73L19.47,15.06C19.82,14.7,19.82,14.36,19.47,14.01C19.12,13.65,18.77,13.63,18.4,14.01L16.73,15.68L15.08,14.03C14.72,13.68,14.38,13.68,14.03,14.03C13.67,14.38,13.65,14.76,14.03,15.1L15.68,16.73L14,18.4C13.65,18.75,13.65,19.1,14,19.45Z"/></svg>