<svg xmlns="http://www.w3.org/2000/svg" viewBox="0 0 24 24" fill="currentColor"><path d="M11.55,20.5L8.73,20.5L11.73,17.5C12.78,17.52,13,17.81,13,18.95L13,19.04C13,20.25,12.75,20.49,11.55,20.49ZM19.05,14.5L14.73,14.5L17.73,11.5L19.05,11.5C20.25,11.5,20.5,11.75,20.5,12.95L20.5,13.04C20.5,14.25,20.25,14.49,19.05,14.49ZM21.55,5.52L20.49,6.58L18.58,8.49L15.58,11.49L12.58,14.49L9.58,17.49L6.59,20.49L5.57,21.5L5.55,21.52C5.23,21.84,4.88,21.84,4.55,21.52L4.48,21.45C4.16,21.12,4.16,20.77,4.48,20.45L5.51,19.41C5.51,19.3,5.51,19.18,5.51,19.05L5.51,18.95C5.51,17.75,5.75,17.5,6.95,17.5L7.43,17.5L10.43,14.5L6.95,14.5C5.75,14.5,5.51,14.25,5.51,13.05L5.51,12.96C5.51,11.76,5.75,11.51,6.95,11.51L13.43,11.51L16.43,8.51L6.96,8.51C5.75,8.51,5.51,8.26,5.51,7.06L5.51,6.96C5.51,5.76,5.75,5.52,6.96,5.52L19.05,5.52C19.19,5.52,19.31,5.52,19.42,5.52L20.48,4.47C20.8,4.14,21.15,4.14,21.47,4.47L21.55,4.54C21.87,4.86,21.87,5.2,21.57,5.52C21.56,5.52,21.56,5.53,21.55,5.54Z"/></svg>