<svg xmlns="http://www.w3.org/2000/svg" viewBox="0 0 24 24"><path d="M1.94,6C0.34,6,0.01,5.67,0.01,4.07L0.01,3.94C0.01,2.34,0.34,2.01,1.94,2.01L18.07,2.01C19.67,2.01,20,2.34,20,3.94L20,4.07C20,5.67,19.67,6,18.07,6Z" fill="currentColor"/><path d="M0,11.93C0,10.33,0.33,10,1.93,10L10.79,10C8.9,10.91,7.22,12.36,5.82,14L1.94,14C0.34,14,0.01,13.67,0.01,12.07Z" fill="currentColor"/><path d="M0,19.93C0,18.33,0.33,18,1.93,18L3.6,18C4.44,19.4,5.48,20.78,6.67,22L1.93,22C0.33,22,0,21.67,0,20.07Z" fill="currentColor"/><path d="M18.13,17.47C18.13,15.77,16.73,14.37,15,14.37C13.27,14.37,11.87,15.77,11.87,17.47C11.87,19.2,13.27,20.6,15,20.6C16.73,20.6,18.13,19.2,18.13,17.47Z" fill="currentColor"/><path d="M5.67,17.53C8,13.96,11.1,11,15,11C18.87,11,22,13.97,24,17.53C22,21.13,18.87,24,15,24C11.1,24,8,21.13,5.67,17.53Z" fill="currentColor"/></svg>