<svg xmlns="http://www.w3.org/2000/svg" viewBox="0 0 24 24"><path d="M2.67,6C2,6,2,6,2,6.67L2,11.34C2,12.01,2,12.01,2.67,12.01L15.34,12.01C16.01,12.01,16.01,12.01,16.01,11.34L16.01,6.67C16.01,6,16.01,6,15.34,6Z" fill="currentColor"/><path d="M15.34,4C17.34,4,18.01,4.67,18.01,6.67L18.01,11.34C18.01,13.34,17.34,14.01,15.34,14.01L2.67,14.01C0.67,14.01,0,13.34,0,11.34L0,6.67C0,4.67,0.67,4,2.67,4Z" fill="currentColor"/><path d="M8,16L8,17.33C8,18,8,18,8.67,18L21.34,18C22.01,18,22.01,18,22.01,17.33L22.01,12.66C22.01,11.99,22.01,11.99,21.34,11.99L20.01,11.99L20.01,9.99L21.34,9.99C23.34,9.99,24.01,10.66,24.01,12.66L24.01,17.33C24.01,19.33,23.34,20,21.34,20L8.67,20C6.67,20,6,19.33,6,17.33L6,16Z" fill="currentColor"/></svg>