<svg xmlns="http://www.w3.org/2000/svg" viewBox="0 0 24 24"><path d="M1.5,20.5C1.5,19.03,2.53,18,4,18C5.47,18,6.5,19.03,6.5,20.5C6.5,21.97,5.47,23,4,23C2.53,23,1.5,21.97,1.5,20.5Z" fill="currentColor"/><path d="M11.44,22C10.41,22,10.01,21.6,10.01,20.57L10.01,20.44C10.01,19.41,10.41,19.01,11.44,19.01L20.57,19.01C21.6,19.01,22,19.41,22,20.44L22,20.57C22,21.6,21.6,22,20.57,22Z" fill="currentColor"/><path d="M11.44,13.5C10.41,13.5,10.01,13.1,10.01,12.07L10.01,11.94C10.01,10.91,10.41,10.51,11.44,10.51L20.57,10.51C21.6,10.51,22,10.91,22,11.94L22,12.07C22,13.1,21.6,13.5,20.57,13.5Z" fill="currentColor"/><path d="M11.44,5C10.41,5,10.01,4.6,10.01,3.57L10.01,3.44C10.01,2.41,10.41,2.01,11.44,2.01L20.57,2.01C21.6,2.01,22,2.41,22,3.44L22,3.57C22,4.6,21.6,5,20.57,5Z" fill="currentColor"/><path d="M7.3,2.7L3.67,6.37C3.24,6.8,2.77,6.8,2.34,6.37L0.54,4.57C0.11,4.14,0.11,3.67,0.54,3.24L0.61,3.14C1.04,2.71,1.51,2.71,1.94,3.14L3.01,4.21L5.88,1.31C6.31,0.88,6.78,0.88,7.21,1.31L7.31,1.38C7.74,1.81,7.74,2.28,7.31,2.71Z" fill="currentColor"/><path d="M7.3,11.03L3.67,14.7C3.24,15.13,2.77,15.13,2.34,14.7L0.54,12.9C0.11,12.47,0.11,12,0.54,11.57L0.61,11.47C1.04,11.04,1.51,11.04,1.94,11.47L3.01,12.54L5.88,9.64C6.31,9.21,6.78,9.21,7.21,9.64L7.31,9.71C7.74,10.14,7.74,10.61,7.31,11.04Z" fill="currentColor"/></svg>