<svg xmlns="http://www.w3.org/2000/svg" viewBox="0 0 24 24"><path d="M10.76,7.33C9.73,7.33,9.33,6.93,9.33,5.9L9.33,3.43C9.33,2.4,9.73,2,10.76,2L13.23,2C14.26,2,14.66,2.4,14.66,3.43L14.66,5.9C14.66,6.93,14.26,7.33,13.23,7.33Z" fill="currentColor"/><path d="M3.44,14.67C2.41,14.67,2.01,14.27,2.01,13.24L2.01,10.77C2.01,9.74,2.41,9.34,3.44,9.34L20.57,9.34C21.6,9.34,22,9.74,22,10.77L22,13.24C22,14.27,21.6,14.67,20.57,14.67Z" fill="currentColor"/><path d="M3.43,7.33C2.4,7.33,2,6.93,2,5.9L2,3.43C2,2.4,2.4,2,3.43,2L5.9,2C6.93,2,7.33,2.4,7.33,3.43L7.33,5.9C7.33,6.93,6.93,7.33,5.9,7.33Z" fill="currentColor"/><path d="M18.1,7.33C17.07,7.33,16.67,6.93,16.67,5.9L16.67,3.43C16.67,2.4,17.07,2,18.1,2L20.57,2C21.6,2,22,2.4,22,3.43L22,5.9C22,6.93,21.6,7.33,20.57,7.33Z" fill="currentColor"/><path d="M3.43,22C2.4,22,2,21.6,2,20.57L2,18.1C2,17.07,2.4,16.67,3.43,16.67L5.9,16.67C6.93,16.67,7.33,17.07,7.33,18.1L7.33,20.57C7.33,21.6,6.93,22,5.9,22Z" fill="currentColor"/><path d="M10.76,22C9.73,22,9.33,21.6,9.33,20.57L9.33,18.1C9.33,17.07,9.73,16.67,10.76,16.67L13.23,16.67C14.26,16.67,14.66,17.07,14.66,18.1L14.66,20.57C14.66,21.6,14.26,22,13.23,22Z" fill="currentColor"/><path d="M18.1,22C17.07,22,16.67,21.6,16.67,20.57L16.67,18.1C16.67,17.07,17.07,16.67,18.1,16.67L20.57,16.67C21.6,16.67,22,17.07,22,18.1L22,20.57C22,21.6,21.6,22,20.57,22Z" fill="currentColor"/></svg>