<svg xmlns="http://www.w3.org/2000/svg" viewBox="0 0 24 24"><path d="M1.44,5C0.41,5,0.01,4.6,0.01,3.57L0.01,3.44C0.01,2.41,0.41,2.01,1.44,2.01L18.57,2.01C19.6,2.01,20,2.41,20,3.44L20,3.57C20,4.6,19.6,5,18.57,5Z" fill="currentColor"/><path d="M1.44,22C0.41,22,0.01,21.6,0.01,20.57L0.01,20.44C0.01,19.41,0.41,19.01,1.44,19.01L5.57,19.01C6.6,19.01,7,19.41,7,20.44L7,20.57C7,21.6,6.6,22,5.57,22Z" fill="currentColor"/><path d="M1.44,13.43C0.41,13.43,0.01,13.03,0.01,12L0.01,11.87C0.01,10.84,0.41,10.44,1.44,10.44L16.57,10.44C17.6,10.44,18,10.84,18,11.87L18,12C18,13.03,17.6,13.43,16.57,13.43Z" fill="currentColor"/><path d="M15.93,23.4C15.2,24.13,14.66,24.13,13.93,23.4L10.5,19.97C9.77,19.24,9.77,18.67,10.5,17.94L10.6,17.84C11.33,17.11,11.9,17.11,12.63,17.84L14.93,20.14L21,14.07C21.73,13.34,22.3,13.34,23.03,14.07L23.13,14.17C23.86,14.9,23.86,15.47,23.13,16.17Z" fill="currentColor"/></svg>