<svg xmlns="http://www.w3.org/2000/svg" viewBox="0 0 24 24" fill="currentColor"><path d="M5.46,8.5C4.26,8.5,4.01,8.25,4.01,7.05L4.01,6.96C4.01,5.75,4.26,5.51,5.46,5.51L17.55,5.51C18.75,5.51,19,5.76,19,6.96L19,7.05C19,8.25,18.75,8.5,17.55,8.5ZM4,12.95C4,11.75,4.25,11.5,5.45,11.5L12.02,11.5C11.13,12.28,10.49,13.32,10.18,14.5L5.44,14.5C4.24,14.5,3.99,14.25,3.99,13.05ZM4,18.95C4,17.75,4.25,17.5,5.45,17.5L10.19,17.5C10.49,18.68,11.14,19.72,12.02,20.5L5.46,20.5C4.25,20.5,4.01,20.25,4.01,19.05ZM16,13C14.3,13,13,14.3,13,16C13,17.7,14.3,19,16,19C17.7,19,19,17.7,19,16C19,14.3,17.7,13,16,13ZM16,11.5C18.48,11.5,20.5,13.52,20.5,16C20.5,18.48,18.48,20.5,16,20.5C13.52,20.5,11.5,18.48,11.5,16C11.5,13.52,13.52,11.5,16,11.5ZM21.7,21.55L21.6,21.65C21.28,21.97,20.93,21.97,20.61,21.65L17.83,18.87L18.93,17.77L21.71,20.54C22.03,20.87,22.03,21.22,21.71,21.54Z"/></svg>