<svg xmlns="http://www.w3.org/2000/svg" viewBox="0 0 24 24" fill="currentColor"><path d="M7,17.5C8.1,17.5,8.88,18.27,8.88,19.38C8.88,20.48,8.1,21.25,7,21.25C5.9,21.25,5.13,20.48,5.13,19.38C5.13,18.27,5.9,17.5,7,17.5ZM12.58,20.5C11.81,20.5,11.51,20.2,11.51,19.43L11.51,19.33C11.51,18.56,11.81,18.26,12.58,18.26L19.43,18.26C20.2,18.26,20.5,18.56,20.5,19.33L20.5,19.43C20.5,20.2,20.2,20.5,19.43,20.5ZM12.58,14.13C11.81,14.13,11.51,13.83,11.51,13.05L11.51,12.96C11.51,12.18,11.81,11.88,12.58,11.88L19.43,11.88C20.2,11.88,20.5,12.18,20.5,12.96L20.5,13.05C20.5,13.83,20.2,14.13,19.43,14.13ZM12.58,7.75C11.81,7.75,11.51,7.45,11.51,6.68L11.51,6.58C11.51,5.81,11.81,5.51,12.58,5.51L19.43,5.51C20.2,5.51,20.5,5.81,20.5,6.58L20.5,6.68C20.5,7.45,20.2,7.75,19.43,7.75ZM6.75,8.78C6.43,9.1,6.08,9.1,5.76,8.78L4.41,7.43C4.08,7.11,4.08,6.75,4.41,6.43L4.46,6.36C4.78,6.03,5.13,6.03,5.46,6.36L6.26,7.16L8.41,4.98C8.73,4.66,9.09,4.66,9.41,4.98L9.48,5.04C9.81,5.36,9.81,5.71,9.48,6.03ZM9.48,12.27L6.75,15.02C6.43,15.35,6.08,15.35,5.76,15.02L4.41,13.67C4.08,13.35,4.08,13,4.41,12.68L4.46,12.6C4.78,12.28,5.13,12.28,5.46,12.6L6.26,13.4L8.41,11.23C8.73,10.91,9.09,10.91,9.41,11.23L9.48,11.28C9.81,11.6,9.81,11.96,9.48,12.28Z"/></svg>