<svg xmlns="http://www.w3.org/2000/svg" viewBox="0 0 24 24" fill="currentColor"><path d="M19.3,14.5C18.63,17.35,16.06,19.47,13,19.47C9.98,19.47,7.39,17.35,6.7,14.5L5.45,14.5C4.25,14.5,4,14.25,4,13.05L4,12.96C4,11.75,4.25,11.51,5.45,11.51L6.71,11.51C7.4,8.69,9.99,6.54,13,6.54C16.05,6.54,18.61,8.69,19.3,11.51L20.55,11.51C21.75,11.51,22,11.75,22,12.96L22,13.05C22,14.25,21.75,14.5,20.55,14.5ZM16.47,13C16.47,11.1,14.9,9.53,13,9.53C11.1,9.53,9.53,11.1,9.53,13C9.53,14.9,11.1,16.47,13,16.47C14.9,16.47,16.47,14.9,16.47,13Z"/></svg>