<svg xmlns="http://www.w3.org/2000/svg" viewBox="0 0 24 24" fill="currentColor"><path d="M17.55,20.5L17.46,20.5C16.25,20.5,16.01,20.25,16.01,19.05L16.01,8.35L19.01,8.35L19.01,19.05C19.01,20.25,18.76,20.5,17.56,20.5ZM5.07,20.5C4.3,20.5,4,20.2,4,19.43L4,18.58C4,17.81,4.3,17.51,5.07,17.51L12.18,17.51C12.95,17.51,13.25,17.81,13.25,18.58L13.25,19.43C13.25,20.2,12.95,20.5,12.18,20.5ZM5.08,14.5C4.31,14.5,4.01,14.2,4.01,13.43L4.01,12.58C4.01,11.81,4.31,11.51,5.08,11.51L10.43,11.51C11.2,11.51,11.5,11.81,11.5,12.58L11.5,13.43C11.5,14.2,11.2,14.5,10.43,14.5ZM5.08,8.5C4.31,8.5,4.01,8.2,4.01,7.43L4.01,6.58C4.01,5.81,4.31,5.51,5.08,5.51L10.43,5.51C11.2,5.51,11.5,5.81,11.5,6.58L11.5,7.43C11.5,8.2,11.2,8.5,10.43,8.5ZM14.42,7.65L16.82,4.58C17.33,3.95,17.67,3.95,18.17,4.58L20.57,7.63C21,8.18,20.85,8.51,20.15,8.51L14.84,8.51C14.17,8.51,14,8.19,14.42,7.66Z"/></svg>