<svg xmlns="http://www.w3.org/2000/svg" viewBox="0 0 24 24"><path d="M18.07,22L17.94,22C16.34,22,16.01,21.67,16.01,20.07L16.01,5.8L20.01,5.8L20.01,20.07C20.01,21.67,19.68,22,18.08,22Z" fill="currentColor"/><path d="M1.43,22C0.4,22,0,21.6,0,20.57L0,19.44C0,18.41,0.4,18.01,1.43,18.01L10.9,18.01C11.93,18.01,12.33,18.41,12.33,19.44L12.33,20.57C12.33,21.6,11.93,22,10.9,22Z" fill="currentColor"/><path d="M1.44,14C0.41,14,0.01,13.6,0.01,12.57L0.01,11.44C0.01,10.41,0.41,10.01,1.44,10.01L8.57,10.01C9.6,10.01,10,10.41,10,11.44L10,12.57C10,13.6,9.6,14,8.57,14Z" fill="currentColor"/><path d="M1.44,6C0.41,6,0.01,5.6,0.01,4.57L0.01,3.44C0.01,2.41,0.41,2.01,1.44,2.01L8.57,2.01C9.6,2.01,10,2.41,10,3.44L10,4.57C10,5.6,9.6,6,8.57,6Z" fill="currentColor"/><path d="M13.9,4.87L17.1,0.77C17.77,-0.06,18.23,-0.06,18.9,0.77L22.1,4.84C22.67,5.57,22.47,6.01,21.53,6.01L14.46,6.01C13.56,6.01,13.33,5.58,13.89,4.88Z" fill="currentColor"/></svg>