<svg xmlns="http://www.w3.org/2000/svg" viewBox="0 0 24 24"><path d="M11.33,16C12,16,12,16,12,15.33L12,2.66C12,1.99,12,1.99,11.33,1.99L6.66,1.99C5.99,1.99,5.99,1.99,5.99,2.66L5.99,15.33C5.99,16,5.99,16,6.66,16Z" fill="currentColor"/><path d="M6.66,18C4.66,18,3.99,17.33,3.99,15.33L3.99,2.66C3.99,0.66,4.66,-0.01,6.66,-0.01L11.33,-0.01C13.33,-0.01,14,0.66,14,2.66L14,15.33C14,17.33,13.33,18,11.33,18Z" fill="currentColor"/><path d="M12,20L12,21.33C12,22,12,22,12.67,22L17.34,22C18.01,22,18.01,22,18.01,21.33L18.01,8.66C18.01,7.99,18.01,7.99,17.34,7.99L16.01,7.99L16.01,5.99L17.34,5.99C19.34,5.99,20.01,6.66,20.01,8.66L20.01,21.33C20.01,23.33,19.34,24,17.34,24L12.67,24C10.67,24,10,23.33,10,21.33L10,20Z" fill="currentColor"/></svg>