<svg xmlns="http://www.w3.org/2000/svg" viewBox="0 0 24 24" fill="currentColor"><path d="M5.08,7.75C4.31,7.75,4.01,7.45,4.01,6.68L4.01,6.58C4.01,5.81,4.31,5.51,5.08,5.51L17.93,5.51C18.7,5.51,19,5.81,19,6.58L19,6.68C19,7.45,18.7,7.75,17.93,7.75ZM5.08,20.5C4.31,20.5,4.01,20.2,4.01,19.43L4.01,19.33C4.01,18.56,4.31,18.26,5.08,18.26L8.18,18.26C8.95,18.26,9.25,18.56,9.25,19.33L9.25,19.43C9.25,20.2,8.95,20.5,8.18,20.5ZM5.08,14.07C4.31,14.07,4.01,13.77,4.01,13L4.01,12.9C4.01,12.13,4.31,11.83,5.08,11.83L16.43,11.83C17.2,11.83,17.5,12.13,17.5,12.9L17.5,13C17.5,13.77,17.2,14.07,16.43,14.07ZM15.95,21.55C15.4,22.1,15,22.1,14.45,21.55L11.88,18.98C11.33,18.43,11.33,18,11.88,17.46L11.95,17.38C12.5,16.83,12.93,16.83,13.47,17.38L15.2,19.11L19.75,14.55C20.3,14,20.73,14,21.27,14.55L21.35,14.63C21.9,15.18,21.9,15.6,21.35,16.13Z"/></svg>