<svg xmlns="http://www.w3.org/2000/svg" viewBox="0 0 24 24" fill="currentColor"><path d="M13.85,17.67C13.52,18,13.17,18,12.85,17.67L12.8,17.6C12.47,17.27,12.47,16.92,12.8,16.6L14.17,15.23L12.82,13.88C12.5,13.55,12.5,13.2,12.82,12.88L12.87,12.83C13.19,12.5,13.55,12.5,13.87,12.83L15.22,14.18L16.59,12.8C16.91,12.48,17.27,12.48,17.59,12.8L17.66,12.86C17.99,13.18,17.99,13.53,17.66,13.85L16.29,15.23L17.66,16.63C17.99,16.95,17.99,17.3,17.66,17.63L17.61,17.68C17.29,18,16.94,18,16.62,17.68L15.21,16.31ZM18.5,19C19,19,19,19,19,18.5L19,7.49C19,6.99,19,6.99,18.5,6.99L7.49,6.99C6.99,6.99,6.99,6.99,6.99,7.49L6.99,18.5C6.99,19,6.99,19,7.49,19ZM7.49,20.5C5.99,20.5,5.49,20,5.49,18.5L5.49,7.49C5.49,5.99,5.99,5.49,7.49,5.49L18.5,5.49C20,5.49,20.5,5.99,20.5,7.49L20.5,18.5C20.5,20,20,20.5,18.5,20.5ZM6.25,10L19.75,10L19.75,11.5L6.25,11.5ZM6.25,16L6.25,14.5L10.75,14.5L10.75,16ZM10,19.75L10,6.25L11.5,6.25L11.5,19.75ZM16,10.5L14.5,10.5L14.5,6.25L16,6.25Z"/></svg>