<svg xmlns="http://www.w3.org/2000/svg" viewBox="0 0 24 24"><path d="M10.64,7.33C9.71,7.33,9.34,6.96,9.34,6.03L9.34,3.3C9.34,2.37,9.74,2,10.77,2L13.24,2C14.27,2,14.67,2.43,14.67,3.6L14.67,5.73C14.67,6.86,14.3,7.33,13.37,7.33Z" fill="currentColor"/><path d="M3.6,14.67C2.47,14.67,2,14.27,2,13.24L2,10.77C2,9.74,2.37,9.34,3.3,9.34L6.03,9.34C6.96,9.34,7.33,9.71,7.33,10.64L7.33,13.37C7.33,14.3,6.9,14.67,5.73,14.67Z" fill="currentColor"/><path d="M3.3,7.33C2.37,7.33,2,6.93,2,5.9L2,3.43C2,2.4,2.4,2,3.43,2L5.9,2C6.93,2,7.33,2.37,7.33,3.3L7.33,6.03C7.33,6.96,6.96,7.33,6.03,7.33Z" fill="currentColor"/><path d="M10.94,14.67C9.81,14.67,9.34,14.3,9.34,13.37L9.34,10.64C9.34,9.71,9.71,9.34,10.64,9.34L13.37,9.34C14.3,9.34,14.67,9.77,14.67,10.94L14.67,13.07C14.67,14.2,14.24,14.67,13.07,14.67Z" fill="currentColor"/><path d="M17.97,7.33C17.04,7.33,16.67,6.96,16.67,6.03L16.67,3.3C16.67,2.37,17.07,2,18.1,2L20.57,2C21.6,2,22,2.4,22,3.43L22,5.9C22,6.93,21.63,7.33,20.7,7.33Z" fill="currentColor"/><path d="M18.27,14.67C17.14,14.67,16.67,14.3,16.67,13.37L16.67,10.64C16.67,9.71,17.04,9.34,17.97,9.34L20.7,9.34C21.63,9.34,22,9.74,22,10.77L22,13.24C22,14.27,21.57,14.67,20.4,14.67Z" fill="currentColor"/><path d="M3.43,22C2.4,22,2,21.6,2,20.57L2,18.1C2,17.07,2.37,16.67,3.3,16.67L6.03,16.67C6.96,16.67,7.33,17.04,7.33,17.97L7.33,20.7C7.33,21.63,6.93,22,5.9,22Z" fill="currentColor"/><path d="M10.76,22C9.73,22,9.33,21.63,9.33,20.7L9.33,17.97C9.33,17.04,9.7,16.67,10.63,16.67L13.36,16.67C14.29,16.67,14.66,17.1,14.66,18.27L14.66,20.4C14.66,21.53,14.26,22,13.23,22Z" fill="currentColor"/><path d="M18.1,22C17.07,22,16.67,21.63,16.67,20.7L16.67,17.97C16.67,17.04,17.04,16.67,17.97,16.67L20.7,16.67C21.63,16.67,22,17.07,22,18.1L22,20.57C22,21.6,21.6,22,20.57,22Z" fill="currentColor"/></svg>