<svg xmlns="http://www.w3.org/2000/svg" viewBox="0 0 24 24" fill="currentColor"><path d="M19.43,19C19.58,19,19,19.58,19,19.43L19,11.83C19,11.43,19,11.43,18.71,11.19L12.81,6.08C12.66,5.95,13.33,5.95,13.18,6.08L7.28,11.19C6.99,11.43,6.99,11.43,6.99,11.83L6.99,19.43C6.99,19.58,6.41,19,6.56,19ZM19.43,20.5L6.58,20.5C5.81,20.5,5.51,20.2,5.51,19.43L5.51,11.83C5.51,11.06,5.73,10.55,6.31,10.05L12.21,4.95C12.79,4.45,13.24,4.45,13.81,4.95L19.71,10.05C20.29,10.55,20.52,11.05,20.52,11.83L20.52,19.43C20.52,20.2,20.22,20.5,19.44,20.5Z"/></svg>