<svg xmlns="http://www.w3.org/2000/svg" viewBox="0 0 24 24" fill="currentColor"><path d="M17.37,13L6.25,13C5.8,13,5.55,12.75,5.55,12.3L5.5,6.21C5.5,5.75,5.75,5.51,6.2,5.51L17.37,5.51C18.14,5.51,18.67,5.71,19.22,6.26L21.53,8.51C21.8,8.79,21.95,9.01,21.95,9.26C21.95,9.48,21.8,9.73,21.53,10.01L19.22,12.26C18.68,12.8,18.15,13.01,17.37,13.01ZM14.13,19.58C14.13,20.33,13.88,20.58,13.13,20.58L12.88,20.55C12.13,20.55,11.88,20.3,11.88,19.55L11.88,14.55L14.13,14.55ZM11.88,4.7C11.88,4.25,12.12,4,12.57,4L13.42,4C13.87,4,14.12,4.25,14.12,4.7L14.12,12.05L11.87,12.05Z"/></svg>