<svg xmlns="http://www.w3.org/2000/svg" viewBox="0 0 24 24"><path d="M1.5,12C1.5,6.23,6.23,1.5,12,1.5C17.77,1.5,22.5,6.23,22.5,12C22.5,17.77,17.77,22.5,12,22.5C6.23,22.5,1.5,17.77,1.5,12Z" fill="currentColor"/><path d="M20.5,12C20.5,7.33,16.67,3.5,12,3.5C7.33,3.5,3.53,7.33,3.53,12C3.53,16.67,7.33,20.47,12,20.47C16.67,20.47,20.5,16.67,20.5,12Z" fill="currentColor"/><path d="M20.9,12.97L3.1,12.97L3.1,10.97L20.9,10.97Z" fill="currentColor"/><path d="M12.3,3.09C8.6,8.57,8.6,15.43,12.3,20.91L10.64,22.03C6.6,16.04,6.6,7.97,10.64,1.98Z" fill="currentColor"/><path d="M13.36,1.97C17.4,7.96,17.4,16.03,13.36,22.02L11.7,20.9C15.4,15.42,15.4,8.56,11.7,3.08Z" fill="currentColor"/></svg>