<svg xmlns="http://www.w3.org/2000/svg" viewBox="0 0 24 24"><path d="M13,16.33L9.13,12.46C8.8,12.13,8.8,11.86,9.13,11.53L13,7.66C13.73,6.93,14,7.06,14,8.09L14,15.89C14,16.92,13.7,17.02,13,16.32Z" fill="currentColor"/><path d="M22.93,13.5L12.36,13.47L12.36,10.5L22.93,10.5C23.7,10.5,24,10.73,24,11.33L24,12.66C24,13.26,23.7,13.49,22.93,13.49Z" fill="currentColor"/><path d="M10.03,20L15.33,20C16,20,16,20,16,19.33L16,15.43L18,15.43L18,19.33C18,21.33,17.33,22,15.33,22L10.03,22Z" fill="currentColor"/><path d="M16,8.57L16,4.67C16,4,16,4,15.33,4L4.66,4C3.99,4,3.99,4,3.99,4.67L3.99,19.27C3.99,19.94,3.99,19.94,4.66,19.94L7.39,19.94L7.39,21.94L4.66,21.94C2.66,21.94,1.99,21.27,1.99,19.27L1.99,4.67C1.99,2.67,2.66,2,4.66,2L15.33,2C17.33,2,18,2.67,18,4.67L18,8.57Z" fill="currentColor"/><path d="M8,7.43L8,22.9C8,23.93,7.63,24.2,6.67,23.8L3.34,22.53C2.37,22.13,2.01,21.6,2.01,20.56L2.01,6.33C2.01,4.33,2.64,3.9,4.51,4.63L6.68,5.46C7.65,5.86,8.01,6.39,8.01,7.43Z" fill="currentColor"/></svg>