<svg xmlns="http://www.w3.org/2000/svg" viewBox="0 0 24 24" fill="currentColor"><path d="M17.5,14L17.5,7.49C17.5,6.99,17.5,6.99,17,6.99L8.99,6.99C8.49,6.99,8.49,6.99,8.49,7.49L8.49,17C8.49,17.5,8.49,17.5,8.99,17.5L12.27,17.5L12.27,19L8.99,19C7.49,19,6.99,18.5,6.99,17L6.99,7.49C6.99,5.99,7.49,5.49,8.99,5.49L17,5.49C18.5,5.49,19,5.99,19,7.49L19,14ZM18.33,20.73L14.78,21.9C14.03,22.13,13.75,21.93,13.75,21.15L13.75,9.18C13.75,8.73,14,8.4,14.42,8.25L17.1,7.38C18.53,6.9,19,7.25,19,8.75L19,19.8C19,20.25,18.75,20.57,18.33,20.72Z"/></svg>