<svg xmlns="http://www.w3.org/2000/svg" viewBox="0 0 24 24" fill="currentColor"><path d="M13,13.33C13,13.91,12.83,14.13,12.38,14.13L9.63,14.13L9.63,16.86C9.63,17.3,9.4,17.48,8.82,17.48L8.17,17.48C7.59,17.48,7.37,17.3,7.37,16.86L7.37,14.13L4.62,14.13C4.17,14.13,3.99,13.91,3.99,13.33L3.99,12.68C3.99,12.1,4.17,11.88,4.62,11.88L7.37,11.88L7.37,9.1C7.37,8.65,7.59,8.48,8.17,8.48L8.82,8.48C9.4,8.48,9.63,8.65,9.63,9.1L9.63,11.88L12.38,11.88C12.83,11.88,13,12.1,13,12.68ZM21,20.9L18.51,21.85C17.78,22.15,17.51,21.95,17.51,21.18L17.51,9.57C17.51,8.8,17.79,8.4,18.51,8.1L20.13,7.47C21.54,6.93,22.01,7.25,22.01,8.75L22.01,19.42C22.01,20.19,21.73,20.6,21.01,20.9ZM13,16L13,18.5C13,19,13,19,13.5,19L15.98,19L15.98,20.5L13.5,20.5C12,20.5,11.5,20,11.5,18.5L11.5,16ZM20.5,15.5L20.5,7.49C20.5,6.99,20.5,6.99,20,6.99L13.49,6.99C12.99,6.99,12.99,6.99,12.99,7.49L12.99,9.99L11.49,9.99L11.49,7.49C11.49,5.99,11.99,5.49,13.49,5.49L20,5.49C21.5,5.49,22,5.99,22,7.49L22,15.5Z"/></svg>