<svg xmlns="http://www.w3.org/2000/svg" viewBox="0 0 24 24" fill="currentColor"><path d="M7.7,16.28L4.34,13.33C4.1,13.11,4.1,12.9,4.34,12.68L7.7,9.73C8.27,9.21,8.5,9.3,8.5,10.08L8.5,15.93C8.5,16.71,8.27,16.81,7.7,16.29ZM7.27,14.1L7.27,11.87L15.35,11.87C15.8,11.87,15.97,12.1,15.97,12.68L15.97,13.33C15.97,13.91,15.8,14.13,15.35,14.13ZM11.5,15.57L11.5,18.5C11.5,19,11.5,19,12,19L15.98,19L15.98,20.5L12,20.5C10.5,20.5,10,20,10,18.5L10,15.57ZM18.42,19L19.98,18.98C20.5,18.97,20.5,18.97,20.5,18.45L20.5,7.5C20.5,7,20.5,7,20,7L11.99,7C11.49,7,11.49,7,11.49,7.5L11.49,10.43L9.99,10.43L9.99,7.5C9.99,6,10.49,5.5,11.99,5.5L20,5.5C21.5,5.5,22,6,22,7.5L22,18.45C22,19.95,21.5,20.45,20,20.48L18.45,20.5ZM21,20.9L18.51,21.85C17.78,22.15,17.51,21.95,17.51,21.18L17.51,9.57C17.51,8.8,17.79,8.4,18.51,8.1L20.13,7.47C21.54,6.93,22.01,7.25,22.01,8.75L22.01,19.42C22.01,20.19,21.73,20.6,21.01,20.9Z"/></svg>