<svg xmlns="http://www.w3.org/2000/svg" viewBox="0 0 24 24"><path d="M20.57,20C20.77,20,20,20.77,20,20.57L20,10.44C20,9.91,20,9.91,19.62,9.58L11.75,2.78C11.55,2.6,12.44,2.6,12.24,2.78L4.37,9.58C3.99,9.91,3.99,9.91,3.99,10.44L3.99,20.57C3.99,20.77,3.22,20,3.42,20Z" fill="currentColor"/><path d="M20.57,22L3.44,22C2.41,22,2.01,21.6,2.01,20.57L2.01,10.44C2.01,9.41,2.31,8.74,3.08,8.07L10.95,1.27C11.72,0.6,12.32,0.6,13.08,1.27L20.95,8.07C21.72,8.74,22.02,9.4,22.02,10.44L22.02,20.57C22.02,21.6,21.62,22,20.59,22Z" fill="currentColor"/></svg>