<svg xmlns="http://www.w3.org/2000/svg" viewBox="0 0 24 24"><path d="M4.93,16.37L0.46,12.44C0.13,12.14,0.13,11.87,0.46,11.57L4.93,7.64C5.7,6.94,6,7.07,6,8.11L6,15.91C6,16.94,5.7,17.08,4.93,16.38Z" fill="currentColor"/><path d="M15.13,13.5L4.36,13.47L4.36,10.5L15.13,10.5C15.73,10.5,15.96,10.8,15.96,11.57L15.96,12.44C15.96,13.21,15.73,13.51,15.13,13.51Z" fill="currentColor"/><path d="M10,15.43L10,19.33C10,20,10,20,10.67,20L15.97,20L15.97,22L10.67,22C8.67,22,8,21.33,8,19.33L8,15.43Z" fill="currentColor"/><path d="M19.23,20L21.3,19.97C22,19.96,22,19.96,22,19.27L22,4.67C22,4,22,4,21.33,4L10.66,4C9.99,4,9.99,4,9.99,4.67L9.99,8.57L7.99,8.57L7.99,4.67C7.99,2.67,8.66,2,10.66,2L21.33,2C23.33,2,24,2.67,24,4.67L24,19.27C24,21.27,23.33,21.94,21.33,21.97L19.26,22Z" fill="currentColor"/><path d="M22.67,22.53L19.34,23.8C18.37,24.2,18.01,23.93,18.01,22.9L18.01,7.43C18.01,6.4,18.38,5.86,19.34,5.46L21.51,4.63C23.38,3.9,24.01,4.33,24.01,6.33L24.01,20.56C24.01,21.59,23.64,22.13,22.68,22.53Z" fill="currentColor"/></svg>