<svg xmlns="http://www.w3.org/2000/svg" viewBox="0 0 24 24"><path d="M12,22.5C10.21,22.5,8.53,22.05,7.05,21.25L8.56,19.74C8.87,19.88,9.18,20,9.5,20.1C9.35,19.81,9.22,19.51,9.09,19.21L10.6,17.7C10.97,18.65,11.43,19.57,11.99,20.46C13.27,18.42,14.06,16.21,14.34,13.95L17.32,10.97L20.42,10.97C20.32,10.12,20.08,9.3,19.74,8.55L21.23,7.06C22.03,8.54,22.48,10.22,22.48,12.01C22.48,17.78,17.75,22.51,11.98,22.51Z" fill="currentColor"/><path d="M20.1,5.33L18.68,6.75L16.19,9.24L12.47,12.96L9.93,15.5L8.34,17.09L6.78,18.65L5.34,20.09L2.1,23.33L2.07,23.36C1.64,23.79,1.17,23.79,0.74,23.36L0.64,23.26C0.21,22.83,0.21,22.36,0.64,21.93L3.91,18.66C2.41,16.84,1.51,14.52,1.51,12C1.51,6.23,6.24,1.5,12.01,1.5C14.53,1.5,16.85,2.4,18.67,3.9L21.97,0.6C22.4,0.17,22.87,0.17,23.3,0.6L23.4,0.7C23.82,1.12,23.83,1.58,23.43,2C23.42,2.01,23.41,2.02,23.4,2.03Z" fill="currentColor"/><path d="M9.55,12.97C9.55,12.98,9.55,13,9.55,13.01L9.59,12.97Z" fill="currentColor"/><path d="M7.64,10.97C7.78,8.52,8.41,6.1,9.53,3.88C6.38,4.85,4.01,7.62,3.6,10.97Z" fill="currentColor"/><path d="M3.59,12.97C3.77,14.56,4.4,16.03,5.34,17.23L7.81,14.76C7.72,14.17,7.66,13.57,7.63,12.98Z" fill="currentColor"/><path d="M11.6,10.97L14.07,8.5C13.67,6.79,12.98,5.12,12,3.55C10.54,5.86,9.73,8.4,9.56,10.97Z" fill="currentColor"/><path d="M15.66,6.9L17.24,5.32C16.42,4.68,15.49,4.18,14.47,3.87C14.96,4.85,15.36,5.86,15.66,6.9Z" fill="currentColor"/><path d="M20.44,12.96L16.36,12.96C16.23,15.42,15.61,17.85,14.49,20.09C17.66,19.12,20.05,16.34,20.44,12.96Z" fill="currentColor"/></svg>