<svg xmlns="http://www.w3.org/2000/svg" viewBox="0 0 24 24"><path d="M19.07,7.63L23.54,11.56C23.87,11.86,23.87,12.13,23.54,12.43L19.07,16.36C18.3,17.06,18,16.93,18,15.89L18,8.09C18,7.06,18.3,6.92,19.07,7.62Z" fill="currentColor"/><path d="M8.87,13.5C8.27,13.5,8.04,13.2,8.04,12.43L8.04,11.56C8.04,10.79,8.27,10.49,8.87,10.49L19.64,10.49L19.64,13.46Z" fill="currentColor"/><path d="M8.03,20L13.33,20C14,20,14,20,14,19.33L14,15.43L16,15.43L16,19.33C16,21.33,15.33,22,13.33,22L8.03,22Z" fill="currentColor"/><path d="M14,8.57L14,4.67C14,4,14,4,13.33,4L2.66,4C1.99,4,1.99,4,1.99,4.67L1.99,19.27C1.99,19.96,1.99,19.96,2.69,19.97L4.76,20L4.73,22L2.66,21.97C0.66,21.94,-0.01,21.27,-0.01,19.27L-0.01,4.67C-0.01,2.67,0.66,2,2.66,2L13.33,2C15.33,2,16,2.67,16,4.67L16,8.57Z" fill="currentColor"/><path d="M6,7.43L6,22.9C6,23.93,5.63,24.2,4.67,23.8L1.34,22.53C0.37,22.13,0.01,21.6,0.01,20.56L0.01,6.33C0.01,4.33,0.64,3.9,2.51,4.63L4.68,5.46C5.65,5.86,6.01,6.39,6.01,7.43Z" fill="currentColor"/></svg>