<svg xmlns="http://www.w3.org/2000/svg" viewBox="0 0 24 24" fill="currentColor"><path d="M13,5.13C17.33,5.13,20.88,8.67,20.88,13C20.88,17.33,17.33,20.88,13,20.88C8.67,20.88,5.13,17.33,5.13,13C5.13,8.67,8.67,5.13,13,5.13ZM13,6.62C9.5,6.62,6.65,9.5,6.65,13C6.65,16.5,9.5,19.35,13,19.35C16.5,19.35,19.38,16.5,19.38,13C19.38,9.5,16.5,6.62,13,6.62ZM19.67,13.73L6.32,13.73L6.32,12.23L19.67,12.23ZM13.23,6.32C10.45,10.43,10.45,15.57,13.23,19.68L11.98,20.52C8.95,16.03,8.95,9.98,11.98,5.49ZM14.02,5.48C17.05,9.97,17.05,16.02,14.02,20.52L12.77,19.67C15.55,15.56,15.55,10.42,12.77,6.31Z"/></svg>