<svg xmlns="http://www.w3.org/2000/svg" viewBox="0 0 24 24"><path d="M18,13.33L18,4.66C18,3.99,18,3.99,17.33,3.99L6.66,3.99C5.99,3.99,5.99,3.99,5.99,4.66L5.99,17.33C5.99,18,5.99,18,6.66,18L11.03,18L11.03,20L6.66,20C4.66,20,3.99,19.33,3.99,17.33L3.99,4.66C3.99,2.66,4.66,1.99,6.66,1.99L17.33,1.99C19.33,1.99,20,2.66,20,4.66L20,13.33Z" fill="currentColor"/><path d="M19.1,22.3L14.37,23.87C13.37,24.17,13,23.9,13,22.87L13,6.9C13,6.3,13.33,5.87,13.9,5.67L17.47,4.5C19.37,3.87,20,4.33,20,6.33L20,21.06C20,21.66,19.67,22.09,19.1,22.29Z" fill="currentColor"/></svg>