<svg xmlns="http://www.w3.org/2000/svg" viewBox="0 0 24 24" fill="currentColor"><path d="M13.62,14.13C13.17,14.13,13,13.9,13,13.32L13,12.67C13,12.09,13.17,11.87,13.62,11.87L16.38,11.87L16.38,9.09C16.38,8.64,16.6,8.47,17.18,8.47L17.83,8.47C18.41,8.47,18.63,8.64,18.63,9.09L18.63,11.87L21.38,11.87C21.84,11.87,22.01,12.09,22.01,12.67L22.01,13.32C22.01,13.9,21.83,14.13,21.38,14.13L18.63,14.13L18.63,16.85C18.63,17.3,18.41,17.47,17.83,17.47L17.18,17.47C16.6,17.47,16.37,17.3,16.37,16.85L16.37,14.13ZM8.5,9.57L8.5,21.17C8.5,21.95,8.22,22.15,7.5,21.85L5,20.9C4.28,20.6,4.01,20.2,4.01,19.42L4.01,8.75C4.01,7.25,4.48,6.92,5.88,7.47L7.51,8.09C8.24,8.39,8.51,8.79,8.51,9.57ZM10.02,19L12.5,19C13,19,13,19,13,18.5L13,16L14.5,16L14.5,18.5C14.5,20,14,20.5,12.5,20.5L10.02,20.5ZM13,10L13,7.5C13,7,13,7,12.5,7L6,7C5.49,7,5.49,7,5.49,7.5L5.49,15.5L3.99,15.5L3.99,7.5C3.99,6,4.5,5.5,6,5.5L12.5,5.5C14,5.5,14.5,6,14.5,7.5L14.5,10Z"/></svg>