<svg xmlns="http://www.w3.org/2000/svg" viewBox="0 0 24 24"><path d="M12.83,13.5C12.23,13.5,12,13.2,12,12.43L12,11.56C12,10.79,12.23,10.49,12.83,10.49L16.5,10.49L16.5,6.79C16.5,6.19,16.8,5.96,17.57,5.96L18.44,5.96C19.21,5.96,19.51,6.19,19.51,6.79L19.51,10.49L23.18,10.49C23.78,10.49,24.01,10.79,24.01,11.56L24.01,12.43C24.01,13.2,23.78,13.5,23.18,13.5L19.51,13.5L19.51,17.13C19.51,17.73,19.21,17.96,18.44,17.96L17.57,17.96C16.8,17.96,16.5,17.73,16.5,17.13L16.5,13.5Z" fill="currentColor"/><path d="M6,7.43L6,22.9C6,23.93,5.63,24.2,4.67,23.8L1.34,22.53C0.37,22.13,0.01,21.6,0.01,20.56L0.01,6.33C0.01,4.33,0.64,3.9,2.51,4.63L4.68,5.46C5.65,5.86,6.01,6.39,6.01,7.43Z" fill="currentColor"/><path d="M8.03,20L11.33,20C12,20,12,20,12,19.33L12,16L14,16L14,19.33C14,21.33,13.33,22,11.33,22L8.03,22Z" fill="currentColor"/><path d="M12,8L12,4.67C12,4,12,4,11.33,4L2.66,4C1.99,4,1.99,4,1.99,4.67L1.99,15.34L-0.01,15.34L-0.01,4.67C-0.01,2.67,0.66,2,2.66,2L11.33,2C13.33,2,14,2.67,14,4.67L14,8Z" fill="currentColor"/></svg>