<svg xmlns="http://www.w3.org/2000/svg" viewBox="0 0 24 24" fill="currentColor"><path d="M18.3,9.72L21.66,12.67C21.9,12.9,21.9,13.1,21.66,13.32L18.3,16.27C17.73,16.79,17.5,16.7,17.5,15.92L17.5,10.07C17.5,9.29,17.73,9.19,18.3,9.71ZM10.65,14.13C10.2,14.13,10.03,13.9,10.03,13.32L10.03,12.67C10.03,12.09,10.2,11.87,10.65,11.87L18.73,11.87L18.73,14.1ZM10.02,19L14,19C14.5,19,14.5,19,14.5,18.5L14.5,15.57L16,15.57L16,18.5C16,20,15.5,20.5,14,20.5L10.02,20.5ZM14.5,10.43L14.5,7.5C14.5,7,14.5,7,14,7L5.99,7C5.49,7,5.49,7,5.49,7.5L5.49,18.45C5.49,18.97,5.49,18.97,6.02,18.98L7.57,19L7.55,20.5L5.99,20.48C4.49,20.45,3.99,19.95,3.99,18.45L3.99,7.5C3.99,6,4.49,5.5,5.99,5.5L14,5.5C15.5,5.5,16,6,16,7.5L16,10.43ZM8.5,9.57L8.5,21.17C8.5,21.95,8.22,22.15,7.5,21.85L5,20.9C4.28,20.6,4.01,20.2,4.01,19.42L4.01,8.75C4.01,7.25,4.48,6.92,5.88,7.47L7.51,8.09C8.24,8.39,8.51,8.79,8.51,9.57Z"/></svg>