<svg xmlns="http://www.w3.org/2000/svg" viewBox="0 0 24 24"><path d="M20.87,10L3.14,10C2.47,10,2.01,9.47,2.01,8.8C2.01,8.27,2.31,7.7,3.08,7.2L10.75,2.13C11.68,1.53,12.35,1.53,13.22,2.1L20.99,7.17C21.72,7.67,22.02,8.2,22.02,8.74C22.02,9.44,21.55,10.01,20.89,10.01Z" fill="currentColor"/><path d="M4,19L4,10L7,10L7,19Z" fill="currentColor"/><path d="M2.9,22C2.33,22,2,21.67,2,21.07L2,19.9C2,19.33,2.33,19,2.93,19L21.1,19C21.67,19,22,19.33,22,19.93L22,21.1C22,21.67,21.67,22,21.07,22Z" fill="currentColor"/><path d="M10.5,19L10.5,10L13.5,10L13.5,19Z" fill="currentColor"/><path d="M17,19L17,10L20,10L20,19Z" fill="currentColor"/></svg>