<svg xmlns="http://www.w3.org/2000/svg" viewBox="0 0 24 24" fill="currentColor"><path d="M13.75,16.25L10.85,13.34C10.6,13.1,10.6,12.89,10.85,12.65L13.75,9.74C14.3,9.2,14.5,9.29,14.5,10.07L14.5,15.92C14.5,16.69,14.27,16.76,13.75,16.24ZM21.2,14.13L13.27,14.1L13.27,11.87L21.2,11.87C21.77,11.87,22,12.05,22,12.5L22,13.49C22,13.94,21.77,14.12,21.2,14.12ZM11.52,19L15.5,19C16,19,16,19,16,18.5L16,15.57L17.5,15.57L17.5,18.5C17.5,20,17,20.5,15.5,20.5L11.52,20.5ZM16,10.43L16,7.5C16,7,16,7,15.5,7L7.49,7C6.99,7,6.99,7,6.99,7.5L6.99,18.45C6.99,18.96,6.99,18.96,7.49,18.96L9.54,18.96L9.54,20.46L7.49,20.46C5.99,20.46,5.49,19.95,5.49,18.45L5.49,7.5C5.49,6,5.99,5.5,7.49,5.5L15.5,5.5C17,5.5,17.5,6,17.5,7.5L17.5,10.43ZM10,9.57L10,21.17C10,21.95,9.72,22.15,9,21.85L6.5,20.9C5.78,20.6,5.51,20.2,5.51,19.42L5.51,8.75C5.51,7.25,5.98,6.92,7.38,7.47L9.01,8.09C9.74,8.39,10.01,8.79,10.01,9.57Z"/></svg>