<svg xmlns="http://www.w3.org/2000/svg" viewBox="0 0 24 24"><path d="M11,7.67L14.87,11.54C15.2,11.87,15.2,12.14,14.87,12.47L11,16.34C10.3,17.04,10,16.94,10,15.91L10,8.11C10,7.08,10.27,6.94,11,7.68Z" fill="currentColor"/><path d="M1.07,13.5C0.3,13.5,0,13.27,0,12.67L0,11.34C0,10.74,0.3,10.51,1.07,10.51L11.64,10.51L11.64,13.48Z" fill="currentColor"/><path d="M8,15.43L8,19.33C8,20,8,20,8.67,20L13.97,20L13.97,22L8.67,22C6.67,22,6,21.33,6,19.33L6,15.43Z" fill="currentColor"/><path d="M16.6,19.93L19.33,19.93C20,19.93,20,19.93,20,19.26L20,4.66C20,3.99,20,3.99,19.33,3.99L8.66,3.99C7.99,3.99,7.99,3.99,7.99,4.66L7.99,8.56L5.99,8.56L5.99,4.66C5.99,2.66,6.66,1.99,8.66,1.99L19.33,1.99C21.33,1.99,22,2.66,22,4.66L22,19.26C22,21.26,21.33,21.93,19.33,21.93L16.6,21.93Z" fill="currentColor"/><path d="M20.67,22.53L17.34,23.8C16.37,24.2,16.01,23.93,16.01,22.9L16.01,7.43C16.01,6.4,16.38,5.86,17.34,5.46L19.51,4.63C21.38,3.9,22.01,4.33,22.01,6.33L22.01,20.56C22.01,21.59,21.64,22.13,20.68,22.53Z" fill="currentColor"/></svg>