<svg xmlns="http://www.w3.org/2000/svg" viewBox="0 0 24 24" fill="currentColor"><path d="M19.65,11.5L6.36,11.5C5.85,11.5,5.51,11.1,5.51,10.6C5.51,10.2,5.73,9.78,6.31,9.4L12.06,5.6C12.76,5.15,13.26,5.15,13.91,5.58L19.74,9.38C20.29,9.75,20.52,10.15,20.52,10.56C20.52,11.08,20.16,11.51,19.67,11.51ZM7,18.25L7,11.5L9.25,11.5L9.25,18.25ZM6.17,20.5C5.75,20.5,5.5,20.25,5.5,19.8L5.5,18.92C5.5,18.5,5.75,18.25,6.2,18.25L19.83,18.25C20.25,18.25,20.5,18.5,20.5,18.95L20.5,19.83C20.5,20.25,20.25,20.5,19.8,20.5ZM11.88,18.25L11.88,11.5L14.13,11.5L14.13,18.25ZM16.75,18.25L16.75,11.5L19,11.5L19,18.25Z"/></svg>