<svg xmlns="http://www.w3.org/2000/svg" viewBox="0 0 24 24"><path d="M12,12.44C12,13.21,11.77,13.51,11.17,13.51L7.5,13.51L7.5,17.14C7.5,17.74,7.2,17.97,6.43,17.97L5.56,17.97C4.79,17.97,4.49,17.74,4.49,17.14L4.49,13.51L0.82,13.51C0.22,13.51,-0.01,13.21,-0.01,12.44L-0.01,11.57C-0.01,10.8,0.22,10.5,0.82,10.5L4.49,10.5L4.49,6.8C4.49,6.2,4.79,5.97,5.56,5.97L6.43,5.97C7.2,5.97,7.5,6.2,7.5,6.8L7.5,10.5L11.17,10.5C11.77,10.5,12,10.8,12,11.57Z" fill="currentColor"/><path d="M22.67,22.53L19.34,23.8C18.37,24.2,18.01,23.93,18.01,22.9L18.01,7.43C18.01,6.4,18.38,5.86,19.34,5.46L21.51,4.63C23.38,3.9,24.01,4.33,24.01,6.33L24.01,20.56C24.01,21.59,23.64,22.13,22.68,22.53Z" fill="currentColor"/><path d="M12,16L12,19.33C12,20,12,20,12.67,20L15.97,20L15.97,22L12.67,22C10.67,22,10,21.33,10,19.33L10,16Z" fill="currentColor"/><path d="M22,15.33L22,4.66C22,3.99,22,3.99,21.33,3.99L12.66,3.99C11.99,3.99,11.99,3.99,11.99,4.66L11.99,7.99L9.99,7.99L9.99,4.66C9.99,2.66,10.66,1.99,12.66,1.99L21.33,1.99C23.33,1.99,24,2.66,24,4.66L24,15.33Z" fill="currentColor"/></svg>