<svg xmlns="http://www.w3.org/2000/svg" viewBox="0 0 24 24" fill="currentColor"><path d="M13,20.88C11.66,20.88,10.4,20.54,9.29,19.94L10.42,18.8C10.65,18.91,10.88,19,11.13,19.07C11.01,18.86,10.92,18.63,10.82,18.41L11.95,17.27C12.23,17.99,12.57,18.68,12.99,19.34C13.95,17.81,14.54,16.16,14.75,14.46L16.99,12.23L19.32,12.23C19.24,11.59,19.06,10.97,18.8,10.41L19.92,9.29C20.52,10.4,20.86,11.66,20.86,13.01C20.86,17.33,17.31,20.88,12.98,20.88ZM19.07,8L18.01,9.06L16.14,10.93L13.35,13.72L11.45,15.63L10.25,16.82L9.08,17.99L8,19.07L5.57,21.5L5.55,21.52C5.23,21.84,4.88,21.84,4.55,21.52L4.48,21.45C4.16,21.12,4.16,20.77,4.48,20.45L6.93,18C5.81,16.63,5.13,14.89,5.13,13C5.13,8.67,8.68,5.13,13.01,5.13C14.9,5.13,16.64,5.8,18,6.93L20.48,4.45C20.8,4.13,21.15,4.13,21.47,4.45L21.55,4.53C21.87,4.84,21.87,5.19,21.57,5.5C21.56,5.51,21.56,5.51,21.55,5.52ZM11.16,13.73C11.16,13.73,11.16,13.75,11.16,13.76L11.19,13.73ZM9.73,12.23C9.84,10.39,10.31,8.58,11.15,6.91C8.79,7.64,7.01,9.71,6.7,12.23ZM6.69,13.73C6.83,14.92,7.3,16.02,8,16.92L9.86,15.07C9.79,14.63,9.75,14.18,9.72,13.73ZM12.7,12.23L14.55,10.38C14.25,9.09,13.73,7.84,13,6.66C11.9,8.39,11.3,10.3,11.17,12.23ZM16.93,7.99C16.32,7.51,15.62,7.13,14.85,6.9C15.22,7.64,15.52,8.39,15.75,9.18ZM16.27,13.72C16.17,15.57,15.71,17.39,14.87,19.07C17.24,18.34,19.04,16.25,19.33,13.72Z"/></svg>