<svg xmlns="http://www.w3.org/2000/svg" viewBox="0 0 24 24"><path d="M9.67,11.57C10.07,10.6,10.6,10.07,11.57,9.67L16.44,7.57L14.34,12.44C13.94,13.41,13.41,13.94,12.44,14.34L7.57,16.44Z" fill="currentColor"/><path d="M1.5,12C1.5,6.23,6.23,1.5,12,1.5C17.77,1.5,22.5,6.23,22.5,12C22.5,17.77,17.77,22.5,12,22.5C6.23,22.5,1.5,17.77,1.5,12Z" fill="currentColor"/><path d="M19.5,12C19.5,7.87,16.13,4.5,12,4.5C7.87,4.5,4.5,7.87,4.5,12C4.5,16.13,7.87,19.5,12,19.5C16.13,19.5,19.5,16.13,19.5,12Z" fill="currentColor"/></svg>