<svg xmlns="http://www.w3.org/2000/svg" viewBox="0 0 24 24" fill="currentColor"><path d="M5.13,13C5.13,8.65,8.65,5.13,13,5.13C17.35,5.13,20.88,8.65,20.88,13C20.88,17.33,17.33,20.88,13,20.88C8.65,20.88,5.13,17.35,5.13,13ZM10.8,10.2C10.88,9.58,11.53,9.83,11.53,9.38L11.53,9.21L11.23,9.21C10.93,9.21,10.93,8.73,11.23,8.73L11.51,8.73L11.51,8.56C11.51,8.18,12.08,8.18,12.08,8.56L12.08,8.88C12.08,9.33,12.69,9.33,12.69,8.88L12.69,8.53C12.69,8,12.91,7.61,13.68,7.61L16.46,7.61C15.01,6.8,14.18,6.63,13.01,6.63C11.75,6.63,10.61,6.98,9.76,7.61C9.83,8.96,9.33,10.06,7.23,10.31C6.83,11.11,6.63,12.05,6.63,13.01L6.63,13.38C9.38,15.58,8.98,14.41,8.96,17.93C10.1,18.89,11.51,19.38,13.01,19.38C16.51,19.38,19.36,16.51,19.36,13.01C18.83,12.91,18.46,12.58,18.41,11.98L17.73,11.83C17.51,12.33,16.73,12.45,16.36,12.15L15.71,11.63C15.26,11.78,16.01,12.77,16.16,13.07L16.68,13.07C17.13,13.07,17.28,13.5,17,13.85L16.01,15.17L16.01,15.92L16.23,15.75C16.55,15.5,16.93,15.75,16.61,16.2L16.16,16.82C16.06,16.97,15.8,16.9,15.8,16.65L15.8,16.25L15.11,17.23C14.48,18.11,13.58,17.83,13.58,16.68L13.58,15.23C12.83,14.96,12.78,14.88,12.78,14.11C10.78,14.36,10.83,14.43,10.31,12.68C9.98,11.61,10.1,11.48,12.23,10.73C13.13,10.51,13.04,10.73,13.51,11.06C13.79,11.23,13.79,11.23,14.28,11.23C14.75,11.23,14.96,10.91,14.96,10.61C14.96,10.36,14.73,10.1,14.26,10.1L12.14,10.1C11.99,11.23,10.71,10.95,10.81,10.2Z"/></svg>