<svg xmlns="http://www.w3.org/2000/svg" viewBox="0 0 24 24" fill="currentColor"><path d="M12.25,9.75L15.15,12.65C15.4,12.9,15.4,13.11,15.15,13.35L12.25,16.25C11.73,16.78,11.5,16.71,11.5,15.93L11.5,10.08C11.5,9.31,11.7,9.21,12.25,9.76ZM4.8,14.13C4.23,14.13,4,13.95,4,13.5L4,12.51C4,12.06,4.22,11.88,4.8,11.88L12.73,11.88L12.73,14.11ZM10,15.57L10,18.5C10,19,10,19,10.5,19L14.48,19L14.48,20.5L10.5,20.5C9,20.5,8.5,20,8.5,18.5L8.5,15.57ZM16.45,18.95L18.5,18.95C19,18.95,19,18.95,19,18.45L19,7.49C19,6.99,19,6.99,18.5,6.99L10.5,6.99C9.99,6.99,9.99,6.99,9.99,7.49L9.99,10.42L8.49,10.42L8.49,7.49C8.49,5.99,9,5.49,10.5,5.49L18.5,5.49C20,5.49,20.5,5.99,20.5,7.49L20.5,18.45C20.5,19.95,20,20.45,18.5,20.45L16.45,20.45ZM19.5,20.9L17.01,21.85C16.28,22.15,16.01,21.95,16.01,21.18L16.01,9.57C16.01,8.8,16.29,8.4,17.01,8.1L18.63,7.47C20.04,6.93,20.51,7.25,20.51,8.75L20.51,19.42C20.51,20.19,20.23,20.6,19.51,20.9Z"/></svg>