<svg xmlns="http://www.w3.org/2000/svg" viewBox="0 0 24 24"><path d="M1.5,12C1.5,6.2,6.2,1.5,12,1.5C17.8,1.5,22.5,6.2,22.5,12C22.5,17.77,17.77,22.5,12,22.5C6.2,22.5,1.5,17.8,1.5,12Z" fill="currentColor"/><path d="M9.07,8.27C9.17,7.44,10.04,7.77,10.04,7.17L10.04,6.94L9.64,6.94C9.24,6.94,9.24,6.31,9.64,6.31L10.01,6.31L10.01,6.08C10.01,5.58,10.78,5.58,10.78,6.08L10.78,6.51C10.78,7.11,11.58,7.11,11.58,6.51L11.58,6.04C11.58,5.34,11.88,4.81,12.91,4.81L16.61,4.81C14.68,3.74,13.58,3.51,12.01,3.51C10.34,3.51,8.81,3.98,7.68,4.81C7.78,6.61,7.11,8.08,4.31,8.41C3.78,9.48,3.51,10.74,3.51,12.01L3.51,12.51C7.18,15.44,6.64,13.88,6.61,18.58C8.14,19.85,10.01,20.51,12.01,20.51C16.68,20.51,20.48,16.68,20.48,12.01C19.78,11.88,19.28,11.44,19.21,10.64L18.31,10.44C18.01,11.11,16.98,11.27,16.48,10.87L15.61,10.17C15.01,10.37,16.01,11.7,16.21,12.1L16.91,12.1C17.51,12.1,17.71,12.67,17.34,13.13L16.01,14.9L16.01,15.9L16.31,15.67C16.74,15.34,17.24,15.67,16.81,16.27L16.21,17.1C16.08,17.3,15.74,17.2,15.74,16.87L15.74,16.34L14.81,17.64C13.98,18.81,12.78,18.44,12.78,16.91L12.78,14.98C11.78,14.61,11.71,14.51,11.71,13.48C9.04,13.81,9.11,13.91,8.41,11.58C7.98,10.15,8.14,9.98,10.98,8.98C12.18,8.68,12.05,8.98,12.68,9.41C13.05,9.64,13.05,9.64,13.71,9.64C14.34,9.64,14.61,9.21,14.61,8.81C14.61,8.48,14.31,8.14,13.68,8.14L10.85,8.14C10.65,9.64,8.95,9.27,9.08,8.27Z" fill="currentColor"/></svg>