<svg xmlns="http://www.w3.org/2000/svg" viewBox="0 0 24 24" fill="currentColor"><path d="M5.13,13C5.13,8.65,8.65,5.13,13,5.13C17.35,5.13,20.88,8.65,20.88,13C20.88,17.35,17.35,20.88,13,20.88C8.65,20.88,5.13,17.35,5.13,13ZM10.02,16.38L10.67,15.23C10.6,15,10.35,14.78,9.95,14.78L9.85,14.78C9.75,14.78,9.65,14.83,9.6,14.93L9.05,15.8C8.68,16.4,9.68,17,10.03,16.38ZM8.73,14.6L14.58,14.6C14.58,13.94,14.28,13.55,13.7,13.55L11.67,13.55L14.35,9C14.73,8.32,13.75,7.82,13.4,8.42L13.05,9.02L12.72,8.42C12.42,7.84,11.4,8.29,11.77,9L12.42,10.07L10.42,13.52L8.72,13.52C7.99,13.52,8.02,14.59,8.72,14.59ZM13.6,12.12L16.08,16.34C16.45,16.97,17.4,16.42,17.03,15.77L16.35,14.59L17.3,14.59C18.05,14.59,18.05,13.52,17.3,13.52L15.71,13.52L13.86,10.37C13.86,10.37,13.05,11.19,13.61,12.12Z"/></svg>