<svg xmlns="http://www.w3.org/2000/svg" viewBox="0 0 24 24" fill="currentColor"><path d="M10.58,19L10.15,19C9.75,17.93,9.05,16.35,8.18,14.22C7.23,12.1,6.58,10.5,6.15,9.42C5.93,8.97,5.68,8.54,5.25,8.09C4.75,7.62,4.33,7.37,4,7.4L4,7L8.55,7L8.55,7.38C8.23,7.4,7.9,7.5,7.63,7.65C7.33,7.88,7.2,8.15,7.35,8.4L8.58,11.35C9.85,14.4,10.6,16.2,10.85,16.77C11.02,16.45,11.45,15.6,12.12,14.28L12.97,12.63C12.87,12.42,12.62,11.78,12.15,10.73C11.52,9.18,11.1,8.28,10.95,7.95C10.8,7.75,10.57,7.58,10.25,7.5C10.05,7.45,9.75,7.41,9.37,7.41L9.37,7.01L13.37,7.01L13.37,7.38C13.05,7.41,12.82,7.46,12.67,7.59C12.45,7.74,12.45,7.91,12.54,8.16L13.22,9.66C13.5,10.34,13.72,10.84,13.89,11.22L14.47,9.96C14.82,9.24,15.07,8.67,15.24,8.26C15.39,7.96,15.34,7.76,15.19,7.64C14.99,7.47,14.64,7.41,14.14,7.41L14.16,7.02L17.61,7.02L17.61,7.39C17.31,7.41,17.01,7.52,16.69,7.67C16.39,7.84,16.17,8.07,15.99,8.34L14.34,11.92C14.42,12.12,14.85,13.1,15.64,14.94L16.26,16.47L19.71,8.24C19.64,7.96,19.39,7.71,19.06,7.56C18.84,7.47,18.61,7.41,18.39,7.41L18.39,7.02L21.99,7.04L21.99,7.39C21.24,7.41,20.73,7.79,20.39,8.59L19.71,10.26C18.04,14.34,16.81,17.24,16.06,19.02L15.66,19.02L13.36,13.39L12.31,15.47C11.51,17.07,10.94,18.24,10.56,19.02Z"/></svg>