<svg xmlns="http://www.w3.org/2000/svg" viewBox="0 0 24 24" fill="currentColor"><path d="M13.98,20.75C13.28,20.75,12.65,20.67,12.12,20.5C11.54,20.3,11.1,20.05,10.75,19.73C10.38,19.41,10.13,19.07,9.95,18.7C9.82,18.32,9.75,17.8,9.75,17.1L9.75,11.75L8.04,11.75L8.04,9.6C8.64,9.4,9.17,9.1,9.6,8.75C9.99,8.43,10.35,7.98,10.62,7.43C10.87,6.93,11.05,6.25,11.15,5.5L13.32,5.5L13.32,9.38L16.95,9.38L16.95,11.75L13.32,11.75L13.32,15.68C13.32,16.52,13.38,17.1,13.45,17.38C13.58,17.61,13.75,17.81,14,17.96C14.32,18.16,14.7,18.26,15.15,18.26C15.92,18.26,16.7,18.01,17.45,17.53L17.45,19.91C16.83,20.23,16.2,20.46,15.67,20.58C15.15,20.71,14.57,20.75,13.97,20.75Z"/></svg>