<svg xmlns="http://www.w3.org/2000/svg" viewBox="0 0 24 24"><path d="M11.97,3.33C18.6,3.33,24,7.5,24,12.63C24,15.67,22.12,18.32,19.23,20L19.23,16.66L4.8,16.66L4.8,20.03C1.89,18.36,0,15.68,0,12.63C0,7.5,5.37,3.33,11.97,3.33Z" fill="currentColor"/><path d="M14.2,21.43C14.63,21.06,14.93,20.46,14.93,19.6C14.93,18.8,14.63,18.27,14.16,17.93C13.73,17.6,13.19,17.43,12.33,17.43C11.83,17.43,11.33,17.46,10.96,17.53L10.96,21.93C11.23,21.96,11.59,22,12.13,22C13,22,13.73,21.8,14.2,21.43Z" fill="currentColor"/><path d="M5.57,21.97L6.6,21.97L6.6,20.17L8.2,20.17L8.2,19.34L6.6,19.34L6.6,18.31L8.3,18.31L8.3,17.48L5.57,17.48Z" fill="currentColor"/><path d="M9.07,21.97L10.1,21.97L10.1,17.47L9.07,17.47Z" fill="currentColor"/><path d="M12,21.2L12,18.27C12.07,18.24,12.23,18.24,12.43,18.24C13.33,18.24,13.86,18.71,13.86,19.64C13.86,20.71,13.26,21.21,12.33,21.21C12.2,21.21,12.06,21.21,12,21.21Z" fill="currentColor"/><path d="M15.6,21.97L18.47,21.97L18.47,21.14L16.6,21.14L16.6,20.07L18.27,20.07L18.27,19.24L16.6,19.24L16.6,18.31L18.37,18.31L18.37,17.48L15.6,17.48Z" fill="currentColor"/><path d="M8.6,15.6C8.6,15.6,15.6,15.6,15.83,15.6C16.5,14.9,15.13,13.4,15.23,12.43L15.66,10.13C16.06,7.86,16.33,4.9,11.53,5.26L11.03,4.06L10.5,4.23L10.63,5.46L9.3,6.09L9.4,6.59L7.1,9.12C7.1,9.12,7,9.32,7.17,9.59C8.17,11.22,9.14,10.29,9.6,9.92L11.2,9.99C8.83,11.32,7.97,12.89,8.6,15.59Z" fill="currentColor"/></svg>