<svg xmlns="http://www.w3.org/2000/svg" viewBox="0 0 24 24" fill="currentColor"><path d="M8.5,12.58L6.87,12.58C5.97,12.58,5.25,11.85,5.25,10.95C5.25,10.05,5.97,9.32,6.87,9.32C7.77,9.32,8.5,10.05,8.5,10.95ZM9.32,6.88C9.32,5.98,10.05,5.25,10.95,5.25C11.85,5.25,12.58,5.98,12.58,6.88L12.58,10.95C12.58,11.85,11.85,12.58,10.95,12.58C10.05,12.58,9.32,11.85,9.32,10.95ZM12.58,17.5L12.58,19.13C12.58,20.03,11.85,20.75,10.95,20.75C10.05,20.75,9.32,20.03,9.32,19.13C9.32,18.23,10.05,17.5,10.95,17.5ZM6.88,16.67C5.98,16.67,5.25,15.95,5.25,15.05C5.25,14.15,5.98,13.42,6.88,13.42L10.95,13.42C11.85,13.42,12.58,14.15,12.58,15.05C12.58,15.95,11.85,16.67,10.95,16.67ZM17.5,13.42L19.13,13.42C20.03,13.42,20.76,14.15,20.76,15.05C20.76,15.95,20.03,16.67,19.13,16.67C18.23,16.67,17.5,15.95,17.5,15.05ZM16.67,19.12C16.67,20.02,15.95,20.75,15.05,20.75C14.15,20.75,13.42,20.02,13.42,19.12L13.42,15.05C13.42,14.15,14.15,13.42,15.05,13.42C15.95,13.42,16.67,14.15,16.67,15.05ZM13.42,8.5L13.42,6.87C13.42,5.97,14.15,5.24,15.05,5.24C15.95,5.24,16.68,5.97,16.68,6.87C16.68,7.77,15.95,8.5,15.05,8.5ZM19.12,9.33C20.02,9.33,20.75,10.05,20.75,10.95C20.75,11.85,20.02,12.58,19.12,12.58L15.05,12.58C14.15,12.58,13.42,11.85,13.42,10.95C13.42,10.05,14.15,9.33,15.05,9.33Z"/></svg>