<svg xmlns="http://www.w3.org/2000/svg" viewBox="0 0 24 24" fill="currentColor"><path d="M8.43,19.38C8.07,19.38,7.77,19.35,7.55,19.2C7.17,18.92,7.38,18.45,6.97,18.3C6.32,18.02,5.15,17.85,5.15,17.16C5.15,16.93,5.32,16.7,5.65,16.55C6.85,16.01,8,15,8.37,13.73C8.45,13.5,8.4,13.48,8.25,13.35C7.8,12.96,6.57,12.47,6.57,11.65C6.57,10.62,7.62,10.55,8.58,10.95C8.6,10.95,8.6,10.95,8.6,10.93C8.45,7.91,9.4,5.25,13.02,5.25C16.64,5.25,17.6,7.9,17.45,10.93C17.45,10.95,17.45,10.95,17.47,10.95C18.47,10.6,19.47,10.6,19.47,11.65C19.47,12.47,18.25,12.95,17.8,13.35C17.65,13.48,17.6,13.5,17.67,13.73C18.05,15,19.2,16,20.39,16.55C20.72,16.7,20.9,16.93,20.9,17.16C20.9,17.85,19.72,18.03,19.08,18.3C18.68,18.48,18.93,18.88,18.5,19.2C18.27,19.35,17.97,19.38,17.62,19.38C15.35,19.38,15.24,20.75,13.02,20.75C10.79,20.75,10.7,19.38,8.43,19.38Z"/></svg>