<svg xmlns="http://www.w3.org/2000/svg" viewBox="0 0 24 24"><path d="M4.7,22.93C3.23,22.93,2,21.7,2,20.2L2,2L22,2L22,12.9C22,14.4,20.77,15.63,19.3,15.63C17.77,15.63,16.57,14.4,16.57,12.9L16.57,11.1C16.57,10.6,16.14,10.2,15.67,10.2C15.14,10.2,14.74,10.6,14.74,11.1L14.74,16.57C14.74,18.1,13.51,19.3,12.04,19.3C10.51,19.3,9.31,18.1,9.31,16.57L9.31,9.3C9.31,8.8,8.88,8.37,8.38,8.37C7.88,8.37,7.45,8.8,7.45,9.3L7.45,20.2C7.45,21.7,6.28,22.93,4.72,22.93Z" fill="currentColor"/><path d="M5.67,20.2L5.67,9.3C5.67,7.73,6.84,6.57,8.37,6.57C9.87,6.57,11.07,7.74,11.07,9.3L11.07,16.57C11.07,17.07,11.5,17.47,12.04,17.47C12.54,17.47,12.97,17.07,12.97,16.57L12.97,11.1C12.97,9.63,14.14,8.37,15.67,8.37C17.17,8.37,18.37,9.64,18.37,11.1L18.37,12.9C18.37,13.47,18.8,13.87,19.3,13.87C19.77,13.87,20.2,13.47,20.2,12.9L20.2,3.83L3.8,3.83L3.8,20.2C3.8,20.7,4.23,21.1,4.7,21.1C5.27,21.1,5.67,20.7,5.67,20.2Z" fill="currentColor"/></svg>