<svg xmlns="http://www.w3.org/2000/svg" viewBox="0 0 24 24" fill="currentColor"><path d="M12.57,19.08C12.57,20.48,11.45,21.55,10.07,21.55C8.52,21.55,7.6,20.3,7.6,19.08C7.6,17.7,8.67,16.58,10.08,16.58L12.57,16.58ZM10.07,15.63C8.7,15.63,7.6,14.5,7.6,13.15C7.6,11.78,8.7,10.65,10.08,10.65L12.57,10.65L12.57,15.63ZM15.83,10.68C17.18,10.68,18.3,11.78,18.3,13.15C18.3,14.5,17.18,15.65,15.83,15.65C14.45,15.65,13.33,14.5,13.33,13.15C13.33,11.78,14.45,10.68,15.83,10.68ZM10.07,9.72C9.2,9.72,8.33,9.27,7.88,8.47C7.65,8.07,7.55,7.65,7.55,7.22C7.55,6.77,7.65,6.34,7.88,5.94C8.33,5.19,9.21,4.74,10.07,4.74L12.57,4.74L12.57,9.71ZM13.32,9.72L13.32,4.75L16,4.75C17.48,4.75,18.6,5.88,18.6,7.23C18.6,8.55,17.48,9.72,16,9.72Z"/></svg>