<svg xmlns="http://www.w3.org/2000/svg" viewBox="0 0 24 24"><path d="M9.57,22.33C8.77,22.33,8.2,21.7,8.2,20.96L8.2,17.96L7,17.96C6.4,17.96,5.93,17.53,5.93,16.93L5.93,7.1L17.96,7.1L17.96,16.93C17.96,17.53,17.46,17.96,16.89,17.96L15.69,17.96L15.69,20.96C15.69,21.69,15.09,22.33,14.32,22.33C13.59,22.33,12.99,21.7,12.99,20.96L12.99,17.96L10.89,17.96L10.89,20.96C10.89,21.69,10.29,22.33,9.56,22.33Z" fill="currentColor"/><path d="M2.47,13.8L2.47,8.43C2.47,7.7,3.07,7.06,3.8,7.06C4.57,7.06,5.2,7.69,5.2,8.43L5.2,13.8C5.2,14.57,4.57,15.2,3.8,15.2C3.07,15.2,2.47,14.57,2.47,13.8Z" fill="currentColor"/><path d="M5.97,6.27C6.1,4.4,7.37,2.87,9.1,2.04L8,0.41C7.93,0.34,7.97,0.21,8.03,0.14C8.13,0.07,8.26,0.11,8.33,0.24L9.46,1.91C10.23,1.61,11.06,1.41,11.96,1.41C12.86,1.41,13.69,1.61,14.46,1.91L15.63,0.24C15.7,0.11,15.8,0.07,15.9,0.14C16,0.21,16,0.34,15.93,0.41L14.8,2.04C16.6,2.87,17.8,4.41,18,6.27Z" fill="currentColor"/><path d="M10,3.93C10,3.56,9.7,3.26,9.37,3.26C9,3.26,8.7,3.56,8.7,3.93C8.7,4.3,9,4.6,9.37,4.6C9.7,4.6,10,4.3,10,3.93Z" fill="currentColor"/><path d="M18.77,13.8L18.77,8.43C18.77,7.7,19.37,7.06,20.1,7.06C20.9,7.06,21.47,7.69,21.47,8.43L21.47,13.8C21.47,14.57,20.9,15.2,20.1,15.2C19.37,15.2,18.77,14.57,18.77,13.8Z" fill="currentColor"/><path d="M15.2,3.93C15.2,3.56,14.9,3.26,14.53,3.26C14.13,3.26,13.86,3.56,13.86,3.93C13.86,4.3,14.13,4.6,14.53,4.6C14.9,4.6,15.2,4.3,15.2,3.93Z" fill="currentColor"/></svg>