<svg xmlns="http://www.w3.org/2000/svg" viewBox="0 0 24 24" fill="currentColor"><path d="M9.9,20.45C9.1,20.42,8.58,20.3,8.08,20.09C7.61,19.92,7.18,19.64,6.75,19.25C6.36,18.82,6.08,18.4,5.91,17.92C5.7,17.42,5.58,16.89,5.55,16.1C5.5,15.3,5.5,15.03,5.5,13C5.5,10.98,5.5,10.7,5.55,9.9C5.58,9.1,5.7,8.58,5.91,8.08C6.08,7.61,6.36,7.18,6.75,6.75C7.18,6.36,7.6,6.08,8.08,5.91C8.58,5.7,9.11,5.58,9.9,5.55C10.71,5.5,10.98,5.5,13,5.5C15.02,5.5,15.3,5.5,16.1,5.55C16.9,5.58,17.42,5.7,17.92,5.91C18.39,6.08,18.82,6.36,19.25,6.75C19.64,7.18,19.92,7.6,20.09,8.08C20.3,8.58,20.42,9.11,20.45,9.9C20.5,10.71,20.5,10.98,20.5,13C20.5,15.03,20.5,15.3,20.45,16.1C20.42,16.9,20.3,17.43,20.09,17.92C19.92,18.39,19.64,18.82,19.25,19.25C18.82,19.65,18.4,19.92,17.92,20.09C17.42,20.3,16.89,20.42,16.1,20.45C15.29,20.5,15.02,20.5,13,20.5C10.98,20.5,10.7,20.5,9.9,20.45ZM16.02,19.1C16.75,19.07,17.15,18.95,17.43,18.85C17.78,18.7,18.03,18.55,18.27,18.27C18.55,18.03,18.7,17.77,18.85,17.43C18.95,17.15,19.08,16.75,19.1,16.02C19.15,15.25,19.15,15,19.15,13C19.15,11,19.15,10.75,19.1,9.98C19.07,9.25,18.95,8.85,18.85,8.57C18.7,8.22,18.55,7.97,18.27,7.73C18.03,7.45,17.77,7.3,17.43,7.15C17.15,7.05,16.75,6.92,16.02,6.9C15.25,6.85,15,6.85,13,6.85C11,6.85,10.75,6.85,9.98,6.9C9.25,6.92,8.85,7.05,8.57,7.15C8.22,7.3,7.97,7.45,7.73,7.73C7.45,7.97,7.3,8.23,7.15,8.57C7.05,8.85,6.92,9.25,6.9,9.98C6.85,10.75,6.85,11,6.85,13C6.85,15,6.85,15.25,6.9,16.02C6.92,16.75,7.05,17.15,7.15,17.43C7.3,17.78,7.45,18.03,7.73,18.27C7.97,18.55,8.23,18.7,8.57,18.85C8.85,18.95,9.25,19.08,9.98,19.1C10.75,19.15,11,19.15,13,19.15C15,19.15,15.25,19.15,16.02,19.1ZM9.15,13C9.15,10.88,10.88,9.15,13,9.15C15.12,9.15,16.85,10.88,16.85,13C16.85,15.12,15.12,16.85,13,16.85C10.88,16.85,9.15,15.12,9.15,13ZM15.5,13C15.5,11.63,14.37,10.5,13,10.5C11.63,10.5,10.5,11.63,10.5,13C10.5,14.37,11.63,15.5,13,15.5C14.37,15.5,15.5,14.37,15.5,13ZM16.1,9C16.1,8.5,16.5,8.1,17,8.1C17.5,8.1,17.9,8.5,17.9,9C17.9,9.5,17.5,9.9,17,9.9C16.49,9.9,16.1,9.5,16.1,9Z"/></svg>