<svg xmlns="http://www.w3.org/2000/svg" viewBox="0 0 24 24" fill="currentColor"><path d="M11.18,20.75C10.58,20.75,10.15,20.27,10.15,19.72L10.15,17.47L9.25,17.47C8.8,17.47,8.45,17.15,8.45,16.7L8.45,9.32L17.47,9.32L17.47,16.7C17.47,17.15,17.09,17.47,16.67,17.47L15.77,17.47L15.77,19.72C15.77,20.27,15.32,20.75,14.74,20.75C14.19,20.75,13.74,20.27,13.74,19.72L13.74,17.47L12.17,17.47L12.17,19.72C12.17,20.27,11.72,20.75,11.17,20.75ZM5.85,10.32C5.85,9.77,6.3,9.29,6.85,9.29C7.43,9.29,7.9,9.77,7.9,10.32L7.9,14.35C7.9,14.93,7.43,15.4,6.85,15.4C6.3,15.4,5.85,14.93,5.85,14.35ZM8.48,8.7C8.58,7.3,9.53,6.15,10.83,5.53L10,4.31C9.95,4.25,9.98,4.16,10.02,4.1C10.1,4.05,10.2,4.08,10.25,4.18L11.1,5.43C11.67,5.21,12.29,5.06,12.97,5.06C13.64,5.06,14.27,5.21,14.85,5.43L15.72,4.18C15.78,4.08,15.85,4.05,15.93,4.1C16,4.16,16,4.25,15.95,4.31L15.1,5.53C16.45,6.15,17.35,7.31,17.5,8.7ZM11.5,6.95C11.5,6.67,11.27,6.45,11.03,6.45C10.75,6.45,10.52,6.67,10.52,6.95C10.52,7.22,10.75,7.45,11.03,7.45C11.27,7.45,11.5,7.22,11.5,6.95ZM18.08,10.32C18.08,9.77,18.53,9.29,19.08,9.29C19.68,9.29,20.1,9.77,20.1,10.32L20.1,14.35C20.1,14.93,19.68,15.4,19.08,15.4C18.53,15.4,18.08,14.93,18.08,14.35ZM15.4,6.95C15.4,6.67,15.18,6.45,14.9,6.45C14.6,6.45,14.39,6.67,14.39,6.95C14.39,7.22,14.6,7.45,14.9,7.45C15.18,7.45,15.4,7.22,15.4,6.95Z"/></svg>