<svg xmlns="http://www.w3.org/2000/svg" viewBox="0 0 24 24"><path d="M13.3,22.33C12.37,22.33,11.53,22.23,10.83,22C10.06,21.73,9.46,21.4,9,20.97C8.5,20.54,8.17,20.1,7.93,19.6C7.76,19.1,7.66,18.4,7.66,17.47L7.66,10.34L5.39,10.34L5.39,7.47C6.19,7.2,6.89,6.8,7.46,6.34C7.99,5.91,8.46,5.31,8.83,4.57C9.16,3.9,9.4,3,9.53,2L12.43,2L12.43,7.17L17.26,7.17L17.26,10.34L12.43,10.34L12.43,15.57C12.43,16.7,12.5,17.47,12.6,17.84C12.77,18.14,13,18.41,13.33,18.61C13.76,18.88,14.26,19.01,14.86,19.01C15.89,19.01,16.93,18.68,17.93,18.04L17.93,21.21C17.1,21.64,16.26,21.94,15.56,22.11C14.86,22.28,14.09,22.34,13.29,22.34Z" fill="currentColor"/></svg>