<svg xmlns="http://www.w3.org/2000/svg" viewBox="0 0 24 24" fill="currentColor"><path d="M8.63,19.83C7,19.32,5.43,18.55,4.07,17.55C4.02,17.03,4,16.5,4,15.98C4,13.13,4.77,10.25,6.75,7.33C7.95,6.78,9.18,6.41,10.48,6.18L10.95,7.16C12.3,6.96,13.71,6.96,15.06,7.16C15.21,6.83,15.36,6.5,15.53,6.18C16.83,6.41,18.05,6.78,19.25,7.33C21,9.9,22.01,12.75,22.01,15.98C22.01,16.5,21.98,17.03,21.93,17.55C20.56,18.55,19.01,19.33,17.38,19.83C17,19.32,16.68,18.8,16.4,18.25C16.93,18.02,17.45,17.8,17.93,17.52L17.55,17.22C14.65,18.57,11.35,18.57,8.42,17.22L8.07,17.52C8.54,17.8,9.07,18.03,9.59,18.25C9.32,18.8,8.97,19.32,8.62,19.83ZM11.62,13.68C11.62,12.68,10.95,11.88,10.02,11.88C9.12,11.88,8.4,12.7,8.4,13.7C8.4,14.65,9.15,15.48,10.02,15.48C10.95,15.48,11.62,14.67,11.62,13.68ZM17.63,13.68C17.63,12.68,16.9,11.88,16,11.88C15.08,11.88,14.37,12.68,14.37,13.68C14.37,14.67,15.1,15.48,16,15.48C16.88,15.48,17.63,14.67,17.63,13.68Z"/></svg>