<svg xmlns="http://www.w3.org/2000/svg" viewBox="0 0 24 24" fill="currentColor"><path d="M7,18.87C6.78,18.87,6.57,18.63,6.63,18.37L8.55,6.07C8.61,5.75,8.88,5.49,9.21,5.49L13.86,5.49C15.5,5.49,16.71,5.81,17.43,6.62C18.03,7.31,18.26,7.97,17.98,9.56C17.4,12.74,15.26,13.84,12.58,13.84L11.23,13.84C10.91,13.84,10.63,14.06,10.58,14.39L9.88,18.86ZM12.4,20.5L10.43,20.5L11.38,14.63L12.58,14.63C16.01,14.63,18.13,13,18.78,9.88C19.31,10.56,19.44,11.46,19.21,12.58C18.63,15.36,16.81,16.28,14.46,16.28L14.09,16.28C13.81,16.28,13.59,16.5,13.54,16.8L13.02,19.86C12.96,20.16,12.79,20.51,12.42,20.51Z"/></svg>