<svg xmlns="http://www.w3.org/2000/svg" viewBox="0 0 24 24" fill="currentColor"><path d="M7.52,21.2C6.42,21.2,5.5,20.27,5.5,19.15L5.5,5.5L20.5,5.5L20.5,13.67C20.5,14.8,19.58,15.72,18.48,15.72C17.33,15.72,16.43,14.8,16.43,13.67L16.43,12.32C16.43,11.95,16.11,11.65,15.75,11.65C15.36,11.65,15.06,11.95,15.06,12.32L15.06,16.43C15.06,17.57,14.13,18.47,13.03,18.47C11.88,18.47,10.98,17.57,10.98,16.43L10.98,10.97C10.98,10.6,10.66,10.28,10.29,10.28C9.91,10.28,9.59,10.6,9.59,10.97L9.59,19.15C9.59,20.27,8.71,21.2,7.54,21.2ZM8.25,10.98C8.25,9.8,9.13,8.93,10.28,8.93C11.4,8.93,12.3,9.81,12.3,10.98L12.3,16.43C12.3,16.8,12.63,17.1,13.03,17.1C13.4,17.1,13.73,16.8,13.73,16.43L13.73,12.33C13.73,11.22,14.61,10.28,15.75,10.28C16.88,10.28,17.78,11.23,17.78,12.33L17.78,13.68C17.78,14.1,18.1,14.4,18.47,14.4C18.83,14.4,19.15,14.1,19.15,13.68L19.15,6.87L6.85,6.87L6.85,19.15C6.85,19.53,7.17,19.83,7.52,19.83C7.95,19.83,8.25,19.53,8.25,19.15Z"/></svg>