<svg xmlns="http://www.w3.org/2000/svg" viewBox="0 0 24 24" fill="currentColor"><path d="M13,20.73C8.93,20.73,5.63,18.25,5.52,15.25C4.67,14.85,4,13.92,4,12.85C4,11.45,5.18,10.28,6.65,10.28C7.25,10.28,7.82,10.48,8.27,10.83C9.45,10.08,10.92,9.6,12.55,9.5L12.55,9.5C12.55,7.92,13.75,6.67,15.27,6.52C15.5,5.64,16.2,5.04,17.07,5.04C18.12,5.04,18.95,5.85,18.95,6.92C18.95,7.92,18.12,8.74,17.07,8.74C16.2,8.74,15.5,8.19,15.27,7.32C14.22,7.47,13.34,8.39,13.34,9.49C15.02,9.59,16.55,10.02,17.72,10.82C18.17,10.46,18.75,10.27,19.34,10.27C20.82,10.27,21.99,11.45,21.99,12.84C21.99,13.92,21.32,14.85,20.47,15.24C20.37,18.24,17.07,20.72,12.99,20.72ZM9.55,12.85C8.82,12.85,8.18,13.53,8.12,14.43C8.07,15.4,8.67,15.85,9.4,15.85C10.15,15.85,10.77,15.5,10.77,14.6C10.82,13.62,10.25,12.85,9.55,12.85ZM15.65,16.63C14.82,16.53,13.92,16.48,13,16.48C12.08,16.48,11.18,16.53,10.35,16.63C10.25,16.63,10.15,16.78,10.2,16.93C10.68,18,11.73,18.75,13,18.75C14.27,18.75,15.38,18,15.8,16.93C15.85,16.78,15.8,16.63,15.65,16.63ZM16.45,12.85C15.75,12.85,15.18,13.62,15.23,14.6C15.23,15.5,15.85,15.85,16.6,15.85C17.33,15.85,17.93,15.4,17.88,14.43C17.82,13.53,17.18,12.85,16.45,12.85Z"/></svg>