<svg xmlns="http://www.w3.org/2000/svg" viewBox="0 0 24 24" fill="currentColor"><path d="M10.55,20.5L10.55,10.23L13.95,10.23L13.95,11.65C14.4,10.95,15.22,9.98,17.02,9.98C19.29,9.98,21,11.43,21,14.61L21,20.51L17.57,20.51L17.57,15.01C17.57,13.61,17.06,12.69,15.82,12.69C14.9,12.69,14.32,13.31,14.07,13.94C13.98,14.16,13.94,14.46,13.94,14.79L13.94,20.51ZM5.22,20.5L5.22,10.23L8.65,10.23L8.65,20.5ZM6.95,8.8L6.92,8.8C5.78,8.8,5.03,8.03,5.03,7.02C5.03,6,5.8,5.25,6.96,5.25C8.15,5.25,8.85,6,8.88,7.02C8.88,8.02,8.15,8.8,6.96,8.8Z"/></svg>