<svg xmlns="http://www.w3.org/2000/svg" viewBox="0 0 24 24"><path d="M8.77,20L8.2,20C7.67,18.57,6.73,16.47,5.57,13.63C4.3,10.8,3.44,8.66,2.87,7.23C2.57,6.63,2.24,6.06,1.67,5.46C1,4.83,0.44,4.49,0,4.53L0,4L6.07,4L6.07,4.5C5.64,4.53,5.2,4.67,4.84,4.87C4.44,5.17,4.27,5.54,4.47,5.87L6.1,9.8C7.8,13.87,8.8,16.27,9.13,17.03C9.36,16.6,9.93,15.46,10.83,13.7L11.96,11.5C11.83,11.23,11.49,10.37,10.86,8.97C10.03,6.9,9.46,5.7,9.26,5.27C9.06,5,8.76,4.77,8.33,4.67C8.06,4.6,7.66,4.54,7.16,4.54L7.16,4.01L12.49,4.01L12.49,4.51C12.06,4.54,11.76,4.61,11.56,4.78C11.26,4.98,11.26,5.21,11.39,5.55L12.29,7.55C12.66,8.45,12.96,9.12,13.19,9.62L13.96,7.95C14.43,6.98,14.76,6.22,14.99,5.68C15.19,5.28,15.12,5.01,14.92,4.85C14.65,4.62,14.19,4.55,13.52,4.55L13.55,4.02L18.15,4.02L18.15,4.52C17.75,4.55,17.35,4.69,16.92,4.89C16.52,5.12,16.22,5.42,15.99,5.79L13.79,10.56C13.89,10.83,14.46,12.13,15.52,14.59L16.35,16.62L20.95,5.65C20.85,5.28,20.52,4.95,20.08,4.75C19.78,4.62,19.48,4.55,19.18,4.55L19.18,4.02L23.98,4.05L23.98,4.52C22.98,4.55,22.31,5.05,21.85,6.12L20.95,8.35C18.72,13.78,17.08,17.65,16.08,20.02L15.55,20.02L12.48,12.52L11.08,15.29C10.01,17.42,9.25,18.99,8.75,20.02Z" fill="currentColor"/></svg>