<svg xmlns="http://www.w3.org/2000/svg" viewBox="0 0 24 24"><path d="M4,19.83C3.7,19.83,3.43,19.5,3.5,19.16L6.07,2.76C6.14,2.33,6.5,1.99,6.94,1.99L13.14,1.99C15.34,1.99,16.94,2.42,17.91,3.49C18.71,4.42,19.01,5.29,18.64,7.42C17.87,11.65,15.01,13.12,11.44,13.12L9.64,13.12C9.21,13.12,8.84,13.42,8.77,13.85L7.84,19.82Z" fill="currentColor"/><path d="M11.2,22L8.57,22L9.84,14.17L11.44,14.17C16.01,14.17,18.84,12,19.71,7.84C20.41,8.74,20.58,9.94,20.28,11.44C19.51,15.14,17.08,16.37,13.95,16.37L13.45,16.37C13.08,16.37,12.78,16.67,12.72,17.07L12.02,21.14C11.95,21.54,11.72,22.01,11.22,22.01Z" fill="currentColor"/></svg>