<svg xmlns="http://www.w3.org/2000/svg" viewBox="0 0 24 24" fill="currentColor"><path d="M4.77,4.75L9.12,5.9C10.3,5.22,11.65,4.9,13.02,4.9C17.55,4.9,21.22,8.57,21.22,13.08C21.22,17.6,17.55,21.25,13.02,21.25C8.5,21.25,4.83,17.57,4.85,13.07C4.83,11.65,5.22,10.22,5.92,9ZM13.02,19.88C16.25,19.95,19.85,17.3,19.85,13.07C19.85,9.32,16.8,6.27,13.02,6.27C11.73,6.27,10.77,6.5,9.33,7.37L6.75,6.7L7.43,9.2C6.48,10.7,6.23,11.69,6.23,13.07C6.23,16.82,9.28,19.75,13.03,19.88ZM10.52,16.85L10.13,16.85C10,16.85,9.8,16.79,9.58,16.6C9.41,16.4,8.88,15.9,8.88,14.9C8.88,12.4,13.06,8.84,15.65,9.17C16.03,9.2,16.88,9.68,17.06,10.15C17.21,10.62,17.21,11.05,17.16,11.13C17.1,11.2,16.95,11.25,16.78,11.37C16.55,11.47,15.56,11.95,15.38,12.02C15.17,12.1,15.05,12.12,14.9,11.93C14.78,11.73,14.4,11.25,14.25,11.13C14.15,11,14.03,10.98,13.82,11.07C13.62,11.15,12.95,11.37,12.17,12.07C11.55,12.62,11.15,13.29,11.03,13.5C10.9,13.7,11.03,13.82,11.13,13.92C11.22,14.02,11.33,14.17,11.43,14.28C11.55,14.4,11.55,14.48,11.63,14.63C11.7,14.76,11.68,14.85,11.63,14.98C11.55,15.08,11.18,16.08,10.98,16.5C10.83,16.83,10.68,16.86,10.53,16.86Z"/></svg>