<svg xmlns="http://www.w3.org/2000/svg" viewBox="0 0 24 24" fill="currentColor"><path d="M5.25,14.09C4.48,13.79,4.03,13.49,4.03,13.19C4.03,12.61,4.78,12.46,5.81,12.12C6.66,11.87,7.78,11.52,8.36,11.52C8.91,11.52,9.48,11.72,10.16,12.17C14.68,15.19,16.96,16.74,17.13,16.77C17.23,16.79,17.36,16.84,17.48,16.74C17.58,16.65,17.56,16.47,17.56,16.42C17.56,16.07,13.29,12.24,13.01,12C12.06,11.04,11.01,10.44,12.63,9.37C14.04,8.45,14.88,7.85,16.33,6.9C17.25,6.3,17.98,5.57,18.96,5.64C19.38,5.72,19.8,6.09,20.06,7.35C20.36,9.05,21.93,17.85,21.93,19.44C21.93,19.77,21.88,20.12,21.66,20.29C21.48,20.46,21.15,20.49,21.03,20.49C20.41,20.49,19.46,20.14,14.88,18.24C13.29,17.59,10.06,16.2,5.26,14.1Z"/></svg>