<svg xmlns="http://www.w3.org/2000/svg" viewBox="0 0 24 24" fill="currentColor"><path d="M18.42,16.5L7.6,16.5L7.6,19.02C5.42,17.77,4,15.76,4,13.47C4,9.63,8.03,6.5,12.98,6.5C17.95,6.5,22,9.62,22,13.47C22,15.75,20.59,17.74,18.42,19ZM12.22,17.15L12.22,20.45C12.42,20.47,12.69,20.5,13.1,20.5C13.75,20.5,14.3,20.35,14.65,20.07C14.97,19.79,15.2,19.34,15.2,18.7C15.2,18.1,14.97,17.7,14.62,17.45C14.3,17.2,13.89,17.07,13.25,17.07C12.87,17.07,12.5,17.09,12.22,17.15ZM8.18,20.48L8.95,20.48L8.95,19.13L10.15,19.13L10.15,18.5L8.95,18.5L8.95,17.73L10.22,17.73L10.22,17.11L8.18,17.11ZM10.8,20.48L11.57,20.48L11.57,17.1L10.8,17.1ZM13,19.9L13,17.7C13.05,17.68,13.17,17.68,13.32,17.68C14,17.68,14.39,18.03,14.39,18.73C14.39,19.53,13.94,19.91,13.25,19.91C13.15,19.91,13.04,19.91,13,19.91ZM15.7,20.48L17.85,20.48L17.85,19.86L16.45,19.86L16.45,19.05L17.7,19.05L17.7,18.43L16.45,18.43L16.45,17.73L17.78,17.73L17.78,17.11L15.7,17.11ZM10.45,15.7C10.45,15.7,15.7,15.7,15.87,15.7C16.38,15.18,15.35,14.05,15.42,13.32L15.74,11.6C16.04,9.89,16.25,7.67,12.65,7.94L12.27,7.04L11.87,7.17L11.97,8.09L10.97,8.57L11.05,8.94L9.32,10.84C9.32,10.84,9.25,10.99,9.38,11.19C10.13,12.41,10.85,11.72,11.2,11.44L12.4,11.49C10.62,12.49,9.98,13.67,10.45,15.69Z"/></svg>