<svg xmlns="http://www.w3.org/2000/svg" viewBox="0 0 24 24" fill="currentColor"><path d="M10.32,21.25C9.05,21.23,8.07,20,7.32,18.87C5.32,15.77,5.09,12.14,6.35,10.22C7.23,8.85,8.65,8.03,9.97,8.03C11.32,8.03,12.17,8.78,13.27,8.78C14.37,8.78,15,8.03,16.59,8.03C17.74,8.03,18.99,8.68,19.89,9.77C16.97,11.4,17.44,15.53,20.36,16.65C19.97,17.55,19.79,17.95,19.24,18.75C18.54,19.85,17.49,21.23,16.24,21.25C15.11,21.25,14.81,20.5,13.29,20.5C11.74,20.52,11.44,21.25,10.31,21.25ZM13.57,5.42C14.22,4.62,15.3,4.07,16.25,4C16.38,5.05,15.95,6.08,15.4,6.8C14.78,7.55,13.73,8.17,12.72,8.15C12.57,7.15,13.02,6.1,13.57,5.42Z"/></svg>