<svg xmlns="http://www.w3.org/2000/svg" viewBox="0 0 24 24"><path d="M1.5,12C1.5,6.2,6.2,1.5,12,1.5C17.8,1.5,22.5,6.2,22.5,12C22.5,17.8,17.8,22.5,12,22.5C6.2,22.5,1.5,17.8,1.5,12Z" fill="currentColor"/><path d="M8.03,16.5L8.9,14.97C8.8,14.67,8.47,14.37,7.93,14.37L7.8,14.37C7.67,14.37,7.53,14.44,7.47,14.57L6.74,15.74C6.24,16.54,7.57,17.34,8.04,16.51Z" fill="currentColor"/><path d="M6.3,14.13L14.1,14.13C14.1,13.26,13.7,12.73,12.93,12.73L10.23,12.73L13.8,6.66C14.3,5.76,13,5.09,12.53,5.89L12.06,6.69L11.63,5.89C11.23,5.12,9.86,5.72,10.36,6.66L11.23,8.09L8.56,12.69L6.29,12.69C5.32,12.69,5.36,14.12,6.29,14.12Z" fill="currentColor"/><path d="M12.8,10.83L16.1,16.46C16.6,17.29,17.87,16.56,17.37,15.69L16.47,14.12L17.74,14.12C18.74,14.12,18.74,12.69,17.74,12.69L15.61,12.69L13.14,8.49C13.14,8.49,12.07,9.59,12.81,10.82Z" fill="currentColor"/></svg>