<svg xmlns="http://www.w3.org/2000/svg" viewBox="0 0 24 24" fill="currentColor"><path d="M13.05,20.5L12.96,20.5C11.75,20.5,11.51,20.25,11.51,19.05L11.51,17.73L14.51,14.73L14.51,19.05C14.51,20.25,14.26,20.5,13.06,20.5ZM15.57,11.5L11.5,15.57L5.57,21.5L5.55,21.52C5.23,21.84,4.88,21.84,4.55,21.52L4.48,21.45C4.16,21.12,4.16,20.77,4.48,20.45L10.43,14.5L6.96,14.5C5.75,14.5,5.51,14.25,5.51,13.05L5.51,12.96C5.51,11.75,5.76,11.51,6.96,11.51L11.51,11.51L11.51,6.96C11.51,5.75,11.76,5.51,12.96,5.51L13.05,5.51C14.25,5.51,14.5,5.75,14.5,6.96L14.5,10.43L20.48,4.45C20.8,4.13,21.15,4.13,21.47,4.45L21.55,4.53C21.87,4.84,21.87,5.19,21.57,5.5C21.56,5.51,21.56,5.51,21.55,5.52ZM14.73,14.5L17.73,11.5L19.05,11.5C20.25,11.5,20.5,11.75,20.5,12.95L20.5,13.04C20.5,14.25,20.25,14.49,19.05,14.49Z"/></svg>