<svg xmlns="http://www.w3.org/2000/svg" viewBox="0 0 24 24" fill="currentColor"><path d="M5.46,8.5C4.26,8.5,4.01,8.25,4.01,7.05L4.01,6.96C4.01,5.75,4.26,5.51,5.46,5.51L17.55,5.51C18.75,5.51,19,5.76,19,6.96L19,7.05C19,8.25,18.75,8.5,17.55,8.5ZM4,12.95C4,11.75,4.25,11.5,5.45,11.5L12.93,11.5C11.91,12.34,11.1,13.43,10.59,14.5L5.45,14.5C4.25,14.5,4,14.25,4,13.05ZM4,18.95C4,17.75,4.25,17.5,5.45,17.5L10.04,17.5C10.16,18.6,10.54,19.62,11.13,20.5L5.45,20.5C4.25,20.5,4,20.25,4,19.05ZM11.5,16.75C11.5,13.85,13.88,11.5,16.75,11.5C19.65,11.5,22,13.85,22,16.75C22,19.62,19.65,22,16.75,22C13.88,22,11.5,19.62,11.5,16.75ZM18.7,17.37C19.32,16.92,19.32,16.57,18.7,16.12L16.05,14.19C15.55,13.84,15.25,13.99,15.25,14.62L15.25,18.87C15.25,19.49,15.55,19.64,16.05,19.3Z"/></svg>