<svg xmlns="http://www.w3.org/2000/svg" viewBox="0 0 24 24"><path d="M4.44,2.63C5.31,1.76,5.64,1.76,6.51,2.63L6.58,2.7C7.45,3.57,7.45,3.9,6.58,4.77L3.35,8L6.58,11.23C7.45,12.1,7.45,12.43,6.58,13.3L6.51,13.37C5.64,14.24,5.31,14.24,4.44,13.37L1.17,10.1C-0.36,8.57,-0.36,7.43,1.17,5.9Z" fill="currentColor"/><path d="M19.56,21.37C18.69,22.24,18.36,22.24,17.49,21.37L17.42,21.3C16.55,20.43,16.55,20.1,17.42,19.23L20.65,16L17.42,12.77C16.55,11.9,16.55,11.57,17.42,10.7L17.49,10.63C18.36,9.76,18.69,9.76,19.56,10.63L22.83,13.9C24.36,15.43,24.36,16.57,22.83,18.1Z" fill="currentColor"/><path d="M5.17,21.47C4.47,20.97,4.44,20.47,5,19.64L16.97,2.17C17.44,1.47,17.97,1.44,18.84,2L19.17,2.2C19.87,2.7,19.9,3.2,19.34,4.03L7.37,21.5C6.9,22.2,6.37,22.23,5.5,21.67Z" fill="currentColor"/></svg>