<svg xmlns="http://www.w3.org/2000/svg" viewBox="0 0 24 24"><path d="M10.67,14.6C11.37,15.33,12.34,15.1,12.87,14.5L14.4,12.8C15.43,11.63,17.13,10.7,17.13,8.3C17.13,5.47,14.9,3.57,12.2,3.57C9.8,3.57,8,5.04,7.13,6.64C6.66,7.51,6.63,8.27,7.23,8.91C8.1,9.81,9,9.14,9.36,8.68C10.36,7.38,11.19,6.58,12.26,6.58C13.13,6.58,14.13,7.05,14.13,8.15C14.13,8.98,13.93,9.08,12.86,10.22L10.86,12.32C10.13,13.12,10.03,13.99,10.66,14.62Z" fill="currentColor"/><path d="M9.24,16C7.92,14.68,7.99,12.49,9.41,10.94L11.42,8.83C12.14,8.07,12.14,8.07,12.14,8.14C12.14,8.31,12.7,8.57,12.27,8.57C12.01,8.57,11.86,8.71,10.95,9.9C10.45,10.53,8.05,12.63,5.79,10.29C4.63,9.07,4.53,7.26,5.38,5.69C6.44,3.74,9.09,1.57,12.21,1.57C15.85,1.57,19.14,4.35,19.14,8.3C19.14,11.3,17.1,12.77,15.9,14.13L14.37,15.83C13.71,16.57,11.31,18.16,9.25,15.99Z" fill="currentColor"/><path d="M13.84,18.83C13.84,17.86,13.07,17.1,12.07,17.1C11.1,17.1,10.34,17.87,10.34,18.83C10.34,19.83,11.11,20.6,12.07,20.6C13.07,20.6,13.84,19.83,13.84,18.83Z" fill="currentColor"/><path d="M8.34,18.83C8.34,16.86,10.11,15.1,12.07,15.1C14.07,15.1,15.84,16.87,15.84,18.83C15.84,20.83,14.07,22.6,12.07,22.6C10.1,22.6,8.34,20.83,8.34,18.83Z" fill="currentColor"/><path d="M11,10.87L9.63,9.47L12.3,6.74L13.7,8.27Z" fill="currentColor"/></svg>