<svg xmlns="http://www.w3.org/2000/svg" viewBox="0 0 24 24" fill="currentColor"><path d="M12.6,10.1L14.25,8.43C14.85,7.82,15.28,7.82,15.93,8.48C16.58,9.13,16.58,9.55,15.98,10.15L14.35,11.78ZM21.55,10.15L15.1,16.58C14.52,17.18,14.07,17.16,13.52,16.58L10,13.03C9.42,12.45,9.42,12.05,10.05,11.4C10.65,10.78,11.08,10.78,11.65,11.35L14.27,13.97L19.82,8.42C20.4,7.85,20.82,7.8,21.5,8.48C21.87,8.85,22,9.1,22,9.35C22,9.6,21.85,9.86,21.55,10.16ZM10.45,15.68L9.55,16.58C8.95,17.18,8.52,17.16,7.95,16.58L4.43,13.03C4.15,12.73,4,12.48,4,12.23C4,11.98,4.13,11.75,4.47,11.4C5.09,10.78,5.52,10.8,6.1,11.35Z"/></svg>