<svg xmlns="http://www.w3.org/2000/svg" viewBox="0 0 24 24" fill="currentColor"><path d="M10.95,12.9C10.4,13.45,10,13.48,9.45,12.92L9.32,12.8C8.78,12.25,8.8,11.84,9.35,11.3L11.39,9.25L9.35,7.2C8.8,6.65,8.8,6.25,9.35,5.7L9.45,5.6C9.99,5.06,10.4,5.06,10.95,5.6L12.99,7.65L15.04,5.6C15.59,5.06,15.99,5.03,16.54,5.58L16.67,5.71C17.21,6.26,17.19,6.66,16.64,7.21L14.6,9.26L16.64,11.3C17.19,11.85,17.19,12.26,16.64,12.8L16.55,12.9C16,13.45,15.6,13.45,15.05,12.9L13,10.85ZM7,17.37C7.9,17.37,8.63,18.1,8.63,19C8.63,19.9,7.9,20.63,7,20.63C6.1,20.63,5.37,19.9,5.37,19C5.37,18.1,6.1,17.37,7,17.37ZM13,17.37C13.9,17.37,14.63,18.1,14.63,19C14.63,19.9,13.9,20.63,13,20.63C12.1,20.63,11.37,19.9,11.37,19C11.37,18.1,12.1,17.37,13,17.37ZM19,17.37C19.9,17.37,20.63,18.1,20.63,19C20.63,19.9,19.9,20.63,19,20.63C18.1,20.63,17.37,19.9,17.37,19C17.37,18.1,18.1,17.37,19,17.37Z"/></svg>