<svg xmlns="http://www.w3.org/2000/svg" viewBox="0 0 24 24"><path d="M13.56,10.24C14.56,10.41,15.03,10.07,15.16,9.04L15.13,9.41C15.26,8.38,14.96,7.84,14,7.44C11.2,6.67,7.43,7.77,7.43,11.97C7.43,15.94,11.2,17.24,14,16.57C14.97,16.17,15.27,15.64,15.13,14.6L15.16,14.97C15.03,13.94,14.56,13.6,13.53,13.74C12.1,13.84,10.23,13.64,10.23,11.97C10.23,10.1,12.1,10.04,13.56,10.24Z" fill="currentColor"/><path d="M1.5,12C1.5,6.23,6.23,1.5,12,1.5C17.77,1.5,22.5,6.23,22.5,12C22.5,17.77,17.77,22.5,12,22.5C6.23,22.5,1.5,17.77,1.5,12Z" fill="currentColor"/><path d="M19.5,12C19.5,7.87,16.13,4.5,12,4.5C7.87,4.5,4.5,7.87,4.5,12C4.5,16.13,7.87,19.5,12,19.5C16.13,19.5,19.5,16.13,19.5,12Z" fill="currentColor"/></svg>