<svg xmlns="http://www.w3.org/2000/svg" viewBox="0 0 24 24"><path d="M7.94,22C6.34,22,6.01,21.67,6.01,20.07L6.01,18L3.94,18C2.34,18,2.01,17.67,2.01,16.07L2.01,15.94C2.01,14.34,2.34,14.01,3.94,14.01L6.01,14.01L6.01,10.01L3.94,10.01C2.34,10.01,2.01,9.68,2.01,8.08L2.01,7.95C2.01,6.35,2.34,6.02,3.94,6.02L6.01,6.02L6.01,3.95C6.01,2.35,6.34,2.02,7.94,2.02L8.07,2.02C9.67,2.02,10,2.35,10,3.95L10,6.02L14,6.02L14,3.95C14,2.35,14.33,2.02,15.93,2.02L16.06,2.02C17.66,2.02,17.99,2.35,17.99,3.95L17.99,6.02L20.06,6.02C21.66,6.02,21.99,6.35,21.99,7.95L21.99,8.08C21.99,9.68,21.66,10.01,20.06,10.01L17.99,10.01L17.99,14.01L20.06,14.01C21.66,14.01,21.99,14.34,21.99,15.94L21.99,16.07C21.99,17.67,21.66,18,20.06,18L17.99,18L17.99,20.07C17.99,21.67,17.66,22,16.06,22L15.93,22C14.33,22,14,21.67,14,20.07L14,18L10,18L10,20.07C10,21.67,9.67,22,8.07,22Z" fill="currentColor"/><path d="M10,14L14,14L14,10L10,10Z" fill="currentColor"/></svg>