<svg xmlns="http://www.w3.org/2000/svg" viewBox="0 0 24 24"><path d="M14.27,22C13.24,22,12.87,21.73,12.97,21L15.37,3C15.47,2.27,15.9,2,16.94,2L18.07,2C19.1,2,19.47,2.27,19.37,3L16.97,21C16.87,21.73,16.44,22,15.4,22Z" fill="currentColor"/><path d="M5.5,22C4.77,22,4.57,21.6,4.7,20.57L6.97,3.44C7.1,2.41,7.44,2.01,8.17,2.01L10.17,2.01C10.9,2.01,11.1,2.41,10.97,3.44L8.7,20.57C8.57,21.6,8.23,22,7.5,22Z" fill="currentColor"/><path d="M3.94,10C2.34,10,2.01,9.67,2.01,8.07L2.01,7.94C2.01,6.34,2.34,6.01,3.94,6.01L20.07,6.01C21.67,6.01,22,6.34,22,7.94L22,8.07C22,9.67,21.67,10,20.07,10Z" fill="currentColor"/><path d="M3.94,18C2.34,18,2.01,17.67,2.01,16.07L2.01,15.94C2.01,14.34,2.34,14.01,3.94,14.01L20.07,14.01C21.67,14.01,22,14.34,22,15.94L22,16.07C22,17.67,21.67,18,20.07,18Z" fill="currentColor"/></svg>