<svg xmlns="http://www.w3.org/2000/svg" viewBox="0 0 24 24"><path d="M1.94,6C0.34,6,0.01,5.67,0.01,4.07L0.01,3.94C0.01,2.34,0.34,2.01,1.94,2.01L18.07,2.01C19.67,2.01,20,2.34,20,3.94L20,4.07C20,5.67,19.67,6,18.07,6Z" fill="currentColor"/><path d="M0,11.93C0,10.33,0.33,10,1.93,10L13.28,10C10.72,10.58,8.43,11.97,6.2,14L1.93,14C0.33,14,0,13.67,0,12.07Z" fill="currentColor"/><path d="M0,19.93C0,18.33,0.33,18,1.93,18L7.34,18L11.3,22L1.92,22C0.32,22,-0.01,21.67,-0.01,20.07Z" fill="currentColor"/><path d="M19.63,19.93C18.6,18.76,17.36,18.16,16,18.16C14.73,18.16,13.4,18.76,12.37,19.93L10.9,18.6C12.33,16.97,14.2,16.17,16,16.17C17.9,16.17,19.67,16.97,21.1,18.6Z" fill="currentColor"/><path d="M13.8,21.5C14.43,20.73,15.23,20.33,16,20.33C16.83,20.33,17.57,20.73,18.17,21.5L16,23.7Z" fill="currentColor"/><path d="M22.57,17.03C20.74,15.03,18.37,14,16,14C13.7,14,11.3,15.03,9.43,17.03L8,15.7C10.23,13.27,13.17,12,16,12C18.9,12,21.8,13.27,24,15.7Z" fill="currentColor"/></svg>