<svg xmlns="http://www.w3.org/2000/svg" viewBox="0 0 24 24" fill="currentColor"><path d="M19.04,17.48C20.25,17.48,20.49,17.72,20.49,18.92L20.49,19.05C20.49,20.25,20.25,20.5,19.04,20.5L15.07,20.5C14.3,20.5,14,20.2,14,19.43L14,17.8C14,17.03,14.22,16.52,14.77,15.98C16.2,14.42,16.79,12.85,16.79,11.65C16.79,9.17,15.2,8,12.99,8C10.79,8,9.19,9.17,9.19,11.65C9.19,12.85,9.79,14.42,11.21,15.98C11.76,16.52,11.99,17.03,11.99,17.8L11.99,19.43C11.99,20.2,11.69,20.5,10.91,20.5L6.94,20.5C5.74,20.5,5.49,20.25,5.49,19.05L5.49,18.92C5.49,17.72,5.74,17.48,6.94,17.48L8.99,17.48C7.13,15.68,6.34,13.55,6.34,11.65C6.34,7.58,9.19,5,12.99,5C16.79,5,19.64,7.57,19.64,11.65C19.64,13.55,18.84,15.68,17,17.48Z"/></svg>