<svg xmlns="http://www.w3.org/2000/svg" viewBox="0 0 24 24"><path d="M17.5,12C17.5,10.66,18.66,9.5,20,9.5C21.34,9.5,22.5,10.66,22.5,12C22.5,13.34,21.34,14.5,20,14.5C18.66,14.5,17.5,13.34,17.5,12Z" fill="currentColor"/><path d="M1.5,12C1.5,10.66,2.66,9.5,4,9.5C5.34,9.5,6.5,10.66,6.5,12C6.5,13.34,5.34,14.5,4,14.5C2.66,14.5,1.5,13.34,1.5,12Z" fill="currentColor"/><path d="M9.5,12C9.5,10.66,10.66,9.5,12,9.5C13.34,9.5,14.5,10.66,14.5,12C14.5,13.34,13.34,14.5,12,14.5C10.66,14.5,9.5,13.34,9.5,12Z" fill="currentColor"/></svg>