<svg xmlns="http://www.w3.org/2000/svg" viewBox="0 0 24 24" fill="currentColor"><path d="M19.47,16.79C18.87,17.82,18.52,17.92,17.5,17.32L7,11.27C5.97,10.67,5.88,10.31,6.47,9.29L6.53,9.2C7.13,8.17,7.48,8.07,8.5,8.67L19,14.72C20.03,15.32,20.13,15.68,19.52,16.7ZM8.5,17.33C7.47,17.93,7.13,17.83,6.53,16.8L6.47,16.71C5.88,15.68,5.97,15.33,7,14.73L17.5,8.68C18.53,8.08,18.87,8.18,19.47,9.21L19.52,9.3C20.13,10.33,20.03,10.68,19,11.28ZM12.96,20.5C11.75,20.5,11.51,20.25,11.51,19.05L11.51,6.96C11.51,5.76,11.75,5.51,12.96,5.51L13.05,5.51C14.25,5.51,14.5,5.76,14.5,6.96L14.5,19.05C14.5,20.25,14.25,20.5,13.05,20.5Z"/></svg>