<svg xmlns="http://www.w3.org/2000/svg" viewBox="0 0 24 24" fill="currentColor"><path d="M12.96,15.5C12.18,15.5,11.88,15.29,11.88,14.75L11.88,11.6L8.75,11.6C8.21,11.6,8,11.3,8,10.52L8,10.43C8,9.65,8.21,9.35,8.75,9.35L11.88,9.35L11.88,6.26C11.88,5.71,12.18,5.51,12.96,5.51L13.05,5.51C13.83,5.51,14.13,5.71,14.13,6.26L14.13,9.35L17.25,9.35C17.8,9.35,18,9.65,18,10.43L18,10.52C18,11.3,17.8,11.6,17.25,11.6L14.13,11.6L14.13,14.75C14.13,15.29,13.83,15.5,13.05,15.5ZM8.76,20.5C8.21,20.5,8.01,20.2,8.01,19.43L8.01,19.33C8.01,18.56,8.21,18.26,8.76,18.26L17.25,18.26C17.8,18.26,18,18.56,18,19.33L18,19.43C18,20.2,17.8,20.5,17.25,20.5Z"/></svg>