<svg xmlns="http://www.w3.org/2000/svg" viewBox="0 0 24 24"><path d="M12.07,22L11.94,22C10.34,22,10.01,21.67,10.01,20.07L10.01,18.3L14.01,14.3L14.01,20.07C14.01,21.67,13.68,22,12.08,22Z" fill="currentColor"/><path d="M15.43,10L10,15.43L2.1,23.33L2.07,23.36C1.64,23.79,1.17,23.79,0.74,23.36L0.64,23.26C0.21,22.83,0.21,22.36,0.64,21.93L8.57,14L3.94,14C2.34,14,2.01,13.67,2.01,12.07L2.01,11.94C2.01,10.34,2.34,10.01,3.94,10.01L10.01,10.01L10.01,3.94C10.01,2.34,10.34,2.01,11.94,2.01L12.07,2.01C13.67,2.01,14,2.34,14,3.94L14,8.57L21.97,0.6C22.4,0.17,22.87,0.17,23.3,0.6L23.4,0.7C23.82,1.12,23.83,1.58,23.43,2C23.42,2.01,23.41,2.02,23.4,2.03Z" fill="currentColor"/><path d="M14.3,14L18.3,10L20.07,10C21.67,10,22,10.33,22,11.93L22,12.06C22,13.66,21.67,13.99,20.07,13.99Z" fill="currentColor"/></svg>