<svg xmlns="http://www.w3.org/2000/svg" viewBox="0 0 24 24" fill="currentColor"><path d="M9.96,20.5C8.75,20.5,8.51,20.25,8.51,19.05L8.51,17.5L6.96,17.5C5.75,17.5,5.51,17.25,5.51,16.05L5.51,15.96C5.51,14.75,5.75,14.51,6.96,14.51L8.51,14.51L8.51,11.51L6.96,11.51C5.75,11.51,5.51,11.26,5.51,10.06L5.51,9.96C5.51,8.76,5.75,8.52,6.96,8.52L8.51,8.52L8.51,6.96C8.51,5.76,8.75,5.52,9.96,5.52L10.05,5.52C11.25,5.52,11.5,5.76,11.5,6.96L11.5,8.52L14.5,8.52L14.5,6.96C14.5,5.76,14.75,5.52,15.95,5.52L16.04,5.52C17.25,5.52,17.49,5.76,17.49,6.96L17.49,8.52L19.04,8.52C20.25,8.52,20.49,8.76,20.49,9.96L20.49,10.06C20.49,11.26,20.25,11.51,19.04,11.51L17.49,11.51L17.49,14.51L19.04,14.51C20.25,14.51,20.49,14.75,20.49,15.96L20.49,16.05C20.49,17.25,20.25,17.5,19.04,17.5L17.49,17.5L17.49,19.05C17.49,20.25,17.25,20.5,16.04,20.5L15.95,20.5C14.75,20.5,14.5,20.25,14.5,19.05L14.5,17.5L11.5,17.5L11.5,19.05C11.5,20.25,11.25,20.5,10.05,20.5ZM11.5,14.5L14.5,14.5L14.5,11.5L11.5,11.5Z"/></svg>