<svg xmlns="http://www.w3.org/2000/svg" viewBox="0 0 24 24"><path d="M1.94,6C0.34,6,0.01,5.67,0.01,4.07L0.01,3.94C0.01,2.34,0.34,2.01,1.94,2.01L18.07,2.01C19.67,2.01,20,2.34,20,3.94L20,4.07C20,5.67,19.67,6,18.07,6Z" fill="currentColor"/><path d="M0,11.93C0,10.33,0.33,10,1.93,10L11.9,10C10.54,11.12,9.46,12.57,8.78,14L1.93,14C0.33,14,0,13.67,0,12.07Z" fill="currentColor"/><path d="M0,19.93C0,18.33,0.33,18,1.93,18L8.05,18C8.21,19.47,8.72,20.83,9.5,22L1.93,22C0.33,22,0,21.67,0,20.07Z" fill="currentColor"/><path d="M10,17C10,13.13,13.17,10,17,10C20.87,10,24,13.13,24,17C24,20.83,20.87,24,17,24C13.17,24,10,20.83,10,17Z" fill="currentColor"/><path d="M19.6,17.83C20.43,17.23,20.43,16.76,19.6,16.16L16.07,13.59C15.4,13.12,15,13.32,15,14.16L15,19.83C15,20.66,15.4,20.86,16.07,20.4Z" fill="currentColor"/></svg>