<svg xmlns="http://www.w3.org/2000/svg" viewBox="0 0 24 24"><path d="M20.63,17.06C19.83,18.43,19.36,18.56,18,17.76L4,9.69C2.63,8.89,2.5,8.42,3.3,7.06L3.37,6.93C4.17,5.56,4.64,5.43,6,6.23L20,14.3C21.37,15.1,21.5,15.57,20.7,16.93Z" fill="currentColor"/><path d="M6,17.77C4.63,18.57,4.17,18.44,3.37,17.07L3.3,16.94C2.5,15.57,2.63,15.11,4,14.31L18,6.24C19.37,5.44,19.83,5.57,20.63,6.94L20.7,7.07C21.5,8.44,21.37,8.9,20,9.7Z" fill="currentColor"/><path d="M11.94,22C10.34,22,10.01,21.67,10.01,20.07L10.01,3.94C10.01,2.34,10.34,2.01,11.94,2.01L12.07,2.01C13.67,2.01,14,2.34,14,3.94L14,20.07C14,21.67,13.67,22,12.07,22Z" fill="currentColor"/></svg>