<svg xmlns="http://www.w3.org/2000/svg" viewBox="0 0 24 24" fill="currentColor"><path d="M14.7,20.5C13.93,20.5,13.65,20.3,13.73,19.75L15.53,6.25C15.6,5.7,15.92,5.5,16.7,5.5L17.55,5.5C18.32,5.5,18.6,5.7,18.53,6.25L16.73,19.75C16.65,20.3,16.33,20.5,15.55,20.5ZM8.13,20.5C7.58,20.5,7.43,20.2,7.52,19.43L9.23,6.58C9.32,5.81,9.58,5.51,10.13,5.51L11.63,5.51C12.17,5.51,12.32,5.81,12.23,6.58L10.52,19.43C10.43,20.2,10.17,20.5,9.63,20.5ZM6.96,11.5C5.76,11.5,5.51,11.25,5.51,10.05L5.51,9.96C5.51,8.75,5.76,8.51,6.96,8.51L19.05,8.51C20.25,8.51,20.5,8.75,20.5,9.96L20.5,10.05C20.5,11.25,20.25,11.5,19.05,11.5ZM6.96,17.5C5.76,17.5,5.51,17.25,5.51,16.05L5.51,15.96C5.51,14.75,5.76,14.51,6.96,14.51L19.05,14.51C20.25,14.51,20.5,14.75,20.5,15.96L20.5,16.05C20.5,17.25,20.25,17.5,19.05,17.5Z"/></svg>