<svg xmlns="http://www.w3.org/2000/svg" viewBox="0 0 24 24" fill="currentColor"><path d="M15.37,10.78L15.35,11.06C15.45,10.29,15.22,9.88,14.5,9.58C12.4,9,9.57,9.83,9.57,12.98C9.57,15.95,12.4,16.93,14.5,16.43C15.23,16.13,15.45,15.73,15.35,14.95L15.37,15.23C15.27,14.46,14.92,14.2,14.15,14.31C13.08,14.38,11.67,14.23,11.67,12.98C11.67,11.58,13.08,11.53,14.17,11.68C14.92,11.81,15.27,11.55,15.37,10.78ZM13,5.13C17.33,5.13,20.88,8.67,20.88,13C20.88,17.33,17.33,20.88,13,20.88C8.67,20.88,5.13,17.33,5.13,13C5.13,8.67,8.67,5.13,13,5.13ZM13,7.38C9.9,7.38,7.38,9.9,7.38,13C7.38,16.1,9.9,18.63,13,18.63C16.1,18.63,18.63,16.1,18.63,13C18.63,9.9,16.1,7.38,13,7.38Z"/></svg>