<svg xmlns="http://www.w3.org/2000/svg" viewBox="0 0 24 24" fill="currentColor"><path d="M12,14.95C12.53,15.5,13.25,15.33,13.65,14.88L14.8,13.6C15.57,12.72,16.85,12.03,16.85,10.23C16.85,8.1,15.18,6.68,13.15,6.68C11.35,6.68,10,7.78,9.35,8.98C9,9.63,8.97,10.2,9.42,10.68C10.08,11.36,10.75,10.86,11.02,10.51C11.77,9.54,12.39,8.94,13.2,8.94C13.85,8.94,14.6,9.29,14.6,10.11C14.6,10.73,14.45,10.81,13.65,11.67L12.15,13.24C11.6,13.84,11.52,14.49,12,14.96ZM10.93,16C9.94,15.01,9.99,13.37,11.06,12.21L12.56,10.62C13.11,10.05,13.11,10.05,13.11,10.11C13.11,10.23,13.52,10.43,13.2,10.43C13.01,10.43,12.89,10.53,12.21,11.43C11.84,11.9,10.04,13.47,8.34,11.72C7.47,10.8,7.4,9.45,8.04,8.27C8.83,6.81,10.82,5.18,13.16,5.18C15.89,5.18,18.36,7.26,18.36,10.23C18.36,12.48,16.83,13.58,15.92,14.6L14.78,15.87C14.28,16.43,12.48,17.62,10.94,15.99ZM14.38,18.12C14.38,17.4,13.8,16.83,13.05,16.83C12.32,16.83,11.75,17.4,11.75,18.12C11.75,18.87,12.33,19.45,13.05,19.45C13.8,19.45,14.38,18.87,14.38,18.12ZM10.25,18.12C10.25,16.65,11.58,15.33,13.05,15.33C14.55,15.33,15.88,16.65,15.88,18.12C15.88,19.62,14.55,20.95,13.05,20.95C11.57,20.95,10.25,19.62,10.25,18.12ZM12.25,12.15L11.22,11.1L13.22,9.05L14.27,10.2Z"/></svg>