<svg xmlns="http://www.w3.org/2000/svg" viewBox="0 0 24 24"><path d="M9.27,11.87C8.54,12.6,8,12.64,7.27,11.9L7.1,11.73C6.37,11,6.4,10.46,7.13,9.73L9.86,7L7.13,4.27C6.4,3.54,6.4,3,7.13,2.27L7.26,2.14C7.99,1.41,8.53,1.41,9.26,2.14L11.99,4.87L14.72,2.14C15.45,1.41,15.99,1.37,16.72,2.11L16.89,2.28C17.62,3.01,17.59,3.55,16.86,4.28L14.13,7.01L16.86,9.74C17.59,10.47,17.59,11.01,16.86,11.74L16.73,11.87C16,12.6,15.46,12.6,14.73,11.87L12,9.14Z" fill="currentColor"/><path d="M1.83,20C1.83,18.8,2.8,17.83,4,17.83C5.2,17.83,6.17,18.8,6.17,20C6.17,21.2,5.2,22.17,4,22.17C2.8,22.17,1.83,21.2,1.83,20Z" fill="currentColor"/><path d="M9.83,20C9.83,18.8,10.8,17.83,12,17.83C13.2,17.83,14.17,18.8,14.17,20C14.17,21.2,13.2,22.17,12,22.17C10.8,22.17,9.83,21.2,9.83,20Z" fill="currentColor"/><path d="M17.83,20C17.83,18.8,18.8,17.83,20,17.83C21.2,17.83,22.17,18.8,22.17,20C22.17,21.2,21.2,22.17,20,22.17C18.8,22.17,17.83,21.2,17.83,20Z" fill="currentColor"/></svg>