<svg xmlns="http://www.w3.org/2000/svg" viewBox="0 0 24 24"><path d="M1.83,20C1.83,18.8,2.8,17.83,4,17.83C5.2,17.83,6.17,18.8,6.17,20C6.17,21.2,5.2,22.17,4,22.17C2.8,22.17,1.83,21.2,1.83,20Z" fill="currentColor"/><path d="M9.83,20C9.83,18.8,10.8,17.83,12,17.83C13.2,17.83,14.17,18.8,14.17,20C14.17,21.2,13.2,22.17,12,22.17C10.8,22.17,9.83,21.2,9.83,20Z" fill="currentColor"/><path d="M17.83,20C17.83,18.8,18.8,17.83,20,17.83C21.2,17.83,22.17,18.8,22.17,20C22.17,21.2,21.2,22.17,20,22.17C18.8,22.17,17.83,21.2,17.83,20Z" fill="currentColor"/><path d="M7.17,3.6L7.87,8.43C7.97,9.06,8.24,9.3,8.9,9.3L9.1,9.3C9.77,9.3,10.03,9.07,10.13,8.43L10.83,3.6C11.03,2.3,10.56,1.8,9.23,1.8L8.76,1.8C7.43,1.8,6.96,2.3,7.16,3.6Z" fill="currentColor"/><path d="M10.67,12.6C10.67,11.57,10.04,10.93,9,10.93C7.97,10.93,7.37,11.56,7.37,12.6C7.37,13.63,7.97,14.23,9,14.23C10.03,14.23,10.67,13.63,10.67,12.6Z" fill="currentColor"/><path d="M13.17,3.6L13.87,8.43C13.97,9.06,14.24,9.3,14.9,9.3L15.1,9.3C15.77,9.3,16.03,9.07,16.13,8.43L16.83,3.6C17.03,2.3,16.56,1.8,15.23,1.8L14.76,1.8C13.43,1.8,12.96,2.3,13.16,3.6Z" fill="currentColor"/><path d="M16.67,12.6C16.67,11.57,16.04,10.93,15,10.93C13.97,10.93,13.37,11.56,13.37,12.6C13.37,13.63,13.97,14.23,15,14.23C16.03,14.23,16.67,13.63,16.67,12.6Z" fill="currentColor"/></svg>