<svg xmlns="http://www.w3.org/2000/svg" viewBox="0 0 24 24" fill="currentColor"><path d="M18.92,21.25L18.5,21.25C18.1,21.25,17.95,21.1,17.97,20.73L18.42,14.28C18.45,13.9,18.59,13.75,19,13.75L19.43,13.75C19.8,13.75,19.95,13.9,19.93,14.28L19.48,20.73C19.46,21.1,19.31,21.25,18.93,21.25ZM14.3,19.75C13.9,19.75,13.75,19.6,13.75,19.2L13.75,18.77C13.75,18.4,13.9,18.25,14.3,18.25L20.73,18.25C21.1,18.25,21.25,18.4,21.25,18.77L21.25,19.2C21.25,19.6,21.1,19.75,20.73,19.75ZM16.05,21.25L15.63,21.25C15.23,21.25,15.08,21.1,15.1,20.73L15.55,14.28C15.57,13.9,15.72,13.75,16.13,13.75L16.55,13.75C16.93,13.75,17.08,13.9,17.06,14.28L16.61,20.73C16.59,21.1,16.44,21.25,16.06,21.25ZM14.3,16.75C13.9,16.75,13.75,16.6,13.75,16.2L13.75,15.77C13.75,15.4,13.9,15.25,14.3,15.25L20.73,15.25C21.1,15.25,21.25,15.4,21.25,15.77L21.25,16.2C21.25,16.6,21.1,16.75,20.73,16.75ZM7.85,17.48C7.85,16.78,8.54,16.75,9.1,16.82C9.48,16.9,9.65,16.77,9.7,16.4L9.68,16.49C9.73,16.12,9.6,15.92,9.25,15.77C8.2,15.49,6.8,15.92,6.8,17.47C6.8,18.97,8.2,19.44,9.25,19.2C9.6,19.04,9.72,18.84,9.68,18.47L9.7,18.59C9.65,18.22,9.48,18.09,9.1,18.14C8.55,18.17,7.85,18.12,7.85,17.47ZM8.5,13.55C10.68,13.55,12.45,15.33,12.45,17.5C12.45,19.65,10.67,21.42,8.5,21.42C6.35,21.42,4.58,19.64,4.58,17.5C4.58,15.33,6.35,13.55,8.5,13.55ZM8.5,14.67C6.95,14.67,5.7,15.95,5.7,17.5C5.7,19.05,6.96,20.3,8.5,20.3C10.05,20.3,11.33,19.05,11.33,17.5C11.33,15.95,10.05,14.67,8.5,14.67ZM20.73,10.41C20.43,10.93,20.27,10.98,19.75,10.68L14.5,7.63C13.98,7.33,13.92,7.18,14.22,6.66L14.27,6.6C14.57,6.08,14.73,6.02,15.25,6.32L20.5,9.38C21.02,9.68,21.08,9.83,20.78,10.35ZM15.25,10.68C14.73,10.98,14.58,10.92,14.27,10.4L14.22,10.35C13.92,9.82,13.98,9.67,14.5,9.37L19.75,6.32C20.27,6.02,20.42,6.07,20.73,6.59L20.78,6.65C21.08,7.17,21.02,7.32,20.5,7.62ZM17.47,12.25C16.87,12.25,16.74,12.12,16.74,11.52L16.74,5.47C16.74,4.87,16.87,4.74,17.47,4.74L17.52,4.74C18.12,4.74,18.25,4.87,18.25,5.47L18.25,11.52C18.25,12.12,18.12,12.25,17.52,12.25ZM10.5,10.73L11.53,10.73C12.13,10.73,12.26,10.86,12.26,11.46L12.26,11.53C12.26,12.13,12.13,12.26,11.53,12.26L9.56,12.26C9.16,12.26,9.01,12.11,9.01,11.71L9.01,10.89C9.01,10.51,9.11,10.26,9.38,9.99C10.11,9.21,10.41,8.43,10.41,7.83C10.41,6.58,9.61,6.01,8.52,6.01C7.41,6.01,6.62,6.59,6.62,7.83C6.62,8.43,6.92,9.21,7.65,9.99C7.92,10.26,8.02,10.51,8.02,10.89L8.02,11.71C8.02,12.11,7.87,12.26,7.5,12.26L5.49,12.26C4.89,12.26,4.77,12.13,4.77,11.53L4.77,11.46C4.77,10.86,4.89,10.73,5.49,10.73L6.52,10.73C5.6,9.83,5.19,8.78,5.19,7.83C5.19,5.78,6.62,4.5,8.52,4.5C10.41,4.5,11.84,5.78,11.84,7.83C11.84,8.78,11.44,9.83,10.51,10.73Z"/></svg>