<svg xmlns="http://www.w3.org/2000/svg" viewBox="0 0 24 24"><path d="M11.94,15.33C10.91,15.33,10.51,15.06,10.51,14.33L10.51,10.13L6.34,10.13C5.61,10.13,5.34,9.73,5.34,8.7L5.34,8.57C5.34,7.54,5.61,7.14,6.34,7.14L10.51,7.14L10.51,3.01C10.51,2.28,10.91,2.01,11.94,2.01L12.07,2.01C13.1,2.01,13.5,2.28,13.5,3.01L13.5,7.14L17.67,7.14C18.4,7.14,18.67,7.54,18.67,8.57L18.67,8.7C18.67,9.73,18.4,10.13,17.67,10.13L13.5,10.13L13.5,14.33C13.5,15.06,13.1,15.33,12.07,15.33Z" fill="currentColor"/><path d="M6.34,22C5.61,22,5.34,21.6,5.34,20.57L5.34,20.44C5.34,19.41,5.61,19.01,6.34,19.01L17.67,19.01C18.4,19.01,18.67,19.41,18.67,20.44L18.67,20.57C18.67,21.6,18.4,22,17.67,22Z" fill="currentColor"/></svg>