<svg xmlns="http://www.w3.org/2000/svg" viewBox="0 0 24 24" fill="currentColor"><path d="M5.37,6.98C5.37,7.88,6.1,8.61,7,8.61C7.9,8.61,8.63,7.88,8.63,6.98C8.63,6.08,7.9,5.35,7,5.35C6.1,5.35,5.37,6.08,5.37,6.98ZM11.37,6.98C11.37,7.88,12.1,8.61,13,8.61C13.9,8.61,14.63,7.88,14.63,6.98C14.63,6.08,13.9,5.35,13,5.35C12.1,5.35,11.37,6.08,11.37,6.98ZM17.37,6.98C17.37,7.88,18.1,8.61,19,8.61C19.9,8.61,20.63,7.88,20.63,6.98C20.63,6.08,19.9,5.35,19,5.35C18.1,5.35,17.37,6.08,17.37,6.98ZM9.38,19.28L9.9,15.66C9.98,15.18,10.18,15,10.67,15L10.82,15C11.33,15,11.52,15.18,11.6,15.66L12.12,19.28C12.27,20.25,11.92,20.63,10.92,20.63L10.57,20.63C9.57,20.63,9.22,20.25,9.37,19.28ZM12,12.53C12,13.3,11.53,13.78,10.75,13.78C9.98,13.78,9.53,13.31,9.53,12.53C9.53,11.75,9.98,11.31,10.75,11.31C11.52,11.31,12,11.76,12,12.53ZM13.88,19.28L14.4,15.66C14.48,15.18,14.68,15,15.18,15L15.33,15C15.83,15,16.02,15.18,16.1,15.66L16.62,19.28C16.77,20.25,16.42,20.63,15.42,20.63L15.07,20.63C14.07,20.63,13.72,20.25,13.87,19.28ZM16.5,12.53C16.5,13.3,16.03,13.78,15.25,13.78C14.48,13.78,14.03,13.31,14.03,12.53C14.03,11.75,14.48,11.31,15.25,11.31C16.02,11.31,16.5,11.76,16.5,12.53Z"/></svg>