<svg xmlns="http://www.w3.org/2000/svg" viewBox="0 0 24 24" fill="currentColor"><path d="M7.33,5.97C7.98,5.32,8.23,5.32,8.88,5.97L8.94,6.03C9.59,6.68,9.59,6.93,8.94,7.58L6.51,10L8.94,12.42C9.59,13.08,9.59,13.32,8.94,13.98L8.88,14.03C8.23,14.68,7.98,14.68,7.33,14.03L4.88,11.58C3.73,10.43,3.73,9.57,4.88,8.43ZM18.67,20.03C18.02,20.68,17.77,20.68,17.12,20.03L17.06,19.98C16.41,19.32,16.41,19.08,17.06,18.42L19.49,16L17.06,13.58C16.41,12.93,16.41,12.68,17.06,12.02L17.12,11.97C17.77,11.32,18.02,11.32,18.67,11.97L21.12,14.42C22.27,15.57,22.27,16.43,21.12,17.57ZM7.88,20.1C7.35,19.73,7.33,19.35,7.75,18.73L16.73,5.63C17.08,5.1,17.48,5.08,18.13,5.5L18.38,5.65C18.9,6.03,18.92,6.4,18.5,7.02L9.53,20.13C9.17,20.65,8.78,20.67,8.13,20.25Z"/></svg>