<svg xmlns="http://www.w3.org/2000/svg" viewBox="0 0 24 24"><path d="M12,17.5C13.34,17.5,14.5,18.66,14.5,20C14.5,21.34,13.34,22.5,12,22.5C10.66,22.5,9.5,21.34,9.5,20C9.5,18.66,10.66,17.5,12,17.5Z" fill="currentColor"/><path d="M12,1.5C13.34,1.5,14.5,2.66,14.5,4C14.5,5.34,13.34,6.5,12,6.5C10.66,6.5,9.5,5.34,9.5,4C9.5,2.66,10.66,1.5,12,1.5Z" fill="currentColor"/><path d="M12,9.5C13.34,9.5,14.5,10.66,14.5,12C14.5,13.34,13.34,14.5,12,14.5C10.66,14.5,9.5,13.34,9.5,12C9.5,10.66,10.66,9.5,12,9.5Z" fill="currentColor"/></svg>