<svg xmlns="http://www.w3.org/2000/svg" viewBox="0 0 24 24"><path d="M20.06,17.97C21.66,17.97,21.99,18.3,21.99,19.9L21.99,20.07C21.99,21.67,21.66,22,20.06,22L14.76,22C13.73,22,13.33,21.6,13.33,20.57L13.33,18.4C13.33,17.37,13.63,16.7,14.36,15.97C16.26,13.9,17.06,11.8,17.06,10.2C17.06,6.9,14.93,5.33,11.99,5.33C9.06,5.33,6.92,6.9,6.92,10.2C6.92,11.8,7.72,13.9,9.62,15.97C10.35,16.7,10.65,17.37,10.65,18.4L10.65,20.57C10.65,21.6,10.25,22,9.22,22L3.92,22C2.32,22,1.99,21.67,1.99,20.07L1.99,19.9C1.99,18.3,2.32,17.97,3.92,17.97L6.65,17.97C4.18,15.57,3.12,12.74,3.12,10.2C3.12,4.77,6.92,1.33,11.99,1.33C17.06,1.33,20.86,4.76,20.86,10.2C20.86,12.73,19.79,15.57,17.33,17.97Z" fill="currentColor"/></svg>