<svg xmlns="http://www.w3.org/2000/svg" viewBox="0 0 24 24" fill="currentColor"><path d="M5.46,8.5C4.26,8.5,4.01,8.25,4.01,7.05L4.01,6.96C4.01,5.75,4.26,5.51,5.46,5.51L17.55,5.51C18.75,5.51,19,5.76,19,6.96L19,7.05C19,8.25,18.75,8.5,17.55,8.5ZM4,12.95C4,11.75,4.25,11.5,5.45,11.5L13.96,11.5C12.04,11.94,10.32,12.98,8.65,14.5L5.45,14.5C4.25,14.5,4,14.25,4,13.05ZM4,18.95C4,17.75,4.25,17.5,5.45,17.5L9.5,17.5L12.48,20.5L5.44,20.5C4.24,20.5,3.99,20.25,3.99,19.05ZM18.72,18.95C17.95,18.07,17.02,17.62,16,17.62C15.05,17.62,14.05,18.07,13.28,18.95L12.18,17.95C13.25,16.73,14.65,16.13,16,16.13C17.43,16.13,18.75,16.73,19.83,17.95ZM14.35,20.13C14.82,19.55,15.42,19.25,16,19.25C16.62,19.25,17.18,19.55,17.63,20.13L16,21.77ZM20.93,16.77C19.55,15.27,17.78,14.5,16,14.5C14.27,14.5,12.48,15.27,11.07,16.77L10,15.78C11.67,13.95,13.88,13,16,13C18.17,13,20.35,13.95,22,15.78Z"/></svg>