<svg xmlns="http://www.w3.org/2000/svg" viewBox="0 0 24 24"><path d="M19.9,23L19.33,23C18.8,23,18.6,22.8,18.63,22.3L19.23,13.7C19.26,13.2,19.46,13,20,13L20.57,13C21.07,13,21.27,13.2,21.24,13.7L20.64,22.3C20.61,22.8,20.41,23,19.91,23Z" fill="currentColor"/><path d="M13.73,21C13.2,21,13,20.8,13,20.27L13,19.7C13,19.2,13.2,19,13.73,19L22.3,19C22.8,19,23,19.2,23,19.7L23,20.27C23,20.8,22.8,21,22.3,21Z" fill="currentColor"/><path d="M16.07,23L15.5,23C14.97,23,14.77,22.8,14.8,22.3L15.4,13.7C15.43,13.2,15.63,13,16.17,13L16.74,13C17.24,13,17.44,13.2,17.41,13.7L16.81,22.3C16.78,22.8,16.58,23,16.08,23Z" fill="currentColor"/><path d="M13.73,17C13.2,17,13,16.8,13,16.27L13,15.7C13,15.2,13.2,15,13.73,15L22.3,15C22.8,15,23,15.2,23,15.7L23,16.27C23,16.8,22.8,17,22.3,17Z" fill="currentColor"/><path d="M5.13,17.97C5.13,17.04,6.06,17,6.8,17.1C7.3,17.2,7.53,17.03,7.6,16.53L7.57,16.66C7.64,16.16,7.47,15.89,7,15.69C5.6,15.32,3.73,15.89,3.73,17.96C3.73,19.96,5.6,20.59,7,20.26C7.47,20.06,7.63,19.79,7.57,19.29L7.6,19.46C7.53,18.96,7.3,18.79,6.8,18.86C6.07,18.89,5.13,18.83,5.13,17.96Z" fill="currentColor"/><path d="M0.77,18C0.77,15.1,3.14,12.73,6,12.73C8.9,12.73,11.27,15.1,11.27,18C11.27,20.87,8.9,23.23,6,23.23C3.13,23.23,0.77,20.86,0.77,18Z" fill="currentColor"/><path d="M9.77,18C9.77,15.93,8.07,14.23,6,14.23C3.93,14.23,2.27,15.93,2.27,18C2.27,20.07,3.94,21.73,6,21.73C8.07,21.73,9.77,20.06,9.77,18Z" fill="currentColor"/><path d="M22.3,8.54C21.9,9.24,21.7,9.31,21,8.91L14,4.84C13.3,4.44,13.23,4.24,13.63,3.54L13.7,3.47C14.1,2.77,14.3,2.7,15,3.1L22,7.17C22.7,7.57,22.77,7.77,22.37,8.47Z" fill="currentColor"/><path d="M15,8.9C14.3,9.3,14.1,9.23,13.7,8.53L13.63,8.46C13.23,7.76,13.3,7.56,14,7.16L21,3.09C21.7,2.69,21.9,2.76,22.3,3.46L22.37,3.53C22.77,4.23,22.7,4.43,22,4.83Z" fill="currentColor"/><path d="M17.96,11C17.16,11,16.99,10.83,16.99,10.03L16.99,1.96C16.99,1.16,17.16,0.99,17.96,0.99L18.03,0.99C18.83,0.99,19,1.16,19,1.96L19,10.03C19,10.83,18.83,11,18.03,11Z" fill="currentColor"/><path d="M8.67,8.97L10.04,8.97C10.84,8.97,11.01,9.14,11.01,9.94L11.01,10.04C11.01,10.84,10.84,11.01,10.04,11.01L7.41,11.01C6.88,11.01,6.68,10.81,6.68,10.28L6.68,9.18C6.68,8.68,6.81,8.35,7.18,7.98C8.15,6.95,8.55,5.91,8.55,5.11C8.55,3.44,7.48,2.68,6.02,2.68C4.55,2.68,3.49,3.45,3.49,5.11C3.49,5.91,3.89,6.94,4.86,7.98C5.23,8.35,5.36,8.68,5.36,9.18L5.36,10.28C5.36,10.81,5.16,11.01,4.66,11.01L1.99,11.01C1.19,11.01,1.02,10.84,1.02,10.04L1.02,9.94C1.02,9.14,1.19,8.97,1.99,8.97L3.36,8.97C2.13,7.77,1.59,6.37,1.59,5.1C1.59,2.37,3.49,0.67,6.02,0.67C8.55,0.67,10.45,2.37,10.45,5.1C10.45,6.37,9.92,7.77,8.68,8.97Z" fill="currentColor"/></svg>