<svg xmlns="http://www.w3.org/2000/svg" viewBox="0 0 24 24" fill="currentColor"><path d="M6.25,13.25L6.25,12.2C6.25,11.75,6.5,11.5,6.95,11.5L7.04,11.5C7.5,11.5,7.74,11.75,7.74,12.2L7.74,13.25C7.74,16.02,9.56,17.5,12.99,17.5C16.42,17.5,18.24,16.02,18.24,13.25L18.24,12.2C18.24,11.75,18.49,11.5,18.94,11.5L19.04,11.5C19.49,11.5,19.73,11.75,19.73,12.2L19.73,13.25C19.73,17,17.39,19,12.98,19C8.58,19,6.24,17,6.24,13.25ZM10,8.15C10,6.27,11.05,5.24,13,5.24C14.95,5.24,16,6.27,16,8.15L16,12.35C16,14.22,14.95,15.25,13,15.25C11.05,15.25,10,14.22,10,12.35ZM13.05,22L12.96,22C12.5,22,12.26,21.75,12.26,21.3L12.26,18.38L13.76,18.38L13.76,21.3C13.76,21.75,13.51,22,13.06,22Z"/></svg>