<svg xmlns="http://www.w3.org/2000/svg" viewBox="0 0 24 24" fill="currentColor"><path d="M20.42,12.83C18.74,10.11,16.28,8.25,13,8.25C9.72,8.25,7.25,10.11,5.57,12.83C5.47,13.02,5.47,13.02,5.57,13.2C7.25,15.92,9.71,17.73,13,17.73C16.29,17.73,18.75,15.91,20.43,13.2C20.53,13.02,20.53,13.02,20.42,12.83ZM4.28,12.08C6.13,9.08,9.23,6.75,13,6.75C16.77,6.75,19.88,9.08,21.72,12.08C22.1,12.77,22.1,13.28,21.72,13.95C19.87,16.95,16.77,19.23,13,19.23C9.23,19.23,6.12,16.95,4.28,13.95C3.9,13.28,3.9,12.77,4.28,12.08ZM13,10.49C11.63,10.49,10.5,11.62,10.5,13.02C10.5,14.39,11.63,15.5,13,15.5C14.37,15.5,15.5,14.39,15.5,13.02C15.5,11.62,14.37,10.49,13,10.49Z"/></svg>