<svg xmlns="http://www.w3.org/2000/svg" viewBox="0 0 24 24"><path d="M19.33,20C20,20,20,20,20,19.33L20,4.66C20,3.99,20,3.99,19.33,3.99L4.66,3.99C3.99,3.99,3.99,3.99,3.99,4.66L3.99,19.33C3.99,20,3.99,20,4.66,20Z" fill="currentColor"/><path d="M4.66,22C2.66,22,1.99,21.33,1.99,19.33L1.99,4.66C1.99,2.66,2.66,1.99,4.66,1.99L19.33,1.99C21.33,1.99,22,2.66,22,4.66L22,19.33C22,21.33,21.33,22,19.33,22Z" fill="currentColor"/><path d="M9.6,8C9.6,7.07,8.8,6.2,7.8,6.2C6.8,6.2,6,7.07,6,8C6,8.93,6.8,9.73,7.8,9.73C8.8,9.73,9.6,8.93,9.6,8Z" fill="currentColor"/><path d="M7.1,18L16.9,18C17.5,18,17.83,17.67,17.87,17.07C18,11.7,17.1,8,15.2,8C13,8,12.17,14.67,10.6,14.67C9.7,14.67,9.33,12.17,8,12.17C6.73,12.17,6.07,14.2,6.13,17.07C6.16,17.67,6.5,18,7.1,18Z" fill="currentColor"/></svg>