<svg xmlns="http://www.w3.org/2000/svg" viewBox="0 0 24 24" fill="currentColor"><path d="M5.13,19.75C5.13,19.13,5.63,18.63,6.25,18.63C6.87,18.63,7.38,19.13,7.38,19.75C7.38,20.37,6.87,20.88,6.25,20.88C5.63,20.88,5.13,20.37,5.13,19.75ZM9.63,19.75C9.63,19.13,10.13,18.63,10.75,18.63C11.37,18.63,11.88,19.13,11.88,19.75C11.88,20.37,11.37,20.88,10.75,20.88C10.13,20.88,9.63,20.37,9.63,19.75ZM14.13,19.75C14.13,19.13,14.63,18.63,15.25,18.63C15.87,18.63,16.38,19.13,16.38,19.75C16.38,20.37,15.87,20.88,15.25,20.88C14.63,20.88,14.13,20.37,14.13,19.75ZM18.63,19.75C18.63,19.13,19.13,18.63,19.75,18.63C20.37,18.63,20.88,19.13,20.88,19.75C20.88,20.37,20.37,20.88,19.75,20.88C19.13,20.88,18.63,20.37,18.63,19.75ZM6.1,8.48C7.5,6.1,10,4.28,13,4.28C16,4.28,18.5,6.1,19.9,8.48C20.18,9.02,20.2,9.45,19.9,9.98C18.5,12.4,16.02,14.25,13,14.25C9.98,14.25,7.5,12.4,6.1,9.98C5.8,9.45,5.82,9.02,6.1,8.48ZM10.4,9.22C10.4,10.67,11.54,11.85,13,11.85C14.45,11.85,15.6,10.67,15.6,9.22C15.6,7.79,14.45,6.65,13,6.65C11.55,6.65,10.4,7.79,10.4,9.22Z"/></svg>