<svg xmlns="http://www.w3.org/2000/svg" viewBox="0 0 24 24"><path d="M22,5.43L22,5.56C22,6.59,21.6,6.99,20.57,6.99L5.4,6.96L5.4,3.99L20.57,3.99C21.6,3.99,22,4.39,22,5.42Z" fill="currentColor"/><path d="M2.8,18.03C2.43,17.3,2.4,16.73,2.8,16.03C4.67,12.8,7.97,10.33,12,10.33C16.03,10.33,19.33,12.8,21.2,16.03C21.6,16.73,21.57,17.3,21.2,18.03C19.33,21.2,16,23.63,12,23.63C8,23.63,4.67,21.2,2.8,18.03Z" fill="currentColor"/><path d="M15.47,17.04C15.47,15.11,13.94,13.54,12,13.54C10.07,13.54,8.53,15.11,8.53,17.04C8.53,18.94,10.06,20.47,12,20.47C13.93,20.47,15.47,18.94,15.47,17.04Z" fill="currentColor"/><path d="M4.77,9.6L0.7,6.4C-0.13,5.73,-0.13,5.27,0.7,4.6L4.8,1.4C5.5,0.83,5.93,1.07,5.93,1.97L5.93,9.04C5.93,9.97,5.5,10.17,4.76,9.61Z" fill="currentColor"/></svg>