<svg xmlns="http://www.w3.org/2000/svg" viewBox="0 0 24 24" fill="currentColor"><path d="M14.25,21.02C13.78,20.55,13.78,20.18,14.23,19.7C17.58,15.75,17.58,10.25,14.23,6.29C13.78,5.82,13.78,5.45,14.25,4.97L14.8,4.42C15.27,3.95,15.63,3.97,16.1,4.44C20.42,9.41,20.42,16.57,16.1,21.54C15.63,22.02,15.27,22.05,14.8,21.57ZM8.78,11.99C9.33,12.54,9.33,13.44,8.78,14C8.2,14.54,7.33,14.54,6.78,14C6.2,13.45,6.2,12.55,6.78,11.99C7.32,11.45,8.2,11.45,8.78,11.99ZM11.1,17.88L10.58,17.35C10.11,16.88,10.11,16.5,10.53,15.98C11.8,14.18,11.8,11.83,10.53,10.03C10.1,9.5,10.1,9.13,10.58,8.66L11.1,8.13C11.58,7.66,11.93,7.68,12.38,8.19C14.65,11.01,14.65,15.01,12.38,17.84C11.93,18.34,11.57,18.36,11.1,17.89Z"/></svg>