<svg xmlns="http://www.w3.org/2000/svg" viewBox="0 0 24 24"><path d="M4.66,22C2.66,22,1.99,21.33,1.99,19.33L1.99,4.66C1.99,2.66,2.66,1.99,4.66,1.99L19.33,1.99C21.33,1.99,22,2.66,22,4.66L22,19.33C22,21.33,21.33,22,19.33,22Z" fill="currentColor"/><path d="M4.07,18.8L4.07,20L19.94,20L19.94,18.8C19.94,16.8,19.31,15.9,17.47,15.17L16.74,14.87C14.47,13.94,14.14,13.8,14.14,13.2C14.14,11.33,15.67,11.33,15.67,8.2C15.67,5.67,14.54,3.8,11.94,3.8C9.54,3.8,8.34,5.67,8.34,8.2C8.34,11.33,9.81,11.33,9.81,13.2C9.81,13.8,9.54,13.93,7.21,14.87L6.54,15.14C4.67,15.91,4.07,16.81,4.07,18.81Z" fill="currentColor"/></svg>