<svg xmlns="http://www.w3.org/2000/svg" viewBox="0 0 24 24"><path d="M2.8,18.03C2.43,17.3,2.4,16.73,2.8,16.03C4.67,12.8,7.97,10.33,12,10.33C16.03,10.33,19.33,12.8,21.2,16.03C21.6,16.73,21.57,17.3,21.2,18.03C19.33,21.2,16,23.63,12,23.63C8,23.63,4.67,21.2,2.8,18.03Z" fill="currentColor"/><path d="M15.47,17.04C15.47,15.11,13.94,13.54,12,13.54C10.07,13.54,8.53,15.11,8.53,17.04C8.53,18.94,10.06,20.47,12,20.47C13.93,20.47,15.47,18.94,15.47,17.04Z" fill="currentColor"/><path d="M7.9,4.83L11.1,0.76C11.77,-0.07,12.23,-0.07,12.9,0.76L16.1,4.86C16.67,5.56,16.43,5.99,15.53,5.99L8.46,5.99C7.53,5.99,7.33,5.56,7.89,4.82Z" fill="currentColor"/></svg>