<svg xmlns="http://www.w3.org/2000/svg" viewBox="0 0 24 24" fill="currentColor"><path d="M18.58,20.5C17.81,20.5,17.51,20.2,17.46,19.43C16.98,13.5,12.48,9.03,6.58,8.55C5.81,8.5,5.51,8.2,5.51,7.43L5.51,6.58C5.51,5.81,5.81,5.51,6.58,5.53C14.15,6.06,19.95,11.85,20.48,19.43C20.5,20.2,20.2,20.5,19.43,20.5ZM6.75,17.62C7.65,17.62,8.38,18.35,8.38,19.25C8.38,20.15,7.65,20.88,6.75,20.88C5.85,20.88,5.13,20.15,5.13,19.25C5.13,18.35,5.85,17.62,6.75,17.62ZM12.58,20.5C11.81,20.5,11.48,20.2,11.4,19.43C10.98,16.93,9.08,15.02,6.58,14.61C5.81,14.53,5.51,14.21,5.51,13.43L5.51,12.58C5.51,11.81,5.81,11.53,6.58,11.55C10.71,12.05,13.95,15.3,14.46,19.43C14.48,20.2,14.21,20.5,13.43,20.5Z"/></svg>