<svg xmlns="http://www.w3.org/2000/svg" viewBox="0 0 24 24"><path d="M12,19C11.17,19,10.37,18.9,9.59,18.71L14.67,13.63C16.98,13.39,19.24,12.84,21.3,11.97C20.35,11.67,18.8,11.45,16.99,11.32L20.06,8.25C21.07,9.05,22.11,10,23.17,11.04C23.9,11.77,23.87,12.31,23.14,13.04C19.61,16.41,16.17,19.01,12.01,19.01Z" fill="currentColor"/><path d="M23.4,2.03L18.37,7.06L14.26,11.17L11.67,13.76L7.48,17.95L2.1,23.33L2.07,23.36C1.64,23.79,1.17,23.79,0.74,23.36L0.64,23.26C0.21,22.83,0.21,22.36,0.64,21.93L5.64,16.93C4.02,15.89,2.46,14.54,0.87,13.03C0.14,12.3,0.1,11.76,0.84,11.03C3.77,8.16,6.51,5.93,9.14,5.93C10.54,5.93,11.21,6.6,12.01,7C12.81,6.6,13.48,5.93,14.88,5.93C15.39,5.93,15.9,6.01,16.41,6.17L21.98,0.6C22.41,0.17,22.88,0.17,23.31,0.6L23.41,0.7C23.83,1.12,23.84,1.58,23.44,2C23.43,2.01,23.42,2.02,23.41,2.03Z" fill="currentColor"/><path d="M2.7,11.97C4.66,12.79,6.79,13.33,8.98,13.59L11.43,11.14C7.85,11.17,4.37,11.44,2.71,11.96Z" fill="currentColor"/></svg>