<svg xmlns="http://www.w3.org/2000/svg" viewBox="0 0 24 24" fill="currentColor"><path d="M4,12.2C4,11.75,4.25,11.5,4.7,11.5L4.79,11.5C5.24,11.5,5.49,11.75,5.49,12.2L5.49,13.25C5.49,15.82,7.07,17.28,10.03,17.48C10.17,18.81,10.7,20.03,11.49,21.01L11.49,21.3C11.49,21.75,11.24,22,10.79,22L10.7,22C10.25,22,10,21.75,10,21.3L10,18.98C6.08,18.77,4,16.79,4,13.25ZM7.75,8.15C7.75,6.27,8.8,5.24,10.75,5.24C12.7,5.24,13.75,6.27,13.75,8.15L13.75,10.69C11.96,11.57,10.63,13.22,10.17,15.21C8.59,15.02,7.75,14.03,7.75,12.35ZM16.75,13C14.64,13,13,14.63,13,16.75C13,18.85,14.65,20.5,16.75,20.5C18.87,20.5,20.5,18.86,20.5,16.75C20.5,14.62,18.88,13,16.75,13ZM16.75,11.5C19.65,11.5,22,13.85,22,16.75C22,19.62,19.65,22,16.75,22C13.88,22,11.5,19.62,11.5,16.75C11.5,13.85,13.88,11.5,16.75,11.5ZM13.17,19.27L19.27,13.17L20.33,14.23L14.23,20.33Z"/></svg>