<svg xmlns="http://www.w3.org/2000/svg" viewBox="0 0 24 24" fill="currentColor"><path d="M12.75,17.5C12.13,17.5,11.88,17.2,11.88,16.43L11.88,9.38C11.88,8.75,12.18,8.5,12.95,8.5L13.25,8.5C13.87,8.5,14.13,8.8,14.13,9.57L14.13,16.62C14.13,17.24,13.83,17.5,13.05,17.5ZM5.08,14.5C4.31,14.5,4.01,14.2,4.01,13.43L4.01,12.58C4.01,11.81,4.31,11.51,5.08,11.51L5.18,11.51C5.95,11.51,6.25,11.81,6.25,12.58L6.25,13.43C6.25,14.2,5.95,14.5,5.18,14.5ZM8.8,16C8.18,16,7.92,15.7,7.92,14.93L7.92,10.88C7.92,10.25,8.22,10,9,10L9.29,10C9.92,10,10.17,10.3,10.17,11.07L10.17,15.12C10.17,15.74,9.87,16,9.1,16ZM16.9,19C16.13,19,15.83,18.7,15.83,17.93L15.83,8.08C15.83,7.31,16.13,7.01,16.9,7.01L17,7.01C17.77,7.01,18.07,7.31,18.07,8.08L18.07,17.93C18.07,18.7,17.77,19,17,19ZM20.83,20.5C20.06,20.5,19.76,20.2,19.76,19.43L19.76,6.58C19.76,5.81,20.06,5.51,20.83,5.51L20.93,5.51C21.7,5.51,22,5.81,22,6.58L22,19.43C22,20.2,21.7,20.5,20.93,20.5Z"/></svg>