<svg xmlns="http://www.w3.org/2000/svg" viewBox="0 0 24 24" fill="currentColor"><path d="M16.04,16.8L15.95,16.71C15.63,16.41,15.6,16.03,15.89,15.71C16.52,14.83,16.74,13.91,16.74,12.93C16.74,12.03,16.54,11.15,15.92,10.31C15.62,9.98,15.64,9.61,15.97,9.28L16.02,9.23C16.34,8.9,16.7,8.93,17,9.25C17.9,10.43,18.25,11.7,18.25,12.92C18.25,14.2,17.93,15.53,17,16.75C16.7,17.07,16.38,17.1,16.04,16.8ZM19.5,19.75C19.2,20.1,18.85,20.1,18.53,19.77L18.48,19.72C18.15,19.4,18.15,19.05,18.45,18.69C19.88,16.97,20.5,14.96,20.5,12.94C20.5,10.97,19.88,9.02,18.42,7.29C18.12,6.94,18.12,6.6,18.45,6.29L18.54,6.2C18.87,5.9,19.22,5.9,19.52,6.25C21.22,8.25,21.99,10.62,21.99,12.95C21.99,15.33,21.24,17.73,19.5,19.75ZM14.5,5.13L14.5,20.88C14.5,21.57,13.67,21.75,13.17,21.17L10.7,18.32C10.2,17.72,9.7,17.5,8.92,17.5L5.99,17.5C4.49,17.5,3.99,17,3.99,15.5L3.99,10.49C3.99,8.99,4.49,8.49,5.99,8.49L8.92,8.49C9.69,8.49,10.19,8.27,10.7,7.67L13.17,4.82C13.68,4.24,14.5,4.42,14.5,5.12Z"/></svg>