<svg xmlns="http://www.w3.org/2000/svg" viewBox="0 0 24 24"><path d="M8.3,20L16,12.3L16,17.33C16,19.33,15.33,20,13.33,20Z" fill="currentColor"/><path d="M24,7.43L24,16.56C24,17.59,23.67,17.76,22.8,17.19L18,13.99L18,10.29L18.9,9.39L22.8,6.79C23.67,6.22,24,6.39,24,7.42Z" fill="currentColor"/><path d="M23.4,2.03L16,9.43L5.43,20L2.1,23.33L2.07,23.36C1.64,23.79,1.17,23.79,0.74,23.36L0.64,23.26C0.21,22.83,0.21,22.36,0.64,21.93L2.57,20C0.65,19.98,0,19.3,0,17.33L0,6.66C0,4.66,0.67,3.99,2.67,3.99L13.34,3.99C15.31,3.99,15.98,4.63,16.01,6.56L21.98,0.59C22.41,0.16,22.88,0.16,23.31,0.59L23.41,0.69C23.83,1.11,23.84,1.57,23.44,1.99C23.43,2,23.42,2.01,23.41,2.02Z" fill="currentColor"/></svg>