<svg xmlns="http://www.w3.org/2000/svg" viewBox="0 0 24 24" fill="currentColor"><path d="M4,13.25L4,12.2C4,11.75,4.25,11.5,4.7,11.5L4.79,11.5C5.24,11.5,5.49,11.75,5.49,12.2L5.49,13.25C5.49,16.02,7.31,17.5,10.74,17.5C11,17.5,11.25,17.49,11.49,17.48L11.49,18.98L11.49,21.3C11.49,21.75,11.24,22,10.79,22L10.7,22C10.25,22,10,21.75,10,21.3L10,18.98C6.08,18.77,4,16.79,4,13.25ZM10.75,15.25C8.8,15.25,7.75,14.22,7.75,12.35L7.75,8.15C7.75,6.27,8.8,5.24,10.75,5.24C12.7,5.24,13.75,6.27,13.75,8.15L13.75,10.02C13.26,10.75,13,11.68,13,12.77L13,13.03C11.9,13.2,11.51,13.84,11.5,15.2C11.27,15.23,11.02,15.26,10.75,15.26ZM20.93,20.5L14.05,20.5C13.32,20.5,13.02,20.2,13.02,19.43L13.02,15.53C13.02,14.8,13.32,14.5,14.09,14.5L14.49,14.5L14.49,12.8C14.49,10.92,15.64,9.75,17.49,9.75C19.34,9.75,20.49,10.92,20.49,12.8L20.49,14.5L20.96,14.5C21.69,14.5,21.99,14.8,21.99,15.57L21.99,19.47C21.99,20.2,21.69,20.5,20.92,20.5ZM18.38,18.25C18.38,17.75,18,17.37,17.5,17.37C17,17.37,16.62,17.75,16.62,18.25C16.62,18.75,17,19.13,17.5,19.13C18,19.13,18.38,18.75,18.38,18.25ZM16,14.5L19,14.5L19,12.8C19,11.85,18.42,11.25,17.5,11.25C16.58,11.25,16,11.85,16,12.8Z"/></svg>