<svg xmlns="http://www.w3.org/2000/svg" viewBox="0 0 24 24"><path d="M11.97,22C6.97,22,4.07,18.07,0.54,12.77C0.21,12.27,0.14,11.7,0.41,11.17C3.31,5.4,5.68,2,9.68,2C10.41,2,11.18,2.17,12.01,2.57C12.84,2.17,13.61,2,14.34,2C18.31,2,20.71,5.37,23.61,11.17C23.88,11.7,23.81,12.27,23.48,12.77C19.91,18.07,17.01,22,11.98,22Z" fill="currentColor"/><path d="M11.83,16.33C5.63,16.33,4.6,11.46,8.6,11.46C9.77,11.46,10.9,12.09,10.5,13.43L10.2,14.43L11.87,14.43L12.14,13.43C12.54,11.93,14.21,11.23,15.71,11.23C20.34,11.23,18.98,16.33,11.84,16.33Z" fill="currentColor"/><path d="M21.93,11.83C19.93,7.9,17.4,5.33,12,5.33C6.6,5.33,4.73,8.26,2.07,11.83C4.74,15.33,6.6,18.33,12,18.33C17.4,18.33,19.93,15.33,21.93,11.83Z" fill="currentColor"/><path d="M7.53,9.43C7.53,8.13,9.73,7.33,11.9,7.33C14.1,7.33,16.27,8.13,16.27,9.43C13.04,9.76,10.1,9.76,7.54,9.43Z" fill="currentColor"/></svg>