<svg xmlns="http://www.w3.org/2000/svg" viewBox="0 0 24 24" fill="currentColor"><path d="M11.75,4.98C12.22,5.45,12.22,5.82,11.77,6.3C8.42,10.25,8.42,15.75,11.77,19.71C12.22,20.18,12.22,20.55,11.75,21.03L11.2,21.58C10.73,22.05,10.38,22.03,9.9,21.56C5.57,16.59,5.57,9.43,9.9,4.46C10.38,3.98,10.73,3.95,11.2,4.43ZM19.23,14C18.68,14.55,17.8,14.55,17.22,14C16.68,13.46,16.68,12.56,17.22,12C17.8,11.46,18.67,11.46,19.23,12C19.8,12.55,19.8,13.45,19.23,14ZM14.9,8.13L15.42,8.65C15.89,9.12,15.89,9.5,15.48,10.02C14.2,11.82,14.2,14.17,15.48,15.97C15.9,16.5,15.9,16.87,15.42,17.34L14.9,17.87C14.43,18.34,14.07,18.32,13.62,17.81C11.35,14.99,11.35,10.99,13.62,8.16C14.07,7.66,14.43,7.64,14.9,8.11Z"/></svg>