<svg xmlns="http://www.w3.org/2000/svg" viewBox="0 0 24 24" fill="currentColor"><path d="M6.74,20.5C5.24,20.5,4.74,20,4.74,18.5L4.74,10.49C4.74,8.99,5.24,8.49,6.74,8.49L9.24,8.49L10.27,6.44C10.62,5.77,11.04,5.49,11.82,5.49L14.17,5.49C14.94,5.49,15.37,5.77,15.72,6.44L16.75,8.49L19.25,8.49C20.75,8.49,21.25,8.99,21.25,10.49L21.25,18.5C21.25,20,20.75,20.5,19.25,20.5ZM16.13,14.5C16.13,12.77,14.7,11.37,12.98,11.37C11.25,11.37,9.88,12.77,9.88,14.5C9.88,16.25,11.25,17.63,12.98,17.63C14.7,17.63,16.13,16.26,16.13,14.5Z"/></svg>