<svg xmlns="http://www.w3.org/2000/svg" viewBox="0 0 24 24" fill="currentColor"><path d="M17.5,5.13L17.5,7.43L20.48,4.45C20.8,4.13,21.15,4.13,21.47,4.45L21.55,4.52C21.87,4.84,21.87,5.18,21.57,5.5C21.56,5.51,21.56,5.51,21.55,5.52L17.5,9.57L9.57,17.5L5.57,21.5L5.55,21.52C5.23,21.84,4.88,21.84,4.55,21.52L4.48,21.45C4.16,21.12,4.16,20.77,4.48,20.45L7.68,17.25C7.2,16.96,7.01,16.42,7.01,15.5L7.01,10.49C7.01,8.99,7.51,8.49,9.01,8.49L11.94,8.49C12.71,8.49,13.21,8.27,13.71,7.67L16.19,4.82C16.69,4.24,17.52,4.42,17.52,5.12ZM11.73,17.5L17.5,11.73L17.5,20.88C17.5,21.57,16.67,21.75,16.17,21.17L13.7,18.32C13.19,17.72,12.7,17.5,11.92,17.5Z"/></svg>