<svg xmlns="http://www.w3.org/2000/svg" viewBox="0 0 24 24" fill="currentColor"><path d="M5.5,13.25L5.5,12.2C5.5,11.75,5.75,11.5,6.2,11.5L6.29,11.5C6.74,11.5,6.99,11.75,6.99,12.2L6.99,13.25C6.99,16.02,9.07,17.5,12.99,17.5C16.91,17.5,18.99,16.02,18.99,13.25L18.99,12.2C18.99,11.75,19.24,11.5,19.69,11.5L19.79,11.5C20.24,11.5,20.48,11.75,20.48,12.2L20.48,13.25C20.48,17,17.88,19,12.98,19C8.09,19,5.48,17,5.48,13.25ZM13.05,22L12.96,22C12.5,22,12.26,21.75,12.26,21.3L12.26,18.38L13.76,18.38L13.76,21.3C13.76,21.75,13.51,22,13.06,22ZM15.25,11.35L15.25,7.9C15.25,6.12,14.66,5.5,13,5.5C11.37,5.5,10.75,6.13,10.75,7.9L10.75,11.35C10.75,13.12,11.37,13.75,13,13.75C14.66,13.75,15.25,13.13,15.25,11.35ZM9.25,11.35L9.25,7.9C9.25,5.37,10.58,4,13,4C15.45,4,16.75,5.37,16.75,7.9L16.75,11.35C16.75,13.88,15.45,15.25,13,15.25C10.58,15.25,9.25,13.88,9.25,11.35Z"/></svg>