<svg xmlns="http://www.w3.org/2000/svg" viewBox="0 0 24 24"><path d="M16.06,17.07L15.93,16.94C15.5,16.54,15.46,16.04,15.86,15.61C16.69,14.44,16.99,13.21,16.99,11.91C16.99,10.71,16.72,9.54,15.89,8.41C15.49,7.98,15.52,7.48,15.96,7.04L16.03,6.97C16.46,6.54,16.93,6.57,17.33,7C18.53,8.57,19,10.27,19,11.9C19,13.6,18.57,15.37,17.33,17C16.93,17.43,16.5,17.47,16.06,17.07Z" fill="currentColor"/><path d="M20.67,21C20.27,21.47,19.8,21.47,19.37,21.03L19.3,20.96C18.87,20.53,18.87,20.06,19.27,19.59C21.17,17.29,22,14.62,22,11.92C22,9.29,21.17,6.69,19.23,4.39C18.83,3.92,18.83,3.46,19.26,3.06L19.39,2.93C19.82,2.53,20.29,2.53,20.69,3C22.96,5.67,23.99,8.83,23.99,11.93C23.99,15.1,22.99,18.3,20.66,21Z" fill="currentColor"/><path d="M14,1.5L14,22.5C14,23.43,12.9,23.67,12.23,22.9L8.93,19.1C8.26,18.3,7.6,18,6.56,18L2.66,18C0.66,18,-0.01,17.33,-0.01,15.33L-0.01,8.66C-0.01,6.66,0.66,5.99,2.66,5.99L6.56,5.99C7.59,5.99,8.26,5.69,8.93,4.89L12.23,1.09C12.9,0.32,14,0.56,14,1.49Z" fill="currentColor"/></svg>