<svg xmlns="http://www.w3.org/2000/svg" viewBox="0 0 24 24" fill="currentColor"><path d="M13,19.23C12.08,19.23,11.21,19.09,10.38,18.84L12.98,16.25C12.98,16.25,12.99,16.25,13,16.25C14.8,16.25,16.25,14.82,16.25,13.02C16.25,13.01,16.25,12.99,16.25,12.97L19.66,9.56C20.42,10.3,21.09,11.15,21.63,12.07C21.98,12.74,21.98,13.29,21.63,13.97C19.85,16.94,16.75,19.22,13,19.22ZM18.49,8.58L15.77,11.3L11.3,15.77L8.85,18.23L5.58,21.5L5.55,21.52C5.23,21.84,4.88,21.84,4.55,21.52L4.48,21.45C4.16,21.12,4.16,20.77,4.48,20.45L7.51,17.42C6.24,16.51,5.18,15.31,4.38,13.98C4.02,13.3,4.02,12.75,4.38,12.08C6.12,9.08,9.25,6.75,13,6.75C14.5,6.75,15.9,7.13,17.16,7.77L20.48,4.45C20.8,4.13,21.15,4.13,21.47,4.45L21.55,4.53C21.87,4.84,21.87,5.19,21.57,5.5C21.56,5.51,21.56,5.52,21.55,5.52ZM9.75,13.02C9.75,13.64,9.93,14.21,10.23,14.7L14.7,10.23C14.21,9.92,13.63,9.75,13.01,9.75C11.21,9.75,9.76,11.22,9.76,13.02Z"/></svg>