<svg xmlns="http://www.w3.org/2000/svg" viewBox="0 0 24 24"><path d="M22.57,13.5L20.52,13.5C20.6,13.02,20.64,12.51,20.64,12C20.64,11.49,20.6,10.98,20.52,10.5L22.57,10.5C23.6,10.5,24,10.9,24,11.93L24,12.06C24,13.09,23.6,13.49,22.57,13.49Z" fill="currentColor"/><path d="M11.97,17.67C11.62,17.67,11.29,17.64,10.96,17.59C10.64,17.54,10.32,17.46,10.02,17.37C9.42,17.17,8.88,16.89,8.4,16.52C7.92,16.16,7.52,15.71,7.19,15.2C6.87,14.71,6.63,14.16,6.48,13.55C6.48,13.53,6.47,13.51,6.47,13.49C6.36,13.02,6.3,12.52,6.3,11.99C6.3,11.46,6.36,10.96,6.47,10.49C7.07,8,9.19,6.32,11.96,6.32C14.73,6.32,16.85,7.99,17.45,10.49C17.56,10.96,17.62,11.46,17.62,11.99C17.62,12.52,17.56,13.02,17.45,13.49C16.85,15.98,14.73,17.66,11.96,17.66Z" fill="currentColor"/><path d="M0,11.93C0,10.9,0.4,10.5,1.43,10.5L3.41,10.5C3.33,10.98,3.29,11.49,3.29,12C3.29,12.51,3.33,13.02,3.41,13.5L1.43,13.5C0.4,13.5,0,13.1,0,12.07Z" fill="currentColor"/></svg>