<svg xmlns="http://www.w3.org/2000/svg" viewBox="0 0 24 24"><path d="M21.07,18C20.84,18,20,18.84,20,19.06C20.03,15.16,20.02,15.29,18.17,13.34C17.63,12.75,17,11.17,17,10.37L17,8.87C17,5.45,15.26,3.67,12,3.67C8.74,3.67,7,5.45,7,8.87L7,10.37C7,11.17,6.37,12.75,5.83,13.34C3.98,15.29,3.97,15.17,4,19.06C4,18.84,3.16,18,2.93,18Z" fill="currentColor"/><path d="M21.07,20L2.94,20C2.34,20,2.01,19.67,2.01,19.07C1.98,15.27,1.91,14.57,4.38,11.97C4.78,11.54,5.01,10.97,5.01,10.37L5.01,8.87C5.01,4.44,7.71,1.67,12.01,1.67C16.31,1.67,19.01,4.44,19.01,8.87L19.01,10.37C19.01,10.97,19.24,11.54,19.64,11.97C22.11,14.57,22.04,15.27,22.01,19.07C22.01,19.67,21.68,20,21.08,20Z" fill="currentColor"/><path d="M9.27,22L14.8,22C14.47,23.4,13.1,24,12.03,24C10.96,24,9.6,23.4,9.26,22Z" fill="currentColor"/></svg>