<svg xmlns="http://www.w3.org/2000/svg" viewBox="0 0 24 24"><path d="M12,20.3C10.78,20.3,9.61,20.12,8.51,19.79L11.97,16.33C11.98,16.33,11.99,16.33,12,16.33C14.4,16.33,16.33,14.43,16.33,12.03C16.33,12.01,16.33,11.99,16.33,11.96L20.88,7.41C21.9,8.4,22.79,9.54,23.5,10.76C23.97,11.66,23.97,12.39,23.5,13.29C21.13,17.26,17,20.29,12,20.29Z" fill="currentColor"/><path d="M19.32,6.11L15.69,9.74L9.73,15.7L6.46,18.97L2.1,23.33L2.07,23.36C1.64,23.79,1.17,23.79,0.74,23.36L0.64,23.26C0.21,22.83,0.21,22.36,0.64,21.93L4.68,17.89C2.99,16.68,1.57,15.08,0.5,13.3C0.03,12.4,0.03,11.67,0.5,10.77C2.83,6.77,7,3.67,12,3.67C14,3.67,15.87,4.17,17.55,5.02L21.97,0.6C22.4,0.17,22.87,0.17,23.3,0.6L23.4,0.7C23.82,1.12,23.83,1.58,23.43,2C23.42,2.01,23.41,2.02,23.4,2.03Z" fill="currentColor"/><path d="M7.67,12.03C7.67,12.86,7.9,13.62,8.3,14.27L14.27,8.3C13.61,7.89,12.84,7.66,12.01,7.66C9.61,7.66,7.68,9.63,7.68,12.03Z" fill="currentColor"/></svg>