<svg xmlns="http://www.w3.org/2000/svg" viewBox="0 0 24 24" fill="currentColor"><path d="M7.49,20.5C5.99,20.5,5.49,20,5.49,18.5L5.49,7.49C5.49,5.99,5.99,5.49,7.49,5.49L18.5,5.49C20,5.49,20.5,5.99,20.5,7.49L20.5,18.5C20.5,20,20,20.5,18.5,20.5ZM10.75,9.25C10.75,8.45,10.1,7.75,9.25,7.75C8.45,7.75,7.75,8.45,7.75,9.25C7.75,10.05,8.45,10.75,9.25,10.75C10.1,10.75,10.75,10.05,10.75,9.25ZM17.55,18.25C18,18.25,18.25,18,18.28,17.55C18.43,12.65,17.63,9.25,15.9,9.25C13.88,9.25,13.13,15.25,11.75,15.25C10.93,15.25,10.61,13,9.41,13C8.26,13,7.66,14.9,7.73,17.55C7.75,18,8,18.25,8.46,18.25Z"/></svg>