<svg xmlns="http://www.w3.org/2000/svg" viewBox="0 0 24 24"><path d="M13.5,1.43L13.5,3.48C13.02,3.4,12.51,3.36,12,3.36C11.49,3.36,10.98,3.4,10.5,3.48L10.5,1.43C10.5,0.4,10.9,0,11.93,0L12.06,0C13.09,0,13.49,0.4,13.49,1.43Z" fill="currentColor"/><path d="M17.67,12.03C17.67,12.38,17.64,12.71,17.59,13.04C17.54,13.36,17.46,13.68,17.37,13.98C17.17,14.58,16.89,15.12,16.52,15.6C16.16,16.08,15.71,16.48,15.2,16.81C14.71,17.13,14.16,17.37,13.55,17.52C13.53,17.53,13.51,17.53,13.49,17.53C13.02,17.64,12.52,17.7,11.99,17.7C11.46,17.7,10.96,17.64,10.49,17.53C8,16.93,6.32,14.81,6.32,12.04C6.32,9.27,7.99,7.15,10.49,6.55C10.96,6.44,11.46,6.38,11.99,6.38C12.52,6.38,13.02,6.44,13.49,6.55C15.98,7.15,17.66,9.27,17.66,12.04Z" fill="currentColor"/><path d="M10.5,20.58C10.98,20.66,11.49,20.7,12,20.7C12.51,20.7,13.02,20.66,13.5,20.58L13.5,22.56C13.5,23.59,13.1,23.99,12.07,23.99L11.94,23.99C10.91,23.99,10.51,23.59,10.51,22.56Z" fill="currentColor"/></svg>