<svg xmlns="http://www.w3.org/2000/svg" viewBox="0 0 24 24" fill="currentColor"><path d="M20.93,14.13L17.09,14.13C17.18,13.77,17.22,13.4,17.22,13C17.22,12.6,17.18,12.23,17.09,11.88L20.93,11.88C21.7,11.88,22,12.18,22,12.95L22,13.04C22,13.82,21.7,14.12,20.93,14.12ZM4,12.95C4,12.18,4.3,11.88,5.07,11.88L8.85,11.88C8.77,12.23,8.72,12.6,8.72,13C8.72,13.4,8.77,13.77,8.85,14.13L5.07,14.13C4.3,14.13,4,13.83,4,13.05ZM12.98,8.75C10.5,8.75,8.73,10.52,8.73,13C8.73,15.48,10.5,17.25,12.98,17.25C15.45,17.25,17.23,15.48,17.23,13C17.23,10.52,15.45,8.75,12.98,8.75ZM12.98,6.5C16.68,6.5,19.48,9.29,19.48,13C19.48,16.71,16.69,19.5,12.98,19.5C9.27,19.5,6.48,16.71,6.48,13C6.48,9.29,9.27,6.5,12.98,6.5Z"/></svg>