<svg xmlns="http://www.w3.org/2000/svg" viewBox="0 0 24 24"><path d="M9.27,22L14.8,22C14.47,23.4,13.1,24,12.03,24C10.96,24,9.6,23.4,9.26,22Z" fill="currentColor"/><path d="M21.07,20L2.94,20C2.34,20,2.01,19.67,2.01,19.07C2.04,16.57,2.24,16.14,4.34,13.97C4.77,13.54,5.01,12.97,5.01,12.37L5.01,8.87C5.01,4.44,7.71,1.67,12.01,1.67C16.31,1.67,19.01,4.44,19.01,8.87L19.01,12.37C19.01,12.97,19.24,13.54,19.68,13.97C21.78,16.14,21.98,16.6,22.01,19.07C22.01,19.67,21.68,20,21.08,20Z" fill="currentColor"/></svg>