<svg xmlns="http://www.w3.org/2000/svg" viewBox="0 0 24 24" fill="currentColor"><path d="M6.25,13.25L6.25,12.2C6.25,11.75,6.5,11.5,6.95,11.5L7.04,11.5C7.5,11.5,7.74,11.75,7.74,12.2L7.74,13.25C7.74,14.46,8.1,15.43,8.78,16.13L10.59,14.32C10.2,13.84,9.99,13.17,9.99,12.35L9.99,8.15C9.99,6.27,11.04,5.24,12.99,5.24C14.94,5.24,15.99,6.27,15.99,8.15L15.99,8.92L20.47,4.44C20.79,4.12,21.14,4.12,21.47,4.44L21.54,4.52C21.87,4.84,21.87,5.19,21.54,5.51L15.99,11.06L11.94,15.12L10.07,16.99L8.91,18.15L5.57,21.49L5.54,21.51C5.22,21.84,4.87,21.84,4.55,21.51L4.47,21.44C4.15,21.12,4.15,20.76,4.47,20.44L7.68,17.24C6.74,16.28,6.25,14.94,6.25,13.24ZM13.05,22L12.96,22C12.5,22,12.26,21.75,12.26,21.3L12.26,18.98C11.62,18.95,11.04,18.87,10.5,18.74L11.8,17.43C12.18,17.48,12.58,17.5,13.01,17.5C16.44,17.5,18.26,16.02,18.26,13.25L18.26,12.2C18.26,11.75,18.5,11.5,18.96,11.5L19.05,11.5C19.5,11.5,19.75,11.75,19.75,12.2L19.75,13.25C19.75,16.78,17.66,18.76,13.75,18.98L13.75,21.3C13.75,21.75,13.5,21.99,13.05,21.99ZM15.88,13.35C15.64,14.26,15.04,14.87,14.11,15.12Z"/></svg>