<svg xmlns="http://www.w3.org/2000/svg" viewBox="0 0 24 24" fill="currentColor"><path d="M6.25,18.25L13.86,18.25C13.23,18.84,12.59,19.59,12.23,20.5L6,20.5C4.5,20.5,4,20,4,18.5L4,7.49C4,5.99,4.5,5.49,6,5.49L17,5.49C18.5,5.49,19.01,5.99,19.01,7.49L19.01,9.92C18.55,9.68,18.03,9.54,17.51,9.54C16.21,9.54,15.02,10.36,14.43,11.49L6.26,11.49ZM7.13,7.38C6.5,7.38,6,7.88,6,8.5C6,9.12,6.5,9.63,7.13,9.63C7.75,9.63,8.25,9.12,8.25,8.5C8.25,7.88,7.75,7.38,7.13,7.38ZM9.72,9.25L16.75,9.25L16.75,7.75L9.72,7.75ZM21.57,22L13.42,22C13.42,20.6,14.27,19.88,15.05,19.2C15.8,18.6,16.5,18,16.5,16.86L16.5,16.33L15.37,16.33C15.22,16.11,15.17,15.81,15.17,15.5L16.5,14.7C15.87,14.25,15.54,13.67,15.54,13C15.54,11.93,16.42,11.05,17.49,11.05C18.57,11.05,19.44,11.93,19.44,13C19.44,13.67,19.12,14.25,18.49,14.65L19.82,15.5C19.82,15.8,19.77,16.1,19.62,16.32L18.49,16.32L18.49,16.85C18.49,18,19.19,18.59,19.94,19.2C20.71,19.87,21.57,20.6,21.57,21.99Z"/></svg>