<svg xmlns="http://www.w3.org/2000/svg" viewBox="0 0 24 24"><path d="M22.57,13.5L17.46,13.5C17.57,13.03,17.63,12.53,17.63,12C17.63,11.47,17.57,10.97,17.46,10.5L22.57,10.5C23.6,10.5,24,10.9,24,11.93L24,12.06C24,13.09,23.6,13.49,22.57,13.49Z" fill="currentColor"/><path d="M0,11.93C0,10.9,0.4,10.5,1.43,10.5L6.47,10.5C6.36,10.97,6.3,11.47,6.3,12C6.3,12.53,6.36,13.03,6.47,13.5L1.43,13.5C0.4,13.5,0,13.1,0,12.07Z" fill="currentColor"/><path d="M17.64,12C17.64,8.7,15.27,6.33,11.97,6.33C8.67,6.33,6.3,8.7,6.3,12C6.3,15.3,8.67,17.67,11.97,17.67C15.27,17.67,17.64,15.3,17.64,12Z" fill="currentColor"/><path d="M3.3,12C3.3,7.06,7.02,3.33,11.97,3.33C16.91,3.33,20.64,7.05,20.64,12C20.64,16.94,16.92,20.67,11.97,20.67C7.03,20.67,3.3,16.95,3.3,12Z" fill="currentColor"/></svg>