<svg xmlns="http://www.w3.org/2000/svg" viewBox="0 0 24 24"><path d="M21.2,5.97C21.57,6.7,21.6,7.27,21.2,7.97C19.33,11.2,16.03,13.67,12,13.67C7.97,13.67,4.67,11.2,2.8,7.97C2.4,7.27,2.43,6.7,2.8,5.97C4.67,2.8,8,0.37,12,0.37C16,0.37,19.33,2.8,21.2,5.97Z" fill="currentColor"/><path d="M8.53,6.96C8.53,8.89,10.06,10.46,12,10.46C13.93,10.46,15.47,8.89,15.47,6.96C15.47,5.06,13.94,3.53,12,3.53C10.07,3.53,8.53,5.06,8.53,6.96Z" fill="currentColor"/><path d="M16.1,19.13L12.9,23.23C12.23,24.06,11.77,24.06,11.1,23.23L7.9,19.16C7.33,18.43,7.53,17.99,8.47,17.99L15.54,17.99C16.44,17.99,16.67,18.42,16.11,19.12Z" fill="currentColor"/></svg>