<svg xmlns="http://www.w3.org/2000/svg" viewBox="0 0 24 24" fill="currentColor"><path d="M21.57,11.2L21.02,11.75C20.55,12.22,20.18,12.22,19.7,11.77C15.75,8.42,10.25,8.42,6.29,11.77C5.82,12.22,5.45,12.22,4.97,11.75L4.42,11.2C3.95,10.73,3.97,10.38,4.44,9.9C9.41,5.57,16.57,5.57,21.54,9.9C22.02,10.38,22.05,10.73,21.57,11.2ZM11.99,19.23C11.45,18.68,11.45,17.8,11.99,17.22C12.54,16.68,13.44,16.68,14,17.22C14.54,17.8,14.54,18.67,14,19.23C13.45,19.8,12.55,19.8,11.99,19.23ZM17.88,14.9L17.35,15.42C16.88,15.89,16.5,15.89,15.98,15.48C14.18,14.2,11.83,14.2,10.03,15.48C9.5,15.9,9.13,15.9,8.66,15.42L8.13,14.9C7.66,14.43,7.68,14.07,8.19,13.62C11.01,11.35,15.01,11.35,17.84,13.62C18.34,14.07,18.36,14.43,17.89,14.9Z"/></svg>