<svg xmlns="http://www.w3.org/2000/svg" viewBox="0 0 24 24" fill="currentColor"><path d="M4.41,13.58C4.16,13.2,4.11,12.77,4.31,12.38C6.48,8.05,8.26,5.5,11.26,5.5C11.81,5.5,12.38,5.63,13.01,5.93C13.63,5.63,14.21,5.5,14.75,5.5C17.73,5.5,19.53,8.03,21.71,12.38C21.91,12.77,21.86,13.2,21.61,13.58C18.93,17.55,16.76,20.5,12.98,20.5C9.23,20.5,7.05,17.55,4.41,13.58ZM12.87,16.25C8.22,16.25,7.45,12.59,10.45,12.59C11.33,12.59,12.17,13.07,11.88,14.07L11.65,14.82L12.9,14.82L13.11,14.07C13.4,12.95,14.66,12.42,15.78,12.42C19.25,12.42,18.23,16.25,12.88,16.25ZM13,8C8.95,8,7.55,10.19,5.55,12.87C7.55,15.5,8.95,17.75,13,17.75C17.05,17.75,18.95,15.5,20.45,12.87C18.95,9.92,17.05,8,13,8ZM12.92,9.5C14.57,9.5,16.2,10.1,16.2,11.07C13.78,11.32,11.57,11.32,9.65,11.07C9.65,10.1,11.3,9.5,12.92,9.5Z"/></svg>