<svg xmlns="http://www.w3.org/2000/svg" viewBox="0 0 24 24" fill="currentColor"><path d="M13,18.25C12.38,18.25,11.78,18.17,11.19,18.03L15,14.22C16.73,14.04,18.43,13.63,19.98,12.98C19.26,12.75,18.1,12.59,16.74,12.49L19.05,10.19C19.8,10.79,20.58,11.5,21.38,12.28C21.93,12.83,21.9,13.23,21.36,13.78C18.71,16.31,16.13,18.26,13.01,18.26ZM21.55,5.52L17.78,9.29L14.69,12.38L12.75,14.32L9.61,17.46L5.57,21.5L5.55,21.52C5.23,21.84,4.88,21.84,4.55,21.52L4.48,21.45C4.16,21.12,4.16,20.77,4.48,20.45L8.23,16.7C7.01,15.92,5.84,14.9,4.65,13.77C4.1,13.23,4.07,12.82,4.63,12.27C6.83,10.12,8.88,8.45,10.85,8.45C11.9,8.45,12.41,8.95,13.01,9.25C13.61,8.95,14.11,8.45,15.16,8.45C15.54,8.45,15.92,8.51,16.31,8.63L20.48,4.45C20.81,4.13,21.16,4.13,21.48,4.45L21.56,4.53C21.87,4.84,21.88,5.19,21.58,5.5C21.57,5.51,21.57,5.52,21.56,5.52ZM6.03,12.98C7.5,13.59,9.09,14,10.73,14.19L12.57,12.36C9.89,12.38,7.28,12.58,6.03,12.97Z"/></svg>