<svg xmlns="http://www.w3.org/2000/svg" viewBox="0 0 24 24"><path d="M18,1.5L18,4.57L21.97,0.6C22.4,0.17,22.87,0.17,23.3,0.6L23.4,0.7C23.82,1.12,23.83,1.58,23.43,2C23.42,2.01,23.41,2.02,23.4,2.03L18,7.43L7.43,18L2.1,23.33L2.07,23.36C1.64,23.79,1.17,23.79,0.74,23.36L0.64,23.26C0.21,22.83,0.21,22.36,0.64,21.93L4.91,17.66C4.26,17.28,4.01,16.56,4.01,15.33L4.01,8.66C4.01,6.66,4.68,5.99,6.68,5.99L10.58,5.99C11.61,5.99,12.28,5.69,12.95,4.89L16.25,1.09C16.92,0.32,18.02,0.56,18.02,1.49Z" fill="currentColor"/><path d="M10.3,18L18,10.3L18,22.5C18,23.43,16.9,23.67,16.23,22.9L12.93,19.1C12.26,18.3,11.6,18,10.56,18Z" fill="currentColor"/></svg>