<svg xmlns="http://www.w3.org/2000/svg" viewBox="0 0 24 24"><path d="M1.5,21C1.5,20.17,2.17,19.5,3,19.5C3.83,19.5,4.5,20.17,4.5,21C4.5,21.83,3.83,22.5,3,22.5C2.17,22.5,1.5,21.83,1.5,21Z" fill="currentColor"/><path d="M7.5,21C7.5,20.17,8.17,19.5,9,19.5C9.83,19.5,10.5,20.17,10.5,21C10.5,21.83,9.83,22.5,9,22.5C8.17,22.5,7.5,21.83,7.5,21Z" fill="currentColor"/><path d="M13.5,21C13.5,20.17,14.17,19.5,15,19.5C15.83,19.5,16.5,20.17,16.5,21C16.5,21.83,15.83,22.5,15,22.5C14.17,22.5,13.5,21.83,13.5,21Z" fill="currentColor"/><path d="M19.5,21C19.5,20.17,20.17,19.5,21,19.5C21.83,19.5,22.5,20.17,22.5,21C22.5,21.83,21.83,22.5,21,22.5C20.17,22.5,19.5,21.83,19.5,21Z" fill="currentColor"/><path d="M21.2,5.97C21.57,6.7,21.6,7.27,21.2,7.97C19.33,11.2,16.03,13.67,12,13.67C7.97,13.67,4.67,11.2,2.8,7.97C2.4,7.27,2.43,6.7,2.8,5.97C4.67,2.8,8,0.37,12,0.37C16,0.37,19.33,2.8,21.2,5.97Z" fill="currentColor"/><path d="M8.53,6.96C8.53,8.89,10.06,10.46,12,10.46C13.93,10.46,15.47,8.89,15.47,6.96C15.47,5.06,13.94,3.53,12,3.53C10.07,3.53,8.53,5.06,8.53,6.96Z" fill="currentColor"/></svg>