<svg xmlns="http://www.w3.org/2000/svg" viewBox="0 0 24 24"><path d="M3,19L13.15,19C12.31,19.78,11.45,20.79,10.97,22L2.67,22C0.67,22,0,21.33,0,19.33L0,4.66C0,2.66,0.67,1.99,2.67,1.99L17.34,1.99C19.34,1.99,20.01,2.66,20.01,4.66L20.01,7.89C19.4,7.57,18.71,7.39,18.01,7.39C16.28,7.39,14.69,8.48,13.91,9.99L3.01,9.99Z" fill="currentColor"/><path d="M5.67,6C5.67,5.17,5,4.5,4.17,4.5C3.34,4.5,2.67,5.17,2.67,6C2.67,6.83,3.34,7.5,4.17,7.5C5,7.5,5.67,6.83,5.67,6Z" fill="currentColor"/><path d="M7.63,7L17,7L17,5L7.63,5Z" fill="currentColor"/><path d="M23.43,24L12.56,24C12.56,22.13,13.69,21.17,14.73,20.27C15.73,19.47,16.66,18.67,16.66,17.14L16.66,16.44L15.16,16.44C14.96,16.14,14.89,15.74,14.89,15.34L16.66,14.27C15.83,13.67,15.39,12.9,15.39,12C15.39,10.57,16.56,9.4,17.99,9.4C19.42,9.4,20.59,10.57,20.59,12C20.59,12.9,20.16,13.67,19.32,14.2L21.09,15.33C21.09,15.73,21.02,16.13,20.82,16.43L19.32,16.43L19.32,17.13C19.32,18.66,20.25,19.46,21.25,20.26C22.28,21.16,23.42,22.13,23.42,23.99Z" fill="currentColor"/></svg>