<svg xmlns="http://www.w3.org/2000/svg" viewBox="0 0 24 24"><path d="M16,1.5C16,2.19,17.64,2.53,17.74,2.41L14.45,6.19C13.54,7.28,11.99,7.99,10.56,7.99L6.66,7.99C5.99,7.99,5.99,7.99,5.99,8.66L5.99,15.33C5.99,16,5.99,16,6.66,16L10.56,16C11.99,16,13.54,16.71,14.45,17.8L17.74,21.58C17.63,21.46,16,21.8,16,22.49Z" fill="currentColor"/><path d="M18,1.5L18,22.5C18,23.43,16.9,23.67,16.23,22.9L12.93,19.1C12.26,18.3,11.6,18,10.56,18L6.66,18C4.66,18,3.99,17.33,3.99,15.33L3.99,8.66C3.99,6.66,4.66,5.99,6.66,5.99L10.56,5.99C11.59,5.99,12.26,5.69,12.93,4.89L16.23,1.09C16.9,0.32,18,0.56,18,1.49Z" fill="currentColor"/></svg>