<svg xmlns="http://www.w3.org/2000/svg" viewBox="0 0 24 24" fill="currentColor"><path d="M19.8,19.1C19.28,19.67,18.88,19.7,18.33,19.15L18.23,19.05C17.68,18.5,17.68,18.08,18.18,17.5C19.23,16.15,19.75,14.58,19.75,13C19.75,11.43,19.25,9.85,18.2,8.5C17.67,7.92,17.67,7.5,18.22,6.95L18.32,6.85C18.87,6.3,19.27,6.32,19.8,6.9C21.27,8.7,21.99,10.88,21.99,13C21.99,15.12,21.24,17.3,19.8,19.1ZM7.67,19.15C7.13,19.7,6.72,19.67,6.2,19.1C4.75,17.3,4,15.12,4,13C4,10.88,4.73,8.7,6.2,6.9C6.72,6.32,7.12,6.3,7.67,6.85L7.77,6.95C8.32,7.49,8.32,7.92,7.82,8.5C6.77,9.85,6.25,11.42,6.25,13C6.25,14.57,6.78,16.15,7.82,17.5C8.33,18.08,8.33,18.5,7.77,19.05ZM10.38,16.43L10.28,16.52C9.73,17.07,9.32,17.05,8.83,16.45C8.13,15.4,7.76,14.2,7.76,13C7.76,11.8,8.13,10.6,8.83,9.55C9.33,8.95,9.73,8.93,10.28,9.47L10.38,9.57C10.92,10.12,10.95,10.57,10.47,11.17C10.17,11.75,10,12.37,10,12.99C10,13.61,10.15,14.24,10.47,14.81C10.95,15.41,10.92,15.86,10.38,16.41ZM11.37,13C11.37,12.1,12.1,11.37,13,11.37C13.9,11.37,14.63,12.1,14.63,13C14.63,13.9,13.9,14.63,13,14.63C12.1,14.63,11.37,13.9,11.37,13ZM17.15,16.43C16.68,17.03,16.25,17.05,15.7,16.5L15.65,16.45C15.1,15.9,15.05,15.45,15.52,14.85C15.84,14.28,15.99,13.65,15.99,13C15.99,12.38,15.84,11.75,15.52,11.18C15.05,10.58,15.07,10.13,15.62,9.58L15.71,9.48C16.26,8.94,16.67,8.96,17.16,9.56C17.86,10.61,18.23,11.81,18.23,13.01C18.23,14.21,17.86,15.41,17.13,16.44Z"/></svg>