<svg xmlns="http://www.w3.org/2000/svg" viewBox="0 0 24 24"><path d="M11.67,18C10.84,18,10.5,17.6,10.5,16.57L10.5,7.17C10.5,6.34,10.9,6,11.93,6L12.33,6C13.16,6,13.5,6.4,13.5,7.43L13.5,16.83C13.5,17.66,13.1,18,12.07,18Z" fill="currentColor"/><path d="M1.44,14C0.41,14,0.01,13.6,0.01,12.57L0.01,11.44C0.01,10.41,0.41,10.01,1.44,10.01L1.57,10.01C2.6,10.01,3,10.41,3,11.44L3,12.57C3,13.6,2.6,14,1.57,14Z" fill="currentColor"/><path d="M6.4,16C5.57,16,5.23,15.6,5.23,14.57L5.23,9.17C5.23,8.34,5.63,8,6.66,8L7.06,8C7.89,8,8.23,8.4,8.23,9.43L8.23,14.83C8.23,15.66,7.83,16,6.8,16Z" fill="currentColor"/><path d="M17.2,20C16.17,20,15.77,19.6,15.77,18.57L15.77,5.44C15.77,4.41,16.17,4.01,17.2,4.01L17.33,4.01C18.36,4.01,18.76,4.41,18.76,5.44L18.76,18.57C18.76,19.6,18.36,20,17.33,20Z" fill="currentColor"/><path d="M22.44,22C21.41,22,21.01,21.6,21.01,20.57L21.01,3.44C21.01,2.41,21.41,2.01,22.44,2.01L22.57,2.01C23.6,2.01,24,2.41,24,3.44L24,20.57C24,21.6,23.6,22,22.57,22Z" fill="currentColor"/></svg>