<svg xmlns="http://www.w3.org/2000/svg" viewBox="0 0 24 24" fill="currentColor"><path d="M10.22,19L16,13.23L16,17C16,18.5,15.5,19,14,19ZM22,9.57L22,16.42C22,17.19,21.75,17.32,21.1,16.89L17.5,14.49L17.5,11.72L18.17,11.04L21.1,9.09C21.75,8.67,22,8.79,22,9.57ZM21.55,5.52L16,11.07L8.07,19L5.57,21.5L5.55,21.52C5.23,21.84,4.88,21.84,4.55,21.52L4.48,21.45C4.16,21.12,4.16,20.77,4.48,20.45L5.93,19C4.49,18.98,4,18.48,4,17L4,8.99C4,7.49,4.5,6.99,6,6.99L14,6.99C15.48,6.99,15.98,7.47,16.01,8.92L20.48,4.44C20.81,4.12,21.16,4.12,21.48,4.44L21.56,4.52C21.87,4.83,21.88,5.18,21.58,5.49C21.57,5.5,21.56,5.51,21.56,5.51Z"/></svg>