<svg xmlns="http://www.w3.org/2000/svg" viewBox="0 0 24 24" fill="currentColor"><path d="M14.13,16.43C14.13,17.2,13.88,17.5,13.25,17.5L12.95,17.5C12.17,17.5,11.87,17.25,11.87,16.62L11.87,9.57C11.87,8.8,12.12,8.5,12.75,8.5L13.05,8.5C13.82,8.5,14.12,8.75,14.12,9.38ZM22,13.42C22,14.19,21.7,14.49,20.93,14.49L20.83,14.49C20.06,14.49,19.76,14.19,19.76,13.42L19.76,12.57C19.76,11.8,20.06,11.5,20.83,11.5L20.93,11.5C21.7,11.5,22,11.8,22,12.57ZM18.08,14.93C18.08,15.7,17.83,16,17.2,16L16.9,16C16.13,16,15.83,15.75,15.83,15.12L15.83,11.07C15.83,10.3,16.08,10,16.71,10L17.01,10C17.78,10,18.08,10.25,18.08,10.88ZM10.17,17.92C10.17,18.69,9.87,18.99,9.1,18.99L9,18.99C8.23,18.99,7.93,18.69,7.93,17.92L7.93,8.07C7.93,7.3,8.23,7,9,7L9.1,7C9.87,7,10.17,7.3,10.17,8.07ZM6.25,19.42C6.25,20.19,5.95,20.49,5.18,20.49L5.08,20.49C4.31,20.49,4.01,20.19,4.01,19.42L4.01,6.57C4.01,5.8,4.31,5.5,5.08,5.5L5.18,5.5C5.95,5.5,6.25,5.8,6.25,6.57Z"/></svg>