<svg xmlns="http://www.w3.org/2000/svg" viewBox="0 0 24 24"><path d="M19.44,22C18.41,22,18.01,21.6,17.94,20.57C17.31,12.67,11.31,6.7,3.44,6.07C2.41,6,2.01,5.6,2.01,4.57L2.01,3.44C2.01,2.41,2.41,2.01,3.44,2.04C13.54,2.74,21.27,10.47,21.97,20.57C22,21.6,21.6,22,20.57,22Z" fill="currentColor"/><path d="M1.5,20.33C1.5,19.13,2.47,18.16,3.67,18.16C4.87,18.16,5.84,19.13,5.84,20.33C5.84,21.53,4.87,22.5,3.67,22.5C2.47,22.5,1.5,21.53,1.5,20.33Z" fill="currentColor"/><path d="M11.44,22C10.41,22,9.97,21.6,9.87,20.57C9.3,17.24,6.77,14.7,3.44,14.14C2.41,14.04,2.01,13.61,2.01,12.57L2.01,11.44C2.01,10.41,2.41,10.04,3.44,10.07C8.94,10.74,13.27,15.07,13.94,20.57C13.97,21.6,13.61,22,12.57,22Z" fill="currentColor"/></svg>