<svg xmlns="http://www.w3.org/2000/svg" viewBox="0 0 24 24" fill="currentColor"><path d="M14,17.5C14.5,17.5,14.5,17.5,14.5,17L14.5,8.99C14.5,8.49,14.5,8.49,14,8.49L5.99,8.49C5.49,8.49,5.49,8.49,5.49,8.99L5.49,17C5.49,17.5,5.49,17.5,5.99,17.5ZM5.99,19C4.49,19,3.99,18.5,3.99,17L3.99,8.99C3.99,7.49,4.49,6.99,5.99,6.99L14,6.99C15.5,6.99,16,7.49,16,8.99L16,17C16,18.5,15.5,19,14,19ZM17.51,13.87L21.63,15.7C21.59,15.69,20.5,16.38,20.5,16.43L20.5,9.58C20.5,9.63,21.59,10.32,21.63,10.31L17.51,12.14L17.51,10.5L21.02,8.93C21.72,8.63,22,8.8,22,9.58L22,16.43C22,17.2,21.72,17.38,21.02,17.08L17.51,15.51Z"/></svg>