<svg xmlns="http://www.w3.org/2000/svg" viewBox="0 0 24 24"><path d="M0.5,8.77C2.83,4.77,7,1.67,12,1.67C17,1.67,21.17,4.77,23.5,8.77C23.9,9.54,23.96,10.2,23.67,10.94C22.03,9.14,19.66,8.01,17,8.01C16.62,8.01,16.24,8.03,15.87,8.08C15.16,6.66,13.69,5.68,12,5.68C9.6,5.68,7.67,7.65,7.67,10.05C7.67,11.23,8.14,12.29,8.9,13.07C8.32,14.26,8,15.6,8,17.02C8,17.23,8.01,17.44,8.02,17.65C4.82,16.54,2.2,14.17,0.5,11.32C0.03,10.42,0.03,9.69,0.5,8.79Z" fill="currentColor"/><path d="M10.03,17C10.03,13.17,13.2,10.03,17,10.03C20.83,10.03,23.97,13.16,23.97,17C23.97,20.8,20.84,23.97,17,23.97C13.2,23.97,10.03,20.8,10.03,17Z" fill="currentColor"/><path d="M16.17,17.24C16.24,17.71,16.44,17.87,16.94,17.87L17.07,17.87C17.57,17.87,17.77,17.7,17.84,17.24L18.34,13.67C18.47,12.74,18.17,12.37,17.17,12.37L16.84,12.37C15.84,12.37,15.54,12.74,15.67,13.67Z" fill="currentColor"/><path d="M18.2,20.3C18.2,19.57,17.73,19.1,17,19.1C16.27,19.1,15.8,19.57,15.8,20.3C15.8,21.03,16.27,21.5,17,21.5C17.73,21.5,18.2,21.03,18.2,20.3Z" fill="currentColor"/></svg>