<svg xmlns="http://www.w3.org/2000/svg" viewBox="0 0 24 24"><path d="M9.6,0.57L10.33,1.3C10.96,1.93,10.96,2.43,10.36,3.07C5.89,8.34,5.89,15.67,10.36,20.94C10.96,21.57,10.96,22.07,10.33,22.71L9.6,23.44C8.97,24.07,8.5,24.04,7.87,23.41C2.1,16.78,2.1,7.24,7.87,0.61C8.5,-0.02,8.97,-0.06,9.6,0.58Z" fill="currentColor"/><path d="M20.3,13.34C19.57,14.07,18.4,14.07,17.63,13.34C16.9,12.61,16.9,11.41,17.63,10.67C18.4,9.94,19.56,9.94,20.3,10.67C21.07,11.4,21.07,12.6,20.3,13.34Z" fill="currentColor"/><path d="M14.53,5.5L15.23,6.2C15.86,6.83,15.86,7.33,15.3,8.03C13.6,10.43,13.6,13.56,15.3,15.96C15.87,16.66,15.87,17.16,15.23,17.79L14.53,18.49C13.9,19.12,13.43,19.09,12.83,18.42C9.8,14.65,9.8,9.32,12.83,5.55C13.43,4.88,13.9,4.85,14.53,5.48Z" fill="currentColor"/></svg>