<svg xmlns="http://www.w3.org/2000/svg" viewBox="0 0 24 24" fill="currentColor"><path d="M14.13,5.07L14.13,6.61C13.77,6.55,13.38,6.52,13,6.52C12.62,6.52,12.23,6.55,11.88,6.61L11.88,5.07C11.88,4.3,12.18,4,12.95,4L13.04,4C13.82,4,14.12,4.3,14.12,5.07ZM17.25,13.02C17.25,13.29,17.23,13.53,17.19,13.78C17.16,14.02,17.1,14.26,17.03,14.49C16.88,14.94,16.67,15.34,16.39,15.7C16.12,16.06,15.78,16.36,15.4,16.61C15.03,16.85,14.62,17.03,14.16,17.14C14.15,17.15,14.13,17.15,14.12,17.15C13.77,17.23,13.39,17.28,12.99,17.28C12.6,17.28,12.22,17.23,11.87,17.15C10,16.7,8.74,15.11,8.74,13.03C8.74,10.95,9.99,9.36,11.87,8.91C12.22,8.83,12.6,8.79,12.99,8.79C13.39,8.79,13.77,8.83,14.12,8.91C15.99,9.36,17.25,10.95,17.25,13.03ZM11.88,19.43C12.23,19.49,12.62,19.52,13,19.52C13.38,19.52,13.77,19.5,14.13,19.43L14.13,20.92C14.13,21.69,13.83,21.99,13.05,21.99L12.96,21.99C12.18,21.99,11.88,21.69,11.88,20.92Z"/></svg>