<svg xmlns="http://www.w3.org/2000/svg" viewBox="0 0 24 24" fill="currentColor"><path d="M19.9,17.52C18.5,19.9,16,21.72,13,21.72C10,21.72,7.5,19.9,6.1,17.52C5.82,16.98,5.8,16.55,6.1,16.02C7.5,13.6,9.98,11.75,13,11.75C16.02,11.75,18.5,13.6,19.9,16.02C20.2,16.55,20.18,16.98,19.9,17.52ZM15.6,16.78C15.6,15.33,14.45,14.15,13,14.15C11.55,14.15,10.4,15.33,10.4,16.78C10.4,18.2,11.54,19.35,13,19.35C14.45,19.35,15.6,18.2,15.6,16.78ZM9.93,7.62L12.33,4.57C12.83,3.95,13.17,3.95,13.68,4.57L16.08,7.64C16.5,8.17,16.32,8.49,15.65,8.49L10.35,8.49C9.65,8.49,9.5,8.17,9.92,7.61Z"/></svg>