<svg xmlns="http://www.w3.org/2000/svg" viewBox="0 0 24 24"><path d="M3.43,7C2.4,7,2,6.6,2,5.57L2,5.44C2,4.41,2.4,4.01,3.43,4.01L18.6,4.01L18.6,6.98Z" fill="currentColor"/><path d="M2.8,18.03C2.43,17.3,2.4,16.73,2.8,16.03C4.67,12.8,7.97,10.33,12,10.33C16.03,10.33,19.33,12.8,21.2,16.03C21.6,16.73,21.57,17.3,21.2,18.03C19.33,21.2,16,23.63,12,23.63C8,23.63,4.67,21.2,2.8,18.03Z" fill="currentColor"/><path d="M15.47,17.04C15.47,15.11,13.94,13.54,12,13.54C10.07,13.54,8.53,15.11,8.53,17.04C8.53,18.94,10.06,20.47,12,20.47C13.93,20.47,15.47,18.94,15.47,17.04Z" fill="currentColor"/><path d="M19.2,1.4L23.3,4.6C24.13,5.27,24.13,5.73,23.3,6.4L19.23,9.6C18.5,10.17,18.06,9.97,18.06,9.03L18.06,1.96C18.06,1.06,18.49,0.83,19.19,1.39Z" fill="currentColor"/></svg>