<svg xmlns="http://www.w3.org/2000/svg" viewBox="0 0 24 24" fill="currentColor"><path d="M19.8,19L10.23,19L11.73,17.5L19.01,17.5C19.02,15.38,18.88,15.32,17.63,14C17.34,13.67,17.01,12.97,16.86,12.38L18.26,10.97L18.26,11.78C18.26,12.23,18.43,12.65,18.73,12.98C20.58,14.93,20.53,15.45,20.51,18.3C20.51,18.75,20.26,19,19.81,19ZM15.1,20.5C14.85,21.55,13.83,22,13.02,22C12.22,22,11.2,21.55,10.95,20.5ZM21.55,5.52L18.06,9.01L16.74,10.33L9.57,17.5L8.07,19L5.57,21.5L5.55,21.52C5.23,21.84,4.88,21.84,4.55,21.52L4.48,21.45C4.16,21.12,4.16,20.77,4.48,20.45L5.96,18.97C5.66,18.89,5.5,18.66,5.5,18.3C5.48,15.45,5.42,14.93,7.28,12.98C7.58,12.66,7.75,12.23,7.75,11.78L7.75,10.65C7.75,7.33,9.77,5.25,13,5.25C15.02,5.25,16.56,6.06,17.44,7.49L20.47,4.46C20.79,4.14,21.14,4.14,21.47,4.46L21.54,4.53C21.86,4.85,21.87,5.19,21.57,5.51C21.56,5.51,21.55,5.52,21.54,5.53ZM6.99,17.5L7.42,17.5L16.35,8.57C15.8,7.37,14.66,6.75,13,6.75C10.55,6.75,9.25,8.08,9.25,10.64L9.25,11.77C9.25,12.37,8.78,13.55,8.37,14C7.13,15.31,6.99,15.37,7,17.5Z"/></svg>