<svg xmlns="http://www.w3.org/2000/svg" viewBox="0 0 24 24"><path d="M23.43,9.6L22.7,10.33C22.07,10.96,21.57,10.96,20.93,10.36C15.66,5.89,8.33,5.89,3.06,10.36C2.43,10.96,1.93,10.96,1.29,10.33L0.56,9.6C-0.07,8.97,-0.04,8.5,0.59,7.87C7.22,2.1,16.76,2.1,23.39,7.87C24.02,8.5,24.06,8.97,23.42,9.6Z" fill="currentColor"/><path d="M10.66,20.3C9.93,19.57,9.93,18.4,10.66,17.63C11.39,16.9,12.59,16.9,13.33,17.63C14.06,18.4,14.06,19.56,13.33,20.3C12.6,21.07,11.4,21.07,10.66,20.3Z" fill="currentColor"/><path d="M18.5,14.53L17.8,15.23C17.17,15.86,16.67,15.86,15.97,15.3C13.57,13.6,10.44,13.6,8.04,15.3C7.34,15.87,6.84,15.87,6.21,15.23L5.51,14.53C4.88,13.9,4.91,13.43,5.58,12.83C9.35,9.8,14.68,9.8,18.45,12.83C19.12,13.43,19.15,13.9,18.52,14.53Z" fill="currentColor"/></svg>