<svg xmlns="http://www.w3.org/2000/svg" viewBox="0 0 24 24"><path d="M2.66,22C0.66,22,-0.01,21.33,-0.01,19.33L-0.01,4.66C-0.01,2.66,0.66,1.99,2.66,1.99L21.33,1.99C23.33,1.99,24,2.66,24,4.66L24,19.33C24,21.33,23.33,22,21.33,22Z" fill="currentColor"/><path d="M3,19L21,19L21,10L3,10Z" fill="currentColor"/><path d="M5.67,6C5.67,5.17,5,4.5,4.17,4.5C3.34,4.5,2.67,5.17,2.67,6C2.67,6.83,3.34,7.5,4.17,7.5C5,7.5,5.67,6.83,5.67,6Z" fill="currentColor"/><path d="M7.63,7L21,7L21,5L7.63,5Z" fill="currentColor"/></svg>