<svg xmlns="http://www.w3.org/2000/svg" viewBox="0 0 24 24"><path d="M3.66,22C1.66,22,0.99,21.33,0.99,19.33L0.99,8.66C0.99,6.66,1.66,5.99,3.66,5.99L6.99,5.99L8.36,3.26C8.83,2.36,9.39,1.99,10.43,1.99L13.56,1.99C14.59,1.99,15.16,2.36,15.63,3.26L17,5.99L20.33,5.99C22.33,5.99,23,6.66,23,8.66L23,19.33C23,21.33,22.33,22,20.33,22Z" fill="currentColor"/><path d="M16.17,14C16.17,11.7,14.27,9.83,11.97,9.83C9.67,9.83,7.84,11.7,7.84,14C7.84,16.33,9.67,18.17,11.97,18.17C14.27,18.17,16.17,16.34,16.17,14Z" fill="currentColor"/></svg>