<svg xmlns="http://www.w3.org/2000/svg" viewBox="0 0 24 24"><path d="M6.97,15C6.97,12.07,9.04,10,11.97,10C14.9,10,16.97,12.07,16.97,15C16.97,17.93,14.9,20,11.97,20C9.04,20,6.97,17.93,6.97,15Z" fill="currentColor"/><path d="M22.57,16.5L21.17,16.5C20.14,16.5,19.7,16.1,19.67,15.07C19.14,9.3,15.44,7.5,12,7.5L12,4.5C18.33,4.5,22.73,8.5,22.73,15L20.4,13.5L22.57,13.5C23.6,13.5,24,13.9,24,14.93L24,15.06C24,16.09,23.6,16.49,22.57,16.49Z" fill="currentColor"/><path d="M4.33,15.07C4.3,16.1,3.86,16.5,2.83,16.5L1.43,16.5C0.4,16.5,0,16.1,0,15.07L0,14.94C0,13.91,0.4,13.51,1.43,13.51L3.6,13.51L1.27,15.01C1.27,8.74,6.14,4.51,12,4.51L12,7.51C8.53,7.51,4.9,9.64,4.33,15.08Z" fill="currentColor"/></svg>