<svg xmlns="http://www.w3.org/2000/svg" viewBox="0 0 24 24" fill="currentColor"><path d="M9.23,15.25C9.23,13.05,10.78,11.5,12.98,11.5C15.18,11.5,16.73,13.05,16.73,15.25C16.73,17.45,15.17,19,12.98,19C10.78,19,9.23,17.45,9.23,15.25ZM20.93,16.38L19.88,16.38C19.11,16.38,18.78,16.08,18.75,15.3C18.36,10.98,15.58,9.63,13,9.63L13,7.38C17.75,7.38,21.05,10.38,21.05,15.25L19.3,14.13L20.93,14.13C21.7,14.13,22,14.42,22,15.2L22,15.29C22,16.07,21.7,16.37,20.93,16.37ZM7.25,15.3C7.23,16.08,6.9,16.38,6.12,16.38L5.07,16.38C4.3,16.38,4,16.08,4,15.3L4,15.21C4,14.43,4.3,14.13,5.07,14.13L6.7,14.13L4.95,15.26C4.95,10.56,8.61,7.38,13,7.38L13,9.63C10.4,9.63,7.68,11.23,7.25,15.31Z"/></svg>