<svg xmlns="http://www.w3.org/2000/svg" viewBox="0 0 24 24"><path d="M13.5,1.43L13.5,6.54C13.03,6.43,12.53,6.37,12,6.37C11.47,6.37,10.97,6.43,10.5,6.54L10.5,1.43C10.5,0.4,10.9,0,11.93,0L12.06,0C13.09,0,13.49,0.4,13.49,1.43Z" fill="currentColor"/><path d="M10.5,17.53C10.97,17.64,11.47,17.7,12,17.7C12.53,17.7,13.03,17.64,13.5,17.53L13.5,22.57C13.5,23.6,13.1,24,12.07,24L11.94,24C10.91,24,10.51,23.6,10.51,22.57Z" fill="currentColor"/><path d="M12,6.36C8.7,6.36,6.33,8.73,6.33,12.03C6.33,15.33,8.7,17.7,12,17.7C15.3,17.7,17.67,15.33,17.67,12.03C17.67,8.73,15.3,6.36,12,6.36Z" fill="currentColor"/><path d="M12,20.7C7.06,20.7,3.33,16.98,3.33,12.03C3.33,7.09,7.05,3.36,12,3.36C16.94,3.36,20.67,7.08,20.67,12.03C20.67,16.97,16.95,20.7,12,20.7Z" fill="currentColor"/></svg>