<svg xmlns="http://www.w3.org/2000/svg" viewBox="0 0 24 24"><path d="M21.91,12.26C22.04,12.03,22.04,12.03,21.9,11.77C19.66,8.15,16.37,5.67,12,5.67C7.63,5.67,4.34,8.14,2.1,11.77C1.96,12.03,1.96,12.03,2.09,12.26C4.33,15.89,7.62,18.3,12,18.3C16.38,18.3,19.67,15.88,21.91,12.26Z" fill="currentColor"/><path d="M0.37,13.27C-0.13,12.37,-0.13,11.7,0.37,10.77C2.84,6.77,6.97,3.67,12,3.67C17.03,3.67,21.17,6.77,23.63,10.77C24.13,11.7,24.13,12.37,23.63,13.27C21.16,17.27,17.03,20.3,12,20.3C6.97,20.3,2.83,17.27,0.37,13.27Z" fill="currentColor"/><path d="M15.33,12.03C15.33,10.16,13.83,8.66,12,8.66C10.17,8.66,8.67,10.16,8.67,12.03C8.67,13.86,10.17,15.33,12,15.33C13.83,15.33,15.33,13.86,15.33,12.03Z" fill="currentColor"/></svg>