<svg xmlns="http://www.w3.org/2000/svg" viewBox="0 0 24 24"><path d="M11.67,22C10.84,22,10.5,21.6,10.5,20.57L10.5,3.17C10.5,2.34,10.9,2,11.93,2L12.33,2C13.16,2,13.5,2.4,13.5,3.43L13.5,20.83C13.5,21.66,13.1,22,12.07,22Z" fill="currentColor"/><path d="M1.44,14C0.41,14,0.01,13.6,0.01,12.57L0.01,11.44C0.01,10.41,0.41,10.01,1.44,10.01L1.57,10.01C2.6,10.01,3,10.41,3,11.44L3,12.57C3,13.6,2.6,14,1.57,14Z" fill="currentColor"/><path d="M6.4,18C5.57,18,5.23,17.6,5.23,16.57L5.23,7.17C5.23,6.34,5.63,6,6.66,6L7.06,6C7.89,6,8.23,6.4,8.23,7.43L8.23,16.83C8.23,17.66,7.83,18,6.8,18Z" fill="currentColor"/><path d="M17.2,18C16.17,18,15.77,17.6,15.77,16.57L15.77,7.44C15.77,6.41,16.17,6.01,17.2,6.01L17.33,6.01C18.36,6.01,18.76,6.41,18.76,7.44L18.76,16.57C18.76,17.6,18.36,18,17.33,18Z" fill="currentColor"/><path d="M22.44,14C21.41,14,21.01,13.6,21.01,12.57L21.01,11.44C21.01,10.41,21.41,10.01,22.44,10.01L22.57,10.01C23.6,10.01,24,10.41,24,11.44L24,12.57C24,13.6,23.6,14,22.57,14Z" fill="currentColor"/></svg>