<svg xmlns="http://www.w3.org/2000/svg" viewBox="0 0 24 24" fill="currentColor"><path d="M20.93,14.13L19.39,14.13C19.45,13.77,19.48,13.38,19.48,13C19.48,12.62,19.45,12.23,19.39,11.88L20.93,11.88C21.7,11.88,22,12.18,22,12.95L22,13.04C22,13.82,21.7,14.12,20.93,14.12ZM12.98,17.25C12.71,17.25,12.47,17.23,12.22,17.19C11.98,17.16,11.74,17.1,11.52,17.03C11.07,16.88,10.66,16.67,10.3,16.39C9.94,16.12,9.64,15.78,9.39,15.4C9.15,15.03,8.97,14.62,8.86,14.16C8.85,14.15,8.85,14.13,8.85,14.12C8.77,13.77,8.73,13.39,8.73,12.99C8.73,12.6,8.77,12.22,8.85,11.87C9.3,10,10.89,8.74,12.97,8.74C15.05,8.74,16.64,9.99,17.09,11.87C17.17,12.22,17.22,12.6,17.22,12.99C17.22,13.39,17.17,13.77,17.09,14.12C16.64,15.99,15.05,17.25,12.97,17.25ZM4,12.95C4,12.18,4.3,11.88,5.07,11.88L6.56,11.88C6.5,12.23,6.47,12.62,6.47,13C6.47,13.38,6.5,13.77,6.56,14.13L5.07,14.13C4.3,14.13,4,13.83,4,13.05Z"/></svg>