<svg xmlns="http://www.w3.org/2000/svg" viewBox="0 0 24 24"><path d="M20.33,20C21,20,21,20,21,19.33L21,8.66C21,7.99,21,7.99,20.33,7.99L15.76,7.99L13.85,4.16C13.76,3.99,13.76,3.99,13.57,3.99L10.44,3.99C10.25,3.99,10.25,3.99,10.16,4.16L8.25,7.99L3.68,7.99C3.01,7.99,3.01,7.99,3.01,8.66L3.01,19.33C3.01,20,3.01,20,3.68,20Z" fill="currentColor"/><path d="M3.66,22C1.66,22,0.99,21.33,0.99,19.33L0.99,8.66C0.99,6.66,1.66,5.99,3.66,5.99L6.99,5.99L8.36,3.26C8.83,2.36,9.39,1.99,10.43,1.99L13.56,1.99C14.59,1.99,15.16,2.36,15.63,3.26L17,5.99L20.33,5.99C22.33,5.99,23,6.66,23,8.66L23,19.33C23,21.33,22.33,22,20.33,22Z" fill="currentColor"/><path d="M7.84,13.66C7.84,11.36,9.67,9.49,11.97,9.49C14.27,9.49,16.17,11.36,16.17,13.66C16.17,15.99,14.27,17.83,11.97,17.83C9.67,17.83,7.84,16,7.84,13.66Z" fill="currentColor"/><path d="M14.17,13.66C14.17,12.4,13.25,11.49,11.97,11.49C10.71,11.49,9.84,12.37,9.84,13.66C9.84,14.96,10.7,15.83,11.97,15.83C13.26,15.83,14.17,14.95,14.17,13.66Z" fill="currentColor"/></svg>