<svg xmlns="http://www.w3.org/2000/svg" viewBox="0 0 24 24" fill="currentColor"><path d="M20.5,8.07L20.5,8.17C20.5,8.94,20.2,9.24,19.43,9.24L8.05,9.22L8.05,6.99L19.43,6.99C20.2,6.99,20.5,7.29,20.5,8.06ZM19.9,17.52C18.5,19.9,16,21.72,13,21.72C10,21.72,7.5,19.9,6.1,17.52C5.82,16.98,5.8,16.55,6.1,16.02C7.5,13.6,9.98,11.75,13,11.75C16.02,11.75,18.5,13.6,19.9,16.02C20.2,16.55,20.18,16.98,19.9,17.52ZM15.6,16.78C15.6,15.33,14.45,14.15,13,14.15C11.55,14.15,10.4,15.33,10.4,16.78C10.4,18.2,11.54,19.35,13,19.35C14.45,19.35,15.6,18.2,15.6,16.78ZM7.58,11.2L4.52,8.8C3.9,8.3,3.9,7.95,4.52,7.45L7.6,5.05C8.12,4.62,8.45,4.8,8.45,5.48L8.45,10.78C8.45,11.48,8.13,11.63,7.57,11.21Z"/></svg>