<svg xmlns="http://www.w3.org/2000/svg" viewBox="0 0 24 24" fill="currentColor"><path d="M7.49,20.5C5.99,20.5,5.49,20,5.49,18.5L5.49,7.49C5.49,5.99,5.99,5.49,7.49,5.49L18.5,5.49C20,5.49,20.5,5.99,20.5,7.49L20.5,18.5C20.5,20,20,20.5,18.5,20.5ZM7.05,18.1L7.05,19L18.95,19L18.95,18.1C18.95,16.6,18.48,15.93,17.1,15.38L16.55,15.15C14.85,14.46,14.6,14.35,14.6,13.9C14.6,12.5,15.75,12.5,15.75,10.15C15.75,8.25,14.9,6.85,12.95,6.85C11.15,6.85,10.25,8.25,10.25,10.15C10.25,12.5,11.36,12.5,11.36,13.9C11.36,14.35,11.15,14.45,9.41,15.15L8.9,15.36C7.5,15.93,7.05,16.61,7.05,18.11Z"/></svg>