<svg xmlns="http://www.w3.org/2000/svg" viewBox="0 0 24 24" fill="currentColor"><path d="M11.5,13.02C11.5,10.83,13.05,9.27,15.25,9.27C17.45,9.27,19,10.83,19,13.02C19,15.22,17.45,16.77,15.25,16.77C13.05,16.77,11.5,15.22,11.5,13.02ZM16.38,5.07L16.38,6.12C16.38,6.9,16.08,7.23,15.3,7.25C10.98,7.64,9.63,10.42,9.63,13L7.38,13C7.38,8.25,10.38,4.95,15.25,4.95L14.13,6.7L14.13,5.07C14.13,4.3,14.42,4,15.2,4L15.29,4C16.07,4,16.37,4.3,16.37,5.07ZM15.3,18.75C16.08,18.78,16.38,19.11,16.38,19.88L16.38,20.93C16.38,21.7,16.08,22,15.3,22L15.21,22C14.43,22,14.13,21.7,14.13,20.93L14.13,19.3L15.26,21.05C10.56,21.05,7.38,17.39,7.38,13L9.63,13C9.63,15.6,11.23,18.32,15.31,18.75Z"/></svg>