<svg xmlns="http://www.w3.org/2000/svg" viewBox="0 0 24 24" fill="currentColor"><path d="M6.57,9.25C5.8,9.25,5.5,8.95,5.5,8.18L5.5,8.08C5.5,7.31,5.8,7.01,6.57,7.01L17.95,7.01L17.95,9.23ZM19.9,17.52C18.5,19.9,16,21.72,13,21.72C10,21.72,7.5,19.9,6.1,17.52C5.82,16.98,5.8,16.55,6.1,16.02C7.5,13.6,9.98,11.75,13,11.75C16.02,11.75,18.5,13.6,19.9,16.02C20.2,16.55,20.18,16.98,19.9,17.52ZM15.6,16.78C15.6,15.33,14.45,14.15,13,14.15C11.55,14.15,10.4,15.33,10.4,16.78C10.4,18.2,11.54,19.35,13,19.35C14.45,19.35,15.6,18.2,15.6,16.78ZM18.4,5.05L21.47,7.45C22.1,7.95,22.1,8.3,21.47,8.8L18.42,11.2C17.87,11.63,17.54,11.48,17.54,10.77L17.54,5.47C17.54,4.79,17.87,4.62,18.39,5.04Z"/></svg>