<svg xmlns="http://www.w3.org/2000/svg" viewBox="0 0 24 24"><path d="M4.66,22C2.66,22,1.99,21.33,1.99,19.33L1.99,4.66C1.99,2.66,2.66,1.99,4.66,1.99L19.33,1.99C21.33,1.99,22,2.66,22,4.66L22,19.33C22,21.33,21.33,22,19.33,22Z" fill="currentColor"/><path d="M9,7C9,5.93,8.13,5,7,5C5.93,5,5,5.93,5,7C5,8.07,5.93,9,7,9C8.13,9,9,8.07,9,7Z" fill="currentColor"/><path d="M4.97,18.07C5,18.67,5.34,19,5.94,19L18.07,19C18.67,19,19,18.67,19.04,18.07C19.24,11.54,18.17,7,15.87,7C13.17,7,12.17,15,10.34,15C9.24,15,8.81,12,7.21,12C5.68,12,4.88,14.53,4.98,18.07Z" fill="currentColor"/></svg>