<svg xmlns="http://www.w3.org/2000/svg" viewBox="0 0 24 24" fill="currentColor"><path d="M16,5.13C16,5.64,17.23,5.9,17.3,5.81L14.84,8.64C14.15,9.46,12.99,9.99,11.92,9.99L8.99,9.99C8.49,9.99,8.49,9.99,8.49,10.5L8.49,15.5C8.49,16,8.49,16,8.99,16L11.92,16C12.99,16,14.15,16.53,14.84,17.35L17.3,20.19C17.22,20.09,16,20.35,16,20.87ZM17.5,5.13L17.5,20.88C17.5,21.57,16.67,21.75,16.17,21.17L13.7,18.32C13.19,17.72,12.7,17.5,11.92,17.5L8.99,17.5C7.49,17.5,6.99,17,6.99,15.5L6.99,10.49C6.99,8.99,7.49,8.49,8.99,8.49L11.92,8.49C12.69,8.49,13.19,8.27,13.7,7.67L16.17,4.82C16.68,4.24,17.5,4.42,17.5,5.12Z"/></svg>