<svg xmlns="http://www.w3.org/2000/svg" viewBox="0 0 24 24" fill="currentColor"><path d="M14.13,5.07L14.13,8.9C13.77,8.82,13.4,8.78,13,8.78C12.6,8.78,12.23,8.82,11.88,8.9L11.88,5.07C11.88,4.3,12.18,4,12.95,4L13.04,4C13.82,4,14.12,4.3,14.12,5.07ZM11.88,17.15C12.23,17.23,12.6,17.28,13,17.28C13.4,17.28,13.77,17.23,14.13,17.15L14.13,20.93C14.13,21.7,13.83,22,13.05,22L12.96,22C12.18,22,11.88,21.7,11.88,20.93ZM13,8.77C10.52,8.77,8.75,10.55,8.75,13.02C8.75,15.5,10.52,17.28,13,17.28C15.48,17.28,17.25,15.5,17.25,13.02C17.25,10.55,15.48,8.77,13,8.77ZM13,19.53C9.29,19.53,6.5,16.74,6.5,13.02C6.5,9.32,9.29,6.52,13,6.52C16.71,6.52,19.5,9.31,19.5,13.02C19.5,16.73,16.71,19.53,13,19.53Z"/></svg>