<svg xmlns="http://www.w3.org/2000/svg" viewBox="0 0 24 24" fill="currentColor"><path d="M19.25,19C19.75,19,19.75,19,19.75,18.5L19.75,10.49C19.75,9.99,19.75,9.99,19.25,9.99L15.82,9.99L14.39,7.12C14.32,6.99,14.32,6.99,14.18,6.99L11.83,6.99C11.69,6.99,11.69,6.99,11.62,7.12L10.19,9.99L6.76,9.99C6.26,9.99,6.26,9.99,6.26,10.49L6.26,18.5C6.26,19,6.26,19,6.76,19ZM6.74,20.5C5.24,20.5,4.74,20,4.74,18.5L4.74,10.49C4.74,8.99,5.24,8.49,6.74,8.49L9.24,8.49L10.27,6.44C10.62,5.77,11.04,5.49,11.82,5.49L14.17,5.49C14.94,5.49,15.37,5.77,15.72,6.44L16.75,8.49L19.25,8.49C20.75,8.49,21.25,8.99,21.25,10.49L21.25,18.5C21.25,20,20.75,20.5,19.25,20.5ZM12.98,11.12C14.7,11.12,16.13,12.52,16.13,14.24C16.13,15.99,14.7,17.37,12.98,17.37C11.25,17.37,9.88,16,9.88,14.24C9.88,12.52,11.25,11.12,12.98,11.12ZM12.98,12.62C12.03,12.62,11.38,13.28,11.38,14.24C11.38,15.22,12.03,15.87,12.98,15.87C13.95,15.87,14.63,15.21,14.63,14.24C14.63,13.3,13.94,12.62,12.98,12.62Z"/></svg>