<svg xmlns="http://www.w3.org/2000/svg" viewBox="0 0 24 24"><path d="M13.5,16.57C13.5,17.6,13.17,18,12.33,18L11.93,18C10.9,18,10.5,17.67,10.5,16.83L10.5,7.43C10.5,6.4,10.83,6,11.67,6L12.07,6C13.1,6,13.5,6.33,13.5,7.17Z" fill="currentColor"/><path d="M24,12.56C24,13.59,23.6,13.99,22.57,13.99L22.44,13.99C21.41,13.99,21.01,13.59,21.01,12.56L21.01,11.43C21.01,10.4,21.41,10,22.44,10L22.57,10C23.6,10,24,10.4,24,11.43Z" fill="currentColor"/><path d="M18.77,14.57C18.77,15.6,18.44,16,17.6,16L17.2,16C16.17,16,15.77,15.67,15.77,14.83L15.77,9.43C15.77,8.4,16.1,8,16.94,8L17.34,8C18.37,8,18.77,8.33,18.77,9.17Z" fill="currentColor"/><path d="M8.23,18.56C8.23,19.59,7.83,19.99,6.8,19.99L6.67,19.99C5.64,19.99,5.24,19.59,5.24,18.56L5.24,5.43C5.24,4.4,5.64,4,6.67,4L6.8,4C7.83,4,8.23,4.4,8.23,5.43Z" fill="currentColor"/><path d="M3,20.56C3,21.59,2.6,21.99,1.57,21.99L1.44,21.99C0.41,21.99,0.01,21.59,0.01,20.56L0.01,3.43C0.01,2.4,0.41,2,1.44,2L1.57,2C2.6,2,3,2.4,3,3.43Z" fill="currentColor"/></svg>