<svg xmlns="http://www.w3.org/2000/svg" viewBox="0 0 24 24" fill="currentColor"><path d="M6.1,8.48C7.5,6.1,10,4.28,13,4.28C16,4.28,18.5,6.1,19.9,8.48C20.18,9.02,20.2,9.45,19.9,9.98C18.5,12.4,16.02,14.25,13,14.25C9.98,14.25,7.5,12.4,6.1,9.98C5.8,9.45,5.82,9.02,6.1,8.48ZM10.4,9.22C10.4,10.67,11.54,11.85,13,11.85C14.45,11.85,15.6,10.67,15.6,9.22C15.6,7.79,14.45,6.65,13,6.65C11.55,6.65,10.4,7.79,10.4,9.22ZM16.08,18.35L13.68,21.42C13.17,22.04,12.83,22.04,12.33,21.42L9.93,18.37C9.5,17.82,9.65,17.49,10.35,17.49L15.66,17.49C16.33,17.49,16.5,17.81,16.08,18.34Z"/></svg>