<svg xmlns="http://www.w3.org/2000/svg" viewBox="0 0 24 24" fill="currentColor"><path d="M10.95,20.5L15.1,20.5C14.85,21.55,13.83,22,13.02,22C12.22,22,11.2,21.55,10.95,20.5ZM10.23,19L18.25,10.98L18.25,13.28C18.25,13.73,18.42,14.15,18.75,14.48C20.33,16.11,20.48,16.45,20.5,18.3C20.5,18.75,20.25,19,19.8,19ZM21.55,5.52L18.06,9.01L8.07,19L5.57,21.5L5.55,21.52C5.23,21.84,4.88,21.84,4.55,21.52L4.48,21.45C4.16,21.12,4.16,20.77,4.48,20.45L5.96,18.97C5.67,18.89,5.5,18.66,5.5,18.3C5.52,16.43,5.67,16.11,7.25,14.48C7.57,14.15,7.75,13.73,7.75,13.28L7.75,10.65C7.75,7.33,9.77,5.25,13,5.25C15.02,5.25,16.56,6.06,17.44,7.49L20.47,4.46C20.79,4.13,21.14,4.13,21.47,4.46L21.54,4.53C21.86,4.85,21.87,5.19,21.57,5.51C21.56,5.51,21.55,5.52,21.54,5.53Z"/></svg>