<svg xmlns="http://www.w3.org/2000/svg" viewBox="0 0 24 24"><path d="M21.07,20L8.3,20L10.3,18L20.01,18C20.02,15.17,19.84,15.09,18.18,13.33C17.79,12.9,17.35,11.96,17.14,11.17L19.01,9.3L19.01,10.37C19.01,10.97,19.24,11.54,19.64,11.97C22.11,14.57,22.04,15.27,22.01,19.07C22.01,19.67,21.68,20,21.08,20Z" fill="currentColor"/><path d="M9.27,22L14.8,22C14.47,23.4,13.1,24,12.03,24C10.96,24,9.6,23.4,9.26,22Z" fill="currentColor"/><path d="M23.4,2.03L18.75,6.68L16.99,8.44L7.43,18L5.43,20L2.1,23.33L2.07,23.36C1.64,23.79,1.17,23.79,0.74,23.36L0.64,23.26C0.21,22.83,0.21,22.36,0.64,21.93L2.61,19.96C2.22,19.86,2,19.55,2,19.07C1.97,15.27,1.9,14.57,4.37,11.97C4.77,11.54,5,10.97,5,10.37L5,8.87C5,4.44,7.7,1.67,12,1.67C14.69,1.67,16.75,2.75,17.92,4.65L21.96,0.61C22.39,0.18,22.86,0.18,23.29,0.61L23.39,0.71C23.81,1.13,23.82,1.59,23.42,2.01C23.41,2.02,23.4,2.03,23.39,2.04Z" fill="currentColor"/><path d="M3.99,18L4.56,18L16.47,6.09C15.73,4.49,14.21,3.66,12,3.66C8.74,3.66,7,5.44,7,8.86L7,10.36C7,11.16,6.37,12.74,5.83,13.33C4.17,15.08,3.99,15.16,4,18Z" fill="currentColor"/></svg>