<svg xmlns="http://www.w3.org/2000/svg" viewBox="0 0 24 24"><path d="M21.07,20.13C20.37,20.9,19.84,20.93,19.1,20.2L18.97,20.07C18.24,19.34,18.24,18.77,18.9,18C20.3,16.2,21,14.1,21,12C21,9.9,20.33,7.8,18.93,6C18.23,5.23,18.23,4.67,18.96,3.93L19.09,3.8C19.82,3.07,20.36,3.1,21.06,3.87C23.03,6.27,23.99,9.17,23.99,12C23.99,14.83,22.99,17.73,21.06,20.13Z" fill="currentColor"/><path d="M4.9,20.2C4.17,20.93,3.63,20.9,2.93,20.13C1,17.73,0,14.83,0,12C0,9.17,0.97,6.27,2.93,3.87C3.63,3.1,4.16,3.07,4.9,3.8L5.03,3.93C5.76,4.66,5.76,5.23,5.1,6C3.7,7.8,3,9.9,3,12C3,14.1,3.7,16.2,5.1,18C5.77,18.77,5.77,19.33,5.03,20.07Z" fill="currentColor"/><path d="M8.5,16.57L8.37,16.7C7.64,17.43,7.1,17.4,6.44,16.6C5.51,15.2,5.01,13.6,5.01,12C5.01,10.4,5.51,8.8,6.44,7.4C7.11,6.6,7.64,6.57,8.37,7.3L8.5,7.43C9.23,8.16,9.27,8.76,8.63,9.56C8.23,10.33,8,11.16,8,11.99C8,12.82,8.2,13.66,8.63,14.42C9.26,15.22,9.23,15.82,8.5,16.55Z" fill="currentColor"/><path d="M9.83,12C9.83,10.8,10.8,9.83,12,9.83C13.2,9.83,14.17,10.8,14.17,12C14.17,13.2,13.2,14.17,12,14.17C10.8,14.17,9.83,13.2,9.83,12Z" fill="currentColor"/><path d="M17.53,16.57C16.9,17.37,16.33,17.4,15.6,16.67L15.53,16.6C14.8,15.87,14.73,15.27,15.36,14.47C15.79,13.7,15.99,12.87,15.99,12C15.99,11.17,15.79,10.33,15.36,9.57C14.73,8.77,14.76,8.17,15.49,7.44L15.62,7.31C16.35,6.58,16.89,6.61,17.55,7.41C18.48,8.81,18.98,10.41,18.98,12.01C18.98,13.61,18.48,15.21,17.51,16.58Z" fill="currentColor"/></svg>