<svg xmlns="http://www.w3.org/2000/svg" viewBox="0 0 24 24" fill="currentColor"><path d="M18.5,19C19,19,19,19,19,18.5L19,7.49C19,6.99,19,6.99,18.5,6.99L7.49,6.99C6.99,6.99,6.99,6.99,6.99,7.49L6.99,18.5C6.99,19,6.99,19,7.49,19ZM7.49,20.5C5.99,20.5,5.49,20,5.49,18.5L5.49,7.49C5.49,5.99,5.99,5.49,7.49,5.49L18.5,5.49C20,5.49,20.5,5.99,20.5,7.49L20.5,18.5C20.5,20,20,20.5,18.5,20.5ZM11.2,10C11.2,9.3,10.6,8.65,9.85,8.65C9.1,8.65,8.5,9.3,8.5,10C8.5,10.7,9.1,11.3,9.85,11.3C10.6,11.3,11.2,10.7,11.2,10ZM16.68,17.5C17.13,17.5,17.37,17.25,17.4,16.8C17.5,12.77,16.83,10,15.4,10C13.75,10,13.13,15,11.95,15C11.28,15,11,13.13,10,13.13C9.05,13.13,8.55,14.65,8.6,16.8C8.62,17.25,8.88,17.5,9.33,17.5Z"/></svg>