<svg xmlns="http://www.w3.org/2000/svg" viewBox="0 0 24 24"><path d="M13.33,18C14,18,14,18,14,17.33L14,6.66C14,5.99,14,5.99,13.33,5.99L2.66,5.99C1.99,5.99,1.99,5.99,1.99,6.66L1.99,17.33C1.99,18,1.99,18,2.66,18Z" fill="currentColor"/><path d="M2.66,20C0.66,20,-0.01,19.33,-0.01,17.33L-0.01,6.66C-0.01,4.66,0.66,3.99,2.66,3.99L13.33,3.99C15.33,3.99,16,4.66,16,6.66L16,17.33C16,19.33,15.33,20,13.33,20Z" fill="currentColor"/><path d="M18.01,13.16L23.5,15.6C23.45,15.58,22,16.5,22,16.57L22,7.44C22,7.5,23.45,8.43,23.5,8.41L18.01,10.85L18.01,8.66L22.7,6.57C23.63,6.17,24,6.4,24,7.44L24,16.57C24,17.6,23.63,17.84,22.7,17.44L18.01,15.35Z" fill="currentColor"/></svg>