<svg xmlns="http://www.w3.org/2000/svg" viewBox="0 0 24 24" fill="currentColor"><path d="M4.38,10.58C6.12,7.58,9.25,5.25,13,5.25C16.75,5.25,19.88,7.58,21.63,10.58C21.92,11.15,21.97,11.65,21.75,12.21C20.52,10.85,18.75,10.01,16.75,10.01C16.46,10.01,16.18,10.02,15.9,10.06C15.37,9,14.27,8.26,13,8.26C11.2,8.26,9.75,9.74,9.75,11.54C9.75,12.42,10.11,13.22,10.68,13.8C10.24,14.7,10,15.7,10,16.77C10,16.92,10.01,17.08,10.02,17.24C7.62,16.41,5.65,14.63,4.38,12.49C4.02,11.81,4.02,11.27,4.38,10.59ZM11.52,16.75C11.52,13.88,13.9,11.52,16.75,11.52C19.62,11.52,21.98,13.87,21.98,16.75C21.98,19.6,19.63,21.98,16.75,21.98C13.9,21.98,11.52,19.6,11.52,16.75ZM16.13,16.93C16.18,17.28,16.33,17.4,16.71,17.4L16.8,17.4C17.18,17.4,17.33,17.27,17.38,16.93L17.75,14.25C17.85,13.56,17.63,13.28,16.88,13.28L16.63,13.28C15.88,13.28,15.66,13.56,15.75,14.25ZM17.65,19.23C17.65,18.68,17.3,18.33,16.75,18.33C16.2,18.33,15.85,18.68,15.85,19.23C15.85,19.77,16.2,20.13,16.75,20.13C17.3,20.13,17.65,19.77,17.65,19.23Z"/></svg>