<svg xmlns="http://www.w3.org/2000/svg" viewBox="0 0 24 24" fill="currentColor"><path d="M12.75,20.5C12.13,20.5,11.88,20.2,11.88,19.43L11.88,6.38C11.88,5.76,12.18,5.5,12.95,5.5L13.25,5.5C13.87,5.5,14.13,5.8,14.13,6.57L14.13,19.62C14.13,20.24,13.83,20.5,13.05,20.5ZM5.08,14.5C4.31,14.5,4.01,14.2,4.01,13.43L4.01,12.58C4.01,11.81,4.31,11.51,5.08,11.51L5.18,11.51C5.95,11.51,6.25,11.81,6.25,12.58L6.25,13.43C6.25,14.2,5.95,14.5,5.18,14.5ZM8.8,17.5C8.18,17.5,7.92,17.2,7.92,16.43L7.92,9.38C7.92,8.75,8.22,8.5,9,8.5L9.29,8.5C9.92,8.5,10.17,8.8,10.17,9.57L10.17,16.62C10.17,17.24,9.87,17.5,9.1,17.5ZM16.9,17.5C16.13,17.5,15.83,17.2,15.83,16.43L15.83,9.58C15.83,8.81,16.13,8.51,16.9,8.51L17,8.51C17.77,8.51,18.07,8.81,18.07,9.58L18.07,16.43C18.07,17.2,17.77,17.5,17,17.5ZM20.83,14.5C20.06,14.5,19.76,14.2,19.76,13.43L19.76,12.58C19.76,11.81,20.06,11.51,20.83,11.51L20.93,11.51C21.7,11.51,22,11.81,22,12.58L22,13.43C22,14.2,21.7,14.5,20.93,14.5Z"/></svg>