<svg xmlns="http://www.w3.org/2000/svg" viewBox="0 0 24 24" fill="currentColor"><path d="M19.8,17.5C19.63,17.5,19,18.13,19,18.29C19.02,15.37,19.02,15.47,17.63,14C17.22,13.56,16.75,12.38,16.75,11.78L16.75,10.65C16.75,8.09,15.45,6.75,13,6.75C10.55,6.75,9.25,8.09,9.25,10.65L9.25,11.78C9.25,12.38,8.78,13.56,8.37,14C6.99,15.47,6.98,15.38,7,18.29C7,18.13,6.37,17.5,6.2,17.5ZM19.8,19L6.21,19C5.76,19,5.51,18.75,5.51,18.3C5.49,15.45,5.43,14.93,7.29,12.98C7.59,12.66,7.76,12.23,7.76,11.78L7.76,10.65C7.76,7.33,9.78,5.25,13.01,5.25C16.23,5.25,18.26,7.33,18.26,10.65L18.26,11.78C18.26,12.23,18.43,12.66,18.73,12.98C20.58,14.93,20.53,15.45,20.51,18.3C20.51,18.75,20.26,19,19.81,19ZM15.1,20.5C14.85,21.55,13.83,22,13.02,22C12.22,22,11.2,21.55,10.95,20.5Z"/></svg>