<svg xmlns="http://www.w3.org/2000/svg" viewBox="0 0 24 24"><path d="M9.27,22L14.8,22C14.47,23.4,13.1,24,12.03,24C10.96,24,9.6,23.4,9.26,22Z" fill="currentColor"/><path d="M8.3,20L19,9.3L19,12.37C19,12.97,19.23,13.54,19.67,13.97C21.77,16.14,21.97,16.6,22,19.07C22,19.67,21.67,20,21.07,20Z" fill="currentColor"/><path d="M23.4,2.03L18.75,6.68L5.43,20L2.1,23.33L2.07,23.36C1.64,23.79,1.17,23.79,0.74,23.36L0.64,23.26C0.21,22.83,0.21,22.36,0.64,21.93L2.61,19.96C2.22,19.86,2,19.55,2,19.07C2.03,16.57,2.23,16.14,4.33,13.97C4.76,13.54,5,12.97,5,12.37L5,8.87C5,4.44,7.7,1.67,12,1.67C14.69,1.67,16.75,2.75,17.92,4.65L21.96,0.61C22.39,0.18,22.86,0.18,23.29,0.61L23.39,0.71C23.81,1.13,23.82,1.59,23.42,2.01C23.41,2.02,23.4,2.03,23.39,2.04Z" fill="currentColor"/></svg>