<svg xmlns="http://www.w3.org/2000/svg" viewBox="0 0 24 24"><path d="M15,17.03C12.07,17.03,10,14.96,10,12.03C10,9.1,12.07,7.03,15,7.03C17.93,7.03,20,9.1,20,12.03C20,14.96,17.93,17.03,15,17.03Z" fill="currentColor"/><path d="M16.5,1.43L16.5,2.83C16.5,3.86,16.1,4.3,15.07,4.33C9.3,4.86,7.5,8.56,7.5,12L4.5,12C4.5,5.67,8.5,1.27,15,1.27L13.5,3.6L13.5,1.43C13.5,0.4,13.9,0,14.93,0L15.06,0C16.09,0,16.49,0.4,16.49,1.43Z" fill="currentColor"/><path d="M15.07,19.67C16.1,19.7,16.5,20.14,16.5,21.17L16.5,22.57C16.5,23.6,16.1,24,15.07,24L14.94,24C13.91,24,13.51,23.6,13.51,22.57L13.51,20.4L15.01,22.73C8.74,22.73,4.51,17.86,4.51,12L7.51,12C7.51,15.47,9.64,19.1,15.08,19.67Z" fill="currentColor"/></svg>