<svg xmlns="http://www.w3.org/2000/svg" viewBox="0 0 24 24"><path d="M14.4,23.43L13.67,22.7C13.04,22.07,13.04,21.57,13.64,20.93C18.11,15.66,18.11,8.33,13.64,3.06C13.04,2.43,13.04,1.93,13.67,1.29L14.4,0.56C15.03,-0.07,15.5,-0.04,16.13,0.59C21.9,7.22,21.9,16.76,16.13,23.39C15.5,24.02,15.03,24.06,14.4,23.42Z" fill="currentColor"/><path d="M3.7,10.66C4.43,9.93,5.6,9.93,6.37,10.66C7.1,11.39,7.1,12.59,6.37,13.33C5.6,14.06,4.44,14.06,3.7,13.33C2.93,12.6,2.93,11.4,3.7,10.66Z" fill="currentColor"/><path d="M9.47,18.5L8.77,17.8C8.14,17.17,8.14,16.67,8.7,15.97C10.4,13.57,10.4,10.44,8.7,8.04C8.13,7.34,8.13,6.84,8.77,6.21L9.47,5.51C10.1,4.88,10.57,4.91,11.17,5.58C14.2,9.35,14.2,14.68,11.17,18.45C10.57,19.12,10.1,19.15,9.47,18.52Z" fill="currentColor"/></svg>