<svg xmlns="http://www.w3.org/2000/svg" viewBox="0 0 24 24" fill="currentColor"><path d="M4,8.25C4,6.75,4.5,6.25,6,6.25L20.01,6.25C21.51,6.25,22.01,6.75,22.01,8.25L22.01,10L16.76,10L4.01,10ZM6.25,17.5L10.04,17.5C10.13,18.3,10.35,19.06,10.69,19.75L6,19.75C4.5,19.75,3.99,19.25,3.99,17.75L3.99,12.25L11.7,12.25C10.79,13.27,10.19,14.56,10.03,16L6.24,16ZM11.52,16.75C11.52,13.88,13.9,11.52,16.75,11.52C19.62,11.52,21.98,13.87,21.98,16.75C21.98,19.6,19.63,21.98,16.75,21.98C13.9,21.98,11.52,19.6,11.52,16.75ZM15.98,19.77C15.98,20.25,16.22,20.5,16.67,20.5L16.75,20.5C17.22,20.5,17.48,20.25,17.48,19.8L17.48,17.5L19.8,17.5C20.25,17.5,20.5,17.25,20.5,16.77L20.5,16.7C20.5,16.25,20.25,16,19.77,16L17.47,16L17.47,13.73C17.47,13.25,17.22,13,16.77,13L16.7,13C16.23,13,15.97,13.25,15.97,13.7L15.97,16L13.7,16C13.25,16,13,16.25,13,16.73L13,16.8C13,17.25,13.25,17.5,13.73,17.5L15.98,17.5Z"/></svg>