<svg xmlns="http://www.w3.org/2000/svg" viewBox="0 0 24 24" fill="currentColor"><path d="M13,20.48C8.18,20.45,7.98,19.6,7.98,19.5C7.98,18.25,8.37,17.03,9.4,16.3C11.33,14.85,11.58,13.5,11.65,12.65L11.65,12.02L10.1,12.02C9.93,11.67,9.82,11.37,9.82,11L11.57,9.85C10.97,9.42,10.57,8.7,10.57,7.9C10.57,6.55,11.64,5.48,12.99,5.48C14.34,5.48,15.42,6.55,15.42,7.9C15.42,8.7,15.02,9.42,14.42,9.85L16.16,11C16.16,11.37,16.07,11.67,15.89,12.02L14.33,12.02L14.33,12.65C14.41,13.5,14.66,14.85,16.58,16.3C17.61,17.03,18.01,18.25,18.01,19.5C18.01,19.6,17.81,20.45,12.98,20.48Z"/></svg>