<svg xmlns="http://www.w3.org/2000/svg" viewBox="0 0 24 24" fill="currentColor"><path d="M16.32,17.55C17.02,17.2,17.17,16.8,16.9,16.08L16.9,16.1C16.62,15.37,16.23,15.2,15.48,15.45C14.9,15.6,14.2,15.72,13.52,15.72C12.38,15.72,11.3,15.37,10.9,14.1L15.23,14.1C16,14.1,16.3,13.74,16.3,12.9L16.3,13.05C16.3,12.17,16,11.85,15.23,11.85L10.93,11.85C11.33,10.59,12.41,10.27,13.53,10.27C14.21,10.27,14.9,10.4,15.48,10.55C16.23,10.8,16.63,10.62,16.91,9.9L16.91,9.92C17.18,9.19,17.04,8.79,16.36,8.44C15.41,8.04,14.46,7.86,13.56,7.86C11.11,7.86,8.99,9.19,8.59,11.84L8.24,11.84C7.46,11.84,7.16,12.16,7.16,13.04L7.16,12.89C7.16,13.74,7.46,14.09,8.24,14.09L8.59,14.09C8.96,16.77,11.12,18.12,13.56,18.12C14.46,18.12,15.41,17.91,16.34,17.54ZM13,5.13C17.35,5.13,20.88,8.65,20.88,13C20.88,17.35,17.35,20.88,13,20.88C8.65,20.88,5.13,17.35,5.13,13C5.13,8.65,8.65,5.13,13,5.13Z"/></svg>