<svg xmlns="http://www.w3.org/2000/svg" viewBox="0 0 24 24"><path d="M10.5,11.43C10.5,10.4,10.9,9.93,11.9,9.73C11.97,9.73,12.03,9.73,12.1,9.76C13.1,9.93,13.5,10.39,13.5,11.43L13.5,12.93L10.5,12.93Z" fill="currentColor"/><path d="M10.7,8.67C9.7,8.67,8.87,7.57,8.87,6.27C8.87,4.67,10.87,2.17,12,0.6C13.23,2.17,15.13,4.67,15.13,6.27C15.13,7.57,14.3,8.67,13.3,8.67L12.9,8.67C13.47,7.34,13,6.27,11.97,5.2C10.97,6.27,10.54,7.33,11.1,8.67Z" fill="currentColor"/><path d="M18.13,22L5.63,22C4.76,22,4.36,21.6,4.2,20.6L3.6,16.67C3.47,15.8,3.8,15.37,4.77,15.07C9.84,13.77,14.4,13.8,19.44,15.2C20.27,15.43,20.54,15.93,20.37,16.93L19.77,20.8C19.64,21.67,19.17,22,18.14,22Z" fill="currentColor"/></svg>