<svg xmlns="http://www.w3.org/2000/svg" viewBox="0 0 24 24"><path d="M1.37,8.2C-0.16,6.93,0.14,6.13,2.1,6.07L6.33,5.97L7.9,1.67C8.57,-0.16,9.43,-0.16,10.1,1.67L11.67,5.94L15.9,6.07C17.76,6.13,18.13,6.85,16.86,8C12.8,8.06,9.41,10.77,8.35,14.48L5.33,16.43C3.66,17.5,3,17,3.56,15.1L4.79,11Z" fill="currentColor"/><path d="M10.03,17C10.03,13.17,13.2,10.03,17,10.03C20.83,10.03,23.97,13.16,23.97,17C23.97,20.8,20.84,23.97,17,23.97C13.2,23.97,10.03,20.8,10.03,17Z" fill="currentColor"/><path d="M15.97,21.03C15.97,21.66,16.3,22,16.9,22L17,22C17.63,22,17.97,21.67,17.97,21.07L17.97,18L21.07,18C21.67,18,22,17.67,22,17.03L22,16.93C22,16.33,21.67,16,21.03,16L17.96,16L17.96,12.97C17.96,12.34,17.63,12,17.03,12L16.93,12C16.3,12,15.96,12.33,15.96,12.93L15.96,16L12.93,16C12.33,16,12,16.33,12,16.97L12,17.07C12,17.67,12.33,18,12.97,18L15.97,18Z" fill="currentColor"/></svg>