<svg xmlns="http://www.w3.org/2000/svg" viewBox="0 0 24 24"><path d="M0,5.67C0,3.67,0.67,3,2.67,3L21.34,3C23.34,3,24.01,3.67,24.01,5.67L24.01,8L17.01,8L0.01,8Z" fill="currentColor"/><path d="M3,18L8.05,18C8.17,19.07,8.47,20.08,8.92,21L2.66,21C0.66,21,-0.01,20.33,-0.01,18.33L-0.01,11L10.26,11C9.05,12.36,8.25,14.08,8.04,16L2.99,16Z" fill="currentColor"/><path d="M10.03,17C10.03,13.17,13.2,10.03,17,10.03C20.83,10.03,23.97,13.16,23.97,17C23.97,20.8,20.84,23.97,17,23.97C13.2,23.97,10.03,20.8,10.03,17Z" fill="currentColor"/><path d="M15.97,21.03C15.97,21.66,16.3,22,16.9,22L17,22C17.63,22,17.97,21.67,17.97,21.07L17.97,18L21.07,18C21.67,18,22,17.67,22,17.03L22,16.93C22,16.33,21.67,16,21.03,16L17.96,16L17.96,12.97C17.96,12.34,17.63,12,17.03,12L16.93,12C16.3,12,15.96,12.33,15.96,12.93L15.96,16L12.93,16C12.33,16,12,16.33,12,16.97L12,17.07C12,17.67,12.33,18,12.97,18L15.97,18Z" fill="currentColor"/></svg>