<svg xmlns="http://www.w3.org/2000/svg" viewBox="0 0 24 24" fill="currentColor"><path d="M11.88,17.75L11.88,18.55C11.88,19.4,12.18,19.75,12.95,19.75L13.08,19.75C13.85,19.75,14.15,19.4,14.15,18.55L14.15,17.72C15.87,17.37,17,16.3,17,14.87C17,12.45,15.15,12.15,13.1,11.85C12,11.68,11.25,11.57,11.25,11.1C11.25,10,13.4,10.28,15,10.75C15.72,11.03,16.1,10.85,16.4,10.13L16.4,10.13C16.7,9.4,16.53,9,15.82,8.65C15.35,8.45,14.75,8.25,14.15,8.15L14.15,7.32C14.15,6.55,13.83,6.25,12.95,6.25L13.08,6.25C12.23,6.25,11.88,6.55,11.88,7.32L11.88,8.15C10.1,8.45,9,9.5,9,11.09C9,13.52,11.25,13.87,12.88,14.12C14.01,14.29,14.76,14.39,14.76,14.87C14.76,15.89,12.45,15.54,10.91,14.94C10.21,14.62,9.81,14.77,9.46,15.47L9.46,15.49C9.11,16.19,9.24,16.61,9.91,17.01C10.46,17.31,11.16,17.59,11.88,17.74ZM13,5.13C17.35,5.13,20.88,8.65,20.88,13C20.88,17.35,17.35,20.88,13,20.88C8.65,20.88,5.13,17.35,5.13,13C5.13,8.65,8.65,5.13,13,5.13Z"/></svg>