<svg xmlns="http://www.w3.org/2000/svg" viewBox="0 0 24 24"><path d="M10.5,18.33L10.5,19.4C10.5,20.53,10.9,21,11.93,21L12.1,21C13.13,21,13.53,20.53,13.53,19.4L13.53,18.3C15.83,17.83,17.33,16.4,17.33,14.5C17.33,11.27,14.86,10.87,12.13,10.47C10.66,10.24,9.66,10.1,9.66,9.47C9.66,8,12.53,8.37,14.66,9C15.63,9.37,16.13,9.13,16.53,8.17L16.53,8.17C16.93,7.2,16.7,6.67,15.76,6.2C15.13,5.93,14.33,5.67,13.53,5.53L13.53,4.43C13.53,3.4,13.1,3,11.93,3L12.1,3C10.97,3,10.5,3.4,10.5,4.43L10.5,5.53C8.13,5.93,6.67,7.33,6.67,9.46C6.67,12.69,9.67,13.16,11.84,13.49C13.34,13.72,14.34,13.86,14.34,14.49C14.34,15.86,11.27,15.39,9.21,14.59C8.28,14.16,7.74,14.36,7.28,15.29L7.28,15.32C6.81,16.25,6.98,16.82,7.88,17.35C8.61,17.75,9.55,18.12,10.51,18.32Z" fill="currentColor"/><path d="M1.5,12C1.5,6.2,6.2,1.5,12,1.5C17.8,1.5,22.5,6.2,22.5,12C22.5,17.8,17.8,22.5,12,22.5C6.2,22.5,1.5,17.8,1.5,12Z" fill="currentColor"/></svg>