<svg xmlns="http://www.w3.org/2000/svg" viewBox="0 0 24 24" fill="currentColor"><path d="M17.2,20.5L8.82,20.5C8.07,20.5,7.77,20.2,7.77,19.43L7.77,10.88L7.17,11.63C6.7,12.23,6.27,12.25,5.7,11.73L4.52,10.68C3.94,10.15,3.92,9.72,4.42,9.12L6.17,7.02C7.14,5.88,7.97,5.5,9.47,5.5L10.24,5.5C11.69,7.35,14.29,7.35,15.74,5.5L16.51,5.5C18.01,5.5,18.84,5.88,19.81,7.02L21.56,9.12C22.06,9.72,22.03,10.15,21.46,10.68L20.26,11.73C19.68,12.25,19.28,12.2,18.81,11.6L18.26,10.87L18.26,19.44C18.26,20.19,17.96,20.49,17.19,20.49ZM13,17.5C15.65,17.48,15.77,17.03,15.77,16.98C15.77,16.28,15.55,15.6,14.97,15.2C14.22,14.6,13.75,14.17,13.75,12.85L14.6,12.85C14.69,12.65,14.75,12.5,14.75,12.27L13.77,11.65C14.12,11.43,14.32,11.03,14.32,10.58C14.32,9.85,13.74,9.25,12.99,9.25C12.24,9.25,11.66,9.85,11.66,10.58C11.66,11.03,11.87,11.43,12.21,11.65L11.24,12.27C11.24,12.5,11.29,12.65,11.39,12.85L12.23,12.85C12.21,13.68,12.06,14.4,11.01,15.2C10.43,15.6,10.21,16.27,10.21,16.98C10.21,17.03,10.34,17.48,12.98,17.5Z"/></svg>