<svg xmlns="http://www.w3.org/2000/svg" viewBox="0 0 24 24"><path d="M17.6,22L6.43,22C5.43,22,5.03,21.6,5.03,20.57L5.03,9.17L4.23,10.17C3.6,10.97,3.03,11,2.26,10.3L0.69,8.9C-0.08,8.2,-0.11,7.63,0.56,6.83L2.89,4.03C4.19,2.5,5.29,2,7.29,2L8.32,2C10.25,4.47,13.72,4.47,15.65,2L16.68,2C18.68,2,19.78,2.5,21.08,4.03L23.41,6.83C24.08,7.63,24.04,8.2,23.28,8.9L21.68,10.3C20.91,11,20.38,10.93,19.75,10.13L19.02,9.16L19.02,20.59C19.02,21.59,18.62,21.99,17.59,21.99Z" fill="currentColor"/><path d="M12,18C15.53,17.97,15.7,17.37,15.7,17.3C15.7,16.37,15.4,15.47,14.63,14.93C13.63,14.13,13,13.56,13,11.8L14.13,11.8C14.26,11.53,14.33,11.33,14.33,11.03L13.03,10.2C13.5,9.9,13.76,9.37,13.76,8.77C13.76,7.8,12.99,7,11.99,7C10.99,7,10.22,7.8,10.22,8.77C10.22,9.37,10.49,9.9,10.95,10.2L9.65,11.03C9.65,11.33,9.72,11.53,9.85,11.8L10.98,11.8C10.95,12.9,10.75,13.87,9.35,14.93C8.58,15.46,8.28,16.36,8.28,17.3C8.28,17.37,8.45,17.97,11.98,18Z" fill="currentColor"/></svg>