<svg xmlns="http://www.w3.org/2000/svg" viewBox="0 0 24 24"><path d="M16.43,18.07C17.36,17.6,17.56,17.07,17.2,16.1L17.2,16.13C16.83,15.16,16.3,14.93,15.3,15.26C14.53,15.46,13.6,15.63,12.7,15.63C11.17,15.63,9.73,15.16,9.2,13.46L14.97,13.46C16,13.46,16.4,12.99,16.4,11.86L16.4,12.06C16.4,10.89,16,10.46,14.97,10.46L9.24,10.46C9.77,8.79,11.21,8.36,12.71,8.36C13.61,8.36,14.54,8.53,15.31,8.73C16.31,9.06,16.84,8.83,17.21,7.86L17.21,7.89C17.58,6.92,17.38,6.39,16.48,5.92C15.21,5.39,13.95,5.15,12.75,5.15C9.48,5.15,6.65,6.92,6.12,10.45L5.65,10.45C4.62,10.45,4.22,10.88,4.22,12.05L4.22,11.85C4.22,12.98,4.62,13.45,5.65,13.45L6.12,13.45C6.62,17.02,9.49,18.82,12.75,18.82C13.95,18.82,15.22,18.55,16.45,18.05Z" fill="currentColor"/><path d="M1.5,12C1.5,6.2,6.2,1.5,12,1.5C17.8,1.5,22.5,6.2,22.5,12C22.5,17.8,17.8,22.5,12,22.5C6.2,22.5,1.5,17.8,1.5,12Z" fill="currentColor"/></svg>