<svg xmlns="http://www.w3.org/2000/svg" viewBox="0 0 24 24"><path d="M8.01,16.6C2.23,16.56,1.13,12.7,1.13,12.7L0.1,1.93C0.03,1.13,0.2,1.06,0.7,1.7L4.6,6.83L7.53,0.6C7.9,-0.13,8.16,-0.13,8.5,0.6L11.4,6.83L15.3,1.7C15.8,1.07,15.97,1.13,15.9,1.93L15.3,8.15C11.25,8.91,8.19,12.36,8.01,16.59Z" fill="currentColor"/><path d="M10.03,17C10.03,13.17,13.2,10.03,17,10.03C20.83,10.03,23.97,13.16,23.97,17C23.97,20.8,20.84,23.97,17,23.97C13.2,23.97,10.03,20.8,10.03,17Z" fill="currentColor"/><path d="M15.97,21.03C15.97,21.66,16.3,22,16.9,22L17,22C17.63,22,17.97,21.67,17.97,21.07L17.97,18L21.07,18C21.67,18,22,17.67,22,17.03L22,16.93C22,16.33,21.67,16,21.03,16L17.96,16L17.96,12.97C17.96,12.34,17.63,12,17.03,12L16.93,12C16.3,12,15.96,12.33,15.96,12.93L15.96,16L12.93,16C12.33,16,12,16.33,12,16.97L12,17.07C12,17.67,12.33,18,12.97,18L15.97,18Z" fill="currentColor"/></svg>