<svg xmlns="http://www.w3.org/2000/svg" viewBox="0 0 24 24" fill="currentColor"><path d="M11.88,12.57C11.88,11.8,12.18,11.45,12.93,11.3C12.98,11.3,13.02,11.3,13.08,11.32C13.83,11.45,14.13,11.79,14.13,12.57L14.13,13.7L11.88,13.7ZM12.02,10.5C11.27,10.5,10.65,9.68,10.65,8.7C10.65,7.5,12.15,5.63,13,4.45C13.92,5.63,15.35,7.5,15.35,8.7C15.35,9.68,14.73,10.5,13.97,10.5L13.67,10.5C14.1,9.5,13.75,8.7,12.98,7.9C12.23,8.7,11.9,9.5,12.32,10.5ZM17.6,20.5L8.22,20.5C7.57,20.5,7.27,20.2,7.15,19.45L6.7,16.5C6.6,15.85,6.85,15.53,7.58,15.3C11.38,14.33,14.8,14.35,18.58,15.4C19.2,15.57,19.41,15.95,19.28,16.7L18.83,19.6C18.73,20.25,18.38,20.5,17.6,20.5Z"/></svg>