<svg xmlns="http://www.w3.org/2000/svg" viewBox="0 0 24 24"><path d="M15.83,7L8.33,7C6.5,7,4.6,6.1,4.6,3.87C4.6,2.04,5.93,0.84,7.8,0.84C10.07,0.84,11.73,2.87,12.5,5.97L11.53,5.97C12.33,2.84,14.03,0.84,16.26,0.84C18.13,0.84,19.39,2.11,19.39,3.87C19.39,6.1,17.49,7,15.82,7Z" fill="currentColor"/><path d="M5.67,22C3.67,22,3,21.33,3,19.33L3,16L11,16L11,22Z" fill="currentColor"/><path d="M3,11.67C3,9.67,3.67,9,5.67,9L11,9L11,14L3,14Z" fill="currentColor"/><path d="M13,22L13,16L21,16L21,19.33C21,21.33,20.33,22,18.33,22Z" fill="currentColor"/><path d="M13,14L13,9L18.33,9C20.33,9,21,9.67,21,11.67L21,14Z" fill="currentColor"/><path d="M13.37,5.97L10.74,5.97C10.01,3.5,9.07,2.57,7.91,2.57C7.11,2.57,6.38,3,6.38,3.87C6.38,5.04,7.65,5.24,8.35,5.24L15.85,5.24C16.38,5.24,17.65,5.04,17.65,3.87C17.65,3,16.92,2.57,16.18,2.57C15.11,2.57,14.05,3.5,13.38,5.97Z" fill="currentColor"/></svg>