<svg xmlns="http://www.w3.org/2000/svg" viewBox="0 0 24 24" fill="currentColor"><path d="M15.87,9.25L10.25,9.25C8.87,9.25,7.45,8.57,7.45,6.9C7.45,5.53,8.45,4.63,9.85,4.63C11.55,4.63,12.8,6.15,13.37,8.48L12.65,8.48C13.25,6.13,14.52,4.63,16.2,4.63C17.6,4.63,18.54,5.58,18.54,6.9C18.54,8.57,17.12,9.25,15.86,9.25ZM8.25,20.5C6.75,20.5,6.25,20,6.25,18.5L6.25,16L12.25,16L12.25,20.5ZM6.25,12.75C6.25,11.25,6.75,10.75,8.25,10.75L12.25,10.75L12.25,14.5L6.25,14.5ZM13.75,20.5L13.75,16L19.75,16L19.75,18.5C19.75,20,19.25,20.5,17.75,20.5ZM13.75,14.5L13.75,10.75L17.75,10.75C19.25,10.75,19.75,11.25,19.75,12.75L19.75,14.5ZM14.03,8.48L12.06,8.48C11.51,6.63,10.8,5.93,9.93,5.93C9.33,5.93,8.79,6.25,8.79,6.9C8.79,7.78,9.74,7.93,10.26,7.93L15.89,7.93C16.29,7.93,17.24,7.78,17.24,6.9C17.24,6.25,16.69,5.93,16.14,5.93C15.33,5.93,14.54,6.63,14.04,8.48Z"/></svg>