<svg xmlns="http://www.w3.org/2000/svg" viewBox="0 0 24 24" fill="currentColor"><path d="M7.62,20.42L5.28,21.7C4.4,22.17,4.1,21.38,4.32,20.93L5.37,18.88C5.72,18.2,5.67,17.68,5.2,17.08C4.45,15.9,4.02,14.53,4.02,13.01C4.02,8.51,7.85,5.13,13,5.13C18.15,5.13,21.98,8.51,21.98,13.01C21.98,17.51,18.15,20.88,13,20.88C11.78,20.88,10.62,20.68,9.57,20.33C8.84,20.04,8.3,20.09,7.62,20.43ZM7.92,10.98L8.52,15.3C8.6,15.75,8.88,16.05,9.29,16.15C11.85,16.7,14.19,16.7,16.74,16.15C17.17,16.05,17.44,15.75,17.52,15.3L18.12,10.98C18.21,10.35,17.97,10.2,17.44,10.55L14.97,12.27L13.39,8.77C13.14,8.22,12.84,8.22,12.59,8.79L11.07,12.27L8.59,10.54C8.07,10.19,7.82,10.34,7.92,10.97Z"/></svg>