<svg xmlns="http://www.w3.org/2000/svg" viewBox="0 0 24 24"><path d="M21.33,22L2.66,22C0.66,22,-0.01,21.33,-0.01,19.33L-0.01,12.93C-0.01,12.33,0.16,11.7,0.42,11.16L4.42,3.26C4.92,2.36,5.49,1.99,6.52,1.99L17.45,1.99C18.48,1.99,19.05,2.36,19.55,3.26L23.55,11.16C23.82,11.69,23.98,12.33,23.98,12.93L23.98,19.33C23.98,21.33,23.31,22,21.31,22Z" fill="currentColor"/><path d="M8,13.43L8,13.56C8,14.59,8.4,14.99,9.43,14.99L14.56,14.99C15.59,14.99,15.99,14.59,15.99,13.56L15.99,13.43C15.99,12.4,16.39,12,17.42,12L21.75,12L17.65,4L6.32,4L2.22,12L6.55,12C7.58,12,7.98,12.4,7.98,13.43Z" fill="currentColor"/></svg>