<svg xmlns="http://www.w3.org/2000/svg" viewBox="0 0 24 24" fill="currentColor"><path d="M7.62,20.42L5.28,21.7C4.4,22.17,4.1,21.38,4.32,20.93L5.37,18.88C5.72,18.2,5.67,17.68,5.2,17.08C4.45,15.9,4.02,14.53,4.02,13.01C4.02,11.36,4.53,9.87,5.43,8.64L16.94,20.15C15.76,20.62,14.43,20.88,13,20.88C11.78,20.88,10.62,20.68,9.57,20.33C8.84,20.04,8.3,20.09,7.62,20.43ZM20.59,21.65C20.56,21.62,20.54,21.58,20.5,21.55L4.5,5.55C4.47,5.52,4.43,5.49,4.39,5.46C4.16,5.16,4.19,4.85,4.48,4.56L4.56,4.48C4.88,4.16,5.23,4.16,5.55,4.48L7.65,6.58C9.12,5.66,10.96,5.13,13,5.13C18.15,5.13,21.98,8.5,21.98,13C21.98,15.18,21.08,17.1,19.57,18.49L21.55,20.47C21.87,20.79,21.87,21.15,21.55,21.47L21.47,21.54C21.19,21.83,20.88,21.87,20.59,21.64Z"/></svg>