<svg xmlns="http://www.w3.org/2000/svg" viewBox="0 0 24 24"><path d="M4.49,20.21C5.41,19.49,7.1,19.31,8.12,19.82C9.16,20.27,10.42,20.5,12.01,20.5C17.92,20.5,22.01,16.89,22.01,12C22.01,7.11,17.92,3.5,12.01,3.5C6.1,3.5,2.01,7.11,2.01,12C2.01,13.56,2.46,15.03,3.22,16.45C3.8,17.42,3.79,19.05,3.13,20.11L2.15,21.59C1.78,22.16,1.82,22.19,2.32,21.82Z" fill="currentColor"/><path d="M3.5,23.43C1.3,25.06,-1,22.76,0.47,20.5L1.44,19.03C1.77,18.5,1.77,17.93,1.47,17.43C0.6,15.8,0,13.86,0,12C0,6,5.13,1.5,12,1.5C18.87,1.5,24,6,24,12C24,18,18.87,22.5,12,22.5C10.23,22.5,8.57,22.2,7.27,21.63C6.74,21.36,6.17,21.43,5.7,21.8Z" fill="currentColor"/></svg>