<svg xmlns="http://www.w3.org/2000/svg" viewBox="0 0 24 24" fill="currentColor"><path d="M7.62,20.42L5.28,21.7C4.4,22.17,4.1,21.38,4.32,20.93L5.37,18.88C5.72,18.2,5.67,17.68,5.2,17.08C4.45,15.9,4.02,14.53,4.02,13.01C4.02,8.51,7.85,5.13,13,5.13C18.15,5.13,21.98,8.51,21.98,13.01C21.98,17.51,18.15,20.88,13,20.88C11.78,20.88,10.62,20.68,9.57,20.33C8.84,20.04,8.3,20.09,7.62,20.43ZM9.1,16.83C9.7,17.43,10.15,17.45,10.7,16.9L13,14.6L15.3,16.9C15.85,17.45,16.3,17.4,16.9,16.8L16.9,16.8C17.45,16.26,17.4,15.81,16.8,15.21L14.61,13.01L16.83,10.81C17.43,10.21,17.48,9.76,16.93,9.21L16.91,9.19C16.31,8.59,15.86,8.57,15.31,9.12L13.01,11.42L10.7,9.12C10.16,8.57,9.71,8.61,9.11,9.21L9.11,9.21C8.56,9.76,8.6,10.21,9.21,10.81L11.4,13.01L9.17,15.21C8.57,15.81,8.52,16.26,9.08,16.8Z"/></svg>