<svg xmlns="http://www.w3.org/2000/svg" viewBox="0 0 24 24" fill="currentColor"><path d="M19,20.45C18.53,20.2,18.15,20.17,17.65,20.37C16.92,20.62,16.13,20.75,15.25,20.75C12.65,20.75,10.54,19.52,9.56,17.67C9.96,17.72,10.35,17.75,10.75,17.75C15.04,17.75,18.5,14.72,18.5,10.75C18.5,10.65,18.5,10.56,18.49,10.46C20.34,11.4,21.52,13.16,21.52,15.25C21.52,16.3,21.24,17.27,20.69,18.1C20.37,18.53,20.34,18.87,20.6,19.37L21.32,20.8C21.47,21.1,21.27,21.68,20.65,21.35ZM10.75,16.25C10.15,16.25,9.58,16.18,9.03,16.06C9,15.8,8.97,15.53,8.97,15.25C8.97,12.1,11.65,9.72,15.25,9.72C15.84,9.72,16.41,9.78,16.94,9.9C16.98,10.17,17,10.46,17,10.74C17,13.89,14.33,16.24,10.76,16.24ZM7,15.95L5.35,16.85C4.73,17.17,4.52,16.6,4.67,16.3L5.4,14.88C5.65,14.37,5.63,14.03,5.3,13.6C4.76,12.78,4.48,11.8,4.48,10.75C4.48,7.6,7.16,5.22,10.76,5.22C14.36,5.22,17.03,7.6,17.03,10.75C17.03,13.9,14.36,16.25,10.76,16.25C9.91,16.25,9.08,16.12,8.36,15.87C7.85,15.67,7.48,15.7,7.01,15.95Z"/></svg>