<svg xmlns="http://www.w3.org/2000/svg" viewBox="0 0 24 24"><path d="M4.49,20.21C5.41,19.49,7.1,19.31,8.12,19.82C9.16,20.27,10.42,20.5,12.01,20.5C17.92,20.5,22.01,16.89,22.01,12C22.01,7.11,17.92,3.5,12.01,3.5C6.1,3.5,2.01,7.11,2.01,12C2.01,13.56,2.46,15.03,3.22,16.45C3.8,17.42,3.79,19.05,3.13,20.11L2.15,21.59C1.78,22.16,1.82,22.19,2.32,21.82Z" fill="currentColor"/><path d="M3.5,23.43C1.3,25.06,-1,22.76,0.47,20.5L1.44,19.03C1.77,18.5,1.77,17.93,1.47,17.43C0.6,15.8,0,13.86,0,12C0,6,5.13,1.5,12,1.5C18.87,1.5,24,6,24,12C24,18,18.87,22.5,12,22.5C10.23,22.5,8.57,22.2,7.27,21.63C6.74,21.36,6.17,21.43,5.7,21.8Z" fill="currentColor"/><path d="M6.9,8.04C6.9,8.64,7.2,8.97,7.7,8.97L16.17,8.97C16.77,8.97,17.1,8.67,17.1,8.17L17.1,7.9C17.1,7.3,16.83,6.97,16.3,6.97L7.83,6.97C7.23,6.97,6.9,7.24,6.9,7.77Z" fill="currentColor"/><path d="M6.9,16.04C6.9,16.64,7.2,16.97,7.7,16.97L12.77,16.97C13.37,16.97,13.7,16.67,13.7,16.17L13.7,15.9C13.7,15.3,13.43,14.97,12.9,14.97L7.83,14.97C7.23,14.97,6.9,15.24,6.9,15.77Z" fill="currentColor"/><path d="M6.9,12.04C6.9,12.64,7.2,12.97,7.7,12.97L16.17,12.97C16.77,12.97,17.1,12.67,17.1,12.17L17.1,11.9C17.1,11.3,16.83,10.97,16.3,10.97L7.83,10.97C7.23,10.97,6.9,11.24,6.9,11.77Z" fill="currentColor"/></svg>