<svg xmlns="http://www.w3.org/2000/svg" viewBox="0 0 24 24" fill="currentColor"><path d="M4,7.47C4,5.97,4.5,5.47,6,5.47L17,5.47C18.5,5.47,19.01,5.97,19.01,7.47L19.01,7.89L13.29,11.31C13.06,11.43,12.84,11.56,12.63,11.7L12.43,11.82C11.75,12.22,11.25,12.22,10.58,11.82L4,7.89ZM4,9.77L9.77,13.19C10.14,13.41,10.47,13.57,10.79,13.67C10.29,14.55,10.01,15.59,10.01,16.74C10.01,17,10.02,17.24,10.04,17.49L6,17.49C4.5,17.49,4,16.99,4,15.49ZM16.75,11.52C19.62,11.52,21.98,13.87,21.98,16.75C21.98,19.6,19.63,21.98,16.75,21.98C13.9,21.98,11.52,19.6,11.52,16.75C11.52,13.88,13.9,11.52,16.75,11.52ZM16.13,16.93C16.18,17.28,16.33,17.4,16.71,17.4L16.8,17.4C17.18,17.4,17.33,17.27,17.38,16.93L17.75,14.25C17.85,13.56,17.63,13.28,16.88,13.28L16.63,13.28C15.88,13.28,15.66,13.56,15.75,14.25ZM16.75,18.33C16.2,18.33,15.85,18.68,15.85,19.23C15.85,19.77,16.2,20.13,16.75,20.13C17.3,20.13,17.65,19.77,17.65,19.23C17.65,18.68,17.3,18.33,16.75,18.33Z"/></svg>