<svg xmlns="http://www.w3.org/2000/svg" viewBox="0 0 24 24" fill="currentColor"><path d="M7.62,20.42L5.28,21.7C4.4,22.17,4.1,21.38,4.32,20.93L5.37,18.88C5.72,18.2,5.67,17.68,5.2,17.08C4.45,15.9,4.02,14.53,4.02,13.01C4.02,8.51,7.85,5.13,13,5.13C18.15,5.13,21.98,8.51,21.98,13.01C21.98,17.51,18.15,20.88,13,20.88C11.78,20.88,10.62,20.68,9.57,20.33C8.84,20.04,8.3,20.09,7.62,20.43ZM11.88,17.15C11.88,17.95,12.18,18.25,12.95,18.25L13.02,18.25C13.83,18.25,14.13,17.95,14.13,17.18L14.13,14.13L17.18,14.13C17.95,14.13,18.25,13.83,18.25,13.02L18.25,12.95C18.25,12.18,17.95,11.88,17.15,11.88L14.13,11.88L14.13,8.85C14.13,8.05,13.83,7.75,13.05,7.75L12.98,7.75C12.18,7.75,11.88,8.05,11.88,8.82L11.88,11.88L8.82,11.88C8.05,11.88,7.75,12.18,7.75,12.98L7.75,13.05C7.75,13.83,8.05,14.13,8.85,14.13L11.88,14.13Z"/></svg>