<svg xmlns="http://www.w3.org/2000/svg" viewBox="0 0 24 24"><path d="M4.83,21.9L1.7,23.6C0.53,24.23,0.13,23.17,0.43,22.57L1.83,19.84C2.3,18.94,2.23,18.24,1.6,17.44C0.6,15.87,0.03,14.04,0.03,12.01C0.03,6.01,5.13,1.51,12,1.51C18.87,1.51,23.97,6.01,23.97,12.01C23.97,18.01,18.87,22.51,12,22.51C10.37,22.51,8.83,22.24,7.43,21.78C6.46,21.38,5.73,21.45,4.83,21.91Z" fill="currentColor"/><path d="M6.8,17.1C7.6,17.9,8.2,17.93,8.93,17.2L12,14.13L15.07,17.2C15.8,17.93,16.4,17.87,17.2,17.07L17.2,17.07C17.93,16.34,17.87,15.74,17.07,14.94L14.14,12.01L17.11,9.08C17.91,8.28,17.98,7.68,17.24,6.95L17.21,6.92C16.41,6.12,15.81,6.09,15.08,6.82L12.01,9.89L8.94,6.82C8.21,6.09,7.61,6.15,6.81,6.95L6.81,6.95C6.08,7.68,6.14,8.28,6.94,9.08L9.87,12.01L6.9,14.94C6.1,15.74,6.03,16.34,6.77,17.07Z" fill="currentColor"/></svg>