<svg xmlns="http://www.w3.org/2000/svg" viewBox="0 0 24 24"><path d="M3,16.6C3,18.6,3.4,19,5.4,19L18.6,19C20.6,19,21,18.6,21,16.6L21,7.37C21,5.37,20.6,4.97,18.6,4.97L5.4,4.97C3.4,4.97,3,5.37,3,7.37Z" fill="currentColor"/><path d="M5,21C2.53,21,1,19.47,1,17L1,6.97C1,4.5,2.53,2.97,5,2.97L19,2.97C21.47,2.97,23,4.5,23,6.97L23,17C23,19.47,21.47,21,19,21Z" fill="currentColor"/><path d="M21,6.63L23,6.63L23,9.06L14.1,13.83C12.37,14.76,11.63,14.76,9.9,13.83L1,9.06L1,6.63L3,6.63L3,7.86L12,12.69L21,7.86Z" fill="currentColor"/></svg>