<svg xmlns="http://www.w3.org/2000/svg" viewBox="0 0 24 24"><path d="M0,4.63C0,2.63,0.67,1.96,2.67,1.96L17.34,1.96C19.34,1.96,20.01,2.63,20.01,4.63L20.01,5.19L12.38,9.75C12.08,9.91,11.79,10.08,11.51,10.27L11.24,10.43C10.34,10.96,9.67,10.96,8.77,10.43L0,5.19Z" fill="currentColor"/><path d="M0,7.69L7.7,12.26C8.19,12.55,8.63,12.76,9.06,12.89C8.39,14.07,8.01,15.45,8.01,16.99C8.01,17.33,8.03,17.66,8.06,17.99L2.67,17.99C0.67,17.99,0,17.32,0,15.32Z" fill="currentColor"/><path d="M10.03,17C10.03,13.17,13.2,10.03,17,10.03C20.83,10.03,23.97,13.16,23.97,17C23.97,20.8,20.84,23.97,17,23.97C13.2,23.97,10.03,20.8,10.03,17Z" fill="currentColor"/><path d="M16.17,17.24C16.24,17.71,16.44,17.87,16.94,17.87L17.07,17.87C17.57,17.87,17.77,17.7,17.84,17.24L18.34,13.67C18.47,12.74,18.17,12.37,17.17,12.37L16.84,12.37C15.84,12.37,15.54,12.74,15.67,13.67Z" fill="currentColor"/><path d="M18.2,20.3C18.2,19.57,17.73,19.1,17,19.1C16.27,19.1,15.8,19.57,15.8,20.3C15.8,21.03,16.27,21.5,17,21.5C17.73,21.5,18.2,21.03,18.2,20.3Z" fill="currentColor"/></svg>