<svg xmlns="http://www.w3.org/2000/svg" viewBox="0 0 24 24"><path d="M4.83,21.9L1.7,23.6C0.53,24.23,0.13,23.17,0.43,22.57L1.83,19.84C2.3,18.94,2.23,18.24,1.6,17.44C0.6,15.87,0.03,14.04,0.03,12.01C0.03,6.01,5.13,1.51,12,1.51C18.87,1.51,23.97,6.01,23.97,12.01C23.97,18.01,18.87,22.51,12,22.51C10.37,22.51,8.83,22.24,7.43,21.78C6.46,21.38,5.73,21.45,4.83,21.91Z" fill="currentColor"/><path d="M11.93,13.63C16.43,13.63,17.5,11.1,17.5,9.4C17.5,6.4,15,4.83,12.33,4.83C10.03,4.83,8.3,6.1,7.4,6.93C6.93,7.46,6.9,7.86,7.33,8.4L7.96,9.17C8.43,9.74,8.79,9.74,9.26,9.24C9.93,8.64,11.09,7.84,12.43,7.84C13.43,7.84,14.5,8.21,14.5,9.44C14.5,10.51,13.63,10.64,11.93,10.64L11.53,10.64C10.8,10.64,10.53,10.91,10.53,11.61L10.53,12.64C10.53,13.37,10.8,13.64,11.5,13.64Z" fill="currentColor"/><path d="M13.83,17C13.83,15.87,13.13,15.17,12,15.17C10.87,15.17,10.17,15.87,10.17,17C10.17,18.13,10.87,18.83,12,18.83C13.13,18.83,13.83,18.13,13.83,17Z" fill="currentColor"/></svg>