<svg xmlns="http://www.w3.org/2000/svg" viewBox="0 0 24 24" fill="currentColor"><path d="M9.44,19.75L15.12,14.07L21.25,9.34L21.25,17C21.25,18.8,20.31,19.75,18.5,19.75ZM4.98,7.63C5.36,6.7,6.21,6.23,7.5,6.23L18.5,6.23C18.57,6.23,18.64,6.23,18.7,6.23L20.46,4.48C20.78,4.16,21.13,4.16,21.45,4.48L21.53,4.55C21.82,4.85,21.85,5.16,21.62,5.46C21.58,5.48,21.54,5.51,21.51,5.55L5.51,21.55C5.48,21.58,5.45,21.62,5.42,21.65C5.13,21.87,4.82,21.83,4.53,21.55L4.46,21.47C4.14,21.15,4.14,20.8,4.46,20.48L5.68,19.25C5.07,18.8,4.76,18.05,4.76,17L4.76,9.33L10.87,14.07L11.91,13.04Z"/></svg>