<svg xmlns="http://www.w3.org/2000/svg" viewBox="0 0 24 24" fill="currentColor"><path d="M7.62,20.42L5.28,21.7C4.4,22.17,4.1,21.38,4.32,20.93L5.37,18.88C5.72,18.2,5.67,17.68,5.2,17.08C4.45,15.9,4.02,14.53,4.02,13.01C4.02,8.51,7.85,5.13,13,5.13C18.15,5.13,21.98,8.51,21.98,13.01C21.98,17.51,18.15,20.88,13,20.88C11.78,20.88,10.62,20.68,9.57,20.33C8.84,20.04,8.3,20.09,7.62,20.43ZM8.22,13.95L11.05,16.78C11.6,17.33,12,17.33,12.55,16.78L17.97,11.33C18.52,10.8,18.5,10.38,17.95,9.83L17.9,9.75C17.35,9.21,16.92,9.21,16.38,9.75L11.8,14.33L9.83,12.36C9.28,11.81,8.85,11.83,8.3,12.38L8.23,12.43C7.68,12.98,7.68,13.4,8.23,13.95Z"/></svg>