<svg xmlns="http://www.w3.org/2000/svg" viewBox="0 0 24 24" fill="currentColor"><path d="M7.62,20.42L5.28,21.7C4.4,22.17,4.1,21.38,4.32,20.93L5.37,18.88C5.72,18.2,5.67,17.68,5.2,17.08C4.45,15.9,4.02,14.53,4.02,13.01C4.02,8.51,7.85,5.13,13,5.13C18.15,5.13,21.98,8.51,21.98,13.01C21.98,17.51,18.15,20.88,13,20.88C11.78,20.88,10.62,20.68,9.57,20.33C8.84,20.04,8.3,20.09,7.62,20.43ZM9.5,17.48L16.5,17.48C16.5,16.28,15.77,15.65,15.09,15.08C14.44,14.55,13.84,14.05,13.84,13.05L13.84,12.6L14.81,12.6C14.94,12.4,14.99,12.15,14.99,11.91L13.84,11.18C14.39,10.82,14.66,10.33,14.66,9.75C14.66,8.83,13.91,8.08,12.99,8.08C12.07,8.08,11.32,8.83,11.32,9.75C11.32,10.33,11.6,10.82,12.14,11.2L11,11.9C11,12.14,11.05,12.4,11.17,12.59L12.14,12.59L12.14,13.04C12.14,14.04,11.54,14.54,10.89,15.07C10.22,15.65,9.49,16.27,9.49,17.47Z"/></svg>