<svg xmlns="http://www.w3.org/2000/svg" viewBox="0 0 24 24"><path d="M4.83,21.9L1.7,23.6C0.53,24.23,0.13,23.17,0.43,22.57L1.83,19.84C2.3,18.94,2.23,18.24,1.6,17.44C0.6,15.87,0.03,14.04,0.03,12.01C0.03,6.01,5.13,1.51,12,1.51C18.87,1.51,23.97,6.01,23.97,12.01C23.97,18.01,18.87,22.51,12,22.51C10.37,22.51,8.83,22.24,7.43,21.78C6.46,21.38,5.73,21.45,4.83,21.91Z" fill="currentColor"/><path d="M10.5,17.53C10.5,18.6,10.9,19,11.93,19L12.03,19C13.1,19,13.5,18.6,13.5,17.57L13.5,13.5L17.57,13.5C18.6,13.5,19,13.1,19,12.03L19,11.93C19,10.9,18.6,10.5,17.53,10.5L13.5,10.5L13.5,6.47C13.5,5.4,13.1,5,12.07,5L11.97,5C10.9,5,10.5,5.4,10.5,6.43L10.5,10.5L6.43,10.5C5.4,10.5,5,10.9,5,11.97L5,12.07C5,13.1,5.4,13.5,6.47,13.5L10.5,13.5Z" fill="currentColor"/></svg>