<svg xmlns="http://www.w3.org/2000/svg" viewBox="0 0 24 24"><path d="M4.2,3.67C4.93,2.94,5.77,2.94,6.3,3.44C6.73,3.87,6.77,4.47,6.3,5.21L8.57,6.84L10.77,3.94L10.44,3.94C9.67,3.94,9.31,3.37,9.31,2.77C9.31,2.17,9.84,1.64,10.44,1.64L10.87,1.64L10.87,1.21C10.87,0.48,11.4,0.01,12,0.01C12.6,0.01,13.13,0.48,13.13,1.21L13.13,1.64L13.56,1.64C14.16,1.64,14.69,2.17,14.69,2.77C14.69,3.37,14.32,3.94,13.56,3.94L13.23,3.94L15.43,6.84L17.66,5.24C17.19,4.51,17.23,3.87,17.69,3.44C18.22,2.94,19.06,2.94,19.82,3.67L17.99,10L5.99,10Z" fill="currentColor"/><path d="M7.33,17C7.33,16.27,6.73,15.67,6,15.67C5.27,15.67,4.67,16.27,4.67,17C4.67,17.73,5.27,18.33,6,18.33C6.73,18.33,7.33,17.73,7.33,17Z" fill="currentColor"/><path d="M9,17.06C9,17.66,9.33,17.99,9.93,17.99L18.06,17.99C18.66,17.99,18.99,17.66,18.99,17.06L18.99,16.93C18.99,16.33,18.66,16,18.06,16L9.93,16C9.33,16,9,16.33,9,16.93Z" fill="currentColor"/><path d="M4.03,23.03L3.5,23.6C2.73,24.4,2,23.83,2,23.2L2,16.97C2,13.3,3.3,12,6.97,12L17.04,12C20.71,12,22.01,13.3,22.01,16.97L22.01,17.04C22.01,20.71,20.71,22.01,17.04,22.01L6.44,22.01C5.41,22.01,4.74,22.31,4.04,23.04Z" fill="currentColor"/></svg>