<svg xmlns="http://www.w3.org/2000/svg" viewBox="0 0 24 24" fill="currentColor"><path d="M7.62,20.42L5.28,21.7C4.4,22.17,4.1,21.38,4.32,20.93L5.37,18.88C5.72,18.2,5.67,17.68,5.2,17.08C4.45,15.9,4.02,14.53,4.02,13.01C4.02,8.51,7.85,5.13,13,5.13C18.15,5.13,21.98,8.51,21.98,13.01C21.98,17.51,18.15,20.88,13,20.88C11.78,20.88,10.62,20.68,9.57,20.33C8.84,20.04,8.3,20.09,7.62,20.43ZM18.83,13.02C18.83,9.8,16.23,7.2,13,7.2C9.77,7.2,7.17,9.8,7.17,13.02C7.17,16.25,9.78,18.85,13,18.85C16.23,18.85,18.83,16.25,18.83,13.02ZM8.78,13.78L10.45,13.78C10.55,14.85,10.77,15.93,11.25,16.95C9.93,16.38,8.98,15.2,8.78,13.78ZM13,17.13C12.38,16.05,12.05,14.93,11.93,13.77L14.08,13.77C13.95,14.92,13.63,16.05,13.01,17.13ZM8.78,12.27C9,10.82,9.96,9.65,11.25,9.07C10.8,10.1,10.55,11.19,10.45,12.27ZM14.75,16.95C15.22,15.92,15.44,14.85,15.55,13.78L17.25,13.78C17.03,15.2,16.07,16.38,14.75,16.95ZM14.07,12.27L11.92,12.27C12.05,11.09,12.37,10,12.99,8.92C13.61,9.99,13.94,11.09,14.06,12.27ZM17.25,12.27L15.55,12.27C15.45,11.17,15.2,10.1,14.75,9.05C16.08,9.65,17.02,10.83,17.25,12.27Z"/></svg>