<svg xmlns="http://www.w3.org/2000/svg" viewBox="0 0 24 24" fill="currentColor"><path d="M7.62,20.42L5.28,21.7C4.4,22.17,4.1,21.38,4.32,20.93L5.37,18.88C5.72,18.2,5.67,17.68,5.2,17.08C4.45,15.9,4.02,14.53,4.02,13.01C4.02,8.51,7.85,5.13,13,5.13C18.15,5.13,21.98,8.51,21.98,13.01C21.98,17.51,18.15,20.88,13,20.88C11.78,20.88,10.62,20.68,9.57,20.33C8.84,20.04,8.3,20.09,7.62,20.43ZM19.1,13C19.1,12.08,18.42,11.4,17.5,11.4C16.58,11.4,15.9,12.08,15.9,13C15.9,13.92,16.58,14.6,17.5,14.6C18.42,14.6,19.1,13.92,19.1,13ZM10.1,13C10.1,12.08,9.42,11.4,8.5,11.4C7.58,11.4,6.9,12.08,6.9,13C6.9,13.92,7.58,14.6,8.5,14.6C9.42,14.6,10.1,13.92,10.1,13ZM14.6,13C14.6,12.08,13.92,11.4,13,11.4C12.08,11.4,11.4,12.08,11.4,13C11.4,13.92,12.08,14.6,13,14.6C13.92,14.6,14.6,13.92,14.6,13Z"/></svg>