<svg xmlns="http://www.w3.org/2000/svg" viewBox="0 0 24 24"><path d="M7.26,21L14.83,13.43L23,7.12L23,17.33C23,19.74,21.75,21,19.33,21Z" fill="currentColor"/><path d="M1.31,4.84C1.82,3.6,2.95,2.97,4.67,2.97L19.34,2.97C19.43,2.97,19.52,2.97,19.6,2.98L21.94,0.64C22.37,0.21,22.84,0.21,23.27,0.64L23.37,0.74C23.76,1.13,23.8,1.55,23.49,1.94C23.44,1.98,23.39,2.02,23.34,2.07L2.01,23.4C1.97,23.44,1.93,23.49,1.89,23.53C1.5,23.83,1.09,23.78,0.71,23.4L0.61,23.3C0.18,22.87,0.18,22.4,0.61,21.97L2.24,20.34C1.42,19.74,1.01,18.73,1.01,17.34L1.01,7.11L9.16,13.43L10.54,12.05Z" fill="currentColor"/></svg>