<svg xmlns="http://www.w3.org/2000/svg" viewBox="0 0 24 24" fill="currentColor"><path d="M5.5,9.9L11.16,12.95C10.89,13.36,10.65,13.8,10.46,14.27L5.5,11.61L5.5,16.45C5.5,17.95,5.8,18.25,7.3,18.25L10.17,18.25C10.29,18.77,10.46,19.28,10.69,19.75L7,19.75C5.15,19.75,4,18.6,4,16.75L4,10.8L4,9.23L4,8.98C4.1,7.28,5.24,6.23,7,6.23L17.5,6.23C19.26,6.23,20.39,7.28,20.49,8.98L20.5,9.23L20.5,10.8L20.5,11.13C19.88,10.71,19.18,10.4,18.43,10.21L19,9.9L19,9.53C19,8.03,18.7,7.73,17.2,7.73L7.3,7.73C5.8,7.73,5.5,8.03,5.5,9.53ZM16.75,11.52C19.62,11.52,21.98,13.87,21.98,16.75C21.98,19.6,19.63,21.98,16.75,21.98C13.9,21.98,11.52,19.6,11.52,16.75C11.52,13.88,13.9,11.52,16.75,11.52ZM16.13,16.93C16.18,17.28,16.33,17.4,16.71,17.4L16.8,17.4C17.18,17.4,17.33,17.27,17.38,16.93L17.75,14.25C17.85,13.56,17.63,13.28,16.88,13.28L16.63,13.28C15.88,13.28,15.66,13.56,15.75,14.25ZM16.75,18.33C16.2,18.33,15.85,18.68,15.85,19.23C15.85,19.77,16.2,20.13,16.75,20.13C17.3,20.13,17.65,19.77,17.65,19.23C17.65,18.68,17.3,18.33,16.75,18.33Z"/></svg>