<svg xmlns="http://www.w3.org/2000/svg" viewBox="0 0 24 24" fill="currentColor"><path d="M6.25,16.45C6.25,17.95,6.55,18.25,8.05,18.25L17.95,18.25C19.45,18.25,19.75,17.95,19.75,16.45L19.75,9.53C19.75,8.03,19.45,7.73,17.95,7.73L8.05,7.73C6.55,7.73,6.25,8.03,6.25,9.53ZM7.75,19.75C5.9,19.75,4.75,18.6,4.75,16.75L4.75,9.23C4.75,7.38,5.9,6.23,7.75,6.23L18.25,6.23C20.1,6.23,21.25,7.38,21.25,9.23L21.25,16.75C21.25,18.6,20.1,19.75,18.25,19.75ZM19.75,8.97L21.25,8.97L21.25,10.79L14.58,14.37C13.28,15.07,12.72,15.07,11.43,14.37L4.75,10.79L4.75,8.97L6.25,8.97L6.25,9.89L13,13.52L19.75,9.89Z"/></svg>