<svg xmlns="http://www.w3.org/2000/svg" viewBox="0 0 24 24"><path d="M20,21.93C19.37,21.6,18.87,21.56,18.2,21.83C17.23,22.16,16.17,22.33,15,22.33C11.54,22.33,8.72,20.7,7.42,18.23C7.94,18.3,8.46,18.33,9,18.33C14.72,18.33,19.33,14.3,19.33,9C19.33,8.87,19.33,8.75,19.32,8.62C21.79,9.87,23.36,12.21,23.36,15C23.36,16.4,22.99,17.7,22.26,18.8C21.83,19.37,21.79,19.83,22.13,20.5L23.1,22.4C23.3,22.8,23.03,23.57,22.2,23.13Z" fill="currentColor"/><path d="M9,16.33C8.2,16.33,7.44,16.24,6.71,16.08C6.66,15.73,6.63,15.37,6.63,15C6.63,10.8,10.2,7.63,15,7.63C15.79,7.63,16.54,7.71,17.25,7.87C17.31,8.23,17.34,8.61,17.34,8.99C17.34,13.19,13.77,16.32,9.01,16.32Z" fill="currentColor"/><path d="M4,15.93L1.8,17.13C0.97,17.56,0.7,16.8,0.9,16.4L1.87,14.5C2.2,13.83,2.17,13.37,1.74,12.8C1.01,11.7,0.64,10.4,0.64,9C0.64,4.8,4.21,1.63,9.01,1.63C13.81,1.63,17.38,4.8,17.38,9C17.38,13.2,13.81,16.33,9.01,16.33C7.88,16.33,6.78,16.16,5.81,15.83C5.14,15.56,4.64,15.6,4.01,15.93Z" fill="currentColor"/></svg>