<svg xmlns="http://www.w3.org/2000/svg" viewBox="0 0 24 24"><path d="M4.83,21.9L1.7,23.6C0.53,24.23,0.13,23.17,0.43,22.57L1.83,19.84C2.3,18.94,2.23,18.24,1.6,17.44C0.6,15.87,0.03,14.04,0.03,12.01C0.03,6.01,5.13,1.51,12,1.51C18.87,1.51,23.97,6.01,23.97,12.01C23.97,18.01,18.87,22.51,12,22.51C10.37,22.51,8.83,22.24,7.43,21.78C6.46,21.38,5.73,21.45,4.83,21.91Z" fill="currentColor"/><path d="M7.33,17.97L16.66,17.97C16.66,16.37,15.69,15.54,14.79,14.77C13.92,14.07,13.12,13.4,13.12,12.07L13.12,11.47L14.42,11.47C14.59,11.2,14.65,10.87,14.65,10.54L13.12,9.57C13.85,9.1,14.22,8.44,14.22,7.67C14.22,6.44,13.22,5.44,11.99,5.44C10.76,5.44,9.76,6.44,9.76,7.67C9.76,8.44,10.13,9.1,10.86,9.6L9.33,10.53C9.33,10.86,9.4,11.2,9.56,11.46L10.86,11.46L10.86,12.06C10.86,13.39,10.06,14.06,9.19,14.76C8.29,15.53,7.32,16.36,7.32,17.96Z" fill="currentColor"/></svg>