<svg xmlns="http://www.w3.org/2000/svg" viewBox="0 0 24 24"><path d="M4.83,21.9L1.7,23.6C0.53,24.23,0.13,23.17,0.43,22.57L1.83,19.84C2.3,18.94,2.23,18.24,1.6,17.44C0.6,15.87,0.03,14.04,0.03,12.01C0.03,6.01,5.13,1.51,12,1.51C18.87,1.51,23.97,6.01,23.97,12.01C23.97,18.01,18.87,22.51,12,22.51C10.37,22.51,8.83,22.24,7.43,21.78C6.46,21.38,5.73,21.45,4.83,21.91Z" fill="currentColor"/><path d="M19.77,12.03C19.77,7.73,16.3,4.26,12,4.26C7.7,4.26,4.23,7.73,4.23,12.03C4.23,16.33,7.7,19.8,12,19.8C16.3,19.8,19.77,16.33,19.77,12.03Z" fill="currentColor"/><path d="M6.37,13.04L8.6,13.04C8.73,14.47,9.03,15.91,9.67,17.27C7.9,16.5,6.64,14.94,6.37,13.04Z" fill="currentColor"/><path d="M12,17.5C11.17,16.07,10.73,14.57,10.57,13.03L13.44,13.03C13.27,14.56,12.84,16.06,12.01,17.5Z" fill="currentColor"/><path d="M6.37,11.03C6.67,9.1,7.94,7.53,9.67,6.76C9.07,8.13,8.74,9.59,8.6,11.03Z" fill="currentColor"/><path d="M14.33,17.27C14.96,15.9,15.26,14.47,15.4,13.04L17.67,13.04C17.37,14.94,16.1,16.51,14.34,17.27Z" fill="currentColor"/><path d="M13.43,11.03L10.56,11.03C10.73,9.46,11.16,8,11.99,6.56C12.82,7.99,13.26,9.46,13.42,11.03Z" fill="currentColor"/><path d="M17.67,11.03L15.4,11.03C15.27,9.56,14.93,8.13,14.33,6.73C16.1,7.53,17.36,9.1,17.66,11.03Z" fill="currentColor"/></svg>