<svg xmlns="http://www.w3.org/2000/svg" viewBox="0 0 24 24" fill="currentColor"><path d="M7.37,19.16C8.06,18.62,9.32,18.48,10.09,18.87C10.87,19.2,11.82,19.38,13.01,19.38C17.44,19.38,20.51,16.67,20.51,13C20.51,9.33,17.44,6.63,13.01,6.63C8.58,6.63,5.51,9.33,5.51,13C5.51,14.17,5.85,15.27,6.42,16.34C6.85,17.06,6.84,18.29,6.35,19.08L5.61,20.19C5.34,20.62,5.37,20.64,5.74,20.37ZM6.62,21.57C4.97,22.79,3.25,21.07,4.35,19.38L5.08,18.27C5.33,17.88,5.33,17.45,5.1,17.07C4.45,15.85,4,14.39,4,13C4,8.5,7.85,5.13,13,5.13C18.15,5.13,22,8.5,22,13C22,17.5,18.15,20.88,13,20.88C11.67,20.88,10.43,20.65,9.45,20.22C9.05,20.02,8.63,20.07,8.27,20.35Z"/></svg>