<svg xmlns="http://www.w3.org/2000/svg" viewBox="0 0 24 24"><path d="M4.83,21.9L1.7,23.6C0.53,24.23,0.13,23.17,0.43,22.57L1.83,19.84C2.3,18.94,2.23,18.24,1.6,17.44C0.6,15.87,0.03,14.04,0.03,12.01C0.03,9.82,0.71,7.83,1.91,6.19L11.09,15.37C10.5,15.65,10.17,16.23,10.17,17.01C10.17,18.14,10.87,18.84,12,18.84C12.79,18.84,13.36,18.5,13.64,17.92L17.25,21.53C15.68,22.16,13.91,22.51,12,22.51C10.37,22.51,8.83,22.24,7.43,21.78C6.46,21.38,5.73,21.45,4.83,21.91Z" fill="currentColor"/><path d="M22.12,23.53C22.08,23.49,22.05,23.44,22,23.4L0.67,2.07C0.62,2.02,0.57,1.98,0.52,1.94C0.21,1.54,0.25,1.13,0.64,0.74L0.74,0.64C1.17,0.21,1.64,0.21,2.07,0.64L4.87,3.44C6.83,2.21,9.28,1.5,12,1.5C18.87,1.5,23.97,6,23.97,12C23.97,14.91,22.77,17.46,20.76,19.32L23.4,21.96C23.83,22.39,23.83,22.86,23.4,23.29L23.3,23.39C22.92,23.77,22.51,23.82,22.12,23.52Z" fill="currentColor"/><path d="M7.92,6.49L10.06,8.63C10.71,8.21,11.53,7.84,12.44,7.84C13.44,7.84,14.51,8.21,14.51,9.44C14.51,10.48,13.69,10.63,12.08,10.64L14.67,13.23C16.9,12.45,17.51,10.69,17.51,9.4C17.51,6.4,15.01,4.83,12.34,4.83C10.42,4.83,8.9,5.71,7.93,6.48Z" fill="currentColor"/></svg>