<svg xmlns="http://www.w3.org/2000/svg" viewBox="0 0 24 24" fill="currentColor"><path d="M7.62,20.42L5.28,21.7C4.4,22.17,4.1,21.38,4.32,20.93L5.37,18.88C5.72,18.2,5.67,17.68,5.2,17.08C4.45,15.9,4.02,14.53,4.02,13.01C4.02,8.51,7.85,5.13,13,5.13C18.15,5.13,21.98,8.51,21.98,13.01C21.98,17.51,18.15,20.88,13,20.88C11.78,20.88,10.62,20.68,9.57,20.33C8.84,20.04,8.3,20.09,7.62,20.43ZM12.95,14.22C16.32,14.22,17.13,12.32,17.13,11.05C17.13,8.8,15.25,7.62,13.25,7.62C11.52,7.62,10.22,8.57,9.55,9.2C9.2,9.59,9.17,9.89,9.5,10.3L9.97,10.88C10.32,11.3,10.59,11.3,10.95,10.93C11.45,10.48,12.32,9.88,13.32,9.88C14.07,9.88,14.88,10.16,14.88,11.08C14.88,11.88,14.22,11.98,12.95,11.98L12.65,11.98C12.1,11.98,11.9,12.18,11.9,12.71L11.9,13.48C11.9,14.03,12.1,14.23,12.63,14.23ZM14.37,16.75C14.37,15.9,13.85,15.38,13,15.38C12.15,15.38,11.63,15.9,11.63,16.75C11.63,17.6,12.15,18.12,13,18.12C13.85,18.12,14.37,17.6,14.37,16.75Z"/></svg>