<svg xmlns="http://www.w3.org/2000/svg" viewBox="0 0 24 24" fill="currentColor"><path d="M7.15,6.75C7.7,6.21,8.33,6.21,8.72,6.58C9.05,6.9,9.08,7.35,8.72,7.91L10.43,9.13L12.08,6.96L11.83,6.96C11.25,6.96,10.98,6.53,10.98,6.08C10.98,5.63,11.38,5.23,11.83,5.23L12.15,5.23L12.15,4.91C12.15,4.36,12.55,4.01,13,4.01C13.45,4.01,13.85,4.36,13.85,4.91L13.85,5.23L14.17,5.23C14.62,5.23,15.02,5.63,15.02,6.08C15.02,6.53,14.74,6.96,14.17,6.96L13.92,6.96L15.57,9.13L17.24,7.93C16.89,7.38,16.92,6.9,17.27,6.58C17.66,6.21,18.29,6.21,18.86,6.75L17.49,11.5L8.49,11.5ZM8.5,15.75C7.95,15.75,7.5,16.2,7.5,16.75C7.5,17.3,7.95,17.75,8.5,17.75C9.05,17.75,9.5,17.3,9.5,16.75C9.5,16.2,9.05,15.75,8.5,15.75ZM10.75,16.79C10.75,17.25,11,17.49,11.45,17.49L17.55,17.49C18,17.49,18.24,17.25,18.24,16.79L18.24,16.7C18.24,16.25,18,16,17.55,16L11.45,16C11,16,10.75,16.25,10.75,16.7ZM7.02,21.27L6.62,21.7C6.05,22.3,5.5,21.87,5.5,21.4L5.5,16.73C5.5,13.98,6.47,13,9.23,13L16.78,13C19.53,13,20.51,13.98,20.51,16.73L20.51,16.78C20.51,19.53,19.53,20.51,16.78,20.51L8.83,20.51C8.06,20.51,7.55,20.73,7.03,21.28Z"/></svg>