<svg xmlns="http://www.w3.org/2000/svg" viewBox="0 0 24 24"><path d="M4.83,21.9L1.7,23.6C0.53,24.23,0.13,23.17,0.43,22.57L1.83,19.84C2.3,18.94,2.23,18.24,1.6,17.44C0.6,15.87,0.03,14.04,0.03,12.01C0.03,6.01,5.13,1.51,12,1.51C18.87,1.51,23.97,6.01,23.97,12.01C23.97,18.01,18.87,22.51,12,22.51C10.37,22.51,8.83,22.24,7.43,21.78C6.46,21.38,5.73,21.45,4.83,21.91Z" fill="currentColor"/><path d="M6.97,7L7.77,12.4C7.87,13.07,8.17,13.33,8.9,13.33L9.1,13.33C9.83,13.33,10.13,13.06,10.23,12.4L11.03,7C11.26,5.57,10.76,5,9.26,5L8.73,5C7.23,5,6.73,5.57,6.96,7Z" fill="currentColor"/><path d="M10.83,17C10.83,15.87,10.13,15.17,9,15.17C7.87,15.17,7.17,15.87,7.17,17C7.17,18.13,7.87,18.83,9,18.83C10.13,18.83,10.83,18.13,10.83,17Z" fill="currentColor"/><path d="M12.97,7L13.77,12.4C13.87,13.07,14.17,13.33,14.9,13.33L15.1,13.33C15.83,13.33,16.13,13.06,16.23,12.4L17.03,7C17.26,5.57,16.76,5,15.26,5L14.73,5C13.23,5,12.73,5.57,12.96,7Z" fill="currentColor"/><path d="M16.83,17C16.83,15.87,16.13,15.17,15,15.17C13.87,15.17,13.17,15.87,13.17,17C13.17,18.13,13.87,18.83,15,18.83C16.13,18.83,16.83,18.13,16.83,17Z" fill="currentColor"/></svg>