<svg xmlns="http://www.w3.org/2000/svg" viewBox="0 0 24 24"><path d="M2,7.87L9.55,11.93C9.18,12.48,8.87,13.07,8.62,13.69L2,10.14L2,16.6C2,18.6,2.4,19,4.4,19L8.22,19C8.38,19.7,8.62,20.37,8.92,21L4,21C1.53,21,0,19.47,0,17L0,9.07L0,6.97L0,6.64C0.14,4.37,1.65,2.97,4,2.97L18,2.97C20.35,2.97,21.86,4.37,21.99,6.64L22,6.97L22,9.07L22,9.5C21.17,8.95,20.24,8.53,19.24,8.28L20,7.87L20,7.37C20,5.37,19.6,4.97,17.6,4.97L4.4,4.97C2.4,4.97,2,5.37,2,7.37Z" fill="currentColor"/><path d="M10.03,17C10.03,13.17,13.2,10.03,17,10.03C20.83,10.03,23.97,13.16,23.97,17C23.97,20.8,20.84,23.97,17,23.97C13.2,23.97,10.03,20.8,10.03,17Z" fill="currentColor"/><path d="M16.17,17.24C16.24,17.71,16.44,17.87,16.94,17.87L17.07,17.87C17.57,17.87,17.77,17.7,17.84,17.24L18.34,13.67C18.47,12.74,18.17,12.37,17.17,12.37L16.84,12.37C15.84,12.37,15.54,12.74,15.67,13.67Z" fill="currentColor"/><path d="M18.2,20.3C18.2,19.57,17.73,19.1,17,19.1C16.27,19.1,15.8,19.57,15.8,20.3C15.8,21.03,16.27,21.5,17,21.5C17.73,21.5,18.2,21.03,18.2,20.3Z" fill="currentColor"/></svg>