<svg xmlns="http://www.w3.org/2000/svg" viewBox="0 0 24 24"><path d="M4.83,21.9L1.7,23.6C0.53,24.23,0.13,23.17,0.43,22.57L1.83,19.84C2.3,18.94,2.23,18.24,1.6,17.44C0.6,15.87,0.03,14.04,0.03,12.01C0.03,6.01,5.13,1.51,12,1.51C18.87,1.51,23.97,6.01,23.97,12.01C23.97,18.01,18.87,22.51,12,22.51C10.37,22.51,8.83,22.24,7.43,21.78C6.46,21.38,5.73,21.45,4.83,21.91Z" fill="currentColor"/><path d="M5.63,13.27L9.4,17.04C10.13,17.77,10.67,17.77,11.4,17.04L18.63,9.77C19.36,9.07,19.33,8.5,18.6,7.77L18.53,7.67C17.8,6.94,17.23,6.94,16.5,7.67L10.4,13.77L7.77,11.14C7.04,10.41,6.47,10.44,5.74,11.17L5.64,11.24C4.91,11.97,4.91,12.54,5.64,13.27Z" fill="currentColor"/></svg>