<svg xmlns="http://www.w3.org/2000/svg" viewBox="0 0 24 24" fill="currentColor"><path d="M20,20.5L5.99,20.5C4.49,20.5,3.99,20,3.99,18.5L3.99,13.7C3.99,13.25,4.12,12.77,4.31,12.37L7.31,6.45C7.69,5.77,8.12,5.49,8.89,5.49L17.09,5.49C17.86,5.49,18.29,5.77,18.66,6.45L21.66,12.37C21.86,12.77,21.98,13.25,21.98,13.7L21.98,18.5C21.98,20,21.48,20.5,19.98,20.5ZM10,14.07L10,14.17C10,14.94,10.3,15.24,11.07,15.24L14.92,15.24C15.69,15.24,15.99,14.94,15.99,14.17L15.99,14.07C15.99,13.3,16.29,13,17.06,13L20.31,13L17.24,7L8.74,7L5.66,13L8.91,13C9.68,13,9.98,13.3,9.98,14.07Z"/></svg>