<svg xmlns="http://www.w3.org/2000/svg" viewBox="0 0 24 24"><path d="M4.83,21.9L1.7,23.6C0.53,24.23,0.13,23.17,0.43,22.57L1.83,19.84C2.3,18.94,2.23,18.24,1.6,17.44C0.6,15.87,0.03,14.04,0.03,12.01C0.03,6.01,5.13,1.51,12,1.51C18.87,1.51,23.97,6.01,23.97,12.01C23.97,18.01,18.87,22.51,12,22.51C10.37,22.51,8.83,22.24,7.43,21.78C6.46,21.38,5.73,21.45,4.83,21.91Z" fill="currentColor"/><path d="M5.23,9.3L6.03,15.07C6.13,15.67,6.5,16.07,7.06,16.2C10.46,16.93,13.59,16.93,16.99,16.2C17.56,16.07,17.92,15.67,18.02,15.07L18.82,9.3C18.95,8.47,18.62,8.27,17.92,8.73L14.62,11.03L12.52,6.36C12.19,5.63,11.79,5.63,11.45,6.39L9.42,11.02L6.12,8.72C5.42,8.25,5.09,8.45,5.22,9.29Z" fill="currentColor"/></svg>