<svg xmlns="http://www.w3.org/2000/svg" viewBox="0 0 24 24" fill="currentColor"><path d="M20.27,20.37C20.63,20.65,20.67,20.62,20.4,20.2L19.66,19.09C19.17,18.29,19.16,17.07,19.59,16.34C20.16,15.28,20.5,14.18,20.5,13.01C20.5,9.34,17.43,6.63,13,6.63C8.57,6.63,5.5,9.34,5.5,13.01C5.5,16.67,8.57,19.38,13,19.38C14.19,19.38,15.14,19.21,15.92,18.87C16.68,18.49,17.95,18.63,18.64,19.16ZM17.73,20.35C17.37,20.07,16.95,20.03,16.55,20.22C15.57,20.65,14.32,20.88,13,20.88C7.85,20.88,4,17.5,4,13C4,8.5,7.85,5.13,13,5.13C18.15,5.13,22,8.5,22,13C22,14.4,21.55,15.85,20.9,17.07C20.67,17.45,20.67,17.88,20.92,18.27L21.65,19.38C22.75,21.08,21.03,22.8,19.38,21.57Z"/></svg>