<svg xmlns="http://www.w3.org/2000/svg" viewBox="0 0 24 24"><path d="M4.83,21.9L1.7,23.6C0.53,24.23,0.13,23.17,0.43,22.57L1.83,19.84C2.3,18.94,2.23,18.24,1.6,17.44C0.6,15.87,0.03,14.04,0.03,12.01C0.03,6.01,5.13,1.51,12,1.51C18.87,1.51,23.97,6.01,23.97,12.01C23.97,18.01,18.87,22.51,12,22.51C10.37,22.51,8.83,22.24,7.43,21.78C6.46,21.38,5.73,21.45,4.83,21.91Z" fill="currentColor"/><path d="M15.4,14.63C17.8,12.1,18.23,11.2,18.23,10.2C18.23,8.47,16.96,7.37,15.33,7.37C14.2,7.37,13.06,7.97,12,9.64C10.97,8.01,9.8,7.37,8.73,7.37C7.26,7.37,5.76,8.47,5.76,10.27C5.76,11.1,6.13,12,8.59,14.64L11.99,18.27Z" fill="currentColor"/></svg>