<svg xmlns="http://www.w3.org/2000/svg" viewBox="0 0 24 24"><path d="M4.83,21.9L1.7,23.6C0.53,24.23,0.13,23.17,0.43,22.57L1.83,19.84C2.3,18.94,2.23,18.24,1.6,17.44C0.6,15.87,0.03,14.04,0.03,12.01C0.03,6.01,5.13,1.51,12,1.51C18.87,1.51,23.97,6.01,23.97,12.01C23.97,18.01,18.87,22.51,12,22.51C10.37,22.51,8.83,22.24,7.43,21.78C6.46,21.38,5.73,21.45,4.83,21.91Z" fill="currentColor"/><path d="M20.13,12C20.13,10.77,19.23,9.87,18,9.87C16.77,9.87,15.87,10.77,15.87,12C15.87,13.23,16.77,14.13,18,14.13C19.23,14.13,20.13,13.23,20.13,12Z" fill="currentColor"/><path d="M8.13,12C8.13,10.77,7.23,9.87,6,9.87C4.77,9.87,3.87,10.77,3.87,12C3.87,13.23,4.77,14.13,6,14.13C7.23,14.13,8.13,13.23,8.13,12Z" fill="currentColor"/><path d="M14.13,12C14.13,10.77,13.23,9.87,12,9.87C10.77,9.87,9.87,10.77,9.87,12C9.87,13.23,10.77,14.13,12,14.13C13.23,14.13,14.13,13.23,14.13,12Z" fill="currentColor"/></svg>