<svg xmlns="http://www.w3.org/2000/svg" viewBox="0 0 24 24"><path d="M21.69,21.83C22.18,22.2,22.22,22.16,21.86,21.6L20.88,20.12C20.22,19.06,20.21,17.43,20.79,16.46C21.54,15.04,22,13.57,22,12.01C22,7.12,17.91,3.51,12,3.51C6.09,3.51,2,7.12,2,12.01C2,16.9,6.09,20.51,12,20.51C13.59,20.51,14.85,20.28,15.89,19.83C16.91,19.32,18.6,19.5,19.52,20.22Z" fill="currentColor"/><path d="M18.3,21.8C17.83,21.43,17.27,21.37,16.73,21.63C15.43,22.2,13.76,22.5,12,22.5C5.13,22.5,0,18,0,12C0,6,5.13,1.5,12,1.5C18.87,1.5,24,6,24,12C24,13.87,23.4,15.8,22.53,17.43C22.23,17.93,22.23,18.5,22.56,19.03L23.53,20.5C25,22.77,22.7,25.07,20.5,23.43Z" fill="currentColor"/></svg>