<svg xmlns="http://www.w3.org/2000/svg" viewBox="0 0 24 24" fill="currentColor"><path d="M7.62,20.42L5.28,21.7C4.4,22.17,4.1,21.38,4.32,20.93L5.37,18.88C5.72,18.2,5.67,17.68,5.2,17.08C4.45,15.9,4.02,14.53,4.02,13.01C4.02,8.51,7.85,5.13,13,5.13C18.15,5.13,21.98,8.51,21.98,13.01C21.98,17.51,18.15,20.88,13,20.88C11.78,20.88,10.62,20.68,9.57,20.33C8.84,20.04,8.3,20.09,7.62,20.43ZM8.5,10.02C8.5,10.47,8.75,10.72,9.2,10.72L16.8,10.72C17.25,10.72,17.49,10.47,17.49,10.02L17.49,9.93C17.49,9.48,17.25,9.23,16.8,9.23L9.2,9.23C8.75,9.23,8.5,9.48,8.5,9.93ZM8.5,16.02C8.5,16.47,8.75,16.72,9.2,16.72L13.79,16.72C14.25,16.72,14.49,16.47,14.49,16.02L14.49,15.92C14.49,15.47,14.25,15.23,13.79,15.23L9.2,15.23C8.75,15.23,8.5,15.47,8.5,15.92ZM8.5,13.02C8.5,13.47,8.75,13.72,9.2,13.72L16.8,13.72C17.25,13.72,17.49,13.47,17.49,13.02L17.49,12.93C17.49,12.48,17.25,12.23,16.8,12.23L9.2,12.23C8.75,12.23,8.5,12.48,8.5,12.93Z"/></svg>