<svg xmlns="http://www.w3.org/2000/svg" viewBox="0 0 24 24" fill="currentColor"><path d="M7.62,20.42L5.28,21.7C4.4,22.17,4.1,21.38,4.32,20.93L5.37,18.88C5.72,18.2,5.67,17.68,5.2,17.08C4.45,15.9,4.02,14.53,4.02,13.01C4.02,8.51,7.85,5.13,13,5.13C18.15,5.13,21.98,8.51,21.98,13.01C21.98,17.51,18.15,20.88,13,20.88C11.78,20.88,10.62,20.68,9.57,20.33C8.84,20.04,8.3,20.09,7.62,20.43ZM9.23,9.25L9.83,13.3C9.9,13.8,10.13,14,10.68,14L10.83,14C11.37,14,11.6,13.79,11.67,13.3L12.27,9.25C12.45,8.18,12.07,7.75,10.95,7.75L10.55,7.75C9.42,7.75,9.05,8.18,9.22,9.25ZM12.12,16.75C12.12,15.9,11.6,15.38,10.75,15.38C9.9,15.38,9.38,15.9,9.38,16.75C9.38,17.6,9.9,18.12,10.75,18.12C11.6,18.12,12.12,17.6,12.12,16.75ZM13.73,9.25L14.33,13.3C14.4,13.8,14.63,14,15.17,14L15.32,14C15.87,14,16.1,13.79,16.17,13.3L16.77,9.25C16.95,8.18,16.57,7.75,15.44,7.75L15.05,7.75C13.92,7.75,13.55,8.18,13.72,9.25ZM16.62,16.75C16.62,15.9,16.1,15.38,15.25,15.38C14.4,15.38,13.88,15.9,13.88,16.75C13.88,17.6,14.4,18.12,15.25,18.12C16.1,18.12,16.62,17.6,16.62,16.75Z"/></svg>