<svg xmlns="http://www.w3.org/2000/svg" viewBox="0 0 24 24" fill="currentColor"><path d="M7.62,20.42L5.28,21.7C4.4,22.17,4.1,21.38,4.32,20.93L5.37,18.88C5.72,18.2,5.67,17.68,5.2,17.08C4.45,15.9,4.02,14.53,4.02,13.01C4.02,8.51,7.85,5.13,13,5.13C18.15,5.13,21.98,8.51,21.98,13.01C21.98,17.51,18.15,20.88,13,20.88C11.78,20.88,10.62,20.68,9.57,20.33C8.84,20.04,8.3,20.09,7.62,20.43ZM15.55,14.97C17.35,13.07,17.67,12.4,17.67,11.65C17.67,10.35,16.72,9.53,15.5,9.53C14.65,9.53,13.79,9.98,13,11.23C12.23,10.01,11.35,9.53,10.55,9.53C9.44,9.53,8.32,10.35,8.32,11.7C8.32,12.32,8.6,13,10.44,14.98L12.99,17.7Z"/></svg>