<svg xmlns="http://www.w3.org/2000/svg" viewBox="0 0 24 24"><path d="M11.33,22L10.66,22C8.66,22,7.99,21.33,7.99,19.33L7.99,16L4.66,16C2.66,16,1.99,15.33,1.99,13.33L1.99,12.66C1.99,10.66,2.66,9.99,4.66,9.99L7.99,9.99L7.99,6.66C7.99,4.66,8.66,3.99,10.66,3.99L11.33,3.99C13.08,3.99,13.81,4.5,13.96,5.96L13.96,11.09C13.96,12.69,15.29,14.02,16.89,14.02C17.63,14.02,18.71,14.02,19.96,14.02C19.8,15.48,19.07,15.99,17.33,15.99L14,15.99L14,19.32C14,21.32,13.33,21.99,11.33,21.99Z" fill="currentColor"/><path d="M22.07,12L16.97,12C16.37,12,16.04,11.67,16.04,11.07L16.04,10.3C16.04,9.7,16.27,9.13,16.74,8.73L19.51,6.3C20.14,5.77,20.48,5.43,20.48,4.97C20.48,4.54,20.11,4.24,19.41,4.24C18.88,4.24,18.18,4.47,17.31,5.04C16.81,5.37,16.34,5.31,16.01,4.81L15.91,4.61C15.58,4.11,15.61,3.61,16.08,3.21C17.28,2.21,18.28,1.91,19.38,1.91C21.61,1.91,22.88,3.21,22.88,4.81C22.88,5.91,22.18,6.98,20.88,8.11L18.01,10.61L18.18,9.44L22.08,9.44C22.68,9.44,23.01,9.77,23.01,10.37L23.01,11.07C23.01,11.67,22.68,12,22.08,12Z" fill="currentColor"/></svg>