<svg xmlns="http://www.w3.org/2000/svg" viewBox="0 0 24 24"><path d="M1.5,12C1.5,6.2,6.2,1.5,12,1.5C17.8,1.5,22.5,6.2,22.5,12C22.5,17.8,17.8,22.5,12,22.5C6.2,22.5,1.5,17.8,1.5,12Z" fill="currentColor"/><path d="M7.37,17.87C7.17,18.67,7.44,18.87,8.14,18.4L12.01,15.67L15.84,18.4C16.54,18.87,16.81,18.67,16.61,17.87L15.44,13.27L18.91,10.57C19.58,10.04,19.48,9.7,18.64,9.64L14.11,9.31L12.48,5.18C12.18,4.41,11.81,4.41,11.51,5.18L9.98,9.31L5.35,9.64C4.52,9.71,4.42,10.04,5.08,10.54L8.58,13.27Z" fill="currentColor"/></svg>