<svg xmlns="http://www.w3.org/2000/svg" viewBox="0 0 24 24"><path d="M17.97,15.23L16.1,15.23C15.5,15.23,15.17,14.9,15.17,14.3C15.2,10.97,15.4,10.9,17.77,9.27C19,8.4,19.57,7.87,19.57,7.07C19.57,6.04,18.6,5.4,17.44,5.4C16.64,5.4,15.67,5.73,14.51,6.57C14.43,6.64,14.35,6.69,14.27,6.73C14.21,5.32,13.73,4.06,12.97,3.06C14.48,2.03,15.86,1.66,17.34,1.66C20.71,1.66,23.34,3.63,23.34,6.96C23.34,9.69,21.64,10.76,20.64,11.53C19.17,12.63,18.94,12.76,18.91,14.3C18.91,14.9,18.58,15.23,17.98,15.23Z" fill="currentColor"/><path d="M15.06,20.06C15.06,18.19,15.13,18.13,17.03,18.13C18.9,18.13,18.96,18.16,18.96,20.1C18.96,21.97,18.89,22.03,17.03,22.03C15.13,22.03,15.06,22.03,15.06,20.06Z" fill="currentColor"/><path d="M7.97,15.23L6.1,15.23C5.5,15.23,5.17,14.9,5.17,14.3C5.2,10.97,5.4,10.9,7.77,9.27C9,8.4,9.57,7.87,9.57,7.07C9.57,6.04,8.6,5.4,7.44,5.4C6.64,5.4,5.67,5.73,4.51,6.57C3.98,7,3.48,6.97,3.11,6.5L2.11,5.13C1.71,4.56,1.74,4.03,2.18,3.66C4.01,2.16,5.61,1.66,7.35,1.66C10.72,1.66,13.35,3.63,13.35,6.96C13.35,9.69,11.65,10.76,10.65,11.53C9.18,12.63,8.95,12.76,8.92,14.3C8.92,14.9,8.59,15.23,7.99,15.23Z" fill="currentColor"/><path d="M5.06,20.06C5.06,18.19,5.13,18.13,7.03,18.13C8.9,18.13,8.96,18.16,8.96,20.1C8.96,21.97,8.89,22.03,7.03,22.03C5.13,22.03,5.06,22.03,5.06,20.06Z" fill="currentColor"/></svg>