<svg xmlns="http://www.w3.org/2000/svg" viewBox="0 0 24 24"><path d="M8.07,22L7.94,22C6.34,22,6.01,21.67,6.01,20.07L6.01,18L3.94,18C2.34,18,2.01,17.67,2.01,16.07L2.01,15.94C2.01,14.34,2.34,14.01,3.94,14.01L6.01,14.01L6.01,10.01L3.94,10.01C2.34,10.01,2.01,9.68,2.01,8.08L2.01,7.95C2.01,6.35,2.34,6.02,3.94,6.02L6.01,6.02L6.01,3.95C6.01,2.35,6.34,2.02,7.94,2.02L8.07,2.02C9.67,2.02,10,2.35,10,3.95L10,6.02L11.63,6.02L11.63,6.19C11.63,8.39,13.3,10.06,15.5,10.06L16,10.06L16,14.03L18,14.03L20.07,14.03C21.67,14.03,22,14.36,22,15.96L22,16.09C22,17.69,21.67,18.02,20.07,18.02L18,18.02L18,20.09C18,21.69,17.67,22.02,16.07,22.02L15.94,22.02C14.34,22.02,14.01,21.69,14.01,20.09L14.01,18.02L10.01,18.02L10.01,20.09C10.01,21.69,9.68,22.02,8.08,22.02Z" fill="currentColor"/><path d="M10,14L14,14L14,10L10,10Z" fill="currentColor"/><path d="M18.73,12C18.13,12,17.8,11.67,17.8,11.07L17.8,4.34L18.6,4.47L15.73,7.37C15.3,7.8,14.83,7.8,14.43,7.34L14,6.87C13.6,6.4,13.6,5.94,14.03,5.54L17.03,2.64C17.46,2.24,18.03,2.01,18.63,2.01L19.33,2.01C19.93,2.01,20.26,2.34,20.26,2.94L20.26,11.07C20.26,11.67,19.93,12,19.33,12Z" fill="currentColor"/></svg>