<svg xmlns="http://www.w3.org/2000/svg" viewBox="0 0 24 24"><path d="M1.5,12C1.5,6.2,6.2,1.5,12,1.5C17.8,1.5,22.5,6.2,22.5,12C22.5,17.8,17.8,22.5,12,22.5C6.2,22.5,1.5,17.8,1.5,12Z" fill="currentColor"/><path d="M11.33,9.7C11.33,9.03,11.2,8.53,10.83,7.97C10.26,7.2,9.43,6.8,7.43,6.8L5,6.8C4.33,6.8,4.07,7.07,4.07,7.73L4.07,15.76C4.07,16.43,4.34,16.69,5,16.69L7.13,16.69C8.76,16.69,9.93,16.96,11.06,18.46C11.19,18.59,11.33,18.53,11.33,18.36Z" fill="currentColor"/><path d="M12.67,18.37C12.67,18.54,12.8,18.6,12.94,18.47C14.07,16.97,15.24,16.7,16.87,16.7L19,16.7C19.67,16.7,19.93,16.43,19.93,15.77L19.93,7.74C19.93,7.07,19.66,6.81,19,6.81L16.57,6.81C14.57,6.81,13.74,7.21,13.17,7.98C12.8,8.55,12.67,9.05,12.67,9.71Z" fill="currentColor"/></svg>