<svg xmlns="http://www.w3.org/2000/svg" viewBox="0 0 24 24"><path d="M1.5,12C1.5,6.2,6.2,1.5,12,1.5C17.8,1.5,22.5,6.2,22.5,12C22.5,17.8,17.8,22.5,12,22.5C6.2,22.5,1.5,17.8,1.5,12Z" fill="currentColor"/><path d="M5.1,8.93L6.07,15.8C6.1,16.17,6.34,16.43,6.67,16.53C8.5,17.13,10.24,17.4,12,17.4C13.77,17.4,15.5,17.13,17.33,16.53C17.66,16.43,17.9,16.16,17.93,15.8L18.9,8.93C18.97,8.3,18.8,8.2,18.3,8.56L14.6,11.09L12.33,6.02C12.1,5.45,11.9,5.45,11.63,6.02L9.36,11.09L5.69,8.56C5.19,8.19,5.02,8.29,5.09,8.93Z" fill="currentColor"/></svg>