<svg xmlns="http://www.w3.org/2000/svg" viewBox="0 0 24 24" fill="currentColor"><path d="M13,5.13C17.35,5.13,20.88,8.65,20.88,13C20.88,17.35,17.35,20.88,13,20.88C8.65,20.88,5.13,17.35,5.13,13C5.13,8.65,8.65,5.13,13,5.13ZM13.25,11.1L12.75,11.1L12.23,13.3C12.05,14.05,12.53,14.42,12.98,14.42C13.45,14.42,13.95,14.05,13.78,13.28ZM13.75,8.88L13.75,8.07L14.75,8.07C14.75,7.23,14.54,7.08,13,7.08C11.45,7.08,11.25,7.23,11.25,8.07L12.25,8.07L12.25,8.88C9.98,9.24,8.22,11.23,8.22,13.6C8.22,16.23,10.38,18.38,13,18.38C15.63,18.38,17.78,16.23,17.78,13.6C17.78,11.23,16.02,9.25,13.75,8.88ZM13,10.32C15,10.32,16.28,11.6,16.28,13.6C16.28,15.6,15,16.88,13,16.88C11,16.88,9.72,15.6,9.72,13.6C9.72,11.6,11,10.32,13,10.32Z"/></svg>