<svg xmlns="http://www.w3.org/2000/svg" viewBox="0 0 24 24"><path d="M1.5,12C1.5,6.2,6.2,1.5,12,1.5C17.8,1.5,22.5,6.2,22.5,12C22.5,17.8,17.8,22.5,12,22.5C6.2,22.5,1.5,17.8,1.5,12Z" fill="currentColor"/><path d="M15.27,17.33C16.57,17.46,17.14,16.7,17.14,15.86C17.14,15.26,16.84,14.93,16.84,14.93C16.84,14.93,18.11,14.63,18.11,13.33C18.11,12.46,17.58,12.06,17.58,12.06C17.58,12.06,18.38,11.73,18.38,10.66C18.38,9.96,18.01,9.36,16.68,9.36L15.41,9.36C14.74,9.36,14.54,9.06,14.68,8.26C14.91,7.63,15.25,7.03,15.25,6.03C15.25,5.36,15.08,4.3,13.62,4.3L13.35,4.3L13.32,5.5C13.29,6.33,12.72,7.1,11.92,7.7L10.15,9C9.58,9.4,9.38,9.9,9.38,10.7L9.38,15.9C9.38,16.57,9.68,16.87,10.51,16.93Z" fill="currentColor"/><path d="M8.03,10.3C8.03,9.63,7.7,9.37,6.9,9.37L6.53,9.37C5.73,9.37,5.4,9.64,5.4,10.3L5.4,16.33C5.4,16.93,5.67,17.2,6.3,17.25C6.37,17.26,6.44,17.26,6.51,17.26C6.52,17.26,6.53,17.26,6.53,17.26L6.51,17.26L5.97,17.26L5.93,17.26C5.94,17.26,5.96,17.26,5.97,17.26C6.08,17.26,6.19,17.26,6.29,17.25C7.58,17.18,8.03,16.72,8.03,15.49Z" fill="currentColor"/></svg>