<svg xmlns="http://www.w3.org/2000/svg" viewBox="0 0 24 24" fill="currentColor"><path d="M9.22,20.5C6.47,20.5,5.49,19.52,5.49,16.77L5.49,9.22C5.49,6.47,6.47,5.49,9.22,5.49L16.77,5.49C19.53,5.49,20.5,6.47,20.5,9.22L20.5,16.77C20.5,19.53,19.52,20.5,16.77,20.5ZM7,17.13C7,18.5,7.5,19,8.88,19L17.15,19C18.52,19,19,18.5,19,17.13L19,8.85C19,7.48,18.53,7,17.15,7L8.88,7C7.5,7,7,7.47,7,8.85ZM7.47,6.66L19.32,18.53L18.52,19.32L6.68,7.45ZM7.42,12.48L13.64,18.68L12.85,19.47L6.62,13.28ZM13.15,6.53L19.34,12.72L18.55,13.52L12.36,7.32ZM6.68,18.53L18.52,6.66L19.31,7.45L7.47,19.32ZM12.36,18.67L18.58,12.47L19.38,13.27L13.15,19.46ZM6.66,12.72L12.85,6.53L13.64,7.32L7.45,13.52Z"/></svg>