<svg xmlns="http://www.w3.org/2000/svg" viewBox="0 0 24 24"><path d="M8.07,22L7.94,22C6.34,22,6.01,21.67,6.01,20.07L6.01,18L3.94,18C2.34,18,2.01,17.67,2.01,16.07L2.01,15.94C2.01,14.34,2.34,14.01,3.94,14.01L6.01,14.01L6.01,10.01L3.94,10.01C2.34,10.01,2.01,9.68,2.01,8.08L2.01,7.95C2.01,6.35,2.34,6.02,3.94,6.02L6.01,6.02L6.01,3.95C6.01,2.35,6.34,2.02,7.94,2.02L8.07,2.02C9.67,2.02,10,2.35,10,3.95L10,6.02L12,6.02L12,10.02L10,10.02L10,14.02L12,14.02L14,14.02L18,14.02L20.07,14.02C21.67,14.02,22,14.35,22,15.95L22,16.08C22,17.68,21.67,18.01,20.07,18.01L18,18.01L18,20.08C18,21.68,17.67,22.01,16.07,22.01L15.94,22.01C14.34,22.01,14.01,21.68,14.01,20.08L14.01,18.01L10.01,18.01L10.01,20.08C10.01,21.68,9.68,22.01,8.08,22.01Z" fill="currentColor"/><path d="M20.6,12C20,12,19.67,11.67,19.67,11.07L19.67,10L16.04,10C15.44,10,15.01,9.7,14.81,9.13L14.71,8.9C14.51,8.33,14.58,7.73,14.91,7.23L17.74,2.63C18.07,2.13,18.57,1.83,19.17,1.83L19.97,1.83C20.57,1.83,20.74,2.13,20.44,2.63L17.47,7.7L19.67,7.67L19.67,5.77C19.67,5.17,20,4.84,20.6,4.84L21.07,4.84C21.67,4.84,22,5.17,22,5.77L22,7.67L23,7.67C23.6,7.67,23.93,8,23.93,8.6L23.93,9.07C23.93,9.67,23.6,10,23,10L22,10L22,11.07C22,11.67,21.67,12,21.07,12Z" fill="currentColor"/></svg>