<svg xmlns="http://www.w3.org/2000/svg" viewBox="0 0 24 24" fill="currentColor"><path d="M13,5.13C17.35,5.13,20.88,8.65,20.88,13C20.88,17.35,17.35,20.88,13,20.88C8.65,20.88,5.13,17.35,5.13,13C5.13,8.65,8.65,5.13,13,5.13ZM12.5,11.27C12.5,10.77,12.4,10.4,12.12,9.98C11.7,9.4,11.07,9.1,9.57,9.1L7.75,9.1C7.25,9.1,7.05,9.3,7.05,9.8L7.05,15.82C7.05,16.32,7.25,16.52,7.75,16.52L9.35,16.52C10.57,16.52,11.45,16.72,12.29,17.84C12.39,17.94,12.5,17.9,12.5,17.77ZM13.5,17.78C13.5,17.91,13.6,17.95,13.71,17.85C14.55,16.73,15.43,16.53,16.65,16.53L18.25,16.53C18.75,16.53,18.95,16.32,18.95,15.83L18.95,9.81C18.95,9.3,18.75,9.11,18.25,9.11L16.43,9.11C14.93,9.11,14.31,9.41,13.88,9.99C13.6,10.41,13.5,10.79,13.5,11.28Z"/></svg>