<svg xmlns="http://www.w3.org/2000/svg" viewBox="0 0 24 24" fill="currentColor"><path d="M12.5,20.5L12,20.5C10.5,20.5,9.99,20,9.99,18.5L9.99,16L7.5,16C6,16,5.49,15.5,5.49,14L5.49,13.49C5.49,11.99,6,11.49,7.5,11.49L9.99,11.49L9.99,8.99C9.99,7.49,10.5,6.99,12,6.99L12.5,6.99C13.81,6.99,14.36,7.37,14.47,8.47L14.47,12.32C14.47,13.52,15.47,14.51,16.67,14.51C17.22,14.51,18.03,14.51,18.97,14.51C18.85,15.61,18.3,15.99,17,15.99L14.5,15.99L14.5,18.49C14.5,19.99,14,20.49,12.5,20.49ZM20.55,13L16.73,13C16.28,13,16.03,12.75,16.03,12.3L16.03,11.73C16.03,11.28,16.2,10.85,16.55,10.55L18.63,8.73C19.1,8.33,19.36,8.07,19.36,7.73C19.36,7.41,19.08,7.18,18.56,7.18C18.16,7.18,17.63,7.35,16.98,7.78C16.61,8.03,16.25,7.98,16.01,7.61L15.93,7.46C15.68,7.08,15.71,6.71,16.06,6.41C16.96,5.66,17.71,5.43,18.53,5.43C20.21,5.43,21.16,6.41,21.16,7.61C21.16,8.43,20.63,9.23,19.66,10.08L17.51,11.96L17.63,11.08L20.56,11.08C21.01,11.08,21.26,11.33,21.26,11.78L21.26,12.3C21.26,12.75,21.01,13,20.56,13Z"/></svg>