<svg xmlns="http://www.w3.org/2000/svg" viewBox="0 0 24 24" fill="currentColor"><path d="M13,5.13C17.35,5.13,20.88,8.65,20.88,13C20.88,17.35,17.35,20.88,13,20.88C8.65,20.88,5.13,17.35,5.13,13C5.13,8.65,8.65,5.13,13,5.13ZM9.35,17.58C9.2,17.9,9.35,18.03,9.87,18.03L10.3,18.03C10.6,18.03,10.82,17.93,10.9,17.73L14.9,8.43C15.05,8.1,14.9,7.98,14.37,7.98L13.92,7.98C13.62,7.98,13.4,8.07,13.32,8.28ZM8.5,9.98L8.5,13.58C8.5,13.86,8.65,14,8.93,14L9.58,14C9.86,14,10.01,13.86,10.01,13.58L10.01,8.4C10.01,8.13,9.86,7.97,9.58,7.97L9,7.97C8.73,7.97,8.53,8.12,8.4,8.37C8.2,8.67,7.8,8.84,7.4,8.92C7.13,8.94,6.98,9.12,6.98,9.39L6.98,10.07C6.98,10.34,7.13,10.5,7.4,10.52C7.91,10.5,8.28,10.22,8.51,9.97ZM14.03,16.92L14.03,17.6C14.03,17.88,14.18,18.02,14.46,18.02L18.63,18.02C18.91,18.02,19.06,17.88,19.06,17.6L19.06,16.95C19.06,16.67,18.91,16.52,18.63,16.52L15.71,16.52L15.71,16.46C15.71,16.22,16.11,16.04,16.81,15.77C18.03,15.32,19.06,15.07,19.06,13.76C19.06,12.34,17.84,11.81,16.76,11.81C15.51,11.81,14.61,12.44,14.06,13.01C13.86,13.22,13.86,13.44,14.04,13.64L14.43,14.06C14.63,14.29,14.86,14.29,15.05,14.14C15.6,13.71,16.18,13.31,16.85,13.31C17.23,13.31,17.58,13.44,17.58,13.76C17.58,14.04,17.33,14.09,16.81,14.29C15.26,14.84,14.03,15.34,14.03,16.91Z"/></svg>