<svg xmlns="http://www.w3.org/2000/svg" viewBox="0 0 24 24"><path d="M8.97,15.23L7.1,15.23C6.5,15.23,6.17,14.9,6.17,14.3C6.2,10.97,6.4,10.9,8.77,9.27C10,8.4,10.57,7.87,10.57,7.07C10.57,6.04,9.6,5.4,8.44,5.4C7.64,5.4,6.67,5.73,5.51,6.57C4.98,7,4.48,6.97,4.11,6.5L3.11,5.13C2.71,4.56,2.74,4.03,3.18,3.66C5.01,2.16,6.61,1.66,8.35,1.66C11.72,1.66,14.35,3.63,14.35,6.96C14.35,9.69,12.65,10.76,11.65,11.53C10.18,12.63,9.95,12.76,9.92,14.3C9.92,14.9,9.59,15.23,8.99,15.23Z" fill="currentColor"/><path d="M6.06,20.06C6.06,18.19,6.13,18.13,8.03,18.13C9.9,18.13,9.96,18.16,9.96,20.1C9.96,21.97,9.89,22.03,8.03,22.03C6.13,22.03,6.06,22.03,6.06,20.06Z" fill="currentColor"/><path d="M18.93,15.5L17.1,15.5C16.67,15.5,16.4,15.27,16.37,14.8L15.87,2.9C15.84,2.33,16.17,2,16.77,2L19.27,2C19.84,2,20.17,2.33,20.14,2.93L19.67,14.8C19.64,15.27,19.4,15.5,18.94,15.5Z" fill="currentColor"/><path d="M16.13,20.1C16.13,18.23,16.13,18.23,18,18.23C19.9,18.23,19.9,18.23,19.9,20.1C19.9,22.03,19.9,22.03,18,22.03C16.13,22.03,16.13,22.03,16.13,20.1Z" fill="currentColor"/></svg>