<svg xmlns="http://www.w3.org/2000/svg" viewBox="0 0 24 24"><path d="M1.17,22.03C0.17,22.23,-0.16,21.93,0.07,20.93C1.27,14.6,1.27,9.4,0.07,3.06C-0.16,2.06,0.17,1.76,1.17,1.96C7.44,3.26,12.57,3.26,18.84,1.96C19.84,1.76,20.17,2.06,19.94,3.06C19.6,4.87,19.35,6.58,19.21,8.26C18.51,8.09,17.77,7.99,17.01,7.99C12.01,7.99,8.01,11.99,8.01,16.99C8.01,18.46,8.36,19.84,8.97,21.06C6.46,21.13,3.93,21.45,1.18,22.02Z" fill="currentColor"/><path d="M10.03,17C10.03,13.17,13.2,10.03,17,10.03C20.83,10.03,23.97,13.16,23.97,17C23.97,20.8,20.84,23.97,17,23.97C13.2,23.97,10.03,20.8,10.03,17Z" fill="currentColor"/><path d="M14,21.1C14,21.7,14.33,22.03,14.93,22.03L15.06,22.03C15.66,22.03,15.99,21.7,15.99,21.1L15.99,20L17.99,20L17.99,21.1C17.99,21.7,18.32,22.03,18.92,22.03L19.05,22.03C19.65,22.03,19.98,21.7,19.98,21.1L19.98,20L21.08,20C21.68,20,22.01,19.67,22.01,19.07L22.01,18.94C22.01,18.34,21.68,18.01,21.08,18.01L19.98,18.01L19.98,16.01L21.08,16.01C21.68,16.01,22.01,15.68,22.01,15.08L22.01,14.95C22.01,14.35,21.68,14.02,21.08,14.02L19.98,14.02L19.98,12.92C19.98,12.32,19.65,11.99,19.05,11.99L18.92,11.99C18.32,11.99,17.99,12.32,17.99,12.92L17.99,14.02L15.99,14.02L15.99,12.92C15.99,12.32,15.66,11.99,15.06,11.99L14.93,11.99C14.33,11.99,14,12.32,14,12.92L14,14.02L12.9,14.02C12.3,14.02,11.97,14.35,11.97,14.95L11.97,15.08C11.97,15.68,12.3,16.01,12.9,16.01L14,16.01L14,18.01L12.9,18.01C12.3,18.01,11.97,18.34,11.97,18.94L11.97,19.07C11.97,19.67,12.3,20,12.9,20L14,20Z" fill="currentColor"/><path d="M16,18L16,16L18,16L18,18Z" fill="currentColor"/></svg>