<svg xmlns="http://www.w3.org/2000/svg" viewBox="0 0 24 24"><path d="M8.07,22L7.94,22C6.34,22,6.01,21.67,6.01,20.07L6.01,18L3.94,18C2.34,18,2.01,17.67,2.01,16.07L2.01,15.94C2.01,14.34,2.34,14.01,3.94,14.01L6.01,14.01L6.01,10.01L3.94,10.01C2.34,10.01,2.01,9.68,2.01,8.08L2.01,7.95C2.01,6.35,2.34,6.02,3.94,6.02L6.01,6.02L6.01,3.95C6.01,2.35,6.34,2.02,7.94,2.02L8.07,2.02C9.67,2.02,10,2.35,10,3.95L10,6.02L12.93,6.02L12.93,10.02L10,10.02L10,14.02L12.93,14.02L14,14.02L18,14.02L20.07,14.02C21.67,14.02,22,14.35,22,15.95L22,16.08C22,17.68,21.67,18.01,20.07,18.01L18,18.01L18,20.08C18,21.68,17.67,22.01,16.07,22.01L15.94,22.01C14.34,22.01,14.01,21.68,14.01,20.08L14.01,18.01L10.01,18.01L10.01,20.08C10.01,21.68,9.68,22.01,8.08,22.01Z" fill="currentColor"/><path d="M21.07,11.97L15.97,11.97C15.37,11.97,15.04,11.64,15.04,11.04L15.04,10.27C15.04,9.67,15.27,9.1,15.74,8.7L18.51,6.27C19.14,5.74,19.48,5.4,19.48,4.94C19.48,4.51,19.11,4.21,18.41,4.21C17.88,4.21,17.18,4.44,16.31,5.01C15.81,5.34,15.34,5.28,15.01,4.78L14.91,4.58C14.58,4.08,14.61,3.58,15.08,3.18C16.28,2.18,17.28,1.88,18.38,1.88C20.61,1.88,21.88,3.18,21.88,4.78C21.88,5.88,21.18,6.95,19.88,8.08L17.01,10.58L17.18,9.41L21.08,9.41C21.68,9.41,22.01,9.74,22.01,10.34L22.01,11.04C22.01,11.64,21.68,11.97,21.08,11.97Z" fill="currentColor"/></svg>