<svg xmlns="http://www.w3.org/2000/svg" viewBox="0 0 24 24" fill="currentColor"><path d="M10.73,15.42L9.33,15.42C8.88,15.42,8.63,15.18,8.63,14.73C8.65,12.23,8.8,12.18,10.58,10.95C11.5,10.3,11.93,9.9,11.93,9.3C11.93,8.53,11.2,8.05,10.33,8.05C9.73,8.05,9,8.3,8.13,8.93C7.74,9.25,7.36,9.23,7.08,8.88L6.33,7.85C6.03,7.42,6.06,7.02,6.39,6.74C7.76,5.62,8.96,5.24,10.26,5.24C12.79,5.24,14.76,6.72,14.76,9.22C14.76,11.27,13.49,12.07,12.74,12.65C11.64,13.47,11.46,13.57,11.44,14.73C11.44,15.18,11.19,15.42,10.74,15.42ZM8.54,19.05C8.54,17.64,8.6,17.6,10.02,17.6C11.42,17.6,11.47,17.62,11.47,19.08C11.47,20.48,11.42,20.52,10.02,20.52C8.6,20.52,8.54,20.52,8.54,19.05ZM18.2,15.63L16.83,15.63C16.5,15.63,16.3,15.45,16.28,15.1L15.9,6.18C15.88,5.75,16.13,5.5,16.58,5.5L18.45,5.5C18.88,5.5,19.13,5.75,19.11,6.2L18.75,15.1C18.73,15.45,18.55,15.62,18.21,15.62ZM16.1,19.08C16.1,17.67,16.1,17.67,17.5,17.67C18.92,17.67,18.92,17.67,18.92,19.08C18.92,20.52,18.92,20.52,17.5,20.52C16.1,20.52,16.1,20.52,16.1,19.08Z"/></svg>