<svg xmlns="http://www.w3.org/2000/svg" viewBox="0 0 24 24"><path d="M8.93,15.5L7.1,15.5C6.67,15.5,6.4,15.27,6.37,14.8L5.87,2.9C5.84,2.33,6.17,2,6.77,2L9.27,2C9.84,2,10.17,2.33,10.14,2.93L9.67,14.8C9.64,15.27,9.4,15.5,8.94,15.5Z" fill="currentColor"/><path d="M6.13,20.1C6.13,18.23,6.13,18.23,8,18.23C9.9,18.23,9.9,18.23,9.9,20.1C9.9,22.03,9.9,22.03,8,22.03C6.13,22.03,6.13,22.03,6.13,20.1Z" fill="currentColor"/><path d="M16.93,15.5L15.1,15.5C14.67,15.5,14.4,15.27,14.37,14.8L13.87,2.9C13.84,2.33,14.17,2,14.77,2L17.27,2C17.84,2,18.17,2.33,18.14,2.93L17.67,14.8C17.64,15.27,17.4,15.5,16.94,15.5Z" fill="currentColor"/><path d="M14.13,20.1C14.13,18.23,14.13,18.23,16,18.23C17.9,18.23,17.9,18.23,17.9,20.1C17.9,22.03,17.9,22.03,16,22.03C14.13,22.03,14.13,22.03,14.13,20.1Z" fill="currentColor"/></svg>