<svg xmlns="http://www.w3.org/2000/svg" viewBox="0 0 24 24" fill="currentColor"><path d="M17.48,15.42L16.07,15.42C15.62,15.42,15.38,15.18,15.38,14.73C15.4,12.23,15.55,12.18,17.33,10.95C18.25,10.3,18.68,9.9,18.68,9.3C18.68,8.53,17.95,8.05,17.08,8.05C16.48,8.05,15.75,8.3,14.88,8.93C14.82,8.98,14.76,9.02,14.7,9.05C14.66,8,14.29,7.04,13.73,6.29C14.86,5.52,15.9,5.25,17.01,5.25C19.53,5.25,21.51,6.72,21.51,9.22C21.51,11.27,20.23,12.07,19.48,12.65C18.38,13.47,18.21,13.57,18.18,14.73C18.18,15.18,17.94,15.42,17.49,15.42ZM15.3,19.05C15.3,17.64,15.35,17.6,16.77,17.6C18.18,17.6,18.22,17.62,18.22,19.08C18.22,20.48,18.17,20.52,16.77,20.52C15.35,20.52,15.3,20.52,15.3,19.05ZM9.98,15.42L8.58,15.42C8.13,15.42,7.88,15.18,7.88,14.73C7.9,12.23,8.05,12.18,9.83,10.95C10.75,10.3,11.18,9.9,11.18,9.3C11.18,8.53,10.45,8.05,9.58,8.05C8.98,8.05,8.25,8.3,7.38,8.93C6.99,9.25,6.61,9.23,6.33,8.88L5.58,7.85C5.28,7.42,5.31,7.02,5.64,6.74C7.01,5.62,8.21,5.24,9.51,5.24C12.04,5.24,14.01,6.72,14.01,9.22C14.01,11.27,12.74,12.07,11.99,12.65C10.89,13.47,10.71,13.57,10.69,14.73C10.69,15.18,10.44,15.42,9.99,15.42ZM7.79,19.05C7.79,17.64,7.85,17.6,9.27,17.6C10.67,17.6,10.72,17.62,10.72,19.08C10.72,20.48,10.67,20.52,9.27,20.52C7.85,20.52,7.79,20.52,7.79,19.05Z"/></svg>