<svg xmlns="http://www.w3.org/2000/svg" viewBox="0 0 24 24" fill="currentColor"><path d="M13,5.13C17.35,5.13,20.88,8.65,20.88,13C20.88,17.35,17.35,20.88,13,20.88C8.65,20.88,5.13,17.35,5.13,13C5.13,8.65,8.65,5.13,13,5.13ZM13,7.73C10.07,7.73,7.73,10.07,7.73,13C7.73,15.92,10.07,18.27,13,18.27C15.92,18.27,18.27,15.93,18.27,13C18.27,10.07,15.93,7.73,13,7.73ZM13,9.57C14.88,9.57,16.43,11.13,16.43,13C16.43,14.88,14.88,16.43,13,16.43C11.13,16.43,9.57,14.88,9.57,13C9.57,11.13,11.13,9.57,13,9.57ZM13,11.4C12.12,11.4,11.4,12.13,11.4,13C11.4,13.88,12.13,14.6,13,14.6C13.88,14.6,14.6,13.87,14.6,13C14.6,12.12,13.87,11.4,13,11.4Z"/></svg>