<svg xmlns="http://www.w3.org/2000/svg" viewBox="0 0 24 24"><path d="M1.5,12C1.5,6.2,6.2,1.5,12,1.5C17.8,1.5,22.5,6.2,22.5,12C22.5,17.8,17.8,22.5,12,22.5C6.2,22.5,1.5,17.8,1.5,12Z" fill="currentColor"/><path d="M6.8,17.1C7.6,17.9,8.2,17.93,8.93,17.2L12,14.13L15.07,17.2C15.8,17.93,16.4,17.87,17.2,17.07L17.2,17.07C17.93,16.34,17.87,15.74,17.07,14.94L14.14,12.01L17.11,9.08C17.91,8.28,17.98,7.68,17.24,6.95L17.21,6.92C16.41,6.12,15.81,6.09,15.08,6.82L12.01,9.89L8.94,6.82C8.21,6.09,7.61,6.15,6.81,6.95L6.81,6.95C6.08,7.68,6.14,8.28,6.94,9.08L9.87,12.01L6.9,14.94C6.1,15.74,6.03,16.34,6.77,17.07Z" fill="currentColor"/></svg>