<svg xmlns="http://www.w3.org/2000/svg" viewBox="0 0 24 24" fill="currentColor"><path d="M13.73,15.42L12.32,15.42C11.87,15.42,11.63,15.18,11.63,14.73C11.65,12.23,11.8,12.18,13.58,10.95C14.5,10.3,14.93,9.9,14.93,9.3C14.93,8.53,14.2,8.05,13.33,8.05C12.73,8.05,12,8.3,11.13,8.93C10.74,9.25,10.36,9.23,10.08,8.88L9.33,7.85C9.03,7.42,9.06,7.02,9.39,6.74C10.76,5.62,11.96,5.24,13.26,5.24C15.79,5.24,17.76,6.72,17.76,9.22C17.76,11.27,16.49,12.07,15.74,12.65C14.64,13.47,14.46,13.57,14.44,14.73C14.44,15.18,14.19,15.42,13.74,15.42ZM11.54,19.05C11.54,17.64,11.6,17.6,13.02,17.6C14.43,17.6,14.47,17.62,14.47,19.08C14.47,20.48,14.42,20.52,13.02,20.52C11.6,20.52,11.54,20.52,11.54,19.05Z"/></svg>