<svg xmlns="http://www.w3.org/2000/svg" viewBox="0 0 24 24" fill="currentColor"><path d="M9.2,15.63L7.82,15.63C7.5,15.63,7.3,15.45,7.28,15.1L6.9,6.18C6.88,5.75,7.13,5.5,7.58,5.5L9.45,5.5C9.88,5.5,10.13,5.75,10.1,6.2L9.75,15.1C9.73,15.45,9.55,15.62,9.2,15.62ZM7.1,19.08C7.1,17.67,7.1,17.67,8.5,17.67C9.93,17.67,9.93,17.67,9.93,19.08C9.93,20.52,9.93,20.52,8.5,20.52C7.1,20.52,7.1,20.52,7.1,19.08ZM16.73,15.42L15.32,15.42C14.87,15.42,14.63,15.18,14.63,14.73C14.65,12.23,14.8,12.18,16.58,10.95C17.5,10.3,17.93,9.9,17.93,9.3C17.93,8.53,17.2,8.05,16.33,8.05C15.73,8.05,15,8.3,14.13,8.93C13.73,9.25,13.36,9.23,13.08,8.88L12.33,7.85C12.03,7.42,12.06,7.02,12.39,6.74C13.76,5.62,14.96,5.24,16.26,5.24C18.79,5.24,20.76,6.72,20.76,9.22C20.76,11.27,19.49,12.07,18.74,12.65C17.64,13.47,17.46,13.57,17.44,14.73C17.44,15.18,17.19,15.42,16.74,15.42ZM14.55,19.05C14.55,17.64,14.6,17.6,16.02,17.6C17.43,17.6,17.47,17.62,17.47,19.08C17.47,20.48,17.42,20.52,16.02,20.52C14.6,20.52,14.55,20.52,14.55,19.05Z"/></svg>