<svg xmlns="http://www.w3.org/2000/svg" viewBox="0 0 24 24"><path d="M1.5,12C1.5,6.2,6.2,1.5,12,1.5C17.8,1.5,22.5,6.2,22.5,12C22.5,17.8,17.8,22.5,12,22.5C6.2,22.5,1.5,17.8,1.5,12Z" fill="currentColor"/><path d="M13.04,12.37L12.34,9.47L11.67,9.47L10.97,12.4C10.74,13.4,11.37,13.9,11.97,13.9C12.6,13.9,13.27,13.4,13.04,12.37Z" fill="currentColor"/><path d="M18.37,12.8C18.37,9.64,16.03,7,13,6.51L13,5.43L14.33,5.43C14.33,4.3,14.06,4.1,12,4.1C9.93,4.1,9.67,4.3,9.67,5.43L11,5.43L11,6.51C7.97,6.99,5.63,9.64,5.63,12.8C5.63,16.3,8.5,19.17,12,19.17C15.5,19.17,18.37,16.3,18.37,12.8Z" fill="currentColor"/><path d="M7.63,12.8C7.63,10.13,9.33,8.43,12,8.43C14.67,8.43,16.37,10.13,16.37,12.8C16.37,15.47,14.67,17.17,12,17.17C9.33,17.17,7.63,15.47,7.63,12.8Z" fill="currentColor"/></svg>