<svg xmlns="http://www.w3.org/2000/svg" viewBox="0 0 24 24" fill="currentColor"><path d="M5.13,13C5.13,8.65,8.65,5.13,13,5.13C17.35,5.13,20.88,8.65,20.88,13C20.88,17.35,17.35,20.88,13,20.88C8.65,20.88,5.13,17.35,5.13,13ZM11.48,9.25L12.08,13.3C12.15,13.8,12.38,14,12.93,14L13.08,14C13.62,14,13.85,13.79,13.92,13.3L14.52,9.25C14.7,8.18,14.32,7.75,13.2,7.75L12.8,7.75C11.67,7.75,11.3,8.18,11.47,9.25ZM14.37,16.75C14.37,15.9,13.85,15.38,13,15.38C12.15,15.38,11.63,15.9,11.63,16.75C11.63,17.6,12.15,18.12,13,18.12C13.85,18.12,14.37,17.6,14.37,16.75Z"/></svg>