<svg xmlns="http://www.w3.org/2000/svg" viewBox="0 0 24 24"><path d="M1.5,12C1.5,6.2,6.2,1.5,12,1.5C17.8,1.5,22.5,6.2,22.5,12C22.5,17.8,17.8,22.5,12,22.5C6.2,22.5,1.5,17.8,1.5,12Z" fill="currentColor"/><path d="M20.13,12.6C20.66,12.17,20.66,11.83,20.13,11.4L14.66,7C14.13,6.57,13.93,6.67,13.93,7.33L13.93,16.66C13.93,17.33,14.13,17.43,14.66,16.99Z" fill="currentColor"/><path d="M12.2,12.6C12.73,12.17,12.73,11.83,12.2,11.4L6.73,7C6.2,6.57,6,6.67,6,7.33L6,16.66C6,17.33,6.2,17.43,6.73,16.99Z" fill="currentColor"/></svg>