<svg xmlns="http://www.w3.org/2000/svg" viewBox="0 0 24 24" fill="currentColor"><path d="M11,20.5L10.5,20.5C9,20.5,8.49,20,8.49,18.5L8.49,16L6,16C4.5,16,3.99,15.5,3.99,14L3.99,13.49C3.99,11.99,4.5,11.49,6,11.49L8.49,11.49L8.49,8.99C8.49,7.49,9,6.99,10.5,6.99L11,6.99C12.5,6.99,13,7.49,13,8.99L13,11.42L13,11.49C13.04,12.26,13.8,12.99,14.58,12.99L16.47,12.99C16.65,13.52,17.02,13.96,17.49,14.21C17.44,15.54,16.92,15.99,15.5,15.99L13,15.99L13,18.49C13,19.99,12.5,20.49,11,20.49ZM18.92,13L17.88,13L17.88,11.5L15.15,11.5C14.7,11.5,14.38,11.27,14.23,10.85L14.15,10.68C14,10.25,14.06,9.83,14.3,9.42L16.83,5.47C17.08,5.07,17.43,5,17.81,5.25L18.03,5.37C18.41,5.62,18.5,5.97,18.26,6.35L16.16,9.78L17.88,9.75L17.88,8.83C17.88,8.38,18.13,8.13,18.58,8.13L18.93,8.13C19.38,8.13,19.63,8.38,19.63,8.83L19.63,9.75L20.38,9.75C20.83,9.75,21.08,10,21.08,10.45L21.08,10.8C21.08,11.25,20.83,11.5,20.38,11.5L19.63,11.5L19.63,12.3C19.63,12.75,19.38,13,18.93,13Z"/></svg>