<svg xmlns="http://www.w3.org/2000/svg" viewBox="0 0 24 24" fill="currentColor"><path d="M5.13,13C5.13,8.65,8.65,5.13,13,5.13C17.35,5.13,20.88,8.65,20.88,13C20.88,17.35,17.35,20.88,13,20.88C8.65,20.88,5.13,17.35,5.13,13ZM13.88,17.52C13.86,17.88,14.05,18.03,14.58,18.03L14.63,18.03C15.15,18.03,15.36,17.88,15.38,17.52L15.51,15.78L17.3,15.78C17.83,15.78,18.03,15.63,18.03,15.27L18.03,14.75C18.03,14.4,17.83,14.25,17.3,14.25L15.6,14.25L15.78,11.75L17.52,11.75C17.88,11.75,18.03,11.54,18.03,11.02L18.03,10.95C18.03,10.42,17.88,10.22,17.52,10.22L15.87,10.22L16,8.47C16.02,8.12,15.83,7.97,15.3,7.97L15.23,7.97C14.7,7.97,14.5,8.12,14.48,8.47L14.35,10.22L12.03,10.22L12.12,8.7C12.15,8.17,12.03,7.97,11.67,7.97L11.15,7.97C10.8,7.97,10.62,8.17,10.6,8.7L10.5,10.22L8.48,10.22C8.13,10.22,7.98,10.42,7.98,10.95L7.98,11.02C7.98,11.54,8.13,11.75,8.48,11.75L10.41,11.75L10.23,14.25L8.71,14.25C8.19,14.25,7.98,14.39,7.98,14.75L7.98,15.27C7.98,15.63,8.19,15.78,8.71,15.78L10.14,15.78L10.04,17.3C10.02,17.82,10.14,18.03,10.49,18.03L11.01,18.03C11.37,18.03,11.54,17.82,11.56,17.3L11.66,15.78L14.01,15.78ZM11.75,14.25L11.92,11.76L14.25,11.76L14.1,14.25Z"/></svg>