<svg xmlns="http://www.w3.org/2000/svg" viewBox="0 0 24 24" fill="currentColor"><path d="M10.05,20.5L9.96,20.5C8.75,20.5,8.51,20.25,8.51,19.05L8.51,17.5L6.96,17.5C5.75,17.5,5.51,17.25,5.51,16.05L5.51,15.96C5.51,14.75,5.75,14.51,6.96,14.51L8.51,14.51L8.51,11.51L6.96,11.51C5.75,11.51,5.51,11.26,5.51,10.06L5.51,9.96C5.51,8.76,5.75,8.52,6.96,8.52L8.51,8.52L8.51,6.96C8.51,5.76,8.75,5.52,9.96,5.52L10.05,5.52C11.25,5.52,11.5,5.76,11.5,6.96L11.5,8.52L13,8.52L13,11.52L11.5,11.52L11.5,14.52L13,14.52L14.5,14.52L17.5,14.52L19.05,14.52C20.25,14.52,20.5,14.76,20.5,15.96L20.5,16.06C20.5,17.26,20.25,17.51,19.05,17.51L17.5,17.51L17.5,19.06C17.5,20.26,17.25,20.51,16.05,20.51L15.96,20.51C14.75,20.51,14.51,20.26,14.51,19.06L14.51,17.51L11.51,17.51L11.51,19.06C11.51,20.26,11.26,20.51,10.06,20.51ZM19.45,13C19,13,18.75,12.75,18.75,12.3L18.75,11.5L16.03,11.5C15.58,11.5,15.26,11.27,15.11,10.85L15.03,10.68C14.88,10.25,14.94,9.8,15.18,9.42L17.3,5.97C17.55,5.6,17.93,5.37,18.38,5.37L18.98,5.37C19.43,5.37,19.55,5.6,19.33,5.97L17.1,9.78L18.75,9.75L18.75,8.33C18.75,7.88,19,7.63,19.45,7.63L19.8,7.63C20.25,7.63,20.5,7.88,20.5,8.33L20.5,9.75L21.25,9.75C21.7,9.75,21.95,10,21.95,10.45L21.95,10.8C21.95,11.25,21.7,11.5,21.25,11.5L20.5,11.5L20.5,12.3C20.5,12.75,20.25,13,19.8,13Z"/></svg>