<svg xmlns="http://www.w3.org/2000/svg" viewBox="0 0 24 24" fill="currentColor"><path d="M12.5,20.5L12,20.5C10.5,20.5,9.99,20,9.99,18.5L9.99,16L7.5,16C6,16,5.49,15.5,5.49,14L5.49,13.49C5.49,11.99,6,11.49,7.5,11.49L9.99,11.49L9.99,8.99C9.99,7.49,10.5,6.99,12,6.99L12.5,6.99C14,6.99,14.5,7.49,14.5,8.99L14.5,11.49L14.5,11.79C14.5,12.69,15.23,13.81,16.11,14.16C16.81,14.42,17.64,14.57,18.4,14.57C18.6,14.57,18.79,14.54,18.98,14.51C18.87,15.61,18.32,15.99,17,15.99L14.51,15.99L14.51,18.49C14.51,19.99,14,20.49,12.5,20.49ZM16,12.5L16,11.5C16,11.05,16.25,10.88,16.67,11.03C17.48,11.28,18.02,11.38,18.65,11.38C19.27,11.38,19.7,11.13,19.7,10.71C19.7,10.31,19.4,9.96,18.67,9.96L18.44,9.96C17.99,9.96,17.64,9.73,17.47,9.3L17.52,9.45C17.35,9.03,17.45,8.65,17.8,8.35L19.4,7.02L19.62,7.23L16.72,7.23C16.27,7.23,16.02,6.98,16.02,6.53L16.02,6.21C16.02,5.76,16.27,5.51,16.72,5.51L20.54,5.51C20.99,5.51,21.24,5.76,21.24,6.21L21.24,6.73C21.24,7.18,21.04,7.58,20.69,7.86L19.25,8.98L18.07,8.36L18.74,8.38C20.57,8.43,21.5,9.3,21.5,10.61C21.5,11.88,20.57,13.08,18.4,13.08C17.55,13.08,16.77,12.9,16,12.5Z"/></svg>