<svg xmlns="http://www.w3.org/2000/svg" viewBox="0 0 24 24"><path d="M1.5,12C1.5,6.2,6.2,1.5,12,1.5C17.8,1.5,22.5,6.2,22.5,12C22.5,17.8,17.8,22.5,12,22.5C6.2,22.5,1.5,17.8,1.5,12Z" fill="currentColor"/><path d="M6,15.07C6,16.1,6.4,16.5,7.47,16.5L16.57,16.5C17.6,16.5,18,16.1,18,15.03L18,14.93C18,13.9,17.6,13.5,16.53,13.5L7.43,13.5C6.4,13.5,6,13.9,6,14.97Z" fill="currentColor"/><path d="M6,9.07C6,10.1,6.4,10.5,7.47,10.5L16.57,10.5C17.6,10.5,18,10.1,18,9.03L18,8.93C18,7.9,17.6,7.5,16.53,7.5L7.43,7.5C6.4,7.5,6,7.9,6,8.97Z" fill="currentColor"/></svg>