<svg xmlns="http://www.w3.org/2000/svg" viewBox="0 0 24 24"><path d="M6.96,22C3.29,22,1.99,20.7,1.99,17.03L1.99,6.96C1.99,3.29,3.29,1.99,6.96,1.99L17.03,1.99C20.7,1.99,22,3.29,22,6.96L22,17.03C22,20.7,20.7,22,17.03,22Z" fill="currentColor"/><path d="M4,17.5C4,19.33,4.67,20,6.5,20L17.53,20C19.36,20,20,19.33,20,17.5L20,6.47C20,4.64,19.37,4,17.53,4L6.5,4C4.67,4,4,4.63,4,6.47Z" fill="currentColor"/><path d="M4.63,3.54L20.42,19.37L19.36,20.43L3.57,4.6Z" fill="currentColor"/><path d="M4.56,11.31L12.86,19.57L11.8,20.63L3.5,12.37Z" fill="currentColor"/><path d="M12.2,3.37L20.46,11.63L19.4,12.69L11.14,4.43Z" fill="currentColor"/><path d="M3.57,19.37L19.36,3.54L20.42,4.6L4.63,20.43Z" fill="currentColor"/><path d="M11.14,19.56L19.44,11.3L20.5,12.36L12.2,20.62Z" fill="currentColor"/><path d="M3.54,11.63L11.8,3.37L12.86,4.43L4.6,12.69Z" fill="currentColor"/></svg>