<svg xmlns="http://www.w3.org/2000/svg" viewBox="0 0 24 24"><path d="M1.5,12C1.5,6.2,6.2,1.5,12,1.5C17.8,1.5,22.5,6.2,22.5,12C22.5,17.8,17.8,22.5,12,22.5C6.2,22.5,1.5,17.8,1.5,12Z" fill="currentColor"/><path d="M6.97,7L7.77,12.4C7.87,13.07,8.17,13.33,8.9,13.33L9.1,13.33C9.83,13.33,10.13,13.06,10.23,12.4L11.03,7C11.26,5.57,10.76,5,9.26,5L8.73,5C7.23,5,6.73,5.57,6.96,7Z" fill="currentColor"/><path d="M10.83,17C10.83,15.87,10.13,15.17,9,15.17C7.87,15.17,7.17,15.87,7.17,17C7.17,18.13,7.87,18.83,9,18.83C10.13,18.83,10.83,18.13,10.83,17Z" fill="currentColor"/><path d="M12.97,7L13.77,12.4C13.87,13.07,14.17,13.33,14.9,13.33L15.1,13.33C15.83,13.33,16.13,13.06,16.23,12.4L17.03,7C17.26,5.57,16.76,5,15.26,5L14.73,5C13.23,5,12.73,5.57,12.96,7Z" fill="currentColor"/><path d="M16.83,17C16.83,15.87,16.13,15.17,15,15.17C13.87,15.17,13.17,15.87,13.17,17C13.17,18.13,13.87,18.83,15,18.83C16.13,18.83,16.83,18.13,16.83,17Z" fill="currentColor"/></svg>