<svg xmlns="http://www.w3.org/2000/svg" viewBox="0 0 24 24"><path d="M8.07,22L7.94,22C6.34,22,6.01,21.67,6.01,20.07L6.01,18L3.94,18C2.34,18,2.01,17.67,2.01,16.07L2.01,15.94C2.01,14.34,2.34,14.01,3.94,14.01L6.01,14.01L6.01,10.01L3.94,10.01C2.34,10.01,2.01,9.68,2.01,8.08L2.01,7.95C2.01,6.35,2.34,6.02,3.94,6.02L6.01,6.02L6.01,3.95C6.01,2.35,6.34,2.02,7.94,2.02L8.07,2.02C9.67,2.02,10,2.35,10,3.95L10,6.02L12,6.02L12,10.02L10,10.02L10,14.02L12,14.02L14,14.02C15.15,14.02,16.53,14.01,18,14.01L20.07,14.02C21.67,14.02,22,14.35,22,15.95L22,16.08C22,17.68,21.67,18.01,20.07,18.01L18,18.01L18,20.08C18,21.68,17.67,22.01,16.07,22.01L15.94,22.01C14.34,22.01,14.01,21.68,14.01,20.08L14.01,18.01L10.01,18.01L10.01,20.08C10.01,21.68,9.68,22.01,8.08,22.01Z" fill="currentColor"/><path d="M17.2,12.1C16.37,12.1,15.6,11.87,14.83,11.5C14.3,11.23,14,10.77,14,10.17L14,9.77C14,9.17,14.3,8.94,14.87,9.14C15.94,9.54,16.7,9.84,17.54,9.84C18.37,9.84,18.94,9.51,18.94,8.94C18.94,8.41,18.54,7.94,17.57,7.94L17.27,7.94C16.67,7.94,16.2,7.64,15.97,7.07L16.04,7.27C15.81,6.7,15.94,6.2,16.41,5.8L18.54,4.03L18.84,4.3L14.97,4.3C14.37,4.3,14.04,3.97,14.04,3.37L14.04,2.94C14.04,2.34,14.37,2.01,14.97,2.01L20.07,2.01C20.67,2.01,21,2.34,21,2.94L21,3.64C21,4.24,20.73,4.77,20.27,5.14L18.34,6.64L16.77,5.81L17.67,5.84C20.1,5.91,21.34,7.07,21.34,8.81C21.34,10.51,20.11,12.11,17.21,12.11Z" fill="currentColor"/></svg>