<svg xmlns="http://www.w3.org/2000/svg" viewBox="0 0 24 24"><path d="M1.5,12C1.5,6.2,6.2,1.5,12,1.5C17.8,1.5,22.5,6.2,22.5,12C22.5,17.8,17.8,22.5,12,22.5C6.2,22.5,1.5,17.8,1.5,12Z" fill="currentColor"/><path d="M7.13,18.1C6.93,18.53,7.13,18.7,7.83,18.7L8.4,18.7C8.8,18.7,9.1,18.57,9.2,18.3L14.53,5.9C14.73,5.47,14.53,5.3,13.83,5.3L13.23,5.3C12.83,5.3,12.53,5.43,12.43,5.7Z" fill="currentColor"/><path d="M6,7.97L6,12.77C6,13.14,6.2,13.34,6.57,13.34L7.44,13.34C7.81,13.34,8.01,13.14,8.01,12.77L8.01,5.87C8.01,5.5,7.81,5.3,7.44,5.3L6.67,5.3C6.3,5.3,6.04,5.5,5.87,5.83C5.6,6.23,5.07,6.46,4.54,6.56C4.17,6.59,3.97,6.83,3.97,7.19L3.97,8.09C3.97,8.46,4.17,8.66,4.54,8.69C5.21,8.66,5.71,8.29,6.01,7.96Z" fill="currentColor"/><path d="M13.37,17.23L13.37,18.13C13.37,18.5,13.57,18.7,13.94,18.7L19.51,18.7C19.88,18.7,20.08,18.5,20.08,18.13L20.08,17.26C20.08,16.89,19.88,16.69,19.51,16.69L15.61,16.69L15.61,16.62C15.61,16.29,16.14,16.05,17.08,15.69C18.71,15.09,20.08,14.76,20.08,13.02C20.08,11.12,18.45,10.42,17.01,10.42C15.34,10.42,14.14,11.25,13.41,12.02C13.14,12.29,13.14,12.59,13.38,12.85L13.91,13.42C14.18,13.72,14.48,13.72,14.74,13.52C15.47,12.95,16.24,12.42,17.14,12.42C17.64,12.42,18.11,12.59,18.11,13.02C18.11,13.39,17.78,13.45,17.08,13.72C15.01,14.45,13.38,15.12,13.38,17.22Z" fill="currentColor"/></svg>