<svg xmlns="http://www.w3.org/2000/svg" viewBox="0 0 24 24" fill="currentColor"><path d="M13,5.13C17.35,5.13,20.88,8.65,20.88,13C20.88,17.35,17.35,20.88,13,20.88C8.65,20.88,5.13,17.35,5.13,13C5.13,8.65,8.65,5.13,13,5.13ZM12.98,18.63C13.71,18.63,13.83,18.48,13.83,17.78L13.83,15.75C13.83,14.61,14.15,13.86,15,13.05L16.58,11.57L17.68,12.68C18.13,13.13,18.33,13.05,18.36,12.43L18.56,8.81C18.58,8.46,18.41,8.28,18.05,8.3L14.4,8.48C13.78,8.53,13.7,8.7,14.15,9.15L15.38,10.38L12.98,12.63L10.63,10.38L11.85,9.15C12.3,8.7,12.23,8.53,11.6,8.48L7.95,8.3C7.6,8.28,7.43,8.46,7.45,8.81L7.65,12.43C7.67,13.05,7.88,13.13,8.33,12.68L9.45,11.57L10.97,13.02C11.82,13.85,12.15,14.6,12.15,15.75L12.15,17.77C12.15,18.47,12.3,18.62,12.98,18.62Z"/></svg>