<svg xmlns="http://www.w3.org/2000/svg" viewBox="0 0 24 24"><path d="M1.5,12C1.5,6.2,6.2,1.5,12,1.5C17.8,1.5,22.5,6.2,22.5,12C22.5,17.8,17.8,22.5,12,22.5C6.2,22.5,1.5,17.8,1.5,12Z" fill="currentColor"/><path d="M13.17,18.03C13.14,18.5,13.4,18.7,14.1,18.7L14.17,18.7C14.87,18.7,15.14,18.5,15.17,18.03L15.34,15.7L17.74,15.7C18.44,15.7,18.71,15.5,18.71,15.03L18.71,14.33C18.71,13.86,18.44,13.66,17.74,13.66L15.47,13.66L15.7,10.33L18.03,10.33C18.5,10.33,18.7,10.06,18.7,9.36L18.7,9.26C18.7,8.56,18.5,8.29,18.03,8.29L15.83,8.29L16,5.96C16.03,5.49,15.77,5.29,15.07,5.29L14.97,5.29C14.27,5.29,14,5.49,13.97,5.96L13.8,8.29L10.7,8.29L10.83,6.26C10.86,5.56,10.7,5.29,10.23,5.29L9.53,5.29C9.06,5.29,8.83,5.56,8.8,6.26L8.67,8.29L5.97,8.29C5.5,8.29,5.3,8.56,5.3,9.26L5.3,9.36C5.3,10.06,5.5,10.33,5.97,10.33L8.54,10.33L8.31,13.66L6.28,13.66C5.58,13.66,5.31,13.86,5.31,14.33L5.31,15.03C5.31,15.5,5.58,15.7,6.28,15.7L8.18,15.7L8.05,17.73C8.02,18.43,8.18,18.7,8.65,18.7L9.35,18.7C9.82,18.7,10.05,18.43,10.08,17.73L10.21,15.7L13.34,15.7Z" fill="currentColor"/><path d="M10.33,13.67L10.56,10.34L13.66,10.34L13.46,13.67Z" fill="currentColor"/></svg>