<svg xmlns="http://www.w3.org/2000/svg" viewBox="0 0 24 24" fill="currentColor"><path d="M13,5.13C17.35,5.13,20.88,8.65,20.88,13C20.88,17.35,17.35,20.88,13,20.88C8.65,20.88,5.13,17.35,5.13,13C5.13,8.65,8.65,5.13,13,5.13ZM15.45,17C16.43,17.09,16.86,16.52,16.86,15.89C16.86,15.44,16.63,15.2,16.63,15.2C16.63,15.2,17.58,14.97,17.58,14C17.58,13.34,17.18,13.04,17.18,13.04C17.18,13.04,17.79,12.8,17.79,11.99C17.79,11.47,17.51,11.02,16.51,11.02L15.56,11.02C15.05,11.02,14.9,10.79,15.01,10.19C15.18,9.72,15.44,9.27,15.44,8.52C15.44,8.02,15.31,7.22,14.21,7.22L14.01,7.22L13.99,8.12C13.97,8.75,13.54,9.32,12.94,9.77L11.61,10.75C11.19,11.05,11.04,11.42,11.04,12.02L11.04,15.92C11.04,16.43,11.26,16.65,11.88,16.7ZM10.02,11.73C10.02,11.22,9.77,11.03,9.17,11.03L8.9,11.03C8.3,11.03,8.05,11.23,8.05,11.73L8.05,16.25C8.05,16.7,8.25,16.9,8.72,16.94C8.78,16.95,8.83,16.95,8.88,16.95C8.89,16.95,8.9,16.95,8.9,16.95L8.88,16.95L8.48,16.95L8.45,16.95C8.46,16.95,8.47,16.95,8.48,16.95C8.56,16.95,8.64,16.95,8.72,16.94C9.68,16.89,10.02,16.54,10.02,15.62Z"/></svg>