<svg xmlns="http://www.w3.org/2000/svg" viewBox="0 0 24 24" fill="currentColor"><path d="M10.05,20.5L9.96,20.5C8.75,20.5,8.51,20.25,8.51,19.05L8.51,17.5L6.96,17.5C5.75,17.5,5.51,17.25,5.51,16.05L5.51,15.96C5.51,14.75,5.75,14.51,6.96,14.51L8.51,14.51L8.51,11.51L6.96,11.51C5.75,11.51,5.51,11.26,5.51,10.06L5.51,9.96C5.51,8.76,5.75,8.52,6.96,8.52L8.51,8.52L8.51,6.96C8.51,5.76,8.75,5.52,9.96,5.52L10.05,5.52C11.25,5.52,11.5,5.76,11.5,6.96L11.5,8.52L13,8.52L13,11.52L11.5,11.52L11.5,14.52L13,14.52L14.5,14.52C15.36,14.52,16.4,14.51,17.5,14.51L19.05,14.52C20.25,14.52,20.5,14.76,20.5,15.96L20.5,16.06C20.5,17.26,20.25,17.51,19.05,17.51L17.5,17.51L17.5,19.06C17.5,20.26,17.25,20.51,16.05,20.51L15.96,20.51C14.75,20.51,14.51,20.26,14.51,19.06L14.51,17.51L11.51,17.51L11.51,19.06C11.51,20.26,11.26,20.51,10.06,20.51ZM16.9,13.08C16.28,13.08,15.7,12.9,15.12,12.63C14.72,12.42,14.5,12.08,14.5,11.63L14.5,11.33C14.5,10.88,14.73,10.71,15.15,10.86C15.96,11.16,16.53,11.38,17.16,11.38C17.78,11.38,18.2,11.13,18.2,10.71C18.2,10.31,17.91,9.96,17.18,9.96L16.95,9.96C16.5,9.96,16.15,9.73,15.98,9.3L16.03,9.45C15.86,9.02,15.95,8.65,16.31,8.35L17.9,7.02L18.13,7.22L15.23,7.22C14.78,7.22,14.53,6.98,14.53,6.53L14.53,6.21C14.53,5.75,14.78,5.51,15.23,5.51L19.05,5.51C19.5,5.51,19.75,5.75,19.75,6.21L19.75,6.73C19.75,7.18,19.55,7.58,19.2,7.86L17.75,8.98L16.58,8.36L17.25,8.38C19.07,8.43,20,9.3,20,10.61C20,11.88,19.08,13.08,16.91,13.08Z"/></svg>