<svg xmlns="http://www.w3.org/2000/svg" viewBox="0 0 24 24"><path d="M1.5,12C1.5,6.2,6.2,1.5,12,1.5C17.8,1.5,22.5,6.2,22.5,12C22.5,17.8,17.8,22.5,12,22.5C6.2,22.5,1.5,17.8,1.5,12Z" fill="currentColor"/><path d="M9.97,7L10.77,12.4C10.87,13.07,11.17,13.33,11.9,13.33L12.1,13.33C12.83,13.33,13.13,13.06,13.23,12.4L14.03,7C14.26,5.57,13.76,5,12.26,5L11.73,5C10.23,5,9.73,5.57,9.96,7Z" fill="currentColor"/><path d="M13.83,17C13.83,15.87,13.13,15.17,12,15.17C10.87,15.17,10.17,15.87,10.17,17C10.17,18.13,10.87,18.83,12,18.83C13.13,18.83,13.83,18.13,13.83,17Z" fill="currentColor"/></svg>