<svg xmlns="http://www.w3.org/2000/svg" viewBox="0 0 24 24"><path d="M6.93,15.5L5.1,15.5C4.67,15.5,4.4,15.27,4.37,14.8L3.87,2.9C3.84,2.33,4.17,2,4.77,2L7.27,2C7.84,2,8.17,2.33,8.14,2.93L7.67,14.8C7.64,15.27,7.4,15.5,6.94,15.5Z" fill="currentColor"/><path d="M4.13,20.1C4.13,18.23,4.13,18.23,6,18.23C7.9,18.23,7.9,18.23,7.9,20.1C7.9,22.03,7.9,22.03,6,22.03C4.13,22.03,4.13,22.03,4.13,20.1Z" fill="currentColor"/><path d="M16.97,15.23L15.1,15.23C14.5,15.23,14.17,14.9,14.17,14.3C14.2,10.97,14.4,10.9,16.77,9.27C18,8.4,18.57,7.87,18.57,7.07C18.57,6.04,17.6,5.4,16.44,5.4C15.64,5.4,14.67,5.73,13.51,6.57C12.98,7,12.48,6.97,12.11,6.5L11.11,5.13C10.71,4.56,10.74,4.03,11.18,3.66C13.01,2.16,14.61,1.66,16.35,1.66C19.72,1.66,22.35,3.63,22.35,6.96C22.35,9.69,20.65,10.76,19.65,11.53C18.18,12.63,17.95,12.76,17.92,14.3C17.92,14.9,17.59,15.23,16.99,15.23Z" fill="currentColor"/><path d="M14.06,20.06C14.06,18.19,14.13,18.13,16.03,18.13C17.9,18.13,17.96,18.16,17.96,20.1C17.96,21.97,17.89,22.03,16.03,22.03C14.13,22.03,14.06,22.03,14.06,20.06Z" fill="currentColor"/></svg>