<svg xmlns="http://www.w3.org/2000/svg" viewBox="0 0 24 24"><path d="M1.5,12C1.5,6.2,6.2,1.5,12,1.5C17.8,1.5,22.5,6.2,22.5,12C22.5,17.8,17.8,22.5,12,22.5C6.2,22.5,1.5,17.8,1.5,12Z" fill="currentColor"/><path d="M19.03,12C19.03,8.1,15.9,4.97,12,4.97C8.1,4.97,4.97,8.1,4.97,12C4.97,15.9,8.1,19.03,12,19.03C15.9,19.03,19.03,15.9,19.03,12Z" fill="currentColor"/><path d="M7.43,12C7.43,9.5,9.5,7.43,12,7.43C14.5,7.43,16.57,9.5,16.57,12C16.57,14.5,14.5,16.57,12,16.57C9.5,16.57,7.43,14.5,7.43,12Z" fill="currentColor"/><path d="M14.13,12C14.13,10.83,13.16,9.87,12,9.87C10.83,9.87,9.87,10.84,9.87,12C9.87,13.17,10.84,14.13,12,14.13C13.17,14.13,14.13,13.16,14.13,12Z" fill="currentColor"/></svg>