<svg xmlns="http://www.w3.org/2000/svg" viewBox="0 0 24 24"><path d="M1.5,12C1.5,6.2,6.2,1.5,12,1.5C17.8,1.5,22.5,6.2,22.5,12C22.5,17.8,17.8,22.5,12,22.5C6.2,22.5,1.5,17.8,1.5,12Z" fill="currentColor"/><path d="M14.57,7.97C15.7,7.97,16.97,7.37,16.97,5.9C16.97,4.7,16.1,3.87,14.87,3.87C13.63,3.87,12.63,4.79,12.03,6.3C11.44,4.79,10.45,3.87,9.21,3.87C7.94,3.87,7.04,4.67,7.04,5.9C7.04,7.37,8.31,7.97,9.54,7.97Z" fill="currentColor"/><path d="M11.34,18.03L11.34,14L5.97,14L5.97,16.23C5.97,17.6,6.4,18.03,7.77,18.03Z" fill="currentColor"/><path d="M5.97,12.66L11.34,12.66L11.34,9.33L7.77,9.33C6.4,9.33,5.97,9.76,5.97,11.13Z" fill="currentColor"/><path d="M16.23,18.03C17.6,18.03,18.03,17.6,18.03,16.23L18.03,14L12.66,14L12.66,18.03Z" fill="currentColor"/><path d="M12.67,12.67L18.04,12.67L18.04,11.14C18.04,9.77,17.61,9.34,16.24,9.34L12.67,9.34Z" fill="currentColor"/><path d="M8.23,5.9C8.23,5.3,8.73,5,9.26,5C9.94,5,10.52,5.51,10.99,6.8L9.52,6.8C9.05,6.8,8.22,6.67,8.22,5.9Z" fill="currentColor"/><path d="M13.06,6.8C13.52,5.51,14.15,5,14.8,5C15.27,5,15.77,5.3,15.77,5.9C15.77,6.67,14.94,6.8,14.57,6.8Z" fill="currentColor"/></svg>