<svg xmlns="http://www.w3.org/2000/svg" viewBox="0 0 24 24"><path d="M1.5,12C1.5,6.2,6.2,1.5,12,1.5C17.8,1.5,22.5,6.2,22.5,12C22.5,17.8,17.8,22.5,12,22.5C6.2,22.5,1.5,17.8,1.5,12Z" fill="currentColor"/><path d="M11.97,19.5C12.94,19.5,13.1,19.3,13.1,18.37L13.1,15.67C13.1,14.14,13.53,13.14,14.67,12.07L16.77,10.1L18.24,11.57C18.84,12.17,19.11,12.07,19.14,11.24L19.41,6.41C19.44,5.94,19.21,5.71,18.74,5.74L13.87,5.97C13.04,6.04,12.94,6.27,13.54,6.87L15.17,8.5L11.97,11.5L8.84,8.5L10.47,6.87C11.07,6.27,10.97,6.04,10.14,5.97L5.27,5.74C4.8,5.71,4.57,5.94,4.6,6.41L4.87,11.24C4.9,12.07,5.17,12.17,5.77,11.57L7.27,10.1L9.3,12.03C10.43,13.13,10.87,14.13,10.87,15.66L10.87,18.36C10.87,19.29,11.07,19.49,11.97,19.49Z" fill="currentColor"/></svg>