<svg xmlns="http://www.w3.org/2000/svg" viewBox="0 0 24 24" fill="currentColor"><path d="M10.05,20.5L9.96,20.5C8.75,20.5,8.51,20.25,8.51,19.05L8.51,17.5L6.96,17.5C5.75,17.5,5.51,17.25,5.51,16.05L5.51,15.96C5.51,14.75,5.75,14.51,6.96,14.51L8.51,14.51L8.51,11.51L6.96,11.51C5.75,11.51,5.51,11.26,5.51,10.06L5.51,9.96C5.51,8.76,5.75,8.52,6.96,8.52L8.51,8.52L8.51,6.96C8.51,5.76,8.75,5.52,9.96,5.52L10.05,5.52C11.25,5.52,11.5,5.76,11.5,6.96L11.5,8.52L12.72,8.52L12.72,8.64C12.72,10.29,13.97,11.55,15.63,11.55L16,11.55L16,14.52L17.5,14.52L19.05,14.52C20.25,14.52,20.5,14.77,20.5,15.97L20.5,16.07C20.5,17.27,20.25,17.52,19.05,17.52L17.5,17.52L17.5,19.07C17.5,20.27,17.25,20.52,16.05,20.52L15.96,20.52C14.75,20.52,14.51,20.27,14.51,19.07L14.51,17.52L11.51,17.52L11.51,19.07C11.51,20.27,11.26,20.52,10.06,20.52ZM11.5,14.5L14.5,14.5L14.5,11.5L11.5,11.5ZM18.05,13C17.6,13,17.35,12.75,17.35,12.3L17.35,7.25L17.95,7.35L15.8,9.53C15.47,9.85,15.12,9.85,14.82,9.51L14.5,9.15C14.2,8.8,14.2,8.46,14.52,8.16L16.77,5.98C17.09,5.68,17.52,5.51,17.97,5.51L18.5,5.51C18.95,5.51,19.2,5.76,19.2,6.21L19.2,12.3C19.2,12.75,18.95,13,18.5,13Z"/></svg>