<svg xmlns="http://www.w3.org/2000/svg" viewBox="0 0 24 24"><path d="M1.5,12C1.5,6.2,6.2,1.5,12,1.5C17.8,1.5,22.5,6.2,22.5,12C22.5,17.8,17.8,22.5,12,22.5C6.2,22.5,1.5,17.8,1.5,12Z" fill="currentColor"/><path d="M5.87,6.73L6.97,18.16C7.04,18.86,7.34,19.09,8.04,19.03L8.11,19.03C8.81,18.96,9.04,18.66,8.98,17.96L8.61,14.19C8.54,13.49,8.78,13.19,9.48,13.12L10.65,12.99C11.35,12.92,11.82,13.06,12.35,13.52L13.38,14.42C14.41,15.29,15.18,15.55,16.51,15.42L18.44,15.22C19.14,15.15,19.37,14.85,19.31,14.15L18.84,8.52C18.77,7.82,18.47,7.59,17.77,7.65L15.9,7.88C15.2,7.95,14.73,7.81,14.2,7.38L13,6.41C11.93,5.58,11.17,5.34,9.83,5.48L6.53,5.75L6.73,5.75C6.03,5.75,5.8,6.02,5.86,6.72Z" fill="currentColor"/></svg>