<svg xmlns="http://www.w3.org/2000/svg" viewBox="0 0 24 24" fill="currentColor"><path d="M5.13,13C5.13,8.65,8.65,5.13,13,5.13C17.35,5.13,20.88,8.65,20.88,13C20.88,17.35,17.35,20.88,13,20.88C8.65,20.88,5.13,17.35,5.13,13ZM14.93,9.98C15.77,9.98,16.73,9.53,16.73,8.43C16.73,7.53,16.07,6.9,15.15,6.9C14.22,6.9,13.47,7.59,13.02,8.73C12.58,7.59,11.84,6.9,10.91,6.9C9.95,6.9,9.28,7.5,9.28,8.43C9.28,9.53,10.23,9.98,11.15,9.98ZM12.5,17.52L12.5,14.5L8.48,14.5L8.48,16.17C8.48,17.2,8.8,17.52,9.83,17.52ZM8.48,13.5L12.5,13.5L12.5,11L9.83,11C8.8,11,8.48,11.32,8.48,12.35ZM16.17,17.52C17.2,17.52,17.52,17.2,17.52,16.17L17.52,14.5L13.5,14.5L13.5,17.52ZM13.5,13.5L17.53,13.5L17.53,12.36C17.53,11.33,17.21,11.01,16.18,11.01L13.5,11.01ZM10.17,8.43C10.17,7.98,10.55,7.75,10.95,7.75C11.46,7.75,11.89,8.13,12.24,9.1L11.14,9.1C10.79,9.1,10.16,9,10.16,8.43ZM13.79,9.1C14.14,8.13,14.61,7.75,15.1,7.75C15.45,7.75,15.83,7.98,15.83,8.43C15.83,9,15.2,9.1,14.93,9.1Z"/></svg>