<svg xmlns="http://www.w3.org/2000/svg" viewBox="0 0 24 24" fill="currentColor"><path d="M5.13,13C5.13,8.65,8.65,5.13,13,5.13C17.35,5.13,20.88,8.65,20.88,13C20.88,17.35,17.35,20.88,13,20.88C8.65,20.88,5.13,17.35,5.13,13ZM8.4,9.05L9.23,17.62C9.28,18.14,9.5,18.32,10.03,18.27L10.08,18.27C10.61,18.22,10.78,18,10.73,17.47L10.46,14.64C10.4,14.12,10.58,13.89,11.11,13.84L11.99,13.74C12.51,13.69,12.86,13.8,13.26,14.14L14.04,14.82C14.81,15.47,15.38,15.66,16.38,15.57L17.83,15.42C18.35,15.36,18.53,15.14,18.48,14.61L18.13,10.39C18.08,9.87,17.85,9.69,17.33,9.74L15.92,9.91C15.4,9.96,15.05,9.86,14.65,9.54L13.75,8.81C12.95,8.19,12.38,8.01,11.37,8.11L8.9,8.31L9.05,8.31C8.52,8.31,8.35,8.52,8.4,9.04Z"/></svg>