<svg xmlns="http://www.w3.org/2000/svg" viewBox="0 0 24 24"><path d="M11.33,22L10.66,22C8.66,22,7.99,21.33,7.99,19.33L7.99,16L4.66,16C2.66,16,1.99,15.33,1.99,13.33L1.99,12.66C1.99,10.66,2.66,9.99,4.66,9.99L7.99,9.99L7.99,6.66C7.99,4.66,8.66,3.99,10.66,3.99L11.33,3.99C13.33,3.99,14,4.66,14,6.66L14,9.99L14,10.39C14,11.59,14.98,13.08,16.14,13.55C17.08,13.89,18.19,14.09,19.2,14.09C19.47,14.09,19.72,14.06,19.97,14.01C19.82,15.48,19.09,15.99,17.34,15.99L14.01,15.99L14.01,19.32C14.01,21.32,13.34,21.99,11.34,21.99Z" fill="currentColor"/><path d="M19.2,12.1C18.07,12.1,17.03,11.87,16,11.33L16,10C16,9.4,16.33,9.17,16.9,9.37C17.97,9.7,18.7,9.84,19.53,9.84C20.36,9.84,20.93,9.51,20.93,8.94C20.93,8.41,20.53,7.94,19.56,7.94L19.26,7.94C18.66,7.94,18.19,7.64,17.96,7.07L18.03,7.27C17.8,6.7,17.93,6.2,18.4,5.8L20.53,4.03L20.83,4.3L16.96,4.3C16.36,4.3,16.03,3.97,16.03,3.37L16.03,2.94C16.03,2.34,16.36,2.01,16.96,2.01L22.06,2.01C22.66,2.01,22.99,2.34,22.99,2.94L22.99,3.64C22.99,4.24,22.72,4.77,22.26,5.14L20.33,6.64L18.76,5.81L19.66,5.84C22.09,5.91,23.33,7.07,23.33,8.81C23.33,10.51,22.1,12.11,19.2,12.11Z" fill="currentColor"/></svg>