<svg xmlns="http://www.w3.org/2000/svg" viewBox="0 0 24 24" fill="currentColor"><path d="M10.05,20.5L9.96,20.5C8.75,20.5,8.51,20.25,8.51,19.05L8.51,17.5L6.96,17.5C5.75,17.5,5.51,17.25,5.51,16.05L5.51,15.96C5.51,14.75,5.75,14.51,6.96,14.51L8.51,14.51L8.51,11.51L6.96,11.51C5.75,11.51,5.51,11.26,5.51,10.06L5.51,9.96C5.51,8.76,5.75,8.52,6.96,8.52L8.51,8.52L8.51,6.96C8.51,5.76,8.75,5.52,9.96,5.52L10.05,5.52C11.25,5.52,11.5,5.76,11.5,6.96L11.5,8.52L13.7,8.52L13.7,11.52L11.5,11.52L11.5,14.52L13.7,14.52L14.5,14.52L17.5,14.52L19.05,14.52C20.25,14.52,20.5,14.76,20.5,15.96L20.5,16.06C20.5,17.26,20.25,17.51,19.05,17.51L17.5,17.51L17.5,19.06C17.5,20.26,17.25,20.51,16.05,20.51L15.96,20.51C14.75,20.51,14.51,20.26,14.51,19.06L14.51,17.51L11.51,17.51L11.51,19.06C11.51,20.26,11.26,20.51,10.06,20.51ZM19.8,12.98L15.98,12.98C15.53,12.98,15.28,12.73,15.28,12.28L15.28,11.7C15.28,11.25,15.45,10.83,15.8,10.53L17.88,8.7C18.35,8.31,18.61,8.05,18.61,7.71C18.61,7.38,18.33,7.16,17.81,7.16C17.41,7.16,16.88,7.33,16.23,7.76C15.86,8.01,15.5,7.96,15.26,7.59L15.18,7.44C14.93,7.06,14.96,6.69,15.31,6.39C16.21,5.64,16.96,5.41,17.78,5.41C19.46,5.41,20.41,6.39,20.41,7.59C20.41,8.41,19.88,9.21,18.91,10.06L16.76,11.94L16.88,11.06L19.81,11.06C20.26,11.06,20.51,11.31,20.51,11.76L20.51,12.28C20.51,12.73,20.26,12.98,19.81,12.98Z"/></svg>