<svg xmlns="http://www.w3.org/2000/svg" viewBox="0 0 24 24" fill="currentColor"><path d="M10.7,15.63L9.32,15.63C9,15.63,8.8,15.45,8.78,15.1L8.4,6.18C8.38,5.75,8.63,5.5,9.08,5.5L10.95,5.5C11.38,5.5,11.63,5.75,11.6,6.2L11.25,15.1C11.23,15.45,11.05,15.62,10.7,15.62ZM8.6,19.08C8.6,17.67,8.6,17.67,10,17.67C11.43,17.67,11.43,17.67,11.43,19.08C11.43,20.52,11.43,20.52,10,20.52C8.6,20.52,8.6,20.52,8.6,19.08ZM16.7,15.63L15.33,15.63C15,15.63,14.8,15.45,14.78,15.1L14.4,6.18C14.38,5.75,14.63,5.5,15.08,5.5L16.95,5.5C17.38,5.5,17.63,5.75,17.61,6.2L17.25,15.1C17.23,15.45,17.05,15.62,16.71,15.62ZM14.6,19.08C14.6,17.67,14.6,17.67,16,17.67C17.42,17.67,17.42,17.67,17.42,19.08C17.42,20.52,17.42,20.52,16,20.52C14.6,20.52,14.6,20.52,14.6,19.08Z"/></svg>