<svg xmlns="http://www.w3.org/2000/svg" viewBox="0 0 24 24" fill="currentColor"><path d="M5.13,13C5.13,8.65,8.65,5.13,13,5.13C17.35,5.13,20.88,8.65,20.88,13C20.88,17.35,17.35,20.88,13,20.88C8.65,20.88,5.13,17.35,5.13,13ZM7.82,10.7L8.55,15.85C8.57,16.13,8.75,16.32,9,16.4C10.38,16.85,11.68,17.05,13,17.05C14.33,17.05,15.63,16.85,17,16.4C17.24,16.32,17.42,16.12,17.45,15.85L18.17,10.7C18.23,10.22,18.1,10.15,17.72,10.42L14.95,12.32L13.25,8.52C13.07,8.09,12.92,8.09,12.72,8.52L11.02,12.32L8.27,10.42C7.89,10.14,7.76,10.22,7.82,10.7Z"/></svg>