<svg xmlns="http://www.w3.org/2000/svg" viewBox="0 0 24 24"><path d="M9.33,22L8.66,22C6.66,22,5.99,21.33,5.99,19.33L5.99,16L2.66,16C0.66,16,-0.01,15.33,-0.01,13.33L-0.01,12.66C-0.01,10.66,0.66,9.99,2.66,9.99L5.99,9.99L5.99,6.66C5.99,4.66,6.66,3.99,8.66,3.99L9.33,3.99C11.33,3.99,12,4.66,12,6.66L12,9.89L12,9.99C12.06,11.02,13.07,11.99,14.1,11.99L16.63,11.99C16.87,12.7,17.36,13.28,17.99,13.62C17.92,15.39,17.22,15.99,15.33,15.99L12,15.99L12,19.32C12,21.32,11.33,21.99,9.33,21.99Z" fill="currentColor"/><path d="M19.9,12L18.5,12L18.5,10L14.87,10C14.27,10,13.84,9.7,13.64,9.13L13.54,8.9C13.34,8.33,13.41,7.77,13.74,7.23L17.11,1.96C17.44,1.43,17.91,1.33,18.41,1.66L18.71,1.83C19.21,2.16,19.34,2.63,19.01,3.13L16.21,7.7L18.51,7.67L18.51,6.44C18.51,5.84,18.84,5.51,19.44,5.51L19.91,5.51C20.51,5.51,20.84,5.84,20.84,6.44L20.84,7.67L21.84,7.67C22.44,7.67,22.77,8,22.77,8.6L22.77,9.07C22.77,9.67,22.44,10,21.84,10L20.84,10L20.84,11.07C20.84,11.67,20.51,12,19.91,12Z" fill="currentColor"/></svg>