<svg xmlns="http://www.w3.org/2000/svg" viewBox="0 0 24 24" fill="currentColor"><path d="M4.88,20.52C4.13,20.67,3.88,20.45,4.05,19.7C4.95,14.95,4.95,11.05,4.05,6.29C3.88,5.54,4.13,5.32,4.88,5.47C9.58,6.44,13.43,6.44,18.13,5.47C18.88,5.32,19.13,5.54,18.96,6.29C18.7,7.65,18.51,8.93,18.41,10.19C17.88,10.07,17.33,9.99,16.76,9.99C13.01,9.99,10.01,12.99,10.01,16.74C10.01,17.84,10.27,18.88,10.73,19.79C8.85,19.85,6.95,20.09,4.89,20.52ZM16.75,11.52C19.62,11.52,21.98,13.87,21.98,16.75C21.98,19.6,19.63,21.98,16.75,21.98C13.9,21.98,11.52,19.6,11.52,16.75C11.52,13.88,13.9,11.52,16.75,11.52ZM14.5,19.83C14.5,20.28,14.75,20.52,15.2,20.52L15.29,20.52C15.75,20.52,15.99,20.28,15.99,19.83L15.99,19L17.49,19L17.49,19.83C17.49,20.28,17.74,20.52,18.19,20.52L18.29,20.52C18.74,20.52,18.98,20.28,18.98,19.83L18.98,19L19.81,19C20.26,19,20.51,18.75,20.51,18.3L20.51,18.21C20.51,17.75,20.26,17.51,19.81,17.51L18.98,17.51L18.98,16.01L19.81,16.01C20.26,16.01,20.51,15.76,20.51,15.31L20.51,15.21C20.51,14.76,20.26,14.52,19.81,14.52L18.98,14.52L18.98,13.69C18.98,13.24,18.74,12.99,18.29,12.99L18.19,12.99C17.74,12.99,17.49,13.24,17.49,13.69L17.49,14.52L15.99,14.52L15.99,13.69C15.99,13.24,15.75,12.99,15.29,12.99L15.2,12.99C14.75,12.99,14.5,13.24,14.5,13.69L14.5,14.52L13.67,14.52C13.22,14.52,12.98,14.76,12.98,15.21L12.98,15.31C12.98,15.76,13.22,16.01,13.67,16.01L14.5,16.01L14.5,17.51L13.67,17.51C13.22,17.51,12.98,17.75,12.98,18.21L12.98,18.3C12.98,18.75,13.22,19,13.67,19L14.5,19ZM16,17.5L16,16L17.5,16L17.5,17.5Z"/></svg>