<svg xmlns="http://www.w3.org/2000/svg" viewBox="0 0 24 24" fill="currentColor"><path d="M13,5.13C17.35,5.13,20.88,8.65,20.88,13C20.88,17.35,17.35,20.88,13,20.88C8.65,20.88,5.13,17.35,5.13,13C5.13,8.65,8.65,5.13,13,5.13ZM9.23,9.25L9.83,13.3C9.9,13.8,10.13,14,10.68,14L10.83,14C11.37,14,11.6,13.79,11.67,13.3L12.27,9.25C12.45,8.18,12.07,7.75,10.95,7.75L10.55,7.75C9.42,7.75,9.05,8.18,9.22,9.25ZM10.75,15.38C9.9,15.38,9.38,15.9,9.38,16.75C9.38,17.6,9.9,18.12,10.75,18.12C11.6,18.12,12.12,17.6,12.12,16.75C12.12,15.9,11.6,15.38,10.75,15.38ZM13.73,9.25L14.33,13.3C14.4,13.8,14.63,14,15.17,14L15.32,14C15.87,14,16.1,13.79,16.17,13.3L16.77,9.25C16.95,8.18,16.57,7.75,15.44,7.75L15.05,7.75C13.92,7.75,13.55,8.18,13.72,9.25ZM15.25,15.38C14.4,15.38,13.88,15.9,13.88,16.75C13.88,17.6,14.4,18.12,15.25,18.12C16.1,18.12,16.62,17.6,16.62,16.75C16.62,15.9,16.1,15.38,15.25,15.38Z"/></svg>