<svg xmlns="http://www.w3.org/2000/svg" viewBox="0 0 24 24" fill="currentColor"><path d="M8.95,7C7.75,7,7.5,6.75,7.5,5.55L7.5,5.46C7.5,4.25,7.75,4.01,8.95,4.01L17.05,4.01C18.25,4.01,18.5,4.26,18.5,5.46L18.5,5.55C18.5,6.75,18.25,7,17.05,7ZM12.96,21.95C11.75,21.95,11.51,21.7,11.51,20.5L11.51,14.45C11.51,13.25,11.75,13,12.96,13L13.05,13C14.25,13,14.5,13.25,14.5,14.45L14.5,20.5C14.5,21.7,14.25,21.95,13.05,21.95ZM8.95,18.98C7.75,18.98,7.5,18.73,7.5,17.53L7.5,17.43C7.5,16.23,7.75,15.98,8.95,15.98L17.05,15.98C18.25,15.98,18.5,16.23,18.5,17.43L18.5,17.53C18.5,18.73,18.25,18.98,17.05,18.98ZM8.95,11.5C7.75,11.5,7.5,11.25,7.5,10.05L7.5,9.96C7.5,8.75,7.75,8.51,8.95,8.51L17.05,8.51C18.25,8.51,18.5,8.75,18.5,9.96L18.5,10.05C18.5,11.25,18.25,11.5,17.05,11.5Z"/></svg>