<svg xmlns="http://www.w3.org/2000/svg" viewBox="0 0 24 24" fill="currentColor"><path d="M8.46,8.5C7.25,8.5,7.01,8.25,7.01,7.05L7.01,6.96C7.01,5.75,7.25,5.51,8.46,5.51L17.55,5.51C18.75,5.51,19,5.76,19,6.96L19,7.05C19,8.25,18.75,8.5,17.55,8.5ZM8.46,17.5C7.25,17.5,7.01,17.25,7.01,16.05L7.01,15.96C7.01,14.75,7.25,14.51,8.46,14.51L17.55,14.51C18.75,14.51,19,14.75,19,15.96L19,16.05C19,17.25,18.75,17.5,17.55,17.5ZM12.96,22C11.75,22,11.51,21.75,11.51,20.55L11.51,11.46C11.51,10.25,11.75,10.01,12.96,10.01L13.05,10.01C14.25,10.01,14.5,10.25,14.5,11.46L14.5,20.55C14.5,21.75,14.25,22,13.05,22Z"/></svg>