<svg xmlns="http://www.w3.org/2000/svg" viewBox="0 0 24 24" fill="currentColor"><path d="M20.45,9.57L16.75,13.27C16.32,13.7,15.77,13.7,15.35,13.27L15.14,13.07C14.72,12.64,14.72,12.09,15.14,11.66L17.97,8.87L15.14,6.04C14.72,5.61,14.72,5.06,15.14,4.64L15.35,4.43C15.77,4.01,16.32,4.01,16.75,4.43L20.45,8.16C20.88,8.59,20.88,9.14,20.45,9.56ZM10.85,21.35L10.65,21.55C10.22,21.98,9.67,21.98,9.24,21.55L5.55,17.82C5.12,17.39,5.12,16.85,5.55,16.42L9.24,12.72C9.67,12.29,10.22,12.29,10.65,12.72L10.85,12.92C11.28,13.35,11.28,13.9,10.85,14.33L8.02,17.13L10.85,19.95C11.28,20.38,11.28,20.93,10.85,21.36ZM20.5,17L20.5,17.27C20.5,17.9,20.13,18.27,19.5,18.27L6.78,18.22L6.78,15.99L19.5,15.99C20.13,15.99,20.5,16.37,20.5,16.99ZM6.5,10C5.88,10,5.5,9.63,5.5,9L5.5,8.73C5.5,8.1,5.88,7.73,6.5,7.73L19.22,7.78L19.22,10.01Z"/></svg>