<svg xmlns="http://www.w3.org/2000/svg" viewBox="0 0 24 24" fill="currentColor"><path d="M7.5,20.46C7.5,19.25,7.75,19.01,8.95,19.01L17.05,19.01C18.25,19.01,18.5,19.25,18.5,20.46L18.5,20.55C18.5,21.75,18.25,22,17.05,22L8.95,22C7.75,22,7.5,21.75,7.5,20.55ZM11.5,5.5C11.5,4.3,11.75,4.05,12.95,4.05L13.04,4.05C14.25,4.05,14.49,4.3,14.49,5.5L14.49,11.55C14.49,12.75,14.25,13,13.04,13L12.95,13C11.75,13,11.5,12.75,11.5,11.55ZM7.5,8.48C7.5,7.28,7.75,7.03,8.95,7.03L17.05,7.03C18.25,7.03,18.5,7.28,18.5,8.48L18.5,8.57C18.5,9.77,18.25,10.02,17.05,10.02L8.95,10.02C7.75,10.02,7.5,9.77,7.5,8.57ZM7.5,15.96C7.5,14.75,7.75,14.51,8.95,14.51L17.05,14.51C18.25,14.51,18.5,14.75,18.5,15.96L18.5,16.05C18.5,17.25,18.25,17.5,17.05,17.5L8.95,17.5C7.75,17.5,7.5,17.25,7.5,16.05Z"/></svg>