<svg xmlns="http://www.w3.org/2000/svg" viewBox="0 0 24 24" fill="currentColor"><path d="M9.65,14.13C9.03,14.13,8.66,13.75,8.66,13.13L8.66,12.88C8.66,12.26,9.03,11.88,9.65,11.88L16.35,11.88C16.97,11.88,17.35,12.26,17.35,12.88L17.35,13.13C17.35,13.75,16.97,14.13,16.35,14.13ZM12.88,17.35C12.26,17.35,11.88,16.98,11.88,16.35L11.88,9.65C11.88,9.03,12.26,8.66,12.88,8.66L13.13,8.66C13.75,8.66,14.13,9.03,14.13,9.65L14.13,16.35C14.13,16.97,13.75,17.35,13.13,17.35ZM19.32,13C19.32,9.38,16.62,6.68,13,6.68C9.38,6.68,6.68,9.38,6.68,13C6.68,16.62,9.38,19.32,13,19.32C16.62,19.32,19.32,16.62,19.32,13ZM4.68,13C4.68,8.4,8.4,4.68,13,4.68C17.6,4.68,21.33,8.4,21.33,13C21.33,17.6,17.6,21.33,13,21.33C8.4,21.33,4.68,17.6,4.68,13Z"/></svg>