<svg xmlns="http://www.w3.org/2000/svg" viewBox="0 0 24 24" fill="currentColor"><path d="M8.46,11.5C7.25,11.5,7.01,11.25,7.01,10.05L7.01,9.96C7.01,8.75,7.25,8.51,8.46,8.51L17.55,8.51C18.75,8.51,19,8.75,19,9.96L19,10.05C19,11.25,18.75,11.5,17.55,11.5ZM8.46,20.5C7.25,20.5,7.01,20.25,7.01,19.05L7.01,18.96C7.01,17.75,7.25,17.51,8.46,17.51L17.55,17.51C18.75,17.51,19,17.75,19,18.96L19,19.05C19,20.25,18.75,20.5,17.55,20.5ZM12.96,16C11.75,16,11.51,15.75,11.51,14.55L11.51,5.46C11.51,4.25,11.75,4.01,12.96,4.01L13.05,4.01C14.25,4.01,14.5,4.25,14.5,5.46L14.5,14.55C14.5,15.75,14.25,16,13.05,16Z"/></svg>