<svg xmlns="http://www.w3.org/2000/svg" viewBox="0 0 24 24" fill="currentColor"><path d="M11.83,13C11.83,12.59,10.05,10,8.48,10C7.22,10,6.25,10.95,6.25,13C6.25,15.06,7.22,16,8.48,16C10.05,16,11.83,13.41,11.83,13ZM4,13C4,9.7,6,7.75,8.48,7.75C11.58,7.75,14.08,11.63,14.08,13C14.08,14.37,11.58,18.25,8.48,18.25C6,18.25,4,16.3,4,13ZM19.75,13C19.75,10.93,18.82,10,17.55,10C15.96,10,14.18,12.59,14.18,13C14.18,13.41,15.96,16,17.55,16C18.82,16,19.75,15.07,19.75,13ZM11.93,13C11.93,11.63,14.42,7.75,17.55,7.75C20.05,7.75,22,9.7,22,13C22,16.3,20.05,18.25,17.55,18.25C14.42,18.25,11.93,14.37,11.93,13Z"/></svg>