<svg xmlns="http://www.w3.org/2000/svg" viewBox="0 0 24 24" fill="currentColor"><path d="M6.59,20.32C6.35,20.72,6.02,20.79,5.62,20.54L5.52,20.47C5.12,20.22,5.05,19.89,5.3,19.49L14.27,5.67C14.52,5.27,14.85,5.2,15.25,5.45L15.35,5.52C15.75,5.77,15.82,6.1,15.57,6.5ZM4.71,10C4.26,10,4.01,9.75,4.01,9.3L4.01,9.21C4.01,8.75,4.26,8.51,4.71,8.51L9.3,8.51C9.75,8.51,10,8.75,10,9.21L10,9.3C10,9.75,9.75,10,9.3,10ZM14.07,14.35C16.15,14.35,17.42,17.45,17.42,17.5C17.42,17.52,16.15,20.65,14.07,20.65C12.35,20.65,11.25,19.3,11.25,17.5C11.25,15.7,12.32,14.35,14.07,14.35ZM15.93,17.5C15.08,16.23,14.58,15.77,14.03,15.77C13.33,15.77,12.66,16.43,12.66,17.52C12.66,18.45,13.18,19.23,13.98,19.23C14.67,19.23,15.05,18.7,15.93,17.5ZM4.71,7C4.26,7,4.01,6.75,4.01,6.3L4.01,6.21C4.01,5.76,4.26,5.51,4.71,5.51L9.3,5.51C9.75,5.51,10,5.76,10,6.21L10,6.3C10,6.75,9.75,7,9.3,7ZM19.2,14.35C20.95,14.35,22,15.7,22,17.5C22,19.3,20.95,20.65,19.2,20.65C17.13,20.65,15.92,17.52,15.92,17.5C15.92,17.45,17.1,14.35,19.2,14.35ZM19.3,15.77C18.55,15.77,18.18,16.38,17.43,17.5C18.23,18.8,18.7,19.23,19.23,19.23C19.95,19.23,20.6,18.53,20.6,17.48C20.6,16.55,20.07,15.77,19.3,15.77Z"/></svg>