<svg xmlns="http://www.w3.org/2000/svg" viewBox="0 0 24 24" fill="currentColor"><path d="M9.21,18.63C8,18.63,7.76,18.38,7.76,17.18L7.76,8.83C7.76,7.63,8,7.38,9.21,7.38L9.3,7.38C10.5,7.38,10.75,7.63,10.75,8.83L10.75,17.18C10.75,18.38,10.5,18.63,9.3,18.63ZM5.46,14.5C4.25,14.5,4.01,14.25,4.01,13.05L4.01,12.96C4.01,11.75,4.25,11.51,5.46,11.51L13.05,11.51C14.25,11.51,14.5,11.75,14.5,12.96L14.5,13.05C14.5,14.25,14.25,14.5,13.05,14.5ZM17.46,14.5C16.25,14.5,16.01,14.25,16.01,13.05L16.01,12.96C16.01,11.75,16.25,11.51,17.46,11.51L20.55,11.51C21.75,11.51,22,11.75,22,12.96L22,13.05C22,14.25,21.75,14.5,20.55,14.5Z"/></svg>