<svg xmlns="http://www.w3.org/2000/svg" viewBox="0 0 24 24" fill="currentColor"><path d="M16.79,7.38C18,7.38,18.24,7.62,18.24,8.82L18.24,17.17C18.24,18.37,18,18.62,16.79,18.62L16.7,18.62C15.5,18.62,15.25,18.37,15.25,17.17L15.25,8.82C15.25,7.62,15.5,7.38,16.7,7.38ZM20.55,11.5C21.75,11.5,21.99,11.75,21.99,12.95L21.99,13.04C21.99,14.25,21.75,14.49,20.55,14.49L12.95,14.49C11.75,14.49,11.5,14.25,11.5,13.04L11.5,12.95C11.5,11.75,11.75,11.5,12.95,11.5ZM8.54,11.5C9.74,11.5,9.99,11.75,9.99,12.95L9.99,13.04C9.99,14.25,9.74,14.49,8.54,14.49L5.45,14.49C4.25,14.49,4,14.25,4,13.04L4,12.95C4,11.75,4.25,11.5,5.45,11.5Z"/></svg>