<svg xmlns="http://www.w3.org/2000/svg" viewBox="0 0 24 24" fill="currentColor"><path d="M13.7,11.48C13.27,11.91,12.72,11.91,12.29,11.48L12.09,11.28C11.66,10.85,11.66,10.3,12.09,9.87L16.42,5.55C16.85,5.12,17.39,5.12,17.82,5.55L21.55,9.24C21.98,9.67,21.98,10.22,21.55,10.65L21.35,10.85C20.92,11.28,20.37,11.28,19.95,10.85L17.12,8.02ZM9,20.5L8.73,20.5C8.1,20.5,7.73,20.13,7.73,19.5L7.78,6.78L10.01,6.78L10.01,19.5C10.01,20.13,9.63,20.5,9.01,20.5ZM6.05,10.85C5.62,11.28,5.07,11.28,4.65,10.85L4.44,10.65C4.01,10.22,4.01,9.67,4.44,9.24L8.17,5.55C8.6,5.12,9.14,5.12,9.57,5.55L13.9,9.87C14.33,10.3,14.33,10.85,13.9,11.28L13,12.18L8.88,8.03ZM17.27,20.5L17,20.5C16.38,20.5,16,20.13,16,19.5L16,6.78L18.23,6.78L18.28,19.5C18.28,20.13,17.91,20.5,17.28,20.5Z"/></svg>