<svg xmlns="http://www.w3.org/2000/svg" viewBox="0 0 1100 1100"><path d="M800,500C865,500,900,465,900,400L900,300C900,235,865,200,800,200L300,200C235,200,200,235,200,300L200,400C200,465,235,500,300,500Z" fill="currentColor"/><path d="M800,900C865,900,900,865,900,800L900,700C900,635,865,600,800,600L300,600C235,600,200,635,200,700L200,800C200,865,235,900,300,900Z" fill="currentColor"/><path d="M690,750C690,718,717,690,750,690C782,690,810,718,810,750C810,783,782,810,750,810C717,810,690,783,690,750Z" fill="currentColor"/><path d="M690,350C690,318,717,290,750,290C782,290,810,318,810,350C810,383,782,410,750,410C717,410,690,383,690,350Z" fill="currentColor"/></svg>