<svg xmlns="http://www.w3.org/2000/svg" viewBox="0 0 1100 1100"><path d="M910,650C910,535.49,814.51,440,700,440C584.29,440,490,535.69,490,650C490,763.11,584.09,860,700,860C814.71,860,910,763.31,910,650Z" fill="currentColor"/><path d="M590,650C590,590.31,639.71,540,700,540C759.49,540,810,590.51,810,650C810,708.69,759.29,760,700,760C639.91,760,590,708.89,590,650Z" fill="currentColor"/><path d="M875,754L804,825L979,1000L1050,929Z" fill="currentColor"/><path d="M200,300L900,300L900,200L200,200Z" fill="currentColor"/><path d="M200,600L400,600L400,500L200,500Z" fill="currentColor"/><path d="M200,900L400,900L400,800L200,800Z" fill="currentColor"/></svg>