<svg xmlns="http://www.w3.org/2000/svg" viewBox="0 0 1100 1100"><path d="M700,500C765,500,800,465,800,400L800,300C800,235,765,200,700,200L400,200C335,200,300,235,300,300L300,400C300,465,335,500,400,500Z" fill="currentColor"/><path d="M500,900L600,900L600,600L500,600Z" fill="currentColor"/><path d="M390,350C390,316,415,290,450,290C484,290,510,316,510,350C510,385,484,410,450,410C415,410,390,385,390,350Z" fill="currentColor"/><path d="M590,350C590,316,616,290,650,290C685,290,710,316,710,350C710,385,685,410,650,410C616,410,590,385,590,350Z" fill="currentColor"/></svg>