<svg xmlns="http://www.w3.org/2000/svg" viewBox="0 0 1100 1100"><path d="M200,900L900,900L900,400L200,400Z" fill="currentColor"/><path d="M290,749C290,715,316,689,349,689C383,689,410,715,410,749C410,783,383,809,349,809C316,809,290,783,290,749Z" fill="currentColor"/><path d="M290,550C290,516,316,490,349,490C383,490,410,516,410,550C410,584,383,610,349,610C316,610,290,584,290,550Z" fill="currentColor"/><path d="M501,800L501,799L501,700L801,700L801,800Z" fill="currentColor"/><path d="M490,550C490,516,517,490,551,490C584,490,610,516,610,550C610,584,584,610,551,610C517,610,490,584,490,550Z" fill="currentColor"/><path d="M690,550C690,516,716,490,750,490C784,490,810,516,810,550C810,584,784,611,750,611C716,611,690,584,690,550Z" fill="currentColor"/><path d="M825,300C950.09,300,1000,349.91,1000,475L1000,525L1100,525L1100,475C1100,294.29,1005.71,200,825,200L775,200L775,300Z" fill="currentColor"/></svg>