<svg xmlns="http://www.w3.org/2000/svg" viewBox="0 0 1100 1100"><path d="M500,765C500,631.2,350,609.74,350,470C350,454.92,351.79,440.14,355.17,425.86L618.81,689.18C607.36,710.23,600.01,734.33,600.01,764L600.01,800L500.01,800Z" fill="currentColor"/><path d="M400,900L700,900L700,770.28L930,1000L1000,930L171,100L100,171L276.84,347.62C259.61,385.26,250,426.77,250,470C250,648,400,695,400,765Z" fill="currentColor"/><path d="M414.9,202.9L491.2,279.2C509.85,273.24,529.61,270.01,550.01,270.01C656.79,270.01,750.01,363.23,750.01,470.01C750.01,492,746.29,511.04,740.02,528.02L815.13,603.13C835.32,568.5,850.01,525.72,850.01,470.01C850.01,308.01,712.01,170.01,550.01,170.01C501.49,170.01,455.57,181.94,414.91,202.91Z" fill="currentColor"/></svg>