<svg xmlns="http://www.w3.org/2000/svg" viewBox="0 0 1100 1100"><path d="M350,900L750,900L750,700L350,700Z" fill="currentColor"/><path d="M384.33,471.4C451.51,416.66,496.74,396,551,396C605.38,396,651.57,416.87,717.18,470.99L850.82,309C756.58,231.25,664.42,185.99,551,185.99C437.47,185.99,346.34,231.45,251.67,308.59Z" fill="currentColor"/><path d="M675.5,714L675.5,630C675.5,560.16,621.26,512.5,550,512.5C478.44,512.5,425.5,560.47,425.5,630L425.5,714L500.5,714L500.5,630C500.5,602.93,518.76,587.5,550,587.5C581.54,587.5,600.5,603.24,600.5,630L600.5,714Z" fill="currentColor"/></svg>