<svg xmlns="http://www.w3.org/2000/svg" viewBox="0 0 1100 1100"><path d="M911,250C911,215.46,885.54,190,851,190C816.46,190,791,215.46,791,250C791,284.54,816.46,310,851,310C885.54,310,911,284.54,911,250Z" fill="currentColor"/><path d="M311,850C311,815.46,285.54,790,251,790C216.46,790,191,815.46,191,850C191,884.54,216.46,910,251,910C285.54,910,311,884.54,311,850Z" fill="currentColor"/><path d="M511,850C511,815.46,485.54,790,451,790C416.46,790,391,815.46,391,850C391,884.54,416.46,910,451,910C485.54,910,511,884.54,511,850Z" fill="currentColor"/><path d="M511,650C511,615.46,485.54,590,451,590C416.46,590,391,615.46,391,650C391,684.54,416.46,710,451,710C485.54,710,511,684.54,511,650Z" fill="currentColor"/><path d="M711,850C711,815.46,685.54,790,651,790C616.46,790,591,815.46,591,850C591,884.54,616.46,910,651,910C685.54,910,711,884.54,711,850Z" fill="currentColor"/><path d="M711,650C711,615.46,685.54,590,651,590C616.46,590,591,615.46,591,650C591,684.54,616.46,710,651,710C685.54,710,711,684.54,711,650Z" fill="currentColor"/><path d="M911,850C911,815.46,885.54,790,851,790C816.46,790,791,815.46,791,850C791,884.54,816.46,910,851,910C885.54,910,911,884.54,911,850Z" fill="currentColor"/><path d="M711,450C711,415.46,685.54,390,651,390C616.46,390,591,415.46,591,450C591,484.54,616.46,510,651,510C685.54,510,711,484.54,711,450Z" fill="currentColor"/><path d="M911,650C911,615.46,885.54,590,851,590C816.46,590,791,615.46,791,650C791,684.54,816.46,710,851,710C885.54,710,911,684.54,911,650Z" fill="currentColor"/><path d="M911,450C911,415.46,885.54,390,851,390C816.46,390,791,415.46,791,450C791,484.54,816.46,510,851,510C885.54,510,911,484.54,911,450Z" fill="currentColor"/></svg>