<svg xmlns="http://www.w3.org/2000/svg" viewBox="0 0 1100 1100"><path d="M610,750C610,714,578,690,550,690C523,690,490,714,490,750C490,787,523,810,550,810C578,810,610,787,610,750Z" fill="currentColor"/><path d="M213,900C131,900,102,846,144,777L480,229C522,160,578,160,620,229L955,777C998,847,968,900,886,900Z" fill="currentColor"/><path d="M550,650C634.33,650,700,591,700,515C700,440.4,635.81,375,550,375C467.49,375,400,442.49,400,525L500,525C500,497.51,522.51,475,550,475C579.19,475,600,494.25,600,515C600,534.7,579.27,550,550,550L500,550L500,650Z" fill="currentColor"/></svg>