<svg xmlns="http://www.w3.org/2000/svg" viewBox="0 0 1100 1100"><path d="M290,499C290,466,316,440,350,440C384,440,410,466,410,499C410,534,384,560,350,560C316,560,290,534,290,499Z" fill="currentColor"/><path d="M490,499C490,466,517,440,550,440C585,440,610,466,610,499C610,534,585,560,550,560C517,560,490,534,490,499Z" fill="currentColor"/><path d="M690,499C690,466,717,440,750,440C785,440,810,466,810,499C810,534,785,560,750,560C717,560,690,534,690,499Z" fill="currentColor"/><path d="M200,950L400,800L900,800L900,200L200,200Z" fill="currentColor"/></svg>