<svg xmlns="http://www.w3.org/2000/svg" viewBox="0 0 1100 1100"><path d="M300,800L550,528L800,800Z" fill="currentColor"/><path d="M751,440C782,440,810,468,810,499C810,533,782,560,751,560C717,560,690,533,690,499C690,468,717,440,751,440Z" fill="currentColor"/><path d="M200,900L900,900L900,200L701,200C680,136,620,90,550,90C480,90,420,136,399,200L200,200Z" fill="currentColor"/><path d="M550,190C583,190,610,217,610,251C610,283,583,310,550,310C517,310,490,283,490,251C490,217,517,190,550,190Z" fill="currentColor"/></svg>