<svg xmlns="http://www.w3.org/2000/svg" viewBox="0 0 1100 1100"><path d="M490,251C490,217,517,190,550,190C583,190,610,217,610,251C610,283,583,310,550,310C517,310,490,283,490,251Z" fill="currentColor"/><path d="M600,700C535,700,500,665,500,600L500,500C500,435,535,400,600,400L700,400L700,200C685,139,616,90,550,90C484,90,415,139,400,200L200,200L200,900L700,900L700,700Z" fill="currentColor"/><path d="M800,800L900,800L900,600L1100,600L1100,500L900,500L900,300L800,300L800,500L600,500L600,600L800,600Z" fill="currentColor"/></svg>