<svg xmlns="http://www.w3.org/2000/svg" viewBox="0 0 1100 1100"><path d="M309,250C309,215.46,283.54,190,249,190C214.46,190,189,215.46,189,250C189,284.54,214.46,310,249,310C283.54,310,309,284.54,309,250Z" fill="currentColor"/><path d="M909,850C909,815.46,883.54,790,849,790C814.46,790,789,815.46,789,850C789,884.54,814.46,910,849,910C883.54,910,909,884.54,909,850Z" fill="currentColor"/><path d="M709,850C709,815.46,683.54,790,649,790C614.46,790,589,815.46,589,850C589,884.54,614.46,910,649,910C683.54,910,709,884.54,709,850Z" fill="currentColor"/><path d="M709,650C709,615.46,683.54,590,649,590C614.46,590,589,615.46,589,650C589,684.54,614.46,710,649,710C683.54,710,709,684.54,709,650Z" fill="currentColor"/><path d="M509,850C509,815.46,483.54,790,449,790C414.46,790,389,815.46,389,850C389,884.54,414.46,910,449,910C483.54,910,509,884.54,509,850Z" fill="currentColor"/><path d="M509,650C509,615.46,483.54,590,449,590C414.46,590,389,615.46,389,650C389,684.54,414.46,710,449,710C483.54,710,509,684.54,509,650Z" fill="currentColor"/><path d="M309,850C309,815.46,283.54,790,249,790C214.46,790,189,815.46,189,850C189,884.54,214.46,910,249,910C283.54,910,309,884.54,309,850Z" fill="currentColor"/><path d="M509,450C509,415.46,483.54,390,449,390C414.46,390,389,415.46,389,450C389,484.54,414.46,510,449,510C483.54,510,509,484.54,509,450Z" fill="currentColor"/><path d="M309,650C309,615.46,283.54,590,249,590C214.46,590,189,615.46,189,650C189,684.54,214.46,710,249,710C283.54,710,309,684.54,309,650Z" fill="currentColor"/><path d="M309,450C309,415.46,283.54,390,249,390C214.46,390,189,415.46,189,450C189,484.54,214.46,510,249,510C283.54,510,309,484.54,309,450Z" fill="currentColor"/></svg>