<svg xmlns="http://www.w3.org/2000/svg" viewBox="0 0 1100 1100"><path d="M200,200L900,200L900,900L200,900Z" fill="currentColor"/><path d="M405,750C405,720,380,695,350,695C320,695,295,720,295,750C295,780,320,805,350,805C380,805,405,780,405,750Z" fill="currentColor"/><path d="M405,550C405,520,380,495,350,495C320,495,295,520,295,550C295,580,320,605,350,605C380,605,405,580,405,550Z" fill="currentColor"/><path d="M405,350C405,320,380,295,350,295C320,295,295,320,295,350C295,380,320,405,350,405C380,405,405,380,405,350Z" fill="currentColor"/><path d="M500,800L700,800L700,700L500,700Z" fill="currentColor"/><path d="M500,600L800,600L800,500L500,500Z" fill="currentColor"/><path d="M500,400L800,400L800,300L500,300Z" fill="currentColor"/></svg>