<svg xmlns="http://www.w3.org/2000/svg" viewBox="0 0 1100 1100"><path d="M800,600C865,600,900,565,900,500L900,300C900,235,865,200,800,200L300,200C235,200,200,235,200,300L200,500C200,565,235,600,300,600Z" fill="currentColor"/><path d="M750,290C782,290,810,318,810,350C810,383,782,410,750,410C717,410,690,383,690,350C690,318,717,290,750,290Z" fill="currentColor"/><path d="M200,900L323,900C516.9,900,559.43,823.69,603.6,707L495.98,707C465.65,778.08,438.1,800,323,800L200,800Z" fill="currentColor"/><path d="M900,800L777,800C661.9,800,634.35,778.08,604.02,707L496.4,707C540.57,823.69,583.1,900,777,900L900,900Z" fill="currentColor"/></svg>