<svg xmlns="http://www.w3.org/2000/svg" viewBox="0 0 1100 1100"><path d="M201,900L901,900L901,600L201,600Z" fill="currentColor"/><path d="M445.36,519.36C483.2,481.52,517.78,465,551,465C584.44,465,619.67,481.56,656.26,518.96L727.74,449.03C674.33,394.43,613.56,364.99,551,364.99C488.42,364.99,428.66,394.62,374.64,448.63Z" fill="currentColor"/><path d="M295.13,369.58C364.6,300.99,457.33,265,551,265C646.09,265,738.2,299.16,806.2,368.91L877.8,299.1C789.8,208.84,669.91,165.01,551,165.01C432.67,165.01,313.4,211.02,224.87,298.43Z" fill="currentColor"/><path d="M476,750C476,707,507,675,551,675C594,675,626,707,626,750C626,794,594,825,551,825C507,825,476,794,476,750Z" fill="currentColor"/><path d="M489,600L614,600L551,550Z" fill="currentColor"/></svg>