<svg xmlns="http://www.w3.org/2000/svg" viewBox="0 0 1100 1100"><path d="M750,290C782,290,810,318,810,350C810,383,782,410,750,410C717,410,690,383,690,350C690,318,717,290,750,290Z" fill="currentColor"/><path d="M710,850C710,817,683,790,650,790C617,790,590,817,590,850C590,883,617,910,650,910C683,910,710,883,710,850Z" fill="currentColor"/><path d="M910,850C910,817,883,790,850,790C817,790,790,817,790,850C790,883,817,910,850,910C883,910,910,883,910,850Z" fill="currentColor"/><path d="M200,900L500,900L500,800L200,800Z" fill="currentColor"/><path d="M800,600C865,600,900,565,900,500L900,300C900,235,865,200,800,200L300,200C235,200,200,235,200,300L200,500C200,565,235,600,300,600Z" fill="currentColor"/></svg>