<svg xmlns="http://www.w3.org/2000/svg" viewBox="0 0 1100 1100"><path d="M610,251C610,217,584,190,550,190C516,190,490,217,490,251C490,285,516,310,550,310C584,310,610,285,610,251Z" fill="currentColor"/><path d="M310,850C310,816,283,790,249,790C216,790,190,816,190,850C190,884,216,910,249,910C283,910,310,884,310,850Z" fill="currentColor"/><path d="M310,550C310,516,283,490,249,490C216,490,190,516,190,550C190,584,216,610,249,610C283,610,310,584,310,550Z" fill="currentColor"/><path d="M310,250C310,216,283,190,249,190C216,190,190,216,190,250C190,284,216,310,249,310C283,310,310,284,310,250Z" fill="currentColor"/><path d="M910,251C910,217,883,191,849,191C816,191,790,217,790,251C790,285,816,310,849,310C883,310,910,285,910,251Z" fill="currentColor"/><path d="M910,650C910,535.49,814.51,440,700,440C584.29,440,490,535.69,490,650C490,763.11,584.09,860,700,860C814.71,860,910,763.31,910,650Z" fill="currentColor"/><path d="M590,650C590,590.31,639.71,540,700,540C759.49,540,810,590.51,810,650C810,708.69,759.29,760,700,760C639.91,760,590,708.89,590,650Z" fill="currentColor"/><path d="M875,754L804,825L979,1000L1050,929Z" fill="currentColor"/></svg>