<svg xmlns="http://www.w3.org/2000/svg" viewBox="0 0 1100 1100"><path d="M886,900C943,900,975,875,975,836C975,819,968,799,955,777L620,229C599,194,575,177,550,177C526,177,501,194,480,229L144,777C131,798,125,818,125,835C125,874,156,900,213,900Z" fill="currentColor"/><path d="M886,800L213,800C202.38,800,225,829.36,225,835C225,832.68,222.98,839.4,229.14,829.45L565.5,280.86C571.31,271.18,548.78,277,550,277C551.17,277,528.17,270.32,534.47,280.8L869.33,828.57C876.82,841.17,875,835.99,875,835.99C875,838.22,896.57,799.99,886,799.99Z" fill="currentColor"/></svg>