<svg xmlns="http://www.w3.org/2000/svg" viewBox="0 0 1100 1100"><path d="M200,900L200,200L900,200L900,900Z" fill="currentColor"/><path d="M800,800L800,700L700,700L700,800Z" fill="currentColor"/><path d="M600,800L600,700L500,700L500,800Z" fill="currentColor"/><path d="M400,800L400,700L300,700L300,800Z" fill="currentColor"/><path d="M800,600L800,500L700,500L700,600Z" fill="currentColor"/><path d="M600,600L600,500L500,500L500,600Z" fill="currentColor"/><path d="M400,600L400,500L300,500L300,600Z" fill="currentColor"/><path d="M800,400L800,300L700,300L700,400Z" fill="currentColor"/><path d="M600,400L600,300L500,300L500,400Z" fill="currentColor"/><path d="M400,400L400,300L300,300L300,400Z" fill="currentColor"/></svg>