<svg xmlns="http://www.w3.org/2000/svg" viewBox="0 0 1100 1100"><path d="M405,650C405,618.33,381.67,595,350,595C318.33,595,295,618.33,295,650C295,681.67,318.33,705,350,705C381.67,705,405,681.67,405,650Z" fill="currentColor"/><path d="M605,850C605,818.33,581.67,795,550,795C518.33,795,495,818.33,495,850C495,881.67,518.33,905,550,905C581.67,905,605,881.67,605,850Z" fill="currentColor"/><path d="M405,450C405,418.33,381.67,395,350,395C318.33,395,295,418.33,295,450C295,481.67,318.33,505,350,505C381.67,505,405,481.67,405,450Z" fill="currentColor"/><path d="M605,650C605,618.33,581.67,595,550,595C518.33,595,495,618.33,495,650C495,681.67,518.33,705,550,705C581.67,705,605,681.67,605,650Z" fill="currentColor"/><path d="M405,250C405,218.33,381.67,195,350,195C318.33,195,295,218.33,295,250C295,281.67,318.33,305,350,305C381.67,305,405,281.67,405,250Z" fill="currentColor"/><path d="M605,450C605,418.33,581.67,395,550,395C518.33,395,495,418.33,495,450C495,481.67,518.33,505,550,505C581.67,505,605,481.67,605,450Z" fill="currentColor"/><path d="M805,650C805,618.33,781.67,595,750,595C718.33,595,695,618.33,695,650C695,681.67,718.33,705,750,705C781.67,705,805,681.67,805,650Z" fill="currentColor"/><path d="M605,250C605,218.33,581.67,195,550,195C518.33,195,495,218.33,495,250C495,281.67,518.33,305,550,305C581.67,305,605,281.67,605,250Z" fill="currentColor"/><path d="M805,450C805,418.33,781.67,395,750,395C718.33,395,695,418.33,695,450C695,481.67,718.33,505,750,505C781.67,505,805,481.67,805,450Z" fill="currentColor"/><path d="M805,250C805,218.33,781.67,195,750,195C718.33,195,695,218.33,695,250C695,281.67,718.33,305,750,305C781.67,305,805,281.67,805,250Z" fill="currentColor"/></svg>