<svg xmlns="http://www.w3.org/2000/svg" viewBox="0 0 1100 1100"><path d="M800,600C865,600,900,565,900,500L900,300C900,235,865,200,800,200L300,200C235,200,200,235,200,300L200,500C200,565,235,600,300,600Z" fill="currentColor"/><path d="M750,290C782,290,810,318,810,350C810,383,782,410,750,410C717,410,690,383,690,350C690,318,717,290,750,290Z" fill="currentColor"/><path d="M200,900L353,900C464.05,900,500,858.61,500,757L500,707L400,707L400,757C400,800,400,800,353,800L200,800Z" fill="currentColor"/><path d="M900,800L747,800C700,800,700,800,700,757L700,707L600,707L600,757C600,858.61,635.95,900,747,900L900,900Z" fill="currentColor"/></svg>