<svg xmlns="http://www.w3.org/2000/svg" viewBox="0 0 1100 1100"><path d="M326,249C326,207,293,175,251,175C208,175,176,207,176,249C176,293,208,325,251,325C293,325,326,293,326,249Z" fill="currentColor"/><path d="M326,550C326,508,293,475,251,475C208,475,175,508,175,550C175,592,208,625,251,625C293,625,326,592,326,550Z" fill="currentColor"/><path d="M326,849C326,807,293,775,251,775C208,775,176,807,176,849C176,893,208,925,251,925C293,925,326,893,326,849Z" fill="currentColor"/><path d="M925,249C925,207,893,175,850,175C808,175,775,207,775,249C775,293,808,325,850,325C893,325,925,293,925,249Z" fill="currentColor"/><path d="M926,550C926,508,893,475,850,475C808,475,775,508,775,550C775,592,808,625,850,625C893,625,926,592,926,550Z" fill="currentColor"/><path d="M925,849C925,807,893,775,850,775C808,775,775,807,775,849C775,893,808,925,850,925C893,925,925,893,925,849Z" fill="currentColor"/><path d="M625,249C625,207,593,175,550,175C508,175,475,207,475,249C475,293,508,325,550,325C593,325,625,293,625,249Z" fill="currentColor"/><path d="M626,550C626,508,593,475,550,475C508,475,475,508,475,550C475,592,508,625,550,625C593,625,626,592,626,550Z" fill="currentColor"/><path d="M625,849C625,807,593,775,550,775C508,775,475,807,475,849C475,893,508,925,550,925C593,925,625,893,625,849Z" fill="currentColor"/></svg>