<svg xmlns="http://www.w3.org/2000/svg" viewBox="0 0 1100 1100"><path d="M411,849C411,816,385,790,351,790C317,790,291,816,291,849C291,883,317,910,351,910C385,910,411,883,411,849Z" fill="currentColor"/><path d="M610,849C610,816,584,790,550,790C516,790,490,816,490,849C490,883,516,910,550,910C584,910,610,883,610,849Z" fill="currentColor"/><path d="M809,849C809,816,783,790,749,790C715,790,689,816,689,849C689,883,715,910,749,910C783,910,809,883,809,849Z" fill="currentColor"/><path d="M411,649C411,616,385,590,351,590C317,590,291,616,291,649C291,683,317,710,351,710C385,710,411,683,411,649Z" fill="currentColor"/><path d="M610,649C610,616,584,590,550,590C516,590,490,616,490,649C490,683,516,710,550,710C584,710,610,683,610,649Z" fill="currentColor"/><path d="M809,649C809,616,783,590,749,590C715,590,689,616,689,649C689,683,715,710,749,710C783,710,809,683,809,649Z" fill="currentColor"/><path d="M100,500L350,500L350,316C469,293,631,293,750,316L750,500L1000,500L1000,436C1000,211,750,195,550,195C351,195,100,211,100,436Z" fill="currentColor"/></svg>