<svg xmlns="http://www.w3.org/2000/svg" viewBox="0 0 1100 1100"><path d="M790,805L648,664L542,770C448,703,384,647,330,558L436,452L295,310L224,381C126,479,266,661,353,747C437,832,618,977,719,876Z" fill="currentColor"/><path d="M500,600L900,600L900,300L500,300Z" fill="currentColor"/><path d="M638.5,338L638.5,254C638.5,220.89,663.07,186.5,699,186.5C737.1,186.5,763.5,221.39,763.5,254L763.5,338L838.5,338L838.5,254C838.5,186.61,784.9,111.5,699,111.5C614.93,111.5,563.5,187.11,563.5,254L563.5,338Z" fill="currentColor"/></svg>