<svg xmlns="http://www.w3.org/2000/svg" viewBox="0 0 1100 1100"><path d="M200,900L900,900L900,300L500,300L500,200L200,200Z" fill="currentColor"/><path d="M501,801L501,750C501,719,473,703,445,719L402,744L352,658L395,633C424,616,425,585,397,570L352,545L402,459L445,484C473,500,501,483,501,451L501,401L600,401L599,452C598,484,625,500,655,483L698,458L748,544L705,569C677,585,676,618,704,634L748,659L697,745L656,720C628,703,599,718,599,751L599,801Z" fill="currentColor"/><path d="M611,602C611,569,584,542,551,542C518,542,491,569,491,602C491,634,518,662,551,662C584,662,611,634,611,602Z" fill="currentColor"/></svg>