<svg xmlns="http://www.w3.org/2000/svg" viewBox="0 0 1100 1100"><path d="M425,600L675,600C663,667,607,700,550,700C494,700,437,667,425,600Z" fill="currentColor"/><path d="M390,449C390,417,417,390,450,390C483,390,510,417,510,449C510,483,483,510,450,510C417,510,390,483,390,449Z" fill="currentColor"/><path d="M590,449C590,417,617,390,650,390C683,390,710,417,710,449C710,483,683,510,650,510C617,510,590,483,590,449Z" fill="currentColor"/><path d="M800,400L900,400L900,300C900,235,865,200,800,200L700,200L700,300L800,300Z" fill="currentColor"/><path d="M400,900L400,800L300,800L300,700L200,700L200,800C200,865,235,900,300,900Z" fill="currentColor"/><path d="M200,400L300,400L300,300L400,300L400,200L300,200C235,200,200,235,200,300Z" fill="currentColor"/><path d="M700,900L800,900C865,900,900,865,900,800L900,700L800,700L800,800L700,800Z" fill="currentColor"/></svg>