<svg xmlns="http://www.w3.org/2000/svg" viewBox="0 0 1100 1100"><path d="M600,500L600,400L700,400L700,500Z" fill="currentColor"/><path d="M650,300C758.09,300,800,341.91,800,450L800,500L900,500L900,450C900,286.29,813.71,200,650,200L600,200L600,300Z" fill="currentColor"/><path d="M800,900C865,900,900,865,900,800L900,700C900,635,865,600,800,600L300,600C235,600,200,635,200,700L200,800C200,865,235,900,300,900Z" fill="currentColor"/><path d="M690,750C690,718,717,690,750,690C782,690,810,718,810,750C810,783,782,810,750,810C717,810,690,783,690,750Z" fill="currentColor"/></svg>