<svg xmlns="http://www.w3.org/2000/svg" viewBox="0 0 1100 1100"><path d="M200,900L500,900L500,800L300,800L300,300L401,300L401,300L501,300L501,200L200,200Z" fill="currentColor"/><path d="M601,900L901,900L901,700L601,700Z" fill="currentColor"/><path d="M674.34,588.26C731.04,537.53,776.35,537.77,825.9,586.61L896.09,515.39C807.79,428.37,702.81,428.6,607.65,513.74Z" fill="currentColor"/><path d="M558.87,444.33C698.4,334.82,824.09,335.19,940.18,441.82L1007.83,368.17C854.07,226.93,673.45,227.29,497.14,365.66Z" fill="currentColor"/></svg>