<svg xmlns="http://www.w3.org/2000/svg" viewBox="0 0 1100 1100"><path d="M700,500C783,500,850,431,850,350C850,269,783,200,700,200L400,200C318,200,250,269,250,350C250,431,318,500,400,500Z" fill="currentColor"/><path d="M700,900C782,900,850,831,850,750C850,669,782,600,700,600L400,600C317,600,250,669,250,750C250,831,317,900,400,900Z" fill="currentColor"/><path d="M636,750C636,715,665,684,700,684C736,684,766,715,766,750C766,784,736,814,700,814C665,814,636,784,636,750Z" fill="currentColor"/><path d="M336,350C336,315,364,284,400,284C435,284,466,315,466,350C466,384,435,414,400,414C364,414,336,384,336,350Z" fill="currentColor"/></svg>