<svg xmlns="http://www.w3.org/2000/svg" viewBox="0 0 1100 1100"><path d="M200,900L900,900L900,300L500,300L500,200L200,200Z" fill="currentColor"/><path d="M290,599C290,566,316,540,350,540C384,540,410,566,410,599C410,634,384,660,350,660C316,660,290,634,290,599Z" fill="currentColor"/><path d="M490,599C490,566,517,540,550,540C585,540,610,566,610,599C610,634,585,660,550,660C517,660,490,634,490,599Z" fill="currentColor"/><path d="M690,599C690,566,717,540,750,540C785,540,810,566,810,599C810,634,785,660,750,660C717,660,690,634,690,599Z" fill="currentColor"/></svg>