<svg xmlns="http://www.w3.org/2000/svg" viewBox="0 0 1100 1100"><path d="M300,900L300,415C300,332.84,337.65,290,400,290C463.09,290,500,332.59,500,415L500,675C500,815.83,579.28,910,700,910C823.38,910,900,813.79,900,675L900,200L800,200L800,675C800,763.41,762.82,810,700,810C637.92,810,600,763.17,600,675L600,415C600,281.81,522.91,190,400,190C278.55,190,200,280.96,200,415L200,900Z" fill="currentColor"/><path d="M975,400L975,300L725,300L725,400C725,511,769,550,850,550C931,550,975,511,975,400Z" fill="currentColor"/><path d="M125,800L125,900L375,900L375,800C375,689,331,650,250,650C169,650,125,689,125,800Z" fill="currentColor"/></svg>