<svg xmlns="http://www.w3.org/2000/svg" viewBox="0 0 1100 1100"><path d="M200,900L200,200L900,200L900,900Z" fill="currentColor"/><path d="M600,550L600,428C600,347.08,537.4,290,470,290C408,290,359.16,333.42,330.47,419.47C305.45,497.67,302.37,500,220,500L200,500L200,600L220,600C347.02,600,386.74,571.76,425.53,450.53C439.72,407.98,455.54,390,470,390C484.9,390,500,405.32,500,428L500,550Z" fill="currentColor"/><path d="M500,550L500,672C500,753.12,562.8,810,631,810C692.6,810,741.03,766.01,769.53,680.53C794.55,602.33,797.63,600,880,600L900,600L900,500L880,500C752.98,500,713.26,528.24,674.47,649.47C660.28,692.02,644.46,710,631,710C614.9,710,600,694.88,600,672L600,550Z" fill="currentColor"/></svg>