<svg xmlns="http://www.w3.org/2000/svg" viewBox="0 0 1100 1100"><path d="M200,900L900,900L900,200L200,200Z" fill="currentColor"/><path d="M404,550C404,523,427,500,455,500C482,500,504,523,504,550C504,578,482,600,455,600C427,600,404,578,404,550Z" fill="currentColor"/><path d="M325,550C325,429,426,325,550,325C671,325,775,429,775,550C775,671,671,775,550,775C426,775,325,671,325,550Z" fill="currentColor"/><path d="M596,550C596,523,618,500,647,500C673,500,696,523,696,550C696,578,673,600,647,600C618,600,596,578,596,550Z" fill="currentColor"/></svg>