<svg xmlns="http://www.w3.org/2000/svg" viewBox="0 0 1100 1100"><path d="M600,550L600,513C600,446,550,390,491,390C383.6,390,396.88,500,270,500L200,500L200,600L270,600C434.92,600,476.92,490,491,490C492.4,490,500,497.94,500,513L500,550Z" fill="currentColor"/><path d="M500,550L500,587C500,654,550,710,609,710C716.4,710,703.12,600,830,600L900,600L900,500L830,500C665.08,500,623.08,610,609,610C607.6,610,600,602.06,600,587L600,550Z" fill="currentColor"/><path d="M800,400L900,400L900,300C900,235,865,200,800,200L700,200L700,300L800,300Z" fill="currentColor"/><path d="M400,900L400,800L300,800L300,700L200,700L200,800C200,865,235,900,300,900Z" fill="currentColor"/><path d="M200,400L300,400L300,300L400,300L400,200L300,200C235,200,200,235,200,300Z" fill="currentColor"/><path d="M700,900L800,900C865,900,900,865,900,800L900,700L800,700L800,800L700,800Z" fill="currentColor"/></svg>