<svg xmlns="http://www.w3.org/2000/svg" viewBox="0 0 1100 1100"><path d="M200,900L900,900L900,200L200,200Z" fill="currentColor"/><path d="M320,900C320,859,354,825,395,825C436,825,470,859,470,900Z" fill="currentColor"/><path d="M200,630C241,630,275,664,275,705C275,746,241,780,200,780Z" fill="currentColor"/><path d="M630,900C630,859,664,825,705,825C746,825,780,859,780,900Z" fill="currentColor"/><path d="M200,320C241,320,275,354,275,395C275,436,241,470,200,470Z" fill="currentColor"/><path d="M400,700L400,400L700,400L700,700Z" fill="currentColor"/><path d="M320,200L470,200C470,241,436,275,395,275C354,275,320,241,320,200Z" fill="currentColor"/><path d="M900,780C859,780,825,746,825,705C825,664,859,630,900,630Z" fill="currentColor"/><path d="M630,200L780,200C780,241,746,275,705,275C664,275,630,241,630,200Z" fill="currentColor"/><path d="M900,470C859,470,825,436,825,395C825,354,859,320,900,320Z" fill="currentColor"/></svg>