<svg xmlns="http://www.w3.org/2000/svg" viewBox="0 0 1100 1100"><path d="M200,900L900,900L900,200L700,200C685,139,616,90,550,90C484,90,415,139,400,200L200,200Z" fill="currentColor"/><path d="M490,251C490,217,517,190,550,190C583,190,610,217,610,251C610,283,583,310,550,310C517,310,490,283,490,251Z" fill="currentColor"/><path d="M350,800L350,771C350,690,421,639,550,639C679,639,750,690,750,771L750,800Z" fill="currentColor"/><path d="M451,500C451,445,495,400,551,400C604,400,649,445,649,500C649,555,604,600,551,600C495,600,451,555,451,500Z" fill="currentColor"/></svg>