<svg xmlns="http://www.w3.org/2000/svg" viewBox="0 0 1100 1100"><path d="M500,400L900,400L900,200L500,200Z" fill="currentColor"/><path d="M200,900L400,900L400,500L200,500Z" fill="currentColor"/><path d="M650,1000L650,700L475,850Z" fill="currentColor"/><path d="M700,900C829.71,900,900,829.71,900,700L900,650L800,650L800,700C800,774.09,774.09,800,700,800L650,800L650,900Z" fill="currentColor"/><path d="M200,400L400,400L400,200L200,200Z" fill="currentColor"/><path d="M700,650L1000,650L850,475Z" fill="currentColor"/></svg>