<svg xmlns="http://www.w3.org/2000/svg" viewBox="0 0 1100 1100"><path d="M900,900C965,900,1000,865,1000,800L1000,500C1000,435,965,400,900,400L200,400C135,400,100,435,100,500L100,800C100,865,135,900,200,900Z" fill="currentColor"/><path d="M190,749C190,715,216,689,249,689C283,689,310,715,310,749C310,783,283,809,249,809C216,809,190,783,190,749Z" fill="currentColor"/><path d="M190,550C190,516,216,490,249,490C283,490,310,516,310,550C310,584,283,610,249,610C216,610,190,584,190,550Z" fill="currentColor"/><path d="M401,800L401,799L401,700L701,700L701,800Z" fill="currentColor"/><path d="M390,550C390,516,417,490,451,490C484,490,510,516,510,550C510,584,484,610,451,610C417,610,390,584,390,550Z" fill="currentColor"/><path d="M590,550C590,516,616,490,650,490C684,490,710,516,710,550C710,584,684,611,650,611C616,611,590,584,590,550Z" fill="currentColor"/><path d="M790,749C790,715,817,689,851,689C884,689,910,715,910,749C910,783,884,809,851,809C817,809,790,783,790,749Z" fill="currentColor"/><path d="M600,400L600,350C600,316.51,616.51,300,650,300L750,300C838.51,300,900,238.51,900,150L800,150C800,183.49,783.49,200,750,200L650,200C561.49,200,500,261.49,500,350L500,400Z" fill="currentColor"/><path d="M790,550C790,516,817,490,851,490C884,490,910,516,910,550C910,584,884,610,851,610C817,610,790,584,790,550Z" fill="currentColor"/></svg>