<svg xmlns="http://www.w3.org/2000/svg" viewBox="0 0 1100 1100"><path d="M700,799L799,799L800,799L800,499L700,499Z" fill="currentColor"/><path d="M411,749C411,716,385,690,351,690C317,690,291,716,291,749C291,783,317,810,351,810C385,810,411,783,411,749Z" fill="currentColor"/><path d="M610,749C610,716,584,690,550,690C516,690,490,716,490,749C490,783,516,810,550,810C584,810,610,783,610,749Z" fill="currentColor"/><path d="M411,550C411,516,385,490,351,490C317,490,290,516,290,550C290,584,317,610,351,610C385,610,411,584,411,550Z" fill="currentColor"/><path d="M611,550C611,516,584,490,550,490C516,490,490,516,490,550C490,584,516,610,550,610C584,610,611,584,611,550Z" fill="currentColor"/><path d="M411,349C411,316,385,290,351,290C317,290,291,316,291,349C291,383,317,410,351,410C385,410,411,383,411,349Z" fill="currentColor"/><path d="M610,349C610,316,584,290,550,290C516,290,490,316,490,349C490,383,516,410,550,410C584,410,610,383,610,349Z" fill="currentColor"/><path d="M809,349C809,316,783,290,749,290C715,290,689,316,689,349C689,383,715,410,749,410C783,410,809,383,809,349Z" fill="currentColor"/><path d="M200,900L200,200L900,200L900,900Z" fill="currentColor"/></svg>