<svg xmlns="http://www.w3.org/2000/svg" viewBox="0 0 1100 1100"><path d="M450,350C450,296.08,494.94,250,550,250C603.49,250,650,296.51,650,350C650,405.06,603.92,450,550,450C494.51,450,450,405.49,450,350Z" fill="currentColor"/><path d="M750,350C750,241.49,658.51,150,550,150C439.06,150,350,241.92,350,350C350,460.51,439.49,550,550,550C658.08,550,750,460.94,750,350Z" fill="currentColor"/><path d="M500,900L700,900L700,800L500,800Z" fill="currentColor"/><path d="M500,900L600,900L600,500L500,500Z" fill="currentColor"/></svg>