<svg xmlns="http://www.w3.org/2000/svg" viewBox="0 0 1100 1100"><path d="M750,290C782,290,810,318,810,350C810,383,782,410,750,410C717,410,690,383,690,350C690,318,717,290,750,290Z" fill="currentColor"/><path d="M810,850C810,817,783,790,750,790C717,790,690,817,690,850C690,883,717,910,750,910C783,910,810,883,810,850Z" fill="currentColor"/><path d="M410,850C410,817,383,790,350,790C317,790,290,817,290,850C290,883,317,910,350,910C383,910,410,883,410,850Z" fill="currentColor"/><path d="M610,850C610,817,583,790,550,790C517,790,490,817,490,850C490,883,517,910,550,910C583,910,610,883,610,850Z" fill="currentColor"/><path d="M800,600C865,600,900,565,900,500L900,300C900,235,865,200,800,200L300,200C235,200,200,235,200,300L200,500C200,565,235,600,300,600Z" fill="currentColor"/></svg>