<svg xmlns="http://www.w3.org/2000/svg" viewBox="0 0 1100 1100"><path d="M450,300L900,300L900,200L450,200Z" fill="currentColor"/><path d="M450,900L900,900L900,800L450,800Z" fill="currentColor"/><path d="M450,600L900,600L900,500L450,500Z" fill="currentColor"/><path d="M310,249C310,216,284,190,250,190C216,190,190,216,190,249C190,284,216,310,250,310C284,310,310,284,310,249Z" fill="currentColor"/><path d="M310,550C310,517,283,490,250,490C216,490,190,517,190,550C190,583,216,610,250,610C283,610,310,583,310,550Z" fill="currentColor"/><path d="M310,849C310,816,284,790,250,790C216,790,190,816,190,849C190,884,216,910,250,910C284,910,310,884,310,849Z" fill="currentColor"/></svg>