<svg xmlns="http://www.w3.org/2000/svg" viewBox="0 0 1100 1100"><path d="M674,800L426,800C426,869,481,925,551,925C618,925,674,869,674,800Z" fill="currentColor"/><path d="M200,700L900,700L849.19,543.39C601.97,355.84,590,280.93,590,217C590,203.7,591.34,190.81,593.91,178.45C579.9,176.15,565.27,175,550,175C428,175,346,248,297,401Z" fill="currentColor"/><path d="M1010,217C1010,170,977,140,936,140C900,140,875,158,850,200C825,158,800,140,764,140C723,140,690,170,690,217C690,254,700,295,850,415C1000,295,1010,254,1010,217Z" fill="currentColor"/></svg>