<svg xmlns="http://www.w3.org/2000/svg" viewBox="0 0 1100 1100"><path d="M900,700C965,700,1000,665,1000,600L1000,300C1000,235,965,200,900,200L200,200C135,200,100,235,100,300L100,600C100,665,135,700,200,700Z" fill="currentColor"/><path d="M190,549C190,515,216,489,249,489C283,489,310,515,310,549C310,583,283,609,249,609C216,609,190,583,190,549Z" fill="currentColor"/><path d="M190,350C190,316,216,290,249,290C283,290,310,316,310,350C310,384,283,410,249,410C216,410,190,384,190,350Z" fill="currentColor"/><path d="M401,600L401,599L401,500L701,500L701,600Z" fill="currentColor"/><path d="M390,350C390,316,417,290,451,290C484,290,510,316,510,350C510,384,484,410,451,410C417,410,390,384,390,350Z" fill="currentColor"/><path d="M590,350C590,316,616,290,650,290C684,290,710,316,710,350C710,384,684,411,650,411C616,411,590,384,590,350Z" fill="currentColor"/><path d="M790,549C790,515,817,489,851,489C884,489,910,515,910,549C910,583,884,609,851,609C817,609,790,583,790,549Z" fill="currentColor"/><path d="M790,350C790,316,817,290,851,290C884,290,910,316,910,350C910,384,884,410,851,410C817,410,790,384,790,350Z" fill="currentColor"/><path d="M400,800L550,1000L700,800Z" fill="currentColor"/></svg>