<svg xmlns="http://www.w3.org/2000/svg" viewBox="0 0 1100 1100"><path d="M500,700L900,700L900,400L500,400Z" fill="currentColor"/><path d="M638.5,438L638.5,354C638.5,320.89,663.07,286.5,699,286.5C737.1,286.5,763.5,321.39,763.5,354L763.5,438L838.5,438L838.5,354C838.5,286.61,784.9,211.5,699,211.5C614.93,211.5,563.5,287.11,563.5,354L563.5,438Z" fill="currentColor"/><path d="M400,1000L400,750L216,750C193,631,193,469,216,350L400,350L400,100L336,100C111,100,95,350,95,550C95,749,111,1000,336,1000Z" fill="currentColor"/></svg>