<svg xmlns="http://www.w3.org/2000/svg" viewBox="0 0 1100 1100"><path d="M700,800L752,800C927,800,1010,720,1010,550C1010,380,927,300,752,300L700,300Z" fill="currentColor"/><path d="M0,600L339,600L339,500L0,500Z" fill="currentColor"/><path d="M236,700L550,700L550,600L236,600Z" fill="currentColor"/><path d="M400,800L400,300L348,300C173,300,90,380,90,550C90,720,173,800,348,800Z" fill="currentColor"/><path d="M236,500L550,500L550,400L236,400Z" fill="currentColor"/><path d="M1100,500L761,500L761,600L1100,600Z" fill="currentColor"/></svg>