<svg xmlns="http://www.w3.org/2000/svg" viewBox="0 0 1100 1100"><path d="M800,400L900,400L900,300C900,235,865,200,800,200L700,200L700,300L800,300Z" fill="currentColor"/><path d="M400,900L400,800L300,800L300,700L200,700L200,800C200,865,235,900,300,900Z" fill="currentColor"/><path d="M200,400L300,400L300,300L400,300L400,200L300,200C235,200,200,235,200,300Z" fill="currentColor"/><path d="M700,900L800,900C865,900,900,865,900,800L900,700L800,700L800,800L700,800Z" fill="currentColor"/><path d="M800,550C710,460,650,400,550,400C451,400,391,460,300,550C391,640,451,700,550,700C650,700,710,640,800,550Z" fill="currentColor"/><path d="M475,550C475,508,509,475,550,475C592,475,625,508,625,550C625,591,592,625,550,625C509,625,475,591,475,550Z" fill="currentColor"/></svg>