<svg xmlns="http://www.w3.org/2000/svg" viewBox="0 0 1100 1100"><path d="M701,900C766,900,801,865,801,800L801,200L301,200L301,800C301,865,336,900,401,900Z" fill="currentColor"/><path d="M390,350C390,316,415,290,450,290C484,290,510,316,510,350C510,385,484,410,450,410C415,410,390,385,390,350Z" fill="currentColor"/><path d="M590,350C590,316,616,290,650,290C685,290,710,316,710,350C710,385,685,410,650,410C616,410,590,385,590,350Z" fill="currentColor"/><path d="M390,525C390,491,415,465,450,465C484,465,510,491,510,525C510,560,484,585,450,585C415,585,390,560,390,525Z" fill="currentColor"/><path d="M590,525C590,491,616,465,650,465C685,465,710,491,710,525C710,560,685,585,650,585C616,585,590,560,590,525Z" fill="currentColor"/><path d="M450,725C450,668,493,625,550,625C608,625,650,668,650,725C650,783,608,825,550,825C493,825,450,783,450,725Z" fill="currentColor"/></svg>