<svg xmlns="http://www.w3.org/2000/svg" viewBox="0 0 1100 1100"><path d="M200,900L900,900L900,200L200,200Z" fill="currentColor"/><path d="M295,550C295,520,320,495,350,495C380,495,405,520,405,550C405,580,380,605,350,605C320,605,295,580,295,550Z" fill="currentColor"/><path d="M495,550C495,520,520,495,550,495C580,495,605,520,605,550C605,580,580,605,550,605C520,605,495,580,495,550Z" fill="currentColor"/><path d="M695,550C695,520,720,495,750,495C780,495,805,520,805,550C805,580,780,605,750,605C720,605,695,580,695,550Z" fill="currentColor"/></svg>