<svg xmlns="http://www.w3.org/2000/svg" viewBox="0 0 1100 1100"><path d="M100,700L400,700L400,800L250,800L250,900L500,900L500,200L100,200Z" fill="currentColor"/><path d="M600,900L1000,900L1000,400L600,400Z" fill="currentColor"/><path d="M700,725C700,671,745,625,800,625C854,625,900,671,900,725C900,779,854,825,800,825C745,825,700,779,700,725Z" fill="currentColor"/><path d="M750,512C750,485,772,462,800,462C827,462,850,485,850,512C850,540,827,562,800,562C772,562,750,540,750,512Z" fill="currentColor"/><path d="M500,200L500,300L800,300L800,200Z" fill="currentColor"/></svg>