<svg xmlns="http://www.w3.org/2000/svg" viewBox="0 0 1100 1100"><path d="M201,200L201,600L452,600L550,700L652,600L901,600L901,200Z" fill="currentColor"/><path d="M490,850C490,816,515,790,550,790C584,790,610,816,610,850C610,885,584,910,550,910C515,910,490,885,490,850Z" fill="currentColor"/><path d="M190,850C190,816,215,790,250,790C284,790,310,816,310,850C310,885,284,910,250,910C215,910,190,885,190,850Z" fill="currentColor"/><path d="M790,850C790,816,815,790,850,790C884,790,910,816,910,850C910,885,884,910,850,910C815,910,790,885,790,850Z" fill="currentColor"/></svg>