<svg xmlns="http://www.w3.org/2000/svg" viewBox="0 0 1100 1100"><path d="M400,700L400,699C400,607,453,565,550,565C647,565,700,607,700,699L700,700Z" fill="currentColor"/><path d="M490,450C490,417,516,390,551,390C583,390,610,417,610,450C610,483,583,510,551,510C516,510,490,483,490,450Z" fill="currentColor"/><path d="M800,400L900,400L900,300C900,235,865,200,800,200L700,200L700,300L800,300Z" fill="currentColor"/><path d="M400,900L400,800L300,800L300,700L200,700L200,800C200,865,235,900,300,900Z" fill="currentColor"/><path d="M200,400L300,400L300,300L400,300L400,200L300,200C235,200,200,235,200,300Z" fill="currentColor"/><path d="M700,900L800,900C865,900,900,865,900,800L900,700L800,700L800,800L700,800Z" fill="currentColor"/></svg>