<svg xmlns="http://www.w3.org/2000/svg" viewBox="0 0 1100 1100"><path d="M500,1000L500,750L316,750C293,631,293,469,316,350L500,350L500,100L436,100C211,100,195,350,195,550C195,749,211,1000,436,1000Z" fill="currentColor"/><path d="M552.56,432.23C576.19,457.39,600,508.93,600,550C600,591.06,576.19,642.61,552.56,667.77L625.44,736.24C663.81,695.4,700,618.94,700,550.01C700,481.07,663.81,404.62,625.44,363.78Z" fill="currentColor"/><path d="M696.42,290.13C765.59,360.18,800,454.75,800,550C800,645.25,765.6,739.82,696.42,809.87L767.57,880.13C856.4,790.18,899.99,668.75,899.99,550C899.99,431.25,856.39,309.82,767.57,219.87Z" fill="currentColor"/></svg>