<svg xmlns="http://www.w3.org/2000/svg" viewBox="0 0 1100 1100"><path d="M200,700L629.64,700L930,1000L1000,930L171,100L100,171L305.48,376.23C302.55,384.24,299.73,392.5,297,401Z" fill="currentColor"/><path d="M674,800L426,800C426,869,481,925,551,925C618,925,674,869,674,800Z" fill="currentColor"/><path d="M337.57,600L384.54,455.2L529.51,600Z" fill="currentColor"/><path d="M422.43,210.43L496.38,284.38C512.56,277.91,530.33,275,550,275C623.39,275,669.96,315.83,707.91,431.96L738.62,526.62L894.23,682.23L802.99,400.99C752.99,247.99,671.99,174.99,549.99,174.99C501.23,174.99,458.85,186.65,422.42,210.42Z" fill="currentColor"/></svg>