<svg xmlns="http://www.w3.org/2000/svg" viewBox="0 0 1100 1100"><path d="M407.9,857.3C440.1,844.7,497.5,834.9,554.9,834.9C614.4,834.9,670.4,845.4,700.5,857.3C669,869.2,612.3,879,554.2,879C494.7,879,438,868.5,407.9,857.3Z" fill="currentColor"/><path d="M392.5,799.2L377.8,865.7C399.5,881.8,475.1,900,554.2,900C630.5,900,706.8,882.5,730.6,865.7L716.6,799.2C776.8,777.5,812.5,720.1,812.5,669C812.5,624.9,785.2,596.9,734.1,596.9L730.6,596.9C748.1,473,650.8,413.5,554.2,413.5C457.6,413.5,360.3,473,377.8,596.9L374.3,596.9C325.3,596.9,295.9,622.8,295.9,671.1C295.9,725.7,334.4,778.2,392.5,799.2Z" fill="currentColor"/><path d="M374.3,617.9C426.8,617.9,461.8,656.4,555.6,656.4C648.7,656.4,680.2,617.9,734.1,617.9C775.4,617.9,791.5,634.7,791.5,669C791.5,709.6,765.6,754.4,718.7,775.4L730.6,729.2C708.9,712.4,633.3,694.2,554.9,694.2C480.7,694.2,403.7,710.3,377.8,729.2L389.7,775.4C344.2,755.1,316.9,714.5,316.9,671.1C316.9,634,335.1,617.9,374.3,617.9Z" fill="currentColor"/><path d="M554.2,434.5C644.5,434.5,727.8,485.6,708.9,599C660.6,606.7,627,635.4,555.6,635.4C483.5,635.4,447.1,606.7,399.5,599C380.6,485.6,464.6,434.5,554.2,434.5Z" fill="currentColor"/><path d="M402.3,739.7C433.1,726.4,494,715.2,554.9,715.2C617.9,715.2,677.4,727.1,706.1,739.7L697,777.5C668.3,766.3,612.3,755.1,554.2,755.1C496.1,755.1,440.1,766.3,411.4,777.5Z" fill="currentColor"/><path d="M413.5,799.2C435.9,788.7,492.6,776.1,554.2,776.1C615.8,776.1,672.5,788.7,694.9,799.2L702.6,835.6C668.3,823.7,612.3,813.9,554.9,813.9C499.6,813.9,442.2,823,405.8,835.6Z" fill="currentColor"/></svg>