<svg xmlns="http://www.w3.org/2000/svg" viewBox="0 0 1100 1100"><path d="M925,550C925,348,752,175,550,175C344,175,175,348,175,550C175,752,344,925,550,925C752,925,925,752,925,550Z" fill="currentColor"/><path d="M334,600L766,600C766,718,669,810,550,810C431,810,334,718,334,600Z" fill="currentColor"/><path d="M335,449C335,414,364,385,400,385C436,385,465,414,465,449C465,486,436,515,400,515C364,515,335,486,335,449Z" fill="currentColor"/><path d="M635,449C635,414,664,385,702,385C736,385,765,414,765,449C765,486,736,515,702,515C664,515,635,486,635,449Z" fill="currentColor"/></svg>