<svg xmlns="http://www.w3.org/2000/svg" viewBox="0 0 1100 1100"><path d="M23,900L273,900L273,757C273,662,257,615,149,615C53,615,23,662,23,757Z" fill="currentColor"/><path d="M378,900L478,900L478,757C478,662,452,615,378,615Z" fill="currentColor"/><path d="M178,451C178,417,151,390,119,390C85,390,58,417,58,451C58,483,85,510,119,510C151,510,178,483,178,451Z" fill="currentColor"/><path d="M393,451C393,417,366,390,332,390C300,390,273,417,273,451C273,483,300,510,332,510C366,510,393,483,393,451Z" fill="currentColor"/><path d="M578,900L678,900L678,757C678,662,653,615,578,615Z" fill="currentColor"/><path d="M613,451C613,417,586,390,552,390C520,390,493,417,493,451C493,483,520,510,552,510C586,510,613,483,613,451Z" fill="currentColor"/><path d="M828,451C828,417,801,390,767,390C735,390,708,417,708,451C708,483,735,510,767,510C801,510,828,483,828,451Z" fill="currentColor"/><path d="M286,251C286,217,259,190,227,190C193,190,166,217,166,251C166,283,193,310,227,310C259,310,286,283,286,251Z" fill="currentColor"/><path d="M503,251C503,217,476,190,442,190C410,190,383,217,383,251C383,283,410,310,442,310C476,310,503,283,503,251Z" fill="currentColor"/><path d="M721,251C721,217,694,190,660,190C628,190,601,217,601,251C601,283,628,310,660,310C694,310,721,283,721,251Z" fill="currentColor"/><path d="M1043,451C1043,417,1016,390,982,390C950,390,923,417,923,451C923,483,950,510,982,510C1016,510,1043,483,1043,451Z" fill="currentColor"/><path d="M936,251C936,217,909,190,875,190C843,190,816,217,816,251C816,283,843,310,875,310C909,310,936,283,936,251Z" fill="currentColor"/><path d="M778,900L878,900L878,757C878,662,852,615,778,615Z" fill="currentColor"/><path d="M978,900L1078,900L1078,757C1078,662,1053,615,978,615Z" fill="currentColor"/></svg>