<svg xmlns="http://www.w3.org/2000/svg" viewBox="0 0 1100 1100"><path d="M550,400C400,400,400,400,215,575L283.72,647.65C439.8,500,439.8,500,550,500Z" fill="currentColor"/><path d="M700,900L700,700C700,638,643,550,551,550C459,550,401,609,401,690L401,710C401,742,401,742,281,852L348.57,925.72C490.68,795.45,501,780,501,710L501,690C501,663.92,514.92,650,551,650C581.23,650,600,687.16,600,700L600,900Z" fill="currentColor"/><path d="M700,430L400,430L401,700L401,700L501,719C501,674,511,650,551,650C590,650,600,681,600,711L600,730L700,730Z" fill="currentColor"/><path d="M630,250C630,207,593,170,550,170C506,170,470,207,470,250C470,294,506,330,550,330C593,330,630,294,630,250Z" fill="currentColor"/><path d="M550,500C682,500,731.44,510.73,864.44,244.72L775,200C675,400,670,400,550,400Z" fill="currentColor"/></svg>