<svg xmlns="http://www.w3.org/2000/svg" viewBox="0 0 1100 1100"><path d="M401,650L600,650L600,445L400,445Z" fill="currentColor"/><path d="M700,900L700,820C700,715.8,695.96,704.25,586.36,594.64L531.72,540L401.32,540L400.01,749.84C400.01,790.35,390.43,800,350.01,800L300.01,800L300.01,900L350.01,900C447.19,900,500.01,845.25,500.01,750.16L500.7,640L490.3,640L515.66,665.36C600.02,749.72,600.02,749.72,600.02,820L600.02,900Z" fill="currentColor"/><path d="M800,525C675,395,675,395,460,395C400,395,200,395,200,600L300,600C300,491,402.2,495,460,495C632.43,495,632.43,495,727.92,594.31Z" fill="currentColor"/><path d="M630,250C630,207,593,170,550,170C506,170,470,207,470,250C470,294,506,330,550,330C593,330,630,294,630,250Z" fill="currentColor"/></svg>