<svg xmlns="http://www.w3.org/2000/svg" viewBox="0 0 1100 1100"><path d="M699,650L700,445L500,445L500,650Z" fill="currentColor"/><path d="M750,800C709.58,800,700,790.35,700,749.84L698.69,540L568.29,540L513.65,594.64C404.04,704.25,400.01,715.8,400.01,820L400.01,950L500.01,950L500.01,820C500.01,749.71,500.01,749.71,584.37,665.36L609.73,640L599.33,640L600.02,750.16C600.02,845.25,652.84,900,750.02,900Z" fill="currentColor"/><path d="M900,600C900,395,700,395,640,395C425,395,425,395,300,525L372.08,594.31C467.57,495,467.57,495,640,495C697.8,495,800,491,800,600Z" fill="currentColor"/><path d="M630,250C630,207,594,170,550,170C507,170,470,207,470,250C470,294,507,330,550,330C594,330,630,294,630,250Z" fill="currentColor"/></svg>