<svg xmlns="http://www.w3.org/2000/svg" viewBox="0 0 1100 1100"><path d="M925,550C925,348,752,175,550,175C344,175,175,348,175,550C175,752,344,925,550,925C752,925,925,752,925,550Z" fill="currentColor"/><path d="M675,700C675,767,608,800,550,800C493,800,425,767,425,700C425,633,493,600,550,600C608,600,675,633,675,700Z" fill="currentColor"/><path d="M335,499C335,464,364,435,400,435C436,435,465,464,465,499C465,536,436,565,400,565C364,565,335,536,335,499Z" fill="currentColor"/><path d="M635,499C635,464,664,435,702,435C736,435,765,464,765,499C765,536,736,565,702,565C664,565,635,536,635,499Z" fill="currentColor"/></svg>