<svg xmlns="http://www.w3.org/2000/svg" viewBox="0 0 1100 1100"><path d="M150,900L625,900L625,870C625,756,589,700,375,700C184,700,150,756,150,870Z" fill="currentColor"/><path d="M488,526C488,470,441,425,388,425C331,425,287,470,287,526C287,581,331,625,388,625C441,625,488,581,488,526Z" fill="currentColor"/><path d="M725,900L950,900L950,870C950,756,908,700,725,700Z" fill="currentColor"/><path d="M650,275C650,220,605,175,551,175C494,175,450,220,450,275C450,331,494,375,551,375C605,375,650,331,650,275Z" fill="currentColor"/><path d="M813,526C813,470,769,425,712,425C659,425,612,470,612,526C612,581,659,625,712,625C769,625,813,581,813,526Z" fill="currentColor"/></svg>