<svg xmlns="http://www.w3.org/2000/svg" viewBox="0 0 1100 1100"><path d="M220,650L680,650C640,744,563,800,450,800C337,800,260,744,220,650Z" fill="currentColor"/><path d="M235,499C235,464,264,435,300,435C336,435,365,464,365,499C365,536,336,565,300,565C264,565,235,536,235,499Z" fill="currentColor"/><path d="M825,550C825,541.3,824.68,532.65,824.05,524.07C601.15,350.59,590,278.69,590,217C590,212.53,590.15,208.12,590.45,203.75C546.75,185.28,499.23,175,450,175C244,175,75,348,75,550C75,752,244,925,450,925C652,925,825,752,825,550Z" fill="currentColor"/><path d="M535,499C535,464,564,435,602,435C636,435,665,464,665,499C665,536,636,565,602,565C564,565,535,536,535,499Z" fill="currentColor"/><path d="M1010,217C1010,170,977,140,936,140C900,140,875,158,850,200C825,158,800,140,764,140C723,140,690,170,690,217C690,254,700,295,850,415C1000,295,1010,254,1010,217Z" fill="currentColor"/></svg>