<svg xmlns="http://www.w3.org/2000/svg" viewBox="0 0 1100 1100"><path d="M300,900C300,787.06,404.83,690,550,690C690.33,690,800,782.32,800,900L900,900C900,724,743,590,550,590C352,590,200,729,200,900Z" fill="currentColor"/><path d="M410,298C410,239,361,190,300,190C239,190,190,239,190,298C190,361,239,410,300,410C361,410,410,361,410,298Z" fill="currentColor"/><path d="M910,298C910,239,861,190,800,190C739,190,690,239,690,298C690,361,739,410,800,410C861,410,910,361,910,298Z" fill="currentColor"/></svg>