<svg xmlns="http://www.w3.org/2000/svg" viewBox="0 0 1100 1100"><path d="M419,901L861,900C900,700,900,700,900,500L900,295C900,273,884,255,863,255C842,255,825,273,825,295L825,500L775,500L775,210C775,188,759,170,738,170C717,170,700,188,700,210L700,500L650,500L650,190C650,168,634,150,613,150C592,150,575,168,575,190L575,500L525,500L525,240C525,218,509,200,488,200C467,200,450,218,450,240L450,596C450,621,439,643,413,643C393,643,378,629,361,600L338,561C305.23,505.39,257.67,493.17,202.18,525.31Z" fill="currentColor"/></svg>