<svg xmlns="http://www.w3.org/2000/svg" viewBox="0 0 1100 1100"><path d="M125,900L625,900L625,790C625,606,589,550,375,550C161,550,125,606,125,790Z" fill="currentColor"/><path d="M513,325C513,249,450,187,376,187C298,187,238,249,238,325C238,401,298,462,376,462C450,462,513,401,513,325Z" fill="currentColor"/><path d="M725,900L975,900L975,790C975,606,930,550,725,550Z" fill="currentColor"/><path d="M861,325C861,249,798,187,724,187C646,187,586,249,586,325C586,401,646,462,724,462C798,462,861,401,861,325Z" fill="currentColor"/></svg>