<svg xmlns="http://www.w3.org/2000/svg" viewBox="0 0 1100 1100"><path d="M200,505L200,900L300,900L300,564Z" fill="currentColor"/><path d="M564.98,601.29L615.02,514.71L269.02,314.71C261.66,310.44,253.11,308,244,308C216.39,308,194,330.39,194,358C194,376.5,204.04,392.65,218.98,401.29Z" fill="currentColor"/><path d="M400,800L797,800L1000,449C805,278,805,278,741,241C632,178,591,235,506,320L349,477L536,585C589,616,592,641,575,671C562,693,542,700,508,701L500,701C435,702,400,737,400,802Z" fill="currentColor"/></svg>