<svg xmlns="http://www.w3.org/2000/svg" viewBox="0 0 1100 1100"><path d="M595,200L200,200L200,300L536,300Z" fill="currentColor"/><path d="M498.71,564.98L585.29,615.02L785.29,269.02C789.56,261.66,792,253.11,792,244C792,216.39,769.61,194,742,194C723.5,194,707.35,204.04,698.71,218.98Z" fill="currentColor"/><path d="M300,400L300,797L651,1000C822,805,822,805,859,741C922,632,865,591,780,506L623,349L515,536C484,589,459,592,429,575C407,562,400,542,399,508L399,500C398,435,363,400,298,400Z" fill="currentColor"/></svg>