<svg xmlns="http://www.w3.org/2000/svg" viewBox="0 0 1100 1100"><path d="M925,550C925,348,752,175,550,175C344,175,175,348,175,550C175,752,344,925,550,925C752,925,925,752,925,550Z" fill="currentColor"/><path d="M375,600L725,600C725,754,640,815,550,815C461,815,375,754,375,600Z" fill="currentColor"/><path d="M325,500C346,404,481,404,500,500Z" fill="currentColor"/><path d="M635,449C635,414,664,385,702,385C736,385,765,414,765,449C765,486,736,515,702,515C664,515,635,486,635,449Z" fill="currentColor"/></svg>