<svg xmlns="http://www.w3.org/2000/svg" viewBox="0 0 1100 1100"><path d="M500,1000L600,1000L600,100L500,100Z" fill="currentColor"/><path d="M100,900L400,900L400,550C217,550,100,596,100,740Z" fill="currentColor"/><path d="M388,376C388,320,341,275,288,275C231,275,187,320,187,376C187,431,231,475,288,475C341,475,388,431,388,376Z" fill="currentColor"/><path d="M700,900L1000,900L1000,740C1000,596,883,550,700,550Z" fill="currentColor"/><path d="M913,376C913,320,869,275,812,275C759,275,712,320,712,376C712,431,759,475,812,475C869,475,913,431,913,376Z" fill="currentColor"/></svg>