<svg xmlns="http://www.w3.org/2000/svg" viewBox="0 0 1100 1100"><path d="M700,480L400,480L400,900L501,900L501,711C501,681,512,650,551,650C590,650,600,681,600,711L600,900L700,900Z" fill="currentColor"/><path d="M875,580C795,438,732,400,550,400C370,400,307,438,225,580L311.6,630.01C376.31,517.94,408.43,500,550,500C693.38,500,725.22,517.87,787.88,629.08Z" fill="currentColor"/><path d="M630,250C630,207,593,170,550,170C506,170,470,207,470,250C470,294,506,330,550,330C593,330,630,294,630,250Z" fill="currentColor"/></svg>