<svg xmlns="http://www.w3.org/2000/svg" viewBox="0 0 1100 1100"><path d="M267.66,527.24C227.11,486.69,204,432.03,204,395C204,364.17,223.07,336.65,247.86,318.68L644.35,714.69L550,808.77Z" fill="currentColor"/><path d="M197,598L550,950L715.1,785.36L930,1000L1000,930L785.46,715.2L714.79,644.45L552.48,481.94L271.7,200.82L171,99.99L100,170.99L176.6,247.5C134.08,283.01,104,334.82,104,394.99C104,458.99,138,538.99,197,597.99Z" fill="currentColor"/><path d="M552.13,340.87L622.76,411.67L679.72,354.71C717.51,316.92,761.67,297,792.01,297C837.3,297,896.01,340.91,896.01,395C896.01,432.03,872.9,486.68,832.35,527.24L785.08,574.38L855.71,645.18L903.02,598.01C962.02,539.01,996.02,459.01,996.02,395.01C996.02,281.01,888.02,197.01,792.02,197.01C733.02,197.01,664.02,229.01,609.02,284.01Z" fill="currentColor"/></svg>