<svg xmlns="http://www.w3.org/2000/svg" viewBox="0 0 1100 1100"><path d="M200,595L300,536L300,200L200,200Z" fill="currentColor"/><path d="M218.98,698.71L269.02,785.29L615.02,585.29C629.95,576.64,640,560.49,640,542C640,514.39,617.61,492,590,492C580.88,492,572.33,494.44,564.98,498.71Z" fill="currentColor"/><path d="M400,300L400,298C400,363,435,398,500,399L508,399C542,400,562,407,575,429C592,459,589,484,536,515L349,623L506,780C591,865,632,922,741,859C805,822,805,822,1000,651L797,300Z" fill="currentColor"/></svg>