<svg xmlns="http://www.w3.org/2000/svg" viewBox="0 0 1100 1100"><path d="M700,480L400,480L400,685L332,763C289,812,289,900,382,900L719,900C789,900,820,823,768,763L700,685Z" fill="currentColor"/><path d="M900,622C702,400,702,400,550,400C402,400,402,400,200,622L273.96,689.3C446.21,500,446.21,500,550,500C657.19,500,657.19,500,825.37,688.56Z" fill="currentColor"/><path d="M630,250C630,207,593,170,550,170C506,170,470,207,470,250C470,294,506,330,550,330C593,330,630,294,630,250Z" fill="currentColor"/></svg>