<svg xmlns="http://www.w3.org/2000/svg" viewBox="0 0 1100 1100"><path d="M850,700C760.97,700,700,647.85,700,567C700,472.08,636.14,400,550,400C463.86,400,400,472.08,400,567L500,567C500,524.12,522.34,500,550,500C577.66,500,600,524.12,600,567C600,708.15,711.03,800,850,800L900,800L900,700Z" fill="currentColor"/><path d="M650,811C562.99,811,500,749.97,500,667L400,667C400,806.03,509.01,911,650,911Z" fill="currentColor"/><path d="M900,550C900,351.49,748.51,200,550,200C350.71,200,200,359.26,200,550L200,800L300,800L300,550C300,412.74,407.29,300,550,300C693.49,300,800,406.51,800,550L800,600L900,600Z" fill="currentColor"/></svg>