<svg xmlns="http://www.w3.org/2000/svg" viewBox="0 0 1100 1100"><path d="M100,900L350,900L350,757C350,662,334,615,226,615C130,615,100,662,100,757Z" fill="currentColor"/><path d="M455,900L591,900L591,757C591,662,565,615,455,615Z" fill="currentColor"/><path d="M285,451C285,417,258,390,226,390C192,390,165,417,165,451C165,483,192,510,226,510C258,510,285,483,285,451Z" fill="currentColor"/><path d="M500,451C500,417,473,390,439,390C407,390,380,417,380,451C380,483,407,510,439,510C473,510,500,483,500,451Z" fill="currentColor"/><path d="M691,900L827,900L827,757C827,662,802,615,691,615Z" fill="currentColor"/><path d="M927,900L1000,900L1000,757C1000,662,978,615,927,615Z" fill="currentColor"/><path d="M720,451C720,417,693,390,659,390C627,390,600,417,600,451C600,483,627,510,659,510C693,510,720,483,720,451Z" fill="currentColor"/><path d="M935,451C935,417,908,390,874,390C842,390,815,417,815,451C815,483,842,510,874,510C908,510,935,483,935,451Z" fill="currentColor"/><path d="M393,251C393,217,366,190,334,190C300,190,273,217,273,251C273,283,300,310,334,310C366,310,393,283,393,251Z" fill="currentColor"/><path d="M610,251C610,217,583,190,549,190C517,190,490,217,490,251C490,283,517,310,549,310C583,310,610,283,610,251Z" fill="currentColor"/><path d="M828,251C828,217,801,190,767,190C735,190,708,217,708,251C708,283,735,310,767,310C801,310,828,283,828,251Z" fill="currentColor"/></svg>