<svg xmlns="http://www.w3.org/2000/svg" viewBox="0 0 1100 1100"><path d="M700,500L400,500L400,900L501,900L501,711C501,681,512,650,551,650C590,650,600,681,600,711L600,900L700,900Z" fill="currentColor"/><path d="M775,650C775,448,732,400,550,400C370,400,327,448,325,650L425,650.99C426.47,502.66,430.68,500,550,500C671.13,500,675,504.24,675,650Z" fill="currentColor"/><path d="M630,250C630,207,593,170,550,170C506,170,470,207,470,250C470,294,506,330,550,330C593,330,630,294,630,250Z" fill="currentColor"/></svg>