<svg xmlns="http://www.w3.org/2000/svg" viewBox="0 0 1100 1100"><path d="M400,400L400,900L500,900L500,711C500,681,510,650,550,650C588,650,599,681,599,711L599,900L700,900L700,400Z" fill="currentColor"/><path d="M900,400C783,400,667,400,550,400L550,500C667,500,783,500,900,500Z" fill="currentColor"/><path d="M630,250C630,207,593,170,550,170C506,170,470,207,470,250C470,294,506,330,550,330C593,330,630,294,630,250Z" fill="currentColor"/><path d="M550,400C430,400,425,400,325,200L235.56,244.72C368.57,510.73,418,500,550,500Z" fill="currentColor"/></svg>