<svg xmlns="http://www.w3.org/2000/svg" viewBox="0 0 1100 1100"><path d="M700,650L400,650L400,900L700,900Z" fill="currentColor"/><path d="M246.1,634.33C379.08,754.01,428,750,550,750C672,750,721.91,754.01,854.9,634.33L788,560C688,650,670,650,550,650C430,650,413,650,313,560Z" fill="currentColor"/><path d="M630,500C630,457,593,420,550,420C506,420,470,457,470,500C470,544,506,580,550,580C593,580,630,544,630,500Z" fill="currentColor"/><path d="M835,251C835,217,809,190,775,190C741,190,715,217,715,251C715,285,741,311,775,311C809,311,835,285,835,251Z" fill="currentColor"/><path d="M271,450C271,416,245,390,211,390C177,390,150,416,150,450C150,484,177,510,211,510C245,510,271,484,271,450Z" fill="currentColor"/><path d="M385,251C385,217,359,190,325,190C291,190,265,217,265,251C265,285,291,311,325,311C359,311,385,285,385,251Z" fill="currentColor"/><path d="M950,450C950,416,923,390,889,390C855,390,829,416,829,450C829,484,855,510,889,510C923,510,950,484,950,450Z" fill="currentColor"/><path d="M610,200C610,166,584,139,550,139C516,139,490,166,490,200C490,234,516,260,550,260C584,260,610,234,610,200Z" fill="currentColor"/></svg>