<svg xmlns="http://www.w3.org/2000/svg" viewBox="0 0 1100 1100"><path d="M465,499C465,464,436,435,400,435C364,435,335,464,335,499C335,536,364,565,400,565C436,565,465,536,465,499Z" fill="currentColor"/><path d="M550,175C752,175,925,348,925,550C925,752,752,925,550,925C344,925,175,752,175,550C175,348,344,175,550,175Z" fill="currentColor"/><path d="M334,700C449,840,651,840,766,700L689,637C604,740,496,740,411,637Z" fill="currentColor"/><path d="M702,565C736,565,765,536,765,499C765,464,736,435,702,435C664,435,635,464,635,499C635,536,664,565,702,565Z" fill="currentColor"/></svg>