<svg xmlns="http://www.w3.org/2000/svg" viewBox="0 0 1100 1100"><path d="M800,600C800,717.68,690.33,810,550,810C404.83,810,300,712.94,300,600L200,600C200,771,352,910,550,910C743,910,900,776,900,600Z" fill="currentColor"/><path d="M410,298C410,239,361,190,300,190C239,190,190,239,190,298C190,361,239,410,300,410C361,410,410,361,410,298Z" fill="currentColor"/><path d="M910,298C910,239,861,190,800,190C739,190,690,239,690,298C690,361,739,410,800,410C861,410,910,361,910,298Z" fill="currentColor"/></svg>