<svg xmlns="http://www.w3.org/2000/svg" viewBox="0 0 1100 1100"><path d="M100,900L700,900L700,850C700,681,575,594,350,594C125,594,100,681,100,850Z" fill="currentColor"/><path d="M591,350C591,384.54,616.46,410,651,410C685.54,410,711,384.54,711,350C711,315.46,685.54,290,651,290C616.46,290,591,315.46,591,350Z" fill="currentColor"/><path d="M791,350C791,384.54,816.46,410,851,410C885.54,410,911,384.54,911,350C911,315.46,885.54,290,851,290C816.46,290,791,315.46,791,350Z" fill="currentColor"/><path d="M510,350C510,261,439,190,351,190C261,190,190,261,190,350C190,439,261,510,351,510C439,510,510,439,510,350Z" fill="currentColor"/></svg>