<svg xmlns="http://www.w3.org/2000/svg" viewBox="0 0 1100 1100"><path d="M220,650L680,650C640,744,563,800,450,800C337,800,260,744,220,650Z" fill="currentColor"/><path d="M235,499C235,464,264,435,300,435C336,435,365,464,365,499C365,536,336,565,300,565C264,565,235,536,235,499Z" fill="currentColor"/><path d="M825,550C825,497.16,813.16,446.3,792.06,400L700,400C645,400,600,355,600,300L600,207.94C553.7,186.84,502.84,175,450,175C244,175,75,348,75,550C75,752,244,925,450,925C652,925,825,752,825,550Z" fill="currentColor"/><path d="M700,300L1000,300L1000,200L700,200Z" fill="currentColor"/><path d="M535,499C535,464,564,435,602,435C636,435,665,464,665,499C665,536,636,565,602,565C564,565,535,536,535,499Z" fill="currentColor"/></svg>