<svg xmlns="http://www.w3.org/2000/svg" viewBox="0 0 1100 1100"><path d="M838,900L1000,900L1000,756C1000,661,972,614,838,614Z" fill="currentColor"/><path d="M752,259C752,217,719,184,678,184C634,184,602,217,602,259C602,301,634,333,678,333C719,333,752,301,752,259Z" fill="currentColor"/><path d="M100,900L475,900L475,756C475,661,447,614,278,614C127,614,100,661,100,756Z" fill="currentColor"/><path d="M362,469C362,426,328,393,288,393C244,393,212,426,212,469C212,511,244,542,288,542C328,542,362,511,362,469Z" fill="currentColor"/><path d="M498,259C498,217,465,184,424,184C380,184,348,217,348,259C348,301,380,333,424,333C465,333,498,301,498,259Z" fill="currentColor"/><path d="M625,469C625,426,594,393,550,393C510,393,475,426,475,469C475,511,510,542,550,542C594,542,625,511,625,469Z" fill="currentColor"/><path d="M888,469C888,426,856,393,812,393C772,393,738,426,738,469C738,511,772,542,812,542C856,542,888,511,888,469Z" fill="currentColor"/><path d="M575,900L738,900L738,756C738,661,709,614,575,614Z" fill="currentColor"/></svg>