<svg xmlns="http://www.w3.org/2000/svg" viewBox="0 0 1100 1100"><path d="M175,550C175,348,344,175,550,175C752,175,925,348,925,550C925,752,752,925,550,925C344,925,175,752,175,550Z" fill="currentColor"/><path d="M694.81,635.43C663.1,673.93,614.12,710,550,710C485.88,710,436.9,673.93,405.19,635.43L328,699C370,750,445,810,550,810C655,810,730,750,772,699Z" fill="currentColor"/><path d="M465,499C465,464,436,435,400,435C364,435,335,464,335,499C335,536,364,565,400,565C436,565,465,536,465,499Z" fill="currentColor"/><path d="M765,499C765,464,736,435,702,435C664,435,635,464,635,499C635,536,664,565,702,565C736,565,765,536,765,499Z" fill="currentColor"/></svg>