<svg xmlns="http://www.w3.org/2000/svg" viewBox="0 0 1100 1100"><path d="M100,900L700,900L700,850C700,681,575,594,350,594C125,594,100,681,100,850Z" fill="currentColor"/><path d="M1000,294C1000,244,964,212,919,212C880,212,852,236,825,292C798,236,770,212,731,212C686,212,650,244,650,294C650,323,661,367,825,505C989,367,1000,323,1000,294Z" fill="currentColor"/><path d="M510,350C510,261,439,190,351,190C261,190,190,261,190,350C190,439,261,510,351,510C439,510,510,439,510,350Z" fill="currentColor"/></svg>