<svg xmlns="http://www.w3.org/2000/svg" viewBox="0 0 1100 1100"><path d="M400,500L200,500C135,500,100,535,100,600L100,900L400,900Z" fill="currentColor"/><path d="M330,350C330,307,293,270,250,270C206,270,170,307,170,350C170,394,206,430,250,430C293,430,330,394,330,350Z" fill="currentColor"/><path d="M850,500C677,500,672,500,630,300L470,300C428,500,423,500,250,500L250,600C410.5,600,490.56,604.72,548.59,400L551.41,400C609.44,604.72,689.5,600,850,600Z" fill="currentColor"/><path d="M700,500L700,900L1000,900L1000,600C1000,535,965,500,900,500Z" fill="currentColor"/><path d="M930,350C930,307,894,270,850,270C807,270,770,307,770,350C770,394,807,430,850,430C894,430,930,394,930,350Z" fill="currentColor"/></svg>