<svg xmlns="http://www.w3.org/2000/svg" viewBox="0 0 1100 1100"><path d="M200,900L600,900L600,740C600,606,561,550,404,550C233,550,200,606,200,740Z" fill="currentColor"/><path d="M500,376C500,320,455,275,401,275C345,275,300,320,300,376C300,430,345,475,401,475C455,475,500,430,500,376Z" fill="currentColor"/><path d="M700,700L900,700C900,606,869,550,700,550Z" fill="currentColor"/><path d="M800,376C800,320,755,275,699,275C645,275,600,320,600,376C600,430,645,475,699,475C755,475,800,430,800,376Z" fill="currentColor"/></svg>