<svg xmlns="http://www.w3.org/2000/svg" viewBox="0 0 1100 1100"><path d="M800,850L800,600C800,462.49,687.51,350,550,350C412.49,350,300,462.49,300,600L300,850L400,850L400,600C400,517.51,467.51,450,550,450C632.49,450,700,517.51,700,600L700,850Z" fill="currentColor"/><path d="M500,900L600,900L600,600C600,572.39,577.61,550,550,550C522.39,550,500,572.39,500,600Z" fill="currentColor"/><path d="M1000,750L1000,600C1000,352.49,797.51,150,550,150C302.49,150,100,352.49,100,600L100,750L200,750L200,600C200,407.51,357.51,250,550,250C742.49,250,900,407.51,900,600L900,750Z" fill="currentColor"/></svg>