<svg xmlns="http://www.w3.org/2000/svg" viewBox="0 0 1100 1100"><path d="M700,460L400,460L400,900L501,900L501,711C501,681,512,650,551,650C590,650,600,681,600,711L600,900L700,900Z" fill="currentColor"/><path d="M300,900L201,900L201,700L300,700Z" fill="currentColor"/><path d="M630,250C630,207,593,170,550,170C506,170,470,207,470,250C470,294,506,330,550,330C593,330,630,294,630,250Z" fill="currentColor"/><path d="M550,400C400,400,400,400,215,575L283.72,647.65C439.8,500,439.8,500,550,500Z" fill="currentColor"/><path d="M550,500C682,500,731.44,510.73,864.44,244.72L775,200C675,400,670,400,550,400Z" fill="currentColor"/></svg>