<svg xmlns="http://www.w3.org/2000/svg" viewBox="0 0 1100 1100"><path d="M600,650L600,528C600,447.08,537.4,390,470,390C408,390,359.16,433.42,330.47,519.47C305.45,597.67,302.37,600,220,600L150,600L150,700L220,700C347.02,700,386.74,671.76,425.53,550.53C439.72,507.98,455.54,490,470,490C484.9,490,500,505.32,500,528L500,650Z" fill="currentColor"/><path d="M500,650L500,772C500,853.12,562.8,910,631,910C692.6,910,741.03,866.01,769.53,780.53C794.55,702.33,797.63,700,880,700L950,700L950,600L880,600C752.98,600,713.26,628.24,674.47,749.47C660.28,792.02,644.46,810,631,810C614.9,810,600,794.88,600,772L600,650Z" fill="currentColor"/><path d="M1000,267C1000,220,964,190,919,190C880,190,852,213,825,265C798,213,770,190,731,190C686,190,650,220,650,267C650,294,661,335,825,465C989,335,1000,294,1000,267Z" fill="currentColor"/></svg>