<svg xmlns="http://www.w3.org/2000/svg" viewBox="0 0 1100 1100"><path d="M267.66,527.24C227.11,486.69,204,432.03,204,395C204,340.91,262.71,297,308,297C338.34,297,382.5,316.92,420.29,354.71L550,484.42L679.71,354.71C717.5,316.92,761.66,297,792,297C837.29,297,896,340.91,896,395C896,432.03,872.89,486.68,832.34,527.24L550,808.78Z" fill="currentColor"/><path d="M550,950L903,598C962,539,996,459,996,395C996,281,888,197,792,197C733,197,664,229,609,284L550,343L491,284C436,229,367,197,308,197C212,197,104,281,104,395C104,459,138,539,197,598Z" fill="currentColor"/></svg>