<svg xmlns="http://www.w3.org/2000/svg" viewBox="0 0 1100 1100"><path d="M220,650L680,650C640,744,563,800,450,800C337,800,260,744,220,650Z" fill="currentColor"/><path d="M235,499C235,464,264,435,300,435C336,435,365,464,365,499C365,536,336,565,300,565C264,565,235,536,235,499Z" fill="currentColor"/><path d="M450,925C652,925,825,752,825,550C825,531.15,823.49,512.55,820.6,494.32C673.27,471.35,602.19,378.32,600.05,207.97C553.74,186.85,502.86,175.01,450,175.01C244,175.01,75,348.01,75,550.01C75,752.01,244,925.01,450,925.01Z" fill="currentColor"/><path d="M535,499C535,464,564,435,602,435C636,435,665,464,665,499C665,536,636,565,602,565C564,565,535,536,535,499Z" fill="currentColor"/><path d="M800,400L900,400L900,300L1000,300L1000,200L900,200L900,100L800,100L800,200L700,200L700,300L800,300Z" fill="currentColor"/></svg>