<svg xmlns="http://www.w3.org/2000/svg" viewBox="0 0 1100 1100"><path d="M885,575C700,400,700,400,550,400L550,500C660.2,500,660.2,500,816.28,647.65Z" fill="currentColor"/><path d="M819,852C699,742,699,742,699,710L699,690C699,609,641,550,549,550C457,550,400,638,400,700L400,900L500,900L500,700C500,687.16,518.77,650,549,650C585.08,650,599,663.92,599,690L599,710C599,780,609.31,795.44,751.43,925.72Z" fill="currentColor"/><path d="M400,430L400,730L500,730L500,711C500,681,510,650,549,650C589,650,599,674,599,719L699,700L699,700L700,430Z" fill="currentColor"/><path d="M630,250C630,207,594,170,550,170C507,170,470,207,470,250C470,294,507,330,550,330C594,330,630,294,630,250Z" fill="currentColor"/><path d="M235.56,244.72C368.57,510.73,418,500,550,500L550,400C430,400,425,400,325,200Z" fill="currentColor"/></svg>