<svg xmlns="http://www.w3.org/2000/svg" viewBox="0 0 1100 1100"><path d="M505,200L564,300L900,300L900,200Z" fill="currentColor"/><path d="M401.29,218.98L314.71,269.02L514.71,615.02C523.36,629.95,539.51,640,558,640C585.61,640,608,617.61,608,590C608,580.88,605.56,572.33,601.29,564.98Z" fill="currentColor"/><path d="M800,400L802,400C737,400,702,435,701,500L701,508C700,542,693,562,671,575C641,592,616,589,585,536L477,349L320,506C235,591,178,632,241,741C278,805,278,805,449,1000L800,797Z" fill="currentColor"/></svg>