<svg xmlns="http://www.w3.org/2000/svg" viewBox="0 0 1100 1100"><path d="M505,900L900,900L900,800L564,800Z" fill="currentColor"/><path d="M601.29,535.02L514.71,484.98L314.71,830.98C310.44,838.34,308,846.89,308,856C308,883.61,330.39,906,358,906C376.5,906,392.65,895.96,401.29,881.02Z" fill="currentColor"/><path d="M800,700L800,303L449,100C278,295,278,295,241,359C178,468,235,509,320,594L477,751L585,564C616,511,641,508,671,525C693,538,700,558,701,592L701,600C702,665,737,700,802,700Z" fill="currentColor"/></svg>