<svg xmlns="http://www.w3.org/2000/svg" viewBox="0 0 1100 1100"><path d="M900,850C965,850,1000,815,1000,750L1000,350C1000,285,965,250,900,250L200,250C135,250,100,285,100,350L100,750C100,815,135,850,200,850Z" fill="currentColor"/><path d="M212,750L212,630C212,549,241,515,350,515C455,515,487,549,487,630L487,750Z" fill="currentColor"/><path d="M285,401C285,365,314,335,350,335C386,335,415,365,415,401C415,436,386,465,350,465C314,465,285,436,285,401Z" fill="currentColor"/><path d="M600,650L600,550L900,550L900,650Z" fill="currentColor"/><path d="M600,450L600,350L900,350L900,450Z" fill="currentColor"/></svg>