<svg xmlns="http://www.w3.org/2000/svg" viewBox="0 0 1100 1100"><path d="M100,900L700,900L700,850C700,681,575,594,350,594C125,594,100,681,100,850Z" fill="currentColor"/><path d="M653,515C689,469,710,409,710,350C710,291,689,230,653,184L575,246C598,276,610,310,610,350C610,390,598,423,575,453Z" fill="currentColor"/><path d="M736,131C787,193,810,267,810,350C810,432,788,504,738,568L816,630C880,550,910,449,910,350C910,249,878,147,814,67Z" fill="currentColor"/><path d="M510,350C510,261,439,190,351,190C261,190,190,261,190,350C190,439,261,510,351,510C439,510,510,439,510,350Z" fill="currentColor"/></svg>