<svg xmlns="http://www.w3.org/2000/svg" viewBox="0 0 1100 1100"><path d="M150,650L625,650L625,620C625,506,589,450,375,450C184,450,150,506,150,620Z" fill="currentColor"/><path d="M488,276C488,220,441,175,388,175C331,175,287,220,287,276C287,331,331,375,388,375C441,375,488,331,488,276Z" fill="currentColor"/><path d="M725,650L950,650L950,620C950,506,908,450,725,450Z" fill="currentColor"/><path d="M813,276C813,220,769,175,712,175C659,175,612,220,612,276C612,331,659,375,712,375C769,375,813,331,813,276Z" fill="currentColor"/><path d="M311,849C311,816,285,790,251,790C217,790,191,816,191,849C191,883,217,910,251,910C285,910,311,883,311,849Z" fill="currentColor"/><path d="M610,849C610,816,584,790,550,790C516,790,490,816,490,849C490,883,516,910,550,910C584,910,610,883,610,849Z" fill="currentColor"/><path d="M909,849C909,816,883,790,849,790C815,790,789,816,789,849C789,883,815,910,849,910C883,910,909,883,909,849Z" fill="currentColor"/></svg>