<svg xmlns="http://www.w3.org/2000/svg" viewBox="0 0 24 24"><path d="M1,22L1,20.67C1,19.23,1.52,18.24,3.53,17.7L4.98,9.52C3.84,8.7,3.39,7.79,3.33,6.85L3.1,2.98C3.87,2.65,4.5,2.48,5.23,2.48L5.73,4.68L7.4,4.68L7.7,2.15C7.7,2.15,8.4,2.02,9,2.02C9.6,2.02,10.3,2.15,10.3,2.15L10.57,4.68L12.27,4.68L12.77,2.48C13.5,2.48,14.14,2.65,14.9,2.98L14.67,6.85C14.63,7.41,14.46,7.97,14.08,8.5C10.53,9.7,8.01,13.05,8.01,17.02C8.01,18.88,8.56,20.59,9.51,22.02Z" fill="currentColor"/><path d="M22,17C22,14.16,19.84,12,17,12C14.19,12,12,14.17,12,17C12,19.8,14.2,22,17,22C19.83,22,22,19.81,22,17Z" fill="currentColor"/><path d="M10,17C10,13.13,13.17,10,17,10C20.87,10,24,13.13,24,17C24,20.83,20.87,24,17,24C13.17,24,10,20.83,10,17Z" fill="currentColor"/><path d="M12.23,20.36L20.36,12.23L21.77,13.64L13.64,21.77Z" fill="currentColor"/></svg>