<svg xmlns="http://www.w3.org/2000/svg" viewBox="0 0 24 24"><path d="M5.75,22C5.75,21.03,6.66,20.12,7.67,20.12C8.64,20.12,9.55,21.03,9.55,22C9.55,23.01,8.64,23.92,7.67,23.92C6.66,23.92,5.75,23.01,5.75,22Z" fill="currentColor"/><path d="M0.08,16.33C0.08,15.36,0.99,14.45,2,14.45C2.97,14.45,3.88,15.36,3.88,16.33C3.88,17.34,2.97,18.25,2,18.25C0.99,18.25,0.08,17.34,0.08,16.33Z" fill="currentColor"/><path d="M14.45,22C14.45,21.03,15.36,20.12,16.33,20.12C17.34,20.12,18.25,21.03,18.25,22C18.25,23.01,17.34,23.92,16.33,23.92C15.36,23.92,14.45,23.01,14.45,22Z" fill="currentColor"/><path d="M0.08,7.67C0.08,6.66,0.99,5.75,2,5.75C2.97,5.75,3.88,6.66,3.88,7.67C3.88,8.64,2.97,9.55,2,9.55C0.99,9.55,0.08,8.64,0.08,7.67Z" fill="currentColor"/><path d="M5.75,2C5.75,0.99,6.66,0.08,7.67,0.08C8.64,0.08,9.55,0.99,9.55,2C9.55,2.97,8.64,3.88,7.67,3.88C6.66,3.88,5.75,2.97,5.75,2Z" fill="currentColor"/><path d="M20.12,16.33C20.12,15.36,21.03,14.45,22,14.45C23.01,14.45,23.92,15.36,23.92,16.33C23.92,17.34,23.01,18.25,22,18.25C21.03,18.25,20.12,17.34,20.12,16.33Z" fill="currentColor"/><path d="M14.45,2C14.45,0.99,15.36,0.08,16.33,0.08C17.34,0.08,18.25,0.99,18.25,2C18.25,2.97,17.34,3.88,16.33,3.88C15.36,3.88,14.45,2.97,14.45,2Z" fill="currentColor"/><path d="M20.12,7.67C20.12,6.66,21.03,5.75,22,5.75C23.01,5.75,23.92,6.66,23.92,7.67C23.92,8.64,23.01,9.55,22,9.55C21.03,9.55,20.12,8.64,20.12,7.67Z" fill="currentColor"/><path d="M8.57,11.93C8.47,11.96,7.4,11.76,7,11.36C6.7,11.16,6.7,10.73,7,10.36L8,8.93C8.47,8.23,8.47,7.86,8.73,7.16C8.8,6.99,8.9,6.73,9.3,6.49C9.57,6.16,9.8,5.96,9.97,5.62L10.07,5.02C10.14,4.82,10.3,4.65,10.47,4.65L11.57,5.78C13.87,5.95,16.37,7.58,16.37,11.28C16.37,12.38,15.64,14.35,15.4,15.48C16.63,15.68,17.33,16.21,17.33,17.15L17.33,17.98L7.3,17.98L7.3,17.15C7.3,16.22,8,15.68,9.17,15.48C9.17,12.48,12.24,11.91,12.24,10.41C12.24,9.98,12.01,9.61,11.87,9.44L11.57,9.84C11.24,10.17,10.64,10.81,9.9,10.81C9,10.81,9,11.48,8.57,11.91Z" fill="currentColor"/></svg>