<svg xmlns="http://www.w3.org/2000/svg" viewBox="0 0 24 24"><path d="M5.97,12.27C5.8,12.4,4.07,12,3.44,11.47C3.01,11.07,2.97,10.4,3.37,9.84L5.04,7.51C5.81,6.44,5.81,5.84,6.24,4.74C6.34,4.44,6.51,4.01,7.04,3.57C7.57,3.1,7.94,2.77,8.14,2.24L8.34,1.24C8.41,0.94,8.67,0.67,8.94,0.67L10.77,2.5C13.01,2.64,15.37,3.66,16.89,5.68L21.97,0.6C22.4,0.17,22.87,0.17,23.3,0.6L23.4,0.7C23.82,1.12,23.83,1.58,23.43,2C23.42,2.01,23.41,2.02,23.4,2.03L17.9,7.53L4,21.43L2.1,23.33L2.07,23.36C1.64,23.79,1.17,23.79,0.74,23.36L0.64,23.26C0.21,22.83,0.21,22.36,0.64,21.93L8.13,14.44C8.82,13.48,9.65,12.81,10.24,12.33L11.32,11.25C11.65,10.82,11.88,10.36,11.88,9.89C11.88,9.19,11.45,8.62,11.28,8.39L10.71,9.02C10.18,9.59,9.21,10.59,8.11,10.59C6.68,10.62,6.64,11.62,5.98,12.26Z" fill="currentColor"/><path d="M6.3,22L18.44,9.86C18.48,10.22,18.5,10.59,18.5,10.97C18.5,13.29,17.36,16.26,17.01,18.07C18.9,18.32,20,19.28,20,20.67L20,22Z" fill="currentColor"/></svg>