<svg xmlns="http://www.w3.org/2000/svg" viewBox="0 0 24 24"><path d="M20.07,20L16.94,20C16.34,20,16.01,19.67,16.01,19.07L16.01,18.94C16.01,18.34,16.34,18.01,16.94,18.01L20.01,18.01L20.01,15.34L18.94,15.34C18.34,15.34,18.01,15.01,18.01,14.41L18.01,14.28C18.01,13.68,18.34,13.35,18.94,13.35L20.01,13.35L20.01,10.68L18.94,10.68C18.34,10.68,18.01,10.35,18.01,9.75L18.01,9.62C18.01,9.02,18.34,8.69,18.94,8.69L20.01,8.69L20.01,6.02L16.94,6.02C16.34,6.02,16.01,5.69,16.01,5.09L16.01,4.96C16.01,4.36,16.34,4.03,16.94,4.03L20.07,4.03C21.67,4.03,22,4.36,22,5.96L22,18.09C22,19.69,21.67,20.02,20.07,20.02Z" fill="currentColor"/><path d="M1.93,17.7L3.63,8.13L9.66,8.13L11.36,17.7Z" fill="currentColor"/><path d="M0.07,18.9C0.07,17,1.17,16.07,6.64,16.07C12.11,16.07,13.24,17,13.24,18.9L13.24,20L0.07,20Z" fill="currentColor"/><path d="M9.87,9.8L3.4,9.8C2.43,9.1,2.03,8.33,2,7.53L1.8,4.36C2.43,4.09,2.97,3.96,3.57,3.96L3.97,5.76L5.34,5.76L5.57,3.69C5.57,3.69,6.17,3.56,6.64,3.56C7.14,3.56,7.71,3.69,7.71,3.69L7.94,5.76L9.34,5.76L9.74,3.96C10.34,3.96,10.87,4.09,11.51,4.36L11.31,7.53C11.24,8.33,10.88,9.1,9.88,9.8Z" fill="currentColor"/></svg>