<svg xmlns="http://www.w3.org/2000/svg" viewBox="0 0 24 24"><path d="M0,22L0,20.67C0,19.23,0.52,18.24,2.53,17.7L3.98,9.52C2.84,8.7,2.39,7.79,2.33,6.85L2.1,2.98C2.87,2.65,3.5,2.48,4.23,2.48L4.73,4.68L6.4,4.68L6.7,2.15C6.7,2.15,7.4,2.02,8,2.02C8.6,2.02,9.3,2.15,9.3,2.15L9.57,4.68L11.27,4.68L11.77,2.48C12.5,2.48,13.14,2.65,13.9,2.98L13.67,6.85C13.6,7.79,13.16,8.7,12.02,9.52L13.14,15.73C13.02,15.83,12.89,15.93,12.75,16.04C11.49,17.13,9.5,18.86,9.5,22.01Z" fill="currentColor"/><path d="M24,22L11.5,22C11.5,19.77,12.8,18.63,14.03,17.57C15.23,16.6,16.36,15.67,16.36,13.84L16.36,13.11L14.56,13.11C14.36,12.71,14.23,12.21,14.23,11.71L16.36,10.44C15.36,9.71,14.86,8.84,14.86,7.74C14.86,6.07,16.23,4.67,17.93,4.67C19.63,4.67,21,6.07,21,7.74C21,8.84,20.5,9.71,19.5,10.37L21.67,11.7C21.67,12.2,21.57,12.7,21.3,13.1L19.5,13.1L19.5,13.83C19.5,15.66,20.63,16.6,21.83,17.56C23.06,18.63,24,19.76,24,21.99Z" fill="currentColor"/></svg>