<svg xmlns="http://www.w3.org/2000/svg" viewBox="0 0 24 24" fill="currentColor"><path d="M7.43,20.5L7.43,19.5C7.43,18.3,8.5,17.53,10.23,17.5C9.4,16.3,8.75,15,8.75,13.23C8.75,10,11.43,7.5,11.43,7.5C11.25,6.73,11.25,6.58,11.25,6.38C11.25,5.33,12.02,4.5,13,4.5C13.98,4.5,14.75,5.33,14.75,6.38C14.75,6.68,14.72,7.26,14.27,7.78C13,9.26,12.05,11.31,11.9,13.76L13.57,13.76C13.67,11.73,14.32,10.03,15.39,8.71C16.16,9.26,17.24,11.19,17.24,13.23C17.24,15.09,16.64,16.38,15.82,17.51C17.52,17.56,18.57,18.33,18.57,19.51L18.57,20.51Z"/></svg>