<svg xmlns="http://www.w3.org/2000/svg" viewBox="0 0 24 24"><path d="M18.67,22L5.34,22C5.34,19.67,6.67,18.53,7.97,17.43C9.2,16.4,10.37,15.43,10.37,13.5L10.37,12.67L8.5,12.67C8.27,12.27,8.17,11.8,8.17,11.34L10.37,10.01C9.3,9.28,8.8,8.28,8.8,7.21C8.8,5.44,10.23,4.01,12,4.01C13.77,4.01,15.2,5.44,15.2,7.21C15.2,8.28,14.7,9.28,13.63,9.98L15.83,11.35C15.83,11.82,15.73,12.28,15.5,12.68L13.63,12.68L13.63,13.51C13.63,15.44,14.8,16.41,16.03,17.44C17.33,18.54,18.66,19.67,18.66,22.01Z" fill="currentColor"/></svg>