<svg xmlns="http://www.w3.org/2000/svg" viewBox="0 0 24 24"><path d="M4.7,7C2.9,7,1.4,6.17,1.4,4.3C1.4,2.77,2.47,1.83,3.9,1.83C5.43,1.83,6.38,2.82,7.02,4.75C7.68,2.82,8.62,1.83,10.13,1.83C11.6,1.83,12.63,2.8,12.63,4.3C12.63,6.13,11.1,7,9.4,7Z" fill="currentColor"/><path d="M2.67,22C0.67,22,0,21.33,0,19.33L0,16L6,16L6,22Z" fill="currentColor"/><path d="M0,11.67C0,9.67,0.67,9,2.67,9L6,9L6,14L0,14Z" fill="currentColor"/><path d="M8,14L8,10.89C8.2,11.6,8.69,12.3,9.3,12.79L9.7,14.01Z" fill="currentColor"/><path d="M9.3,21.07L9.3,22L8,22L8,16L10.35,16L11,18C9.88,18.76,9.29,19.94,9.29,21.07Z" fill="currentColor"/><path d="M4.7,5.53L5.82,5.53C5.31,3.91,4.87,3.3,4.03,3.3C3.4,3.3,2.8,3.57,2.8,4.3C2.8,5.3,3.8,5.53,4.7,5.53Z" fill="currentColor"/><path d="M8.27,5.53L9.4,5.53C10.2,5.53,11.2,5.3,11.2,4.3C11.2,3.57,10.6,3.3,10.03,3.3C9.25,3.3,8.74,3.92,8.26,5.53Z" fill="currentColor"/><path d="M11.3,21.07C11.3,19.97,12.07,19.34,13.53,19.2L10.96,11.43C10.33,11.33,9.89,10.8,9.89,10.2C9.89,9.57,10.42,9,11.06,9C11.69,9,12.23,9.53,12.23,10.23C12.23,10.5,12.16,10.73,11.96,10.96L14.09,13.73L14.36,9.43C13.76,9.16,13.53,8.8,13.53,8.23C13.53,7.53,14.06,6.96,14.76,6.96C15.46,6.96,15.99,7.53,15.99,8.23C15.99,8.66,15.82,9,15.49,9.26L16.92,13.53L18.35,9.26C18.02,8.99,17.85,8.66,17.85,8.23C17.85,7.56,18.38,6.96,19.08,6.96C19.78,6.96,20.35,7.53,20.35,8.23C20.35,8.8,20.08,9.16,19.48,9.43L19.78,13.73L21.88,10.96C21.71,10.73,21.61,10.49,21.61,10.23C21.61,9.6,22.14,9,22.78,9C23.51,9,23.98,9.67,23.98,10.2C23.98,10.73,23.55,11.33,22.91,11.43L20.34,19.2C21.81,19.33,22.57,19.97,22.57,21.07L22.57,22L11.27,22Z" fill="currentColor"/></svg>