<svg xmlns="http://www.w3.org/2000/svg" viewBox="0 0 24 24" fill="currentColor"><path d="M18.98,19C19,15.92,17.63,15.54,16.67,15.09C16.66,14.63,16.62,14.18,16.56,13.75C16.84,13.96,17.16,14.13,17.51,14.13C18.38,14.13,18.41,14.73,18.8,15.1C18.9,15.2,19.88,14.95,20.25,14.6C20.53,14.37,20.53,13.98,20.3,13.64L19.35,12.24C18.91,11.6,18.9,11.23,18.64,10.58L19.74,9.48C19.86,9.68,19.94,9.86,20.01,10.04C20.43,11.14,20.3,11.04,20.53,11.36L21.51,12.79C21.78,13.19,21.96,13.67,21.96,14.14C21.96,14.74,21.71,15.32,21.23,15.74C20.91,16.01,20.43,16.25,19.99,16.41C20.29,17.03,20.45,17.96,20.48,19.41C20.48,20.18,20.18,20.48,19.41,20.48L16.68,20.48L16.68,18.98ZM14.07,20.5L8.73,20.5L15.08,14.15C15.13,14.54,15.15,14.95,15.15,15.37L15.15,19.42C15.15,20.19,14.85,20.49,14.08,20.49ZM21.55,5.52L18.79,8.28L17.66,9.41L14.67,12.4L6.59,20.48L5.57,21.5L5.55,21.52C5.23,21.84,4.88,21.84,4.55,21.52L4.48,21.45C4.16,21.12,4.16,20.77,4.48,20.45L5.98,18.95C6.5,16.4,8.33,16.38,9.35,15.5C10.48,14.54,11,13.72,10.13,12.55C9.28,13.47,8.75,14.18,7.85,14.2C6.78,14.22,6.75,14.97,6.26,15.45C6.13,15.55,4.83,15.25,4.36,14.85C4.04,14.55,4.01,14.05,4.31,13.63L5.56,11.88C6.14,11.08,6.03,10.63,6.36,9.8C6.44,9.6,6.56,9.26,6.96,8.93C7.36,8.57,7.71,8.35,7.79,7.93L7.94,7.18C7.99,6.95,8.24,6.58,8.66,7.01L9.77,8.13C11.37,8.24,12.97,9.23,14,10.94L15.67,9.28C15.35,9.31,15.06,9.37,14.78,9.47C14.46,9.05,14.12,8.68,13.74,8.35C14.21,8.09,14.7,7.93,15.21,7.84L15.86,7.22C16.62,6.49,17.44,6.5,18.02,6.94L20.48,4.47C20.81,4.15,21.16,4.15,21.48,4.47L21.56,4.55C21.87,4.86,21.88,5.21,21.58,5.52C21.57,5.53,21.56,5.54,21.56,5.54Z"/></svg>