<svg xmlns="http://www.w3.org/2000/svg" viewBox="0 0 24 24" fill="currentColor"><path d="M6.63,20.5L6.63,18.33C6.63,17.05,7.02,16.25,8.33,15.78L8.93,11C8.16,10.5,7.73,9.75,7.65,8.9L7.43,5.88C8.55,5.3,10.8,4.77,13.05,4.77C15.21,4.77,17.35,5.25,18.55,5.88L18.35,8.9C18.29,9.75,17.84,10.5,17.07,11L17.67,15.78C18.97,16.25,19.38,17.05,19.38,18.33L19.38,20.5ZM8.13,19L17.88,19L17.88,18.33C17.88,17,16.85,16.75,13,16.75C9.15,16.75,8.13,17,8.13,18.33ZM10.4,11.45L9.87,15.42C10.7,15.29,11.73,15.25,13,15.25C14.27,15.25,15.3,15.3,16.13,15.42L15.6,11.45C13.58,11.25,12.43,11.25,10.41,11.45ZM10.23,9.95C12.35,9.75,13.65,9.75,15.78,9.95C16.53,9.7,16.8,9.27,16.85,8.77L17,6.67C16.4,6.47,15.87,6.35,15.48,6.35L15.15,7.82L14.1,7.82L13.93,6.1C13.71,6.03,13.35,6,13.01,6C12.66,6,12.33,6.03,12.09,6.1L11.91,7.82L10.86,7.82L10.54,6.35C10.14,6.35,9.62,6.47,9.02,6.67L9.17,8.77C9.22,9.27,9.49,9.69,10.24,9.95Z"/></svg>