<svg xmlns="http://www.w3.org/2000/svg" viewBox="0 0 24 24"><path d="M16.73,22L16.56,22L16.56,19.67C16.56,15.14,12.53,15.74,12.39,12.9L12.36,12.2L13.89,12.2C14.12,11.9,14.19,11.53,14.19,11.13L12.36,9.96C13.36,9.29,13.66,8.63,13.66,7.66C13.66,6.19,12.46,4.99,10.99,4.99C9.52,4.99,8.32,6.19,8.32,7.66C8.32,8.56,8.72,9.39,9.62,10.03L7.79,11.13C7.79,11.53,7.86,11.9,8.09,12.2L9.62,12.2L9.59,12.9C9.46,15.73,5.42,15.13,5.42,19.67L5.42,21.99C2.46,21.78,-0.01,19.6,-0.01,16.31C-0.01,13.14,2.62,11.18,4.92,10.91C3.15,5.18,7.15,1.84,11.12,1.84C15.35,1.84,17.79,5.47,17.62,8.77C21.52,8.67,23.99,11.7,23.99,15.37C23.99,19.07,20.96,22,16.72,22Z" fill="currentColor"/><path d="M10.43,24L10.7,20.8L8.7,20.8L9.37,16.07L12.24,16.1L11.81,18.6L14.68,18.6Z" fill="currentColor"/></svg>