<svg xmlns="http://www.w3.org/2000/svg" viewBox="0 0 24 24" fill="currentColor"><path d="M4.43,19.5C4.43,18.3,5.5,17.53,7.23,17.5C6.4,16.3,5.75,15,5.75,13.23C5.75,10,8.43,7.5,8.43,7.5C8.25,6.73,8.25,6.58,8.25,6.38C8.25,5.33,9.02,4.5,10,4.5C10.98,4.5,11.75,5.33,11.75,6.38C11.75,6.68,11.73,7.26,11.27,7.78C10,9.26,9.05,11.31,8.9,13.76L10.57,13.76C10.67,11.78,11.29,10.11,12.32,8.8C12.26,9.05,12.22,9.31,12.22,9.59C12.24,12.45,12.75,13.45,13.94,14.53C12.47,15.95,12.23,17.09,12.22,20.51L4.42,20.51ZM14.83,20.5C14.06,20.5,13.76,20.2,13.76,19.43C13.78,16.5,14.04,16.33,16.33,14.5C14.03,12.68,13.78,12.53,13.76,9.6C13.76,8.83,14.06,8.53,14.83,8.53L20.93,8.53C21.7,8.53,22,8.83,22,9.6C21.98,12.53,21.72,12.68,19.43,14.5C21.73,16.32,21.98,16.5,22,19.43C22,20.2,21.7,20.5,20.93,20.5ZM15.23,19L20.53,19C20.53,16.45,18.13,17.45,18.13,15.75L18.13,14.53C18.13,14.08,18.3,13.63,18.58,13.31L20.4,11.23C20.8,10.76,20.43,10.68,17.8,10.68C15.33,10.68,14.97,10.76,15.35,11.21L17.17,13.31C17.45,13.63,17.62,14.08,17.62,14.53L17.62,15.75C17.62,17.46,15.22,16.53,15.22,19Z"/></svg>