<svg xmlns="http://www.w3.org/2000/svg" viewBox="0 0 24 24"><path d="M18.77,12L18.21,12L17.34,15L21.94,15L14.84,24L15.71,18.2L12.44,18.2L13.82,12L9.58,12C10.35,11.14,10.83,10.02,10.83,8.83C10.83,6.48,8.93,4.38,6.64,4.04C7.35,3.58,8.26,3.29,9.37,3.29C9.57,1.19,11.37,0.06,13.17,0.06C14.8,0.06,16.8,0.99,16.9,3.29C21.1,2.62,23.9,4.22,23.9,7.76C23.9,10.06,22.33,11.99,18.77,11.99Z" fill="currentColor"/><path d="M0.1,22C0.1,17.87,4.2,18.47,4.5,14.4L4.57,13.67L2.9,13.67C2.7,13.34,2.6,12.94,2.6,12.54L4.57,11.34C3.57,10.67,3.17,9.77,3.17,8.84C3.17,7.27,4.47,6.01,6,6.01C7.57,6.01,8.83,7.28,8.83,8.84C8.83,9.87,8.56,10.57,7.5,11.27L9.43,12.54C9.43,12.94,9.36,13.34,9.1,13.67L7.5,13.67L7.5,14.4C7.83,18.47,11.93,17.87,11.93,22Z" fill="currentColor"/></svg>