<svg xmlns="http://www.w3.org/2000/svg" viewBox="0 0 24 24" fill="currentColor"><path d="M4.47,20.5C4.47,16.25,8.62,16.43,8.62,13.05L8.62,12.6L7.14,12.6C6.92,12.25,6.86,11.88,6.86,11.48L8.72,10.35L8.59,10.23C7.94,9.57,7.41,8.9,7.41,7.98C7.41,6.48,8.63,5.25,10.11,5.25C11.59,5.25,12.81,6.48,12.81,7.98C12.81,8.9,12.31,9.68,11.61,10.23L11.46,10.35L11.86,10.59C10.47,12.08,9.98,13.62,9.98,15.25C9.98,17.38,10.95,19.26,12.47,20.5ZM20.15,18.1C19.82,17.82,19.77,17.45,20.02,17.07C20.32,16.52,20.49,15.89,20.49,15.25C20.49,13.17,18.79,11.5,16.72,11.5L16.72,10C19.59,10,21.99,12.38,21.99,15.25C21.99,16.28,21.69,17.25,21.17,18.05C20.9,18.42,20.55,18.45,20.22,18.18ZM16.77,19L16.77,20.5C13.9,20.5,11.5,18.12,11.5,15.25C11.5,14.22,11.8,13.25,12.32,12.45C12.6,12.08,12.95,12.05,13.28,12.32L13.35,12.4C13.68,12.68,13.73,13.05,13.48,13.43C13.18,13.98,13.01,14.61,13.01,15.25C13.01,17.33,14.71,19,16.78,19ZM17.5,21.75C17.03,22.17,16.75,22.04,16.75,21.42L16.75,18.07C16.75,17.45,17.03,17.32,17.5,17.75L19.4,19.42C19.64,19.65,19.64,19.85,19.4,20.07ZM16.75,12.43C16.75,13.05,16.47,13.18,16,12.75L14.1,11.08C13.86,10.85,13.86,10.65,14.1,10.43L16,8.75C16.47,8.33,16.75,8.45,16.75,9.08ZM16.75,12.43C16.75,13.05,16.47,13.18,16,12.75L14.1,11.08C13.86,10.85,13.86,10.65,14.1,10.43L16,8.75C16.47,8.33,16.75,8.45,16.75,9.08Z"/></svg>