<svg xmlns="http://www.w3.org/2000/svg" viewBox="0 0 24 24" fill="currentColor"><path d="M10.13,11.52C10.13,11.52,9.28,10.92,8.63,10.92C7.95,10.92,7.52,11.3,7.52,11.87C7.52,12.68,8.65,13.4,9.15,13.97L10.13,13.97ZM5.5,19.5C5.5,18.42,6.38,17.68,7.88,17.53C7.61,16.62,7.01,15.96,6.53,15.28C5.6,14.01,4.75,13.11,4.75,11.7C4.75,9.63,6.1,8.28,7.92,8.28C9.07,8.28,9.85,8.63,10.27,8.9L10.77,7L9,7L9,5.5L10.74,5.5L10.74,4L12.24,4L12.24,5.5L13.99,5.5L13.99,7L12.27,7L12.69,8.9C13.12,8.62,13.89,8.28,15.04,8.28C16.34,8.28,17.35,8.95,17.87,10L16.02,10C12.66,10,10.02,12.65,10.02,16C10.02,17.81,10.79,19.41,12.02,20.5L5.49,20.5ZM19.02,16.02C19.02,14.32,17.73,13.02,16.02,13.02C14.32,13.02,13.02,14.32,13.02,16.02C13.02,17.73,14.32,19.02,16.02,19.02C17.73,19.02,19.02,17.73,19.02,16.02ZM11.52,16.02C11.52,13.55,13.55,11.52,16.02,11.52C18.5,11.52,20.52,13.55,20.52,16.02C20.52,18.5,18.5,20.52,16.02,20.52C13.55,20.52,11.52,18.5,11.52,16.02ZM21.72,21.57L21.63,21.67C21.3,21.99,20.95,21.99,20.63,21.67L17.85,18.89L18.96,17.79L21.73,20.57C22.05,20.89,22.05,21.24,21.73,21.57Z"/></svg>