<svg xmlns="http://www.w3.org/2000/svg" viewBox="0 0 24 24" fill="currentColor"><path d="M5.5,20.5L5.5,19.5C5.5,18.33,6.3,17.65,7.85,17.53L5.12,9.26C4.47,9.16,4,8.61,4,7.96C4,7.29,4.55,6.69,5.25,6.69C5.9,6.69,6.47,7.26,6.47,7.98C6.47,8.28,6.4,8.53,6.2,8.76L8.47,11.7L8.75,7.13C8.12,6.85,7.85,6.45,7.85,5.85C7.85,5.1,8.42,4.5,9.17,4.5C9.92,4.5,10.47,5.1,10.47,5.85C10.47,6.3,10.32,6.68,9.97,6.96L11.49,11.51L12.99,6.96C12.64,6.68,12.47,6.3,12.47,5.85C12.47,5.16,13.04,4.5,13.79,4.5C14.54,4.5,15.12,5.1,15.12,5.85C15.12,6.45,14.84,6.85,14.22,7.13L14.27,7.8C13.88,8.39,13.64,9.09,13.64,9.81C13.64,10.24,13.77,10.76,14,11.28C12.79,12.42,12.93,14.24,14.45,15.24C14.26,15.46,13.97,15.69,13.55,16.02C12.61,16.84,11.12,18.14,11.12,20.5ZM22,20.5L12.63,20.5C12.63,18.83,13.6,17.97,14.52,17.18C15.42,16.45,16.27,15.75,16.27,14.38L16.27,13.83L14.92,13.83C14.77,13.53,14.67,13.16,14.67,12.78L16.27,11.83C15.52,11.28,15.14,10.63,15.14,9.8C15.14,8.55,16.17,7.5,17.45,7.5C18.72,7.5,19.75,8.55,19.75,9.8C19.75,10.63,19.38,11.28,18.63,11.78L20.25,12.77C20.25,13.15,20.18,13.52,19.98,13.82L18.63,13.82L18.63,14.37C18.63,15.74,19.47,16.45,20.37,17.17C21.29,17.97,22,18.82,22,20.49Z"/></svg>