<svg xmlns="http://www.w3.org/2000/svg" viewBox="0 0 24 24" fill="currentColor"><path d="M11.48,17.37L11.48,19L14.93,19L15.27,20.5L4.25,20.5C4.25,16.5,8.25,17.13,8.48,13.15L8.5,12.47L6.98,12.47C6.77,12.12,6.7,11.7,6.7,11.33L8.5,10.15C7.62,9.53,7.25,8.67,7.25,7.75C7.25,6.25,8.47,5,10,5C11.52,5,12.75,6.25,12.75,7.75C12.75,8.73,12.45,9.45,11.5,10.13L12.79,10.99C12.81,11.11,12.84,11.23,12.87,11.35L13.1,12.32C13.08,12.37,13.05,12.42,13.02,12.48L11.5,12.48L11.52,13.15C11.57,13.94,11.76,14.54,12.04,15.05C11.63,15.64,11.47,16.37,11.47,17.37ZM16.47,19L18.47,19L17.95,21.4C17.82,21.95,17.8,22,17.5,22C17.2,22,17.18,21.95,17.05,21.4ZM13,16.8C13,16.18,13.32,15.63,13.9,15.36L15.23,14.68L14.23,10.46C13.88,8.98,14.25,8.51,15.75,8.51L19.26,8.51C20.76,8.51,21.13,8.98,20.78,10.46L19.75,14.71L21.1,15.36C21.68,15.64,22,16.19,22,16.81L22,17.51L13,17.51Z"/></svg>