<svg xmlns="http://www.w3.org/2000/svg" viewBox="0 0 24 24" fill="currentColor"><path d="M4.75,20.5L4.75,19.5C4.75,18.43,5.63,17.7,7.07,17.53C6.7,16.63,6.08,15.96,5.57,15.28C4.6,14.01,4,13.11,4,11.7C4,9.63,5.4,8.28,7.3,8.28C7.66,8.28,7.97,8.31,8.22,8.36C7.47,9.21,7,10.37,7,11.7C7,13.55,7.88,14.87,8.88,16.17C9.02,16.38,9.18,16.58,9.33,16.77C8.3,17.46,7.75,18.5,7.75,19.5L7.75,20.49ZM8.25,5.5L10.03,5.5L10.03,4L11.51,4L11.51,5.5L11.51,6.78C10.98,6.81,10.46,6.93,10,7.11L10.04,6.99L8.26,6.99ZM16.62,13.98L17.6,13.98C18.1,13.4,19.22,12.68,19.22,11.88C19.22,11.3,18.8,10.92,18.12,10.92C17.47,10.92,16.62,11.52,16.62,11.52ZM13.88,13.98L13.88,11.52C13.88,11.52,13.03,10.92,12.38,10.92C11.7,10.92,11.27,11.3,11.27,11.88C11.27,12.68,12.4,13.4,12.9,13.98ZM9.25,20.5L9.25,19.5C9.25,18.43,10.13,17.7,11.57,17.53C11.2,16.63,10.58,15.96,10.07,15.28C9.1,14.01,8.5,13.11,8.5,11.7C8.5,9.63,9.9,8.28,11.8,8.28C13,8.28,13.52,8.63,13.98,8.9L14.52,7L12.75,7L12.75,5.5L14.52,5.5L14.52,4L16,4L16,5.5L17.75,5.5L17.75,7L16.02,7L16.49,8.9C16.95,8.62,17.47,8.28,18.67,8.28C20.64,8.28,21.99,9.72,21.99,11.7C21.99,13.11,21.37,14.01,20.39,15.28C19.89,15.96,19.27,16.63,18.89,17.53C20.37,17.7,21.24,18.43,21.24,19.5L21.24,20.5Z"/></svg>