<svg xmlns="http://www.w3.org/2000/svg" viewBox="0 0 24 24"><path d="M2.03,22L2.03,20.77C2.03,19.3,3.03,18.44,5,18.3L1.57,8.03C0.77,7.9,0.17,7.23,0.17,6.4C0.17,5.57,0.84,4.83,1.74,4.83C2.54,4.83,3.27,5.53,3.27,6.43C3.27,6.83,3.17,7.13,2.94,7.4L4.91,9.96L7.3,16.99C5.7,17.83,4.9,19.33,4.9,20.77L4.9,22Z" fill="currentColor"/><path d="M6.9,22L6.9,20.77C6.9,19.34,7.9,18.47,9.87,18.34L6.47,8.07C5.6,7.94,5.04,7.27,5.04,6.47C5.04,5.64,5.74,4.87,6.61,4.87C7.44,4.87,8.11,5.6,8.11,6.5C8.11,6.87,8.04,7.17,7.78,7.47L10.65,11.1L10.98,5.43C10.21,5.13,9.88,4.66,9.88,3.86C9.88,2.93,10.58,2.19,11.55,2.19C12.45,2.19,13.15,2.92,13.15,3.86C13.15,4.43,12.98,4.86,12.55,5.23L14.45,10.86L16.32,5.23C15.89,4.86,15.65,4.43,15.65,3.86C15.65,2.96,16.38,2.19,17.35,2.19C18.28,2.19,18.95,2.92,18.95,3.86C18.95,4.66,18.62,5.13,17.85,5.43L18.25,11.1L21.05,7.47C20.78,7.17,20.68,6.87,20.68,6.5C20.68,5.67,21.38,4.87,22.25,4.87C23.22,4.87,23.85,5.74,23.85,6.47C23.85,7.17,23.22,7.94,22.38,8.07L19.01,18.34C20.94,18.51,21.94,19.34,21.94,20.77L21.94,22Z" fill="currentColor"/></svg>