<svg xmlns="http://www.w3.org/2000/svg" viewBox="0 0 24 24" fill="currentColor"><path d="M15.68,10.13C15.6,10.18,14.83,10,14.55,9.75C14.35,9.58,14.33,9.28,14.53,9.02L15.28,7.97C15.6,7.5,15.6,7.22,15.8,6.72C15.86,6.59,15.93,6.4,16.18,6.2C16.41,5.99,16.58,5.84,16.65,5.6L16.75,5.15C16.77,5.02,16.9,4.9,17.03,4.9L17.85,5.72C19.5,5.82,21.32,7.02,21.32,9.53C21.32,10.71,20.7,12.21,20.63,12.98L16.13,13.05C15.98,11.46,17.05,10.6,17.6,10.15C17.98,9.85,18.35,9.45,18.35,9.05C18.35,8.75,18.15,8.47,18.08,8.37L17.83,8.67C17.58,8.92,17.16,9.37,16.65,9.37C16,9.37,15.98,9.82,15.68,10.12ZM14.8,13.9C14.8,13.17,15.47,12.7,16.58,12.7L20.2,12.7C21.33,12.7,22,13.17,22,13.9L22,14.5L14.8,14.5ZM4.4,13.9C4.4,13.17,5.05,12.72,6.07,12.7C5.6,11.97,5.19,11.2,5.19,10.13C5.19,8.2,6.79,6.7,6.79,6.7C6.69,6.23,6.69,6.15,6.69,6.02C6.69,5.4,7.17,4.9,7.74,4.9C8.32,4.9,8.79,5.4,8.79,6.02C8.79,6.2,8.77,6.55,8.52,6.87C7.74,7.75,7.17,8.97,7.09,10.45L8.09,10.45C8.14,9.23,8.54,8.22,9.19,7.43C9.64,7.75,10.29,8.9,10.29,10.13C10.29,11.25,9.94,12.02,9.45,12.7C10.47,12.72,11.1,13.2,11.1,13.9L11.1,14.5L4.4,14.5ZM11.02,22C10.57,22,10.44,21.77,10.64,21.38L12.67,17.48C12.87,17.08,13.12,17.08,13.32,17.48L15.35,21.38C15.55,21.78,15.42,22,14.97,22ZM4.71,17.5C4.26,17.5,4.01,17.25,4.01,16.8L4.01,16.71C4.01,16.25,4.26,16.01,4.71,16.01L21.3,16.01C21.75,16.01,22,16.25,22,16.71L22,16.8C22,17.25,21.75,17.5,21.3,17.5Z"/></svg>