<svg xmlns="http://www.w3.org/2000/svg" viewBox="0 0 24 24"><path d="M0,20.67C0,19.24,0.47,18.24,2.47,17.7L4,8.93C2.8,8.53,2.33,7.7,2.27,6.83L2.04,2.96C2.81,2.63,3.44,2.46,4.17,2.46L4.67,4.66L6.04,4.66L6.18,6.96C6.26,7.95,6.82,9.07,7.71,9.89L6.6,16.22C4.81,17.07,3.84,18.58,3.84,20.66L3.84,21.99L0.01,21.99Z" fill="currentColor"/><path d="M5.83,20.67C5.83,19.32,6.3,18.35,8.03,17.8C8.16,19.35,8.68,20.78,9.5,22L5.83,22Z" fill="currentColor"/><path d="M7.93,2.97C8.7,2.64,9.33,2.47,10.06,2.47L10.56,4.67L12.23,4.67L12.53,2.14C12.53,2.14,13.23,2.01,13.83,2.01C14.43,2.01,15.13,2.14,15.13,2.14L15.4,4.67L17.1,4.67L17.6,2.47C18.33,2.47,18.97,2.64,19.73,2.97L19.5,6.84C19.46,7.33,19.29,7.82,18.93,8.21C18.31,8.07,17.66,8,17,8C13.73,8,10.89,9.71,9.31,12.29L9.9,8.93C8.7,8.53,8.23,7.7,8.17,6.83Z" fill="currentColor"/><path d="M10.03,17C10.03,13.17,13.2,10.03,17,10.03C20.83,10.03,23.97,13.16,23.97,17C23.97,20.8,20.84,23.97,17,23.97C13.2,23.97,10.03,20.8,10.03,17Z" fill="currentColor"/><path d="M17,22.4C17,22.8,17.13,22.83,17.33,22.5L20.06,17.67C20.66,16.64,20.13,16,18.73,16L17,16L17,11.57C17,11.14,16.87,11.14,16.67,11.47L13.9,16.34C13.33,17.34,13.87,18.01,15.3,18.01L17,18.01Z" fill="currentColor"/></svg>