<svg xmlns="http://www.w3.org/2000/svg" viewBox="0 0 24 24" fill="currentColor"><path d="M9.68,16.9C9.68,16.17,10.33,15.72,11.35,15.7C10.88,14.97,10.47,14.2,10.47,13.13C10.47,11.2,12.07,9.7,12.07,9.7C11.97,9.23,11.97,9.15,11.97,9.02C11.97,8.4,12.45,7.9,13.02,7.9C13.6,7.9,14.07,8.4,14.07,9.02C14.07,9.2,14.05,9.55,13.79,9.87C13.02,10.75,12.44,11.97,12.37,13.45L13.37,13.45C13.42,12.23,13.82,11.22,14.47,10.43C14.92,10.75,15.57,11.9,15.57,13.13C15.57,14.25,15.22,15.02,14.72,15.7C15.75,15.72,16.37,16.2,16.37,16.9L16.37,17.5L9.68,17.5ZM21.35,10.82C22.02,10.82,22.17,11.13,21.7,11.63L19.75,13.71C19.28,14.21,19,14.1,19,13.41L19,8.85C19,7.48,18.53,7,17.15,7L8.87,7C7.5,7,7,7.47,7,8.85L7,9.33C7,9.78,6.75,10.02,6.3,10.02L6.2,10.02C5.75,10.02,5.51,9.78,5.51,9.33L5.51,9.23C5.51,6.48,6.48,5.5,9.23,5.5L16.79,5.5C19.54,5.5,20.51,6.48,20.51,9.23L20.51,10.83ZM4.65,15.17C3.98,15.17,3.83,14.88,4.3,14.37L6.25,12.29C6.72,11.79,7,11.9,7,12.59L7,17.12C7,18.49,7.5,18.99,8.88,18.99L17.15,18.99C18.52,18.99,19,18.49,19,17.12L19,16.67C19,16.22,19.25,15.97,19.7,15.97L19.79,15.97C20.25,15.97,20.49,16.22,20.49,16.67L20.49,16.76C20.49,19.52,19.52,20.49,16.77,20.49L9.21,20.49C6.46,20.49,5.48,19.52,5.48,16.76L5.48,15.17Z"/></svg>