<svg xmlns="http://www.w3.org/2000/svg" viewBox="0 0 24 24" fill="currentColor"><path d="M6.87,20.5L6.87,18.2C6.87,16.85,7.42,16.08,8.85,15.65C7.04,12.5,7.74,9.45,10.42,7.04C10.4,6.9,10.4,6.77,10.4,6.62C10.4,5.17,11.52,3.99,13,3.99C14.48,3.99,15.6,5.17,15.6,6.62C15.6,6.77,15.6,6.9,15.58,7.04C18.26,9.45,18.95,12.5,17.16,15.65C18.58,16.08,19.13,16.85,19.13,18.2L19.13,20.5ZM8.37,19L17.62,19L17.62,18.2C17.62,16.95,16.37,16.75,12.99,16.75C9.71,16.75,8.37,16.92,8.37,18.2ZM10.45,15.35C11.18,15.27,12.02,15.25,13,15.25C13.98,15.25,14.8,15.27,15.55,15.35C17.22,12.82,16.88,10.47,14.93,8.52C13.95,9.82,13.52,11.39,13.5,13L12,13C12.03,11.3,12.45,9.23,13.78,7.52C14.03,7.2,14.1,6.92,14.1,6.62C14.1,6,13.65,5.5,13,5.5C12.35,5.5,11.9,6,11.9,6.62C11.9,6.92,12,7.17,12.22,7.52C9.3,9.68,8.47,12.38,10.44,15.35Z"/></svg>