<svg xmlns="http://www.w3.org/2000/svg" viewBox="0 0 24 24" fill="currentColor"><path d="M15.35,13.98C15.74,13.52,16.5,12.99,16.82,12.4L19.32,9.9C19.6,10.42,19.75,11.03,19.75,11.7C19.75,13.11,18.87,14,17.95,15.28C17.46,15.95,16.87,16.62,16.59,17.53C18.11,17.68,19,18.41,19,19.5L19,20.5L8.73,20.5L15.25,13.98ZM11.63,11.52C11.63,11.52,10.78,10.92,10.13,10.92C9.45,10.92,9.02,11.3,9.02,11.87C9.02,12.68,10.15,13.4,10.65,13.97L10.95,13.97L11.63,13.3ZM21.55,5.52L18.3,8.77L16.13,10.95L14.37,12.7L7,20.07L5.58,21.5L5.55,21.52C5.23,21.84,4.88,21.84,4.56,21.52L4.48,21.45C4.16,21.12,4.16,20.77,4.48,20.45L8.72,16.21C8.49,15.89,8.25,15.58,8.03,15.27C7.11,14,6.25,13.1,6.25,11.7C6.25,9.62,7.6,8.27,9.42,8.27C10.57,8.27,11.35,8.62,11.77,8.89L12.27,6.99L10.5,6.99L10.5,5.49L12.24,5.49L12.24,3.99L13.74,3.99L13.74,5.49L15.49,5.49L15.49,6.99L13.77,6.99L14.19,8.89C14.62,8.61,15.39,8.27,16.54,8.27C16.57,8.27,16.61,8.27,16.64,8.27L20.46,4.44C20.78,4.12,21.14,4.12,21.46,4.44L21.53,4.52C21.85,4.83,21.86,5.18,21.56,5.49C21.55,5.5,21.54,5.51,21.53,5.52Z"/></svg>