<svg xmlns="http://www.w3.org/2000/svg" viewBox="0 0 24 24" fill="currentColor"><path d="M10.92,16.02C10.82,15.3,10.38,14.85,10.04,14.37C9.47,13.6,8.97,13.05,8.97,12.22C8.97,10.97,9.78,10.17,10.87,10.17C11.57,10.17,12.02,10.38,12.29,10.55L12.6,9.4L11.52,9.4L11.52,8.5L12.57,8.5L12.57,7.6L13.47,7.6L13.47,8.5L14.52,8.5L14.52,9.4L13.5,9.4L13.74,10.55C13.99,10.38,14.47,10.17,15.14,10.17C16.29,10.17,17.07,11.02,17.07,12.22C17.07,13.05,16.55,13.59,16,14.37C15.65,14.85,15.23,15.3,15.1,16.02ZM14.42,13.58C14.72,13.25,15.4,12.8,15.4,12.32C15.4,11.97,15.15,11.75,14.75,11.75C14.35,11.75,13.85,12.12,13.85,12.12L13.85,13.57ZM12.2,12.12C12.2,12.12,11.7,11.75,11.3,11.75C10.9,11.75,10.65,11.97,10.65,12.32C10.65,12.8,11.32,13.25,11.62,13.58L12.2,13.58ZM9.42,16.9C9.42,16.17,10.1,15.7,11.2,15.7L14.82,15.7C15.95,15.7,16.62,16.17,16.62,16.9L16.62,17.5L9.42,17.5ZM21.35,10.82C22.02,10.82,22.17,11.13,21.7,11.63L19.75,13.71C19.28,14.21,19,14.1,19,13.41L19,8.85C19,7.48,18.53,7,17.15,7L8.87,7C7.5,7,7,7.47,7,8.85L7,9.33C7,9.78,6.75,10.02,6.3,10.02L6.2,10.02C5.75,10.02,5.51,9.78,5.51,9.33L5.51,9.23C5.51,6.48,6.48,5.5,9.23,5.5L16.79,5.5C19.54,5.5,20.51,6.48,20.51,9.23L20.51,10.83ZM4.65,15.17C3.98,15.17,3.83,14.88,4.3,14.37L6.25,12.29C6.72,11.79,7,11.9,7,12.59L7,17.12C7,18.49,7.5,18.99,8.88,18.99L17.15,18.99C18.52,18.99,19,18.49,19,17.12L19,16.67C19,16.22,19.25,15.97,19.7,15.97L19.79,15.97C20.25,15.97,20.49,16.22,20.49,16.67L20.49,16.76C20.49,19.52,19.52,20.49,16.77,20.49L9.21,20.49C6.46,20.49,5.48,19.52,5.48,16.76L5.48,15.17Z"/></svg>