<svg xmlns="http://www.w3.org/2000/svg" viewBox="0 0 24 24"><path d="M1,22L1,20.67C1,19.24,2.17,18.27,4.1,18.04C3.6,16.84,2.77,15.94,2.1,15.04C0.8,13.34,0,12.14,0,10.27C0,7.5,1.87,5.7,4.4,5.7C4.88,5.7,5.29,5.74,5.63,5.81C4.62,6.95,4,8.49,4,10.26C4,12.73,5.17,14.49,6.5,16.23C6.7,16.51,6.91,16.77,7.11,17.02C5.74,17.94,5,19.33,5,20.66L5,21.99Z" fill="currentColor"/><path d="M5.67,2L8.04,2L8.04,0L10.01,0L10.01,2L10.01,3.71C9.3,3.75,8.62,3.9,8,4.15L8.05,3.99L5.68,3.99Z" fill="currentColor"/><path d="M16.83,13.3L18.13,13.3C18.8,12.53,20.3,11.57,20.3,10.5C20.3,9.73,19.73,9.23,18.83,9.23C17.96,9.23,16.83,10.03,16.83,10.03Z" fill="currentColor"/><path d="M13.17,13.3L13.17,10.03C13.17,10.03,12.04,9.23,11.17,9.23C10.27,9.23,9.7,9.73,9.7,10.5C9.7,11.57,11.2,12.53,11.87,13.3Z" fill="currentColor"/><path d="M7,22L7,20.67C7,19.24,8.17,18.27,10.1,18.04C9.6,16.84,8.77,15.94,8.1,15.04C6.8,13.34,6,12.14,6,10.27C6,7.5,7.87,5.7,10.4,5.7C12,5.7,12.7,6.17,13.3,6.53L14.03,4L11.66,4L11.66,2L14.03,2L14.03,0L16,0L16,2L18.33,2L18.33,4L16.03,4L16.66,6.53C17.26,6.16,17.96,5.7,19.56,5.7C22.19,5.7,23.99,7.63,23.99,10.27C23.99,12.14,23.16,13.34,21.86,15.04C21.19,15.94,20.36,16.84,19.86,18.04C21.83,18.27,22.99,19.24,22.99,20.67L22.99,22Z" fill="currentColor"/></svg>