<svg xmlns="http://www.w3.org/2000/svg" viewBox="0 0 24 24" fill="currentColor"><path d="M21.55,5.52L16.96,10.11L7,20.07L5.57,21.5L5.55,21.52C5.23,21.84,4.88,21.84,4.55,21.52L4.48,21.45C4.16,21.12,4.16,20.77,4.48,20.45L9.17,15.75L9.99,11.13C9.14,10.51,8.8,9.83,8.75,9.12L8.58,6.22C9.16,5.97,9.63,5.85,10.18,5.85L10.55,7.5L11.81,7.5L12.03,5.6C12.03,5.6,12.56,5.5,13.01,5.5C13.46,5.5,13.98,5.6,13.98,5.6L14.18,7.5L15.46,7.5L15.83,5.85C16.38,5.85,16.86,5.97,17.43,6.22L17.35,7.58L20.48,4.44C20.81,4.12,21.16,4.12,21.48,4.44L21.56,4.52C21.87,4.83,21.88,5.18,21.58,5.49C21.57,5.5,21.56,5.51,21.56,5.52ZM8.73,20.5L16.33,12.89L17.12,17.28C18.6,17.7,18.99,18.44,18.99,19.5L18.99,20.5Z"/></svg>