<svg xmlns="http://www.w3.org/2000/svg" viewBox="0 0 24 24"><path d="M11.7,0.5C11.9,-0.07,12.1,-0.07,12.3,0.5L13.05,2.64C12.71,2.57,12.36,2.53,12,2.53C11.64,2.53,11.29,2.57,10.95,2.64Z" fill="currentColor"/><path d="M4.5,7.7L6.93,6.85C6.89,7.11,6.87,7.39,6.87,7.66C6.87,8.18,6.95,8.71,7.11,9.2L4.51,8.29C3.94,8.09,3.94,7.89,4.51,7.69Z" fill="currentColor"/><path d="M6.93,2.5L9.01,3.49C8.42,3.91,7.92,4.46,7.55,5.09L6.49,2.93C6.22,2.4,6.39,2.23,6.92,2.5Z" fill="currentColor"/><path d="M19.5,7.7C20.07,7.9,20.07,8.1,19.5,8.3L16.91,9.2C17.05,8.73,17.13,8.21,17.13,7.67C17.13,7.39,17.11,7.12,17.07,6.86Z" fill="currentColor"/><path d="M17.07,2.5C17.6,2.23,17.77,2.4,17.5,2.93L16.44,5.09C16.07,4.46,15.57,3.91,14.98,3.49Z" fill="currentColor"/><path d="M18.5,22L5.53,22C5.53,17.47,10,18.2,10.36,13.73L10.39,12.96L8.59,12.96C8.36,12.53,8.29,12.03,8.29,11.56L10.39,10.36C9.32,9.66,8.86,8.66,8.86,7.66C8.86,5.89,10.29,4.53,11.99,4.53C13.69,4.53,15.12,5.9,15.12,7.66C15.12,8.73,14.75,9.56,13.59,10.33L15.69,11.56C15.69,12.03,15.62,12.53,15.39,12.96L13.59,12.96L13.62,13.73C13.99,18.2,18.49,17.46,18.49,22Z" fill="currentColor"/></svg>