<svg xmlns="http://www.w3.org/2000/svg" viewBox="0 0 24 24"><path d="M9.23,16.03C9.1,15.06,8.5,14.46,8.06,13.83C7.29,12.8,6.63,12.06,6.63,10.96C6.63,9.29,7.7,8.23,9.16,8.23C10.09,8.23,10.69,8.5,11.06,8.73L11.46,7.2L10.03,7.2L10.03,6L11.43,6L11.43,4.8L12.63,4.8L12.63,6L14.03,6L14.03,7.2L12.66,7.2L12.99,8.73C13.32,8.5,13.96,8.23,14.86,8.23C16.39,8.23,17.43,9.36,17.43,10.96C17.43,12.06,16.73,12.79,16,13.83C15.53,14.46,14.97,15.06,14.8,16.03Z" fill="currentColor"/><path d="M13.9,12.77C14.3,12.34,15.2,11.74,15.2,11.1C15.2,10.63,14.87,10.33,14.33,10.33C13.8,10.33,13.13,10.83,13.13,10.83L13.13,12.76Z" fill="currentColor"/><path d="M10.93,10.83C10.93,10.83,10.26,10.33,9.73,10.33C9.2,10.33,8.86,10.63,8.86,11.1C8.86,11.73,9.76,12.33,10.16,12.77L10.93,12.77Z" fill="currentColor"/><path d="M7.23,17.2C7.23,16.23,8.13,15.6,9.6,15.6L14.43,15.6C15.93,15.6,16.83,16.23,16.83,17.2L16.83,18L7.23,18Z" fill="currentColor"/><path d="M23.13,9.1C24.03,9.1,24.23,9.5,23.6,10.17L21,12.94C20.37,13.61,20,13.47,20,12.54L20,6.47C20,4.64,19.37,4,17.53,4L6.5,4C4.67,4,4,4.63,4,6.47L4,7.1C4,7.7,3.67,8.03,3.07,8.03L2.94,8.03C2.34,8.03,2.01,7.7,2.01,7.1L2.01,6.97C2.01,3.3,3.31,2,6.98,2L17.05,2C20.72,2,22.02,3.3,22.02,6.97L22.02,9.1Z" fill="currentColor"/><path d="M0.87,14.9C-0.03,14.9,-0.23,14.5,0.4,13.83L3,11.06C3.63,10.39,4,10.53,4,11.46L4,17.49C4,19.32,4.67,19.99,6.5,19.99L17.53,19.99C19.36,19.99,20,19.32,20,17.49L20,16.89C20,16.29,20.33,15.96,20.93,15.96L21.06,15.96C21.66,15.96,21.99,16.29,21.99,16.89L21.99,17.02C21.99,20.69,20.69,21.99,17.02,21.99L6.95,21.99C3.28,21.99,1.98,20.69,1.98,17.02L1.98,14.89Z" fill="currentColor"/></svg>