<svg xmlns="http://www.w3.org/2000/svg" viewBox="0 0 24 24"><path d="M19.67,11.4C19.67,11.4,19.67,11.4,19.67,11.4C19.67,11.4,19.67,11.4,19.67,11.4C19.67,11.4,19.67,11.4,19.67,11.4C19.67,11.4,19.67,11.4,19.67,11.4Z" fill="currentColor"/><path d="M41.67,1.4C41.67,1.4,41.67,1.4,41.67,1.4C41.67,1.4,41.67,1.4,41.67,1.4C41.67,1.4,41.67,1.4,41.67,1.4C41.67,1.4,41.67,1.4,41.67,1.4Z" fill="currentColor"/><path d="M64,12C64,12,64,12,64,12C64,12,64,12,64,12C64,12,64,12,64,12C64,12,64,12,64,12Z" fill="currentColor"/><path d="M140,32C140,32,140,32,140,32C140,32,140,32,140,32C140,32,140,32,140,32C140,32,140,32,140,32Z" fill="currentColor"/><path d="M6,18L6,17C6,15.83,6.8,15.13,8.37,15.03L5.64,6.73C4.97,6.63,4.51,6.1,4.51,5.43C4.51,4.76,5.08,4.16,5.78,4.16C6.41,4.16,6.98,4.73,6.98,5.46C6.98,5.76,6.91,6.03,6.71,6.23L8.98,9.2L9.28,4.63C8.65,4.33,8.38,3.93,8.38,3.33C8.38,2.6,8.95,2,9.68,2C10.45,2,10.98,2.6,10.98,3.33C10.98,3.8,10.85,4.16,10.48,4.43L12.01,9L13.51,4.43C13.18,4.16,12.98,3.8,12.98,3.33C12.98,2.63,13.58,2,14.31,2C15.08,2,15.64,2.6,15.64,3.33C15.64,3.93,15.37,4.33,14.74,4.63L15.04,9.2L17.27,6.23C17.07,6.03,16.97,5.76,16.97,5.46C16.97,4.79,17.57,4.16,18.24,4.16C19.01,4.16,19.51,4.86,19.51,5.43C19.51,6.03,19.04,6.63,18.38,6.73L15.68,15.03C17.21,15.16,18.01,15.83,18.01,17L18.01,18Z" fill="currentColor"/><path d="M1,21C1,19.9,1.9,19,3,19C4.1,19,5,19.9,5,21C5,22.1,4.1,23,3,23C1.9,23,1,22.1,1,21Z" fill="currentColor"/><path d="M2.97,22L2.97,20L20.97,20L20.97,22Z" fill="currentColor"/><path d="M19,20.97C19,19.9,19.9,19,20.97,19C22.1,19,23,19.9,23,20.97C23,22.1,22.1,23,20.97,23C19.9,23,19,22.1,19,20.97Z" fill="currentColor"/></svg>