<svg xmlns="http://www.w3.org/2000/svg" viewBox="0 0 24 24"><path d="M0,20.67C0,19.23,0.52,18.24,2.53,17.7L3.98,9.52C2.84,8.7,2.39,7.79,2.33,6.85L2.1,2.98C2.87,2.65,3.5,2.48,4.23,2.48L4.73,4.68L6.4,4.68L6.7,2.15C6.7,2.15,7.4,2.02,8,2.02C8.6,2.02,9.3,2.15,9.3,2.15L9.57,4.68L11.27,4.68L11.77,2.48C12.5,2.48,13.14,2.65,13.9,2.98L13.67,6.85C13.65,7.2,13.57,7.55,13.42,7.89C13.19,7.93,12.94,7.96,12.67,7.98C10.67,8.01,10,8.68,10,10.68L10,15.95C10,18.7,10.24,19.85,12.89,22.02L0,22.02Z" fill="currentColor"/><path d="M24,15.97L24,10C21.2,10,20.37,9.6,18,7.3C15.7,9.6,14.83,10,12,10L12,15.97C12,19.37,12.37,19.84,18,23.47C23.63,19.9,24,19.44,24,15.97Z" fill="currentColor"/></svg>