<svg xmlns="http://www.w3.org/2000/svg" viewBox="0 0 24 24"><path d="M6.87,20L8.5,20C8.6,20.29,8.72,20.58,8.85,20.85L8.23,23.1C8.06,23.67,7.86,23.67,7.73,23.1Z" fill="currentColor"/><path d="M5.27,23.1C5.14,23.67,4.97,23.67,4.84,23.1L4.13,20L6.13,20Z" fill="currentColor"/><path d="M1.67,18C1.67,13.6,6,14.27,6.4,9.93L6.43,9.16L4.7,9.16C4.47,8.76,4.33,8.26,4.33,7.83L6.43,6.63C5.36,6,4.96,5,4.96,4.03C4.96,2.33,6.33,1,7.99,1C9.62,1,10.99,2.33,10.99,4.03C10.99,5.1,10.66,5.93,9.52,6.6L11.62,7.83C11.62,8.26,11.49,8.76,11.25,9.16L9.52,9.16L9.55,9.93C9.6,10.51,9.73,11,9.9,11.42C8.7,12.95,7.98,14.88,7.98,17C7.98,17.34,8,17.67,8.03,18Z" fill="currentColor"/><path d="M10.03,17C10.03,13.17,13.2,10.03,17,10.03C20.83,10.03,23.97,13.16,23.97,17C23.97,20.8,20.84,23.97,17,23.97C13.2,23.97,10.03,20.8,10.03,17Z" fill="currentColor"/><path d="M15.97,21.03C15.97,21.66,16.3,22,16.9,22L17,22C17.63,22,17.97,21.67,17.97,21.07L17.97,18L21.07,18C21.67,18,22,17.67,22,17.03L22,16.93C22,16.33,21.67,16,21.03,16L17.96,16L17.96,12.97C17.96,12.34,17.63,12,17.03,12L16.93,12C16.3,12,15.96,12.33,15.96,12.93L15.96,16L12.93,16C12.33,16,12,16.33,12,16.97L12,17.07C12,17.67,12.33,18,12.97,18L15.97,18Z" fill="currentColor"/></svg>