<svg xmlns="http://www.w3.org/2000/svg" viewBox="0 0 24 24" fill="currentColor"><path d="M10.3,13.13C10.23,13.18,9.45,13,9.18,12.75C8.97,12.58,8.95,12.28,9.15,12.03L9.9,10.98C10.23,10.5,10.23,10.23,10.43,9.72C10.48,9.6,10.55,9.4,10.8,9.2C11.03,9,11.2,8.85,11.28,8.6L11.37,8.15C11.4,8.02,11.52,7.9,11.65,7.9L12.48,8.73C14.13,8.82,15.95,10.02,15.95,12.53C15.95,13.71,15.33,15.21,15.25,15.98L10.75,16.05C10.6,14.46,11.67,13.6,12.23,13.15C12.6,12.85,12.98,12.45,12.98,12.05C12.98,11.75,12.78,11.47,12.7,11.37L12.45,11.67C12.21,11.92,11.78,12.37,11.28,12.37C10.62,12.37,10.6,12.82,10.3,13.12ZM9.42,16.9C9.42,16.17,10.1,15.7,11.2,15.7L14.82,15.7C15.95,15.7,16.62,16.17,16.62,16.9L16.62,17.5L9.42,17.5ZM21.35,10.82C22.02,10.82,22.17,11.13,21.7,11.63L19.75,13.71C19.28,14.21,19,14.1,19,13.41L19,8.85C19,7.48,18.53,7,17.15,7L8.87,7C7.5,7,7,7.47,7,8.85L7,9.33C7,9.78,6.75,10.02,6.3,10.02L6.2,10.02C5.75,10.02,5.51,9.78,5.51,9.33L5.51,9.23C5.51,6.48,6.48,5.5,9.23,5.5L16.79,5.5C19.54,5.5,20.51,6.48,20.51,9.23L20.51,10.83ZM4.65,15.17C3.98,15.17,3.83,14.88,4.3,14.37L6.25,12.29C6.72,11.79,7,11.9,7,12.59L7,17.12C7,18.49,7.5,18.99,8.88,18.99L17.15,18.99C18.52,18.99,19,18.49,19,17.12L19,16.67C19,16.22,19.25,15.97,19.7,15.97L19.79,15.97C20.25,15.97,20.49,16.22,20.49,16.67L20.49,16.76C20.49,19.52,19.52,20.49,16.77,20.49L9.21,20.49C6.46,20.49,5.48,19.52,5.48,16.76L5.48,15.17Z"/></svg>