<svg xmlns="http://www.w3.org/2000/svg" viewBox="0 0 24 24" fill="currentColor"><path d="M8.57,17.25C8.48,16.86,8.1,16.45,7.62,15.9C6.85,15.08,5.88,14.03,5.88,12.28C5.88,8.75,9.15,7.65,11.18,8.51L10.86,9.84L9.36,8.84L9.36,7.94C9.36,6.29,9.98,5.49,11.88,5.59L10.96,6.49C10.91,4.92,11.36,4.02,13.01,4.02C14.66,4.02,15.13,4.74,15.06,6.49L14.13,5.59C16.03,5.49,16.66,6.29,16.66,7.94L16.66,8.84L15.14,9.84L14.86,8.51C16.83,7.68,20.13,8.76,20.13,12.31C20.13,14.06,19.11,15.16,18.31,16.01C17.86,16.51,17.48,16.91,17.41,17.23L15.99,16.76C16.14,16.14,16.71,15.54,17.21,14.98C17.91,14.25,18.63,13.4,18.63,12.3C18.63,9.8,16.01,9.02,13.83,10.38L13.59,8.22L15.11,8.22L15.11,7L13.63,7L13.63,5.55L12.38,5.55L12.38,7L10.9,7L10.9,8.22L12.45,8.22L12.15,10.38C9.96,9.02,7.38,9.8,7.38,12.27C7.38,13.4,8.05,14.2,8.78,14.95C9.28,15.5,9.81,16.02,10,16.75ZM7.3,20.5L7.3,18.87C7.3,16.52,8.5,15.92,13,15.92C17.5,15.92,18.7,16.52,18.7,18.87L18.7,20.5ZM8.85,18.87L8.85,18.95L17.16,18.95L17.16,18.87C17.16,17.6,16.46,17.47,13.01,17.47C9.56,17.47,8.86,17.6,8.86,18.87ZM10.85,14.2C10.32,13.65,9.7,13.05,9.7,12.57C9.7,11.6,10.83,11.2,11.97,12.22L11.97,14.19ZM15.15,14.2L14.03,14.2L14.03,12.23C15.21,11.1,16.33,11.53,16.33,12.51C16.33,13.03,15.68,13.65,15.15,14.21Z"/></svg>