<svg xmlns="http://www.w3.org/2000/svg" viewBox="0 0 24 24"><path d="M8.17,10.03C8.17,10.03,7.04,9.23,6.17,9.23C5.27,9.23,4.7,9.73,4.7,10.5C4.7,11.57,6.2,12.53,6.87,13.3L8.17,13.3Z" fill="currentColor"/><path d="M2,20.67C2,19.22,3.18,18.24,5.18,18.04C4.81,16.82,4.02,15.94,3.37,15.04C2.14,13.34,1,12.14,1,10.27C1,7.5,2.8,5.7,5.23,5.7C6.76,5.7,7.8,6.17,8.36,6.53L9.03,4L6.66,4L6.66,2L8.99,2L8.99,0L10.99,0L10.99,2L13.32,2L13.32,4L11.02,4L11.59,6.53C12.16,6.16,13.19,5.7,14.72,5.7C16.45,5.7,17.8,6.6,18.49,8L16.02,8C11.55,8,8.02,11.53,8.02,16C8.02,18.41,9.05,20.54,10.69,22L1.99,22Z" fill="currentColor"/><path d="M20.03,16.03C20.03,13.76,18.3,12.03,16.03,12.03C13.76,12.03,12.03,13.76,12.03,16.03C12.03,18.3,13.76,20.03,16.03,20.03C18.3,20.03,20.03,18.3,20.03,16.03Z" fill="currentColor"/><path d="M10.03,16.03C10.03,12.73,12.73,10.03,16.03,10.03C19.33,10.03,22.03,12.73,22.03,16.03C22.03,19.33,19.33,22.03,16.03,22.03C12.73,22.03,10.03,19.33,10.03,16.03Z" fill="currentColor"/><path d="M23.63,23.43L23.5,23.56C23.07,23.99,22.6,23.99,22.17,23.56L18.47,19.86L19.94,18.39L23.64,22.09C24.07,22.52,24.07,22.99,23.64,23.42Z" fill="currentColor"/></svg>