<svg xmlns="http://www.w3.org/2000/svg" viewBox="0 0 24 24"><path d="M2,20.67C2,19.1,3.07,18.2,5.13,18.04L1.5,7.01C0.63,6.88,0,6.14,0,5.28C0,4.38,0.73,3.58,1.67,3.58C2.54,3.58,3.3,4.35,3.3,5.31C3.3,5.71,3.2,6.04,2.93,6.34L5.96,10.27L6.33,4.17C5.5,3.8,5.13,3.27,5.13,2.47C5.13,1.47,5.9,0.67,6.9,0.67C7.9,0.67,8.63,1.47,8.63,2.47C8.63,3.07,8.43,3.57,7.96,3.94L9.84,9.55C8.48,11.3,7.99,13.11,7.99,15.01C7.99,17.85,9.28,20.36,11.31,22.01L1.99,22.01Z" fill="currentColor"/><path d="M11.3,2.47C11.3,1.54,12.07,0.67,13.07,0.67C14.07,0.67,14.84,1.47,14.84,2.47C14.84,3.27,14.47,3.8,13.64,4.17L13.73,5.49L10.74,8.54C10.61,8.68,10.48,8.81,10.36,8.95L12.01,3.94C11.54,3.57,11.31,3.07,11.31,2.47Z" fill="currentColor"/><path d="M22.9,18.73C22.53,19.23,22.07,19.26,21.63,18.9L21.53,18.8C21.1,18.43,21.03,17.93,21.36,17.43C21.76,16.7,21.99,15.86,21.99,15C21.99,12.23,19.72,10,16.96,10L16.96,8C20.79,8,23.99,11.17,23.99,15C23.99,16.37,23.59,17.67,22.89,18.73Z" fill="currentColor"/><path d="M17.03,20L17.03,22C13.2,22,10,18.83,10,15C10,13.63,10.4,12.33,11.1,11.27C11.47,10.77,11.93,10.74,12.37,11.1L12.47,11.2C12.9,11.57,12.97,12.07,12.64,12.57C12.24,13.3,12.01,14.14,12.01,15C12.01,17.77,14.28,20,17.04,20Z" fill="currentColor"/><path d="M18,23.66C17.37,24.23,17,24.06,17,23.23L17,18.76C17,17.93,17.37,17.76,18,18.33L20.53,20.56C20.86,20.86,20.86,21.13,20.53,21.43Z" fill="currentColor"/><path d="M17,11.24C17,12.07,16.63,12.24,16,11.67L13.47,9.44C13.14,9.14,13.14,8.87,13.47,8.57L16,6.34C16.63,5.77,17,5.94,17,6.77Z" fill="currentColor"/><path d="M17,11.24C17,12.07,16.63,12.24,16,11.67L13.47,9.44C13.14,9.14,13.14,8.87,13.47,8.57L16,6.34C16.63,5.77,17,5.94,17,6.77Z" fill="currentColor"/></svg>