<svg xmlns="http://www.w3.org/2000/svg" viewBox="0 0 24 24"><path d="M0.33,22C0.33,19.33,1.86,18.03,3.36,16.77C4.79,15.57,6.13,14.47,6.13,12.24L6.13,11.31L3.96,11.31C3.69,10.84,3.59,10.31,3.59,9.78L6.12,8.25C4.89,7.38,4.32,6.25,4.32,5.02C4.32,2.99,5.95,1.35,7.99,1.35C10.02,1.35,11.66,2.98,11.66,5.02C11.66,6.25,11.09,7.39,9.86,8.22L11.98,9.53C9.57,11.14,8,13.88,8,17.02C8,18.88,8.55,20.59,9.5,22.02Z" fill="currentColor"/><path d="M22,17C22,14.16,19.84,12,17,12C14.19,12,12,14.17,12,17C12,19.8,14.2,22,17,22C19.83,22,22,19.81,22,17Z" fill="currentColor"/><path d="M10,17C10,13.13,13.17,10,17,10C20.87,10,24,13.13,24,17C24,20.83,20.87,24,17,24C13.17,24,10,20.83,10,17Z" fill="currentColor"/><path d="M12.23,20.36L20.36,12.23L21.77,13.64L13.64,21.77Z" fill="currentColor"/></svg>