<svg xmlns="http://www.w3.org/2000/svg" viewBox="0 0 24 24"><path d="M2,22L2,20.67C2,19.1,3.07,18.2,5.13,18.04L1.5,7.01C0.63,6.88,0,6.14,0,5.28C0,4.38,0.73,3.58,1.67,3.58C2.54,3.58,3.3,4.35,3.3,5.31C3.3,5.71,3.2,6.04,2.93,6.34L5.96,10.27L6.33,4.17C5.5,3.8,5.13,3.27,5.13,2.47C5.13,1.47,5.9,0.67,6.9,0.67C7.9,0.67,8.63,1.47,8.63,2.47C8.63,3.07,8.43,3.57,7.96,3.94L9.99,10.01L11.99,3.94C11.52,3.57,11.29,3.07,11.29,2.47C11.29,1.54,12.06,0.67,13.06,0.67C14.06,0.67,14.83,1.47,14.83,2.47C14.83,3.27,14.46,3.8,13.63,4.17L13.69,5.06C13.17,5.85,12.86,6.78,12.86,7.74C12.86,8.32,13.02,9.01,13.33,9.7C11.72,11.22,11.91,13.65,13.93,14.99C13.68,15.28,13.29,15.59,12.74,16.03C11.48,17.12,9.49,18.85,9.49,22Z" fill="currentColor"/><path d="M24,22L11.5,22C11.5,19.77,12.8,18.63,14.03,17.57C15.23,16.6,16.36,15.67,16.36,13.84L16.36,13.11L14.56,13.11C14.36,12.71,14.23,12.21,14.23,11.71L16.36,10.44C15.36,9.71,14.86,8.84,14.86,7.74C14.86,6.07,16.23,4.67,17.93,4.67C19.63,4.67,21,6.07,21,7.74C21,8.84,20.5,9.71,19.5,10.37L21.67,11.7C21.67,12.2,21.57,12.7,21.3,13.1L19.5,13.1L19.5,13.83C19.5,15.66,20.63,16.6,21.83,17.56C23.06,18.63,24,19.76,24,21.99Z" fill="currentColor"/></svg>