<svg xmlns="http://www.w3.org/2000/svg" viewBox="0 0 24 24"><path d="M21.87,10.37C24.34,10.54,24.34,10.8,21.87,11L19.22,11.21L19.56,10.19Z" fill="currentColor"/><path d="M21.9,6.2L21.85,6.21C21.93,5.97,21.98,5.72,21.99,5.48C24.33,5.71,24.3,5.97,21.9,6.2Z" fill="currentColor"/><path d="M20.37,15.07C22.8,15.34,22.8,15.67,20.37,15.94L17.55,16.25L18.02,14.82Z" fill="currentColor"/><path d="M18,22L2,22L2,20.67C2,18.9,3.37,18,6,18L14.03,18C16.66,18,18,18.9,18,20.67Z" fill="currentColor"/><path d="M3.37,5.3C3.37,5.7,3.24,6.03,2.97,6.33L5.97,10.26L6.37,4.13C5.54,3.86,5.17,3.33,5.17,2.46C5.17,1.46,5.94,0.66,6.94,0.66C7.94,0.66,8.71,1.53,8.71,2.46C8.71,3.06,8.48,3.56,8.01,3.93L10.01,10L12.04,3.93C11.57,3.56,11.37,3.06,11.37,2.46C11.37,1.46,12.1,0.66,13.1,0.66C14.1,0.66,14.87,1.46,14.87,2.46C14.87,3.33,14.5,3.86,13.67,4.13L14.04,10.26L17.07,6.33C16.8,6.03,16.7,5.7,16.7,5.3C16.7,4.33,17.47,3.57,18.33,3.57C19.26,3.57,20,4.37,20,5.27C20,6.14,19.37,6.87,18.5,7L15.3,16.67L4.7,16.67L1.53,7C0.63,6.87,0,6.03,0,5.27C0,4.5,0.67,3.57,1.7,3.57C2.6,3.57,3.37,4.4,3.37,5.3Z" fill="currentColor"/></svg>