<svg xmlns="http://www.w3.org/2000/svg" viewBox="0 0 24 24"><path d="M0.77,11.47C0.34,11.07,0.3,10.4,0.7,9.84L2.37,7.51C3.14,6.44,3.14,5.84,3.57,4.74C3.67,4.44,3.84,4.01,4.37,3.57C4.9,3.1,5.27,2.77,5.47,2.24L5.67,1.24C5.74,0.94,6,0.67,6.27,0.67L8.1,2.5C8.4,2.52,8.7,2.55,9,2.6L9,8.56C9,8.76,9.01,8.95,9.04,9.14C8.9,8.8,8.7,8.54,8.6,8.4L8.03,9.03C7.5,9.6,6.53,10.6,5.43,10.6C4,10.63,3.96,11.63,3.3,12.27C3.13,12.4,1.4,12,0.77,11.47Z" fill="currentColor"/><path d="M1.33,20.67C1.33,19.28,2.42,18.32,4.26,18.07C4.29,14.97,6.41,13.27,7.56,12.34C8.36,11.67,9.19,10.81,9.19,9.91C9.19,9.88,9.19,9.85,9.19,9.83C9.64,11.17,10.84,12.01,12.43,12.01L15.77,12.01C15.52,14.12,14.64,16.53,14.35,18.07C16.24,18.32,17.34,19.28,17.34,20.67L17.34,22L1.34,22Z" fill="currentColor"/><path d="M23.07,8L18.94,8C18.34,8,18.01,7.67,18.01,7.07L18.01,6.8C18.01,6.2,18.24,5.63,18.64,5.17L21.44,2L18.94,2C18.34,2,18.01,1.67,18.01,1.07L18.01,0.94C18.01,0.34,18.34,0.01,18.94,0.01L23.07,0.01C23.67,0.01,24,0.34,24,0.94L24,1.27C24,1.87,23.77,2.44,23.37,2.9L20.6,6L23.07,6C23.67,6,24,6.33,24,6.93L24,7.06C24,7.66,23.67,7.99,23.07,7.99Z" fill="currentColor"/><path d="M11.93,2L16.06,2C16.66,2,16.99,2.33,16.99,2.93L16.99,3.2C16.99,3.8,16.76,4.37,16.36,4.83L13.56,8L16.06,8C16.66,8,16.99,8.33,16.99,8.93L16.99,9.06C16.99,9.66,16.66,9.99,16.06,9.99L11.93,9.99C11.33,9.99,11,9.66,11,9.06L11,8.73C11,8.13,11.23,7.56,11.63,7.1L14.4,4L11.93,4C11.33,4,11,3.67,11,3.07L11,2.94C11,2.34,11.33,2.01,11.93,2.01Z" fill="currentColor"/></svg>