<svg xmlns="http://www.w3.org/2000/svg" viewBox="0 0 24 24" fill="currentColor"><path d="M4,19.5C4,18.42,4.39,17.68,5.9,17.28L6.98,11.14C6.13,10.53,5.79,9.84,5.75,9.14L5.57,6.24C6.15,5.99,6.63,5.86,7.17,5.86L7.55,7.51L8.8,7.51L9.03,5.61C9.03,5.61,9.55,5.52,10,5.52C10.45,5.52,10.98,5.61,10.98,5.61L11.18,7.51L12.45,7.51L12.83,5.86C13.38,5.86,13.86,5.99,14.43,6.24L14.25,9.14C14.21,9.81,13.91,10.46,13.15,11.04C11.25,12.24,10,14.34,10,16.77C10,18.16,10.41,19.44,11.13,20.52L4,20.52ZM11.52,16.75C11.52,13.88,13.9,11.52,16.75,11.52C19.62,11.52,21.98,13.87,21.98,16.75C21.98,19.6,19.63,21.98,16.75,21.98C13.9,21.98,11.52,19.6,11.52,16.75ZM20.58,17.2C20.93,16.9,20.93,16.6,20.58,16.3L18.27,14.4C17.8,14,17.5,14.13,17.5,14.75L17.5,18.75C17.5,19.38,17.8,19.5,18.27,19.11ZM16,14.75C16,14.13,15.7,14,15.23,14.39L12.92,16.29C12.57,16.59,12.57,16.89,12.92,17.19L15.23,19.09C15.7,19.49,16,19.37,16,18.74Z"/></svg>