<svg xmlns="http://www.w3.org/2000/svg" viewBox="0 0 24 24" fill="currentColor"><path d="M7.45,19.5C7.45,18.3,8.52,17.53,10.25,17.5C9.42,16.3,8.77,15,8.77,13.23C8.77,10,11.45,7.5,11.45,7.5C11.27,6.73,11.27,6.58,11.27,6.38C11.27,5.33,12.05,4.5,13.02,4.5C14,4.5,14.77,5.33,14.77,6.38C14.77,6.68,14.75,7.26,14.3,7.78C13.02,9.26,12.07,11.31,11.92,13.76L13.59,13.76C13.69,11.73,14.34,10.03,15.41,8.71C16.19,9.26,17.27,11.19,17.27,13.23C17.27,15.09,16.67,16.38,15.84,17.51C17.54,17.56,18.59,18.33,18.59,19.51L18.59,20.51L7.44,20.51ZM22,9.5L22,15C22,15.62,21.72,15.75,21.25,15.32L18.53,12.92C18.05,12.49,18.05,12,18.53,11.57L21.25,9.17C21.72,8.74,22,8.87,22,9.49ZM7.47,12.93L4.75,15.33C4.28,15.75,4,15.63,4,15L4,9.51C4,8.88,4.28,8.76,4.75,9.18L7.47,11.58C7.95,12.01,7.95,12.51,7.47,12.93Z"/></svg>