<svg xmlns="http://www.w3.org/2000/svg" viewBox="0 0 24 24"><path d="M18.43,4.77L13.96,7.5C13.39,7.87,12.83,8,12.33,8C11.23,8,10.4,7.33,10.4,6.13L10.4,4L5.77,4C4.74,4,4.67,3.8,5.57,3.23L10.04,0.5C10.61,0.17,11.14,0,11.64,0C12.74,0,13.61,0.73,13.61,1.93L13.61,4L18.24,4C19.27,4,19.34,4.2,18.44,4.77Z" fill="currentColor"/><path d="M0.9,22C0.9,18.63,3.93,19.87,4.23,15.77L3,15.77C2.83,15.5,2.77,15.2,2.77,14.9L4.24,14C3.51,13.5,3.21,12.83,3.21,12.13C3.21,10.96,4.18,10,5.34,10C6.51,10,7.47,10.97,7.47,12.13C7.47,12.9,7.24,13.43,6.44,13.96L7.91,14.89C7.91,15.19,7.84,15.49,7.68,15.76L6.45,15.76C6.52,16.76,6.75,17.45,7.06,17.96C6.28,18.88,5.58,19.94,5.58,22Z" fill="currentColor"/><path d="M7.57,22C7.57,18.63,10.6,19.87,10.9,15.77L9.67,15.77C9.5,15.5,9.44,15.2,9.44,14.9L10.91,14C10.18,13.5,9.88,12.83,9.88,12.13C9.88,10.96,10.85,10,12.01,10C13.18,10,14.14,10.97,14.14,12.13C14.14,12.9,13.91,13.43,13.11,13.96L14.58,14.89C14.58,15.19,14.51,15.49,14.35,15.76L13.12,15.76C13.19,16.76,13.42,17.45,13.73,17.96C12.96,18.88,12.25,19.94,12.25,22Z" fill="currentColor"/><path d="M23.1,22L14.23,22C14.23,18.63,17.26,19.87,17.56,15.77L16.33,15.77C16.16,15.5,16.1,15.2,16.1,14.9L17.57,14C16.84,13.5,16.54,12.83,16.54,12.13C16.54,10.96,17.51,10,18.67,10C19.84,10,20.8,10.97,20.8,12.13C20.8,12.9,20.57,13.43,19.77,13.96L21.24,14.89C21.24,15.19,21.17,15.49,21.01,15.76L19.78,15.76C20.08,19.93,23.11,18.63,23.11,21.99Z" fill="currentColor"/></svg>