<svg xmlns="http://www.w3.org/2000/svg" viewBox="0 0 24 24" fill="currentColor"><path d="M5.03,11.38L6.28,9.63C6.86,8.83,6.86,8.38,7.18,7.55C7.25,7.33,7.38,7.01,7.78,6.68C8.18,6.33,8.46,6.08,8.6,5.68L8.75,4.93C8.81,4.71,9,4.5,9.2,4.5L10.58,5.88C11.95,5.96,13.38,6.49,14.48,7.5C13.96,8.15,13.65,8.96,13.65,9.8C13.65,10.23,13.77,10.75,14,11.27C12.8,12.41,12.94,14.23,14.45,15.23C14.27,15.45,13.97,15.69,13.56,16.02C12.62,16.83,11.12,18.13,11.12,20.49L5.5,20.49L5.5,19.49C5.5,18.45,6.32,17.73,7.7,17.54C7.73,15.22,9.32,13.94,10.18,13.25C10.78,12.74,11.4,12.1,11.4,11.42C11.4,10.9,11.08,10.47,10.95,10.3L10.52,10.77C10.13,11.2,9.4,11.95,8.57,11.95C7.5,11.97,7.47,12.72,6.98,13.2C6.85,13.3,5.55,13,5.08,12.6C4.76,12.3,4.73,11.8,5.03,11.38ZM22,20.5L12.63,20.5C12.63,18.83,13.6,17.97,14.52,17.18C15.42,16.45,16.27,15.75,16.27,14.38L16.27,13.83L14.92,13.83C14.77,13.53,14.67,13.16,14.67,12.78L16.27,11.83C15.52,11.28,15.14,10.63,15.14,9.8C15.14,8.55,16.17,7.5,17.45,7.5C18.72,7.5,19.75,8.55,19.75,9.8C19.75,10.63,19.38,11.28,18.63,11.78L20.25,12.77C20.25,13.15,20.18,13.52,19.98,13.82L18.63,13.82L18.63,14.37C18.63,15.74,19.47,16.45,20.37,17.17C21.29,17.97,22,18.82,22,20.49Z"/></svg>