<svg xmlns="http://www.w3.org/2000/svg" viewBox="0 0 24 24" fill="currentColor"><path d="M13.47,6.53C13.47,6.83,13.27,7.07,13,7.07C12.72,7.07,12.53,6.83,12.53,6.53C12.53,6.08,12.85,5.46,13,4.58C13.17,5.46,13.47,6.08,13.47,6.53ZM9.07,7.75C9.27,7.98,9.27,8.3,9.05,8.48C8.85,8.65,8.52,8.58,8.32,8.35C8.04,8,7.92,7.3,7.47,6.55C8.17,7.1,8.8,7.4,9.07,7.75ZM6.43,11.47C6.73,11.52,6.93,11.77,6.88,12.05C6.8,12.32,6.53,12.44,6.23,12.4C5.8,12.3,5.25,11.85,4.43,11.52C5.33,11.54,5.98,11.37,6.43,11.47ZM5.2,17.35C5.9,16.8,6.32,16.25,6.72,16.02C6.97,15.89,7.3,15.97,7.42,16.2C7.55,16.44,7.42,16.74,7.14,16.87C6.74,17.07,6.04,17.07,5.19,17.34ZM17.63,8.32C17.43,8.54,17.13,8.62,16.9,8.45C16.7,8.27,16.7,7.95,16.88,7.72C17.18,7.37,17.8,7.1,18.48,6.5C18.08,7.3,17.9,7.98,17.63,8.32ZM19.77,12.36C19.47,12.41,19.17,12.28,19.12,12C19.07,11.73,19.27,11.48,19.57,11.43C20,11.33,20.67,11.5,21.57,11.48C20.75,11.83,20.2,12.25,19.77,12.36ZM20.85,17.27C19.97,17.05,19.3,17.03,18.9,16.82C18.62,16.67,18.5,16.4,18.62,16.15C18.75,15.9,19.05,15.85,19.32,15.98C19.72,16.18,20.12,16.75,20.84,17.27ZM8.5,20.5L8.5,19.75C8.5,18.87,9.1,18.35,10.28,18.27L8.23,12.05C7.73,11.97,7.38,11.57,7.38,11.07C7.38,10.57,7.81,10.12,8.34,10.12C8.81,10.12,9.23,10.55,9.23,11.1C9.23,11.32,9.18,11.52,9.03,11.67L10.73,13.9L10.96,10.47C10.49,10.25,10.29,9.95,10.29,9.5C10.29,8.95,10.71,8.5,11.26,8.5C11.84,8.5,12.24,8.95,12.24,9.5C12.24,9.85,12.14,10.12,11.86,10.32L13.01,13.75L14.13,10.32C13.89,10.12,13.73,9.85,13.73,9.5C13.73,8.97,14.19,8.5,14.73,8.5C15.31,8.5,15.73,8.95,15.73,9.5C15.73,9.95,15.53,10.25,15.06,10.47L15.28,13.9L16.95,11.67C16.8,11.52,16.73,11.32,16.73,11.1C16.73,10.59,17.18,10.12,17.68,10.12C18.26,10.12,18.63,10.65,18.63,11.07C18.63,11.52,18.28,11.97,17.79,12.05L15.76,18.27C16.91,18.37,17.51,18.87,17.51,19.75L17.51,20.5Z"/></svg>