<svg xmlns="http://www.w3.org/2000/svg" viewBox="0 0 24 24" fill="currentColor"><path d="M8.73,18.4L10.28,9.65L15.78,9.65L17.35,18.4ZM7.02,19.5C7.02,17.78,8.02,16.9,13.02,16.9C18,16.9,19.02,17.78,19.02,19.5L19.02,20.5L7.02,20.5ZM10.07,11.18C9.17,10.55,8.82,9.85,8.78,9.13L8.6,6.23C9.18,5.98,9.65,5.85,10.2,5.85L10.58,7.5L11.83,7.5L12.05,5.61C12.05,5.61,12.58,5.51,13.03,5.51C13.48,5.51,14,5.61,14,5.61L14.21,7.5L15.48,7.5L15.86,5.85C16.4,5.85,16.88,5.98,17.45,6.23L17.28,9.13C17.23,9.86,16.88,10.55,15.98,11.18ZM22,9.5L22,15C22,15.62,21.72,15.75,21.25,15.32L18.53,12.92C18.05,12.49,18.05,12,18.53,11.57L21.25,9.17C21.72,8.74,22,8.87,22,9.49ZM4.75,15.33C4.28,15.75,4,15.63,4,15L4,9.51C4,8.88,4.28,8.76,4.75,9.18L7.47,11.58C7.95,12.01,7.95,12.51,7.47,12.93Z"/></svg>