<svg xmlns="http://www.w3.org/2000/svg" viewBox="0 0 24 24"><path d="M0,22L0,20.67C0,19.07,1.43,18.04,3.8,18C2.7,16.07,1.83,14.33,1.83,11.97C1.83,7.67,5.73,4.67,5.73,4.67C5.36,4.04,5.33,3.27,5.33,2.97C5.33,1.67,6.3,0.67,7.5,0.67C8.5,0.67,9.33,1.36,9.59,2.33C9.11,2.88,8.55,3.85,8.47,4.05C7.9,5.49,7.9,5.82,7.51,6.37L5.82,8.74C4.99,10.02,5.16,12.02,6.22,13C7.26,13.88,8.99,14.34,10.24,14.21C9.76,14.86,9.39,15.61,9.18,16.47C7.13,17.3,6.05,19,6.05,20.67L6.05,22Z" fill="currentColor"/><path d="M10.07,12.3C9.9,12.43,8.17,12.03,7.54,11.5C7.11,11.1,7.11,10.43,7.47,9.87L9.14,7.54C9.91,6.47,9.91,5.87,10.34,4.77C10.44,4.5,10.61,4.04,11.14,3.6C11.67,3.13,12.04,2.8,12.27,2.23L12.44,1.3C12.51,0.97,12.77,0.7,13.07,0.7L14.84,2.53C18.47,2.76,22.47,5.4,22.47,11.3C22.47,13.07,21.34,16.2,20.97,18.03C22.9,18.33,24,19.23,24,20.66L24,21.99L8.03,21.99L8.03,20.66C8.03,19.23,9.1,18.33,10.96,18.03C10.99,13.23,15.96,12.3,15.96,9.96C15.96,9.23,15.53,8.63,15.36,8.43L14.79,9.06C14.29,9.59,13.29,10.59,12.19,10.59C10.76,10.62,10.72,11.66,10.06,12.29Z" fill="currentColor"/></svg>