<svg xmlns="http://www.w3.org/2000/svg" viewBox="0 0 24 24"><path d="M11.83,10.03L11.83,13.3L12.8,13.3C12.75,14.29,13.22,15.3,14.2,16.02C14.03,16.18,13.81,16.36,13.51,16.6C12.1,17.84,10.57,19.66,10.56,22L1.99,22L1.99,20.67C1.99,19.22,3.17,18.24,5.17,18.04C4.8,16.82,4.01,15.94,3.36,15.04C2.13,13.34,0.99,12.14,0.99,10.27C0.99,7.5,2.79,5.7,5.22,5.7C6.75,5.7,7.79,6.17,8.35,6.53L9.02,4L6.65,4L6.65,2L8.98,2L8.98,0L10.98,0L10.98,2L13.31,2L13.31,4L11.01,4L11.58,6.53C12.15,6.16,13.18,5.7,14.71,5.7C14.99,5.7,15.26,5.72,15.51,5.77C14.31,6.56,13.45,7.88,13.32,9.3C12.57,9.49,11.8,10.03,11.8,10.03Z" fill="currentColor"/><path d="M8.17,13.3L8.17,10.03C8.17,10.03,7.04,9.23,6.17,9.23C5.27,9.23,4.7,9.73,4.7,10.5C4.7,11.57,6.2,12.53,6.87,13.3Z" fill="currentColor"/><path d="M12.44,22C12.44,18.13,16.27,18.73,16.61,14.87L16.64,14.24L15.11,14.24C14.91,13.91,14.81,13.51,14.81,13.11L16.64,12.01C15.74,11.41,15.34,10.58,15.34,9.68C15.34,8.21,16.54,7.01,18.01,7.01C19.48,7.01,20.68,8.21,20.68,9.68C20.68,10.61,20.38,11.31,19.38,11.98L21.21,13.11C21.21,13.51,21.11,13.91,20.94,14.24L19.37,14.24L19.44,14.87C19.74,18.74,23.57,18.14,23.57,22Z" fill="currentColor"/></svg>