<svg xmlns="http://www.w3.org/2000/svg" viewBox="0 0 24 24"><path d="M0,20.67C0,19.23,0.52,18.24,2.53,17.7L3.98,9.52C2.84,8.7,2.39,7.79,2.33,6.85L2.1,2.98C2.87,2.65,3.5,2.48,4.23,2.48L4.73,4.68L6.4,4.68L6.7,2.15C6.7,2.15,7.4,2.02,8,2.02C8.6,2.02,9.3,2.15,9.3,2.15L9.57,4.68L11.27,4.68L11.77,2.48C12.5,2.48,13.14,2.65,13.9,2.98L13.84,4.05C12.12,4.29,10.97,5.61,10.97,7.45C11,10.81,11.53,12.25,12.75,13.53L12.91,14.4C11.26,16.13,10.99,17.75,10.98,22L0.01,22Z" fill="currentColor"/><path d="M14.44,22C13.41,22,13.01,21.6,13.01,20.57C13.04,16.67,13.38,16.44,16.44,14C13.37,11.57,13.04,11.37,13.01,7.47C13.01,6.44,13.41,6.04,14.44,6.04L22.57,6.04C23.6,6.04,24,6.44,24,7.47C23.97,11.37,23.63,11.57,20.57,14C23.64,16.43,23.97,16.67,24,20.57C24,21.6,23.6,22,22.57,22Z" fill="currentColor"/><path d="M14.97,20L22.04,20C22.04,16.6,18.84,17.93,18.84,15.67L18.84,14.04C18.84,13.44,19.07,12.84,19.44,12.41L21.87,9.64C22.4,9.01,21.9,8.91,18.4,8.91C15.1,8.91,14.63,9.01,15.13,9.61L17.56,12.41C17.93,12.84,18.16,13.44,18.16,14.04L18.16,15.67C18.16,17.94,14.96,16.7,14.96,20Z" fill="currentColor"/></svg>