<svg xmlns="http://www.w3.org/2000/svg" viewBox="0 0 24 24" fill="currentColor"><path d="M4.05,19L4.05,18.17C4.05,17.28,4.38,16.67,5.62,16.34L6.51,11.32C5.81,10.8,5.53,10.24,5.51,9.65L5.36,7.27C5.83,7.07,6.23,6.97,6.69,6.97L6.99,8.32L8.01,8.32L8.19,6.77C8.19,6.77,8.64,6.67,8.99,6.67C9.36,6.67,9.79,6.77,9.79,6.77L9.96,8.32L11.01,8.32L11.31,6.97C11.76,6.97,12.16,7.07,12.64,7.27L12.59,8.12C12.51,8.24,12.47,8.33,12.45,8.36C12.12,9.24,12.12,9.38,11.94,9.62L10.96,11.01C10.39,11.84,10.52,13.31,11.22,13.94C11.46,14.15,11.73,14.31,12.04,14.45L12.3,15.88C11.46,16.49,11.02,17.38,11.02,18.23L11.02,19ZM12.2,12.83C11.95,12.6,11.95,12.2,12.18,11.87L13.15,10.5C13.6,9.88,13.6,9.53,13.85,8.87C13.9,8.72,14,8.45,14.32,8.2C14.62,7.92,14.84,7.73,14.97,7.4L15.07,6.85C15.12,6.65,15.27,6.5,15.44,6.5L16.49,7.57C18.62,7.7,20.97,9.24,20.97,12.72C20.97,13.75,20.3,15.6,20.09,16.67C21.22,16.85,21.87,17.37,21.87,18.23L21.87,19L12.5,19L12.5,18.23C12.5,17.38,13.12,16.86,14.22,16.67C14.24,13.85,17.15,13.3,17.15,11.93C17.15,11.5,16.9,11.15,16.79,11.03L16.47,11.4C16.17,11.72,15.59,12.3,14.95,12.3C14.1,12.32,14.07,12.92,13.7,13.3C13.6,13.38,12.57,13.15,12.2,12.83Z"/></svg>