<svg xmlns="http://www.w3.org/2000/svg" viewBox="0 0 24 24" fill="currentColor"><path d="M17.82,7.58L14.47,9.63C14.04,9.9,13.62,10,13.25,10C12.42,10,11.8,9.5,11.8,8.6L11.8,7L8.33,7C7.56,7,7.5,6.85,8.18,6.42L11.53,4.37C11.96,4.13,12.36,4,12.73,4C13.56,4,14.21,4.55,14.21,5.45L14.21,7L17.68,7C18.45,7,18.51,7.15,17.83,7.58ZM4.68,20.5C4.68,17.97,6.95,18.9,7.17,15.83L6.25,15.83C6.12,15.63,6.08,15.4,6.08,15.17L7.18,14.5C6.63,14.13,6.41,13.62,6.41,13.1C6.41,12.22,7.13,11.5,8,11.5C8.88,11.5,9.6,12.23,9.6,13.1C9.6,13.67,9.43,14.07,8.83,14.47L9.93,15.17C9.93,15.39,9.88,15.62,9.76,15.82L8.84,15.82C8.89,16.57,9.06,17.09,9.29,17.47C8.71,18.16,8.18,18.96,8.18,20.5ZM9.68,20.5C9.68,17.97,11.95,18.9,12.18,15.83L11.25,15.83C11.13,15.63,11.08,15.4,11.08,15.17L12.18,14.5C11.63,14.13,11.41,13.62,11.41,13.1C11.41,12.22,12.14,11.5,13.01,11.5C13.88,11.5,14.61,12.23,14.61,13.1C14.61,13.67,14.43,14.07,13.83,14.47L14.93,15.17C14.93,15.39,14.88,15.62,14.76,15.82L13.84,15.82C13.89,16.57,14.06,17.09,14.3,17.47C13.72,18.16,13.19,18.96,13.19,20.5ZM21.33,20.5L14.67,20.5C14.67,17.97,16.95,18.9,17.17,15.83L16.25,15.83C16.12,15.63,16.08,15.4,16.08,15.17L17.18,14.5C16.63,14.13,16.41,13.62,16.41,13.1C16.41,12.22,17.13,11.5,18,11.5C18.88,11.5,19.6,12.23,19.6,13.1C19.6,13.67,19.43,14.07,18.83,14.47L19.93,15.17C19.93,15.39,19.88,15.62,19.76,15.82L18.83,15.82C19.06,18.95,21.33,17.97,21.33,20.49Z"/></svg>