<svg xmlns="http://www.w3.org/2000/svg" viewBox="0 0 24 24" fill="currentColor"><path d="M10.45,16.25L11.37,11L14.67,11L15.63,16.25ZM9.42,16.9C9.42,15.87,10.02,15.35,13.02,15.35C16,15.35,16.62,15.87,16.62,16.9L16.62,17.5L9.42,17.5ZM14.8,11.9L11.25,11.9C10.73,11.52,10.5,11.09,10.48,10.67L10.38,8.93C10.73,8.78,11,8.7,11.33,8.7L11.56,9.7L12.31,9.7L12.46,8.55C12.46,8.55,12.76,8.5,13.04,8.5C13.31,8.5,13.61,8.55,13.61,8.55L13.74,9.7L14.52,9.7L14.74,8.7C15.06,8.7,15.34,8.78,15.69,8.93L15.6,10.67C15.57,11.1,15.35,11.52,14.82,11.9ZM21.35,10.82C22.02,10.82,22.17,11.13,21.7,11.63L19.75,13.71C19.28,14.21,19,14.1,19,13.41L19,8.85C19,7.48,18.53,7,17.15,7L8.87,7C7.5,7,7,7.47,7,8.85L7,9.33C7,9.78,6.75,10.02,6.3,10.02L6.2,10.02C5.75,10.02,5.51,9.78,5.51,9.33L5.51,9.23C5.51,6.48,6.48,5.5,9.23,5.5L16.79,5.5C19.54,5.5,20.51,6.48,20.51,9.23L20.51,10.83ZM4.65,15.17C3.98,15.17,3.83,14.88,4.3,14.37L6.25,12.29C6.72,11.79,7,11.9,7,12.59L7,17.12C7,18.49,7.5,18.99,8.88,18.99L17.15,18.99C18.52,18.99,19,18.49,19,17.12L19,16.67C19,16.22,19.25,15.97,19.7,15.97L19.79,15.97C20.25,15.97,20.49,16.22,20.49,16.67L20.49,16.76C20.49,19.52,19.52,20.49,16.77,20.49L9.21,20.49C6.46,20.49,5.48,19.52,5.48,16.76L5.48,15.17Z"/></svg>