<svg xmlns="http://www.w3.org/2000/svg" viewBox="0 0 24 24" fill="currentColor"><path d="M6.23,13.2C6.1,13.3,4.8,13,4.33,12.6C4.01,12.3,3.98,11.8,4.28,11.38L5.53,9.63C6.11,8.83,6.11,8.38,6.43,7.55C6.5,7.33,6.63,7.01,7.03,6.68C7.43,6.33,7.71,6.08,7.85,5.68L8,4.93C8.06,4.71,8.25,4.5,8.45,4.5L9.83,5.88C12.07,6.02,14.47,7.33,15.31,10.04C12.3,10.38,10.02,12.89,10.02,16C10.02,17.81,10.79,19.41,12.02,20.5L4.75,20.5L4.75,19.5C4.75,18.46,5.57,17.74,6.95,17.55C6.98,15.23,8.57,13.95,9.43,13.25C10.03,12.75,10.65,12.11,10.65,11.43C10.65,10.91,10.33,10.48,10.2,10.31L9.77,10.78C9.38,11.21,8.65,11.96,7.82,11.96C6.75,11.98,6.72,12.73,6.23,13.21ZM19.02,16.02C19.02,14.32,17.73,13.02,16.02,13.02C14.32,13.02,13.02,14.32,13.02,16.02C13.02,17.73,14.32,19.02,16.02,19.02C17.73,19.02,19.02,17.73,19.02,16.02ZM11.52,16.02C11.52,13.55,13.55,11.52,16.02,11.52C18.5,11.52,20.52,13.55,20.52,16.02C20.52,18.5,18.5,20.52,16.02,20.52C13.55,20.52,11.52,18.5,11.52,16.02ZM21.72,21.57L21.63,21.67C21.3,21.99,20.95,21.99,20.63,21.67L17.85,18.89L18.96,17.79L21.73,20.57C22.05,20.89,22.05,21.24,21.73,21.57Z"/></svg>