<svg xmlns="http://www.w3.org/2000/svg" viewBox="0 0 24 24" fill="currentColor"><path d="M5.52,20.5L5.52,19.58C5.52,18.48,6.27,17.83,7.75,17.73L5.18,10.02C4.58,9.93,4.13,9.42,4.13,8.8C4.13,8.18,4.63,7.62,5.3,7.62C5.91,7.62,6.45,8.15,6.45,8.82C6.45,9.12,6.38,9.35,6.21,9.55L7.68,11.47L9.48,16.74C8.28,17.37,7.68,18.5,7.68,19.58L7.68,20.5ZM9.18,20.5L9.18,19.58C9.18,18.5,9.93,17.85,11.4,17.75L8.85,10.05C8.2,9.96,7.78,9.45,7.78,8.85C7.78,8.23,8.3,7.65,8.96,7.65C9.58,7.65,10.08,8.2,10.08,8.88C10.08,9.15,10.03,9.38,9.84,9.6L11.99,12.33L12.24,8.07C11.66,7.85,11.41,7.5,11.41,6.9C11.41,6.2,11.94,5.64,12.66,5.64C13.34,5.64,13.86,6.19,13.86,6.9C13.86,7.32,13.73,7.65,13.41,7.92L14.84,12.14L16.24,7.92C15.92,7.65,15.74,7.32,15.74,6.9C15.74,6.22,16.29,5.64,17.01,5.64C17.71,5.64,18.21,6.19,18.21,6.9C18.21,7.5,17.96,7.85,17.39,8.07L17.69,12.32L19.79,9.6C19.58,9.38,19.51,9.15,19.51,8.87C19.51,8.25,20.03,7.65,20.69,7.65C21.41,7.65,21.89,8.3,21.89,8.85C21.89,9.38,21.41,9.95,20.79,10.05L18.26,17.75C19.7,17.88,20.45,18.5,20.45,19.58L20.45,20.5Z"/></svg>