<svg xmlns="http://www.w3.org/2000/svg" viewBox="0 0 24 24" fill="currentColor"><path d="M4,19C4,17.4,4.8,16.58,5.67,15.8C6.55,15.1,7.4,14.42,7.4,13.1L7.4,12.57L6.05,12.57C5.9,12.29,5.82,11.92,5.82,11.57L7.4,10.62C6.67,10.1,6.27,9.5,6.27,8.7C6.27,7.5,7.3,6.5,8.52,6.5C9,6.5,9.43,6.65,9.79,6.9C9.47,7.44,9.27,8.06,9.27,8.7C9.27,9.11,9.4,9.6,9.63,10.1C8.61,11.11,8.63,12.65,9.7,13.65C9.73,13.82,9.78,13.97,9.84,14.12C9.68,14.27,9.47,14.44,9.21,14.65C8.26,15.48,7,16.79,6.99,19ZM8.5,19C8.5,17.4,9.3,16.58,10.17,15.8C11.05,15.1,11.9,14.42,11.9,13.1L11.9,12.57L10.55,12.57C10.4,12.29,10.32,11.92,10.32,11.57L11.9,10.62C11.17,10.1,10.77,9.5,10.77,8.7C10.77,7.5,11.8,6.5,13.02,6.5C13.5,6.5,13.93,6.65,14.29,6.9C13.97,7.44,13.77,8.06,13.77,8.7C13.77,9.11,13.9,9.6,14.13,10.1C13.11,11.11,13.13,12.65,14.2,13.65C14.24,13.82,14.28,13.97,14.34,14.12C14.18,14.27,13.97,14.44,13.71,14.65C12.76,15.48,11.5,16.79,11.49,19ZM22,19L13,19C13,17.4,13.8,16.58,14.67,15.8C15.55,15.1,16.4,14.42,16.4,13.1L16.4,12.57L15.05,12.57C14.9,12.29,14.82,11.92,14.82,11.57L16.4,10.62C15.67,10.1,15.27,9.5,15.27,8.7C15.27,7.5,16.3,6.5,17.52,6.5C18.75,6.5,19.7,7.5,19.7,8.7C19.7,9.5,19.38,10.14,18.65,10.62L20.17,11.57C20.17,11.93,20.09,12.3,19.89,12.57L18.64,12.57L18.64,13.1C18.64,14.42,19.44,15.1,20.29,15.8C21.19,16.57,21.99,17.39,21.99,19Z"/></svg>