<svg xmlns="http://www.w3.org/2000/svg" viewBox="0 0 24 24" fill="currentColor"><path d="M7.52,9.25C6.17,9.25,5.05,8.63,5.05,7.23C5.05,6.08,5.85,5.37,6.92,5.37C8.07,5.37,8.79,6.12,9.27,7.56C9.76,6.12,10.46,5.37,11.6,5.37C12.7,5.37,13.47,6.1,13.47,7.23C13.47,8.6,12.32,9.25,11.05,9.25ZM6,20.5C4.5,20.5,4,20,4,18.5L4,16L8.5,16L8.5,20.5ZM4,12.75C4,11.25,4.5,10.75,6,10.75L8.5,10.75L8.5,14.5L4,14.5ZM10,14.5L10,10.75L12.5,10.75C13.25,10.75,13.74,10.88,14.06,11.19C14.05,11.27,14.05,11.36,14.05,11.45C14.05,11.86,14.18,12.36,14.41,12.84L13.9,13.23C13.9,13.65,13.94,14.08,14.03,14.5ZM7.52,8.15L8.37,8.15C7.98,6.93,7.65,6.48,7.02,6.48C6.55,6.48,6.1,6.68,6.1,7.23C6.1,7.98,6.85,8.15,7.52,8.15ZM10.2,8.15L11.05,8.15C11.65,8.15,12.4,7.97,12.4,7.22C12.4,6.68,11.95,6.47,11.52,6.47C10.94,6.47,10.55,6.94,10.2,8.15ZM10,16L14.5,16L14.5,16.08C13.65,17.08,11.93,18.2,11.93,20.5L10,20.5ZM21.57,20.5L13.42,20.5C13.42,17.65,16.25,18.1,16.44,15.27L16.5,14.8L15.35,14.8C15.22,14.55,15.15,14.25,15.15,13.98L16.5,13.15C15.82,12.72,15.54,12.1,15.54,11.45C15.54,10.38,16.42,9.5,17.49,9.5C18.57,9.5,19.44,10.38,19.44,11.45C19.44,12.14,19.24,12.65,18.49,13.15L19.84,13.98C19.84,14.25,19.77,14.55,19.64,14.8L18.49,14.8L18.54,15.27C18.75,18.1,21.57,17.65,21.57,20.5Z"/></svg>