<svg xmlns="http://www.w3.org/2000/svg" viewBox="0 0 24 24" fill="currentColor"><path d="M18.38,20.5L7.63,20.5C7.63,16.75,11.36,17.35,11.63,13.65L11.68,13L10.2,13C10,12.65,9.93,12.25,9.93,11.87L11.67,10.85C10.77,10.27,10.4,9.44,10.4,8.62C10.4,7.17,11.6,6.02,13.02,6.02C14.43,6.02,15.6,7.16,15.6,8.62C15.6,9.5,15.3,10.19,14.32,10.82L16.07,11.87C16.07,12.24,15.99,12.64,15.79,12.99L14.31,12.99L14.37,13.64C14.64,17.34,18.36,16.74,18.36,20.49ZM7.22,11.57C7.1,12,6.95,12,6.83,11.57L6.6,10.77C6.47,10.34,6.15,10.02,5.72,9.89L4.92,9.67C4.49,9.54,4.49,9.39,4.92,9.27L5.72,9.05C6.15,8.92,6.47,8.6,6.6,8.17L6.83,7.42C6.95,6.99,7.1,6.99,7.22,7.42L7.45,8.17C7.58,8.6,7.9,8.92,8.33,9.05L9.08,9.27C9.5,9.4,9.5,9.55,9.08,9.67L8.33,9.89C7.9,10.02,7.58,10.34,7.45,10.77ZM19.23,9.08C19.1,9.5,18.95,9.5,18.83,9.08L18.6,8.27C18.47,7.85,18.15,7.52,17.72,7.4L16.92,7.17C16.49,7.04,16.49,6.89,16.92,6.77L17.72,6.55C18.15,6.42,18.47,6.1,18.6,5.67L18.83,4.92C18.96,4.49,19.11,4.49,19.23,4.92L19.45,5.67C19.58,6.1,19.9,6.42,20.33,6.55L21.08,6.77C21.51,6.9,21.51,7.05,21.08,7.17L20.33,7.4C19.9,7.52,19.58,7.85,19.45,8.27Z"/></svg>