<svg xmlns="http://www.w3.org/2000/svg" viewBox="0 0 24 24"><path d="M10,9.1L10,11.3L10,22L0.33,22C0.33,16.67,5.66,17.5,5.96,12.2L5.99,11.3L3.96,11.3C3.69,10.83,3.59,10.27,3.59,9.77L5.99,8.2C4.82,7.37,4.32,6.23,4.32,5C4.32,3,5.95,1.33,7.99,1.33C9.98,1.33,11.59,2.93,11.65,4.88C10.63,5.75,10.16,6.72,10.03,8.14C10.02,8.15,10,8.16,9.99,8.17L10.03,8.19C10.01,8.47,9.99,8.78,9.99,9.1Z" fill="currentColor"/><path d="M20.8,10L15.33,10C13.96,10,12.6,9.37,12.6,7.73C12.6,6.36,13.6,5.5,14.9,5.5C16.6,5.5,17.8,7,18.4,9.23L17.67,9.23C18.27,6.96,19.5,5.5,21.14,5.5C22.47,5.5,23.41,6.43,23.41,7.73C23.41,9.36,22.04,10,20.81,10Z" fill="currentColor"/><path d="M13.43,22C12.4,22,12,21.6,12,20.57L12,18L17,18L17,22Z" fill="currentColor"/><path d="M12,13.43C12,12.4,12.4,12,13.43,12L17,12L17,16L12,16Z" fill="currentColor"/><path d="M19,22L19,18L24,18L24,20.57C24,21.6,23.6,22,22.57,22Z" fill="currentColor"/><path d="M19,16L19,12L22.57,12C23.6,12,24,12.4,24,13.43L24,16Z" fill="currentColor"/><path d="M17.07,9.23C16.54,7.43,15.87,6.8,15,6.8C14.43,6.8,13.9,7.1,13.9,7.73C13.9,8.6,14.83,8.7,15.33,8.7L20.8,8.7C21.17,8.7,22.1,8.6,22.1,7.73C22.1,7.1,21.57,6.8,21.03,6.8C20.26,6.8,19.5,7.43,19,9.23Z" fill="currentColor"/></svg>