<svg xmlns="http://www.w3.org/2000/svg" viewBox="0 0 24 24"><path d="M2.07,22L1.94,22C1.34,22,1.01,21.67,1.01,21.07L1.01,14C1.01,6.33,5.01,1.67,12.01,1.67C19.01,1.67,23.01,6.34,23.01,14L23.01,21.07C23.01,21.67,22.68,22,22.08,22L21.95,22C21.35,22,21.02,21.67,21.02,21.07L21.02,14C21.02,7.73,17.62,3.67,12.02,3.67C6.42,3.67,3.02,7.74,3.02,14L3.02,21.07C3.02,21.67,2.69,22,2.09,22Z" fill="currentColor"/><path d="M8,20.03L9.43,11.86L14.56,11.86L16.03,20.03Z" fill="currentColor"/><path d="M6.4,21.07C6.4,19.47,7.33,18.64,12,18.64C16.63,18.64,17.6,19.47,17.6,21.07L17.6,22L6.4,22Z" fill="currentColor"/><path d="M14.77,13.3L9.24,13.3C8.41,12.7,8.07,12.07,8.04,11.37L7.87,8.67C8.4,8.44,8.87,8.34,9.37,8.34L9.7,9.87L10.87,9.87L11.1,8.1C11.1,8.1,11.57,8,12,8C12.43,8,12.9,8.1,12.9,8.1L13.1,9.87L14.3,9.87L14.63,8.34C15.16,8.34,15.6,8.44,16.13,8.67L15.96,11.37C15.93,12.07,15.59,12.7,14.76,13.3Z" fill="currentColor"/></svg>