<svg xmlns="http://www.w3.org/2000/svg" viewBox="0 0 24 24"><path d="M17.67,22L2.34,22C2.34,16.67,7.67,17.5,7.97,12.2L8,11.3L5.97,11.3C5.7,10.83,5.6,10.27,5.6,9.77L8,8.2C6.83,7.37,6.33,6.23,6.33,5C6.33,3.34,7.45,1.91,9,1.47L9,8.56C9,10.45,10.22,11.8,12.03,11.97L12.04,12.19C12.34,17.49,17.67,16.66,17.67,21.99Z" fill="currentColor"/><path d="M23.07,8L18.94,8C18.34,8,18.01,7.67,18.01,7.07L18.01,6.8C18.01,6.2,18.24,5.63,18.64,5.17L21.44,2L18.94,2C18.34,2,18.01,1.67,18.01,1.07L18.01,0.94C18.01,0.34,18.34,0.01,18.94,0.01L23.07,0.01C23.67,0.01,24,0.34,24,0.94L24,1.27C24,1.87,23.77,2.44,23.37,2.9L20.6,6L23.07,6C23.67,6,24,6.33,24,6.93L24,7.06C24,7.66,23.67,7.99,23.07,7.99Z" fill="currentColor"/><path d="M11.93,2L16.06,2C16.66,2,16.99,2.33,16.99,2.93L16.99,3.2C16.99,3.8,16.76,4.37,16.36,4.83L13.56,8L16.06,8C16.66,8,16.99,8.33,16.99,8.93L16.99,9.06C16.99,9.66,16.66,9.99,16.06,9.99L11.93,9.99C11.33,9.99,11,9.66,11,9.06L11,8.73C11,8.13,11.23,7.56,11.63,7.1L14.4,4L11.93,4C11.33,4,11,3.67,11,3.07L11,2.94C11,2.34,11.33,2.01,11.93,2.01Z" fill="currentColor"/></svg>