<svg xmlns="http://www.w3.org/2000/svg" viewBox="0 0 24 24"><path d="M12.63,3.37C12.63,3.77,12.36,4.1,12,4.1C11.63,4.1,11.37,3.77,11.37,3.37C11.37,2.77,11.8,1.94,12,0.77C12.23,1.94,12.63,2.77,12.63,3.37Z" fill="currentColor"/><path d="M6.76,5C7.03,5.3,7.03,5.73,6.73,5.97C6.46,6.2,6.03,6.1,5.76,5.8C5.39,5.33,5.23,4.4,4.63,3.4C5.56,4.13,6.4,4.53,6.76,5Z" fill="currentColor"/><path d="M3.24,9.96C3.64,10.03,3.91,10.36,3.84,10.73C3.74,11.1,3.37,11.26,2.97,11.2C2.4,11.07,1.67,10.47,0.57,10.03C1.77,10.06,2.64,9.83,3.24,9.96Z" fill="currentColor"/><path d="M1.6,17.8C2.53,17.07,3.1,16.33,3.63,16.03C3.96,15.86,4.4,15.96,4.56,16.26C4.73,16.59,4.56,16.99,4.19,17.16C3.66,17.43,2.72,17.43,1.59,17.79Z" fill="currentColor"/><path d="M18.17,5.76C17.9,6.06,17.5,6.16,17.2,5.93C16.93,5.7,16.93,5.26,17.17,4.96C17.57,4.49,18.4,4.13,19.3,3.33C18.77,4.4,18.53,5.3,18.17,5.76Z" fill="currentColor"/><path d="M21.03,11.14C20.63,11.21,20.23,11.04,20.16,10.67C20.09,10.3,20.36,9.97,20.76,9.9C21.33,9.77,22.23,10,23.43,9.97C22.33,10.44,21.6,11,21.03,11.14Z" fill="currentColor"/><path d="M22.47,17.7C21.3,17.4,20.4,17.37,19.87,17.1C19.5,16.9,19.34,16.53,19.5,16.2C19.67,15.87,20.07,15.8,20.43,15.97C20.96,16.24,21.5,17,22.46,17.7Z" fill="currentColor"/><path d="M6,22L6,21C6,19.83,6.8,19.13,8.37,19.03L5.64,10.73C4.97,10.63,4.51,10.1,4.51,9.43C4.51,8.76,5.08,8.16,5.78,8.16C6.41,8.16,6.98,8.73,6.98,9.46C6.98,9.76,6.91,10.03,6.71,10.23L8.98,13.2L9.28,8.63C8.65,8.33,8.38,7.93,8.38,7.33C8.38,6.6,8.95,6,9.68,6C10.45,6,10.98,6.6,10.98,7.33C10.98,7.8,10.85,8.16,10.48,8.43L12.01,13L13.51,8.43C13.18,8.16,12.98,7.8,12.98,7.33C12.98,6.63,13.58,6,14.31,6C15.08,6,15.64,6.6,15.64,7.33C15.64,7.93,15.37,8.33,14.74,8.63L15.04,13.2L17.27,10.23C17.07,10.03,16.97,9.76,16.97,9.46C16.97,8.79,17.57,8.16,18.24,8.16C19.01,8.16,19.51,8.86,19.51,9.43C19.51,10.03,19.04,10.63,18.38,10.73L15.68,19.03C17.21,19.16,18.01,19.83,18.01,21L18.01,22Z" fill="currentColor"/></svg>