<svg xmlns="http://www.w3.org/2000/svg" viewBox="0 0 24 24" fill="currentColor"><path d="M7.7,19.75L18.22,19.75L18.22,19.28C18.22,17.65,17.17,17.13,12.95,17.13C8.73,17.13,7.7,17.65,7.7,19.28ZM6.95,20.5L6.95,19.28C6.95,17.08,8.39,16.38,12.95,16.38C17.5,16.38,18.97,17.07,18.97,19.28L18.97,20.5ZM9.42,17.3L8.67,17.3C8.67,14.77,10.6,13.5,11.32,12.93C12.11,12.27,12.38,11.91,12.48,11.88C12.01,12.34,11.2,13.02,10.27,13.02C9.72,13.05,9.9,13.45,9.27,14.05C8.75,14.52,7.12,14.03,6.48,13.47C5.82,12.87,5.88,11.95,6.3,11.32L7.5,9.67C7.95,9.02,7.86,8.87,8.25,7.85C8.35,7.6,8.63,7.08,9.05,6.72C9.43,6.4,9.5,6.35,9.58,6.15L9.73,5.47C9.88,4.82,10.58,4.32,11.25,4.57L12.53,5.82C18.17,6.45,19.7,12.03,16.93,17.47L16.25,17.12C18.86,12.02,17.48,6.97,12.18,6.54L10.88,5.25C10.68,5.25,10.51,5.45,10.46,5.64L10.31,6.34C10.18,6.74,9.91,6.96,9.54,7.29C9.16,7.59,9.03,7.92,8.96,8.12C8.66,8.89,8.66,9.32,8.11,10.09L6.93,11.74C6.66,12.14,6.69,12.62,6.99,12.89C7.44,13.26,8.66,13.56,8.79,13.46C9.26,13.02,9.29,12.29,10.29,12.27C11.06,12.27,11.76,11.57,12.14,11.16L12.54,10.71C13.44,11.82,12.81,12.66,11.81,13.49C11.06,14.09,9.43,15.16,9.43,17.29Z"/></svg>