<svg xmlns="http://www.w3.org/2000/svg" viewBox="0 0 24 24" fill="currentColor"><path d="M13.47,6.53C13.47,6.83,13.27,7.07,13,7.07C12.72,7.07,12.53,6.83,12.53,6.53C12.53,6.08,12.85,5.46,13,4.58C13.17,5.46,13.47,6.08,13.47,6.53ZM9.07,7.75C9.27,7.98,9.27,8.3,9.05,8.48C8.85,8.65,8.52,8.58,8.32,8.35C8.04,8,7.92,7.3,7.47,6.55C8.17,7.1,8.8,7.4,9.07,7.75ZM6.43,11.47C6.73,11.52,6.93,11.77,6.88,12.05C6.8,12.32,6.53,12.44,6.23,12.4C5.8,12.3,5.25,11.85,4.43,11.52C5.33,11.54,5.98,11.37,6.43,11.47ZM5.2,17.35C5.9,16.8,6.32,16.25,6.72,16.02C6.97,15.89,7.3,15.97,7.42,16.2C7.55,16.44,7.42,16.74,7.14,16.87C6.74,17.07,6.04,17.07,5.19,17.34ZM17.63,8.32C17.43,8.54,17.13,8.62,16.9,8.45C16.7,8.27,16.7,7.95,16.88,7.72C17.18,7.37,17.8,7.1,18.48,6.5C18.08,7.3,17.9,7.98,17.63,8.32ZM19.77,12.36C19.47,12.41,19.17,12.28,19.12,12C19.07,11.73,19.27,11.48,19.57,11.43C20,11.33,20.67,11.5,21.57,11.48C20.75,11.83,20.2,12.25,19.77,12.36ZM20.85,17.27C19.97,17.05,19.3,17.03,18.9,16.82C18.62,16.67,18.5,16.4,18.62,16.15C18.75,15.9,19.05,15.85,19.32,15.98C19.72,16.18,20.12,16.75,20.84,17.27ZM15.6,18.7L10.38,18.7C10.25,17.8,9.7,17.22,9.27,16.62C8.57,15.67,7.95,15,7.95,13.95C7.95,12.39,8.94,11.37,10.32,11.37C11.17,11.37,11.77,11.65,12.07,11.85L12.45,10.42L11.12,10.42L11.12,9.3L12.45,9.3L12.45,8.17L13.57,8.17L13.57,9.3L14.87,9.3L14.87,10.42L13.57,10.42L13.89,11.85C14.21,11.64,14.79,11.37,15.67,11.37C17.09,11.37,18.07,12.48,18.07,13.95C18.07,15,17.39,15.67,16.72,16.62C16.27,17.22,15.74,17.8,15.59,18.7ZM14.03,15.65L14.78,15.65C15.15,15.22,15.98,14.67,15.98,14.07C15.98,13.64,15.68,13.38,15.15,13.38C14.68,13.38,14.03,13.83,14.03,13.83ZM11.98,15.65L11.98,13.83C11.98,13.83,11.33,13.38,10.86,13.38C10.35,13.38,10.03,13.65,10.03,14.07C10.03,14.67,10.88,15.22,11.25,15.65ZM8.5,20.55L8.5,19.8C8.5,18.88,9.35,18.3,10.73,18.3L15.25,18.3C16.65,18.3,17.5,18.88,17.5,19.8L17.5,20.55Z"/></svg>