<svg xmlns="http://www.w3.org/2000/svg" viewBox="0 0 24 24" fill="currentColor"><path d="M19.05,19L16.71,19C16.25,19,16.01,18.75,16.01,18.3L16.01,18.21C16.01,17.75,16.25,17.51,16.71,17.51L19.01,17.51L19.01,15.51L18.21,15.51C17.75,15.51,17.51,15.26,17.51,14.81L17.51,14.71C17.51,14.26,17.75,14.01,18.21,14.01L19.01,14.01L19.01,12.01L18.21,12.01C17.75,12.01,17.51,11.76,17.51,11.31L17.51,11.22C17.51,10.77,17.75,10.52,18.21,10.52L19.01,10.52L19.01,8.52L16.71,8.52C16.25,8.52,16.01,8.27,16.01,7.82L16.01,7.72C16.01,7.27,16.25,7.02,16.71,7.02L19.05,7.02C20.25,7.02,20.5,7.27,20.5,8.47L20.5,17.57C20.5,18.77,20.25,19.02,19.05,19.02ZM5.45,17.27L6.72,10.1L11.25,10.1L12.52,17.27ZM4.05,18.17C4.05,16.75,4.88,16.05,8.98,16.05C13.08,16.05,13.93,16.75,13.93,18.17L13.93,19L4.05,19ZM11.4,11.35L6.55,11.35C5.82,10.83,5.52,10.25,5.5,9.65L5.35,7.27C5.82,7.07,6.23,6.97,6.68,6.97L6.98,8.32L8,8.32L8.18,6.77C8.18,6.77,8.63,6.67,8.98,6.67C9.36,6.67,9.78,6.77,9.78,6.77L9.96,8.32L11.01,8.32L11.31,6.97C11.76,6.97,12.15,7.07,12.63,7.27L12.48,9.65C12.43,10.25,12.16,10.83,11.41,11.35Z"/></svg>