<svg xmlns="http://www.w3.org/2000/svg" viewBox="0 0 24 24"><path d="M1.44,11.47C1.01,11.07,0.97,10.4,1.37,9.84L3.04,7.51C3.81,6.44,3.81,5.84,4.24,4.74C4.34,4.44,4.51,4.01,5.04,3.57C5.57,3.1,5.94,2.77,6.14,2.24L6.34,1.24C6.41,0.94,6.67,0.67,6.94,0.67L8.77,2.5C10.6,2.62,12.51,3.32,13.97,4.67C13.29,5.54,12.87,6.61,12.87,7.73C12.87,8.31,13.03,9,13.34,9.69C11.73,11.21,11.92,13.64,13.94,14.98C13.69,15.27,13.3,15.58,12.75,16.02C11.49,17.11,9.5,18.84,9.5,21.99L2,21.99L2,20.66C2,19.27,3.09,18.31,4.94,18.06C4.97,14.96,7.09,13.26,8.24,12.33C9.04,11.66,9.87,10.8,9.87,9.9C9.87,9.2,9.44,8.63,9.27,8.4L8.7,9.03C8.17,9.6,7.2,10.6,6.1,10.6C4.67,10.63,4.63,11.63,3.97,12.27C3.8,12.4,2.07,12,1.44,11.47Z" fill="currentColor"/><path d="M24,22L11.5,22C11.5,19.77,12.8,18.63,14.03,17.57C15.23,16.6,16.36,15.67,16.36,13.84L16.36,13.11L14.56,13.11C14.36,12.71,14.23,12.21,14.23,11.71L16.36,10.44C15.36,9.71,14.86,8.84,14.86,7.74C14.86,6.07,16.23,4.67,17.93,4.67C19.63,4.67,21,6.07,21,7.74C21,8.84,20.5,9.71,19.5,10.37L21.67,11.7C21.67,12.2,21.57,12.7,21.3,13.1L19.5,13.1L19.5,13.83C19.5,15.66,20.63,16.6,21.83,17.56C23.06,18.63,24,19.76,24,21.99Z" fill="currentColor"/></svg>