<svg xmlns="http://www.w3.org/2000/svg" viewBox="0 0 24 24"><path d="M5.6,16.93C5.6,15.66,6.47,14.96,8.1,14.83L5.2,6C4.5,5.9,4,5.3,4,4.6C4,3.9,4.6,3.27,5.33,3.27C6.03,3.27,6.63,3.87,6.63,4.64C6.63,4.97,6.56,5.24,6.33,5.47L8.76,8.6L9.06,3.73C8.39,3.43,8.09,3,8.09,2.36C8.09,1.56,8.72,0.93,9.52,0.93C10.32,0.93,10.89,1.56,10.89,2.36C10.89,2.86,10.72,3.26,10.36,3.53L11.99,8.4L13.59,3.53C13.22,3.26,13.02,2.86,13.02,2.36C13.02,1.63,13.65,0.93,14.45,0.93C15.25,0.93,15.85,1.56,15.85,2.36C15.85,2.99,15.55,3.43,14.88,3.73L15.21,8.6L17.61,5.47C17.38,5.24,17.28,4.97,17.28,4.64C17.28,3.94,17.91,3.27,18.61,3.27C19.44,3.27,19.98,4,19.98,4.6C19.98,5.23,19.48,5.9,18.75,6L15.88,14.83C17.51,15,18.38,15.66,18.38,16.93L18.38,18L5.58,18Z" fill="currentColor"/><path d="M10.66,20.04L13.29,20.04L12.26,23.57C12.09,24.14,11.89,24.14,11.73,23.57Z" fill="currentColor"/><path d="M8.77,22.83C8.6,23.4,8.4,23.4,8.2,22.83L7.3,20.03L9.67,20.03Z" fill="currentColor"/><path d="M15.83,22.83C15.63,23.4,15.43,23.43,15.23,22.83L14.3,20.03L16.73,20.03Z" fill="currentColor"/></svg>