<svg xmlns="http://www.w3.org/2000/svg" viewBox="0 0 24 24" fill="currentColor"><path d="M7.52,9.25C6.17,9.25,5.05,8.63,5.05,7.23C5.05,6.08,5.85,5.37,6.92,5.37C8.07,5.37,8.79,6.12,9.27,7.56C9.76,6.12,10.46,5.37,11.6,5.37C12.7,5.37,13.47,6.1,13.47,7.23C13.47,7.41,13.45,7.59,13.41,7.74C12.87,7.87,12.32,8.07,11.63,8.36L11.69,9.19C11.49,9.23,11.27,9.25,11.05,9.25ZM6,20.5C4.5,20.5,4,20,4,18.5L4,16L8.5,16L8.5,20.5ZM4,12.75C4,11.25,4.5,10.75,6,10.75L8.5,10.75L8.5,14.5L4,14.5ZM10,14.5L10,10.75L11.8,10.75L11.85,11.52C11.91,12.13,12.24,12.8,12.75,13.32L12.54,14.5ZM10.45,20.5L10,20.5L10,16L12.27,16L12.12,16.85C10.99,17.47,10.45,18.54,10.45,19.7ZM8.37,8.15C7.98,6.93,7.65,6.48,7.02,6.48C6.55,6.48,6.1,6.68,6.1,7.23C6.1,7.98,6.85,8.15,7.52,8.15ZM11.05,8.15C11.65,8.15,12.4,7.97,12.4,7.22C12.4,6.68,11.95,6.47,11.52,6.47C10.94,6.47,10.55,6.94,10.2,8.15ZM13.3,18.83L14.55,11.83L18.96,11.83L20.21,18.83ZM11.95,19.7C11.95,18.33,12.75,17.62,16.75,17.62C20.73,17.62,21.55,18.32,21.55,19.7L21.55,20.5L11.95,20.5ZM19.1,13.05L14.39,13.05C13.67,12.55,13.4,11.98,13.35,11.4L13.2,9.08C13.67,8.88,14.04,8.78,14.49,8.78L14.79,10.11L15.79,10.11L15.96,8.58C15.96,8.58,16.39,8.51,16.73,8.51C17.09,8.51,17.51,8.58,17.51,8.58L17.68,10.11L18.68,10.11L18.98,8.78C19.43,8.78,19.8,8.88,20.27,9.08L20.13,11.4C20.07,11.98,19.8,12.55,19.08,13.05Z"/></svg>