<svg xmlns="http://www.w3.org/2000/svg" viewBox="0 0 24 24"><path d="M3.5,22L3.5,19.1C3.5,17.4,4.03,16.33,5.77,15.7L6.57,9.33C5.54,8.66,4.97,7.66,4.87,6.53L4.57,2.5C6.07,1.73,9.07,1.03,12.07,1.03C14.94,1.03,17.8,1.66,19.4,2.5L19.13,6.53C19.06,7.66,18.46,8.66,17.43,9.33L18.23,15.7C19.96,16.33,20.5,17.4,20.5,19.1L20.5,22Z" fill="currentColor"/><path d="M5.5,20L18.5,20L18.5,19.1C18.5,17.33,17.13,17,12,17C6.87,17,5.5,17.33,5.5,19.1Z" fill="currentColor"/><path d="M8.53,9.93L7.83,15.23C8.93,15.06,10.3,15,12,15C13.7,15,15.07,15.07,16.17,15.23L15.47,9.93C12.77,9.66,11.24,9.66,8.54,9.93Z" fill="currentColor"/><path d="M8.3,7.93C11.13,7.66,12.87,7.66,15.7,7.93C16.7,7.6,17.07,7.03,17.13,6.36L17.33,3.56C16.53,3.29,15.83,3.13,15.3,3.13L14.87,5.1L13.47,5.1L13.24,2.8C12.94,2.7,12.47,2.67,12.01,2.67C11.54,2.67,11.11,2.7,10.78,2.8L10.55,5.1L9.15,5.1L8.72,3.13C8.19,3.13,7.49,3.3,6.69,3.56L6.89,6.36C6.96,7.03,7.32,7.59,8.32,7.93Z" fill="currentColor"/></svg>