<svg xmlns="http://www.w3.org/2000/svg" viewBox="0 0 24 24"><path d="M19.67,11.4C19.67,11.4,19.67,11.4,19.67,11.4C19.67,11.4,19.67,11.4,19.67,11.4C19.67,11.4,19.67,11.4,19.67,11.4C19.67,11.4,19.67,11.4,19.67,11.4Z" fill="currentColor"/><path d="M41.67,1.4C41.67,1.4,41.67,1.4,41.67,1.4C41.67,1.4,41.67,1.4,41.67,1.4C41.67,1.4,41.67,1.4,41.67,1.4C41.67,1.4,41.67,1.4,41.67,1.4Z" fill="currentColor"/><path d="M64,12C64,12,64,12,64,12C64,12,64,12,64,12C64,12,64,12,64,12C64,12,64,12,64,12Z" fill="currentColor"/><path d="M140,32C140,32,140,32,140,32C140,32,140,32,140,32C140,32,140,32,140,32C140,32,140,32,140,32Z" fill="currentColor"/><path d="M17.7,18L6.3,18C6.3,14.03,10.23,14.63,10.53,10.7L10.6,10L9,10C8.8,9.67,8.7,9.27,8.7,8.87L10.6,7.74C9.67,7.11,9.27,6.24,9.27,5.34C9.27,3.81,10.5,2.57,12,2.57C13.5,2.57,14.73,3.8,14.73,5.34C14.73,6.31,14.43,7.01,13.4,7.71L15.27,8.88C15.27,9.28,15.2,9.68,15,10.01L13.4,10.01L13.47,10.71C13.77,14.64,17.7,14.04,17.7,18.01Z" fill="currentColor"/><path d="M1,21C1,19.9,1.9,19,3,19C4.1,19,5,19.9,5,21C5,22.1,4.1,23,3,23C1.9,23,1,22.1,1,21Z" fill="currentColor"/><path d="M2.97,22L2.97,20L20.97,20L20.97,22Z" fill="currentColor"/><path d="M19,20.97C19,19.9,19.9,19,20.97,19C22.1,19,23,19.9,23,20.97C23,22.1,22.1,23,20.97,23C19.9,23,19,22.1,19,20.97Z" fill="currentColor"/></svg>