<svg xmlns="http://www.w3.org/2000/svg" viewBox="0 0 24 24" fill="currentColor"><path d="M8.2,16.7C8.2,15.75,8.85,15.22,10.07,15.12L7.9,8.5C7.38,8.42,7,7.97,7,7.45C7,6.92,7.45,6.45,8,6.45C8.52,6.45,8.97,6.9,8.97,7.48C8.97,7.73,8.92,7.93,8.75,8.1L10.57,10.45L10.79,6.8C10.29,6.57,10.07,6.25,10.07,5.77C10.07,5.17,10.54,4.7,11.14,4.7C11.74,4.7,12.17,5.17,12.17,5.77C12.17,6.14,12.04,6.44,11.77,6.65L12.99,10.3L14.19,6.65C13.91,6.44,13.77,6.14,13.77,5.77C13.77,5.22,14.24,4.7,14.84,4.7C15.44,4.7,15.89,5.17,15.89,5.77C15.89,6.24,15.66,6.57,15.16,6.8L15.41,10.45L17.21,8.1C17.03,7.93,16.96,7.73,16.96,7.48C16.96,6.95,17.43,6.45,17.96,6.45C18.58,6.45,18.98,7,18.98,7.45C18.98,7.92,18.61,8.42,18.06,8.5L15.91,15.12C17.13,15.25,17.79,15.74,17.79,16.7L17.79,17.5L8.18,17.5ZM12,19.03L13.97,19.03L13.19,21.68C13.07,22.11,12.92,22.11,12.8,21.68ZM10.58,21.12C10.45,21.55,10.3,21.55,10.15,21.12L9.47,19.02L11.25,19.02ZM15.87,21.12C15.72,21.55,15.57,21.57,15.42,21.12L14.72,19.02L16.55,19.02Z"/></svg>