<svg xmlns="http://www.w3.org/2000/svg" viewBox="0 0 24 24"><path d="M7.6,17.47L6.1,17.57C6,16.24,2.73,14.7,2.73,11.17C2.73,7.24,6.3,5.34,9.5,6.27L9.37,7.07L7.34,7.07L7.34,2.27L9.61,2.27L9.61,0L14.41,0L14.41,2.27L16.68,2.27L16.68,7.07L14.61,7.07L14.51,6.3C17.88,5.27,21.28,7.27,21.28,11.2C21.28,14.63,17.95,16.3,17.88,17.53L16.38,17.46C16.48,15.26,19.78,14.13,19.78,11.19C19.78,7.66,16.18,6.46,13.31,8.52L12.88,5.55L15.18,5.55L15.18,3.75L12.91,3.75L12.91,1.48L11.11,1.48L11.11,3.75L8.84,3.75L8.84,5.55L11.14,5.55L10.67,8.52C8.07,6.52,4.24,7.62,4.24,11.15C4.24,14.18,7.44,15.18,7.61,17.45Z" fill="currentColor"/><path d="M6.13,19.97L6.13,20.5L17.86,20.5L17.86,19.97C17.86,18.24,16.89,18.1,11.99,18.1C7.09,18.1,6.12,18.23,6.12,19.97Z" fill="currentColor"/><path d="M4.63,22L4.63,19.97C4.63,17.24,6,16.6,12,16.6C18,16.6,19.37,17.23,19.37,19.97L19.37,22Z" fill="currentColor"/><path d="M13.44,13.9L13.44,11.1C15.11,9.73,16.77,10.3,16.77,11.47C16.77,12.24,15.8,13.17,15.07,13.9Z" fill="currentColor"/><path d="M10.57,13.9L8.94,13.9C8.21,13.17,7.27,12.27,7.27,11.57C7.27,10.4,8.94,9.84,10.57,11.07Z" fill="currentColor"/></svg>