<svg xmlns="http://www.w3.org/2000/svg" viewBox="0 0 24 24" fill="currentColor"><path d="M16.6,21.6L15.83,17.66L15.21,20.08C15.08,20.51,14.98,20.51,14.88,20.08L14.33,17.51L11.79,17.51C10.89,15.16,12.28,13.27,13.55,12.18C13.74,12.03,13.9,11.9,14.02,11.8C12.95,10.89,12.87,9.44,13.77,8.47C13.62,8.07,13.53,7.68,13.53,7.36C13.53,5.61,15.09,4.01,16.86,4.01C18.63,4.01,20.18,5.61,20.18,7.36C20.18,7.7,20.1,8.07,19.95,8.44C20.84,9.42,20.75,10.86,19.67,11.79C19.79,11.89,19.94,12.02,20.14,12.18C21.21,13.07,22.5,14.75,21.81,17.52L19.18,17.52L18.61,20.09C18.51,20.52,18.41,20.52,18.29,20.09L17.67,17.7L16.88,21.61C16.79,22.04,16.68,22.04,16.61,21.61ZM12.45,20.5L4.55,20.5C4.55,19.08,4.93,18.68,5.75,18.08C6.45,17.61,7.18,16.95,7.46,15.1L6.38,15.1C6.16,14.75,6.16,14.48,6.16,14.22L7.41,13.65C6.87,13.27,6.54,12.6,6.54,11.94C6.54,10.84,7.41,9.99,8.51,9.99C9.61,9.99,10.48,10.84,10.48,11.94C10.48,12.6,10.16,13.27,9.6,13.65L10.88,14.22C10.88,14.52,10.88,14.75,10.63,15.1L9.56,15.1C9.83,16.95,10.55,17.55,11.26,18.05C12.08,18.67,12.46,19.08,12.46,20.5ZM20.5,16C20.5,14.65,19.92,13.95,19.2,13.32C18.48,12.72,17.8,12.18,17.8,11.05L17.8,10.6L18.9,10.6C19.05,10.38,19.1,10.08,19.1,9.75L17.81,8.95C18.41,8.55,18.71,8.03,18.71,7.35C18.71,6.36,17.88,5.5,16.85,5.5C15.86,5.5,15.03,6.35,15.03,7.35C15.03,8.03,15.33,8.55,15.93,9L14.63,9.75C14.63,10.08,14.73,10.38,14.84,10.6L15.94,10.6L15.94,11.05C15.94,12.18,15.26,12.72,14.51,13.32C13.82,13.94,13.01,14.65,13.01,16Z"/></svg>