<svg xmlns="http://www.w3.org/2000/svg" viewBox="0 0 24 24"><path d="M4.67,18C2.67,18,2,17.33,2,15.33L2,4.66C2,2.66,2.67,1.99,4.67,1.99L19.34,1.99C21.34,1.99,22.01,2.66,22.01,4.66L22.01,15.33C22.01,17.33,21.34,18,19.34,18L18.66,18C18.29,17.16,17.78,16.47,17.17,16L20.01,16L20.01,4L4.01,4L4.01,16L6.85,16C6.24,16.47,5.72,17.16,5.36,18Z" fill="currentColor"/><path d="M12,22C6.8,22,6.67,21.07,6.67,21C6.67,19.7,7.07,18.33,8.14,17.57C9.54,16.5,10.54,15.6,10.54,13L8.94,13C8.74,12.63,8.64,12.3,8.64,11.9L10.54,10.67C9.87,10.2,9.44,9.44,9.44,8.57C9.44,7.17,10.57,6,12.01,6C13.44,6,14.58,7.17,14.58,8.57C14.58,9.44,14.15,10.2,13.48,10.67L15.38,11.9C15.38,12.3,15.28,12.63,15.08,13L13.48,13C13.48,15.6,14.48,16.5,15.88,17.57C16.95,18.34,17.35,19.7,17.35,21C17.35,21.07,17.22,22,12.02,22Z" fill="currentColor"/></svg>