<svg xmlns="http://www.w3.org/2000/svg" viewBox="0 0 24 24" fill="currentColor"><path d="M10.2,15.55C10.05,14.57,9.47,13.95,9.02,13.32C8.27,12.29,7.6,11.57,7.6,10.45C7.6,8.8,8.67,7.73,10.15,7.73C11.05,7.73,11.67,8,12.02,8.23L12.42,6.71L11,6.71L11,5.51L12.4,5.51L12.4,4.31L13.6,4.31L13.6,5.51L15,5.51L15,6.71L13.63,6.71L13.95,8.23C14.31,8,14.93,7.73,15.85,7.73C17.35,7.73,18.4,8.87,18.4,10.45C18.4,11.57,17.7,12.3,16.95,13.32C16.5,13.94,15.93,14.58,15.78,15.55ZM14.88,12.27C15.27,11.82,16.17,11.25,16.17,10.6C16.17,10.15,15.85,9.85,15.3,9.85C14.77,9.85,14.1,10.32,14.1,10.32L14.1,12.27ZM11.9,10.32C11.9,10.32,11.22,9.85,10.7,9.85C10.15,9.85,9.82,10.15,9.82,10.6C9.82,11.25,10.72,11.82,11.12,12.27L11.89,12.27ZM8.2,16.7C8.2,15.72,9.1,15.1,10.58,15.1L15.4,15.1C16.9,15.1,17.8,15.72,17.8,16.7L17.8,17.5L8.2,17.5ZM12,19.03L13.97,19.03L13.19,21.68C13.07,22.11,12.92,22.11,12.8,21.68ZM10.58,21.12C10.45,21.55,10.3,21.55,10.15,21.12L9.47,19.02L11.25,19.02ZM15.87,21.12C15.72,21.55,15.57,21.57,15.42,21.12L14.72,19.02L16.55,19.02Z"/></svg>