<svg xmlns="http://www.w3.org/2000/svg" viewBox="0 0 24 24" fill="currentColor"><path d="M20.37,12C22.22,12.15,22.22,12.36,20.37,12.53L14.88,13.02L14.61,11.49ZM19.52,8.35C21.35,8.52,21.35,8.73,19.52,8.9L15.75,9.26C15.75,9.24,15.75,9.24,15.75,9.22L15.82,7.99ZM18.53,15.55C20.35,15.75,20.35,16,18.53,16.2L15.96,16.47C15.8,16.36,15.63,16.26,15.43,16.17L15.27,15.21ZM14,16.5L5.99,16.5L6.89,11.01L13.1,11.01ZM16,20.5L4,20.5L4,19.5C4,18.18,5.03,17.5,7,17.5L13.02,17.5C15,17.5,16,18.17,16,19.5ZM12.95,10L7.04,10C6.14,9.7,5.79,9.08,5.75,8.43L5.57,6.23C6.02,5.98,6.53,5.85,7.07,5.85L7.47,7.5L8.77,7.5L8.99,5.61C8.99,5.61,9.52,5.51,9.99,5.51C10.46,5.51,10.99,5.61,10.99,5.61L11.24,7.5L12.51,7.5L12.91,5.85C13.46,5.85,13.96,5.98,14.41,6.23L14.24,8.43C14.18,9.08,13.84,9.7,12.94,10Z"/></svg>