<svg xmlns="http://www.w3.org/2000/svg" viewBox="0 0 24 24"><path d="M2,20.67C2,19.04,3.5,18,5.97,18L8.51,18C9.06,19.59,10.05,20.97,11.32,22L2,22Z" fill="currentColor"/><path d="M8.17,10.03C8.17,10.03,7.04,9.23,6.17,9.23C5.27,9.23,4.7,9.73,4.7,10.5C4.7,11.57,6.2,12.53,6.87,13.3L8.15,13.3C8.05,13.86,8,14.43,8,15C8,15.57,8.05,16.13,8.15,16.67L4.9,16.67C4.4,15.77,3.67,15.2,2.97,14.5C1.8,13.33,0.64,12.13,0.64,10.27C0.64,7.5,2.51,5.7,5.04,5.7C6.64,5.7,7.71,6.17,8.64,6.87L9.04,4L6.34,4L6.34,2L9.04,2L9.04,0L11.01,0L11.01,2L13.64,2L13.64,4L11.04,4L11.34,6.87C11.92,6.44,12.55,6.09,13.33,5.89L10.74,8.53C9.26,10.04,8.48,11.58,8.17,13.18Z" fill="currentColor"/><path d="M22.9,18.73C22.53,19.23,22.07,19.26,21.63,18.9L21.53,18.8C21.1,18.43,21.03,17.93,21.36,17.43C21.76,16.7,21.99,15.86,21.99,15C21.99,12.23,19.72,10,16.96,10L16.96,8C20.79,8,23.99,11.17,23.99,15C23.99,16.37,23.59,17.67,22.89,18.73Z" fill="currentColor"/><path d="M17.03,20L17.03,22C13.2,22,10,18.83,10,15C10,13.63,10.4,12.33,11.1,11.27C11.47,10.77,11.93,10.74,12.37,11.1L12.47,11.2C12.9,11.57,12.97,12.07,12.64,12.57C12.24,13.3,12.01,14.14,12.01,15C12.01,17.77,14.28,20,17.04,20Z" fill="currentColor"/><path d="M18,23.66C17.37,24.23,17,24.06,17,23.23L17,18.76C17,17.93,17.37,17.76,18,18.33L20.53,20.56C20.86,20.86,20.86,21.13,20.53,21.43Z" fill="currentColor"/><path d="M17,11.24C17,12.07,16.63,12.24,16,11.67L13.47,9.44C13.14,9.14,13.14,8.87,13.47,8.57L16,6.34C16.63,5.77,17,5.94,17,6.77Z" fill="currentColor"/><path d="M17,11.24C17,12.07,16.63,12.24,16,11.67L13.47,9.44C13.14,9.14,13.14,8.87,13.47,8.57L16,6.34C16.63,5.77,17,5.94,17,6.77Z" fill="currentColor"/></svg>