<svg xmlns="http://www.w3.org/2000/svg" viewBox="0 0 24 24"><path d="M3.5,22L3.5,19.37C3.5,17.87,3.97,16.9,5.9,16.34L3.17,9.14C2.07,8.61,1.37,7.51,1.37,6.27C1.37,4.5,2.77,3.14,4.54,3.14C5.04,3.14,5.54,3.27,5.97,3.51L5.97,3.41C5.97,1.61,7.37,0.18,9.17,0.18C10.4,0.18,11.47,0.88,12,1.91C12.53,0.88,13.6,0.18,14.83,0.18C16.63,0.18,18.03,1.61,18.03,3.41L18.03,3.51C18.46,3.28,18.96,3.14,19.46,3.14C21.29,3.14,22.66,4.61,22.66,6.27C22.66,7.47,21.93,8.6,20.83,9.17L18.1,16.34C20.03,16.91,20.5,17.87,20.5,19.37L20.5,22Z" fill="currentColor"/><path d="M5,20.5L19,20.5L19,19.37C19,17.8,17.97,17.34,12,17.34C6.03,17.34,5,17.81,5,19.37Z" fill="currentColor"/><path d="M4.33,7.97L7.4,16.07C8.57,15.9,10.07,15.84,12,15.84C13.93,15.84,15.43,15.91,16.6,16.07L19.67,7.97C20.57,7.8,21.17,7.04,21.17,6.27C21.17,5.44,20.47,4.64,19.47,4.64C18.6,4.64,17.87,5.44,17.87,6.34C17.87,6.57,17.94,7.01,18.2,7.31L15.67,10.84L15.37,5.04C16.1,4.81,16.54,4.27,16.54,3.41C16.54,2.44,15.81,1.68,14.84,1.68C13.91,1.68,13.14,2.48,13.14,3.41C13.14,3.98,13.44,4.51,13.84,4.81L12.01,10.24L10.18,4.81C10.65,4.48,10.88,3.91,10.88,3.41C10.88,2.44,10.11,1.68,9.18,1.68C8.21,1.68,7.48,2.45,7.48,3.41C7.48,4.14,7.85,4.78,8.65,5.04L8.35,10.84L5.85,7.31C6.05,7.04,6.15,6.68,6.15,6.34C6.15,5.41,5.38,4.64,4.55,4.64C3.62,4.64,2.88,5.34,2.88,6.27C2.88,7.07,3.48,7.8,4.35,7.97Z" fill="currentColor"/></svg>