<svg xmlns="http://www.w3.org/2000/svg" viewBox="0 0 24 24"><path d="M2.17,10.67L9.86,9.99L9.51,12.02L2.18,11.37C-0.29,11.14,-0.29,10.87,2.18,10.67Z" fill="currentColor"/><path d="M3.3,5.8L8.24,5.33L8.34,6.97C8.34,6.99,8.34,7,8.34,7.02L3.3,6.54C0.87,6.31,0.87,6.04,3.3,5.81Z" fill="currentColor"/><path d="M8.98,14.95L8.76,16.23C8.51,16.35,8.27,16.48,8.05,16.63L4.63,16.27C2.2,16,2.2,15.67,4.63,15.4Z" fill="currentColor"/><path d="M10.67,16.67L11.87,9.34L20.14,9.34L21.34,16.67Z" fill="currentColor"/><path d="M8,20.67C8,18.9,9.33,18,11.97,18L20,18C22.63,18,24,18.9,24,20.67L24,22L8,22Z" fill="currentColor"/><path d="M19.93,8L12.06,8C10.86,7.6,10.39,6.77,10.33,5.9L10.1,2.97C10.7,2.64,11.37,2.47,12.1,2.47L12.63,4.67L14.33,4.67L14.66,2.14C14.66,2.14,15.36,2.01,15.99,2.01C16.62,2.01,17.32,2.14,17.32,2.14L17.62,4.67L19.35,4.67L19.88,2.47C20.61,2.47,21.28,2.64,21.88,2.97L21.65,5.9C21.58,6.77,21.12,7.6,19.92,8Z" fill="currentColor"/></svg>