<svg xmlns="http://www.w3.org/2000/svg" viewBox="0 0 24 24"><path d="M23.5,5.47L20.57,7.87C20.17,8.2,20,8.14,20,7.6L20,6L19.47,6C18.72,6,18.68,6.02,18.29,6.66L17.18,8.44L15.96,6.73C15.95,6.71,15.94,6.7,15.93,6.68L16.6,5.61C17.27,4.52,18.23,4,19.48,4L20.01,4L20.01,2.37C20.01,1.87,20.18,1.8,20.58,2.14L23.51,4.54C23.91,4.87,23.91,5.14,23.51,5.47Z" fill="currentColor"/><path d="M13.55,10.47L15.15,7.9L16.41,9.66L15.58,11L16.04,11.74C15.36,12.08,14.35,12.32,14.03,12.29L13.56,11.53L14.41,11Z" fill="currentColor"/><path d="M20.57,19.87C20.17,20.2,20,20.14,20,19.6L20,18L19.47,18C18.22,18,17.26,17.49,16.59,16.39L14.75,13.43C15.41,13.35,16.15,13.17,16.75,12.86L18.29,15.34C18.68,15.98,18.72,16,19.47,16L20,16L20,14.37C20,13.87,20.17,13.8,20.57,14.14L23.5,16.54C23.9,16.87,23.9,17.14,23.5,17.47Z" fill="currentColor"/><path d="M13.93,12.27C13.26,11.64,13.23,10.64,11.8,10.6C10.7,10.6,9.73,9.6,9.2,9.03L8.63,8.4C8.46,8.63,8.03,9.2,8.03,9.9C8.03,10.8,8.86,11.67,9.66,12.33C10.69,13.16,12.56,14.66,12.76,16.66L2.69,16.66C2.49,15.79,1.49,12.89,1.49,11.29C1.49,5.36,5.52,2.72,9.12,2.49L10.95,0.66C11.22,0.66,11.48,0.93,11.55,1.23L11.75,2.23C11.95,2.76,12.32,3.1,12.85,3.56C13.38,3.99,13.55,4.43,13.65,4.73C14.08,5.83,14.08,6.43,14.85,7.5L16.52,9.83C16.92,10.4,16.89,11.06,16.45,11.46C15.82,11.99,14.08,12.39,13.92,12.26Z" fill="currentColor"/><path d="M16,22L0,22L0,20.67C0,19.04,1.5,18,4,18L12.03,18C14.5,18,16,19.03,16,20.67Z" fill="currentColor"/></svg>