<svg xmlns="http://www.w3.org/2000/svg" viewBox="0 0 24 24" fill="currentColor"><path d="M9.18,16.5C8.8,15.83,8.25,15.4,7.73,14.88C6.85,14,5.98,13.1,5.98,11.7C5.98,9.63,7.38,8.27,9.28,8.27C10.48,8.27,11.28,8.63,11.98,9.15L12.28,7L10.25,7L10.25,5.5L12.28,5.5L12.28,4L13.76,4L13.76,5.5L15.73,5.5L15.73,7L13.78,7L14,9.15C14.7,8.63,15.5,8.27,16.7,8.27C18.68,8.27,20.03,9.72,20.03,11.7C20.03,13.11,19.13,14,18.25,14.88C17.72,15.4,17.18,15.83,16.8,16.5ZM7,20.5L7,19.5C7,18.28,8.13,17.5,9.98,17.5L16,17.5C17.88,17.5,19,18.27,19,19.5L19,20.5ZM14.37,13.98L15.35,13.98C15.85,13.4,16.97,12.68,16.97,11.88C16.97,11.3,16.55,10.92,15.87,10.92C15.22,10.92,14.37,11.52,14.37,11.52ZM11.63,13.98L11.63,11.52C11.63,11.52,10.78,10.92,10.13,10.92C9.45,10.92,9.02,11.3,9.02,11.88C9.02,12.68,10.15,13.4,10.65,13.98Z"/></svg>