<svg xmlns="http://www.w3.org/2000/svg" viewBox="0 0 24 24"><path d="M2,20.67C2,19.1,3.07,18.2,5.13,18.04L1.5,7.01C0.63,6.88,0,6.14,0,5.28C0,4.38,0.73,3.58,1.67,3.58C2.54,3.58,3.3,4.35,3.3,5.31C3.3,5.71,3.2,6.04,2.93,6.34L5.96,10.27L6.33,4.17C5.5,3.8,5.13,3.27,5.13,2.47C5.13,1.47,5.9,0.67,6.9,0.67C7.9,0.67,8.63,1.47,8.63,2.47C8.63,3.07,8.43,3.57,7.96,3.94L9.99,10.01L10.04,9.87C10.01,10.11,9.99,10.38,9.99,10.68L9.99,15.95C9.99,18.7,10.23,19.85,12.88,22.02L1.99,22.02Z" fill="currentColor"/><path d="M11.3,2.47C11.3,1.54,12.07,0.67,13.07,0.67C14.07,0.67,14.84,1.47,14.84,2.47C14.84,3.27,14.47,3.8,13.64,4.17L13.88,7.79C13.53,7.87,13.14,7.93,12.68,7.97C11.51,7.99,10.79,8.23,10.4,8.82L12.01,3.93C11.54,3.56,11.31,3.06,11.31,2.46Z" fill="currentColor"/><path d="M16.63,5.3C16.63,4.4,17.4,3.57,18.3,3.57C19.33,3.57,20,4.5,20,5.27C20,5.64,19.85,6.02,19.6,6.34C18.59,5.56,17.78,5.46,16.82,6.05C16.69,5.83,16.63,5.58,16.63,5.31Z" fill="currentColor"/><path d="M24,15.97L24,10C21.2,10,20.37,9.6,18,7.3C15.7,9.6,14.83,10,12,10L12,15.97C12,19.37,12.37,19.84,18,23.47C23.63,19.9,24,19.44,24,15.97Z" fill="currentColor"/></svg>