<svg xmlns="http://www.w3.org/2000/svg" viewBox="0 0 24 24" fill="currentColor"><path d="M6.63,20.5L6.63,18.68C6.63,17.48,6.93,16.75,8.18,16.33L9.05,10.78C8.43,10.35,8.06,9.71,7.98,8.88L7.81,5.76C9.31,5.28,11.16,5.01,13.06,5.01C14.81,5.01,16.64,5.23,18.29,5.73L18.04,8.91C17.96,9.71,17.59,10.35,16.97,10.78L17.84,16.33C19.1,16.76,19.4,17.48,19.4,18.68L19.4,20.5ZM7.75,19.38L18.25,19.38L18.25,18.68C18.25,17.27,17.55,17,13,17C8.45,17,7.75,17.28,7.75,18.68ZM10.13,11.2L9.36,16.05C10.25,15.92,11.46,15.88,13.01,15.88C14.56,15.88,15.76,15.93,16.66,16.05L15.89,11.2C13.88,10.98,12.14,10.98,10.14,11.2ZM10.15,10.07C12.1,9.85,13.9,9.85,15.85,10.07C16.6,9.83,16.85,9.35,16.9,8.8L17.07,6.42C16.72,6.33,16.02,6.18,15.59,6.15L15.24,7.79L14.14,7.79L13.97,6.02C13.54,5.96,12.45,5.96,12,6.02L11.85,7.79L10.74,7.79L10.39,6.15C9.94,6.17,9.27,6.32,8.96,6.42L9.09,8.8C9.14,9.35,9.39,9.83,10.14,10.07Z"/></svg>