<svg xmlns="http://www.w3.org/2000/svg" viewBox="0 0 24 24" fill="currentColor"><path d="M5.08,12.6C4.76,12.3,4.73,11.8,5.03,11.38L6.28,9.63C6.86,8.83,6.86,8.38,7.18,7.55C7.25,7.33,7.38,7.01,7.78,6.68C8.18,6.33,8.46,6.08,8.6,5.68L8.75,4.93C8.81,4.71,9,4.5,9.2,4.5L10.58,5.88C12.04,5.96,13.56,6.56,14.69,7.71L12.05,10.4C11.8,10.65,11.58,10.91,11.38,11.17C11.3,10.77,11.06,10.44,10.95,10.3L10.52,10.77C10.13,11.2,9.4,11.95,8.57,11.95C7.5,11.97,7.47,12.72,6.98,13.2C6.85,13.3,5.55,13,5.08,12.6ZM5.5,19.5C5.5,18.46,6.32,17.74,7.71,17.55C7.73,15.23,9.32,13.95,10.18,13.25C10.23,13.21,10.28,13.17,10.33,13.13C10.1,13.82,10.01,14.53,10.01,15.26C10.01,17.39,10.97,19.27,12.5,20.51L5.51,20.51ZM21.17,18.05C20.9,18.42,20.55,18.45,20.22,18.18L20.15,18.1C19.82,17.82,19.77,17.45,20.02,17.07C20.32,16.52,20.49,15.89,20.49,15.25C20.49,13.17,18.79,11.5,16.72,11.5L16.72,10C19.59,10,21.99,12.38,21.99,15.25C21.99,16.28,21.69,17.25,21.17,18.05ZM16.77,19L16.77,20.5C13.9,20.5,11.5,18.12,11.5,15.25C11.5,14.22,11.8,13.25,12.32,12.45C12.6,12.08,12.95,12.05,13.28,12.32L13.35,12.4C13.68,12.68,13.73,13.05,13.48,13.43C13.18,13.98,13.01,14.61,13.01,15.25C13.01,17.33,14.71,19,16.78,19ZM17.5,21.75C17.03,22.17,16.75,22.04,16.75,21.42L16.75,18.07C16.75,17.45,17.03,17.32,17.5,17.75L19.4,19.42C19.64,19.65,19.64,19.85,19.4,20.07ZM16.75,12.43C16.75,13.05,16.47,13.18,16,12.75L14.1,11.08C13.86,10.85,13.86,10.65,14.1,10.43L16,8.75C16.47,8.33,16.75,8.45,16.75,9.08ZM16.75,12.43C16.75,13.05,16.47,13.18,16,12.75L14.1,11.08C13.86,10.85,13.86,10.65,14.1,10.43L16,8.75C16.47,8.33,16.75,8.45,16.75,9.08Z"/></svg>