<svg xmlns="http://www.w3.org/2000/svg" viewBox="0 0 24 24" fill="currentColor"><path d="M9.75,19.09C10.48,19.09,11.16,19.77,11.16,20.5C11.16,21.26,10.48,21.94,9.75,21.94C9,21.94,8.31,21.26,8.31,20.5C8.31,19.77,9,19.09,9.75,19.09ZM5.5,14.84C6.23,14.84,6.91,15.52,6.91,16.25C6.91,17,6.23,17.69,5.5,17.69C4.74,17.69,4.06,17,4.06,16.25C4.06,15.52,4.74,14.84,5.5,14.84ZM16.25,19.09C17,19.09,17.69,19.77,17.69,20.5C17.69,21.26,17,21.94,16.25,21.94C15.52,21.94,14.84,21.26,14.84,20.5C14.84,19.77,15.52,19.09,16.25,19.09ZM5.5,8.31C6.23,8.31,6.91,9,6.91,9.75C6.91,10.48,6.23,11.16,5.5,11.16C4.74,11.16,4.06,10.48,4.06,9.75C4.06,9,4.74,8.31,5.5,8.31ZM9.75,4.06C10.48,4.06,11.16,4.74,11.16,5.5C11.16,6.23,10.48,6.91,9.75,6.91C9,6.91,8.31,6.23,8.31,5.5C8.31,4.74,9,4.06,9.75,4.06ZM20.5,14.84C21.26,14.84,21.94,15.52,21.94,16.25C21.94,17,21.26,17.69,20.5,17.69C19.77,17.69,19.09,17,19.09,16.25C19.09,15.52,19.77,14.84,20.5,14.84ZM16.25,4.06C17,4.06,17.69,4.74,17.69,5.5C17.69,6.23,17,6.91,16.25,6.91C15.52,6.91,14.84,6.23,14.84,5.5C14.84,4.74,15.52,4.06,16.25,4.06ZM20.5,8.31C21.26,8.31,21.94,9,21.94,9.75C21.94,10.48,21.26,11.16,20.5,11.16C19.77,11.16,19.09,10.48,19.09,9.75C19.09,9,19.77,8.31,20.5,8.31ZM10.43,12.95C10.35,12.97,9.55,12.82,9.25,12.52C9.02,12.37,9.02,12.05,9.25,11.77L10,10.7C10.35,10.17,10.35,9.89,10.55,9.37C10.6,9.24,10.68,9.05,10.98,8.87C11.18,8.62,11.35,8.47,11.48,8.21L11.55,7.77C11.61,7.62,11.73,7.49,11.85,7.49L12.68,8.34C14.4,8.46,16.28,9.69,16.28,12.46C16.28,13.29,15.73,14.76,15.55,15.61C16.47,15.76,17,16.16,17,16.86L17,17.48L9.48,17.48L9.48,16.86C9.48,16.16,10,15.76,10.88,15.61C10.88,13.36,13.18,12.93,13.18,11.81C13.18,11.48,13.01,11.21,12.9,11.08L12.68,11.38C12.43,11.63,11.98,12.11,11.43,12.11C10.75,12.11,10.75,12.61,10.43,12.93Z"/></svg>