<svg xmlns="http://www.w3.org/2000/svg" viewBox="0 0 24 24"><path d="M8.4,12.17C8.3,12.24,7.27,12,6.9,11.67C6.63,11.44,6.6,11.04,6.87,10.7L7.87,9.3C8.3,8.67,8.3,8.3,8.57,7.63C8.64,7.46,8.74,7.2,9.07,6.93C9.37,6.66,9.6,6.46,9.7,6.13L9.83,5.53C9.86,5.36,10.03,5.2,10.2,5.2L11.3,6.3C13.5,6.43,15.93,8.03,15.93,11.37C15.93,12.94,15.1,14.94,15,15.97L9,16.07C8.8,13.94,10.23,12.8,10.97,12.2C11.47,11.8,11.97,11.27,11.97,10.73C11.97,10.33,11.7,9.96,11.6,9.83L11.27,10.23C10.94,10.56,10.37,11.16,9.7,11.16C8.83,11.16,8.8,11.76,8.4,12.16Z" fill="currentColor"/><path d="M7.23,17.2C7.23,16.23,8.13,15.6,9.6,15.6L14.43,15.6C15.93,15.6,16.83,16.23,16.83,17.2L16.83,18L7.23,18Z" fill="currentColor"/><path d="M23.13,9.1C24.03,9.1,24.23,9.5,23.6,10.17L21,12.94C20.37,13.61,20,13.47,20,12.54L20,6.47C20,4.64,19.37,4,17.53,4L6.5,4C4.67,4,4,4.63,4,6.47L4,7.1C4,7.7,3.67,8.03,3.07,8.03L2.94,8.03C2.34,8.03,2.01,7.7,2.01,7.1L2.01,6.97C2.01,3.3,3.31,2,6.98,2L17.05,2C20.72,2,22.02,3.3,22.02,6.97L22.02,9.1Z" fill="currentColor"/><path d="M0.87,14.9C-0.03,14.9,-0.23,14.5,0.4,13.83L3,11.06C3.63,10.39,4,10.53,4,11.46L4,17.49C4,19.32,4.67,19.99,6.5,19.99L17.53,19.99C19.36,19.99,20,19.32,20,17.49L20,16.89C20,16.29,20.33,15.96,20.93,15.96L21.06,15.96C21.66,15.96,21.99,16.29,21.99,16.89L21.99,17.02C21.99,20.69,20.69,21.99,17.02,21.99L6.95,21.99C3.28,21.99,1.98,20.69,1.98,17.02L1.98,14.89Z" fill="currentColor"/></svg>