<svg xmlns="http://www.w3.org/2000/svg" viewBox="0 0 24 24"><path d="M1.1,13.27C1.1,12.4,1.7,11.9,2.83,11.84L0.83,5.74C0.33,5.67,0,5.27,0,4.81C0,4.31,0.4,3.88,0.93,3.88C1.4,3.88,1.8,4.28,1.8,4.81C1.8,5.04,1.77,5.24,1.6,5.38L3.27,7.55L3.5,4.22C3.03,4.02,2.83,3.72,2.83,3.29C2.83,2.72,3.23,2.29,3.8,2.29C4.33,2.29,4.73,2.72,4.73,3.29C4.73,3.62,4.63,3.89,4.36,4.09L5.49,7.42L6.59,4.09C6.32,3.89,6.19,3.62,6.19,3.29C6.19,2.76,6.62,2.29,7.19,2.29C7.72,2.29,8.16,2.72,8.16,3.29C8.16,3.72,7.96,4.02,7.49,4.22L7.72,7.55L9.35,5.38C9.22,5.25,9.12,5.05,9.12,4.81C9.12,4.34,9.55,3.88,10.05,3.88C10.62,3.88,10.98,4.38,10.98,4.81C10.98,5.24,10.65,5.68,10.15,5.74L8.15,11.84C9.28,11.94,9.88,12.41,9.88,13.27L9.88,14L1.08,14Z" fill="currentColor"/><path d="M22.9,13.27L22.9,14L14.1,14L14.1,13.27C14.1,12.4,14.7,11.94,15.83,11.84L13.83,5.74C13.33,5.67,13,5.24,13,4.81C13,4.38,13.37,3.88,13.93,3.88C14.43,3.88,14.86,4.35,14.86,4.81C14.86,5.04,14.76,5.24,14.63,5.38L16.26,7.55L16.49,4.22C16.02,4.02,15.82,3.72,15.82,3.29C15.82,2.72,16.25,2.29,16.79,2.29C17.36,2.29,17.79,2.76,17.79,3.29C17.79,3.62,17.66,3.89,17.39,4.09L18.49,7.42L19.62,4.09C19.35,3.89,19.25,3.62,19.25,3.29C19.25,2.72,19.65,2.29,20.18,2.29C20.75,2.29,21.15,2.72,21.15,3.29C21.15,3.72,20.95,4.02,20.52,4.22L20.72,7.55L22.39,5.38C22.22,5.25,22.19,5.05,22.19,4.81C22.19,4.28,22.59,3.88,23.09,3.88C23.59,3.88,23.99,4.31,23.99,4.81C23.99,5.28,23.66,5.68,23.16,5.74L21.16,11.84C22.29,11.91,22.89,12.41,22.89,13.27Z" fill="currentColor"/><path d="M9.36,24C8.76,24,8.59,23.7,8.86,23.17L11.56,17.97C11.83,17.44,12.16,17.44,12.43,17.97L15.13,23.17C15.4,23.7,15.23,24,14.63,24Z" fill="currentColor"/><path d="M0.94,18C0.34,18,0.01,17.67,0.01,17.07L0.01,16.94C0.01,16.34,0.34,16.01,0.94,16.01L23.07,16.01C23.67,16.01,24,16.34,24,16.94L24,17.07C24,17.67,23.67,18,23.07,18Z" fill="currentColor"/></svg>