<svg xmlns="http://www.w3.org/2000/svg" viewBox="0 0 24 24" fill="currentColor"><path d="M4.82,13.95C4.82,13.3,5.27,12.92,6.12,12.88L4.62,8.3C4.25,8.25,4,7.95,4,7.61C4,7.23,4.3,6.91,4.7,6.91C5.05,6.91,5.35,7.21,5.35,7.61C5.35,7.78,5.33,7.93,5.2,8.04L6.45,9.66L6.63,7.17C6.27,7.02,6.12,6.79,6.12,6.47C6.12,6.04,6.42,5.72,6.85,5.72C7.25,5.72,7.55,6.04,7.55,6.47C7.55,6.72,7.47,6.92,7.27,7.07L8.12,9.57L8.94,7.07C8.74,6.92,8.64,6.72,8.64,6.47C8.64,6.07,8.96,5.72,9.39,5.72C9.79,5.72,10.12,6.04,10.12,6.47C10.12,6.79,9.97,7.02,9.62,7.17L9.79,9.66L11.01,8.04C10.92,7.94,10.84,7.79,10.84,7.61C10.84,7.26,11.16,6.91,11.54,6.91C11.96,6.91,12.23,7.29,12.23,7.61C12.23,7.93,11.99,8.26,11.61,8.31L10.11,12.88C10.96,12.96,11.41,13.31,11.41,13.95L11.41,14.5L4.81,14.5ZM21.17,14.5L14.57,14.5L14.57,13.95C14.57,13.3,15.02,12.96,15.87,12.88L14.37,8.3C14,8.25,13.75,7.93,13.75,7.61C13.75,7.29,14.03,6.91,14.45,6.91C14.82,6.91,15.14,7.26,15.14,7.61C15.14,7.78,15.07,7.93,14.97,8.04L16.2,9.66L16.37,7.17C16.02,7.02,15.86,6.79,15.86,6.47C15.86,6.04,16.19,5.72,16.59,5.72C17.02,5.72,17.34,6.07,17.34,6.47C17.34,6.72,17.24,6.92,17.04,7.07L17.87,9.57L18.71,7.07C18.51,6.92,18.44,6.72,18.44,6.47C18.44,6.04,18.74,5.72,19.13,5.72C19.56,5.72,19.86,6.04,19.86,6.47C19.86,6.79,19.71,7.02,19.39,7.17L19.54,9.66L20.79,8.04C20.66,7.94,20.64,7.79,20.64,7.61C20.64,7.21,20.94,6.91,21.32,6.91C21.69,6.91,21.99,7.23,21.99,7.61C21.99,7.96,21.74,8.26,21.37,8.31L19.87,12.88C20.72,12.93,21.17,13.31,21.17,13.95ZM11.02,22C10.57,22,10.44,21.77,10.64,21.38L12.67,17.48C12.87,17.08,13.12,17.08,13.32,17.48L15.35,21.38C15.55,21.78,15.42,22,14.97,22ZM4.71,17.5C4.26,17.5,4.01,17.25,4.01,16.8L4.01,16.71C4.01,16.25,4.26,16.01,4.71,16.01L21.3,16.01C21.75,16.01,22,16.25,22,16.71L22,16.8C22,17.25,21.75,17.5,21.3,17.5Z"/></svg>