<svg xmlns="http://www.w3.org/2000/svg" viewBox="0 0 24 24" fill="currentColor"><path d="M8.5,13.2C8.37,13.3,7.07,13,6.6,12.6C6.28,12.3,6.25,11.8,6.55,11.38L7.8,9.63C8.38,8.83,8.38,8.38,8.7,7.55C8.78,7.33,8.9,7.01,9.3,6.68C9.7,6.33,9.98,6.08,10.13,5.68L10.28,4.93C10.33,4.71,10.52,4.5,10.73,4.5L12.1,5.88C14.88,6.05,17.9,8.03,17.9,12.23C17.9,14.15,16.85,16.67,16.72,17.95L9.24,18.1C9,15.42,10.77,14,11.7,13.25C12.29,12.75,12.92,12.1,12.92,11.43C12.92,10.9,12.6,10.47,12.47,10.3L12.04,10.77C11.64,11.2,10.92,11.95,10.09,11.95C9.02,11.97,8.99,12.72,8.49,13.2ZM7.02,19.5C7.02,18.28,8.15,17.5,10,17.5L16.02,17.5C17.9,17.5,19.02,18.27,19.02,19.5L19.02,20.5L7.02,20.5ZM22,9.5L22,15C22,15.62,21.72,15.75,21.25,15.32L18.53,12.92C18.05,12.49,18.05,12,18.53,11.57L21.25,9.17C21.72,8.74,22,8.87,22,9.49ZM4.75,15.33C4.28,15.75,4,15.63,4,15L4,9.51C4,8.88,4.28,8.76,4.75,9.18L7.47,11.58C7.95,12.01,7.95,12.51,7.47,12.93Z"/></svg>