<svg xmlns="http://www.w3.org/2000/svg" viewBox="0 0 24 24"><path d="M3.33,22L3.33,19.4C3.33,17.6,3.86,16.43,5.6,15.77C5.67,15.17,5.83,14.64,6.03,14.17C4.93,14.1,3.73,13.64,3.03,13.04C1.83,12.01,1.66,10.24,2.63,8.91L4.1,6.88C4.57,6.25,4.3,6.48,4.9,4.91C5.1,4.34,5.43,3.68,6.17,3.04L6.54,2.77L6.67,2.1C7.04,0.57,8.7,-0.4,10.37,0.23L11.74,1.73C18.67,2.76,21.14,9.26,18.44,15.76C20.14,16.43,20.67,17.59,20.67,19.39L20.67,21.99Z" fill="currentColor"/><path d="M5.33,19.4L5.33,20L18.66,20L18.66,19.4C18.66,17.4,17.43,17,11.99,17C6.52,17,5.32,17.4,5.32,19.4Z" fill="currentColor"/><path d="M5.73,8.03L4.26,10.06C3.89,10.56,3.93,11.16,4.33,11.49C4.86,11.96,6.4,12.32,6.53,12.19C7.1,11.66,7.16,10.76,8.4,10.76C9.43,10.76,10.43,9.63,11.17,8.79C12.17,10.22,11.74,11.06,10.64,11.96C9.14,13.16,8.01,13.89,7.81,15.23C8.94,15.06,10.31,15,12.01,15C13.84,15,15.31,15.1,16.48,15.27C19.01,9.57,16.91,4.17,10.78,3.64L9.31,2.04C8.98,2.04,8.71,2.24,8.64,2.54L8.44,3.41C8.27,3.88,7.94,4.18,7.47,4.58C7,4.98,6.87,5.35,6.77,5.61C6.4,6.58,6.4,7.11,5.74,8.04Z" fill="currentColor"/></svg>