<svg xmlns="http://www.w3.org/2000/svg" viewBox="0 0 24 24" fill="currentColor"><path d="M11.05,14.5L4.95,14.5C4.95,12.38,7.05,12.7,7.22,10.58L7.25,10.22L6.4,10.22C6.3,10.05,6.25,9.83,6.25,9.6L7.25,9C6.74,8.68,6.52,8.2,6.52,7.73C6.52,6.9,7.19,6.25,8,6.25C8.8,6.25,9.47,6.9,9.47,7.73C9.47,8.23,9.3,8.63,8.75,8.98L9.74,9.6C9.74,9.83,9.69,10.05,9.59,10.22L8.75,10.22L8.77,10.58C8.94,12.7,11.04,12.38,11.04,14.5ZM21.45,14.5L15.36,14.5C15.36,12.38,17.46,12.7,17.63,10.58L17.65,10.22L16.8,10.22C16.71,10.05,16.65,9.83,16.65,9.6L17.65,9C17.15,8.68,16.92,8.2,16.92,7.73C16.92,6.9,17.6,6.25,18.4,6.25C19.2,6.25,19.88,6.9,19.88,7.73C19.88,8.23,19.71,8.63,19.15,8.98L20.15,9.6C20.15,9.83,20.09,10.05,20,10.22L19.15,10.22L19.17,10.58C19.35,12.7,21.45,12.38,21.45,14.5ZM11.02,22C10.57,22,10.44,21.77,10.64,21.38L12.67,17.48C12.87,17.08,13.12,17.08,13.32,17.48L15.35,21.38C15.55,21.78,15.42,22,14.97,22ZM4.71,17.5C4.26,17.5,4.01,17.25,4.01,16.8L4.01,16.71C4.01,16.25,4.26,16.01,4.71,16.01L21.3,16.01C21.75,16.01,22,16.25,22,16.71L22,16.8C22,17.25,21.75,17.5,21.3,17.5Z"/></svg>