<svg xmlns="http://www.w3.org/2000/svg" viewBox="0 0 24 24" fill="currentColor"><path d="M4.05,16C4.05,12.93,7.11,13.4,7.38,10.3L7.43,9.8L6.18,9.8C6,9.5,5.93,9.2,5.93,8.9L7.43,8C6.7,7.5,6.36,6.85,6.36,6.15C6.36,4.97,7.33,3.99,8.51,3.99C9.69,3.99,10.66,4.97,10.66,6.15C10.66,6.24,10.65,6.34,10.65,6.43C9.87,7.11,9.36,8.1,9.36,9.15C9.36,9.49,9.46,9.94,9.65,10.4C9.66,10.54,9.69,10.68,9.72,10.81C8.91,11.84,9.09,13.06,10.09,13.95C9.66,14.59,8.86,15.2,8.19,15.99ZM8.55,19C8.55,15.92,11.61,16.4,11.88,13.3L11.93,12.8L10.68,12.8C10.5,12.5,10.43,12.2,10.43,11.9L11.93,11C11.2,10.5,10.86,9.85,10.86,9.14C10.86,7.97,11.83,6.99,13.01,6.99C14.19,6.99,15.16,7.97,15.16,9.14C15.16,9.24,15.15,9.34,15.15,9.43C14.37,10.11,13.86,11.1,13.86,12.14C13.86,12.49,13.96,12.94,14.15,13.4C14.16,13.54,14.19,13.68,14.21,13.81C13.41,14.84,13.59,16.06,14.59,16.95C14.16,17.59,13.36,18.2,12.69,18.99ZM21.95,22L13.05,22C13.05,18.92,16.1,19.4,16.37,16.3L16.42,15.8L15.17,15.8C15,15.5,14.92,15.2,14.92,14.9L16.42,14C15.69,13.49,15.35,12.85,15.35,12.14C15.35,10.97,16.32,9.99,17.5,9.99C18.68,9.99,19.65,10.97,19.65,12.14C19.65,12.89,19.38,13.42,18.58,13.97L20.08,14.89C20.08,15.19,20.01,15.49,19.83,15.79L18.58,15.79L18.63,16.29C18.91,19.39,21.96,18.92,21.96,21.99Z"/></svg>