<svg xmlns="http://www.w3.org/2000/svg" viewBox="0 0 24 24" fill="currentColor"><path d="M8.3,19.75L17.7,19.75C17.7,18.05,17.27,17.6,16.25,16.83C15.42,16.2,14.52,15.5,14.22,13.4L15.52,13.4C15.69,13.12,15.8,12.55,15.8,12.27L14.3,11.6C14.95,11.13,15.37,10.38,15.37,9.6C15.37,8.3,14.3,7.25,12.99,7.25C11.7,7.25,10.62,8.3,10.62,9.6C10.62,10.37,11.04,11.12,11.69,11.6L10.19,12.27C10.19,12.55,10.29,13.12,10.46,13.4L11.76,13.4C11.44,15.55,10.56,16.25,9.74,16.85C8.71,17.6,8.29,18.05,8.29,19.75ZM18.42,20.5L7.57,20.5C7.4,17.8,8.09,17.13,9.29,16.25C9.95,15.77,10.52,15.29,10.85,14.15L10.07,14.15C9.6,13.42,9.45,12.7,9.45,11.8L10.43,11.35C10.07,10.82,9.88,10.22,9.88,9.6C9.88,7.88,11.3,6.5,13.01,6.5C14.71,6.5,16.13,7.88,16.13,9.6C16.13,10.22,15.93,10.82,15.59,11.35L16.56,11.8C16.56,12.7,16.41,13.43,15.94,14.15L15.17,14.15C15.49,15.27,16.07,15.72,16.72,16.22C17.94,17.15,18.62,17.82,18.45,20.5Z"/></svg>