<svg xmlns="http://www.w3.org/2000/svg" viewBox="0 0 24 24"><path d="M5.13,19.87L5.13,20.5L18.86,20.5L18.86,19.87C18.86,17.84,17.59,17.4,11.99,17.4C6.39,17.4,5.12,17.83,5.12,19.87Z" fill="currentColor"/><path d="M3.63,22L3.63,19.87C3.63,16.97,5.16,15.9,12,15.9C18.83,15.9,20.37,16.97,20.37,19.87L20.37,22Z" fill="currentColor"/><path d="M7.37,17.37L5.87,17.37C5.87,12.74,9.27,11.77,11.04,11.37C10.17,12,9.34,12.5,8.31,12.5C8.44,12.5,7.98,13.07,7.41,13.6C6.51,14.4,4.18,13.77,3.18,12.87C2.11,12,2.05,10.5,2.81,9.4L4.38,7.3C4.88,6.57,4.68,6.57,5.25,5.13C5.42,4.66,5.68,4.1,6.38,3.46C6.75,3.16,6.88,3.03,6.91,2.96L7.08,2.16C7.35,0.96,8.68,0.16,10.01,0.63L11.48,2.2C18.78,3.2,21.25,10.43,17.41,17.5L16.08,16.77C19.51,10.47,17.48,4.24,10.75,3.64L9.25,2.01C8.92,2.01,8.62,2.21,8.55,2.51L8.35,3.41C8.18,3.91,7.85,4.21,7.35,4.61C6.88,5.04,6.75,5.41,6.65,5.68C6.25,6.68,6.25,7.25,5.58,8.18L4.05,10.28C3.68,10.81,3.72,11.41,4.15,11.75C4.68,12.25,6.25,12.62,6.42,12.48C6.99,11.95,7.05,11.01,8.32,11.01C9.39,11.01,10.42,9.84,11.19,8.98C13.52,12.25,7.39,12.41,7.39,17.38Z" fill="currentColor"/></svg>