<svg xmlns="http://www.w3.org/2000/svg" viewBox="0 0 24 24" fill="currentColor"><path d="M5.5,19.5C5.5,18.33,6.3,17.65,7.85,17.53L5.12,9.26C4.47,9.16,4,8.61,4,7.96C4,7.29,4.55,6.69,5.25,6.69C5.9,6.69,6.47,7.26,6.47,7.98C6.47,8.28,6.4,8.53,6.2,8.76L8.47,11.7L8.75,7.13C8.12,6.85,7.85,6.45,7.85,5.85C7.85,5.1,8.42,4.5,9.17,4.5C9.92,4.5,10.47,5.1,10.47,5.85C10.47,6.3,10.32,6.68,9.97,6.96L11.49,11.51L12.99,6.96C12.64,6.68,12.47,6.3,12.47,5.85C12.47,5.16,13.04,4.5,13.79,4.5C14.54,4.5,15.12,5.1,15.12,5.85C15.12,6.1,15.08,6.32,14.97,6.51C12.75,7.21,12.21,8.59,12.87,11.35L13.47,13.88C11.97,14.69,11.47,15.59,11.47,17.38L11.47,19.01L14.92,19.01L15.26,20.51L5.49,20.51ZM16.47,19L18.47,19L17.95,21.4C17.82,21.95,17.8,22,17.5,22C17.2,22,17.18,21.95,17.05,21.4ZM13,16.8C13,16.18,13.32,15.63,13.9,15.36L15.23,14.68L14.23,10.46C13.88,8.98,14.25,8.51,15.75,8.51L19.26,8.51C20.76,8.51,21.13,8.98,20.78,10.46L19.75,14.71L21.1,15.36C21.68,15.64,22,16.19,22,16.81L22,17.51L13,17.51Z"/></svg>