<svg xmlns="http://www.w3.org/2000/svg" viewBox="0 0 24 24" fill="currentColor"><path d="M18,20.5L8.01,20.5C8.01,18.75,9,17.9,9.98,17.07C10.9,16.3,11.78,15.57,11.78,14.13L11.78,13.5L10.38,13.5C10.2,13.2,10.13,12.85,10.13,12.51L11.78,11.51C10.98,10.96,10.6,10.21,10.6,9.41C10.6,8.08,11.67,7.01,13,7.01C14.33,7.01,15.4,8.08,15.4,9.41C15.4,10.21,15.03,10.96,14.22,11.48L15.87,12.51C15.87,12.87,15.8,13.21,15.63,13.51L14.22,13.51L14.22,14.13C14.22,15.58,15.1,16.31,16.02,17.08C17,17.91,18,18.75,18,20.51Z"/></svg>