<svg xmlns="http://www.w3.org/2000/svg" viewBox="0 0 24 24" fill="currentColor"><path d="M12.17,19.02L13.8,19.02L13.15,21.57C13.02,22,12.93,22,12.8,21.57ZM10.45,21.57C10.35,22,10.22,22,10.15,21.55L9.68,19.02L11.15,19.02ZM15.68,21.55C15.6,22,15.48,22,15.38,21.57L14.67,19.02L16.15,19.02ZM17.73,17.52L8.28,17.52C8.28,14.22,11.52,14.73,11.8,11.43L11.82,10.92L10.53,10.92C10.35,10.57,10.25,10.23,10.25,9.89L11.82,9C11.05,8.52,10.7,7.77,10.7,7.07C10.7,5.79,11.75,4.76,13,4.76C14.22,4.76,15.27,5.79,15.27,7.07C15.27,7.82,14.97,8.44,14.13,8.96L15.72,9.89C15.72,10.21,15.63,10.56,15.44,10.91L14.12,10.91L14.17,11.42C14.47,14.72,17.72,14.21,17.72,17.52Z"/></svg>