<svg xmlns="http://www.w3.org/2000/svg" viewBox="0 0 24 24"><path d="M0,22C0,19.33,1.2,18.03,2.7,16.77C4.13,15.57,5.47,14.47,5.47,12.24L5.47,11.31L3.3,11.31C3.03,10.84,2.93,10.31,2.93,9.78L5.46,8.25C4.23,7.38,3.66,6.25,3.66,5.02C3.66,2.99,5.29,1.35,7.33,1.35C9.36,1.35,11,2.98,11,5.02C11,6.25,10.43,7.39,9.2,8.22L11.3,9.52C9.29,10.96,8,13.32,8,16.02C8,18.43,9.03,20.56,10.67,22.02Z" fill="currentColor"/><path d="M20,16.03C20,13.76,18.27,12.03,16,12.03C13.73,12.03,12,13.76,12,16.03C12,18.3,13.73,20.03,16,20.03C18.27,20.03,20,18.3,20,16.03Z" fill="currentColor"/><path d="M10,16.03C10,12.73,12.7,10.03,16,10.03C19.3,10.03,22,12.73,22,16.03C22,19.33,19.3,22.03,16,22.03C12.7,22.03,10,19.33,10,16.03Z" fill="currentColor"/><path d="M23.6,23.43L23.47,23.56C23.04,23.99,22.57,23.99,22.14,23.56L18.44,19.86L19.91,18.39L23.61,22.09C24.04,22.52,24.04,22.99,23.61,23.42Z" fill="currentColor"/></svg>