<svg xmlns="http://www.w3.org/2000/svg" viewBox="0 0 24 24" fill="currentColor"><path d="M5.55,20.5L5.46,20.5C5.01,20.5,4.76,20.25,4.76,19.8L4.76,14.5C4.76,8.75,7.76,5.25,13.01,5.25C18.26,5.25,21.26,8.75,21.26,14.5L21.26,19.8C21.26,20.25,21.01,20.5,20.56,20.5L20.46,20.5C20.01,20.5,19.77,20.25,19.77,19.8L19.77,14.5C19.77,9.8,17.22,6.75,13.02,6.75C8.82,6.75,6.27,9.8,6.27,14.5L6.27,19.8C6.27,20.25,6.02,20.5,5.57,20.5ZM10.05,15.4C9.98,15.45,9.05,15.25,8.73,14.97C8.5,14.75,8.48,14.39,8.7,14.1L9.58,12.87C9.98,12.33,9.98,12,10.2,11.43C10.26,11.28,10.35,11.05,10.63,10.83C10.91,10.58,11.1,10.4,11.21,10.13L11.31,9.6C11.33,9.45,11.48,9.3,11.63,9.3L12.58,10.26C14.53,10.38,16.65,11.78,16.65,14.7C16.65,16.05,15.9,17.83,15.83,18.73L10.58,18.83C10.4,16.95,11.65,15.96,12.3,15.43C12.73,15.08,13.15,14.63,13.15,14.16C13.15,13.78,12.92,13.48,12.85,13.35L12.55,13.71C12.27,14,11.75,14.53,11.18,14.53C10.43,14.53,10.4,15.06,10.05,15.41ZM9.02,19.8C9.02,18.96,9.83,18.4,11.1,18.4L15.32,18.4C16.65,18.4,17.42,18.95,17.42,19.8L17.42,20.5L9.02,20.5Z"/></svg>