<svg xmlns="http://www.w3.org/2000/svg" viewBox="0 0 24 24"><path d="M16.8,23.47L15.77,18.21L14.94,21.44C14.77,22.01,14.64,22.01,14.51,21.44L13.77,18.01L10.39,18.01C9.18,14.88,11.04,12.36,12.73,10.91C12.99,10.7,13.2,10.53,13.36,10.4C11.93,9.19,11.82,7.25,13.02,5.96C12.82,5.43,12.71,4.91,12.71,4.48C12.71,2.15,14.78,0.01,17.14,0.01C19.51,0.01,21.57,2.14,21.57,4.48C21.57,4.93,21.46,5.43,21.27,5.92C22.45,7.22,22.33,9.15,20.89,10.38C21.05,10.52,21.25,10.69,21.52,10.91C22.95,12.1,24.67,14.34,23.75,18.02L20.24,18.02L19.48,21.45C19.35,22.02,19.21,22.02,19.05,21.45L18.23,18.27L17.18,23.48C17.05,24.05,16.91,24.05,16.81,23.48Z" fill="currentColor"/><path d="M11.27,22L0.74,22C0.74,20.1,1.24,19.57,2.34,18.77C3.27,18.14,4.24,17.27,4.61,14.8L3.18,14.8C2.88,14.33,2.88,13.97,2.88,13.63L4.55,12.86C3.82,12.36,3.38,11.46,3.38,10.59C3.38,9.12,4.55,7.99,6.01,7.99C7.48,7.99,8.64,9.12,8.64,10.59C8.64,11.46,8.21,12.36,7.47,12.86L9.17,13.63C9.17,14.03,9.17,14.33,8.84,14.8L7.41,14.8C7.78,17.27,8.74,18.07,9.68,18.73C10.78,19.56,11.28,20.1,11.28,22Z" fill="currentColor"/><path d="M22,16C22,14.2,21.23,13.27,20.27,12.43C19.3,11.63,18.4,10.9,18.4,9.4L18.4,8.8L19.87,8.8C20.07,8.5,20.14,8.1,20.14,7.67L18.41,6.6C19.21,6.07,19.61,5.37,19.61,4.47C19.61,3.14,18.51,2,17.14,2C15.81,2,14.71,3.13,14.71,4.47C14.71,5.37,15.11,6.07,15.91,6.67L14.18,7.67C14.18,8.1,14.31,8.5,14.45,8.8L15.92,8.8L15.92,9.4C15.92,10.9,15.02,11.63,14.02,12.43C13.09,13.26,12.02,14.2,12.02,16Z" fill="currentColor"/></svg>