<svg xmlns="http://www.w3.org/2000/svg" viewBox="0 0 24 24" fill="currentColor"><path d="M6.47,13.2C6.35,13.3,5.05,13,4.58,12.6C4.25,12.3,4.22,11.8,4.52,11.38L5.78,9.63C6.35,8.83,6.35,8.38,6.68,7.55C6.75,7.33,6.88,7.01,7.28,6.68C7.67,6.33,7.95,6.08,8.1,5.68L8.25,4.93C8.3,4.71,8.5,4.5,8.7,4.5L10.07,5.88C11.39,5.96,12.75,6.44,13.82,7.37C12.59,7.94,12.35,9.17,12.87,11.35L13.47,13.88C11.97,14.69,11.47,15.59,11.47,17.38L11.47,19.01L14.92,19.01L15.26,20.51L5,20.51L5,19.51C5,18.47,5.81,17.75,7.19,17.56C7.22,15.24,8.81,13.96,9.67,13.26C10.27,12.76,10.89,12.12,10.89,11.44C10.89,10.92,10.57,10.49,10.44,10.32L10.01,10.79C9.62,11.22,8.89,11.97,8.06,11.97C6.99,11.99,6.96,12.74,6.47,13.22ZM16.47,19L18.47,19L17.95,21.4C17.82,21.95,17.8,22,17.5,22C17.2,22,17.18,21.95,17.05,21.4ZM13,16.8C13,16.18,13.32,15.63,13.9,15.36L15.23,14.68L14.23,10.46C13.88,8.98,14.25,8.51,15.75,8.51L19.26,8.51C20.76,8.51,21.13,8.98,20.78,10.46L19.75,14.71L21.1,15.36C21.68,15.64,22,16.19,22,16.81L22,17.51L13,17.51Z"/></svg>