<svg xmlns="http://www.w3.org/2000/svg" viewBox="0 0 24 24"><path d="M5.5,21L18.5,21L18.5,20.23C18.5,18.43,16.97,18.06,12,18.06C7.2,18.06,5.5,18.39,5.5,20.23Z" fill="currentColor"/><path d="M4.5,22L4.5,20.23C4.5,17.53,6.87,17.06,12,17.06C17.27,17.06,19.5,17.56,19.5,20.23L19.5,22Z" fill="currentColor"/><path d="M9.5,17.47L8.77,18.14C6.67,15.77,6,14.07,6,11.84C6,8.47,8,6.31,10.2,4.04C9.97,3.57,9.83,3.17,9.83,2.74C9.83,1.51,10.7,0.51,12,0.51C13.23,0.51,14.1,1.74,14,2.81C12.77,4.28,11.47,7.21,11.37,11.58L12.74,11.58C12.81,8.45,13.37,6.08,14.37,4.58C16.27,6.41,18.07,8.95,18.07,11.85C18.07,13.92,17.37,15.92,15.3,18.15L14.57,17.48C16.5,15.38,17.07,13.71,17.07,11.85C17.07,9.75,16,7.88,14.6,6.28C14,7.78,13.7,9.88,13.73,12.58L10.36,12.58C10.26,7.75,11.63,4.25,12.99,2.45C12.92,1.98,12.49,1.52,11.99,1.52C11.29,1.52,10.82,2.05,10.82,2.75C10.82,3.15,10.99,3.52,11.42,4.18C8.99,6.71,6.99,8.65,6.99,11.85C6.99,13.88,7.52,15.25,9.49,17.48Z" fill="currentColor"/></svg>