<svg xmlns="http://www.w3.org/2000/svg" viewBox="0 0 24 24" fill="currentColor"><path d="M9.55,15.83L10.8,8.83L15.21,8.83L16.46,15.83ZM8.2,16.7C8.2,15.33,9,14.62,13,14.62C16.98,14.62,17.8,15.32,17.8,16.7L17.8,17.5L8.2,17.5ZM15.35,10.05L10.64,10.05C9.92,9.55,9.65,8.98,9.59,8.4L9.45,6.08C9.92,5.88,10.29,5.78,10.74,5.78L11.04,7.11L12.04,7.11L12.21,5.58C12.21,5.58,12.64,5.51,12.98,5.51C13.34,5.51,13.76,5.58,13.76,5.58L13.93,7.11L14.93,7.11L15.23,5.78C15.68,5.78,16.05,5.88,16.52,6.08L16.38,8.4C16.32,8.98,16.05,9.55,15.33,10.05ZM12,19.03L13.97,19.03L13.19,21.68C13.07,22.11,12.92,22.11,12.8,21.68ZM10.58,21.12C10.45,21.55,10.3,21.55,10.15,21.12L9.47,19.02L11.25,19.02ZM15.87,21.12C15.72,21.55,15.57,21.57,15.42,21.12L14.72,19.02L16.55,19.02Z"/></svg>