<svg xmlns="http://www.w3.org/2000/svg" viewBox="0 0 24 24" fill="currentColor"><path d="M5.37,20.5L5.37,19.1C5.37,18.1,5.62,17.5,6.45,17.15C6.2,16.15,3.99,15.02,3.99,12.57C3.99,10.3,5.57,8.99,7.39,8.87L7.39,6.05L9.06,6.05L9.06,4.37L12.44,4.37L12.44,6.05L13.09,6.05L13.09,7.04L12.44,7.04L11.41,7.04L11.41,5.37L10.08,5.37L10.08,7.04L8.38,7.04L8.38,8.39L10.11,8.39L10.11,8.42C9.37,8.74,8.73,9.26,8.28,9.92C6.64,9.61,4.98,10.55,4.98,12.57C4.98,14.65,7.03,15.44,7.41,16.87C7.94,16.77,8.59,16.73,9.39,16.7C9.4,16.71,9.4,16.72,9.41,16.72C9.51,16.86,9.62,17,9.72,17.12C9.48,17.3,9.28,17.49,9.1,17.7C6.87,17.75,6.39,18.01,6.39,19.09L6.39,19.49L8.37,19.49C8.37,19.52,8.37,19.55,8.37,19.58L8.37,20.48ZM16.5,14.65L17.35,14.65C17.8,14.15,18.83,13.5,18.83,12.77C18.83,12.25,18.43,11.93,17.83,11.93C17.25,11.93,16.5,12.45,16.5,12.45ZM14.03,14.65L14.03,12.45C14.03,12.45,13.28,11.93,12.68,11.93C12.08,11.93,11.7,12.25,11.7,12.77C11.7,13.5,12.7,14.15,13.15,14.65ZM9.87,20.5L9.87,19.6C9.87,18.65,10.68,18,11.97,17.82C11.62,17.02,11.07,16.42,10.62,15.82C9.74,14.67,8.97,13.87,8.97,12.62C8.97,10.74,10.22,9.54,11.92,9.54C12.99,9.54,13.7,9.84,14.12,10.09L14.59,8.39L13.01,8.39L13.01,7.04L14.59,7.04L14.59,5.48L15.92,5.48L15.92,7.04L17.49,7.04L17.49,8.39L15.94,8.39L16.37,10.09C16.77,9.84,17.49,9.54,18.56,9.54C20.34,9.54,21.54,10.84,21.54,12.62C21.54,13.87,20.74,14.66,19.87,15.82C19.42,16.42,18.84,17.02,18.52,17.82C19.85,18,20.62,18.65,20.62,19.6L20.62,20.5Z"/></svg>