<svg xmlns="http://www.w3.org/2000/svg" viewBox="0 0 24 24" fill="currentColor"><path d="M4.05,19L4.05,18.17C4.05,17.28,4.38,16.67,5.62,16.34L6.51,11.32C5.81,10.8,5.53,10.24,5.51,9.65L5.36,7.27C5.83,7.07,6.23,6.97,6.69,6.97L6.99,8.32L8.01,8.32L8.19,6.77C8.19,6.77,8.64,6.67,8.99,6.67C9.36,6.67,9.79,6.77,9.79,6.77L9.96,8.32L11.01,8.32L11.31,6.97C11.76,6.97,12.16,7.07,12.64,7.27L12.49,9.65C12.45,10.23,12.18,10.79,11.48,11.3L11.88,13.53C11.91,14.09,12.01,14.62,12.15,15.11L12.25,15.68C11.25,16.26,10.76,17.22,10.76,18.2L10.76,19.01ZM12.25,19L12.25,18.2C12.25,17.25,13.1,16.62,14.52,16.6C13.87,15.65,13.35,14.6,13.35,13.17C13.35,10.6,15.5,8.6,15.5,8.6C15.35,7.98,15.35,7.85,15.35,7.7C15.35,6.85,15.97,6.2,16.75,6.2C17.52,6.2,18.15,6.85,18.15,7.7C18.15,7.95,18.13,8.4,17.78,8.82C16.75,10,16,11.65,15.88,13.6L17.21,13.6C17.3,11.97,17.81,10.62,18.69,9.55C19.31,10,20.16,11.55,20.16,13.17C20.16,14.65,19.69,15.7,19.02,16.6C20.42,16.65,21.27,17.25,21.27,18.2L21.27,19Z"/></svg>