<svg xmlns="http://www.w3.org/2000/svg" viewBox="0 0 24 24" fill="currentColor"><path d="M18.75,12.55C18.75,12.55,18.75,12.55,18.75,12.55C18.75,12.55,18.75,12.55,18.75,12.55C18.75,12.55,18.75,12.55,18.75,12.55C18.75,12.55,18.75,12.55,18.75,12.55ZM35.25,5.05C35.25,5.05,35.25,5.05,35.25,5.05C35.25,5.05,35.25,5.05,35.25,5.05C35.25,5.05,35.25,5.05,35.25,5.05C35.25,5.05,35.25,5.05,35.25,5.05ZM52,13C52,13,52,13,52,13C52,13,52,13,52,13C52,13,52,13,52,13C52,13,52,13,52,13ZM109,28C109,28,109,28,109,28C109,28,109,28,109,28C109,28,109,28,109,28C109,28,109,28,109,28ZM17.27,17.5L8.72,17.5C8.72,14.52,11.67,14.97,11.9,12.02L11.95,11.5L10.75,11.5C10.6,11.25,10.52,10.95,10.52,10.65L11.95,9.81C11.25,9.33,10.95,8.68,10.95,8.01C10.95,6.86,11.88,5.93,13,5.93C14.13,5.93,15.05,6.85,15.05,8.01C15.05,8.73,14.82,9.26,14.05,9.78L15.45,10.66C15.45,10.96,15.4,11.26,15.25,11.51L14.05,11.51L14.1,12.03C14.33,14.98,17.27,14.53,17.27,17.51ZM6.25,18.25C7.07,18.25,7.75,18.92,7.75,19.75C7.75,20.58,7.07,21.25,6.25,21.25C5.43,21.25,4.75,20.58,4.75,19.75C4.75,18.92,5.43,18.25,6.25,18.25ZM6.23,20.5L6.23,19L19.73,19L19.73,20.5ZM19.73,18.25C20.57,18.25,21.25,18.92,21.25,19.73C21.25,20.57,20.58,21.25,19.73,21.25C18.92,21.25,18.25,20.58,18.25,19.73C18.25,18.92,18.92,18.25,19.73,18.25Z"/></svg>