<svg xmlns="http://www.w3.org/2000/svg" viewBox="0 0 24 24"><path d="M0.07,16C0.07,11.9,4.14,12.53,4.5,8.4L4.57,7.73L2.9,7.73C2.67,7.33,2.57,6.93,2.57,6.53L4.57,5.33C3.6,4.66,3.14,3.8,3.14,2.86C3.14,1.29,4.44,-0.01,6.01,-0.01C7.58,-0.01,8.88,1.29,8.88,2.86C8.88,2.99,8.87,3.12,8.86,3.24C7.83,4.15,7.15,5.47,7.15,6.86C7.15,7.32,7.28,7.92,7.53,8.53C7.55,8.72,7.58,8.9,7.62,9.08C6.55,10.45,6.79,12.08,8.12,13.26C7.55,14.12,6.48,14.93,5.58,15.99Z" fill="currentColor"/><path d="M6.07,20C6.07,15.9,10.14,16.53,10.5,12.4L10.57,11.73L8.9,11.73C8.67,11.33,8.57,10.93,8.57,10.53L10.57,9.33C9.6,8.66,9.14,7.8,9.14,6.86C9.14,5.29,10.44,3.99,12.01,3.99C13.58,3.99,14.88,5.29,14.88,6.86C14.88,6.99,14.87,7.12,14.86,7.24C13.83,8.15,13.15,9.47,13.15,10.86C13.15,11.32,13.28,11.92,13.53,12.53C13.55,12.72,13.58,12.9,13.62,13.08C12.55,14.45,12.78,16.08,14.12,17.26C13.55,18.12,12.48,18.93,11.58,19.99Z" fill="currentColor"/><path d="M23.93,24L12.06,24C12.06,19.9,16.13,20.53,16.49,16.4L16.56,15.73L14.89,15.73C14.66,15.33,14.56,14.93,14.56,14.53L16.56,13.33C15.59,12.66,15.13,11.8,15.13,10.86C15.13,9.29,16.43,7.99,18,7.99C19.57,7.99,20.87,9.29,20.87,10.86C20.87,11.86,20.5,12.56,19.44,13.29L21.44,14.52C21.44,14.92,21.34,15.32,21.11,15.72L19.44,15.72L19.51,16.39C19.88,20.52,23.94,19.89,23.94,23.99Z" fill="currentColor"/></svg>