<svg xmlns="http://www.w3.org/2000/svg" viewBox="0 0 24 24" fill="currentColor"><path d="M9.95,13.98L9.95,11.52C9.95,11.52,9.1,10.92,8.45,10.92C7.77,10.92,7.35,11.3,7.35,11.88C7.35,12.68,8.47,13.4,8.97,13.98ZM5.33,20.5L5.33,19.5C5.33,18.43,6.19,17.7,7.65,17.54C7.28,16.62,6.66,15.96,6.15,15.28C5.18,14,4.3,13.11,4.3,11.7C4.3,9.63,5.7,8.27,7.6,8.27C8.8,8.27,9.6,8.63,10.05,8.9L10.73,7L8.83,7L8.83,5.5L10.71,5.5L10.71,4L12.21,4L12.21,5.5L14.06,5.5L14.06,7L12.23,7L12.23,16.94C11.07,17.47,10.34,18.53,10.34,19.71L10.34,20.51ZM11.82,20.5L11.82,19.7C11.82,18.82,12.35,18.29,13.32,18.12L16.64,18.12C17.09,18.47,17.33,18.93,17.33,19.49L17.33,20.49ZM13.2,18.77L14.48,11.6L19,11.6L20.27,18.77ZM11.8,20.5L11.8,19.67C11.8,18.25,12.63,17.55,16.73,17.55C20.83,17.55,21.68,18.25,21.68,19.67L21.68,20.5ZM19.15,12.85L14.3,12.85C13.57,12.33,13.27,11.75,13.25,11.15L13.1,8.77C13.57,8.57,13.98,8.47,14.43,8.47L14.73,9.82L15.75,9.82L15.93,8.27C15.93,8.27,16.38,8.17,16.73,8.17C17.1,8.17,17.53,8.27,17.53,8.27L17.7,9.82L18.75,9.82L19.05,8.47C19.5,8.47,19.9,8.57,20.38,8.77L20.23,11.15C20.18,11.75,19.91,12.33,19.16,12.85Z"/></svg>