<svg xmlns="http://www.w3.org/2000/svg" viewBox="0 0 24 24" fill="currentColor"><path d="M5.5,12.83L6.12,12.54C5.94,12.12,5.83,11.71,5.83,11.45C5.83,9.82,7.18,8.5,8.81,8.5C8.87,8.5,8.94,8.5,9,8.51C9.02,8.9,9.08,9.29,9.17,9.66C9.05,9.64,8.93,9.63,8.81,9.63C7.78,9.63,6.96,10.43,6.96,11.45C6.96,12.05,7.28,12.65,7.78,13.02L6.63,13.55C6.63,13.79,6.63,14.1,6.83,14.42L7.61,14.42C7.43,14.89,7.34,15.41,7.34,16.02C7.03,16.56,6.64,16.86,6.26,17.12C5.49,17.7,5.14,18.05,5.14,19.37L10.54,19.37C10.71,19.77,10.91,20.15,11.14,20.5L4.1,20.5C3.74,17.87,4.59,16.96,5.61,16.21C5.93,15.99,6.16,15.82,6.33,15.55L6.21,15.55C5.68,14.69,5.51,13.8,5.51,12.83ZM8.63,16C8.63,12.95,11.63,13.43,11.9,10.43L11.93,9.9L10.73,9.9C10.55,9.63,10.48,9.28,10.48,8.98L11.93,8.16C11.18,7.71,10.9,7.03,10.9,6.36C10.9,5.18,11.85,4.26,13,4.26C14.13,4.26,15.08,5.18,15.08,6.36C15.08,7.08,14.85,7.65,14.05,8.13L15.5,8.98C15.5,9.28,15.42,9.63,15.25,9.9L14.05,9.9L14.07,10.43C14.07,10.46,14.08,10.5,14.09,10.54C11.9,11.47,10.31,13.53,10.04,16ZM11.52,16.75C11.52,13.88,13.9,11.52,16.75,11.52C19.62,11.52,21.98,13.87,21.98,16.75C21.98,19.6,19.63,21.98,16.75,21.98C13.9,21.98,11.52,19.6,11.52,16.75ZM16.72,17.8L18.42,19.45C18.77,19.8,19.12,19.8,19.47,19.45C19.82,19.1,19.85,18.72,19.47,18.38L17.8,16.73L19.47,15.06C19.82,14.7,19.82,14.36,19.47,14.01C19.12,13.65,18.77,13.63,18.4,14.01L16.73,15.68L15.08,14.03C14.72,13.68,14.38,13.68,14.03,14.03C13.67,14.38,13.65,14.76,14.03,15.1L15.68,16.73L14,18.4C13.65,18.75,13.65,19.1,14,19.45C14.35,19.8,14.69,19.83,15.07,19.45Z"/></svg>