<svg xmlns="http://www.w3.org/2000/svg" viewBox="0 0 24 24"><path d="M0.07,20L0.07,18.9C0.07,17.71,0.5,16.9,2.16,16.46L3.35,9.76C2.42,9.07,2.04,8.32,2.01,7.53L1.81,4.36C2.44,4.09,2.98,3.96,3.58,3.96L3.98,5.76L5.35,5.76L5.58,3.69C5.58,3.69,6.18,3.56,6.65,3.56C7.15,3.56,7.72,3.69,7.72,3.69L7.73,3.79C6.71,4.36,5.98,5.43,6.02,6.73C5.96,7.72,6.58,8.88,7.63,9.58L9.69,15.51C8.29,16.56,7.81,18.19,8.11,19.99Z" fill="currentColor"/><path d="M10,19.97L10,18.97C10,17.77,10.43,17,12.13,16.57L9.23,8.17C8.5,8.04,8,7.47,8,6.77C8,6.07,8.6,5.4,9.33,5.4C10.03,5.4,10.6,6.03,10.6,6.8C10.6,7.13,10.57,7.37,10.33,7.63L12.76,10.73L13.06,5.9C12.39,5.63,12.13,5.27,12.13,4.6C12.13,3.8,12.73,3.17,13.53,3.17C14.3,3.17,14.9,3.8,14.9,4.6C14.9,5.07,14.73,5.4,14.37,5.73L16,10.53L17.6,5.73C17.23,5.4,17.03,5.06,17.03,4.6C17.03,3.8,17.66,3.17,18.46,3.17C19.26,3.17,19.83,3.8,19.83,4.6C19.83,5.27,19.53,5.63,18.9,5.9L19.23,10.73L21.63,7.63C21.4,7.36,21.33,7.13,21.33,6.8C21.33,6.1,21.9,5.4,22.63,5.4C23.46,5.4,24,6.17,24,6.77C24,7.37,23.47,8.04,22.73,8.17L19.9,16.57C21.53,17.04,21.97,17.77,21.97,18.97L21.97,19.97Z" fill="currentColor"/></svg>