<svg xmlns="http://www.w3.org/2000/svg" viewBox="0 0 24 24"><path d="M0.5,22L0.5,20.67C0.5,19.07,1.93,18.04,4.3,18C3.2,16.07,2.33,14.33,2.33,11.97C2.33,7.67,5.9,4.67,5.9,4.67C5.67,3.64,5.67,3.44,5.67,3.17C5.67,1.77,6.7,0.67,8,0.67C9.3,0.67,10.33,1.77,10.33,3.17C10.33,3.57,10.26,4.27,10.13,4.67C10.34,4.87,10.54,5.07,10.72,5.25C9.41,7.06,8.33,9.45,8.33,11.97C8.33,13.72,8.75,15.23,9.33,16.59C7.46,17.41,6.49,19,6.49,20.67L6.49,22Z" fill="currentColor"/><path d="M8.5,22L8.5,20.67C8.5,19.07,9.93,18.04,12.3,18C11.2,16.07,10.33,14.33,10.33,11.97C10.33,7.67,13.9,4.67,13.9,4.67C13.67,3.64,13.67,3.44,13.67,3.17C13.67,1.77,14.7,0.67,16,0.67C17.3,0.67,18.33,1.77,18.33,3.17C18.33,3.57,18.26,4.27,17.7,5.04C16.07,7.24,15.03,9.41,14.87,12.01L16.44,12.01C16.57,9.84,17.57,7.81,19.21,5.61C20.24,6.71,21.68,9.08,21.68,11.98C21.68,14.45,20.88,16.18,19.78,18.01C22.11,18.08,23.51,19.11,23.51,20.68L23.51,22.01Z" fill="currentColor"/></svg>