<svg xmlns="http://www.w3.org/2000/svg" viewBox="0 0 24 24"><path d="M4,22L4,20.67C4,18.9,5.33,18,7.97,18L16,18C18.63,18,20,18.9,20,20.67L20,22Z" fill="currentColor"/><path d="M22,5.27C22,6.04,21.37,6.87,20.47,7L17.3,16.67L6.7,16.67L3.5,7C2.63,6.87,2,6.13,2,5.27C2,4.37,2.73,3.57,3.67,3.57C4.54,3.57,5.3,4.34,5.3,5.3C5.3,5.7,5.2,6.03,4.93,6.33L7.96,10.26L8.33,4.13C7.5,3.86,7.13,3.33,7.13,2.46C7.13,1.46,7.9,0.66,8.9,0.66C9.9,0.66,10.63,1.46,10.63,2.46C10.63,3.06,10.43,3.56,9.96,3.93L11.99,10L13.99,3.93C13.52,3.56,13.29,3.06,13.29,2.46C13.29,1.53,14.06,0.66,15.06,0.66C16.06,0.66,16.83,1.46,16.83,2.46C16.83,3.33,16.46,3.86,15.63,4.13L16.03,10.26L19.03,6.33C18.76,6.03,18.63,5.7,18.63,5.3C18.63,4.4,19.4,3.57,20.3,3.57C21.33,3.57,22,4.5,22,5.27Z" fill="currentColor"/></svg>