<svg xmlns="http://www.w3.org/2000/svg" viewBox="0 0 24 24" fill="currentColor"><path d="M4.43,19.5C4.43,18.3,5.5,17.53,7.23,17.5C6.4,16.3,5.75,15,5.75,13.23C5.75,10,8.43,7.5,8.43,7.5C8.25,6.73,8.25,6.58,8.25,6.38C8.25,5.33,9.02,4.5,10,4.5C10.98,4.5,11.75,5.33,11.75,6.38C11.75,6.68,11.73,7.26,11.27,7.78C10,9.26,9.05,11.31,8.9,13.76L10.42,13.76C10.14,14.45,9.99,15.21,9.99,16.01C9.99,17.82,10.76,19.41,11.99,20.51L4.42,20.51ZM13.64,10.46C12.31,11.02,11.23,12.05,10.6,13.35C10.77,11.5,11.4,9.93,12.4,8.7C12.8,8.98,13.28,9.63,13.64,10.46ZM16,13.02C14.3,13.02,13,14.32,13,16.02C13,17.73,14.3,19.02,16,19.02C17.7,19.02,19,17.73,19,16.02C19,14.32,17.7,13.02,16,13.02ZM16,11.52C18.48,11.52,20.5,13.55,20.5,16.02C20.5,18.5,18.48,20.52,16,20.52C13.52,20.52,11.5,18.5,11.5,16.02C11.5,13.55,13.52,11.52,16,11.52ZM21.7,21.57L21.6,21.67C21.28,21.99,20.93,21.99,20.61,21.67L17.83,18.89L18.93,17.79L21.71,20.57C22.03,20.89,22.03,21.24,21.71,21.57Z"/></svg>