<svg xmlns="http://www.w3.org/2000/svg" viewBox="0 0 24 24" fill="currentColor"><path d="M21.55,5.52L20.06,7.01L18.11,8.96L15.98,11.09L7,20.07L5.57,21.5L5.55,21.52C5.23,21.84,4.88,21.84,4.55,21.52L4.48,21.45C4.16,21.12,4.16,20.77,4.48,20.45L8.87,16.05L6.63,9.24C5.98,9.14,5.51,8.59,5.51,7.95C5.51,7.27,6.05,6.67,6.76,6.67C7.41,6.67,7.98,7.25,7.98,7.97C7.98,8.27,7.91,8.52,7.7,8.74L9.98,11.69L10.25,7.11C9.63,6.83,9.35,6.44,9.35,5.84C9.35,5.09,9.93,4.49,10.68,4.49C11.43,4.49,11.98,5.09,11.98,5.84C11.98,6.29,11.83,6.66,11.48,6.94L13,11.49L14.5,6.94C14.15,6.66,13.97,6.29,13.97,5.84C13.97,5.14,14.55,4.49,15.3,4.49C16.05,4.49,16.63,5.09,16.63,5.84C16.63,6.44,16.35,6.83,15.73,7.11L15.86,9.06L20.48,4.44C20.8,4.12,21.15,4.12,21.47,4.44L21.55,4.52C21.87,4.83,21.87,5.18,21.57,5.49C21.56,5.5,21.56,5.51,21.55,5.51ZM8.73,20.5L19.05,10.18L16.65,17.53C18.2,17.68,18.99,18.33,18.99,19.5L18.99,20.5Z"/></svg>