<svg xmlns="http://www.w3.org/2000/svg" viewBox="0 0 24 24"><path d="M4.44,10.19L4.78,11.21L2.13,11C-0.34,10.8,-0.34,10.53,2.13,10.37Z" fill="currentColor"/><path d="M2.15,6.21L2.1,6.2C-0.3,5.97,-0.33,5.71,2.01,5.48C2.03,5.72,2.08,5.97,2.15,6.21Z" fill="currentColor"/><path d="M5.98,14.82L6.45,16.25L3.63,15.94C1.2,15.67,1.2,15.34,3.63,15.07Z" fill="currentColor"/><path d="M6,20.67C6,18.9,7.33,18,9.97,18L18,18C20.63,18,22,18.9,22,20.67L22,22L6,22Z" fill="currentColor"/><path d="M22.47,7L19.3,16.67L8.7,16.67L5.5,7C4.63,6.87,4,6.13,4,5.27C4,4.37,4.73,3.57,5.67,3.57C6.54,3.57,7.3,4.34,7.3,5.3C7.3,5.7,7.2,6.03,6.93,6.33L9.96,10.26L10.33,4.13C9.5,3.86,9.13,3.33,9.13,2.46C9.13,1.46,9.9,0.66,10.9,0.66C11.9,0.66,12.63,1.46,12.63,2.46C12.63,3.06,12.43,3.56,11.96,3.93L13.99,10L15.99,3.93C15.52,3.56,15.29,3.06,15.29,2.46C15.29,1.53,16.06,0.66,17.06,0.66C18.06,0.66,18.83,1.46,18.83,2.46C18.83,3.33,18.46,3.86,17.63,4.13L18.03,10.26L21.03,6.33C20.76,6.03,20.63,5.7,20.63,5.3C20.63,4.4,21.4,3.57,22.3,3.57C23.33,3.57,24,4.5,24,5.27C24,6.04,23.37,6.87,22.47,7Z" fill="currentColor"/></svg>