<svg xmlns="http://www.w3.org/2000/svg" viewBox="0 0 24 24" fill="currentColor"><path d="M6.98,13.2C6.85,13.3,5.55,13,5.08,12.6C4.76,12.3,4.73,11.8,5.03,11.38L6.28,9.63C6.86,8.83,6.86,8.38,7.18,7.55C7.25,7.33,7.38,7.01,7.78,6.68C8.18,6.33,8.46,6.08,8.6,5.68L8.75,4.93C8.81,4.71,9,4.5,9.2,4.5L10.58,5.88C11.75,5.95,12.98,6.35,14,7.11C12.92,7.41,12.23,8.34,12.23,9.58C12.25,12.44,12.76,13.44,13.95,14.52C12.47,15.94,12.23,17.09,12.23,20.5L5.5,20.5L5.5,19.5C5.5,18.46,6.32,17.74,7.7,17.55C7.73,15.23,9.32,13.95,10.18,13.25C10.78,12.75,11.4,12.11,11.4,11.43C11.4,10.91,11.08,10.48,10.95,10.31L10.52,10.78C10.13,11.21,9.4,11.96,8.57,11.96C7.5,11.98,7.47,12.73,6.98,13.21ZM14.83,20.5C14.06,20.5,13.76,20.2,13.76,19.43C13.78,16.5,14.04,16.33,16.33,14.5C14.03,12.68,13.78,12.53,13.76,9.6C13.76,8.83,14.06,8.53,14.83,8.53L20.93,8.53C21.7,8.53,22,8.83,22,9.6C21.98,12.53,21.72,12.68,19.43,14.5C21.73,16.32,21.98,16.5,22,19.43C22,20.2,21.7,20.5,20.93,20.5ZM15.23,19L20.53,19C20.53,16.45,18.13,17.45,18.13,15.75L18.13,14.53C18.13,14.08,18.3,13.63,18.58,13.31L20.4,11.23C20.8,10.76,20.43,10.68,17.8,10.68C15.33,10.68,14.97,10.76,15.35,11.21L17.17,13.31C17.45,13.63,17.62,14.08,17.62,14.53L17.62,15.75C17.62,17.46,15.22,16.53,15.22,19Z"/></svg>