<svg xmlns="http://www.w3.org/2000/svg" viewBox="0 0 24 24" fill="currentColor"><path d="M4,19.5C4,18.43,4.35,17.68,5.85,17.28L7,10.7C6.1,10.4,5.75,9.78,5.7,9.12L5.53,6.22C6.11,5.97,6.58,5.85,7.13,5.85L7.5,7.5L8.53,7.5L8.63,9.22C8.7,9.96,9.12,10.8,9.78,11.42L8.95,16.17C7.61,16.8,6.88,17.94,6.88,19.5L6.88,20.49L4.01,20.49ZM8.37,19.5C8.37,18.49,8.73,17.76,10.02,17.35C10.12,18.51,10.51,19.59,11.13,20.5L8.37,20.5ZM9.95,6.23C10.52,5.98,11,5.85,11.54,5.85L11.92,7.5L13.17,7.5L13.4,5.61C13.4,5.61,13.92,5.51,14.37,5.51C14.82,5.51,15.35,5.61,15.35,5.61L15.55,7.5L16.82,7.5L17.2,5.85C17.75,5.85,18.23,5.98,18.8,6.23L18.62,9.13C18.59,9.5,18.47,9.87,18.2,10.16C17.73,10.05,17.24,10,16.75,10C14.3,10,12.17,11.28,10.98,13.22L11.42,10.7C10.52,10.4,10.17,9.77,10.13,9.12ZM16.75,11.52C19.62,11.52,21.98,13.87,21.98,16.75C21.98,19.6,19.63,21.98,16.75,21.98C13.9,21.98,11.52,19.6,11.52,16.75C11.52,13.88,13.9,11.52,16.75,11.52ZM19,13.67C19,13.22,18.75,12.98,18.3,12.98L18.21,12.98C17.75,12.98,17.51,13.22,17.51,13.67L17.51,14.5L16.01,14.5L16.01,13.67C16.01,13.22,15.76,12.98,15.31,12.98L15.21,12.98C14.76,12.98,14.52,13.22,14.52,13.67L14.52,14.5L13.69,14.5C13.24,14.5,12.99,14.75,12.99,15.2L12.99,15.29C12.99,15.75,13.24,15.99,13.69,15.99L14.52,15.99L14.52,17.49L13.69,17.49C13.24,17.49,12.99,17.74,12.99,18.19L12.99,18.29C12.99,18.74,13.24,18.98,13.69,18.98L14.52,18.98L14.52,19.81C14.52,20.26,14.76,20.51,15.21,20.51L15.31,20.51C15.76,20.51,16.01,20.26,16.01,19.81L16.01,18.98L17.51,18.98L17.51,19.81C17.51,20.26,17.75,20.51,18.21,20.51L18.3,20.51C18.75,20.51,19,20.26,19,19.81L19,18.98L19.83,18.98C20.28,18.98,20.52,18.74,20.52,18.29L20.52,18.19C20.52,17.74,20.28,17.49,19.83,17.49L19,17.49L19,15.99L19.83,15.99C20.28,15.99,20.52,15.75,20.52,15.29L20.52,15.2C20.52,14.75,20.28,14.5,19.83,14.5L19,14.5ZM17.5,16L17.5,17.5L16,17.5L16,16Z"/></svg>