<svg xmlns="http://www.w3.org/2000/svg" viewBox="0 0 24 24"><path d="M6.27,19.2L8.34,7.53L15.67,7.53L17.77,19.2Z" fill="currentColor"/><path d="M4,22L4,20.67C4,18.37,5.33,17.2,12,17.2C18.63,17.2,20,18.37,20,20.67L20,22Z" fill="currentColor"/><path d="M15.93,9.57L8.06,9.57C6.86,8.74,6.39,7.8,6.33,6.84L6.1,2.97C6.87,2.64,7.5,2.47,8.23,2.47L8.73,4.67L10.4,4.67L10.7,2.14C10.7,2.14,11.4,2.01,12,2.01C12.6,2.01,13.3,2.14,13.3,2.14L13.57,4.67L15.27,4.67L15.77,2.47C16.5,2.47,17.14,2.64,17.9,2.97L17.67,6.84C17.6,7.81,17.14,8.74,15.94,9.57Z" fill="currentColor"/></svg>