<svg xmlns="http://www.w3.org/2000/svg" viewBox="0 0 24 24" fill="currentColor"><path d="M4.43,20.5L4.43,19.5C4.43,18.3,5.5,17.53,7.23,17.5C6.4,16.3,5.75,15,5.75,13.23C5.75,10,8.43,7.5,8.43,7.5C8.25,6.73,8.25,6.58,8.25,6.38C8.25,5.33,9.02,4.5,10,4.5C10.98,4.5,11.75,5.33,11.75,6.38C11.75,6.68,11.73,7.26,11.27,7.78C10,9.26,9.05,11.31,8.9,13.76L10.57,13.76C10.67,11.73,11.32,10.03,12.39,8.71C12.92,9.09,13.58,10.08,13.95,11.33C12.9,12.36,12.93,13.92,14.05,14.94C13.97,15.27,13.87,15.59,13.75,15.88C13.69,15.93,13.62,15.98,13.55,16.04C12.61,16.86,11.12,18.15,11.12,20.52ZM22,20.5L12.63,20.5C12.63,18.83,13.6,17.97,14.52,17.18C15.42,16.45,16.27,15.75,16.27,14.38L16.27,13.83L14.92,13.83C14.77,13.53,14.67,13.16,14.67,12.78L16.27,11.83C15.52,11.28,15.14,10.63,15.14,9.8C15.14,8.55,16.17,7.5,17.45,7.5C18.72,7.5,19.75,8.55,19.75,9.8C19.75,10.63,19.38,11.28,18.63,11.78L20.25,12.77C20.25,13.15,20.18,13.52,19.98,13.82L18.63,13.82L18.63,14.37C18.63,15.74,19.47,16.45,20.37,17.17C21.29,17.97,22,18.82,22,20.49Z"/></svg>