<svg xmlns="http://www.w3.org/2000/svg" viewBox="0 0 24 24"><path d="M12.63,3.37C12.63,3.77,12.36,4.1,12,4.1C11.63,4.1,11.37,3.77,11.37,3.37C11.37,2.77,11.8,1.94,12,0.77C12.23,1.94,12.63,2.77,12.63,3.37Z" fill="currentColor"/><path d="M6.76,5C7.03,5.3,7.03,5.73,6.73,5.97C6.46,6.2,6.03,6.1,5.76,5.8C5.39,5.33,5.23,4.4,4.63,3.4C5.56,4.13,6.4,4.53,6.76,5Z" fill="currentColor"/><path d="M3.24,9.96C3.64,10.03,3.91,10.36,3.84,10.73C3.74,11.1,3.37,11.26,2.97,11.2C2.4,11.07,1.67,10.47,0.57,10.03C1.77,10.06,2.64,9.83,3.24,9.96Z" fill="currentColor"/><path d="M1.6,17.8C2.53,17.07,3.1,16.33,3.63,16.03C3.96,15.86,4.4,15.96,4.56,16.26C4.73,16.59,4.56,16.99,4.19,17.16C3.66,17.43,2.72,17.43,1.59,17.79Z" fill="currentColor"/><path d="M18.17,5.76C17.9,6.06,17.5,6.16,17.2,5.93C16.93,5.7,16.93,5.26,17.17,4.96C17.57,4.49,18.4,4.13,19.3,3.33C18.77,4.4,18.53,5.3,18.17,5.76Z" fill="currentColor"/><path d="M21.03,11.14C20.63,11.21,20.23,11.04,20.16,10.67C20.09,10.3,20.36,9.97,20.76,9.9C21.33,9.77,22.23,10,23.43,9.97C22.33,10.44,21.6,11,21.03,11.14Z" fill="currentColor"/><path d="M22.47,17.7C21.3,17.4,20.4,17.37,19.87,17.1C19.5,16.9,19.34,16.53,19.5,16.2C19.67,15.87,20.07,15.8,20.43,15.97C20.96,16.24,21.5,17,22.46,17.7Z" fill="currentColor"/><path d="M17.77,22L6.27,22C6.27,18,10.27,18.63,10.47,14.63L10.5,13.96L8.97,13.96C8.77,13.63,8.7,13.19,8.7,12.83L10.5,11.63C9.63,11.03,9.27,10.16,9.27,9.23C9.27,7.73,10.47,6.5,12,6.5C13.53,6.5,14.77,7.73,14.77,9.23C14.77,10.23,14.47,10.93,13.5,11.63L15.3,12.83C15.3,13.2,15.23,13.63,15.03,13.96L13.5,13.96L13.53,14.63C13.76,18.63,17.76,18,17.76,22Z" fill="currentColor"/></svg>