<svg xmlns="http://www.w3.org/2000/svg" viewBox="0 0 24 24" fill="currentColor"><path d="M7.52,9.25C6.17,9.25,5.05,8.63,5.05,7.23C5.05,6.08,5.85,5.37,6.92,5.37C8.07,5.37,8.79,6.12,9.27,7.56C9.76,6.12,10.46,5.37,11.6,5.37C12.7,5.37,13.47,6.1,13.47,7.23C13.47,8.6,12.32,9.25,11.05,9.25ZM6,20.5C4.5,20.5,4,20,4,18.5L4,16L8.5,16L8.5,20.5ZM4,12.75C4,11.25,4.5,10.75,6,10.75L8.5,10.75L8.5,14.5L4,14.5ZM10,14.5L10,10.75L12.24,10.75C12.18,10.92,12.14,11.01,12.05,11.13L11.07,12.51C10.71,13.04,10.63,13.83,10.8,14.5ZM10.02,20.5L10,20.5L10,16L12.27,16C12.59,16.12,12.93,16.2,13.26,16.24C13.15,16.49,13.06,16.75,12.99,17.04C12,17.5,11.39,18.31,11.19,19.14C11.15,19.34,11.12,19.53,11.12,19.73L11.12,20.5ZM7.52,8.15L8.37,8.15C7.98,6.93,7.65,6.48,7.02,6.48C6.55,6.48,6.1,6.68,6.1,7.23C6.1,7.98,6.85,8.15,7.52,8.15ZM10.2,8.15L11.05,8.15C11.65,8.15,12.4,7.97,12.4,7.22C12.4,6.68,11.95,6.47,11.52,6.47C10.94,6.47,10.55,6.94,10.2,8.15ZM12.33,14.33C12.08,14.1,12.08,13.71,12.3,13.38L13.28,12C13.73,11.38,13.73,11.03,13.98,10.38C14.03,10.23,14.13,9.95,14.45,9.7C14.75,9.42,14.97,9.23,15.1,8.9L15.2,8.35C15.25,8.15,15.4,8,15.57,8L16.62,9.07C18.74,9.2,21.1,10.74,21.1,14.22C21.1,15.25,20.42,17.09,20.22,18.17C21.35,18.35,22,18.87,22,19.73L22,20.5L12.62,20.5L12.62,19.73C12.62,18.88,13.25,18.36,14.35,18.17C14.37,15.35,17.27,14.8,17.27,13.43C17.27,13,17.03,12.66,16.92,12.53L16.6,12.9C16.3,13.23,15.72,13.8,15.08,13.8C14.23,13.83,14.2,14.42,13.82,14.8C13.73,14.88,12.7,14.65,12.33,14.33Z"/></svg>