<svg xmlns="http://www.w3.org/2000/svg" viewBox="0 0 24 24"><path d="M21.83,10.67C24.3,10.87,24.3,11.14,21.83,11.37L18.35,11.68C18.3,11.26,18.25,10.81,18.19,10.35Z" fill="currentColor"/><path d="M20.7,5.8C23.13,6.03,23.13,6.3,20.7,6.53L17.79,6.81C17.74,6.39,17.69,5.95,17.64,5.5Z" fill="currentColor"/><path d="M19.37,15.4C21.8,15.67,21.8,16,19.37,16.27L18.92,16.32C18.88,16.02,18.84,15.69,18.8,15.35Z" fill="currentColor"/><path d="M17.57,22L2.47,22C2.47,16.73,7.7,17.57,8.1,12.37L8.17,11.47L6.07,11.47C5.8,10.97,5.7,10.4,5.7,9.87L8.17,8.4C6.8,7.53,6.37,6.53,6.37,5.3C6.37,3.27,8.04,1.67,10,1.67C12,1.67,13.67,3.27,13.67,5.3C13.67,6.47,13.14,7.63,11.87,8.43L14.34,9.86C14.34,10.39,14.24,10.96,13.97,11.46L11.87,11.46L11.94,12.36C12.34,17.56,17.57,16.73,17.57,21.99Z" fill="currentColor"/></svg>