<svg xmlns="http://www.w3.org/2000/svg" viewBox="0 0 24 24" fill="currentColor"><path d="M5.55,20.5L5.46,20.5C5.01,20.5,4.76,20.25,4.76,19.8L4.76,14.5C4.76,8.75,7.76,5.25,13.01,5.25C18.26,5.25,21.26,8.75,21.26,14.5L21.26,19.8C21.26,20.25,21.01,20.5,20.56,20.5L20.46,20.5C20.01,20.5,19.77,20.25,19.77,19.8L19.77,14.5C19.77,9.8,17.22,6.75,13.02,6.75C8.82,6.75,6.27,9.8,6.27,14.5L6.27,19.8C6.27,20.25,6.02,20.5,5.57,20.5ZM9.1,19.8C9.1,18.96,9.85,18.43,11.05,18.4C10.47,17.55,10.02,16.65,10.02,15.4C10.02,13.15,11.9,11.4,11.9,11.4C11.77,10.85,11.77,10.75,11.77,10.6C11.77,9.87,12.32,9.3,12.99,9.3C13.67,9.3,14.21,9.88,14.21,10.6C14.21,10.82,14.19,11.22,13.89,11.6C12.99,12.63,12.32,14.05,12.22,15.77L13.4,15.77C13.47,14.35,13.92,13.17,14.67,12.25C15.22,12.63,15.97,13.98,15.97,15.4C15.97,16.7,15.54,17.6,14.97,18.4C16.17,18.42,16.9,18.98,16.9,19.8L16.9,20.5L9.1,20.5Z"/></svg>