<svg xmlns="http://www.w3.org/2000/svg" viewBox="0 0 24 24" fill="currentColor"><path d="M19.43,9.9C19.13,10.15,19,10.11,19,9.7L19,8.5L18.6,8.5C18.04,8.5,18.01,8.52,17.72,9L16.88,10.33L15.97,9.05C15.96,9.03,15.96,9.03,15.95,9.01L16.45,8.21C16.95,7.39,17.67,7,18.61,7L19.01,7L19.01,5.78C19.01,5.4,19.14,5.35,19.44,5.6L21.63,7.4C21.93,7.65,21.93,7.85,21.63,8.1ZM14.16,11.85L15.36,9.93L16.31,11.25L15.69,12.25L16.03,12.8C15.52,13.06,14.76,13.24,14.52,13.22L14.17,12.65L14.81,12.25ZM19.43,18.9C19.13,19.15,19,19.1,19,18.7L19,17.5L18.6,17.5C17.66,17.5,16.95,17.12,16.44,16.29L15.06,14.07C15.56,14.01,16.11,13.88,16.56,13.64L17.72,15.5C18.01,15.98,18.04,16,18.6,16L19,16L19,14.78C19,14.4,19.13,14.35,19.43,14.6L21.63,16.4C21.92,16.65,21.92,16.85,21.63,17.1ZM14.45,13.2C13.94,12.73,13.92,11.98,12.85,11.95C12.03,11.95,11.3,11.2,10.9,10.77L10.47,10.3C10.35,10.47,10.02,10.9,10.02,11.42C10.02,12.1,10.65,12.75,11.25,13.25C12.02,13.87,13.42,14.99,13.57,16.49L6.02,16.49C5.87,15.84,5.12,13.67,5.12,12.47C5.12,8.02,8.14,6.04,10.84,5.87L12.21,4.49C12.42,4.49,12.61,4.7,12.66,4.92L12.81,5.67C12.96,6.07,13.24,6.32,13.64,6.67C14.04,6.99,14.16,7.32,14.24,7.55C14.56,8.37,14.56,8.82,15.14,9.62L16.39,11.37C16.69,11.8,16.67,12.29,16.34,12.59C15.87,12.99,14.56,13.29,14.44,13.19ZM16,20.5L4,20.5L4,19.5C4,18.28,5.13,17.5,7,17.5L13.02,17.5C14.88,17.5,16,18.27,16,19.5Z"/></svg>