<svg xmlns="http://www.w3.org/2000/svg" viewBox="0 0 24 24" fill="currentColor"><path d="M15.68,13.25L16.6,8L19.9,8L20.85,13.25ZM14.65,13.9C14.65,12.87,15.25,12.35,18.25,12.35C21.23,12.35,21.85,12.87,21.85,13.9L21.85,14.5L14.65,14.5ZM20.03,8.9L16.48,8.9C15.96,8.52,15.73,8.09,15.71,7.67L15.61,5.93C15.96,5.78,16.23,5.7,16.56,5.7L16.79,6.7L17.54,6.7L17.69,5.55C17.69,5.55,17.99,5.5,18.27,5.5C18.54,5.5,18.84,5.55,18.84,5.55L18.97,6.7L19.74,6.7L19.97,5.7C20.29,5.7,20.57,5.78,20.92,5.93L20.82,7.67C20.8,8.1,20.58,8.52,20.05,8.9ZM5.18,13.25L6.1,8L9.4,8L10.35,13.25ZM4.15,13.9C4.15,12.87,4.75,12.35,7.75,12.35C10.73,12.35,11.35,12.87,11.35,13.9L11.35,14.5L4.15,14.5ZM9.53,8.9L5.98,8.9C5.45,8.52,5.23,8.09,5.21,7.67L5.11,5.93C5.46,5.78,5.73,5.7,6.06,5.7L6.29,6.7L7.04,6.7L7.19,5.55C7.19,5.55,7.49,5.5,7.76,5.5C8.04,5.5,8.34,5.55,8.34,5.55L8.47,6.7L9.24,6.7L9.47,5.7C9.79,5.7,10.07,5.78,10.42,5.93L10.32,7.67C10.3,8.1,10.07,8.52,9.55,8.9ZM11.02,22C10.57,22,10.44,21.77,10.64,21.38L12.67,17.48C12.87,17.08,13.12,17.08,13.32,17.48L15.35,21.38C15.55,21.78,15.42,22,14.97,22ZM4.71,17.5C4.26,17.5,4.01,17.25,4.01,16.8L4.01,16.71C4.01,16.25,4.26,16.01,4.71,16.01L21.3,16.01C21.75,16.01,22,16.25,22,16.71L22,16.8C22,17.25,21.75,17.5,21.3,17.5Z"/></svg>