<svg xmlns="http://www.w3.org/2000/svg" viewBox="0 0 24 24"><path d="M15.57,8.17C15.47,8.24,14.44,8,14.07,7.67C13.8,7.44,13.77,7.04,14.04,6.7L15.04,5.3C15.47,4.67,15.47,4.3,15.74,3.63C15.81,3.46,15.91,3.2,16.24,2.93C16.54,2.66,16.77,2.46,16.87,2.13L17,1.53C17.03,1.36,17.2,1.2,17.37,1.2L18.47,2.3C20.67,2.43,23.1,4.03,23.1,7.37C23.1,8.94,22.27,10.94,22.17,11.97L16.17,12.07C15.97,9.94,17.4,8.8,18.14,8.2C18.64,7.8,19.14,7.27,19.14,6.73C19.14,6.33,18.87,5.96,18.77,5.83L18.44,6.23C18.11,6.56,17.54,7.16,16.87,7.16C16,7.16,15.97,7.76,15.57,8.16Z" fill="currentColor"/><path d="M14.4,13.2C14.4,12.23,15.3,11.6,16.77,11.6L21.6,11.6C23.1,11.6,24,12.23,24,13.2L24,14L14.4,14Z" fill="currentColor"/><path d="M0.53,13.2C0.53,12.23,1.4,11.63,2.76,11.6C2.13,10.63,1.59,9.6,1.59,8.17C1.59,5.6,3.72,3.6,3.72,3.6C3.59,2.97,3.59,2.87,3.59,2.7C3.59,1.87,4.22,1.2,4.99,1.2C5.76,1.2,6.39,1.87,6.39,2.7C6.39,2.93,6.36,3.4,6.02,3.83C4.99,5,4.22,6.63,4.12,8.6L5.45,8.6C5.52,6.97,6.05,5.63,6.92,4.57C7.52,5,8.39,6.54,8.39,8.17C8.39,9.67,7.92,10.7,7.26,11.6C8.63,11.63,9.46,12.27,9.46,13.2L9.46,14L0.53,14Z" fill="currentColor"/><path d="M9.36,24C8.76,24,8.59,23.7,8.86,23.17L11.56,17.97C11.83,17.44,12.16,17.44,12.43,17.97L15.13,23.17C15.4,23.7,15.23,24,14.63,24Z" fill="currentColor"/><path d="M0.94,18C0.34,18,0.01,17.67,0.01,17.07L0.01,16.94C0.01,16.34,0.34,16.01,0.94,16.01L23.07,16.01C23.67,16.01,24,16.34,24,16.94L24,17.07C24,17.67,23.67,18,23.07,18Z" fill="currentColor"/></svg>