<svg xmlns="http://www.w3.org/2000/svg" viewBox="0 0 24 24"><path d="M2,20.67C2,19.1,3.07,18.2,5.13,18.04L1.5,7.01C0.63,6.88,0,6.14,0,5.28C0,4.38,0.73,3.58,1.67,3.58C2.54,3.58,3.3,4.35,3.3,5.31C3.3,5.71,3.2,6.04,2.93,6.34L5.96,10.27L6.33,4.17C5.5,3.8,5.13,3.27,5.13,2.47C5.13,1.47,5.9,0.67,6.9,0.67C7.9,0.67,8.63,1.47,8.63,2.47C8.63,3.07,8.43,3.57,7.96,3.94L8.73,6.21C9.33,8.04,10.06,8.44,10.73,7.39C10.65,8.2,10.79,9.08,11.16,10.01L10,10.01L10,22.01L2,22.01Z" fill="currentColor"/><path d="M13.07,0.67C14.07,0.67,14.84,1.47,14.84,2.47C14.84,2.74,14.8,2.97,14.71,3.19C13.33,3.63,12.27,4.32,11.59,5.21L12,3.94C11.53,3.57,11.3,3.07,11.3,2.47C11.3,1.54,12.07,0.67,13.07,0.67Z" fill="currentColor"/><path d="M20.8,10L15.33,10C13.96,10,12.6,9.37,12.6,7.73C12.6,6.36,13.6,5.5,14.9,5.5C16.6,5.5,17.8,7,18.4,9.23L17.67,9.23C18.27,6.96,19.5,5.5,21.14,5.5C22.47,5.5,23.41,6.43,23.41,7.73C23.41,9.36,22.04,10,20.81,10Z" fill="currentColor"/><path d="M13.43,22C12.4,22,12,21.6,12,20.57L12,18L17,18L17,22Z" fill="currentColor"/><path d="M12,13.43C12,12.4,12.4,12,13.43,12L17,12L17,16L12,16Z" fill="currentColor"/><path d="M19,22L19,18L24,18L24,20.57C24,21.6,23.6,22,22.57,22Z" fill="currentColor"/><path d="M19,16L19,12L22.57,12C23.6,12,24,12.4,24,13.43L24,16Z" fill="currentColor"/><path d="M17.07,9.23C16.54,7.43,15.87,6.8,15,6.8C14.43,6.8,13.9,7.1,13.9,7.73C13.9,8.6,14.83,8.7,15.33,8.7L20.8,8.7C21.17,8.7,22.1,8.6,22.1,7.73C22.1,7.1,21.57,6.8,21.03,6.8C20.26,6.8,19.5,7.43,19,9.23Z" fill="currentColor"/></svg>