<svg xmlns="http://www.w3.org/2000/svg" viewBox="0 0 24 24" fill="currentColor"><path d="M6.63,20.5L6.63,18.53C6.63,17.4,6.98,16.68,8.43,16.25L6.38,10.86C5.55,10.46,5.03,9.63,5.03,8.7C5.03,7.38,6.08,6.35,7.4,6.35C7.78,6.35,8.15,6.45,8.48,6.63L8.48,6.56C8.48,5.21,9.53,4.13,10.88,4.13C11.8,4.13,12.6,4.66,13,5.43C13.4,4.66,14.2,4.13,15.12,4.13C16.47,4.13,17.52,5.21,17.52,6.56L17.52,6.63C17.84,6.46,18.22,6.35,18.59,6.35C19.97,6.35,20.99,7.46,20.99,8.7C20.99,9.6,20.45,10.45,19.62,10.88L17.57,16.25C19.02,16.68,19.37,17.4,19.37,18.53L19.37,20.5ZM7.75,19.38L18.25,19.38L18.25,18.53C18.25,17.35,17.48,17,13,17C8.52,17,7.75,17.36,7.75,18.53ZM7.25,9.98L9.55,16.05C10.43,15.92,11.55,15.88,13,15.88C14.45,15.88,15.57,15.93,16.45,16.05L18.75,9.98C19.43,9.85,19.88,9.28,19.88,8.7C19.88,8.08,19.35,7.48,18.6,7.48C17.95,7.48,17.4,8.08,17.4,8.75C17.4,8.93,17.46,9.26,17.65,9.48L15.75,12.13L15.53,7.78C16.07,7.61,16.41,7.2,16.41,6.56C16.41,5.83,15.86,5.26,15.13,5.26C14.43,5.26,13.86,5.86,13.86,6.56C13.86,6.99,14.08,7.38,14.38,7.61L13.01,11.68L11.63,7.61C11.99,7.36,12.16,6.93,12.16,6.56C12.16,5.83,11.58,5.26,10.88,5.26C10.16,5.26,9.61,5.84,9.61,6.56C9.61,7.11,9.89,7.59,10.49,7.78L10.26,12.13L8.39,9.48C8.54,9.28,8.61,9.01,8.61,8.75C8.61,8.06,8.04,7.48,7.41,7.48C6.71,7.48,6.16,8,6.16,8.7C6.16,9.3,6.61,9.85,7.26,9.98Z"/></svg>