<svg xmlns="http://www.w3.org/2000/svg" viewBox="0 0 24 24" fill="currentColor"><path d="M12.25,10L8.75,10C8.62,9.8,8.57,9.57,8.57,9.35L9.68,8.67C9.13,8.3,8.91,7.79,8.91,7.27C8.91,6.39,9.63,5.67,10.5,5.67C11.38,5.67,12.1,6.4,12.1,7.27C12.1,7.85,11.93,8.25,11.33,8.64L12.43,9.34C12.43,9.56,12.38,9.79,12.26,9.99ZM17.25,10L13.75,10C13.62,9.8,13.58,9.57,13.58,9.35L14.68,8.67C14.13,8.3,13.91,7.79,13.91,7.27C13.91,6.39,14.63,5.67,15.5,5.67C16.38,5.67,17.1,6.4,17.1,7.27C17.1,7.85,16.93,8.25,16.33,8.64L17.43,9.34C17.43,9.56,17.38,9.79,17.26,9.99ZM11.33,20.5L9.68,20.5C9.68,18.17,11.98,18.53,12.15,16.23L12.18,15.83L11.25,15.83C11.13,15.63,11.08,15.4,11.08,15.17L12.18,14.5C11.63,14.13,11.41,13.62,11.41,13.1C11.41,12.22,12.14,11.5,13.01,11.5C13.88,11.5,14.61,12.23,14.61,13.1C14.61,13.67,14.43,14.07,13.83,14.47L14.93,15.17C14.93,15.39,14.88,15.62,14.76,15.82L13.84,15.82L13.86,16.22C13.91,16.8,14.09,17.22,14.33,17.55C13.74,18.39,13.19,19.3,13.19,20.49ZM4.68,20.5C4.68,18.17,6.98,18.53,7.15,16.23L7.17,15.83L6.25,15.83C6.12,15.63,6.08,15.4,6.08,15.17L7.18,14.5C6.63,14.13,6.41,13.62,6.41,13.1C6.41,12.22,7.13,11.5,8,11.5C8.88,11.5,9.6,12.23,9.6,13.1C9.6,13.67,9.43,14.07,8.83,14.47L9.93,15.17C9.93,15.39,9.88,15.62,9.76,15.82L8.84,15.82L8.86,16.22C8.9,16.8,9.08,17.22,9.33,17.55C8.74,18.39,8.19,19.3,8.19,20.49ZM14.67,20.5C14.67,19.57,15.04,19.07,15.5,18.65C15.96,19.06,16.32,19.56,16.32,20.5ZM21.33,20.5L14.67,20.5C14.67,18.17,16.98,18.53,17.15,16.23L17.17,15.83L16.25,15.83C16.12,15.63,16.08,15.4,16.08,15.17L17.18,14.5C16.63,14.13,16.41,13.62,16.41,13.1C16.41,12.22,17.13,11.5,18,11.5C18.88,11.5,19.6,12.23,19.6,13.1C19.6,13.67,19.43,14.07,18.83,14.47L19.93,15.17C19.93,15.39,19.88,15.62,19.76,15.82L18.83,15.82L18.86,16.22C19.03,18.52,21.33,18.17,21.33,20.49Z"/></svg>