<svg xmlns="http://www.w3.org/2000/svg" viewBox="0 0 24 24"><path d="M3.5,22L3.5,19.57C3.5,17.97,3.9,17,5.57,16.44L6.74,9.04C5.91,8.47,5.41,7.61,5.31,6.51L5.08,2.34C7.08,1.71,9.55,1.34,12.08,1.34C14.41,1.34,16.85,1.64,19.05,2.31L18.72,6.54C18.62,7.61,18.12,8.47,17.29,9.04L18.46,16.44C20.13,17.01,20.53,17.97,20.53,19.57L20.53,22Z" fill="currentColor"/><path d="M5,20.5L19,20.5L19,19.57C19,17.7,18.07,17.34,12,17.34C5.93,17.34,5,17.71,5,19.57Z" fill="currentColor"/><path d="M8.17,9.6L7.14,16.07C8.34,15.9,9.94,15.84,12.01,15.84C14.08,15.84,15.68,15.91,16.88,16.07L15.85,9.6C13.18,9.3,10.85,9.3,8.18,9.6Z" fill="currentColor"/><path d="M8.2,8.1C10.8,7.8,13.2,7.8,15.8,8.1C16.8,7.77,17.13,7.13,17.2,6.4L17.43,3.23C16.96,3.1,16.03,2.9,15.46,2.86L14.99,5.06L13.52,5.06L13.29,2.69C12.72,2.62,11.26,2.62,10.66,2.69L10.46,5.06L8.99,5.06L8.52,2.86C7.92,2.89,7.02,3.09,6.62,3.23L6.79,6.4C6.86,7.13,7.19,7.77,8.19,8.1Z" fill="currentColor"/></svg>