<svg xmlns="http://www.w3.org/2000/svg" viewBox="0 0 24 24"><path d="M7.4,15.77L9.07,6.44L14.94,6.44L16.61,15.77Z" fill="currentColor"/><path d="M5.6,16.93C5.6,15.1,6.67,14.16,12,14.16C17.3,14.16,18.4,15.09,18.4,16.93L18.4,18L5.6,18Z" fill="currentColor"/><path d="M15.13,8.07L8.86,8.07C7.89,7.4,7.53,6.64,7.46,5.87L7.26,2.77C7.89,2.5,8.39,2.37,8.99,2.37L9.39,4.14L10.72,4.14L10.95,2.11C10.95,2.11,11.52,2.01,11.98,2.01C12.45,2.01,13.01,2.11,13.01,2.11L13.24,4.14L14.57,4.14L14.97,2.37C15.57,2.37,16.07,2.5,16.7,2.77L16.5,5.87C16.43,6.64,16.07,7.4,15.1,8.07Z" fill="currentColor"/><path d="M10.66,20.04L13.29,20.04L12.26,23.57C12.09,24.14,11.89,24.14,11.73,23.57Z" fill="currentColor"/><path d="M8.77,22.83C8.6,23.4,8.4,23.4,8.2,22.83L7.3,20.03L9.67,20.03Z" fill="currentColor"/><path d="M15.83,22.83C15.63,23.4,15.43,23.43,15.23,22.83L14.3,20.03L16.73,20.03Z" fill="currentColor"/></svg>