<svg xmlns="http://www.w3.org/2000/svg" viewBox="0 0 24 24"><path d="M15.53,22L0.46,22C0.46,16.33,6.16,16.57,6.16,12.07L6.16,11.47L4.03,11.47C3.73,11,3.66,10.5,3.66,9.97L6.13,8.47L5.96,8.3C5.09,7.43,4.39,6.53,4.39,5.3C4.39,3.3,6.02,1.67,7.99,1.67C9.96,1.67,11.59,3.3,11.59,5.3C11.59,6.53,10.92,7.57,9.99,8.3L9.79,8.47L12.32,9.97C12.32,10.5,12.15,11,11.95,11.47L9.82,11.47L9.82,12.07C9.82,16.57,15.52,16.3,15.52,22Z" fill="currentColor"/><path d="M19.1,16.7C18.7,17.17,18.23,17.17,17.8,16.73L17.73,16.66C17.3,16.23,17.3,15.76,17.7,15.29C19.23,13.46,20.03,11.22,20.03,8.99C20.03,6.76,19.23,4.49,17.7,2.69C17.3,2.22,17.3,1.76,17.73,1.32L17.8,1.25C18.23,0.82,18.7,0.82,19.1,1.25C21,3.48,21.97,6.25,21.97,8.98C21.97,11.71,21,14.48,19.1,16.68Z" fill="currentColor"/><path d="M15.57,13.2C15.2,13.63,14.74,13.67,14.3,13.23L14.23,13.16C13.8,12.73,13.76,12.23,14.16,11.76C14.73,10.93,15.03,9.96,15.03,8.99C15.03,8.02,14.73,7.06,14.16,6.22C13.76,5.75,13.79,5.25,14.23,4.82L14.3,4.75C14.73,4.32,15.2,4.35,15.57,4.78C16.54,6.01,17.04,7.51,17.04,8.98C17.04,10.45,16.54,11.95,15.57,13.18Z" fill="currentColor"/></svg>