<svg xmlns="http://www.w3.org/2000/svg" viewBox="0 0 24 24" fill="currentColor"><path d="M13.9,15.33C13.91,14.7,14.15,14.26,15.05,14.02L15.7,10.33C15.2,9.96,14.98,9.54,14.96,9.13L14.86,7.38C15.21,7.23,15.48,7.16,15.81,7.16L16.04,8.16L16.79,8.16L16.94,7.01C16.94,7.01,17.24,6.96,17.52,6.96C17.79,6.96,18.09,7.01,18.09,7.01L18.22,8.16L18.99,8.16L19.22,7.16C19.54,7.16,19.82,7.23,20.17,7.38L20.07,9.13C20.05,9.54,19.83,9.96,19.33,10.33L20,14.04C20.88,14.28,21.12,14.73,21.12,15.36L21.12,15.96L17.47,15.96ZM5.8,10.15C5.73,10.2,4.95,10.02,4.68,9.77C4.47,9.6,4.45,9.3,4.65,9.05L5.4,8C5.72,7.52,5.72,7.25,5.93,6.74C5.98,6.62,6.05,6.42,6.3,6.22C6.53,6.02,6.7,5.87,6.78,5.62L6.87,5.17C6.9,5.04,7.02,4.92,7.15,4.92L7.97,5.75C9.63,5.84,11.45,7.04,11.45,9.55C11.45,10.61,10.94,11.93,10.79,12.75C11.63,12.86,12.12,13.3,12.12,13.92L12.12,14.52L9.36,14.52L4.94,13.74C5.03,13.22,5.49,12.86,6.23,12.75C6.24,11.36,7.21,10.59,7.73,10.17C8.1,9.87,8.48,9.47,8.48,9.07C8.48,8.77,8.27,8.49,8.2,8.39L7.95,8.69C7.71,8.94,7.28,9.39,6.77,9.39C6.12,9.39,6.1,9.84,5.8,10.14ZM14.97,22L11.02,22C10.57,22,10.44,21.77,10.7,21.4L12.63,18.2L4.85,16.79C4.4,16.72,4.2,16.42,4.27,15.97L4.27,15.89C4.35,15.44,4.65,15.24,5.1,15.32L21.39,18.24C21.87,18.32,22.07,18.62,21.97,19.09C21.89,19.59,21.59,19.79,21.12,19.71L13.46,18.33L15.3,21.38C15.55,21.76,15.43,21.98,14.98,21.98Z"/></svg>