<svg xmlns="http://www.w3.org/2000/svg" viewBox="0 0 24 24" fill="currentColor"><path d="M6.45,11.93C6.47,12.16,6.5,12.39,6.55,12.61L5.6,12.53C3.74,12.36,3.74,12.15,5.6,12ZM6.45,8.35L7.8,8.22C7.59,8.45,7.38,8.7,7.22,8.97L6.46,8.9C4.64,8.73,4.64,8.52,6.46,8.35ZM7.45,15.55L8.2,15.47C8.34,15.63,8.49,15.79,8.64,15.94C8.81,16.1,8.96,16.25,9.09,16.37L7.46,16.2C5.63,16,5.63,15.75,7.46,15.55ZM11.15,16.5C10.77,15.83,10.22,15.4,9.7,14.88C8.82,14,7.95,13.1,7.95,11.7C7.95,9.63,9.36,8.27,11.25,8.27C12.45,8.27,13.25,8.63,13.95,9.15L14.25,7L12.23,7L12.23,5.5L14.25,5.5L14.25,4L15.73,4L15.73,5.5L17.7,5.5L17.7,7L15.75,7L15.98,9.15C16.67,8.63,17.48,8.27,18.68,8.27C20.65,8.27,22,9.72,22,11.7C22,13.11,21.1,14,20.22,14.88C19.7,15.4,19.15,15.83,18.77,16.5ZM8.97,19.5C8.97,18.28,10.1,17.5,11.95,17.5L17.97,17.5C19.85,17.5,20.97,18.27,20.97,19.5L20.97,20.5L8.97,20.5ZM17.33,13.98C17.83,13.4,18.95,12.68,18.95,11.88C18.95,11.3,18.53,10.92,17.85,10.92C17.2,10.92,16.35,11.52,16.35,11.52L16.35,13.98ZM13.6,11.52C13.6,11.52,12.75,10.92,12.1,10.92C11.43,10.92,11,11.3,11,11.87C11,12.68,12.12,13.4,12.63,13.97L13.6,13.97Z"/></svg>