<svg xmlns="http://www.w3.org/2000/svg" viewBox="0 0 24 24" fill="currentColor"><path d="M4.75,20.5L4.75,19.5C4.75,18.42,5.14,17.68,6.65,17.28L7.73,11.14C6.88,10.53,6.54,9.84,6.5,9.14L6.32,6.24C6.9,5.99,7.37,5.86,7.92,5.86L8.3,7.51L9.55,7.51L9.77,5.61C9.77,5.61,10.3,5.52,10.75,5.52C11.2,5.52,11.72,5.61,11.72,5.61L11.93,7.51L13.2,7.51L13.58,5.86C14.13,5.86,14.61,5.99,15.17,6.24L15,9.14C14.97,9.56,14.84,9.98,14.56,10.38C11.9,11.28,10.01,13.79,10.01,16.77C10.01,18.16,10.42,19.44,11.13,20.52ZM16.75,13C14.64,13,13,14.63,13,16.75C13,18.85,14.65,20.5,16.75,20.5C18.87,20.5,20.5,18.86,20.5,16.75C20.5,14.62,18.88,13,16.75,13ZM16.75,11.5C19.65,11.5,22,13.85,22,16.75C22,19.62,19.65,22,16.75,22C13.88,22,11.5,19.62,11.5,16.75C11.5,13.85,13.88,11.5,16.75,11.5ZM13.17,19.27L19.27,13.17L20.33,14.23L14.23,20.33Z"/></svg>