<svg xmlns="http://www.w3.org/2000/svg" viewBox="0 0 24 24" fill="currentColor"><path d="M4.43,19.5C4.43,18.3,5.5,17.53,7.23,17.5C6.4,16.3,5.75,15,5.75,13.23C5.75,10,8.43,7.5,8.43,7.5C8.25,6.73,8.25,6.58,8.25,6.38C8.25,5.33,9.02,4.5,10,4.5C10.98,4.5,11.75,5.33,11.75,6.38C11.75,6.68,11.73,7.26,11.27,7.78C10,9.26,9.05,11.31,8.9,13.76L10.57,13.76C10.67,11.73,11.32,10.03,12.39,8.71C12.47,8.77,12.56,8.85,12.65,8.94C12.55,9.57,12.63,10.36,12.87,11.36L13.47,13.89C11.97,14.7,11.47,15.6,11.47,17.39L11.47,19.02L14.92,19.02L15.26,20.52L4.42,20.52ZM16.47,19L18.47,19L17.95,21.4C17.82,21.95,17.8,22,17.5,22C17.2,22,17.18,21.95,17.05,21.4ZM13,16.8C13,16.18,13.32,15.63,13.9,15.36L15.23,14.68L14.23,10.46C13.88,8.98,14.25,8.51,15.75,8.51L19.26,8.51C20.76,8.51,21.13,8.98,20.78,10.46L19.75,14.71L21.1,15.36C21.68,15.64,22,16.19,22,16.81L22,17.51L13,17.51Z"/></svg>