<svg xmlns="http://www.w3.org/2000/svg" viewBox="0 0 24 24"><path d="M2.97,12.27C2.8,12.4,1.07,12,0.44,11.47C0.01,11.07,-0.03,10.4,0.37,9.84L2.04,7.51C2.81,6.44,2.81,5.84,3.24,4.74C3.34,4.44,3.51,4.01,4.04,3.57C4.57,3.1,4.94,2.77,5.14,2.24L5.34,1.24C5.41,0.94,5.67,0.67,5.94,0.67L7.77,2.5C10.58,2.68,13.58,4.24,14.86,7.43C14.23,7.74,13.59,7.88,12.67,7.96C10.67,7.99,10,8.66,10,10.66L10,15.93C10,18.68,10.24,19.83,12.89,22L1,22L1,20.67C1,19.28,2.09,18.32,3.94,18.07C3.97,14.97,6.09,13.27,7.24,12.34C8.04,11.67,8.87,10.81,8.87,9.91C8.87,9.21,8.44,8.64,8.27,8.41L7.7,9.04C7.17,9.61,6.2,10.61,5.1,10.61C3.67,10.64,3.63,11.64,2.97,12.28Z" fill="currentColor"/><path d="M24,15.97L24,10C21.2,10,20.37,9.6,18,7.3C15.7,9.6,14.83,10,12,10L12,15.97C12,19.37,12.37,19.84,18,23.47C23.63,19.9,24,19.44,24,15.97Z" fill="currentColor"/></svg>