<svg xmlns="http://www.w3.org/2000/svg" viewBox="0 0 24 24" fill="currentColor"><path d="M17.6,17.5L8.39,17.5C8.39,14.3,11.57,14.8,11.82,11.63L11.88,11.08L10.58,11.08C10.43,10.8,10.35,10.46,10.35,10.16L11.87,9.23C11.1,8.73,10.8,8.06,10.8,7.31C10.8,6.11,11.78,5.11,13,5.11C14.22,5.11,15.2,6.11,15.2,7.31C15.2,8.08,14.95,8.66,14.13,9.2L15.65,10.16C15.65,10.46,15.57,10.81,15.42,11.08L14.13,11.08L14.18,11.63C14.42,14.8,17.61,14.3,17.61,17.5ZM12,19.03L13.97,19.03L13.19,21.68C13.07,22.11,12.92,22.11,12.8,21.68ZM10.58,21.12C10.45,21.55,10.3,21.55,10.15,21.12L9.47,19.02L11.25,19.02ZM15.87,21.12C15.72,21.55,15.57,21.57,15.42,21.12L14.72,19.02L16.55,19.02Z"/></svg>