<svg xmlns="http://www.w3.org/2000/svg" viewBox="0 0 24 24"><path d="M0.57,20.67C0.57,19.07,2,18.04,4.3,18C3.2,16.4,2.33,14.67,2.33,12.3C2.33,8,5.9,4.67,5.9,4.67C5.67,3.64,5.67,3.44,5.67,3.17C5.67,1.77,6.7,0.67,8,0.67C9.3,0.67,10.33,1.77,10.33,3.17C10.33,3.57,10.3,4.34,9.7,5.04C8,7.01,6.73,9.74,6.53,13.01L8.76,13.01C8.89,10.31,9.76,8.04,11.19,6.28C11.3,6.36,11.42,6.46,11.54,6.58C11.4,7.42,11.51,8.48,11.83,9.81L12.63,13.18C10.63,14.26,9.96,15.46,9.96,17.85L9.96,20.02L14.56,20.02L15.01,22.02L0.56,22.02Z" fill="currentColor"/><path d="M16.63,20L19.3,20L18.6,23.2C18.43,23.93,18.4,24,18,24C17.6,24,17.57,23.93,17.4,23.2Z" fill="currentColor"/><path d="M12,17.07C12,16.24,12.43,15.5,13.2,15.14L14.97,14.24L13.64,8.61C13.17,6.64,13.67,6.01,15.67,6.01L20.34,6.01C22.34,6.01,22.84,6.64,22.37,8.61L21,14.28L22.8,15.15C23.57,15.52,24,16.25,24,17.08L24,18.01L12,18.01Z" fill="currentColor"/></svg>