<svg xmlns="http://www.w3.org/2000/svg" viewBox="0 0 24 24"><path d="M12,22L12,20.97L18.93,20.97C18.93,19.2,18.26,17.8,16.83,16.9C14.63,15.5,13.63,14.4,13.76,11.27L15.86,11.27C16.13,10.84,16.23,10.37,16.23,9.9L13.66,8.4C14.76,7.6,15.23,6.57,15.23,5.43C15.23,3.6,13.83,2.33,12,2.33L12,1.33C14.37,1.33,16.23,3.03,16.23,5.43C16.23,6.43,15.93,7.36,15.3,8.2L17.2,9.3C17.33,10.13,17.2,11.33,16.37,12.27L14.77,12.27C14.87,14.2,15.64,14.97,17.37,16.07C19.4,17.34,20.17,19.47,19.87,22Z" fill="currentColor"/><path d="M4.4,22C4.4,20.03,5.17,18.5,6.47,17.67C10,15.44,10.2,13.04,10.2,12.27L10.2,11.3L8.03,11.3C7.76,10.83,7.63,10.3,7.63,9.73L10.2,8.2C8.93,7.4,8.4,6.23,8.4,5.03C8.4,3,10,1.33,12.03,1.33L12.03,22Z" fill="currentColor"/></svg>