<svg xmlns="http://www.w3.org/2000/svg" viewBox="0 0 24 24" fill="currentColor"><path d="M5.13,19.5C5.13,18.3,6.2,17.53,7.98,17.5C7.15,16.3,6.5,15,6.5,13.23C6.5,10,9.18,7.5,9.18,7.5C9,6.73,9,6.58,9,6.38C9,5.33,9.77,4.5,10.75,4.5C11.73,4.5,12.5,5.33,12.5,6.38C12.5,6.58,12.5,6.73,12.32,7.5C12.32,7.5,12.89,8.04,13.5,8.92L12.05,10.41C10.52,11.96,10,13.56,10,15.26C10,17.39,10.97,19.27,12.49,20.51L5.12,20.51ZM21.17,18.05C20.9,18.42,20.55,18.45,20.22,18.18L20.15,18.1C19.82,17.82,19.77,17.45,20.02,17.07C20.32,16.52,20.49,15.89,20.49,15.25C20.49,13.17,18.79,11.5,16.72,11.5L16.72,10C19.59,10,21.99,12.38,21.99,15.25C21.99,16.28,21.69,17.25,21.17,18.05ZM16.77,19L16.77,20.5C13.9,20.5,11.5,18.12,11.5,15.25C11.5,14.22,11.8,13.25,12.32,12.45C12.6,12.08,12.95,12.05,13.28,12.32L13.35,12.4C13.68,12.68,13.73,13.05,13.48,13.43C13.18,13.98,13.01,14.61,13.01,15.25C13.01,17.33,14.71,19,16.78,19ZM17.5,21.75C17.03,22.17,16.75,22.04,16.75,21.42L16.75,18.07C16.75,17.45,17.03,17.32,17.5,17.75L19.4,19.42C19.64,19.65,19.64,19.85,19.4,20.07ZM16.75,12.43C16.75,13.05,16.47,13.18,16,12.75L14.1,11.08C13.86,10.85,13.86,10.65,14.1,10.43L16,8.75C16.47,8.33,16.75,8.45,16.75,9.08ZM16.75,12.43C16.75,13.05,16.47,13.18,16,12.75L14.1,11.08C13.86,10.85,13.86,10.65,14.1,10.43L16,8.75C16.47,8.33,16.75,8.45,16.75,9.08Z"/></svg>