<svg xmlns="http://www.w3.org/2000/svg" viewBox="0 0 24 24"><path d="M2,20.67C2,19.04,3.5,18,5.97,18L10.12,18C10.35,19.44,11.02,20.47,12.89,22L2,22Z" fill="currentColor"/><path d="M8.17,10.03C8.17,10.03,7.04,9.23,6.17,9.23C5.27,9.23,4.7,9.73,4.7,10.5C4.7,11.57,6.2,12.53,6.87,13.3L8.17,13.3Z" fill="currentColor"/><path d="M0.63,10.27C0.63,7.5,2.5,5.7,5.03,5.7C6.63,5.7,7.7,6.17,8.63,6.87L9.03,4L6.33,4L6.33,2L9.03,2L9.03,0L11,0L11,2L13.63,2L13.63,4L11.03,4L11.33,6.87C12.26,6.17,13.33,5.7,14.93,5.7C15.61,5.7,16.23,5.83,16.78,6.06C16.53,6.22,16.27,6.42,15.99,6.66C14.89,7.56,14.12,7.83,12.66,7.96C10.66,7.99,9.99,8.66,9.99,10.66L9.99,15.93C9.99,16.19,9.99,16.43,10,16.66L4.89,16.66C4.39,15.76,3.66,15.19,2.96,14.49C1.79,13.32,0.63,12.12,0.63,10.26Z" fill="currentColor"/><path d="M24,15.97L24,10C21.2,10,20.37,9.6,18,7.3C15.7,9.6,14.83,10,12,10L12,15.97C12,19.37,12.37,19.84,18,23.47C23.63,19.9,24,19.44,24,15.97Z" fill="currentColor"/></svg>