<svg xmlns="http://www.w3.org/2000/svg" viewBox="0 0 24 24"><path d="M19.67,11.4C19.67,11.4,19.67,11.4,19.67,11.4C19.67,11.4,19.67,11.4,19.67,11.4C19.67,11.4,19.67,11.4,19.67,11.4C19.67,11.4,19.67,11.4,19.67,11.4Z" fill="currentColor"/><path d="M41.67,1.4C41.67,1.4,41.67,1.4,41.67,1.4C41.67,1.4,41.67,1.4,41.67,1.4C41.67,1.4,41.67,1.4,41.67,1.4C41.67,1.4,41.67,1.4,41.67,1.4Z" fill="currentColor"/><path d="M64,12C64,12,64,12,64,12C64,12,64,12,64,12C64,12,64,12,64,12C64,12,64,12,64,12Z" fill="currentColor"/><path d="M140,32C140,32,140,32,140,32C140,32,140,32,140,32C140,32,140,32,140,32C140,32,140,32,140,32Z" fill="currentColor"/><path d="M15.47,15.53L8.5,15.53C8.33,14.33,7.6,13.56,7.03,12.76C6.1,11.49,5.26,10.59,5.26,9.19C5.26,7.12,6.59,5.76,8.43,5.76C9.56,5.76,10.36,6.13,10.76,6.39L11.26,4.49L9.49,4.49L9.49,2.99L11.26,2.99L11.26,1.49L12.76,1.49L12.76,2.99L14.49,2.99L14.49,4.49L12.76,4.49L13.19,6.39C13.62,6.12,14.39,5.76,15.56,5.76C17.46,5.76,18.76,7.23,18.76,9.19C18.76,10.59,17.86,11.49,16.96,12.76C16.36,13.56,15.66,14.33,15.46,15.53Z" fill="currentColor"/><path d="M13.37,11.46L14.37,11.46C14.87,10.89,15.97,10.16,15.97,9.36C15.97,8.79,15.57,8.43,14.87,8.43C14.24,8.43,13.37,9.03,13.37,9.03Z" fill="currentColor"/><path d="M10.64,11.47L10.64,9.04C10.64,9.04,9.77,8.44,9.14,8.44C8.47,8.44,8.04,8.81,8.04,9.37C8.04,10.17,9.17,10.9,9.67,11.47Z" fill="currentColor"/><path d="M6,18L6,17C6,15.77,7.13,15,8.97,15L15,15C16.87,15,18,15.77,18,17L18,18Z" fill="currentColor"/><path d="M1,21C1,19.9,1.9,19,3,19C4.1,19,5,19.9,5,21C5,22.1,4.1,23,3,23C1.9,23,1,22.1,1,21Z" fill="currentColor"/><path d="M2.97,22L2.97,20L20.97,20L20.97,22Z" fill="currentColor"/><path d="M19,20.97C19,19.9,19.9,19,20.97,19C22.1,19,23,19.9,23,20.97C23,22.1,22.1,23,20.97,23C19.9,23,19,22.1,19,20.97Z" fill="currentColor"/></svg>