<svg xmlns="http://www.w3.org/2000/svg" viewBox="0 0 24 24"><path d="M5.97,20.5L18.04,20.5C18.04,18.33,17.47,17.77,16.17,16.77C15.14,15.97,13.94,15.07,13.57,12.37L15.24,12.37C15.47,12,15.57,11.3,15.57,10.94L13.67,10.07C14.5,9.47,15.04,8.5,15.04,7.5C15.04,5.83,13.67,4.5,12.01,4.5C10.34,4.5,8.98,5.83,8.98,7.5C8.98,8.5,9.51,9.47,10.35,10.07L8.45,10.94C8.45,11.31,8.55,12.01,8.78,12.37L10.45,12.37C10.05,15.14,8.88,16.04,7.85,16.8C6.55,17.77,5.98,18.33,5.98,20.5Z" fill="currentColor"/><path d="M19.47,22L4.54,22C4.17,17.93,5.24,16.87,6.94,15.6C7.57,15.13,8.14,14.67,8.51,13.87C6.71,12.84,6.71,10.5,7.94,9.5C7.64,8.9,7.47,8.2,7.47,7.5C7.47,5,9.54,3,12,3C14.47,3,16.53,5,16.53,7.5C16.53,8.2,16.36,8.9,16.06,9.5C17.33,10.5,17.33,12.83,15.49,13.87C15.86,14.64,16.46,15.1,17.06,15.57C18.76,16.87,19.83,17.97,19.46,22Z" fill="currentColor"/></svg>