<svg xmlns="http://www.w3.org/2000/svg" viewBox="0 0 24 24"><path d="M2,20.67C2,19.1,3.07,18.2,5.13,18.04L1.5,7.01C0.63,6.88,0,6.14,0,5.28C0,4.38,0.73,3.58,1.67,3.58C2.54,3.58,3.3,4.35,3.3,5.31C3.3,5.71,3.2,6.04,2.93,6.34L5.96,10.27L6.33,4.17C5.5,3.8,5.13,3.27,5.13,2.47C5.13,1.47,5.9,0.67,6.9,0.67C7.9,0.67,8.63,1.47,8.63,2.47C8.63,3.07,8.43,3.57,7.96,3.94L9.99,10.01L10.98,7.01C10.96,7.15,10.96,7.3,10.96,7.45C10.99,11.26,11.67,12.6,13.26,14.04C11.29,15.93,10.97,17.46,10.96,22.01L1.99,22.01Z" fill="currentColor"/><path d="M11.3,2.47C11.3,1.54,12.07,0.67,13.07,0.67C14.07,0.67,14.84,1.47,14.84,2.47C14.84,3.17,14.56,3.67,13.92,4.03C12.85,4.15,11.99,4.7,11.49,5.52L12.01,3.94C11.54,3.57,11.31,3.07,11.31,2.47Z" fill="currentColor"/><path d="M17.23,4C17.52,3.73,17.9,3.57,18.3,3.57C18.75,3.57,19.12,3.74,19.41,4Z" fill="currentColor"/><path d="M14.44,22C13.41,22,13.01,21.6,13.01,20.57C13.04,16.67,13.38,16.44,16.44,14C13.37,11.57,13.04,11.37,13.01,7.47C13.01,6.44,13.41,6.04,14.44,6.04L22.57,6.04C23.6,6.04,24,6.44,24,7.47C23.97,11.37,23.63,11.57,20.57,14C23.64,16.43,23.97,16.67,24,20.57C24,21.6,23.6,22,22.57,22Z" fill="currentColor"/><path d="M14.97,20L22.04,20C22.04,16.6,18.84,17.93,18.84,15.67L18.84,14.04C18.84,13.44,19.07,12.84,19.44,12.41L21.87,9.64C22.4,9.01,21.9,8.91,18.4,8.91C15.1,8.91,14.63,9.01,15.13,9.61L17.56,12.41C17.93,12.84,18.16,13.44,18.16,14.04L18.16,15.67C18.16,17.94,14.96,16.7,14.96,20Z" fill="currentColor"/></svg>