<svg xmlns="http://www.w3.org/2000/svg" viewBox="0 0 24 24"><path d="M8.6,16.33L9.83,9.33L14.23,9.33L15.5,16.33Z" fill="currentColor"/><path d="M7.23,17.2C7.23,15.83,8.03,15.13,12.03,15.13C16,15.13,16.83,15.83,16.83,17.2L16.83,18L7.23,18Z" fill="currentColor"/><path d="M14.4,10.53L9.67,10.53C8.97,10.03,8.67,9.46,8.64,8.9L8.51,6.57C8.98,6.37,9.34,6.27,9.78,6.27L10.08,7.6L11.08,7.6L11.28,6.07C11.28,6.07,11.68,6,12.05,6C12.42,6,12.82,6.07,12.82,6.07L12.99,7.6L14.02,7.6L14.32,6.27C14.75,6.27,15.12,6.37,15.59,6.57L15.46,8.9C15.43,9.47,15.13,10.03,14.43,10.53Z" fill="currentColor"/><path d="M23.13,9.1C24.03,9.1,24.23,9.5,23.6,10.17L21,12.94C20.37,13.61,20,13.47,20,12.54L20,6.47C20,4.64,19.37,4,17.53,4L6.5,4C4.67,4,4,4.63,4,6.47L4,7.1C4,7.7,3.67,8.03,3.07,8.03L2.94,8.03C2.34,8.03,2.01,7.7,2.01,7.1L2.01,6.97C2.01,3.3,3.31,2,6.98,2L17.05,2C20.72,2,22.02,3.3,22.02,6.97L22.02,9.1Z" fill="currentColor"/><path d="M0.87,14.9C-0.03,14.9,-0.23,14.5,0.4,13.83L3,11.06C3.63,10.39,4,10.53,4,11.46L4,17.49C4,19.32,4.67,19.99,6.5,19.99L17.53,19.99C19.36,19.99,20,19.32,20,17.49L20,16.89C20,16.29,20.33,15.96,20.93,15.96L21.06,15.96C21.66,15.96,21.99,16.29,21.99,16.89L21.99,17.02C21.99,20.69,20.69,21.99,17.02,21.99L6.95,21.99C3.28,21.99,1.98,20.69,1.98,17.02L1.98,14.89Z" fill="currentColor"/></svg>