<svg xmlns="http://www.w3.org/2000/svg" viewBox="0 0 24 24" fill="currentColor"><path d="M8.48,19.38L17.53,19.38C17.53,17.75,17.1,17.33,16.13,16.58C15.35,15.98,14.45,15.3,14.18,13.28L15.43,13.28C15.6,13,15.68,12.47,15.68,12.2L14.25,11.55C14.87,11.1,15.28,10.37,15.28,9.62C15.28,8.37,14.25,7.37,13.01,7.37C11.75,7.37,10.73,8.37,10.73,9.62C10.73,10.37,11.13,11.1,11.76,11.55L10.34,12.2C10.34,12.48,10.41,13.01,10.58,13.28L11.84,13.28C11.54,15.35,10.66,16.03,9.89,16.6C8.91,17.33,8.48,17.75,8.48,19.37ZM18.6,20.5L7.4,20.5C7.13,17.45,7.93,16.65,9.21,15.7C9.68,15.35,10.1,15,10.38,14.4C9.03,13.63,9.03,11.88,9.96,11.13C9.73,10.68,9.6,10.15,9.6,9.63C9.6,7.75,11.15,6.25,13,6.25C14.85,6.25,16.4,7.75,16.4,9.63C16.4,10.15,16.27,10.68,16.05,11.13C17,11.88,17,13.62,15.62,14.4C15.9,14.98,16.34,15.33,16.8,15.68C18.07,16.65,18.87,17.48,18.59,20.5Z"/></svg>