<svg xmlns="http://www.w3.org/2000/svg" viewBox="0 0 24 24" fill="currentColor"><path d="M5.13,19.5C5.13,18.3,6.2,17.53,7.98,17.5C7.15,16.3,6.5,15,6.5,13.23C6.5,10,9.18,7.5,9.18,7.5C9,6.73,9,6.58,9,6.38C9,5.33,9.77,4.5,10.75,4.5L10.75,10.43C10.75,11.95,11.8,13,13.32,13L15,13C15,13.08,15,13.15,15,13.23C15,15,14.35,16.3,13.53,17.5C15.3,17.52,16.38,18.3,16.38,19.5L16.38,20.5L5.13,20.5ZM21.3,10L18.21,10C17.75,10,17.51,9.75,17.51,9.3L17.51,9.1C17.51,8.65,17.68,8.22,17.98,7.88L20.08,5.5L18.21,5.5C17.75,5.5,17.51,5.25,17.51,4.8L17.51,4.71C17.51,4.26,17.75,4.01,18.21,4.01L21.3,4.01C21.75,4.01,22,4.26,22,4.71L22,4.95C22,5.4,21.83,5.83,21.53,6.18L19.45,8.5L21.3,8.5C21.75,8.5,22,8.75,22,9.2L22,9.3C22,9.75,21.75,9.99,21.3,9.99ZM12.95,5.5L16.04,5.5C16.5,5.5,16.74,5.75,16.74,6.2L16.74,6.4C16.74,6.85,16.57,7.28,16.27,7.62L14.17,10L16.04,10C16.5,10,16.74,10.25,16.74,10.7L16.74,10.79C16.74,11.24,16.5,11.49,16.04,11.49L12.95,11.49C12.5,11.49,12.25,11.24,12.25,10.79L12.25,10.55C12.25,10.1,12.42,9.67,12.72,9.32L14.8,7L12.95,7C12.5,7,12.25,6.75,12.25,6.3L12.25,6.2C12.25,5.75,12.5,5.51,12.95,5.51Z"/></svg>