<svg xmlns="http://www.w3.org/2000/svg" viewBox="0 0 24 24" fill="currentColor"><path d="M4,19.5C4,18.42,4.39,17.68,5.9,17.28L6.98,11.14C6.13,10.53,5.79,9.84,5.75,9.14L5.57,6.24C6.15,5.99,6.63,5.86,7.17,5.86L7.55,7.51L8.8,7.51L9.03,5.61C9.03,5.61,9.55,5.52,10,5.52C10.45,5.52,10.98,5.61,10.98,5.61L11.18,7.51L12.45,7.51L12.83,5.86C13.38,5.86,13.86,5.99,14.43,6.24L14.37,7.19C12.66,7.65,12.28,8.9,12.87,11.36L13.47,13.89C11.97,14.7,11.47,15.6,11.47,17.39L11.47,19.02L14.92,19.02L15.26,20.52L3.99,20.52ZM16.47,19L18.47,19L17.95,21.4C17.82,21.95,17.8,22,17.5,22C17.2,22,17.18,21.95,17.05,21.4ZM13,16.8C13,16.18,13.32,15.63,13.9,15.36L15.23,14.68L14.23,10.46C13.88,8.98,14.25,8.51,15.75,8.51L19.26,8.51C20.76,8.51,21.13,8.98,20.78,10.46L19.75,14.71L21.1,15.36C21.68,15.64,22,16.19,22,16.81L22,17.51L13,17.51Z"/></svg>