<svg xmlns="http://www.w3.org/2000/svg" viewBox="0 0 24 24" fill="currentColor"><path d="M7.25,20.5L7.25,18.83C7.25,17.48,7.9,16.75,9.5,16.41C7.35,12.98,8.02,9.53,10.85,6.96C10.79,6.75,10.77,6.53,10.77,6.3C10.77,5.03,11.73,4,13,4C14.27,4,15.23,5.03,15.23,6.3C15.23,6.53,15.2,6.75,15.15,6.96C17.98,9.53,18.66,12.98,16.5,16.41C18.1,16.76,18.75,17.48,18.75,18.83L18.75,20.5ZM8.37,18.83L8.37,19.38L17.62,19.38L17.62,18.83C17.62,17.5,16.37,17.25,12.99,17.25C9.71,17.25,8.37,17.48,8.37,18.83ZM10.73,16.2C11.35,16.15,12.13,16.13,13,16.13C13.88,16.13,14.65,16.15,15.27,16.2C17.35,13.25,16.98,10.33,14.62,8.03C13.7,9.58,13.5,11.27,13.37,13L12.24,13C12.37,11.2,12.62,9.08,13.77,7.28C13.99,6.9,14.09,6.63,14.09,6.3C14.09,5.65,13.64,5.13,12.99,5.13C12.33,5.13,11.88,5.65,11.88,6.3C11.88,6.63,11.98,6.9,12.21,7.28C9.11,9.68,8.4,12.93,10.71,16.2Z"/></svg>