<svg xmlns="http://www.w3.org/2000/svg" viewBox="0 0 24 24"><path d="M4.93,21L18.96,21L18.96,20.37C18.96,18.2,17.56,17.5,11.93,17.5C6.3,17.5,4.93,18.2,4.93,20.37Z" fill="currentColor"/><path d="M3.93,22L3.93,20.37C3.93,17.44,5.86,16.5,11.93,16.5C18,16.5,19.96,17.43,19.96,20.37L19.96,22Z" fill="currentColor"/><path d="M7.23,17.73L6.23,17.73C6.23,14.36,8.8,12.66,9.76,11.9C10.81,11.03,11.18,10.54,11.3,10.5C10.68,11.12,9.6,12.03,8.36,12.03C7.63,12.06,7.86,12.6,7.03,13.4C6.33,14.03,4.16,13.37,3.3,12.63C2.43,11.83,2.5,10.6,3.07,9.76L4.67,7.56C5.27,6.69,5.14,6.49,5.67,5.13C5.8,4.8,6.17,4.1,6.74,3.63C7.24,3.2,7.34,3.13,7.44,2.86L7.64,1.96C7.84,1.09,8.77,0.43,9.67,0.76L11.37,2.43C18.9,3.26,20.94,10.7,17.24,17.96L16.34,17.49C19.81,10.69,17.97,3.96,10.91,3.39L9.18,1.66C8.91,1.66,8.68,1.93,8.61,2.19L8.41,3.12C8.24,3.65,7.88,3.95,7.38,4.39C6.88,4.79,6.71,5.22,6.61,5.49C6.21,6.52,6.21,7.09,5.48,8.12L3.91,10.32C3.54,10.85,3.58,11.49,3.98,11.85C4.58,12.35,6.21,12.75,6.38,12.62C7.01,12.02,7.05,11.05,8.38,11.02C9.41,11.02,10.35,10.09,10.85,9.55L11.38,8.95C12.58,10.42,11.75,11.55,10.41,12.65C9.41,13.45,7.24,14.88,7.24,17.72Z" fill="currentColor"/></svg>