<svg xmlns="http://www.w3.org/2000/svg" viewBox="0 0 24 24" fill="currentColor"><path d="M8.15,11.78C8.13,12,8.13,12.24,8.13,12.47C8.13,12.56,8.13,12.65,8.13,12.75L5.6,12.53C3.74,12.35,3.74,12.15,5.6,12ZM6.45,8.35L9.21,8.09C9.02,8.41,8.86,8.76,8.72,9.12L6.45,8.91C4.63,8.73,4.63,8.53,6.45,8.36ZM7.45,15.55L8.66,15.42C8.74,15.73,8.82,16.04,8.9,16.34L7.45,16.2C5.63,15.99,5.63,15.74,7.45,15.54ZM18.95,13.2C18.45,12.73,18.42,11.98,17.35,11.95C16.52,11.95,15.8,11.2,15.4,10.77L14.97,10.3C14.84,10.47,14.52,10.9,14.52,11.42C14.52,12.1,15.14,12.75,15.74,13.25C16.52,13.87,17.92,14.99,18.07,16.49L10.52,16.49C10.37,15.84,9.62,13.67,9.62,12.47C9.62,8.02,12.64,6.04,15.34,5.87L16.71,4.49C16.91,4.49,17.11,4.7,17.16,4.92L17.31,5.67C17.46,6.07,17.74,6.32,18.14,6.67C18.54,6.99,18.66,7.32,18.74,7.55C19.06,8.37,19.06,8.82,19.64,9.62L20.89,11.37C21.19,11.8,21.17,12.29,20.84,12.59C20.36,12.99,19.06,13.29,18.94,13.19ZM20.5,20.5L8.5,20.5L8.5,19.5C8.5,18.28,9.63,17.5,11.5,17.5L17.52,17.5C19.38,17.5,20.5,18.27,20.5,19.5Z"/></svg>