<svg xmlns="http://www.w3.org/2000/svg" viewBox="0 0 24 24"><path d="M4.5,20.93L2.1,23.33L2.07,23.36C1.64,23.79,1.17,23.79,0.74,23.36L0.64,23.26C0.21,22.83,0.21,22.36,0.64,21.93L6.97,15.6C6.58,14.63,6.34,13.55,6.34,12.3C6.34,8,9.91,4.67,9.91,4.67C9.68,3.64,9.68,3.44,9.68,3.17C9.68,1.77,10.71,0.67,12.01,0.67C13.31,0.67,14.34,1.77,14.34,3.17C14.34,3.44,14.34,3.64,14.11,4.67C14.11,4.67,14.95,5.46,15.82,6.76L21.98,0.6C22.41,0.17,22.88,0.17,23.31,0.6L23.41,0.7C23.83,1.12,23.84,1.58,23.44,2C23.43,2.01,23.42,2.02,23.41,2.03L16.84,8.6L7.96,17.48L7.37,18.07Z" fill="currentColor"/><path d="M6.3,22L17.52,10.78C17.61,11.27,17.67,11.78,17.67,12.3C17.67,14.67,16.8,16.4,15.7,18C18.07,18.03,19.5,19.07,19.5,20.67L19.5,22Z" fill="currentColor"/></svg>