<svg xmlns="http://www.w3.org/2000/svg" viewBox="0 0 24 24"><path d="M2.97,12.27C2.8,12.4,1.07,12,0.44,11.47C0.01,11.07,-0.03,10.4,0.37,9.84L2.04,7.51C2.81,6.44,2.81,5.84,3.24,4.74C3.34,4.44,3.51,4.01,4.04,3.57C4.57,3.1,4.94,2.77,5.14,2.24L5.34,1.24C5.41,0.94,5.67,0.67,5.94,0.67L7.77,2.5C10.76,2.69,13.96,4.44,15.08,8.05C11.07,8.51,8.03,11.85,8.03,16C8.03,18.41,9.06,20.54,10.7,22L1,22L1,20.67C1,19.28,2.09,18.32,3.94,18.07C3.97,14.97,6.09,13.27,7.24,12.34C8.04,11.67,8.87,10.81,8.87,9.91C8.87,9.21,8.44,8.64,8.27,8.41L7.7,9.04C7.17,9.61,6.2,10.61,5.1,10.61C3.67,10.64,3.63,11.64,2.97,12.28Z" fill="currentColor"/><path d="M20.03,16.03C20.03,13.76,18.3,12.03,16.03,12.03C13.76,12.03,12.03,13.76,12.03,16.03C12.03,18.3,13.76,20.03,16.03,20.03C18.3,20.03,20.03,18.3,20.03,16.03Z" fill="currentColor"/><path d="M10.03,16.03C10.03,12.73,12.73,10.03,16.03,10.03C19.33,10.03,22.03,12.73,22.03,16.03C22.03,19.33,19.33,22.03,16.03,22.03C12.73,22.03,10.03,19.33,10.03,16.03Z" fill="currentColor"/><path d="M23.63,23.43L23.5,23.56C23.07,23.99,22.6,23.99,22.17,23.56L18.47,19.86L19.94,18.39L23.64,22.09C24.07,22.52,24.07,22.99,23.64,23.42Z" fill="currentColor"/></svg>