<svg xmlns="http://www.w3.org/2000/svg" viewBox="0 0 24 24"><path d="M0.57,20.67C0.57,19.07,2,18.04,4.3,18C3.2,16.4,2.33,14.67,2.33,12.3C2.33,8,5.9,4.67,5.9,4.67C5.67,3.64,5.67,3.44,5.67,3.17C5.67,1.77,6.7,0.67,8,0.67C9.3,0.67,10.33,1.77,10.33,3.17C10.33,3.57,10.3,4.34,9.7,5.04C8,7.01,6.73,9.74,6.53,13.01L8.56,13.01C8.19,13.93,7.99,14.95,7.99,16.01C7.99,18.42,9.02,20.55,10.66,22.01L0.56,22.01Z" fill="currentColor"/><path d="M11.2,6.26C11.73,6.64,12.37,7.5,12.86,8.62C11.08,9.36,9.64,10.73,8.8,12.46C9.02,10,9.86,7.91,11.2,6.26Z" fill="currentColor"/><path d="M20,16.03C20,13.76,18.27,12.03,16,12.03C13.73,12.03,12,13.76,12,16.03C12,18.3,13.73,20.03,16,20.03C18.27,20.03,20,18.3,20,16.03Z" fill="currentColor"/><path d="M10,16.03C10,12.73,12.7,10.03,16,10.03C19.3,10.03,22,12.73,22,16.03C22,19.33,19.3,22.03,16,22.03C12.7,22.03,10,19.33,10,16.03Z" fill="currentColor"/><path d="M23.6,23.43L23.47,23.56C23.04,23.99,22.57,23.99,22.14,23.56L18.44,19.86L19.91,18.39L23.61,22.09C24.04,22.52,24.04,22.99,23.61,23.42Z" fill="currentColor"/></svg>