<svg xmlns="http://www.w3.org/2000/svg" viewBox="0 0 24 24" fill="currentColor"><path d="M5.5,19.5C5.5,18.28,6.63,17.5,8.48,17.5L10.38,17.5C10.8,18.69,11.54,19.73,12.49,20.5L5.5,20.5ZM10.13,11.52C10.13,11.52,9.28,10.92,8.63,10.92C7.95,10.92,7.52,11.3,7.52,11.87C7.52,12.68,8.65,13.4,9.15,13.97L10.11,13.97C10.04,14.39,10,14.82,10,15.25C10,15.68,10.04,16.1,10.11,16.5L7.67,16.5C7.3,15.83,6.75,15.4,6.23,14.87C5.35,14,4.48,13.1,4.48,11.7C4.48,9.62,5.88,8.27,7.78,8.27C8.98,8.27,9.78,8.63,10.48,9.15L10.78,7L8.75,7L8.75,5.5L10.78,5.5L10.78,4L12.26,4L12.26,5.5L14.23,5.5L14.23,7L12.28,7L12.51,9.15C12.94,8.83,13.41,8.57,14,8.42L12.06,10.4C10.95,11.53,10.36,12.68,10.13,13.88ZM20.22,18.18L20.15,18.1C19.82,17.82,19.77,17.45,20.02,17.07C20.32,16.52,20.49,15.89,20.49,15.25C20.49,13.17,18.79,11.5,16.72,11.5L16.72,10C19.59,10,21.99,12.38,21.99,15.25C21.99,16.28,21.69,17.25,21.17,18.05C20.9,18.42,20.55,18.45,20.22,18.18ZM16.77,19L16.77,20.5C13.9,20.5,11.5,18.12,11.5,15.25C11.5,14.22,11.8,13.25,12.32,12.45C12.6,12.08,12.95,12.05,13.28,12.32L13.35,12.4C13.68,12.68,13.73,13.05,13.48,13.43C13.18,13.98,13.01,14.61,13.01,15.25C13.01,17.33,14.71,19,16.78,19ZM17.5,21.75C17.03,22.17,16.75,22.04,16.75,21.42L16.75,18.07C16.75,17.45,17.03,17.32,17.5,17.75L19.4,19.42C19.64,19.65,19.64,19.85,19.4,20.07ZM16.75,12.43C16.75,13.05,16.47,13.18,16,12.75L14.1,11.08C13.86,10.85,13.86,10.65,14.1,10.43L16,8.75C16.47,8.33,16.75,8.45,16.75,9.08ZM16.75,12.43C16.75,13.05,16.47,13.18,16,12.75L14.1,11.08C13.86,10.85,13.86,10.65,14.1,10.43L16,8.75C16.47,8.33,16.75,8.45,16.75,9.08Z"/></svg>