<svg xmlns="http://www.w3.org/2000/svg" viewBox="0 0 24 24"><path d="M13.2,15.1C13.22,14.19,13.85,13.67,15.07,13.57L12.9,6.94C12.37,6.87,12,6.41,12,5.91C12,5.38,12.43,4.88,13,4.88C13.53,4.88,13.97,5.35,13.97,5.91C13.97,6.18,13.94,6.38,13.77,6.54L15.57,8.91L15.8,5.24C15.3,5.01,15.07,4.71,15.07,4.21C15.07,3.61,15.54,3.14,16.14,3.14C16.74,3.14,17.17,3.61,17.17,4.21C17.17,4.58,17.07,4.88,16.77,5.11L18,8.74L19.2,5.11C18.93,4.88,18.77,4.58,18.77,4.21C18.77,3.68,19.24,3.14,19.84,3.14C20.44,3.14,20.91,3.61,20.91,4.21C20.91,4.71,20.68,5.01,20.18,5.24L20.45,8.91L22.25,6.54C22.08,6.37,21.98,6.17,21.98,5.91C21.98,5.38,22.45,4.88,22.98,4.88C23.61,4.88,24.01,5.45,24.01,5.91C24.01,6.38,23.64,6.88,23.08,6.94L20.95,13.57C22.18,13.67,22.82,14.2,22.82,15.14L22.82,15.94L17.95,15.94Z" fill="currentColor"/><path d="M1.24,12.99C1.3,12.26,1.66,11.75,2.76,11.46L3.63,6.54C2.96,6.05,2.67,5.49,2.64,4.94L2.51,2.61C2.98,2.41,3.34,2.31,3.78,2.31L4.08,3.64L5.08,3.64L5.28,2.11C5.28,2.11,5.68,2.04,6.05,2.04C6.42,2.04,6.82,2.11,6.82,2.11L6.99,3.64L8.02,3.64L8.32,2.31C8.75,2.31,9.12,2.41,9.59,2.61L9.46,4.94C9.43,5.49,9.14,6.05,8.47,6.54L9.36,11.48C10.54,11.81,10.86,12.4,10.86,13.24L10.86,14.04L7.18,14.04Z" fill="currentColor"/><path d="M14.63,24L9.36,24C8.76,24,8.59,23.7,8.93,23.2L11.5,18.93L1.13,17.06C0.53,16.96,0.26,16.56,0.36,15.96L0.36,15.86C0.46,15.26,0.86,14.99,1.46,15.09L23.19,18.99C23.82,19.09,24.09,19.49,23.96,20.12C23.86,20.79,23.46,21.05,22.83,20.95L12.62,19.11L15.07,23.18C15.4,23.68,15.24,23.98,14.64,23.98Z" fill="currentColor"/></svg>