<svg xmlns="http://www.w3.org/2000/svg" viewBox="0 0 24 24" fill="currentColor"><path d="M13.83,6.23C14.4,5.98,14.88,5.85,15.42,5.85L15.8,7.5L17.07,7.5L17.27,5.61C17.27,5.61,17.8,5.51,18.25,5.51C18.51,5.51,18.8,5.54,19,5.57L19,20.51L15.68,20.51C15.68,18.75,14.92,17.85,14.15,17.15L15.23,11.14C14.39,10.53,14.05,9.84,14,9.14ZM5.83,20.5C5.83,17.6,8.7,18.05,8.93,15.15L8.98,14.68L7.8,14.68C7.68,14.43,7.6,14.13,7.6,13.83L8.97,12.99C8.22,12.48,8,11.96,8,11.26C8,10.16,8.9,9.26,10,9.26C11.1,9.26,12,10.16,12,11.26C12,11.94,11.7,12.56,11.03,13.01L12.4,13.83C12.4,14.13,12.32,14.43,12.17,14.68L11.03,14.68L11.05,15.15C11.3,18.06,14.18,17.61,14.18,20.5Z"/></svg>