<svg xmlns="http://www.w3.org/2000/svg" viewBox="0 0 24 24"><path d="M7.07,10.1C6.94,10.23,5.54,9.9,5.04,9.47C4.67,9.14,4.64,8.6,4.97,8.14L6.34,6.27C6.94,5.4,6.94,4.9,7.31,4C7.38,3.77,7.51,3.43,7.94,3.07C8.37,2.7,8.67,2.44,8.84,2L9.01,1.17C9.08,0.94,9.28,0.74,9.48,0.74L10.98,2.21C13.98,2.41,17.25,4.54,17.25,9.08C17.25,11.15,16.12,13.88,15.98,15.25L7.91,15.42C7.64,12.55,9.54,10.99,10.54,10.19C11.21,9.66,11.87,8.96,11.87,8.22C11.87,7.65,11.5,7.19,11.37,7.02L10.9,7.52C10.47,7.99,9.7,8.79,8.8,8.79C7.63,8.82,7.63,9.62,7.07,10.12Z" fill="currentColor"/><path d="M5.5,16.93C5.5,15.6,6.7,14.76,8.7,14.76L15.2,14.76C17.23,14.76,18.43,15.59,18.43,16.93L18.43,18L5.5,18Z" fill="currentColor"/><path d="M10.66,20.04L13.29,20.04L12.26,23.57C12.09,24.14,11.89,24.14,11.73,23.57Z" fill="currentColor"/><path d="M8.77,22.83C8.6,23.4,8.4,23.4,8.2,22.83L7.3,20.03L9.67,20.03Z" fill="currentColor"/><path d="M15.83,22.83C15.63,23.4,15.43,23.43,15.23,22.83L14.3,20.03L16.73,20.03Z" fill="currentColor"/></svg>