<svg xmlns="http://www.w3.org/2000/svg" viewBox="0 0 24 24" fill="currentColor"><path d="M6.27,20.5L6.27,18.27C6.27,17.09,6.63,16.27,7.95,15.8L6.12,11.37C5.22,10.87,4.65,9.95,4.65,8.95C4.65,7.45,5.87,6.23,7.42,6.23C7.62,6.23,7.89,6.28,8.17,6.32C8.37,5.03,9.47,4,10.89,4C11.77,4,12.52,4.43,13.02,5C13.56,4.34,14.34,4,15.14,4C16.54,4,17.67,5,17.86,6.32C18.11,6.27,18.36,6.23,18.61,6.23C20.16,6.23,21.36,7.48,21.36,8.95C21.36,9.95,20.79,10.88,19.91,11.37L18.09,15.8C19.42,16.27,19.77,17.09,19.77,18.27L19.77,20.5ZM7.77,19L18.27,19L18.27,18.27C18.27,17.09,17.5,16.75,13.02,16.75C8.55,16.75,7.77,17.1,7.77,18.27ZM7.28,10.23L9.45,15.45C10.35,15.32,11.53,15.25,13.03,15.25C14.53,15.25,15.71,15.33,16.61,15.45L18.78,10.23C19.43,10.1,19.88,9.55,19.88,8.95C19.88,8.28,19.34,7.73,18.63,7.73C17.98,7.73,17.43,8.33,17.43,9C17.43,9.21,17.48,9.51,17.66,9.73L15.78,12.38L15.56,8.03C16.16,7.83,16.43,7.38,16.43,6.81C16.43,6.08,15.89,5.51,15.16,5.51C14.46,5.51,13.88,6.11,13.88,6.81C13.88,7.2,14.06,7.58,14.41,7.86L13.04,11.93L11.66,7.86C12.02,7.58,12.19,7.2,12.19,6.81C12.19,6.11,11.61,5.51,10.91,5.51C10.19,5.51,9.64,6.09,9.64,6.81C9.64,7.38,9.92,7.83,10.52,8.03L10.29,12.38L8.39,9.73C8.57,9.53,8.64,9.23,8.64,9C8.64,8.31,8.06,7.73,7.44,7.73C6.71,7.73,6.17,8.28,6.17,8.95C6.17,9.55,6.64,10.1,7.29,10.23Z"/></svg>