<svg xmlns="http://www.w3.org/2000/svg" viewBox="0 0 24 24"><path d="M0,20L0,19C0,17.77,0.77,16.7,2.3,16.33C0.53,13.66,0.2,10.33,3.73,7.13C2.99,5.98,3.5,4.49,4.84,4.1L5.07,7.36C5.15,8.2,5.57,8.99,6.25,9.6L5.39,15.18C3.94,16.06,3.1,17.63,3.1,19.34L3.1,20.01Z" fill="currentColor"/><path d="M5.13,20L5.13,19.33C5.13,18.13,5.56,17.33,7.23,16.9L8.46,8.93C7.49,8.6,7.13,7.93,7.06,7.2L6.86,4.37C7.49,4.1,8.03,3.97,8.63,3.97L9.03,5.77L10.26,5.77L10.56,3.7C10.56,3.7,11.23,3.57,11.69,3.57C12.19,3.57,12.82,3.7,12.82,3.7L12.94,4.51C12.57,5,12.15,5.69,12.11,5.82C11.66,6.99,11.66,7.18,11.43,7.5L10.12,9.35C9.36,10.45,9.53,12.42,10.47,13.26C11.22,13.91,12.33,14.29,13.33,14.33C13.11,14.68,12.93,15.04,12.79,15.42C11.48,16.15,10.52,17.48,10.52,18.96L10.52,19.99Z" fill="currentColor"/><path d="M13.77,12.4C13.64,12.5,12.27,12.2,11.77,11.77C11.44,11.47,11.44,10.94,11.74,10.5L13.04,8.67C13.64,7.84,13.64,7.37,13.97,6.5C14.04,6.3,14.17,5.93,14.6,5.6C15,5.23,15.3,4.97,15.47,4.53L15.6,3.8C15.67,3.53,15.87,3.33,16.1,3.33L17.5,4.76C20.33,4.93,23.47,6.99,23.13,11.63C23.03,13,22.23,15.46,21.96,16.9C23.46,17.13,23.99,17.83,23.99,18.97L23.99,20L12.49,20L12.49,18.97C12.49,17.84,13.32,17.14,14.46,16.9C14.49,13.97,19.56,11.43,17.89,9.37C17.02,10.34,16.39,11.07,15.42,11.07C14.29,11.1,14.25,11.9,13.75,12.4Z" fill="currentColor"/></svg>