<svg xmlns="http://www.w3.org/2000/svg" viewBox="0 0 24 24" fill="currentColor"><path d="M18.75,12.55C18.75,12.55,18.75,12.55,18.75,12.55C18.75,12.55,18.75,12.55,18.75,12.55C18.75,12.55,18.75,12.55,18.75,12.55C18.75,12.55,18.75,12.55,18.75,12.55ZM35.25,5.05C35.25,5.05,35.25,5.05,35.25,5.05C35.25,5.05,35.25,5.05,35.25,5.05C35.25,5.05,35.25,5.05,35.25,5.05C35.25,5.05,35.25,5.05,35.25,5.05ZM52,13C52,13,52,13,52,13C52,13,52,13,52,13C52,13,52,13,52,13C52,13,52,13,52,13ZM109,28C109,28,109,28,109,28C109,28,109,28,109,28C109,28,109,28,109,28C109,28,109,28,109,28ZM15.6,15.65L10.38,15.65C10.25,14.75,9.7,14.17,9.27,13.57C8.57,12.62,7.95,11.94,7.95,10.89C7.95,9.34,8.94,8.32,10.32,8.32C11.17,8.32,11.77,8.6,12.07,8.79L12.45,7.37L11.12,7.37L11.12,6.24L12.45,6.24L12.45,5.12L13.57,5.12L13.57,6.24L14.87,6.24L14.87,7.37L13.57,7.37L13.89,8.79C14.21,8.59,14.79,8.32,15.67,8.32C17.09,8.32,18.07,9.42,18.07,10.89C18.07,11.94,17.39,12.62,16.72,13.57C16.27,14.17,15.74,14.75,15.59,15.65ZM14.03,12.59L14.78,12.59C15.15,12.17,15.98,11.62,15.98,11.02C15.98,10.59,15.68,10.32,15.15,10.32C14.68,10.32,14.03,10.77,14.03,10.77ZM11.98,12.6L11.98,10.78C11.98,10.78,11.33,10.33,10.86,10.33C10.35,10.33,10.03,10.61,10.03,11.03C10.03,11.63,10.88,12.18,11.25,12.6ZM8.5,17.5L8.5,16.75C8.5,15.83,9.35,15.25,10.73,15.25L15.25,15.25C16.65,15.25,17.5,15.83,17.5,16.75L17.5,17.5ZM6.25,18.25C7.07,18.25,7.75,18.92,7.75,19.75C7.75,20.58,7.07,21.25,6.25,21.25C5.43,21.25,4.75,20.58,4.75,19.75C4.75,18.92,5.43,18.25,6.25,18.25ZM6.23,20.5L6.23,19L19.73,19L19.73,20.5ZM19.73,18.25C20.57,18.25,21.25,18.92,21.25,19.73C21.25,20.57,20.58,21.25,19.73,21.25C18.92,21.25,18.25,20.58,18.25,19.73C18.25,18.92,18.92,18.25,19.73,18.25Z"/></svg>