<svg xmlns="http://www.w3.org/2000/svg" viewBox="0 0 24 24" fill="currentColor"><path d="M12.77,4.38C12.92,3.95,13.07,3.95,13.23,4.38L13.79,5.98C13.53,5.93,13.27,5.9,13,5.9C12.73,5.9,12.47,5.93,12.21,5.98ZM9.2,9.14C9.17,9.33,9.15,9.54,9.15,9.75C9.15,10.13,9.21,10.53,9.33,10.9L7.38,10.22C6.96,10.07,6.96,9.92,7.38,9.77ZM9.2,5.88L10.76,6.62C10.31,6.93,9.94,7.35,9.66,7.82L8.87,6.2C8.67,5.8,8.79,5.67,9.19,5.88ZM18.63,9.77C19.05,9.92,19.05,10.07,18.63,10.22L16.68,10.9C16.79,10.55,16.85,10.16,16.85,9.75C16.85,9.54,16.83,9.34,16.8,9.14ZM16.8,5.88C17.2,5.67,17.33,5.8,17.13,6.2L16.33,7.82C16.05,7.34,15.68,6.93,15.23,6.62ZM17.88,20.5L8.15,20.5C8.15,17.1,11.5,17.65,11.77,14.3L11.79,13.72L10.44,13.72C10.27,13.4,10.22,13.02,10.22,12.67L11.79,11.77C10.99,11.25,10.64,10.5,10.64,9.75C10.64,8.42,11.72,7.4,12.99,7.4C14.27,7.4,15.34,8.43,15.34,9.75C15.34,10.55,15.06,11.17,14.19,11.75L15.77,12.67C15.77,13.02,15.71,13.4,15.54,13.72L14.19,13.72L14.21,14.3C14.49,17.65,17.87,17.09,17.87,20.5Z"/></svg>