<svg xmlns="http://www.w3.org/2000/svg" viewBox="0 0 24 24"><path d="M7.43,17.83L6.5,18.16C6.03,16.93,5.43,16.46,4.73,15.79C3.53,14.62,2.26,13.09,2.26,10.86C2.26,8.26,4.03,5.93,7.16,5.93C8.36,5.93,9.33,6.3,10.09,6.7L10.29,5.3L8.19,5.3L8.19,2L10.32,2L10.32,0L13.65,0L13.65,2L15.75,2L15.75,5.3L13.72,5.3L13.85,6.67C14.68,6.27,15.68,5.94,16.85,5.94C20.05,5.94,21.72,8.41,21.72,10.91C21.72,13.11,20.45,14.58,19.22,15.81C18.39,16.61,17.89,16.98,17.45,18.18L16.52,17.85C17.02,16.45,17.72,15.88,18.55,15.08C19.68,13.95,20.72,12.71,20.72,10.91C20.72,8.88,19.39,6.94,16.85,6.94C15.22,6.94,14.05,7.71,13.05,8.31L12.58,4.31L14.75,4.31L14.75,3.01L12.65,3.01L12.65,1.01L11.32,1.01L11.32,3.01L9.19,3.01L9.19,4.31L11.42,4.31L10.89,8.28C9.76,7.68,8.76,6.95,7.16,6.95C4.63,6.95,3.26,8.75,3.26,10.88C3.26,12.71,4.26,13.98,5.39,15.08C6.09,15.75,6.86,16.35,7.42,17.85Z" fill="currentColor"/><path d="M5.6,21L18.4,21L18.4,20.5C18.4,18.93,17.37,18.37,12,18.37C6.63,18.37,5.6,18.94,5.6,20.5Z" fill="currentColor"/><path d="M4.6,22L4.6,20.5C4.6,18.2,6.17,17.37,12,17.37C17.83,17.37,19.4,18.2,19.4,20.5L19.4,22Z" fill="currentColor"/><path d="M15.33,14.73L13.3,14.73L13.3,10.73C13.8,10.16,14.83,9.46,15.87,9.46C17.04,9.46,17.74,10.39,17.74,11.23C17.74,12.7,15.77,14.2,15.34,14.73Z" fill="currentColor"/><path d="M14.3,11.17L14.3,13.74L14.9,13.74C15.4,13.24,16.73,12.11,16.73,11.24C16.73,10.87,16.4,10.47,15.86,10.47C15.33,10.47,14.73,10.8,14.29,11.17Z" fill="currentColor"/><path d="M10.7,14.73L8.67,14.73C8.24,14.2,6.27,12.7,6.27,11.23C6.27,10.4,6.97,9.46,8.17,9.46C9.17,9.46,10.2,10.16,10.7,10.73Z" fill="currentColor"/><path d="M9.7,13.73L9.7,11.16C9.27,10.79,8.7,10.46,8.17,10.46C7.6,10.46,7.27,10.86,7.27,11.23C7.27,12.1,8.6,13.23,9.1,13.73Z" fill="currentColor"/></svg>