<svg xmlns="http://www.w3.org/2000/svg" viewBox="0 0 24 24"><path d="M4.7,7C2.9,7,1.4,6.17,1.4,4.3C1.4,2.77,2.47,1.83,3.9,1.83C5.43,1.83,6.38,2.82,7.02,4.75C7.68,2.82,8.62,1.83,10.13,1.83C11.6,1.83,12.63,2.8,12.63,4.3C12.63,6.13,11.1,7,9.4,7Z" fill="currentColor"/><path d="M2.67,22C0.67,22,0,21.33,0,19.33L0,16L6,16L6,22Z" fill="currentColor"/><path d="M0,11.67C0,9.67,0.67,9,2.67,9L6,9L6,14L0,14Z" fill="currentColor"/><path d="M8,14L8,9L10.99,9C10.91,9.22,10.85,9.35,10.74,9.5L9.43,11.35C8.94,12.05,8.84,13.11,9.07,14Z" fill="currentColor"/><path d="M8.02,22L8,22L8,16L11.03,16C11.46,16.16,11.91,16.27,12.35,16.32C12.2,16.65,12.08,17,11.99,17.38C10.67,18,9.85,19.08,9.59,20.19C9.53,20.45,9.5,20.71,9.5,20.97L9.5,22Z" fill="currentColor"/><path d="M4.7,5.53L5.82,5.53C5.31,3.91,4.87,3.3,4.03,3.3C3.4,3.3,2.8,3.57,2.8,4.3C2.8,5.3,3.8,5.53,4.7,5.53Z" fill="currentColor"/><path d="M8.27,5.53L9.4,5.53C10.2,5.53,11.2,5.3,11.2,4.3C11.2,3.57,10.6,3.3,10.03,3.3C9.25,3.3,8.74,3.92,8.26,5.53Z" fill="currentColor"/><path d="M11.1,13.77C10.77,13.47,10.77,12.94,11.07,12.5L12.37,10.67C12.97,9.84,12.97,9.37,13.3,8.5C13.37,8.3,13.5,7.93,13.93,7.6C14.33,7.23,14.63,6.97,14.8,6.53L14.93,5.8C15,5.53,15.2,5.33,15.43,5.33L16.83,6.76C19.66,6.93,22.8,8.99,22.8,13.63C22.8,15,21.9,17.46,21.63,18.9C23.13,19.13,24,19.83,24,20.97L24,22L11.5,22L11.5,20.97C11.5,19.84,12.33,19.14,13.8,18.9C13.83,15.13,17.7,14.4,17.7,12.57C17.7,12,17.37,11.54,17.23,11.37L16.8,11.87C16.4,12.3,15.63,13.07,14.77,13.07C13.64,13.1,13.6,13.9,13.1,14.4C12.97,14.5,11.6,14.2,11.1,13.77Z" fill="currentColor"/></svg>