<svg xmlns="http://www.w3.org/2000/svg" viewBox="0 0 24 24"><path d="M5.53,10.37C5.51,10.67,5.5,10.99,5.5,11.3C5.5,11.42,5.5,11.54,5.51,11.67L2.13,11.37C-0.34,11.14,-0.34,10.87,2.13,10.67Z" fill="currentColor"/><path d="M3.27,5.8L6.95,5.45C6.7,5.88,6.48,6.34,6.29,6.83L3.27,6.54C0.84,6.31,0.84,6.04,3.27,5.81Z" fill="currentColor"/><path d="M4.6,15.4L6.21,15.23C6.32,15.64,6.43,16.06,6.54,16.46L4.6,16.26C2.17,15.99,2.17,15.66,4.6,15.39Z" fill="currentColor"/><path d="M19.93,12.27C19.26,11.64,19.23,10.64,17.8,10.6C16.7,10.6,15.73,9.6,15.2,9.03L14.63,8.4C14.46,8.63,14.03,9.2,14.03,9.9C14.03,10.8,14.86,11.67,15.66,12.33C16.69,13.16,18.56,14.66,18.76,16.66L8.69,16.66C8.49,15.79,7.49,12.89,7.49,11.29C7.49,5.36,11.52,2.72,15.12,2.49L16.95,0.66C17.22,0.66,17.48,0.93,17.55,1.23L17.75,2.23C17.95,2.76,18.32,3.1,18.85,3.56C19.38,3.99,19.55,4.43,19.65,4.73C20.08,5.83,20.08,6.43,20.85,7.5L22.52,9.83C22.92,10.4,22.89,11.06,22.45,11.46C21.82,11.99,20.08,12.39,19.92,12.26Z" fill="currentColor"/><path d="M22,22L6,22L6,20.67C6,19.04,7.5,18,10,18L18.03,18C20.5,18,22,19.03,22,20.67Z" fill="currentColor"/></svg>