<svg xmlns="http://www.w3.org/2000/svg" viewBox="0 0 24 24" fill="currentColor"><path d="M4,14.85C4.02,13.7,4.43,12.92,5.07,12.55C6.5,11.63,6.63,10.5,6.67,10.02L5.67,10.02C5.54,9.85,5.5,9.59,5.5,9.27L6.77,8.77C6.08,8.19,5.85,7.7,5.85,7.1C5.85,6.1,6.68,5.24,7.71,5.24C8.73,5.24,9.58,6.09,9.56,7.1C9.56,7.7,9.31,8.2,8.63,8.77L9.89,9.27C9.89,9.59,9.83,9.85,9.76,10.02L8.73,10.02C8.75,10.25,8.79,10.63,8.99,11.06C7.68,11.65,6.76,12.97,6.76,14.54C6.76,14.79,6.8,15.05,6.89,15.32C5.77,15.27,4.63,15.11,4.01,14.84ZM18.25,5.25C19.28,5.25,20.1,6.09,20.1,7.1C20.1,7.7,19.88,8.2,19.18,8.77L20.45,9.27C20.45,9.6,20.4,9.85,20.28,10.02L19.28,10.02C19.34,10.5,19.46,11.62,20.88,12.55C21.53,12.93,21.93,13.7,21.95,14.85C21.34,15.11,20.23,15.27,19.13,15.33C19.21,15.07,19.25,14.81,19.25,14.55C19.25,13,18.32,11.65,16.98,11.06C17.18,10.63,17.22,10.26,17.23,10.02L16.2,10.02C16.13,9.85,16.07,9.6,16.07,9.27L17.33,8.77C16.65,8.19,16.4,7.7,16.4,7.1C16.38,6.1,17.22,5.25,18.25,5.25ZM15.35,18.85L10.64,18.85C10.52,18.02,10.04,17.52,9.65,16.98C9.02,16.1,8.45,15.5,8.45,14.55C8.45,13.15,9.37,12.25,10.6,12.25C11.37,12.25,11.9,12.48,12.18,12.68L12.53,11.38L11.33,11.38L11.33,10.38L12.51,10.38L12.51,9.36L13.53,9.36L13.53,10.38L14.71,10.38L14.71,11.38L13.53,11.38L13.83,12.68C14.11,12.48,14.63,12.25,15.41,12.25C16.71,12.25,17.58,13.23,17.58,14.55C17.58,15.5,16.98,16.11,16.36,16.98C15.98,17.52,15.48,18.02,15.36,18.85ZM13.95,14.45L13.95,16.1L14.61,16.1C14.93,15.7,15.71,15.22,15.71,14.67C15.71,14.3,15.41,14.02,14.96,14.02C14.53,14.02,13.96,14.45,13.96,14.45ZM12.08,16.1L12.08,14.45C12.08,14.45,11.5,14.02,11.08,14.02C10.63,14.02,10.33,14.3,10.33,14.67C10.33,15.22,11.1,15.7,11.43,16.1ZM8.97,20.5L8.97,19.83C8.97,19,9.72,18.48,10.98,18.48L15.05,18.48C16.3,18.48,17.07,19,17.07,19.83L17.07,20.5Z"/></svg>