<svg xmlns="http://www.w3.org/2000/svg" viewBox="0 0 24 24" fill="currentColor"><path d="M13,20.5L13,19.73L18.2,19.73C18.2,18.4,17.7,17.35,16.62,16.67C14.97,15.63,14.22,14.8,14.32,12.45L15.89,12.45C16.1,12.13,16.17,11.78,16.17,11.42L14.25,10.3C15.07,9.7,15.42,8.93,15.42,8.07C15.42,6.7,14.37,5.75,13,5.75L13,5C14.78,5,16.17,6.27,16.17,8.07C16.17,8.82,15.95,9.52,15.48,10.15L16.9,10.97C17,11.6,16.9,12.5,16.28,13.2L15.08,13.2C15.15,14.65,15.73,15.23,17.03,16.05C18.55,17,19.13,18.6,18.9,20.5ZM7.3,20.5C7.3,19.02,7.88,17.88,8.85,17.25C11.5,15.58,11.65,13.78,11.65,13.2L11.65,12.48L10.02,12.48C9.82,12.12,9.72,11.73,9.72,11.3L11.65,10.15C10.7,9.55,10.3,8.67,10.3,7.77C10.3,6.25,11.5,5,13.02,5L13.02,20.5Z"/></svg>