<svg xmlns="http://www.w3.org/2000/svg" viewBox="0 0 24 24" fill="currentColor"><path d="M5.5,19.5C5.5,18.42,5.89,17.68,7.4,17.28L8.48,11.14C7.63,10.53,7.29,9.84,7.25,9.14L7.07,6.24C7.65,5.99,8.12,5.86,8.67,5.86L9.05,7.51L10.3,7.51L10.52,5.61C10.52,5.61,11.05,5.52,11.5,5.52C11.95,5.52,12.47,5.61,12.47,5.61L12.68,7.51L13.95,7.51L14.33,5.86C14.88,5.86,15.36,5.99,15.92,6.24L15.91,6.47L12.05,10.41C10.52,11.97,10,13.56,10,15.27C10,17.4,10.97,19.28,12.49,20.52L5.5,20.52ZM20.15,18.1C19.82,17.82,19.77,17.45,20.02,17.07C20.32,16.52,20.49,15.89,20.49,15.25C20.49,13.17,18.79,11.5,16.72,11.5L16.72,10C19.59,10,21.99,12.38,21.99,15.25C21.99,16.28,21.69,17.25,21.17,18.05C20.9,18.42,20.55,18.45,20.22,18.18ZM16.77,19L16.77,20.5C13.9,20.5,11.5,18.12,11.5,15.25C11.5,14.22,11.8,13.25,12.32,12.45C12.6,12.08,12.95,12.05,13.28,12.32L13.35,12.4C13.68,12.68,13.73,13.05,13.48,13.43C13.18,13.98,13.01,14.61,13.01,15.25C13.01,17.33,14.71,19,16.78,19ZM17.5,21.75C17.03,22.17,16.75,22.04,16.75,21.42L16.75,18.07C16.75,17.45,17.03,17.32,17.5,17.75L19.4,19.42C19.64,19.65,19.64,19.85,19.4,20.07ZM16.75,12.43C16.75,13.05,16.47,13.18,16,12.75L14.1,11.08C13.86,10.85,13.86,10.65,14.1,10.43L16,8.75C16.47,8.33,16.75,8.45,16.75,9.08ZM16.75,12.43C16.75,13.05,16.47,13.18,16,12.75L14.1,11.08C13.86,10.85,13.86,10.65,14.1,10.43L16,8.75C16.47,8.33,16.75,8.45,16.75,9.08Z"/></svg>