<svg xmlns="http://www.w3.org/2000/svg" viewBox="0 0 24 24" fill="currentColor"><path d="M17.33,17.3L16.58,17.39L15.5,10.7L16.25,10.6ZM9.98,10.92C8.93,10.6,8.55,9.93,8.5,9.22L8.3,6.35C8.62,6.18,9.72,5.8,10.53,5.85L10.9,7.5L11.45,7.5L11.65,5.62C12.53,5.45,13.45,5.45,14.3,5.62L14.54,7.5L15.09,7.5L15.47,5.84C16.27,5.79,17.37,6.17,17.7,6.35L17.49,9.22C17.44,9.92,17.06,10.59,16.02,10.92C13.69,10.6,12.29,10.6,9.96,10.92ZM10.05,10.17C12.3,9.85,13.71,9.85,15.96,10.17C16.53,9.95,16.71,9.63,16.76,9.18L16.91,6.83C16.68,6.75,16.38,6.68,16.08,6.63L15.71,8.25L13.91,8.25L13.66,6.28C13.21,6.23,12.81,6.23,12.36,6.28L12.12,8.25L10.32,8.25L9.94,6.63C9.64,6.68,9.34,6.75,9.12,6.83L9.27,9.17C9.32,9.62,9.49,9.95,10.07,10.17ZM9.75,10.6L10.5,10.7L9.43,17.39L8.68,17.3ZM7.75,19.73L18.25,19.73L18.25,19.35C18.25,18.15,17.55,17.7,13,17.7C8.45,17.7,7.75,18.15,7.75,19.35ZM7,20.48L7,19.35C7,17.63,7.98,16.95,13,16.95C18.02,16.95,19,17.63,19,19.35L19,20.48Z"/></svg>