<svg xmlns="http://www.w3.org/2000/svg" viewBox="0 0 24 24" fill="currentColor"><path d="M14.15,15.35C14.15,14.62,14.8,14.17,15.82,14.15C15.35,13.42,14.94,12.65,14.94,11.57C14.94,9.65,16.54,8.15,16.54,8.15C16.44,7.67,16.44,7.6,16.44,7.47C16.44,6.85,16.92,6.35,17.49,6.35C18.07,6.35,18.54,6.85,18.54,7.47C18.54,7.64,18.52,8,18.27,8.32C17.49,9.2,16.91,10.42,16.84,11.9L17.84,11.9C17.89,10.67,18.29,9.67,18.94,8.87C19.39,9.2,20.04,10.35,20.04,11.57C20.04,12.7,19.69,13.47,19.2,14.15C20.22,14.17,20.84,14.65,20.84,15.35L20.84,15.95L17.44,15.95L14.15,15.37ZM11.57,14.52L9.36,14.52L5.56,13.86C5.96,12.45,7.6,12.47,7.75,10.6L7.77,10.25L6.92,10.25C6.83,10.07,6.77,9.85,6.77,9.63L7.77,9.02C7.27,8.7,7.04,8.22,7.04,7.75C7.04,6.93,7.72,6.27,8.52,6.27C9.32,6.27,10,6.93,10,7.75C10,8.25,9.83,8.65,9.27,9L10.27,9.63C10.27,9.85,10.22,10.07,10.12,10.25L9.27,10.25L9.29,10.6C9.47,12.72,11.57,12.4,11.57,14.52ZM14.97,22L11.02,22C10.57,22,10.44,21.77,10.7,21.4L12.63,18.2L4.85,16.79C4.4,16.72,4.2,16.42,4.27,15.97L4.27,15.89C4.35,15.44,4.65,15.24,5.1,15.32L21.39,18.24C21.87,18.32,22.07,18.62,21.97,19.09C21.89,19.59,21.59,19.79,21.12,19.71L13.46,18.33L15.3,21.38C15.55,21.76,15.43,21.98,14.98,21.98Z"/></svg>