<svg xmlns="http://www.w3.org/2000/svg" viewBox="0 0 24 24"><path d="M9.74,22L9.35,17.29C9.76,16.25,10.55,15.35,11.93,14.13C11.83,14,11.74,13.86,11.65,13.73C12.88,12.69,13.35,10.96,11.9,9.5C12.3,8.72,12.53,7.89,12.53,7.2C12.53,6.62,12.42,6.06,12.23,5.53C13.05,4.02,14.65,3,16.5,3C19.17,3,21.33,5.13,21.33,7.8C21.33,8.33,21.23,8.87,21.06,9.4C22.39,10.97,22.23,12.6,20.63,14.1C23.96,16.7,24.33,17.83,23.8,22Z" fill="currentColor"/><path d="M11.07,20L21.94,20C21.94,17.97,21.64,17.43,20.41,16.53C19.44,15.8,18.34,14.96,17.98,12.36L19.55,12.36C19.75,12.03,19.85,11.36,19.85,11.03L18.08,10.23C18.85,9.66,19.35,8.73,19.35,7.8C19.35,6.23,18.08,5,16.52,5C14.95,5,13.69,6.23,13.69,7.8C13.69,8.73,14.19,9.67,14.96,10.23L13.19,11.03C13.19,11.36,13.26,12.03,13.49,12.36L15.06,12.36C14.73,14.89,13.59,15.73,12.63,16.49C11.4,17.42,11.1,17.96,11.1,19.99Z" fill="currentColor"/><path d="M13.33,22L0,22C0,17.37,4.6,18.07,4.97,13.47L5.04,12.67L3.17,12.67C2.94,12.27,2.84,11.8,2.84,11.34L5.04,9.97C3.84,9.17,3.47,8.34,3.47,7.2C3.47,5.43,4.9,4,6.67,4C8.44,4,9.87,5.43,9.87,7.2C9.87,8.27,9.4,9.27,8.3,10L10.5,11.33C10.5,11.8,10.4,12.26,10.17,12.66L8.3,12.66L8.37,13.46C8.74,18.06,13.34,17.36,13.34,21.99Z" fill="currentColor"/></svg>