<svg xmlns="http://www.w3.org/2000/svg" viewBox="0 0 24 24"><path d="M12.13,13.3C12.19,13.22,12.27,13.15,12.35,13.07C12.61,13.4,12.92,13.71,13.27,14.03C11.3,15.92,10.98,17.45,10.97,22L1,22L1,20.67C1,19.22,2.18,18.24,4.18,18.04C3.81,16.82,3.02,15.94,2.37,15.04C1.14,13.34,0,12.14,0,10.27C0,7.5,1.8,5.7,4.23,5.7C5.76,5.7,6.8,6.17,7.36,6.53L8.03,4L5.66,4L5.66,2L7.99,2L7.99,0L9.99,0L9.99,2L12.32,2L12.32,4L10.02,4L10.59,6.53C10.74,6.43,10.92,6.33,11.14,6.23C11.02,6.6,10.96,7.01,10.96,7.44C10.97,8.38,11.02,9.17,11.11,9.85C10.94,9.96,10.83,10.03,10.83,10.03L10.83,13.3Z" fill="currentColor"/><path d="M7.17,10.03C7.17,10.03,6.04,9.23,5.17,9.23C4.27,9.23,3.7,9.73,3.7,10.5C3.7,11.57,5.2,12.53,5.87,13.3L7.17,13.3Z" fill="currentColor"/><path d="M14.44,22C13.41,22,13.01,21.6,13.01,20.57C13.04,16.67,13.38,16.44,16.44,14C13.37,11.57,13.04,11.37,13.01,7.47C13.01,6.44,13.41,6.04,14.44,6.04L22.57,6.04C23.6,6.04,24,6.44,24,7.47C23.97,11.37,23.63,11.57,20.57,14C23.64,16.43,23.97,16.67,24,20.57C24,21.6,23.6,22,22.57,22Z" fill="currentColor"/><path d="M14.97,20L22.04,20C22.04,16.6,18.84,17.93,18.84,15.67L18.84,14.04C18.84,13.44,19.07,12.84,19.44,12.41L21.87,9.64C22.4,9.01,21.9,8.91,18.4,8.91C15.1,8.91,14.63,9.01,15.13,9.61L17.56,12.41C17.93,12.84,18.16,13.44,18.16,14.04L18.16,15.67C18.16,17.94,14.96,16.7,14.96,20Z" fill="currentColor"/></svg>