<svg xmlns="http://www.w3.org/2000/svg" viewBox="0 0 24 24"><path d="M12,21.97C5.57,21.94,5.3,20.8,5.3,20.67C5.3,19,5.83,17.37,7.2,16.4C9.77,14.47,10.1,12.67,10.2,11.53L10.2,10.7L8.13,10.7C7.9,10.23,7.76,9.83,7.76,9.33L10.09,7.8C9.29,7.23,8.76,6.27,8.76,5.2C8.76,3.4,10.19,1.97,11.99,1.97C13.79,1.97,15.22,3.4,15.22,5.2C15.22,6.27,14.69,7.23,13.89,7.8L16.22,9.33C16.22,9.83,16.09,10.23,15.85,10.7L13.78,10.7L13.78,11.53C13.88,12.66,14.21,14.46,16.78,16.4C18.15,17.37,18.68,19,18.68,20.67C18.68,20.8,18.41,21.94,11.98,21.97Z" fill="currentColor"/></svg>