<svg xmlns="http://www.w3.org/2000/svg" viewBox="0 0 24 24"><path d="M1,20.67C1,19.23,1.52,18.24,3.53,17.7L4.98,9.52C3.84,8.7,3.39,7.79,3.33,6.85L3.1,2.98C3.87,2.65,4.5,2.48,5.23,2.48L5.73,4.68L7.4,4.68L7.7,2.15C7.7,2.15,8.4,2.02,9,2.02L9,8.59C9,10.62,10.4,12.02,12.43,12.02L13.47,12.02L14.5,17.72C16.48,18.27,17,19.26,17,20.68L17,22.01L1,22.01Z" fill="currentColor"/><path d="M23.07,8L18.94,8C18.34,8,18.01,7.67,18.01,7.07L18.01,6.8C18.01,6.2,18.24,5.63,18.64,5.17L21.44,2L18.94,2C18.34,2,18.01,1.67,18.01,1.07L18.01,0.94C18.01,0.34,18.34,0.01,18.94,0.01L23.07,0.01C23.67,0.01,24,0.34,24,0.94L24,1.27C24,1.87,23.77,2.44,23.37,2.9L20.6,6L23.07,6C23.67,6,24,6.33,24,6.93L24,7.06C24,7.66,23.67,7.99,23.07,7.99Z" fill="currentColor"/><path d="M11.93,2L16.06,2C16.66,2,16.99,2.33,16.99,2.93L16.99,3.2C16.99,3.8,16.76,4.37,16.36,4.83L13.56,8L16.06,8C16.66,8,16.99,8.33,16.99,8.93L16.99,9.06C16.99,9.66,16.66,9.99,16.06,9.99L11.93,9.99C11.33,9.99,11,9.66,11,9.06L11,8.73C11,8.13,11.23,7.56,11.63,7.1L14.4,4L11.93,4C11.33,4,11,3.67,11,3.07L11,2.94C11,2.34,11.33,2.01,11.93,2.01Z" fill="currentColor"/></svg>