<svg xmlns="http://www.w3.org/2000/svg" viewBox="0 0 24 24"><path d="M0.47,22C0.47,16.33,6,16.57,6,12.07L6,11.47L4.03,11.47C3.73,11,3.66,10.5,3.66,9.97L6.13,8.47L5.96,8.3C5.09,7.43,4.39,6.53,4.39,5.3C4.39,3.3,6.02,1.67,7.99,1.67C9.96,1.67,11.59,3.3,11.59,5.3C11.59,6.53,10.92,7.57,9.99,8.3L9.79,8.47L10.38,8.82C10.1,9.24,9.99,9.84,9.99,10.67L9.99,11.47L9.99,12.07L9.99,15.94C9.99,18.69,10.23,19.84,12.88,22.01Z" fill="currentColor"/><path d="M24,15.97L24,10C21.2,10,20.37,9.6,18,7.3C15.7,9.6,14.83,10,12,10L12,15.97C12,19.37,12.37,19.84,18,23.47C23.63,19.9,24,19.44,24,15.97Z" fill="currentColor"/></svg>