<svg xmlns="http://www.w3.org/2000/svg" viewBox="0 0 24 24" fill="currentColor"><path d="M6.5,20.5L6.5,18.55C6.5,17.2,6.9,16.32,8.2,15.83C8.25,15.38,8.37,14.98,8.52,14.63C7.7,14.57,6.8,14.23,6.27,13.78C5.37,13.01,5.24,11.68,5.97,10.68L7.07,9.16C7.43,8.69,7.22,8.86,7.68,7.68C7.82,7.25,8.07,6.76,8.63,6.28L8.9,6.08L9,5.57C9.28,4.43,10.52,3.7,11.78,4.17L12.81,5.3C18,6.07,19.86,10.95,17.83,15.82C19.11,16.32,19.5,17.19,19.5,18.54L19.5,20.49ZM8,18.55L8,19L18,19L18,18.55C18,17.05,17.07,16.75,12.99,16.75C8.89,16.75,7.99,17.05,7.99,18.55ZM8.3,10.02L7.2,11.54C6.92,11.92,6.95,12.37,7.25,12.62C7.64,12.97,8.8,13.24,8.9,13.14C9.33,12.74,9.37,12.07,10.3,12.07C11.07,12.07,11.82,11.22,12.38,10.59C13.13,11.66,12.81,12.29,11.98,12.97C10.86,13.87,10.01,14.42,9.86,15.42C10.71,15.29,11.73,15.25,13.01,15.25C14.38,15.25,15.48,15.32,16.36,15.45C18.26,11.18,16.68,7.13,12.09,6.73L10.98,5.53C10.73,5.53,10.53,5.68,10.48,5.9L10.33,6.56C10.2,6.91,9.96,7.13,9.6,7.43C9.25,7.73,9.15,8.01,9.08,8.21C8.8,8.93,8.8,9.33,8.31,10.03Z"/></svg>