<svg xmlns="http://www.w3.org/2000/svg" viewBox="0 0 24 24" fill="currentColor"><path d="M5.5,19.5C5.5,18.28,6.63,17.5,8.48,17.5L11.59,17.5C11.76,18.58,12.27,19.35,13.67,20.5L5.5,20.5ZM10.13,11.52C10.13,11.52,9.28,10.92,8.63,10.92C7.95,10.92,7.52,11.3,7.52,11.87C7.52,12.68,8.65,13.4,9.15,13.97L10.13,13.97ZM7.77,8.27C8.97,8.27,9.78,8.63,10.47,9.15L10.77,7L8.75,7L8.75,5.5L10.77,5.5L10.77,4L12.25,4L12.25,5.5L14.22,5.5L14.22,7L12.27,7L12.5,9.15C13.2,8.63,14,8.27,15.2,8.27C15.71,8.27,16.17,8.37,16.59,8.54C16.4,8.66,16.2,8.81,15.99,8.99C15.17,9.67,14.59,9.87,13.5,9.97C12,9.99,11.49,10.49,11.49,12L11.49,15.95C11.49,16.14,11.49,16.32,11.5,16.5L7.67,16.5C7.29,15.82,6.75,15.39,6.22,14.87C5.34,13.99,4.47,13.09,4.47,11.7C4.47,9.63,5.88,8.27,7.77,8.27ZM22,11.5C19.9,11.5,19.28,11.2,17.5,9.48C15.77,11.2,15.12,11.5,13,11.5L13,15.98C13,18.53,13.28,18.88,17.5,21.6C21.72,18.92,22,18.58,22,15.98Z"/></svg>