<svg xmlns="http://www.w3.org/2000/svg" viewBox="0 0 24 24" fill="currentColor"><path d="M4.52,11.38L5.78,9.63C6.35,8.83,6.35,8.38,6.68,7.55C6.75,7.33,6.88,7.01,7.28,6.68C7.67,6.33,7.95,6.08,8.1,5.68L8.25,4.93C8.3,4.71,8.5,4.5,8.7,4.5L10.07,5.88C10.3,5.89,10.52,5.91,10.75,5.95L10.75,10.42C10.75,10.57,10.76,10.71,10.78,10.85C10.67,10.6,10.52,10.4,10.45,10.3L10.02,10.77C9.62,11.2,8.9,11.95,8.07,11.95C7,11.97,6.97,12.72,6.47,13.2C6.35,13.3,5.05,13,4.58,12.6C4.25,12.3,4.22,11.8,4.52,11.38ZM5,19.5C5,18.46,5.81,17.74,7.2,17.55C7.22,15.23,8.81,13.95,9.67,13.25C10.27,12.75,10.89,12.11,10.89,11.43C10.89,11.41,10.89,11.39,10.89,11.37C11.23,12.38,12.13,13.01,13.32,13.01L15.83,13.01C15.64,14.59,14.98,16.4,14.76,17.55C16.18,17.74,17.01,18.46,17.01,19.5L17.01,20.5L5.01,20.5ZM21.3,10L18.21,10C17.75,10,17.51,9.75,17.51,9.3L17.51,9.1C17.51,8.65,17.68,8.22,17.98,7.88L20.08,5.5L18.21,5.5C17.75,5.5,17.51,5.25,17.51,4.8L17.51,4.71C17.51,4.26,17.75,4.01,18.21,4.01L21.3,4.01C21.75,4.01,22,4.26,22,4.71L22,4.95C22,5.4,21.83,5.83,21.53,6.18L19.45,8.5L21.3,8.5C21.75,8.5,22,8.75,22,9.2L22,9.3C22,9.75,21.75,9.99,21.3,9.99ZM12.95,5.5L16.04,5.5C16.5,5.5,16.74,5.75,16.74,6.2L16.74,6.4C16.74,6.85,16.57,7.28,16.27,7.62L14.17,10L16.04,10C16.5,10,16.74,10.25,16.74,10.7L16.74,10.79C16.74,11.24,16.5,11.49,16.04,11.49L12.95,11.49C12.5,11.49,12.25,11.24,12.25,10.79L12.25,10.55C12.25,10.1,12.42,9.67,12.72,9.32L14.8,7L12.95,7C12.5,7,12.25,6.75,12.25,6.3L12.25,6.2C12.25,5.75,12.5,5.51,12.95,5.51Z"/></svg>