<svg xmlns="http://www.w3.org/2000/svg" viewBox="0 0 24 24"><path d="M5.73,21L18.26,21C18.26,18.73,17.69,18.13,16.33,17.1C15.23,16.27,14.03,15.33,13.63,12.53L15.36,12.53C15.59,12.16,15.73,11.4,15.73,11.03L13.73,10.13C14.6,9.5,15.16,8.5,15.16,7.46C15.16,5.73,13.73,4.33,11.99,4.33C10.26,4.33,8.82,5.73,8.82,7.46C8.82,8.49,9.39,9.49,10.25,10.13L8.25,11.03C8.25,11.4,8.38,12.16,8.62,12.53L10.35,12.53C9.92,15.4,8.75,16.33,7.65,17.13C6.28,18.13,5.72,18.73,5.72,21Z" fill="currentColor"/><path d="M19.23,22L4.76,22C4.53,18.4,5.46,17.5,7.06,16.33C7.93,15.7,8.69,15.06,9.13,13.53L8.1,13.53C7.47,12.56,7.27,11.6,7.27,10.4L8.57,9.8C8.1,9.1,7.84,8.3,7.84,7.47C7.84,5.17,9.74,3.34,12.01,3.34C14.28,3.34,16.18,5.17,16.18,7.47C16.18,8.3,15.91,9.1,15.45,9.8L16.75,10.4C16.75,11.6,16.55,12.57,15.92,13.53L14.89,13.53C15.32,15.03,16.09,15.63,16.96,16.3C18.59,17.53,19.49,18.43,19.26,22Z" fill="currentColor"/></svg>