<svg xmlns="http://www.w3.org/2000/svg" viewBox="0 0 24 24" fill="currentColor"><path d="M4,19.5C4,18.42,4.39,17.68,5.9,17.28L6.98,11.14C6.13,10.53,5.79,9.84,5.75,9.14L5.57,6.24C6.15,5.99,6.63,5.86,7.17,5.86L7.55,7.51L8.8,7.51L9.03,5.61C9.03,5.61,9.55,5.52,10,5.52C10.45,5.52,10.98,5.61,10.98,5.61L11.18,7.51L12.45,7.51L12.83,5.86C13.38,5.86,13.86,5.99,14.43,6.24L14.25,9.14C14.22,9.56,14.1,9.97,13.81,10.37C11.35,11.19,10,13.39,10,16.02C10,17.82,10.77,19.42,12,20.52L4,20.52ZM16,13C14.3,13,13,14.3,13,16C13,17.7,14.3,19,16,19C17.7,19,19,17.7,19,16C19,14.3,17.7,13,16,13ZM16,11.5C18.48,11.5,20.5,13.52,20.5,16C20.5,18.48,18.48,20.5,16,20.5C13.52,20.5,11.5,18.48,11.5,16C11.5,13.52,13.52,11.5,16,11.5ZM21.7,21.55L21.6,21.65C21.28,21.97,20.93,21.97,20.61,21.65L17.83,18.87L18.93,17.77L21.71,20.54C22.03,20.87,22.03,21.22,21.71,21.54Z"/></svg>