<svg xmlns="http://www.w3.org/2000/svg" viewBox="0 0 24 24" fill="currentColor"><path d="M5.55,20.5L5.46,20.5C5.01,20.5,4.76,20.25,4.76,19.8L4.76,13.25C4.76,8.25,7.76,5.25,13.01,5.25C18.26,5.25,21.26,8.25,21.26,13.25L21.26,19.8C21.26,20.25,21.01,20.5,20.56,20.5L20.46,20.5C20.01,20.5,19.77,20.25,19.77,19.8L19.77,13.25C19.77,9.3,17.22,6.75,13.02,6.75C8.82,6.75,6.27,9.3,6.27,13.25L6.27,19.8C6.27,20.25,6.02,20.5,5.57,20.5ZM8.8,19.8C8.8,18.98,9.35,18.5,10.45,18.43L8.55,12.63C8.08,12.56,7.75,12.18,7.75,11.73C7.75,11.26,8.13,10.83,8.63,10.83C9.08,10.83,9.48,11.23,9.48,11.73C9.48,11.96,9.42,12.13,9.3,12.28L10.88,14.36L11.08,11.13C10.65,10.96,10.46,10.68,10.46,10.26C10.46,9.73,10.85,9.3,11.38,9.3C11.9,9.3,12.28,9.73,12.28,10.26C12.28,10.56,12.18,10.83,11.93,11.03L13,14.2L14.05,11.03C13.8,10.83,13.67,10.55,13.67,10.26C13.67,9.75,14.07,9.3,14.6,9.3C15.12,9.3,15.55,9.73,15.55,10.26C15.55,10.68,15.35,10.95,14.9,11.13L15.12,14.36L16.7,12.28C16.55,12.13,16.47,11.96,16.47,11.73C16.47,11.26,16.87,10.83,17.35,10.83C17.9,10.83,18.25,11.31,18.25,11.73C18.25,12.13,17.93,12.56,17.45,12.63L15.55,18.43C16.65,18.53,17.2,18.98,17.2,19.8L17.2,20.5L8.8,20.5Z"/></svg>