<svg xmlns="http://www.w3.org/2000/svg" viewBox="0 0 24 24" fill="currentColor"><path d="M13.47,6.53C13.47,6.83,13.27,7.07,13,7.07C12.72,7.07,12.53,6.83,12.53,6.53C12.53,6.08,12.85,5.46,13,4.58C13.17,5.46,13.47,6.08,13.47,6.53ZM9.07,7.75C9.27,7.98,9.27,8.3,9.05,8.48C8.85,8.65,8.52,8.58,8.32,8.35C8.04,8,7.92,7.3,7.47,6.55C8.17,7.1,8.8,7.4,9.07,7.75ZM6.43,11.47C6.73,11.52,6.93,11.77,6.88,12.05C6.8,12.32,6.53,12.44,6.23,12.4C5.8,12.3,5.25,11.85,4.43,11.52C5.33,11.54,5.98,11.37,6.43,11.47ZM5.2,17.35C5.9,16.8,6.32,16.25,6.72,16.02C6.97,15.89,7.3,15.97,7.42,16.2C7.55,16.44,7.42,16.74,7.14,16.87C6.74,17.07,6.04,17.07,5.19,17.34ZM17.63,8.32C17.43,8.54,17.13,8.62,16.9,8.45C16.7,8.27,16.7,7.95,16.88,7.72C17.18,7.37,17.8,7.1,18.48,6.5C18.08,7.3,17.9,7.98,17.63,8.32ZM19.77,12.36C19.47,12.41,19.17,12.28,19.12,12C19.07,11.73,19.27,11.48,19.57,11.43C20,11.33,20.67,11.5,21.57,11.48C20.75,11.83,20.2,12.25,19.77,12.36ZM20.85,17.27C19.97,17.05,19.3,17.03,18.9,16.82C18.62,16.67,18.5,16.4,18.62,16.15C18.75,15.9,19.05,15.85,19.32,15.98C19.72,16.18,20.12,16.75,20.84,17.27ZM9.77,18.92L10.95,12.35L15.08,12.35L16.25,18.92ZM8.5,20.5L8.5,19.75C8.5,18.45,9.25,17.8,13,17.8C16.73,17.8,17.5,18.45,17.5,19.75L17.5,20.5ZM10.8,13.5C10.13,13.03,9.85,12.51,9.83,11.98L9.68,9.81C10.13,9.6,10.48,9.51,10.88,9.51L11.18,10.76L12.1,10.76L12.27,9.33C12.27,9.33,12.67,9.26,13,9.26C13.35,9.26,13.73,9.33,13.73,9.33L13.88,10.76L14.85,10.76L15.13,9.51C15.53,9.51,15.9,9.6,16.33,9.81L16.2,11.98C16.15,12.51,15.9,13.03,15.23,13.5Z"/></svg>