<svg xmlns="http://www.w3.org/2000/svg" viewBox="0 0 24 24" fill="currentColor"><path d="M9.3,11.57C9.21,11.67,8.16,11.43,7.78,11.1C7.5,10.85,7.48,10.45,7.73,10.1L8.75,8.7C9.21,8.05,9.21,7.67,9.48,7C9.54,6.83,9.63,6.57,9.96,6.3C10.28,6.03,10.5,5.83,10.63,5.5L10.76,4.88C10.81,4.71,10.96,4.55,11.11,4.55L12.24,5.66C14.49,5.81,16.94,7.4,16.94,10.81C16.94,12.36,16.09,14.41,15.98,15.44L9.93,15.57C9.73,13.41,11.15,12.24,11.9,11.64C12.41,11.25,12.9,10.72,12.9,10.17C12.9,9.74,12.63,9.39,12.53,9.27L12.17,9.64C11.85,9.99,11.27,10.59,10.6,10.59C9.72,10.62,9.72,11.21,9.3,11.59ZM8.13,16.7C8.13,15.7,9.02,15.07,10.52,15.07L15.4,15.07C16.92,15.07,17.82,15.69,17.82,16.7L17.82,17.5L8.13,17.5ZM12,19.03L13.97,19.03L13.19,21.68C13.07,22.11,12.92,22.11,12.8,21.68ZM10.58,21.12C10.45,21.55,10.3,21.55,10.15,21.12L9.47,19.02L11.25,19.02ZM15.87,21.12C15.72,21.55,15.57,21.57,15.42,21.12L14.72,19.02L16.55,19.02Z"/></svg>