<svg xmlns="http://www.w3.org/2000/svg" viewBox="0 0 24 24"><path d="M0.57,20.67C0.57,19.07,2,18.04,4.3,18C3.2,16.4,2.33,14.67,2.33,12.3C2.33,8,5.9,4.67,5.9,4.67C5.67,3.64,5.67,3.44,5.67,3.17C5.67,1.77,6.7,0.67,8,0.67C9.3,0.67,10.33,1.77,10.33,3.17C10.33,3.57,10.3,4.34,9.7,5.04C8,7.01,6.73,9.74,6.53,13.01L8.76,13.01C8.89,10.37,9.72,8.15,11.1,6.4C11.01,6.73,10.96,7.08,10.96,7.45C10.99,11.26,11.67,12.6,13.26,14.04C11.29,15.93,10.97,17.46,10.96,22.01L0.56,22.01Z" fill="currentColor"/><path d="M14.44,22C13.41,22,13.01,21.6,13.01,20.57C13.04,16.67,13.38,16.44,16.44,14C13.37,11.57,13.04,11.37,13.01,7.47C13.01,6.44,13.41,6.04,14.44,6.04L22.57,6.04C23.6,6.04,24,6.44,24,7.47C23.97,11.37,23.63,11.57,20.57,14C23.64,16.43,23.97,16.67,24,20.57C24,21.6,23.6,22,22.57,22Z" fill="currentColor"/><path d="M14.97,20L22.04,20C22.04,16.6,18.84,17.93,18.84,15.67L18.84,14.04C18.84,13.44,19.07,12.84,19.44,12.41L21.87,9.64C22.4,9.01,21.9,8.91,18.4,8.91C15.1,8.91,14.63,9.01,15.13,9.61L17.56,12.41C17.93,12.84,18.16,13.44,18.16,14.04L18.16,15.67C18.16,17.94,14.96,16.7,14.96,20Z" fill="currentColor"/></svg>