<svg xmlns="http://www.w3.org/2000/svg" viewBox="0 0 24 24"><path d="M19.67,22L4.34,22C4.34,16.67,9.64,17.5,10.04,12.2L10.14,11.3L7.97,11.3C7.7,10.83,7.6,10.27,7.6,9.77L10.13,8.2C8.83,7.37,8.33,6.23,8.33,5C8.33,3,9.96,1.33,12,1.33C14.03,1.33,15.67,3,15.67,5C15.67,6.3,15.27,7.27,13.87,8.17L16.4,9.77C16.4,10.27,16.3,10.84,16.03,11.3L13.86,11.3L13.96,12.2C14.36,17.5,19.66,16.67,19.66,22Z" fill="currentColor"/><path d="M24,7.33L24,14.66C24,15.49,23.63,15.66,23,15.09L19.37,11.89C18.74,11.32,18.74,10.66,19.37,10.09L23,6.89C23.63,6.32,24,6.49,24,7.32Z" fill="currentColor"/><path d="M4.63,11.9L1,15.1C0.37,15.67,0,15.5,0,14.67L0,7.34C0,6.51,0.37,6.34,1,6.91L4.63,10.11C5.26,10.68,5.26,11.34,4.63,11.91Z" fill="currentColor"/></svg>