<svg xmlns="http://www.w3.org/2000/svg" viewBox="0 0 24 24"><path d="M13.53,15.13C13.53,14.16,14.4,13.56,15.76,13.53C15.13,12.56,14.59,11.53,14.59,10.1C14.59,7.53,16.72,5.53,16.72,5.53C16.59,4.9,16.59,4.8,16.59,4.63C16.59,3.8,17.22,3.13,17.99,3.13C18.76,3.13,19.39,3.8,19.39,4.63C19.39,4.86,19.36,5.33,19.02,5.76C17.99,6.93,17.22,8.56,17.12,10.53L18.45,10.53C18.52,8.9,19.05,7.56,19.92,6.5C20.52,6.93,21.39,8.47,21.39,10.1C21.39,11.6,20.92,12.63,20.26,13.53C21.63,13.56,22.46,14.2,22.46,15.13L22.46,15.93L17.92,15.93L13.53,15.16Z" fill="currentColor"/><path d="M10.1,14.03L7.15,14.03L2.08,13.14C2.61,11.26,4.8,11.29,5,8.8L5.03,8.33L3.9,8.33C3.77,8.1,3.7,7.8,3.7,7.5L5.03,6.7C4.36,6.27,4.06,5.63,4.06,5C4.06,3.9,4.96,3.03,6.03,3.03C7.1,3.03,8,3.9,8,5C8,5.67,7.77,6.2,7.03,6.67L8.36,7.5C8.36,7.8,8.29,8.1,8.16,8.33L7.03,8.33L7.06,8.8C7.29,11.63,10.09,11.2,10.09,14.03Z" fill="currentColor"/><path d="M14.63,24L9.36,24C8.76,24,8.59,23.7,8.93,23.2L11.5,18.93L1.13,17.06C0.53,16.96,0.26,16.56,0.36,15.96L0.36,15.86C0.46,15.26,0.86,14.99,1.46,15.09L23.19,18.99C23.82,19.09,24.09,19.49,23.96,20.12C23.86,20.79,23.46,21.05,22.83,20.95L12.62,19.11L15.07,23.18C15.4,23.68,15.24,23.98,14.64,23.98Z" fill="currentColor"/></svg>