<svg xmlns="http://www.w3.org/2000/svg" viewBox="0 0 24 24" fill="currentColor"><path d="M8.48,13.2C8.35,13.3,7.05,13,6.58,12.6C6.26,12.3,6.23,11.8,6.53,11.38L7.78,9.63C8.36,8.83,8.36,8.38,8.68,7.55C8.75,7.33,8.88,7.01,9.28,6.68C9.68,6.33,9.96,6.08,10.11,5.68L10.25,4.93C10.31,4.71,10.5,4.5,10.71,4.5L12.08,5.88C13.76,5.98,15.53,6.75,16.67,8.26L20.48,4.45C20.8,4.13,21.15,4.13,21.47,4.45L21.55,4.52C21.87,4.84,21.87,5.18,21.57,5.5C21.56,5.51,21.56,5.51,21.55,5.52L17.42,9.65L7,20.07L5.57,21.5L5.55,21.52C5.23,21.84,4.88,21.84,4.55,21.52L4.48,21.45C4.16,21.12,4.16,20.77,4.48,20.45L10.1,14.83C10.61,14.11,11.24,13.61,11.68,13.25L12.49,12.44C12.74,12.11,12.91,11.77,12.91,11.42C12.91,10.89,12.59,10.46,12.46,10.29L12.03,10.77C11.63,11.19,10.91,11.94,10.08,11.94C9.01,11.96,8.98,12.71,8.48,13.19ZM8.73,20.5L17.83,11.39C17.86,11.66,17.88,11.94,17.88,12.23C17.88,13.97,17.02,16.2,16.76,17.55C18.18,17.74,19,18.46,19,19.5L19,20.5Z"/></svg>