<svg xmlns="http://www.w3.org/2000/svg" viewBox="0 0 24 24"><path d="M10.89,20.03L13.06,20.03L12.2,23.43C12.03,24,11.9,24,11.73,23.43Z" fill="currentColor"/><path d="M8.6,23.43C8.47,24,8.3,24,8.2,23.4L7.57,20.03L9.54,20.03Z" fill="currentColor"/><path d="M15.57,23.4C15.47,24,15.3,24,15.17,23.43L14.23,20.03L16.2,20.03Z" fill="currentColor"/><path d="M18.3,18.03L5.7,18.03C5.7,13.63,10.03,14.3,10.4,9.9L10.43,9.23L8.7,9.23C8.47,8.76,8.33,8.3,8.33,7.86L10.43,6.66C9.4,6.03,8.93,5.03,8.93,4.09C8.93,2.39,10.33,1.02,12,1.02C13.63,1.02,15.03,2.39,15.03,4.09C15.03,5.09,14.63,5.92,13.5,6.62L15.63,7.85C15.63,8.28,15.5,8.75,15.26,9.22L13.49,9.22L13.56,9.89C13.96,14.29,18.29,13.62,18.29,18.02Z" fill="currentColor"/></svg>