<svg xmlns="http://www.w3.org/2000/svg" viewBox="0 0 24 24" fill="currentColor"><path d="M13.77,11.13L14.06,12.77L11.13,15.73C9.75,17.12,9.42,18.96,9.99,20.51L4.76,20.51L4.76,19.51C4.76,18.44,5.15,17.7,6.63,17.29L7.74,11.14C6.9,10.52,6.56,9.84,6.5,9.14L6.33,6.23C6.91,5.99,7.38,5.86,7.93,5.86L8.3,7.51L9.58,7.51L9.78,5.61C9.78,5.61,10.31,5.52,10.76,5.52C11.21,5.52,11.73,5.61,11.73,5.61L11.96,7.51L13.21,7.51L13.59,5.86C14.13,5.86,14.61,5.99,15.18,6.23L15.01,9.14C14.96,9.84,14.63,10.53,13.77,11.14ZM15.23,17.93C14.03,16.73,14.03,14.85,15.32,13.58L16.77,12.15C18.1,10.82,19.95,10.88,21.1,12.08C22.28,13.2,22.32,15.05,21,16.38L19.78,17.6C19.88,16.77,19.76,16.2,19.63,15.63L19.93,15.33C20.73,14.52,20.68,13.75,20.06,13.13C19.38,12.43,18.63,12.38,17.83,13.2L16.38,14.65C15.61,15.4,15.61,16.17,16.29,16.85C16.44,17,16.51,17.15,16.51,17.4C16.51,17.79,16.19,18.15,15.76,18.15C15.56,18.15,15.39,18.05,15.24,17.92ZM13.43,15.53C13.33,16.35,13.45,16.93,13.58,17.5L13.25,17.82C12.45,18.62,12.5,19.37,13.16,20.02C13.81,20.69,14.56,20.75,15.38,19.94L16.83,18.5C17.58,17.75,17.58,16.94,16.91,16.3C16.78,16.15,16.68,16,16.68,15.75C16.68,15.35,17,15,17.43,15C17.63,15,17.83,15.1,17.96,15.2C19.16,16.43,19.16,18.28,17.88,19.58L16.43,21C15.11,22.33,13.23,22.28,12.08,21.08C10.93,19.95,10.88,18.1,12.21,16.78Z"/></svg>