<svg xmlns="http://www.w3.org/2000/svg" viewBox="0 0 24 24"><path d="M3.97,12.27C3.8,12.4,2.07,12,1.44,11.47C1.01,11.07,0.97,10.4,1.37,9.84L3.04,7.51C3.81,6.44,3.81,5.84,4.24,4.74C4.34,4.44,4.51,4.01,5.04,3.57C5.57,3.1,5.94,2.77,6.14,2.24L6.34,1.24C6.41,0.94,6.67,0.67,6.94,0.67L8.77,2.5C10.23,2.59,11.74,3.06,13.03,3.93C10.7,5.36,10.01,7.85,11.49,10.72C10.54,11.4,10,12.53,10,14L10,22L2,22L2,20.67C2,19.28,3.09,18.32,4.94,18.07C4.97,14.97,7.09,13.27,8.24,12.34C9.04,11.67,9.87,10.81,9.87,9.91C9.87,9.21,9.44,8.64,9.27,8.41L8.7,9.04C8.17,9.61,7.2,10.61,6.1,10.61C4.67,10.64,4.63,11.64,3.97,12.28Z" fill="currentColor"/><path d="M20.8,10L15.33,10C13.96,10,12.6,9.37,12.6,7.73C12.6,6.36,13.6,5.5,14.9,5.5C16.6,5.5,17.8,7,18.4,9.23L17.67,9.23C18.27,6.96,19.5,5.5,21.14,5.5C22.47,5.5,23.41,6.43,23.41,7.73C23.41,9.36,22.04,10,20.81,10Z" fill="currentColor"/><path d="M13.43,22C12.4,22,12,21.6,12,20.57L12,18L17,18L17,22Z" fill="currentColor"/><path d="M12,13.43C12,12.4,12.4,12,13.43,12L17,12L17,16L12,16Z" fill="currentColor"/><path d="M19,22L19,18L24,18L24,20.57C24,21.6,23.6,22,22.57,22Z" fill="currentColor"/><path d="M19,16L19,12L22.57,12C23.6,12,24,12.4,24,13.43L24,16Z" fill="currentColor"/><path d="M17.07,9.23C16.54,7.43,15.87,6.8,15,6.8C14.43,6.8,13.9,7.1,13.9,7.73C13.9,8.6,14.83,8.7,15.33,8.7L20.8,8.7C21.17,8.7,22.1,8.6,22.1,7.73C22.1,7.1,21.57,6.8,21.03,6.8C20.26,6.8,19.5,7.43,19,9.23Z" fill="currentColor"/></svg>