<svg xmlns="http://www.w3.org/2000/svg" viewBox="0 0 24 24"><path d="M3.83,22L3.83,18.93C3.83,17.13,4.56,16.1,6.46,15.53C4.06,11.33,4.99,7.26,8.56,4.06C8.53,3.86,8.53,3.69,8.53,3.49C8.53,1.56,10.03,-0.01,12,-0.01C13.97,-0.01,15.47,1.56,15.47,3.49C15.47,3.69,15.47,3.86,15.44,4.06C19.01,7.26,19.94,11.33,17.54,15.53C19.44,16.1,20.17,17.13,20.17,18.93L20.17,22Z" fill="currentColor"/><path d="M5.83,18.93L5.83,20L18.16,20L18.16,18.93C18.16,17.26,16.49,17,11.99,17C7.62,17,5.82,17.23,5.82,18.93Z" fill="currentColor"/><path d="M8.6,15.13C9.57,15.03,10.7,15,12,15C13.3,15,14.4,15.03,15.4,15.13C17.63,11.76,17.17,8.63,14.57,6.03C13.27,7.76,12.7,9.86,12.67,12L10.67,12C10.7,9.73,11.27,6.97,13.04,4.7C13.37,4.27,13.47,3.9,13.47,3.5C13.47,2.67,12.87,2,12,2C11.13,2,10.53,2.67,10.53,3.5C10.53,3.9,10.66,4.23,10.96,4.7C7.06,7.57,5.96,11.17,8.59,15.13Z" fill="currentColor"/></svg>