<svg xmlns="http://www.w3.org/2000/svg" viewBox="0 0 24 24"><path d="M6.1,17.67C5.97,17.14,5.47,16.6,4.83,15.87C3.8,14.77,2.5,13.37,2.5,11.04C2.5,6.34,6.87,4.87,9.57,6.01L9.14,7.78L7.14,6.45L7.14,5.25C7.14,3.05,7.97,1.98,10.51,2.12L9.28,3.32C9.21,1.22,9.81,0.02,12.01,0.02C14.21,0.02,14.84,0.99,14.74,3.32L13.51,2.12C16.04,1.99,16.88,3.05,16.88,5.25L16.88,6.45L14.85,7.78L14.48,6.01C17.11,4.91,21.51,6.34,21.51,11.08C21.51,13.41,20.14,14.88,19.08,16.01C18.48,16.68,17.98,17.21,17.88,17.64L15.98,17.01C16.18,16.18,16.95,15.38,17.61,14.64C18.54,13.67,19.51,12.54,19.51,11.07C19.51,7.74,16.01,6.7,13.11,8.5L12.78,5.63L14.81,5.63L14.81,4L12.84,4L12.84,2.07L11.17,2.07L11.17,4L9.2,4L9.2,5.63L11.27,5.63L10.87,8.5C7.94,6.7,4.5,7.73,4.5,11.03C4.5,12.53,5.4,13.6,6.37,14.6C7.04,15.33,7.74,16.03,8,17Z" fill="currentColor"/><path d="M4.4,22L4.4,19.83C4.4,16.7,6,15.9,12,15.9C18,15.9,19.6,16.7,19.6,19.83L19.6,22Z" fill="currentColor"/><path d="M6.47,19.83L6.47,19.93L17.54,19.93L17.54,19.83C17.54,18.13,16.61,17.96,12.01,17.96C7.41,17.96,6.48,18.13,6.48,19.83Z" fill="currentColor"/><path d="M9.13,13.6C8.43,12.87,7.6,12.07,7.6,11.43C7.6,10.13,9.1,9.6,10.63,10.96L10.63,13.59Z" fill="currentColor"/><path d="M14.87,13.6L13.37,13.6L13.37,10.97C14.94,9.47,16.44,10.04,16.44,11.34C16.44,12.04,15.57,12.87,14.87,13.61Z" fill="currentColor"/></svg>