<svg xmlns="http://www.w3.org/2000/svg" viewBox="0 0 24 24"><path d="M6,12.27C5.83,12.4,4.1,12,3.47,11.47C3.04,11.07,3,10.4,3.4,9.84L5.07,7.51C5.84,6.44,5.84,5.84,6.27,4.74C6.37,4.44,6.54,4.01,7.07,3.57C7.6,3.1,7.97,2.77,8.17,2.24L8.37,1.24C8.44,0.94,8.7,0.67,8.97,0.67L10.8,2.5C14.5,2.73,18.53,5.37,18.53,10.97C18.53,13.54,17.13,16.9,16.96,18.6L6.99,18.8C6.66,15.23,9.02,13.33,10.26,12.33C11.06,11.66,11.89,10.8,11.89,9.9C11.89,9.2,11.46,8.63,11.29,8.4L10.72,9.03C10.19,9.6,9.22,10.6,8.12,10.6C6.69,10.63,6.65,11.63,5.99,12.27Z" fill="currentColor"/><path d="M4.03,20.67C4.03,19.04,5.53,18,8,18L16.03,18C18.53,18,20.03,19.03,20.03,20.67L20.03,22L4.03,22Z" fill="currentColor"/><path d="M24,7.33L24,14.66C24,15.49,23.63,15.66,23,15.09L19.37,11.89C18.74,11.32,18.74,10.66,19.37,10.09L23,6.89C23.63,6.32,24,6.49,24,7.32Z" fill="currentColor"/><path d="M4.63,11.9L1,15.1C0.37,15.67,0,15.5,0,14.67L0,7.34C0,6.51,0.37,6.34,1,6.91L4.63,10.11C5.26,10.68,5.26,11.34,4.63,11.91Z" fill="currentColor"/></svg>