<svg xmlns="http://www.w3.org/2000/svg" viewBox="0 0 24 24"><path d="M6.07,16.93C6.07,15.66,7.2,14.83,9.04,14.8C8.17,13.53,7.47,12.13,7.47,10.23C7.47,6.8,10.34,4.13,10.34,4.13C10.14,3.3,10.14,3.13,10.14,2.93C10.14,1.8,10.97,0.93,12.01,0.93C13.04,0.93,13.88,1.8,13.88,2.93C13.88,3.26,13.85,3.86,13.38,4.43C12.01,6,11.01,8.2,10.85,10.8L12.62,10.8C12.75,8.63,13.42,6.83,14.59,5.4C15.42,6,16.56,8.07,16.56,10.23C16.56,12.2,15.93,13.6,15.03,14.8C16.86,14.87,17.96,15.67,17.96,16.93L17.96,18L6.09,18Z" fill="currentColor"/><path d="M10.66,20.04L13.29,20.04L12.26,23.57C12.09,24.14,11.89,24.14,11.73,23.57Z" fill="currentColor"/><path d="M8.77,22.83C8.6,23.4,8.4,23.4,8.2,22.83L7.3,20.03L9.67,20.03Z" fill="currentColor"/><path d="M15.83,22.83C15.63,23.4,15.43,23.43,15.23,22.83L14.3,20.03L16.73,20.03Z" fill="currentColor"/></svg>