<svg xmlns="http://www.w3.org/2000/svg" viewBox="0 0 24 24" fill="currentColor"><path d="M4,19L4,18.25C4,17.33,4.58,16.52,5.72,16.25C4.4,14.24,4.15,11.75,6.8,9.35C6.24,8.48,6.62,7.37,7.63,7.07L7.8,9.52C7.86,10.15,8.18,10.74,8.69,11.2L8.04,15.38C6.96,16.04,6.33,17.22,6.33,18.5L6.33,19.01ZM7.85,19L7.85,18.5C7.85,17.6,8.17,17,9.42,16.67L10.35,10.7C9.62,10.45,9.35,9.95,9.29,9.4L9.15,7.28C9.62,7.07,10.02,6.98,10.47,6.98L10.77,8.33L11.7,8.33L11.92,6.77C11.92,6.77,12.42,6.68,12.77,6.68C13.14,6.68,13.62,6.77,13.62,6.77L13.71,7.38C13.43,7.75,13.11,8.27,13.08,8.37C12.75,9.24,12.75,9.38,12.57,9.63L11.59,11.01C11.02,11.84,11.15,13.31,11.85,13.94C12.42,14.43,13.25,14.72,14,14.75C13.83,15.01,13.7,15.29,13.59,15.56C12.61,16.11,11.89,17.11,11.89,18.22L11.89,18.99ZM14.33,13.3C14.23,13.38,13.2,13.15,12.83,12.83C12.58,12.6,12.58,12.2,12.8,11.87L13.78,10.5C14.23,9.88,14.23,9.53,14.48,8.87C14.53,8.72,14.63,8.45,14.95,8.2C15.25,7.92,15.47,7.73,15.6,7.4L15.7,6.85C15.75,6.65,15.9,6.5,16.07,6.5L17.12,7.57C19.25,7.7,21.6,9.24,21.35,12.72C21.27,13.75,20.67,15.6,20.47,16.67C21.59,16.85,21.99,17.37,21.99,18.23L21.99,19L13.37,19L13.37,18.23C13.37,17.38,13.99,16.86,14.84,16.67C14.87,14.48,18.67,12.57,17.42,11.03C16.76,11.75,16.29,12.3,15.56,12.3C14.72,12.32,14.69,12.92,14.31,13.3Z"/></svg>