<svg xmlns="http://www.w3.org/2000/svg" viewBox="0 0 24 24"><path d="M12.63,3.37C12.63,3.77,12.36,4.1,12,4.1C11.63,4.1,11.37,3.77,11.37,3.37C11.37,2.77,11.8,1.94,12,0.77C12.23,1.94,12.63,2.77,12.63,3.37Z" fill="currentColor"/><path d="M6.76,5C7.03,5.3,7.03,5.73,6.73,5.97C6.46,6.2,6.03,6.1,5.76,5.8C5.39,5.33,5.23,4.4,4.63,3.4C5.56,4.13,6.4,4.53,6.76,5Z" fill="currentColor"/><path d="M3.24,9.96C3.64,10.03,3.91,10.36,3.84,10.73C3.74,11.1,3.37,11.26,2.97,11.2C2.4,11.07,1.67,10.47,0.57,10.03C1.77,10.06,2.64,9.83,3.24,9.96Z" fill="currentColor"/><path d="M1.6,17.8C2.53,17.07,3.1,16.33,3.63,16.03C3.96,15.86,4.4,15.96,4.56,16.26C4.73,16.59,4.56,16.99,4.19,17.16C3.66,17.43,2.72,17.43,1.59,17.79Z" fill="currentColor"/><path d="M18.17,5.76C17.9,6.06,17.5,6.16,17.2,5.93C16.93,5.7,16.93,5.26,17.17,4.96C17.57,4.49,18.4,4.13,19.3,3.33C18.77,4.4,18.53,5.3,18.17,5.76Z" fill="currentColor"/><path d="M21.03,11.14C20.63,11.21,20.23,11.04,20.16,10.67C20.09,10.3,20.36,9.97,20.76,9.9C21.33,9.77,22.23,10,23.43,9.97C22.33,10.44,21.6,11,21.03,11.14Z" fill="currentColor"/><path d="M22.47,17.7C21.3,17.4,20.4,17.37,19.87,17.1C19.5,16.9,19.34,16.53,19.5,16.2C19.67,15.87,20.07,15.8,20.43,15.97C20.96,16.24,21.5,17,22.46,17.7Z" fill="currentColor"/><path d="M7.8,14.7C7.7,14.8,6.4,14.5,5.9,14.1C5.6,13.8,5.57,13.3,5.87,12.87L7.1,11.14C7.7,10.34,7.7,9.87,8,9.04C8.1,8.84,8.2,8.51,8.6,8.17C9,7.84,9.3,7.57,9.43,7.17L9.6,6.44C9.63,6.21,9.83,6.01,10.03,6.01L11.4,7.38C14.2,7.55,17.2,9.55,17.2,13.75C17.2,15.65,16.17,18.18,16.03,19.45L8.56,19.62C8.29,16.95,10.09,15.52,10.99,14.75C11.59,14.25,12.22,13.62,12.22,12.95C12.22,12.42,11.89,11.98,11.79,11.82L11.36,12.29C10.96,12.72,10.23,13.46,9.39,13.46C8.32,13.49,8.29,14.26,7.79,14.73Z" fill="currentColor"/><path d="M6.33,22L6.33,21C6.33,19.77,7.46,19,9.3,19L15.33,19C17.2,19,18.33,19.77,18.33,21L18.33,22Z" fill="currentColor"/></svg>