<svg xmlns="http://www.w3.org/2000/svg" viewBox="0 0 24 24"><path d="M12.63,3.37C12.63,3.77,12.36,4.1,12,4.1C11.63,4.1,11.37,3.77,11.37,3.37C11.37,2.77,11.8,1.94,12,0.77C12.23,1.94,12.63,2.77,12.63,3.37Z" fill="currentColor"/><path d="M6.76,5C7.03,5.3,7.03,5.73,6.73,5.97C6.46,6.2,6.03,6.1,5.76,5.8C5.39,5.33,5.23,4.4,4.63,3.4C5.56,4.13,6.4,4.53,6.76,5Z" fill="currentColor"/><path d="M3.24,9.96C3.64,10.03,3.91,10.36,3.84,10.73C3.74,11.1,3.37,11.26,2.97,11.2C2.4,11.07,1.67,10.47,0.57,10.03C1.77,10.06,2.64,9.83,3.24,9.96Z" fill="currentColor"/><path d="M1.6,17.8C2.53,17.07,3.1,16.33,3.63,16.03C3.96,15.86,4.4,15.96,4.56,16.26C4.73,16.59,4.56,16.99,4.19,17.16C3.66,17.43,2.72,17.43,1.59,17.79Z" fill="currentColor"/><path d="M18.17,5.76C17.9,6.06,17.5,6.16,17.2,5.93C16.93,5.7,16.93,5.26,17.17,4.96C17.57,4.49,18.4,4.13,19.3,3.33C18.77,4.4,18.53,5.3,18.17,5.76Z" fill="currentColor"/><path d="M21.03,11.14C20.63,11.21,20.23,11.04,20.16,10.67C20.09,10.3,20.36,9.97,20.76,9.9C21.33,9.77,22.23,10,23.43,9.97C22.33,10.44,21.6,11,21.03,11.14Z" fill="currentColor"/><path d="M22.47,17.7C21.3,17.4,20.4,17.37,19.87,17.1C19.5,16.9,19.34,16.53,19.5,16.2C19.67,15.87,20.07,15.8,20.43,15.97C20.96,16.24,21.5,17,22.46,17.7Z" fill="currentColor"/><path d="M15.47,19.6L8.5,19.6C8.33,18.4,7.6,17.63,7.03,16.83C6.1,15.56,5.26,14.66,5.26,13.26C5.26,11.19,6.59,9.83,8.43,9.83C9.56,9.83,10.36,10.2,10.76,10.46L11.26,8.56L9.49,8.56L9.49,7.06L11.26,7.06L11.26,5.56L12.76,5.56L12.76,7.06L14.49,7.06L14.49,8.56L12.76,8.56L13.19,10.46C13.62,10.19,14.39,9.83,15.56,9.83C17.46,9.83,18.76,11.3,18.76,13.26C18.76,14.66,17.86,15.56,16.96,16.83C16.36,17.63,15.66,18.4,15.46,19.6Z" fill="currentColor"/><path d="M13.37,15.53L14.37,15.53C14.87,14.96,15.97,14.23,15.97,13.43C15.97,12.86,15.57,12.5,14.87,12.5C14.24,12.5,13.37,13.1,13.37,13.1Z" fill="currentColor"/><path d="M10.64,15.53L10.64,13.1C10.64,13.1,9.77,12.5,9.14,12.5C8.47,12.5,8.04,12.87,8.04,13.43C8.04,14.23,9.17,14.96,9.67,15.53Z" fill="currentColor"/><path d="M6,22.07L6,21.07C6,19.84,7.13,19.07,8.97,19.07L15,19.07C16.87,19.07,18,19.84,18,21.07L18,22.07Z" fill="currentColor"/></svg>