<svg xmlns="http://www.w3.org/2000/svg" viewBox="0 0 24 24" fill="currentColor"><path d="M4.38,20.5L4.38,19.5C4.38,18.3,5.45,17.53,7.23,17.5C6.4,16.05,5.75,14.75,5.75,12.98C5.75,9.75,8.43,7.5,8.43,7.5C8.25,6.73,8.25,6.58,8.25,6.38C8.25,5.33,9.02,4.5,10,4.5C10.98,4.5,11.75,5.33,11.75,6.38C11.75,6.68,11.7,7.2,11.6,7.5C11.76,7.65,11.91,7.8,12.04,7.94C11.06,9.29,10.25,11.09,10.25,12.98C10.25,14.29,10.56,15.42,11,16.44C9.6,17.06,8.87,18.25,8.87,19.5L8.87,20.5ZM10.38,20.5L10.38,19.5C10.38,18.3,11.45,17.53,13.23,17.5C12.4,16.05,11.75,14.75,11.75,12.98C11.75,9.75,14.42,7.5,14.42,7.5C14.25,6.73,14.25,6.58,14.25,6.38C14.25,5.33,15.02,4.5,16,4.5C16.98,4.5,17.75,5.33,17.75,6.38C17.75,6.68,17.7,7.2,17.27,7.78C16.05,9.43,15.27,11.06,15.15,13.01L16.33,13.01C16.43,11.38,17.18,9.86,18.41,8.21C19.18,9.03,20.26,10.81,20.26,12.98C20.26,14.84,19.66,16.13,18.83,17.51C20.58,17.56,21.63,18.33,21.63,19.51L21.63,20.51Z"/></svg>