<svg xmlns="http://www.w3.org/2000/svg" viewBox="0 0 24 24"><path d="M15.13,13.3C15.65,12.7,16.67,11.99,17.1,11.2L20.43,7.87C20.8,8.56,21,9.37,21,10.27C21,12.14,19.83,13.34,18.6,15.04C17.95,15.94,17.16,16.82,16.79,18.04C18.81,18.24,20,19.22,20,20.67L20,22L6.3,22L15,13.3Z" fill="currentColor"/><path d="M10.17,10.03C10.17,10.03,9.04,9.23,8.17,9.23C7.27,9.23,6.7,9.73,6.7,10.5C6.7,11.57,8.2,12.53,8.87,13.3L9.27,13.3L10.17,12.4Z" fill="currentColor"/><path d="M23.4,2.03L19.07,6.36L16.17,9.26L13.83,11.6L4,21.43L2.1,23.33L2.07,23.36C1.64,23.79,1.17,23.79,0.74,23.36L0.64,23.26C0.21,22.83,0.21,22.36,0.64,21.93L6.29,16.28C5.99,15.85,5.67,15.44,5.37,15.03C4.14,13.33,3,12.13,3,10.26C3,7.49,4.8,5.69,7.23,5.69C8.76,5.69,9.8,6.16,10.36,6.52L11.03,3.99L8.66,3.99L8.66,1.99L10.99,1.99L10.99,-0.01L12.99,-0.01L12.99,1.99L15.32,1.99L15.32,3.99L13.02,3.99L13.59,6.52C14.16,6.15,15.19,5.69,16.72,5.69C16.76,5.69,16.81,5.69,16.85,5.69L21.95,0.59C22.38,0.16,22.85,0.16,23.28,0.59L23.38,0.69C23.8,1.11,23.81,1.57,23.41,1.99C23.4,2,23.39,2.01,23.38,2.02Z" fill="currentColor"/></svg>