<svg xmlns="http://www.w3.org/2000/svg" viewBox="0 0 24 24" fill="currentColor"><path d="M9.15,19L10.38,19C10.45,19.22,10.54,19.43,10.64,19.64L10.17,21.33C10.04,21.75,9.9,21.75,9.8,21.33ZM7.95,21.33C7.85,21.75,7.73,21.75,7.63,21.33L7.1,19L8.6,19ZM5.25,17.5C5.25,14.2,8.5,14.7,8.8,11.45L8.82,10.87L7.52,10.87C7.35,10.57,7.25,10.2,7.25,9.87L8.82,8.97C8.02,8.5,7.72,7.75,7.72,7.02C7.72,5.75,8.75,4.75,9.99,4.75C11.21,4.75,12.24,5.75,12.24,7.02C12.24,7.83,11.99,8.45,11.14,8.95L12.71,9.87C12.71,10.2,12.62,10.57,12.44,10.87L11.14,10.87L11.16,11.45C11.2,11.88,11.3,12.25,11.42,12.57C10.52,13.71,9.98,15.16,9.98,16.75C9.98,17,10,17.25,10.02,17.5ZM16.75,11.52C19.62,11.52,21.98,13.87,21.98,16.75C21.98,19.6,19.63,21.98,16.75,21.98C13.9,21.98,11.52,19.6,11.52,16.75C11.52,13.88,13.9,11.52,16.75,11.52ZM15.98,19.77C15.98,20.25,16.22,20.5,16.67,20.5L16.75,20.5C17.22,20.5,17.48,20.25,17.48,19.8L17.48,17.5L19.8,17.5C20.25,17.5,20.5,17.25,20.5,16.77L20.5,16.7C20.5,16.25,20.25,16,19.77,16L17.47,16L17.47,13.73C17.47,13.25,17.22,13,16.77,13L16.7,13C16.23,13,15.97,13.25,15.97,13.7L15.97,16L13.7,16C13.25,16,13,16.25,13,16.73L13,16.8C13,17.25,13.25,17.5,13.73,17.5L15.98,17.5Z"/></svg>