<svg xmlns="http://www.w3.org/2000/svg" viewBox="0 0 24 24" fill="currentColor"><path d="M6.98,13.2C6.85,13.3,5.55,13,5.08,12.6C4.76,12.3,4.73,11.8,5.03,11.38L6.28,9.63C6.86,8.83,6.86,8.38,7.18,7.55C7.25,7.33,7.38,7.01,7.78,6.68C8.18,6.33,8.46,6.08,8.6,5.68L8.75,4.93C8.81,4.71,9,4.5,9.2,4.5L10.58,5.88C11.67,5.94,12.8,6.29,13.77,6.95C12.02,8.01,11.51,9.89,12.62,12.04C11.9,12.55,11.5,13.4,11.5,14.5L11.5,20.5L5.5,20.5L5.5,19.5C5.5,18.46,6.32,17.74,7.7,17.55C7.73,15.23,9.32,13.95,10.18,13.25C10.78,12.75,11.4,12.11,11.4,11.43C11.4,10.91,11.08,10.48,10.95,10.31L10.52,10.78C10.13,11.21,9.4,11.96,8.57,11.96C7.5,11.98,7.47,12.73,6.98,13.21ZM19.6,11.5L15.5,11.5C14.47,11.5,13.45,11.03,13.45,9.8C13.45,8.77,14.2,8.13,15.18,8.13C16.45,8.13,17.35,9.25,17.8,10.92L17.25,10.92C17.7,9.22,18.63,8.13,19.86,8.13C20.85,8.13,21.56,8.82,21.56,9.8C21.56,11.02,20.53,11.5,19.61,11.5ZM14.07,20.5C13.3,20.5,13,20.2,13,19.43L13,17.5L16.75,17.5L16.75,20.5ZM13,14.07C13,13.3,13.3,13,14.07,13L16.75,13L16.75,16L13,16ZM18.25,20.5L18.25,17.5L22,17.5L22,19.43C22,20.2,21.7,20.5,20.93,20.5ZM18.25,16L18.25,13L20.93,13C21.7,13,22,13.3,22,14.07L22,16ZM16.8,10.92C16.41,9.57,15.9,9.1,15.25,9.1C14.82,9.1,14.42,9.33,14.42,9.8C14.42,10.45,15.12,10.53,15.5,10.53L19.6,10.53C19.88,10.53,20.57,10.45,20.57,9.8C20.57,9.32,20.18,9.1,19.77,9.1C19.2,9.1,18.62,9.57,18.25,10.92Z"/></svg>