<svg xmlns="http://www.w3.org/2000/svg" viewBox="0 0 24 24" fill="currentColor"><path d="M5.55,20.5L5.46,20.5C5.01,20.5,4.76,20.25,4.76,19.8L4.76,14.5C4.76,8.75,7.76,5.25,13.01,5.25C18.26,5.25,21.26,8.75,21.26,14.5L21.26,19.8C21.26,20.25,21.01,20.5,20.56,20.5L20.46,20.5C20.01,20.5,19.77,20.25,19.77,19.8L19.77,14.5C19.77,9.8,17.22,6.75,13.02,6.75C8.82,6.75,6.27,9.8,6.27,14.5L6.27,19.8C6.27,20.25,6.02,20.5,5.57,20.5ZM10,19.02L11.07,12.9L14.92,12.9L16.02,19.02ZM8.8,19.8C8.8,18.6,9.5,17.98,13,17.98C16.47,17.98,17.2,18.6,17.2,19.8L17.2,20.5L8.8,20.5ZM15.08,13.98L10.93,13.98C10.31,13.52,10.05,13.05,10.03,12.53L9.9,10.5C10.3,10.33,10.65,10.26,11.03,10.26L11.27,11.4L12.15,11.4L12.32,10.08C12.32,10.08,12.68,10,13,10C13.32,10,13.67,10.08,13.67,10.08L13.82,11.4L14.72,11.4L14.97,10.26C15.37,10.26,15.7,10.33,16.1,10.5L15.97,12.53C15.95,13.05,15.69,13.53,15.07,13.98Z"/></svg>