<svg xmlns="http://www.w3.org/2000/svg" viewBox="0 0 24 24" fill="currentColor"><path d="M4.35,6.36C4.35,10.61,8.5,10.43,8.5,13.8L8.5,14.25L7.02,14.25C6.8,14.61,6.74,14.98,6.74,15.38L8.6,16.5L8.47,16.63C7.82,17.28,7.29,17.96,7.29,18.88C7.29,20.38,8.52,21.6,9.99,21.6C11.47,21.6,12.69,20.38,12.69,18.88C12.69,17.96,12.19,17.18,11.49,16.63L11.34,16.5L11.79,16.24C11.57,15.92,11.49,15.48,11.49,14.85L11.49,14.25L11.49,13.8L11.49,10.9C11.49,8.84,11.67,7.98,13.66,6.35ZM22,10.88L22,15.36C19.9,15.36,19.28,15.65,17.5,17.38C15.77,15.65,15.12,15.36,13,15.36L13,10.88C13,8.33,13.28,7.98,17.5,5.25C21.72,7.93,22,8.28,22,10.88Z"/></svg>