<svg xmlns="http://www.w3.org/2000/svg" viewBox="0 0 24 24"><path d="M0,20.67C0,19.23,0.52,18.24,2.53,17.7L3.98,9.52C2.84,8.7,2.39,7.79,2.33,6.85L2.1,2.98C2.87,2.65,3.5,2.48,4.23,2.48L4.73,4.68L6.4,4.68L6.7,2.15C6.7,2.15,7.4,2.02,8,2.02C8.6,2.02,9.3,2.15,9.3,2.15L9.57,4.68L11.27,4.68L11.77,2.48C12.5,2.48,13.14,2.65,13.9,2.98L13.82,4.25C11.55,4.86,11.04,6.53,11.83,9.81L12.63,13.18C10.63,14.26,9.96,15.46,9.96,17.85L9.96,20.02L14.56,20.02L15.01,22.02L-0.01,22.02Z" fill="currentColor"/><path d="M16.63,20L19.3,20L18.6,23.2C18.43,23.93,18.4,24,18,24C17.6,24,17.57,23.93,17.4,23.2Z" fill="currentColor"/><path d="M12,17.07C12,16.24,12.43,15.5,13.2,15.14L14.97,14.24L13.64,8.61C13.17,6.64,13.67,6.01,15.67,6.01L20.34,6.01C22.34,6.01,22.84,6.64,22.37,8.61L21,14.28L22.8,15.15C23.57,15.52,24,16.25,24,17.08L24,18.01L12,18.01Z" fill="currentColor"/></svg>