<svg xmlns="http://www.w3.org/2000/svg" viewBox="0 0 24 24" fill="currentColor"><path d="M13.1,13.98C13.35,13.68,13.76,13.36,14.11,13L17.22,13C16.89,13.77,16.31,14.44,15.7,15.27C15.21,15.95,14.62,16.61,14.34,17.52C15.86,17.67,16.75,18.41,16.75,19.5L16.75,20.49L4.75,20.49L4.75,19.5C4.75,18.41,5.64,17.67,7.14,17.52C6.86,16.61,6.27,15.95,5.78,15.27C4.86,14,4,13.1,4,11.7C4,9.62,5.35,8.27,7.17,8.27C8.32,8.27,9.1,8.62,9.52,8.89L10.02,6.99L8.25,6.99L8.25,5.49L9.99,5.49L9.99,3.99L10.74,3.99L10.74,10.42C10.74,11.5,11.27,12.34,12.12,12.74L12.12,13.97ZM9.38,11.52C9.38,11.52,8.53,10.92,7.88,10.92C7.2,10.92,6.78,11.3,6.78,11.87C6.78,12.68,7.9,13.4,8.4,13.97L9.38,13.97ZM21.3,10L18.21,10C17.75,10,17.51,9.75,17.51,9.3L17.51,9.1C17.51,8.65,17.68,8.22,17.98,7.88L20.08,5.5L18.21,5.5C17.75,5.5,17.51,5.25,17.51,4.8L17.51,4.71C17.51,4.26,17.75,4.01,18.21,4.01L21.3,4.01C21.75,4.01,22,4.26,22,4.71L22,4.95C22,5.4,21.83,5.83,21.53,6.18L19.45,8.5L21.3,8.5C21.75,8.5,22,8.75,22,9.2L22,9.3C22,9.75,21.75,9.99,21.3,9.99ZM12.95,5.5L16.04,5.5C16.5,5.5,16.74,5.75,16.74,6.2L16.74,6.4C16.74,6.85,16.57,7.28,16.27,7.62L14.17,10L16.04,10C16.5,10,16.74,10.25,16.74,10.7L16.74,10.79C16.74,11.24,16.5,11.49,16.04,11.49L12.95,11.49C12.5,11.49,12.25,11.24,12.25,10.79L12.25,10.55C12.25,10.1,12.42,9.67,12.72,9.32L14.8,7L12.95,7C12.5,7,12.25,6.75,12.25,6.3L12.25,6.2C12.25,5.75,12.5,5.51,12.95,5.51Z"/></svg>