<svg xmlns="http://www.w3.org/2000/svg" viewBox="0 0 24 24"><path d="M8.27,15.4C8.07,14.1,7.3,13.27,6.7,12.43C5.7,11.06,4.8,10.1,4.8,8.6C4.8,6.4,6.23,4.97,8.2,4.97C9.4,4.97,10.23,5.34,10.7,5.64L11.23,3.61L9.33,3.61L9.33,2.01L11.2,2.01L11.2,0.41L12.8,0.41L12.8,2.01L14.67,2.01L14.67,3.61L12.84,3.61L13.27,5.64C13.74,5.34,14.57,4.97,15.8,4.97C17.8,4.97,19.2,6.5,19.2,8.6C19.2,10.1,18.27,11.07,17.27,12.43C16.67,13.26,15.9,14.1,15.7,15.4Z" fill="currentColor"/><path d="M14.5,11.03C15.03,10.43,16.23,9.66,16.23,8.8C16.23,8.2,15.8,7.8,15.06,7.8C14.36,7.8,13.46,8.43,13.46,8.43L13.46,11.03Z" fill="currentColor"/><path d="M10.53,8.43C10.53,8.43,9.63,7.8,8.93,7.8C8.2,7.8,7.76,8.2,7.76,8.8C7.76,9.67,8.96,10.43,9.49,11.03L10.52,11.03Z" fill="currentColor"/><path d="M5.6,16.93C5.6,15.63,6.8,14.8,8.77,14.8L15.2,14.8C17.2,14.8,18.4,15.63,18.4,16.93L18.4,18L5.6,18Z" fill="currentColor"/><path d="M10.66,20.04L13.29,20.04L12.26,23.57C12.09,24.14,11.89,24.14,11.73,23.57Z" fill="currentColor"/><path d="M8.77,22.83C8.6,23.4,8.4,23.4,8.2,22.83L7.3,20.03L9.67,20.03Z" fill="currentColor"/><path d="M15.83,22.83C15.63,23.4,15.43,23.43,15.23,22.83L14.3,20.03L16.73,20.03Z" fill="currentColor"/></svg>