<svg xmlns="http://www.w3.org/2000/svg" viewBox="0 0 24 24"><path d="M2.07,22L1.94,22C1.34,22,1.01,21.67,1.01,21.07L1.01,12.34C1.01,5.67,5.01,1.67,12.01,1.67C19.01,1.67,23.01,5.67,23.01,12.34L23.01,21.07C23.01,21.67,22.68,22,22.08,22L21.95,22C21.35,22,21.02,21.67,21.02,21.07L21.02,12.34C21.02,7.07,17.62,3.67,12.02,3.67C6.42,3.67,3.02,7.07,3.02,12.34L3.02,21.07C3.02,21.67,2.69,22,2.09,22Z" fill="currentColor"/><path d="M6.4,21.07C6.4,19.97,7.13,19.34,8.6,19.24L6.07,11.51C5.44,11.41,5,10.91,5,10.31C5,9.68,5.5,9.11,6.17,9.11C6.77,9.11,7.3,9.64,7.3,10.31C7.3,10.61,7.23,10.84,7.07,11.04L9.17,13.81L9.44,9.51C8.87,9.28,8.61,8.91,8.61,8.34C8.61,7.64,9.14,7.07,9.84,7.07C10.54,7.07,11.04,7.64,11.04,8.34C11.04,8.74,10.91,9.11,10.57,9.37L12,13.6L13.4,9.37C13.07,9.1,12.9,8.74,12.9,8.34C12.9,7.67,13.43,7.07,14.13,7.07C14.83,7.07,15.4,7.64,15.4,8.34C15.4,8.91,15.13,9.27,14.53,9.51L14.83,13.81L16.93,11.04C16.73,10.84,16.63,10.61,16.63,10.31C16.63,9.68,17.16,9.11,17.8,9.11C18.53,9.11,19,9.74,19,10.31C19,10.84,18.57,11.41,17.93,11.51L15.4,19.24C16.87,19.37,17.6,19.97,17.6,21.07L17.6,22L6.4,22Z" fill="currentColor"/></svg>