<svg xmlns="http://www.w3.org/2000/svg" viewBox="0 0 24 24" fill="currentColor"><path d="M9.42,16.9C9.42,16.2,9.9,15.8,10.83,15.72L9.2,10.75C8.8,10.7,8.52,10.35,8.52,9.98C8.52,9.58,8.85,9.21,9.27,9.21C9.67,9.21,10,9.56,10,9.98C10,10.18,9.98,10.33,9.85,10.45L11.2,12.23L11.37,9.48C11,9.3,10.83,9.08,10.83,8.7C10.83,8.25,11.18,7.9,11.63,7.9C12.08,7.9,12.4,8.25,12.4,8.7C12.4,8.98,12.33,9.21,12.1,9.38L13.02,12.1L13.92,9.38C13.72,9.21,13.6,8.98,13.6,8.7C13.6,8.31,13.95,7.9,14.4,7.9C14.85,7.9,15.21,8.25,15.21,8.7C15.21,9.08,15.03,9.3,14.66,9.48L14.86,12.23L16.21,10.45C16.08,10.32,16.01,10.17,16.01,9.98C16.01,9.58,16.36,9.21,16.76,9.21C17.23,9.21,17.53,9.63,17.53,9.98C17.53,10.33,17.25,10.71,16.83,10.75L15.24,15.72C16.16,15.8,16.64,16.2,16.64,16.9L16.64,17.5L9.44,17.5ZM21.35,10.82C22.02,10.82,22.17,11.13,21.7,11.63L19.75,13.71C19.28,14.21,19,14.1,19,13.41L19,8.85C19,7.48,18.53,7,17.15,7L8.87,7C7.5,7,7,7.47,7,8.85L7,9.33C7,9.78,6.75,10.02,6.3,10.02L6.2,10.02C5.75,10.02,5.51,9.78,5.51,9.33L5.51,9.23C5.51,6.48,6.48,5.5,9.23,5.5L16.79,5.5C19.54,5.5,20.51,6.48,20.51,9.23L20.51,10.83ZM4.65,15.17C3.98,15.17,3.83,14.88,4.3,14.37L6.25,12.29C6.72,11.79,7,11.9,7,12.59L7,17.12C7,18.49,7.5,18.99,8.88,18.99L17.15,18.99C18.52,18.99,19,18.49,19,17.12L19,16.67C19,16.22,19.25,15.97,19.7,15.97L19.79,15.97C20.25,15.97,20.49,16.22,20.49,16.67L20.49,16.76C20.49,19.52,19.52,20.49,16.77,20.49L9.21,20.49C6.46,20.49,5.48,19.52,5.48,16.76L5.48,15.17Z"/></svg>