<svg xmlns="http://www.w3.org/2000/svg" viewBox="0 0 24 24"><path d="M19.67,11.4C19.67,11.4,19.67,11.4,19.67,11.4C19.67,11.4,19.67,11.4,19.67,11.4C19.67,11.4,19.67,11.4,19.67,11.4C19.67,11.4,19.67,11.4,19.67,11.4Z" fill="currentColor"/><path d="M41.67,1.4C41.67,1.4,41.67,1.4,41.67,1.4C41.67,1.4,41.67,1.4,41.67,1.4C41.67,1.4,41.67,1.4,41.67,1.4C41.67,1.4,41.67,1.4,41.67,1.4Z" fill="currentColor"/><path d="M64,12C64,12,64,12,64,12C64,12,64,12,64,12C64,12,64,12,64,12C64,12,64,12,64,12Z" fill="currentColor"/><path d="M140,32C140,32,140,32,140,32C140,32,140,32,140,32C140,32,140,32,140,32C140,32,140,32,140,32Z" fill="currentColor"/><path d="M7.47,10.7C7.37,10.8,6.07,10.5,5.57,10.1C5.27,9.8,5.24,9.3,5.54,8.87L6.77,7.14C7.37,6.34,7.37,5.87,7.67,5.04C7.77,4.84,7.87,4.51,8.27,4.17C8.67,3.84,8.97,3.57,9.1,3.17L9.27,2.44C9.3,2.21,9.5,2.01,9.7,2.01L11.07,3.38C13.87,3.55,16.87,5.55,16.87,9.75C16.87,11.65,15.84,14.18,15.7,15.45L8.23,15.62C7.96,12.95,9.76,11.52,10.66,10.75C11.26,10.25,11.89,9.62,11.89,8.95C11.89,8.42,11.56,7.98,11.46,7.82L11.03,8.29C10.63,8.72,9.9,9.46,9.06,9.46C7.99,9.49,7.96,10.26,7.46,10.73Z" fill="currentColor"/><path d="M6,18L6,17C6,15.77,7.13,15,8.97,15L15,15C16.87,15,18,15.77,18,17L18,18Z" fill="currentColor"/><path d="M1,21C1,19.9,1.9,19,3,19C4.1,19,5,19.9,5,21C5,22.1,4.1,23,3,23C1.9,23,1,22.1,1,21Z" fill="currentColor"/><path d="M2.97,22L2.97,20L20.97,20L20.97,22Z" fill="currentColor"/><path d="M19,20.97C19,19.9,19.9,19,20.97,19C22.1,19,23,19.9,23,20.97C23,22.1,22.1,23,20.97,23C19.9,23,19,22.1,19,20.97Z" fill="currentColor"/></svg>