<svg xmlns="http://www.w3.org/2000/svg" viewBox="0 0 24 24" fill="currentColor"><path d="M8.7,18.4L10.25,9.65L15.75,9.65L17.33,18.4ZM7,20.5L7,19.5C7,17.78,8,16.9,13,16.9C17.97,16.9,19,17.78,19,19.5L19,20.5ZM10.04,11.18C9.14,10.55,8.79,9.85,8.75,9.13L8.57,6.23C9.15,5.98,9.62,5.85,10.17,5.85L10.55,7.5L11.8,7.5L12.02,5.61C12.02,5.61,12.55,5.51,13,5.51C13.45,5.51,13.97,5.61,13.97,5.61L14.18,7.5L15.45,7.5L15.83,5.85C16.37,5.85,16.85,5.98,17.42,6.23L17.25,9.13C17.2,9.86,16.85,10.55,15.95,11.18Z"/></svg>