<svg xmlns="http://www.w3.org/2000/svg" viewBox="0 0 24 24" fill="currentColor"><path d="M4,20.5C4,18.5,4.9,17.52,6.03,16.58C7.1,15.68,8.1,14.85,8.1,13.18L8.1,12.48L6.48,12.48C6.27,12.13,6.2,11.73,6.2,11.33L8.1,10.19C7.17,9.54,6.75,8.69,6.75,7.76C6.75,6.24,7.97,5.01,9.5,5.01C11.02,5.01,12.25,6.23,12.25,7.76C12.25,8.69,11.82,9.54,10.9,10.16L12.48,11.14C10.97,12.22,10,13.99,10,16.02C10,17.82,10.77,19.42,12,20.52ZM19,16.02C19,14.32,17.7,13.02,16,13.02C14.3,13.02,13,14.32,13,16.02C13,17.73,14.3,19.02,16,19.02C17.7,19.02,19,17.73,19,16.02ZM11.5,16.02C11.5,13.55,13.52,11.52,16,11.52C18.48,11.52,20.5,13.55,20.5,16.02C20.5,18.5,18.48,20.52,16,20.52C13.52,20.52,11.5,18.5,11.5,16.02ZM21.7,21.57L21.6,21.67C21.28,21.99,20.93,21.99,20.61,21.67L17.83,18.89L18.93,17.79L21.71,20.57C22.03,20.89,22.03,21.24,21.71,21.57Z"/></svg>