<svg xmlns="http://www.w3.org/2000/svg" viewBox="0 0 24 24"><path d="M16.6,18L7.4,18C7.4,14.8,10.6,15.3,10.77,12.13L10.8,11.56L9.57,11.56C9.44,11.29,9.37,10.96,9.37,10.66L10.8,9.73C10.1,9.23,9.8,8.53,9.8,7.8C9.8,6.6,10.77,5.6,12,5.6C13.23,5.6,14.2,6.6,14.2,7.8C14.2,8.57,13.97,9.17,13.2,9.7L14.63,10.67C14.63,10.97,14.56,11.3,14.43,11.57L13.2,11.57L13.23,12.14C13.4,15.31,16.6,14.81,16.6,18.01Z" fill="currentColor"/><path d="M23.13,9.1C24.03,9.1,24.23,9.5,23.6,10.17L21,12.94C20.37,13.61,20,13.47,20,12.54L20,6.47C20,4.64,19.37,4,17.53,4L6.5,4C4.67,4,4,4.63,4,6.47L4,7.1C4,7.7,3.67,8.03,3.07,8.03L2.94,8.03C2.34,8.03,2.01,7.7,2.01,7.1L2.01,6.97C2.01,3.3,3.31,2,6.98,2L17.05,2C20.72,2,22.02,3.3,22.02,6.97L22.02,9.1Z" fill="currentColor"/><path d="M0.87,14.9C-0.03,14.9,-0.23,14.5,0.4,13.83L3,11.06C3.63,10.39,4,10.53,4,11.46L4,17.49C4,19.32,4.67,19.99,6.5,19.99L17.53,19.99C19.36,19.99,20,19.32,20,17.49L20,16.89C20,16.29,20.33,15.96,20.93,15.96L21.06,15.96C21.66,15.96,21.99,16.29,21.99,16.89L21.99,17.02C21.99,20.69,20.69,21.99,17.02,21.99L6.95,21.99C3.28,21.99,1.98,20.69,1.98,17.02L1.98,14.89Z" fill="currentColor"/></svg>