<svg xmlns="http://www.w3.org/2000/svg" viewBox="0 0 24 24"><path d="M0,20.67C0,19.23,0.52,18.24,2.53,17.7L3.98,9.52C2.84,8.7,2.39,7.79,2.33,6.85L2.1,2.98C2.87,2.65,3.5,2.48,4.23,2.48L4.73,4.68L6.4,4.68L6.7,2.15C6.7,2.15,7.4,2.02,8,2.02C8.6,2.02,9.3,2.15,9.3,2.15L9.57,4.68L11.27,4.68L11.77,2.48C12.5,2.48,13.14,2.65,13.9,2.98L13.87,3.51C10.89,4.82,9.84,7.55,11.49,10.74C10.54,11.42,10,12.55,10,14.02L10,22.02L0,22.02Z" fill="currentColor"/><path d="M20.8,10L15.33,10C13.96,10,12.6,9.37,12.6,7.73C12.6,6.36,13.6,5.5,14.9,5.5C16.6,5.5,17.8,7,18.4,9.23L17.67,9.23C18.27,6.96,19.5,5.5,21.14,5.5C22.47,5.5,23.41,6.43,23.41,7.73C23.41,9.36,22.04,10,20.81,10Z" fill="currentColor"/><path d="M13.43,22C12.4,22,12,21.6,12,20.57L12,18L17,18L17,22Z" fill="currentColor"/><path d="M12,13.43C12,12.4,12.4,12,13.43,12L17,12L17,16L12,16Z" fill="currentColor"/><path d="M19,22L19,18L24,18L24,20.57C24,21.6,23.6,22,22.57,22Z" fill="currentColor"/><path d="M19,16L19,12L22.57,12C23.6,12,24,12.4,24,13.43L24,16Z" fill="currentColor"/><path d="M17.07,9.23C16.54,7.43,15.87,6.8,15,6.8C14.43,6.8,13.9,7.1,13.9,7.73C13.9,8.6,14.83,8.7,15.33,8.7L20.8,8.7C21.17,8.7,22.1,8.6,22.1,7.73C22.1,7.1,21.57,6.8,21.03,6.8C20.26,6.8,19.5,7.43,19,9.23Z" fill="currentColor"/></svg>