<svg xmlns="http://www.w3.org/2000/svg" viewBox="0 0 24 24"><path d="M2.07,22L1.94,22C1.34,22,1.01,21.67,1.01,21.07L1.01,14C1.01,6.33,5.01,1.67,12.01,1.67C19.01,1.67,23.01,6.34,23.01,14L23.01,21.07C23.01,21.67,22.68,22,22.08,22L21.95,22C21.35,22,21.02,21.67,21.02,21.07L21.02,14C21.02,7.73,17.62,3.67,12.02,3.67C6.42,3.67,3.02,7.74,3.02,14L3.02,21.07C3.02,21.67,2.69,22,2.09,22Z" fill="currentColor"/><path d="M6.8,21.07C6.8,19.94,7.8,19.24,9.4,19.2C8.63,18.07,8.03,16.87,8.03,15.2C8.03,12.2,10.53,9.87,10.53,9.87C10.36,9.14,10.36,9,10.36,8.8C10.36,7.83,11.09,7.07,11.99,7.07C12.89,7.07,13.62,7.84,13.62,8.8C13.62,9.1,13.59,9.63,13.19,10.13C11.99,11.5,11.09,13.4,10.96,15.7L12.53,15.7C12.63,13.8,13.23,12.23,14.23,11C14.96,11.5,15.96,13.3,15.96,15.2C15.96,16.93,15.39,18.13,14.63,19.2C16.23,19.23,17.2,19.97,17.2,21.07L17.2,22L6.8,22Z" fill="currentColor"/></svg>