<svg xmlns="http://www.w3.org/2000/svg" viewBox="0 0 24 24"><path d="M4.7,7C2.9,7,1.4,6.17,1.4,4.3C1.4,2.77,2.47,1.83,3.9,1.83C5.43,1.83,6.38,2.82,7.02,4.75C7.68,2.82,8.62,1.83,10.13,1.83C11.6,1.83,12.63,2.8,12.63,4.3C12.63,4.55,12.6,4.78,12.55,4.99C11.83,5.16,11.09,5.42,10.17,5.81L10.25,6.92C9.98,6.97,9.69,7,9.4,7Z" fill="currentColor"/><path d="M2.67,22C0.67,22,0,21.33,0,19.33L0,16L6,16L6,22Z" fill="currentColor"/><path d="M0,11.67C0,9.67,0.67,9,2.67,9L6,9L6,14L0,14Z" fill="currentColor"/><path d="M8,14L8,9L10.4,9L10.47,10.03C10.55,10.84,10.99,11.73,11.67,12.43L11.39,14Z" fill="currentColor"/><path d="M8.6,22L8,22L8,16L11.03,16L10.83,17.13C9.32,17.96,8.6,19.38,8.6,20.93Z" fill="currentColor"/><path d="M4.7,5.53L5.82,5.53C5.31,3.91,4.87,3.3,4.03,3.3C3.4,3.3,2.8,3.57,2.8,4.3C2.8,5.3,3.8,5.53,4.7,5.53Z" fill="currentColor"/><path d="M8.27,5.53L9.4,5.53C10.2,5.53,11.2,5.3,11.2,4.3C11.2,3.57,10.6,3.3,10.03,3.3C9.25,3.3,8.74,3.92,8.26,5.53Z" fill="currentColor"/><path d="M12.4,19.77L14.07,10.44L19.94,10.44L21.61,19.77Z" fill="currentColor"/><path d="M10.6,20.93C10.6,19.1,11.67,18.16,17,18.16C22.3,18.16,23.4,19.09,23.4,20.93L23.4,22L10.6,22Z" fill="currentColor"/><path d="M20.13,12.07L13.86,12.07C12.89,11.4,12.53,10.64,12.46,9.87L12.26,6.77C12.89,6.5,13.39,6.37,13.99,6.37L14.39,8.14L15.72,8.14L15.95,6.11C15.95,6.11,16.52,6.01,16.98,6.01C17.45,6.01,18.01,6.11,18.01,6.11L18.24,8.14L19.57,8.14L19.97,6.37C20.57,6.37,21.07,6.5,21.7,6.77L21.5,9.87C21.43,10.64,21.07,11.4,20.1,12.07Z" fill="currentColor"/></svg>