<svg xmlns="http://www.w3.org/2000/svg" viewBox="0 0 24 24" fill="currentColor"><path d="M8.55,16.7C8.55,15.75,9.4,15.12,10.78,15.1C10.13,14.15,9.6,13.1,9.6,11.67C9.6,9.1,11.75,7.1,11.75,7.1C11.61,6.48,11.61,6.35,11.61,6.2C11.61,5.35,12.23,4.7,13.01,4.7C13.78,4.7,14.41,5.35,14.41,6.2C14.41,6.45,14.39,6.9,14.04,7.32C13.01,8.5,12.26,10.15,12.14,12.1L13.47,12.1C13.56,10.47,14.07,9.12,14.94,8.05C15.57,8.5,16.42,10.05,16.42,11.67C16.42,13.15,15.95,14.2,15.27,15.1C16.64,15.15,17.47,15.75,17.47,16.7L17.47,17.5L8.57,17.5ZM12,19.03L13.97,19.03L13.19,21.68C13.07,22.11,12.92,22.11,12.8,21.68ZM10.58,21.12C10.45,21.55,10.3,21.55,10.15,21.12L9.47,19.02L11.25,19.02ZM15.87,21.12C15.72,21.55,15.57,21.57,15.42,21.12L14.72,19.02L16.55,19.02Z"/></svg>