<svg xmlns="http://www.w3.org/2000/svg" viewBox="0 0 24 24"><path d="M0.33,22C0.33,16.97,4.86,18.9,5.36,12.67L3.49,12.67C3.26,12.27,3.16,11.8,3.16,11.34L5.36,10.01C4.26,9.28,3.79,8.28,3.79,7.21C3.79,5.44,5.22,4.01,6.99,4.01C8.76,4.01,10.19,5.44,10.19,7.21C10.19,8.34,9.82,9.18,8.62,9.98L10.82,11.35C10.82,11.82,10.72,12.28,10.49,12.68L8.62,12.68C8.8,14.94,9.51,16.13,10.35,16.96C9.27,17.88,8.32,19.1,8.32,22.01Z" fill="currentColor"/><path d="M23.67,22L10.34,22C10.34,16.97,14.87,18.9,15.37,12.67L13.5,12.67C13.27,12.27,13.17,11.8,13.17,11.34L15.37,10.01C14.27,9.28,13.8,8.28,13.8,7.21C13.8,5.44,15.23,4.01,17,4.01C18.77,4.01,20.2,5.44,20.2,7.21C20.2,8.34,19.83,9.18,18.63,9.98L20.83,11.35C20.83,11.82,20.73,12.28,20.5,12.68L18.63,12.68C19.13,18.91,23.66,16.98,23.66,22.01Z" fill="currentColor"/></svg>