<svg xmlns="http://www.w3.org/2000/svg" viewBox="0 0 24 24"><path d="M6.07,12.27C5.9,12.4,4.17,12,3.54,11.47C3.11,11.07,3.07,10.4,3.47,9.84L5.14,7.51C5.91,6.44,5.91,5.84,6.34,4.74C6.44,4.44,6.61,4.01,7.14,3.57C7.67,3.1,8.04,2.77,8.24,2.24L8.44,1.24C8.51,0.94,8.77,0.67,9.04,0.67L10.87,2.5C14.47,2.73,18.5,5.37,18.5,11.3C18.5,12.9,17.5,15.8,17.3,16.67L7.23,16.67C7.43,14.67,9.3,13.17,10.33,12.34C11.13,11.67,11.96,10.81,11.96,9.91C11.96,9.21,11.53,8.64,11.36,8.41L10.79,9.04C10.26,9.61,9.29,10.61,8.19,10.61C6.76,10.64,6.72,11.64,6.06,12.28Z" fill="currentColor"/><path d="M4,22L4,20.67C4,19.04,5.5,18,7.97,18L16,18C18.5,18,20,19.03,20,20.67L20,22Z" fill="currentColor"/></svg>