<svg xmlns="http://www.w3.org/2000/svg" viewBox="0 0 24 24"><path d="M19.97,20C20,15.9,18.17,15.38,16.9,14.78C16.88,14.17,16.83,13.57,16.75,13C17.12,13.28,17.54,13.5,18.01,13.5C19.18,13.5,19.21,14.3,19.74,14.8C19.87,14.93,21.17,14.6,21.67,14.13C22.04,13.83,22.04,13.3,21.74,12.86L20.47,10.99C19.88,10.14,19.87,9.64,19.52,8.77L20.98,7.31C21.14,7.57,21.25,7.82,21.34,8.05C21.91,9.52,21.74,9.38,22.04,9.82L23.34,11.72C23.71,12.25,23.94,12.89,23.94,13.52C23.94,14.32,23.61,15.09,22.97,15.65C22.55,16.01,21.91,16.33,21.32,16.54C21.72,17.37,21.93,18.62,21.97,20.55C21.97,21.58,21.57,21.98,20.54,21.98L16.91,21.98L16.91,19.98Z" fill="currentColor"/><path d="M13.43,22L6.3,22L14.77,13.53C14.84,14.05,14.87,14.6,14.87,15.16L14.87,20.56C14.87,21.59,14.47,21.99,13.44,21.99Z" fill="currentColor"/><path d="M23.4,2.03L19.72,5.71L18.22,7.21L14.23,11.2L3.46,21.97L2.1,23.33L2.07,23.36C1.64,23.79,1.17,23.79,0.74,23.36L0.64,23.26C0.21,22.83,0.21,22.36,0.64,21.93L2.64,19.93C3.33,16.53,5.78,16.5,7.14,15.33C8.64,14.06,9.34,12.96,8.17,11.4C7.04,12.63,6.34,13.57,5.14,13.6C3.71,13.63,3.67,14.63,3.01,15.27C2.84,15.4,1.11,15,0.48,14.47C0.05,14.07,0.01,13.4,0.41,12.84L2.08,10.51C2.85,9.44,2.71,8.84,3.15,7.74C3.25,7.47,3.42,7.01,3.95,6.57C4.48,6.1,4.95,5.8,5.05,5.24L5.25,4.24C5.32,3.94,5.65,3.44,6.22,4.01L7.69,5.51C9.83,5.65,11.96,6.98,13.34,9.26L15.56,7.04C15.14,7.08,14.75,7.16,14.38,7.29C13.95,6.74,13.49,6.24,12.99,5.8C13.61,5.47,14.27,5.23,14.95,5.12L15.82,4.29C16.83,3.32,17.92,3.34,18.69,3.92L21.98,0.63C22.41,0.2,22.88,0.2,23.31,0.63L23.41,0.73C23.83,1.15,23.84,1.61,23.44,2.03C23.43,2.04,23.42,2.05,23.41,2.06Z" fill="currentColor"/></svg>