<svg xmlns="http://www.w3.org/2000/svg" viewBox="0 0 24 24"><path d="M2.07,22L1.94,22C1.34,22,1.01,21.67,1.01,21.07L1.01,14C1.01,6.33,5.01,1.67,12.01,1.67C19.01,1.67,23.01,6.34,23.01,14L23.01,21.07C23.01,21.67,22.68,22,22.08,22L21.95,22C21.35,22,21.02,21.67,21.02,21.07L21.02,14C21.02,7.73,17.62,3.67,12.02,3.67C6.42,3.67,3.02,7.74,3.02,14L3.02,21.07C3.02,21.67,2.69,22,2.09,22Z" fill="currentColor"/><path d="M8.07,15.2C7.97,15.27,6.74,15,6.3,14.63C6,14.33,5.97,13.86,6.27,13.46L7.44,11.83C7.97,11.1,7.97,10.66,8.27,9.9C8.34,9.7,8.47,9.4,8.84,9.1C9.21,8.77,9.47,8.53,9.61,8.17L9.74,7.47C9.77,7.27,9.97,7.07,10.17,7.07L11.44,8.34C14.04,8.51,16.87,10.37,16.87,14.27C16.87,16.07,15.87,18.44,15.77,19.64L8.77,19.77C8.54,17.27,10.2,15.94,11.07,15.24C11.64,14.77,12.2,14.17,12.2,13.54C12.2,13.04,11.9,12.64,11.8,12.47L11.4,12.94C11.03,13.34,10.33,14.04,9.57,14.04C8.57,14.04,8.54,14.74,8.07,15.21Z" fill="currentColor"/><path d="M6.7,21.07C6.7,19.94,7.77,19.2,9.47,19.2L15.1,19.2C16.87,19.2,17.9,19.93,17.9,21.07L17.9,22L6.7,22Z" fill="currentColor"/></svg>