<svg xmlns="http://www.w3.org/2000/svg" viewBox="0 0 24 24"><path d="M4.7,7C2.9,7,1.4,6.17,1.4,4.3C1.4,2.77,2.47,1.83,3.9,1.83C5.43,1.83,6.38,2.82,7.02,4.75C7.68,2.82,8.62,1.83,10.13,1.83C11.6,1.83,12.63,2.8,12.63,4.3C12.63,6.13,11.1,7,9.4,7Z" fill="currentColor"/><path d="M2.67,22C0.67,22,0,21.33,0,19.33L0,16L6,16L6,22Z" fill="currentColor"/><path d="M0,11.67C0,9.67,0.67,9,2.67,9L6,9L6,14L0,14Z" fill="currentColor"/><path d="M8,14L8,9L11.33,9C12.03,9,12.56,9.08,12.96,9.27C12.15,10.66,11.52,12.31,11.46,14Z" fill="currentColor"/><path d="M10,20.93L10,22L8,22L8,16L11.65,16C11.76,16.53,11.91,17.03,12.09,17.51C10.69,18.29,10,19.6,10,20.94Z" fill="currentColor"/><path d="M4.7,5.53L5.82,5.53C5.31,3.91,4.87,3.3,4.03,3.3C3.4,3.3,2.8,3.57,2.8,4.3C2.8,5.3,3.8,5.53,4.7,5.53Z" fill="currentColor"/><path d="M8.27,5.53L9.4,5.53C10.2,5.53,11.2,5.3,11.2,4.3C11.2,3.57,10.6,3.3,10.03,3.3C9.25,3.3,8.74,3.92,8.26,5.53Z" fill="currentColor"/><path d="M12.07,20.93C12.07,19.66,13.2,18.83,15.04,18.8C14.17,17.53,13.47,16.13,13.47,14.23C13.47,10.8,16.34,8.13,16.34,8.13C16.14,7.3,16.14,7.13,16.14,6.93C16.14,5.8,16.97,4.93,18.01,4.93C19.04,4.93,19.88,5.8,19.88,6.93C19.88,7.26,19.85,7.86,19.38,8.43C18.01,10,17.01,12.2,16.85,14.8L18.62,14.8C18.75,12.63,19.42,10.83,20.59,9.4C21.42,10,22.56,12.07,22.56,14.23C22.56,16.2,21.93,17.6,21.03,18.8C22.86,18.87,23.96,19.67,23.96,20.93L23.96,22L12.09,22Z" fill="currentColor"/></svg>