<svg xmlns="http://www.w3.org/2000/svg" viewBox="0 0 24 24"><path d="M0,14.47C0.03,12.94,0.57,11.9,1.43,11.4C3.33,10.17,3.5,8.67,3.56,8.03L2.23,8.03C2.06,7.8,2,7.46,2,7.03L3.7,6.36C2.77,5.59,2.47,4.93,2.47,4.13C2.47,2.8,3.57,1.66,4.94,1.66C6.31,1.66,7.44,2.79,7.41,4.13C7.41,4.93,7.08,5.6,6.18,6.36L7.85,7.03C7.85,7.46,7.78,7.8,7.68,8.03L6.31,8.03C6.33,8.34,6.38,8.84,6.65,9.42C4.91,10.2,3.68,11.96,3.68,14.06C3.68,14.39,3.74,14.74,3.85,15.1C2.36,15.03,0.84,14.81,0.02,14.46Z" fill="currentColor"/><path d="M16.53,4.13C16.5,2.8,17.63,1.66,19,1.66C20.37,1.66,21.47,2.79,21.47,4.13C21.47,4.93,21.17,5.6,20.24,6.36L21.94,7.03C21.94,7.46,21.87,7.8,21.71,8.03L20.38,8.03C20.45,8.66,20.61,10.16,22.51,11.4C23.38,11.9,23.91,12.93,23.94,14.47C23.12,14.81,21.64,15.03,20.18,15.11C20.28,14.76,20.34,14.41,20.34,14.07C20.34,12,19.09,10.2,17.31,9.41C17.57,8.84,17.63,8.34,17.64,8.03L16.27,8.03C16.17,7.8,16.1,7.46,16.1,7.03L17.77,6.36C16.87,5.59,16.54,4.93,16.54,4.13Z" fill="currentColor"/><path d="M15.13,19.8L8.86,19.8C8.69,18.7,8.06,18.03,7.53,17.3C6.7,16.13,5.93,15.33,5.93,14.07C5.93,12.2,7.16,11,8.8,11C9.83,11,10.53,11.3,10.9,11.57L11.37,9.84L9.77,9.84L9.77,8.51L11.34,8.51L11.34,7.14L12.71,7.14L12.71,8.51L14.28,8.51L14.28,9.84L12.71,9.84L13.11,11.57C13.48,11.3,14.18,11,15.21,11C16.94,11,18.11,12.3,18.11,14.07C18.11,15.34,17.31,16.14,16.48,17.3C15.98,18.03,15.31,18.7,15.15,19.8Z" fill="currentColor"/><path d="M13.27,13.93L13.27,16.13L14.14,16.13C14.57,15.6,15.61,14.96,15.61,14.23C15.61,13.73,15.21,13.36,14.61,13.36C14.04,13.36,13.28,13.93,13.28,13.93Z" fill="currentColor"/><path d="M9.9,16.13L10.77,16.13L10.77,13.93C10.77,13.93,10,13.36,9.44,13.36C8.84,13.36,8.44,13.73,8.44,14.23C8.44,14.96,9.47,15.6,9.91,16.13Z" fill="currentColor"/><path d="M6.63,22L6.63,21.1C6.63,20,7.63,19.3,9.3,19.3L14.73,19.3C16.4,19.3,17.43,20,17.43,21.1L17.43,22Z" fill="currentColor"/></svg>