<svg xmlns="http://www.w3.org/2000/svg" viewBox="0 0 24 24"><path d="M19.17,22L4.84,22C4.84,17,9.81,17.8,10.17,12.87L10.24,12L8.27,12C8,11.53,7.9,11,7.9,10.5L10.23,9.13C9.03,8.36,8.53,7.26,8.53,6.16C8.53,4.23,10.13,2.69,12.03,2.69C13.9,2.69,15.46,4.22,15.46,6.16C15.46,7.33,15.06,8.26,13.76,9.09L16.09,10.49C16.09,10.99,15.99,11.52,15.72,11.99L13.75,11.99L13.82,12.86C14.19,17.79,19.15,16.99,19.15,21.99Z" fill="currentColor"/><path d="M4.3,10.1C4.13,10.67,3.93,10.67,3.77,10.1L3.47,9.03C3.3,8.46,2.87,8.03,2.3,7.86L1.23,7.56C0.66,7.39,0.66,7.19,1.23,7.03L2.3,6.73C2.87,6.56,3.3,6.13,3.47,5.56L3.77,4.56C3.94,3.99,4.14,3.99,4.3,4.56L4.6,5.56C4.77,6.13,5.2,6.56,5.77,6.73L6.77,7.03C7.34,7.2,7.34,7.4,6.77,7.56L5.77,7.86C5.2,8.03,4.77,8.46,4.6,9.03Z" fill="currentColor"/><path d="M20.3,6.77C20.13,7.34,19.93,7.34,19.77,6.77L19.47,5.7C19.3,5.13,18.87,4.7,18.3,4.53L17.23,4.23C16.66,4.06,16.66,3.86,17.23,3.7L18.3,3.4C18.87,3.23,19.3,2.8,19.47,2.23L19.77,1.23C19.94,0.66,20.14,0.66,20.3,1.23L20.6,2.23C20.77,2.8,21.2,3.23,21.77,3.4L22.77,3.7C23.34,3.87,23.34,4.07,22.77,4.23L21.77,4.53C21.2,4.7,20.77,5.13,20.6,5.7Z" fill="currentColor"/></svg>