<svg xmlns="http://www.w3.org/2000/svg" viewBox="0 0 24 24" fill="currentColor"><path d="M4.43,6.6C4.43,7.8,5.5,8.57,7.23,8.61C6.4,9.81,5.75,11.1,5.75,12.88C5.75,16.11,8.43,18.6,8.43,18.6C8.25,19.38,8.25,19.52,8.25,19.73C8.25,20.78,9.02,21.6,10,21.6C10.98,21.6,11.75,20.78,11.75,19.73C11.75,19.43,11.73,18.85,11.27,18.32C10,16.85,9.05,14.8,8.9,12.35L10.57,12.35C10.67,14.37,11.32,16.07,12.39,17.39C12.71,17.17,13.07,16.71,13.4,16.12C11.97,16.08,11.49,15.57,11.49,14.1L11.49,10.14C11.49,8.08,11.67,7.22,13.66,5.59L4.42,5.59ZM22,10.13L22,14.61C19.9,14.61,19.28,14.9,17.5,16.63C15.77,14.9,15.12,14.61,13,14.61L13,10.13C13,7.58,13.28,7.23,17.5,4.5C21.72,7.18,22,7.53,22,10.13Z"/></svg>