<svg xmlns="http://www.w3.org/2000/svg" viewBox="0 0 24 24" fill="currentColor"><path d="M4.25,20.5C4.25,16.5,8.25,17.13,8.47,13.15L8.49,12.47L6.97,12.47C6.77,12.12,6.69,11.7,6.69,11.33L8.49,10.15C7.62,9.53,7.24,8.67,7.24,7.75C7.24,6.25,8.46,5,9.99,5C11.52,5,12.75,6.25,12.75,7.75C12.75,7.82,12.75,7.88,12.74,7.94C12.43,8.34,12.24,8.85,12.22,9.45C12.04,9.69,11.8,9.91,11.49,10.13L12.25,10.64C12.3,11.39,12.4,11.98,12.56,12.48L11.49,12.48L11.52,13.16C11.59,14.54,12.13,15.37,12.8,16.03C12.32,17.03,12.22,18.29,12.21,20.51ZM14.83,20.5C14.06,20.5,13.76,20.2,13.76,19.43C13.78,16.5,14.04,16.33,16.33,14.5C14.03,12.68,13.78,12.53,13.76,9.6C13.76,8.83,14.06,8.53,14.83,8.53L20.93,8.53C21.7,8.53,22,8.83,22,9.6C21.98,12.53,21.72,12.68,19.43,14.5C21.73,16.32,21.98,16.5,22,19.43C22,20.2,21.7,20.5,20.93,20.5ZM15.23,19L20.53,19C20.53,16.45,18.13,17.45,18.13,15.75L18.13,14.53C18.13,14.08,18.3,13.63,18.58,13.31L20.4,11.23C20.8,10.76,20.43,10.68,17.8,10.68C15.33,10.68,14.97,10.76,15.35,11.21L17.17,13.31C17.45,13.63,17.62,14.08,17.62,14.53L17.62,15.75C17.62,17.46,15.22,16.53,15.22,19Z"/></svg>