<svg xmlns="http://www.w3.org/2000/svg" viewBox="0 0 24 24"><path d="M4,22L4,20.67C4,19.1,5.07,18.2,7.13,18.04L3.5,7.01C2.63,6.88,2,6.14,2,5.28C2,4.38,2.73,3.58,3.67,3.58C4.54,3.58,5.3,4.35,5.3,5.31C5.3,5.71,5.2,6.04,4.93,6.34L7.96,10.27L8.33,4.17C7.5,3.8,7.13,3.27,7.13,2.47C7.13,1.47,7.9,0.67,8.9,0.67C9.9,0.67,10.63,1.47,10.63,2.47C10.63,3.07,10.43,3.57,9.96,3.94L11.99,10.01L13.99,3.94C13.52,3.57,13.29,3.07,13.29,2.47C13.29,1.54,14.06,0.67,15.06,0.67C16.06,0.67,16.83,1.47,16.83,2.47C16.83,3.27,16.46,3.8,15.63,4.17L16.03,10.27L19.03,6.34C18.76,6.04,18.63,5.71,18.63,5.31C18.63,4.41,19.4,3.58,20.3,3.58C21.33,3.58,22,4.51,22,5.28C22,6.05,21.37,6.88,20.47,7.01L16.87,18.04C18.94,18.24,20,19.11,20,20.67L20,22Z" fill="currentColor"/></svg>