<svg xmlns="http://www.w3.org/2000/svg" viewBox="0 0 24 24"><path d="M15.57,12.33L16.8,5.33L21.2,5.33L22.47,12.33Z" fill="currentColor"/><path d="M14.2,13.2C14.2,11.83,15,11.13,19,11.13C22.97,11.13,23.8,11.83,23.8,13.2L23.8,14L14.2,14Z" fill="currentColor"/><path d="M21.37,6.53L16.64,6.53C15.94,6.03,15.64,5.46,15.61,4.9L15.48,2.57C15.95,2.37,16.31,2.27,16.75,2.27L17.05,3.6L18.05,3.6L18.25,2.07C18.25,2.07,18.65,2,19.02,2C19.39,2,19.79,2.07,19.79,2.07L19.96,3.6L20.99,3.6L21.29,2.27C21.72,2.27,22.09,2.37,22.56,2.57L22.43,4.9C22.4,5.47,22.1,6.03,21.4,6.53Z" fill="currentColor"/><path d="M1.57,12.33L2.8,5.33L7.2,5.33L8.47,12.33Z" fill="currentColor"/><path d="M0.2,13.2C0.2,11.83,1,11.13,5,11.13C8.97,11.13,9.8,11.83,9.8,13.2L9.8,14L0.2,14Z" fill="currentColor"/><path d="M7.37,6.53L2.64,6.53C1.94,6.03,1.64,5.46,1.61,4.9L1.48,2.57C1.95,2.37,2.31,2.27,2.75,2.27L3.05,3.6L4.05,3.6L4.25,2.07C4.25,2.07,4.65,2,5.02,2C5.39,2,5.79,2.07,5.79,2.07L5.96,3.6L6.99,3.6L7.29,2.27C7.72,2.27,8.09,2.37,8.56,2.57L8.43,4.9C8.4,5.47,8.1,6.03,7.4,6.53Z" fill="currentColor"/><path d="M9.36,24C8.76,24,8.59,23.7,8.86,23.17L11.56,17.97C11.83,17.44,12.16,17.44,12.43,17.97L15.13,23.17C15.4,23.7,15.23,24,14.63,24Z" fill="currentColor"/><path d="M0.94,18C0.34,18,0.01,17.67,0.01,17.07L0.01,16.94C0.01,16.34,0.34,16.01,0.94,16.01L23.07,16.01C23.67,16.01,24,16.34,24,16.94L24,17.07C24,17.67,23.67,18,23.07,18Z" fill="currentColor"/></svg>