<svg xmlns="http://www.w3.org/2000/svg" viewBox="0 0 24 24" fill="currentColor"><path d="M18.75,20.5L7.26,20.5C7.26,16.5,11.23,17.13,11.53,13.15L11.61,12.47L9.98,12.47C9.78,12.12,9.7,11.7,9.7,11.33L11.6,10.15C10.62,9.53,10.25,8.67,10.25,7.75C10.25,6.25,11.47,5,13,5C14.52,5,15.75,6.25,15.75,7.75C15.75,8.73,15.45,9.45,14.4,10.13L16.3,11.33C16.3,11.7,16.23,12.13,16.02,12.47L14.39,12.47L14.47,13.15C14.77,17.13,18.75,16.5,18.75,20.5ZM22,9.5L22,15C22,15.62,21.72,15.75,21.25,15.32L18.53,12.92C18.05,12.49,18.05,12,18.53,11.57L21.25,9.17C21.72,8.74,22,8.87,22,9.49ZM7.47,12.93L4.75,15.33C4.28,15.75,4,15.63,4,15L4,9.51C4,8.88,4.28,8.76,4.75,9.18L7.47,11.58C7.95,12.01,7.95,12.51,7.47,12.93Z"/></svg>