<svg xmlns="http://www.w3.org/2000/svg" viewBox="0 0 24 24" fill="currentColor"><path d="M13.1,13.98C13.14,13.92,13.2,13.86,13.26,13.8C13.46,14.05,13.69,14.28,13.95,14.52C12.47,15.94,12.23,17.09,12.23,20.5L4.75,20.5L4.75,19.5C4.75,18.42,5.63,17.68,7.13,17.53C6.86,16.62,6.26,15.96,5.78,15.28C4.85,14.01,4,13.11,4,11.7C4,9.63,5.35,8.28,7.17,8.28C8.32,8.28,9.1,8.63,9.52,8.9L10.02,7L8.24,7L8.24,5.5L9.99,5.5L9.99,4L11.49,4L11.49,5.5L13.24,5.5L13.24,7L11.51,7L11.94,8.9C12.05,8.82,12.19,8.75,12.35,8.67C12.26,8.95,12.22,9.26,12.22,9.58C12.23,10.29,12.26,10.88,12.33,11.39C12.2,11.47,12.12,11.52,12.12,11.52L12.12,13.98ZM9.38,11.52C9.38,11.52,8.53,10.92,7.88,10.92C7.2,10.92,6.78,11.3,6.78,11.87C6.78,12.68,7.9,13.4,8.4,13.97L9.38,13.97ZM14.83,20.5C14.06,20.5,13.76,20.2,13.76,19.43C13.78,16.5,14.04,16.33,16.33,14.5C14.03,12.68,13.78,12.53,13.76,9.6C13.76,8.83,14.06,8.53,14.83,8.53L20.93,8.53C21.7,8.53,22,8.83,22,9.6C21.98,12.53,21.72,12.68,19.43,14.5C21.73,16.32,21.98,16.5,22,19.43C22,20.2,21.7,20.5,20.93,20.5ZM15.23,19L20.53,19C20.53,16.45,18.13,17.45,18.13,15.75L18.13,14.53C18.13,14.08,18.3,13.63,18.58,13.31L20.4,11.23C20.8,10.76,20.43,10.68,17.8,10.68C15.33,10.68,14.97,10.76,15.35,11.21L17.17,13.31C17.45,13.63,17.62,14.08,17.62,14.53L17.62,15.75C17.62,17.46,15.22,16.53,15.22,19Z"/></svg>