<svg xmlns="http://www.w3.org/2000/svg" viewBox="0 0 24 24"><path d="M2,20.67C2,19.23,2.52,18.24,4.53,17.7L5.98,9.52C4.84,8.7,4.39,7.79,4.33,6.85L4.1,2.98C4.87,2.65,5.5,2.48,6.23,2.48L6.73,4.68L8.4,4.68L8.7,2.15C8.7,2.15,9.4,2.02,10,2.02C10.6,2.02,11.3,2.15,11.3,2.15L11.57,4.68L13.27,4.68L13.77,2.48C14.5,2.48,15.14,2.65,15.9,2.98L15.88,3.29L10.73,8.55C8.7,10.62,8,12.75,8,15.02C8,17.86,9.29,20.37,11.32,22.02L2,22.02Z" fill="currentColor"/><path d="M22.9,18.73C22.53,19.23,22.07,19.26,21.63,18.9L21.53,18.8C21.1,18.43,21.03,17.93,21.36,17.43C21.76,16.7,21.99,15.86,21.99,15C21.99,12.23,19.72,10,16.96,10L16.96,8C20.79,8,23.99,11.17,23.99,15C23.99,16.37,23.59,17.67,22.89,18.73Z" fill="currentColor"/><path d="M17.03,20L17.03,22C13.2,22,10,18.83,10,15C10,13.63,10.4,12.33,11.1,11.27C11.47,10.77,11.93,10.74,12.37,11.1L12.47,11.2C12.9,11.57,12.97,12.07,12.64,12.57C12.24,13.3,12.01,14.14,12.01,15C12.01,17.77,14.28,20,17.04,20Z" fill="currentColor"/><path d="M18,23.66C17.37,24.23,17,24.06,17,23.23L17,18.76C17,17.93,17.37,17.76,18,18.33L20.53,20.56C20.86,20.86,20.86,21.13,20.53,21.43Z" fill="currentColor"/><path d="M17,11.24C17,12.07,16.63,12.24,16,11.67L13.47,9.44C13.14,9.14,13.14,8.87,13.47,8.57L16,6.34C16.63,5.77,17,5.94,17,6.77Z" fill="currentColor"/><path d="M17,11.24C17,12.07,16.63,12.24,16,11.67L13.47,9.44C13.14,9.14,13.14,8.87,13.47,8.57L16,6.34C16.63,5.77,17,5.94,17,6.77Z" fill="currentColor"/></svg>