<svg xmlns="http://www.w3.org/2000/svg" viewBox="0 0 24 24" fill="currentColor"><path d="M7.5,17.5C6,17.5,5.5,17,5.5,15.5L5.5,7.49C5.5,5.99,6,5.49,7.5,5.49L18.5,5.49C20,5.49,20.51,5.99,20.51,7.49L20.51,15.5C20.51,17,20,17.5,18.5,17.5L17.99,17.5C17.72,16.87,17.33,16.35,16.88,16L19.01,16L19.01,7L7.01,7L7.01,16L9.14,16C8.68,16.35,8.29,16.87,8.02,17.5ZM13,20.5C9.1,20.5,9,19.8,9,19.75C9,18.77,9.3,17.75,10.11,17.18C11.16,16.38,11.91,15.7,11.91,13.75L10.71,13.75C10.56,13.47,10.48,13.23,10.48,12.93L11.91,12C11.4,11.65,11.08,11.08,11.08,10.43C11.08,9.38,11.93,8.5,13.01,8.5C14.08,8.5,14.94,9.38,14.94,10.43C14.94,11.08,14.61,11.65,14.11,12L15.54,12.93C15.54,13.23,15.46,13.47,15.31,13.75L14.11,13.75C14.11,15.7,14.86,16.38,15.91,17.18C16.71,17.75,17.01,18.77,17.01,19.75C17.01,19.8,16.91,20.5,13.01,20.5Z"/></svg>