<svg xmlns="http://www.w3.org/2000/svg" viewBox="0 0 24 24" fill="currentColor"><path d="M16.55,20.5L16.42,20.5L16.42,18.75C16.42,15.36,13.4,15.81,13.29,13.68L13.27,13.15L14.42,13.15C14.59,12.93,14.64,12.65,14.64,12.35L13.27,11.47C14.02,10.97,14.25,10.47,14.25,9.75C14.25,8.64,13.35,7.74,12.24,7.74C11.14,7.74,10.24,8.64,10.24,9.75C10.24,10.42,10.54,11.04,11.21,11.52L9.84,12.35C9.84,12.65,9.9,12.93,10.07,13.15L11.21,13.15L11.19,13.68C11.1,15.8,8.07,15.35,8.07,18.75L8.07,20.49C5.85,20.34,3.99,18.7,3.99,16.23C3.99,13.86,5.97,12.39,7.69,12.18C6.36,7.89,9.36,5.38,12.34,5.38C15.51,5.38,17.34,8.1,17.21,10.58C20.14,10.5,21.99,12.78,21.99,15.53C21.99,18.3,19.72,20.5,16.54,20.5ZM11.82,22L12.02,19.6L10.52,19.6L11.03,16.05L13.18,16.08L12.86,17.95L15.01,17.95Z"/></svg>