<svg xmlns="http://www.w3.org/2000/svg" viewBox="0 0 24 24" fill="currentColor"><path d="M4,19.5C4,18.42,4.39,17.68,5.9,17.28L6.98,11.14C6.13,10.53,5.79,9.84,5.75,9.14L5.57,6.24C6.15,5.99,6.63,5.86,7.17,5.86L7.55,7.51L8.8,7.51L9.03,5.61C9.03,5.61,9.55,5.52,10,5.52C10.45,5.52,10.98,5.61,10.98,5.61L11.18,7.51L12.45,7.51L12.83,5.86C13.38,5.86,13.86,5.99,14.43,6.24L14.38,7.04C13.09,7.22,12.23,8.21,12.23,9.59C12.25,12.11,12.65,13.19,13.56,14.15L13.68,14.8C12.45,16.1,12.24,17.31,12.24,20.5L4.01,20.5ZM14.83,20.5C14.06,20.5,13.76,20.2,13.76,19.43C13.78,16.5,14.04,16.33,16.33,14.5C14.03,12.68,13.78,12.53,13.76,9.6C13.76,8.83,14.06,8.53,14.83,8.53L20.93,8.53C21.7,8.53,22,8.83,22,9.6C21.98,12.53,21.72,12.68,19.43,14.5C21.73,16.32,21.98,16.5,22,19.43C22,20.2,21.7,20.5,20.93,20.5ZM15.23,19L20.53,19C20.53,16.45,18.13,17.45,18.13,15.75L18.13,14.53C18.13,14.08,18.3,13.63,18.58,13.31L20.4,11.23C20.8,10.76,20.43,10.68,17.8,10.68C15.33,10.68,14.97,10.76,15.35,11.21L17.17,13.31C17.45,13.63,17.62,14.08,17.62,14.53L17.62,15.75C17.62,17.46,15.22,16.53,15.22,19Z"/></svg>