<svg xmlns="http://www.w3.org/2000/svg" viewBox="0 0 24 24" fill="currentColor"><path d="M9.7,17.1L8.57,17.18C8.5,16.18,6.05,15.02,6.05,12.38C6.05,9.43,8.72,8,11.13,8.7L11.03,9.3L9.5,9.3L9.5,5.7L11.21,5.7L11.21,4L14.81,4L14.81,5.7L16.51,5.7L16.51,9.3L14.96,9.3L14.88,8.73C17.41,7.95,19.96,9.45,19.96,12.4C19.96,14.97,17.46,16.23,17.41,17.15L16.29,17.09C16.36,15.45,18.83,14.6,18.83,12.39C18.83,9.75,16.13,8.85,13.98,10.39L13.66,8.16L15.38,8.16L15.38,6.81L13.68,6.81L13.68,5.11L12.33,5.11L12.33,6.81L10.63,6.81L10.63,8.16L12.36,8.16L12,10.39C10.05,8.89,7.18,9.71,7.18,12.36C7.18,14.64,9.58,15.39,9.71,17.09ZM8.6,18.98L8.6,19.38L17.39,19.38L17.39,18.98C17.39,17.68,16.67,17.57,12.99,17.57C9.32,17.57,8.59,17.67,8.59,18.98ZM7.47,20.5L7.47,18.98C7.47,16.93,8.5,16.45,13,16.45C17.5,16.45,18.53,16.92,18.53,18.98L18.53,20.5ZM14.08,14.42L14.08,12.32C15.33,11.3,16.58,11.72,16.58,12.6C16.58,13.18,15.85,13.88,15.3,14.42ZM11.93,14.42L10.71,14.42C10.16,13.88,9.45,13.2,9.45,12.68C9.45,11.8,10.71,11.38,11.93,12.3Z"/></svg>