<svg xmlns="http://www.w3.org/2000/svg" viewBox="0 0 24 24" fill="currentColor"><path d="M16.7,20.5C16.69,19.59,16.31,18.82,15.67,18.42C13.97,17.35,13.89,16.2,13.89,15.82L13.89,15.35L14.94,15.35C15.07,15.15,15.14,14.88,15.14,14.62L13.89,13.85C14.49,13.47,14.77,12.93,14.77,12.33C14.77,11.35,13.97,10.55,12.99,10.55C12.02,10.55,11.21,11.35,11.21,12.33C11.21,12.93,11.49,13.47,12.09,13.88L10.87,14.63C10.89,14.91,10.94,15.18,11.04,15.36L12.09,15.36L12.09,15.83C12.09,16.2,12.02,17.35,10.31,18.43C9.67,18.83,9.29,19.59,9.29,20.51L5.06,20.51L5.06,19.55C5.06,18.38,5.89,17.66,7.14,17.66C7.14,14.63,10.89,14.08,9.84,11.75L9.44,12.21C9.07,12.63,8.37,13.33,7.59,13.33C6.56,13.35,6.54,14.08,6.07,14.53C5.94,14.61,4.72,14.33,4.27,13.95C3.95,13.65,3.89,13.15,4.22,12.77L5.39,11.13C5.94,10.35,5.94,9.93,6.27,9.15C6.32,8.93,6.44,8.63,6.82,8.33C7.22,7.98,7.47,7.75,7.62,7.38L7.75,6.65C7.8,6.45,8,6.25,8.18,6.25L9.5,7.55C11.18,7.65,12.89,8.49,14,10.26C14.59,9.52,15.15,9.09,15.15,9.09C15,8.37,15,8.21,15,8.02C15,7.02,15.73,6.24,16.65,6.24C17.57,6.24,18.32,7.02,18.32,8.02C18.32,8.32,18.27,8.82,17.87,9.35L17.45,9.93C16.57,11.15,16.22,12.05,16.04,13.55L16.07,13.38L17.19,13.38L17.19,13.32C17.32,12.27,17.57,11.65,18.19,10.79L18.92,9.77C19.67,10.54,20.69,11.99,20.69,13.82C20.69,15.74,19.62,17.17,19.17,17.64C20.92,17.64,22,18.37,22,19.54L22,20.49Z"/></svg>