<svg xmlns="http://www.w3.org/2000/svg" viewBox="0 0 24 24" fill="currentColor"><path d="M4.25,20.5C4.25,16.73,7.64,18.17,8.02,13.5L6.62,13.5C6.44,13.2,6.37,12.85,6.37,12.51L8.02,11.51C7.2,10.96,6.84,10.21,6.84,9.41C6.84,8.08,7.91,7.01,9.24,7.01C10.57,7.01,11.64,8.08,11.64,9.41C11.64,10.25,11.36,10.89,10.46,11.48L12.11,12.51C12.11,12.87,12.04,13.21,11.87,13.51L10.46,13.51C10.6,15.2,11.13,16.1,11.76,16.72C10.95,17.41,10.24,18.33,10.24,20.51ZM21.75,20.5L11.76,20.5C11.76,16.73,15.15,18.17,15.53,13.5L14.13,13.5C13.95,13.2,13.88,12.85,13.88,12.51L15.53,11.51C14.7,10.96,14.35,10.21,14.35,9.41C14.35,8.08,15.42,7.01,16.75,7.01C18.08,7.01,19.15,8.08,19.15,9.41C19.15,10.25,18.87,10.89,17.97,11.48L19.62,12.51C19.62,12.87,19.55,13.21,19.38,13.51L17.97,13.51C18.35,18.18,21.75,16.73,21.75,20.51Z"/></svg>