<svg xmlns="http://www.w3.org/2000/svg" viewBox="0 0 24 24" fill="currentColor"><path d="M4,20.5L4,18.83C4,17.48,4.65,16.75,6.25,16.41C4.1,12.98,4.77,9.53,7.6,6.96C7.55,6.75,7.53,6.53,7.53,6.3C7.53,5.03,8.48,4,9.75,4C11.03,4,11.98,5.03,11.98,6.3C11.98,6.53,11.96,6.75,11.91,6.96C11.91,6.96,11.91,6.96,11.91,6.96C11.73,7.31,11.56,7.67,11.4,8.04C11.39,8.04,11.39,8.04,11.38,8.03C10.46,9.58,10.26,11.27,10.13,13L9,13C9.13,11.2,9.38,9.08,10.53,7.28C10.75,6.9,10.85,6.63,10.85,6.3C10.85,5.65,10.4,5.13,9.75,5.13C9.09,5.13,8.64,5.65,8.64,6.3C8.64,6.63,8.74,6.9,8.96,7.28C5.87,9.68,5.16,12.93,7.47,16.2C8.09,16.15,8.87,16.13,9.74,16.13C10.13,16.13,10.5,16.14,10.84,16.14C10.89,16.25,10.92,16.34,10.97,16.45C10.5,16.66,10.1,16.94,9.78,17.25C9.77,17.25,9.75,17.25,9.73,17.25C6.45,17.25,5.1,17.48,5.1,18.83L5.1,19.38L8.85,19.38C8.85,19.42,8.85,19.46,8.85,19.5L8.85,20.5ZM10.38,20.5L10.38,19.5C10.38,18.3,11.45,17.53,13.23,17.5C12.4,16.05,11.75,14.75,11.75,12.98C11.75,9.75,14.42,7.5,14.42,7.5C14.25,6.73,14.25,6.58,14.25,6.38C14.25,5.33,15.02,4.5,16,4.5C16.98,4.5,17.75,5.33,17.75,6.38C17.75,6.68,17.7,7.2,17.27,7.78C16.05,9.43,15.27,11.06,15.15,13.01L16.33,13.01C16.43,11.38,17.18,9.86,18.41,8.21C19.18,9.03,20.26,10.81,20.26,12.98C20.26,14.84,19.66,16.13,18.83,17.51C20.58,17.56,21.63,18.33,21.63,19.51L21.63,20.51Z"/></svg>