<svg xmlns="http://www.w3.org/2000/svg" viewBox="0 0 24 24" fill="currentColor"><path d="M4.43,20.5L4.43,19.5C4.43,18.3,5.5,17.53,7.23,17.5C6.4,16.3,5.75,15,5.75,13.23C5.75,10,8.43,7.5,8.43,7.5C8.25,6.73,8.25,6.58,8.25,6.38C8.25,5.33,9.02,4.5,10,4.5C10.98,4.5,11.75,5.33,11.75,6.38C11.75,6.68,11.73,7.26,11.27,7.78C10,9.26,9.05,11.31,8.9,13.76L10.57,13.76C10.67,11.73,11.32,10.03,12.39,8.71C12.83,9.02,13.35,9.76,13.73,10.71C11.51,11.8,9.99,14.09,9.99,16.76C9.99,18.15,10.41,19.44,11.12,20.51ZM16.75,13C14.64,13,13,14.63,13,16.75C13,18.85,14.65,20.5,16.75,20.5C18.87,20.5,20.5,18.86,20.5,16.75C20.5,14.62,18.88,13,16.75,13ZM16.75,11.5C19.65,11.5,22,13.85,22,16.75C22,19.62,19.65,22,16.75,22C13.88,22,11.5,19.62,11.5,16.75C11.5,13.85,13.88,11.5,16.75,11.5ZM13.17,19.27L19.27,13.17L20.33,14.23L14.23,20.33Z"/></svg>