<svg xmlns="http://www.w3.org/2000/svg" viewBox="0 0 24 24"><path d="M0.33,22C0.33,19.33,1.86,18.03,3.36,16.77C4.79,15.57,6.13,14.47,6.13,12.24L6.13,11.31L3.96,11.31C3.69,10.84,3.59,10.31,3.59,9.78L6.12,8.25C4.89,7.38,4.32,6.25,4.32,5.02C4.32,2.99,5.95,1.35,7.99,1.35C10.02,1.35,11.66,2.98,11.66,5.02C11.66,6.25,11.09,7.39,9.86,8.22L11.98,9.53C9.57,11.14,8,13.88,8,17.02C8,18.88,8.55,20.59,9.5,22.02Z" fill="currentColor"/><path d="M10.03,17C10.03,13.17,13.2,10.03,17,10.03C20.83,10.03,23.97,13.16,23.97,17C23.97,20.8,20.84,23.97,17,23.97C13.2,23.97,10.03,20.8,10.03,17Z" fill="currentColor"/><path d="M22.1,17.6C22.57,17.2,22.57,16.8,22.1,16.4L19.03,13.87C18.4,13.34,18,13.5,18,14.34L18,19.67C18,20.5,18.4,20.67,19.03,20.14Z" fill="currentColor"/><path d="M16,14.33C16,13.5,15.6,13.33,14.97,13.86L11.9,16.39C11.43,16.79,11.43,17.19,11.9,17.59L14.97,20.12C15.6,20.65,16,20.49,16,19.65Z" fill="currentColor"/></svg>