<svg xmlns="http://www.w3.org/2000/svg" viewBox="0 0 24 24" fill="currentColor"><path d="M20.4,12C22.25,12.15,22.25,12.36,20.4,12.53L19.45,12.61C19.5,12.38,19.53,12.16,19.55,11.93ZM19.55,8.35C21.37,8.52,21.37,8.73,19.55,8.9L18.79,8.97C18.62,8.7,18.42,8.45,18.2,8.22ZM18.55,15.55C20.37,15.75,20.37,16,18.55,16.2L16.91,16.38C17.05,16.25,17.2,16.11,17.37,15.94C17.52,15.79,17.66,15.64,17.81,15.48ZM7.22,16.5C6.85,15.83,6.3,15.4,5.78,14.88C4.9,14,4,13.1,4,11.7C4,9.73,5.35,8.27,7.32,8.27C8.52,8.27,9.32,8.63,10.02,9.15L10.25,7L8.3,7L8.3,5.5L10.27,5.5L10.27,4L11.75,4L11.75,5.5L13.77,5.5L13.77,7L11.75,7L12.05,9.15C12.75,8.63,13.55,8.27,14.75,8.27C16.65,8.27,18.05,9.63,18.05,11.7C18.05,13.11,17.17,14,16.3,14.88C15.78,15.4,15.23,15.83,14.85,16.5ZM17.03,20.5L5.03,20.5L5.03,19.5C5.03,18.28,6.15,17.5,8.03,17.5L14.05,17.5C15.9,17.5,17.03,18.27,17.03,19.5ZM9.65,11.52C9.65,11.52,8.8,10.92,8.15,10.92C7.47,10.92,7.04,11.3,7.04,11.87C7.04,12.68,8.17,13.4,8.67,13.97L9.65,13.97ZM13.38,13.98C13.88,13.4,15,12.68,15,11.88C15,11.3,14.58,10.92,13.9,10.92C13.25,10.92,12.4,11.52,12.4,11.52L12.4,13.98Z"/></svg>