<svg xmlns="http://www.w3.org/2000/svg" viewBox="0 0 24 24"><path d="M19.67,11.4C19.67,11.4,19.67,11.4,19.67,11.4C19.67,11.4,19.67,11.4,19.67,11.4C19.67,11.4,19.67,11.4,19.67,11.4C19.67,11.4,19.67,11.4,19.67,11.4Z" fill="currentColor"/><path d="M41.67,1.4C41.67,1.4,41.67,1.4,41.67,1.4C41.67,1.4,41.67,1.4,41.67,1.4C41.67,1.4,41.67,1.4,41.67,1.4C41.67,1.4,41.67,1.4,41.67,1.4Z" fill="currentColor"/><path d="M64,12C64,12,64,12,64,12C64,12,64,12,64,12C64,12,64,12,64,12C64,12,64,12,64,12Z" fill="currentColor"/><path d="M140,32C140,32,140,32,140,32C140,32,140,32,140,32C140,32,140,32,140,32C140,32,140,32,140,32Z" fill="currentColor"/><path d="M6.43,18L6.43,17C6.43,15.8,7.5,15.03,9.23,15C8.4,13.8,7.76,12.5,7.76,10.73C7.76,7.5,10.43,5,10.43,5C10.26,4.23,10.26,4.07,10.26,3.87C10.26,2.84,11.03,2,11.99,2C12.96,2,13.76,2.83,13.76,3.87C13.76,4.17,13.73,4.74,13.26,5.27C11.99,6.74,11.06,8.8,10.89,11.24L12.56,11.24C12.66,9.24,13.33,7.54,14.39,6.21C15.16,6.74,16.26,8.68,16.26,10.74C16.26,12.57,15.66,13.87,14.83,15.01C16.53,15.04,17.56,15.84,17.56,17.01L17.56,18.01Z" fill="currentColor"/><path d="M1,21C1,19.9,1.9,19,3,19C4.1,19,5,19.9,5,21C5,22.1,4.1,23,3,23C1.9,23,1,22.1,1,21Z" fill="currentColor"/><path d="M2.97,22L2.97,20L20.97,20L20.97,22Z" fill="currentColor"/><path d="M19,20.97C19,19.9,19.9,19,20.97,19C22.1,19,23,19.9,23,20.97C23,22.1,22.1,23,20.97,23C19.9,23,19,22.1,19,20.97Z" fill="currentColor"/></svg>