<svg xmlns="http://www.w3.org/2000/svg" viewBox="0 0 24 24" fill="currentColor"><path d="M4,19.5C4,18.42,4.39,17.68,5.9,17.28L6.98,11.14C6.13,10.53,5.79,9.84,5.75,9.14L5.57,6.24C6.15,5.99,6.63,5.86,7.17,5.86L7.55,7.51L8.8,7.51L9.03,5.61C9.03,5.61,9.55,5.52,10,5.52C10.45,5.52,10.98,5.61,10.98,5.61L11.18,7.51L12.45,7.51L12.83,5.86C13.38,5.86,13.86,5.99,14.43,6.24L14.4,6.63C12.17,7.62,11.38,9.66,12.62,12.06C11.91,12.57,11.5,13.41,11.5,14.52L11.5,20.52L4,20.52ZM19.6,11.5L15.5,11.5C14.47,11.5,13.45,11.03,13.45,9.8C13.45,8.77,14.2,8.13,15.18,8.13C16.45,8.13,17.35,9.25,17.8,10.92L17.25,10.92C17.7,9.22,18.63,8.13,19.86,8.13C20.85,8.13,21.56,8.82,21.56,9.8C21.56,11.02,20.53,11.5,19.61,11.5ZM14.07,20.5C13.3,20.5,13,20.2,13,19.43L13,17.5L16.75,17.5L16.75,20.5ZM13,14.07C13,13.3,13.3,13,14.07,13L16.75,13L16.75,16L13,16ZM18.25,20.5L18.25,17.5L22,17.5L22,19.43C22,20.2,21.7,20.5,20.93,20.5ZM18.25,16L18.25,13L20.93,13C21.7,13,22,13.3,22,14.07L22,16ZM16.8,10.92C16.41,9.57,15.9,9.1,15.25,9.1C14.82,9.1,14.42,9.33,14.42,9.8C14.42,10.45,15.12,10.53,15.5,10.53L19.6,10.53C19.88,10.53,20.57,10.45,20.57,9.8C20.57,9.32,20.18,9.1,19.77,9.1C19.2,9.1,18.62,9.57,18.25,10.92Z"/></svg>