<svg xmlns="http://www.w3.org/2000/svg" viewBox="0 0 24 24" fill="currentColor"><path d="M18.98,19C19,15.92,17.63,15.54,16.67,15.09C16.66,14.63,16.62,14.18,16.56,13.75C16.84,13.96,17.16,14.13,17.51,14.13C18.38,14.13,18.41,14.73,18.8,15.1C18.9,15.2,19.88,14.95,20.25,14.6C20.53,14.37,20.53,13.98,20.3,13.64L19.35,12.24C18.9,11.59,18.9,11.21,18.63,10.54C18.55,10.39,18.45,10.11,18.15,9.86C17.83,9.56,17.55,9.36,17.48,9.04L17.35,8.44C17.33,8.27,17.1,7.94,16.77,8.29L15.9,9.24C15.49,9.26,15.12,9.33,14.77,9.44C14.45,9.03,14.1,8.66,13.73,8.33C14.19,8.07,14.69,7.91,15.2,7.82L15.85,7.19C17.03,6.07,18.35,6.72,18.7,7.97L18.85,8.49C18.85,8.49,18.87,8.54,19.1,8.72C19.57,9.14,19.85,9.64,20,10.04C20.43,11.15,20.3,11.04,20.52,11.37L21.5,12.8C21.78,13.19,21.95,13.67,21.95,14.15C21.95,14.75,21.7,15.32,21.22,15.74C20.91,16.01,20.43,16.25,19.98,16.41C20.28,17.03,20.44,17.97,20.47,19.42C20.47,20.19,20.17,20.49,19.4,20.49L16.68,20.49L16.68,18.99ZM14.07,20.5L6.89,20.5C6.12,20.5,5.84,20.2,5.9,19.43C6.27,16.41,8.27,16.43,9.35,15.5C10.47,14.55,11,13.73,10.12,12.56C9.27,13.48,8.75,14.18,7.85,14.21C6.77,14.23,6.74,14.98,6.25,15.46C6.12,15.56,4.82,15.26,4.35,14.86C4.03,14.56,4,14.06,4.3,13.64L5.55,11.89C6.13,11.09,6.02,10.64,6.35,9.81C6.43,9.61,6.56,9.27,6.95,8.94C7.35,8.58,7.7,8.36,7.78,7.94L7.93,7.19C7.98,6.96,8.23,6.59,8.66,7.02L9.76,8.14C12.46,8.31,15.16,11.04,15.16,15.39L15.16,19.44C15.16,20.22,14.86,20.52,14.09,20.52Z"/></svg>