<svg xmlns="http://www.w3.org/2000/svg" viewBox="0 0 24 24" fill="currentColor"><path d="M20.4,12C22.25,12.15,22.25,12.36,20.4,12.53L17.87,12.75C17.88,12.65,17.88,12.56,17.88,12.48C17.88,12.23,17.87,12,17.85,11.78ZM19.55,8.35C21.37,8.52,21.37,8.73,19.55,8.9L17.28,9.12C17.14,8.75,16.98,8.4,16.79,8.08ZM18.55,15.55C20.37,15.75,20.37,16,18.55,16.2L17.09,16.35C17.18,16.04,17.26,15.74,17.34,15.43ZM7.05,13.2C6.93,13.3,5.63,13,5.16,12.6C4.83,12.3,4.8,11.8,5.1,11.38L6.36,9.63C6.93,8.83,6.93,8.38,7.25,7.55C7.33,7.33,7.46,7.01,7.86,6.68C8.25,6.33,8.53,6.08,8.68,5.68L8.83,4.93C8.88,4.71,9.08,4.5,9.28,4.5L10.65,5.88C13.35,6.05,16.38,8.03,16.38,12.48C16.38,13.68,15.63,15.85,15.48,16.5L7.92,16.5C8.07,15,9.48,13.88,10.25,13.26C10.85,12.75,11.47,12.11,11.47,11.43C11.47,10.91,11.15,10.48,11.02,10.31L10.59,10.78C10.2,11.21,9.47,11.96,8.64,11.96C7.57,11.98,7.54,12.73,7.05,13.21ZM5.5,19.5C5.5,18.28,6.63,17.5,8.48,17.5L14.5,17.5C16.38,17.5,17.5,18.27,17.5,19.5L17.5,20.5L5.5,20.5Z"/></svg>