<svg xmlns="http://www.w3.org/2000/svg" viewBox="0 0 24 24" fill="currentColor"><path d="M8.55,13.2C8.43,13.3,7.13,13,6.66,12.6C6.33,12.3,6.3,11.8,6.6,11.38L7.86,9.63C8.43,8.83,8.43,8.38,8.75,7.55C8.83,7.33,8.96,7.01,9.36,6.68C9.75,6.33,10.03,6.08,10.18,5.68L10.33,4.93C10.38,4.71,10.58,4.5,10.78,4.5L12.15,5.88C14.85,6.05,17.88,8.03,17.88,12.48C17.88,13.68,17.13,15.85,16.98,16.5L9.42,16.5C9.57,15,10.98,13.88,11.75,13.26C12.35,12.75,12.97,12.11,12.97,11.43C12.97,10.91,12.65,10.48,12.52,10.31L12.09,10.78C11.7,11.21,10.97,11.96,10.14,11.96C9.07,11.98,9.04,12.73,8.55,13.21ZM7,20.5L7,19.5C7,18.28,8.13,17.5,9.98,17.5L16,17.5C17.88,17.5,19,18.27,19,19.5L19,20.5Z"/></svg>