<svg xmlns="http://www.w3.org/2000/svg" viewBox="0 0 24 24"><path d="M21.83,10.67C24.3,10.87,24.3,11.14,21.83,11.37L14.5,12.02L14.15,9.99Z" fill="currentColor"/><path d="M20.7,5.8C23.13,6.03,23.13,6.3,20.7,6.53L15.66,7.01C15.66,6.99,15.66,6.98,15.66,6.96L15.76,5.32Z" fill="currentColor"/><path d="M19.37,15.4C21.8,15.67,21.8,16,19.37,16.27L15.95,16.63C15.73,16.48,15.5,16.35,15.24,16.23L15.02,14.95Z" fill="currentColor"/><path d="M13.33,16.67L2.66,16.67L3.86,9.34L12.13,9.34Z" fill="currentColor"/><path d="M16,22L0,22L0,20.67C0,18.9,1.37,18,4,18L12.03,18C14.66,18,16,18.9,16,20.67Z" fill="currentColor"/><path d="M11.93,8L4.06,8C2.86,7.6,2.39,6.77,2.33,5.9L2.1,2.97C2.7,2.64,3.37,2.47,4.1,2.47L4.63,4.67L6.36,4.67L6.66,2.14C6.66,2.14,7.36,2.01,7.99,2.01C8.62,2.01,9.32,2.14,9.32,2.14L9.65,4.67L11.35,4.67L11.88,2.47C12.61,2.47,13.28,2.64,13.88,2.97L13.65,5.9C13.58,6.77,13.12,7.6,11.92,8Z" fill="currentColor"/></svg>