<svg xmlns="http://www.w3.org/2000/svg" viewBox="0 0 24 24" fill="currentColor"><path d="M9.81,11.63C9.87,12.09,9.96,12.51,10.11,12.93L5.63,12.53C3.78,12.36,3.78,12.15,5.63,12ZM6.47,8.35L10.25,7.99C10.25,8.39,10.33,8.85,10.5,9.29L6.47,8.91C4.65,8.73,4.65,8.53,6.47,8.36ZM10.38,15.25C10.01,15.62,9.59,15.98,9.18,16.38L7.47,16.2C5.65,16,5.65,15.75,7.47,15.55ZM20.15,20.5L8.82,20.5C8.82,16.55,12.75,17.18,13.05,13.28L13.1,12.6L11.52,12.6C11.32,12.23,11.25,11.8,11.25,11.4L13.1,10.33C12.15,9.73,11.75,8.85,11.75,7.98C11.75,6.46,13,5.26,14.5,5.26C15.98,5.26,17.22,6.46,17.22,7.98C17.22,8.9,16.9,9.65,15.87,10.31L17.72,11.41C17.72,11.81,17.65,12.23,17.45,12.61L15.87,12.61L15.92,13.29C16.22,17.18,20.15,16.56,20.15,20.51Z"/></svg>