<svg xmlns="http://www.w3.org/2000/svg" viewBox="0 0 24 24" fill="currentColor"><path d="M7.52,9.25C6.17,9.25,5.05,8.63,5.05,7.23C5.05,6.08,5.85,5.37,6.92,5.37C8.07,5.37,8.79,6.12,9.27,7.56C9.76,6.12,10.46,5.37,11.6,5.37C12.7,5.37,13.47,6.1,13.47,7.23C13.47,8.6,12.32,9.25,11.05,9.25ZM6,20.5C4.5,20.5,4,20,4,18.5L4,16L8.5,16L8.5,20.5ZM4,12.75C4,11.25,4.5,10.75,6,10.75L8.5,10.75L8.5,14.5L4,14.5ZM10,14.5L10,10.75L12.5,10.75C13.02,10.75,13.42,10.81,13.72,10.95C13.11,12,12.64,13.23,12.6,14.5ZM11.5,19.7L11.5,20.5L10,20.5L10,16L12.74,16C12.82,16.4,12.93,16.77,13.07,17.13C12.02,17.72,11.5,18.7,11.5,19.71ZM8.37,8.15C7.98,6.93,7.65,6.48,7.02,6.48C6.55,6.48,6.1,6.68,6.1,7.23C6.1,7.98,6.85,8.15,7.52,8.15ZM11.05,8.15C11.65,8.15,12.4,7.97,12.4,7.22C12.4,6.68,11.95,6.47,11.52,6.47C10.94,6.47,10.55,6.94,10.2,8.15ZM13.05,19.7C13.05,18.75,13.9,18.12,15.28,18.1C14.63,17.15,14.1,16.1,14.1,14.67C14.1,12.1,16.25,10.1,16.25,10.1C16.11,9.48,16.11,9.35,16.11,9.2C16.11,8.35,16.73,7.7,17.51,7.7C18.28,7.7,18.91,8.35,18.91,9.2C18.91,9.45,18.89,9.9,18.54,10.32C17.51,11.5,16.76,13.15,16.64,15.1L17.96,15.1C18.06,13.47,18.57,12.12,19.44,11.05C20.06,11.5,20.92,13.05,20.92,14.67C20.92,16.15,20.45,17.2,19.77,18.1C21.14,18.15,21.97,18.75,21.97,19.7L21.97,20.5L13.07,20.5Z"/></svg>