<svg xmlns="http://www.w3.org/2000/svg" viewBox="0 0 24 24" fill="currentColor"><path d="M18.9,20.48L7.11,20.48C6.88,18.58,7.46,17,8.98,16.05C10.28,15.23,10.86,14.65,10.93,13.2L9.73,13.2C9.11,12.5,9,11.61,9.11,10.97L10.53,10.15C10.06,9.53,9.84,8.82,9.84,8.07C9.84,6.27,11.24,5,13.01,5C14.79,5,16.18,6.27,16.18,8.07C16.18,8.82,15.96,9.52,15.48,10.15L16.91,10.97C17,11.6,16.91,12.5,16.29,13.2L15.09,13.2C15.16,14.65,15.74,15.23,17.04,16.05C18.56,17,19.14,18.58,18.91,20.48ZM7.8,19.73L18.2,19.73C18.2,18.4,17.7,17.35,16.63,16.67C14.98,15.63,14.23,14.8,14.33,12.45L15.9,12.45C16.1,12.13,16.18,11.78,16.18,11.42L14.25,10.3C15.08,9.7,15.43,8.93,15.43,8.07C15.43,6.7,14.38,5.75,13.01,5.75C11.63,5.75,10.58,6.7,10.58,8.07C10.58,8.92,10.94,9.7,11.76,10.3L9.83,11.42C9.83,11.78,9.91,12.12,10.11,12.45L11.69,12.45C11.78,14.8,11.03,15.63,9.38,16.67C8.31,17.35,7.81,18.4,7.81,19.73Z"/></svg>