<svg xmlns="http://www.w3.org/2000/svg" viewBox="0 0 24 24" fill="currentColor"><path d="M18.75,12.55C18.75,12.55,18.75,12.55,18.75,12.55C18.75,12.55,18.75,12.55,18.75,12.55C18.75,12.55,18.75,12.55,18.75,12.55C18.75,12.55,18.75,12.55,18.75,12.55ZM35.25,5.05C35.25,5.05,35.25,5.05,35.25,5.05C35.25,5.05,35.25,5.05,35.25,5.05C35.25,5.05,35.25,5.05,35.25,5.05C35.25,5.05,35.25,5.05,35.25,5.05ZM52,13C52,13,52,13,52,13C52,13,52,13,52,13C52,13,52,13,52,13C52,13,52,13,52,13ZM109,28C109,28,109,28,109,28C109,28,109,28,109,28C109,28,109,28,109,28C109,28,109,28,109,28ZM8.82,17.5L8.82,16.75C8.82,15.85,9.63,15.27,10.92,15.25C10.3,14.35,9.82,13.38,9.82,12.05C9.82,9.63,11.82,7.75,11.82,7.75C11.7,7.17,11.7,7.05,11.7,6.9C11.7,6.13,12.27,5.5,12.99,5.5C13.72,5.5,14.32,6.12,14.32,6.9C14.32,7.13,14.3,7.55,13.95,7.95C12.99,9.05,12.3,10.6,12.17,12.43L13.42,12.43C13.5,10.93,14,9.65,14.79,8.66C15.37,9.05,16.2,10.51,16.2,12.05C16.2,13.43,15.75,14.4,15.12,15.26C16.4,15.28,17.17,15.88,17.17,16.76L17.17,17.51ZM4.75,19.75C4.75,18.92,5.43,18.25,6.25,18.25C7.07,18.25,7.75,18.92,7.75,19.75C7.75,20.58,7.07,21.25,6.25,21.25C5.43,21.25,4.75,20.58,4.75,19.75ZM6.23,20.5L6.23,19L19.73,19L19.73,20.5ZM18.25,19.73C18.25,18.92,18.92,18.25,19.73,18.25C20.57,18.25,21.25,18.92,21.25,19.73C21.25,20.57,20.58,21.25,19.73,21.25C18.92,21.25,18.25,20.58,18.25,19.73Z"/></svg>