<svg xmlns="http://www.w3.org/2000/svg" viewBox="0 0 24 24"><path d="M14.37,10.1C14.27,10.17,13.24,9.93,12.87,9.6C12.6,9.37,12.57,8.97,12.84,8.63L13.84,7.23C14.27,6.6,14.27,6.23,14.54,5.56C14.61,5.39,14.71,5.13,15.04,4.86C15.34,4.59,15.57,4.39,15.67,4.06L15.8,3.46C15.83,3.29,16,3.13,16.17,3.13L17.27,4.23C19.47,4.36,21.9,5.96,21.9,9.3C21.9,10.71,21.22,12.48,21.02,13.57C22.15,13.72,22.81,14.3,22.81,15.13L22.81,15.93L17.94,15.93L13.21,15.1C13.23,14.3,13.88,13.73,14.96,13.58C14.97,11.72,16.26,10.7,16.95,10.14C17.45,9.74,17.95,9.21,17.95,8.67C17.95,8.27,17.68,7.9,17.58,7.77L17.25,8.17C16.92,8.5,16.35,9.1,15.68,9.1C14.81,9.1,14.78,9.7,14.38,10.1Z" fill="currentColor"/><path d="M10.1,14.03L7.15,14.03L2.08,13.14C2.61,11.26,4.8,11.29,5,8.8L5.03,8.33L3.9,8.33C3.77,8.1,3.7,7.8,3.7,7.5L5.03,6.7C4.36,6.27,4.06,5.63,4.06,5C4.06,3.9,4.96,3.03,6.03,3.03C7.1,3.03,8,3.9,8,5C8,5.67,7.77,6.2,7.03,6.67L8.36,7.5C8.36,7.8,8.29,8.1,8.16,8.33L7.03,8.33L7.06,8.8C7.29,11.63,10.09,11.2,10.09,14.03Z" fill="currentColor"/><path d="M14.63,24L9.36,24C8.76,24,8.59,23.7,8.93,23.2L11.5,18.93L1.13,17.06C0.53,16.96,0.26,16.56,0.36,15.96L0.36,15.86C0.46,15.26,0.86,14.99,1.46,15.09L23.19,18.99C23.82,19.09,24.09,19.49,23.96,20.12C23.86,20.79,23.46,21.05,22.83,20.95L12.62,19.11L15.07,23.18C15.4,23.68,15.24,23.98,14.64,23.98Z" fill="currentColor"/></svg>