<svg xmlns="http://www.w3.org/2000/svg" viewBox="0 0 24 24"><path d="M0,20.67C0,19.24,0.47,18.24,2.47,17.7L4,8.93C2.8,8.53,2.33,7.7,2.27,6.83L2.04,2.96C2.81,2.63,3.44,2.46,4.17,2.46L4.67,4.66L6.04,4.66L6.18,6.96C6.26,7.95,6.82,9.07,7.71,9.89L6.6,16.22C4.81,17.07,3.84,18.58,3.84,20.66L3.84,21.99L0.01,21.99Z" fill="currentColor"/><path d="M5.83,20.67C5.83,19.32,6.3,18.35,8.03,17.8C8.16,19.35,8.68,20.78,9.5,22L5.83,22Z" fill="currentColor"/><path d="M7.93,2.97C8.7,2.64,9.33,2.47,10.06,2.47L10.56,4.67L12.23,4.67L12.53,2.14C12.53,2.14,13.23,2.01,13.83,2.01C14.43,2.01,15.13,2.14,15.13,2.14L15.4,4.67L17.1,4.67L17.6,2.47C18.33,2.47,18.97,2.64,19.73,2.97L19.5,6.84C19.46,7.33,19.29,7.82,18.93,8.21C18.31,8.07,17.66,8,17,8C13.73,8,10.89,9.71,9.31,12.29L9.9,8.93C8.7,8.53,8.23,7.7,8.17,6.83Z" fill="currentColor"/><path d="M10.03,17C10.03,13.17,13.2,10.03,17,10.03C20.83,10.03,23.97,13.16,23.97,17C23.97,20.8,20.84,23.97,17,23.97C13.2,23.97,10.03,20.8,10.03,17Z" fill="currentColor"/><path d="M20,12.9C20,12.3,19.67,11.97,19.07,11.97L18.94,11.97C18.34,11.97,18.01,12.3,18.01,12.9L18.01,14L16.01,14L16.01,12.9C16.01,12.3,15.68,11.97,15.08,11.97L14.95,11.97C14.35,11.97,14.02,12.3,14.02,12.9L14.02,14L12.92,14C12.32,14,11.99,14.33,11.99,14.93L11.99,15.06C11.99,15.66,12.32,15.99,12.92,15.99L14.02,15.99L14.02,17.99L12.92,17.99C12.32,17.99,11.99,18.32,11.99,18.92L11.99,19.05C11.99,19.65,12.32,19.98,12.92,19.98L14.02,19.98L14.02,21.08C14.02,21.68,14.35,22.01,14.95,22.01L15.08,22.01C15.68,22.01,16.01,21.68,16.01,21.08L16.01,19.98L18.01,19.98L18.01,21.08C18.01,21.68,18.34,22.01,18.94,22.01L19.07,22.01C19.67,22.01,20,21.68,20,21.08L20,19.98L21.1,19.98C21.7,19.98,22.03,19.65,22.03,19.05L22.03,18.92C22.03,18.32,21.7,17.99,21.1,17.99L20,17.99L20,15.99L21.1,15.99C21.7,15.99,22.03,15.66,22.03,15.06L22.03,14.93C22.03,14.33,21.7,14,21.1,14L20,14Z" fill="currentColor"/><path d="M18,16L18,18L16,18L16,16Z" fill="currentColor"/></svg>