<svg xmlns="http://www.w3.org/2000/svg" viewBox="0 0 24 24" fill="currentColor"><path d="M15.65,16.5L10.35,16.5C9.9,16,8.75,14.5,8.75,12.48C8.75,9.5,11.43,7.5,11.43,7.5C11.25,6.73,11.25,6.58,11.25,6.38C11.25,5.33,12.03,4.5,13,4.5C13.98,4.5,14.75,5.33,14.75,6.38C14.75,6.68,14.69,7.2,14.27,7.78L13.77,8.46C12.89,9.68,12.52,10.58,12.29,12.06L12.14,13.01L13.32,13.01L13.52,11.86C13.7,10.83,13.95,10.21,14.57,9.36L15.4,8.22C16.17,9.04,17.25,10.56,17.25,12.49C17.25,14.52,16.13,16.02,15.65,16.52ZM7.38,19.5C7.38,18.28,8.5,17.5,10.35,17.5L15.65,17.5C17.51,17.5,18.63,18.27,18.63,19.5L18.63,20.5L7.38,20.5Z"/></svg>