<svg xmlns="http://www.w3.org/2000/svg" viewBox="0 0 24 24"><path d="M0,22L0,19.77C0,17.97,0.87,17,3,16.54C0.13,11.97,1.03,7.37,4.8,3.94C4.73,3.67,4.7,3.37,4.7,3.07C4.7,1.37,5.97,0,7.67,0C9.37,0,10.64,1.37,10.64,3.07C10.64,3.37,10.61,3.67,10.54,3.94C10.54,3.94,10.55,3.95,10.55,3.95C10.31,4.41,10.08,4.9,9.86,5.39C9.85,5.38,9.85,5.38,9.84,5.37C8.61,7.44,8.34,9.7,8.17,12L6.67,12C6.84,9.6,7.17,6.77,8.7,4.37C9,3.87,9.13,3.5,9.13,3.07C9.13,2.2,8.53,1.5,7.66,1.5C6.79,1.5,6.19,2.2,6.19,3.07C6.19,3.5,6.32,3.87,6.62,4.37C2.49,7.57,1.55,11.9,4.62,16.27C5.45,16.2,6.49,16.17,7.65,16.17C8.17,16.17,8.66,16.18,9.12,16.19C9.18,16.33,9.23,16.46,9.29,16.6C8.66,16.88,8.13,17.25,7.71,17.67C7.69,17.67,7.66,17.67,7.64,17.67C3.27,17.67,1.47,17.97,1.47,19.77L1.47,20.5L6.47,20.5C6.47,20.56,6.47,20.61,6.47,20.67L6.47,22Z" fill="currentColor"/><path d="M8.5,22L8.5,20.67C8.5,19.07,9.93,18.04,12.3,18C11.2,16.07,10.33,14.33,10.33,11.97C10.33,7.67,13.9,4.67,13.9,4.67C13.67,3.64,13.67,3.44,13.67,3.17C13.67,1.77,14.7,0.67,16,0.67C17.3,0.67,18.33,1.77,18.33,3.17C18.33,3.57,18.26,4.27,17.7,5.04C16.07,7.24,15.03,9.41,14.87,12.01L16.44,12.01C16.57,9.84,17.57,7.81,19.21,5.61C20.24,6.71,21.68,9.08,21.68,11.98C21.68,14.45,20.88,16.18,19.78,18.01C22.11,18.08,23.51,19.11,23.51,20.68L23.51,22.01Z" fill="currentColor"/></svg>