<svg xmlns="http://www.w3.org/2000/svg" viewBox="0 0 24 24" fill="currentColor"><path d="M18.75,12.55C18.75,12.55,18.75,12.55,18.75,12.55C18.75,12.55,18.75,12.55,18.75,12.55C18.75,12.55,18.75,12.55,18.75,12.55C18.75,12.55,18.75,12.55,18.75,12.55ZM35.25,5.05C35.25,5.05,35.25,5.05,35.25,5.05C35.25,5.05,35.25,5.05,35.25,5.05C35.25,5.05,35.25,5.05,35.25,5.05C35.25,5.05,35.25,5.05,35.25,5.05ZM52,13C52,13,52,13,52,13C52,13,52,13,52,13C52,13,52,13,52,13C52,13,52,13,52,13ZM109,28C109,28,109,28,109,28C109,28,109,28,109,28C109,28,109,28,109,28C109,28,109,28,109,28ZM9.6,12.02C9.53,12.1,8.55,11.88,8.18,11.57C7.95,11.35,7.93,10.97,8.16,10.65L9.08,9.35C9.53,8.75,9.53,8.4,9.75,7.78C9.83,7.63,9.9,7.38,10.2,7.13C10.5,6.88,10.73,6.68,10.83,6.38L10.95,5.83C10.98,5.66,11.13,5.51,11.28,5.51L12.3,6.54C14.4,6.66,16.65,8.16,16.65,11.31C16.65,12.74,15.88,14.63,15.78,15.59L10.17,15.71C9.97,13.71,11.32,12.64,12,12.06C12.45,11.69,12.92,11.21,12.92,10.71C12.92,10.31,12.67,9.98,12.6,9.87L12.27,10.22C11.97,10.54,11.43,11.1,10.8,11.1C9.99,11.12,9.97,11.7,9.6,12.05ZM8.5,17.5L8.5,16.75C8.5,15.83,9.35,15.25,10.73,15.25L15.25,15.25C16.65,15.25,17.5,15.83,17.5,16.75L17.5,17.5ZM4.75,19.75C4.75,18.92,5.43,18.25,6.25,18.25C7.07,18.25,7.75,18.92,7.75,19.75C7.75,20.58,7.07,21.25,6.25,21.25C5.43,21.25,4.75,20.58,4.75,19.75ZM6.23,20.5L6.23,19L19.73,19L19.73,20.5ZM18.25,19.73C18.25,18.92,18.92,18.25,19.73,18.25C20.57,18.25,21.25,18.92,21.25,19.73C21.25,20.57,20.58,21.25,19.73,21.25C18.92,21.25,18.25,20.58,18.25,19.73Z"/></svg>