<svg xmlns="http://www.w3.org/2000/svg" viewBox="0 0 24 24"><path d="M12.63,3.37C12.63,3.77,12.36,4.1,12,4.1C11.63,4.1,11.37,3.77,11.37,3.37C11.37,2.77,11.8,1.94,12,0.77C12.23,1.94,12.63,2.77,12.63,3.37Z" fill="currentColor"/><path d="M6.76,5C7.03,5.3,7.03,5.73,6.73,5.97C6.46,6.2,6.03,6.1,5.76,5.8C5.39,5.33,5.23,4.4,4.63,3.4C5.56,4.13,6.4,4.53,6.76,5Z" fill="currentColor"/><path d="M3.24,9.96C3.64,10.03,3.91,10.36,3.84,10.73C3.74,11.1,3.37,11.26,2.97,11.2C2.4,11.07,1.67,10.47,0.57,10.03C1.77,10.06,2.64,9.83,3.24,9.96Z" fill="currentColor"/><path d="M1.6,17.8C2.53,17.07,3.1,16.33,3.63,16.03C3.96,15.86,4.4,15.96,4.56,16.26C4.73,16.59,4.56,16.99,4.19,17.16C3.66,17.43,2.72,17.43,1.59,17.79Z" fill="currentColor"/><path d="M18.17,5.76C17.9,6.06,17.5,6.16,17.2,5.93C16.93,5.7,16.93,5.26,17.17,4.96C17.57,4.49,18.4,4.13,19.3,3.33C18.77,4.4,18.53,5.3,18.17,5.76Z" fill="currentColor"/><path d="M21.03,11.14C20.63,11.21,20.23,11.04,20.16,10.67C20.09,10.3,20.36,9.97,20.76,9.9C21.33,9.77,22.23,10,23.43,9.97C22.33,10.44,21.6,11,21.03,11.14Z" fill="currentColor"/><path d="M22.47,17.7C21.3,17.4,20.4,17.37,19.87,17.1C19.5,16.9,19.34,16.53,19.5,16.2C19.67,15.87,20.07,15.8,20.43,15.97C20.96,16.24,21.5,17,22.46,17.7Z" fill="currentColor"/><path d="M6.43,22L6.43,21C6.43,19.8,7.5,19.03,9.23,19C8.4,17.8,7.76,16.5,7.76,14.73C7.76,11.5,10.43,9,10.43,9C10.26,8.23,10.26,8.07,10.26,7.87C10.26,6.84,11.03,6,11.99,6C12.96,6,13.76,6.83,13.76,7.87C13.76,8.17,13.73,8.74,13.26,9.27C11.99,10.74,11.06,12.8,10.89,15.24L12.56,15.24C12.66,13.24,13.33,11.54,14.39,10.21C15.16,10.74,16.26,12.68,16.26,14.74C16.26,16.57,15.66,17.87,14.83,19.01C16.53,19.04,17.56,19.84,17.56,21.01L17.56,22.01Z" fill="currentColor"/></svg>