<svg xmlns="http://www.w3.org/2000/svg" viewBox="0 0 24 24" fill="currentColor"><path d="M4.25,20.5C4.25,18.5,5.4,17.52,6.52,16.58C7.59,15.68,8.6,14.85,8.6,13.18L8.6,12.48L6.97,12.48C6.77,12.13,6.69,11.73,6.69,11.33L8.59,10.19C7.67,9.54,7.24,8.69,7.24,7.76C7.24,6.24,8.46,5.01,9.99,5.01C11.51,5.01,12.74,6.23,12.74,7.76C12.74,8.69,12.32,9.54,11.39,10.16L12.98,11.15C11.18,12.35,10,14.41,10,16.77C10,18.16,10.41,19.44,11.12,20.52ZM11.52,16.75C11.52,13.88,13.9,11.52,16.75,11.52C19.62,11.52,21.98,13.87,21.98,16.75C21.98,19.6,19.63,21.98,16.75,21.98C13.9,21.98,11.52,19.6,11.52,16.75ZM20.58,17.2C20.93,16.9,20.93,16.6,20.58,16.3L18.27,14.4C17.8,14,17.5,14.13,17.5,14.75L17.5,18.75C17.5,19.38,17.8,19.5,18.27,19.11ZM16,14.75C16,14.13,15.7,14,15.23,14.39L12.92,16.29C12.57,16.59,12.57,16.89,12.92,17.19L15.23,19.09C15.7,19.49,16,19.37,16,18.74Z"/></svg>