<svg xmlns="http://www.w3.org/2000/svg" viewBox="0 0 24 24" fill="currentColor"><path d="M12.83,4.35C12.93,3.92,13.07,3.92,13.18,4.35L13.61,5.95C13.41,5.92,13.21,5.9,13,5.9C12.79,5.9,12.59,5.91,12.38,5.95ZM9.6,5.48C9.45,5.05,9.58,4.97,9.93,5.27L11.21,6.34C10.83,6.54,10.49,6.8,10.2,7.11ZM7.65,8.22C7.28,7.98,7.33,7.85,7.78,7.87L9.56,8.02C9.36,8.41,9.23,8.84,9.18,9.29ZM7.58,11.6C7.13,11.6,7.1,11.47,7.48,11.25L9.19,10.25C9.24,10.64,9.35,11.01,9.5,11.34L9.05,11.6ZM15.81,7.11C15.51,6.8,15.17,6.54,14.79,6.34L16.08,5.28C16.43,4.97,16.55,5.05,16.4,5.48ZM16.82,9.29C16.77,8.84,16.64,8.41,16.44,8.02L18.22,7.87C18.67,7.85,18.72,7.97,18.35,8.22ZM18.42,11.6L16.9,11.61L16.5,11.37C16.65,11.04,16.77,10.66,16.81,10.26L18.52,11.25C18.9,11.48,18.87,11.61,18.42,11.61ZM17.88,20.5L8.15,20.5C8.15,17.1,11.5,17.65,11.77,14.3L11.79,13.72L10.44,13.72C10.27,13.4,10.22,13.02,10.22,12.67L11.79,11.77C10.99,11.25,10.64,10.5,10.64,9.75C10.64,8.42,11.72,7.4,12.99,7.4C14.27,7.4,15.34,8.43,15.34,9.75C15.34,10.55,15.06,11.17,14.19,11.75L15.77,12.67C15.77,13.02,15.71,13.4,15.54,13.72L14.19,13.72L14.21,14.3C14.49,17.65,17.87,17.09,17.87,20.5Z"/></svg>