<svg xmlns="http://www.w3.org/2000/svg" viewBox="0 0 24 24" fill="currentColor"><path d="M20.37,12C22.22,12.15,22.22,12.36,20.37,12.53L17.76,12.76C17.72,12.45,17.69,12.11,17.64,11.76ZM19.52,8.35C21.35,8.52,21.35,8.73,19.52,8.9L17.34,9.11C17.3,8.79,17.27,8.46,17.23,8.13ZM18.53,15.55C20.35,15.75,20.35,16,18.53,16.2L18.19,16.24C18.16,16.02,18.13,15.77,18.1,15.51ZM17.18,20.5L5.85,20.5C5.85,16.55,9.78,17.18,10.08,13.28L10.13,12.6L8.55,12.6C8.35,12.23,8.28,11.8,8.28,11.4L10.13,10.3C9.1,9.65,8.78,8.9,8.78,7.97C8.78,6.45,10.03,5.25,11.5,5.25C13,5.25,14.25,6.45,14.25,7.97C14.25,8.85,13.86,9.72,12.9,10.32L14.75,11.39C14.75,11.79,14.68,12.22,14.48,12.59L12.9,12.59L12.96,13.27C13.25,17.17,17.18,16.55,17.18,20.49Z"/></svg>