<svg xmlns="http://www.w3.org/2000/svg" viewBox="0 0 24 24"><path d="M23.4,2.03L17.28,8.15L4,21.43L2.1,23.33L2.07,23.36C1.64,23.79,1.17,23.79,0.74,23.36L0.64,23.26C0.21,22.83,0.21,22.36,0.64,21.93L6.9,15.67L7.99,9.5C6.85,8.68,6.4,7.77,6.34,6.83L6.11,2.96C6.88,2.63,7.51,2.46,8.24,2.46L8.74,4.66L10.41,4.66L10.71,2.13C10.71,2.13,11.41,2,12.01,2C12.61,2,13.31,2.13,13.31,2.13L13.58,4.66L15.28,4.66L15.78,2.46C16.51,2.46,17.15,2.63,17.91,2.96L17.8,4.77L21.98,0.59C22.41,0.16,22.88,0.16,23.31,0.59L23.41,0.69C23.83,1.11,23.84,1.57,23.44,1.99C23.43,2,23.42,2.01,23.41,2.02Z" fill="currentColor"/><path d="M6.3,22L16.44,11.86L17.49,17.71C19.47,18.26,19.99,19.25,19.99,20.67L19.99,22Z" fill="currentColor"/></svg>