<svg xmlns="http://www.w3.org/2000/svg" viewBox="0 0 24 24" fill="currentColor"><path d="M5.5,19.5C5.5,18.28,6.63,17.5,8.48,17.5L10.04,17.5C10.17,18.6,10.55,19.62,11.13,20.5L5.51,20.5ZM10.13,11.52C10.13,11.52,9.28,10.92,8.63,10.92C7.95,10.92,7.52,11.3,7.52,11.87C7.52,12.68,8.65,13.4,9.15,13.97L10.13,13.97ZM7.77,8.27C8.97,8.27,9.78,8.63,10.47,9.15L10.77,7L8.75,7L8.75,5.5L10.77,5.5L10.77,4L12.25,4L12.25,5.5L14.22,5.5L14.22,7L12.27,7L12.5,9.15C13.2,8.63,14,8.27,15.2,8.27C16.61,8.27,17.7,9.02,18.21,10.16C17.73,10.05,17.25,10,16.74,10C13.08,10,10.13,12.86,10,16.5L7.67,16.5C7.29,15.83,6.75,15.4,6.22,14.88C5.34,14,4.47,13.1,4.47,11.7C4.47,9.63,5.88,8.27,7.77,8.27ZM11.52,16.75C11.52,13.88,13.9,11.52,16.75,11.52C19.62,11.52,21.98,13.87,21.98,16.75C21.98,19.6,19.63,21.98,16.75,21.98C13.9,21.98,11.52,19.6,11.52,16.75ZM20.58,17.2C20.93,16.9,20.93,16.6,20.58,16.3L18.27,14.4C17.8,14,17.5,14.13,17.5,14.75L17.5,18.75C17.5,19.38,17.8,19.5,18.27,19.11ZM16,14.75C16,14.13,15.7,14,15.23,14.39L12.92,16.29C12.57,16.59,12.57,16.89,12.92,17.19L15.23,19.09C15.7,19.49,16,19.37,16,18.74Z"/></svg>