<svg xmlns="http://www.w3.org/2000/svg" viewBox="0 0 24 24"><path d="M19.67,11.4C19.67,11.4,19.67,11.4,19.67,11.4C19.67,11.4,19.67,11.4,19.67,11.4C19.67,11.4,19.67,11.4,19.67,11.4C19.67,11.4,19.67,11.4,19.67,11.4Z" fill="currentColor"/><path d="M41.67,1.4C41.67,1.4,41.67,1.4,41.67,1.4C41.67,1.4,41.67,1.4,41.67,1.4C41.67,1.4,41.67,1.4,41.67,1.4C41.67,1.4,41.67,1.4,41.67,1.4Z" fill="currentColor"/><path d="M64,12C64,12,64,12,64,12C64,12,64,12,64,12C64,12,64,12,64,12C64,12,64,12,64,12Z" fill="currentColor"/><path d="M140,32C140,32,140,32,140,32C140,32,140,32,140,32C140,32,140,32,140,32C140,32,140,32,140,32Z" fill="currentColor"/><path d="M7.7,15.9L9.27,7.13L14.77,7.13L16.34,15.9Z" fill="currentColor"/><path d="M6,18L6,17C6,15.27,7,14.4,12,14.4C16.97,14.4,18,15.27,18,17L18,18Z" fill="currentColor"/><path d="M9.07,8.67C8.17,8.04,7.8,7.34,7.77,6.64L7.57,3.74C8.17,3.47,8.64,3.34,9.17,3.34L9.57,5.01L10.8,5.01L11.03,3.11C11.03,3.11,11.56,3.01,12,3.01C12.47,3.01,12.97,3.11,12.97,3.11L13.17,5.01L14.47,5.01L14.84,3.34C15.37,3.34,15.87,3.47,16.44,3.74L16.27,6.64C16.2,7.34,15.87,8.04,14.97,8.67Z" fill="currentColor"/><path d="M1,21C1,19.9,1.9,19,3,19C4.1,19,5,19.9,5,21C5,22.1,4.1,23,3,23C1.9,23,1,22.1,1,21Z" fill="currentColor"/><path d="M2.97,22L2.97,20L20.97,20L20.97,22Z" fill="currentColor"/><path d="M19,20.97C19,19.9,19.9,19,20.97,19C22.1,19,23,19.9,23,20.97C23,22.1,22.1,23,20.97,23C19.9,23,19,22.1,19,20.97Z" fill="currentColor"/></svg>