<svg xmlns="http://www.w3.org/2000/svg" viewBox="0 0 24 24" fill="currentColor"><path d="M7.33,11.64L7.58,12.41L5.6,12.25C3.74,12.1,3.74,11.9,5.6,11.78ZM5.61,8.66L5.57,8.65C3.77,8.48,3.75,8.28,5.51,8.11C5.52,8.29,5.56,8.48,5.61,8.66ZM8.48,15.12L8.84,16.19L6.72,15.96C4.9,15.75,4.9,15.5,6.72,15.3ZM8.5,19.5C8.5,18.18,9.5,17.5,11.48,17.5L17.5,17.5C19.47,17.5,20.5,18.17,20.5,19.5L20.5,20.5L8.5,20.5ZM20.85,9.25L18.47,16.5L10.52,16.5L8.12,9.25C7.47,9.15,7,8.6,7,7.95C7,7.28,7.55,6.68,8.25,6.68C8.9,6.68,9.47,7.26,9.47,7.98C9.47,8.28,9.4,8.52,9.2,8.75L11.47,11.7L11.75,7.1C11.12,6.89,10.85,6.5,10.85,5.84C10.85,5.09,11.42,4.49,12.17,4.49C12.92,4.49,13.47,5.09,13.47,5.84C13.47,6.29,13.32,6.67,12.97,6.95L14.49,11.5L15.99,6.95C15.64,6.67,15.47,6.29,15.47,5.84C15.47,5.15,16.04,4.5,16.79,4.5C17.54,4.5,18.12,5.09,18.12,5.84C18.12,6.5,17.84,6.89,17.22,7.1L17.52,11.69L19.77,8.75C19.57,8.52,19.47,8.27,19.47,7.97C19.47,7.3,20.05,6.68,20.72,6.68C21.5,6.68,22,7.37,22,7.95C22,8.53,21.53,9.15,20.85,9.25Z"/></svg>