<svg xmlns="http://www.w3.org/2000/svg" viewBox="0 0 24 24"><path d="M12.13,13.3C12.47,12.91,13.01,12.48,13.48,12L17.63,12C17.19,13.02,16.41,13.92,15.6,15.03C14.95,15.93,14.16,16.81,13.79,18.03C15.81,18.23,17,19.21,17,20.66L17,21.99L1,21.99L1,20.66C1,19.21,2.18,18.23,4.18,18.03C3.81,16.81,3.02,15.93,2.37,15.03C1.14,13.33,0,12.13,0,10.26C0,7.49,1.8,5.69,4.23,5.69C5.76,5.69,6.8,6.16,7.36,6.52L8.03,3.99L5.66,3.99L5.66,1.99L7.99,1.99L7.99,-0.01L8.99,-0.01L8.99,8.56C8.99,10,9.69,11.12,10.82,11.65L10.82,13.29Z" fill="currentColor"/><path d="M7.17,10.03C7.17,10.03,6.04,9.23,5.17,9.23C4.27,9.23,3.7,9.73,3.7,10.5C3.7,11.57,5.2,12.53,5.87,13.3L7.17,13.3Z" fill="currentColor"/><path d="M23.07,8L18.94,8C18.34,8,18.01,7.67,18.01,7.07L18.01,6.8C18.01,6.2,18.24,5.63,18.64,5.17L21.44,2L18.94,2C18.34,2,18.01,1.67,18.01,1.07L18.01,0.94C18.01,0.34,18.34,0.01,18.94,0.01L23.07,0.01C23.67,0.01,24,0.34,24,0.94L24,1.27C24,1.87,23.77,2.44,23.37,2.9L20.6,6L23.07,6C23.67,6,24,6.33,24,6.93L24,7.06C24,7.66,23.67,7.99,23.07,7.99Z" fill="currentColor"/><path d="M11.93,2L16.06,2C16.66,2,16.99,2.33,16.99,2.93L16.99,3.2C16.99,3.8,16.76,4.37,16.36,4.83L13.56,8L16.06,8C16.66,8,16.99,8.33,16.99,8.93L16.99,9.06C16.99,9.66,16.66,9.99,16.06,9.99L11.93,9.99C11.33,9.99,11,9.66,11,9.06L11,8.73C11,8.13,11.23,7.56,11.63,7.1L14.4,4L11.93,4C11.33,4,11,3.67,11,3.07L11,2.94C11,2.34,11.33,2.01,11.93,2.01Z" fill="currentColor"/></svg>