<svg xmlns="http://www.w3.org/2000/svg" viewBox="0 0 24 24"><path d="M9.4,14L1.27,14C1.27,11.17,4.07,11.6,4.3,8.77L4.33,8.3L3.2,8.3C3.07,8.07,3,7.77,3,7.47L4.33,6.67C3.66,6.24,3.36,5.6,3.36,4.97C3.36,3.87,4.26,3,5.33,3C6.4,3,7.3,3.87,7.3,4.97C7.3,5.64,7.07,6.17,6.33,6.64L7.66,7.47C7.66,7.77,7.59,8.07,7.46,8.3L6.33,8.3L6.36,8.77C6.59,11.6,9.39,11.17,9.39,14Z" fill="currentColor"/><path d="M23.27,14L15.14,14C15.14,11.17,17.94,11.6,18.17,8.77L18.2,8.3L17.07,8.3C16.94,8.07,16.87,7.77,16.87,7.47L18.2,6.67C17.53,6.24,17.23,5.6,17.23,4.97C17.23,3.87,18.13,3,19.2,3C20.27,3,21.17,3.87,21.17,4.97C21.17,5.64,20.94,6.17,20.2,6.64L21.53,7.47C21.53,7.77,21.46,8.07,21.33,8.3L20.2,8.3L20.23,8.77C20.46,11.6,23.26,11.17,23.26,14Z" fill="currentColor"/><path d="M9.36,24C8.76,24,8.59,23.7,8.86,23.17L11.56,17.97C11.83,17.44,12.16,17.44,12.43,17.97L15.13,23.17C15.4,23.7,15.23,24,14.63,24Z" fill="currentColor"/><path d="M0.94,18C0.34,18,0.01,17.67,0.01,17.07L0.01,16.94C0.01,16.34,0.34,16.01,0.94,16.01L23.07,16.01C23.67,16.01,24,16.34,24,16.94L24,17.07C24,17.67,23.67,18,23.07,18Z" fill="currentColor"/></svg>