<svg xmlns="http://www.w3.org/2000/svg" viewBox="0 0 24 24"><path d="M4.57,22L4.57,20.67C4.57,19.07,6,18.04,8.3,18C7.2,16.4,6.33,14.67,6.33,12.3C6.33,8,9.9,4.67,9.9,4.67C9.67,3.64,9.67,3.44,9.67,3.17C9.67,1.77,10.7,0.67,12,0.67C13.3,0.67,14.33,1.77,14.33,3.17C14.33,3.57,14.3,4.34,13.7,5.04C12,7.01,10.73,9.74,10.53,13.01L12.76,13.01C12.89,10.31,13.76,8.04,15.19,6.28C16.22,7.01,17.66,9.58,17.66,12.31C17.66,14.78,16.86,16.51,15.76,18.01C18.03,18.08,19.43,19.11,19.43,20.68L19.43,22.01Z" fill="currentColor"/></svg>