<svg xmlns="http://www.w3.org/2000/svg" viewBox="0 0 24 24" fill="currentColor"><path d="M7,20.5L7,19.25C7,18.07,7.35,17.39,8.8,17.05L6.12,10.97C5.25,10.7,4.72,10,4.72,9.12C4.72,8.05,5.54,7.32,6.57,7.32C7.57,7.32,8.39,8.17,8.39,9.17C8.39,9.38,8.37,9.72,8.25,10L9.6,11.48L9.77,7.58C9.12,7.25,8.72,6.65,8.72,5.9C8.72,4.83,9.54,4.01,10.59,4.01C11.62,4.01,12.49,4.85,12.49,5.9C12.49,6.41,12.27,6.9,11.89,7.25L12.99,10.43L14.1,7.25C13.72,6.9,13.5,6.41,13.5,5.91C13.5,4.86,14.37,4.01,15.37,4.01C16.44,4.01,17.27,4.83,17.27,5.9C17.27,6.65,16.87,7.25,16.2,7.58L16.37,11.5L17.79,10C17.64,9.7,17.62,9.38,17.62,9.18C17.62,8.18,18.39,7.32,19.42,7.32C20.45,7.32,21.29,8.05,21.29,9.12C21.29,10,20.77,10.7,19.89,10.98L17.19,17.05C18.64,17.4,18.99,18.08,18.99,19.25L18.99,20.5ZM7.75,19.75L18.25,19.75L18.25,19.25C18.25,17.88,17.6,17.5,13,17.5C8.4,17.5,7.75,17.88,7.75,19.25ZM6.68,10.32L9.58,16.92C10.46,16.79,11.55,16.75,13.01,16.75C14.46,16.75,15.56,16.8,16.44,16.92L19.36,10.32C20.13,10.22,20.56,9.75,20.56,9.12C20.56,8.5,20.06,8.07,19.44,8.07C18.86,8.07,18.39,8.57,18.39,9.18C18.39,9.38,18.46,9.7,18.81,10.05L15.74,13.3L15.44,7.02C16.11,6.95,16.54,6.5,16.54,5.9C16.54,5.22,16.07,4.75,15.39,4.75C14.79,4.75,14.27,5.25,14.27,5.9C14.27,6.32,14.57,6.77,15.02,6.95L13.02,12.72L11.01,6.95C11.46,6.77,11.76,6.32,11.76,5.9C11.76,5.24,11.24,4.75,10.62,4.75C9.96,4.75,9.49,5.22,9.49,5.9C9.49,6.5,9.96,6.97,10.56,7.02L10.26,13.32L7.29,10.04C7.64,9.65,7.66,9.39,7.66,9.17C7.66,8.57,7.19,8.06,6.59,8.06C5.97,8.06,5.49,8.49,5.49,9.11C5.49,9.74,5.91,10.22,6.69,10.31Z"/></svg>