<svg xmlns="http://www.w3.org/2000/svg" viewBox="0 0 24 24" fill="currentColor"><path d="M18.75,12.55C18.75,12.55,18.75,12.55,18.75,12.55C18.75,12.55,18.75,12.55,18.75,12.55C18.75,12.55,18.75,12.55,18.75,12.55C18.75,12.55,18.75,12.55,18.75,12.55ZM35.25,5.05C35.25,5.05,35.25,5.05,35.25,5.05C35.25,5.05,35.25,5.05,35.25,5.05C35.25,5.05,35.25,5.05,35.25,5.05C35.25,5.05,35.25,5.05,35.25,5.05ZM52,13C52,13,52,13,52,13C52,13,52,13,52,13C52,13,52,13,52,13C52,13,52,13,52,13ZM109,28C109,28,109,28,109,28C109,28,109,28,109,28C109,28,109,28,109,28C109,28,109,28,109,28ZM9.77,15.92L10.95,9.35L15.08,9.35L16.25,15.92ZM8.5,17.5L8.5,16.75C8.5,15.45,9.25,14.8,13,14.8C16.73,14.8,17.5,15.45,17.5,16.75L17.5,17.5ZM10.8,10.5C10.13,10.03,9.85,9.5,9.83,8.98L9.68,6.8C10.13,6.6,10.48,6.5,10.88,6.5L11.18,7.76L12.1,7.76L12.27,6.33C12.27,6.33,12.67,6.26,13,6.26C13.35,6.26,13.73,6.33,13.73,6.33L13.88,7.76L14.85,7.76L15.13,6.5C15.53,6.5,15.9,6.6,16.33,6.8L16.2,8.98C16.15,9.5,15.9,10.03,15.23,10.5ZM4.75,19.75C4.75,18.92,5.43,18.25,6.25,18.25C7.07,18.25,7.75,18.92,7.75,19.75C7.75,20.58,7.07,21.25,6.25,21.25C5.43,21.25,4.75,20.58,4.75,19.75ZM6.23,20.5L6.23,19L19.73,19L19.73,20.5ZM18.25,19.73C18.25,18.92,18.92,18.25,19.73,18.25C20.57,18.25,21.25,18.92,21.25,19.73C21.25,20.57,20.58,21.25,19.73,21.25C18.92,21.25,18.25,20.58,18.25,19.73Z"/></svg>