<svg xmlns="http://www.w3.org/2000/svg" viewBox="0 0 24 24"><path d="M21.87,10.67C24.34,10.87,24.34,11.14,21.87,11.37L20.6,11.48C20.67,11.18,20.71,10.88,20.73,10.57Z" fill="currentColor"/><path d="M20.73,5.8C23.16,6.03,23.16,6.3,20.73,6.53L19.72,6.63C19.49,6.27,19.23,5.93,18.94,5.63Z" fill="currentColor"/><path d="M19.4,15.4C21.83,15.67,21.83,16,19.4,16.27L17.22,16.5C17.4,16.33,17.6,16.14,17.82,15.92C18.02,15.72,18.22,15.52,18.41,15.3Z" fill="currentColor"/><path d="M4.3,16.67C3.8,15.77,3.07,15.2,2.37,14.5C1.2,13.33,0,12.13,0,10.27C0,7.64,1.8,5.7,4.43,5.7C6.03,5.7,7.1,6.17,8.03,6.87L8.33,4L5.73,4L5.73,2L8.36,2L8.36,0L10.33,0L10.33,2L13.03,2L13.03,4L10.33,4L10.73,6.87C11.66,6.17,12.73,5.7,14.33,5.7C16.86,5.7,18.73,7.5,18.73,10.27C18.73,12.14,17.56,13.34,16.4,14.5C15.7,15.2,14.97,15.77,14.47,16.67Z" fill="currentColor"/><path d="M17.37,22L1.37,22L1.37,20.67C1.37,19.04,2.87,18,5.37,18L13.4,18C15.87,18,17.37,19.03,17.37,20.67Z" fill="currentColor"/><path d="M7.53,10.03C7.53,10.03,6.4,9.23,5.53,9.23C4.63,9.23,4.06,9.73,4.06,10.5C4.06,11.57,5.56,12.53,6.23,13.3L7.53,13.3Z" fill="currentColor"/><path d="M12.5,13.3C13.17,12.53,14.67,11.57,14.67,10.5C14.67,9.73,14.1,9.23,13.2,9.23C12.33,9.23,11.2,10.03,11.2,10.03L11.2,13.3Z" fill="currentColor"/></svg>