<svg xmlns="http://www.w3.org/2000/svg" viewBox="0 0 24 24" fill="currentColor"><path d="M7.52,9.25C6.17,9.25,5.05,8.63,5.05,7.23C5.05,6.08,5.85,5.37,6.92,5.37C8.07,5.37,8.79,6.12,9.27,7.56C9.76,6.12,10.46,5.37,11.6,5.37C12.7,5.37,13.47,6.1,13.47,7.23C13.47,8.6,12.32,9.25,11.05,9.25ZM6,20.5C4.5,20.5,4,20,4,18.5L4,16L8.5,16L8.5,20.5ZM4,12.75C4,11.25,4.5,10.75,6,10.75L8.5,10.75L8.5,14.5L4,14.5ZM10,14.5L10,12.17C10.15,12.7,10.52,13.23,10.98,13.59L11.28,14.51ZM10.98,19.8L10.98,20.5L10,20.5L10,16L11.76,16L12.25,17.5C11.41,18.07,10.97,18.96,10.97,19.8ZM8.37,8.15C7.98,6.93,7.65,6.48,7.02,6.48C6.55,6.48,6.1,6.68,6.1,7.23C6.1,7.98,6.85,8.15,7.52,8.15ZM11.05,8.15C11.65,8.15,12.4,7.97,12.4,7.22C12.4,6.68,11.95,6.47,11.52,6.47C10.94,6.47,10.55,6.94,10.2,8.15ZM12.48,19.8C12.48,18.98,13.05,18.5,14.15,18.4L12.22,12.57C11.75,12.5,11.42,12.1,11.42,11.65C11.42,11.18,11.81,10.75,12.29,10.75C12.77,10.75,13.17,11.15,13.17,11.67C13.17,11.88,13.12,12.05,12.97,12.22L14.57,14.3L14.77,11.07C14.32,10.87,14.15,10.6,14.15,10.17C14.15,9.65,14.55,9.22,15.07,9.22C15.6,9.22,15.99,9.65,15.99,10.17C15.99,10.5,15.87,10.75,15.62,10.95L16.69,14.15L17.76,10.95C17.52,10.74,17.39,10.5,17.39,10.17C17.39,9.67,17.79,9.22,18.31,9.22C18.84,9.22,19.26,9.65,19.26,10.17C19.26,10.6,19.06,10.87,18.61,11.07L18.84,14.3L20.41,12.22C20.28,12.05,20.21,11.87,20.21,11.67C20.21,11.2,20.61,10.75,21.09,10.75C21.63,10.75,21.98,11.25,21.98,11.65C21.98,12.05,21.66,12.5,21.18,12.57L19.25,18.4C20.36,18.5,20.93,18.98,20.93,19.8L20.93,20.5L12.45,20.5Z"/></svg>