<svg xmlns="http://www.w3.org/2000/svg" viewBox="0 0 24 24"><path d="M0.57,22L0.57,20.67C0.57,19.07,2,18.04,4.3,18C3.2,16.4,2.33,14.67,2.33,12.3C2.33,8,5.9,4.67,5.9,4.67C5.67,3.64,5.67,3.44,5.67,3.17C5.67,1.77,6.7,0.67,8,0.67C9.3,0.67,10.33,1.77,10.33,3.17C10.33,3.57,10.3,4.34,9.7,5.04C8,7.01,6.73,9.74,6.53,13.01L8.76,13.01C8.89,10.31,9.76,8.04,11.19,6.28C11.89,6.78,12.77,8.11,13.27,9.77C11.87,11.14,11.91,13.23,13.4,14.59C13.29,15.03,13.16,15.45,13,15.84C12.92,15.91,12.83,15.97,12.74,16.05C11.48,17.14,9.49,18.87,9.49,22.02Z" fill="currentColor"/><path d="M24,22L11.5,22C11.5,19.77,12.8,18.63,14.03,17.57C15.23,16.6,16.36,15.67,16.36,13.84L16.36,13.11L14.56,13.11C14.36,12.71,14.23,12.21,14.23,11.71L16.36,10.44C15.36,9.71,14.86,8.84,14.86,7.74C14.86,6.07,16.23,4.67,17.93,4.67C19.63,4.67,21,6.07,21,7.74C21,8.84,20.5,9.71,19.5,10.37L21.67,11.7C21.67,12.2,21.57,12.7,21.3,13.1L19.5,13.1L19.5,13.83C19.5,15.66,20.63,16.6,21.83,17.56C23.06,18.63,24,19.76,24,21.99Z" fill="currentColor"/></svg>