<svg xmlns="http://www.w3.org/2000/svg" viewBox="0 0 24 24"><path d="M0,22L0,20.67C0,19.24,0.53,18.24,2.53,17.7L4.06,8.93C2.86,8.53,2.39,7.7,2.33,6.83L2.1,2.96C2.87,2.63,3.5,2.46,4.23,2.46L4.73,4.66L6.4,4.66L6.7,2.13C6.7,2.13,7.4,2,8,2C8.01,2,8.03,2,8.04,2L8.34,6.97C8.42,7.96,8.98,9.08,9.87,9.9L8.76,16.23C6.97,17.08,6,18.59,6,20.67L6,22Z" fill="currentColor"/><path d="M8,22L8,20.67C8,19.24,8.53,18.24,10.53,17.7L12.06,8.93C10.86,8.53,10.39,7.7,10.33,6.83L10.1,2.96C10.87,2.63,11.5,2.46,12.23,2.46L12.73,4.66L14.4,4.66L14.7,2.13C14.7,2.13,15.4,2,16,2C16.6,2,17.3,2.13,17.3,2.13L17.57,4.66L19.27,4.66L19.77,2.46C20.5,2.46,21.14,2.63,21.9,2.96L21.67,6.83C21.6,7.7,21.14,8.53,19.94,8.93L21.51,17.7C23.48,18.27,24.01,19.23,24.01,20.67L24.01,22Z" fill="currentColor"/></svg>