<svg xmlns="http://www.w3.org/2000/svg" viewBox="0 0 24 24" fill="currentColor"><path d="M4.43,19.5C4.43,18.3,5.5,17.53,7.23,17.5C6.4,16.3,5.75,15,5.75,13.23C5.75,10,8.43,7.5,8.43,7.5C8.25,6.73,8.25,6.58,8.25,6.38C8.25,5.33,9.02,4.5,10,4.5C10.98,4.5,11.75,5.33,11.75,6.38C11.75,6.68,11.73,7.26,11.27,7.78C10,9.26,9.05,11.31,8.9,13.76L10.57,13.76C10.67,11.73,11.32,10.03,12.39,8.71C12.83,9.02,13.35,9.76,13.73,10.71C11.51,11.8,9.99,14.09,9.99,16.76C9.99,18.15,10.41,19.44,11.12,20.51L4.42,20.51ZM11.52,16.75C11.52,13.88,13.9,11.52,16.75,11.52C19.62,11.52,21.98,13.87,21.98,16.75C21.98,19.6,19.63,21.98,16.75,21.98C13.9,21.98,11.52,19.6,11.52,16.75ZM20.58,17.2C20.93,16.9,20.93,16.6,20.58,16.3L18.27,14.4C17.8,14,17.5,14.13,17.5,14.75L17.5,18.75C17.5,19.38,17.8,19.5,18.27,19.11ZM16,14.75C16,14.13,15.7,14,15.23,14.39L12.92,16.29C12.57,16.59,12.57,16.89,12.92,17.19L15.23,19.09C15.7,19.49,16,19.37,16,18.74Z"/></svg>