<svg xmlns="http://www.w3.org/2000/svg" viewBox="0 0 24 24" fill="currentColor"><path d="M13.9,15.33C13.91,14.64,14.39,14.25,15.3,14.18L13.67,9.21C13.28,9.15,13,8.81,13,8.43C13,8.04,13.32,7.66,13.75,7.66C14.15,7.66,14.48,8.01,14.48,8.43C14.48,8.64,14.45,8.79,14.33,8.91L15.68,10.68L15.85,7.93C15.48,7.76,15.3,7.53,15.3,7.16C15.3,6.71,15.65,6.36,16.11,6.36C16.55,6.36,16.88,6.71,16.88,7.16C16.88,7.44,16.8,7.66,16.58,7.83L17.5,10.56L18.4,7.83C18.2,7.66,18.08,7.44,18.08,7.16C18.08,6.76,18.43,6.36,18.88,6.36C19.33,6.36,19.68,6.71,19.68,7.16C19.68,7.53,19.51,7.76,19.14,7.93L19.34,10.68L20.69,8.91C20.56,8.78,20.49,8.63,20.49,8.43C20.49,8.04,20.84,7.66,21.24,7.66C21.71,7.66,22.01,8.09,22.01,8.43C22.01,8.79,21.73,9.16,21.31,9.21L19.71,14.18C20.64,14.25,21.12,14.65,21.12,15.36L21.12,15.96L17.46,15.96ZM4.93,13.74C4.97,13.19,5.25,12.81,6.07,12.59L6.72,8.9C6.22,8.54,6,8.12,5.98,7.71L5.88,5.96C6.23,5.81,6.5,5.73,6.83,5.73L7.06,6.73L7.81,6.73L7.96,5.58C7.96,5.58,8.26,5.53,8.54,5.53C8.81,5.53,9.11,5.58,9.11,5.58L9.24,6.73L10.01,6.73L10.24,5.73C10.56,5.73,10.84,5.81,11.19,5.96L11.09,7.71C11.07,8.12,10.85,8.54,10.35,8.9L11.02,12.61C11.9,12.86,12.14,13.3,12.14,13.93L12.14,14.53L9.38,14.53ZM14.97,22L11.02,22C10.57,22,10.44,21.77,10.7,21.4L12.63,18.2L4.85,16.79C4.4,16.72,4.2,16.42,4.27,15.97L4.27,15.89C4.35,15.44,4.65,15.24,5.1,15.32L21.39,18.24C21.87,18.32,22.07,18.62,21.97,19.09C21.89,19.59,21.59,19.79,21.12,19.71L13.46,18.33L15.3,21.38C15.55,21.76,15.43,21.98,14.98,21.98Z"/></svg>