<svg xmlns="http://www.w3.org/2000/svg" viewBox="0 0 24 24"><path d="M6.3,19.2L8.37,7.53L15.7,7.53L17.8,19.2Z" fill="currentColor"/><path d="M4.03,20.67C4.03,18.37,5.36,17.2,12.03,17.2C18.66,17.2,20.03,18.37,20.03,20.67L20.03,22L4.03,22Z" fill="currentColor"/><path d="M15.97,9.57L8.1,9.57C6.9,8.74,6.43,7.8,6.37,6.84L6.14,2.97C6.91,2.64,7.54,2.47,8.27,2.47L8.77,4.67L10.44,4.67L10.74,2.14C10.74,2.14,11.44,2.01,12.04,2.01C12.64,2.01,13.34,2.14,13.34,2.14L13.61,4.67L15.31,4.67L15.81,2.47C16.54,2.47,17.18,2.64,17.94,2.97L17.71,6.84C17.64,7.81,17.18,8.74,15.98,9.57Z" fill="currentColor"/><path d="M24,7.33L24,14.66C24,15.49,23.63,15.66,23,15.09L19.37,11.89C18.74,11.32,18.74,10.66,19.37,10.09L23,6.89C23.63,6.32,24,6.49,24,7.32Z" fill="currentColor"/><path d="M4.63,11.9L1,15.1C0.37,15.67,0,15.5,0,14.67L0,7.34C0,6.51,0.37,6.34,1,6.91L4.63,10.11C5.26,10.68,5.26,11.34,4.63,11.91Z" fill="currentColor"/></svg>