<svg xmlns="http://www.w3.org/2000/svg" viewBox="0 0 24 24" fill="currentColor"><path d="M18.08,13L17.66,13L17,15.25L20.45,15.25L15.13,22L15.78,17.65L13.33,17.65L14.36,13L11.18,13C11.76,12.36,12.12,11.52,12.12,10.62C12.12,8.86,10.7,7.28,8.98,7.03C9.51,6.68,10.19,6.47,11.03,6.47C11.18,4.89,12.53,4.04,13.88,4.04C15.1,4.04,16.6,4.74,16.67,6.47C19.82,5.96,21.92,7.16,21.92,9.82C21.92,11.54,20.75,12.99,18.08,12.99ZM4.07,20.5C4.07,17.4,7.15,17.85,7.38,14.8L7.43,14.25L6.18,14.25C6.03,14,5.95,13.7,5.95,13.4L7.43,12.5C6.68,12,6.38,11.33,6.38,10.63C6.38,9.45,7.35,8.51,8.5,8.51C9.68,8.51,10.62,9.46,10.62,10.63C10.62,11.4,10.42,11.93,9.63,12.45L11.07,13.4C11.07,13.7,11.02,14,10.82,14.25L9.63,14.25L9.63,14.8C9.87,17.85,12.95,17.4,12.95,20.5Z"/></svg>