<svg xmlns="http://www.w3.org/2000/svg" viewBox="0 0 24 24"><path d="M18.13,18L5.86,18C5.86,13.73,10.09,14.4,10.43,10.17L10.5,9.44L8.77,9.44C8.57,9.07,8.47,8.61,8.47,8.21L10.5,6.98C9.47,6.31,9.07,5.41,9.07,4.41C9.07,2.81,10.37,1.48,12,1.48C13.63,1.48,14.93,2.81,14.93,4.41C14.93,5.44,14.6,6.21,13.5,6.94L15.53,8.21C15.53,8.61,15.43,9.08,15.23,9.44L13.5,9.44L13.57,10.17C13.9,14.4,18.14,13.74,18.14,18Z" fill="currentColor"/><path d="M10.66,20.04L13.29,20.04L12.26,23.57C12.09,24.14,11.89,24.14,11.73,23.57Z" fill="currentColor"/><path d="M8.77,22.83C8.6,23.4,8.4,23.4,8.2,22.83L7.3,20.03L9.67,20.03Z" fill="currentColor"/><path d="M15.83,22.83C15.63,23.4,15.43,23.43,15.23,22.83L14.3,20.03L16.73,20.03Z" fill="currentColor"/></svg>