<svg xmlns="http://www.w3.org/2000/svg" viewBox="0 0 24 24"><path d="M2,20.67C2,19.1,3.07,18.2,5.13,18.04L1.5,7.01C0.63,6.88,0,6.14,0,5.28C0,4.38,0.73,3.58,1.67,3.58C2.54,3.58,3.3,4.35,3.3,5.31C3.3,5.71,3.2,6.04,2.93,6.34L5.96,10.27L6.33,4.17C5.5,3.8,5.13,3.27,5.13,2.47C5.13,1.47,5.9,0.67,6.9,0.67C7.9,0.67,8.63,1.47,8.63,2.47C8.63,3.07,8.43,3.57,7.96,3.94L9.99,10.01L11.99,3.94C11.52,3.57,11.29,3.07,11.29,2.47C11.29,1.54,12.06,0.67,13.06,0.67C14.06,0.67,14.83,1.47,14.83,2.47C14.83,2.8,14.77,3.09,14.63,3.34C11.67,4.28,10.95,6.13,11.83,9.8L12.63,13.17C10.63,14.25,9.96,15.45,9.96,17.84L9.96,20.01L14.56,20.01L15.01,22.01L1.99,22.01Z" fill="currentColor"/><path d="M16.63,20L19.3,20L18.6,23.2C18.43,23.93,18.4,24,18,24C17.6,24,17.57,23.93,17.4,23.2Z" fill="currentColor"/><path d="M12,17.07C12,16.24,12.43,15.5,13.2,15.14L14.97,14.24L13.64,8.61C13.17,6.64,13.67,6.01,15.67,6.01L20.34,6.01C22.34,6.01,22.84,6.64,22.37,8.61L21,14.28L22.8,15.15C23.57,15.52,24,16.25,24,17.08L24,18.01L12,18.01Z" fill="currentColor"/></svg>