<svg xmlns="http://www.w3.org/2000/svg" viewBox="0 0 24 24"><path d="M16.93,22C16.92,20.78,16.42,19.76,15.56,19.23C13.29,17.8,13.19,16.26,13.19,15.76L13.19,15.13L14.59,15.13C14.76,14.86,14.86,14.5,14.86,14.16L13.19,13.13C13.99,12.63,14.36,11.9,14.36,11.1C14.36,9.8,13.29,8.73,11.99,8.73C10.69,8.73,9.62,9.8,9.62,11.1C9.62,11.9,9.99,12.63,10.79,13.17L9.16,14.17C9.19,14.54,9.26,14.9,9.39,15.14L10.79,15.14L10.79,15.77C10.79,16.27,10.69,17.8,8.42,19.24C7.56,19.77,7.06,20.79,7.05,22.01L1.42,22.01L1.42,20.74C1.42,19.17,2.52,18.21,4.19,18.21C4.19,14.18,9.19,13.44,7.79,10.34L7.26,10.94C6.76,11.51,5.83,12.44,4.79,12.44C3.42,12.47,3.39,13.44,2.76,14.04C2.59,14.14,0.96,13.77,0.36,13.27C-0.07,12.87,-0.14,12.2,0.29,11.7L1.86,9.5C2.59,8.47,2.59,7.9,3.03,6.87C3.1,6.57,3.26,6.17,3.76,5.77C4.29,5.3,4.63,5,4.83,4.5L5,3.53C5.07,3.26,5.33,3,5.57,3L7.34,4.73C9.57,4.87,11.86,5.99,13.33,8.35C14.12,7.36,14.87,6.79,14.87,6.79C14.67,5.82,14.67,5.62,14.67,5.36C14.67,4.03,15.64,2.99,16.87,2.99C18.1,2.99,19.1,4.02,19.1,5.36C19.1,5.76,19.03,6.43,18.5,7.13L17.93,7.9C16.76,9.53,16.3,10.73,16.06,12.73L16.09,12.5L17.59,12.5L17.59,12.43C17.76,11.03,18.09,10.2,18.92,9.06L19.89,7.69C20.89,8.72,22.26,10.66,22.26,13.09C22.26,15.66,20.83,17.56,20.23,18.19C22.56,18.19,24,19.16,24,20.72L24,21.99Z" fill="currentColor"/></svg>