<svg xmlns="http://www.w3.org/2000/svg" viewBox="0 0 24 24" fill="currentColor"><path d="M6.23,13.2C6.1,13.3,4.8,13,4.33,12.6C4.01,12.3,3.98,11.8,4.28,11.38L5.53,9.63C6.11,8.83,6.11,8.38,6.43,7.55C6.5,7.33,6.63,7.01,7.03,6.68C7.43,6.33,7.71,6.08,7.85,5.68L8,4.93C8.06,4.71,8.25,4.5,8.45,4.5L9.83,5.88C12.09,6.02,14.53,7.36,15.35,10.14C12.28,10.79,10.01,13.48,10.01,16.75C10.01,18.14,10.42,19.43,11.13,20.5L4.76,20.5L4.76,19.5C4.76,18.46,5.57,17.74,6.96,17.55C6.98,15.23,8.57,13.95,9.44,13.25C10.04,12.75,10.66,12.11,10.66,11.43C10.66,10.91,10.34,10.48,10.21,10.31L9.78,10.78C9.38,11.21,8.66,11.96,7.83,11.96C6.76,11.98,6.73,12.73,6.23,13.21ZM20.5,16.75C20.5,14.62,18.88,13,16.75,13C14.64,13,13,14.63,13,16.75C13,18.85,14.65,20.5,16.75,20.5C18.87,20.5,20.5,18.86,20.5,16.75ZM11.5,16.75C11.5,13.85,13.88,11.5,16.75,11.5C19.65,11.5,22,13.85,22,16.75C22,19.62,19.65,22,16.75,22C13.88,22,11.5,19.62,11.5,16.75ZM13.17,19.27L19.27,13.17L20.33,14.23L14.23,20.33Z"/></svg>