<svg xmlns="http://www.w3.org/2000/svg" viewBox="0 0 24 24"><path d="M7.57,17.2C7.57,16.23,8.44,15.63,9.8,15.6C9.17,14.63,8.63,13.6,8.63,12.17C8.63,9.6,10.76,7.6,10.76,7.6C10.63,6.97,10.63,6.87,10.63,6.7C10.63,5.87,11.26,5.2,12.03,5.2C12.8,5.2,13.43,5.87,13.43,6.7C13.43,6.93,13.4,7.4,13.06,7.83C12.03,9,11.26,10.63,11.16,12.6L12.49,12.6C12.56,10.97,13.09,9.63,13.96,8.57C14.56,9,15.43,10.54,15.43,12.17C15.43,13.67,14.96,14.7,14.3,15.6C15.67,15.63,16.5,16.27,16.5,17.2L16.5,18L7.57,18Z" fill="currentColor"/><path d="M23.13,9.1C24.03,9.1,24.23,9.5,23.6,10.17L21,12.94C20.37,13.61,20,13.47,20,12.54L20,6.47C20,4.64,19.37,4,17.53,4L6.5,4C4.67,4,4,4.63,4,6.47L4,7.1C4,7.7,3.67,8.03,3.07,8.03L2.94,8.03C2.34,8.03,2.01,7.7,2.01,7.1L2.01,6.97C2.01,3.3,3.31,2,6.98,2L17.05,2C20.72,2,22.02,3.3,22.02,6.97L22.02,9.1Z" fill="currentColor"/><path d="M0.87,14.9C-0.03,14.9,-0.23,14.5,0.4,13.83L3,11.06C3.63,10.39,4,10.53,4,11.46L4,17.49C4,19.32,4.67,19.99,6.5,19.99L17.53,19.99C19.36,19.99,20,19.32,20,17.49L20,16.89C20,16.29,20.33,15.96,20.93,15.96L21.06,15.96C21.66,15.96,21.99,16.29,21.99,16.89L21.99,17.02C21.99,20.69,20.69,21.99,17.02,21.99L6.95,21.99C3.28,21.99,1.98,20.69,1.98,17.02L1.98,14.89Z" fill="currentColor"/></svg>