<svg xmlns="http://www.w3.org/2000/svg" viewBox="0 0 24 24"><path d="M0.07,20L0.07,18.9C0.07,17.71,0.5,16.9,2.16,16.46L3.35,9.76C2.42,9.07,2.04,8.32,2.01,7.53L1.81,4.36C2.44,4.09,2.98,3.96,3.58,3.96L3.98,5.76L5.35,5.76L5.58,3.69C5.58,3.69,6.18,3.56,6.65,3.56C7.15,3.56,7.72,3.69,7.72,3.69L7.95,5.76L9.35,5.76L9.75,3.96C10.35,3.96,10.88,4.09,11.52,4.36L11.45,5.49C11.35,5.65,11.29,5.77,11.27,5.82C10.82,6.99,10.82,7.18,10.59,7.5L9.28,9.35C8.52,10.45,8.69,12.42,9.63,13.26C9.94,13.53,10.31,13.75,10.72,13.93L11.06,15.84C9.94,16.65,9.36,17.84,9.36,18.97L9.36,20Z" fill="currentColor"/><path d="M10.93,11.77C10.6,11.47,10.6,10.94,10.9,10.5L12.2,8.67C12.8,7.84,12.8,7.37,13.13,6.5C13.2,6.3,13.33,5.93,13.76,5.6C14.16,5.23,14.46,4.97,14.63,4.53L14.76,3.8C14.83,3.53,15.03,3.33,15.26,3.33L16.66,4.76C19.49,4.93,22.63,6.99,22.63,11.63C22.63,13,21.73,15.46,21.46,16.9C22.96,17.13,23.83,17.83,23.83,18.97L23.83,20L11.33,20L11.33,18.97C11.33,17.84,12.16,17.14,13.63,16.9C13.66,13.13,17.53,12.4,17.53,10.57C17.53,10,17.2,9.54,17.06,9.37L16.63,9.87C16.23,10.3,15.46,11.07,14.6,11.07C13.47,11.1,13.43,11.9,12.93,12.4C12.8,12.5,11.43,12.2,10.93,11.77Z" fill="currentColor"/></svg>