<svg xmlns="http://www.w3.org/2000/svg" viewBox="0 0 24 24"><path d="M2,11.77L2.83,11.39C2.58,10.83,2.44,10.28,2.44,9.93C2.44,7.76,4.24,6,6.41,6C6.49,6,6.58,6,6.66,6.01C6.69,6.53,6.77,7.05,6.89,7.55C6.73,7.52,6.57,7.5,6.41,7.5C5.04,7.5,3.94,8.57,3.94,9.93C3.94,10.73,4.37,11.53,5.04,12.03L3.51,12.73C3.51,13.06,3.51,13.46,3.78,13.9L4.81,13.9C4.58,14.52,4.45,15.22,4.45,16.03C4.04,16.75,3.52,17.15,3.02,17.5C1.99,18.27,1.52,18.73,1.52,20.5L8.72,20.5C8.94,21.03,9.21,21.53,9.52,22L0.13,22C-0.34,18.49,0.79,17.28,2.15,16.28C2.57,15.99,2.88,15.76,3.11,15.4L2.95,15.4C2.24,14.25,2.02,13.07,2.02,11.77Z" fill="currentColor"/><path d="M6.17,16C6.17,11.93,10.17,12.57,10.54,8.57L10.57,7.87L8.97,7.87C8.74,7.5,8.64,7.04,8.64,6.64L10.57,5.54C9.57,4.94,9.2,4.04,9.2,3.14C9.2,1.57,10.47,0.34,12,0.34C13.5,0.34,14.77,1.57,14.77,3.14C14.77,4.11,14.47,4.87,13.4,5.51L15.33,6.64C15.33,7.04,15.23,7.51,15,7.87L13.4,7.87L13.43,8.57C13.43,8.62,13.44,8.67,13.45,8.72C10.53,9.96,8.41,12.71,8.05,16Z" fill="currentColor"/><path d="M10.03,17C10.03,13.17,13.2,10.03,17,10.03C20.83,10.03,23.97,13.16,23.97,17C23.97,20.8,20.84,23.97,17,23.97C13.2,23.97,10.03,20.8,10.03,17Z" fill="currentColor"/><path d="M13.33,20.6C13.8,21.07,14.26,21.1,14.76,20.6L16.96,18.4L19.23,20.6C19.7,21.07,20.16,21.07,20.63,20.6C21.1,20.13,21.13,19.63,20.63,19.17L18.4,16.97L20.63,14.74C21.1,14.27,21.1,13.81,20.63,13.34C20.16,12.87,19.7,12.84,19.2,13.34L16.97,15.57L14.77,13.37C14.3,12.9,13.84,12.9,13.37,13.37C12.9,13.84,12.87,14.34,13.37,14.8L15.57,16.97L13.34,19.2C12.87,19.67,12.87,20.13,13.34,20.6Z" fill="currentColor"/></svg>