<svg xmlns="http://www.w3.org/2000/svg" viewBox="0 0 24 24"><path d="M8.42,10.11C8.36,10.5,8.33,10.9,8.33,11.3C8.33,11.51,8.34,11.71,8.35,11.92L2.13,11.37C-0.34,11.14,-0.34,10.87,2.13,10.67Z" fill="currentColor"/><path d="M3.27,5.8L10.72,5.09C10.24,5.7,9.79,6.39,9.41,7.13L3.26,6.54C0.83,6.31,0.83,6.04,3.26,5.81Z" fill="currentColor"/><path d="M9.11,14.93C9.34,15.46,9.59,15.95,9.87,16.4C9.59,16.5,9.32,16.61,9.07,16.73L4.6,16.27C2.17,16,2.17,15.67,4.6,15.4Z" fill="currentColor"/><path d="M19.53,16.67L12.46,16.67C11.86,16,10.33,14,10.33,11.3C10.33,7.33,13.9,4.67,13.9,4.67C13.67,3.64,13.67,3.44,13.67,3.17C13.67,1.77,14.7,0.67,16,0.67C17.3,0.67,18.33,1.77,18.33,3.17C18.33,3.57,18.26,4.27,17.7,5.04L17.03,5.94C15.86,7.57,15.36,8.77,15.06,10.74L14.86,12.01L16.43,12.01L16.7,10.48C16.93,9.11,17.27,8.28,18.1,7.15L19.2,5.62C20.23,6.72,21.67,8.75,21.67,11.32C21.67,14.02,20.17,16.02,19.54,16.69Z" fill="currentColor"/><path d="M8.5,20.67C8.5,19.04,10,18,12.47,18L19.54,18C22.01,18,23.51,19.03,23.51,20.67L23.51,22L8.51,22Z" fill="currentColor"/></svg>