<svg xmlns="http://www.w3.org/2000/svg" viewBox="0 0 24 24" fill="currentColor"><path d="M7,20.5L7,19.5C7,18.18,8,17.5,9.98,17.5L16,17.5C17.97,17.5,19,18.17,19,19.5L19,20.5ZM20.5,7.95C20.5,8.53,20.03,9.15,19.35,9.25L16.97,16.5L9.02,16.5L6.62,9.25C5.97,9.15,5.5,8.6,5.5,7.95C5.5,7.28,6.05,6.68,6.75,6.68C7.4,6.68,7.97,7.26,7.97,7.98C7.97,8.28,7.9,8.52,7.7,8.75L9.97,11.7L10.25,7.1C9.62,6.89,9.35,6.5,9.35,5.84C9.35,5.09,9.92,4.49,10.67,4.49C11.42,4.49,11.97,5.09,11.97,5.84C11.97,6.29,11.82,6.67,11.47,6.95L12.99,11.5L14.49,6.95C14.14,6.67,13.97,6.29,13.97,5.84C13.97,5.15,14.54,4.5,15.29,4.5C16.04,4.5,16.62,5.09,16.62,5.84C16.62,6.5,16.34,6.89,15.72,7.1L16.02,11.69L18.27,8.75C18.07,8.52,17.97,8.27,17.97,7.97C17.97,7.3,18.55,6.68,19.22,6.68C20,6.68,20.5,7.38,20.5,7.95Z"/></svg>