<svg xmlns="http://www.w3.org/2000/svg" viewBox="0 0 24 24" fill="currentColor"><path d="M10.31,11.58C10.27,11.88,10.25,12.17,10.25,12.47C10.25,12.63,10.25,12.78,10.26,12.94L5.6,12.53C3.74,12.35,3.74,12.15,5.6,12ZM6.45,8.35L12.04,7.82C11.68,8.27,11.34,8.79,11.06,9.35L6.44,8.9C4.62,8.73,4.62,8.53,6.44,8.36ZM10.83,15.2C11,15.6,11.19,15.96,11.4,16.3C11.19,16.38,10.99,16.46,10.8,16.55L7.45,16.2C5.63,16,5.63,15.75,7.45,15.55ZM18.65,16.5L13.35,16.5C12.9,16,11.75,14.5,11.75,12.48C11.75,9.5,14.43,7.5,14.43,7.5C14.25,6.73,14.25,6.58,14.25,6.38C14.25,5.33,15.03,4.5,16,4.5C16.98,4.5,17.75,5.33,17.75,6.38C17.75,6.68,17.7,7.2,17.27,7.78L16.77,8.46C15.89,9.68,15.52,10.58,15.29,12.06L15.14,13.01L16.32,13.01L16.52,11.86C16.7,10.83,16.95,10.21,17.57,9.36L18.4,8.22C19.17,9.04,20.25,10.56,20.25,12.49C20.25,14.52,19.13,16.02,18.66,16.52ZM10.38,19.5C10.38,18.28,11.5,17.5,13.35,17.5L18.66,17.5C20.51,17.5,21.63,18.27,21.63,19.5L21.63,20.5L10.38,20.5Z"/></svg>