<svg xmlns="http://www.w3.org/2000/svg" viewBox="0 0 24 24" fill="currentColor"><path d="M7.8,19.75C7.8,18.45,8.23,17.2,9.28,16.43C11.25,14.93,11.53,13.56,11.61,12.68L11.61,12L10.01,12C9.84,11.65,9.73,11.35,9.73,10.95L11.53,9.77C10.91,9.32,10.5,8.6,10.5,7.75C10.5,6.38,11.61,5.25,13,5.25C14.4,5.25,15.5,6.38,15.5,7.75C15.5,8.6,15.1,9.32,14.47,9.77L16.27,10.95C16.27,11.35,16.17,11.65,15.99,12L14.39,12L14.39,12.68C14.47,13.56,14.75,14.93,16.72,16.43C17.77,17.2,18.2,18.45,18.2,19.75C18.2,19.85,17.97,20.73,13,20.75C8.03,20.72,7.8,19.85,7.8,19.75Z"/></svg>