<svg xmlns="http://www.w3.org/2000/svg" viewBox="0 0 24 24"><path d="M16.63,18.73L7.33,18.73C7.1,17.13,6.13,16.1,5.36,15.03C4.13,13.33,2.99,12.13,2.99,10.26C2.99,7.49,4.79,5.69,7.22,5.69C8.75,5.69,9.79,6.16,10.35,6.52L11.02,3.99L8.65,3.99L8.65,1.99L10.98,1.99L10.98,-0.01L12.98,-0.01L12.98,1.99L15.31,1.99L15.31,3.99L13.01,3.99L13.58,6.52C14.15,6.15,15.18,5.69,16.71,5.69C19.24,5.69,20.98,7.62,20.98,10.26C20.98,12.13,19.81,13.33,18.58,15.03C17.81,16.1,16.85,17.13,16.61,18.73Z" fill="currentColor"/><path d="M13.83,13.3L15.13,13.3C15.8,12.53,17.3,11.57,17.3,10.5C17.3,9.73,16.73,9.23,15.83,9.23C14.96,9.23,13.83,10.03,13.83,10.03Z" fill="currentColor"/><path d="M10.17,13.3L10.17,10.03C10.17,10.03,9.04,9.23,8.17,9.23C7.27,9.23,6.7,9.73,6.7,10.5C6.7,11.57,8.2,12.53,8.87,13.3Z" fill="currentColor"/><path d="M4,22L4,20.67C4,19.04,5.5,18,7.97,18L16,18C18.5,18,20,19.03,20,20.67L20,22Z" fill="currentColor"/></svg>