<svg xmlns="http://www.w3.org/2000/svg" viewBox="0 0 24 24" fill="currentColor"><path d="M16.47,18.05L9.5,18.05C9.32,16.85,8.6,16.08,8.02,15.27C7.1,14,6.24,13.1,6.24,11.7C6.24,9.62,7.59,8.27,9.41,8.27C10.56,8.27,11.34,8.62,11.76,8.89L12.26,6.99L10.49,6.99L10.49,5.49L12.23,5.49L12.23,3.99L13.73,3.99L13.73,5.49L15.48,5.49L15.48,6.99L13.76,6.99L14.18,8.89C14.61,8.61,15.38,8.27,16.53,8.27C18.43,8.27,19.73,9.71,19.73,11.7C19.73,13.1,18.86,14,17.93,15.27C17.36,16.08,16.64,16.85,16.46,18.05ZM14.37,13.98L15.35,13.98C15.85,13.4,16.97,12.68,16.97,11.88C16.97,11.3,16.55,10.92,15.87,10.92C15.22,10.92,14.37,11.52,14.37,11.52ZM11.63,13.98L11.63,11.52C11.63,11.52,10.78,10.92,10.13,10.92C9.45,10.92,9.02,11.3,9.02,11.88C9.02,12.68,10.15,13.4,10.65,13.98ZM7,20.5L7,19.5C7,18.28,8.13,17.5,9.98,17.5L16,17.5C17.88,17.5,19,18.27,19,19.5L19,20.5Z"/></svg>