<svg xmlns="http://www.w3.org/2000/svg" viewBox="0 0 24 24"><path d="M7.17,10.03C7.17,10.03,6.04,9.23,5.17,9.23C4.27,9.23,3.7,9.73,3.7,10.5C3.7,11.57,5.2,12.53,5.87,13.3L7.17,13.3Z" fill="currentColor"/><path d="M1,20.67C1,19.22,2.18,18.24,4.18,18.04C3.81,16.82,3.02,15.94,2.37,15.04C1.14,13.34,0,12.14,0,10.27C0,7.5,1.8,5.7,4.23,5.7C5.76,5.7,6.8,6.17,7.36,6.53L8.03,4L5.66,4L5.66,2L7.99,2L7.99,0L9.99,0L9.99,2L12.32,2L12.32,3.97L9.99,3.97L9.99,22L0.99,22Z" fill="currentColor"/><path d="M20.8,10L15.33,10C13.96,10,12.6,9.37,12.6,7.73C12.6,6.36,13.6,5.5,14.9,5.5C16.6,5.5,17.8,7,18.4,9.23L17.67,9.23C18.27,6.96,19.5,5.5,21.14,5.5C22.47,5.5,23.41,6.43,23.41,7.73C23.41,9.36,22.04,10,20.81,10Z" fill="currentColor"/><path d="M13.43,22C12.4,22,12,21.6,12,20.57L12,18L17,18L17,22Z" fill="currentColor"/><path d="M12,13.43C12,12.4,12.4,12,13.43,12L17,12L17,16L12,16Z" fill="currentColor"/><path d="M19,22L19,18L24,18L24,20.57C24,21.6,23.6,22,22.57,22Z" fill="currentColor"/><path d="M19,16L19,12L22.57,12C23.6,12,24,12.4,24,13.43L24,16Z" fill="currentColor"/><path d="M17.07,9.23C16.54,7.43,15.87,6.8,15,6.8C14.43,6.8,13.9,7.1,13.9,7.73C13.9,8.6,14.83,8.7,15.33,8.7L20.8,8.7C21.17,8.7,22.1,8.6,22.1,7.73C22.1,7.1,21.57,6.8,21.03,6.8C20.26,6.8,19.5,7.43,19,9.23Z" fill="currentColor"/></svg>