<svg xmlns="http://www.w3.org/2000/svg" viewBox="0 0 24 24" fill="currentColor"><path d="M15.65,20.5L4.35,20.5C4.35,16.25,8.62,16.43,8.62,13.05L8.62,12.6L7.02,12.6C6.8,12.25,6.75,11.88,6.75,11.48L8.6,10.35L8.47,10.23C7.82,9.57,7.29,8.9,7.29,7.98C7.29,6.48,8.52,5.25,9.99,5.25C11.47,5.25,12.69,6.48,12.69,7.98C12.69,8.9,12.19,9.68,11.49,10.23L11.34,10.35L13.24,11.48C13.24,11.88,13.11,12.25,12.96,12.6L11.37,12.6L11.37,13.05C11.37,16.43,15.64,16.23,15.64,20.5ZM18.33,16.52C18.03,16.88,17.67,16.88,17.35,16.55L17.3,16.5C16.98,16.17,16.98,15.82,17.27,15.47C18.42,14.1,19.02,12.41,19.02,10.74C19.02,9.07,18.42,7.37,17.28,6.02C16.98,5.66,16.98,5.32,17.3,4.99L17.35,4.94C17.67,4.61,18.03,4.61,18.33,4.94C19.75,6.61,20.48,8.69,20.48,10.73C20.48,12.78,19.75,14.86,18.33,16.51ZM15.68,13.9C15.4,14.22,15.06,14.25,14.73,13.92L14.67,13.87C14.35,13.55,14.32,13.17,14.62,12.82C15.05,12.2,15.27,11.47,15.27,10.74C15.27,10.02,15.05,9.29,14.62,8.67C14.32,8.31,14.34,7.94,14.67,7.62L14.73,7.56C15.05,7.24,15.4,7.26,15.68,7.58C16.41,8.51,16.78,9.63,16.78,10.73C16.78,11.84,16.41,12.96,15.68,13.88Z"/></svg>