<svg xmlns="http://www.w3.org/2000/svg" viewBox="0 0 24 24"><path d="M19.53,22L4.46,22C3.93,17.83,4.53,16.7,7.86,14.1C6.26,12.6,6.09,10.97,7.43,9.4C7.26,8.87,7.16,8.33,7.16,7.8C7.16,5.13,9.33,3,11.99,3C14.66,3,16.82,5.13,16.82,7.8C16.82,8.33,16.72,8.87,16.55,9.4C17.88,10.93,17.72,12.6,16.22,14.13C19.49,16.73,20.02,17.86,19.52,22Z" fill="currentColor"/><path d="M6.33,20L17.66,20C17.66,17.97,17.13,17.43,15.89,16.5C14.92,15.73,13.79,14.9,13.46,12.37L15.03,12.37C15.26,12.04,15.33,11.37,15.33,11.04L13.56,10.24C14.33,9.67,14.83,8.74,14.83,7.81C14.83,6.24,13.56,5.01,12,5.01C10.43,5.01,9.17,6.24,9.17,7.81C9.17,8.74,9.67,9.68,10.44,10.24L8.67,11.04C8.67,11.37,8.77,12.04,8.97,12.37L10.54,12.37C10.17,14.97,9.07,15.8,8.11,16.54C6.88,17.44,6.34,17.97,6.34,20.01Z" fill="currentColor"/></svg>