<svg xmlns="http://www.w3.org/2000/svg" viewBox="0 0 24 24" fill="currentColor"><path d="M9,16.5L9.9,11.01L16.11,11.01L17,16.5ZM7,20.5L7,19.5C7,18.18,8,17.5,9.98,17.5L16,17.5C17.97,17.5,19,18.17,19,19.5L19,20.5ZM15.95,10L10.04,10C9.14,9.7,8.79,9.08,8.75,8.43L8.57,6.23C9.02,5.98,9.53,5.85,10.07,5.85L10.47,7.5L11.75,7.5L11.99,5.61C11.99,5.61,12.52,5.51,12.99,5.51C13.46,5.51,13.99,5.61,13.99,5.61L14.21,7.5L15.51,7.5L15.91,5.85C16.46,5.85,16.96,5.98,17.41,6.23L17.24,8.43C17.18,9.08,16.84,9.7,15.94,10Z"/></svg>