<svg xmlns="http://www.w3.org/2000/svg" viewBox="0 0 24 24" fill="currentColor"><path d="M14.5,13C14.5,10.73,16.5,11.07,16.7,8.85L16.72,8.46L15.82,8.46C15.69,8.25,15.65,8,15.65,7.78L16.72,7.16C16.14,6.83,15.95,6.33,15.95,5.83C15.95,4.93,16.67,4.25,17.52,4.25C18.37,4.25,19.08,4.93,19.08,5.83C19.08,6.35,18.9,6.78,18.3,7.13L19.38,7.78C19.38,8,19.32,8.25,19.2,8.46L18.3,8.46L18.33,8.85C18.53,11.08,20.5,10.73,20.5,13ZM12.8,18.95L4.09,18.95C3.64,14.73,5.01,14.81,5.76,13.84C5.13,13.15,5.06,12.09,5.55,11.3C5.43,10.97,5.36,10.64,5.36,10.35C5.36,8.67,6.86,7.2,8.53,7.2C10.2,7.2,11.68,8.67,11.68,10.35C11.68,10.63,11.61,10.95,11.49,11.28C11.99,12.04,11.94,13.08,11.35,13.78C12.13,14.85,13.52,16.04,12.81,18.95ZM11.5,17.45C11.5,14.9,9.8,15.87,9.4,13.02L10.28,13.02C10.48,12.75,10.48,12.5,10.48,12.25L9.45,11.78C9.88,11.43,10.18,10.9,10.18,10.35C10.18,9.43,9.45,8.7,8.53,8.7C7.61,8.7,6.86,9.43,6.86,10.35C6.86,10.9,7.16,11.42,7.61,11.78L6.58,12.25C6.58,12.48,6.58,12.75,6.75,13.02L7.65,13.02C7.2,16.05,5.5,14.82,5.5,17.45ZM15.82,20.95L17.47,19.3L19.17,20.95C19.52,21.3,19.87,21.3,20.22,20.95C20.57,20.6,20.6,20.22,20.22,19.88L18.55,18.23L20.22,16.55C20.57,16.2,20.57,15.86,20.22,15.51C19.87,15.15,19.52,15.13,19.15,15.51L17.48,17.18L15.83,15.53C15.47,15.18,15.13,15.18,14.78,15.53C14.42,15.88,14.4,16.26,14.78,16.6L16.43,18.23L14.75,19.9C14.4,20.25,14.4,20.6,14.75,20.95C15.1,21.3,15.44,21.33,15.82,20.95Z"/></svg>