<svg xmlns="http://www.w3.org/2000/svg" viewBox="0 0 24 24"><path d="M19.83,10.67C22.3,10.87,22.3,11.14,19.83,11.37L15.65,11.74C15.66,11.6,15.66,11.45,15.66,11.3C15.66,10.96,15.64,10.62,15.59,10.29Z" fill="currentColor"/><path d="M18.7,5.8C21.13,6.03,21.13,6.3,18.7,6.53L14.49,6.93C14.18,6.34,13.82,5.79,13.44,5.29Z" fill="currentColor"/><path d="M17.37,15.4C19.8,15.67,19.8,16,17.37,16.27L14.56,16.56C14.42,16.5,14.28,16.45,14.13,16.4C14.37,16.01,14.6,15.59,14.8,15.14Z" fill="currentColor"/><path d="M11.53,16.67L4.46,16.67C3.86,16,2.33,14,2.33,11.3C2.33,7.33,5.9,4.67,5.9,4.67C5.67,3.64,5.67,3.44,5.67,3.17C5.67,1.77,6.7,0.67,8,0.67C9.3,0.67,10.33,1.77,10.33,3.17C10.33,3.57,10.26,4.27,9.7,5.04L9.03,5.94C7.86,7.57,7.36,8.77,7.06,10.74L6.86,12.01L8.43,12.01L8.7,10.48C8.93,9.11,9.27,8.28,10.1,7.15L11.2,5.62C12.23,6.72,13.67,8.75,13.67,11.32C13.67,14.02,12.17,16.02,11.54,16.69Z" fill="currentColor"/><path d="M0.5,20.67C0.5,19.04,2,18,4.47,18L11.54,18C14.01,18,15.51,19.03,15.51,20.67L15.51,22L0.51,22Z" fill="currentColor"/></svg>