<svg xmlns="http://www.w3.org/2000/svg" viewBox="0 0 24 24" fill="currentColor"><path d="M13,7.07C12.72,7.07,12.53,6.83,12.53,6.53C12.53,6.08,12.85,5.46,13,4.58C13.17,5.46,13.47,6.08,13.47,6.53C13.47,6.83,13.27,7.07,13,7.07ZM9.05,8.48C8.85,8.65,8.52,8.58,8.32,8.35C8.04,8,7.92,7.3,7.47,6.55C8.17,7.1,8.8,7.4,9.07,7.75C9.27,7.98,9.27,8.3,9.05,8.48ZM6.88,12.05C6.8,12.32,6.53,12.44,6.23,12.4C5.8,12.3,5.25,11.85,4.43,11.52C5.33,11.54,5.98,11.37,6.43,11.47C6.73,11.52,6.93,11.77,6.88,12.05ZM5.2,17.35C5.9,16.8,6.32,16.25,6.72,16.02C6.97,15.89,7.3,15.97,7.42,16.2C7.55,16.44,7.42,16.74,7.14,16.87C6.74,17.07,6.04,17.07,5.19,17.34ZM16.9,8.45C16.7,8.27,16.7,7.95,16.88,7.72C17.18,7.37,17.8,7.1,18.48,6.5C18.08,7.3,17.9,7.98,17.63,8.32C17.43,8.54,17.13,8.62,16.9,8.45ZM19.12,12C19.07,11.73,19.27,11.48,19.57,11.43C20,11.33,20.67,11.5,21.57,11.48C20.75,11.83,20.2,12.25,19.77,12.36C19.47,12.41,19.17,12.28,19.12,12ZM20.85,17.27C19.97,17.05,19.3,17.03,18.9,16.82C18.62,16.67,18.5,16.4,18.62,16.15C18.75,15.9,19.05,15.85,19.32,15.98C19.72,16.18,20.12,16.75,20.84,17.27ZM9.85,15.02C9.78,15.1,8.8,14.88,8.43,14.57C8.2,14.35,8.18,13.97,8.4,13.65L9.33,12.35C9.78,11.75,9.78,11.4,10,10.78C10.08,10.63,10.15,10.38,10.45,10.13C10.75,9.88,10.98,9.68,11.07,9.38L11.2,8.83C11.22,8.66,11.37,8.51,11.52,8.51L12.55,9.54C14.65,9.66,16.9,11.16,16.9,14.31C16.9,15.74,16.13,17.63,16.02,18.59L10.42,18.71C10.22,16.71,11.57,15.64,12.24,15.06C12.69,14.69,13.17,14.21,13.17,13.71C13.17,13.31,12.92,12.98,12.84,12.87L12.52,13.22C12.22,13.54,11.67,14.1,11.04,14.1C10.24,14.12,10.22,14.7,9.84,15.05ZM8.75,20.5L8.75,19.75C8.75,18.83,9.6,18.25,10.98,18.25L15.5,18.25C16.9,18.25,17.75,18.83,17.75,19.75L17.75,20.5Z"/></svg>