<svg xmlns="http://www.w3.org/2000/svg" viewBox="0 0 24 24" fill="currentColor"><path d="M14.78,11.57C14.7,11.63,13.93,11.45,13.65,11.2C13.45,11.03,13.43,10.73,13.63,10.47L14.38,9.42C14.7,8.95,14.7,8.67,14.9,8.17C14.96,8.04,15.03,7.85,15.28,7.64C15.5,7.44,15.68,7.29,15.75,7.04L15.85,6.59C15.87,6.47,16,6.35,16.13,6.35L16.95,7.17C18.6,7.27,20.42,8.47,20.42,10.97C20.42,12.03,19.91,13.36,19.77,14.18C20.61,14.29,21.11,14.73,21.11,15.35L21.11,15.95L17.45,15.95L13.91,15.33C13.92,14.73,14.41,14.3,15.22,14.19C15.23,12.79,16.2,12.03,16.71,11.61C17.09,11.31,17.46,10.91,17.46,10.5C17.46,10.2,17.26,9.93,17.18,9.83L16.94,10.13C16.69,10.38,16.26,10.83,15.76,10.83C15.11,10.83,15.08,11.28,14.78,11.58ZM9.36,14.52L5.56,13.86C5.96,12.45,7.6,12.47,7.75,10.6L7.77,10.25L6.92,10.25C6.83,10.07,6.77,9.85,6.77,9.63L7.77,9.02C7.27,8.7,7.04,8.22,7.04,7.75C7.04,6.93,7.72,6.27,8.52,6.27C9.32,6.27,10,6.93,10,7.75C10,8.25,9.83,8.65,9.27,9L10.27,9.63C10.27,9.85,10.22,10.07,10.12,10.25L9.27,10.25L9.29,10.6C9.47,12.72,11.57,12.4,11.57,14.52ZM14.97,22L11.02,22C10.57,22,10.44,21.77,10.7,21.4L12.63,18.2L4.85,16.79C4.4,16.72,4.2,16.42,4.27,15.97L4.27,15.89C4.35,15.44,4.65,15.24,5.1,15.32L21.39,18.24C21.87,18.32,22.07,18.62,21.97,19.09C21.89,19.59,21.59,19.79,21.12,19.71L13.46,18.33L15.3,21.38C15.55,21.76,15.43,21.98,14.98,21.98Z"/></svg>