<svg xmlns="http://www.w3.org/2000/svg" viewBox="0 0 24 24" fill="currentColor"><path d="M8.48,13.2C8.35,13.3,7.05,13,6.58,12.6C6.26,12.3,6.23,11.8,6.53,11.38L7.78,9.63C8.36,8.83,8.36,8.38,8.68,7.55C8.75,7.33,8.88,7.01,9.28,6.68C9.68,6.33,9.96,6.08,10.11,5.68L10.25,4.93C10.31,4.71,10.5,4.5,10.71,4.5L12.08,5.88C14.85,6.05,17.88,8.03,17.88,12.23C17.88,14.15,16.83,16.67,16.7,17.95L9.22,18.1C8.97,15.42,10.74,14,11.67,13.25C12.27,12.75,12.89,12.1,12.89,11.43C12.89,10.9,12.57,10.47,12.45,10.3L12.02,10.77C11.62,11.2,10.89,11.95,10.07,11.95C9,11.97,8.96,12.72,8.47,13.2ZM7,20.5L7,19.5C7,18.28,8.13,17.5,9.98,17.5L16,17.5C17.88,17.5,19,18.27,19,19.5L19,20.5Z"/></svg>