<svg xmlns="http://www.w3.org/2000/svg" viewBox="0 0 24 24"><path d="M19.87,21.97L4.14,21.97C3.84,19.44,4.61,17.34,6.64,16.07C8.37,14.97,9.14,14.2,9.24,12.27L7.64,12.27C6.81,11.34,6.67,10.14,6.81,9.3L8.71,8.2C8.08,7.37,7.78,6.43,7.78,5.43C7.78,3.03,9.65,1.33,12.01,1.33C14.38,1.33,16.24,3.03,16.24,5.43C16.24,6.43,15.94,7.36,15.31,8.2L17.21,9.3C17.34,10.13,17.21,11.33,16.38,12.27L14.78,12.27C14.88,14.2,15.65,14.97,17.38,16.07C19.41,17.34,20.18,19.44,19.88,21.97Z" fill="currentColor"/><path d="M5.07,20.97L18.94,20.97C18.94,19.2,18.27,17.8,16.84,16.9C14.64,15.5,13.64,14.4,13.77,11.27L15.87,11.27C16.14,10.84,16.24,10.37,16.24,9.9L13.67,8.4C14.77,7.6,15.24,6.57,15.24,5.43C15.24,3.6,13.84,2.33,12.01,2.33C10.18,2.33,8.78,3.6,8.78,5.43C8.78,6.56,9.25,7.6,10.35,8.4L7.78,9.9C7.78,10.37,7.88,10.83,8.15,11.27L10.25,11.27C10.38,14.4,9.38,15.5,7.18,16.9C5.75,17.8,5.08,19.2,5.08,20.97Z" fill="currentColor"/></svg>