<svg xmlns="http://www.w3.org/2000/svg" viewBox="0 0 24 24" fill="currentColor"><path d="M20.4,11.78C22.25,11.9,22.25,12.1,20.4,12.25L18.42,12.41L18.67,11.64ZM20.42,8.65L20.39,8.66C20.45,8.48,20.48,8.29,20.49,8.11C22.25,8.28,22.22,8.48,20.42,8.65ZM19.28,15.3C21.1,15.5,21.1,15.75,19.28,15.96L17.16,16.19L17.52,15.12ZM17.5,20.5L5.5,20.5L5.5,19.5C5.5,18.18,6.53,17.5,8.5,17.5L14.52,17.5C16.5,17.5,17.5,18.17,17.5,19.5ZM6.53,7.98C6.53,8.28,6.43,8.52,6.23,8.75L8.48,11.7L8.78,7.1C8.15,6.89,7.88,6.5,7.88,5.84C7.88,5.09,8.46,4.49,9.21,4.49C9.96,4.49,10.53,5.15,10.53,5.84C10.53,6.29,10.36,6.67,10.01,6.95L11.51,11.5L13.03,6.95C12.68,6.67,12.53,6.29,12.53,5.84C12.53,5.09,13.07,4.5,13.82,4.5C14.57,4.5,15.15,5.09,15.15,5.84C15.15,6.5,14.87,6.89,14.25,7.1L14.53,11.69L16.8,8.75C16.6,8.52,16.52,8.27,16.52,7.97C16.52,7.25,17.1,6.68,17.75,6.68C18.45,6.68,19,7.28,19,7.95C19,8.6,18.53,9.15,17.88,9.25L15.48,16.5L7.53,16.5L5.15,9.25C4.47,9.15,4,8.52,4,7.95C4,7.37,4.5,6.68,5.28,6.68C5.95,6.68,6.53,7.3,6.53,7.98Z"/></svg>