<svg xmlns="http://www.w3.org/2000/svg" viewBox="0 0 24 24" fill="currentColor"><path d="M6.23,13.2C6.1,13.3,4.8,13,4.33,12.6C4.01,12.3,3.98,11.8,4.28,11.38L5.53,9.63C6.11,8.83,6.11,8.38,6.43,7.55C6.5,7.33,6.63,7.01,7.03,6.68C7.43,6.33,7.71,6.08,7.85,5.68L8,4.93C8.06,4.71,8.25,4.5,8.45,4.5L9.83,5.88C11.93,6.01,14.18,7.18,15.14,9.57C14.67,9.8,14.19,9.91,13.5,9.97C12,9.99,11.5,10.49,11.5,12L11.5,15.95C11.5,18.01,11.68,18.87,13.67,20.5L4.75,20.5L4.75,19.5C4.75,18.46,5.57,17.74,6.95,17.55C6.98,15.23,8.57,13.95,9.43,13.25C10.03,12.75,10.65,12.11,10.65,11.43C10.65,10.91,10.33,10.48,10.2,10.31L9.77,10.78C9.38,11.21,8.65,11.96,7.82,11.96C6.75,11.98,6.72,12.73,6.23,13.21ZM22,11.5C19.9,11.5,19.28,11.2,17.5,9.48C15.77,11.2,15.12,11.5,13,11.5L13,15.98C13,18.53,13.28,18.88,17.5,21.6C21.72,18.92,22,18.58,22,15.98Z"/></svg>