<svg xmlns="http://www.w3.org/2000/svg" viewBox="0 0 24 24" fill="currentColor"><path d="M11.39,11.49L11.13,13.02L5.63,12.53C3.78,12.35,3.78,12.15,5.63,12ZM6.47,8.35L10.18,8L10.25,9.23C10.25,9.24,10.25,9.25,10.25,9.27L6.47,8.91C4.65,8.73,4.65,8.53,6.47,8.36ZM10.73,15.21L10.57,16.17C10.38,16.26,10.2,16.36,10.04,16.47L7.47,16.2C5.65,16,5.65,15.75,7.47,15.55ZM12,16.5L12.9,11.01L19.11,11.01L20,16.5ZM10,19.5C10,18.18,11,17.5,12.98,17.5L19,17.5C20.97,17.5,22,18.17,22,19.5L22,20.5L10,20.5ZM18.95,10L13.04,10C12.14,9.7,11.79,9.08,11.75,8.43L11.57,6.23C12.02,5.98,12.53,5.85,13.07,5.85L13.47,7.5L14.75,7.5L14.99,5.61C14.99,5.61,15.52,5.51,15.99,5.51C16.46,5.51,16.99,5.61,16.99,5.61L17.21,7.5L18.51,7.5L18.91,5.85C19.46,5.85,19.96,5.98,20.41,6.23L20.24,8.43C20.18,9.08,19.84,9.7,18.94,10Z"/></svg>