<svg xmlns="http://www.w3.org/2000/svg" viewBox="0 0 24 24" fill="currentColor"><path d="M6.23,13.2C6.1,13.3,4.8,13,4.33,12.6C4.01,12.3,3.98,11.8,4.28,11.38L5.53,9.63C6.11,8.83,6.11,8.38,6.43,7.55C6.5,7.33,6.63,7.01,7.03,6.68C7.43,6.33,7.71,6.08,7.85,5.68L8,4.93C8.06,4.71,8.25,4.5,8.45,4.5L9.83,5.88C12.09,6.02,14.53,7.36,15.35,10.14C12.28,10.79,10.01,13.48,10.01,16.75C10.01,18.14,10.42,19.43,11.13,20.5L4.76,20.5L4.76,19.5C4.76,18.46,5.57,17.74,6.96,17.55C6.98,15.23,8.57,13.95,9.44,13.25C10.04,12.75,10.66,12.11,10.66,11.43C10.66,10.91,10.34,10.48,10.21,10.31L9.78,10.78C9.38,11.21,8.66,11.96,7.83,11.96C6.76,11.98,6.73,12.73,6.23,13.21ZM16.75,11.52C19.62,11.52,21.98,13.87,21.98,16.75C21.98,19.6,19.63,21.98,16.75,21.98C13.9,21.98,11.52,19.6,11.52,16.75C11.52,13.88,13.9,11.52,16.75,11.52ZM20.58,17.2C20.93,16.9,20.93,16.6,20.58,16.3L18.27,14.4C17.8,14,17.5,14.13,17.5,14.75L17.5,18.75C17.5,19.38,17.8,19.5,18.27,19.11ZM16,14.75C16,14.13,15.7,14,15.23,14.39L12.92,16.29C12.57,16.59,12.57,16.89,12.92,17.19L15.23,19.09C15.7,19.49,16,19.37,16,18.74Z"/></svg>