<svg xmlns="http://www.w3.org/2000/svg" viewBox="0 0 24 24" fill="currentColor"><path d="M10.77,11.13L11.84,17.13C11.08,17.84,10.32,18.73,10.32,20.49L7,20.49L7,5.55C7.2,5.52,7.49,5.49,7.75,5.49C8.2,5.49,8.73,5.59,8.73,5.59L8.93,7.49L10.2,7.49L10.58,5.84C11.13,5.84,11.61,5.96,12.17,6.21L12,9.11C11.95,9.82,11.62,10.5,10.76,11.12ZM11.83,20.5C11.83,17.6,14.7,18.05,14.96,15.15L14.98,14.68L13.83,14.68C13.68,14.43,13.61,14.13,13.61,13.83L14.98,13.01C14.31,12.56,14,11.94,14,11.26C14,10.16,14.9,9.26,16.01,9.26C17.11,9.26,18.01,10.16,18.01,11.26C18.01,11.96,17.79,12.48,17.04,12.98L18.41,13.83C18.41,14.13,18.33,14.43,18.21,14.68L17.03,14.68L17.08,15.15C17.3,18.05,20.18,17.6,20.18,20.5Z"/></svg>