<svg xmlns="http://www.w3.org/2000/svg" viewBox="0 0 24 24"><path d="M1.83,22L1.83,20.13C1.83,18.8,2.16,18,3.26,17.53C2.93,16.2,-0.01,14.7,-0.01,11.43C-0.01,8.4,2.09,6.66,4.52,6.5L4.52,2.73L6.75,2.73L6.75,0.5L11.25,0.5L11.25,2.73L12.12,2.73L12.12,4.06L11.25,4.06L9.88,4.06L9.88,1.83L8.11,1.83L8.11,4.06L5.84,4.06L5.84,5.86L8.14,5.86L8.14,5.89C7.16,6.32,6.31,7.01,5.7,7.9C3.52,7.48,1.31,8.74,1.31,11.43C1.31,14.2,4.04,15.26,4.54,17.16C5.25,17.03,6.12,16.97,7.19,16.94C7.2,16.95,7.2,16.96,7.21,16.96C7.35,17.15,7.49,17.33,7.63,17.5C7.31,17.73,7.04,17.99,6.8,18.27C3.82,18.34,3.18,18.68,3.18,20.12L3.18,20.65L5.82,20.65C5.82,20.69,5.82,20.74,5.82,20.78L5.82,21.98Z" fill="currentColor"/><path d="M16.67,14.2L17.8,14.2C18.4,13.53,19.77,12.67,19.77,11.7C19.77,11,19.24,10.57,18.44,10.57C17.67,10.57,16.67,11.27,16.67,11.27Z" fill="currentColor"/><path d="M13.37,14.2L13.37,11.27C13.37,11.27,12.37,10.57,11.57,10.57C10.77,10.57,10.27,11,10.27,11.7C10.27,12.67,11.6,13.53,12.2,14.2Z" fill="currentColor"/><path d="M7.83,22L7.83,20.8C7.83,19.53,8.9,18.67,10.63,18.43C10.16,17.36,9.43,16.56,8.83,15.76C7.66,14.23,6.63,13.16,6.63,11.49C6.63,8.99,8.3,7.39,10.56,7.39C11.99,7.39,12.93,7.79,13.49,8.12L14.12,5.85L12.02,5.85L12.02,4.05L14.12,4.05L14.12,1.98L15.89,1.98L15.89,4.05L17.99,4.05L17.99,5.85L15.92,5.85L16.49,8.12C17.02,7.79,17.99,7.39,19.42,7.39C21.79,7.39,23.39,9.12,23.39,11.49C23.39,13.16,22.32,14.22,21.16,15.76C20.56,16.56,19.79,17.36,19.36,18.43C21.13,18.66,22.16,19.53,22.16,20.8L22.16,22Z" fill="currentColor"/></svg>