<svg xmlns="http://www.w3.org/2000/svg" viewBox="0 0 24 24"><path d="M0.03,22C0.03,17.6,4.1,18.33,4.46,14L4.53,13.27L2.76,13.27C2.53,12.8,2.46,12.37,2.46,11.94L4.53,10.71C3.46,10.08,3.03,9.08,3.03,8.14C3.03,6.44,4.43,5.11,6.06,5.11C7.07,5.11,7.98,5.62,8.53,6.41C7,7.47,6,9.3,6,11.51C6,13.38,7.33,15.35,8.47,16.94C8.59,17.11,8.7,17.27,8.81,17.41C7.53,18.28,6.83,19.59,6.83,20.81L6.83,22.01Z" fill="currentColor"/><path d="M17.67,14.2L18.8,14.2C19.4,13.53,20.77,12.67,20.77,11.7C20.77,11,20.24,10.57,19.44,10.57C18.67,10.57,17.67,11.27,17.67,11.27Z" fill="currentColor"/><path d="M14.37,14.2L14.37,11.27C14.37,11.27,13.37,10.57,12.57,10.57C11.77,10.57,11.27,11,11.27,11.7C11.27,12.67,12.6,13.53,13.2,14.2Z" fill="currentColor"/><path d="M8.83,22L8.83,20.8C8.83,19.53,9.9,18.67,11.63,18.43C11.36,17.36,10.66,16.56,10.1,15.76C9,14.23,8,13.16,8,11.49C8,8.99,9.6,7.39,11.77,7.39C13.14,7.39,14,7.79,14.57,8.12L15.14,5.99L13.04,5.99L13.04,3.99L15.14,3.99L15.14,1.99L16.91,1.99L16.91,3.99L19.01,3.99L19.01,5.99L16.94,5.99L17.41,8.12C17.94,7.79,18.84,7.39,20.21,7.39C22.48,7.39,24.01,9.12,24.01,11.49C24.01,13.16,22.98,14.22,21.88,15.76C21.31,16.56,20.58,17.36,20.38,18.43C22.15,18.66,23.18,19.53,23.18,20.8L23.18,22Z" fill="currentColor"/></svg>