<svg xmlns="http://www.w3.org/2000/svg" viewBox="0 0 24 24" fill="currentColor"><path d="M9.57,17.37L8.88,17.62C8.52,16.7,8.07,16.34,7.55,15.84C6.65,14.96,5.7,13.82,5.7,12.14C5.7,10.19,7.02,8.45,9.37,8.45C10.27,8.45,11,8.72,11.57,9.02L11.72,7.97L10.14,7.97L10.14,5.5L11.74,5.5L11.74,4L14.24,4L14.24,5.5L15.81,5.5L15.81,7.97L14.29,7.97L14.39,9C15.01,8.7,15.76,8.45,16.64,8.45C19.04,8.45,20.29,10.31,20.29,12.18C20.29,13.83,19.34,14.93,18.41,15.86C17.79,16.46,17.42,16.73,17.09,17.63L16.39,17.39C16.77,16.34,17.29,15.91,17.91,15.31C18.76,14.46,19.54,13.53,19.54,12.18C19.54,10.66,18.54,9.2,16.64,9.2C15.41,9.2,14.54,9.78,13.79,10.23L13.43,7.23L15.06,7.23L15.06,6.26L13.49,6.26L13.49,4.76L12.49,4.76L12.49,6.26L10.89,6.26L10.89,7.23L12.56,7.23L12.17,10.21C11.32,9.76,10.57,9.21,9.37,9.21C7.47,9.21,6.44,10.56,6.44,12.16C6.44,13.53,7.19,14.48,8.04,15.31C8.57,15.81,9.14,16.26,9.56,17.39ZM8.2,19.75L17.8,19.75L17.8,19.38C17.8,18.2,17.03,17.78,13,17.78C8.97,17.78,8.2,18.21,8.2,19.38ZM7.45,20.5L7.45,19.38C7.45,17.65,8.63,17.03,13,17.03C17.37,17.03,18.55,17.65,18.55,19.38L18.55,20.5ZM13.97,15.05L13.97,12.05C14.35,11.62,15.12,11.1,15.9,11.1C16.78,11.1,17.3,11.79,17.3,12.42C17.3,13.52,15.83,14.65,15.5,15.05ZM14.73,12.38L14.73,14.3L15.18,14.3C15.55,13.93,16.55,13.08,16.55,12.43C16.55,12.15,16.3,11.85,15.9,11.85C15.5,11.85,15.05,12.1,14.72,12.38ZM12.02,15.05L10.5,15.05C10.18,14.65,8.7,13.52,8.7,12.42C8.7,11.8,9.23,11.1,10.13,11.1C10.88,11.1,11.65,11.62,12.02,12.05ZM11.27,14.3L11.27,12.37C10.95,12.09,10.52,11.85,10.13,11.85C9.7,11.85,9.45,12.15,9.45,12.42C9.45,13.08,10.45,13.92,10.82,14.3Z"/></svg>