<svg xmlns="http://www.w3.org/2000/svg" viewBox="0 0 24 24"><path d="M1.44,11.47C1.01,11.07,0.97,10.4,1.37,9.84L3.04,7.51C3.81,6.44,3.81,5.84,4.24,4.74C4.34,4.44,4.51,4.01,5.04,3.57C5.57,3.1,5.94,2.77,6.14,2.24L6.34,1.24C6.41,0.94,6.67,0.67,6.94,0.67L8.77,2.5C10.72,2.62,12.75,3.41,14.25,4.94L10.74,8.53C10.4,8.87,10.11,9.21,9.84,9.56C9.74,9.02,9.41,8.59,9.27,8.4L8.7,9.03C8.17,9.6,7.2,10.6,6.1,10.6C4.67,10.63,4.63,11.63,3.97,12.27C3.8,12.4,2.07,12,1.44,11.47Z" fill="currentColor"/><path d="M2,20.67C2,19.28,3.09,18.32,4.94,18.07C4.97,14.97,7.09,13.27,8.24,12.34C8.31,12.28,8.37,12.23,8.44,12.17C8.14,13.09,8.01,14.04,8.01,15.01C8.01,17.85,9.3,20.36,11.33,22.01L2.01,22.01Z" fill="currentColor"/><path d="M22.9,18.73C22.53,19.23,22.07,19.26,21.63,18.9L21.53,18.8C21.1,18.43,21.03,17.93,21.36,17.43C21.76,16.7,21.99,15.86,21.99,15C21.99,12.23,19.72,10,16.96,10L16.96,8C20.79,8,23.99,11.17,23.99,15C23.99,16.37,23.59,17.67,22.89,18.73Z" fill="currentColor"/><path d="M17.03,20L17.03,22C13.2,22,10,18.83,10,15C10,13.63,10.4,12.33,11.1,11.27C11.47,10.77,11.93,10.74,12.37,11.1L12.47,11.2C12.9,11.57,12.97,12.07,12.64,12.57C12.24,13.3,12.01,14.14,12.01,15C12.01,17.77,14.28,20,17.04,20Z" fill="currentColor"/><path d="M18,23.66C17.37,24.23,17,24.06,17,23.23L17,18.76C17,17.93,17.37,17.76,18,18.33L20.53,20.56C20.86,20.86,20.86,21.13,20.53,21.43Z" fill="currentColor"/><path d="M17,11.24C17,12.07,16.63,12.24,16,11.67L13.47,9.44C13.14,9.14,13.14,8.87,13.47,8.57L16,6.34C16.63,5.77,17,5.94,17,6.77Z" fill="currentColor"/><path d="M17,11.24C17,12.07,16.63,12.24,16,11.67L13.47,9.44C13.14,9.14,13.14,8.87,13.47,8.57L16,6.34C16.63,5.77,17,5.94,17,6.77Z" fill="currentColor"/></svg>