<svg xmlns="http://www.w3.org/2000/svg" viewBox="0 0 24 24" fill="currentColor"><path d="M18.65,20.5L7.35,20.5C6.95,17.37,7.4,16.52,9.9,14.58C8.7,13.45,8.57,12.23,9.57,11.05C9.45,10.65,9.37,10.25,9.37,9.85C9.37,7.85,11,6.25,12.99,6.25C15,6.25,16.62,7.85,16.62,9.85C16.62,10.25,16.54,10.65,16.41,11.05C17.41,12.2,17.29,13.45,16.17,14.6C18.62,16.55,19.02,17.4,18.64,20.5ZM8.75,19L17.25,19C17.25,17.48,16.85,17.07,15.92,16.38C15.19,15.8,14.34,15.17,14.1,13.28L15.27,13.28C15.45,13.03,15.5,12.53,15.5,12.28L14.17,11.68C14.75,11.25,15.12,10.55,15.12,9.86C15.12,8.68,14.17,7.76,13,7.76C11.82,7.76,10.88,8.68,10.88,9.86C10.88,10.56,11.25,11.26,11.83,11.68L10.5,12.28C10.5,12.53,10.58,13.03,10.73,13.28L11.91,13.28C11.63,15.23,10.8,15.85,10.08,16.41C9.16,17.08,8.76,17.48,8.76,19.01Z"/></svg>