<svg xmlns="http://www.w3.org/2000/svg" viewBox="0 0 24 24" fill="currentColor"><path d="M7.85,18.9L7.85,19.38L18.14,19.38L18.14,18.9C18.14,17.38,17.19,17.05,12.99,17.05C8.79,17.05,7.84,17.37,7.84,18.9ZM6.72,20.5L6.72,18.9C6.72,16.73,7.87,15.93,13,15.93C18.12,15.93,19.28,16.73,19.28,18.9L19.28,20.5ZM9.53,17.03L8.4,17.03C8.4,13.56,10.95,12.83,12.28,12.53C11.63,13,11,13.38,10.23,13.38C10.33,13.38,9.98,13.8,9.56,14.2C8.88,14.8,7.13,14.33,6.38,13.65C5.58,13,5.54,11.88,6.11,11.05L7.28,9.48C7.66,8.93,7.51,8.93,7.94,7.85C8.06,7.5,8.26,7.08,8.78,6.6C9.06,6.37,9.16,6.27,9.18,6.22L9.31,5.62C9.51,4.72,10.51,4.12,11.51,4.47L12.61,5.65C18.08,6.4,19.94,11.82,17.06,17.13L16.06,16.58C18.63,11.85,17.11,7.18,12.06,6.73L10.94,5.51C10.69,5.51,10.46,5.66,10.41,5.88L10.26,6.56C10.13,6.93,9.89,7.16,9.51,7.46C9.16,7.78,9.06,8.06,8.99,8.26C8.69,9.01,8.69,9.44,8.19,10.13L7.04,11.71C6.76,12.11,6.79,12.56,7.11,12.81C7.51,13.19,8.69,13.46,8.81,13.36C9.24,12.96,9.29,12.26,10.24,12.26C11.04,12.26,11.81,11.38,12.39,10.73C14.14,13.19,9.54,13.31,9.54,17.04Z"/></svg>