<svg xmlns="http://www.w3.org/2000/svg" viewBox="0 0 24 24"><path d="M17.77,17.73L16.77,17.86L15.34,8.93L16.34,8.8Z" fill="currentColor"/><path d="M7.97,9.23C6.57,8.8,6.07,7.9,6,6.96L5.73,3.13C6.16,2.9,7.63,2.4,8.7,2.46L9.2,4.66L9.93,4.66L10.2,2.16C11.37,1.93,12.6,1.93,13.73,2.16L14.06,4.66L14.79,4.66L15.29,2.46C16.36,2.39,17.82,2.89,18.26,3.13L17.99,6.96C17.92,7.89,17.42,8.79,16.02,9.23C12.92,8.8,11.05,8.8,7.95,9.23Z" fill="currentColor"/><path d="M8.07,8.23C11.07,7.8,12.94,7.8,15.94,8.23C16.71,7.93,16.94,7.5,17.01,6.9L17.21,3.77C16.91,3.67,16.51,3.57,16.11,3.5L15.61,5.67L13.21,5.67L12.88,3.04C12.28,2.97,11.75,2.97,11.15,3.04L10.82,5.67L8.42,5.67L7.92,3.5C7.52,3.57,7.12,3.67,6.82,3.77L7.02,6.9C7.09,7.5,7.32,7.93,8.09,8.23Z" fill="currentColor"/><path d="M7.67,8.8L8.67,8.93L7.24,17.86L6.24,17.73Z" fill="currentColor"/><path d="M5,20.97L19,20.97L19,20.47C19,18.87,18.07,18.27,12,18.27C5.93,18.27,5,18.87,5,20.47Z" fill="currentColor"/><path d="M4,21.97L4,20.47C4,18.17,5.3,17.27,12,17.27C18.7,17.27,20,18.17,20,20.47L20,21.97Z" fill="currentColor"/></svg>