<svg xmlns="http://www.w3.org/2000/svg" viewBox="0 0 24 24"><path d="M3.97,12.27C3.8,12.4,2.07,12,1.44,11.47C1.01,11.07,0.97,10.4,1.37,9.84L3.04,7.51C3.81,6.44,3.81,5.84,4.24,4.74C4.34,4.44,4.51,4.01,5.04,3.57C5.57,3.1,5.94,2.77,6.14,2.24L6.34,1.24C6.41,0.94,6.67,0.67,6.94,0.67L8.77,2.5C10.34,2.6,11.98,3.13,13.33,4.14C11.89,4.54,10.97,5.78,10.97,7.44C11,11.25,11.68,12.59,13.27,14.03C11.3,15.92,10.98,17.45,10.97,22L2,22L2,20.67C2,19.28,3.09,18.32,4.94,18.07C4.97,14.97,7.09,13.27,8.24,12.34C9.04,11.67,9.87,10.81,9.87,9.91C9.87,9.21,9.44,8.64,9.27,8.41L8.7,9.04C8.17,9.61,7.2,10.61,6.1,10.61C4.67,10.64,4.63,11.64,3.97,12.28Z" fill="currentColor"/><path d="M14.44,22C13.41,22,13.01,21.6,13.01,20.57C13.04,16.67,13.38,16.44,16.44,14C13.37,11.57,13.04,11.37,13.01,7.47C13.01,6.44,13.41,6.04,14.44,6.04L22.57,6.04C23.6,6.04,24,6.44,24,7.47C23.97,11.37,23.63,11.57,20.57,14C23.64,16.43,23.97,16.67,24,20.57C24,21.6,23.6,22,22.57,22Z" fill="currentColor"/><path d="M14.97,20L22.04,20C22.04,16.6,18.84,17.93,18.84,15.67L18.84,14.04C18.84,13.44,19.07,12.84,19.44,12.41L21.87,9.64C22.4,9.01,21.9,8.91,18.4,8.91C15.1,8.91,14.63,9.01,15.13,9.61L17.56,12.41C17.93,12.84,18.16,13.44,18.16,14.04L18.16,15.67C18.16,17.94,14.96,16.7,14.96,20Z" fill="currentColor"/></svg>