<svg xmlns="http://www.w3.org/2000/svg" viewBox="0 0 24 24" fill="currentColor"><path d="M4,20.5L4,19.5C4,18.43,4.4,17.68,5.9,17.28L7.04,10.7C6.14,10.4,5.79,9.78,5.75,9.12L5.57,6.22C6.15,5.97,6.62,5.85,7.17,5.85L7.55,7.5L8.8,7.5L9.02,5.6C9.02,5.6,9.55,5.5,10,5.5C10.01,5.5,10.02,5.5,10.03,5.5L10.25,9.23C10.31,9.97,10.73,10.81,11.4,11.43L10.57,16.17C9.23,16.81,8.5,17.94,8.5,19.5L8.5,20.5ZM10,20.5L10,19.5C10,18.43,10.4,17.68,11.9,17.28L13.04,10.7C12.14,10.4,11.79,9.78,11.75,9.12L11.57,6.22C12.15,5.97,12.62,5.85,13.17,5.85L13.55,7.5L14.8,7.5L15.02,5.6C15.02,5.6,15.55,5.5,16,5.5C16.45,5.5,16.98,5.6,16.98,5.6L17.18,7.5L18.45,7.5L18.83,5.85C19.38,5.85,19.86,5.97,20.42,6.22L20.25,9.12C20.2,9.78,19.85,10.4,18.95,10.7L20.13,17.28C21.61,17.7,22.01,18.42,22.01,19.5L22.01,20.5Z"/></svg>