<svg xmlns="http://www.w3.org/2000/svg" viewBox="0 0 24 24" fill="currentColor"><path d="M5.5,19.5C5.5,18.33,6.3,17.65,7.85,17.53L5.12,9.26C4.47,9.16,4,8.61,4,7.96C4,7.29,4.55,6.69,5.25,6.69C5.9,6.69,6.47,7.26,6.47,7.98C6.47,8.28,6.4,8.53,6.2,8.76L8.47,11.7L8.75,7.13C8.12,6.85,7.85,6.45,7.85,5.85C7.85,5.1,8.42,4.5,9.17,4.5C9.92,4.5,10.47,5.1,10.47,5.85C10.47,6.3,10.32,6.68,9.97,6.96L11.49,11.51L12.99,6.96C12.64,6.68,12.47,6.3,12.47,5.85C12.47,5.16,13.04,4.5,13.79,4.5C14.54,4.5,15.12,5.1,15.12,5.85C15.12,6.45,14.84,6.85,14.22,7.13L14.42,10.2C11.85,10.89,10,13.2,10,16C10,17.81,10.77,19.41,12,20.5L5.5,20.5ZM16.77,8.75C16.57,8.52,16.47,8.27,16.47,7.98C16.47,7.3,17.05,6.68,17.73,6.68C18.5,6.68,19,7.38,19,7.95C19,8.53,18.53,9.15,17.85,9.25L17.61,10L16,10C15.94,10,15.88,10,15.82,10ZM19,16.02C19,14.32,17.7,13.02,16,13.02C14.3,13.02,13,14.32,13,16.02C13,17.73,14.3,19.02,16,19.02C17.7,19.02,19,17.73,19,16.02ZM11.5,16.02C11.5,13.55,13.52,11.52,16,11.52C18.48,11.52,20.5,13.55,20.5,16.02C20.5,18.5,18.48,20.52,16,20.52C13.52,20.52,11.5,18.5,11.5,16.02ZM21.7,21.57L21.6,21.67C21.28,21.99,20.93,21.99,20.61,21.67L17.83,18.89L18.93,17.79L21.71,20.57C22.03,20.89,22.03,21.24,21.71,21.57Z"/></svg>