<svg xmlns="http://www.w3.org/2000/svg" viewBox="0 0 24 24" fill="currentColor"><path d="M5.5,19.5C5.5,18.33,6.3,17.65,7.85,17.53L5.12,9.26C4.47,9.16,4,8.61,4,7.96C4,7.29,4.55,6.69,5.25,6.69C5.9,6.69,6.47,7.26,6.47,7.98C6.47,8.28,6.4,8.53,6.2,8.76L8.47,11.7L8.75,7.13C8.12,6.85,7.85,6.45,7.85,5.85C7.85,5.1,8.42,4.5,9.17,4.5C9.92,4.5,10.47,5.1,10.47,5.85C10.47,6.3,10.32,6.68,9.97,6.96L11.38,11.16C10.36,12.48,9.99,13.83,9.99,15.26C9.99,17.39,10.96,19.27,12.48,20.51L5.49,20.51ZM12.48,5.85C12.48,5.16,13.05,4.5,13.8,4.5C14.55,4.5,15.13,5.1,15.13,5.85C15.13,6.45,14.85,6.85,14.23,7.13L14.3,8.12L12.05,10.4C11.96,10.51,11.86,10.61,11.77,10.71L13.01,6.96C12.65,6.68,12.48,6.3,12.48,5.85ZM21.17,18.05C20.9,18.42,20.55,18.45,20.22,18.18L20.15,18.1C19.82,17.82,19.77,17.45,20.02,17.07C20.32,16.52,20.49,15.89,20.49,15.25C20.49,13.17,18.79,11.5,16.72,11.5L16.72,10C19.59,10,21.99,12.38,21.99,15.25C21.99,16.28,21.69,17.25,21.17,18.05ZM16.77,19L16.77,20.5C13.9,20.5,11.5,18.12,11.5,15.25C11.5,14.22,11.8,13.25,12.32,12.45C12.6,12.08,12.95,12.05,13.28,12.32L13.35,12.4C13.68,12.68,13.73,13.05,13.48,13.43C13.18,13.98,13.01,14.61,13.01,15.25C13.01,17.33,14.71,19,16.78,19ZM17.5,21.75C17.03,22.17,16.75,22.04,16.75,21.42L16.75,18.07C16.75,17.45,17.03,17.32,17.5,17.75L19.4,19.42C19.64,19.65,19.64,19.85,19.4,20.07ZM16.75,12.43C16.75,13.05,16.47,13.18,16,12.75L14.1,11.08C13.86,10.85,13.86,10.65,14.1,10.43L16,8.75C16.47,8.33,16.75,8.45,16.75,9.08ZM16.75,12.43C16.75,13.05,16.47,13.18,16,12.75L14.1,11.08C13.86,10.85,13.86,10.65,14.1,10.43L16,8.75C16.47,8.33,16.75,8.45,16.75,9.08Z"/></svg>