<svg xmlns="http://www.w3.org/2000/svg" viewBox="0 0 24 24"><path d="M0.34,11.47C-0.09,11.07,-0.13,10.4,0.27,9.84L1.94,7.51C2.71,6.44,2.71,5.84,3.14,4.74C3.24,4.44,3.41,4.01,3.94,3.57C4.47,3.1,4.84,2.77,5.04,2.24L5.24,1.24C5.31,0.94,5.57,0.67,5.84,0.67L7.67,2.5C8.19,2.53,8.71,2.62,9.23,2.75C8.86,3.27,8.52,3.86,8.46,4.05C7.91,5.45,7.91,5.79,7.51,6.33L5.84,8.67C5.47,9.2,5.29,9.88,5.29,10.58C5.2,10.59,5.1,10.6,5,10.6C3.57,10.63,3.53,11.63,2.87,12.27C2.7,12.4,0.97,12,0.34,11.47Z" fill="currentColor"/><path d="M0.8,20.67C0.8,19.27,1.9,18.3,3.77,18.07C3.85,15.62,5.09,14.17,6.32,13.05C7.2,13.72,8.76,14.11,9.96,14.11C9.59,14.75,9.3,15.54,9.13,16.48C7.09,17.29,6.01,19.04,6.01,20.66L6.01,21.99L0.81,21.99Z" fill="currentColor"/><path d="M7.54,11.47C7.11,11.07,7.07,10.4,7.47,9.84L9.14,7.51C9.91,6.44,9.91,5.84,10.34,4.74C10.44,4.44,10.61,4.01,11.14,3.57C11.67,3.1,12.04,2.77,12.24,2.24L12.44,1.24C12.51,0.94,12.77,0.67,13.04,0.67L14.87,2.5C18.47,2.73,22.5,5.37,22.5,11.3C22.5,13.03,21.37,16.2,21,18.07C22.9,18.3,24,19.27,24,20.67L24,22L8,22L8,20.67C8,19.27,9.1,18.3,10.97,18.07C11.17,12.2,18,12.1,15.37,8.4C14.24,9.63,13.4,10.6,12.2,10.6C10.77,10.63,10.73,11.63,10.07,12.27C9.9,12.4,8.17,12,7.54,11.47Z" fill="currentColor"/></svg>