<svg xmlns="http://www.w3.org/2000/svg" viewBox="0 0 24 24"><path d="M15.53,16.67L8.46,16.67C7.86,16,6.33,14,6.33,11.3C6.33,7.33,9.9,4.67,9.9,4.67C9.67,3.64,9.67,3.44,9.67,3.17C9.67,1.77,10.7,0.67,12,0.67C13.3,0.67,14.33,1.77,14.33,3.17C14.33,3.57,14.26,4.27,13.7,5.04L13.03,5.94C11.86,7.57,11.36,8.77,11.06,10.74L10.86,12.01L12.43,12.01L12.7,10.48C12.93,9.11,13.27,8.28,14.1,7.15L15.2,5.62C16.23,6.72,17.67,8.75,17.67,11.32C17.67,14.02,16.17,16.02,15.54,16.69Z" fill="currentColor"/><path d="M4.5,20.67C4.5,19.04,6,18,8.47,18L15.54,18C18.01,18,19.51,19.03,19.51,20.67L19.51,22L4.51,22Z" fill="currentColor"/></svg>