<svg xmlns="http://www.w3.org/2000/svg" viewBox="0 0 24 24" fill="currentColor"><path d="M13.9,15.33C13.91,14.7,14.15,14.26,15.05,14.02L15.7,10.33C15.2,9.96,14.98,9.54,14.96,9.13L14.86,7.38C15.21,7.23,15.48,7.16,15.81,7.16L16.04,8.16L16.79,8.16L16.94,7.01C16.94,7.01,17.24,6.96,17.52,6.96C17.79,6.96,18.09,7.01,18.09,7.01L18.22,8.16L18.99,8.16L19.22,7.16C19.54,7.16,19.82,7.23,20.17,7.38L20.07,9.13C20.05,9.54,19.83,9.96,19.33,10.33L20,14.04C20.88,14.28,21.12,14.73,21.12,15.36L21.12,15.96L17.47,15.96ZM5.19,13.79C5.26,13.14,5.89,12.75,6.85,12.72C6.38,12,5.97,11.22,5.97,10.15C5.97,8.22,7.57,6.72,7.57,6.72C7.47,6.25,7.47,6.18,7.47,6.05C7.47,5.43,7.95,4.92,8.52,4.92C9.1,4.92,9.57,5.43,9.57,6.05C9.57,6.22,9.55,6.57,9.3,6.9C8.52,7.77,7.95,9,7.87,10.47L8.87,10.47C8.92,9.25,9.32,8.24,9.97,7.45C10.42,7.77,11.07,8.93,11.07,10.15C11.07,11.27,10.72,12.05,10.23,12.72C11.25,12.74,11.88,13.22,11.88,13.92L11.88,14.52L9.36,14.52ZM14.97,22L11.02,22C10.57,22,10.44,21.77,10.7,21.4L12.63,18.2L4.85,16.79C4.4,16.72,4.2,16.42,4.27,15.97L4.27,15.89C4.35,15.44,4.65,15.24,5.1,15.32L21.39,18.24C21.87,18.32,22.07,18.62,21.97,19.09C21.89,19.59,21.59,19.79,21.12,19.71L13.46,18.33L15.3,21.38C15.55,21.76,15.43,21.98,14.98,21.98Z"/></svg>