<svg xmlns="http://www.w3.org/2000/svg" viewBox="0 0 24 24"><path d="M13.2,15.1C13.21,14.26,13.53,13.68,14.73,13.36L15.6,8.44C14.93,7.95,14.64,7.39,14.61,6.84L14.48,4.51C14.95,4.31,15.31,4.21,15.75,4.21L16.05,5.54L17.05,5.54L17.25,4.01C17.25,4.01,17.65,3.94,18.02,3.94C18.39,3.94,18.79,4.01,18.79,4.01L18.96,5.54L19.99,5.54L20.29,4.21C20.72,4.21,21.09,4.31,21.56,4.51L21.43,6.84C21.4,7.39,21.11,7.95,20.44,8.44L21.33,13.38C22.51,13.71,22.83,14.3,22.83,15.14L22.83,15.94L17.96,15.94Z" fill="currentColor"/><path d="M1.58,13.05C1.68,12.19,2.52,11.66,3.8,11.63C3.17,10.66,2.63,9.63,2.63,8.2C2.63,5.63,4.76,3.63,4.76,3.63C4.63,3,4.63,2.9,4.63,2.73C4.63,1.9,5.26,1.23,6.03,1.23C6.8,1.23,7.43,1.9,7.43,2.73C7.43,2.96,7.4,3.43,7.06,3.86C6.03,5.03,5.26,6.66,5.16,8.63L6.49,8.63C6.56,7,7.09,5.66,7.96,4.6C8.56,5.03,9.43,6.57,9.43,8.2C9.43,9.7,8.96,10.73,8.3,11.63C9.67,11.66,10.5,12.3,10.5,13.23L10.5,14.03L7.15,14.03Z" fill="currentColor"/><path d="M14.63,24L9.36,24C8.76,24,8.59,23.7,8.93,23.2L11.5,18.93L1.13,17.06C0.53,16.96,0.26,16.56,0.36,15.96L0.36,15.86C0.46,15.26,0.86,14.99,1.46,15.09L23.19,18.99C23.82,19.09,24.09,19.49,23.96,20.12C23.86,20.79,23.46,21.05,22.83,20.95L12.62,19.11L15.07,23.18C15.4,23.68,15.24,23.98,14.64,23.98Z" fill="currentColor"/></svg>