<svg xmlns="http://www.w3.org/2000/svg" viewBox="0 0 24 24"><path d="M9.02,9.5L10.46,17.51C9.44,18.45,8.43,19.64,8.43,21.99L4,21.99L4,2.07C4.26,2.03,4.65,1.99,5,1.99C5.6,1.99,6.3,2.12,6.3,2.12L6.57,4.65L8.27,4.65L8.77,2.45C9.5,2.45,10.14,2.62,10.9,2.95L10.67,6.82C10.6,7.76,10.16,8.67,9.02,9.49Z" fill="currentColor"/><path d="M10.44,22C10.44,18.13,14.27,18.73,14.61,14.87L14.64,14.24L13.11,14.24C12.91,13.91,12.81,13.51,12.81,13.11L14.64,12.01C13.74,11.41,13.34,10.58,13.34,9.68C13.34,8.21,14.54,7.01,16.01,7.01C17.48,7.01,18.68,8.21,18.68,9.68C18.68,10.61,18.38,11.31,17.38,11.98L19.21,13.11C19.21,13.51,19.11,13.91,18.94,14.24L17.37,14.24L17.44,14.87C17.74,18.74,21.57,18.14,21.57,22Z" fill="currentColor"/></svg>