<svg xmlns="http://www.w3.org/2000/svg" viewBox="0 0 24 24" fill="currentColor"><path d="M5.5,19.5C5.5,18.33,6.3,17.65,7.85,17.53L5.12,9.26C4.47,9.16,4,8.61,4,7.96C4,7.29,4.55,6.69,5.25,6.69C5.9,6.69,6.47,7.26,6.47,7.98C6.47,8.28,6.4,8.53,6.2,8.76L8.47,11.7L8.75,7.13C8.12,6.85,7.85,6.45,7.85,5.85C7.85,5.1,8.42,4.5,9.17,4.5C9.92,4.5,10.47,5.1,10.47,5.85C10.47,6.3,10.32,6.68,9.97,6.96L10.55,8.66C11,10.03,11.54,10.33,12.05,9.54C11.99,10.15,12.09,10.81,12.37,11.51L11.5,11.51L11.5,20.51L5.5,20.51ZM15.13,5.85C15.13,6.05,15.1,6.23,15.03,6.39C14,6.72,13.2,7.24,12.69,7.91L13,6.96C12.65,6.68,12.48,6.3,12.48,5.85C12.48,5.16,13.05,4.5,13.8,4.5C14.55,4.5,15.13,5.1,15.13,5.85ZM19.6,11.5L15.5,11.5C14.47,11.5,13.45,11.03,13.45,9.8C13.45,8.77,14.2,8.13,15.18,8.13C16.45,8.13,17.35,9.25,17.8,10.92L17.25,10.92C17.7,9.22,18.63,8.13,19.86,8.13C20.85,8.13,21.56,8.82,21.56,9.8C21.56,11.02,20.53,11.5,19.61,11.5ZM14.07,20.5C13.3,20.5,13,20.2,13,19.43L13,17.5L16.75,17.5L16.75,20.5ZM13,14.07C13,13.3,13.3,13,14.07,13L16.75,13L16.75,16L13,16ZM18.25,20.5L18.25,17.5L22,17.5L22,19.43C22,20.2,21.7,20.5,20.93,20.5ZM18.25,16L18.25,13L20.93,13C21.7,13,22,13.3,22,14.07L22,16ZM16.8,10.92C16.41,9.57,15.9,9.1,15.25,9.1C14.82,9.1,14.42,9.33,14.42,9.8C14.42,10.45,15.12,10.53,15.5,10.53L19.6,10.53C19.88,10.53,20.57,10.45,20.57,9.8C20.57,9.32,20.18,9.1,19.77,9.1C19.2,9.1,18.62,9.57,18.25,10.92Z"/></svg>