<svg xmlns="http://www.w3.org/2000/svg" viewBox="0 0 24 24" fill="currentColor"><path d="M5.52,10.13C5.45,10.18,4.68,10,4.4,9.75C4.2,9.58,4.17,9.28,4.38,9.02L5.13,7.97C5.45,7.5,5.45,7.22,5.65,6.72C5.7,6.59,5.78,6.4,6.03,6.2C6.25,5.99,6.42,5.84,6.5,5.6L6.59,5.15C6.62,5.02,6.75,4.9,6.87,4.9L7.7,5.72C9.35,5.82,11.17,7.02,11.17,9.53C11.17,10.71,10.55,12.21,10.47,12.98L5.97,13.05C5.82,11.46,6.89,10.6,7.45,10.15C7.82,9.85,8.2,9.45,8.2,9.05C8.2,8.75,8,8.47,7.92,8.37L7.68,8.67C7.43,8.92,7,9.37,6.5,9.37C5.84,9.37,5.82,9.82,5.52,10.12ZM4.65,13.9C4.65,13.17,5.33,12.7,6.43,12.7L10.05,12.7C11.18,12.7,11.85,13.17,11.85,13.9L11.85,14.5L4.65,14.5ZM15.42,10.13C15.35,10.18,14.58,10,14.3,9.75C14.1,9.58,14.07,9.28,14.27,9.02L15.02,7.97C15.35,7.5,15.35,7.22,15.55,6.72C15.6,6.59,15.68,6.4,15.92,6.2C16.15,5.99,16.32,5.84,16.4,5.6L16.49,5.15C16.52,5.02,16.64,4.9,16.77,4.9L17.6,5.72C19.25,5.82,21.07,7.02,21.07,9.53C21.07,10.71,20.45,12.21,20.37,12.98L15.87,13.05C15.72,11.46,16.79,10.6,17.35,10.15C17.72,9.85,18.1,9.45,18.1,9.05C18.1,8.75,17.9,8.47,17.82,8.37L17.57,8.67C17.33,8.92,16.9,9.37,16.4,9.37C15.74,9.37,15.72,9.82,15.42,10.12ZM14.55,13.9C14.55,13.17,15.23,12.7,16.33,12.7L19.95,12.7C21.08,12.7,21.75,13.17,21.75,13.9L21.75,14.5L14.55,14.5ZM11.02,22C10.57,22,10.44,21.77,10.64,21.38L12.67,17.48C12.87,17.08,13.12,17.08,13.32,17.48L15.35,21.38C15.55,21.78,15.42,22,14.97,22ZM4.71,17.5C4.26,17.5,4.01,17.25,4.01,16.8L4.01,16.71C4.01,16.25,4.26,16.01,4.71,16.01L21.3,16.01C21.75,16.01,22,16.25,22,16.71L22,16.8C22,17.25,21.75,17.5,21.3,17.5Z"/></svg>