<svg xmlns="http://www.w3.org/2000/svg" viewBox="0 0 24 24"><path d="M2.03,8.17C1.93,8.24,0.9,8,0.53,7.67C0.26,7.44,0.23,7.04,0.5,6.7L1.5,5.3C1.93,4.67,1.93,4.3,2.2,3.63C2.27,3.46,2.37,3.2,2.7,2.93C3,2.66,3.23,2.46,3.33,2.13L3.46,1.53C3.49,1.36,3.66,1.2,3.83,1.2L4.93,2.3C7.13,2.43,9.56,4.03,9.56,7.37C9.56,8.94,8.73,10.94,8.63,11.97L2.63,12.07C2.43,9.94,3.86,8.8,4.6,8.2C5.1,7.8,5.6,7.27,5.6,6.73C5.6,6.33,5.33,5.96,5.23,5.83L4.9,6.23C4.57,6.56,4,7.16,3.33,7.16C2.46,7.16,2.43,7.76,2.03,8.16Z" fill="currentColor"/><path d="M0.87,13.2C0.87,12.23,1.77,11.6,3.24,11.6L8.07,11.6C9.57,11.6,10.47,12.23,10.47,13.2L10.47,14L0.87,14Z" fill="currentColor"/><path d="M15.23,8.17C15.13,8.24,14.1,8,13.73,7.67C13.46,7.44,13.43,7.04,13.7,6.7L14.7,5.3C15.13,4.67,15.13,4.3,15.4,3.63C15.47,3.46,15.57,3.2,15.9,2.93C16.2,2.66,16.43,2.46,16.53,2.13L16.66,1.53C16.69,1.36,16.86,1.2,17.03,1.2L18.13,2.3C20.33,2.43,22.76,4.03,22.76,7.37C22.76,8.94,21.93,10.94,21.83,11.97L15.83,12.07C15.63,9.94,17.06,8.8,17.8,8.2C18.3,7.8,18.8,7.27,18.8,6.73C18.8,6.33,18.53,5.96,18.43,5.83L18.1,6.23C17.77,6.56,17.2,7.16,16.53,7.16C15.66,7.16,15.63,7.76,15.23,8.16Z" fill="currentColor"/><path d="M14.07,13.2C14.07,12.23,14.97,11.6,16.44,11.6L21.27,11.6C22.77,11.6,23.67,12.23,23.67,13.2L23.67,14L14.07,14Z" fill="currentColor"/><path d="M9.36,24C8.76,24,8.59,23.7,8.86,23.17L11.56,17.97C11.83,17.44,12.16,17.44,12.43,17.97L15.13,23.17C15.4,23.7,15.23,24,14.63,24Z" fill="currentColor"/><path d="M0.94,18C0.34,18,0.01,17.67,0.01,17.07L0.01,16.94C0.01,16.34,0.34,16.01,0.94,16.01L23.07,16.01C23.67,16.01,24,16.34,24,16.94L24,17.07C24,17.67,23.67,18,23.07,18Z" fill="currentColor"/></svg>