<svg xmlns="http://www.w3.org/2000/svg" viewBox="0 0 24 24"><path d="M4.33,22L4.33,19.77C4.33,17.97,5.2,17,7.33,16.54C4.46,11.97,5.36,7.37,9.13,3.94C9.06,3.67,9.03,3.37,9.03,3.07C9.03,1.37,10.3,0,12,0C13.7,0,14.97,1.37,14.97,3.07C14.97,3.37,14.94,3.67,14.87,3.94C18.64,7.37,19.54,11.97,16.67,16.54C18.8,17.01,19.67,17.97,19.67,19.77L19.67,22Z" fill="currentColor"/><path d="M5.83,19.77L5.83,20.5L18.16,20.5L18.16,19.77C18.16,18,16.49,17.67,11.99,17.67C7.62,17.67,5.82,17.97,5.82,19.77Z" fill="currentColor"/><path d="M8.97,16.27C9.8,16.2,10.84,16.17,12,16.17C13.17,16.17,14.2,16.2,15.03,16.27C17.8,12.34,17.3,8.44,14.16,5.37C12.93,7.44,12.66,9.7,12.49,12L10.99,12C11.16,9.6,11.49,6.77,13.02,4.37C13.32,3.87,13.45,3.5,13.45,3.07C13.45,2.2,12.85,1.5,11.98,1.5C11.11,1.5,10.51,2.2,10.51,3.07C10.51,3.5,10.64,3.87,10.94,4.37C6.81,7.57,5.87,11.9,8.94,16.27Z" fill="currentColor"/></svg>