<svg xmlns="http://www.w3.org/2000/svg" viewBox="0 0 24 24"><path d="M21.87,10.67C24.34,10.87,24.34,11.14,21.87,11.37L18.49,11.67C18.5,11.54,18.5,11.42,18.5,11.3C18.5,10.98,18.49,10.67,18.47,10.37Z" fill="currentColor"/><path d="M20.73,5.8C23.16,6.03,23.16,6.3,20.73,6.53L17.71,6.82C17.52,6.33,17.3,5.87,17.05,5.44Z" fill="currentColor"/><path d="M19.4,15.4C21.83,15.67,21.83,16,19.4,16.27L17.46,16.47C17.57,16.06,17.68,15.65,17.79,15.24Z" fill="currentColor"/><path d="M4.07,12.27C3.9,12.4,2.17,12,1.54,11.47C1.11,11.07,1.07,10.4,1.47,9.84L3.14,7.51C3.91,6.44,3.91,5.84,4.34,4.74C4.44,4.44,4.61,4.01,5.14,3.57C5.67,3.1,6.04,2.77,6.24,2.24L6.44,1.24C6.51,0.94,6.77,0.67,7.04,0.67L8.87,2.5C12.47,2.73,16.5,5.37,16.5,11.3C16.5,12.9,15.5,15.8,15.3,16.67L5.23,16.67C5.43,14.67,7.3,13.17,8.33,12.34C9.13,11.67,9.96,10.81,9.96,9.91C9.96,9.21,9.53,8.64,9.36,8.41L8.79,9.04C8.26,9.61,7.29,10.61,6.19,10.61C4.76,10.64,4.72,11.64,4.06,12.28Z" fill="currentColor"/><path d="M2,20.67C2,19.04,3.5,18,5.97,18L14,18C16.5,18,18,19.03,18,20.67L18,22L2,22Z" fill="currentColor"/></svg>