<svg xmlns="http://www.w3.org/2000/svg" viewBox="0 0 24 24"><path d="M5.07,21C5.07,19.27,5.64,17.6,7.04,16.57C9.67,14.57,10.04,12.74,10.14,11.57L10.14,10.67L8.01,10.67C7.78,10.2,7.64,9.8,7.64,9.27L10.04,7.7C9.21,7.1,8.67,6.13,8.67,5C8.67,3.17,10.14,1.67,12,1.67C13.87,1.67,15.33,3.17,15.33,5C15.33,6.13,14.8,7.1,13.96,7.7L16.36,9.27C16.36,9.8,16.23,10.2,15.99,10.67L13.86,10.67L13.86,11.57C13.96,12.74,14.33,14.57,16.96,16.57C18.36,17.6,18.93,19.27,18.93,21C18.93,21.13,18.63,22.3,12,22.33C5.37,22.3,5.07,21.13,5.07,21Z" fill="currentColor"/></svg>