<svg xmlns="http://www.w3.org/2000/svg" viewBox="0 0 24 24"><path d="M2.2,22C2.2,17.27,6.9,18,7.27,13.3L7.34,12.5L5.44,12.5C5.21,12.1,5.11,11.6,5.11,11.13L7.34,9.73C6.11,8.93,5.74,8.06,5.74,6.93C5.74,5.13,7.21,3.66,9.01,3.66C10.81,3.66,12.28,5.13,12.28,6.93C12.28,8,11.81,9.03,10.68,9.76L12.91,11.13C12.91,11.6,12.81,12.1,12.58,12.5L10.68,12.5L10.75,13.3C10.78,13.64,10.83,13.95,10.89,14.24L9.51,15.63C7.66,17.48,7.23,19.93,7.99,22Z" fill="currentColor"/><path d="M14.97,18.57C13.37,16.97,13.37,14.47,15.1,12.77L17.03,10.87C18.8,9.1,21.26,9.17,22.8,10.77C24.37,12.27,24.43,14.74,22.67,16.5L21.04,18.13C21.17,17.03,21.01,16.26,20.84,15.5L21.24,15.1C22.31,14.03,22.24,13,21.41,12.17C20.51,11.24,19.51,11.17,18.44,12.27L16.51,14.2C15.48,15.2,15.48,16.23,16.38,17.13C16.58,17.33,16.68,17.53,16.68,17.86C16.68,18.39,16.25,18.86,15.68,18.86C15.41,18.86,15.18,18.73,14.98,18.56Z" fill="currentColor"/><path d="M10.77,22.77C9.24,21.27,9.17,18.8,10.94,17.04L12.57,15.37C12.44,16.47,12.6,17.24,12.77,18L12.34,18.43C11.27,19.5,11.34,20.5,12.21,21.36C13.08,22.26,14.08,22.33,15.18,21.26L17.11,19.33C18.11,18.33,18.11,17.26,17.21,16.4C17.04,16.2,16.91,16,16.91,15.67C16.91,15.14,17.34,14.67,17.91,14.67C18.18,14.67,18.44,14.8,18.61,14.94C20.21,16.57,20.21,19.04,18.51,20.77L16.58,22.67C14.81,24.44,12.31,24.37,10.78,22.77Z" fill="currentColor"/></svg>