<svg xmlns="http://www.w3.org/2000/svg" viewBox="0 0 24 24"><path d="M14,12C14,8.97,16.67,9.43,16.93,6.47L16.96,5.94L15.76,5.94C15.59,5.67,15.53,5.34,15.53,5.04L16.96,4.21C16.19,3.78,15.93,3.11,15.93,2.44C15.93,1.24,16.9,0.34,18.03,0.34C19.16,0.34,20.1,1.24,20.1,2.44C20.1,3.14,19.87,3.71,19.07,4.17L20.5,5.04C20.5,5.34,20.43,5.67,20.27,5.94L19.07,5.94L19.1,6.47C19.37,9.44,22,8.97,22,12Z" fill="currentColor"/><path d="M11.74,19.93L0.12,19.93C-0.48,14.3,1.34,14.41,2.34,13.12C1.51,12.2,1.41,10.78,2.07,9.73C1.9,9.29,1.81,8.85,1.81,8.46C1.81,6.23,3.81,4.26,6.04,4.26C8.27,4.26,10.24,6.23,10.24,8.46C10.24,8.84,10.15,9.27,9.99,9.7C10.65,10.72,10.58,12.11,9.8,13.04C10.84,14.46,12.69,16.06,11.75,19.93Z" fill="currentColor"/><path d="M10,17.93C10,14.53,7.73,15.83,7.2,12.03L8.37,12.03C8.64,11.66,8.64,11.33,8.64,11L7.27,10.37C7.84,9.9,8.24,9.2,8.24,8.47C8.24,7.24,7.27,6.27,6.04,6.27C4.81,6.27,3.81,7.24,3.81,8.47C3.81,9.2,4.21,9.9,4.81,10.37L3.44,11C3.44,11.3,3.44,11.67,3.67,12.03L4.87,12.03C4.27,16.06,2,14.43,2,17.93Z" fill="currentColor"/><path d="M14.33,22.6C14.8,23.07,15.26,23.1,15.76,22.6L17.96,20.4L20.23,22.6C20.7,23.07,21.16,23.07,21.63,22.6C22.1,22.13,22.13,21.63,21.63,21.17L19.4,18.97L21.63,16.74C22.1,16.27,22.1,15.81,21.63,15.34C21.16,14.87,20.7,14.84,20.2,15.34L17.97,17.57L15.77,15.37C15.3,14.9,14.84,14.9,14.37,15.37C13.9,15.84,13.87,16.34,14.37,16.8L16.57,18.97L14.34,21.2C13.87,21.67,13.87,22.13,14.34,22.6Z" fill="currentColor"/></svg>