<svg xmlns="http://www.w3.org/2000/svg" viewBox="0 0 24 24" fill="currentColor"><path d="M8.73,20.5L14.43,14.79C15.14,17.44,18.1,17.25,18.1,20.5ZM21.55,5.52L15.19,11.88L8.26,18.81L5.57,21.5L5.55,21.52C5.23,21.84,4.88,21.84,4.55,21.52L4.48,21.45C4.16,21.12,4.16,20.77,4.48,20.45L11.55,13.38L10.33,13.38C10.16,13.08,10.08,12.7,10.08,12.35L11.75,11.32C10.91,10.77,10.55,9.99,10.55,9.2C10.55,7.85,11.66,6.74,13.01,6.74C14.36,6.74,15.46,7.85,15.46,9.2C15.46,9.29,15.46,9.39,15.44,9.48L20.48,4.44C20.81,4.12,21.16,4.12,21.48,4.44L21.56,4.52C21.87,4.83,21.88,5.18,21.58,5.49C21.57,5.5,21.56,5.51,21.56,5.51Z"/></svg>