<svg xmlns="http://www.w3.org/2000/svg" viewBox="0 0 24 24" fill="currentColor"><path d="M5.5,19.5C5.5,18.33,6.3,17.65,7.85,17.53L5.12,9.26C4.47,9.16,4,8.61,4,7.96C4,7.29,4.55,6.69,5.25,6.69C5.9,6.69,6.47,7.26,6.47,7.98C6.47,8.28,6.4,8.53,6.2,8.76L8.47,11.7L8.75,7.13C8.12,6.85,7.85,6.45,7.85,5.85C7.85,5.1,8.42,4.5,9.17,4.5C9.92,4.5,10.47,5.1,10.47,5.85C10.47,6.3,10.32,6.68,9.97,6.96L11.49,11.51L12.23,9.26C12.22,9.36,12.22,9.48,12.22,9.59C12.24,12.45,12.75,13.45,13.94,14.53C12.47,15.95,12.23,17.09,12.22,20.51L5.49,20.51ZM13.8,4.5C14.55,4.5,15.13,5.1,15.13,5.85C15.13,6.38,14.92,6.75,14.44,7.02C13.64,7.11,12.99,7.52,12.62,8.14L13.01,6.96C12.65,6.68,12.48,6.3,12.48,5.85C12.48,5.16,13.05,4.5,13.8,4.5ZM16.92,7C17.14,6.8,17.43,6.68,17.73,6.68C18.06,6.68,18.34,6.8,18.56,7ZM14.83,20.5C14.06,20.5,13.76,20.2,13.76,19.43C13.78,16.5,14.04,16.33,16.33,14.5C14.03,12.68,13.78,12.53,13.76,9.6C13.76,8.83,14.06,8.53,14.83,8.53L20.93,8.53C21.7,8.53,22,8.83,22,9.6C21.98,12.53,21.72,12.68,19.43,14.5C21.73,16.32,21.98,16.5,22,19.43C22,20.2,21.7,20.5,20.93,20.5ZM15.23,19L20.53,19C20.53,16.45,18.13,17.45,18.13,15.75L18.13,14.53C18.13,14.08,18.3,13.63,18.58,13.31L20.4,11.23C20.8,10.76,20.43,10.68,17.8,10.68C15.33,10.68,14.97,10.76,15.35,11.21L17.17,13.31C17.45,13.63,17.62,14.08,17.62,14.53L17.62,15.75C17.62,17.46,15.22,16.53,15.22,19Z"/></svg>