<svg xmlns="http://www.w3.org/2000/svg" viewBox="0 0 24 24"><path d="M0.57,22L0.57,20.67C0.57,19.07,2,18.04,4.3,18C3.2,16.4,2.33,14.67,2.33,12.3C2.33,8,5.9,4.67,5.9,4.67C5.67,3.64,5.67,3.44,5.67,3.17C5.67,1.77,6.7,0.67,8,0.67C9.3,0.67,10.33,1.77,10.33,3.17C10.33,3.57,10.3,4.34,9.7,5.04C8,7.01,6.73,9.74,6.53,13.01L8.76,13.01C8.89,10.31,9.76,8.04,11.19,6.28C11.77,6.69,12.47,7.68,12.98,8.94C10.01,10.4,7.99,13.46,7.99,17.01C7.99,18.87,8.54,20.58,9.49,22.01Z" fill="currentColor"/><path d="M22,17C22,14.16,19.84,12,17,12C14.19,12,12,14.17,12,17C12,19.8,14.2,22,17,22C19.83,22,22,19.81,22,17Z" fill="currentColor"/><path d="M10,17C10,13.13,13.17,10,17,10C20.87,10,24,13.13,24,17C24,20.83,20.87,24,17,24C13.17,24,10,20.83,10,17Z" fill="currentColor"/><path d="M12.23,20.36L20.36,12.23L21.77,13.64L13.64,21.77Z" fill="currentColor"/></svg>