<svg xmlns="http://www.w3.org/2000/svg" viewBox="0 0 24 24" fill="currentColor"><path d="M4.25,12.6C3.93,12.3,3.9,11.8,4.2,11.38L5.46,9.63C6.03,8.83,6.03,8.38,6.35,7.55C6.43,7.33,6.56,7.01,6.96,6.68C7.35,6.33,7.63,6.08,7.78,5.68L7.93,4.93C7.98,4.71,8.18,4.5,8.38,4.5L9.75,5.88C10.14,5.9,10.53,5.96,10.92,6.06C10.64,6.45,10.39,6.9,10.34,7.04C9.93,8.09,9.93,8.34,9.63,8.75L8.38,10.5C8.1,10.9,7.97,11.41,7.97,11.94C7.9,11.94,7.82,11.95,7.75,11.95C6.68,11.97,6.65,12.72,6.15,13.2C6.03,13.3,4.73,13,4.25,12.6ZM4.6,19.5C4.6,18.45,5.43,17.73,6.83,17.55C6.89,15.71,7.82,14.63,8.74,13.79C9.46,14.35,10.55,14.66,11.43,14.64C11.17,15.12,10.97,15.68,10.84,16.36C9.31,16.97,8.5,18.28,8.5,19.5L8.5,20.49L4.6,20.49ZM9.66,12.6C9.33,12.3,9.3,11.8,9.6,11.38L10.86,9.63C11.43,8.83,11.43,8.38,11.75,7.55C11.83,7.33,11.96,7.01,12.36,6.68C12.75,6.33,13.03,6.08,13.18,5.68L13.33,4.93C13.38,4.71,13.58,4.5,13.78,4.5L15.15,5.88C17.85,6.05,20.88,8.03,20.88,12.48C20.88,13.77,20.03,16.15,19.75,17.55C21.18,17.73,22,18.45,22,19.5L22,20.5L10,20.5L10,19.5C10,18.45,10.83,17.73,12.23,17.55C12.38,13.15,17.5,13.08,15.53,10.3C14.68,11.22,14.05,11.95,13.15,11.95C12.08,11.97,12.05,12.72,11.55,13.2C11.43,13.3,10.13,13,9.66,12.6Z"/></svg>