<svg xmlns="http://www.w3.org/2000/svg" viewBox="0 0 24 24" fill="currentColor"><path d="M4.05,19L4.05,18.17C4.05,17.28,4.38,16.67,5.62,16.34L6.51,11.32C5.81,10.8,5.53,10.24,5.51,9.65L5.36,7.27C5.83,7.07,6.23,6.97,6.69,6.97L6.99,8.32L8.01,8.32L8.19,6.77C8.19,6.77,8.64,6.67,8.99,6.67C9.36,6.67,9.79,6.77,9.79,6.77L9.8,6.84C9.03,7.27,8.49,8.07,8.52,9.05C8.47,9.79,8.94,10.66,9.72,11.18L11.27,15.63C10.22,16.42,9.86,17.64,10.08,18.99ZM11.5,18.98L11.5,18.23C11.5,17.33,11.82,16.75,13.1,16.43L10.92,10.13C10.37,10.03,10,9.6,10,9.08C10,8.55,10.45,8.05,11,8.05C11.52,8.05,11.95,8.52,11.95,9.1C11.95,9.35,11.93,9.53,11.75,9.72L13.57,12.05L13.79,8.42C13.29,8.22,13.1,7.95,13.1,7.45C13.1,6.85,13.55,6.38,14.15,6.38C14.72,6.38,15.17,6.85,15.17,7.45C15.17,7.8,15.05,8.05,14.78,8.3L16,11.9L17.2,8.3C16.92,8.05,16.77,7.79,16.77,7.45C16.77,6.85,17.24,6.38,17.84,6.38C18.45,6.38,18.87,6.85,18.87,7.45C18.87,7.95,18.65,8.22,18.17,8.42L18.42,12.05L20.22,9.72C20.05,9.52,20,9.35,20,9.1C20,8.57,20.42,8.05,20.97,8.05C21.59,8.05,22,8.63,22,9.08C22,9.53,21.6,10.03,21.05,10.13L18.92,16.43C20.15,16.78,20.48,17.33,20.48,18.23L20.48,18.98Z"/></svg>