<svg xmlns="http://www.w3.org/2000/svg" viewBox="0 0 24 24" fill="currentColor"><path d="M4,20.5L4,19.5C4,18.42,4.39,17.68,5.9,17.28L6.98,11.14C6.13,10.53,5.79,9.84,5.75,9.14L5.57,6.24C6.15,5.99,6.63,5.86,7.17,5.86L7.55,7.51L8.8,7.51L9.03,5.61C9.03,5.61,9.55,5.52,10,5.52C10.45,5.52,10.98,5.61,10.98,5.61L11.18,7.51L12.45,7.51L12.83,5.86C13.38,5.86,13.86,5.99,14.43,6.24L14.25,9.14C14.2,9.84,13.87,10.53,13.02,11.14L13.86,15.8C13.77,15.87,13.67,15.95,13.56,16.03C12.62,16.85,11.13,18.15,11.13,20.51ZM22,20.5L12.63,20.5C12.63,18.83,13.6,17.97,14.52,17.18C15.42,16.45,16.27,15.75,16.27,14.38L16.27,13.83L14.92,13.83C14.77,13.53,14.67,13.16,14.67,12.78L16.27,11.83C15.52,11.28,15.14,10.63,15.14,9.8C15.14,8.55,16.17,7.5,17.45,7.5C18.72,7.5,19.75,8.55,19.75,9.8C19.75,10.63,19.38,11.28,18.63,11.78L20.25,12.77C20.25,13.15,20.18,13.52,19.98,13.82L18.63,13.82L18.63,14.37C18.63,15.74,19.47,16.45,20.37,17.17C21.29,17.97,22,18.82,22,20.49Z"/></svg>