<svg xmlns="http://www.w3.org/2000/svg" viewBox="0 0 24 24"><path d="M9.97,17.83L9.97,20L14.57,20L15.02,22L0.34,22C0.34,16.67,5.67,17.5,5.97,12.2L6,11.3L3.97,11.3C3.7,10.83,3.6,10.27,3.6,9.77L6,8.2C4.83,7.37,4.33,6.23,4.33,5C4.33,3,5.96,1.33,8,1.33C10.03,1.33,11.67,3,11.67,5C11.67,6.3,11.27,7.27,10,8.17L11.72,9.32C11.75,9.48,11.79,9.64,11.83,9.8L12.14,11.09C12.11,11.16,12.07,11.23,12.03,11.3L10,11.3L10.03,12.2C10.09,13.25,10.35,14.06,10.72,14.73C10.17,15.52,9.96,16.49,9.96,17.83Z" fill="currentColor"/><path d="M16.63,20L19.3,20L18.6,23.2C18.43,23.93,18.4,24,18,24C17.6,24,17.57,23.93,17.4,23.2Z" fill="currentColor"/><path d="M12,17.07C12,16.24,12.43,15.5,13.2,15.14L14.97,14.24L13.64,8.61C13.17,6.64,13.67,6.01,15.67,6.01L20.34,6.01C22.34,6.01,22.84,6.64,22.37,8.61L21,14.28L22.8,15.15C23.57,15.52,24,16.25,24,17.08L24,18.01L12,18.01Z" fill="currentColor"/></svg>