<svg xmlns="http://www.w3.org/2000/svg" viewBox="0 0 24 24" fill="currentColor"><path d="M4.02,20.5C4.02,17.2,7.08,17.75,7.35,14.5L7.4,13.95L6.07,13.95C5.9,13.6,5.85,13.28,5.85,12.96L7.4,12.03C6.6,11.56,6.27,10.81,6.27,10.1C6.27,8.83,7.32,7.83,8.54,7.83C9.3,7.83,9.98,8.21,10.4,8.81C9.25,9.6,8.5,10.98,8.5,12.63C8.5,14.04,9.5,15.51,10.35,16.7C10.44,16.83,10.53,16.95,10.61,17.06C9.65,17.71,9.12,18.69,9.12,19.61L9.12,20.51ZM17.25,14.65L18.1,14.65C18.55,14.15,19.58,13.5,19.58,12.77C19.58,12.25,19.18,11.93,18.58,11.93C18,11.93,17.25,12.45,17.25,12.45ZM14.78,14.65L14.78,12.45C14.78,12.45,14.03,11.93,13.43,11.93C12.83,11.93,12.45,12.25,12.45,12.77C12.45,13.5,13.45,14.15,13.9,14.65ZM10.62,20.5L10.62,19.6C10.62,18.65,11.43,18,12.72,17.82C12.52,17.02,11.99,16.42,11.57,15.82C10.75,14.67,10,13.87,10,12.62C10,10.74,11.2,9.54,12.83,9.54C13.86,9.54,14.5,9.84,14.93,10.09L15.36,8.49L13.78,8.49L13.78,6.99L15.36,6.99L15.36,5.49L16.68,5.49L16.68,6.99L18.26,6.99L18.26,8.49L16.71,8.49L17.06,10.09C17.46,9.84,18.13,9.54,19.16,9.54C20.86,9.54,22.01,10.84,22.01,12.62C22.01,13.87,21.23,14.66,20.41,15.82C19.98,16.42,19.44,17.02,19.29,17.82C20.61,18,21.39,18.65,21.39,19.6L21.39,20.5Z"/></svg>