<svg xmlns="http://www.w3.org/2000/svg" viewBox="0 0 24 24"><path d="M11,8L6.33,8C6.16,7.73,6.1,7.43,6.1,7.13L7.57,6.23C6.84,5.73,6.54,5.06,6.54,4.36C6.54,3.19,7.51,2.23,8.67,2.23C9.84,2.23,10.8,3.2,10.8,4.36C10.8,5.13,10.57,5.66,9.77,6.19L11.24,7.12C11.24,7.42,11.17,7.72,11.01,7.99Z" fill="currentColor"/><path d="M17.67,8L13,8C12.83,7.73,12.77,7.43,12.77,7.13L14.24,6.23C13.51,5.73,13.21,5.06,13.21,4.36C13.21,3.19,14.18,2.23,15.34,2.23C16.51,2.23,17.47,3.2,17.47,4.36C17.47,5.13,17.24,5.66,16.44,6.19L17.91,7.12C17.91,7.42,17.84,7.72,17.68,7.99Z" fill="currentColor"/><path d="M9.77,22L7.57,22C7.57,18.9,10.64,19.37,10.87,16.3L10.9,15.77L9.67,15.77C9.5,15.5,9.44,15.2,9.44,14.9L10.91,14C10.18,13.5,9.88,12.83,9.88,12.13C9.88,10.96,10.85,10,12.01,10C13.18,10,14.14,10.97,14.14,12.13C14.14,12.9,13.91,13.43,13.11,13.96L14.58,14.89C14.58,15.19,14.51,15.49,14.35,15.76L13.12,15.76L13.15,16.29C13.21,17.07,13.45,17.62,13.78,18.06C12.99,19.19,12.25,20.4,12.25,21.99Z" fill="currentColor"/><path d="M0.9,22C0.9,18.9,3.97,19.37,4.2,16.3L4.23,15.77L3,15.77C2.83,15.5,2.77,15.2,2.77,14.9L4.24,14C3.51,13.5,3.21,12.83,3.21,12.13C3.21,10.96,4.18,10,5.34,10C6.51,10,7.47,10.97,7.47,12.13C7.47,12.9,7.24,13.43,6.44,13.96L7.91,14.89C7.91,15.19,7.84,15.49,7.68,15.76L6.45,15.76L6.48,16.29C6.54,17.07,6.78,17.62,7.11,18.06C6.32,19.19,5.58,20.4,5.58,21.99Z" fill="currentColor"/><path d="M14.23,22C14.23,20.76,14.72,20.09,15.33,19.53C15.94,20.08,16.43,20.75,16.43,22Z" fill="currentColor"/><path d="M23.1,22L14.23,22C14.23,18.9,17.3,19.37,17.53,16.3L17.56,15.77L16.33,15.77C16.16,15.5,16.1,15.2,16.1,14.9L17.57,14C16.84,13.5,16.54,12.83,16.54,12.13C16.54,10.96,17.51,10,18.67,10C19.84,10,20.8,10.97,20.8,12.13C20.8,12.9,20.57,13.43,19.77,13.96L21.24,14.89C21.24,15.19,21.17,15.49,21.01,15.76L19.78,15.76L19.81,16.29C20.04,19.36,23.11,18.89,23.11,21.99Z" fill="currentColor"/></svg>