<svg xmlns="http://www.w3.org/2000/svg" viewBox="0 0 24 24" fill="currentColor"><path d="M4.25,20.5C4.25,18.5,5.4,17.52,6.52,16.58C7.59,15.68,8.6,14.85,8.6,13.18L8.6,12.48L6.97,12.48C6.77,12.13,6.69,11.73,6.69,11.33L8.59,10.19C7.67,9.54,7.24,8.69,7.24,7.76C7.24,6.24,8.46,5.01,9.99,5.01C11.51,5.01,12.74,6.23,12.74,7.76C12.74,8.69,12.32,9.54,11.39,10.16L12.98,11.15C11.18,12.35,10,14.41,10,16.77C10,18.16,10.41,19.44,11.12,20.52ZM16.75,13C14.64,13,13,14.63,13,16.75C13,18.85,14.65,20.5,16.75,20.5C18.87,20.5,20.5,18.86,20.5,16.75C20.5,14.62,18.88,13,16.75,13ZM16.75,11.5C19.65,11.5,22,13.85,22,16.75C22,19.62,19.65,22,16.75,22C13.88,22,11.5,19.62,11.5,16.75C11.5,13.85,13.88,11.5,16.75,11.5ZM13.17,19.27L19.27,13.17L20.33,14.23L14.23,20.33Z"/></svg>