<svg xmlns="http://www.w3.org/2000/svg" viewBox="0 0 24 24" fill="currentColor"><path d="M16.26,14.5L16.69,14.24C16.7,14.32,16.7,14.41,16.7,14.5ZM9.37,13.83L8.65,13.83L8.7,14.25C8.9,16.83,11.46,16.43,11.46,19L4.05,19C4.05,16.43,6.6,16.83,6.8,14.25L6.86,13.83L5.81,13.83C5.66,13.58,5.61,13.32,5.61,13.1L6.86,12.33C6.24,11.9,5.98,11.37,5.98,10.77C5.98,9.82,6.78,9,7.76,9C8.73,9,9.54,9.82,9.54,10.77C9.54,11.43,9.33,11.85,8.66,12.3L9.74,12.99L9.91,13.09C9.91,13.32,9.86,13.56,9.71,13.82ZM11.22,6.27C11.22,5.32,12.03,4.5,13,4.5C13.98,4.5,14.78,5.32,14.78,6.27C14.78,6.93,14.58,7.35,13.9,7.79L15.15,8.6C15.15,8.82,15.1,9.07,14.95,9.33L13.9,9.33L13.95,9.75C14.04,10.79,14.49,11.34,15.02,11.81C14.99,11.97,14.98,12.12,14.98,12.28C14.98,12.61,15.07,13,15.23,13.38L14.61,13.77C14.61,14.01,14.62,14.26,14.65,14.5L10.98,14.5C11.28,13.78,11.41,13.04,11.41,12.28L10.86,11.93C11.43,11.44,11.97,10.89,12.06,9.75L12.12,9.33L11.07,9.33C10.92,9.08,10.86,8.82,10.86,8.6L12.12,7.83C11.49,7.4,11.24,6.87,11.24,6.27ZM21.95,20.5L14.55,20.5C14.55,17.73,17.09,18.33,17.3,15.75L17.35,15.33L16.3,15.33C16.15,15.08,16.1,14.82,16.1,14.6L17.35,13.83C16.73,13.4,16.47,12.87,16.47,12.27C16.47,11.32,17.28,10.5,18.25,10.5C19.23,10.5,20.03,11.32,20.03,12.27C20.03,12.93,19.83,13.35,19.15,13.8L20.4,14.6C20.4,14.82,20.35,15.07,20.2,15.33L19.15,15.33L19.2,15.75C19.41,18.33,21.96,17.73,21.96,20.5Z"/></svg>