<svg xmlns="http://www.w3.org/2000/svg" viewBox="0 0 24 24" fill="currentColor"><path d="M12.87,11.52L12.87,13.98L13.6,13.98C13.56,14.72,13.92,15.48,14.65,16.02C14.52,16.13,14.36,16.27,14.13,16.45C13.07,17.38,11.93,18.74,11.92,20.5L5.49,20.5L5.49,19.5C5.49,18.42,6.38,17.68,7.88,17.53C7.6,16.62,7.01,15.96,6.52,15.28C5.6,14.01,4.74,13.11,4.74,11.7C4.74,9.63,6.09,8.28,7.91,8.28C9.06,8.28,9.84,8.63,10.26,8.9L10.76,7L8.99,7L8.99,5.5L10.73,5.5L10.73,4L12.23,4L12.23,5.5L13.98,5.5L13.98,7L12.26,7L12.68,8.9C13.11,8.62,13.88,8.28,15.03,8.28C15.24,8.28,15.44,8.29,15.63,8.33C14.73,8.92,14.09,9.91,13.99,10.98C13.43,11.12,12.85,11.52,12.85,11.52ZM10.13,13.98L10.13,11.52C10.13,11.52,9.28,10.92,8.63,10.92C7.95,10.92,7.52,11.3,7.52,11.88C7.52,12.68,8.65,13.4,9.15,13.98ZM13.33,20.5C13.33,17.6,16.2,18.05,16.46,15.15L16.48,14.68L15.33,14.68C15.18,14.43,15.11,14.13,15.11,13.83L16.48,13.01C15.81,12.56,15.5,11.94,15.5,11.26C15.5,10.16,16.41,9.26,17.51,9.26C18.61,9.26,19.51,10.16,19.51,11.26C19.51,11.96,19.29,12.48,18.54,12.98L19.91,13.83C19.91,14.13,19.83,14.43,19.71,14.68L18.53,14.68L18.58,15.15C18.8,18.05,21.68,17.6,21.68,20.5Z"/></svg>