<svg xmlns="http://www.w3.org/2000/svg" viewBox="0 0 24 24" fill="currentColor"><path d="M13.47,6.53C13.47,6.83,13.27,7.07,13,7.07C12.72,7.07,12.53,6.83,12.53,6.53C12.53,6.08,12.85,5.46,13,4.58C13.17,5.46,13.47,6.08,13.47,6.53ZM9.07,7.75C9.27,7.98,9.27,8.3,9.05,8.48C8.85,8.65,8.52,8.58,8.32,8.35C8.04,8,7.92,7.3,7.47,6.55C8.17,7.1,8.8,7.4,9.07,7.75ZM6.43,11.47C6.73,11.52,6.93,11.77,6.88,12.05C6.8,12.32,6.53,12.44,6.23,12.4C5.8,12.3,5.25,11.85,4.43,11.52C5.33,11.54,5.98,11.37,6.43,11.47ZM5.2,17.35C5.9,16.8,6.32,16.25,6.72,16.02C6.97,15.89,7.3,15.97,7.42,16.2C7.55,16.44,7.42,16.74,7.14,16.87C6.74,17.07,6.04,17.07,5.19,17.34ZM17.63,8.32C17.43,8.54,17.13,8.62,16.9,8.45C16.7,8.27,16.7,7.95,16.88,7.72C17.18,7.37,17.8,7.1,18.48,6.5C18.08,7.3,17.9,7.98,17.63,8.32ZM19.77,12.36C19.47,12.41,19.17,12.28,19.12,12C19.07,11.73,19.27,11.48,19.57,11.43C20,11.33,20.67,11.5,21.57,11.48C20.75,11.83,20.2,12.25,19.77,12.36ZM20.85,17.27C19.97,17.05,19.3,17.03,18.9,16.82C18.62,16.67,18.5,16.4,18.62,16.15C18.75,15.9,19.05,15.85,19.32,15.98C19.72,16.18,20.12,16.75,20.84,17.27ZM8.82,20.5L8.82,19.75C8.82,18.85,9.63,18.27,10.92,18.25C10.3,17.35,9.82,16.38,9.82,15.05C9.82,12.63,11.82,10.75,11.82,10.75C11.7,10.17,11.7,10.05,11.7,9.9C11.7,9.13,12.27,8.5,12.99,8.5C13.72,8.5,14.32,9.12,14.32,9.9C14.32,10.13,14.3,10.55,13.95,10.95C12.99,12.06,12.3,13.6,12.17,15.43L13.42,15.43C13.5,13.93,14,12.66,14.79,11.66C15.37,12.05,16.2,13.51,16.2,15.06C16.2,16.43,15.75,17.4,15.12,18.26C16.4,18.28,17.17,18.88,17.17,19.76L17.17,20.51Z"/></svg>