<svg xmlns="http://www.w3.org/2000/svg" viewBox="0 0 24 24"><path d="M2,20.67C2,19.1,3.07,18.2,5.13,18.04L1.5,7.01C0.63,6.88,0,6.14,0,5.28C0,4.38,0.73,3.58,1.67,3.58C2.54,3.58,3.3,4.35,3.3,5.31C3.3,5.71,3.2,6.04,2.93,6.34L5.96,10.27L6.33,4.17C5.5,3.8,5.13,3.27,5.13,2.47C5.13,1.47,5.9,0.67,6.9,0.67C7.9,0.67,8.63,1.47,8.63,2.47C8.63,3.07,8.43,3.57,7.96,3.94L8.99,7.02L8.99,8.57C8.99,10.6,10.39,12,12.42,12L16.82,12L14.85,18.03C16.92,18.23,17.98,19.1,17.98,20.66L17.98,21.99L1.98,21.99Z" fill="currentColor"/><path d="M23.07,8L18.94,8C18.34,8,18.01,7.67,18.01,7.07L18.01,6.8C18.01,6.2,18.24,5.63,18.64,5.17L21.44,2L18.94,2C18.34,2,18.01,1.67,18.01,1.07L18.01,0.94C18.01,0.34,18.34,0.01,18.94,0.01L23.07,0.01C23.67,0.01,24,0.34,24,0.94L24,1.27C24,1.87,23.77,2.44,23.37,2.9L20.6,6L23.07,6C23.67,6,24,6.33,24,6.93L24,7.06C24,7.66,23.67,7.99,23.07,7.99Z" fill="currentColor"/><path d="M11.93,2L16.06,2C16.66,2,16.99,2.33,16.99,2.93L16.99,3.2C16.99,3.8,16.76,4.37,16.36,4.83L13.56,8L16.06,8C16.66,8,16.99,8.33,16.99,8.93L16.99,9.06C16.99,9.66,16.66,9.99,16.06,9.99L11.93,9.99C11.33,9.99,11,9.66,11,9.06L11,8.73C11,8.13,11.23,7.56,11.63,7.1L14.4,4L11.93,4C11.33,4,11,3.67,11,3.07L11,2.94C11,2.34,11.33,2.01,11.93,2.01Z" fill="currentColor"/></svg>