<svg xmlns="http://www.w3.org/2000/svg" viewBox="0 0 24 24" fill="currentColor"><path d="M16.45,17.5L9.55,17.5C9.55,15.1,11.95,15.48,12.08,13.1L12.1,12.67L11.18,12.67C11.08,12.47,11.03,12.22,11.03,11.99L12.1,11.3C11.58,10.92,11.35,10.4,11.35,9.85C11.35,8.95,12.08,8.2,13,8.2C13.92,8.2,14.65,8.95,14.65,9.85C14.65,10.43,14.48,10.88,13.9,11.27L14.97,12C14.97,12.23,14.92,12.47,14.82,12.68L13.9,12.68L13.92,13.1C14.05,15.48,16.45,15.11,16.45,17.51ZM21.35,10.82C22.02,10.82,22.17,11.13,21.7,11.63L19.75,13.71C19.28,14.21,19,14.1,19,13.41L19,8.85C19,7.48,18.53,7,17.15,7L8.87,7C7.5,7,7,7.47,7,8.85L7,9.33C7,9.78,6.75,10.02,6.3,10.02L6.2,10.02C5.75,10.02,5.51,9.78,5.51,9.33L5.51,9.23C5.51,6.48,6.48,5.5,9.23,5.5L16.79,5.5C19.54,5.5,20.51,6.48,20.51,9.23L20.51,10.83ZM4.65,15.17C3.98,15.17,3.83,14.88,4.3,14.37L6.25,12.29C6.72,11.79,7,11.9,7,12.59L7,17.12C7,18.49,7.5,18.99,8.88,18.99L17.15,18.99C18.52,18.99,19,18.49,19,17.12L19,16.67C19,16.22,19.25,15.97,19.7,15.97L19.79,15.97C20.25,15.97,20.49,16.22,20.49,16.67L20.49,16.76C20.49,19.52,19.52,20.49,16.77,20.49L9.21,20.49C6.46,20.49,5.48,19.52,5.48,16.76L5.48,15.17Z"/></svg>