<svg xmlns="http://www.w3.org/2000/svg" viewBox="0 0 24 24" fill="currentColor"><path d="M10.13,13.98L10.13,11.52C10.13,11.52,9.28,10.92,8.63,10.92C7.95,10.92,7.52,11.3,7.52,11.88C7.52,12.68,8.65,13.4,9.15,13.98ZM5.5,20.5L5.5,19.5C5.5,18.42,6.38,17.68,7.88,17.53C7.61,16.62,7.01,15.96,6.53,15.28C5.6,14.01,4.75,13.11,4.75,11.7C4.75,9.63,6.1,8.28,7.92,8.28C9.07,8.28,9.85,8.63,10.27,8.9L10.77,7L9,7L9,5.5L10.74,5.5L10.74,4L12.24,4L12.24,5.5L13.99,5.5L13.99,7L12.27,7L12.69,8.9C13.12,8.62,13.89,8.28,15.04,8.28C16.38,8.28,17.41,8.99,17.91,10.1C17.53,10.03,17.14,10,16.74,10C12.99,10,9.99,13,9.99,16.75C9.99,18.14,10.4,19.43,11.12,20.5ZM16.75,13C14.64,13,13,14.63,13,16.75C13,18.85,14.65,20.5,16.75,20.5C18.87,20.5,20.5,18.86,20.5,16.75C20.5,14.62,18.88,13,16.75,13ZM16.75,11.5C19.65,11.5,22,13.85,22,16.75C22,19.62,19.65,22,16.75,22C13.88,22,11.5,19.62,11.5,16.75C11.5,13.85,13.88,11.5,16.75,11.5ZM13.17,19.27L19.27,13.17L20.33,14.23L14.23,20.33Z"/></svg>