<svg xmlns="http://www.w3.org/2000/svg" viewBox="0 0 24 24"><path d="M4.7,7C2.9,7,1.4,6.17,1.4,4.3C1.4,2.77,2.47,1.83,3.9,1.83C5.43,1.83,6.38,2.82,7.02,4.75C7.68,2.82,8.62,1.83,10.13,1.83C11.6,1.83,12.63,2.8,12.63,4.3C12.63,6.13,11.1,7,9.4,7Z" fill="currentColor"/><path d="M2.67,22C0.67,22,0,21.33,0,19.33L0,16L6,16L6,22Z" fill="currentColor"/><path d="M0,11.67C0,9.67,0.67,9,2.67,9L6,9L6,14L0,14Z" fill="currentColor"/><path d="M8,14L8,9L11.33,9C12.33,9,12.99,9.17,13.41,9.58C13.4,9.7,13.39,9.81,13.4,9.93C13.4,10.48,13.58,11.14,13.88,11.79L13.2,12.3C13.2,12.87,13.25,13.44,13.37,14Z" fill="currentColor"/><path d="M4.7,5.53L5.82,5.53C5.31,3.91,4.87,3.3,4.03,3.3C3.4,3.3,2.8,3.57,2.8,4.3C2.8,5.3,3.8,5.53,4.7,5.53Z" fill="currentColor"/><path d="M8.27,5.53L9.4,5.53C10.2,5.53,11.2,5.3,11.2,4.3C11.2,3.57,10.6,3.3,10.03,3.3C9.25,3.3,8.74,3.92,8.26,5.53Z" fill="currentColor"/><path d="M8,16L14,16L14,16.1C12.87,17.44,10.57,18.93,10.57,22L8,22Z" fill="currentColor"/><path d="M23.43,22L12.56,22C12.56,18.2,16.33,18.8,16.59,15.03L16.66,14.4L15.13,14.4C14.96,14.07,14.86,13.67,14.86,13.3L16.66,12.2C15.76,11.63,15.39,10.8,15.39,9.93C15.39,8.5,16.56,7.33,17.99,7.33C19.42,7.33,20.59,8.5,20.59,9.93C20.59,10.86,20.32,11.53,19.32,12.2L21.12,13.3C21.12,13.67,21.02,14.07,20.85,14.4L19.32,14.4L19.39,15.03C19.66,18.8,23.42,18.2,23.42,22Z" fill="currentColor"/></svg>