<svg xmlns="http://www.w3.org/2000/svg" viewBox="0 0 24 24" fill="currentColor"><path d="M5.5,19.5C5.5,18.33,6.3,17.65,7.85,17.53L5.12,9.26C4.47,9.16,4,8.61,4,7.96C4,7.29,4.55,6.69,5.25,6.69C5.9,6.69,6.47,7.26,6.47,7.98C6.47,8.28,6.4,8.53,6.2,8.76L8.47,11.7L8.75,7.13C8.12,6.85,7.85,6.45,7.85,5.85C7.85,5.1,8.42,4.5,9.17,4.5C9.92,4.5,10.47,5.1,10.47,5.85C10.47,6.3,10.32,6.68,9.97,6.96L11.49,11.51L11.53,11.4C11.51,11.58,11.49,11.79,11.49,12.01L11.49,15.96C11.49,18.03,11.67,18.89,13.66,20.52L5.49,20.52ZM12.48,5.85C12.48,5.16,13.05,4.5,13.8,4.5C14.55,4.5,15.13,5.1,15.13,5.85C15.13,6.45,14.85,6.85,14.23,7.13L14.41,9.84C14.15,9.9,13.86,9.95,13.51,9.98C12.63,9.99,12.09,10.17,11.8,10.61L13.01,6.95C12.66,6.67,12.48,6.29,12.48,5.84ZM16.61,8.54C16.52,8.37,16.47,8.19,16.47,7.98C16.47,7.3,17.05,6.68,17.72,6.68C18.5,6.68,19,7.38,19,7.95C19,8.23,18.89,8.52,18.7,8.75C17.94,8.17,17.33,8.09,16.61,8.54ZM22,11.5C19.9,11.5,19.28,11.2,17.5,9.48C15.77,11.2,15.12,11.5,13,11.5L13,15.98C13,18.53,13.28,18.88,17.5,21.6C21.72,18.92,22,18.58,22,15.98Z"/></svg>