<svg xmlns="http://www.w3.org/2000/svg" viewBox="0 0 24 24" fill="currentColor"><path d="M9.38,11.52C9.38,11.52,8.53,10.92,7.88,10.92C7.2,10.92,6.78,11.3,6.78,11.87C6.78,12.68,7.9,13.4,8.4,13.97L9.38,13.97ZM4.75,19.5C4.75,18.42,5.63,17.68,7.13,17.53C6.86,16.62,6.26,15.96,5.78,15.28C4.85,14.01,4,13.11,4,11.7C4,9.63,5.35,8.28,7.17,8.28C8.32,8.28,9.1,8.63,9.52,8.9L10.02,7L8.25,7L8.25,5.5L9.99,5.5L9.99,4L11.49,4L11.49,5.5L13.24,5.5L13.24,6.98L11.49,6.98L11.49,20.5L4.74,20.5ZM19.6,11.5L15.5,11.5C14.47,11.5,13.45,11.03,13.45,9.8C13.45,8.77,14.2,8.13,15.18,8.13C16.45,8.13,17.35,9.25,17.8,10.92L17.25,10.92C17.7,9.22,18.63,8.13,19.86,8.13C20.85,8.13,21.56,8.82,21.56,9.8C21.56,11.02,20.53,11.5,19.61,11.5ZM14.07,20.5C13.3,20.5,13,20.2,13,19.43L13,17.5L16.75,17.5L16.75,20.5ZM13,14.07C13,13.3,13.3,13,14.07,13L16.75,13L16.75,16L13,16ZM18.25,20.5L18.25,17.5L22,17.5L22,19.43C22,20.2,21.7,20.5,20.93,20.5ZM18.25,16L18.25,13L20.93,13C21.7,13,22,13.3,22,14.07L22,16ZM16.8,10.92C16.41,9.57,15.9,9.1,15.25,9.1C14.82,9.1,14.42,9.33,14.42,9.8C14.42,10.45,15.12,10.53,15.5,10.53L19.6,10.53C19.88,10.53,20.57,10.45,20.57,9.8C20.57,9.32,20.18,9.1,19.77,9.1C19.2,9.1,18.62,9.57,18.25,10.92Z"/></svg>