<svg xmlns="http://www.w3.org/2000/svg" viewBox="0 0 24 24"><path d="M0,20C0,17.87,1.07,16.77,2.23,15.73C3.4,14.8,4.53,13.9,4.53,12.13L4.53,11.43L2.73,11.43C2.53,11.06,2.43,10.56,2.43,10.1L4.53,8.83C3.56,8.13,3.03,7.33,3.03,6.26C3.03,4.66,4.4,3.33,6.03,3.33C6.66,3.33,7.24,3.53,7.72,3.87C7.29,4.59,7.03,5.41,7.03,6.26C7.03,6.81,7.2,7.47,7.51,8.13C6.14,9.48,6.17,11.53,7.6,12.87C7.64,13.09,7.71,13.31,7.79,13.5C7.57,13.7,7.29,13.92,6.94,14.2C5.68,15.31,4,17.05,3.99,20Z" fill="currentColor"/><path d="M6,20C6,17.87,7.07,16.77,8.23,15.73C9.4,14.8,10.53,13.9,10.53,12.13L10.53,11.43L8.73,11.43C8.53,11.06,8.43,10.56,8.43,10.1L10.53,8.83C9.56,8.13,9.03,7.33,9.03,6.26C9.03,4.66,10.4,3.33,12.03,3.33C12.66,3.33,13.24,3.53,13.72,3.87C13.29,4.59,13.03,5.41,13.03,6.26C13.03,6.81,13.2,7.47,13.51,8.13C12.14,9.48,12.17,11.53,13.6,12.87C13.64,13.09,13.71,13.31,13.79,13.5C13.57,13.7,13.29,13.92,12.94,14.2C11.68,15.31,10,17.05,9.99,20Z" fill="currentColor"/><path d="M24,20L12,20C12,17.87,13.07,16.77,14.23,15.73C15.4,14.8,16.53,13.9,16.53,12.13L16.53,11.43L14.73,11.43C14.53,11.06,14.43,10.56,14.43,10.1L16.53,8.83C15.56,8.13,15.03,7.33,15.03,6.26C15.03,4.66,16.4,3.33,18.03,3.33C19.66,3.33,20.93,4.66,20.93,6.26C20.93,7.33,20.5,8.19,19.53,8.83L21.56,10.1C21.56,10.57,21.46,11.07,21.19,11.43L19.52,11.43L19.52,12.13C19.52,13.9,20.59,14.8,21.72,15.73C22.92,16.76,23.99,17.86,23.99,20Z" fill="currentColor"/></svg>