<svg xmlns="http://www.w3.org/2000/svg" viewBox="0 0 24 24"><path d="M2.97,12.27C2.8,12.4,1.07,12,0.44,11.47C0.01,11.07,-0.03,10.4,0.37,9.84L2.04,7.51C2.81,6.44,2.81,5.84,3.24,4.74C3.34,4.44,3.51,4.01,4.04,3.57C4.57,3.1,4.94,2.77,5.14,2.24L5.34,1.24C5.41,0.94,5.67,0.67,5.94,0.67L7.77,2.5C10.79,2.69,14.04,4.49,15.13,8.19C11.04,9.05,8.01,12.64,8.01,17C8.01,18.86,8.56,20.57,9.51,22L1.01,22L1.01,20.67C1.01,19.28,2.1,18.32,3.95,18.07C3.98,14.97,6.1,13.27,7.25,12.34C8.05,11.67,8.88,10.81,8.88,9.91C8.88,9.21,8.45,8.64,8.28,8.41L7.71,9.04C7.18,9.61,6.21,10.61,5.11,10.61C3.68,10.64,3.64,11.64,2.98,12.28Z" fill="currentColor"/><path d="M22,17C22,14.16,19.84,12,17,12C14.19,12,12,14.17,12,17C12,19.8,14.2,22,17,22C19.83,22,22,19.81,22,17Z" fill="currentColor"/><path d="M10,17C10,13.13,13.17,10,17,10C20.87,10,24,13.13,24,17C24,20.83,20.87,24,17,24C13.17,24,10,20.83,10,17Z" fill="currentColor"/><path d="M12.23,20.36L20.36,12.23L21.77,13.64L13.64,21.77Z" fill="currentColor"/></svg>