<svg xmlns="http://www.w3.org/2000/svg" viewBox="0 0 24 24" fill="currentColor"><path d="M11.5,10.82L11.5,12.48L11.5,20.5L4.25,20.5C4.25,16.5,8.25,17.13,8.47,13.15L8.49,12.47L6.97,12.47C6.77,12.12,6.69,11.7,6.69,11.33L8.49,10.15C7.62,9.53,7.24,8.67,7.24,7.75C7.24,6.25,8.46,5,9.99,5C11.48,5,12.69,6.2,12.74,7.66C11.97,8.31,11.62,9.04,11.52,10.1C11.52,10.11,11.5,10.12,11.49,10.13L11.52,10.14C11.51,10.35,11.49,10.58,11.49,10.82ZM19.6,11.5L15.5,11.5C14.47,11.5,13.45,11.03,13.45,9.8C13.45,8.77,14.2,8.13,15.18,8.13C16.45,8.13,17.35,9.25,17.8,10.92L17.25,10.92C17.7,9.22,18.63,8.13,19.86,8.13C20.85,8.13,21.56,8.82,21.56,9.8C21.56,11.02,20.53,11.5,19.61,11.5ZM14.07,20.5C13.3,20.5,13,20.2,13,19.43L13,17.5L16.75,17.5L16.75,20.5ZM13,14.07C13,13.3,13.3,13,14.07,13L16.75,13L16.75,16L13,16ZM18.25,20.5L18.25,17.5L22,17.5L22,19.43C22,20.2,21.7,20.5,20.93,20.5ZM18.25,16L18.25,13L20.93,13C21.7,13,22,13.3,22,14.07L22,16ZM16.8,10.92C16.41,9.57,15.9,9.1,15.25,9.1C14.82,9.1,14.42,9.33,14.42,9.8C14.42,10.45,15.12,10.53,15.5,10.53L19.6,10.53C19.88,10.53,20.57,10.45,20.57,9.8C20.57,9.32,20.18,9.1,19.77,9.1C19.2,9.1,18.62,9.57,18.25,10.92Z"/></svg>