<svg xmlns="http://www.w3.org/2000/svg" viewBox="0 0 24 24"><path d="M6.3,22L13.91,14.39C14.86,17.92,18.8,17.67,18.8,22Z" fill="currentColor"/><path d="M23.4,2.03L14.92,10.51L5.68,19.75L2.1,23.33L2.07,23.36C1.64,23.79,1.17,23.79,0.74,23.36L0.64,23.26C0.21,22.83,0.21,22.36,0.64,21.93L10.07,12.5L8.44,12.5C8.21,12.1,8.11,11.6,8.11,11.13L10.34,9.76C9.21,9.03,8.74,7.99,8.74,6.93C8.74,5.13,10.21,3.66,12.01,3.66C13.81,3.66,15.28,5.13,15.28,6.93C15.28,7.06,15.28,7.19,15.26,7.31L21.98,0.59C22.41,0.16,22.88,0.16,23.31,0.59L23.41,0.69C23.83,1.11,23.84,1.57,23.44,1.99C23.43,2,23.42,2.01,23.41,2.02Z" fill="currentColor"/></svg>