<svg xmlns="http://www.w3.org/2000/svg" viewBox="0 0 24 24"><path d="M23.4,2.03L21.42,4.01L18.82,6.61L15.98,9.45L4,21.43L2.1,23.33L2.07,23.36C1.64,23.79,1.17,23.79,0.74,23.36L0.64,23.26C0.21,22.83,0.21,22.36,0.64,21.93L6.5,16.07L3.51,6.99C2.64,6.86,2.01,6.12,2.01,5.26C2.01,4.36,2.74,3.56,3.68,3.56C4.55,3.56,5.31,4.33,5.31,5.29C5.31,5.69,5.21,6.02,4.94,6.32L7.97,10.25L8.34,4.15C7.51,3.78,7.14,3.25,7.14,2.45C7.14,1.45,7.91,0.65,8.91,0.65C9.91,0.65,10.64,1.45,10.64,2.45C10.64,3.05,10.44,3.55,9.97,3.92L12,9.99L14,3.92C13.53,3.55,13.3,3.05,13.3,2.45C13.3,1.52,14.07,0.65,15.07,0.65C16.07,0.65,16.84,1.45,16.84,2.45C16.84,3.25,16.47,3.78,15.64,4.15L15.81,6.75L21.97,0.59C22.4,0.16,22.87,0.16,23.3,0.59L23.4,0.69C23.82,1.11,23.83,1.57,23.43,1.99C23.42,2,23.41,2.01,23.4,2.02Z" fill="currentColor"/><path d="M6.3,22L20.06,8.24L16.86,18.04C18.93,18.24,19.99,19.11,19.99,20.67L19.99,22Z" fill="currentColor"/></svg>