<svg xmlns="http://www.w3.org/2000/svg" viewBox="0 0 24 24"><path d="M7.23,17.2C7.23,16.27,7.86,15.73,9.1,15.63L6.93,9C6.4,8.93,6.03,8.47,6.03,7.97C6.03,7.44,6.46,6.94,7.03,6.94C7.56,6.94,8,7.41,8,7.97C8,8.24,7.97,8.44,7.8,8.6L9.6,10.97L9.83,7.3C9.33,7.07,9.1,6.77,9.1,6.27C9.1,5.67,9.57,5.2,10.17,5.2C10.77,5.2,11.2,5.67,11.2,6.27C11.2,6.64,11.1,6.94,10.8,7.17L12.03,10.8L13.23,7.17C12.96,6.94,12.8,6.64,12.8,6.27C12.8,5.74,13.27,5.2,13.87,5.2C14.47,5.2,14.94,5.67,14.94,6.27C14.94,6.77,14.71,7.07,14.21,7.3L14.48,10.97L16.28,8.6C16.11,8.43,16.01,8.23,16.01,7.97C16.01,7.44,16.48,6.94,17.01,6.94C17.64,6.94,18.04,7.51,18.04,7.97C18.04,8.44,17.67,8.94,17.11,9L14.98,15.63C16.21,15.73,16.85,16.26,16.85,17.2L16.85,18L7.25,18Z" fill="currentColor"/><path d="M23.13,9.1C24.03,9.1,24.23,9.5,23.6,10.17L21,12.94C20.37,13.61,20,13.47,20,12.54L20,6.47C20,4.64,19.37,4,17.53,4L6.5,4C4.67,4,4,4.63,4,6.47L4,7.1C4,7.7,3.67,8.03,3.07,8.03L2.94,8.03C2.34,8.03,2.01,7.7,2.01,7.1L2.01,6.97C2.01,3.3,3.31,2,6.98,2L17.05,2C20.72,2,22.02,3.3,22.02,6.97L22.02,9.1Z" fill="currentColor"/><path d="M0.87,14.9C-0.03,14.9,-0.23,14.5,0.4,13.83L3,11.06C3.63,10.39,4,10.53,4,11.46L4,17.49C4,19.32,4.67,19.99,6.5,19.99L17.53,19.99C19.36,19.99,20,19.32,20,17.49L20,16.89C20,16.29,20.33,15.96,20.93,15.96L21.06,15.96C21.66,15.96,21.99,16.29,21.99,16.89L21.99,17.02C21.99,20.69,20.69,21.99,17.02,21.99L6.95,21.99C3.28,21.99,1.98,20.69,1.98,17.02L1.98,14.89Z" fill="currentColor"/></svg>