<svg xmlns="http://www.w3.org/2000/svg" viewBox="0 0 24 24"><path d="M13.1,2.97C13.87,2.64,14.5,2.47,15.23,2.47L15.73,4.67L17.43,4.67L17.7,2.14C17.7,2.14,18.4,2.01,19,2.01C19.35,2.01,19.74,2.06,20,2.09L20,22.01L15.57,22.01C15.57,19.66,14.56,18.47,13.54,17.53L14.98,9.52C13.85,8.7,13.4,7.79,13.33,6.85Z" fill="currentColor"/><path d="M2.44,22C2.44,18.13,6.27,18.73,6.57,14.87L6.64,14.24L5.07,14.24C4.9,13.91,4.8,13.51,4.8,13.11L6.63,11.98C5.63,11.31,5.33,10.61,5.33,9.68C5.33,8.21,6.53,7.01,8,7.01C9.47,7.01,10.67,8.21,10.67,9.68C10.67,10.58,10.27,11.41,9.37,12.01L11.2,13.11C11.2,13.51,11.1,13.91,10.9,14.24L9.37,14.24L9.4,14.87C9.73,18.74,13.57,18.14,13.57,22Z" fill="currentColor"/></svg>