<svg xmlns="http://www.w3.org/2000/svg" viewBox="0 0 24 24"><path d="M0.33,22C0.33,16.67,5.66,17.5,5.96,12.2L5.99,11.3L3.96,11.3C3.69,10.83,3.59,10.27,3.59,9.77L5.99,8.2C4.82,7.37,4.32,6.23,4.32,5C4.32,3,5.95,1.33,7.99,1.33C10.02,1.33,11.66,3,11.66,5C11.66,5.09,11.66,5.17,11.65,5.25C11.24,5.79,10.99,6.47,10.96,7.27C10.72,7.58,10.4,7.88,9.99,8.17L11,8.85C11.07,9.85,11.2,10.64,11.41,11.31L9.99,11.31L10.02,12.21C10.12,14.06,10.84,15.16,11.73,16.04C11.1,17.37,10.96,19.06,10.95,22.01Z" fill="currentColor"/><path d="M14.44,22C13.41,22,13.01,21.6,13.01,20.57C13.04,16.67,13.38,16.44,16.44,14C13.37,11.57,13.04,11.37,13.01,7.47C13.01,6.44,13.41,6.04,14.44,6.04L22.57,6.04C23.6,6.04,24,6.44,24,7.47C23.97,11.37,23.63,11.57,20.57,14C23.64,16.43,23.97,16.67,24,20.57C24,21.6,23.6,22,22.57,22Z" fill="currentColor"/><path d="M14.97,20L22.04,20C22.04,16.6,18.84,17.93,18.84,15.67L18.84,14.04C18.84,13.44,19.07,12.84,19.44,12.41L21.87,9.64C22.4,9.01,21.9,8.91,18.4,8.91C15.1,8.91,14.63,9.01,15.13,9.61L17.56,12.41C17.93,12.84,18.16,13.44,18.16,14.04L18.16,15.67C18.16,17.94,14.96,16.7,14.96,20Z" fill="currentColor"/></svg>