<svg xmlns="http://www.w3.org/2000/svg" viewBox="0 0 24 24"><path d="M3.3,12.27C3.13,12.4,1.4,12,0.77,11.47C0.34,11.07,0.3,10.4,0.7,9.84L2.37,7.51C3.14,6.44,3.14,5.84,3.57,4.74C3.67,4.44,3.84,4.01,4.37,3.57C4.9,3.1,5.27,2.77,5.47,2.24L5.67,1.24C5.74,0.94,6,0.67,6.27,0.67L8.1,2.5C9.85,2.61,11.67,3.25,13.1,4.49C11.45,5.25,11.13,6.89,11.83,9.8L12.63,13.17C10.63,14.25,9.96,15.45,9.96,17.84L9.96,20.01L14.56,20.01L15.01,22.01L1.33,22.01L1.33,20.68C1.33,19.29,2.42,18.33,4.26,18.08C4.29,14.98,6.41,13.28,7.56,12.35C8.36,11.68,9.19,10.82,9.19,9.92C9.19,9.22,8.76,8.65,8.59,8.42L8.02,9.05C7.49,9.62,6.52,10.62,5.42,10.62C3.99,10.65,3.95,11.65,3.29,12.29Z" fill="currentColor"/><path d="M16.63,20L19.3,20L18.6,23.2C18.43,23.93,18.4,24,18,24C17.6,24,17.57,23.93,17.4,23.2Z" fill="currentColor"/><path d="M12,17.07C12,16.24,12.43,15.5,13.2,15.14L14.97,14.24L13.64,8.61C13.17,6.64,13.67,6.01,15.67,6.01L20.34,6.01C22.34,6.01,22.84,6.64,22.37,8.61L21,14.28L22.8,15.15C23.57,15.52,24,16.25,24,17.08L24,18.01L12,18.01Z" fill="currentColor"/></svg>