<svg xmlns="http://www.w3.org/2000/svg" viewBox="0 0 24 24"><path d="M3.27,10.57C3.29,10.88,3.33,11.19,3.4,11.48L2.13,11.37C-0.34,11.14,-0.34,10.87,2.13,10.67Z" fill="currentColor"/><path d="M3.27,5.8L5.07,5.63C4.78,5.93,4.51,6.27,4.29,6.63L3.28,6.53C0.85,6.3,0.85,6.03,3.28,5.8Z" fill="currentColor"/><path d="M4.6,15.4L5.6,15.3C5.79,15.51,5.99,15.72,6.19,15.92C6.41,16.14,6.61,16.33,6.79,16.5L4.61,16.27C2.18,16,2.18,15.67,4.61,15.4Z" fill="currentColor"/><path d="M9.53,16.67C9.03,15.77,8.3,15.2,7.6,14.5C6.43,13.33,5.27,12.13,5.27,10.27C5.27,7.5,7.14,5.7,9.67,5.7C11.27,5.7,12.34,6.17,13.27,6.87L13.67,4L10.97,4L10.97,2L13.67,2L13.67,0L15.64,0L15.64,2L18.27,2L18.27,4L15.67,4L15.97,6.87C16.9,6.17,17.97,5.7,19.57,5.7C22.2,5.7,24,7.63,24,10.27C24,12.14,22.8,13.34,21.63,14.5C20.93,15.2,20.2,15.77,19.7,16.67Z" fill="currentColor"/><path d="M6.63,20.67C6.63,19.04,8.13,18,10.6,18L18.63,18C21.13,18,22.63,19.03,22.63,20.67L22.63,22L6.63,22Z" fill="currentColor"/><path d="M17.77,13.3C18.44,12.53,19.94,11.57,19.94,10.5C19.94,9.73,19.37,9.23,18.47,9.23C17.6,9.23,16.47,10.03,16.47,10.03L16.47,13.3Z" fill="currentColor"/><path d="M12.8,10.03C12.8,10.03,11.67,9.23,10.8,9.23C9.9,9.23,9.33,9.73,9.33,10.5C9.33,11.57,10.83,12.53,11.5,13.3L12.8,13.3Z" fill="currentColor"/></svg>