<svg xmlns="http://www.w3.org/2000/svg" viewBox="0 0 24 24" fill="currentColor"><path d="M18.87,12C20.72,12.15,20.72,12.36,18.87,12.53L15.74,12.8C15.75,12.7,15.75,12.59,15.75,12.47C15.75,12.22,15.73,11.96,15.69,11.72ZM18.02,8.35C19.85,8.52,19.85,8.73,18.02,8.9L14.87,9.2C14.63,8.76,14.36,8.34,14.08,7.97ZM17.03,15.55C18.85,15.75,18.85,16,17.03,16.2L14.92,16.42C14.82,16.38,14.71,16.34,14.6,16.3C14.78,16.01,14.95,15.69,15.1,15.35ZM12.65,16.5L7.34,16.5C6.89,16,5.75,14.5,5.75,12.48C5.75,9.5,8.42,7.5,8.42,7.5C8.25,6.73,8.25,6.58,8.25,6.38C8.25,5.33,9.02,4.5,10,4.5C10.97,4.5,11.75,5.33,11.75,6.38C11.75,6.68,11.69,7.2,11.27,7.78L10.77,8.46C9.89,9.68,9.52,10.58,9.29,12.06L9.14,13.01L10.32,13.01L10.52,11.86C10.7,10.83,10.95,10.21,11.57,9.36L12.4,8.22C13.17,9.04,14.25,10.56,14.25,12.49C14.25,14.52,13.13,16.02,12.65,16.52ZM4.38,19.5C4.38,18.28,5.5,17.5,7.35,17.5L12.66,17.5C14.51,17.5,15.63,18.27,15.63,19.5L15.63,20.5L4.38,20.5Z"/></svg>