<svg xmlns="http://www.w3.org/2000/svg" viewBox="0 0 24 24" fill="currentColor"><path d="M18.75,12.55C18.75,12.55,18.75,12.55,18.75,12.55C18.75,12.55,18.75,12.55,18.75,12.55C18.75,12.55,18.75,12.55,18.75,12.55C18.75,12.55,18.75,12.55,18.75,12.55ZM35.25,5.05C35.25,5.05,35.25,5.05,35.25,5.05C35.25,5.05,35.25,5.05,35.25,5.05C35.25,5.05,35.25,5.05,35.25,5.05C35.25,5.05,35.25,5.05,35.25,5.05ZM52,13C52,13,52,13,52,13C52,13,52,13,52,13C52,13,52,13,52,13C52,13,52,13,52,13ZM109,28C109,28,109,28,109,28C109,28,109,28,109,28C109,28,109,28,109,28C109,28,109,28,109,28ZM8.5,17.5L8.5,16.75C8.5,15.87,9.1,15.35,10.28,15.27L8.23,9.05C7.73,8.97,7.38,8.57,7.38,8.07C7.38,7.57,7.81,7.12,8.34,7.12C8.81,7.12,9.23,7.55,9.23,8.1C9.23,8.32,9.18,8.52,9.03,8.67L10.73,10.9L10.96,7.47C10.49,7.25,10.29,6.95,10.29,6.5C10.29,5.95,10.71,5.5,11.26,5.5C11.84,5.5,12.24,5.95,12.24,6.5C12.24,6.85,12.14,7.12,11.86,7.32L13.01,10.75L14.13,7.32C13.89,7.12,13.73,6.85,13.73,6.5C13.73,5.97,14.19,5.5,14.73,5.5C15.31,5.5,15.73,5.95,15.73,6.5C15.73,6.95,15.53,7.25,15.06,7.47L15.28,10.9L16.95,8.67C16.8,8.52,16.73,8.32,16.73,8.1C16.73,7.59,17.18,7.12,17.68,7.12C18.26,7.12,18.63,7.65,18.63,8.07C18.63,8.52,18.28,8.97,17.79,9.05L15.76,15.27C16.91,15.37,17.51,15.87,17.51,16.75L17.51,17.5ZM6.25,18.25C7.07,18.25,7.75,18.92,7.75,19.75C7.75,20.58,7.07,21.25,6.25,21.25C5.43,21.25,4.75,20.58,4.75,19.75C4.75,18.92,5.43,18.25,6.25,18.25ZM6.23,20.5L6.23,19L19.73,19L19.73,20.5ZM19.73,18.25C20.57,18.25,21.25,18.92,21.25,19.73C21.25,20.57,20.58,21.25,19.73,21.25C18.92,21.25,18.25,20.58,18.25,19.73C18.25,18.92,18.92,18.25,19.73,18.25Z"/></svg>