<svg xmlns="http://www.w3.org/2000/svg" viewBox="0 0 24 24"><path d="M19.97,20C20,15.9,18.17,15.38,16.9,14.78C16.88,14.17,16.83,13.57,16.75,13C17.12,13.28,17.54,13.5,18.01,13.5C19.18,13.5,19.21,14.3,19.74,14.8C19.87,14.93,21.17,14.6,21.67,14.13C22.04,13.83,22.04,13.3,21.74,12.86L20.47,10.99C19.87,10.12,19.87,9.62,19.5,8.72C19.4,8.52,19.27,8.15,18.87,7.82C18.44,7.42,18.07,7.15,17.97,6.72L17.8,5.92C17.77,5.69,17.47,5.25,17.03,5.72L15.86,6.99C15.32,7.02,14.82,7.11,14.36,7.26C13.93,6.71,13.47,6.21,12.97,5.77C13.59,5.44,14.25,5.2,14.93,5.09L15.8,4.26C17.37,2.76,19.13,3.63,19.6,5.29L19.8,5.99C19.8,5.99,19.83,6.06,20.13,6.29C20.76,6.86,21.13,7.52,21.33,8.06C21.9,9.53,21.73,9.39,22.03,9.83L23.33,11.73C23.7,12.26,23.93,12.9,23.93,13.53C23.93,14.33,23.6,15.1,22.96,15.66C22.54,16.02,21.9,16.34,21.31,16.55C21.71,17.38,21.92,18.63,21.96,20.56C21.96,21.59,21.56,21.99,20.53,21.99L16.9,21.99L16.9,19.99Z" fill="currentColor"/><path d="M13.43,22L3.86,22C2.83,22,2.46,21.6,2.53,20.57C3.03,16.54,5.7,16.57,7.13,15.34C8.63,14.07,9.33,12.97,8.16,11.41C7.03,12.64,6.33,13.58,5.13,13.61C3.7,13.64,3.66,14.64,3,15.28C2.83,15.41,1.1,15.01,0.47,14.48C0.04,14.08,0,13.41,0.4,12.85L2.07,10.52C2.84,9.45,2.7,8.85,3.14,7.75C3.24,7.48,3.41,7.02,3.94,6.58C4.47,6.11,4.94,5.81,5.04,5.25L5.24,4.25C5.31,3.95,5.64,3.45,6.21,4.02L7.68,5.52C11.28,5.75,14.88,9.39,14.88,15.19L14.88,20.59C14.88,21.62,14.48,22.02,13.45,22.02Z" fill="currentColor"/></svg>