<svg xmlns="http://www.w3.org/2000/svg" viewBox="0 0 24 24"><path d="M4.6,20.67C4.6,19.07,6.03,18.04,8.33,18C7.23,16.4,6.36,14.67,6.36,12.3C6.36,8,9.93,4.67,9.93,4.67C9.7,3.64,9.7,3.44,9.7,3.17C9.7,1.77,10.73,0.67,12.03,0.67C13.33,0.67,14.36,1.77,14.36,3.17C14.36,3.57,14.33,4.34,13.73,5.04C12.03,7.01,10.76,9.74,10.56,13.01L12.79,13.01C12.92,10.31,13.79,8.04,15.22,6.28C16.25,7.01,17.69,9.58,17.69,12.31C17.69,14.78,16.89,16.51,15.79,18.01C18.06,18.08,19.46,19.11,19.46,20.68L19.46,22.01L4.59,22.01Z" fill="currentColor"/><path d="M24,7.33L24,14.66C24,15.49,23.63,15.66,23,15.09L19.37,11.89C18.74,11.32,18.74,10.66,19.37,10.09L23,6.89C23.63,6.32,24,6.49,24,7.32Z" fill="currentColor"/><path d="M4.63,11.9L1,15.1C0.37,15.67,0,15.5,0,14.67L0,7.34C0,6.51,0.37,6.34,1,6.91L4.63,10.11C5.26,10.68,5.26,11.34,4.63,11.91Z" fill="currentColor"/></svg>