<svg xmlns="http://www.w3.org/2000/svg" viewBox="0 0 24 24" fill="currentColor"><path d="M7.38,19.7L5.57,21.5L5.55,21.52C5.23,21.84,4.88,21.84,4.55,21.52L4.48,21.45C4.16,21.12,4.16,20.77,4.48,20.45L9.23,15.7C8.93,14.97,8.75,14.16,8.75,13.23C8.75,10,11.43,7.5,11.43,7.5C11.26,6.73,11.26,6.58,11.26,6.38C11.26,5.33,12.03,4.5,13.01,4.5C13.98,4.5,14.75,5.33,14.75,6.38C14.75,6.58,14.75,6.73,14.58,7.5C14.58,7.5,15.21,8.1,15.86,9.07L20.48,4.45C20.81,4.13,21.16,4.13,21.48,4.45L21.56,4.53C21.87,4.84,21.88,5.19,21.58,5.5C21.57,5.51,21.56,5.52,21.56,5.52L16.63,10.45L9.97,17.11L9.53,17.55ZM8.73,20.5L17.14,12.08C17.21,12.45,17.25,12.83,17.25,13.23C17.25,15,16.6,16.3,15.78,17.5C17.55,17.52,18.63,18.3,18.63,19.5L18.63,20.5Z"/></svg>