<svg xmlns="http://www.w3.org/2000/svg" viewBox="0 0 24 24"><path d="M8.17,13.3L8.17,10.03C8.17,10.03,7.04,9.23,6.17,9.23C5.27,9.23,4.7,9.73,4.7,10.5C4.7,11.57,6.2,12.53,6.87,13.3Z" fill="currentColor"/><path d="M2,22L2,20.67C2,19.22,3.18,18.24,5.18,18.04C4.81,16.82,4.02,15.94,3.37,15.04C2.14,13.34,1,12.14,1,10.27C1,7.5,2.8,5.7,5.23,5.7C6.76,5.7,7.8,6.17,8.36,6.53L9.03,4L6.66,4L6.66,2L8.99,2L8.99,0L10.99,0L10.99,2L13.32,2L13.32,4L11.02,4L11.59,6.53C12.16,6.16,13.19,5.7,14.72,5.7C16.5,5.7,17.88,6.65,18.55,8.13C18.04,8.04,17.52,8,16.99,8C11.99,8,7.99,12,7.99,17C7.99,18.86,8.54,20.57,9.49,22Z" fill="currentColor"/><path d="M22,17C22,14.16,19.84,12,17,12C14.19,12,12,14.17,12,17C12,19.8,14.2,22,17,22C19.83,22,22,19.81,22,17Z" fill="currentColor"/><path d="M10,17C10,13.13,13.17,10,17,10C20.87,10,24,13.13,24,17C24,20.83,20.87,24,17,24C13.17,24,10,20.83,10,17Z" fill="currentColor"/><path d="M12.23,20.36L20.36,12.23L21.77,13.64L13.64,21.77Z" fill="currentColor"/></svg>