<svg xmlns="http://www.w3.org/2000/svg" viewBox="0 0 24 24"><path d="M2,20.67C2,19.1,3.07,18.2,5.13,18.04L1.5,7.01C0.63,6.88,0,6.14,0,5.28C0,4.38,0.73,3.58,1.67,3.58C2.54,3.58,3.3,4.35,3.3,5.31C3.3,5.71,3.2,6.04,2.93,6.34L5.96,10.27L6.33,4.17C5.5,3.8,5.13,3.27,5.13,2.47C5.13,1.47,5.9,0.67,6.9,0.67C7.9,0.67,8.63,1.47,8.63,2.47C8.63,3.07,8.43,3.57,7.96,3.94L9.99,10.01L11.99,3.94C11.52,3.57,11.29,3.07,11.29,2.47C11.29,1.54,12.06,0.67,13.06,0.67C14.06,0.67,14.83,1.47,14.83,2.47C14.83,3.27,14.46,3.8,13.63,4.17L13.9,8.27C10.47,9.18,8,12.26,8,16C8,18.41,9.03,20.54,10.67,22L2,22Z" fill="currentColor"/><path d="M17.03,6.33C16.76,6.03,16.63,5.7,16.63,5.3C16.63,4.4,17.4,3.57,18.3,3.57C19.33,3.57,20,4.5,20,5.27C20,6.04,19.37,6.87,18.47,7L18.14,8L16,8C15.92,8,15.84,8,15.76,8Z" fill="currentColor"/><path d="M20,16.03C20,13.76,18.27,12.03,16,12.03C13.73,12.03,12,13.76,12,16.03C12,18.3,13.73,20.03,16,20.03C18.27,20.03,20,18.3,20,16.03Z" fill="currentColor"/><path d="M10,16.03C10,12.73,12.7,10.03,16,10.03C19.3,10.03,22,12.73,22,16.03C22,19.33,19.3,22.03,16,22.03C12.7,22.03,10,19.33,10,16.03Z" fill="currentColor"/><path d="M23.6,23.43L23.47,23.56C23.04,23.99,22.57,23.99,22.14,23.56L18.44,19.86L19.91,18.39L23.61,22.09C24.04,22.52,24.04,22.99,23.61,23.42Z" fill="currentColor"/></svg>