<svg xmlns="http://www.w3.org/2000/svg" viewBox="0 0 24 24"><path d="M16.35,14L16.92,13.65C16.93,13.76,16.93,13.88,16.93,14Z" fill="currentColor"/><path d="M7.16,13.1L6.2,13.1L6.27,13.67C6.54,17.1,9.94,16.57,9.94,20L0.07,20C0.07,16.57,3.47,17.1,3.74,13.67L3.81,13.1L2.41,13.1C2.21,12.77,2.14,12.43,2.14,12.13L3.81,11.1C2.98,10.53,2.64,9.83,2.64,9.03C2.64,7.76,3.71,6.66,5.01,6.66C6.31,6.66,7.38,7.76,7.38,9.03C7.38,9.9,7.11,10.46,6.21,11.06L7.65,11.98L7.88,12.12C7.88,12.42,7.81,12.75,7.61,13.09Z" fill="currentColor"/><path d="M9.63,3.03C9.63,1.76,10.7,0.66,12,0.66C13.3,0.66,14.37,1.76,14.37,3.03C14.37,3.9,14.1,4.46,13.2,5.06L14.87,6.13C14.87,6.43,14.8,6.76,14.6,7.1L13.2,7.1L13.27,7.67C13.38,9.05,13.99,9.79,14.69,10.41C14.65,10.62,14.64,10.83,14.64,11.04C14.64,11.48,14.76,12,14.97,12.51L14.14,13.02C14.14,13.35,14.16,13.68,14.2,14L9.3,14C9.7,13.04,9.88,12.05,9.88,11.04L9.14,10.57C9.91,9.92,10.63,9.18,10.75,7.67L10.82,7.1L9.42,7.1C9.22,6.77,9.15,6.43,9.15,6.13L10.82,5.1C9.99,4.53,9.65,3.83,9.65,3.03Z" fill="currentColor"/><path d="M23.93,22L14.06,22C14.06,18.3,17.46,19.1,17.73,15.67L17.8,15.1L16.4,15.1C16.2,14.77,16.13,14.43,16.13,14.13L17.8,13.1C16.97,12.53,16.63,11.83,16.63,11.03C16.63,9.76,17.7,8.66,19,8.66C20.3,8.66,21.37,9.76,21.37,11.03C21.37,11.9,21.1,12.46,20.2,13.06L21.87,14.13C21.87,14.43,21.8,14.76,21.6,15.1L20.2,15.1L20.27,15.67C20.54,19.1,23.94,18.3,23.94,22Z" fill="currentColor"/></svg>