<svg xmlns="http://www.w3.org/2000/svg" viewBox="0 0 24 24"><path d="M11.77,0.47C11.9,-0.1,12.1,-0.1,12.24,0.47L12.82,2.6C12.55,2.56,12.28,2.53,12,2.53C11.72,2.53,11.45,2.55,11.18,2.6Z" fill="currentColor"/><path d="M7.47,1.97C7.27,1.4,7.44,1.3,7.9,1.7L9.62,3.12C9.11,3.39,8.65,3.74,8.26,4.15Z" fill="currentColor"/><path d="M4.87,5.63C4.37,5.3,4.44,5.13,5.04,5.16L7.41,5.36C7.15,5.88,6.97,6.45,6.9,7.06Z" fill="currentColor"/><path d="M4.77,10.13C4.17,10.13,4.14,9.96,4.64,9.66L6.92,8.34C6.99,8.85,7.13,9.35,7.34,9.79L6.74,10.14Z" fill="currentColor"/><path d="M15.74,4.15C15.35,3.73,14.89,3.38,14.38,3.12L16.1,1.7C16.57,1.3,16.73,1.4,16.53,1.97Z" fill="currentColor"/><path d="M17.1,7.06C17.03,6.45,16.85,5.88,16.59,5.36L18.96,5.16C19.56,5.13,19.63,5.29,19.13,5.63Z" fill="currentColor"/><path d="M19.23,10.13L17.2,10.15L16.66,9.83C16.87,9.38,17.02,8.88,17.08,8.35L19.36,9.67C19.86,9.97,19.83,10.14,19.23,10.14Z" fill="currentColor"/><path d="M18.5,22L5.53,22C5.53,17.47,10,18.2,10.36,13.73L10.39,12.96L8.59,12.96C8.36,12.53,8.29,12.03,8.29,11.56L10.39,10.36C9.32,9.66,8.86,8.66,8.86,7.66C8.86,5.89,10.29,4.53,11.99,4.53C13.69,4.53,15.12,5.9,15.12,7.66C15.12,8.73,14.75,9.56,13.59,10.33L15.69,11.56C15.69,12.03,15.62,12.53,15.39,12.96L13.59,12.96L13.62,13.73C13.99,18.2,18.49,17.46,18.49,22Z" fill="currentColor"/></svg>