<svg xmlns="http://www.w3.org/2000/svg" viewBox="0 0 24 24"><path d="M4,22L4,20.33C4,18.76,4.47,17.86,6.4,17.4L2.83,9.3C1.66,8.93,0.96,8,0.96,6.83C0.96,5.4,2.06,4.43,3.43,4.43C4.76,4.43,5.86,5.56,5.86,6.9C5.86,7.17,5.83,7.63,5.66,8L7.46,9.97L7.69,4.77C6.82,4.34,6.29,3.54,6.29,2.54C6.29,1.11,7.39,0.01,8.79,0.01C10.16,0.01,11.32,1.14,11.32,2.54C11.32,3.21,11.02,3.87,10.52,4.34L11.99,8.57L13.46,4.34C12.96,3.87,12.66,3.21,12.66,2.54C12.66,1.14,13.83,0.01,15.16,0.01C16.59,0.01,17.69,1.11,17.69,2.54C17.69,3.54,17.16,4.34,16.26,4.77L16.49,10L18.39,8C18.19,7.6,18.16,7.17,18.16,6.9C18.16,5.57,19.19,4.43,20.56,4.43C21.93,4.43,23.06,5.4,23.06,6.83C23.06,8,22.36,8.93,21.19,9.3L17.59,17.4C19.52,17.87,19.99,18.77,19.99,20.33L19.99,22Z" fill="currentColor"/><path d="M5,21L19,21L19,20.33C19,18.5,18.13,18,12,18C5.87,18,5,18.5,5,20.33Z" fill="currentColor"/><path d="M3.57,8.43L7.44,17.23C8.61,17.06,10.07,17,12.01,17C13.94,17,15.41,17.07,16.58,17.23L20.48,8.43C21.51,8.3,22.08,7.66,22.08,6.83C22.08,6,21.41,5.43,20.58,5.43C19.81,5.43,19.18,6.1,19.18,6.9C19.18,7.17,19.28,7.6,19.75,8.07L15.65,12.4L15.25,4.03C16.15,3.93,16.72,3.33,16.72,2.53C16.72,1.63,16.09,1,15.19,1C14.39,1,13.69,1.67,13.69,2.53C13.69,3.1,14.09,3.7,14.69,3.93L12.02,11.63L9.35,3.93C9.95,3.7,10.35,3.1,10.35,2.53C10.35,1.66,9.65,1,8.82,1C7.95,1,7.32,1.63,7.32,2.53C7.32,3.33,7.95,3.96,8.75,4.03L8.35,12.43L4.38,8.06C4.85,7.53,4.88,7.19,4.88,6.89C4.88,6.09,4.25,5.42,3.45,5.42C2.62,5.42,1.98,5.99,1.98,6.82C1.98,7.65,2.55,8.29,3.58,8.42Z" fill="currentColor"/></svg>