<svg xmlns="http://www.w3.org/2000/svg" viewBox="0 0 24 24" fill="currentColor"><path d="M4,20.5L4,19.5C4,18.3,5.07,17.53,6.85,17.5C6.02,16.05,5.37,14.75,5.37,12.98C5.37,9.75,8.3,7.5,8.3,7.5C8.02,7.03,8,6.45,8,6.23C8,5.25,8.73,4.5,9.63,4.5C10.38,4.5,11,5.02,11.19,5.75C10.83,6.16,10.41,6.89,10.35,7.04C9.92,8.12,9.92,8.36,9.63,8.78L8.36,10.55C7.74,11.51,7.87,13.02,8.66,13.75C9.44,14.41,10.74,14.75,11.68,14.66C11.32,15.14,11.04,15.71,10.88,16.35C9.35,16.97,8.54,18.25,8.54,19.5L8.54,20.5ZM11.55,13.23C11.43,13.32,10.13,13.02,9.66,12.63C9.33,12.32,9.33,11.82,9.6,11.4L10.86,9.66C11.43,8.85,11.43,8.4,11.75,7.58C11.83,7.38,11.96,7.03,12.36,6.7C12.75,6.35,13.03,6.1,13.2,5.67L13.33,4.98C13.38,4.73,13.58,4.53,13.8,4.53L15.13,5.9C17.85,6.07,20.85,8.05,20.85,12.48C20.85,13.8,20,16.15,19.73,17.52C21.17,17.75,22,18.42,22,19.5L22,20.49L10.02,20.49L10.02,19.5C10.02,18.42,10.82,17.75,12.22,17.52C12.24,13.92,15.97,13.23,15.97,11.47C15.97,10.92,15.65,10.47,15.52,10.32L15.09,10.8C14.72,11.19,13.97,11.94,13.14,11.94C12.07,11.97,12.04,12.75,11.54,13.22Z"/></svg>