<svg xmlns="http://www.w3.org/2000/svg" viewBox="0 0 24 24" fill="currentColor"><path d="M4,19.5C4,18.42,4.39,17.68,5.9,17.28L6.98,11.14C6.13,10.53,5.79,9.84,5.75,9.14L5.57,6.24C6.15,5.99,6.63,5.86,7.17,5.86L7.55,7.51L8.8,7.51L9.03,5.61C9.03,5.61,9.55,5.52,10,5.52C10.45,5.52,10.98,5.61,10.98,5.61L11.18,7.51L12.45,7.51L12.83,5.86C13.38,5.86,13.86,5.99,14.43,6.24L14.25,9.14C14.24,9.4,14.18,9.66,14.07,9.92C13.89,9.95,13.71,9.97,13.5,9.99C12,10.01,11.5,10.51,11.5,12.01L11.5,15.96C11.5,18.03,11.68,18.89,13.67,20.52L4,20.52ZM22,15.98L22,11.5C19.9,11.5,19.28,11.2,17.5,9.48C15.77,11.2,15.12,11.5,13,11.5L13,15.98C13,18.53,13.28,18.88,17.5,21.6C21.72,18.92,22,18.58,22,15.98Z"/></svg>