<svg xmlns="http://www.w3.org/2000/svg" viewBox="0 0 24 24"><path d="M0.07,20L0.07,18.9C0.07,17.71,0.5,16.9,2.16,16.46L3.35,9.76C2.42,9.07,2.04,8.32,2.01,7.53L1.81,4.36C2.44,4.09,2.98,3.96,3.58,3.96L3.98,5.76L5.35,5.76L5.58,3.69C5.58,3.69,6.18,3.56,6.65,3.56C7.15,3.56,7.72,3.69,7.72,3.69L7.95,5.76L9.35,5.76L9.75,3.96C10.35,3.96,10.88,4.09,11.52,4.36L11.32,7.53C11.26,8.31,10.91,9.05,9.97,9.74L10.5,12.71C10.54,13.46,10.68,14.16,10.87,14.82L11,15.57C9.67,16.35,9.01,17.63,9.01,18.94L9.01,20.01Z" fill="currentColor"/><path d="M11,20L11,18.93C11,17.66,12.13,16.83,14.03,16.8C13.16,15.53,12.46,14.13,12.46,12.23C12.46,8.8,15.33,6.13,15.33,6.13C15.13,5.3,15.13,5.13,15.13,4.93C15.13,3.8,15.96,2.93,17,2.93C18.03,2.93,18.87,3.8,18.87,4.93C18.87,5.26,18.84,5.86,18.37,6.43C17,8,16,10.2,15.84,12.8L17.61,12.8C17.74,10.63,18.41,8.83,19.58,7.4C20.41,8,21.55,10.07,21.55,12.23C21.55,14.2,20.92,15.6,20.02,16.8C21.89,16.87,23.02,17.67,23.02,18.93L23.02,20Z" fill="currentColor"/></svg>