<svg xmlns="http://www.w3.org/2000/svg" viewBox="0 0 24 24"><path d="M13.2,15.1C13.21,14.26,13.53,13.68,14.73,13.36L15.6,8.44C14.93,7.95,14.64,7.39,14.61,6.84L14.48,4.51C14.95,4.31,15.31,4.21,15.75,4.21L16.05,5.54L17.05,5.54L17.25,4.01C17.25,4.01,17.65,3.94,18.02,3.94C18.39,3.94,18.79,4.01,18.79,4.01L18.96,5.54L19.99,5.54L20.29,4.21C20.72,4.21,21.09,4.31,21.56,4.51L21.43,6.84C21.4,7.39,21.11,7.95,20.44,8.44L21.33,13.38C22.51,13.71,22.83,14.3,22.83,15.14L22.83,15.94L17.96,15.94Z" fill="currentColor"/><path d="M2.4,8.2C2.3,8.27,1.27,8.03,0.9,7.7C0.63,7.47,0.6,7.07,0.87,6.73L1.87,5.33C2.3,4.7,2.3,4.33,2.57,3.66C2.64,3.49,2.74,3.23,3.07,2.96C3.37,2.69,3.6,2.49,3.7,2.16L3.83,1.56C3.86,1.39,4.03,1.23,4.2,1.23L5.3,2.33C7.5,2.46,9.93,4.06,9.93,7.4C9.93,8.81,9.25,10.58,9.05,11.67C10.18,11.82,10.83,12.4,10.83,13.23L10.83,14.03L7.15,14.03L1.25,12.99C1.37,12.3,1.99,11.81,2.98,11.67C2.99,9.81,4.28,8.79,4.97,8.23C5.47,7.83,5.97,7.3,5.97,6.76C5.97,6.36,5.7,5.99,5.6,5.86L5.27,6.26C4.94,6.59,4.37,7.19,3.7,7.19C2.83,7.19,2.8,7.79,2.4,8.19Z" fill="currentColor"/><path d="M14.63,24L9.36,24C8.76,24,8.59,23.7,8.93,23.2L11.5,18.93L1.13,17.06C0.53,16.96,0.26,16.56,0.36,15.96L0.36,15.86C0.46,15.26,0.86,14.99,1.46,15.09L23.19,18.99C23.82,19.09,24.09,19.49,23.96,20.12C23.86,20.79,23.46,21.05,22.83,20.95L12.62,19.11L15.07,23.18C15.4,23.68,15.24,23.98,14.64,23.98Z" fill="currentColor"/></svg>