<svg xmlns="http://www.w3.org/2000/svg" viewBox="0 0 24 24" fill="currentColor"><path d="M8.13,19.75L17.88,19.75L17.88,19.17C17.88,17.82,16.73,17.55,13,17.55C9.4,17.55,8.13,17.79,8.13,19.17ZM7.38,20.5L7.38,19.17C7.38,17.15,9.15,16.8,13,16.8C16.95,16.8,18.63,17.17,18.63,19.17L18.63,20.5ZM11.13,17.1L10.58,17.61C9,15.83,8.5,14.55,8.5,12.88C8.5,10.35,10,8.73,11.65,7.03C11.48,6.68,11.37,6.38,11.37,6.05C11.37,5.13,12.02,4.38,13,4.38C13.92,4.38,14.58,5.3,14.5,6.11C13.58,7.21,12.6,9.41,12.53,12.68L13.56,12.68C13.61,10.34,14.03,8.56,14.78,7.43C16.2,8.81,17.55,10.71,17.55,12.89C17.55,14.44,17.03,15.94,15.48,17.61L14.93,17.11C16.38,15.53,16.8,14.28,16.8,12.89C16.8,11.31,16,9.91,14.95,8.71C14.5,9.83,14.28,11.41,14.3,13.43L11.77,13.43C11.7,9.81,12.72,7.19,13.74,5.84C13.69,5.48,13.37,5.14,12.99,5.14C12.47,5.14,12.11,5.54,12.11,6.06C12.11,6.36,12.24,6.64,12.56,7.13C10.74,9.03,9.24,10.49,9.24,12.89C9.24,14.41,9.64,15.44,11.12,17.11Z"/></svg>