<svg xmlns="http://www.w3.org/2000/svg" viewBox="0 0 24 24"><path d="M3.03,22L3.03,19.03C3.03,17.46,3.5,16.36,5.26,15.73L2.83,9.83C1.63,9.16,0.86,7.93,0.86,6.6C0.86,4.6,2.49,2.97,4.56,2.97C4.83,2.97,5.19,3.04,5.56,3.1C5.83,1.37,7.29,0,9.19,0C10.36,0,11.36,0.57,12.02,1.33C12.75,0.46,13.79,0,14.85,0C16.72,0,18.22,1.33,18.48,3.1C18.81,3.03,19.15,2.97,19.48,2.97C21.55,2.97,23.15,4.64,23.15,6.6C23.15,7.93,22.38,9.17,21.22,9.83L18.79,15.73C20.56,16.36,21.02,17.46,21.02,19.03L21.02,22Z" fill="currentColor"/><path d="M5.03,20L19.03,20L19.03,19.03C19.03,17.46,18,17,12.03,17C6.06,17,5.03,17.47,5.03,19.03Z" fill="currentColor"/><path d="M4.37,8.3L7.27,15.27C8.47,15.1,10.04,15,12.04,15C14.04,15,15.61,15.1,16.81,15.27L19.71,8.3C20.58,8.13,21.18,7.4,21.18,6.6C21.18,5.7,20.45,4.97,19.51,4.97C18.64,4.97,17.91,5.77,17.91,6.67C17.91,6.94,17.98,7.34,18.21,7.64L15.71,11.17L15.41,5.37C16.21,5.1,16.58,4.5,16.58,3.74C16.58,2.77,15.85,2.01,14.88,2.01C13.95,2.01,13.18,2.81,13.18,3.74C13.18,4.27,13.41,4.77,13.88,5.14L12.05,10.57L10.22,5.14C10.69,4.77,10.92,4.27,10.92,3.74C10.92,2.81,10.15,2.01,9.22,2.01C8.25,2.01,7.52,2.78,7.52,3.74C7.52,4.51,7.89,5.11,8.69,5.37L8.39,11.17L5.86,7.64C6.09,7.37,6.19,6.97,6.19,6.67C6.19,5.74,5.42,4.97,4.59,4.97C3.62,4.97,2.89,5.7,2.89,6.6C2.89,7.4,3.52,8.13,4.39,8.3Z" fill="currentColor"/></svg>