<svg xmlns="http://www.w3.org/2000/svg" viewBox="0 0 24 24"><path d="M6.9,16.67C6.4,15.77,5.67,15.2,4.97,14.5C3.8,13.33,2.64,12.13,2.64,10.27C2.64,7.5,4.51,5.7,7.04,5.7C8.64,5.7,9.71,6.17,10.64,6.87L11.04,4L8.34,4L8.34,2L11.04,2L11.04,0L13.01,0L13.01,2L15.64,2L15.64,4L13.04,4L13.34,6.87C14.27,6.17,15.34,5.7,16.94,5.7C19.57,5.7,21.37,7.63,21.37,10.27C21.37,12.14,20.17,13.34,19,14.5C18.3,15.2,17.57,15.77,17.07,16.67Z" fill="currentColor"/><path d="M4,22L4,20.67C4,19.04,5.5,18,7.97,18L16,18C18.5,18,20,19.03,20,20.67L20,22Z" fill="currentColor"/><path d="M13.83,13.3L15.13,13.3C15.8,12.53,17.3,11.57,17.3,10.5C17.3,9.73,16.73,9.23,15.83,9.23C14.96,9.23,13.83,10.03,13.83,10.03Z" fill="currentColor"/><path d="M10.17,13.3L10.17,10.03C10.17,10.03,9.04,9.23,8.17,9.23C7.27,9.23,6.7,9.73,6.7,10.5C6.7,11.57,8.2,12.53,8.87,13.3Z" fill="currentColor"/></svg>