<svg xmlns="http://www.w3.org/2000/svg" viewBox="0 0 24 24" fill="currentColor"><path d="M7,20.5L7,19.5C7,18.33,7.8,17.65,9.35,17.53L6.62,9.26C5.97,9.16,5.5,8.61,5.5,7.96C5.5,7.29,6.05,6.69,6.75,6.69C7.4,6.69,7.97,7.26,7.97,7.98C7.97,8.28,7.9,8.53,7.7,8.76L9.97,11.7L10.25,7.13C9.62,6.85,9.35,6.45,9.35,5.85C9.35,5.1,9.92,4.5,10.67,4.5C11.42,4.5,11.97,5.1,11.97,5.85C11.97,6.3,11.82,6.68,11.47,6.96L12.99,11.51L14.49,6.96C14.14,6.68,13.97,6.3,13.97,5.85C13.97,5.16,14.54,4.5,15.29,4.5C16.04,4.5,16.62,5.1,16.62,5.85C16.62,6.45,16.34,6.85,15.72,7.13L16.02,11.7L18.27,8.76C18.07,8.53,17.97,8.28,17.97,7.98C17.97,7.31,18.55,6.69,19.22,6.69C20,6.69,20.5,7.38,20.5,7.96C20.5,8.54,20.03,9.16,19.35,9.26L16.65,17.53C18.2,17.68,19,18.33,19,19.5L19,20.5Z"/></svg>