<svg xmlns="http://www.w3.org/2000/svg" viewBox="0 0 24 24"><path d="M7.93,13.3L7.93,10.03C7.93,10.03,6.8,9.23,5.93,9.23C5.03,9.23,4.46,9.73,4.46,10.5C4.46,11.57,5.96,12.53,6.63,13.3Z" fill="currentColor"/><path d="M1.77,22L1.77,20.67C1.77,19.24,2.92,18.27,4.87,18.05C4.37,16.83,3.55,15.94,2.87,15.04C1.57,13.34,0.4,12.14,0.4,10.27C0.4,7.5,2.27,5.7,4.8,5.7C6.4,5.7,7.47,6.17,8.07,6.53L8.97,4L6.44,4L6.44,2L8.94,2L8.94,0L10.94,0L10.94,2L13.41,2L13.41,4L10.98,4L10.98,17.25C9.43,17.96,8.45,19.37,8.45,20.94L8.45,22.01Z" fill="currentColor"/><path d="M10.43,22L10.43,20.93C10.43,19.76,11.13,19.06,12.43,18.83L16.86,18.83C17.45,19.29,17.77,19.91,17.77,20.66L17.77,21.99Z" fill="currentColor"/><path d="M12.27,19.7L13.97,10.13L20,10.13L21.7,19.7Z" fill="currentColor"/><path d="M10.4,22L10.4,20.9C10.4,19,11.5,18.07,16.97,18.07C22.44,18.07,23.57,19,23.57,20.9L23.57,22Z" fill="currentColor"/><path d="M20.2,11.8L13.73,11.8C12.76,11.1,12.36,10.33,12.33,9.53L12.13,6.36C12.76,6.09,13.3,5.96,13.9,5.96L14.3,7.76L15.67,7.76L15.9,5.69C15.9,5.69,16.5,5.56,16.97,5.56C17.47,5.56,18.04,5.69,18.04,5.69L18.27,7.76L19.67,7.76L20.07,5.96C20.67,5.96,21.2,6.09,21.84,6.36L21.64,9.53C21.57,10.33,21.21,11.1,20.21,11.8Z" fill="currentColor"/></svg>