<svg xmlns="http://www.w3.org/2000/svg" viewBox="0 0 24 24" fill="currentColor"><path d="M11.3,20.5L11.01,16.97C11.32,16.19,11.91,15.51,12.95,14.6C12.87,14.5,12.8,14.39,12.74,14.3C13.66,13.52,14.01,12.22,12.93,11.13C13.23,10.54,13.4,9.92,13.4,9.4C13.4,8.96,13.32,8.54,13.17,8.15C13.79,7.01,14.99,6.25,16.38,6.25C18.38,6.25,20,7.85,20,9.85C20,10.25,19.92,10.65,19.79,11.05C20.79,12.23,20.67,13.45,19.47,14.58C21.97,16.53,22.25,17.37,21.85,20.5ZM12.3,19L20.45,19C20.45,17.48,20.23,17.07,19.31,16.4C18.58,15.85,17.75,15.22,17.48,13.27L18.66,13.27C18.81,13.02,18.89,12.52,18.89,12.27L17.56,11.67C18.14,11.24,18.51,10.55,18.51,9.85C18.51,8.67,17.56,7.75,16.39,7.75C15.21,7.75,14.27,8.67,14.27,9.85C14.27,10.55,14.64,11.25,15.22,11.67L13.89,12.27C13.89,12.52,13.94,13.02,14.12,13.27L15.29,13.27C15.05,15.17,14.19,15.8,13.47,16.37C12.55,17.06,12.32,17.47,12.32,18.99ZM14,20.5L4,20.5C4,17.03,7.45,17.55,7.73,14.1L7.78,13.5L6.38,13.5C6.2,13.2,6.13,12.85,6.13,12.5L7.78,11.48C6.88,10.88,6.6,10.25,6.6,9.4C6.6,8.07,7.67,7,9,7C10.33,7,11.4,8.07,11.4,9.4C11.4,10.2,11.05,10.95,10.22,11.5L11.87,12.5C11.87,12.85,11.8,13.2,11.63,13.5L10.22,13.5L10.28,14.1C10.55,17.55,14,17.02,14,20.49Z"/></svg>