<svg xmlns="http://www.w3.org/2000/svg" viewBox="0 0 24 24"><path d="M6.67,16.67L7.87,9.34L16.14,9.34L17.34,16.67Z" fill="currentColor"/><path d="M4,22L4,20.67C4,18.9,5.33,18,7.97,18L16,18C18.63,18,20,18.9,20,20.67L20,22Z" fill="currentColor"/><path d="M15.93,8L8.06,8C6.86,7.6,6.39,6.77,6.33,5.9L6.1,2.97C6.7,2.64,7.37,2.47,8.1,2.47L8.63,4.67L10.33,4.67L10.66,2.14C10.66,2.14,11.36,2.01,11.99,2.01C12.62,2.01,13.32,2.14,13.32,2.14L13.62,4.67L15.35,4.67L15.88,2.47C16.61,2.47,17.28,2.64,17.88,2.97L17.65,5.9C17.58,6.77,17.12,7.6,15.92,8Z" fill="currentColor"/></svg>