<svg xmlns="http://www.w3.org/2000/svg" viewBox="0 0 24 24"><path d="M7.75,10.18C7.82,10.79,7.95,11.35,8.14,11.9L2.17,11.37C-0.3,11.14,-0.3,10.87,2.17,10.67Z" fill="currentColor"/><path d="M3.3,5.8L8.33,5.32C8.33,5.86,8.44,6.46,8.66,7.05L3.3,6.54C0.87,6.31,0.87,6.04,3.3,5.81Z" fill="currentColor"/><path d="M8.51,15C8.01,15.49,7.45,15.97,6.91,16.51L4.63,16.27C2.2,16,2.2,15.67,4.63,15.4Z" fill="currentColor"/><path d="M21.53,22L6.43,22C6.43,16.73,11.66,17.57,12.06,12.37L12.13,11.47L10.03,11.47C9.76,10.97,9.66,10.4,9.66,9.87L12.13,8.44C10.86,7.64,10.33,6.47,10.33,5.31C10.33,3.28,12,1.68,14,1.68C15.97,1.68,17.63,3.28,17.63,5.31C17.63,6.54,17.2,7.54,15.83,8.41L18.3,9.88C18.3,10.41,18.2,10.98,17.93,11.48L15.83,11.48L15.9,12.38C16.3,17.58,21.53,16.75,21.53,22.01Z" fill="currentColor"/></svg>