<svg xmlns="http://www.w3.org/2000/svg" viewBox="0 0 1100 1100"><path d="M910,250C910,215.46,884.54,190,850,190C815.46,190,790,215.46,790,250C790,284.54,815.46,310,850,310C884.54,310,910,284.54,910,250Z" fill="currentColor"/><path d="M310,850C310,815.46,284.54,790,250,790C215.46,790,190,815.46,190,850C190,884.54,215.46,910,250,910C284.54,910,310,884.54,310,850Z" fill="currentColor"/><path d="M310,650C310,615.46,284.54,590,250,590C215.46,590,190,615.46,190,650C190,684.54,215.46,710,250,710C284.54,710,310,684.54,310,650Z" fill="currentColor"/><path d="M510,850C510,815.46,484.54,790,450,790C415.46,790,390,815.46,390,850C390,884.54,415.46,910,450,910C484.54,910,510,884.54,510,850Z" fill="currentColor"/><path d="M310,450C310,415.46,284.54,390,250,390C215.46,390,190,415.46,190,450C190,484.54,215.46,510,250,510C284.54,510,310,484.54,310,450Z" fill="currentColor"/><path d="M510,650C510,615.46,484.54,590,450,590C415.46,590,390,615.46,390,650C390,684.54,415.46,710,450,710C484.54,710,510,684.54,510,650Z" fill="currentColor"/><path d="M710,850C710,815.46,684.54,790,650,790C615.46,790,590,815.46,590,850C590,884.54,615.46,910,650,910C684.54,910,710,884.54,710,850Z" fill="currentColor"/><path d="M310,250C310,215.46,284.54,190,250,190C215.46,190,190,215.46,190,250C190,284.54,215.46,310,250,310C284.54,310,310,284.54,310,250Z" fill="currentColor"/><path d="M510,450C510,415.46,484.54,390,450,390C415.46,390,390,415.46,390,450C390,484.54,415.46,510,450,510C484.54,510,510,484.54,510,450Z" fill="currentColor"/><path d="M710,650C710,615.46,684.54,590,650,590C615.46,590,590,615.46,590,650C590,684.54,615.46,710,650,710C684.54,710,710,684.54,710,650Z" fill="currentColor"/><path d="M910,850C910,815.46,884.54,790,850,790C815.46,790,790,815.46,790,850C790,884.54,815.46,910,850,910C884.54,910,910,884.54,910,850Z" fill="currentColor"/><path d="M510,250C510,215.46,484.54,190,450,190C415.46,190,390,215.46,390,250C390,284.54,415.46,310,450,310C484.54,310,510,284.54,510,250Z" fill="currentColor"/><path d="M710,450C710,415.46,684.54,390,650,390C615.46,390,590,415.46,590,450C590,484.54,615.46,510,650,510C684.54,510,710,484.54,710,450Z" fill="currentColor"/><path d="M910,650C910,615.46,884.54,590,850,590C815.46,590,790,615.46,790,650C790,684.54,815.46,710,850,710C884.54,710,910,684.54,910,650Z" fill="currentColor"/><path d="M710,250C710,215.46,684.54,190,650,190C615.46,190,590,215.46,590,250C590,284.54,615.46,310,650,310C684.54,310,710,284.54,710,250Z" fill="currentColor"/><path d="M910,450C910,415.46,884.54,390,850,390C815.46,390,790,415.46,790,450C790,484.54,815.46,510,850,510C884.54,510,910,484.54,910,450Z" fill="currentColor"/></svg>