<svg xmlns="http://www.w3.org/2000/svg" viewBox="0 0 1100 1100"><path d="M628.4,596.9L675.3,549.3C701.2,578.7,715.2,614.4,715.2,657.1C715.2,751.6,644.5,822.3,550,822.3L550,878.3C671.8,878.3,771.2,778.9,771.2,657.1C771.2,600.4,750.2,549.3,713.8,509.4L751.6,470.2L586.4,434.5Z" fill="currentColor"/><path d="M386.2,800.6L348.4,839.8L513.6,875.5L471.6,713.1L424.7,760.7C398.8,731.3,384.8,695.6,384.8,652.9C384.8,558.4,455.5,487.7,550,487.7L550,431.7C428.2,431.7,328.8,531.1,328.8,652.9C328.8,709.6,349.8,760.7,386.2,800.6Z" fill="currentColor"/></svg>