<svg xmlns="http://www.w3.org/2000/svg" viewBox="0 0 1100 1100"><path d="M610,735C610,701,583,675,550,675C517,675,490,701,490,735C490,768,517,795,550,795C583,795,610,768,610,735Z" fill="currentColor"/><path d="M190,800C190,779,190,757,190,735C190,537.43,351.59,375,550,375C748.41,375,910,537.43,910,735C910,757,910,779,910,800L1010,800C1010,779,1010,757,1010,735C1010,482.57,803.59,275,550,275C296.41,275,90,482.57,90,735C90,757,90,779,90,800Z" fill="currentColor"/><path d="M390,800C390,780,390,756,390,735C390,646.36,461.67,574,550,574C638.33,574,710,646.36,710,735C710,756,710,780,710,800L810,800C810,780,810,756,810,735C810,591.64,693.67,474,550,474C406.33,474,290,591.64,290,735C290,756,290,780,290,800Z" fill="currentColor"/></svg>