<svg xmlns="http://www.w3.org/2000/svg" viewBox="0 0 24 24"><path d="M10,21.97L3.33,21.97C0.83,21.97,0,21.14,0,18.64L0,12.01L2,12.01L2,18.64C2,19.97,2,19.97,3.33,19.97L10,19.97Z" fill="currentColor"/><path d="M10,2L20.67,2C23.17,2,24,2.83,24,5.33L24,12L22,12L22,5.33C22,4,22,4,20.67,4L10,4Z" fill="currentColor"/><path d="M24,19.34C24,21.34,23.33,22.01,21.33,22.01L14.66,22.01C12.66,22.01,11.99,21.34,11.99,19.34L11.99,16.67C11.99,14.67,12.66,14,14.66,14L21.33,14C23.33,14,24,14.67,24,16.67Z" fill="currentColor"/><path d="M10.17,10.73C10.6,11.16,10.6,11.63,10.17,12.06L10.1,12.16C9.67,12.59,9.2,12.59,8.77,12.16L1.04,4.39L2.44,2.99Z" fill="currentColor"/><path d="M0,8.07L0,3.44C0,2.41,0.4,2.01,1.43,2.01L6.06,2.01C6.66,2.01,6.99,2.34,6.99,2.94L6.99,3.24C6.99,3.74,6.72,4.01,6.22,4.01L1.99,4.01L1.99,8.08C1.99,8.68,1.66,9.01,1.06,9.01L0.93,9.01C0.33,9.01,0,8.68,0,8.08Z" fill="currentColor"/></svg>