<svg xmlns="http://www.w3.org/2000/svg" viewBox="0 0 24 24"><path d="M4.96,22C1.29,22,-0.01,20.7,-0.01,17.03L-0.01,6.96C-0.01,3.29,1.29,1.99,4.96,1.99L19.03,1.99C22.7,1.99,24,3.29,24,6.96L24,17.03C24,20.7,22.7,22,19.03,22Z" fill="currentColor"/><path d="M12,18.7C15.87,18.7,18.67,15.6,18.67,12.03C18.67,8.26,15.64,5.36,12,5.36C10.27,5.36,8.53,5.96,7.27,7.29L6.23,8.36L5.54,7.66C5.07,7.19,4.74,7.29,4.64,7.99L4.17,11.86C4.07,12.63,4.34,12.89,5.1,12.79L8.97,12.36C9.67,12.26,9.77,11.93,9.3,11.46L8.32,10.47L9.37,9.42C10.1,8.69,11.07,8.35,12,8.35C14.07,8.35,15.67,9.98,15.67,12.02C15.67,14.05,14.07,15.72,12,15.72C11.33,15.72,10.73,15.55,10.2,15.25C9.37,14.62,8.8,14.68,8.13,15.45L8.06,15.52C7.39,16.32,7.46,16.89,8.23,17.55C9.3,18.28,10.53,18.68,12,18.68Z" fill="currentColor"/></svg>