<svg xmlns="http://www.w3.org/2000/svg" viewBox="0 0 24 24"><path d="M0,8L0,4.67C0,2.67,0.67,2,2.67,2L6,2L6,4L2.67,4C2,4,2,4,2,4.67L2,8Z" fill="currentColor"/><path d="M18,2L21.33,2C23.33,2,24,2.67,24,4.67L24,8L22,8L22,4.67C22,4,22,4,21.33,4L18,4Z" fill="currentColor"/><path d="M2,16L2,19.33C2,20,2,20,2.67,20L5.97,20L5.97,22L2.67,22C0.67,22,0,21.33,0,19.33L0,16Z" fill="currentColor"/><path d="M24,16L24,19.33C24,21.33,23.33,22,21.33,22L17.96,22L17.96,20L21.33,20C22,20,22,20,22,19.33L22,16Z" fill="currentColor"/><path d="M12.67,18L6.67,18C4.67,18,4,17.33,4,15.33L4,8.66C4,6.66,4.67,5.99,6.67,5.99L17.34,5.99C19.34,5.99,20.01,6.66,20.01,8.66L20.01,15.33C20.01,17.33,19.34,18,17.34,18L12.67,18L12.67,16L17.34,16C18.01,16,18.01,16,18.01,15.33L18.01,8.66C18.01,7.99,18.01,7.99,17.34,7.99L6.67,7.99C6,7.99,6,7.99,6,8.66L6,15.33C6,16,6,16,6.67,16L12.67,16Z" fill="currentColor"/></svg>