<svg xmlns="http://www.w3.org/2000/svg" viewBox="0 0 24 24"><path d="M10.66,14C8.66,14,7.99,13.33,7.99,11.33L7.99,4.66C7.99,2.66,8.66,1.99,10.66,1.99L21.33,1.99C23.33,1.99,24,2.66,24,4.66L24,11.33C24,13.33,23.33,14,21.33,14Z" fill="currentColor"/><path d="M13,22L2.67,22C0.67,22,0,21.33,0,19.33L0,13C0,11.13,0.53,10.3,2,10.07L2,15.34C2,18.84,3.17,20.01,6.67,20.01L15.94,20.01C15.71,21.48,14.87,22.01,13.01,22.01Z" fill="currentColor"/><path d="M17,18L6.67,18C4.67,18,4,17.33,4,15.33L4,9C4,7.13,4.53,6.3,6,6.07L6,11.34C6,14.84,7.17,16.01,10.67,16.01L19.94,16.01C19.71,17.48,18.87,18.01,17.01,18.01Z" fill="currentColor"/></svg>