<svg xmlns="http://www.w3.org/2000/svg" viewBox="0 0 24 24"><path d="M6.67,22L2.67,22C0.67,22,0,21.33,0,19.33L0,13.66C0,11.66,0.67,10.99,2.67,10.99L11.34,10.99C13.34,10.99,14.01,11.66,14.01,13.66L14.01,19.33C14.01,21.33,13.34,22,11.34,22L6.67,22L6.67,20L11.34,20C12.01,20,12.01,20,12.01,19.33L12.01,13.66C12.01,12.99,12.01,12.99,11.34,12.99L2.67,12.99C2,12.99,2,12.99,2,13.66L2,19.33C2,20,2,20,2.67,20L6.67,20Z" fill="currentColor"/><path d="M4,9L4,4.67C4,2.67,4.67,2,6.67,2L21.34,2C23.34,2,24.01,2.67,24.01,4.67L24.01,14.3C24.01,16.3,23.34,16.97,21.34,16.97L16.01,16.97L16.01,14.97L21.34,14.97C22.01,14.97,22.01,14.97,22.01,14.3L22.01,4.67C22.01,4,22.01,4,21.34,4L6.67,4C6,4,6,4,6,4.67L6,9Z" fill="currentColor"/></svg>