<svg xmlns="http://www.w3.org/2000/svg" viewBox="0 0 24 24" fill="currentColor"><path d="M22,18.51C22,20.01,21.5,20.51,20,20.51L13.49,20.51C11.99,20.51,11.49,20.01,11.49,18.51L11.49,14.25C11.49,12.75,11.99,12.25,13.49,12.25L20,12.25C21.5,12.25,22,12.75,22,14.25ZM10,20.48L7.73,20.48C4.98,20.48,4,19.5,4,16.75L4,9.23C4,6.48,4.98,5.5,7.73,5.5L18.28,5.5C21.03,5.5,22.01,6.48,22.01,9.23L22.01,10.75L20.51,10.75L20.51,9.23C20.51,7.25,20.26,7,18.28,7L7.73,7C5.75,7,5.5,7.25,5.5,9.23L5.5,16.75C5.5,18.73,5.75,18.98,7.73,18.98L10,18.98Z"/></svg>