<svg xmlns="http://www.w3.org/2000/svg" viewBox="0 0 24 24"><path d="M6.66,18C4.66,18,3.99,17.33,3.99,15.33L3.99,8.66C3.99,6.66,4.66,5.99,6.66,5.99L17.33,5.99C19.33,5.99,20,6.66,20,8.66L20,15.33C20,17.33,19.33,18,17.33,18Z" fill="currentColor"/><path d="M2,16L2,19.33C2,20,2,20,2.67,20L5.97,20L5.97,22L2.67,22C0.67,22,0,21.33,0,19.33L0,16Z" fill="currentColor"/><path d="M0,8L0,4.67C0,2.67,0.67,2,2.67,2L6,2L6,4L2.67,4C2,4,2,4,2,4.67L2,8Z" fill="currentColor"/><path d="M24,16L24,19.33C24,21.33,23.33,22,21.33,22L17.96,22L17.96,20L21.33,20C22,20,22,20,22,19.33L22,16Z" fill="currentColor"/><path d="M18,2L21.33,2C23.33,2,24,2.67,24,4.67L24,8L22,8L22,4.67C22,4,22,4,21.33,4L18,4Z" fill="currentColor"/></svg>