<svg xmlns="http://www.w3.org/2000/svg" viewBox="0 0 24 24" fill="currentColor"><path d="M4,10L4,7.5C4,6,4.5,5.5,6,5.5L8.5,5.5L8.5,7L6,7C5.5,7,5.5,7,5.5,7.5L5.5,10ZM17.5,5.5L20,5.5C21.5,5.5,22,6,22,7.5L22,10L20.5,10L20.5,7.5C20.5,7,20.5,7,20,7L17.5,7ZM5.5,16L5.5,18.5C5.5,19,5.5,19,6,19L8.48,19L8.48,20.5L6,20.5C4.5,20.5,4,20,4,18.5L4,16ZM22,16L22,18.5C22,20,21.5,20.5,20,20.5L17.47,20.5L17.47,19L20,19C20.5,19,20.5,19,20.5,18.5L20.5,16ZM13.5,17.5L9,17.5C7.5,17.5,7,17,7,15.5L7,10.49C7,8.99,7.5,8.49,9,8.49L17.01,8.49C18.51,8.49,19.01,8.99,19.01,10.49L19.01,15.5C19.01,17,18.51,17.5,17.01,17.5L13.5,17.5L13.5,16L17.01,16C17.51,16,17.51,16,17.51,15.5L17.51,10.49C17.51,9.99,17.51,9.99,17.01,9.99L9,9.99C8.5,9.99,8.5,9.99,8.5,10.49L8.5,15.5C8.5,16,8.5,16,9,16L13.5,16Z"/></svg>