<svg xmlns="http://www.w3.org/2000/svg" viewBox="0 0 24 24" fill="currentColor"><path d="M9,20.5L6,20.5C4.5,20.5,4,20,4,18.5L4,14.24C4,12.74,4.5,12.24,6,12.24L12.5,12.24C14,12.24,14.51,12.74,14.51,14.24L14.51,18.5C14.51,20,14,20.5,12.5,20.5L9,20.5L9,19L12.5,19C13.01,19,13.01,19,13.01,18.5L13.01,14.24C13.01,13.74,13.01,13.74,12.5,13.74L6,13.74C5.5,13.74,5.5,13.74,5.5,14.24L5.5,18.5C5.5,19,5.5,19,6,19L9,19ZM7,10.75L7,7.5C7,6,7.5,5.5,9,5.5L20,5.5C21.5,5.5,22.01,6,22.01,7.5L22.01,14.73C22.01,16.23,21.5,16.73,20,16.73L16.01,16.73L16.01,15.23L20,15.23C20.51,15.23,20.51,15.23,20.51,14.72L20.51,7.5C20.51,7,20.51,7,20,7L9,7C8.5,7,8.5,7,8.5,7.5L8.5,10.75Z"/></svg>