<svg xmlns="http://www.w3.org/2000/svg" viewBox="0 0 24 24"><path d="M10,21.97L3.33,21.97C0.83,21.97,0,21.14,0,18.64L0,8.01L2,8.01L2,18.64C2,19.97,2,19.97,3.33,19.97L10,19.97Z" fill="currentColor"/><path d="M6,2L20.67,2C23.17,2,24,2.83,24,5.33L24,12L22,12L22,5.33C22,4,22,4,20.67,4L6,4Z" fill="currentColor"/><path d="M24,19.34C24,21.34,23.33,22.01,21.33,22.01L14.66,22.01C12.66,22.01,11.99,21.34,11.99,19.34L11.99,16.67C11.99,14.67,12.66,14,14.66,14L21.33,14C23.33,14,24,14.67,24,16.67Z" fill="currentColor"/><path d="M5.93,14C5.33,14,5,13.67,5,13.07L5,12.77C5,12.27,5.27,12,5.77,12L8.57,12L0.34,3.77C-0.09,3.34,-0.09,2.87,0.34,2.44L0.41,2.34C0.84,1.91,1.31,1.91,1.74,2.34L10.01,10.64L10.01,7.94C10.01,7.34,10.34,7.01,10.94,7.01L11.07,7.01C11.67,7.01,12,7.34,12,7.94L12,14.01Z" fill="currentColor"/></svg>