<svg xmlns="http://www.w3.org/2000/svg" viewBox="0 0 24 24" fill="currentColor"><path d="M7.49,20.5C5.99,20.5,5.49,20,5.49,18.5L5.49,11.99C5.49,10.49,5.99,9.99,7.49,9.99L18.5,9.99C20,9.99,20.5,10.49,20.5,11.99L20.5,18.5C20.5,20,20,20.5,18.5,20.5ZM7,8.3C7,7.32,7.32,7,8.3,7L17.7,7C18.67,7,18.99,7.32,18.99,8.3L18.99,8.5L6.99,8.5ZM8.5,5.3C8.5,4.32,8.82,4,9.8,4L16.2,4C17.17,4,17.49,4.32,17.49,5.3L17.49,5.5L8.49,5.5ZM12.25,18C12.25,18.53,12.45,18.73,12.95,18.73L13.02,18.73C13.55,18.73,13.75,18.53,13.75,18.03L13.75,16.01L15.77,16.01C16.28,16.01,16.47,15.81,16.47,15.28L16.47,15.21C16.47,14.7,16.27,14.51,15.75,14.51L13.74,14.51L13.74,12.51C13.74,11.98,13.54,11.78,13.05,11.78L12.97,11.78C12.45,11.78,12.24,11.98,12.24,12.48L12.24,14.5L10.22,14.5C9.72,14.5,9.52,14.7,9.52,15.23L9.52,15.3C9.52,15.81,9.72,16,10.25,16L12.25,16Z"/></svg>