<svg xmlns="http://www.w3.org/2000/svg" viewBox="0 0 24 24"><path d="M17.33,20C18,20,18,20,18,19.33L18,8.66C18,7.99,18,7.99,17.33,7.99L2.66,7.99C1.99,7.99,1.99,7.99,1.99,8.66L1.99,19.33C1.99,20,1.99,20,2.66,20Z" fill="currentColor"/><path d="M2.66,22C0.66,22,-0.01,21.33,-0.01,19.33L-0.01,8.66C-0.01,6.66,0.66,5.99,2.66,5.99L17.33,5.99C19.33,5.99,20,6.66,20,8.66L20,19.33C20,21.33,19.33,22,17.33,22Z" fill="currentColor"/><path d="M22,16.9L22,4.67C22,4.17,21.83,4,21.33,4L4.06,4C4.29,2.53,5.13,2,6.99,2L21.32,2C23.32,2,23.99,2.67,23.99,4.67L23.99,13.97C23.99,15.84,23.46,16.67,21.99,16.9Z" fill="currentColor"/></svg>