<svg xmlns="http://www.w3.org/2000/svg" viewBox="0 0 24 24" fill="currentColor"><path d="M7.72,20.5C4.97,20.5,3.99,19.52,3.99,16.77L3.99,9.22C3.99,6.47,4.97,5.49,7.72,5.49L18.27,5.49C21.03,5.49,22,6.47,22,9.22L22,16.77C22,19.53,21.02,20.5,18.27,20.5ZM13.5,17.27L13.56,17.33C14.1,17.88,14.51,17.88,15.06,17.33L18.63,13.75C19.18,13.2,19.18,12.8,18.63,12.25L15.06,8.67C14.51,8.13,14.1,8.15,13.56,8.7L13.53,8.7C12.98,9.24,13.01,9.67,13.56,10.2L15.36,11.87L8.83,11.87C8.06,11.87,7.76,12.17,7.76,12.94L7.76,13.04C7.76,13.81,8.06,14.11,8.83,14.11L15.33,14.11L13.55,15.78C12.98,16.31,12.95,16.71,13.5,17.26Z"/></svg>