<svg xmlns="http://www.w3.org/2000/svg" viewBox="0 0 24 24"><path d="M4.96,22C1.29,22,-0.01,20.7,-0.01,17.03L-0.01,6.96C-0.01,3.29,1.29,1.99,4.96,1.99L19.03,1.99C22.7,1.99,24,3.29,24,6.96L24,17.03C24,20.7,22.7,22,19.03,22Z" fill="currentColor"/><path d="M12.67,17.7L12.74,17.77C13.47,18.5,14.01,18.5,14.74,17.77L19.51,13C20.24,12.27,20.24,11.73,19.51,11L14.74,6.23C14.01,5.5,13.47,5.53,12.74,6.26L12.71,6.26C11.98,6.99,12.01,7.56,12.74,8.26L15.14,10.49L6.44,10.49C5.41,10.49,5.01,10.89,5.01,11.92L5.01,12.05C5.01,13.08,5.41,13.48,6.44,13.48L15.11,13.48L12.74,15.71C11.97,16.41,11.94,16.94,12.67,17.68Z" fill="currentColor"/></svg>