<svg xmlns="http://www.w3.org/2000/svg" viewBox="0 0 24 24" fill="currentColor"><path d="M11.99,14.5C10.49,14.5,9.99,14,9.99,12.5L9.99,7.5C9.99,6,10.49,5.49,11.99,5.49L20,5.49C21.5,5.49,22,6,22,7.5L22,12.5C22,14,21.5,14.5,20,14.5ZM13.75,20.5L6,20.5C4.5,20.5,4,20,4,18.5L4,13.75C4,12.35,4.4,11.73,5.5,11.55L5.5,15.5C5.5,18.13,6.38,19.01,9,19.01L15.95,19.01C15.78,20.11,15.15,20.51,13.76,20.51ZM16.75,17.5L9,17.5C7.5,17.5,7,17,7,15.5L7,10.75C7,9.35,7.4,8.72,8.5,8.55L8.5,12.5C8.5,15.13,9.38,16.01,12,16.01L18.95,16.01C18.78,17.11,18.15,17.51,16.76,17.51ZM12.85,10.62L14.7,12.48C15.05,12.83,15.36,12.83,15.7,12.48L19.28,8.9C19.63,8.54,19.63,8.25,19.28,7.9L19.23,7.85C18.87,7.5,18.57,7.5,18.23,7.85L15.2,10.87L13.91,9.57C13.55,9.22,13.25,9.22,12.91,9.57L12.86,9.63C12.5,9.98,12.5,10.28,12.86,10.62Z"/></svg>