<svg xmlns="http://www.w3.org/2000/svg" viewBox="0 0 24 24"><path d="M4.66,22C2.66,22,1.99,21.33,1.99,19.33L1.99,10.66C1.99,8.66,2.66,7.99,4.66,7.99L19.33,7.99C21.33,7.99,22,8.66,22,10.66L22,19.33C22,21.33,21.33,22,19.33,22Z" fill="currentColor"/><path d="M4,5.73C4,4.43,4.43,4,5.73,4L18.26,4C19.56,4,19.99,4.43,19.99,5.73L19.99,6L3.99,6Z" fill="currentColor"/><path d="M6,1.73C6,0.43,6.43,0,7.73,0L16.26,0C17.56,0,17.99,0.43,17.99,1.73L17.99,2L5.99,2Z" fill="currentColor"/><path d="M11,18.67C11,19.37,11.27,19.64,11.93,19.64L12.03,19.64C12.73,19.64,13,19.37,13,18.71L13,16.01L15.7,16.01C16.37,16.01,16.63,15.74,16.63,15.04L16.63,14.94C16.63,14.27,16.36,14.01,15.66,14.01L12.99,14.01L12.99,11.34C12.99,10.64,12.72,10.37,12.06,10.37L11.96,10.37C11.26,10.37,10.99,10.64,10.99,11.3L10.99,14L8.29,14C7.62,14,7.36,14.27,7.36,14.97L7.36,15.07C7.36,15.74,7.63,16,8.33,16L11,16Z" fill="currentColor"/></svg>