<svg xmlns="http://www.w3.org/2000/svg" viewBox="0 0 24 24" fill="currentColor"><path d="M7.72,20.5C4.97,20.5,3.99,19.52,3.99,16.77L3.99,9.22C3.99,6.47,4.97,5.49,7.72,5.49L18.27,5.49C21.03,5.49,22,6.47,22,9.22L22,16.77C22,19.53,21.02,20.5,18.27,20.5ZM13,18.02C15.9,18.02,18,15.7,18,13.02C18,10.2,15.73,8.02,13,8.02C11.7,8.02,10.4,8.47,9.45,9.47L8.67,10.27L8.16,9.75C7.8,9.39,7.55,9.47,7.48,9.99L7.13,12.9C7.05,13.47,7.25,13.67,7.82,13.59L10.73,13.27C11.25,13.2,11.33,12.95,10.97,12.6L10.24,11.85L11.03,11.07C11.57,10.52,12.3,10.26,13,10.26C14.55,10.26,15.75,11.48,15.75,13.02C15.75,14.54,14.55,15.79,13,15.79C12.5,15.79,12.05,15.66,11.65,15.44C11.03,14.97,10.6,15.01,10.1,15.59L10.04,15.64C9.54,16.24,9.59,16.67,10.17,17.16C10.97,17.71,11.9,18.01,13,18.01Z"/></svg>