<svg xmlns="http://www.w3.org/2000/svg" viewBox="0 0 24 24"><path d="M24,19.34C24,21.34,23.33,22.01,21.33,22.01L12.66,22.01C10.66,22.01,9.99,21.34,9.99,19.34L9.99,13.67C9.99,11.67,10.66,11,12.66,11L21.33,11C23.33,11,24,11.67,24,13.67Z" fill="currentColor"/><path d="M8,21.97L4.97,21.97C1.3,21.97,0,20.67,0,17L0,6.97C0,3.3,1.3,2,4.97,2L19.04,2C22.71,2,24.01,3.3,24.01,6.97L24.01,9L22.01,9L22.01,6.97C22.01,4.33,21.68,4,19.04,4L4.97,4C2.33,4,2,4.33,2,6.97L2,17C2,19.64,2.33,19.97,4.97,19.97L8,19.97Z" fill="currentColor"/></svg>