<svg xmlns="http://www.w3.org/2000/svg" viewBox="0 0 24 24" fill="currentColor"><path d="M11.5,20.48L6.5,20.48C4.62,20.48,4,19.86,4,17.98L4,10.01L5.5,10.01L5.5,17.98C5.5,18.98,5.5,18.98,6.5,18.98L11.5,18.98ZM8.5,5.5L19.5,5.5C21.38,5.5,22,6.12,22,8L22,13L20.5,13L20.5,8C20.5,7,20.5,7,19.5,7L8.5,7ZM22,18.51C22,20.01,21.5,20.51,20,20.51L14.99,20.51C13.49,20.51,12.99,20.01,12.99,18.51L12.99,16.5C12.99,15,13.49,14.5,14.99,14.5L20,14.5C21.5,14.5,22,15,22,16.5ZM8.45,14.5C8,14.5,7.75,14.25,7.75,13.8L7.75,13.58C7.75,13.2,7.95,13,8.33,13L10.43,13L4.25,6.83C3.93,6.5,3.93,6.15,4.25,5.83L4.31,5.75C4.63,5.43,4.98,5.43,5.3,5.75L11.51,11.98L11.51,9.96C11.51,9.51,11.75,9.26,12.21,9.26L12.3,9.26C12.75,9.26,13,9.51,13,9.96L13,14.51Z"/></svg>