<svg xmlns="http://www.w3.org/2000/svg" viewBox="0 0 24 24"><path d="M4.66,22C2.66,22,1.99,21.33,1.99,19.33L1.99,10.66C1.99,8.66,2.66,7.99,4.66,7.99L19.33,7.99C21.33,7.99,22,8.66,22,10.66L22,19.33C22,21.33,21.33,22,19.33,22Z" fill="currentColor"/><path d="M4,5.73C4,4.43,4.43,4,5.73,4L18.26,4C19.56,4,19.99,4.43,19.99,5.73L19.99,6L3.99,6Z" fill="currentColor"/><path d="M6,1.73C6,0.43,6.43,0,7.73,0L16.26,0C17.56,0,17.99,0.43,17.99,1.73L17.99,2L5.99,2Z" fill="currentColor"/><path d="M16.37,13.53C16.84,13.06,16.84,12.66,16.37,12.2L16.3,12.13C15.83,11.66,15.43,11.66,14.97,12.13L10.94,16.16L9.21,14.43C8.74,13.96,8.34,13.96,7.88,14.43L7.81,14.5C7.34,14.97,7.34,15.37,7.81,15.83L10.28,18.3C10.75,18.77,11.15,18.77,11.61,18.3Z" fill="currentColor"/></svg>