<svg xmlns="http://www.w3.org/2000/svg" viewBox="0 0 24 24" fill="currentColor"><path d="M11.5,20.48L6.5,20.48C4.62,20.48,4,19.86,4,17.98L4,13.01L5.5,13.01L5.5,17.98C5.5,18.98,5.5,18.98,6.5,18.98L11.5,18.98ZM11.5,5.5L19.5,5.5C21.38,5.5,22,6.12,22,8L22,13L20.5,13L20.5,8C20.5,7,20.5,7,19.5,7L11.5,7ZM22,18.51C22,20.01,21.5,20.51,20,20.51L14.99,20.51C13.49,20.51,12.99,20.01,12.99,18.51L12.99,16.5C12.99,15,13.49,14.5,14.99,14.5L20,14.5C21.5,14.5,22,15,22,16.5ZM11.63,12.05C11.95,12.37,11.95,12.72,11.63,13.05L11.57,13.12C11.25,13.44,10.9,13.44,10.58,13.12L4.78,7.29L5.83,6.24ZM4,10.05L4,6.58C4,5.81,4.3,5.51,5.07,5.51L8.54,5.51C8.99,5.51,9.24,5.76,9.24,6.21L9.24,6.43C9.24,6.8,9.04,7.01,8.66,7.01L5.49,7.01L5.49,10.06C5.49,10.51,5.24,10.76,4.79,10.76L4.7,10.76C4.25,10.76,4,10.51,4,10.06Z"/></svg>