<svg xmlns="http://www.w3.org/2000/svg" viewBox="0 0 24 24"><path d="M4.96,22C1.29,22,-0.01,20.7,-0.01,17.03L-0.01,6.96C-0.01,3.29,1.29,1.99,4.96,1.99L19.03,1.99C22.7,1.99,24,3.29,24,6.96L24,17.03C24,20.7,22.7,22,19.03,22Z" fill="currentColor"/><path d="M18.63,9.77C19.36,9.07,19.33,8.5,18.6,7.77L18.53,7.67C17.8,6.94,17.23,6.94,16.5,7.67L10.4,13.77L7.77,11.14C7.04,10.41,6.47,10.44,5.74,11.17L5.64,11.24C4.91,11.97,4.91,12.54,5.64,13.27L9.41,17.04C10.14,17.77,10.68,17.77,11.41,17.04Z" fill="currentColor"/></svg>