<svg xmlns="http://www.w3.org/2000/svg" viewBox="0 0 24 24" fill="currentColor"><path d="M17,19C17.5,19,17.5,19,17.5,18.5L17.5,10.49C17.5,9.99,17.5,9.99,17,9.99L5.99,9.99C5.49,9.99,5.49,9.99,5.49,10.49L5.49,18.5C5.49,19,5.49,19,5.99,19ZM5.99,20.5C4.49,20.5,3.99,20,3.99,18.5L3.99,10.49C3.99,8.99,4.49,8.49,5.99,8.49L17,8.49C18.5,8.49,19,8.99,19,10.49L19,18.5C19,20,18.5,20.5,17,20.5ZM20.5,16.67L20.5,7.5C20.5,7.13,20.37,7,20,7L7.04,7C7.22,5.9,7.85,5.5,9.24,5.5L19.99,5.5C21.49,5.5,21.99,6,21.99,7.5L21.99,14.48C21.99,15.88,21.59,16.5,20.49,16.67Z"/></svg>