<svg xmlns="http://www.w3.org/2000/svg" viewBox="0 0 1100 1100"><path d="M800,800C865,800,900,765,900,700L900,300C900,235,865,200,800,200L300,200C235,200,200,235,200,300L200,700C200,765,235,800,300,800Z" fill="currentColor"/><path d="M400,800L400,700L700,700L700,800Z" fill="currentColor"/><path d="M335,449C335,414,364,385,400,385C436,385,465,414,465,449C465,486,436,515,400,515C364,515,335,486,335,449Z" fill="currentColor"/><path d="M635,449C635,414,664,385,702,385C736,385,765,414,765,449C765,486,736,515,702,515C664,515,635,486,635,449Z" fill="currentColor"/><path d="M850,400L850,500L1000,500L1000,400Z" fill="currentColor"/><path d="M250,400L100,400L100,500L250,500Z" fill="currentColor"/><path d="M300,900L800,900L800,800L300,800Z" fill="currentColor"/></svg>