<svg xmlns="http://www.w3.org/2000/svg" viewBox="0 0 1100 1100"><path d="M825,550C825,455,761,395,658,395C555,395,490,455,490,550C490,645,555,705,658,705C761,705,825,645,825,550Z" fill="currentColor"/><path d="M550,925C782,925,975,787,975,550L875,550C875,730,743,825,550,825C362,825,225,730,225,550C225,370,362,275,550,275L550,375L725,225L550,75L550,175C323,175,125,312,125,550C125,788,323,925,550,925Z" fill="currentColor"/><path d="M300,500L350,500L350,700L450,700L450,400L300,400Z" fill="currentColor"/><path d="M658,495C699,495,725,516,725,550C725,584,699,605,658,605C616,605,590,584,590,550C590,516,616,495,658,495Z" fill="currentColor"/></svg>