<svg xmlns="http://www.w3.org/2000/svg" viewBox="0 0 1100 1100"><path d="M741,741C689,792,627,820,550,820C395,820,280,707,280,550C280,397,395,280,550,280C705,280,820,397,820,550L920,550C920,349,754,180,550,180C346,180,180,349,180,550C180,756,347,920,550,920C652,920,745,878,811,811L847,776L776,705Z" fill="currentColor"/><path d="M375,700L725,700L725,500L500,500L500,469C500,446,509,409,549,409C590,409,600,441,600,457L650,457C650,430,628,359,549,359C471,359,450,435,450,469L450,500L375,500Z" fill="currentColor"/><path d="M743,573L893,717L1043,573Z" fill="currentColor"/></svg>