<svg xmlns="http://www.w3.org/2000/svg" viewBox="0 0 1100 1100"><path d="M313.99,799.16C378.86,868.5,463.71,920,565.5,920C695.21,920,799.5,836.84,799.5,729C799.5,610.87,694.61,553.16,568.79,503.46C445.35,455.2,400.5,421.07,400.5,370C400.5,323.67,456.02,280,535.5,280C602.71,280,662.06,314.59,714.28,369.47L748.75,405.69L821.19,336.75L786.72,300.53C720.94,231.4,636.29,180,535.5,180C406.18,180,300.5,261.73,300.5,370C300.5,482.52,390.03,540.94,532.21,596.54C643.46,640.48,699.5,675.33,699.5,729C699.5,775.76,644.59,820,565.5,820C497.29,820,438.14,785.5,387.01,730.84L352.85,694.33L279.82,762.65Z" fill="currentColor"/></svg>