<svg xmlns="http://www.w3.org/2000/svg" viewBox="0 0 1100 1100"><path d="M925,550C925,348,752,175,550,175C344,175,175,348,175,550C175,752,344,925,550,925C752,925,925,752,925,550Z" fill="currentColor"/><path d="M403,717C409,639,480,600,550,600C621,600,691,639,697,717Z" fill="currentColor"/><path d="M368,462C368,428,396,400,431,400C465,400,493,428,493,462C493,497,465,525,431,525C396,525,368,497,368,462Z" fill="currentColor"/><path d="M607,462C607,428,635,400,671,400C704,400,732,428,732,462C732,497,704,525,671,525C635,525,607,497,607,462Z" fill="currentColor"/></svg>