<svg xmlns="http://www.w3.org/2000/svg" viewBox="0 0 1100 1100"><path d="M200,900L700,900L700,500L200,500Z" fill="currentColor"/><path d="M400,542L400,431C400,399.57,423.46,375,450,375C476.54,375,500,399.57,500,431L500,542L600,542L600,431C600,346.43,533.46,275,450,275C366.54,275,300,346.43,300,431L300,542Z" fill="currentColor"/><path d="M788,337C788,302.51,815.51,275,850,275C884.78,275,913,302.8,913,337C913,371.49,884.49,400,850,400C815.8,400,788,371.78,788,337Z" fill="currentColor"/><path d="M1013,337C1013,247.2,939.22,175,850,175C760.49,175,688,247.49,688,337C688,426.22,760.2,500,850,500C939.51,500,1013,426.51,1013,337Z" fill="currentColor"/><path d="M800,900L1000,900L1000,800L800,800Z" fill="currentColor"/><path d="M800,800L900,800L900,475L800,475Z" fill="currentColor"/><path d="M385,738C385,702,414,673,450,673C486,673,515,702,515,738C515,774,486,803,450,803C414,803,385,774,385,738Z" fill="currentColor"/></svg>