<svg xmlns="http://www.w3.org/2000/svg" viewBox="0 0 1100 1100"><path d="M314.55,792.75C379.43,859.87,463.98,910,565.5,910C694.78,910,799.5,829.32,799.5,724C799.5,607.24,693.64,551.73,568.31,503.28C445.04,456.94,400.5,423.55,400.5,376C400.5,333.15,454.79,290,535.5,290C603.18,290,662.5,323.82,714.85,377.06L749.91,412.71L821.21,342.6L786.15,306.95C720.5,240.19,635.82,190.01,535.5,190.01C406.01,190.01,300.5,269.86,300.5,376.01C300.5,485.86,390.15,543.14,532.69,596.73C644.05,639.78,699.5,672.97,699.5,724.01C699.5,766.29,645.82,810.01,565.5,810.01C497.02,810.01,437.57,776.14,386.45,723.26L351.7,687.31L279.8,756.81Z" fill="currentColor"/><path d="M499.5,1000L599.5,1000L599.5,854L499.5,854Z" fill="currentColor"/><path d="M499.5,246L599.5,246L599.5,100L499.5,100Z" fill="currentColor"/></svg>