<svg xmlns="http://www.w3.org/2000/svg" viewBox="0 0 1100 1100"><path d="M150,700L950,700L948,460C947,341,910,300,799,300L700,300L700,200L150,200Z" fill="currentColor"/><path d="M700,550L700,400L850,400L850,550Z" fill="currentColor"/><path d="M410,851C410,817,384,790,350,790C316,790,290,817,290,851C290,884,316,910,350,910C384,910,410,884,410,851Z" fill="currentColor"/><path d="M910,851C910,817,884,790,850,790C816,790,790,817,790,851C790,884,816,910,850,910C884,910,910,884,910,851Z" fill="currentColor"/></svg>