<svg xmlns="http://www.w3.org/2000/svg" viewBox="0 0 1100 1100"><path d="M300,900L400,900L400,720L300,720Z" fill="currentColor"/><path d="M300,380L400,380L400,200L300,200Z" fill="currentColor"/><path d="M183.3,724.95C227.14,772.34,288.07,810,361,810C464.07,810,532,741.2,532,667C532,588.8,473.32,544.81,369.33,503.48C291.76,473.17,270,454.97,270,432C270,412.94,297.48,390,341,390C379.27,390,414.62,410.49,447.2,443.91L482.11,479.71L553.71,409.9L518.8,374.1C473.38,327.51,412.73,290.01,341,290.01C240.72,290.01,170,356.21,170,432.01C170,505.81,217.98,551.71,332.67,596.53C403.45,624.66,432,643.96,432,667.01C432,686.72,404.93,710.01,361,710.01C321.93,710.01,286.87,689.67,256.7,657.06L222.75,620.36L149.34,688.26Z" fill="currentColor"/><path d="M900,700L900,400L675,550Z" fill="currentColor"/></svg>