<svg xmlns="http://www.w3.org/2000/svg" viewBox="0 0 1100 1100"><path d="M750,700C815,700,857,666,870,602L950,200L100,200L100,300L272,300L331,602C343,666,385,700,450,700Z" fill="currentColor"/><path d="M571,600L400,430L471,359L571,459L729,300L800,371Z" fill="currentColor"/><path d="M410,851C410,817,384,790,350,790C316,790,290,817,290,851C290,884,316,910,350,910C384,910,410,884,410,851Z" fill="currentColor"/><path d="M910,851C910,817,884,790,850,790C816,790,790,817,790,851C790,884,816,910,850,910C884,910,910,884,910,851Z" fill="currentColor"/></svg>