<svg xmlns="http://www.w3.org/2000/svg" viewBox="0 0 1100 1100"><path d="M100,400L600,400L600,800C600,865,565,900,500,900L200,900C135,900,100,865,100,800Z" fill="currentColor"/><path d="M400,300L400,200L1000,200L1000,800C1000,865,965,900,900,900L700,900L700,300Z" fill="currentColor"/><path d="M400,500L400,505C400,536.12,376.85,560,350,560C323.15,560,300,536.12,300,505L300,500L200,500L200,505C200,589.88,266.85,660,350,660C433.15,660,500,589.88,500,505L500,500Z" fill="currentColor"/><path d="M800,300L800,348C800,429.94,753.01,464,700,464L700,564C797.99,564,900,495.06,900,348L900,300Z" fill="currentColor"/></svg>