<svg xmlns="http://www.w3.org/2000/svg" viewBox="0 0 1100 1100"><path d="M201,900L901,900L900,350C900,252,845,200,743,200L675,200C664,254,612,300,550,300C487,300,436,254,425,200L350,200C253,200,200,255,200,357Z" fill="currentColor"/><path d="M490,650C490,617,517,590,550,590C583,590,610,617,610,650C610,683,583,710,550,710C517,710,490,683,490,650Z" fill="currentColor"/><path d="M490,450C490,417,517,390,550,390C583,390,610,417,610,450C610,483,583,510,550,510C517,510,490,483,490,450Z" fill="currentColor"/></svg>