<svg xmlns="http://www.w3.org/2000/svg" viewBox="0 0 1100 1100"><path d="M900,700L900,400L675,550Z" fill="currentColor"/><path d="M564.14,618.65C522.98,681.65,479.55,710,430,710C340.62,710,296,642.19,296,550C296,457.81,340.62,390,430,390C487.35,390,529.09,417.55,562.13,477.98L649.87,430.01C600.91,340.45,526.64,289.99,430,289.99C273.78,289.99,196,415.78,196,549.99C196,684.2,273.78,809.99,430,809.99C518.25,809.99,591.13,760.17,647.86,673.34Z" fill="currentColor"/><path d="M450,500L150,500L150,600L450,600Z" fill="currentColor"/></svg>