<svg xmlns="http://www.w3.org/2000/svg" viewBox="0 0 1100 1100"><path d="M600,700L600,400L500,400L500,700Z" fill="currentColor"/><path d="M400,700L400,400L400,400C335,400,300,435,300,500L300,600C300,665,335,700,400,700Z" fill="currentColor"/><path d="M700,700L700,700C765,700,800,665,800,600L800,500C800,435,765,400,700,400L700,400Z" fill="currentColor"/><path d="M900,400L1000,400L1000,300C1000,235,965,200,900,200L800,200L800,300L900,300Z" fill="currentColor"/><path d="M300,900L300,800L200,800L200,700L100,700L100,800C100,865,135,900,200,900Z" fill="currentColor"/><path d="M100,400L200,400L200,300L300,300L300,200L200,200C135,200,100,235,100,300Z" fill="currentColor"/><path d="M800,900L900,900C965,900,1000,865,1000,800L1000,700L900,700L900,800L800,800Z" fill="currentColor"/></svg>