<svg xmlns="http://www.w3.org/2000/svg" viewBox="0 0 1100 1100"><path d="M301,700L801,700L801,200L301,200Z" fill="currentColor"/><path d="M310,850C310,816.46,283.54,790,250,790C216.46,790,190,816.46,190,850C190,883.54,216.46,910,250,910C283.54,910,310,883.54,310,850Z" fill="currentColor"/><path d="M510,850C510,816.46,483.54,790,450,790C416.46,790,390,816.46,390,850C390,883.54,416.46,910,450,910C483.54,910,510,883.54,510,850Z" fill="currentColor"/><path d="M710,850C710,816.46,683.54,790,650,790C616.46,790,590,816.46,590,850C590,883.54,616.46,910,650,910C683.54,910,710,883.54,710,850Z" fill="currentColor"/><path d="M911,850C911,816.46,884.54,790,851,790C817.46,790,791,816.46,791,850C791,883.54,817.46,910,851,910C884.54,910,911,883.54,911,850Z" fill="currentColor"/><path d="M501,300L501,200L601,200L601,300Z" fill="currentColor"/></svg>