<svg xmlns="http://www.w3.org/2000/svg" viewBox="0 0 1100 1100"><path d="M400,200C257.29,200,200,277.07,200,400L200,700L300,700L300,400C300,325.13,320.91,300,400,300Z" fill="currentColor"/><path d="M501,757C501,600,501,600,355,600C200,600,200,600,200,757C200,841,270,910,355,910C435,910,501,841,501,757Z" fill="currentColor"/><path d="M746,600L355,600L355,700L746,700Z" fill="currentColor"/><path d="M900,757C900,600,900,600,746,600C600,600,600,600,600,757C600,841,665,910,746,910C830,910,900,841,900,757Z" fill="currentColor"/><path d="M900,700L900,400C900,277.07,842.71,200,700,200L700,300C779.09,300,800,325.13,800,400L800,700Z" fill="currentColor"/></svg>