<svg xmlns="http://www.w3.org/2000/svg" viewBox="0 0 1100 1100"><path d="M819,667C753,772,689,815,603,815C507,815,445,771,412,700L650,700L650,600L387,600C385,584,384,567,384,550C384,533,385,516,387,500L650,500L650,400L412,400C445,329,507,285,603,285C701,285,764,327,818,430L906,384C838,255,736,185,603,185C449,185,350,277,308,400L200,400L200,500L286,500C285,516,284,533,284,550C284,567,285,584,286,600L200,600L200,700L308,700C350,823,449,915,603,915C723,915,825,846,903,719Z" fill="currentColor"/></svg>