<svg xmlns="http://www.w3.org/2000/svg" viewBox="0 0 1100 1100"><path d="M350,810C393.85,810,434.68,799.94,470.39,782.03C448.9,756.13,431.17,727.06,417.87,695.56C397.39,704.84,374.43,709.99,350,709.99C260,709.99,190,639.99,190,551.99C190,460.99,260,389.99,350,389.99C375.27,389.99,398.97,395.59,419.98,405.65C433.36,374.16,450.91,345.18,471.99,319.37C435.91,300.53,394.51,289.99,350,289.99C203,289.99,90,404.99,90,553.99C90,696.99,203,809.99,350,809.99Z" fill="currentColor"/><path d="M490,554C490,405,603,290,750,290C897,290,1010,405,1010,554C1010,697,897,810,750,810C603,810,490,697,490,554Z" fill="currentColor"/><path d="M910,552C910,461,840,390,750,390C660,390,590,461,590,552C590,640,660,710,750,710C840,710,910,640,910,552Z" fill="currentColor"/></svg>