<svg xmlns="http://www.w3.org/2000/svg" viewBox="0 0 1100 1100"><path d="M690,650C690,616,716,590,749,590C783,590,810,616,810,650C810,684,783,710,749,710C716,710,690,684,690,650Z" fill="currentColor"/><path d="M388,400C332.39,400,300,373.3,300,363C300,343.99,330.39,324.41,402.68,301.18L730.76,195.16L700.01,100.01L372.01,206.01C288.01,233.01,200.01,273.01,200.01,363.01C200.01,423.01,263.01,500.01,388.01,500.01Z" fill="currentColor"/><path d="M900,900L900,400L242,400L200,363L200,750C200,847,253,900,350,900Z" fill="currentColor"/></svg>