<svg xmlns="http://www.w3.org/2000/svg" viewBox="0 0 1100 1100"><path d="M519,710C438,804,441,925,550,925C659,925,662,804,581,710L550,674Z" fill="currentColor"/><path d="M351,710C385,710,411,684,411,650C411,616,385,590,351,590C317,590,289,616,289,650C289,684,317,710,351,710Z" fill="currentColor"/><path d="M310,450C310,416,284,390,250,390C216,390,190,416,190,450C190,484,216,510,250,510C284,510,310,484,310,450Z" fill="currentColor"/><path d="M810,649C810,615,784,589,750,589C716,589,690,615,690,649C690,683,716,711,750,711C784,711,810,683,810,649Z" fill="currentColor"/><path d="M350,311C384,311,410,285,410,251C410,217,384,189,350,189C316,189,290,217,290,251C290,285,316,311,350,311Z" fill="currentColor"/><path d="M610,201C610,167,584,140,550,140C516,140,490,167,490,201C490,235,516,260,550,260C584,260,610,235,610,201Z" fill="currentColor"/><path d="M910,450C910,416,883,390,849,390C815,390,790,416,790,450C790,484,815,510,849,510C883,510,910,484,910,450Z" fill="currentColor"/><path d="M749,310C783,310,811,284,811,250C811,216,783,190,749,190C715,190,689,216,689,250C689,284,715,310,749,310Z" fill="currentColor"/></svg>