<svg xmlns="http://www.w3.org/2000/svg" viewBox="0 0 1100 1100"><path d="M900,700L900,600L900,200L100,200L100,300L222,300L281,602C293,666,335,700,400,700Z" fill="currentColor"/><path d="M382,600L363,500L900,500L900,600Z" fill="currentColor"/><path d="M410,851C410,817,384,790,350,790C316,790,290,817,290,851C290,884,316,910,350,910C384,910,410,884,410,851Z" fill="currentColor"/><path d="M910,851C910,817,884,790,850,790C816,790,790,817,790,851C790,884,816,910,850,910C884,910,910,884,910,851Z" fill="currentColor"/></svg>