<svg xmlns="http://www.w3.org/2000/svg" viewBox="0 0 1100 1100"><path d="M818.56,666.57C755.42,767.95,684.52,815,603,815C457.41,815,384,698.94,384,550C384,401.06,457.41,285,603,285C696.12,285,765.76,331.49,817.75,430.29L906.24,383.72C838.33,254.69,735.68,185.01,602.99,185.01C390.58,185.01,283.99,358.95,283.99,550.01C283.99,741.07,390.58,915.01,602.99,915.01C723.47,915.01,824.57,846.06,903.43,719.44Z" fill="currentColor"/><path d="M650,400L200,400L200,500L650,500Z" fill="currentColor"/><path d="M650,600L200,600L200,700L650,700Z" fill="currentColor"/></svg>