<svg xmlns="http://www.w3.org/2000/svg" viewBox="0 0 1100 1100"><path d="M250,850L664.96,850L756,1008L843,958L780.77,850L579.1,500L521.48,400L435.05,250L344.01,92L257.01,142L319.24,250L250.01,250C185.01,250,150.01,285,150.01,350L150.01,400L405.67,400L463.29,500L150.01,500L150.01,750C150.01,815,185.01,850,250.01,850Z" fill="currentColor"/><path d="M250,750L250,650L350,650L350,750Z" fill="currentColor"/><path d="M549.41,250L635.94,400L949.99,400L949.99,350C949.99,285,914.99,250,849.99,250Z" fill="currentColor"/><path d="M693.63,500L892,843.87C929.94,831.22,950,799.2,950,750L950,500Z" fill="currentColor"/></svg>