<svg xmlns="http://www.w3.org/2000/svg" viewBox="0 0 1100 1100"><path d="M799,697C937,682,1010,598,1010,450C1010,286,920,200,750,200L350,200C180,200,90,286,90,450C90,598,163,682,301,697C309,860,365,900,550,900C735,900,791,860,799,697Z" fill="currentColor"/><path d="M350,300L750,300C873,300,910,335,910,450C910,548,883,588,799,598C790,439,733,400,550,400C367,400,310,439,301,598C217,588,190,548,190,450C190,335,227,300,350,300Z" fill="currentColor"/><path d="M500,700L500,490L600,490L600,600L700,600L700,700Z" fill="currentColor"/></svg>