<svg xmlns="http://www.w3.org/2000/svg" viewBox="0 0 1100 1100"><path d="M200,700L700,700L700,500C700,308,589,200,400,200L300,200C235,200,200,235,200,300Z" fill="currentColor"/><path d="M300,500L300,300L400,300C536,300,600,364,600,500Z" fill="currentColor"/><path d="M1000,700L1000,600L900,600L900,200L800,200L800,600C800,665,835,700,900,700Z" fill="currentColor"/><path d="M410,851C410,817,384,790,350,790C316,790,290,817,290,851C290,884,316,910,350,910C384,910,410,884,410,851Z" fill="currentColor"/><path d="M910,851C910,817,884,790,850,790C816,790,790,817,790,851C790,884,816,910,850,910C884,910,910,884,910,851Z" fill="currentColor"/></svg>