<svg xmlns="http://www.w3.org/2000/svg" viewBox="0 0 1100 1100"><path d="M247.56,877.72C245.62,879.66,266.16,889.31,325.04,920.69L434.53,579.22L148.95,366.7C184.68,395.31,163.31,449.99,120,449.99L474.49,449.99L594.32,107.14C595.44,103.8,504.57,103.8,505.69,107.14L625.52,449.99L980.01,449.99C936.7,449.99,915.33,395.3,951.06,366.7L665.48,579.22L776.9,926.7C776.6,925.52,795.26,912.65,851.69,877.17L550.01,661.53Z" fill="currentColor"/><path d="M310.88,955.39L550,784.46L789.12,955.39C827.33,986.29,888,951.33,872.93,898.74L782.52,616.78L1013.5,444.89C1052.4,412.24,1029.11,350.01,979.99,350.01L696.48,350.01L600.31,74.86C584.31,26.86,515.67,26.86,499.68,74.86L403.51,350.01L120,350.01C70.89,350.01,47.59,412.24,86.49,444.89L317.47,616.78L227.06,898.74C211.99,951.33,272.66,986.3,310.87,955.39Z" fill="currentColor"/></svg>