<svg xmlns="http://www.w3.org/2000/svg" viewBox="0 0 1100 1100"><path d="M690,650C690,616,716,590,749,590C783,590,810,616,810,650C810,684,783,710,749,710C716,710,690,684,690,650Z" fill="currentColor"/><path d="M341,400C311.95,400,300,386.41,300,368C300,343.19,330.01,324.53,402.68,301.18L730.76,195.16L700.01,100.01L372.01,206.01C288.01,233.01,200.01,273.01,200.01,368.01C200.01,428.01,243.01,500.01,341.01,500.01Z" fill="currentColor"/><path d="M900,900L900,400L242,400L200,368L200,750C200,847,243,900,310,900Z" fill="currentColor"/></svg>