<svg xmlns="http://www.w3.org/2000/svg" viewBox="0 0 1100 1100"><path d="M700,700L700,600L600,600C535,600,500,565,500,500L500,400C500,335,535,300,600,300L700,300L700,200L100,200L100,300L272,300L331,602C343,666,385,700,450,700Z" fill="currentColor"/><path d="M800,700L900,700L900,500L1100,500L1100,400L900,400L900,200L800,200L800,400L600,400L600,500L800,500Z" fill="currentColor"/><path d="M410,851C410,817,384,790,350,790C316,790,290,817,290,851C290,884,316,910,350,910C384,910,410,884,410,851Z" fill="currentColor"/><path d="M910,851C910,817,884,790,850,790C816,790,790,817,790,851C790,884,816,910,850,910C884,910,910,884,910,851Z" fill="currentColor"/></svg>