<svg xmlns="http://www.w3.org/2000/svg" viewBox="0 0 1100 1100"><path d="M389,680C389,612.71,459.77,550,549,550C638.23,550,709,612.71,709,680C709,747.29,638.23,810,549,810C459.94,810,389,746.47,389,680Z" fill="currentColor"/><path d="M809,680C809,553.49,689.57,450,549,450C408.43,450,289,553.49,289,680C289,805.33,408.26,910,549,910C689.57,910,809,806.51,809,680Z" fill="currentColor"/><path d="M581.82,200L425.45,402.42C312.87,547.92,289.01,607.95,289.01,680L389.01,680C389.01,634.25,405.27,591.92,504.57,463.58L708.2,200Z" fill="currentColor"/></svg>