<svg xmlns="http://www.w3.org/2000/svg" viewBox="0 0 24 24" fill="currentColor"><path d="M10.75,17.5C9.08,17.5,8.5,16.92,8.5,15.25L8.5,10.75C8.5,9.08,9.08,8.5,10.75,8.5L15.25,8.5C16.92,8.5,17.5,9.08,17.5,10.75L17.5,15.25C17.5,16.92,16.92,17.5,15.25,17.5ZM5.5,10L5.5,7.5C5.5,6,6,5.5,7.5,5.5L10,5.5L10,7L7.5,7C7,7,7,7,7,7.5L7,10ZM16,5.5L18.5,5.5C20,5.5,20.5,6,20.5,7.5L20.5,10L19,10L19,7.5C19,7,19,7,18.5,7L16,7ZM7,16L7,18.5C7,19,7,19,7.5,19L9.98,19L9.98,20.5L7.5,20.5C6,20.5,5.5,20,5.5,18.5L5.5,16ZM20.5,16L20.5,18.5C20.5,20,20,20.5,18.5,20.5L15.97,20.5L15.97,19L18.5,19C19,19,19,19,19,18.5L19,16Z"/></svg>