<svg xmlns="http://www.w3.org/2000/svg" viewBox="0 0 24 24"><path d="M6.96,22C3.29,22,1.99,20.7,1.99,17.03L1.99,6.96C1.99,3.29,3.29,1.99,6.96,1.99L17.03,1.99C20.7,1.99,22,3.29,22,6.96L22,17.03C22,20.7,20.7,22,17.03,22Z" fill="currentColor"/><path d="M6.5,17.63C7.23,18.36,7.77,18.36,8.5,17.63L12,14.13L15.5,17.63C16.23,18.36,16.77,18.36,17.5,17.63L17.63,17.5C18.36,16.77,18.36,16.23,17.63,15.5L14.13,12L17.63,8.5C18.36,7.77,18.36,7.23,17.63,6.5L17.5,6.37C16.77,5.64,16.23,5.64,15.5,6.37L12,9.87L8.5,6.37C7.77,5.64,7.23,5.64,6.5,6.37L6.37,6.5C5.64,7.23,5.64,7.77,6.37,8.5L9.87,12L6.37,15.5C5.64,16.23,5.64,16.77,6.37,17.5Z" fill="currentColor"/></svg>