<svg xmlns="http://www.w3.org/2000/svg" viewBox="0 0 24 24"><path d="M6.96,22C3.29,22,1.99,20.7,1.99,17.03L1.99,6.96C1.99,3.29,3.29,1.99,6.96,1.99L17.03,1.99C20.7,1.99,22,3.29,22,6.96L22,17.03C22,20.7,20.7,22,17.03,22Z" fill="currentColor"/><path d="M4,17.5C4,19.33,4.67,20,6.5,20L17.53,20C19.36,20,20,19.33,20,17.5L20,6.47C20,4.64,19.37,4,17.53,4L6.5,4C4.67,4,4,4.63,4,6.47Z" fill="currentColor"/><path d="M7.07,12.87L9.84,15.64C10.27,16.07,10.74,16.07,11.17,15.64L17,9.74C17.43,9.31,17.43,8.84,17,8.44L16.9,8.34C16.47,7.91,16,7.91,15.6,8.34L10.5,13.47L8.43,11.44C8,11.01,7.53,11.01,7.13,11.44L7.03,11.54C6.63,11.97,6.63,12.44,7.06,12.87Z" fill="currentColor"/></svg>