<svg xmlns="http://www.w3.org/2000/svg" viewBox="0 0 24 24" fill="currentColor"><path d="M5.5,9.22C5.5,6.47,6.47,5.49,9.23,5.49L16.78,5.49C19.53,5.49,20.51,6.47,20.51,9.22L20.51,16.77C20.51,19.53,19.53,20.5,16.78,20.5L9.23,20.5C6.47,20.5,5.5,19.52,5.5,16.77ZM16.13,12.25C16.75,12.25,16.88,11.97,16.48,11.48L13.71,8.2C13.2,7.6,12.81,7.6,12.3,8.2L9.53,11.48C9.13,11.98,9.25,12.25,9.88,12.25L11.88,12.25L11.88,17.18C11.88,17.95,12.18,18.25,12.96,18.25L13.05,18.25C13.83,18.25,14.13,17.95,14.13,17.18L14.13,12.25Z"/></svg>