<svg xmlns="http://www.w3.org/2000/svg" viewBox="0 0 24 24" fill="currentColor"><path d="M9.22,20.5C6.47,20.5,5.49,19.52,5.49,16.77L5.49,9.22C5.49,6.47,6.47,5.49,9.22,5.49L16.77,5.49C19.53,5.49,20.5,6.47,20.5,9.22L20.5,16.77C20.5,19.53,19.52,20.5,16.77,20.5ZM9.9,14.58C9.9,13.92,9.43,13.45,8.78,13.45C8.13,13.45,7.65,13.92,7.65,14.58C7.65,15.23,8.13,15.7,8.78,15.7C9.43,15.7,9.9,15.23,9.9,14.58ZM9.9,11.57C9.9,10.92,9.43,10.45,8.78,10.45C8.13,10.45,7.65,10.92,7.65,11.57C7.65,12.23,8.13,12.7,8.78,12.7C9.43,12.7,9.9,12.23,9.9,11.57ZM17.67,15.25C18.12,15.25,18.37,15,18.37,14.55L18.37,14.46C18.37,14,18.12,13.76,17.67,13.76L11.92,13.76C11.47,13.76,11.22,14,11.22,14.46L11.22,14.55C11.22,15,11.47,15.25,11.92,15.25ZM9.9,8.57C9.9,7.92,9.43,7.45,8.78,7.45C8.13,7.45,7.65,7.92,7.65,8.57C7.65,9.23,8.13,9.7,8.78,9.7C9.43,9.7,9.9,9.23,9.9,8.57ZM17.67,12.25C18.12,12.25,18.37,12,18.37,11.55L18.37,11.46C18.37,11,18.12,10.76,17.67,10.76L11.92,10.76C11.47,10.76,11.22,11,11.22,11.46L11.22,11.55C11.22,12,11.47,12.25,11.92,12.25ZM17.67,9.25C18.12,9.25,18.37,9,18.37,8.55L18.37,8.46C18.37,8,18.12,7.76,17.67,7.76L11.92,7.76C11.47,7.76,11.22,8,11.22,8.46L11.22,8.55C11.22,9,11.47,9.25,11.92,9.25ZM9.9,17.58C9.9,16.92,9.43,16.45,8.78,16.45C8.13,16.45,7.65,16.92,7.65,17.58C7.65,18.23,8.13,18.7,8.78,18.7C9.43,18.7,9.9,18.23,9.9,17.58ZM17.67,18.25C18.12,18.25,18.37,18,18.37,17.55L18.37,17.46C18.37,17,18.12,16.76,17.67,16.76L11.92,16.76C11.47,16.76,11.22,17,11.22,17.46L11.22,17.55C11.22,18,11.47,18.25,11.92,18.25Z"/></svg>