<svg xmlns="http://www.w3.org/2000/svg" viewBox="0 0 24 24" fill="currentColor"><path d="M16.77,20.5L9.22,20.5C9.05,20.5,8.89,20.5,8.73,20.48L10.22,19L17.14,19C18.51,19,18.99,18.5,18.99,17.13L18.99,10.23L20.48,8.74C20.49,8.9,20.49,9.06,20.49,9.23L20.49,16.78C20.49,19.53,19.52,20.51,16.77,20.51ZM7,8.85L7,17.13C7,17.4,7.02,17.65,7.07,17.86L17.87,7.06C17.67,7.02,17.43,7,17.16,7L8.88,7C7.51,7,7.01,7.47,7.01,8.85ZM21.55,5.52L20.11,6.96L18.94,8.13L8.14,18.93L6.96,20.11L5.57,21.5L5.55,21.52C5.23,21.84,4.88,21.84,4.55,21.52L4.48,21.45C4.16,21.12,4.16,20.77,4.48,20.45L5.89,19.04C5.62,18.48,5.5,17.73,5.5,16.77L5.5,9.22C5.5,6.47,6.47,5.49,9.23,5.49L16.78,5.49C17.74,5.49,18.48,5.61,19.04,5.88L20.48,4.44C20.81,4.12,21.16,4.12,21.48,4.44L21.56,4.52C21.87,4.83,21.88,5.18,21.58,5.49C21.57,5.5,21.56,5.51,21.56,5.52Z"/></svg>