<svg xmlns="http://www.w3.org/2000/svg" viewBox="0 0 24 24"><path d="M8.66,18C6.66,18,5.99,17.33,5.99,15.33L5.99,8.66C5.99,6.66,6.66,5.99,8.66,5.99L15.33,5.99C17.33,5.99,18,6.66,18,8.66L18,15.33C18,17.33,17.33,18,15.33,18Z" fill="currentColor"/><path d="M14.87,20.67L12.4,23.4C12.1,23.7,11.9,23.7,11.6,23.4L9.1,20.63C8.67,20.13,8.77,19.96,9.43,19.96L14.63,19.96C15.26,19.96,15.33,20.16,14.86,20.66Z" fill="currentColor"/><path d="M4.03,9.43L4.03,14.63C4.03,15.26,3.83,15.33,3.33,14.86L0.6,12.39C0.3,12.09,0.3,11.89,0.6,11.59L3.37,9.09C3.87,8.66,4.04,8.76,4.04,9.42Z" fill="currentColor"/><path d="M14.57,4.03L9.37,4.03C8.74,4.03,8.67,3.83,9.14,3.33L11.61,0.6C11.91,0.3,12.11,0.3,12.41,0.6L14.91,3.37C15.34,3.87,15.24,4.04,14.58,4.04Z" fill="currentColor"/><path d="M23.4,12.4L20.63,14.9C20.13,15.33,19.96,15.23,19.96,14.57L19.96,9.37C19.96,8.74,20.16,8.67,20.66,9.14L23.39,11.61C23.69,11.91,23.69,12.11,23.39,12.41Z" fill="currentColor"/></svg>