<svg xmlns="http://www.w3.org/2000/svg" viewBox="0 0 24 24"><path d="M6.96,22C3.29,22,1.99,20.7,1.99,17.03L1.99,6.96C1.99,3.29,3.29,1.99,6.96,1.99L17.03,1.99C20.7,1.99,22,3.29,22,6.96L22,17.03C22,20.7,20.7,22,17.03,22Z" fill="currentColor"/><path d="M4,17.5C4,19.33,4.67,20,6.5,20L17.53,20C19.36,20,20,19.33,20,17.5L20,6.47C20,4.64,19.37,4,17.53,4L6.5,4C4.67,4,4,4.63,4,6.47Z" fill="currentColor"/><path d="M6.9,8.04C6.9,8.64,7.2,8.97,7.7,8.97L16.17,8.97C16.77,8.97,17.1,8.67,17.1,8.17L17.1,7.9C17.1,7.3,16.83,6.97,16.3,6.97L7.83,6.97C7.23,6.97,6.9,7.24,6.9,7.77Z" fill="currentColor"/><path d="M6.9,16.04C6.9,16.64,7.2,16.97,7.7,16.97L12.77,16.97C13.37,16.97,13.7,16.67,13.7,16.17L13.7,15.9C13.7,15.3,13.43,14.97,12.9,14.97L7.83,14.97C7.23,14.97,6.9,15.24,6.9,15.77Z" fill="currentColor"/><path d="M6.9,12.04C6.9,12.64,7.2,12.97,7.7,12.97L16.17,12.97C16.77,12.97,17.1,12.67,17.1,12.17L17.1,11.9C17.1,11.3,16.83,10.97,16.3,10.97L7.83,10.97C7.23,10.97,6.9,11.24,6.9,11.77Z" fill="currentColor"/></svg>