<svg xmlns="http://www.w3.org/2000/svg" viewBox="0 0 24 24"><path d="M2,6.97C2,3.3,3.3,2,6.97,2L17.04,2C20.32,2,21.71,3.04,21.96,5.89C21.07,5.38,20.05,5.09,18.99,5.1C15.78,5.1,13.01,7.87,13.01,11.07C13.01,13.2,14.24,15.14,16.01,16.2C16.01,18.6,16.01,20.31,16.01,22.01L6.98,22.01C3.31,22.01,2.01,20.71,2.01,17.04Z" fill="currentColor"/><path d="M23,22L18,22L18,14.67L20,14.7L20,20L23,20Z" fill="currentColor"/><path d="M19,15.04C16.8,15.04,15,13.24,15,11.07C15,8.9,16.8,7.1,19,7.1C21.2,7.07,23,8.87,23,11.07C23,13.27,21.2,15.07,19,15.04Z" fill="currentColor"/><path d="M19,9.1C17.9,9.1,17,10.03,17,11.13C17,12.2,17.9,13.06,19,13.1C20.1,13.1,21,12.27,21,11.13C21,9.96,20.1,9.1,19,9.1Z" fill="currentColor"/></svg>