<svg xmlns="http://www.w3.org/2000/svg" viewBox="0 0 24 24" fill="currentColor"><path d="M7,8.85L7,17.13C7,18.5,7.5,19,8.88,19L16,19C16,19.55,16,20.05,16,20.5L9.23,20.5C6.48,20.5,5.5,19.52,5.5,16.77L5.5,9.22C5.5,6.47,6.48,5.49,9.23,5.49L16.78,5.49C18.89,5.49,19.96,6.07,20.34,7.59C19.71,7.25,18.98,7.06,18.24,7.07C18.15,7.07,18.06,7.07,17.98,7.08C17.75,7.02,17.48,6.99,17.16,6.99L8.88,6.99C7.51,6.99,7.01,7.47,7.01,8.85ZM21.25,20.5L17.5,20.5L17.5,14.25L19,14.28L19,19L21.25,19ZM18.25,14.53C16.6,14.53,15.25,13.18,15.25,11.55C15.25,9.92,16.6,8.57,18.25,8.57C19.9,8.55,21.25,9.9,21.25,11.55C21.25,13.2,19.9,14.55,18.25,14.53ZM18.25,10.08C17.42,10.08,16.75,10.77,16.75,11.6C16.75,12.4,17.42,13.05,18.25,13.08C19.08,13.08,19.75,12.45,19.75,11.6C19.75,10.72,19.08,10.08,18.25,10.08Z"/></svg>