<svg xmlns="http://www.w3.org/2000/svg" viewBox="0 0 24 24" fill="currentColor"><path d="M18.5,14.5C19,14.5,19,14.5,19,14L19,7.49C19,6.99,19,6.99,18.5,6.99L11.99,6.99C11.49,6.99,11.49,6.99,11.49,7.49L11.49,14C11.49,14.5,11.49,14.5,11.99,14.5ZM11.99,16C10.49,16,9.99,15.5,9.99,14L9.99,7.49C9.99,5.99,10.49,5.49,11.99,5.49L18.5,5.49C20,5.49,20.5,5.99,20.5,7.49L20.5,14C20.5,15.5,20,16,18.5,16ZM8.5,11.5L7.5,11.5C7,11.5,7,11.5,7,12L7,18.5C7,19.01,7,19.01,7.5,19.01L14,19.01C14.51,19.01,14.51,19.01,14.51,18.5L14.51,17.51L16.01,17.51L16.01,18.5C16.01,20,15.5,20.51,14.01,20.51L7.5,20.51C6,20.51,5.5,20,5.5,18.5L5.5,12C5.5,10.5,6,10,7.5,10L8.5,10Z"/></svg>