<svg xmlns="http://www.w3.org/2000/svg" viewBox="0 0 24 24" fill="currentColor"><path d="M11.99,16C10.49,16,9.99,15.5,9.99,14L9.99,7.49C9.99,5.99,10.49,5.49,11.99,5.49L18.5,5.49C20,5.49,20.5,5.99,20.5,7.49L20.5,14C20.5,15.5,20,16,18.5,16ZM14,20.5L7.49,20.5C5.99,20.5,5.49,20,5.49,18.5L5.49,11.99C5.49,10.49,5.99,9.99,7.49,9.99L8.49,9.99L8.49,13.99C8.49,16.62,9.37,17.49,11.99,17.49L15.99,17.49L15.99,18.49C15.99,19.99,15.49,20.49,13.99,20.49ZM12.5,13.45C12.85,13.8,13.2,13.83,13.57,13.45L15.22,11.8L16.92,13.45C17.27,13.8,17.62,13.8,17.97,13.45C18.32,13.1,18.35,12.72,17.97,12.38L16.3,10.73L17.97,9.06C18.32,8.7,18.32,8.36,17.97,8.01C17.62,7.65,17.27,7.63,16.9,8.01L15.23,9.68L13.58,8.03C13.23,7.68,12.88,7.68,12.53,8.03C12.17,8.38,12.15,8.76,12.53,9.1L14.18,10.73L12.5,12.4C12.15,12.75,12.15,13.1,12.5,13.45Z"/></svg>