<svg xmlns="http://www.w3.org/2000/svg" viewBox="0 0 24 24"><path d="M6.96,22C3.29,22,1.99,20.7,1.99,17.03L1.99,6.96C1.99,3.29,3.29,1.99,6.96,1.99L17.03,1.99C20.7,1.99,22,3.29,22,6.96L22,17.03C22,20.7,20.7,22,17.03,22Z" fill="currentColor"/><path d="M4,17.5C4,19.33,4.67,20,6.5,20L17.53,20C19.36,20,20,19.33,20,17.5L20,6.47C20,4.64,19.37,4,17.53,4L6.5,4C4.67,4,4,4.63,4,6.47Z" fill="currentColor"/><path d="M15.9,12.67L11.13,17.44C10.7,17.87,10.23,17.87,9.8,17.44L9.73,17.37C9.3,16.94,9.3,16.47,9.73,16.04L13.73,12.04L9.7,8.01C9.27,7.58,9.27,7.11,9.7,6.68L9.8,6.58C10.23,6.15,10.7,6.15,11.13,6.58L15.9,11.35C16.33,11.78,16.33,12.25,15.9,12.68Z" fill="currentColor"/></svg>