<svg xmlns="http://www.w3.org/2000/svg" viewBox="0 0 24 24"><path d="M22,17.04C22,20.71,20.7,22.01,17.03,22.01L6.96,22.01C3.29,22.01,1.99,20.71,1.99,17.04L1.99,6.97C1.99,3.3,3.29,2,6.96,2L17.03,2C20.7,2,22,3.3,22,6.97Z" fill="currentColor"/><path d="M17.53,20C19.36,20,20,19.33,20,17.5L20,6.47C20,4.64,19.37,4,17.53,4L6.5,4C4.67,4,4,4.63,4,6.47L4,17.5C4,19.33,4.67,20,6.5,20Z" fill="currentColor"/><path d="M12.67,8.1L17.44,12.87C17.87,13.3,17.87,13.77,17.44,14.2L17.37,14.27C16.94,14.7,16.47,14.7,16.04,14.27L12.04,10.27L8.01,14.3C7.58,14.73,7.11,14.73,6.68,14.3L6.58,14.2C6.15,13.77,6.15,13.3,6.58,12.87L11.35,8.1C11.78,7.67,12.25,7.67,12.68,8.1Z" fill="currentColor"/></svg>