<svg xmlns="http://www.w3.org/2000/svg" viewBox="0 0 24 24"><path d="M8.66,18C6.66,18,5.99,17.33,5.99,15.33L5.99,8.66C5.99,6.66,6.66,5.99,8.66,5.99L15.33,5.99C17.33,5.99,18,6.66,18,8.66L18,15.33C18,17.33,17.33,18,15.33,18Z" fill="currentColor"/><path d="M0,14.57L0,9.37C0,8.74,0.23,8.64,0.77,9L4.84,11.67C5.21,11.9,5.21,12.1,4.84,12.34L0.74,15.04C0.21,15.37,0.01,15.24,0.01,14.57Z" fill="currentColor"/><path d="M24,9.43L24,14.63C24,15.26,23.77,15.36,23.23,15L19.16,12.33C18.79,12.1,18.79,11.9,19.16,11.66L23.26,8.96C23.79,8.63,23.99,8.76,23.99,9.43Z" fill="currentColor"/><path d="M9.43,0L14.63,0C15.26,0,15.36,0.23,15,0.77L12.33,4.84C12.1,5.21,11.9,5.21,11.66,4.84L8.96,0.74C8.63,0.21,8.76,0.01,9.43,0.01Z" fill="currentColor"/><path d="M14.57,24L9.37,24C8.74,24,8.64,23.77,9,23.23L11.67,19.16C11.9,18.79,12.1,18.79,12.34,19.16L15.04,23.26C15.37,23.79,15.24,23.99,14.57,23.99Z" fill="currentColor"/></svg>