<svg xmlns="http://www.w3.org/2000/svg" viewBox="0 0 24 24" fill="currentColor"><path d="M8.01,20.5C6.13,20.5,5.51,19.88,5.51,18L5.51,8.01C5.51,6.13,6.13,5.51,8.01,5.51L18,5.51C19.88,5.51,20.5,6.13,20.5,8.01L20.5,18C20.5,19.88,19.88,20.5,18,20.5ZM10.68,16.25L15.33,16.25C15.85,16.25,15.75,15.67,15.57,15.57L14.65,15.05L14.27,10.12L14.52,10.12C14.84,10.12,14.99,9.95,14.99,9.72L14.99,8.05L13.37,8.05L13.37,9.35L12.62,9.35L12.62,8.05L10.99,8.05L10.99,9.72C10.99,9.95,11.14,10.12,11.46,10.12L11.71,10.12L11.33,15.05L10.41,15.57C10.24,15.67,10.13,16.25,10.66,16.25ZM15.33,18C15.87,18,15.87,17.01,15.33,17.01L10.68,17.01C10.13,17.01,10.13,18,10.68,18Z"/></svg>