<svg xmlns="http://www.w3.org/2000/svg" viewBox="0 0 24 24" fill="currentColor"><path d="M11.5,11.2C11.5,13.85,12.3,14.5,15.25,14.5L18.38,14.5L18.38,16L15.25,16C11.3,16,10,14.85,10,11.2L10,9.9C10,9.47,10.28,9.25,10.75,9.25C11.22,9.25,11.5,9.48,11.5,9.9ZM18.38,12.18L21.43,14.58C22.05,15.08,22.05,15.42,21.43,15.93L18.36,18.33C17.83,18.75,17.51,18.57,17.51,17.9L17.51,12.6C17.51,11.9,17.83,11.75,18.38,12.17ZM4,17.5L4,8.5C4,6.65,5.15,5.5,7,5.5L16,5.5C17.85,5.5,19,6.65,19,8.5L19,9.3C19,9.75,18.75,10,18.3,10L18.21,10C17.75,10,17.51,9.75,17.51,9.3L17.51,8.8C17.51,7.3,17.21,7,15.71,7L7.31,7C5.81,7,5.51,7.3,5.51,8.8L5.51,17.2C5.51,18.7,5.81,19,7.31,19L13.81,19C14.26,19,14.51,19.25,14.51,19.7L14.51,19.79C14.51,20.25,14.26,20.49,13.81,20.49L7.01,20.49C5.16,20.49,4.01,19.34,4.01,17.49Z"/></svg>