<svg xmlns="http://www.w3.org/2000/svg" viewBox="0 0 24 24" fill="currentColor"><path d="M9.22,20.5C9.05,20.5,8.89,20.5,8.73,20.48L20.48,8.73C20.49,8.89,20.5,9.05,20.5,9.22L20.5,16.77C20.5,19.53,19.52,20.5,16.77,20.5ZM21.55,5.52L20.11,6.96L6.96,20.11L5.57,21.5L5.55,21.52C5.23,21.84,4.88,21.84,4.55,21.52L4.48,21.45C4.16,21.12,4.16,20.77,4.48,20.45L5.89,19.04C5.62,18.48,5.5,17.73,5.5,16.77L5.5,9.22C5.5,6.47,6.47,5.49,9.23,5.49L16.78,5.49C17.74,5.49,18.48,5.61,19.04,5.88L20.48,4.44C20.81,4.12,21.16,4.12,21.48,4.44L21.56,4.52C21.87,4.83,21.88,5.18,21.58,5.49C21.57,5.5,21.56,5.51,21.56,5.52Z"/></svg>