<svg xmlns="http://www.w3.org/2000/svg" viewBox="0 0 24 24"><path d="M6.96,22C3.29,22,1.99,20.7,1.99,17.03L1.99,6.96C1.99,3.29,3.29,1.99,6.96,1.99L17.03,1.99C20.7,1.99,22,3.29,22,6.96L22,17.03C22,20.7,20.7,22,17.03,22Z" fill="currentColor"/><path d="M4,17.5C4,19.33,4.67,20,6.5,20L17.53,20C19.36,20,20,19.33,20,17.5L20,6.47C20,4.64,19.37,4,17.53,4L6.5,4C4.67,4,4,4.63,4,6.47Z" fill="currentColor"/><path d="M10.63,12.16C10.63,12.89,10.9,13.16,11.6,13.16L12.03,13.16C15.3,13.16,16.6,11.43,16.6,9.49C16.6,5.76,11.83,4.46,8.17,7.26C7.64,7.73,7.6,8.09,8,8.66L8.1,8.76C8.53,9.33,8.9,9.39,9.43,8.93C11.5,7.5,14.6,7.43,14.6,9.56C14.6,10.76,13.6,11.16,12.03,11.16L11.63,11.16C10.9,11.16,10.63,11.43,10.63,12.13Z" fill="currentColor"/><path d="M13.3,16.47C13.3,15.64,12.8,15.14,11.97,15.14C11.14,15.14,10.64,15.64,10.64,16.47C10.64,17.3,11.14,17.8,11.97,17.8C12.8,17.8,13.3,17.3,13.3,16.47Z" fill="currentColor"/></svg>