<svg xmlns="http://www.w3.org/2000/svg" viewBox="0 0 24 24" fill="currentColor"><path d="M9.22,20.5C6.47,20.5,5.49,19.52,5.49,16.77L5.49,9.22C5.49,6.47,6.47,5.49,9.22,5.49L16.77,5.49C19.53,5.49,20.5,6.47,20.5,9.22L20.5,16.77C20.5,19.53,19.52,20.5,16.77,20.5ZM7,17.13C7,18.5,7.5,19,8.88,19L17.15,19C18.52,19,19,18.5,19,17.13L19,8.85C19,7.48,18.53,7,17.15,7L8.88,7C7.5,7,7,7.47,7,8.85ZM12.55,16.85C12.23,17.17,11.88,17.17,11.55,16.85L8.46,13.75C7.91,13.2,7.91,12.8,8.46,12.25L11.55,9.15C11.88,8.83,12.23,8.83,12.55,9.15L12.63,9.23C12.95,9.55,12.95,9.9,12.63,10.23L9.8,13L12.6,15.78C12.92,16.1,12.92,16.45,12.6,16.77ZM17.5,12.95L17.5,13.04C17.5,13.5,17.33,13.74,17,13.74L9.77,13.74L9.77,12.24L17,12.24C17.32,12.24,17.5,12.49,17.5,12.94Z"/></svg>