<svg xmlns="http://www.w3.org/2000/svg" viewBox="0 0 24 24"><path d="M4.66,22C2.66,22,1.99,21.33,1.99,19.33L1.99,8.66C1.99,6.66,2.66,5.99,4.66,5.99L13.04,5.99L8.79,10.26C6.98,12.07,6.96,13.46,8.72,15.26C8.74,15.28,8.76,15.3,8.79,15.33L8.66,15.2C8.68,15.22,8.7,15.25,8.73,15.27C10.53,17.04,11.92,17.01,13.73,15.2L18,10.95L18,19.33C18,21.33,17.33,22,15.33,22Z" fill="currentColor"/><path d="M12.23,13.9C11.5,14.63,10.96,14.63,10.23,13.9L10.1,13.77C9.37,13.04,9.37,12.5,10.1,11.77L17.3,4.57L15.33,2.6C14.86,2.17,14.96,2,15.63,2L21.4,2C21.83,2,22,2.17,22,2.6L22,8.43C22,9.06,21.83,9.1,21.33,8.63L19.43,6.7Z" fill="currentColor"/></svg>