<svg xmlns="http://www.w3.org/2000/svg" viewBox="0 0 24 24"><path d="M2,6.96C2,3.29,3.3,1.99,6.97,1.99L17.04,1.99C20.71,1.99,22.01,3.29,22.01,6.96L22.01,17.03C22.01,20.7,20.71,22,17.04,22L6.97,22C3.3,22,2,20.7,2,17.03Z" fill="currentColor"/><path d="M6.5,4C4.67,4,4,4.63,4,6.47L4,17.5C4,19.33,4.67,20,6.5,20L17.53,20C19.36,20,20,19.33,20,17.5L20,6.47C20,4.64,19.37,4,17.53,4Z" fill="currentColor"/><path d="M11.33,15.9L6.56,11.13C6.13,10.7,6.13,10.23,6.56,9.8L6.63,9.73C7.06,9.3,7.53,9.3,7.96,9.73L11.96,13.73L15.99,9.7C16.42,9.27,16.89,9.27,17.32,9.7L17.42,9.8C17.85,10.23,17.85,10.7,17.42,11.13L12.65,15.9C12.22,16.33,11.75,16.33,11.32,15.9Z" fill="currentColor"/></svg>