<svg xmlns="http://www.w3.org/2000/svg" viewBox="0 0 24 24" fill="currentColor"><path d="M20.5,18.5C20.5,20,20,20.51,18.5,20.51L10.49,20.51C8.99,20.51,8.49,20,8.49,18.5L8.49,12.22L11.69,15.41C13.05,16.76,14.09,16.78,15.44,15.46C15.46,15.44,15.47,15.43,15.5,15.41L15.4,15.5C15.41,15.49,15.44,15.47,15.45,15.45C16.78,14.1,16.76,13.06,15.4,11.7L12.21,8.5L18.5,8.5C20,8.5,20.5,9,20.5,10.5ZM14.42,12.83C14.97,13.38,14.97,13.78,14.42,14.33L14.33,14.42C13.78,14.97,13.38,14.97,12.83,14.42L7.43,9.02L5.95,10.5C5.63,10.86,5.5,10.78,5.5,10.28L5.5,5.95C5.5,5.63,5.63,5.5,5.95,5.5L10.32,5.5C10.79,5.5,10.82,5.63,10.47,6L9.02,7.43Z"/></svg>