<svg xmlns="http://www.w3.org/2000/svg" viewBox="0 0 24 24" fill="currentColor"><path d="M7,14L7,5.99C7,4.49,7.5,3.99,9,3.99L17,3.99C18.5,3.99,19.01,4.49,19.01,5.99L19.01,14C19.01,15.5,18.5,16,17,16L15.63,16L15.63,10.7C15.63,8.79,14.9,8.04,13.02,8.02C13,8.02,12.98,8.02,12.96,8.02L13.09,8.02C13.07,8.02,13.04,8.02,13.03,8.02C11.13,8.04,10.39,8.79,10.39,10.7L10.39,16L9.02,16C7.52,16,7.01,15.5,7.01,14ZM11.88,10.6C11.88,9.83,12.18,9.53,12.95,9.53L13.04,9.53C13.82,9.53,14.12,9.83,14.12,10.6L14.12,17.5L16.16,17.48C16.67,17.48,16.74,17.63,16.44,17.98L13.27,21.78C13.07,22.01,12.92,22.01,12.72,21.78L9.57,18.01C9.25,17.63,9.29,17.48,9.77,17.48L11.88,17.51Z"/></svg>