<svg xmlns="http://www.w3.org/2000/svg" viewBox="0 0 24 24" fill="currentColor"><path d="M14.83,14.5C14.06,14.5,13.76,14.2,13.76,13.43L13.76,6.58C13.76,5.81,14.06,5.51,14.83,5.51L20.93,5.51C21.7,5.51,22,5.81,22,6.58L22,13.43C22,14.2,21.7,14.5,20.93,14.5ZM5.08,20.5C4.31,20.5,4.01,20.2,4.01,19.43L4.01,12.58C4.01,11.81,4.31,11.51,5.08,11.51L11.18,11.51C11.95,11.51,12.25,11.81,12.25,12.58L12.25,19.43C12.25,20.2,11.95,20.5,11.18,20.5ZM20.1,16.55L18.13,19.47C17.96,19.75,17.81,19.75,17.63,19.47L15.63,16.52C15.35,16.13,15.45,15.98,15.95,15.98L19.85,15.98C20.32,15.98,20.39,16.13,20.09,16.55ZM10.05,10.02L6.15,10.02C5.68,10.02,5.61,9.87,5.91,9.45L7.88,6.52C8.05,6.24,8.2,6.24,8.38,6.52L10.38,9.47C10.66,9.86,10.55,10.02,10.06,10.02Z"/></svg>