<svg xmlns="http://www.w3.org/2000/svg" viewBox="0 0 24 24" fill="currentColor"><path d="M20.5,16.78C20.5,19.53,19.52,20.51,16.77,20.51L9.22,20.51C6.47,20.51,5.49,19.53,5.49,16.78L5.49,9.23C5.49,6.47,6.47,5.5,9.22,5.5L16.77,5.5C19.53,5.5,20.5,6.47,20.5,9.23ZM9.87,13.75C9.25,13.75,9.12,14.03,9.52,14.52L12.29,17.8C12.8,18.4,13.19,18.4,13.7,17.8L16.47,14.52C16.87,14.02,16.75,13.75,16.12,13.75L14.12,13.75L14.12,8.82C14.12,8.05,13.82,7.75,13.05,7.75L12.95,7.75C12.18,7.75,11.88,8.05,11.88,8.82L11.88,13.75Z"/></svg>