<svg xmlns="http://www.w3.org/2000/svg" viewBox="0 0 24 24"><path d="M9,18C6.77,18,6,17.23,6,15L6,9C6,6.77,6.77,6,9,6L15,6C17.23,6,18,6.77,18,9L18,15C18,17.23,17.23,18,15,18Z" fill="currentColor"/><path d="M2,8L2,4.67C2,2.67,2.67,2,4.67,2L8,2L8,4L4.67,4C4,4,4,4,4,4.67L4,8Z" fill="currentColor"/><path d="M16,2L19.33,2C21.33,2,22,2.67,22,4.67L22,8L20,8L20,4.67C20,4,20,4,19.33,4L16,4Z" fill="currentColor"/><path d="M4,16L4,19.33C4,20,4,20,4.67,20L7.97,20L7.97,22L4.67,22C2.67,22,2,21.33,2,19.33L2,16Z" fill="currentColor"/><path d="M22,16L22,19.33C22,21.33,21.33,22,19.33,22L15.96,22L15.96,20L19.33,20C20,20,20,20,20,19.33L20,16Z" fill="currentColor"/></svg>