<svg xmlns="http://www.w3.org/2000/svg" viewBox="0 0 24 24" fill="currentColor"><path d="M17,22L8.99,22C7.49,22,6.99,21.5,6.99,20L6.99,11.99C6.99,10.49,7.49,9.99,8.99,9.99L10.37,9.99L10.37,15.27C10.37,17.19,11.1,17.95,13.01,17.96C13.03,17.96,13.05,17.96,13.07,17.96L12.94,17.96C12.96,17.96,12.98,17.96,13,17.96C14.88,17.95,15.61,17.19,15.61,15.27L15.61,9.99L16.98,9.99C18.48,9.99,18.98,10.49,18.98,11.99L18.98,20C18.98,21.5,18.48,22,16.98,22ZM13.05,16.47L12.96,16.47C12.18,16.47,11.88,16.17,11.88,15.4L11.88,8.5L9.78,8.52C9.31,8.52,9.26,8.37,9.58,8L12.73,4.22C12.93,4,13.08,4,13.28,4.22L16.45,8.03C16.75,8.38,16.68,8.53,16.17,8.53L14.13,8.51L14.13,15.41C14.13,16.18,13.83,16.48,13.05,16.48Z"/></svg>