<svg xmlns="http://www.w3.org/2000/svg" viewBox="0 0 24 24" fill="currentColor"><path d="M16.78,5.5C19.53,5.5,20.51,6.47,20.51,9.23L20.51,16.78C20.51,19.53,19.53,20.51,16.78,20.51L9.23,20.51C6.47,20.51,5.5,19.53,5.5,16.78L5.5,9.23C5.5,6.47,6.47,5.5,9.23,5.5ZM19,8.85C19,7.48,18.53,7,17.15,7L8.88,7C7.5,7,7,7.47,7,8.85L7,17.13C7,18.5,7.5,19,8.88,19L17.15,19C18.52,19,19,18.5,19,17.13ZM10.75,15.75L10.75,10.26C10.75,9.63,11.05,9.45,11.57,9.81L15.4,12.41C16.05,12.84,16.05,13.18,15.4,13.61L11.57,16.21C11.05,16.56,10.75,16.38,10.75,15.76Z"/></svg>