<svg xmlns="http://www.w3.org/2000/svg" viewBox="0 0 24 24" fill="currentColor"><path d="M5.5,9.22C5.5,6.47,6.47,5.49,9.23,5.49L16.78,5.49C19.53,5.49,20.51,6.47,20.51,9.22L20.51,16.77C20.51,19.53,19.53,20.5,16.78,20.5L9.23,20.5C6.47,20.5,5.5,19.52,5.5,16.77ZM8.88,7C7.5,7,7,7.47,7,8.85L7,17.13C7,18.5,7.5,19,8.88,19L17.15,19C18.52,19,19,18.5,19,17.13L19,8.85C19,7.48,18.53,7,17.15,7ZM12.5,15.92L8.92,12.35C8.6,12.02,8.6,11.67,8.92,11.35L8.97,11.3C9.29,10.97,9.65,10.97,9.97,11.3L12.97,14.3L15.99,11.27C16.32,10.95,16.67,10.95,16.99,11.27L17.07,11.35C17.39,11.67,17.39,12.02,17.07,12.35L13.49,15.92C13.17,16.25,12.81,16.25,12.49,15.92Z"/></svg>