<svg xmlns="http://www.w3.org/2000/svg" viewBox="0 0 24 24" fill="currentColor"><path d="M9.22,20.5C6.47,20.5,5.49,19.52,5.49,16.77L5.49,9.22C5.49,6.47,6.47,5.49,9.22,5.49L16.77,5.49C19.53,5.49,20.5,6.47,20.5,9.22L20.5,16.77C20.5,19.53,19.52,20.5,16.77,20.5ZM7,17.13C7,18.5,7.5,19,8.88,19L17.15,19C18.52,19,19,18.5,19,17.13L19,8.85C19,7.48,18.53,7,17.15,7L8.88,7C7.5,7,7,7.47,7,8.85ZM15.92,13.5L12.35,17.08C12.02,17.4,11.67,17.4,11.35,17.08L11.3,17.03C10.97,16.71,10.97,16.35,11.3,16.03L14.3,13.03L11.27,10.01C10.95,9.68,10.95,9.33,11.27,9.01L11.35,8.93C11.67,8.61,12.02,8.61,12.35,8.93L15.92,12.51C16.25,12.83,16.25,13.19,15.92,13.51Z"/></svg>