<svg xmlns="http://www.w3.org/2000/svg" viewBox="0 0 24 24"><path d="M12.66,14C10.66,14,9.99,13.33,9.99,11.33L9.99,4.66C9.99,2.66,10.66,1.99,12.66,1.99L19.33,1.99C21.33,1.99,22,2.66,22,4.66L22,11.33C22,13.33,21.33,14,19.33,14Z" fill="currentColor"/><path d="M11,22L4.67,22C2.67,22,2,21.33,2,19.33L2,13C2,11.13,2.53,10.3,4,10.07L4,15.34C4,18.84,5.17,20.01,8.67,20.01L13.94,20.01C13.71,21.48,12.87,22.01,11.01,22.01Z" fill="currentColor"/><path d="M15,18L8.67,18C6.67,18,6,17.33,6,15.33L6,9C6,7.13,6.53,6.3,8,6.07L8,11.34C8,14.84,9.17,16.01,12.67,16.01L17.94,16.01C17.71,17.48,16.87,18.01,15.01,18.01Z" fill="currentColor"/></svg>