<svg xmlns="http://www.w3.org/2000/svg" viewBox="0 0 24 24"><path d="M13.27,12.83C13.1,12.4,12.84,11.96,12.47,11.6C12.1,11.23,11.6,10.93,11.14,10.73L15.27,5.73C16.97,3.7,18.34,3.76,19.3,4.7C20.27,5.67,20.27,7,18.27,8.7Z" fill="currentColor"/><path d="M5.64,18C7.21,16.43,5.21,14.67,6.94,12.97C8.27,11.6,9.97,11.9,10.97,12.94C13.34,15.31,10.77,19.91,4.67,18.97Z" fill="currentColor"/><path d="M2,17.04C2,20.71,3.3,22.01,6.97,22.01L17.04,22.01C20.71,22.01,22.01,20.71,22.01,17.04L22.01,6.97C22.01,3.3,20.71,2,17.04,2L6.97,2C3.3,2,2,3.3,2,6.97Z" fill="currentColor"/></svg>