<svg xmlns="http://www.w3.org/2000/svg" viewBox="0 0 24 24"><path d="M6.96,22C3.29,22,1.99,20.7,1.99,17.03L1.99,6.96C1.99,3.29,3.29,1.99,6.96,1.99L17.03,1.99C20.7,1.99,22,3.29,22,6.96L22,17.03C22,20.7,20.7,22,17.03,22Z" fill="currentColor"/><path d="M12,18L12.13,18.13C12.86,18.86,13.4,18.86,14.13,18.13L18.36,13.9C19.79,12.47,19.79,11.53,18.36,10.1L14.13,5.87C13.4,5.14,12.86,5.14,12.13,5.87L12,6C11.27,6.73,11.3,7.27,12.03,8L14.53,10.5L6,10.5C5.27,10.5,5,10.9,5,11.93L5,12.06C5,13.09,5.27,13.49,6,13.49L14.53,13.49L12.03,15.99C11.3,16.72,11.26,17.26,12,17.99Z" fill="currentColor"/></svg>