<svg xmlns="http://www.w3.org/2000/svg" viewBox="0 0 24 24" fill="currentColor"><path d="M9.22,20.5C6.47,20.5,5.49,19.52,5.49,16.77L5.49,9.22C5.49,6.47,6.47,5.49,9.22,5.49L16.77,5.49C19.53,5.49,20.5,6.47,20.5,9.22L20.5,16.77C20.5,19.53,19.52,20.5,16.77,20.5ZM12.95,14.22C16.32,14.22,17.13,12.32,17.13,11.05C17.13,8.8,15.25,7.62,13.25,7.62C11.52,7.62,10.22,8.57,9.55,9.2C9.2,9.59,9.17,9.89,9.5,10.3L9.97,10.88C10.32,11.3,10.59,11.3,10.95,10.93C11.45,10.48,12.32,9.88,13.32,9.88C14.07,9.88,14.88,10.16,14.88,11.08C14.88,11.88,14.22,11.98,12.95,11.98L12.65,11.98C12.1,11.98,11.9,12.18,11.9,12.71L11.9,13.48C11.9,14.03,12.1,14.23,12.63,14.23ZM14.37,16.75C14.37,15.9,13.85,15.38,13,15.38C12.15,15.38,11.63,15.9,11.63,16.75C11.63,17.6,12.15,18.12,13,18.12C13.85,18.12,14.37,17.6,14.37,16.75Z"/></svg>