<svg xmlns="http://www.w3.org/2000/svg" viewBox="0 0 24 24"><path d="M22,17.04C22,20.71,20.7,22.01,17.03,22.01L6.96,22.01C3.29,22.01,1.99,20.71,1.99,17.04L1.99,6.97C1.99,3.3,3.29,2,6.96,2L17.03,2C20.7,2,22,3.3,22,6.97Z" fill="currentColor"/><path d="M17.53,20C19.36,20,20,19.33,20,17.5L20,6.47C20,4.64,19.37,4,17.53,4L6.5,4C4.67,4,4,4.63,4,6.47L4,17.5C4,19.33,4.67,20,6.5,20Z" fill="currentColor"/><path d="M8.33,9L15.66,9C16.49,9,16.73,9.4,16.26,10.1L12.79,15.2C12.22,16.07,11.76,16.07,11.19,15.2L7.72,10.1C7.25,9.4,7.49,9,8.32,9Z" fill="currentColor"/></svg>