<svg xmlns="http://www.w3.org/2000/svg" viewBox="0 0 24 24" fill="currentColor"><path d="M16.77,20.5L9.22,20.5C6.47,20.5,5.49,19.52,5.49,16.77L5.49,9.22C5.49,6.47,6.47,5.49,9.22,5.49L16.05,5.49C16.5,5.49,16.74,5.74,16.74,6.19L16.74,6.29C16.74,6.74,16.5,6.99,16.05,6.99L8.87,6.99C7.5,6.99,6.99,7.46,6.99,8.84L6.99,17.11C6.99,18.48,7.5,18.98,8.87,18.98L17.14,18.98C18.51,18.98,18.99,18.48,18.99,17.11L18.99,13.68C18.99,13.23,19.24,12.98,19.69,12.98L19.79,12.98C20.24,12.98,20.48,13.23,20.48,13.68L20.48,16.76C20.48,19.51,19.51,20.48,16.76,20.48ZM20.8,8.55L12.53,16.83C11.98,17.37,11.57,17.35,11.03,16.8L8.8,14.58C8.25,14.03,8.27,13.6,8.82,13.05L8.87,12.98C9.42,12.43,9.85,12.43,10.4,12.98L11.77,14.35L19.2,6.95C19.74,6.4,20.15,6.4,20.7,6.95L20.79,7.05C21.34,7.59,21.34,8,20.79,8.55Z"/></svg>