<svg xmlns="http://www.w3.org/2000/svg" viewBox="0 0 24 24"><path d="M14.44,14C13.41,14,13.01,13.6,13.01,12.57L13.01,3.44C13.01,2.41,13.41,2.01,14.44,2.01L22.57,2.01C23.6,2.01,24,2.41,24,3.44L24,12.57C24,13.6,23.6,14,22.57,14Z" fill="currentColor"/><path d="M1.44,22C0.41,22,0.01,21.6,0.01,20.57L0.01,11.44C0.01,10.41,0.41,10.01,1.44,10.01L9.57,10.01C10.6,10.01,11,10.41,11,11.44L11,20.57C11,21.6,10.6,22,9.57,22Z" fill="currentColor"/><path d="M21.47,16.73L18.84,20.63C18.61,21,18.41,21,18.17,20.63L15.5,16.7C15.13,16.17,15.27,15.97,15.93,15.97L21.13,15.97C21.76,15.97,21.86,16.17,21.46,16.74Z" fill="currentColor"/><path d="M8.07,8.03L2.87,8.03C2.24,8.03,2.14,7.83,2.54,7.26L5.17,3.36C5.4,2.99,5.6,2.99,5.84,3.36L8.51,7.29C8.88,7.82,8.74,8.02,8.08,8.02Z" fill="currentColor"/></svg>