<svg xmlns="http://www.w3.org/2000/svg" viewBox="0 0 24 24"><path d="M6.96,22C3.29,22,1.99,20.7,1.99,17.03L1.99,6.96C1.99,3.29,3.29,1.99,6.96,1.99L17.03,1.99C20.7,1.99,22,3.29,22,6.96L22,17.03C22,20.7,20.7,22,17.03,22Z" fill="currentColor"/><path d="M4,17.5C4,19.33,4.67,20,6.5,20L17.53,20C19.36,20,20,19.33,20,17.5L20,6.47C20,4.64,19.37,4,17.53,4L6.5,4C4.67,4,4,4.63,4,6.47Z" fill="currentColor"/><path d="M7,9.74C7,9.14,7.33,8.81,7.93,8.81L8.06,8.84C8.66,8.84,8.99,9.17,8.99,9.77L8.96,15.04L14.26,14.97C14.86,14.97,15.19,15.3,15.19,15.9L15.19,16.07C15.19,16.67,14.86,17,14.26,17L8.43,17C7.4,17,7,16.6,7,15.57Z" fill="currentColor"/><path d="M15.07,7.53C15.37,7.23,15.77,7.3,16.2,7.73L16.27,7.8C16.7,8.23,16.77,8.63,16.47,8.93L9.67,15.76L8.27,14.33Z" fill="currentColor"/></svg>