<svg xmlns="http://www.w3.org/2000/svg" viewBox="0 0 24 24"><path d="M4,6.47L4,17.5C4,19.33,4.67,20,6.5,20L16,20C16,20.73,16,21.4,16,22L6.97,22C3.3,22,2,20.7,2,17.03L2,6.96C2,3.29,3.3,1.99,6.97,1.99L17.04,1.99C19.86,1.99,21.28,2.76,21.78,4.78C20.94,4.33,19.98,4.08,18.99,4.09C18.87,4.09,18.75,4.09,18.64,4.1C18.34,4.02,17.97,3.99,17.54,3.99L6.51,3.99C4.68,3.99,4.01,4.62,4.01,6.46Z" fill="currentColor"/><path d="M23,22L18,22L18,13.67L20,13.7L20,20L23,20Z" fill="currentColor"/><path d="M19,14.04C16.8,14.04,15,12.24,15,10.07C15,7.9,16.8,6.1,19,6.1C21.2,6.07,23,7.87,23,10.07C23,12.27,21.2,14.07,19,14.04Z" fill="currentColor"/><path d="M19,8.1C17.9,8.1,17,9.03,17,10.13C17,11.2,17.9,12.06,19,12.1C20.1,12.1,21,11.27,21,10.13C21,8.96,20.1,8.1,19,8.1Z" fill="currentColor"/></svg>