<svg xmlns="http://www.w3.org/2000/svg" viewBox="0 0 24 24"><path d="M17.03,22L6.96,22C6.73,22,6.52,22,6.31,21.98L8.29,20L17.52,20C19.35,20,19.99,19.33,19.99,17.5L19.99,8.3L21.97,6.32C21.98,6.53,21.99,6.75,21.99,6.97L21.99,17.04C21.99,20.71,20.69,22.01,17.02,22.01Z" fill="currentColor"/><path d="M4,6.47L4,17.5C4,17.87,4.03,18.2,4.09,18.48L18.49,4.08C18.22,4.03,17.9,4,17.54,4L6.51,4C4.68,4,4.01,4.63,4.01,6.47Z" fill="currentColor"/><path d="M23.4,2.03L21.48,3.95L19.92,5.51L5.52,19.91L3.95,21.48L2.1,23.33L2.07,23.36C1.64,23.79,1.17,23.79,0.74,23.36L0.64,23.26C0.21,22.83,0.21,22.36,0.64,21.93L2.52,20.05C2.16,19.3,2,18.31,2,17.03L2,6.96C2,3.29,3.3,1.99,6.97,1.99L17.04,1.99C18.32,1.99,19.31,2.15,20.06,2.51L21.98,0.59C22.41,0.16,22.88,0.16,23.31,0.59L23.41,0.69C23.83,1.11,23.84,1.57,23.44,1.99C23.43,2,23.42,2.01,23.41,2.02Z" fill="currentColor"/></svg>