<svg xmlns="http://www.w3.org/2000/svg" viewBox="0 0 24 24"><path d="M6.96,22C3.29,22,1.99,20.7,1.99,17.03L1.99,6.96C1.99,3.29,3.29,1.99,6.96,1.99L17.03,1.99C20.7,1.99,22,3.29,22,6.96L22,17.03C22,20.7,20.7,22,17.03,22Z" fill="currentColor"/><path d="M4,17.5C4,19.33,4.67,20,6.5,20L17.53,20C19.36,20,20,19.33,20,17.5L20,6.47C20,4.64,19.37,4,17.53,4L6.5,4C4.67,4,4,4.63,4,6.47Z" fill="currentColor"/><path d="M13,5.93L17.13,10.06C17.56,10.49,17.56,10.96,17.13,11.39L17.03,11.46C16.6,11.89,16.13,11.89,15.7,11.46L12,7.73L8.3,11.5C7.87,11.93,7.4,11.93,6.97,11.5L6.87,11.4C6.44,10.97,6.44,10.5,6.87,10.07L11,5.94C11.73,5.21,12.27,5.21,13,5.94Z" fill="currentColor"/><path d="M13,17.33C13,17.76,12.67,18,12.07,18L11.94,18C11.34,18,11.01,17.77,11.01,17.33L11.01,7.7L13.01,7.7Z" fill="currentColor"/></svg>