<svg xmlns="http://www.w3.org/2000/svg" viewBox="0 0 24 24"><path d="M2,6.96C2,3.29,3.3,1.99,6.97,1.99L17.04,1.99C20.71,1.99,22.01,3.29,22.01,6.96L22.01,17.03C22.01,20.7,20.71,22,17.04,22L6.97,22C3.3,22,2,20.7,2,17.03Z" fill="currentColor"/><path d="M6.5,4C4.67,4,4,4.63,4,6.47L4,17.5C4,19.33,4.67,20,6.5,20L17.53,20C19.36,20,20,19.33,20,17.5L20,6.47C20,4.64,19.37,4,17.53,4Z" fill="currentColor"/><path d="M7.84,12C7.01,12,6.84,11.63,7.37,10.97L11.07,6.6C11.74,5.8,12.27,5.8,12.94,6.6L16.64,10.97C17.17,11.64,17.01,12,16.17,12Z" fill="currentColor"/><path d="M12.07,18L11.94,18C10.91,18,10.51,17.6,10.51,16.57L10.51,10.67L13.51,10.67L13.51,16.57C13.51,17.6,13.11,18,12.08,18Z" fill="currentColor"/></svg>