<svg xmlns="http://www.w3.org/2000/svg" viewBox="0 0 24 24"><path d="M2,6.96C2,3.29,3.3,1.99,6.97,1.99L17.04,1.99C20.71,1.99,22.01,3.29,22.01,6.96L22.01,17.03C22.01,20.7,20.71,22,17.04,22L6.97,22C3.3,22,2,20.7,2,17.03Z" fill="currentColor"/><path d="M6.5,4C4.67,4,4,4.63,4,6.47L4,17.5C4,19.33,4.67,20,6.5,20L17.53,20C19.36,20,20,19.33,20,17.5L20,6.47C20,4.64,19.37,4,17.53,4Z" fill="currentColor"/><path d="M7.94,15.2C7.34,15.2,7.01,14.87,7.01,14.27L7.01,8.44C7.01,7.41,7.41,7.01,8.44,7.01L14.27,7.01C14.87,7.01,15.2,7.34,15.2,7.94L15.2,8.11C15.2,8.71,14.87,9.04,14.27,9.04L8.97,8.97L9,14.24C9,14.84,8.67,15.17,8.07,15.17Z" fill="currentColor"/><path d="M16.2,16.27C15.77,16.7,15.37,16.77,15.07,16.47L8.27,9.67L9.67,8.24L16.47,15.07C16.77,15.37,16.7,15.77,16.27,16.2Z" fill="currentColor"/></svg>