<svg xmlns="http://www.w3.org/2000/svg" viewBox="0 0 24 24"><path d="M18.37,8.1C17.93,8.03,17.47,8,17,8C15.75,8,14.56,8.25,13.48,8.71L18.27,3.94C19,3.21,19.54,3.21,20.27,3.94L20.4,4.07C21.13,4.8,21.13,5.34,20.4,6.07Z" fill="currentColor"/><path d="M0,6.97C0,3.3,1.3,2,4.97,2L14.07,2C14.67,2,15,2.33,15,2.93L15,3.06C15,3.66,14.67,3.99,14.07,3.99L4.5,3.99C2.67,3.99,2,4.62,2,6.46L2,17.49C2,19.32,2.67,19.99,4.5,19.99L8.5,19.99C8.75,20.7,9.08,21.37,9.49,21.99L4.96,21.99C1.29,21.99,-0.01,20.69,-0.01,17.02Z" fill="currentColor"/><path d="M4.43,12.07L4.5,11.97C5.23,11.24,5.8,11.24,6.53,11.97L8.36,13.8L8.71,13.45C8.25,14.54,7.99,15.74,7.99,17C7.99,17.18,8,17.37,8.01,17.55C7.8,17.46,7.59,17.3,7.36,17.07L4.39,14.1C3.66,13.37,3.69,12.8,4.42,12.07Z" fill="currentColor"/><path d="M10.03,17C10.03,13.17,13.2,10.03,17,10.03C20.83,10.03,23.97,13.16,23.97,17C23.97,20.8,20.84,23.97,17,23.97C13.2,23.97,10.03,20.8,10.03,17Z" fill="currentColor"/><path d="M17,22C17.63,22,17.97,21.67,17.97,21.07L17.97,18L21.07,18C21.67,18,22,17.67,22,17.03L22,16.93C22,16.33,21.67,16,21.03,16L17.96,16L17.96,12.97C17.96,12.34,17.63,12,17.03,12L16.93,12C16.3,12,15.96,12.33,15.96,12.93L15.96,16L12.93,16C12.33,16,12,16.33,12,16.97L12,17.07C12,17.67,12.33,18,12.97,18L15.97,18L15.97,21.03C15.97,21.66,16.3,22,16.9,22Z" fill="currentColor"/></svg>