<svg xmlns="http://www.w3.org/2000/svg" viewBox="0 0 24 24"><path d="M6.96,22C3.29,22,1.99,20.7,1.99,17.03L1.99,6.96C1.99,3.29,3.29,1.99,6.96,1.99L17.03,1.99C20.7,1.99,22,3.29,22,6.96L22,17.03C22,20.7,20.7,22,17.03,22Z" fill="currentColor"/><path d="M7.37,17.87C7.17,18.67,7.44,18.87,8.14,18.4L12.01,15.67L15.84,18.4C16.54,18.87,16.81,18.67,16.61,17.87L15.44,13.27L18.91,10.57C19.58,10.04,19.48,9.7,18.64,9.64L14.11,9.31L12.48,5.18C12.18,4.41,11.81,4.41,11.51,5.18L9.98,9.31L5.35,9.64C4.52,9.71,4.42,10.04,5.08,10.54L8.58,13.27Z" fill="currentColor"/></svg>