<svg xmlns="http://www.w3.org/2000/svg" viewBox="0 0 24 24"><path d="M22,19.34C22,21.34,21.33,22.01,19.33,22.01L8.66,22.01C6.66,22.01,5.99,21.34,5.99,19.34L5.99,10.96L10.26,15.21C12.07,17.02,13.46,17.04,15.26,15.28C15.28,15.26,15.3,15.24,15.33,15.21L15.2,15.34C15.22,15.32,15.25,15.3,15.27,15.27C17.04,13.47,17.01,12.08,15.2,10.27L10.95,6L19.33,6C21.33,6,22,6.67,22,8.67Z" fill="currentColor"/><path d="M13.9,11.77C14.63,12.5,14.63,13.04,13.9,13.77L13.77,13.9C13.04,14.63,12.5,14.63,11.77,13.9L4.57,6.7L2.6,8.67C2.17,9.14,2,9.04,2,8.37L2,2.6C2,2.17,2.17,2,2.6,2L8.43,2C9.06,2,9.1,2.17,8.63,2.67L6.7,4.57Z" fill="currentColor"/></svg>