<svg xmlns="http://www.w3.org/2000/svg" viewBox="0 0 24 24"><path d="M18,22L6,22C3.53,22,2,20.47,2,18L2,6C2,3.53,3.53,2,6,2L13.07,2C13.67,2,14,2.33,14,2.93L14,3.06C14,3.66,13.67,3.99,13.07,3.99L6.4,3.99C4.4,3.99,4,4.39,4,6.39L4,17.59C4,19.59,4.4,19.99,6.4,19.99L17.6,19.99C19.6,19.99,20,19.59,20,17.59L20,10.92C20,10.32,20.33,9.99,20.93,9.99L21.06,9.99C21.66,9.99,21.99,10.32,21.99,10.92L21.99,17.99C21.99,20.46,20.46,21.99,17.99,21.99Z" fill="currentColor"/><path d="M8.97,15.03C10.54,13.46,8.54,11.33,10.27,9.63C11.6,8.26,13.3,8.56,14.3,9.6C16.67,11.97,13.77,16.6,8,16Z" fill="currentColor"/><path d="M16.6,9.5C16.43,9.07,16.17,8.63,15.8,8.27C15.43,7.9,14.93,7.6,14.47,7.4L18.6,2.4C20.3,0.37,21.67,0.43,22.63,1.37C23.6,2.34,23.6,3.67,21.6,5.37Z" fill="currentColor"/></svg>