<svg xmlns="http://www.w3.org/2000/svg" viewBox="0 0 24 24" fill="currentColor"><path d="M9.22,20.5C6.47,20.5,5.49,19.52,5.49,16.77L5.49,9.22C5.49,6.47,6.47,5.49,9.22,5.49L16.77,5.49C19.53,5.49,20.5,6.47,20.5,9.22L20.5,16.77C20.5,19.53,19.52,20.5,16.77,20.5ZM8.88,17.22C9.42,17.77,9.83,17.77,10.38,17.22L13,14.6L15.63,17.22C16.17,17.77,16.58,17.77,17.13,17.22L17.22,17.13C17.77,16.58,17.77,16.17,17.22,15.63L14.6,13L17.22,10.38C17.77,9.83,17.77,9.42,17.22,8.88L17.13,8.78C16.58,8.23,16.17,8.23,15.63,8.78L13,11.4L10.38,8.78C9.83,8.23,9.42,8.23,8.88,8.78L8.78,8.88C8.23,9.42,8.23,9.83,8.78,10.38L11.4,13L8.78,15.63C8.23,16.17,8.23,16.58,8.78,17.13Z"/></svg>