<svg xmlns="http://www.w3.org/2000/svg" viewBox="0 0 24 24"><path d="M10.57,11.93C9.7,11.33,9.2,10.4,9.2,9.46C9.2,7.93,10.43,6.66,12,6.66C13.57,6.66,14.8,7.93,14.8,9.46C14.8,10.43,14.27,11.33,13.43,11.93L15.16,17L8.83,17Z" fill="currentColor"/><path d="M6.96,22C3.29,22,1.99,20.7,1.99,17.03L1.99,6.96C1.99,3.29,3.29,1.99,6.96,1.99L17.03,1.99C20.7,1.99,22,3.29,22,6.96L22,17.03C22,20.7,20.7,22,17.03,22Z" fill="currentColor"/><path d="M4,17.5C4,19.33,4.67,20,6.5,20L17.53,20C19.36,20,20,19.33,20,17.5L20,6.47C20,4.64,19.37,4,17.53,4L6.5,4C4.67,4,4,4.63,4,6.47Z" fill="currentColor"/></svg>