<svg xmlns="http://www.w3.org/2000/svg" viewBox="0 0 24 24"><path d="M6.96,22C3.29,22,1.99,20.7,1.99,17.03L1.99,6.96C1.99,3.29,3.29,1.99,6.96,1.99L17.03,1.99C20.7,1.99,22,3.29,22,6.96L22,17.03C22,20.7,20.7,22,17.03,22Z" fill="currentColor"/><path d="M4,17.5C4,19.33,4.67,20,6.5,20L17.53,20C19.36,20,20,19.33,20,17.5L20,6.47C20,4.64,19.37,4,17.53,4L6.5,4C4.67,4,4,4.63,4,6.47Z" fill="currentColor"/><path d="M7.87,16.14C8.34,16.61,8.84,16.64,9.27,16.21L12,13.41L14.77,16.18C15.2,16.61,15.7,16.58,16.17,16.11L16.17,16.11C16.6,15.68,16.57,15.18,16.1,14.71L13.4,12.01L16.13,9.34C16.6,8.87,16.63,8.37,16.2,7.94L16.13,7.87C15.66,7.4,15.16,7.37,14.73,7.8L12,10.6L9.23,7.83C8.8,7.4,8.3,7.43,7.83,7.9L7.83,7.9C7.4,8.33,7.43,8.83,7.9,9.3L10.6,12L7.87,14.67C7.4,15.14,7.37,15.64,7.8,16.07Z" fill="currentColor"/></svg>