<svg xmlns="http://www.w3.org/2000/svg" viewBox="0 0 24 24" fill="currentColor"><path d="M12.45,14.75C11.6,14.75,11.25,14.47,11.25,13.77L11.25,12.22C11.25,11.52,11.52,11.24,12.22,11.24L13.77,11.24C14.47,11.24,14.75,11.57,14.75,12.44L14.75,13.55C14.75,14.39,14.43,14.75,13.55,14.75ZM19.52,9L17.97,9C17.27,9,17,8.73,17,8.03L17,6.47C17,5.78,17.3,5.5,18.07,5.5L19.42,5.5C20.19,5.5,20.49,5.8,20.49,6.57L20.49,7.92C20.49,8.69,20.21,8.99,19.52,8.99ZM19.3,14.75L18.2,14.75C17.35,14.75,17,14.47,17,13.77L17,12.22C17,11.52,17.27,11.24,17.97,11.24L19.52,11.24C20.22,11.24,20.5,11.54,20.5,12.32L20.5,13.67C20.5,14.44,20.18,14.74,19.3,14.74ZM7.92,20.5L6.57,20.5C5.8,20.5,5.5,20.2,5.5,19.43L5.5,18.08C5.5,17.3,5.78,17,6.48,17L8.03,17C8.73,17,9,17.28,9,17.98L9,19.53C9,20.23,8.7,20.51,7.93,20.51ZM13.67,20.5L12.32,20.5C11.55,20.5,11.25,20.22,11.25,19.52L11.25,17.97C11.25,17.27,11.53,17,12.23,17L13.78,17C14.48,17,14.75,17.32,14.75,18.2L14.75,19.3C14.75,20.15,14.46,20.5,13.68,20.5ZM19.43,20.5L18.08,20.5C17.3,20.5,17,20.22,17,19.52L17,17.97C17,17.27,17.28,17,17.98,17L19.53,17C20.23,17,20.51,17.3,20.51,18.07L20.51,19.42C20.51,20.19,20.21,20.49,19.44,20.49Z"/></svg>