<svg xmlns="http://www.w3.org/2000/svg" viewBox="0 0 24 24" fill="currentColor"><path d="M6.53,18.47C5.13,17.75,5.13,17.2,6.53,16.47L7.33,16.06L10.5,17.7C12.28,18.62,13.73,18.62,15.51,17.7L18.66,16.07L19.48,16.5C20.88,17.23,20.88,17.75,19.48,18.47L14.91,20.85C13.5,21.58,12.51,21.58,11.1,20.85ZM6.53,13.97C5.13,13.25,5.13,12.7,6.53,11.97L7.33,11.56L10.5,13.2C12.28,14.12,13.73,14.12,15.51,13.2L18.66,11.57L19.48,12C20.88,12.73,20.88,13.25,19.48,13.97L14.91,16.35C13.5,17.08,12.51,17.08,11.1,16.35ZM11.1,11.85L6.53,9.48C5.13,8.75,5.13,8.2,6.53,7.47L11.1,5.1C12.5,4.37,13.5,4.4,14.9,5.12L19.48,7.5C20.88,8.22,20.88,8.75,19.48,9.47L14.9,11.84C13.5,12.57,12.5,12.57,11.1,11.84Z"/></svg>