<svg xmlns="http://www.w3.org/2000/svg" viewBox="0 0 24 24" fill="currentColor"><path d="M5.5,7.49C5.5,5.99,6,5.49,7.5,5.49L15.5,5.49C17,5.49,17.51,5.99,17.51,7.49L17.51,13.78L14.3,10.59C12.95,9.23,11.9,9.22,10.55,10.54C10.54,10.55,10.52,10.57,10.5,10.59L10.6,10.49C10.58,10.51,10.57,10.52,10.55,10.55C9.22,11.9,9.24,12.94,10.6,14.3L13.79,17.5L7.5,17.5C6,17.5,5.5,17,5.5,15.5ZM11.57,13.17C11.03,12.63,11.03,12.22,11.57,11.67L11.67,11.57C12.22,11.03,12.63,11.03,13.17,11.57L18.57,16.98L20.05,15.5C20.37,15.15,20.5,15.22,20.5,15.72L20.5,20.05C20.5,20.37,20.37,20.5,20.05,20.5L15.68,20.5C15.21,20.5,15.17,20.37,15.53,20L16.98,18.57Z"/></svg>