<svg xmlns="http://www.w3.org/2000/svg" viewBox="0 0 24 24"><path d="M2,4.66C2,2.66,2.67,1.99,4.67,1.99L15.34,1.99C17.34,1.99,18.01,2.66,18.01,4.66L18.01,13.04L13.74,8.79C11.93,6.98,10.54,6.96,8.74,8.72C8.72,8.74,8.7,8.76,8.67,8.79L8.8,8.66C8.78,8.68,8.76,8.7,8.73,8.73C6.96,10.53,6.98,11.92,8.8,13.73L13.05,18L4.67,18C2.67,18,2,17.33,2,15.33Z" fill="currentColor"/><path d="M10.1,12.23C9.37,11.5,9.37,10.96,10.1,10.23L10.23,10.1C10.96,9.37,11.5,9.37,12.23,10.1L19.43,17.3L21.4,15.33C21.83,14.86,22,14.96,22,15.63L22,21.4C22,21.83,21.83,22,21.4,22L15.57,22C14.94,22,14.9,21.83,15.37,21.33L17.3,19.43Z" fill="currentColor"/></svg>