<svg xmlns="http://www.w3.org/2000/svg" viewBox="0 0 24 24" fill="currentColor"><path d="M20.5,16.78C20.5,19.53,19.52,20.51,16.77,20.51L9.22,20.51C6.47,20.51,5.49,19.53,5.49,16.78L5.49,9.23C5.49,6.47,6.47,5.5,9.22,5.5L16.77,5.5C19.53,5.5,20.5,6.47,20.5,9.23ZM17.15,19C18.52,19,19,18.5,19,17.13L19,8.85C19,7.48,18.53,7,17.15,7L8.88,7C7.5,7,7,7.47,7,8.85L7,17.13C7,18.5,7.5,19,8.88,19ZM13.5,10.07L17.08,13.65C17.4,13.97,17.4,14.33,17.08,14.65L17.03,14.7C16.71,15.02,16.35,15.02,16.03,14.7L13.03,11.7L10.01,14.72C9.68,15.05,9.33,15.05,9.01,14.72L8.93,14.65C8.61,14.33,8.61,13.97,8.93,13.65L12.51,10.07C12.83,9.75,13.19,9.75,13.51,10.07Z"/></svg>