<svg xmlns="http://www.w3.org/2000/svg" viewBox="0 0 24 24" fill="currentColor"><path d="M11.99,16C10.49,16,9.99,15.5,9.99,14L9.99,7.49C9.99,5.99,10.49,5.49,11.99,5.49L18.5,5.49C20,5.49,20.5,5.99,20.5,7.49L20.5,14C20.5,15.5,20,16,18.5,16ZM14,20.5L7.49,20.5C5.99,20.5,5.49,20,5.49,18.5L5.49,11.99C5.49,10.49,5.99,9.99,7.49,9.99L8.49,9.99L8.49,13.99C8.49,16.62,9.37,17.49,11.99,17.49L15.99,17.49L15.99,18.49C15.99,19.99,15.49,20.49,13.99,20.49ZM12.1,11.37L13.95,13.23C14.3,13.58,14.61,13.58,14.95,13.23L18.53,9.65C18.88,9.29,18.88,9,18.53,8.65L18.48,8.6C18.12,8.25,17.82,8.25,17.48,8.6L14.45,11.62L13.16,10.32C12.8,9.97,12.5,9.97,12.16,10.32L12.11,10.38C11.75,10.73,11.75,11.03,12.11,11.37Z"/></svg>