<svg xmlns="http://www.w3.org/2000/svg" viewBox="0 0 24 24"><path d="M17.04,2C20.71,2,22.01,3.3,22.01,6.97L22.01,17.04C22.01,20.71,20.71,22.01,17.04,22.01L6.97,22.01C3.3,22.01,2,20.71,2,17.04L2,6.97C2,3.3,3.3,2,6.97,2Z" fill="currentColor"/><path d="M12,6L11.87,5.87C11.14,5.14,10.6,5.14,9.87,5.87L5.64,10.1C4.21,11.53,4.21,12.47,5.64,13.9L9.87,18.13C10.6,18.86,11.14,18.86,11.87,18.13L12,18C12.73,17.27,12.7,16.73,11.97,16L9.47,13.5L18,13.5C18.73,13.5,19,13.1,19,12.07L19,11.94C19,10.91,18.73,10.51,18,10.51L9.47,10.51L11.97,8.01C12.7,7.28,12.74,6.74,12,6.01Z" fill="currentColor"/></svg>