<svg xmlns="http://www.w3.org/2000/svg" viewBox="0 0 24 24"><path d="M17.04,2C20.71,2,22.01,3.3,22.01,6.97L22.01,17.04C22.01,20.71,20.71,22.01,17.04,22.01L6.97,22.01C3.3,22.01,2,20.71,2,17.04L2,6.97C2,3.3,3.3,2,6.97,2Z" fill="currentColor"/><path d="M20,6.47C20,4.64,19.37,4,17.53,4L6.5,4C4.67,4,4,4.63,4,6.47L4,17.5C4,19.33,4.67,20,6.5,20L17.53,20C19.36,20,20,19.33,20,17.5Z" fill="currentColor"/><path d="M8.1,11.33L12.87,6.56C13.3,6.13,13.77,6.13,14.2,6.56L14.27,6.63C14.7,7.06,14.7,7.53,14.27,7.96L10.27,11.96L14.3,15.99C14.73,16.42,14.73,16.89,14.3,17.32L14.2,17.42C13.77,17.85,13.3,17.85,12.87,17.42L8.1,12.65C7.67,12.22,7.67,11.75,8.1,11.32Z" fill="currentColor"/></svg>