<svg xmlns="http://www.w3.org/2000/svg" viewBox="0 0 24 24"><path d="M10.66,16C8.66,16,7.99,15.33,7.99,13.33L7.99,4.66C7.99,2.66,8.66,1.99,10.66,1.99L19.33,1.99C21.33,1.99,22,2.66,22,4.66L22,13.33C22,15.33,21.33,16,19.33,16Z" fill="currentColor"/><path d="M13.33,22L4.66,22C2.66,22,1.99,21.33,1.99,19.33L1.99,10.66C1.99,8.66,2.66,7.99,4.66,7.99L5.99,7.99L5.99,13.32C5.99,16.82,7.16,17.99,10.66,17.99L15.99,17.99L15.99,19.32C15.99,21.32,15.32,21.99,13.32,21.99Z" fill="currentColor"/><path d="M11.33,12.6C11.8,13.07,12.26,13.1,12.76,12.6L14.96,10.4L17.23,12.6C17.7,13.07,18.16,13.07,18.63,12.6C19.1,12.13,19.13,11.63,18.63,11.17L16.4,8.97L18.63,6.74C19.1,6.27,19.1,5.81,18.63,5.34C18.16,4.87,17.7,4.84,17.2,5.34L14.97,7.57L12.77,5.37C12.3,4.9,11.84,4.9,11.37,5.37C10.9,5.84,10.87,6.34,11.37,6.8L13.57,8.97L11.34,11.2C10.87,11.67,10.87,12.13,11.34,12.6Z" fill="currentColor"/></svg>