<svg xmlns="http://www.w3.org/2000/svg" viewBox="0 0 24 24"><path d="M6.96,22C3.29,22,1.99,20.7,1.99,17.03L1.99,6.96C1.99,3.29,3.29,1.99,6.96,1.99L17.03,1.99C20.7,1.99,22,3.29,22,6.96L22,17.03C22,20.7,20.7,22,17.03,22Z" fill="currentColor"/><path d="M4,17.5C4,19.33,4.67,20,6.5,20L17.53,20C19.36,20,20,19.33,20,17.5L20,6.47C20,4.64,19.37,4,17.53,4L6.5,4C4.67,4,4,4.63,4,6.47Z" fill="currentColor"/><path d="M10.97,16.03C10.97,16.66,11.3,17,11.9,17L12,17C12.63,17,12.97,16.67,12.97,16.07L12.97,13L16.07,13C16.67,13,17,12.67,17,12.03L17,11.93C17,11.33,16.67,11,16.03,11L12.96,11L12.96,7.97C12.96,7.34,12.63,7,12.03,7L11.93,7C11.3,7,10.96,7.33,10.96,7.93L10.96,11L7.93,11C7.33,11,7,11.33,7,11.97L7,12.07C7,12.67,7.33,13,7.97,13L10.97,13Z" fill="currentColor"/></svg>