<svg xmlns="http://www.w3.org/2000/svg" viewBox="0 0 24 24" fill="currentColor"><path d="M9.22,20.5C6.47,20.5,5.49,19.52,5.49,16.77L5.49,9.22C5.49,6.47,6.47,5.49,9.22,5.49L16.77,5.49C19.53,5.49,20.5,6.47,20.5,9.22L20.5,16.77C20.5,19.53,19.52,20.5,16.77,20.5ZM7,17.13C7,18.5,7.5,19,8.88,19L17.15,19C18.52,19,19,18.5,19,17.13L19,8.85C19,7.48,18.53,7,17.15,7L8.88,7C7.5,7,7,7.47,7,8.85ZM16.85,11.54C17.17,11.87,17.17,12.22,16.85,12.54L16.77,12.59C16.45,12.92,16.1,12.92,15.77,12.59L13,9.8L10.22,12.62C9.9,12.95,9.55,12.95,9.23,12.62L9.15,12.55C8.83,12.23,8.83,11.87,9.15,11.55L12.25,8.45C12.8,7.91,13.2,7.91,13.75,8.45ZM13.75,17C13.75,17.32,13.5,17.5,13.05,17.5L12.96,17.5C12.5,17.5,12.26,17.33,12.26,17L12.26,9.77L13.76,9.77Z"/></svg>