<svg xmlns="http://www.w3.org/2000/svg" viewBox="0 0 24 24"><path d="M14,16.13L14,14.4C14,10.87,12.93,10,9,10L4.83,10L4.83,8L9,8C14.27,8,16,9.53,16,14.4L16,16.13C16,16.7,15.63,17,15,17C14.37,17,14,16.7,14,16.13Z" fill="currentColor"/><path d="M4.83,13.1L0.76,9.9C-0.07,9.23,-0.07,8.77,0.76,8.1L4.86,4.9C5.56,4.33,5.99,4.57,5.99,5.47L5.99,12.54C5.99,13.47,5.56,13.67,4.82,13.11Z" fill="currentColor"/><path d="M24,6L24,18C24,20.47,22.47,22,20,22L8,22C5.53,22,4,20.47,4,18L4,16.93C4,16.33,4.33,16,4.93,16L5.06,16C5.66,16,5.99,16.33,5.99,16.93L5.99,17.6C5.99,19.6,6.39,20,8.39,20L19.59,20C21.59,20,21.99,19.6,21.99,17.6L21.99,6.4C21.99,4.4,21.59,4,19.59,4L10.92,4C10.32,4,9.99,3.67,9.99,3.07L9.99,2.94C9.99,2.34,10.32,2.01,10.92,2.01L19.99,2.01C22.46,2.01,23.99,3.54,23.99,6.01Z" fill="currentColor"/></svg>