<svg xmlns="http://www.w3.org/2000/svg" viewBox="0 0 24 24" fill="currentColor"><path d="M10.49,17.5C8.99,17.5,8.49,17,8.49,15.5L8.49,10.49C8.49,8.99,8.99,8.49,10.49,8.49L15.5,8.49C17,8.49,17.5,8.99,17.5,10.49L17.5,15.5C17.5,17,17,17.5,15.5,17.5ZM15.15,19.5L13.3,21.55C13.08,21.78,12.93,21.78,12.7,21.55L10.83,19.47C10.5,19.1,10.58,18.97,11.07,18.97L14.97,18.97C15.45,18.97,15.5,19.12,15.15,19.5ZM14.93,7.02L11.03,7.02C10.55,7.02,10.5,6.87,10.86,6.5L12.71,4.45C12.93,4.22,13.08,4.22,13.31,4.45L15.18,6.53C15.5,6.9,15.43,7.03,14.94,7.03Z"/></svg>