<svg xmlns="http://www.w3.org/2000/svg" viewBox="0 0 24 24"><path d="M5.34,22C2.84,22,2.01,21.17,2.01,18.67L2.01,5.34C2.01,2.84,2.84,2.01,5.34,2.01L18.67,2.01C21.17,2.01,22,2.84,22,5.34L22,18.67C22,21.17,21.17,22,18.67,22Z" fill="currentColor"/><path d="M8.9,16.33L15.1,16.33C15.8,16.33,15.67,15.56,15.43,15.43L14.2,14.73L13.7,8.16L14.03,8.16C14.46,8.16,14.66,7.93,14.66,7.63L14.66,5.4L12.49,5.4L12.49,7.13L11.49,7.13L11.49,5.4L9.32,5.4L9.32,7.63C9.32,7.93,9.52,8.16,9.95,8.16L10.28,8.16L9.78,14.73L8.55,15.43C8.32,15.56,8.18,16.33,8.88,16.33Z" fill="currentColor"/><path d="M15.1,18.67C15.83,18.67,15.83,17.34,15.1,17.34L8.9,17.34C8.17,17.34,8.17,18.67,8.9,18.67Z" fill="currentColor"/></svg>