<svg xmlns="http://www.w3.org/2000/svg" viewBox="0 0 24 24"><path d="M6.96,22C3.29,22,1.99,20.7,1.99,17.03L1.99,6.96C1.99,3.29,3.29,1.99,6.96,1.99L17.03,1.99C20.7,1.99,22,3.29,22,6.96L22,17.03C22,20.7,20.7,22,17.03,22Z" fill="currentColor"/><path d="M10.5,17.53C10.5,18.6,10.9,19,11.93,19L12.03,19C13.1,19,13.5,18.6,13.5,17.57L13.5,13.5L17.57,13.5C18.6,13.5,19,13.1,19,12.03L19,11.93C19,10.9,18.6,10.5,17.53,10.5L13.5,10.5L13.5,6.47C13.5,5.4,13.1,5,12.07,5L11.97,5C10.9,5,10.5,5.4,10.5,6.43L10.5,10.5L6.43,10.5C5.4,10.5,5,10.9,5,11.97L5,12.07C5,13.1,5.4,13.5,6.47,13.5L10.5,13.5Z" fill="currentColor"/></svg>