<svg xmlns="http://www.w3.org/2000/svg" viewBox="0 0 24 24" fill="currentColor"><path d="M12,7L20,7C21.5,7,22.01,7.5,22.01,9L22.01,17C22.01,18.5,21.5,19.01,20,19.01L12,19.01C10.5,19.01,10,18.5,10,17L10,15.63L15.3,15.63C17.21,15.63,17.96,14.9,17.98,12.99C17.98,12.97,17.98,12.95,17.98,12.93L17.98,13.06C17.98,13.04,17.98,13.02,17.98,13C17.96,11.12,17.21,10.39,15.3,10.39L10,10.39L10,9.02C10,7.52,10.5,7.01,12,7.01ZM15.4,11.88C16.17,11.88,16.47,12.18,16.47,12.95L16.47,13.04C16.47,13.82,16.17,14.12,15.4,14.12L8.5,14.12L8.52,16.16C8.52,16.67,8.37,16.74,8.02,16.44L4.22,13.27C3.99,13.07,3.99,12.92,4.22,12.72L7.99,9.57C8.37,9.25,8.52,9.29,8.52,9.77L8.49,11.88Z"/></svg>