<svg xmlns="http://www.w3.org/2000/svg" viewBox="0 0 24 24" fill="currentColor"><path d="M16.78,5.5C19.53,5.5,20.51,6.47,20.51,9.23L20.51,16.78C20.51,19.53,19.53,20.51,16.78,20.51L9.23,20.51C6.47,20.51,5.5,19.53,5.5,16.78L5.5,9.23C5.5,6.47,6.47,5.5,9.23,5.5ZM15.08,8.42C14.53,7.88,14.13,7.88,13.58,8.42L9.75,12.25C9.21,12.8,9.21,13.2,9.75,13.75L13.58,17.58C14.13,18.12,14.53,18.12,15.08,17.58L15.17,17.48C15.72,16.93,15.72,16.53,15.17,15.98L12.2,13L15.17,10.02C15.72,9.48,15.72,9.07,15.17,8.52Z"/></svg>