<svg xmlns="http://www.w3.org/2000/svg" viewBox="0 0 24 24"><path d="M6.96,22C3.29,22,1.99,20.7,1.99,17.03L1.99,6.96C1.99,3.29,3.29,1.99,6.96,1.99L17.03,1.99C20.7,1.99,22,3.29,22,6.96L22,17.03C22,20.7,20.7,22,17.03,22Z" fill="currentColor"/><path d="M4,17.5C4,19.33,4.67,20,6.5,20L17.53,20C19.36,20,20,19.33,20,17.5L20,6.47C20,4.64,19.37,4,17.53,4L6.5,4C4.67,4,4,4.63,4,6.47Z" fill="currentColor"/><path d="M12,16.16C12,16.99,11.63,17.16,10.97,16.63L6.6,12.93C5.8,12.26,5.8,11.73,6.6,11.06L10.97,7.36C11.64,6.83,12,6.99,12,7.83Z" fill="currentColor"/><path d="M18,11.93L18,12.06C18,13.09,17.6,13.49,16.57,13.49L10.67,13.49L10.67,10.49L16.57,10.49C17.6,10.49,18,10.89,18,11.92Z" fill="currentColor"/></svg>