<svg xmlns="http://www.w3.org/2000/svg" viewBox="0 0 24 24"><path d="M10.66,16C8.66,16,7.99,15.33,7.99,13.33L7.99,4.66C7.99,2.66,8.66,1.99,10.66,1.99L19.33,1.99C21.33,1.99,22,2.66,22,4.66L22,13.33C22,15.33,21.33,16,19.33,16Z" fill="currentColor"/><path d="M13.33,22L4.66,22C2.66,22,1.99,21.33,1.99,19.33L1.99,10.66C1.99,8.66,2.66,7.99,4.66,7.99L5.99,7.99L5.99,13.32C5.99,16.82,7.16,17.99,10.66,17.99L15.99,17.99L15.99,19.32C15.99,21.32,15.32,21.99,13.32,21.99Z" fill="currentColor"/><path d="M14,12.67C14,13.37,14.27,13.64,14.93,13.64L15.03,13.64C15.73,13.64,16,13.37,16,12.71L16,10.01L18.7,10.01C19.37,10.01,19.63,9.74,19.63,9.04L19.63,8.94C19.63,8.27,19.36,8.01,18.66,8.01L15.99,8.01L15.99,5.34C15.99,4.64,15.72,4.37,15.06,4.37L14.96,4.37C14.26,4.37,13.99,4.64,13.99,5.3L13.99,8L11.29,8C10.62,8,10.36,8.27,10.36,8.97L10.36,9.07C10.36,9.74,10.63,10,11.33,10L14,10Z" fill="currentColor"/></svg>