<svg xmlns="http://www.w3.org/2000/svg" viewBox="0 0 24 24" fill="currentColor"><path d="M9.22,20.5C6.47,20.5,5.49,19.52,5.49,16.77L5.49,9.22C5.49,6.47,6.47,5.49,9.22,5.49L16.77,5.49C19.53,5.49,20.5,6.47,20.5,9.22L20.5,16.77C20.5,19.53,19.52,20.5,16.77,20.5ZM7,17.13C7,18.5,7.5,19,8.88,19L17.15,19C18.52,19,19,18.5,19,17.13L19,8.85C19,7.48,18.53,7,17.15,7L8.88,7C7.5,7,7,7.47,7,8.85ZM9.3,13.65L11.38,15.73C11.7,16.05,12.05,16.05,12.38,15.73L16.75,11.3C17.07,10.98,17.07,10.63,16.75,10.33L16.67,10.25C16.35,9.93,16,9.93,15.7,10.25L11.87,14.1L10.32,12.58C10,12.26,9.65,12.26,9.35,12.58L9.27,12.65C8.97,12.98,8.97,13.33,9.29,13.65Z"/></svg>