<svg xmlns="http://www.w3.org/2000/svg" viewBox="0 0 24 24"><path d="M6,8.66C6,6.66,6.67,5.99,8.67,5.99L15.34,5.99C17.34,5.99,18.01,6.66,18.01,8.66L18.01,15.33C18.01,17.33,17.34,18,15.34,18L8.67,18C6.67,18,6,17.33,6,15.33Z" fill="currentColor"/><path d="M3.33,14.87L0.6,12.4C0.3,12.1,0.3,11.9,0.6,11.6L3.37,9.1C3.87,8.67,4.04,8.77,4.04,9.43L4.04,14.63C4.04,15.26,3.84,15.33,3.34,14.86Z" fill="currentColor"/><path d="M19.97,14.57L19.97,9.37C19.97,8.74,20.17,8.67,20.67,9.14L23.4,11.61C23.7,11.91,23.7,12.11,23.4,12.41L20.63,14.91C20.13,15.34,19.96,15.24,19.96,14.58Z" fill="currentColor"/></svg>