<svg xmlns="http://www.w3.org/2000/svg" viewBox="0 0 24 24" fill="currentColor"><path d="M9.22,20.5C6.47,20.5,5.49,19.52,5.49,16.77L5.49,9.22C5.49,6.47,6.47,5.49,9.22,5.49L16.77,5.49C19.53,5.49,20.5,6.47,20.5,9.22L20.5,16.77C20.5,19.53,19.52,20.5,16.77,20.5ZM13,17.5L13.1,17.6C13.64,18.14,14.05,18.14,14.6,17.6L17.77,14.42C18.84,13.35,18.84,12.65,17.77,11.57L14.6,8.4C14.05,7.85,13.64,7.85,13.1,8.4L13,8.5C12.45,9.05,12.47,9.45,13.02,10L14.9,11.87L8.5,11.87C7.95,11.87,7.75,12.17,7.75,12.95L7.75,13.04C7.75,13.82,7.95,14.12,8.5,14.12L14.9,14.12L13.02,15.99C12.47,16.54,12.44,16.95,13,17.49Z"/></svg>