<svg xmlns="http://www.w3.org/2000/svg" viewBox="0 0 24 24"><path d="M6.96,22C3.29,22,1.99,20.7,1.99,17.03L1.99,6.96C1.99,3.29,3.29,1.99,6.96,1.99L17.03,1.99C20.7,1.99,22,3.29,22,6.96L22,17.03C22,20.7,20.7,22,17.03,22Z" fill="currentColor"/><path d="M4,17.5C4,19.33,4.67,20,6.5,20L17.53,20C19.36,20,20,19.33,20,17.5L20,6.47C20,4.64,19.37,4,17.53,4L6.5,4C4.67,4,4,4.63,4,6.47Z" fill="currentColor"/><path d="M11.47,17.03L11.4,17.13C10.97,17.56,10.5,17.56,10.07,17.13L5.94,13C5.21,12.27,5.21,11.73,5.94,11L10.07,6.87C10.5,6.44,10.97,6.44,11.4,6.87L11.5,6.97C11.93,7.4,11.93,7.87,11.5,8.3L7.73,12L11.46,15.7C11.89,16.13,11.89,16.6,11.46,17.03Z" fill="currentColor"/><path d="M18,11.93L18,12.06C18,12.66,17.77,12.99,17.33,12.99L7.7,12.99L7.7,10.99L17.33,10.99C17.76,10.99,18,11.32,18,11.92Z" fill="currentColor"/></svg>