<svg xmlns="http://www.w3.org/2000/svg" viewBox="0 0 24 24"><path d="M6.96,22C3.29,22,1.99,20.7,1.99,17.03L1.99,6.96C1.99,3.29,3.29,1.99,6.96,1.99L17.03,1.99C20.7,1.99,22,3.29,22,6.96L22,17.03C22,20.7,20.7,22,17.03,22Z" fill="currentColor"/><path d="M4,17.5C4,19.33,4.67,20,6.5,20L17.53,20C19.36,20,20,19.33,20,17.5L20,6.47C20,4.64,19.37,4,17.53,4L6.5,4C4.67,4,4,4.63,4,6.47Z" fill="currentColor"/><path d="M7,14.06C7,14.66,7.33,14.99,7.93,14.99L16.06,14.99C16.66,14.99,16.99,14.66,16.99,14.06L16.99,13.93C16.99,13.33,16.66,13,16.06,13L7.93,13C7.33,13,7,13.33,7,13.93Z" fill="currentColor"/><path d="M7,10.06C7,10.66,7.33,10.99,7.93,10.99L16.06,10.99C16.66,10.99,16.99,10.66,16.99,10.06L16.99,9.93C16.99,9.33,16.66,9,16.06,9L7.93,9C7.33,9,7,9.33,7,9.93Z" fill="currentColor"/></svg>