<svg xmlns="http://www.w3.org/2000/svg" viewBox="0 0 24 24"><path d="M6.96,22C3.29,22,1.99,20.7,1.99,17.03L1.99,6.96C1.99,3.29,3.29,1.99,6.96,1.99L17.03,1.99C20.7,1.99,22,3.29,22,6.96L22,17.03C22,20.7,20.7,22,17.03,22Z" fill="currentColor"/><path d="M4,17.5C4,19.33,4.67,20,6.5,20L17.53,20C19.36,20,20,19.33,20,17.5L20,6.47C20,4.64,19.37,4,17.53,4L6.5,4C4.67,4,4,4.63,4,6.47Z" fill="currentColor"/><path d="M7.83,17.27C7.63,18,7.9,18.17,8.5,17.74L12,15.31L15.47,17.74C16.07,18.17,16.34,18.01,16.14,17.27L15.11,13.14L18.24,10.71C18.81,10.24,18.74,9.94,17.97,9.88L13.9,9.58L12.4,5.85C12.13,5.18,11.8,5.18,11.53,5.88L10.16,9.58L5.99,9.88C5.22,9.95,5.16,10.25,5.72,10.71L8.89,13.14Z" fill="currentColor"/></svg>