<svg xmlns="http://www.w3.org/2000/svg" viewBox="0 0 24 24"><path d="M10.66,16C8.66,16,7.99,15.33,7.99,13.33L7.99,4.66C7.99,2.66,8.66,1.99,10.66,1.99L19.33,1.99C21.33,1.99,22,2.66,22,4.66L22,13.33C22,15.33,21.33,16,19.33,16Z" fill="currentColor"/><path d="M13.33,22L4.66,22C2.66,22,1.99,21.33,1.99,19.33L1.99,10.66C1.99,8.66,2.66,7.99,4.66,7.99L5.99,7.99L5.99,13.32C5.99,16.82,7.16,17.99,10.66,17.99L15.99,17.99L15.99,19.32C15.99,21.32,15.32,21.99,13.32,21.99Z" fill="currentColor"/><path d="M10.37,9.07C10.37,9.74,10.64,10,11.34,10L18.71,10C19.38,10,19.64,9.73,19.64,9.03L19.64,8.93C19.64,8.26,19.37,8,18.67,8L11.3,8C10.63,8,10.37,8.27,10.37,8.97Z" fill="currentColor"/></svg>