<svg xmlns="http://www.w3.org/2000/svg" viewBox="0 0 24 24"><path d="M6.96,22C3.29,22,1.99,20.7,1.99,17.03L1.99,6.96C1.99,3.29,3.29,1.99,6.96,1.99L17.03,1.99C20.7,1.99,22,3.29,22,6.96L22,17.03C22,20.7,20.7,22,17.03,22Z" fill="currentColor"/><path d="M4,17.5C4,19.33,4.67,20,6.5,20L17.53,20C19.36,20,20,19.33,20,17.5L20,6.47C20,4.64,19.37,4,17.53,4L6.5,4C4.67,4,4,4.63,4,6.47Z" fill="currentColor"/><path d="M6,16.83L6,18L18,18L18,16.83C18,15.63,17.63,15.1,16.53,14.63L15.56,14.26C13.86,13.56,13.63,13.46,13.63,12.99C13.63,11.62,14.76,11.62,14.76,9.22C14.76,7.32,13.89,5.89,11.96,5.89C10.09,5.89,9.23,7.32,9.23,9.22C9.23,11.62,10.33,11.62,10.33,12.99C10.33,13.46,10.1,13.59,8.36,14.26L7.46,14.63C6.36,15.06,5.99,15.63,5.99,16.83Z" fill="currentColor"/></svg>