<svg xmlns="http://www.w3.org/2000/svg" viewBox="0 0 24 24"><path d="M6.96,22C3.29,22,1.99,20.7,1.99,17.03L1.99,6.96C1.99,3.29,3.29,1.99,6.96,1.99L17.03,1.99C20.7,1.99,22,3.29,22,6.96L22,17.03C22,20.7,20.7,22,17.03,22Z" fill="currentColor"/><path d="M4,17.5C4,19.33,4.67,20,6.5,20L17.53,20C19.36,20,20,19.33,20,17.5L20,6.47C20,4.64,19.37,4,17.53,4L6.5,4C4.67,4,4,4.63,4,6.47Z" fill="currentColor"/><path d="M11,18.07L6.87,13.94C6.44,13.51,6.44,13.04,6.87,12.61L6.97,12.54C7.4,12.11,7.87,12.11,8.3,12.54L12,16.27L15.7,12.5C16.13,12.07,16.6,12.07,17.03,12.5L17.13,12.6C17.56,13.03,17.56,13.5,17.13,13.93L13,18.06C12.27,18.79,11.73,18.79,11,18.06Z" fill="currentColor"/><path d="M11,6.67C11,6.24,11.33,6,11.93,6L12.06,6C12.66,6,12.99,6.23,12.99,6.67L12.99,16.3L10.99,16.3Z" fill="currentColor"/></svg>