<svg xmlns="http://www.w3.org/2000/svg" viewBox="0 0 24 24"><path d="M8,16.13L8,14.4C8,9.53,9.73,8,15,8L19.17,8L19.17,10L15,10C11.07,10,10,10.87,10,14.4L10,16.13C10,16.7,9.63,17,9,17C8.37,17,8,16.7,8,16.13Z" fill="currentColor"/><path d="M19.13,4.9L23.23,8.1C24.06,8.77,24.06,9.23,23.23,9.9L19.16,13.1C18.43,13.67,17.99,13.47,17.99,12.53L17.99,5.46C17.99,4.56,18.42,4.33,19.12,4.89Z" fill="currentColor"/><path d="M16,22L4,22C1.53,22,0,20.47,0,18L0,6C0,3.53,1.53,2,4,2L13.07,2C13.67,2,14,2.33,14,2.93L14,3.06C14,3.66,13.67,3.99,13.07,3.99L4.4,3.99C2.4,3.99,2,4.39,2,6.39L2,17.59C2,19.59,2.4,19.99,4.4,19.99L15.6,19.99C17.6,19.99,18,19.59,18,17.59L18,16.92C18,16.32,18.33,15.99,18.93,15.99L19.06,15.99C19.66,15.99,19.99,16.32,19.99,16.92L19.99,17.99C19.99,20.46,18.46,21.99,15.99,21.99Z" fill="currentColor"/></svg>