<svg xmlns="http://www.w3.org/2000/svg" viewBox="0 0 24 24" fill="currentColor"><path d="M9.22,20.5C6.47,20.5,5.49,19.52,5.49,16.77L5.49,9.22C5.49,6.47,6.47,5.49,9.22,5.49L16.77,5.49C19.53,5.49,20.5,6.47,20.5,9.22L20.5,16.77C20.5,19.53,19.52,20.5,16.77,20.5ZM7,17.13C7,18.5,7.5,19,8.88,19L17.15,19C18.52,19,19,18.5,19,17.13L19,8.85C19,7.48,18.53,7,17.15,7L8.88,7C7.5,7,7,7.47,7,8.85ZM9.87,16.95C9.72,17.5,9.93,17.63,10.38,17.3L13,15.48L15.6,17.3C16.05,17.63,16.25,17.51,16.11,16.95L15.33,13.86L17.68,12.03C18.11,11.68,18.05,11.46,17.48,11.41L14.42,11.19L13.3,8.39C13.1,7.88,12.85,7.88,12.65,8.41L11.62,11.18L8.49,11.41C7.92,11.46,7.87,11.69,8.29,12.03L10.67,13.86Z"/></svg>