<svg xmlns="http://www.w3.org/2000/svg" viewBox="0 0 24 24" fill="currentColor"><path d="M9.22,20.5C6.47,20.5,5.49,19.52,5.49,16.77L5.49,9.22C5.49,6.47,6.47,5.49,9.22,5.49L16.77,5.49C19.53,5.49,20.5,6.47,20.5,9.22L20.5,16.77C20.5,19.53,19.52,20.5,16.77,20.5ZM7,17.13C7,18.5,7.5,19,8.88,19L17.15,19C18.52,19,19,18.5,19,17.13L19,8.85C19,7.48,18.53,7,17.15,7L8.88,7C7.5,7,7,7.47,7,8.85ZM9.25,14.54C9.25,15,9.5,15.24,9.95,15.24L16.05,15.24C16.5,15.24,16.74,15,16.74,14.54L16.74,14.45C16.74,14,16.5,13.75,16.05,13.75L9.95,13.75C9.5,13.75,9.25,14,9.25,14.45ZM9.25,11.54C9.25,12,9.5,12.24,9.95,12.24L16.05,12.24C16.5,12.24,16.74,12,16.74,11.54L16.74,11.45C16.74,11,16.5,10.75,16.05,10.75L9.95,10.75C9.5,10.75,9.25,11,9.25,11.45Z"/></svg>