<svg xmlns="http://www.w3.org/2000/svg" viewBox="0 0 24 24"><path d="M16,7.87L16,9.6C16,14.47,14.27,16,9,16L4.83,16L4.83,14L9,14C12.93,14,14,13.13,14,9.6L14,7.87C14,7.3,14.37,7,15,7C15.63,7,16,7.3,16,7.87Z" fill="currentColor"/><path d="M4.87,19.1L0.77,15.9C-0.06,15.23,-0.06,14.77,0.77,14.1L4.84,10.9C5.57,10.33,6.01,10.53,6.01,11.47L6.01,18.54C6.01,19.44,5.58,19.67,4.88,19.11Z" fill="currentColor"/><path d="M8,2L20,2C22.47,2,24,3.53,24,6L24,18C24,20.47,22.47,22,20,22L10.93,22C10.33,22,10,21.67,10,21.07L10,20.94C10,20.34,10.33,20.01,10.93,20.01L19.6,20.01C21.6,20.01,22,19.61,22,17.61L22,6.41C22,4.41,21.6,4.01,19.6,4.01L8.4,4.01C6.4,4.01,6,4.41,6,6.41L6,7.08C6,7.68,5.67,8.01,5.07,8.01L4.94,8.01C4.34,8.01,4.01,7.68,4.01,7.08L4.01,6.01C4.01,3.54,5.54,2.01,8.01,2.01Z" fill="currentColor"/></svg>