<svg xmlns="http://www.w3.org/2000/svg" viewBox="0 0 24 24" fill="currentColor"><path d="M10.49,17.5C8.99,17.5,8.49,17,8.49,15.5L8.49,10.49C8.49,8.99,8.99,8.49,10.49,8.49L15.5,8.49C17,8.49,17.5,8.99,17.5,10.49L17.5,15.5C17.5,17,17,17.5,15.5,17.5ZM4,14.93L4,11.03C4,10.55,4.17,10.48,4.58,10.75L7.63,12.75C7.91,12.93,7.91,13.08,7.63,13.26L4.55,15.28C4.16,15.53,4.01,15.43,4.01,14.93ZM22,11.07L22,14.97C22,15.44,21.83,15.52,21.42,15.25L18.37,13.25C18.09,13.07,18.09,12.92,18.37,12.74L21.45,10.72C21.84,10.47,21.99,10.57,21.99,11.07ZM11.07,4L14.97,4C15.44,4,15.52,4.17,15.25,4.58L13.25,7.63C13.07,7.91,12.92,7.91,12.74,7.63L10.72,4.55C10.47,4.16,10.57,4.01,11.07,4.01ZM14.93,22L11.03,22C10.55,22,10.48,21.83,10.75,21.42L12.75,18.37C12.93,18.09,13.08,18.09,13.26,18.37L15.28,21.45C15.53,21.84,15.43,21.99,14.93,21.99Z"/></svg>