<svg xmlns="http://www.w3.org/2000/svg" viewBox="0 0 24 24" fill="currentColor"><path d="M8.5,10.49C8.5,8.99,9,8.49,10.5,8.49L15.5,8.49C17,8.49,17.51,8.99,17.51,10.49L17.51,15.5C17.51,17,17,17.5,15.5,17.5L10.5,17.5C9,17.5,8.5,17,8.5,15.5ZM6.5,15.15L4.45,13.3C4.22,13.08,4.22,12.93,4.45,12.7L6.53,10.83C6.9,10.5,7.03,10.58,7.03,11.07L7.03,14.97C7.03,15.45,6.88,15.5,6.5,15.15ZM18.98,14.93L18.98,11.03C18.98,10.55,19.13,10.5,19.5,10.86L21.55,12.71C21.77,12.93,21.77,13.08,21.55,13.31L19.47,15.18C19.1,15.5,18.97,15.43,18.97,14.94Z"/></svg>