<svg xmlns="http://www.w3.org/2000/svg" viewBox="0 0 24 24"><path d="M17.04,2C20.71,2,22.01,3.3,22.01,6.97L22.01,17.04C22.01,20.71,20.71,22.01,17.04,22.01L6.97,22.01C3.3,22.01,2,20.71,2,17.04L2,6.97C2,3.3,3.3,2,6.97,2Z" fill="currentColor"/><path d="M20,6.47C20,4.64,19.37,4,17.53,4L6.5,4C4.67,4,4,4.63,4,6.47L4,17.5C4,19.33,4.67,20,6.5,20L17.53,20C19.36,20,20,19.33,20,17.5Z" fill="currentColor"/><path d="M12,7.84C12,7.01,12.37,6.84,13.03,7.37L17.4,11.07C18.2,11.74,18.2,12.27,17.4,12.94L13.03,16.64C12.36,17.17,12,17.01,12,16.17Z" fill="currentColor"/><path d="M6,12.07L6,11.94C6,10.91,6.4,10.51,7.43,10.51L13.33,10.51L13.33,13.51L7.43,13.51C6.4,13.51,6,13.11,6,12.08Z" fill="currentColor"/></svg>