<svg xmlns="http://www.w3.org/2000/svg" viewBox="0 0 24 24" fill="currentColor"><path d="M20.5,16.78C20.5,19.53,19.52,20.51,16.77,20.51L9.22,20.51C6.47,20.51,5.49,19.53,5.49,16.78L5.49,9.23C5.49,6.47,6.47,5.5,9.22,5.5L16.77,5.5C19.53,5.5,20.5,6.47,20.5,9.23ZM17.15,19C18.52,19,19,18.5,19,17.13L19,8.85C19,7.48,18.53,7,17.15,7L8.88,7C7.5,7,7,7.47,7,8.85L7,17.13C7,18.5,7.5,19,8.88,19ZM16.12,13C16.74,13,16.87,13.28,16.47,13.77L13.7,17.05C13.19,17.65,12.8,17.65,12.29,17.05L9.52,13.77C9.12,13.27,9.24,13,9.87,13ZM12.95,8.5L13.04,8.5C13.82,8.5,14.12,8.8,14.12,9.57L14.12,14L11.87,14L11.87,9.57C11.87,8.8,12.17,8.5,12.94,8.5Z"/></svg>