<svg xmlns="http://www.w3.org/2000/svg" viewBox="0 0 24 24"><path d="M6.96,22C3.29,22,1.99,20.7,1.99,17.03L1.99,6.96C1.99,3.29,3.29,1.99,6.96,1.99L17.03,1.99C20.7,1.99,22,3.29,22,6.96L22,17.03C22,20.7,20.7,22,17.03,22Z" fill="currentColor"/><path d="M15.07,19.5C16.1,19.5,16.5,19.1,16.5,18.07L16.5,16.5L18.07,16.5C19.1,16.5,19.5,16.1,19.5,15.07L19.5,14.94C19.5,13.91,19.1,13.51,18.07,13.51L16.5,13.51L16.5,10.51L18.07,10.51C19.1,10.51,19.5,10.11,19.5,9.08L19.5,8.98C19.5,7.95,19.1,7.55,18.07,7.55L16.5,7.55L16.5,5.98C16.5,4.95,16.1,4.55,15.07,4.55L14.94,4.55C13.91,4.55,13.51,4.95,13.51,5.98L13.51,7.55L10.51,7.55L10.51,5.95C10.51,4.92,10.11,4.52,9.08,4.52L8.95,4.52C7.92,4.52,7.52,4.92,7.52,5.95L7.52,7.55L5.95,7.55C4.92,7.55,4.52,7.95,4.52,8.98L4.52,9.08C4.52,10.11,4.92,10.51,5.95,10.51L7.52,10.51L7.52,13.51L5.95,13.51C4.92,13.51,4.52,13.91,4.52,14.94L4.52,15.07C4.52,16.1,4.92,16.5,5.95,16.5L7.52,16.5L7.52,18C7.52,19.03,7.92,19.43,8.95,19.43L9.08,19.43C10.11,19.43,10.51,19.03,10.51,18L10.51,16.5L13.51,16.5L13.51,18.07C13.51,19.1,13.91,19.5,14.94,19.5Z" fill="currentColor"/><path d="M10.5,13.5L10.5,10.5L13.5,10.5L13.5,13.5Z" fill="currentColor"/></svg>