<svg xmlns="http://www.w3.org/2000/svg" viewBox="0 0 24 24" fill="currentColor"><path d="M7.49,20.5C5.99,20.5,5.49,20,5.49,18.5L5.49,10.49C5.49,8.99,5.99,8.49,7.49,8.49L13.78,8.49L10.59,11.69C9.23,13.05,9.22,14.09,10.54,15.44C10.55,15.46,10.57,15.47,10.59,15.5L10.49,15.4C10.51,15.41,10.52,15.44,10.55,15.45C11.9,16.78,12.94,16.76,14.3,15.4L17.5,12.21L17.5,18.5C17.5,20,17,20.5,15.5,20.5ZM13.17,14.42C12.63,14.97,12.22,14.97,11.67,14.42L11.57,14.33C11.03,13.78,11.03,13.38,11.57,12.83L16.98,7.43L15.5,5.95C15.15,5.63,15.22,5.5,15.72,5.5L20.05,5.5C20.37,5.5,20.5,5.63,20.5,5.95L20.5,10.32C20.5,10.79,20.37,10.82,20,10.47L18.57,9.02Z"/></svg>