<svg xmlns="http://www.w3.org/2000/svg" viewBox="0 0 24 24"><path d="M8.97,15.03C10.54,13.46,8.54,11.33,10.27,9.63C11.6,8.26,13.3,8.56,14.3,9.6C16.67,11.97,14.1,16.93,8,16Z" fill="currentColor"/><path d="M16.6,9.5C16.43,9.07,16.17,8.63,15.8,8.27C15.43,7.9,14.93,7.6,14.47,7.4L18.6,2.4C20.3,0.37,21.67,0.43,22.63,1.37C23.6,2.34,23.6,3.67,21.6,5.37Z" fill="currentColor"/><path d="M19.33,22L4.66,22C2.66,22,1.99,21.33,1.99,19.33L1.99,4.66C1.99,2.66,2.66,1.99,4.66,1.99L16.29,1.99L13.92,4.99L4.99,4.99L4.99,18.99L18.99,18.99L18.99,10.29L21.99,7.72L21.99,19.32C21.99,21.32,21.32,21.99,19.32,21.99Z" fill="currentColor"/></svg>