<svg xmlns="http://www.w3.org/2000/svg" viewBox="0 0 24 24"><path d="M12.03,22L3.96,22C1.03,22,-0.01,20.97,-0.01,18.03L-0.01,9.96C-0.01,7.03,1.02,5.99,3.96,5.99L12.03,5.99C12.41,5.99,12.76,6.01,13.09,6.04C13.4,7.77,14.51,9.29,16,10.18L16,18.02C16,20.95,14.97,21.99,12.03,21.99Z" fill="currentColor"/><path d="M5,18.8L11,18.8L9.37,13.97C10.17,13.4,10.67,12.54,10.67,11.6C10.67,10.13,9.5,8.93,8,8.93C6.5,8.93,5.33,10.13,5.33,11.6C5.33,12.5,5.8,13.4,6.6,13.97Z" fill="currentColor"/><path d="M23,16L18,16L18,8.9C16.3,8.47,15,6.9,15,5.07C15,2.9,16.8,1.1,19,1.1C21.2,1.07,23,2.87,23,5.07C23,6.94,21.73,8.5,20,8.94L20,14.01L23,14.01Z" fill="currentColor"/><path d="M19,3.1C17.9,3.1,17,4.03,17,5.13C17,6.2,17.9,7.06,19,7.1C20.1,7.1,21,6.27,21,5.13C21,3.96,20.1,3.1,19,3.1Z" fill="currentColor"/></svg>