<svg xmlns="http://www.w3.org/2000/svg" viewBox="0 0 24 24" fill="currentColor"><path d="M9.22,20.5C6.47,20.5,5.49,19.52,5.49,16.77L5.49,9.22C5.49,6.47,6.47,5.49,9.22,5.49L16.77,5.49C19.53,5.49,20.5,6.47,20.5,9.22L20.5,16.77C20.5,19.53,19.52,20.5,16.77,20.5ZM7,17.13C7,18.5,7.5,19,8.88,19L17.15,19C18.52,19,19,18.5,19,17.13L19,8.85C19,7.48,18.53,7,17.15,7L8.88,7C7.5,7,7,7.47,7,8.85ZM9.25,11.3C9.25,10.86,9.5,10.61,9.95,10.61L10.04,10.63C10.5,10.63,10.74,10.88,10.74,11.33L10.72,15.28L14.7,15.23C15.15,15.23,15.39,15.47,15.39,15.92L15.39,16.05C15.39,16.5,15.15,16.75,14.7,16.75L10.32,16.75C9.55,16.75,9.25,16.45,9.25,15.68ZM15.3,9.65C15.53,9.42,15.83,9.47,16.15,9.8L16.2,9.85C16.52,10.17,16.58,10.47,16.35,10.7L11.25,15.82L10.2,14.75Z"/></svg>