<svg xmlns="http://www.w3.org/2000/svg" viewBox="0 0 24 24" fill="currentColor"><path d="M18.5,5.5C20,5.5,20.51,6,20.51,7.5L20.51,15.5C20.51,17,20,17.51,18.5,17.51L12.22,17.51L15.41,14.3C16.76,12.95,16.78,11.9,15.46,10.55C15.44,10.54,15.43,10.52,15.41,10.5L15.5,10.6C15.49,10.58,15.47,10.57,15.45,10.55C14.1,9.22,13.06,9.24,11.7,10.6L8.5,13.79L8.5,7.5C8.5,6,9,5.5,10.5,5.5ZM12.83,11.57C13.38,11.03,13.78,11.03,14.33,11.57L14.42,11.67C14.97,12.22,14.97,12.63,14.42,13.17L9.02,18.57L10.5,20.05C10.86,20.37,10.78,20.5,10.28,20.5L5.95,20.5C5.63,20.5,5.5,20.37,5.5,20.05L5.5,15.68C5.5,15.21,5.63,15.17,6,15.53L7.43,16.98Z"/></svg>