<svg xmlns="http://www.w3.org/2000/svg" viewBox="0 0 24 24"><path d="M11.26,14.33C10.13,14.33,9.66,13.96,9.66,13.03L9.66,10.96C9.66,10.03,10.03,9.66,10.96,9.66L13.03,9.66C13.96,9.66,14.33,10.09,14.33,11.26L14.33,12.73C14.33,13.86,13.9,14.33,12.73,14.33Z" fill="currentColor"/><path d="M20.7,6.67L18.63,6.67C17.7,6.67,17.33,6.3,17.33,5.37L17.33,3.3C17.33,2.37,17.73,2,18.76,2L20.56,2C21.59,2,21.99,2.4,21.99,3.43L21.99,5.23C21.99,6.26,21.62,6.66,20.69,6.66Z" fill="currentColor"/><path d="M20.4,14.33L18.93,14.33C17.8,14.33,17.33,13.96,17.33,13.03L17.33,10.96C17.33,10.03,17.7,9.66,18.63,9.66L20.7,9.66C21.63,9.66,22,10.06,22,11.09L22,12.89C22,13.92,21.57,14.32,20.4,14.32Z" fill="currentColor"/><path d="M5.23,22L3.43,22C2.4,22,2,21.6,2,20.57L2,18.77C2,17.74,2.37,17.34,3.3,17.34L5.37,17.34C6.3,17.34,6.67,17.71,6.67,18.64L6.67,20.71C6.67,21.64,6.27,22.01,5.24,22.01Z" fill="currentColor"/><path d="M12.9,22L11.1,22C10.07,22,9.67,21.63,9.67,20.7L9.67,18.63C9.67,17.7,10.04,17.33,10.97,17.33L13.04,17.33C13.97,17.33,14.34,17.76,14.34,18.93L14.34,20.4C14.34,21.53,13.94,22,12.91,22Z" fill="currentColor"/><path d="M20.57,22L18.77,22C17.74,22,17.34,21.63,17.34,20.7L17.34,18.63C17.34,17.7,17.71,17.33,18.64,17.33L20.71,17.33C21.64,17.33,22.01,17.73,22.01,18.76L22.01,20.56C22.01,21.59,21.61,21.99,20.58,21.99Z" fill="currentColor"/></svg>