<svg xmlns="http://www.w3.org/2000/svg" viewBox="0 0 24 24" fill="currentColor"><path d="M16.78,5.5C19.53,5.5,20.51,6.47,20.51,9.23L20.51,16.78C20.51,19.53,19.53,20.51,16.78,20.51L9.23,20.51C6.47,20.51,5.5,19.53,5.5,16.78L5.5,9.23C5.5,6.47,6.47,5.5,9.23,5.5ZM19,8.85C19,7.48,18.53,7,17.15,7L8.88,7C7.5,7,7,7.47,7,8.85L7,17.13C7,18.5,7.5,19,8.88,19L17.15,19C18.52,19,19,18.5,19,17.13ZM10.07,12.5L13.65,8.92C13.97,8.6,14.33,8.6,14.65,8.92L14.7,8.97C15.02,9.29,15.02,9.65,14.7,9.97L11.7,12.97L14.72,15.99C15.05,16.32,15.05,16.67,14.72,16.99L14.65,17.07C14.33,17.39,13.97,17.39,13.65,17.07L10.07,13.49C9.75,13.17,9.75,12.81,10.07,12.49Z"/></svg>