<svg xmlns="http://www.w3.org/2000/svg" viewBox="0 0 24 24"><path d="M10,7.87L10,9.6C10,13.13,11.07,14,15,14L19.17,14L19.17,16L15,16C9.73,16,8,14.47,8,9.6L8,7.87C8,7.3,8.37,7,9,7C9.63,7,10,7.3,10,7.87Z" fill="currentColor"/><path d="M19.17,10.9L23.24,14.1C24.07,14.77,24.07,15.23,23.24,15.9L19.14,19.1C18.44,19.67,18.01,19.43,18.01,18.53L18.01,11.46C18.01,10.53,18.44,10.33,19.18,10.89Z" fill="currentColor"/><path d="M0,18L0,6C0,3.53,1.53,2,4,2L16,2C18.47,2,20,3.53,20,6L20,7.07C20,7.67,19.67,8,19.07,8L18.94,8C18.34,8,18.01,7.67,18.01,7.07L18.01,6.4C18.01,4.4,17.61,4,15.61,4L4.41,4C2.41,4,2.01,4.4,2.01,6.4L2.01,17.6C2.01,19.6,2.41,20,4.41,20L13.08,20C13.68,20,14.01,20.33,14.01,20.93L14.01,21.06C14.01,21.66,13.68,21.99,13.08,21.99L4.01,21.99C1.54,21.99,0.01,20.46,0.01,17.99Z" fill="currentColor"/></svg>