<svg xmlns="http://www.w3.org/2000/svg" viewBox="0 0 24 24"><path d="M3.37,19.3C1.5,18.33,1.5,17.6,3.37,16.63L4.44,16.08L8.67,18.27C11.04,19.5,12.97,19.5,15.34,18.27L19.54,16.1L20.64,16.67C22.51,17.64,22.51,18.34,20.64,19.3L14.54,22.47C12.67,23.44,11.34,23.44,9.47,22.47Z" fill="currentColor"/><path d="M3.37,13.3C1.5,12.33,1.5,11.6,3.37,10.63L4.44,10.08L8.67,12.27C11.04,13.5,12.97,13.5,15.34,12.27L19.54,10.1L20.64,10.67C22.51,11.64,22.51,12.34,20.64,13.3L14.54,16.47C12.67,17.44,11.34,17.44,9.47,16.47Z" fill="currentColor"/><path d="M9.47,10.47L3.37,7.3C1.5,6.33,1.5,5.6,3.37,4.63L9.47,1.46C11.34,0.49,12.67,0.53,14.54,1.49L20.64,4.66C22.51,5.63,22.51,6.33,20.64,7.29L14.54,10.46C12.67,11.43,11.34,11.43,9.47,10.46Z" fill="currentColor"/></svg>