<svg xmlns="http://www.w3.org/2000/svg" viewBox="0 0 24 24"><path d="M19.34,2C21.34,2,22.01,2.67,22.01,4.67L22.01,15.34C22.01,17.34,21.34,18.01,19.34,18.01L10.96,18.01L15.21,13.74C17.02,11.93,17.04,10.54,15.28,8.74C15.26,8.72,15.24,8.7,15.21,8.67L15.34,8.8C15.32,8.78,15.3,8.76,15.27,8.73C13.47,6.96,12.08,6.98,10.27,8.8L6,13.05L6,4.67C6,2.67,6.67,2,8.67,2Z" fill="currentColor"/><path d="M11.77,10.1C12.5,9.37,13.04,9.37,13.77,10.1L13.9,10.23C14.63,10.96,14.63,11.5,13.9,12.23L6.7,19.43L8.67,21.4C9.14,21.83,9.04,22,8.37,22L2.6,22C2.17,22,2,21.83,2,21.4L2,15.57C2,14.94,2.17,14.9,2.67,15.37L4.57,17.3Z" fill="currentColor"/></svg>