<svg xmlns="http://www.w3.org/2000/svg" viewBox="0 0 24 24"><path d="M22,17.04C22,20.71,20.7,22.01,17.03,22.01L6.96,22.01C3.29,22.01,1.99,20.71,1.99,17.04L1.99,6.97C1.99,3.3,3.29,2,6.96,2L17.03,2C20.7,2,22,3.3,22,6.97Z" fill="currentColor"/><path d="M17.53,20C19.36,20,20,19.33,20,17.5L20,6.47C20,4.64,19.37,4,17.53,4L6.5,4C4.67,4,4,4.63,4,6.47L4,17.5C4,19.33,4.67,20,6.5,20Z" fill="currentColor"/><path d="M16.16,12C16.99,12,17.16,12.37,16.63,13.03L12.93,17.4C12.26,18.2,11.73,18.2,11.06,17.4L7.36,13.03C6.83,12.36,6.99,12,7.83,12Z" fill="currentColor"/><path d="M11.93,6L12.06,6C13.09,6,13.49,6.4,13.49,7.43L13.49,13.33L10.49,13.33L10.49,7.43C10.49,6.4,10.89,6,11.92,6Z" fill="currentColor"/></svg>