<svg xmlns="http://www.w3.org/2000/svg" viewBox="0 0 24 24" fill="currentColor"><path d="M9.22,20.5C6.47,20.5,5.49,19.52,5.49,16.77L5.49,9.22C5.49,6.47,6.47,5.49,9.22,5.49L16.77,5.49C19.53,5.49,20.5,6.47,20.5,9.22L20.5,16.77C20.5,19.53,19.52,20.5,16.77,20.5ZM15.3,18.63C16.08,18.63,16.38,18.33,16.38,17.55L16.38,16.38L17.55,16.38C18.33,16.38,18.63,16.08,18.63,15.3L18.63,15.21C18.63,14.43,18.33,14.13,17.55,14.13L16.38,14.13L16.38,11.88L17.55,11.88C18.33,11.88,18.63,11.58,18.63,10.81L18.63,10.74C18.63,9.96,18.33,9.66,17.55,9.66L16.38,9.66L16.38,8.49C16.38,7.71,16.08,7.41,15.3,7.41L15.21,7.41C14.43,7.41,14.13,7.71,14.13,8.49L14.13,9.66L11.88,9.66L11.88,8.46C11.88,7.69,11.58,7.39,10.81,7.39L10.71,7.39C9.94,7.39,9.64,7.69,9.64,8.46L9.64,9.66L8.46,9.66C7.69,9.66,7.39,9.96,7.39,10.74L7.39,10.81C7.39,11.58,7.69,11.88,8.46,11.88L9.64,11.88L9.64,14.13L8.46,14.13C7.69,14.13,7.39,14.43,7.39,15.21L7.39,15.3C7.39,16.08,7.69,16.38,8.46,16.38L9.64,16.38L9.64,17.5C9.64,18.27,9.94,18.57,10.71,18.57L10.81,18.57C11.58,18.57,11.88,18.27,11.88,17.5L11.88,16.38L14.13,16.38L14.13,17.55C14.13,18.33,14.43,18.63,15.21,18.63ZM11.88,14.13L11.88,11.88L14.13,11.88L14.13,14.13Z"/></svg>