<svg xmlns="http://www.w3.org/2000/svg" viewBox="0 0 24 24" fill="currentColor"><path d="M16.78,5.5C19.53,5.5,20.51,6.47,20.51,9.23L20.51,16.78C20.51,19.53,19.53,20.51,16.78,20.51L9.23,20.51C6.47,20.51,5.5,19.53,5.5,16.78L5.5,9.23C5.5,6.47,6.47,5.5,9.23,5.5ZM19,8.85C19,7.48,18.53,7,17.15,7L8.88,7C7.5,7,7,7.47,7,8.85L7,17.13C7,18.5,7.5,19,8.88,19L17.15,19C18.52,19,19,18.5,19,17.13ZM13,9.88C13,9.26,13.28,9.13,13.77,9.53L17.05,12.3C17.65,12.8,17.65,13.2,17.05,13.71L13.77,16.48C13.27,16.88,13,16.76,13,16.13ZM8.5,13.05L8.5,12.96C8.5,12.18,8.8,11.88,9.57,11.88L14,11.88L14,14.13L9.57,14.13C8.8,14.13,8.5,13.83,8.5,13.06Z"/></svg>