<svg xmlns="http://www.w3.org/2000/svg" viewBox="0 0 24 24" fill="currentColor"><path d="M10.73,15.27C11.91,14.1,10.41,12.5,11.7,11.22C12.7,10.2,13.98,10.42,14.73,11.2C16.5,12.98,14.58,16.7,10,16ZM16.45,11.13C16.32,10.8,16.13,10.47,15.85,10.2C15.57,9.93,15.2,9.7,14.85,9.55L17.95,5.8C19.22,4.28,20.25,4.32,20.97,5.03C21.7,5.75,21.7,6.75,20.2,8.03ZM18.5,20.5L7.49,20.5C5.99,20.5,5.49,20,5.49,18.5L5.49,7.49C5.49,5.99,5.99,5.49,7.49,5.49L16.22,5.49L14.44,7.74L7.74,7.74L7.74,18.24L18.24,18.24L18.24,11.72L20.49,9.79L20.49,18.49C20.49,19.99,19.99,20.49,18.49,20.49Z"/></svg>