<svg xmlns="http://www.w3.org/2000/svg" viewBox="0 0 24 24" fill="currentColor"><path d="M13.02,20.5L6.97,20.5C4.77,20.5,3.99,19.73,3.99,17.52L3.99,11.47C3.99,9.27,4.77,8.49,6.97,8.49L13.02,8.49C13.31,8.49,13.57,8.51,13.82,8.53C14.05,9.83,14.88,10.97,16,11.63L16,17.52C16,19.71,15.23,20.49,13.02,20.49ZM7.75,18.1L12.25,18.1L11.03,14.48C11.63,14.05,12,13.4,12,12.7C12,11.6,11.13,10.7,10,10.7C8.88,10.7,8,11.6,8,12.7C8,13.37,8.35,14.05,8.95,14.48ZM21.25,16L17.5,16L17.5,10.68C16.23,10.35,15.25,9.18,15.25,7.8C15.25,6.18,16.6,4.82,18.25,4.82C19.9,4.8,21.25,6.15,21.25,7.8C21.25,9.21,20.3,10.38,19,10.71L19,14.51L21.25,14.51ZM18.25,6.33C17.42,6.33,16.75,7.02,16.75,7.85C16.75,8.65,17.42,9.29,18.25,9.33C19.08,9.33,19.75,8.7,19.75,7.85C19.75,6.97,19.08,6.33,18.25,6.33Z"/></svg>