<svg xmlns="http://www.w3.org/2000/svg" viewBox="0 0 24 24"><path d="M17.04,2C20.71,2,22.01,3.3,22.01,6.97L22.01,17.04C22.01,20.71,20.71,22.01,17.04,22.01L6.97,22.01C3.3,22.01,2,20.71,2,17.04L2,6.97C2,3.3,3.3,2,6.97,2Z" fill="currentColor"/><path d="M20,6.47C20,4.64,19.37,4,17.53,4L6.5,4C4.67,4,4,4.63,4,6.47L4,17.5C4,19.33,4.67,20,6.5,20L17.53,20C19.36,20,20,19.33,20,17.5Z" fill="currentColor"/><path d="M9,15.67L9,8.34C9,7.51,9.4,7.27,10.1,7.74L15.2,11.21C16.07,11.78,16.07,12.24,15.2,12.81L10.1,16.28C9.4,16.75,9,16.51,9,15.68Z" fill="currentColor"/></svg>