<svg xmlns="http://www.w3.org/2000/svg" viewBox="0 0 24 24" fill="currentColor"><path d="M5.5,9.22C5.5,6.47,6.47,5.49,9.23,5.49L16.78,5.49C19.53,5.49,20.51,6.47,20.51,9.22L20.51,16.77C20.51,19.53,19.53,20.5,16.78,20.5L9.23,20.5C6.47,20.5,5.5,19.52,5.5,16.77ZM8.42,10.92C7.88,11.47,7.88,11.88,8.42,12.42L12.25,16.25C12.8,16.79,13.2,16.79,13.75,16.25L17.58,12.42C18.12,11.87,18.12,11.47,17.58,10.92L17.48,10.82C16.93,10.28,16.53,10.28,15.98,10.82L13,13.8L10.02,10.82C9.48,10.28,9.07,10.28,8.52,10.82Z"/></svg>