<svg xmlns="http://www.w3.org/2000/svg" viewBox="0 0 24 24" fill="currentColor"><path d="M9.22,20.5C6.47,20.5,5.49,19.52,5.49,16.77L5.49,9.22C5.49,6.47,6.47,5.49,9.22,5.49L16.77,5.49C19.53,5.49,20.5,6.47,20.5,9.22L20.5,16.77C20.5,19.53,19.52,20.5,16.77,20.5ZM7,17.13C7,18.5,7.5,19,8.88,19L17.15,19C18.52,19,19,18.5,19,17.13L19,8.85C19,7.48,18.53,7,17.15,7L8.88,7C7.5,7,7,7.47,7,8.85ZM13,16.12C13,16.74,12.72,16.87,12.23,16.47L8.95,13.7C8.35,13.19,8.35,12.8,8.95,12.29L12.23,9.52C12.73,9.12,13,9.24,13,9.87ZM17.5,12.95L17.5,13.04C17.5,13.82,17.2,14.12,16.43,14.12L12,14.12L12,11.87L16.43,11.87C17.2,11.87,17.5,12.17,17.5,12.94Z"/></svg>