<svg xmlns="http://www.w3.org/2000/svg" viewBox="0 0 24 24"><path d="M6.96,22C3.29,22,1.99,20.7,1.99,17.03L1.99,6.96C1.99,3.29,3.29,1.99,6.96,1.99L17.03,1.99C20.7,1.99,22,3.29,22,6.96L22,17.03C22,20.7,20.7,22,17.03,22Z" fill="currentColor"/><path d="M4,17.5C4,19.33,4.67,20,6.5,20L17.53,20C19.36,20,20,19.33,20,17.5L20,6.47C20,4.64,19.37,4,17.53,4L6.5,4C4.67,4,4,4.63,4,6.47Z" fill="currentColor"/><path d="M12.53,6.97L12.6,6.87C13.03,6.44,13.5,6.44,13.93,6.87L18.06,11C18.79,11.73,18.79,12.27,18.06,13L13.93,17.13C13.5,17.56,13.03,17.56,12.6,17.13L12.5,17.03C12.07,16.6,12.07,16.13,12.5,15.7L16.27,12L12.54,8.3C12.11,7.87,12.11,7.4,12.54,6.97Z" fill="currentColor"/><path d="M6,12.07L6,11.94C6,11.34,6.23,11.01,6.67,11.01L16.3,11.01L16.3,13.01L6.67,13.01C6.24,13.01,6,12.68,6,12.08Z" fill="currentColor"/></svg>