<svg xmlns="http://www.w3.org/2000/svg" viewBox="0 0 24 24" fill="currentColor"><path d="M9.22,20.5C6.47,20.5,5.49,19.52,5.49,16.77L5.49,9.22C5.49,6.47,6.47,5.49,9.22,5.49L16.77,5.49C19.53,5.49,20.5,6.47,20.5,9.22L20.5,16.77C20.5,19.53,19.52,20.5,16.77,20.5ZM7,17.13C7,18.5,7.5,19,8.88,19L17.15,19C18.52,19,19,18.5,19,17.13L19,8.85C19,7.48,18.53,7,17.15,7L8.88,7C7.5,7,7,7.47,7,8.85ZM11.7,9.8L12.21,13.25C12.28,13.67,12.48,13.85,12.93,13.85L13.08,13.85C13.53,13.85,13.73,13.67,13.81,13.25L14.31,9.8C14.46,8.87,14.14,8.52,13.19,8.52L12.87,8.52C11.91,8.52,11.59,8.88,11.72,9.8ZM14.18,16.17C14.18,15.48,13.73,15.02,13,15.02C12.27,15.02,11.82,15.48,11.82,16.17C11.82,16.9,12.27,17.35,13,17.35C13.73,17.35,14.18,16.9,14.18,16.17Z"/></svg>