<svg xmlns="http://www.w3.org/2000/svg" viewBox="0 0 24 24" fill="currentColor"><path d="M11.99,16C10.49,16,9.99,15.5,9.99,14L9.99,7.49C9.99,5.99,10.49,5.49,11.99,5.49L18.5,5.49C20,5.49,20.5,5.99,20.5,7.49L20.5,14C20.5,15.5,20,16,18.5,16ZM14,20.5L7.49,20.5C5.99,20.5,5.49,20,5.49,18.5L5.49,11.99C5.49,10.49,5.99,9.99,7.49,9.99L8.49,9.99L8.49,13.99C8.49,16.62,9.37,17.49,11.99,17.49L15.99,17.49L15.99,18.49C15.99,19.99,15.49,20.49,13.99,20.49ZM14.5,13.5C14.5,14.03,14.7,14.23,15.2,14.23L15.27,14.23C15.8,14.23,16,14.03,16,13.53L16,11.51L18.02,11.51C18.53,11.51,18.72,11.31,18.72,10.78L18.72,10.71C18.72,10.2,18.52,10.01,18,10.01L15.99,10.01L15.99,8.01C15.99,7.48,15.79,7.28,15.3,7.28L15.22,7.28C14.7,7.28,14.49,7.48,14.49,7.98L14.49,10L12.47,10C11.97,10,11.77,10.2,11.77,10.73L11.77,10.8C11.77,11.3,11.97,11.5,12.5,11.5L14.5,11.5Z"/></svg>