<svg xmlns="http://www.w3.org/2000/svg" viewBox="0 0 24 24"><path d="M6.96,22C6.73,22,6.52,22,6.31,21.98L21.98,6.31C21.99,6.52,22,6.74,22,6.96L22,17.03C22,20.7,20.7,22,17.03,22Z" fill="currentColor"/><path d="M23.4,2.03L21.48,3.95L3.95,21.48L2.1,23.33L2.07,23.36C1.64,23.79,1.17,23.79,0.74,23.36L0.64,23.26C0.21,22.83,0.21,22.36,0.64,21.93L2.52,20.05C2.16,19.3,2,18.31,2,17.03L2,6.96C2,3.29,3.3,1.99,6.97,1.99L17.04,1.99C18.32,1.99,19.31,2.15,20.06,2.51L21.98,0.59C22.41,0.16,22.88,0.16,23.31,0.59L23.41,0.69C23.83,1.11,23.84,1.57,23.44,1.99C23.43,2,23.42,2.01,23.41,2.02Z" fill="currentColor"/></svg>