<svg xmlns="http://www.w3.org/2000/svg" viewBox="0 0 24 24" fill="currentColor"><path d="M9.22,20.5C6.47,20.5,5.49,19.52,5.49,16.77L5.49,9.22C5.49,6.47,6.47,5.49,9.22,5.49L16.77,5.49C19.53,5.49,20.5,6.47,20.5,9.22L20.5,16.77C20.5,19.53,19.52,20.5,16.77,20.5ZM7,17.13C7,18.5,7.5,19,8.88,19L17.15,19C18.52,19,19,18.5,19,17.13L19,8.85C19,7.48,18.53,7,17.15,7L8.88,7C7.5,7,7,7.47,7,8.85ZM9.9,16.11C10.26,16.46,10.63,16.48,10.95,16.16L13,14.06L15.08,16.13C15.4,16.46,15.77,16.43,16.13,16.08L16.13,16.08C16.45,15.76,16.43,15.38,16.07,15.03L14.05,13.01L16.1,11.01C16.45,10.65,16.47,10.28,16.15,9.96L16.1,9.9C15.75,9.55,15.37,9.53,15.05,9.85L13,11.95L10.92,9.87C10.6,9.55,10.23,9.57,9.87,9.93L9.87,9.93C9.55,10.25,9.57,10.62,9.93,10.98L11.95,13L9.9,15C9.55,15.36,9.53,15.73,9.85,16.05Z"/></svg>