<svg xmlns="http://www.w3.org/2000/svg" viewBox="0 0 24 24"><path d="M6.96,22C3.29,22,1.99,20.7,1.99,17.03L1.99,6.96C1.99,3.29,3.29,1.99,6.96,1.99L17.03,1.99C20.7,1.99,22,3.29,22,6.96L22,17.03C22,20.7,20.7,22,17.03,22Z" fill="currentColor"/><path d="M4,17.5C4,19.33,4.67,20,6.5,20L17.53,20C19.36,20,20,19.33,20,17.5L20,6.47C20,4.64,19.37,4,17.53,4L6.5,4C4.67,4,4,4.63,4,6.47Z" fill="currentColor"/><path d="M10.27,7.73L10.94,12.33C11.04,12.9,11.31,13.13,11.91,13.13L12.11,13.13C12.71,13.13,12.98,12.9,13.08,12.33L13.75,7.73C13.95,6.5,13.52,6.03,12.25,6.03L11.82,6.03C10.55,6.03,10.12,6.5,10.29,7.73Z" fill="currentColor"/><path d="M13.57,16.23C13.57,15.3,12.97,14.7,12,14.7C11.03,14.7,10.43,15.3,10.43,16.23C10.43,17.2,11.03,17.8,12,17.8C12.97,17.8,13.57,17.2,13.57,16.23Z" fill="currentColor"/></svg>