<svg xmlns="http://www.w3.org/2000/svg" viewBox="0 0 24 24" fill="currentColor"><path d="M20.5,16.78C20.5,19.53,19.52,20.51,16.77,20.51L9.22,20.51C6.47,20.51,5.49,19.53,5.49,16.78L5.49,9.23C5.49,6.47,6.47,5.5,9.22,5.5L16.77,5.5C19.53,5.5,20.5,6.47,20.5,9.23ZM17.57,15.08C18.12,14.53,18.12,14.13,17.57,13.58L13.75,9.75C13.2,9.21,12.8,9.21,12.25,9.75L8.43,13.58C7.88,14.13,7.88,14.53,8.43,15.08L8.52,15.17C9.07,15.72,9.48,15.72,10.02,15.17L13,12.2L15.98,15.17C16.52,15.72,16.93,15.72,17.48,15.17Z"/></svg>