<svg xmlns="http://www.w3.org/2000/svg" viewBox="0 0 24 24" fill="currentColor"><path d="M9.22,20.5C6.47,20.5,5.49,19.52,5.49,16.77L5.49,9.22C5.49,6.47,6.47,5.49,9.22,5.49L16.77,5.49C19.53,5.49,20.5,6.47,20.5,9.22L20.5,16.77C20.5,19.53,19.52,20.5,16.77,20.5ZM11.88,17.15C11.88,17.95,12.18,18.25,12.95,18.25L13.02,18.25C13.83,18.25,14.13,17.95,14.13,17.18L14.13,14.13L17.18,14.13C17.95,14.13,18.25,13.83,18.25,13.02L18.25,12.95C18.25,12.18,17.95,11.88,17.15,11.88L14.13,11.88L14.13,8.85C14.13,8.05,13.83,7.75,13.05,7.75L12.98,7.75C12.18,7.75,11.88,8.05,11.88,8.82L11.88,11.88L8.82,11.88C8.05,11.88,7.75,12.18,7.75,12.98L7.75,13.05C7.75,13.83,8.05,14.13,8.85,14.13L11.88,14.13Z"/></svg>