<svg xmlns="http://www.w3.org/2000/svg" viewBox="0 0 24 24"><path d="M2,6.96C2,3.29,3.3,1.99,6.97,1.99L17.04,1.99C20.71,1.99,22.01,3.29,22.01,6.96L22.01,17.03C22.01,20.7,20.71,22,17.04,22L6.97,22C3.3,22,2,20.7,2,17.03Z" fill="currentColor"/><path d="M6.5,4C4.67,4,4,4.63,4,6.47L4,17.5C4,19.33,4.67,20,6.5,20L17.53,20C19.36,20,20,19.33,20,17.5L20,6.47C20,4.64,19.37,4,17.53,4Z" fill="currentColor"/><path d="M15.67,15L8.34,15C7.51,15,7.27,14.6,7.74,13.9L11.21,8.8C11.78,7.93,12.24,7.93,12.81,8.8L16.28,13.9C16.75,14.6,16.51,15,15.68,15Z" fill="currentColor"/></svg>