<svg xmlns="http://www.w3.org/2000/svg" viewBox="0 0 24 24" fill="currentColor"><path d="M17.78,10.07C17.45,10.02,17.1,10,16.75,10C15.81,10,14.92,10.19,14.11,10.53L17.7,6.96C18.25,6.41,18.65,6.41,19.2,6.96L19.3,7.05C19.85,7.6,19.85,8.01,19.3,8.55ZM4,9.23C4,6.48,4.97,5.5,7.73,5.5L14.55,5.5C15,5.5,15.25,5.75,15.25,6.2L15.25,6.29C15.25,6.75,15,6.99,14.55,6.99L7.38,6.99C6,6.99,5.5,7.47,5.5,8.85L5.5,17.12C5.5,18.49,6,18.99,7.38,18.99L10.38,18.99C10.56,19.53,10.81,20.03,11.12,20.49L7.72,20.49C4.97,20.49,3.99,19.52,3.99,16.77ZM7.32,13.05L7.38,12.98C7.92,12.43,8.35,12.43,8.9,12.98L10.27,14.35L10.53,14.09C10.19,14.9,9.99,15.8,9.99,16.75C9.99,16.88,10,17.03,10.01,17.16C9.85,17.09,9.69,16.98,9.52,16.8L7.29,14.58C6.74,14.03,6.77,13.6,7.31,13.05ZM16.75,11.52C19.62,11.52,21.98,13.87,21.98,16.75C21.98,19.6,19.63,21.98,16.75,21.98C13.9,21.98,11.52,19.6,11.52,16.75C11.52,13.88,13.9,11.52,16.75,11.52ZM16.75,20.5C17.22,20.5,17.48,20.25,17.48,19.8L17.48,17.5L19.8,17.5C20.25,17.5,20.5,17.25,20.5,16.77L20.5,16.7C20.5,16.25,20.25,16,19.77,16L17.47,16L17.47,13.73C17.47,13.25,17.22,13,16.77,13L16.7,13C16.23,13,15.97,13.25,15.97,13.7L15.97,16L13.7,16C13.25,16,13,16.25,13,16.73L13,16.8C13,17.25,13.25,17.5,13.73,17.5L15.98,17.5L15.98,19.77C15.98,20.25,16.22,20.5,16.67,20.5Z"/></svg>