<svg xmlns="http://www.w3.org/2000/svg" viewBox="0 0 24 24" fill="currentColor"><path d="M9.22,20.5C6.47,20.5,5.49,19.52,5.49,16.77L5.49,9.22C5.49,6.47,6.47,5.49,9.22,5.49L16.77,5.49C19.53,5.49,20.5,6.47,20.5,9.22L20.5,16.77C20.5,19.53,19.52,20.5,16.77,20.5ZM7,17.13C7,18.5,7.5,19,8.88,19L17.15,19C18.52,19,19,18.5,19,17.13L19,8.85C19,7.48,18.53,7,17.15,7L8.88,7C7.5,7,7,7.47,7,8.85ZM8.5,16.62L8.5,17.5L17.5,17.5L17.5,16.62C17.5,15.72,17.22,15.32,16.4,14.97L15.67,14.69C14.4,14.17,14.22,14.09,14.22,13.74C14.22,12.71,15.07,12.71,15.07,10.91C15.07,9.49,14.42,8.42,12.97,8.42C11.57,8.42,10.92,9.49,10.92,10.91C10.92,12.71,11.75,12.71,11.75,13.74C11.75,14.09,11.57,14.19,10.27,14.69L9.59,14.97C8.77,15.29,8.49,15.72,8.49,16.62Z"/></svg>