<svg xmlns="http://www.w3.org/2000/svg" viewBox="0 0 24 24" fill="currentColor"><path d="M13.95,12.38C13.82,12.71,13.63,13.04,13.35,13.31C13.07,13.59,12.7,13.81,12.35,13.96L15.45,17.71C16.73,19.23,17.75,19.19,18.48,18.48C19.2,17.75,19.2,16.76,17.7,15.48ZM8.23,8.51C9.41,9.68,7.91,11,9.21,12.28C10.2,13.31,11.48,13.08,12.23,12.3C14.01,10.52,12.08,7.08,7.5,7.78ZM5.5,9.23C5.5,6.47,6.47,5.5,9.23,5.5L16.78,5.5C19.53,5.5,20.51,6.48,20.51,9.23L20.51,16.78C20.51,19.53,19.53,20.51,16.78,20.51L9.23,20.51C6.47,20.51,5.5,19.53,5.5,16.78Z"/></svg>