<svg xmlns="http://www.w3.org/2000/svg" viewBox="0 0 24 24"><path d="M13.33,20L2.66,20C0.66,20,-0.01,19.33,-0.01,17.33L-0.01,6.66C-0.01,4.66,0.66,3.99,2.66,3.99L13.33,3.99C15.33,3.99,16,4.66,16,6.66L16,8.49L8.97,8.49C6.4,8.49,5.39,9.47,5.37,11.97C5.37,12,5.37,12.02,5.37,12.05L5.37,11.88C5.37,11.91,5.37,11.94,5.37,11.96C5.39,14.5,6.4,15.48,8.97,15.48L16,15.48L16,17.31C16,19.31,15.33,19.98,13.33,19.98Z" fill="currentColor"/><path d="M8.8,13.5C7.77,13.5,7.37,13.1,7.37,12.07L7.37,11.94C7.37,10.91,7.77,10.51,8.8,10.51L18,10.51L17.97,7.78C17.97,7.11,18.17,7.01,18.64,7.41L23.71,11.64C24.01,11.91,24.01,12.11,23.71,12.37L18.68,16.57C18.18,17,17.98,16.94,17.98,16.3L18.01,13.5Z" fill="currentColor"/></svg>