<svg xmlns="http://www.w3.org/2000/svg" viewBox="0 0 24 24" fill="currentColor"><path d="M5.5,9.22C5.5,6.47,6.47,5.49,9.23,5.49L16.78,5.49C19.53,5.49,20.51,6.47,20.51,9.22L20.51,16.77C20.51,19.53,19.53,20.5,16.78,20.5L9.23,20.5C6.47,20.5,5.5,19.52,5.5,16.77ZM8.88,7C7.5,7,7,7.47,7,8.85L7,17.13C7,18.5,7.5,19,8.88,19L17.15,19C18.52,19,19,18.5,19,17.13L19,8.85C19,7.48,18.53,7,17.15,7ZM9.88,13C9.26,13,9.13,12.72,9.53,12.23L12.3,8.95C12.8,8.35,13.2,8.35,13.71,8.95L16.48,12.23C16.88,12.73,16.76,13,16.13,13ZM13.05,17.5L12.96,17.5C12.18,17.5,11.88,17.2,11.88,16.43L11.88,12L14.13,12L14.13,16.43C14.13,17.2,13.83,17.5,13.06,17.5Z"/></svg>