<svg xmlns="http://www.w3.org/2000/svg" viewBox="0 0 24 24"><path d="M8.14,15.53C8.07,15.8,8.21,15.93,8.47,15.86L11.3,15.13C11.57,15.06,11.9,14.86,12.13,14.63L21.5,5.2C22.13,4.57,22.4,3.97,21.17,2.73C19.94,1.56,19.34,1.83,18.74,2.43L9.37,11.9C9.14,12.13,8.94,12.47,8.87,12.73Z" fill="currentColor"/><path d="M18,22L6,22C3.53,22,2,20.47,2,18L2,6C2,3.53,3.53,2,6,2L13.07,2C13.67,2,14,2.33,14,2.93L14,3.06C14,3.66,13.67,3.99,13.07,3.99L6.4,3.99C4.4,3.99,4,4.39,4,6.39L4,17.59C4,19.59,4.4,19.99,6.4,19.99L17.6,19.99C19.6,19.99,20,19.59,20,17.59L20,10.92C20,10.32,20.33,9.99,20.93,9.99L21.06,9.99C21.66,9.99,21.99,10.32,21.99,10.92L21.99,17.99C21.99,20.46,20.46,21.99,17.99,21.99Z" fill="currentColor"/></svg>