<svg xmlns="http://www.w3.org/2000/svg" viewBox="0 0 24 24" fill="currentColor"><path d="M9.22,20.5C6.47,20.5,5.49,19.52,5.49,16.77L5.49,9.22C5.49,6.47,6.47,5.49,9.22,5.49L16.77,5.49C19.53,5.49,20.5,6.47,20.5,9.22L20.5,16.77C20.5,19.53,19.52,20.5,16.77,20.5ZM7,17.13C7,18.5,7.5,19,8.88,19L17.15,19C18.52,19,19,18.5,19,17.13L19,8.85C19,7.48,18.53,7,17.15,7L8.88,7C7.5,7,7,7.47,7,8.85ZM13.4,9.23L13.45,9.15C13.77,8.83,14.13,8.83,14.45,9.15L17.54,12.25C18.09,12.8,18.09,13.2,17.54,13.75L14.45,16.85C14.13,17.17,13.77,17.17,13.45,16.85L13.38,16.77C13.05,16.45,13.05,16.1,13.38,15.77L16.2,13L13.4,10.22C13.08,9.9,13.08,9.55,13.4,9.23ZM8.5,13.05L8.5,12.96C8.5,12.5,8.67,12.26,9,12.26L16.23,12.26L16.23,13.76L9,13.76C8.68,13.76,8.5,13.51,8.5,13.06Z"/></svg>