<svg xmlns="http://www.w3.org/2000/svg" viewBox="0 0 24 24" fill="currentColor"><path d="M16.78,5.5C19.53,5.5,20.51,6.47,20.51,9.23L20.51,16.78C20.51,19.53,19.53,20.51,16.78,20.51L9.23,20.51C6.47,20.51,5.5,19.53,5.5,16.78L5.5,9.23C5.5,6.47,6.47,5.5,9.23,5.5ZM19,8.85C19,7.48,18.53,7,17.15,7L8.88,7C7.5,7,7,7.47,7,8.85L7,17.13C7,18.5,7.5,19,8.88,19L17.15,19C18.52,19,19,18.5,19,17.13ZM16.75,14.69C16.75,15.14,16.5,15.39,16.05,15.39L15.96,15.37C15.5,15.37,15.26,15.12,15.26,14.67L15.28,10.72L11.31,10.77C10.86,10.77,10.61,10.52,10.61,10.07L10.61,9.95C10.61,9.5,10.86,9.25,11.31,9.25L15.68,9.25C16.45,9.25,16.75,9.55,16.75,10.32ZM10.7,16.35C10.47,16.58,10.17,16.52,9.85,16.2L9.8,16.15C9.48,15.83,9.42,15.53,9.65,15.3L14.75,10.18L15.8,11.25Z"/></svg>