<svg xmlns="http://www.w3.org/2000/svg" viewBox="0 0 24 24" fill="currentColor"><path d="M14.5,16.1L14.5,14.8C14.5,12.15,13.7,11.5,10.75,11.5L7.62,11.5L7.62,10L10.75,10C14.7,10,16,11.15,16,14.8L16,16.1C16,16.52,15.72,16.75,15.25,16.75C14.78,16.75,14.5,16.52,14.5,16.1ZM7.62,13.83L4.57,11.43C3.95,10.92,3.95,10.58,4.57,10.08L7.64,7.68C8.17,7.25,8.49,7.43,8.49,8.1L8.49,13.41C8.49,14.1,8.17,14.25,7.61,13.83ZM22,8.5L22,17.5C22,19.35,20.85,20.5,19,20.5L10,20.5C8.15,20.5,7,19.35,7,17.5L7,16.7C7,16.25,7.25,16,7.7,16L7.79,16C8.25,16,8.49,16.25,8.49,16.7L8.49,17.2C8.49,18.7,8.79,19,10.29,19L18.69,19C20.19,19,20.49,18.7,20.49,17.2L20.49,8.8C20.49,7.3,20.19,7,18.69,7L12.19,7C11.74,7,11.49,6.75,11.49,6.3L11.49,6.21C11.49,5.76,11.74,5.51,12.19,5.51L18.99,5.51C20.84,5.51,21.99,6.66,21.99,8.51Z"/></svg>