<svg xmlns="http://www.w3.org/2000/svg" viewBox="0 0 24 24" fill="currentColor"><path d="M9.22,20.5C6.47,20.5,5.49,19.52,5.49,16.77L5.49,9.22C5.49,6.47,6.47,5.49,9.22,5.49L16.77,5.49C19.53,5.49,20.5,6.47,20.5,9.22L20.5,16.77C20.5,19.53,19.52,20.5,16.77,20.5ZM8.5,10.02C8.5,10.47,8.75,10.72,9.2,10.72L16.8,10.72C17.25,10.72,17.49,10.47,17.49,10.02L17.49,9.93C17.49,9.48,17.25,9.23,16.8,9.23L9.2,9.23C8.75,9.23,8.5,9.48,8.5,9.93ZM8.5,16.02C8.5,16.47,8.75,16.72,9.2,16.72L13.79,16.72C14.25,16.72,14.49,16.47,14.49,16.02L14.49,15.92C14.49,15.47,14.25,15.23,13.79,15.23L9.2,15.23C8.75,15.23,8.5,15.47,8.5,15.92ZM8.5,13.02C8.5,13.47,8.75,13.72,9.2,13.72L16.8,13.72C17.25,13.72,17.49,13.47,17.49,13.02L17.49,12.93C17.49,12.48,17.25,12.23,16.8,12.23L9.2,12.23C8.75,12.23,8.5,12.48,8.5,12.93Z"/></svg>