<svg xmlns="http://www.w3.org/2000/svg" viewBox="0 0 24 24" fill="currentColor"><path d="M5.5,9.22C5.5,6.47,6.47,5.49,9.23,5.49L16.78,5.49C19.53,5.49,20.51,6.47,20.51,9.22L20.51,16.77C20.51,19.53,19.53,20.5,16.78,20.5L9.23,20.5C6.47,20.5,5.5,19.52,5.5,16.77ZM8.88,7C7.5,7,7,7.47,7,8.85L7,17.13C7,18.5,7.5,19,8.88,19L17.15,19C18.52,19,19,18.5,19,17.13L19,8.85C19,7.48,18.53,7,17.15,7ZM15.75,15.25L10.26,15.25C9.63,15.25,9.45,14.95,9.81,14.42L12.41,10.6C12.84,9.95,13.18,9.95,13.61,10.6L16.21,14.42C16.56,14.95,16.38,15.25,15.76,15.25Z"/></svg>