<svg xmlns="http://www.w3.org/2000/svg" viewBox="0 0 24 24" fill="currentColor"><path d="M9.22,20.5C6.47,20.5,5.49,19.52,5.49,16.77L5.49,9.22C5.49,6.47,6.47,5.49,9.22,5.49L16.77,5.49C19.53,5.49,20.5,6.47,20.5,9.22L20.5,16.77C20.5,19.53,19.52,20.5,16.77,20.5ZM7,17.13C7,18.5,7.5,19,8.88,19L17.15,19C18.52,19,19,18.5,19,17.13L19,8.85C19,7.48,18.53,7,17.15,7L8.88,7C7.5,7,7,7.47,7,8.85ZM11.97,13.12C11.97,13.67,12.18,13.87,12.7,13.87L13.02,13.87C15.48,13.87,16.45,12.57,16.45,11.12C16.45,8.32,12.87,7.35,10.13,9.45C9.73,9.8,9.7,10.07,10,10.5L10.08,10.57C10.4,11,10.68,11.04,11.07,10.7C12.63,9.63,14.95,9.57,14.95,11.17C14.95,12.07,14.2,12.37,13.02,12.37L12.72,12.37C12.18,12.37,11.97,12.57,11.97,13.1ZM13.98,16.35C13.98,15.73,13.6,15.36,12.98,15.36C12.36,15.36,11.98,15.73,11.98,16.35C11.98,16.97,12.36,17.35,12.98,17.35C13.6,17.35,13.98,16.98,13.98,16.35Z"/></svg>