<svg xmlns="http://www.w3.org/2000/svg" viewBox="0 0 24 24"><path d="M19.33,14C20,14,20,14,20,13.33L20,4.66C20,3.99,20,3.99,19.33,3.99L10.66,3.99C9.99,3.99,9.99,3.99,9.99,4.66L9.99,13.33C9.99,14,9.99,14,10.66,14Z" fill="currentColor"/><path d="M10.66,16C8.66,16,7.99,15.33,7.99,13.33L7.99,4.66C7.99,2.66,8.66,1.99,10.66,1.99L19.33,1.99C21.33,1.99,22,2.66,22,4.66L22,13.33C22,15.33,21.33,16,19.33,16Z" fill="currentColor"/><path d="M6,10L4.67,10C4,10,4,10,4,10.67L4,19.34C4,20.01,4,20.01,4.67,20.01L13.34,20.01C14.01,20.01,14.01,20.01,14.01,19.34L14.01,18.01L16.01,18.01L16.01,19.34C16.01,21.34,15.34,22.01,13.34,22.01L4.67,22.01C2.67,22.01,2,21.34,2,19.34L2,10.67C2,8.67,2.67,8,4.67,8L6,8Z" fill="currentColor"/></svg>