<svg xmlns="http://www.w3.org/2000/svg" viewBox="0 0 24 24" fill="currentColor"><path d="M9.22,20.5C6.47,20.5,5.49,19.52,5.49,16.77L5.49,9.22C5.49,6.47,6.47,5.49,9.22,5.49L16.77,5.49C19.53,5.49,20.5,6.47,20.5,9.22L20.5,16.77C20.5,19.53,19.52,20.5,16.77,20.5ZM10.92,17.57C11.47,18.12,11.88,18.12,12.42,17.57L16.25,13.75C16.79,13.2,16.79,12.8,16.25,12.25L12.42,8.43C11.87,7.88,11.47,7.88,10.92,8.43L10.82,8.52C10.28,9.07,10.28,9.48,10.82,10.02L13.8,13L10.82,15.98C10.28,16.52,10.28,16.93,10.82,17.48Z"/></svg>