<svg xmlns="http://www.w3.org/2000/svg" viewBox="0 0 24 24" fill="currentColor"><path d="M9.22,20.5C6.47,20.5,5.49,19.52,5.49,16.77L5.49,9.22C5.49,6.47,6.47,5.49,9.22,5.49L16.77,5.49C19.53,5.49,20.5,6.47,20.5,9.22L20.5,16.77C20.5,19.53,19.52,20.5,16.77,20.5ZM12.25,9.87C12.25,9.25,11.97,9.12,11.48,9.52L8.2,12.29C7.6,12.8,7.6,13.19,8.2,13.7L11.48,16.47C11.98,16.87,12.25,16.75,12.25,16.12L12.25,14.12L17.18,14.12C17.95,14.12,18.25,13.82,18.25,13.05L18.25,12.95C18.25,12.18,17.95,11.88,17.18,11.88L12.25,11.88Z"/></svg>