<svg xmlns="http://www.w3.org/2000/svg" viewBox="0 0 24 24" fill="currentColor"><path d="M18.05,19.6L13.95,21.33C12.54,21.87,12,21.87,10.59,21.33L6.49,19.6C5.09,19.05,5.09,18.8,6.49,18.25L9.99,16.79L9.99,17.35C9.99,18.55,10.22,18.87,11.37,19.25L11.49,19.3L11.49,16.17L11.49,6.2C11.49,5.75,11.74,5.5,12.19,5.5L12.24,5.5L12.3,5.5L21.12,5.5C21.9,5.5,22,5.72,21.52,6.35L19.14,9.29L21.52,12.17C21.99,12.77,21.9,12.99,21.12,12.99L13,12.99L13,16.14L13,19.29L13.15,19.24C14.28,18.86,14.52,18.54,14.52,17.34L14.52,16.78L18.05,18.24C19.45,18.79,19.45,19.04,18.05,19.59Z"/></svg>