<svg xmlns="http://www.w3.org/2000/svg" viewBox="0 0 24 24" fill="currentColor"><path d="M5.5,9.23C5.5,6.48,6.47,5.5,9.23,5.5L16.78,5.5C19.24,5.5,20.28,6.28,20.47,8.42C19.8,8.04,19.04,7.82,18.24,7.83C15.84,7.83,13.76,9.9,13.76,12.3C13.76,13.9,14.68,15.36,16.01,16.15C16.01,17.95,16.01,19.23,16.01,20.51L9.24,20.51C6.48,20.51,5.51,19.53,5.51,16.78ZM21.25,20.5L17.5,20.5L17.5,15L19,15.03L19,19L21.25,19ZM15.25,12.3C15.25,10.67,16.6,9.32,18.25,9.32C19.9,9.3,21.25,10.65,21.25,12.3C21.25,13.95,19.9,15.3,18.25,15.28C16.6,15.28,15.25,13.93,15.25,12.3ZM16.75,12.35C16.75,13.15,17.42,13.8,18.25,13.83C19.08,13.83,19.75,13.2,19.75,12.35C19.75,11.47,19.08,10.83,18.25,10.83C17.42,10.83,16.75,11.52,16.75,12.35Z"/></svg>