<svg xmlns="http://www.w3.org/2000/svg" viewBox="0 0 24 24" fill="currentColor"><path d="M9.22,20.5C6.47,20.5,5.49,19.52,5.49,16.77L5.49,9.22C5.49,6.47,6.47,5.49,9.22,5.49L16.77,5.49C19.53,5.49,20.5,6.47,20.5,9.22L20.5,16.77C20.5,19.53,19.52,20.5,16.77,20.5ZM7.75,18.25L18.25,18.25L18.25,17.22C18.25,16.17,17.93,15.7,16.95,15.29L16.13,14.97C14.63,14.37,14.42,14.27,14.42,13.87C14.42,12.67,15.42,12.67,15.42,10.57C15.42,8.92,14.67,7.64,12.97,7.64C11.34,7.64,10.57,8.92,10.57,10.57C10.57,12.67,11.52,12.67,11.52,13.87C11.52,14.27,11.35,14.39,9.82,15L9.05,15.29C8.07,15.69,7.75,16.17,7.75,17.22Z"/></svg>