<svg xmlns="http://www.w3.org/2000/svg" viewBox="0 0 24 24" fill="currentColor"><path d="M13.49,14.5C11.99,14.5,11.49,14,11.49,12.5L11.49,7.5C11.49,6,11.99,5.49,13.49,5.49L18.5,5.49C20,5.49,20.5,6,20.5,7.5L20.5,12.5C20.5,14,20,14.5,18.5,14.5ZM12.25,20.5L7.5,20.5C6,20.5,5.5,20,5.5,18.5L5.5,13.75C5.5,12.35,5.9,11.73,7,11.55L7,15.5C7,18.13,7.88,19.01,10.5,19.01L14.45,19.01C14.28,20.11,13.65,20.51,12.26,20.51ZM15.25,17.5L10.5,17.5C9,17.5,8.5,17,8.5,15.5L8.5,10.75C8.5,9.35,8.9,8.72,10,8.55L10,12.5C10,15.13,10.88,16.01,13.5,16.01L17.46,16.01C17.28,17.11,16.65,17.51,15.26,17.51Z"/></svg>