<svg xmlns="http://www.w3.org/2000/svg" viewBox="0 0 24 24" fill="currentColor"><path d="M9.22,20.5C6.47,20.5,5.49,19.52,5.49,16.77L5.49,9.22C5.49,6.47,6.47,5.49,9.22,5.49L16.77,5.49C19.53,5.49,20.5,6.47,20.5,9.22L20.5,16.77C20.5,19.53,19.52,20.5,16.77,20.5ZM7,17.13C7,18.5,7.5,19,8.88,19L17.15,19C18.52,19,19,18.5,19,17.13L19,8.85C19,7.48,18.53,7,17.15,7L8.88,7C7.5,7,7,7.47,7,8.85ZM12.23,16.02C12.23,16.5,12.48,16.75,12.93,16.75L13,16.75C13.47,16.75,13.73,16.5,13.73,16.05L13.73,13.75L16.05,13.75C16.5,13.75,16.75,13.5,16.75,13.02L16.75,12.95C16.75,12.5,16.5,12.25,16.02,12.25L13.72,12.25L13.72,9.98C13.72,9.51,13.47,9.25,13.02,9.25L12.95,9.25C12.48,9.25,12.22,9.5,12.22,9.95L12.22,12.25L9.95,12.25C9.5,12.25,9.25,12.5,9.25,12.98L9.25,13.05C9.25,13.5,9.5,13.75,9.98,13.75L12.23,13.75Z"/></svg>