<svg xmlns="http://www.w3.org/2000/svg" viewBox="0 0 24 24" fill="currentColor"><path d="M11.5,14.83C11.5,14.06,11.8,13.76,12.57,13.76L19.42,13.76C20.19,13.76,20.49,14.06,20.49,14.83L20.49,20.93C20.49,21.7,20.19,22,19.42,22L12.57,22C11.8,22,11.5,21.7,11.5,20.93ZM5.5,5.08C5.5,4.31,5.8,4.01,6.57,4.01L13.42,4.01C14.19,4.01,14.49,4.31,14.49,5.08L14.49,11.18C14.49,11.95,14.19,12.25,13.42,12.25L6.57,12.25C5.8,12.25,5.5,11.95,5.5,11.18ZM9.45,20.1L6.53,18.13C6.25,17.96,6.25,17.81,6.53,17.63L9.47,15.63C9.87,15.35,10.02,15.45,10.02,15.95L10.02,19.85C10.02,20.32,9.87,20.39,9.45,20.09ZM15.98,10.05L15.98,6.15C15.98,5.68,16.13,5.61,16.55,5.91L19.48,7.88C19.76,8.05,19.76,8.2,19.48,8.38L16.53,10.38C16.13,10.66,15.98,10.55,15.98,10.06Z"/></svg>