<svg xmlns="http://www.w3.org/2000/svg" viewBox="0 0 24 24" fill="currentColor"><path d="M5.5,9.22C5.5,6.47,6.47,5.49,9.23,5.49L16.78,5.49C19.53,5.49,20.51,6.47,20.51,9.22L20.51,16.77C20.51,19.53,19.53,20.5,16.78,20.5L9.23,20.5C6.47,20.5,5.5,19.52,5.5,16.77ZM8.88,7C7.5,7,7,7.47,7,8.85L7,17.13C7,18.5,7.5,19,8.88,19L17.15,19C18.52,19,19,18.5,19,17.13L19,8.85C19,7.48,18.53,7,17.15,7ZM9.96,15.4C9.5,15.4,9.26,15.15,9.26,14.7L9.26,10.33C9.26,9.56,9.56,9.26,10.33,9.26L14.7,9.26C15.15,9.26,15.4,9.51,15.4,9.96L15.4,10.08C15.4,10.53,15.15,10.78,14.7,10.78L10.73,10.73L10.75,14.68C10.75,15.13,10.5,15.38,10.05,15.38ZM16.15,16.2C15.83,16.52,15.53,16.58,15.3,16.35L10.2,11.25L11.25,10.18L16.35,15.3C16.58,15.53,16.52,15.83,16.2,16.15Z"/></svg>