<svg xmlns="http://www.w3.org/2000/svg" viewBox="0 0 24 24"><path d="M17.03,22L6.96,22C3.29,22,1.99,20.7,1.99,17.03L1.99,6.96C1.99,3.29,3.29,1.99,6.96,1.99L16.06,1.99C16.66,1.99,16.99,2.32,16.99,2.92L16.99,3.05C16.99,3.65,16.66,3.98,16.06,3.98L6.49,3.98C4.66,3.98,3.99,4.61,3.99,6.45L3.99,17.48C3.99,19.31,4.66,19.98,6.49,19.98L17.52,19.98C19.35,19.98,19.99,19.31,19.99,17.48L19.99,12.91C19.99,12.31,20.32,11.98,20.92,11.98L21.05,11.98C21.65,11.98,21.98,12.31,21.98,12.91L21.98,17.01C21.98,20.68,20.68,21.98,17.01,21.98Z" fill="currentColor"/><path d="M22.4,6.07L11.37,17.1C10.64,17.83,10.1,17.8,9.37,17.07L6.4,14.1C5.67,13.37,5.7,12.8,6.43,12.07L6.5,11.97C7.23,11.24,7.8,11.24,8.53,11.97L10.36,13.8L20.26,3.93C20.99,3.2,21.53,3.2,22.26,3.93L22.39,4.06C23.12,4.79,23.12,5.33,22.39,6.06Z" fill="currentColor"/></svg>