<svg xmlns="http://www.w3.org/2000/svg" viewBox="0 0 24 24"><path d="M2,6.96C2,3.29,3.3,1.99,6.97,1.99L17.04,1.99C20.71,1.99,22.01,3.29,22.01,6.96L22.01,17.03C22.01,20.7,20.71,22,17.04,22L6.97,22C3.3,22,2,20.7,2,17.03Z" fill="currentColor"/><path d="M6,12L5.87,12.13C5.14,12.86,5.14,13.4,5.87,14.13L10.1,18.36C11.53,19.79,12.47,19.79,13.9,18.36L18.13,14.13C18.86,13.4,18.86,12.86,18.13,12.13L18,12C17.27,11.27,16.73,11.3,16,12.03L13.5,14.53L13.5,6C13.5,5.27,13.1,5,12.07,5L11.94,5C10.91,5,10.51,5.27,10.51,6L10.51,14.53L8.01,12.03C7.28,11.3,6.74,11.26,6.01,12Z" fill="currentColor"/></svg>