<svg xmlns="http://www.w3.org/2000/svg" viewBox="0 0 24 24"><path d="M17.04,2C20.71,2,22.01,3.3,22.01,6.97L22.01,17.04C22.01,20.71,20.71,22.01,17.04,22.01L6.97,22.01C3.3,22.01,2,20.71,2,17.04L2,6.97C2,3.3,3.3,2,6.97,2Z" fill="currentColor"/><path d="M20,6.47C20,4.64,19.37,4,17.53,4L6.5,4C4.67,4,4,4.63,4,6.47L4,17.5C4,19.33,4.67,20,6.5,20L17.53,20C19.36,20,20,19.33,20,17.5Z" fill="currentColor"/><path d="M17,14.26C17,14.86,16.67,15.19,16.07,15.19L15.94,15.16C15.34,15.16,15.01,14.83,15.01,14.23L15.04,8.96L9.74,9.03C9.14,9.03,8.81,8.7,8.81,8.1L8.81,7.93C8.81,7.33,9.14,7,9.74,7L15.57,7C16.6,7,17,7.4,17,8.43Z" fill="currentColor"/><path d="M8.93,16.47C8.63,16.77,8.23,16.7,7.8,16.27L7.73,16.2C7.3,15.77,7.23,15.37,7.53,15.07L14.33,8.24L15.73,9.67Z" fill="currentColor"/></svg>