<svg xmlns="http://www.w3.org/2000/svg" viewBox="0 0 24 24"><path d="M6.96,22C3.29,22,1.99,20.7,1.99,17.03L1.99,6.96C1.99,3.29,3.29,1.99,6.96,1.99L17.03,1.99C20.7,1.99,22,3.29,22,6.96L22,17.03C22,20.7,20.7,22,17.03,22Z" fill="currentColor"/><path d="M5,19L19,19L19,17.63C19,16.23,18.57,15.6,17.27,15.06L16.17,14.63C14.17,13.83,13.9,13.7,13.9,13.16C13.9,11.56,15.23,11.56,15.23,8.76C15.23,6.56,14.23,4.86,11.96,4.86C9.79,4.86,8.76,6.56,8.76,8.76C8.76,11.56,10.03,11.56,10.03,13.16C10.03,13.69,9.8,13.86,7.76,14.66L6.73,15.06C5.43,15.59,5,16.23,5,17.63Z" fill="currentColor"/></svg>