<svg xmlns="http://www.w3.org/2000/svg" viewBox="0 0 24 24" fill="currentColor"><path d="M10,14.8C10,11.15,11.3,10,15.25,10L18.38,10L18.38,11.5L15.25,11.5C12.3,11.5,11.5,12.15,11.5,14.8L11.5,16.1C11.5,16.52,11.22,16.75,10.75,16.75C10.28,16.75,10,16.52,10,16.1ZM18.35,7.68L21.42,10.08C22.04,10.58,22.04,10.92,21.42,11.43L18.37,13.83C17.82,14.25,17.49,14.1,17.49,13.4L17.49,8.1C17.49,7.42,17.81,7.25,18.34,7.67ZM16,20.5L7,20.5C5.15,20.5,4,19.35,4,17.5L4,8.5C4,6.65,5.15,5.5,7,5.5L13.8,5.5C14.25,5.5,14.5,5.75,14.5,6.2L14.5,6.29C14.5,6.74,14.25,6.99,13.8,6.99L7.3,6.99C5.8,6.99,5.5,7.29,5.5,8.79L5.5,17.19C5.5,18.69,5.8,18.99,7.3,18.99L15.7,18.99C17.2,18.99,17.5,18.69,17.5,17.19L17.5,16.69C17.5,16.24,17.75,15.99,18.2,15.99L18.29,15.99C18.75,15.99,18.99,16.24,18.99,16.69L18.99,17.49C18.99,19.34,17.84,20.49,15.99,20.49Z"/></svg>