<svg xmlns="http://www.w3.org/2000/svg" viewBox="0 0 24 24" fill="currentColor"><path d="M9.22,20.5C6.47,20.5,5.49,19.52,5.49,16.77L5.49,9.22C5.49,6.47,6.47,5.49,9.22,5.49L16.77,5.49C19.53,5.49,20.5,6.47,20.5,9.22L20.5,16.77C20.5,19.53,19.52,20.5,16.77,20.5ZM7,17.13C7,18.5,7.5,19,8.88,19L17.15,19C18.52,19,19,18.5,19,17.13L19,8.85C19,7.48,18.53,7,17.15,7L8.88,7C7.5,7,7,7.47,7,8.85ZM9.18,10.03C9.18,10.48,9.4,10.73,9.78,10.73L16.13,10.73C16.58,10.73,16.83,10.5,16.83,10.13L16.83,9.92C16.83,9.47,16.62,9.23,16.23,9.23L9.87,9.23C9.42,9.23,9.18,9.43,9.18,9.83ZM9.18,16.03C9.18,16.48,9.4,16.73,9.78,16.73L13.58,16.73C14.03,16.73,14.28,16.5,14.28,16.13L14.28,15.92C14.28,15.47,14.07,15.23,13.68,15.23L9.87,15.23C9.42,15.23,9.18,15.43,9.18,15.83ZM9.18,13.03C9.18,13.48,9.4,13.73,9.78,13.73L16.13,13.73C16.58,13.73,16.83,13.5,16.83,13.13L16.83,12.92C16.83,12.47,16.62,12.23,16.23,12.23L9.87,12.23C9.42,12.23,9.18,12.43,9.18,12.83Z"/></svg>