<svg xmlns="http://www.w3.org/2000/svg" viewBox="0 0 24 24" fill="currentColor"><path d="M14,19L5.99,19C4.49,19,3.99,18.5,3.99,17L3.99,8.99C3.99,7.49,4.49,6.99,5.99,6.99L14,6.99C15.5,6.99,16,7.49,16,8.99L16,10.37L10.73,10.37C8.8,10.37,8.04,11.1,8.03,12.98C8.03,13,8.03,13.02,8.03,13.04L8.03,12.91C8.03,12.93,8.03,12.95,8.03,12.97C8.04,14.87,8.8,15.61,10.73,15.61L16,15.61L16,16.98C16,18.48,15.5,18.98,14,18.98ZM10.6,14.13C9.83,14.13,9.53,13.83,9.53,13.05L9.53,12.96C9.53,12.18,9.83,11.88,10.6,11.88L17.5,11.88L17.48,9.83C17.48,9.33,17.63,9.26,17.98,9.56L21.78,12.73C22.01,12.93,22.01,13.08,21.78,13.28L18.01,16.43C17.63,16.75,17.48,16.71,17.48,16.23L17.51,14.13Z"/></svg>