<svg xmlns="http://www.w3.org/2000/svg" viewBox="0 0 24 24" fill="currentColor"><path d="M16,11.2C16,14.85,14.7,16,10.75,16L7.62,16L7.62,14.5L10.75,14.5C13.7,14.5,14.5,13.85,14.5,11.2L14.5,9.9C14.5,9.47,14.78,9.25,15.25,9.25C15.72,9.25,16,9.48,16,9.9ZM7.65,18.33L4.58,15.93C3.95,15.42,3.95,15.08,4.58,14.58L7.63,12.18C8.18,11.75,8.51,11.9,8.51,12.6L8.51,17.91C8.51,18.58,8.19,18.75,7.66,18.33ZM10,5.5L19,5.5C20.85,5.5,22,6.65,22,8.5L22,17.5C22,19.35,20.85,20.5,19,20.5L12.2,20.5C11.75,20.5,11.5,20.25,11.5,19.8L11.5,19.71C11.5,19.25,11.75,19.01,12.2,19.01L18.7,19.01C20.2,19.01,20.5,18.71,20.5,17.21L20.5,8.81C20.5,7.31,20.2,7.01,18.7,7.01L10.3,7.01C8.8,7.01,8.5,7.31,8.5,8.81L8.5,9.31C8.5,9.76,8.25,10.01,7.8,10.01L7.71,10.01C7.26,10.01,7.01,9.76,7.01,9.31L7.01,8.51C7.01,6.66,8.16,5.51,10.01,5.51Z"/></svg>