<svg xmlns="http://www.w3.org/2000/svg" viewBox="0 0 24 24" fill="currentColor"><path d="M9.22,20.5C6.47,20.5,5.49,19.52,5.49,16.77L5.49,9.22C5.49,6.47,6.47,5.49,9.22,5.49L16.77,5.49C19.53,5.49,20.5,6.47,20.5,9.22L20.5,16.77C20.5,19.53,19.52,20.5,16.77,20.5ZM7,17.13C7,18.5,7.5,19,8.88,19L17.15,19C18.52,19,19,18.5,19,17.13L19,8.85C19,7.48,18.53,7,17.15,7L8.88,7C7.5,7,7,7.47,7,8.85ZM12.25,17.55L9.15,14.46C8.83,14.13,8.83,13.78,9.15,13.46L9.23,13.4C9.55,13.08,9.9,13.08,10.23,13.4L13,16.2L15.77,13.38C16.1,13.05,16.45,13.05,16.77,13.38L16.85,13.45C17.17,13.77,17.17,14.13,16.85,14.45L13.75,17.54C13.2,18.09,12.8,18.09,12.25,17.54ZM12.25,9C12.25,8.68,12.5,8.5,12.95,8.5L13.04,8.5C13.5,8.5,13.74,8.67,13.74,9L13.74,16.23L12.24,16.23Z"/></svg>