<svg xmlns="http://www.w3.org/2000/svg" viewBox="0 0 24 24"><path d="M17.33,24L6.66,24C4.66,24,3.99,23.33,3.99,21.33L3.99,10.66C3.99,8.66,4.66,7.99,6.66,7.99L8.49,7.99L8.49,15.02C8.49,17.59,9.47,18.6,12.01,18.62C12.04,18.62,12.07,18.62,12.09,18.62L11.92,18.62C11.95,18.62,11.98,18.62,12,18.62C14.51,18.6,15.48,17.59,15.48,15.02L15.48,7.99L17.31,7.99C19.31,7.99,19.98,8.66,19.98,10.66L19.98,21.33C19.98,23.33,19.31,24,17.31,24Z" fill="currentColor"/><path d="M12.07,16.63L11.94,16.63C10.91,16.63,10.51,16.23,10.51,15.2L10.51,6L7.71,6.03C7.08,6.03,7.01,5.83,7.44,5.33L11.64,0.3C11.91,0,12.11,0,12.37,0.3L16.6,5.37C17,5.84,16.9,6.04,16.23,6.04L13.5,6.01L13.5,15.21C13.5,16.24,13.1,16.64,12.07,16.64Z" fill="currentColor"/></svg>