<svg xmlns="http://www.w3.org/2000/svg" viewBox="0 0 24 24"><path d="M10,14.44C10,13.41,10.4,13.01,11.43,13.01L20.56,13.01C21.59,13.01,21.99,13.41,21.99,14.44L21.99,22.57C21.99,23.6,21.59,24,20.56,24L11.43,24C10.4,24,10,23.6,10,22.57Z" fill="currentColor"/><path d="M2,1.44C2,0.41,2.4,0.01,3.43,0.01L12.56,0.01C13.59,0.01,13.99,0.41,13.99,1.44L13.99,9.57C13.99,10.6,13.59,11,12.56,11L3.43,11C2.4,11,2,10.6,2,9.57Z" fill="currentColor"/><path d="M7.27,21.47L3.37,18.84C3,18.61,3,18.41,3.37,18.17L7.3,15.5C7.83,15.13,8.03,15.27,8.03,15.93L8.03,21.13C8.03,21.76,7.83,21.86,7.26,21.46Z" fill="currentColor"/><path d="M15.97,8.07L15.97,2.87C15.97,2.24,16.17,2.14,16.74,2.54L20.64,5.17C21.01,5.4,21.01,5.6,20.64,5.84L16.71,8.51C16.18,8.88,15.98,8.74,15.98,8.08Z" fill="currentColor"/></svg>