<svg xmlns="http://www.w3.org/2000/svg" viewBox="0 0 24 24" fill="currentColor"><path d="M16.78,5.5C19.53,5.5,20.51,6.47,20.51,9.23L20.51,16.78C20.51,19.53,19.53,20.51,16.78,20.51L9.23,20.51C6.47,20.51,5.5,19.53,5.5,16.78L5.5,9.23C5.5,6.47,6.47,5.5,9.23,5.5ZM13.75,16.13C13.75,16.75,14.03,16.88,14.52,16.48L17.8,13.71C18.4,13.2,18.4,12.81,17.8,12.3L14.52,9.53C14.02,9.13,13.75,9.25,13.75,9.88L13.75,11.88L8.82,11.88C8.05,11.88,7.75,12.18,7.75,12.96L7.75,13.05C7.75,13.83,8.05,14.13,8.82,14.13L13.75,14.13Z"/></svg>