<svg xmlns="http://www.w3.org/2000/svg" viewBox="0 0 24 24"><path d="M22,17.04C22,20.71,20.7,22.01,17.03,22.01L6.96,22.01C3.29,22.01,1.99,20.71,1.99,17.04L1.99,6.97C1.99,3.3,3.29,2,6.96,2L17.03,2C20.7,2,22,3.3,22,6.97Z" fill="currentColor"/><path d="M17.53,20C19.36,20,20,19.33,20,17.5L20,6.47C20,4.64,19.37,4,17.53,4L6.5,4C4.67,4,4,4.63,4,6.47L4,17.5C4,19.33,4.67,20,6.5,20Z" fill="currentColor"/><path d="M16.06,8.8C16.66,8.8,16.99,9.13,16.99,9.73L16.99,15.56C16.99,16.59,16.59,16.99,15.56,16.99L9.73,16.99C9.13,16.99,8.8,16.66,8.8,16.06L8.8,15.89C8.8,15.29,9.13,14.96,9.73,14.96L15.03,15.03L15,9.76C15,9.16,15.33,8.83,15.93,8.83Z" fill="currentColor"/><path d="M7.8,7.73C8.23,7.3,8.63,7.23,8.93,7.53L15.73,14.33L14.33,15.76L7.53,8.93C7.23,8.63,7.3,8.23,7.73,7.8Z" fill="currentColor"/></svg>