<svg xmlns="http://www.w3.org/2000/svg" viewBox="0 0 24 24" fill="currentColor"><path d="M10.49,17.5C8.99,17.5,8.49,17,8.49,15.5L8.49,10.49C8.49,8.99,8.99,8.49,10.49,8.49L15.5,8.49C17,8.49,17.5,8.99,17.5,10.49L17.5,15.5C17.5,17,17,17.5,15.5,17.5ZM13.3,21.55C13.08,21.78,12.93,21.78,12.7,21.55L10.83,19.47C10.5,19.1,10.58,18.97,11.07,18.97L14.97,18.97C15.45,18.97,15.5,19.12,15.15,19.5ZM7.02,11.07L7.02,14.97C7.02,15.44,6.87,15.5,6.5,15.14L4.45,13.29C4.22,13.07,4.22,12.92,4.45,12.69L6.53,10.82C6.9,10.5,7.03,10.57,7.03,11.06ZM14.93,7.02L11.03,7.02C10.55,7.02,10.5,6.87,10.86,6.5L12.71,4.45C12.93,4.22,13.08,4.22,13.31,4.45L15.18,6.53C15.5,6.9,15.43,7.03,14.94,7.03ZM21.55,13.3L19.47,15.17C19.1,15.5,18.97,15.42,18.97,14.93L18.97,11.03C18.97,10.55,19.12,10.5,19.49,10.86L21.54,12.71C21.77,12.93,21.77,13.08,21.54,13.31Z"/></svg>