<svg xmlns="http://www.w3.org/2000/svg" viewBox="0 0 24 24"><path d="M6.96,22C3.29,22,1.99,20.7,1.99,17.03L1.99,6.96C1.99,3.29,3.29,1.99,6.96,1.99L17.03,1.99C20.7,1.99,22,3.29,22,6.96L22,17.03C22,20.7,20.7,22,17.03,22Z" fill="currentColor"/><path d="M6,8.03C6,8.63,6.33,8.96,6.93,8.96L17.06,8.96C17.66,8.96,17.99,8.63,17.99,8.03L17.99,7.9C17.99,7.3,17.66,6.97,17.06,6.97L6.93,6.97C6.33,6.97,6,7.3,6,7.9Z" fill="currentColor"/><path d="M6,16.03C6,16.63,6.33,16.96,6.93,16.96L13.06,16.96C13.66,16.96,13.99,16.63,13.99,16.03L13.99,15.9C13.99,15.3,13.66,14.97,13.06,14.97L6.93,14.97C6.33,14.97,6,15.3,6,15.9Z" fill="currentColor"/><path d="M6,12.03C6,12.63,6.33,12.96,6.93,12.96L17.06,12.96C17.66,12.96,17.99,12.63,17.99,12.03L17.99,11.9C17.99,11.3,17.66,10.97,17.06,10.97L6.93,10.97C6.33,10.97,6,11.3,6,11.9Z" fill="currentColor"/></svg>