<svg xmlns="http://www.w3.org/2000/svg" viewBox="0 0 24 24" fill="currentColor"><path d="M17.5,20.5L8.5,20.5C6.65,20.5,5.5,19.35,5.5,17.5L5.5,8.5C5.5,6.65,6.65,5.5,8.5,5.5L13.8,5.5C14.25,5.5,14.5,5.75,14.5,6.2L14.5,6.29C14.5,6.74,14.25,6.99,13.8,6.99L8.8,6.99C7.3,6.99,7,7.29,7,8.79L7,17.19C7,18.69,7.3,18.99,8.8,18.99L17.2,18.99C18.7,18.99,19,18.69,19,17.19L19,12.19C19,11.74,19.25,11.49,19.7,11.49L19.79,11.49C20.25,11.49,20.49,11.74,20.49,12.19L20.49,17.49C20.49,19.34,19.34,20.49,17.49,20.49ZM10.73,15.27C11.91,14.1,10.41,12.5,11.7,11.22C12.7,10.2,13.98,10.42,14.73,11.2C16.5,12.98,14.33,16.45,10,16ZM16.45,11.13C16.32,10.8,16.13,10.47,15.85,10.2C15.57,9.93,15.2,9.7,14.85,9.55L17.95,5.8C19.22,4.28,20.25,4.32,20.97,5.03C21.7,5.75,21.7,6.75,20.2,8.03Z"/></svg>