<svg xmlns="http://www.w3.org/2000/svg" viewBox="0 0 24 24"><path d="M10.67,4L21.34,4C23.34,4,24.01,4.67,24.01,6.67L24.01,17.34C24.01,19.34,23.34,20.01,21.34,20.01L10.67,20.01C8.67,20.01,8,19.34,8,17.34L8,15.51L15.07,15.51C17.61,15.51,18.62,14.53,18.64,11.99C18.64,11.96,18.64,11.93,18.64,11.91L18.64,12.08C18.64,12.05,18.64,12.02,18.64,12C18.62,9.49,17.61,8.52,15.07,8.52L8,8.52L8,6.69C8,4.69,8.67,4.02,10.67,4.02Z" fill="currentColor"/><path d="M15.2,10.5C16.23,10.5,16.63,10.9,16.63,11.93L16.63,12.06C16.63,13.09,16.23,13.49,15.2,13.49L6,13.49L6.03,16.22C6.03,16.89,5.83,16.99,5.36,16.59L0.29,12.36C-0.01,12.09,-0.01,11.89,0.29,11.63L5.32,7.43C5.82,7,6.02,7.06,6.02,7.7L5.99,10.5Z" fill="currentColor"/></svg>