<svg xmlns="http://www.w3.org/2000/svg" viewBox="0 0 24 24" fill="currentColor"><path d="M9.22,20.5C6.47,20.5,5.49,19.52,5.49,16.77L5.49,9.22C5.49,6.47,6.47,5.49,9.22,5.49L16.77,5.49C19.53,5.49,20.5,6.47,20.5,9.22L20.5,16.77C20.5,19.53,19.52,20.5,16.77,20.5ZM8.5,15.3C8.5,16.08,8.8,16.38,9.6,16.38L16.43,16.38C17.2,16.38,17.5,16.08,17.5,15.27L17.5,15.2C17.5,14.42,17.2,14.13,16.4,14.13L9.57,14.13C8.8,14.13,8.5,14.42,8.5,15.23ZM8.5,10.8C8.5,11.57,8.8,11.88,9.6,11.88L16.43,11.88C17.2,11.88,17.5,11.57,17.5,10.77L17.5,10.7C17.5,9.93,17.2,9.63,16.4,9.63L9.57,9.63C8.8,9.63,8.5,9.93,8.5,10.73Z"/></svg>