<svg xmlns="http://www.w3.org/2000/svg" viewBox="0 0 24 24" fill="currentColor"><path d="M9.22,20.5C6.47,20.5,5.49,19.52,5.49,16.77L5.49,9.22C5.49,6.47,6.47,5.49,9.22,5.49L16.77,5.49C19.53,5.49,20.5,6.47,20.5,9.22L20.5,16.77C20.5,19.53,19.52,20.5,16.77,20.5ZM17.97,11.33C18.52,10.8,18.5,10.38,17.95,9.83L17.9,9.75C17.35,9.21,16.92,9.21,16.37,9.75L11.8,14.33L9.83,12.36C9.28,11.81,8.85,11.83,8.3,12.38L8.23,12.43C7.68,12.98,7.68,13.4,8.23,13.95L11.06,16.78C11.6,17.33,12.01,17.33,12.56,16.78Z"/></svg>