<svg xmlns="http://www.w3.org/2000/svg" viewBox="0 0 24 24" fill="currentColor"><path d="M16.83,20.72C16.3,21.05,15.65,21.05,15.12,20.72L12.1,18.92C11.58,18.6,11.58,18.2,12.1,17.88L15.12,16.08C15.65,15.75,16.3,15.75,16.83,16.08L19.83,17.88C20.35,18.2,20.35,18.6,19.83,18.92ZM10.88,17.15C10.35,17.47,9.7,17.47,9.18,17.15L6.18,15.33C5.65,15,5.65,14.6,6.18,14.28L9.18,12.45C9.7,12.13,10.35,12.13,10.88,12.45L13.88,14.28C14.4,14.6,14.4,15,13.88,15.33ZM16.83,13.55C16.3,13.87,15.65,13.87,15.12,13.55L12.1,11.73C11.58,11.4,11.58,11,12.1,10.68L15.12,8.88C15.65,8.55,16.3,8.55,16.83,8.88L19.83,10.68C20.35,11,20.35,11.4,19.83,11.73ZM10.88,9.93C10.35,10.25,9.7,10.25,9.18,9.93L6.18,8.1C5.65,7.78,5.65,7.38,6.18,7.05L9.18,5.28C9.7,4.95,10.35,4.95,10.88,5.28L13.88,7.05C14.4,7.38,14.4,7.78,13.88,8.1Z"/></svg>