<svg xmlns="http://www.w3.org/2000/svg" viewBox="0 0 24 24"><path d="M4,13.33L4,2.66C4,0.66,4.67,-0.01,6.67,-0.01L17.34,-0.01C19.34,-0.01,20.01,0.66,20.01,2.66L20.01,13.33C20.01,15.33,19.34,16,17.34,16L15.51,16L15.51,8.93C15.51,6.39,14.53,5.38,12.03,5.36C12,5.36,11.98,5.36,11.95,5.36L12.12,5.36C12.09,5.36,12.06,5.36,12.04,5.36C9.5,5.38,8.52,6.39,8.52,8.93L8.52,16L6.69,16C4.69,16,4.02,15.33,4.02,13.33Z" fill="currentColor"/><path d="M10.5,8.8C10.5,7.77,10.9,7.37,11.93,7.37L12.06,7.37C13.09,7.37,13.49,7.77,13.49,8.8L13.49,18L16.22,17.97C16.89,17.97,16.99,18.17,16.59,18.64L12.36,23.71C12.09,24.01,11.89,24.01,11.63,23.71L7.43,18.68C7,18.18,7.06,17.98,7.7,17.98L10.5,18.01Z" fill="currentColor"/></svg>