<svg xmlns="http://www.w3.org/2000/svg" viewBox="0 0 1100 1100"><path d="M690,550C690,584,716,610,749,610C783,610,810,584,810,550C810,516,783,490,749,490C716,490,690,516,690,550Z" fill="currentColor"/><path d="M290,550C290,584,316,610,349,610C383,610,410,584,410,550C410,516,383,490,349,490C316,490,290,516,290,550Z" fill="currentColor"/><path d="M490,550C490,584,516,610,549,610C583,610,610,584,610,550C610,516,583,490,549,490C516,490,490,516,490,550Z" fill="currentColor"/><path d="M480,671C451,654,415,664,399,692C382,722,391,758,420,775C449,792,485,782,502,752C519,724,509,688,480,671Z" fill="currentColor"/><path d="M680,325C651,308,615,317,599,346C582,375,591,412,620,429C649,446,685,435,702,406C719,377,709,342,680,325Z" fill="currentColor"/><path d="M480,429C509,412,519,376,502,348C485,318,449,308,420,325C391,342,382,378,399,408C415,436,451,446,480,429Z" fill="currentColor"/><path d="M680,775C709,758,719,723,702,694C685,665,649,654,620,671C591,688,582,725,599,754C615,783,651,792,680,775Z" fill="currentColor"/></svg>