<svg xmlns="http://www.w3.org/2000/svg" viewBox="0 0 1100 1100"><path d="M790,550C790,584,816,610,849,610C883,610,910,584,910,550C910,516,883,490,849,490C816,490,790,516,790,550Z" fill="currentColor"/><path d="M190,550C190,584,216,610,249,610C283,610,310,584,310,550C310,516,283,490,249,490C216,490,190,516,190,550Z" fill="currentColor"/><path d="M430,758C401,741,365,750,349,779C332,808,341,845,370,862C399,879,435,868,452,839C469,810,459,775,430,758Z" fill="currentColor"/><path d="M730,238C701,221,665,231,649,259C632,289,641,325,670,342C699,359,735,349,752,319C769,291,759,255,730,238Z" fill="currentColor"/><path d="M430,342C459,325,469,290,452,261C435,232,399,221,370,238C341,255,332,292,349,321C365,350,401,359,430,342Z" fill="currentColor"/><path d="M730,862C759,845,769,809,752,781C735,751,699,741,670,758C641,775,632,811,649,841C665,869,701,879,730,862Z" fill="currentColor"/><path d="M420,550C420,624,476,680,548,680C622,680,680,624,680,550C680,476,622,420,548,420C476,420,420,476,420,550Z" fill="currentColor"/></svg>