<svg xmlns="http://www.w3.org/2000/svg" viewBox="0 0 1100 1100"><path d="M200,300L900,300L900,200L200,200Z" fill="currentColor"/><path d="M200,600L900,600L900,500L200,500Z" fill="currentColor"/><path d="M310,849C310,816,284,790,250,790C216,790,190,816,190,849C190,884,216,910,250,910C284,910,310,884,310,849Z" fill="currentColor"/><path d="M560,849C560,816,534,790,500,790C466,790,440,816,440,849C440,884,466,910,500,910C534,910,560,884,560,849Z" fill="currentColor"/><path d="M810,849C810,816,784,790,750,790C716,790,690,816,690,849C690,884,716,910,750,910C784,910,810,884,810,849Z" fill="currentColor"/></svg>