<svg xmlns="http://www.w3.org/2000/svg" viewBox="0 0 1100 1100"><path d="M1030,700C1030,590,972,495,866,495C762,495,690,588,690,700C690,812,762,905,867,905C976,905,1030,804,1030,700Z" fill="currentColor"/><path d="M558,600L142,600L142,700L558,700Z" fill="currentColor"/><path d="M703.91,900L421.76,200L279.3,200L-3.93,900L103.95,900L346.72,300L354.26,300L596.11,900Z" fill="currentColor"/><path d="M790,700C790,632,828,593,889,593C949,593,985,630,985,700C985,770,949,807,889,807C828,807,790,768,790,700Z" fill="currentColor"/><path d="M1100,900L1100,500L1000,500L1000,900Z" fill="currentColor"/></svg>