<svg xmlns="http://www.w3.org/2000/svg" viewBox="0 0 1100 1100"><path d="M1050,602L800,602L800,609.92L905.55,518.96C979.13,456.17,1042,410.67,1042,322C1042,256.4,977.59,180,886,180C828.1,180,778.61,208.18,712.91,269.43L676.34,303.52L744.53,376.67L781.1,342.58C833.1,294.1,860.3,280.01,886.01,280.01C919.62,280.01,942.01,309.33,942.01,322.01C942.01,358.95,916.57,378.1,840.46,443.05L700.01,564.09L700.01,702.01L1050.01,702.01Z" fill="currentColor"/><path d="M100,200L100,900L200,900L200,200Z" fill="currentColor"/><path d="M550,500L150,500L150,600L550,600Z" fill="currentColor"/><path d="M500,200L500,900L600,900L600,200Z" fill="currentColor"/></svg>