<svg xmlns="http://www.w3.org/2000/svg" viewBox="0 0 1100 1100"><path d="M100,200L100,900L200,900L200,200Z" fill="currentColor"/><path d="M550,500L150,500L150,600L550,600Z" fill="currentColor"/><path d="M500,200L500,900L600,900L600,200Z" fill="currentColor"/><path d="M700,300L950,300L950,268.7L800,394.7L800,474.1C921.21,469.1,957,497.81,957,543C957,577.41,920.51,610,880,610C847.73,610,813.27,587.41,789.84,558.51L758.35,519.67L680.67,582.65L712.16,621.49C748.73,666.59,810.27,710,880,710C971.49,710,1057,636.59,1057,543C1057,438.38,972.59,366.9,900,369.9L900,441.3L1050,315.3L1050,200L700,200Z" fill="currentColor"/></svg>