<svg xmlns="http://www.w3.org/2000/svg" viewBox="0 0 1100 1100"><path d="M200,500L900,500L900,400L200,400Z" fill="currentColor"/><path d="M310,850C310,817,283,790,250,790C217,790,190,817,190,850C190,883,217,910,250,910C283,910,310,883,310,850Z" fill="currentColor"/><path d="M310,250C310,217,283,190,250,190C217,190,190,217,190,250C190,283,217,310,250,310C283,310,310,283,310,250Z" fill="currentColor"/><path d="M910,850C910,817,883,790,850,790C817,790,790,817,790,850C790,883,817,910,850,910C883,910,910,883,910,850Z" fill="currentColor"/><path d="M910,250C910,217,883,190,850,190C817,190,790,217,790,250C790,283,817,310,850,310C883,310,910,283,910,250Z" fill="currentColor"/><path d="M200,700L700,700L700,600L200,600Z" fill="currentColor"/></svg>