<svg xmlns="http://www.w3.org/2000/svg" viewBox="0 0 1100 1100"><path d="M449.5,750L449.5,350L553.5,350C611.86,350,647.5,382.19,647.5,412C647.5,443.01,611.66,475,553.5,475L374.5,475L374.5,625L584.5,625C640.26,625,674.5,656.56,674.5,687C674.5,718.64,640.46,750,584.5,750Z" fill="currentColor"/><path d="M299.5,900L584.5,900C725.34,900,824.5,800.8,824.5,687C824.5,574,725.54,475,584.5,475L374.5,475L374.5,625L553.5,625C696.34,625,797.5,526,797.5,412C797.5,298.8,696.14,200,553.5,200L299.5,200Z" fill="currentColor"/></svg>