<svg xmlns="http://www.w3.org/2000/svg" viewBox="0 0 24 24" fill="currentColor"><path d="M12.47,12.48C12.83,12.1,13.25,12.1,13.58,12.42C13.9,12.75,13.9,13.17,13.52,13.53L10.88,16.17C10.52,16.53,10.11,16.55,9.77,16.23C9.45,15.9,9.47,15.48,9.83,15.12ZM5.13,13C5.13,8.67,8.67,5.13,13,5.13C17.33,5.13,20.88,8.67,20.88,13C20.88,17.33,17.33,20.88,13,20.88C8.67,20.88,5.13,17.33,5.13,13ZM19.38,13C19.38,9.5,16.5,6.63,13,6.63C9.5,6.63,6.63,9.5,6.63,13C6.63,16.5,9.5,19.38,13,19.38C16.5,19.38,19.38,16.5,19.38,13Z"/></svg>