<svg xmlns="http://www.w3.org/2000/svg" viewBox="0 0 24 24"><path d="M5.94,8.5C4.91,8.5,4.51,8.9,4.51,9.93L4.51,10.06C4.51,11.09,4.91,11.49,5.94,11.49L6.07,11.49C7.1,11.49,7.5,11.09,7.5,10.06L7.5,9.93C7.5,8.9,7.1,8.5,6.07,8.5Z" fill="currentColor"/><path d="M9.94,8.5C8.91,8.5,8.51,8.9,8.51,9.93L8.51,10.06C8.51,11.09,8.91,11.49,9.94,11.49L10.07,11.49C11.1,11.49,11.5,11.09,11.5,10.06L11.5,9.93C11.5,8.9,11.1,8.5,10.07,8.5Z" fill="currentColor"/><path d="M13.94,8.5C12.91,8.5,12.51,8.9,12.51,9.93L12.51,10.06C12.51,11.09,12.91,11.49,13.94,11.49L14.07,11.49C15.1,11.49,15.5,11.09,15.5,10.06L15.5,9.93C15.5,8.9,15.1,8.5,14.07,8.5Z" fill="currentColor"/><path d="M17.94,8.5C16.91,8.5,16.51,8.9,16.51,9.93L16.51,10.06C16.51,11.09,16.91,11.49,17.94,11.49L18.07,11.49C19.1,11.49,19.5,11.09,19.5,10.06L19.5,9.93C19.5,8.9,19.1,8.5,18.07,8.5Z" fill="currentColor"/><path d="M5.94,12.5C4.91,12.5,4.51,12.9,4.51,13.93L4.51,14.06C4.51,15.09,4.91,15.49,5.94,15.49L6.07,15.49C7.1,15.49,7.5,15.09,7.5,14.06L7.5,13.93C7.5,12.9,7.1,12.5,6.07,12.5Z" fill="currentColor"/><path d="M9.94,12.5C8.91,12.5,8.51,12.9,8.51,13.93L8.51,14.06C8.51,15.09,8.91,15.49,9.94,15.49L10.07,15.49C11.1,15.49,11.5,15.09,11.5,14.06L11.5,13.93C11.5,12.9,11.1,12.5,10.07,12.5Z" fill="currentColor"/><path d="M13.94,12.5C12.91,12.5,12.51,12.9,12.51,13.93L12.51,14.06C12.51,15.09,12.91,15.49,13.94,15.49L14.07,15.49C15.1,15.49,15.5,15.09,15.5,14.06L15.5,13.93C15.5,12.9,15.1,12.5,14.07,12.5Z" fill="currentColor"/><path d="M17.94,12.5C16.91,12.5,16.51,12.9,16.51,13.93L16.51,14.06C16.51,15.09,16.91,15.49,17.94,15.49L18.07,15.49C19.1,15.49,19.5,15.09,19.5,14.06L19.5,13.93C19.5,12.9,19.1,12.5,18.07,12.5Z" fill="currentColor"/><path d="M5.94,16.5C4.91,16.5,4.51,16.9,4.51,17.93L4.51,18.06C4.51,19.09,4.91,19.49,5.94,19.49L6.07,19.49C7.1,19.49,7.5,19.09,7.5,18.06L7.5,17.93C7.5,16.9,7.1,16.5,6.07,16.5Z" fill="currentColor"/><path d="M9.94,16.5C8.91,16.5,8.51,16.9,8.51,17.93L8.51,18.06C8.51,19.09,8.91,19.49,9.94,19.49L10.07,19.49C11.1,19.49,11.5,19.09,11.5,18.06L11.5,17.93C11.5,16.9,11.1,16.5,10.07,16.5Z" fill="currentColor"/><path d="M13.94,16.5C12.91,16.5,12.51,16.9,12.51,17.93L12.51,18.06C12.51,19.09,12.91,19.49,13.94,19.49L14.07,19.49C15.1,19.49,15.5,19.09,15.5,18.06L15.5,17.93C15.5,16.9,15.1,16.5,14.07,16.5Z" fill="currentColor"/><path d="M6.97,22C3.3,22,2,20.7,2,17.03L2,6.96C2,4.13,2.73,2.33,5.07,1.99L6,2.66L6,1.19C6,0.22,6.37,-0.01,7,-0.01C7.63,-0.01,8,0.22,8,1.19L8,2.66L9.03,1.99L12,1.99L14.97,1.99L16,2.66L16,1.19C16,0.22,16.37,-0.01,17,-0.01C17.63,-0.01,18,0.22,18,1.19L18,2.66L18.93,1.99C21.26,2.32,22,4.12,22,6.96L22,17.03C22,20.7,20.7,22,17.03,22L12,22Z" fill="currentColor"/></svg>