<svg xmlns="http://www.w3.org/2000/svg" viewBox="0 0 24 24"><path d="M12,13L16.97,13C17.67,13,18.07,12.63,18.07,12C18.07,11.37,17.67,11,16.97,11L12,11C11.33,11,10.9,11.37,10.9,12C10.9,12.63,11.33,13,12,13Z" fill="currentColor"/><path d="M12,22.5C6.23,22.5,1.5,17.77,1.5,12C1.5,6.23,6.23,1.5,12,1.5C17.77,1.5,22.5,6.23,22.5,12C22.5,17.77,17.77,22.5,12,22.5Z" fill="currentColor"/><path d="M12,3.5C7.33,3.5,3.5,7.33,3.5,12C3.5,16.67,7.33,20.5,12,20.5C16.67,20.5,20.5,16.67,20.5,12C20.5,7.33,16.67,3.5,12,3.5Z" fill="currentColor"/></svg>