<svg xmlns="http://www.w3.org/2000/svg" viewBox="0 0 24 24"><path d="M6,19.33C6.73,19.33,7.33,18.73,7.33,18C7.33,17.27,6.73,16.67,6,16.67C5.27,16.67,4.67,17.27,4.67,18C4.67,18.73,5.27,19.33,6,19.33Z" fill="currentColor"/><path d="M6,15.33C6.73,15.33,7.33,14.73,7.33,14C7.33,13.27,6.73,12.67,6,12.67C5.27,12.67,4.67,13.27,4.67,14C4.67,14.73,5.27,15.33,6,15.33Z" fill="currentColor"/><path d="M6,11.33C6.73,11.33,7.33,10.73,7.33,10C7.33,9.27,6.73,8.67,6,8.67C5.27,8.67,4.67,9.27,4.67,10C4.67,10.73,5.27,11.33,6,11.33Z" fill="currentColor"/><path d="M10,19.33C10.7,19.33,11.3,18.73,11.3,18C11.3,17.27,10.7,16.67,10,16.67C9.3,16.67,8.7,17.27,8.7,18C8.7,18.73,9.3,19.33,10,19.33Z" fill="currentColor"/><path d="M10,15.33C10.7,15.33,11.3,14.73,11.3,14C11.3,13.27,10.7,12.67,10,12.67C9.3,12.67,8.7,13.27,8.7,14C8.7,14.73,9.3,15.33,10,15.33Z" fill="currentColor"/><path d="M10,11.33C10.7,11.33,11.3,10.73,11.3,10C11.3,9.27,10.7,8.67,10,8.67C9.3,8.67,8.7,9.27,8.7,10C8.7,10.73,9.3,11.33,10,11.33Z" fill="currentColor"/><path d="M14,19.33C14.7,19.33,15.3,18.73,15.3,18C15.3,17.27,14.7,16.67,14,16.67C13.3,16.67,12.7,17.27,12.7,18C12.7,18.73,13.3,19.33,14,19.33Z" fill="currentColor"/><path d="M14,15.33C14.7,15.33,15.3,14.73,15.3,14C15.3,13.27,14.7,12.67,14,12.67C13.3,12.67,12.7,13.27,12.7,14C12.7,14.73,13.3,15.33,14,15.33Z" fill="currentColor"/><path d="M14,11.33C14.7,11.33,15.3,10.73,15.3,10C15.3,9.27,14.7,8.67,14,8.67C13.3,8.67,12.7,9.27,12.7,10C12.7,10.73,13.3,11.33,14,11.33Z" fill="currentColor"/><path d="M18,15.33C18.7,15.33,19.3,14.73,19.3,14C19.3,13.27,18.7,12.67,18,12.67C17.3,12.67,16.7,13.27,16.7,14C16.7,14.73,17.3,15.33,18,15.33Z" fill="currentColor"/><path d="M18,11.33C18.7,11.33,19.3,10.73,19.3,10C19.3,9.27,18.7,8.67,18,8.67C17.3,8.67,16.7,9.27,16.7,10C16.7,10.73,17.3,11.33,18,11.33Z" fill="currentColor"/><path d="M6.97,22C3.3,22,2,20.7,2,17.03L2,6.96C2,4.13,2.73,2.33,5.07,1.99L6,2.66L6,1.19C6,0.22,6.37,-0.01,7,-0.01C7.63,-0.01,8,0.22,8,1.19L8,2.66L9.03,1.99L12,1.99L14.97,1.99L16,2.66L16,1.19C16,0.22,16.37,-0.01,17,-0.01C17.63,-0.01,18,0.22,18,1.19L18,2.66L18.93,1.99C21.26,2.32,22,4.12,22,6.96L22,17.03C22,20.7,20.7,22,17.03,22L12,22Z" fill="currentColor"/></svg>