<svg xmlns="http://www.w3.org/2000/svg" viewBox="0 0 24 24" fill="currentColor"><path d="M12.25,20.75C8.45,20.75,5.25,17.57,5.25,13.75C5.25,10.04,8.15,7.04,11.72,6.77C10.65,7.91,10.01,9.45,10.01,11.15C10.01,14.69,12.83,17.5,16.41,17.5C17.08,17.5,17.73,17.39,18.34,17.21C17.14,19.31,14.88,20.75,12.26,20.75ZM18.53,9.85C18.38,10.28,18.18,10.28,18.02,9.85L17.78,9.18C17.63,8.75,17.3,8.45,16.88,8.28L16.15,8.03C15.72,7.86,15.72,7.71,16.15,7.53L16.88,7.28C17.3,7.11,17.61,6.81,17.78,6.38L18.02,5.65C18.2,5.22,18.35,5.22,18.53,5.65L18.77,6.38C18.95,6.81,19.25,7.13,19.67,7.28L20.35,7.53C20.78,7.68,20.78,7.88,20.35,8.03L19.67,8.28C19.25,8.43,18.92,8.75,18.77,9.18Z"/></svg>