<svg xmlns="http://www.w3.org/2000/svg" viewBox="0 0 24 24" fill="currentColor"><path d="M12.48,13.52C12.1,13.17,12.1,12.75,12.42,12.42C12.75,12.1,13.17,12.1,13.53,12.47L16.17,15.12C16.53,15.47,16.55,15.89,16.23,16.22C15.9,16.55,15.48,16.52,15.12,16.17ZM5.13,13C5.13,8.67,8.67,5.13,13,5.13C17.33,5.13,20.88,8.67,20.88,13C20.88,17.33,17.33,20.88,13,20.88C8.67,20.88,5.13,17.33,5.13,13ZM6.63,13C6.63,16.5,9.5,19.38,13,19.38C16.5,19.38,19.38,16.5,19.38,13C19.38,9.5,16.5,6.63,13,6.63C9.5,6.63,6.63,9.5,6.63,13Z"/></svg>