<svg xmlns="http://www.w3.org/2000/svg" viewBox="0 0 24 24" fill="currentColor"><path d="M9.27,19L16.75,19C16.75,17.05,16.75,17.05,13.73,13.83C13.28,13.35,13.63,12.75,13.78,12.35L14.15,11.45C14.66,10.2,11.3,10.25,11.85,11.43L12.28,12.38C12.45,12.75,12.78,13.33,12.33,13.83C9.28,17.1,9.28,17.1,9.28,19ZM8.83,20.5C8.06,20.5,7.76,20.2,7.76,19.43C7.78,16.5,8.08,16.18,11.04,13C8.09,9.83,7.79,9.5,7.76,6.57C7.76,5.8,8.06,5.5,8.83,5.5L17.18,5.5C17.95,5.5,18.25,5.8,18.25,6.57C18.23,9.5,17.93,9.82,14.97,13C17.92,16.17,18.22,16.5,18.25,19.43C18.25,20.2,17.95,20.5,17.18,20.5Z"/></svg>