<svg xmlns="http://www.w3.org/2000/svg" viewBox="0 0 24 24" fill="currentColor"><path d="M5.13,13C5.13,8.67,8.67,5.13,13,5.13C13.45,5.13,13.75,5.43,13.75,5.88C13.75,6.32,13.45,6.63,13,6.63C9.5,6.63,6.63,9.5,6.63,13C6.63,16.5,9.5,19.38,13,19.38C16.5,19.38,19.38,16.5,19.38,13C19.38,12.55,19.67,12.25,20.13,12.25C20.58,12.25,20.88,12.55,20.88,13C20.88,17.33,17.33,20.88,13,20.88C8.67,20.88,5.13,17.33,5.13,13ZM15.98,15.48L13.2,13.98C12.53,13.6,12.25,13.15,12.25,12.38L12.25,8.55C12.25,8.1,12.55,7.8,13,7.8C13.45,7.8,13.75,8.1,13.75,8.55L13.75,12.55L16.77,14.25C17.6,14.7,16.92,16,15.97,15.48ZM16.02,5.72C16.42,5.9,16.6,6.3,16.42,6.7C16.25,7.13,15.84,7.28,15.45,7.1C15.02,6.95,14.85,6.55,15.02,6.12C15.19,5.72,15.6,5.54,16.02,5.72ZM18.57,8.5C18.25,8.8,17.82,8.8,17.5,8.5C17.2,8.18,17.2,7.75,17.5,7.43C17.82,7.13,18.25,7.13,18.57,7.43C18.87,7.75,18.87,8.18,18.57,8.5ZM20.27,9.98C20.45,10.41,20.27,10.8,19.88,10.98C19.45,11.15,19.05,10.98,18.9,10.55C18.73,10.15,18.88,9.75,19.3,9.57C19.7,9.4,20.1,9.57,20.27,9.97Z"/></svg>