<svg xmlns="http://www.w3.org/2000/svg" viewBox="0 0 24 24" fill="currentColor"><path d="M9.23,20.5C6.48,20.5,5.5,19.52,5.5,16.77L5.5,9.22C5.5,7.1,6.05,5.75,7.8,5.49L8.5,6L8.5,4.89C8.5,4.17,8.78,3.99,9.25,3.99C9.72,3.99,10,4.17,10,4.89L10,6L10.77,5.49L13,5.49L15.23,5.49L16,6L16,4.89C16,4.17,16.28,3.99,16.75,3.99C17.22,3.99,17.5,4.17,17.5,4.89L17.5,6L18.2,5.49C19.95,5.74,20.5,7.09,20.5,9.22L20.5,16.77C20.5,19.53,19.52,20.5,16.77,20.5L13,20.5ZM7.77,15.53L7.77,16.8C7.77,18,8.02,18.25,9.22,18.25L16.82,18.25C18.02,18.25,18.27,18,18.27,16.8L18.27,11.53C18.27,10.33,18.02,10.08,16.82,10.08L14.19,10.08C13.59,10.08,14.52,9.56,14.52,8.56C14.52,7.76,13.82,7.08,12.96,7.11C12.14,7.13,11.46,7.74,11.46,8.56C11.46,9.56,12.36,10.08,11.76,10.08L9.21,10.08C8.01,10.08,7.76,10.33,7.76,11.53L7.76,12.5C7.76,13.68,8.16,12.53,9.27,12.53C10.11,12.53,10.71,13.18,10.74,14C10.77,14.85,10.09,15.56,9.27,15.56C8.16,15.56,7.76,14.41,7.76,15.54Z"/></svg>