<svg xmlns="http://www.w3.org/2000/svg" viewBox="0 0 24 24"><path d="M6.97,22C3.3,22,2,20.7,2,17.03L2,6.96C2,4.13,2.73,2.33,5.07,1.99L6,2.66L6,1.19C6,0.22,6.37,-0.01,7,-0.01C7.63,-0.01,8,0.22,8,1.19L8,2.66L9.03,1.99L12,1.99L14.97,1.99L16,2.66L16,1.19C16,0.22,16.37,-0.01,17,-0.01C17.63,-0.01,18,0.22,18,1.19L18,2.66L18.93,1.99C21.26,2.32,22,4.12,22,6.96L22,17.03C22,20.7,20.7,22,17.03,22L12,22Z" fill="currentColor"/><path d="M5.03,15.37L5.03,17.07C5.03,18.67,5.36,19,6.96,19L17.09,19C18.69,19,19.02,18.67,19.02,17.07L19.02,10.04C19.02,8.44,18.69,8.11,17.09,8.11L13.59,8.11C12.79,8.11,14.02,7.41,14.02,6.08C14.02,5.01,13.09,4.11,11.95,4.15C10.85,4.18,9.95,4.98,9.95,6.08C9.95,7.41,11.15,8.11,10.35,8.11L6.95,8.11C5.35,8.11,5.02,8.44,5.02,10.04L5.02,11.34C5.02,12.91,5.55,11.37,7.02,11.37C8.15,11.37,8.95,12.24,8.99,13.34C9.02,14.47,8.12,15.41,7.02,15.41C5.55,15.41,5.02,13.88,5.02,15.38Z" fill="currentColor"/></svg>