<svg xmlns="http://www.w3.org/2000/svg" viewBox="0 0 24 24"><path d="M9,20L15,20L15,19.67C15,18.44,13.03,19.2,13.03,17.34L13.03,12.24C13.03,11.21,13.3,10.51,14,9.77C17,6.54,17,6.3,17,4L7.03,4C7.03,6.3,7.03,6.5,10.06,9.77C10.76,10.5,11.03,11.2,11.03,12.24L11.03,17.34C11.03,19.21,9,18.44,9,19.67Z" fill="currentColor"/><path d="M6.44,22C5.41,22,5.01,21.6,5.01,20.57C5.04,16.67,5.44,16.24,9.38,12C5.45,7.77,5.05,7.33,5.01,3.43C5.01,2.4,5.41,2,6.44,2L17.57,2C18.6,2,19,2.4,19,3.43C18.97,7.33,18.57,7.76,14.63,12C18.56,16.23,18.96,16.67,19,20.57C19,21.6,18.6,22,17.57,22Z" fill="currentColor"/></svg>