<svg xmlns="http://www.w3.org/2000/svg" viewBox="0 0 24 24"><path d="M4.97,22C1.3,22,0,20.7,0,17.03L0,6.96C0,4.13,0.73,2.33,3.07,1.99L4,2.66L4,1.19C4,0.22,4.37,-0.01,5,-0.01C5.63,-0.01,6,0.22,6,1.19L6,2.66L7.03,1.99L10,1.99L12.97,1.99L14,2.66L14,1.19C14,0.22,14.37,-0.01,15,-0.01C15.63,-0.01,16,0.22,16,1.19L16,2.66L16.93,1.99C19.26,2.32,20,4.12,20,6.96L20,9.06C18.82,8.38,17.46,8,16,8C11.57,8,8,11.57,8,16C8,18.39,9.04,20.54,10.7,22L10,22Z" fill="currentColor"/><path d="M20,16C20,13.73,18.27,12,16,12C13.73,12,12,13.73,12,16C12,18.27,13.73,20,16,20C18.27,20,20,18.27,20,16Z" fill="currentColor"/><path d="M10,16C10,12.7,12.7,10,16,10C19.3,10,22,12.7,22,16C22,19.3,19.3,22,16,22C12.7,22,10,19.3,10,16Z" fill="currentColor"/><path d="M23.6,23.4L23.47,23.53C23.04,23.96,22.57,23.96,22.14,23.53L18.44,19.83L19.91,18.36L23.61,22.06C24.04,22.49,24.04,22.96,23.61,23.39Z" fill="currentColor"/></svg>