<svg xmlns="http://www.w3.org/2000/svg" viewBox="0 0 24 24"><path d="M9.17,7.77L12.7,11.3C13.2,11.77,13.2,12.33,12.77,12.77C12.34,13.2,11.77,13.2,11.3,12.7L7.77,9.17C7.3,8.7,7.27,8.14,7.7,7.7C8.13,7.27,8.7,7.3,9.17,7.77Z" fill="currentColor"/><path d="M12,1.5C17.77,1.5,22.5,6.23,22.5,12C22.5,17.77,17.77,22.5,12,22.5C6.23,22.5,1.5,17.77,1.5,12C1.5,6.23,6.23,1.5,12,1.5Z" fill="currentColor"/><path d="M12,20.5C16.67,20.5,20.5,16.67,20.5,12C20.5,7.33,16.67,3.5,12,3.5C7.33,3.5,3.5,7.33,3.5,12C3.5,16.67,7.33,20.5,12,20.5Z" fill="currentColor"/></svg>