<svg xmlns="http://www.w3.org/2000/svg" viewBox="0 0 24 24" fill="currentColor"><path d="M13.75,9.27C13.75,8.75,13.47,8.45,13,8.45C12.53,8.45,12.25,8.75,12.25,9.27L12.25,13C12.25,13.5,12.53,13.83,13,13.83C13.47,13.83,13.75,13.5,13.75,13ZM13,20.88C8.67,20.88,5.13,17.33,5.13,13C5.13,8.67,8.67,5.13,13,5.13C17.33,5.13,20.88,8.67,20.88,13C20.88,17.33,17.33,20.88,13,20.88ZM13,19.38C16.5,19.38,19.38,16.5,19.38,13C19.38,9.5,16.5,6.63,13,6.63C9.5,6.63,6.63,9.5,6.63,13C6.63,16.5,9.5,19.38,13,19.38Z"/></svg>