<svg xmlns="http://www.w3.org/2000/svg" viewBox="0 0 24 24" fill="currentColor"><path d="M5.5,19L10.38,19C10.56,19.53,10.81,20.04,11.12,20.5L5.06,20.5C4.29,20.5,3.99,20.2,3.99,19.43C4.02,16.5,4.31,16.18,7.27,13C4.32,9.83,4.02,9.5,3.99,6.57C3.99,5.8,4.29,5.5,5.06,5.5L13.41,5.5C14.19,5.5,14.48,5.8,14.48,6.57C14.47,8.5,14.34,9.29,13.4,10.52L11.96,11.97C10.99,12.96,10.3,14.25,10.07,15.68C10.03,15.54,10.01,15.37,10.01,15.17L10.01,13.16C10.01,12.39,10.21,11.87,10.71,11.29L12.45,9.32C13.23,8.44,5.23,8.42,6,9.29L7.78,11.3C8.31,11.88,8.51,12.4,8.51,13.17L8.51,15.17C8.51,17.55,5.49,15.95,5.49,19ZM11.52,16.75C11.52,13.88,13.9,11.52,16.75,11.52C19.62,11.52,21.98,13.87,21.98,16.75C21.98,19.6,19.63,21.98,16.75,21.98C13.9,21.98,11.52,19.6,11.52,16.75ZM20.88,16.7C20.88,16.08,20.42,15.63,19.8,15.63C19.2,15.63,18.75,16.08,18.75,16.7C18.75,17.3,19.2,17.75,19.8,17.75C20.42,17.75,20.88,17.3,20.88,16.7ZM14.88,16.7C14.88,16.08,14.42,15.63,13.8,15.63C13.2,15.63,12.75,16.08,12.75,16.7C12.75,17.3,13.2,17.75,13.8,17.75C14.42,17.75,14.88,17.3,14.88,16.7ZM17.88,16.7C17.88,16.08,17.42,15.63,16.8,15.63C16.2,15.63,15.75,16.08,15.75,16.7C15.75,17.3,16.2,17.75,16.8,17.75C17.42,17.75,17.88,17.3,17.88,16.7Z"/></svg>