<svg xmlns="http://www.w3.org/2000/svg" viewBox="0 0 24 24" fill="currentColor"><path d="M5.88,13.75C5.88,9.83,9.08,6.63,13,6.63C16.92,6.63,20.13,9.83,20.13,13.75C20.13,17.67,16.92,20.88,13,20.88C9.08,20.88,5.88,17.67,5.88,13.75ZM17.88,13.75C17.88,10.75,16,8.88,13,8.88C10,8.88,8.13,10.75,8.13,13.75C8.13,16.75,10,18.63,13,18.63C16,18.63,17.88,16.75,17.88,13.75ZM11.88,7.92L11.88,4.75L14.13,4.75L14.13,7.92ZM10.38,5.5C10.38,4.22,10.7,4,13,4C15.3,4,15.63,4.22,15.63,5.5ZM12.98,14.97C12.3,14.97,11.58,14.42,11.85,13.3L12.63,10L13.38,10L14.15,13.28C14.43,14.42,13.68,14.98,12.97,14.98Z"/></svg>