<svg xmlns="http://www.w3.org/2000/svg" viewBox="0 0 24 24" fill="currentColor"><path d="M10.75,19L15.25,19L15.25,18.75C15.25,17.83,13.77,18.4,13.77,17.01L13.77,13.18C13.77,12.41,13.98,11.88,14.5,11.33C16.75,8.91,16.75,8.73,16.75,7L9.27,7C9.27,8.73,9.27,8.88,11.54,11.33C12.07,11.88,12.27,12.4,12.27,13.18L12.27,17.01C12.27,18.41,10.75,17.83,10.75,18.75ZM8.83,20.5C8.06,20.5,7.76,20.2,7.76,19.43C7.78,16.5,8.08,16.18,11.04,13C8.09,9.83,7.79,9.5,7.76,6.57C7.76,5.8,8.06,5.5,8.83,5.5L17.18,5.5C17.95,5.5,18.25,5.8,18.25,6.57C18.23,9.5,17.93,9.82,14.97,13C17.92,16.17,18.22,16.5,18.25,19.43C18.25,20.2,17.95,20.5,17.18,20.5Z"/></svg>