<svg xmlns="http://www.w3.org/2000/svg" viewBox="0 0 24 24" fill="currentColor"><path d="M9.23,20.5C6.48,20.5,5.5,19.52,5.5,16.77L5.5,9.22C5.5,7.1,6.05,5.75,7.8,5.49L8.5,6L8.5,4.89C8.5,4.17,8.78,3.99,9.25,3.99C9.72,3.99,10,4.17,10,4.89L10,6L10.77,5.49L13,5.49L15.23,5.49L16,6L16,4.89C16,4.17,16.28,3.99,16.75,3.99C17.22,3.99,17.5,4.17,17.5,4.89L17.5,6L18.2,5.49C19.95,5.74,20.5,7.09,20.5,9.22L20.5,16.77C20.5,19.53,19.52,20.5,16.77,20.5L13,20.5ZM9.53,17.4C9.38,18,9.58,18.15,10.1,17.8L13.01,15.75L15.88,17.8C16.4,18.15,16.61,18,16.46,17.4L15.58,13.95L18.18,11.93C18.68,11.53,18.61,11.28,17.98,11.23L14.58,10.98L13.36,7.89C13.13,7.31,12.86,7.31,12.63,7.89L11.48,10.98L8.01,11.23C7.39,11.28,7.31,11.53,7.81,11.91L10.43,13.95Z"/></svg>