<svg xmlns="http://www.w3.org/2000/svg" viewBox="0 0 24 24"><path d="M1.5,12C1.5,6.23,6.23,1.5,12,1.5C12.6,1.5,13,1.9,13,2.5C13,3.1,12.6,3.5,12,3.5C7.33,3.5,3.5,7.33,3.5,12C3.5,16.67,7.33,20.5,12,20.5C16.67,20.5,20.5,16.67,20.5,12C20.5,11.4,20.9,11,21.5,11C22.1,11,22.5,11.4,22.5,12C22.5,17.77,17.77,22.5,12,22.5C6.23,22.5,1.5,17.77,1.5,12Z" fill="currentColor"/><path d="M15.97,15.3L12.27,13.3C11.37,12.8,11,12.2,11,11.17L11,6.07C11,5.47,11.4,5.07,12,5.07C12.6,5.07,13,5.47,13,6.07L13,11.4L17.03,13.67C18.13,14.27,17.23,16,15.96,15.3Z" fill="currentColor"/><path d="M16.03,2.3C16.56,2.53,16.8,3.07,16.56,3.6C16.33,4.17,15.79,4.37,15.26,4.13C14.69,3.93,14.46,3.4,14.69,2.83C14.92,2.3,15.46,2.06,16.02,2.3Z" fill="currentColor"/><path d="M19.43,6C19,6.4,18.43,6.4,18,6C17.6,5.57,17.6,5,18,4.57C18.43,4.17,19,4.17,19.43,4.57C19.83,5,19.83,5.57,19.43,6Z" fill="currentColor"/><path d="M21.7,7.97C21.93,8.54,21.7,9.07,21.17,9.3C20.6,9.53,20.07,9.3,19.87,8.73C19.64,8.2,19.84,7.66,20.4,7.43C20.93,7.2,21.47,7.43,21.7,7.96Z" fill="currentColor"/></svg>