<svg xmlns="http://www.w3.org/2000/svg" viewBox="0 0 24 24"><path d="M2,20L8.5,20C8.75,20.71,9.08,21.38,9.49,22L1.42,22C0.39,22,-0.01,21.6,-0.01,20.57C0.02,16.67,0.42,16.24,4.36,12C0.43,7.77,0.03,7.33,-0.01,3.43C-0.01,2.4,0.39,2,1.42,2L12.55,2C13.58,2,13.98,2.4,13.98,3.43C13.96,6,13.78,7.06,12.53,8.7L10.61,10.63C9.32,11.95,8.4,13.66,8.09,15.58C8.04,15.38,8.01,15.16,8.01,14.89L8.01,12.22C8.01,11.19,8.28,10.49,8.94,9.72L11.27,7.09C12.3,5.92,1.64,5.89,2.67,7.06L5.04,9.73C5.74,10.5,6.01,11.2,6.01,12.23L6.01,14.9C6.01,18.07,1.98,15.93,1.98,20Z" fill="currentColor"/><path d="M10.03,17C10.03,13.17,13.2,10.03,17,10.03C20.83,10.03,23.97,13.16,23.97,17C23.97,20.8,20.84,23.97,17,23.97C13.2,23.97,10.03,20.8,10.03,17Z" fill="currentColor"/><path d="M22.5,16.93C22.5,16.1,21.9,15.5,21.07,15.5C20.27,15.5,19.67,16.1,19.67,16.93C19.67,17.73,20.27,18.33,21.07,18.33C21.9,18.33,22.5,17.73,22.5,16.93Z" fill="currentColor"/><path d="M14.5,16.93C14.5,16.1,13.9,15.5,13.07,15.5C12.27,15.5,11.67,16.1,11.67,16.93C11.67,17.73,12.27,18.33,13.07,18.33C13.9,18.33,14.5,17.73,14.5,16.93Z" fill="currentColor"/><path d="M18.5,16.93C18.5,16.1,17.9,15.5,17.07,15.5C16.27,15.5,15.67,16.1,15.67,16.93C15.67,17.73,16.27,18.33,17.07,18.33C17.9,18.33,18.5,17.73,18.5,16.93Z" fill="currentColor"/></svg>