<svg xmlns="http://www.w3.org/2000/svg" viewBox="0 0 24 24"><path d="M7.03,20L17,20C17,17.4,17,17.4,12.97,13.1C12.37,12.47,12.84,11.67,13.04,11.13L13.54,9.93C14.21,8.26,9.74,8.33,10.47,9.9L11.04,11.17C11.27,11.67,11.71,12.44,11.11,13.1C7.04,17.47,7.04,17.47,7.04,20Z" fill="currentColor"/><path d="M6.44,22C5.41,22,5.01,21.6,5.01,20.57C5.04,16.67,5.44,16.24,9.38,12C5.45,7.77,5.05,7.33,5.01,3.43C5.01,2.4,5.41,2,6.44,2L17.57,2C18.6,2,19,2.4,19,3.43C18.97,7.33,18.57,7.76,14.63,12C18.56,16.23,18.96,16.67,19,20.57C19,21.6,18.6,22,17.57,22Z" fill="currentColor"/></svg>