<svg xmlns="http://www.w3.org/2000/svg" viewBox="0 0 24 24" fill="currentColor"><path d="M10.88,9.83L13.52,12.47C13.9,12.83,13.9,13.25,13.58,13.58C13.25,13.9,12.83,13.9,12.47,13.52L9.83,10.88C9.47,10.52,9.45,10.11,9.77,9.77C10.1,9.45,10.52,9.47,10.88,9.83ZM13,5.13C17.33,5.13,20.88,8.67,20.88,13C20.88,17.33,17.33,20.88,13,20.88C8.67,20.88,5.13,17.33,5.13,13C5.13,8.67,8.67,5.13,13,5.13ZM13,19.38C16.5,19.38,19.38,16.5,19.38,13C19.38,9.5,16.5,6.63,13,6.63C9.5,6.63,6.63,9.5,6.63,13C6.63,16.5,9.5,19.38,13,19.38Z"/></svg>