<svg xmlns="http://www.w3.org/2000/svg" viewBox="0 0 24 24"><path d="M6.97,22C3.3,22,2,20.7,2,17.03L2,6.96C2,4.13,2.73,2.33,5.07,1.99L6,2.66L6,1.19C6,0.22,6.37,-0.01,7,-0.01C7.63,-0.01,8,0.22,8,1.19L8,2.66L9.03,1.99L12,1.99L14.97,1.99L16,2.66L16,1.19C16,0.22,16.37,-0.01,17,-0.01C17.63,-0.01,18,0.22,18,1.19L18,2.66L18.93,1.99C21.26,2.32,22,4.12,22,6.96L22,17.03C22,20.7,20.7,22,17.03,22L12,22Z" fill="currentColor"/><path d="M7.37,17.87C7.17,18.67,7.44,18.87,8.14,18.4L12.01,15.67L15.84,18.4C16.54,18.87,16.81,18.67,16.61,17.87L15.44,13.27L18.91,10.57C19.58,10.04,19.48,9.7,18.64,9.64L14.11,9.31L12.48,5.18C12.18,4.41,11.81,4.41,11.51,5.18L9.98,9.31L5.35,9.64C4.52,9.71,4.42,10.04,5.08,10.54L8.58,13.27Z" fill="currentColor"/></svg>