<svg xmlns="http://www.w3.org/2000/svg" viewBox="0 0 24 24"><path d="M6.97,22C3.3,22,2,20.7,2,17.03L2,6.96C2,4.13,2.73,2.33,5.07,1.99L6,2.66L6,1.19C6,0.22,6.37,-0.01,7,-0.01C7.63,-0.01,8,0.22,8,1.19L8,2.66L9.03,1.99L12,1.99L14.97,1.99L16,2.66L16,1.19C16,0.22,16.37,-0.01,17,-0.01C17.63,-0.01,18,0.22,18,1.19L18,2.66L18.93,1.99C21.26,2.32,22,4.12,22,6.96L22,17.03C22,20.7,20.7,22,17.03,22L12,22Z" fill="currentColor"/><path d="M9.97,7L10.77,12.4C10.87,13.07,11.17,13.33,11.9,13.33L12.1,13.33C12.83,13.33,13.13,13.06,13.23,12.4L14.03,7C14.26,5.57,13.76,5,12.26,5L11.73,5C10.23,5,9.73,5.57,9.96,7Z" fill="currentColor"/><path d="M13.83,17C13.83,15.87,13.13,15.17,12,15.17C10.87,15.17,10.17,15.87,10.17,17C10.17,18.13,10.87,18.83,12,18.83C13.13,18.83,13.83,18.13,13.83,17Z" fill="currentColor"/></svg>