<svg xmlns="http://www.w3.org/2000/svg" viewBox="0 0 24 24" fill="currentColor"><path d="M13.75,10.04L13.75,7.44C13.75,6.97,13.47,6.67,13,6.67C12.53,6.67,12.23,6.97,12.23,7.44L12.23,10.37C12.23,10.79,12.38,11.04,12.75,11.24L14.93,12.42C15.85,12.95,16.58,11.62,15.75,11.15ZM7.63,10.52C7.63,7.55,10.03,5.15,12.98,5.15C15.95,5.15,18.36,7.55,18.36,10.52C18.36,13.47,15.96,15.87,12.98,15.87C10.03,15.87,7.63,13.47,7.63,10.52ZM5.13,19.75C5.13,19.13,5.63,18.63,6.25,18.63C6.87,18.63,7.38,19.13,7.38,19.75C7.38,20.37,6.87,20.88,6.25,20.88C5.63,20.88,5.13,20.37,5.13,19.75ZM9.63,19.75C9.63,19.13,10.13,18.63,10.75,18.63C11.37,18.63,11.88,19.13,11.88,19.75C11.88,20.37,11.37,20.88,10.75,20.88C10.13,20.88,9.63,20.37,9.63,19.75ZM14.13,19.75C14.13,19.13,14.63,18.63,15.25,18.63C15.87,18.63,16.38,19.13,16.38,19.75C16.38,20.37,15.87,20.88,15.25,20.88C14.63,20.88,14.13,20.37,14.13,19.75ZM18.63,19.75C18.63,19.13,19.13,18.63,19.75,18.63C20.37,18.63,20.88,19.13,20.88,19.75C20.88,20.37,20.37,20.88,19.75,20.88C19.13,20.88,18.63,20.37,18.63,19.75Z"/></svg>