<svg xmlns="http://www.w3.org/2000/svg" viewBox="0 0 24 24" fill="currentColor"><path d="M9.5,17.5C9.5,16.95,9.05,16.5,8.5,16.5C7.95,16.5,7.5,16.95,7.5,17.5C7.5,18.05,7.95,18.5,8.5,18.5C9.05,18.5,9.5,18.05,9.5,17.5ZM9.5,14.5C9.5,13.95,9.05,13.5,8.5,13.5C7.95,13.5,7.5,13.95,7.5,14.5C7.5,15.05,7.95,15.5,8.5,15.5C9.05,15.5,9.5,15.05,9.5,14.5ZM9.5,11.5C9.5,10.95,9.05,10.5,8.5,10.5C7.95,10.5,7.5,10.95,7.5,11.5C7.5,12.05,7.95,12.5,8.5,12.5C9.05,12.5,9.5,12.05,9.5,11.5ZM12.48,17.5C12.48,16.95,12.03,16.5,11.5,16.5C10.98,16.5,10.52,16.95,10.52,17.5C10.52,18.05,10.97,18.5,11.5,18.5C12.02,18.5,12.48,18.05,12.48,17.5ZM12.48,14.5C12.48,13.95,12.03,13.5,11.5,13.5C10.98,13.5,10.52,13.95,10.52,14.5C10.52,15.05,10.97,15.5,11.5,15.5C12.02,15.5,12.48,15.05,12.48,14.5ZM12.48,11.5C12.48,10.95,12.03,10.5,11.5,10.5C10.98,10.5,10.52,10.95,10.52,11.5C10.52,12.05,10.97,12.5,11.5,12.5C12.02,12.5,12.48,12.05,12.48,11.5ZM15.48,17.5C15.48,16.95,15.02,16.5,14.5,16.5C13.98,16.5,13.52,16.95,13.52,17.5C13.52,18.05,13.98,18.5,14.5,18.5C15.02,18.5,15.48,18.05,15.48,17.5ZM15.48,14.5C15.48,13.95,15.02,13.5,14.5,13.5C13.98,13.5,13.52,13.95,13.52,14.5C13.52,15.05,13.98,15.5,14.5,15.5C15.02,15.5,15.48,15.05,15.48,14.5ZM15.48,11.5C15.48,10.95,15.02,10.5,14.5,10.5C13.98,10.5,13.52,10.95,13.52,11.5C13.52,12.05,13.98,12.5,14.5,12.5C15.02,12.5,15.48,12.05,15.48,11.5ZM18.48,14.5C18.48,13.95,18.02,13.5,17.5,13.5C16.98,13.5,16.52,13.95,16.52,14.5C16.52,15.05,16.98,15.5,17.5,15.5C18.02,15.5,18.48,15.05,18.48,14.5ZM18.48,11.5C18.48,10.95,18.02,10.5,17.5,10.5C16.98,10.5,16.52,10.95,16.52,11.5C16.52,12.05,16.98,12.5,17.5,12.5C18.02,12.5,18.48,12.05,18.48,11.5ZM9.23,20.5C6.48,20.5,5.5,19.52,5.5,16.77L5.5,9.22C5.5,7.1,6.05,5.75,7.8,5.49L8.5,6L8.5,4.89C8.5,4.17,8.78,3.99,9.25,3.99C9.72,3.99,10,4.17,10,4.89L10,6L10.77,5.49L13,5.49L15.23,5.49L16,6L16,4.89C16,4.17,16.28,3.99,16.75,3.99C17.22,3.99,17.5,4.17,17.5,4.89L17.5,6L18.2,5.49C19.95,5.74,20.5,7.09,20.5,9.22L20.5,16.77C20.5,19.53,19.52,20.5,16.77,20.5L13,20.5Z"/></svg>