<svg xmlns="http://www.w3.org/2000/svg" viewBox="0 0 24 24"><path d="M12,11L7.03,11C6.33,11,5.93,11.37,5.93,12C5.93,12.63,6.33,13,7.03,13L12,13C12.67,13,13.1,12.63,13.1,12C13.1,11.37,12.67,11,12,11Z" fill="currentColor"/><path d="M12,1.5C17.77,1.5,22.5,6.23,22.5,12C22.5,17.77,17.77,22.5,12,22.5C6.23,22.5,1.5,17.77,1.5,12C1.5,6.23,6.23,1.5,12,1.5Z" fill="currentColor"/><path d="M12,20.5C16.67,20.5,20.5,16.67,20.5,12C20.5,7.33,16.67,3.5,12,3.5C7.33,3.5,3.5,7.33,3.5,12C3.5,16.67,7.33,20.5,12,20.5Z" fill="currentColor"/></svg>