<svg xmlns="http://www.w3.org/2000/svg" viewBox="0 0 24 24" fill="currentColor"><path d="M4.7,12.72C7.17,11.73,7.52,10.6,6.02,8.4L5.33,7.4L6.55,7.77C9.1,8.52,10,7.85,10.02,5.2L10.04,4L10.79,4.95C12.42,7.05,13.57,7.05,15.2,4.95L15.95,4L15.97,5.2C15.99,7.85,16.89,8.52,19.44,7.77L20.66,7.4L19.97,8.4C18.47,10.59,18.82,11.72,21.29,12.72L21.99,13L21.29,13.28C20.37,13.65,19.74,14.04,19.4,14.5L17.21,14.5C17.39,14.03,17.5,13.52,17.5,13C17.5,10.64,15.39,8.5,13,8.5C10.64,8.5,8.5,10.64,8.5,13C8.5,13.52,8.6,14.03,8.78,14.5L6.6,14.5C6.26,14.04,5.63,13.65,4.7,13.28L4.01,13ZM13,10C14.76,10,16,11.26,16,13C16,13.56,15.87,14.07,15.65,14.5L10.36,14.5C10.13,14.07,10,13.56,10,13C10,11.26,11.26,10,13,10ZM13,20.97L9.25,16.75L16.75,16.75Z"/></svg>