<svg xmlns="http://www.w3.org/2000/svg" viewBox="0 0 24 24"><path d="M2,20L8.5,20C8.75,20.71,9.08,21.38,9.49,22L1.42,22C0.39,22,-0.01,21.6,-0.01,20.57C0.02,16.67,0.42,16.24,4.36,12C0.43,7.77,0.03,7.33,-0.01,3.43C-0.01,2.4,0.39,2,1.42,2L12.55,2C13.58,2,13.98,2.4,13.98,3.43C13.96,6,13.78,7.06,12.53,8.7L10.61,10.63C9.32,11.95,8.4,13.66,8.09,15.58C8.04,15.38,8.01,15.16,8.01,14.89L8.01,12.22C8.01,11.19,8.28,10.49,8.94,9.72L11.27,7.09C12.3,5.92,1.64,5.89,2.67,7.06L5.04,9.73C5.74,10.5,6.01,11.2,6.01,12.23L6.01,14.9C6.01,18.07,1.98,15.93,1.98,20Z" fill="currentColor"/><path d="M10.03,17C10.03,13.17,13.2,10.03,17,10.03C20.83,10.03,23.97,13.16,23.97,17C23.97,20.8,20.84,23.97,17,23.97C13.2,23.97,10.03,20.8,10.03,17Z" fill="currentColor"/><path d="M16.17,17.24C16.24,17.71,16.44,17.87,16.94,17.87L17.07,17.87C17.57,17.87,17.77,17.7,17.84,17.24L18.34,13.67C18.47,12.74,18.17,12.37,17.17,12.37L16.84,12.37C15.84,12.37,15.54,12.74,15.67,13.67Z" fill="currentColor"/><path d="M18.2,20.3C18.2,19.57,17.73,19.1,17,19.1C16.27,19.1,15.8,19.57,15.8,20.3C15.8,21.03,16.27,21.5,17,21.5C17.73,21.5,18.2,21.03,18.2,20.3Z" fill="currentColor"/></svg>