<svg xmlns="http://www.w3.org/2000/svg" viewBox="0 0 24 24"><path d="M6.97,22C3.3,22,2,20.7,2,17.03L2,6.96C2,4.13,2.73,2.33,5.07,1.99L6,2.66L6,1.19C6,0.22,6.37,-0.01,7,-0.01C7.63,-0.01,8,0.22,8,1.19L8,2.66L9.03,1.99L12,1.99L14.97,1.99L16,2.66L16,1.19C16,0.22,16.37,-0.01,17,-0.01C17.63,-0.01,18,0.22,18,1.19L18,2.66L18.93,1.99C21.26,2.32,22,4.12,22,6.96L22,17.03C22,20.7,20.7,22,17.03,22L12,22Z" fill="currentColor"/><path d="M5.63,13.27L9.4,17.04C10.13,17.77,10.67,17.77,11.4,17.04L18.63,9.77C19.36,9.07,19.33,8.5,18.6,7.77L18.53,7.67C17.8,6.94,17.23,6.94,16.5,7.67L10.4,13.77L7.77,11.14C7.04,10.41,6.47,10.44,5.74,11.17L5.64,11.24C4.91,11.97,4.91,12.54,5.64,13.27Z" fill="currentColor"/></svg>