<svg xmlns="http://www.w3.org/2000/svg" viewBox="0 0 24 24" fill="currentColor"><path d="M9.23,20.5C6.48,20.5,5.5,19.52,5.5,16.77L5.5,9.22C5.5,7.1,6.05,5.75,7.8,5.49L8.5,6L8.5,4.89C8.5,4.17,8.78,3.99,9.25,3.99C9.72,3.99,10,4.17,10,4.89L10,6L10.77,5.49L13,5.49L15.23,5.49L16,6L16,4.89C16,4.17,16.28,3.99,16.75,3.99C17.22,3.99,17.5,4.17,17.5,4.89L17.5,6L18.2,5.49C19.95,5.74,20.5,7.09,20.5,9.22L20.5,16.77C20.5,19.53,19.52,20.5,16.77,20.5L13,20.5ZM11.48,9.25L12.08,13.3C12.15,13.8,12.38,14,12.93,14L13.08,14C13.62,14,13.85,13.79,13.92,13.3L14.52,9.25C14.7,8.18,14.32,7.75,13.2,7.75L12.8,7.75C11.67,7.75,11.3,8.18,11.47,9.25ZM13,15.38C12.15,15.38,11.63,15.9,11.63,16.75C11.63,17.6,12.15,18.12,13,18.12C13.85,18.12,14.37,17.6,14.37,16.75C14.37,15.9,13.85,15.38,13,15.38Z"/></svg>