<svg xmlns="http://www.w3.org/2000/svg" viewBox="0 0 24 24" fill="currentColor"><path d="M9.23,20.5C6.48,20.5,5.5,19.52,5.5,16.77L5.5,9.22C5.5,7.1,6.05,5.75,7.8,5.49L8.5,6L8.5,4.89C8.5,4.17,8.78,3.99,9.25,3.99C9.72,3.99,10,4.17,10,4.89L10,6L10.77,5.49L13,5.49L15.23,5.49L16,6L16,4.89C16,4.17,16.28,3.99,16.75,3.99C17.22,3.99,17.5,4.17,17.5,4.89L17.5,6L18.2,5.49C19.95,5.74,20.5,7.09,20.5,9.22L20.5,16.77C20.5,19.53,19.52,20.5,16.77,20.5L13,20.5ZM9.1,16.83C9.7,17.43,10.15,17.45,10.7,16.9L13,14.6L15.3,16.9C15.85,17.45,16.3,17.4,16.9,16.8L16.9,16.8C17.45,16.26,17.4,15.81,16.8,15.21L14.61,13.01L16.83,10.81C17.43,10.21,17.48,9.76,16.93,9.21L16.91,9.19C16.31,8.59,15.86,8.57,15.31,9.12L13.01,11.42L10.7,9.12C10.16,8.57,9.71,8.61,9.11,9.21L9.11,9.21C8.56,9.76,8.6,10.21,9.21,10.81L11.4,13.01L9.17,15.21C8.57,15.81,8.52,16.26,9.08,16.8Z"/></svg>