<svg xmlns="http://www.w3.org/2000/svg" viewBox="0 0 24 24"><path d="M20.57,8.13L17.9,6.66L17.9,3.19C17.9,2.42,17.4,1.96,16.63,1.96C15.86,1.96,15.36,2.43,15.36,3.19L15.36,6.69C15.36,7.72,15.73,8.32,16.63,8.82L19.2,10.22C20.7,11.02,21.93,8.85,20.57,8.12Z" fill="currentColor"/><path d="M16.6,0C20.67,0,24,3.33,24,7.4C24,11.28,20.96,14.49,17.15,14.78C16.37,10.87,13.13,7.63,9.22,6.85C9.51,3.04,12.72,0,16.6,0Z" fill="currentColor"/><path d="M0,16.6C0,12.53,3.33,9.2,7.4,9.2C11.47,9.2,14.8,12.53,14.8,16.6C14.8,20.67,11.47,24,7.4,24C3.33,24,0,20.67,0,16.6Z" fill="currentColor"/><path d="M6.1,20.17C6.1,21.24,6.5,21.64,7.53,21.64L7.16,21.64C8.23,21.64,8.63,21.24,8.63,20.21L8.63,17.84L10.96,17.84C11.99,17.84,12.39,17.44,12.39,16.37L12.39,16.8C12.39,15.77,11.99,15.37,10.92,15.37L8.62,15.37L8.62,13.04C8.62,11.97,8.22,11.57,7.19,11.57L7.56,11.57C6.49,11.57,6.09,11.97,6.09,13L6.09,15.37L3.52,15.37C2.49,15.37,2.09,15.77,2.09,16.84L2.09,16.41C2.09,17.44,2.49,17.84,3.56,17.84L6.09,17.84Z" fill="currentColor"/></svg>