<svg xmlns="http://www.w3.org/2000/svg" viewBox="0 0 24 24"><path d="M16.23,9.17L12.7,12.7C12.23,13.2,11.67,13.2,11.23,12.77C10.8,12.34,10.8,11.77,11.3,11.3L14.83,7.77C15.3,7.3,15.86,7.27,16.3,7.7C16.73,8.13,16.7,8.7,16.23,9.17Z" fill="currentColor"/><path d="M22.5,12C22.5,17.77,17.77,22.5,12,22.5C6.23,22.5,1.5,17.77,1.5,12C1.5,6.23,6.23,1.5,12,1.5C17.77,1.5,22.5,6.23,22.5,12Z" fill="currentColor"/><path d="M3.5,12C3.5,16.67,7.33,20.5,12,20.5C16.67,20.5,20.5,16.67,20.5,12C20.5,7.33,16.67,3.5,12,3.5C7.33,3.5,3.5,7.33,3.5,12Z" fill="currentColor"/></svg>