<svg xmlns="http://www.w3.org/2000/svg" viewBox="0 0 24 24"><path d="M12,22.5C6.77,22.5,2.5,18.23,2.5,13C2.5,8.28,5.98,4.34,10.5,3.62L10.5,2L8.5,2C8.5,0.3,8.93,0,12,0C15.07,0,15.5,0.3,15.5,2L13.5,2L13.5,3.62C14.29,3.75,15.05,3.97,15.76,4.28L13.44,6.62C12.98,6.54,12.5,6.5,11.99,6.5C7.99,6.5,5.49,9,5.49,13C5.49,17,7.99,19.5,11.99,19.5C15.99,19.5,18.49,17,18.49,13C18.49,12.48,18.45,11.99,18.37,11.52L20.69,9.18C21.21,10.35,21.49,11.64,21.49,12.99C21.49,18.22,17.22,22.49,11.99,22.49Z" fill="currentColor"/><path d="M17.56,5.3C18.36,5.88,19.07,6.59,19.66,7.39L17.64,9.42C17.14,8.54,16.43,7.83,15.54,7.34Z" fill="currentColor"/><path d="M9.67,15.33L11,11.93L20.4,2.43C21,1.83,21.57,1.53,22.5,2.4C23.43,3.33,23.13,3.9,22.5,4.53L13.1,14Z" fill="currentColor"/></svg>