<svg xmlns="http://www.w3.org/2000/svg" viewBox="0 0 24 24" fill="currentColor"><path d="M7.73,20.5C4.98,20.5,4,19.52,4,16.77L4,9.22C4,7.1,4.55,5.75,6.3,5.49L7,6L7,4.89C7,4.17,7.28,3.99,7.75,3.99C8.22,3.99,8.5,4.17,8.5,4.89L8.5,6L9.27,5.49L11.5,5.49L13.73,5.49L14.5,6L14.5,4.89C14.5,4.17,14.78,3.99,15.25,3.99C15.72,3.99,16,4.17,16,4.89L16,6L16.7,5.49C18.45,5.74,19,7.09,19,9.22L19,10.61C18.45,10.54,17.86,10.64,17.32,10.95L16.76,11.27L16.15,10.93C14.32,9.93,12,11.29,12,13.37L12,14.01L11.42,14.34C9.62,15.39,9.62,18.13,11.42,19.19L12,19.53L12,20.16C12,20.28,12.01,20.38,12.02,20.49L11.51,20.49ZM15.13,21.25C14.93,21.53,14.66,21.57,14.38,21.42L13.93,21.14C13.65,21,13.56,20.72,13.71,20.42L13.93,19.89C14.03,19.69,13.98,19.42,13.8,19.12L13.15,17.97C13.05,17.77,12.8,17.65,12.45,17.62L12.08,17.57C11.72,17.54,11.55,17.32,11.55,16.99L11.55,16.49C11.55,16.13,11.73,15.94,12.08,15.91L12.63,15.83C12.85,15.83,13.08,15.66,13.25,15.36L13.9,14.21C14,14.01,14,13.74,13.85,13.44L13.7,13.07C13.55,12.77,13.64,12.49,13.92,12.34L14.37,12.06C14.65,11.91,14.92,11.96,15.12,12.23L15.48,12.71C15.6,12.88,15.87,12.98,16.2,12.98L17.53,12.98C17.75,12.98,17.98,12.83,18.18,12.56L18.43,12.23C18.63,11.96,18.9,11.91,19.18,12.06L19.63,12.34C19.91,12.49,20,12.77,19.86,13.07L19.63,13.59C19.53,13.79,19.58,14.06,19.76,14.36L20.41,15.51C20.51,15.71,20.76,15.83,21.11,15.86L21.48,15.92C21.84,15.94,22.01,16.14,22.01,16.49L22.01,17C22.01,17.32,21.84,17.54,21.48,17.57L20.94,17.65C20.71,17.65,20.48,17.82,20.31,18.12L19.66,19.27C19.56,19.47,19.56,19.74,19.71,20.04L19.86,20.42C20.01,20.72,19.92,21,19.64,21.14L19.19,21.42C18.91,21.57,18.64,21.52,18.44,21.25L18.09,20.78C17.96,20.61,17.71,20.5,17.36,20.5L16.03,20.5C15.81,20.5,15.58,20.65,15.38,20.93ZM15.03,16.75C15.03,17.73,15.8,18.5,16.77,18.5C17.75,18.5,18.52,17.72,18.52,16.75C18.52,15.77,17.75,15,16.77,15C15.8,15,15.03,15.78,15.03,16.75Z"/></svg>