<svg xmlns="http://www.w3.org/2000/svg" viewBox="0 0 24 24"><path d="M0.93,11.63C4.23,10.3,4.7,8.8,2.7,5.86L1.77,4.53L3.4,5.03C6.8,6.03,8,5.13,8.03,1.6L8.06,0L9.06,1.27C11.23,4.07,12.76,4.07,14.93,1.27L15.93,0L15.96,1.6C15.99,5.13,17.19,6.03,20.59,5.03L22.22,4.53L21.29,5.86C19.29,8.79,19.76,10.29,23.06,11.63L23.99,12L23.06,12.37C21.83,12.87,20.99,13.39,20.53,14L17.62,14C17.86,13.37,18,12.69,18,12C18,8.86,15.19,6,12,6C8.85,6,6,8.85,6,12C6,12.69,6.14,13.37,6.38,14L3.47,14C3.01,13.39,2.17,12.87,0.94,12.37L0.01,12Z" fill="currentColor"/><path d="M12,8C14.35,8,16,9.68,16,12C16,12.75,15.83,13.42,15.53,14L8.48,14C8.17,13.42,8,12.75,8,12C8,9.68,9.68,8,12,8Z" fill="currentColor"/><path d="M12,22.63L7,17L17,17Z" fill="currentColor"/></svg>