<svg xmlns="http://www.w3.org/2000/svg" viewBox="0 0 24 24"><path d="M15.97,15.3L14.04,14.26L15.5,12.8L17.04,13.66C18.14,14.26,17.24,15.99,15.97,15.29Z" fill="currentColor"/><path d="M7.05,21.25L8.54,19.76C9.6,20.24,10.77,20.5,12,20.5C16.67,20.5,20.5,16.67,20.5,12C20.5,10.77,20.23,9.6,19.76,8.54L21.25,7.05C22.05,8.53,22.5,10.21,22.5,12C22.5,17.77,17.77,22.5,12,22.5C10.21,22.5,8.53,22.05,7.05,21.25Z" fill="currentColor"/><path d="M23.4,2.03L20.1,5.33L18.68,6.75L13.67,11.76L12.19,13.24L6.77,18.66L5.35,20.08L2.11,23.32L2.08,23.35C1.65,23.78,1.18,23.78,0.75,23.35L0.65,23.25C0.22,22.82,0.22,22.35,0.65,21.92L3.92,18.65C2.42,16.83,1.52,14.51,1.52,11.99C1.52,6.22,6.25,1.49,12.02,1.49C14.54,1.49,16.86,2.39,18.68,3.89L21.98,0.59C22.41,0.16,22.88,0.16,23.31,0.59L23.41,0.69C23.83,1.11,23.84,1.57,23.44,1.99C23.43,2,23.42,2.01,23.41,2.02Z" fill="currentColor"/><path d="M5.33,17.24L11.02,11.55C11.01,11.43,11,11.3,11,11.17L11,6.07C11,5.47,11.4,5.07,12,5.07C12.6,5.07,13,5.47,13,6.07L13,9.57L17.24,5.33C15.79,4.19,13.97,3.5,12,3.5C7.33,3.5,3.5,7.33,3.5,12C3.5,13.97,4.18,15.79,5.33,17.24Z" fill="currentColor"/></svg>