<svg xmlns="http://www.w3.org/2000/svg" viewBox="0 0 24 24"><path d="M14.83,16.23L11.3,12.7C10.8,12.23,10.8,11.67,11.23,11.23C11.66,10.8,12.23,10.8,12.7,11.3L16.23,14.83C16.7,15.3,16.73,15.86,16.3,16.3C15.87,16.73,15.3,16.7,14.83,16.23Z" fill="currentColor"/><path d="M12,22.5C6.23,22.5,1.5,17.77,1.5,12C1.5,6.23,6.23,1.5,12,1.5C17.77,1.5,22.5,6.23,22.5,12C22.5,17.77,17.77,22.5,12,22.5Z" fill="currentColor"/><path d="M12,3.5C7.33,3.5,3.5,7.33,3.5,12C3.5,16.67,7.33,20.5,12,20.5C16.67,20.5,20.5,16.67,20.5,12C20.5,7.33,16.67,3.5,12,3.5Z" fill="currentColor"/></svg>