<svg xmlns="http://www.w3.org/2000/svg" viewBox="0 0 24 24" fill="currentColor"><path d="M15.98,15.48L13.2,13.98C12.53,13.6,12.25,13.15,12.25,12.38L12.25,8.55C12.25,8.1,12.55,7.8,13,7.8C13.45,7.8,13.75,8.1,13.75,8.55L13.75,12.55L16.77,14.25C17.6,14.7,16.92,16,15.97,15.48ZM13,5.13C17.33,5.13,20.88,8.67,20.88,13C20.88,17.33,17.33,20.88,13,20.88C8.67,20.88,5.13,17.33,5.13,13C5.13,8.67,8.67,5.13,13,5.13ZM13,6.63C9.5,6.63,6.63,9.5,6.63,13C6.63,16.5,9.5,19.38,13,19.38C16.5,19.38,19.38,16.5,19.38,13C19.38,9.5,16.5,6.63,13,6.63Z"/></svg>