<svg xmlns="http://www.w3.org/2000/svg" viewBox="0 0 24 24"><path d="M11,22.33C5.93,22.33,1.67,18.1,1.67,13C1.67,8.05,5.54,4.06,10.29,3.69C8.87,5.21,8.01,7.27,8.01,9.53C8.01,14.26,11.78,18,16.54,18C17.44,18,18.31,17.86,19.12,17.61C17.52,20.42,14.51,22.33,11.01,22.33Z" fill="currentColor"/><path d="M19.37,7.8C19.17,8.37,18.9,8.37,18.7,7.8L18.37,6.9C18.17,6.33,17.74,5.93,17.17,5.7L16.2,5.37C15.63,5.14,15.63,4.94,16.2,4.7L17.17,4.37C17.74,4.14,18.14,3.74,18.37,3.17L18.7,2.2C18.93,1.63,19.13,1.63,19.37,2.2L19.7,3.17C19.93,3.74,20.33,4.17,20.9,4.37L21.8,4.7C22.37,4.9,22.37,5.17,21.8,5.37L20.9,5.7C20.33,5.9,19.9,6.33,19.7,6.9Z" fill="currentColor"/></svg>