<svg xmlns="http://www.w3.org/2000/svg" viewBox="0 0 24 24"><path d="M13,8.06L13,4.59C13,3.96,12.63,3.56,12,3.56C11.37,3.56,10.97,3.96,10.97,4.59L10.97,8.49C10.97,9.06,11.17,9.39,11.67,9.66L14.57,11.23C15.8,11.93,16.77,10.16,15.67,9.53Z" fill="currentColor"/><path d="M4.84,8.7C4.84,4.73,8.04,1.53,11.97,1.53C15.94,1.53,19.14,4.73,19.14,8.7C19.14,12.63,15.94,15.83,11.97,15.83C8.04,15.83,4.84,12.63,4.84,8.7Z" fill="currentColor"/><path d="M1.5,21C1.5,20.17,2.17,19.5,3,19.5C3.83,19.5,4.5,20.17,4.5,21C4.5,21.83,3.83,22.5,3,22.5C2.17,22.5,1.5,21.83,1.5,21Z" fill="currentColor"/><path d="M7.5,21C7.5,20.17,8.17,19.5,9,19.5C9.83,19.5,10.5,20.17,10.5,21C10.5,21.83,9.83,22.5,9,22.5C8.17,22.5,7.5,21.83,7.5,21Z" fill="currentColor"/><path d="M13.5,21C13.5,20.17,14.17,19.5,15,19.5C15.83,19.5,16.5,20.17,16.5,21C16.5,21.83,15.83,22.5,15,22.5C14.17,22.5,13.5,21.83,13.5,21Z" fill="currentColor"/><path d="M19.5,21C19.5,20.17,20.17,19.5,21,19.5C21.83,19.5,22.5,20.17,22.5,21C22.5,21.83,21.83,22.5,21,22.5C20.17,22.5,19.5,21.83,19.5,21Z" fill="currentColor"/></svg>