<svg xmlns="http://www.w3.org/2000/svg" viewBox="0 0 24 24" fill="currentColor"><path d="M8.46,10.38C7.68,10.38,7.38,10.68,7.38,11.45L7.38,11.54C7.38,12.32,7.68,12.62,8.46,12.62L8.55,12.62C9.32,12.62,9.63,12.32,9.63,11.54L9.63,11.45C9.63,10.68,9.32,10.38,8.55,10.38ZM11.46,10.38C10.68,10.38,10.38,10.68,10.38,11.45L10.38,11.54C10.38,12.32,10.68,12.62,11.46,12.62L11.55,12.62C12.32,12.62,12.63,12.32,12.63,11.54L12.63,11.45C12.63,10.68,12.32,10.38,11.55,10.38ZM14.46,10.38C13.68,10.38,13.38,10.68,13.38,11.45L13.38,11.54C13.38,12.32,13.68,12.62,14.46,12.62L14.55,12.62C15.33,12.62,15.63,12.32,15.63,11.54L15.63,11.45C15.63,10.68,15.33,10.38,14.55,10.38ZM17.46,10.38C16.68,10.38,16.38,10.68,16.38,11.45L16.38,11.54C16.38,12.32,16.68,12.62,17.46,12.62L17.55,12.62C18.33,12.62,18.63,12.32,18.63,11.54L18.63,11.45C18.63,10.68,18.33,10.38,17.55,10.38ZM8.46,13.38C7.68,13.38,7.38,13.67,7.38,14.45L7.38,14.54C7.38,15.32,7.68,15.62,8.46,15.62L8.55,15.62C9.32,15.62,9.63,15.32,9.63,14.54L9.63,14.45C9.63,13.67,9.32,13.38,8.55,13.38ZM11.46,13.38C10.68,13.38,10.38,13.67,10.38,14.45L10.38,14.54C10.38,15.32,10.68,15.62,11.46,15.62L11.55,15.62C12.32,15.62,12.63,15.32,12.63,14.54L12.63,14.45C12.63,13.67,12.32,13.38,11.55,13.38ZM14.46,13.38C13.68,13.38,13.38,13.67,13.38,14.45L13.38,14.54C13.38,15.32,13.68,15.62,14.46,15.62L14.55,15.62C15.33,15.62,15.63,15.32,15.63,14.54L15.63,14.45C15.63,13.67,15.33,13.38,14.55,13.38ZM17.46,13.38C16.68,13.38,16.38,13.67,16.38,14.45L16.38,14.54C16.38,15.32,16.68,15.62,17.46,15.62L17.55,15.62C18.33,15.62,18.63,15.32,18.63,14.54L18.63,14.45C18.63,13.67,18.33,13.38,17.55,13.38ZM8.46,16.38C7.68,16.38,7.38,16.67,7.38,17.45L7.38,17.54C7.38,18.32,7.68,18.62,8.46,18.62L8.55,18.62C9.32,18.62,9.63,18.32,9.63,17.54L9.63,17.45C9.63,16.67,9.32,16.38,8.55,16.38ZM11.46,16.38C10.68,16.38,10.38,16.67,10.38,17.45L10.38,17.54C10.38,18.32,10.68,18.62,11.46,18.62L11.55,18.62C12.32,18.62,12.63,18.32,12.63,17.54L12.63,17.45C12.63,16.67,12.32,16.38,11.55,16.38ZM14.46,16.38C13.68,16.38,13.38,16.67,13.38,17.45L13.38,17.54C13.38,18.32,13.68,18.62,14.46,18.62L14.55,18.62C15.33,18.62,15.63,18.32,15.63,17.54L15.63,17.45C15.63,16.67,15.33,16.38,14.55,16.38ZM9.23,20.5C6.48,20.5,5.5,19.52,5.5,16.77L5.5,9.22C5.5,7.1,6.05,5.75,7.8,5.49L8.5,6L8.5,4.89C8.5,4.17,8.78,3.99,9.25,3.99C9.72,3.99,10,4.17,10,4.89L10,6L10.77,5.49L13,5.49L15.23,5.49L16,6L16,4.89C16,4.17,16.28,3.99,16.75,3.99C17.22,3.99,17.5,4.17,17.5,4.89L17.5,6L18.2,5.49C19.95,5.74,20.5,7.09,20.5,9.22L20.5,16.77C20.5,19.53,19.52,20.5,16.77,20.5L13,20.5Z"/></svg>