<svg xmlns="http://www.w3.org/2000/svg" viewBox="0 0 24 24" fill="currentColor"><path d="M10.02,16.83C10.02,16.35,9.65,15.98,9.17,15.98C8.7,15.98,8.33,16.35,8.33,16.83C8.33,17.3,8.7,17.67,9.17,17.67C9.65,17.67,10.02,17.3,10.02,16.83ZM10.02,14.27C10.02,13.8,9.65,13.43,9.17,13.43C8.7,13.43,8.33,13.8,8.33,14.27C8.33,14.75,8.7,15.12,9.17,15.12C9.65,15.12,10.02,14.75,10.02,14.27ZM10.02,11.73C10.02,11.25,9.65,10.88,9.17,10.88C8.7,10.88,8.33,11.25,8.33,11.73C8.33,12.2,8.7,12.57,9.17,12.57C9.65,12.57,10.02,12.2,10.02,11.73ZM12.55,16.83C12.55,16.35,12.17,15.98,11.72,15.98C11.27,15.98,10.9,16.35,10.9,16.83C10.9,17.3,11.27,17.67,11.72,17.67C12.17,17.67,12.55,17.3,12.55,16.83ZM12.55,14.27C12.55,13.8,12.17,13.43,11.72,13.43C11.27,13.43,10.9,13.8,10.9,14.27C10.9,14.75,11.27,15.12,11.72,15.12C12.17,15.12,12.55,14.75,12.55,14.27ZM12.55,11.73C12.55,11.25,12.17,10.88,11.72,10.88C11.27,10.88,10.9,11.25,10.9,11.73C10.9,12.2,11.27,12.57,11.72,12.57C12.17,12.57,12.55,12.2,12.55,11.73ZM15.1,16.83C15.1,16.35,14.73,15.98,14.28,15.98C13.83,15.98,13.45,16.35,13.45,16.83C13.45,17.3,13.83,17.67,14.28,17.67C14.73,17.67,15.1,17.3,15.1,16.83ZM15.1,14.27C15.1,13.8,14.73,13.43,14.28,13.43C13.83,13.43,13.45,13.8,13.45,14.27C13.45,14.75,13.83,15.12,14.28,15.12C14.73,15.12,15.1,14.75,15.1,14.27ZM15.1,11.73C15.1,11.25,14.73,10.88,14.28,10.88C13.83,10.88,13.45,11.25,13.45,11.73C13.45,12.2,13.83,12.57,14.28,12.57C14.73,12.57,15.1,12.2,15.1,11.73ZM17.65,14.27C17.65,13.8,17.28,13.43,16.83,13.43C16.38,13.43,16,13.8,16,14.27C16,14.75,16.38,15.12,16.83,15.12C17.28,15.12,17.65,14.75,17.65,14.27ZM17.65,11.73C17.65,11.25,17.28,10.88,16.83,10.88C16.38,10.88,16,11.25,16,11.73C16,12.2,16.38,12.57,16.83,12.57C17.28,12.57,17.65,12.2,17.65,11.73ZM16.77,19C18.75,19,19,18.75,19,16.77L19,9.22C19,7.24,18.75,6.99,16.77,6.99L9.22,6.99C7.24,6.99,6.99,7.24,6.99,9.22L6.99,16.77C6.99,18.75,7.24,19,9.22,19ZM9.22,20.5C6.47,20.5,5.49,19.52,5.49,16.77L5.49,9.22C5.49,6.47,6.47,5.49,9.22,5.49L16.77,5.49C19.53,5.49,20.5,6.47,20.5,9.22L20.5,16.77C20.5,19.53,19.52,20.5,16.77,20.5ZM10.05,7.75L9.96,7.75C9.5,7.75,9.26,7.5,9.26,7.05L9.26,6.25L10.76,6.25L10.76,7.05C10.76,7.5,10.51,7.75,10.06,7.75ZM9.25,4.7C9.25,4.25,9.5,4,9.95,4L10.04,4C10.5,4,10.74,4.25,10.74,4.7L10.74,5.5L9.24,5.5ZM16.05,7.75L15.96,7.75C15.5,7.75,15.26,7.5,15.26,7.05L15.26,6.25L16.76,6.25L16.76,7.05C16.76,7.5,16.51,7.75,16.06,7.75ZM15.25,4.7C15.25,4.25,15.5,4,15.95,4L16.04,4C16.5,4,16.74,4.25,16.74,4.7L16.74,5.5L15.24,5.5Z"/></svg>