<svg xmlns="http://www.w3.org/2000/svg" viewBox="0 0 24 24"><path d="M13,12L13,7.03C13,6.33,12.63,5.93,12,5.93C11.37,5.93,11,6.33,11,7.03L11,12C11,12.67,11.37,13.1,12,13.1C12.63,13.1,13,12.67,13,12Z" fill="currentColor"/><path d="M22.5,12C22.5,17.77,17.77,22.5,12,22.5C6.23,22.5,1.5,17.77,1.5,12C1.5,6.23,6.23,1.5,12,1.5C17.77,1.5,22.5,6.23,22.5,12Z" fill="currentColor"/><path d="M3.5,12C3.5,16.67,7.33,20.5,12,20.5C16.67,20.5,20.5,16.67,20.5,12C20.5,7.33,16.67,3.5,12,3.5C7.33,3.5,3.5,7.33,3.5,12Z" fill="currentColor"/></svg>