<svg xmlns="http://www.w3.org/2000/svg" viewBox="0 0 24 24"><path d="M18.9,16.7C19.7,16.7,20,16.4,20,15.6L20,9.07C20,8.27,19.7,7.97,18.9,7.97L16.73,7.97C15.93,7.97,15.63,8.27,15.63,9.07L15.63,15.6C15.63,16.4,15.93,16.7,16.73,16.7Z" fill="currentColor"/><path d="M6.97,22C3.3,22,2,20.7,2,17.03L2,6.96C2,4.13,2.73,2.33,5.07,1.99L6,2.66L6,1.19C6,0.22,6.37,-0.01,7,-0.01C7.63,-0.01,8,0.22,8,1.19L8,2.66L9.03,1.99L12,1.99L14.97,1.99L16,2.66L16,1.19C16,0.22,16.37,-0.01,17,-0.01C17.63,-0.01,18,0.22,18,1.19L18,2.66L18.93,1.99C21.26,2.32,22,4.12,22,6.96L22,17.03C22,20.7,20.7,22,17.03,22L12,22Z" fill="currentColor"/><path d="M7.27,16.7C8.07,16.7,8.37,16.4,8.37,15.6L8.37,9.07C8.37,8.27,8.07,7.97,7.27,7.97L5.1,7.97C4.3,7.97,4,8.27,4,9.07L4,12.7C4,13.5,4.3,13.8,5.1,13.8L6.9,13.8L6.9,15.23L4,15.23L4,16.7Z" fill="currentColor"/><path d="M5.47,12.33L5.47,9.43L6.9,9.43L6.9,12.33Z" fill="currentColor"/><path d="M11.27,15.23L11.27,12.33L12.74,12.33L12.74,15.23Z" fill="currentColor"/><path d="M13.1,16.7C13.9,16.7,14.17,16.4,14.17,15.6L14.17,11.97C14.17,11.17,13.9,10.87,13.1,10.87L11.27,10.87L11.27,9.44L14.17,9.44L14.17,7.97L10.9,7.97C10.1,7.97,9.83,8.27,9.83,9.07L9.83,15.6C9.83,16.4,10.1,16.7,10.9,16.7Z" fill="currentColor"/><path d="M17.1,15.23L17.1,9.43L18.53,9.43L18.53,15.23Z" fill="currentColor"/></svg>