<svg xmlns="http://www.w3.org/2000/svg" viewBox="0 0 24 24"><path d="M17.03,20C19.67,20,20,19.67,20,17.03L20,6.96C20,4.32,19.67,3.99,17.03,3.99L6.96,3.99C4.32,3.99,3.99,4.32,3.99,6.96L3.99,17.03C3.99,19.67,4.32,20,6.96,20Z" fill="currentColor"/><path d="M6.96,22C3.29,22,1.99,20.7,1.99,17.03L1.99,6.96C1.99,3.29,3.29,1.99,6.96,1.99L17.03,1.99C20.7,1.99,22,3.29,22,6.96L22,17.03C22,20.7,20.7,22,17.03,22Z" fill="currentColor"/><path d="M8.07,5L7.94,5C7.34,5,7.01,4.67,7.01,4.07L7.01,3L9.01,3L9.01,4.07C9.01,4.67,8.68,5,8.08,5Z" fill="currentColor"/><path d="M7,0.93C7,0.33,7.33,0,7.93,0L8.06,0C8.66,0,8.99,0.33,8.99,0.93L8.99,2L6.99,2Z" fill="currentColor"/><path d="M16.07,5L15.94,5C15.34,5,15.01,4.67,15.01,4.07L15.01,3L17.01,3L17.01,4.07C17.01,4.67,16.68,5,16.08,5Z" fill="currentColor"/><path d="M15,0.93C15,0.33,15.33,0,15.93,0L16.06,0C16.66,0,16.99,0.33,16.99,0.93L16.99,2L14.99,2Z" fill="currentColor"/><path d="M8.33,15.6C8.8,16.07,9.26,16.1,9.76,15.6L11.96,13.4L14.23,15.6C14.7,16.07,15.16,16.07,15.63,15.6C16.1,15.13,16.13,14.63,15.63,14.17L13.4,11.97L15.63,9.74C16.1,9.27,16.1,8.81,15.63,8.34C15.16,7.87,14.7,7.84,14.2,8.34L11.97,10.57L9.77,8.37C9.3,7.9,8.84,7.9,8.37,8.37C7.9,8.84,7.87,9.34,8.37,9.8L10.57,11.97L8.34,14.2C7.87,14.67,7.87,15.13,8.34,15.6Z" fill="currentColor"/></svg>