<svg xmlns="http://www.w3.org/2000/svg" viewBox="0 0 24 24" fill="currentColor"><path d="M13.75,20.85C10.88,20.85,8.7,19.5,7.1,17.33C6.85,16.95,6.9,16.6,7.27,16.35L7.37,16.3C7.74,16.05,8.1,16.1,8.34,16.47C9.64,18.22,11.44,19.34,13.77,19.34C17.27,19.34,20.12,16.5,20.12,12.99C20.12,9.49,17.27,6.64,13.77,6.64C12.14,6.64,10.49,7.24,9.27,8.49L7.54,10.24L6.44,9.14L8.16,7.41C9.69,5.89,11.71,5.11,13.74,5.11C18.01,5.11,21.61,8.54,21.61,12.98C21.61,17.18,18.29,20.84,13.74,20.84ZM8.97,12.4L5.1,12.87C4.32,12.97,4.04,12.7,4.14,11.92L4.62,8.07C4.69,7.38,5.04,7.27,5.52,7.75L9.27,11.5C9.74,11.97,9.64,12.32,8.96,12.4ZM17.52,14.25L14.5,12.55L14.5,8.55C14.5,8.1,14.2,7.8,13.75,7.8C13.3,7.8,13,8.1,13,8.55L13,13.45L16.73,15.48C17.68,16,18.36,14.7,17.53,14.25Z"/></svg>