<svg xmlns="http://www.w3.org/2000/svg" viewBox="0 0 24 24" fill="currentColor"><path d="M13,20.88C9.08,20.88,5.88,17.67,5.88,13.75C5.88,10.21,8.48,7.25,11.88,6.71L11.88,5.5L10.38,5.5C10.38,4.22,10.7,4,13,4C15.3,4,15.63,4.22,15.63,5.5L14.13,5.5L14.13,6.71C14.72,6.81,15.29,6.98,15.82,7.21L14.08,8.96C13.73,8.9,13.37,8.88,12.99,8.88C9.99,8.88,8.12,10.75,8.12,13.75C8.12,16.75,9.99,18.63,12.99,18.63C15.99,18.63,17.87,16.75,17.87,13.75C17.87,13.36,17.84,12.99,17.78,12.64L19.52,10.88C19.91,11.76,20.12,12.73,20.12,13.74C20.12,17.66,16.91,20.87,12.99,20.87ZM17.17,7.98C17.77,8.41,18.3,8.94,18.75,9.54L17.23,11.06C16.86,10.4,16.32,9.87,15.65,9.5ZM11.25,15.5L12.25,12.95L19.3,5.82C19.75,5.37,20.18,5.15,20.88,5.8C21.57,6.5,21.35,6.92,20.88,7.4L13.83,14.5Z"/></svg>