<svg xmlns="http://www.w3.org/2000/svg" viewBox="0 0 24 24" fill="currentColor"><path d="M12.25,13L12.25,16.73C12.25,17.25,12.53,17.55,13,17.55C13.47,17.55,13.75,17.25,13.75,16.73L13.75,13C13.75,12.5,13.47,12.18,13,12.18C12.53,12.18,12.25,12.5,12.25,13ZM5.13,13C5.13,8.67,8.67,5.13,13,5.13C17.33,5.13,20.88,8.67,20.88,13C20.88,17.33,17.33,20.88,13,20.88C8.67,20.88,5.13,17.33,5.13,13ZM19.38,13C19.38,9.5,16.5,6.63,13,6.63C9.5,6.63,6.63,9.5,6.63,13C6.63,16.5,9.5,19.38,13,19.38C16.5,19.38,19.38,16.5,19.38,13Z"/></svg>