<svg xmlns="http://www.w3.org/2000/svg" viewBox="0 0 24 24" fill="currentColor"><path d="M16.77,19C18.75,19,19,18.75,19,16.77L19,9.22C19,7.24,18.75,6.99,16.77,6.99L9.22,6.99C7.24,6.99,6.99,7.24,6.99,9.22L6.99,16.77C6.99,18.75,7.24,19,9.22,19ZM9.22,20.5C6.47,20.5,5.49,19.52,5.49,16.77L5.49,9.22C5.49,6.47,6.47,5.49,9.22,5.49L16.77,5.49C19.53,5.49,20.5,6.47,20.5,9.22L20.5,16.77C20.5,19.53,19.52,20.5,16.77,20.5ZM10.05,7.75L9.96,7.75C9.5,7.75,9.26,7.5,9.26,7.05L9.26,6.25L10.76,6.25L10.76,7.05C10.76,7.5,10.51,7.75,10.06,7.75ZM9.25,4.7C9.25,4.25,9.5,4,9.95,4L10.04,4C10.5,4,10.74,4.25,10.74,4.7L10.74,5.5L9.24,5.5ZM16.05,7.75L15.96,7.75C15.5,7.75,15.26,7.5,15.26,7.05L15.26,6.25L16.76,6.25L16.76,7.05C16.76,7.5,16.51,7.75,16.06,7.75ZM15.25,4.7C15.25,4.25,15.5,4,15.95,4L16.04,4C16.5,4,16.74,4.25,16.74,4.7L16.74,5.5L15.24,5.5ZM13.08,13.85L12.93,13.85C12.48,13.85,12.27,13.67,12.2,13.25L11.7,9.8C11.57,8.87,11.9,8.52,12.84,8.52L13.17,8.52C14.12,8.52,14.44,8.88,14.29,9.8L13.79,13.25C13.71,13.67,13.51,13.85,13.06,13.85ZM11.82,16.17C11.82,15.48,12.27,15.02,13,15.02C13.73,15.02,14.18,15.48,14.18,16.17C14.18,16.9,13.73,17.35,13,17.35C12.27,17.35,11.82,16.9,11.82,16.17Z"/></svg>