<svg xmlns="http://www.w3.org/2000/svg" viewBox="0 0 24 24"><path d="M15.97,15.3L12.27,13.3C11.37,12.8,11,12.2,11,11.17L11,6.07C11,5.47,11.4,5.07,12,5.07C12.6,5.07,13,5.47,13,6.07L13,11.4L17.03,13.67C18.13,14.27,17.23,16,15.96,15.3Z" fill="currentColor"/><path d="M1.5,12C1.5,6.23,6.23,1.5,12,1.5C17.77,1.5,22.5,6.23,22.5,12C22.5,17.77,17.77,22.5,12,22.5C6.23,22.5,1.5,17.77,1.5,12Z" fill="currentColor"/><path d="M20.5,12C20.5,7.33,16.67,3.5,12,3.5C7.33,3.5,3.5,7.33,3.5,12C3.5,16.67,7.33,20.5,12,20.5C16.67,20.5,20.5,16.67,20.5,12Z" fill="currentColor"/></svg>