<svg xmlns="http://www.w3.org/2000/svg" viewBox="0 0 24 24"><path d="M11,12L11,16.97C11,17.67,11.37,18.07,12,18.07C12.63,18.07,13,17.67,13,16.97L13,12C13,11.33,12.63,10.9,12,10.9C11.37,10.9,11,11.33,11,12Z" fill="currentColor"/><path d="M1.5,12C1.5,6.23,6.23,1.5,12,1.5C17.77,1.5,22.5,6.23,22.5,12C22.5,17.77,17.77,22.5,12,22.5C6.23,22.5,1.5,17.77,1.5,12Z" fill="currentColor"/><path d="M20.5,12C20.5,7.33,16.67,3.5,12,3.5C7.33,3.5,3.5,7.33,3.5,12C3.5,16.67,7.33,20.5,12,20.5C16.67,20.5,20.5,16.67,20.5,12Z" fill="currentColor"/></svg>