<svg xmlns="http://www.w3.org/2000/svg" viewBox="0 0 24 24"><path d="M6.9,18.23C7.53,18.23,8.03,17.73,8.03,17.1C8.03,16.47,7.53,15.97,6.9,15.97C6.27,15.97,5.77,16.47,5.77,17.1C5.77,17.73,6.27,18.23,6.9,18.23Z" fill="currentColor"/><path d="M6.9,14.83C7.53,14.83,8.03,14.33,8.03,13.7C8.03,13.07,7.53,12.57,6.9,12.57C6.27,12.57,5.77,13.07,5.77,13.7C5.77,14.33,6.27,14.83,6.9,14.83Z" fill="currentColor"/><path d="M6.9,11.43C7.53,11.43,8.03,10.93,8.03,10.3C8.03,9.67,7.53,9.17,6.9,9.17C6.27,9.17,5.77,9.67,5.77,10.3C5.77,10.93,6.27,11.43,6.9,11.43Z" fill="currentColor"/><path d="M10.3,18.23C10.9,18.23,11.4,17.73,11.4,17.1C11.4,16.47,10.9,15.97,10.3,15.97C9.7,15.97,9.2,16.47,9.2,17.1C9.2,17.73,9.7,18.23,10.3,18.23Z" fill="currentColor"/><path d="M10.3,14.83C10.9,14.83,11.4,14.33,11.4,13.7C11.4,13.07,10.9,12.57,10.3,12.57C9.7,12.57,9.2,13.07,9.2,13.7C9.2,14.33,9.7,14.83,10.3,14.83Z" fill="currentColor"/><path d="M10.3,11.43C10.9,11.43,11.4,10.93,11.4,10.3C11.4,9.67,10.9,9.17,10.3,9.17C9.7,9.17,9.2,9.67,9.2,10.3C9.2,10.93,9.7,11.43,10.3,11.43Z" fill="currentColor"/><path d="M13.7,18.23C14.3,18.23,14.8,17.73,14.8,17.1C14.8,16.47,14.3,15.97,13.7,15.97C13.1,15.97,12.6,16.47,12.6,17.1C12.6,17.73,13.1,18.23,13.7,18.23Z" fill="currentColor"/><path d="M13.7,14.83C14.3,14.83,14.8,14.33,14.8,13.7C14.8,13.07,14.3,12.57,13.7,12.57C13.1,12.57,12.6,13.07,12.6,13.7C12.6,14.33,13.1,14.83,13.7,14.83Z" fill="currentColor"/><path d="M13.7,11.43C14.3,11.43,14.8,10.93,14.8,10.3C14.8,9.67,14.3,9.17,13.7,9.17C13.1,9.17,12.6,9.67,12.6,10.3C12.6,10.93,13.1,11.43,13.7,11.43Z" fill="currentColor"/><path d="M17.1,14.83C17.7,14.83,18.2,14.33,18.2,13.7C18.2,13.07,17.7,12.57,17.1,12.57C16.5,12.57,16,13.07,16,13.7C16,14.33,16.5,14.83,17.1,14.83Z" fill="currentColor"/><path d="M17.1,11.43C17.7,11.43,18.2,10.93,18.2,10.3C18.2,9.67,17.7,9.17,17.1,9.17C16.5,9.17,16,9.67,16,10.3C16,10.93,16.5,11.43,17.1,11.43Z" fill="currentColor"/><path d="M17.03,20C19.67,20,20,19.67,20,17.03L20,6.96C20,4.32,19.67,3.99,17.03,3.99L6.96,3.99C4.32,3.99,3.99,4.32,3.99,6.96L3.99,17.03C3.99,19.67,4.32,20,6.96,20Z" fill="currentColor"/><path d="M6.96,22C3.29,22,1.99,20.7,1.99,17.03L1.99,6.96C1.99,3.29,3.29,1.99,6.96,1.99L17.03,1.99C20.7,1.99,22,3.29,22,6.96L22,17.03C22,20.7,20.7,22,17.03,22Z" fill="currentColor"/><path d="M8.07,5L7.94,5C7.34,5,7.01,4.67,7.01,4.07L7.01,3L9.01,3L9.01,4.07C9.01,4.67,8.68,5,8.08,5Z" fill="currentColor"/><path d="M7,0.93C7,0.33,7.33,0,7.93,0L8.06,0C8.66,0,8.99,0.33,8.99,0.93L8.99,2L6.99,2Z" fill="currentColor"/><path d="M16.07,5L15.94,5C15.34,5,15.01,4.67,15.01,4.07L15.01,3L17.01,3L17.01,4.07C17.01,4.67,16.68,5,16.08,5Z" fill="currentColor"/><path d="M15,0.93C15,0.33,15.33,0,15.93,0L16.06,0C16.66,0,16.99,0.33,16.99,0.93L16.99,2L14.99,2Z" fill="currentColor"/></svg>