<svg xmlns="http://www.w3.org/2000/svg" viewBox="0 0 24 24"><path d="M13,22.47C9.17,22.47,6.27,20.67,4.13,17.77C3.8,17.27,3.86,16.8,4.36,16.47L4.49,16.4C4.99,16.07,5.46,16.13,5.79,16.63C7.52,18.96,9.92,20.46,13.02,20.46C17.69,20.46,21.49,16.66,21.49,11.99C21.49,7.32,17.69,3.52,13.02,3.52C10.85,3.52,8.65,4.32,7.02,5.99L4.72,8.32L3.25,6.85L5.55,4.55C7.58,2.52,10.28,1.48,12.98,1.48C18.68,1.48,23.48,6.05,23.48,11.98C23.48,17.58,19.05,22.45,12.98,22.45Z" fill="currentColor"/><path d="M6.63,11.2L1.46,11.83C0.43,11.96,0.06,11.6,0.19,10.56L0.82,5.43C0.92,4.5,1.39,4.36,2.02,5L7.02,10C7.65,10.63,7.52,11.1,6.62,11.2Z" fill="currentColor"/><path d="M18.03,13.67L14,11.4L14,6.07C14,5.47,13.6,5.07,13,5.07C12.4,5.07,12,5.47,12,6.07L12,12.6L16.97,15.3C18.24,16,19.14,14.27,18.04,13.67Z" fill="currentColor"/></svg>