<svg xmlns="http://www.w3.org/2000/svg" viewBox="0 0 24 24" fill="currentColor"><path d="M5.5,19L10.38,19C10.56,19.53,10.81,20.04,11.12,20.5L5.06,20.5C4.29,20.5,3.99,20.2,3.99,19.43C4.02,16.5,4.31,16.18,7.27,13C4.32,9.83,4.02,9.5,3.99,6.57C3.99,5.8,4.29,5.5,5.06,5.5L13.41,5.5C14.19,5.5,14.48,5.8,14.48,6.57C14.47,8.5,14.34,9.29,13.4,10.52L11.96,11.97C10.99,12.96,10.3,14.25,10.07,15.68C10.03,15.54,10.01,15.37,10.01,15.17L10.01,13.16C10.01,12.39,10.21,11.87,10.71,11.29L12.45,9.32C13.23,8.44,5.23,8.42,6,9.29L7.78,11.3C8.31,11.88,8.51,12.4,8.51,13.17L8.51,15.17C8.51,17.55,5.49,15.95,5.49,19ZM11.52,16.75C11.52,13.88,13.9,11.52,16.75,11.52C19.62,11.52,21.98,13.87,21.98,16.75C21.98,19.6,19.63,21.98,16.75,21.98C13.9,21.98,11.52,19.6,11.52,16.75ZM16.13,16.93C16.18,17.28,16.33,17.4,16.71,17.4L16.8,17.4C17.18,17.4,17.33,17.27,17.38,16.93L17.75,14.25C17.85,13.56,17.63,13.28,16.88,13.28L16.63,13.28C15.88,13.28,15.66,13.56,15.75,14.25ZM17.65,19.23C17.65,18.68,17.3,18.33,16.75,18.33C16.2,18.33,15.85,18.68,15.85,19.23C15.85,19.77,16.2,20.13,16.75,20.13C17.3,20.13,17.65,19.77,17.65,19.23Z"/></svg>