<svg xmlns="http://www.w3.org/2000/svg" viewBox="0 0 24 24" fill="currentColor"><path d="M7.73,20.5C4.98,20.5,4,19.52,4,16.77L4,9.22C4,7.1,4.55,5.75,6.3,5.49L7,6L7,4.89C7,4.17,7.28,3.99,7.75,3.99C8.22,3.99,8.5,4.17,8.5,4.89L8.5,6L9.27,5.49L11.5,5.49L13.73,5.49L14.5,6L14.5,4.89C14.5,4.17,14.78,3.99,15.25,3.99C15.72,3.99,16,4.17,16,4.89L16,6L16.7,5.49C18.45,5.74,19,7.09,19,9.22L19,10.79C18.12,10.29,17.09,10,16,10C12.68,10,10,12.68,10,16C10,17.79,10.78,19.41,12.02,20.5L11.5,20.5ZM16,13C14.3,13,13,14.3,13,16C13,17.7,14.3,19,16,19C17.7,19,19,17.7,19,16C19,14.3,17.7,13,16,13ZM16,11.5C18.48,11.5,20.5,13.52,20.5,16C20.5,18.48,18.48,20.5,16,20.5C13.52,20.5,11.5,18.48,11.5,16C11.5,13.52,13.52,11.5,16,11.5ZM21.7,21.55L21.6,21.65C21.28,21.97,20.93,21.97,20.61,21.65L17.83,18.87L18.93,17.77L21.71,20.54C22.03,20.87,22.03,21.22,21.71,21.54Z"/></svg>