<svg xmlns="http://www.w3.org/2000/svg" viewBox="0 0 24 24" fill="currentColor"><path d="M15.91,13.31L19.95,9.28C20.54,10.39,20.87,11.65,20.87,13C20.87,17.35,17.35,20.88,13,20.88C11.66,20.88,10.39,20.54,9.28,19.95L14.25,14.97L15.83,15.83C17.2,16.58,18.28,14.63,17.05,13.95ZM19.08,7.99L14.53,12.54L12.86,14.21L8,19.08L5.57,21.5L5.55,21.52C5.23,21.84,4.88,21.84,4.55,21.52L4.48,21.45C4.16,21.12,4.16,20.77,4.48,20.45L6.92,18C5.8,16.65,5.13,14.9,5.13,13C5.13,8.65,8.66,5.13,13.01,5.13C14.9,5.13,16.65,5.8,18.01,6.92L20.48,4.45C20.8,4.13,21.15,4.13,21.47,4.45L21.55,4.53C21.87,4.84,21.87,5.19,21.57,5.5C21.56,5.51,21.56,5.51,21.55,5.52ZM11.88,12.6C11.88,12.75,11.88,12.89,11.9,13.02L14.13,10.8L14.13,8.5C14.13,7.8,13.7,7.37,13,7.37C12.3,7.37,11.88,7.8,11.88,8.5Z"/></svg>