<svg xmlns="http://www.w3.org/2000/svg" viewBox="0 0 24 24" fill="currentColor"><path d="M19.43,10.1L17.42,9L17.42,6.39C17.42,5.81,17.05,5.47,16.47,5.47C15.89,5.47,15.52,5.82,15.52,6.39L15.52,9.02C15.52,9.79,15.8,10.24,16.47,10.62L18.4,11.67C19.52,12.27,20.45,10.64,19.43,10.09ZM16.45,4C19.5,4,22,6.5,22,9.55C22,12.46,19.72,14.87,16.86,15.09C16.28,12.15,13.85,9.72,10.91,9.14C11.13,6.28,13.54,4,16.45,4ZM4,16.45C4,13.4,6.5,10.9,9.55,10.9C12.6,10.9,15.1,13.4,15.1,16.45C15.1,19.5,12.6,22,9.55,22C6.5,22,4,19.5,4,16.45ZM8.57,19.13C8.57,19.93,8.88,20.23,9.65,20.23L9.37,20.23C10.17,20.23,10.47,19.93,10.47,19.16L10.47,17.38L12.22,17.38C12.99,17.38,13.29,17.08,13.29,16.28L13.29,16.6C13.29,15.83,12.99,15.53,12.19,15.53L10.46,15.53L10.46,13.78C10.46,12.98,10.17,12.68,9.39,12.68L9.67,12.68C8.87,12.68,8.57,12.98,8.57,13.75L8.57,15.53L6.64,15.53C5.87,15.53,5.57,15.83,5.57,16.63L5.57,16.31C5.57,17.08,5.87,17.38,6.67,17.38L8.57,17.38Z"/></svg>