<svg xmlns="http://www.w3.org/2000/svg" viewBox="0 0 24 24"><path d="M6.97,22C3.3,22,2,20.7,2,17.03L2,6.96C2,4.13,2.73,2.33,5.07,1.99L6,2.66L6,1.19C6,0.22,6.37,-0.01,7,-0.01C7.63,-0.01,8,0.22,8,1.19L8,2.66L9.03,1.99L12,1.99L14.97,1.99L16,2.66L16,1.19C16,0.22,16.37,-0.01,17,-0.01C17.63,-0.01,18,0.22,18,1.19L18,2.66L18.93,1.99C21.26,2.32,22,4.12,22,6.96L22,17.03C22,20.7,20.7,22,17.03,22L12,22Z" fill="currentColor"/><path d="M6.8,17.1C7.6,17.9,8.2,17.93,8.93,17.2L12,14.13L15.07,17.2C15.8,17.93,16.4,17.87,17.2,17.07L17.2,17.07C17.93,16.34,17.87,15.74,17.07,14.94L14.14,12.01L17.11,9.08C17.91,8.28,17.98,7.68,17.24,6.95L17.21,6.92C16.41,6.12,15.81,6.09,15.08,6.82L12.01,9.89L8.94,6.82C8.21,6.09,7.61,6.15,6.81,6.95L6.81,6.95C6.08,7.68,6.14,8.28,6.94,9.08L9.87,12.01L6.9,14.94C6.1,15.74,6.03,16.34,6.77,17.07Z" fill="currentColor"/></svg>