<svg xmlns="http://www.w3.org/2000/svg" viewBox="0 0 24 24"><path d="M2.5,13C2.5,7.77,6.77,3.5,12,3.5C17.23,3.5,21.5,7.77,21.5,13C21.5,18.23,17.23,22.5,12,22.5C6.77,22.5,2.5,18.23,2.5,13Z" fill="currentColor"/><path d="M18.5,13C18.5,9,16,6.5,12,6.5C8,6.5,5.5,9,5.5,13C5.5,17,8,19.5,12,19.5C16,19.5,18.5,17,18.5,13Z" fill="currentColor"/><path d="M10.5,5.23L10.5,1L13.5,1L13.5,5.23Z" fill="currentColor"/><path d="M8.5,2C8.5,0.3,8.93,0,12,0C15.07,0,15.5,0.3,15.5,2Z" fill="currentColor"/><path d="M11.97,14.63C11.07,14.63,10.1,13.9,10.47,12.4L11.5,8L12.5,8L13.53,12.37C13.9,13.9,12.9,14.64,11.96,14.64Z" fill="currentColor"/></svg>