<svg xmlns="http://www.w3.org/2000/svg" viewBox="0 0 24 24"><path d="M17.03,20C19.67,20,20,19.67,20,17.03L20,6.96C20,4.32,19.67,3.99,17.03,3.99L6.96,3.99C4.32,3.99,3.99,4.32,3.99,6.96L3.99,17.03C3.99,19.67,4.32,20,6.96,20Z" fill="currentColor"/><path d="M6.96,22C3.29,22,1.99,20.7,1.99,17.03L1.99,6.96C1.99,3.29,3.29,1.99,6.96,1.99L17.03,1.99C20.7,1.99,22,3.29,22,6.96L22,17.03C22,20.7,20.7,22,17.03,22Z" fill="currentColor"/><path d="M8.07,5L7.94,5C7.34,5,7.01,4.67,7.01,4.07L7.01,3L9.01,3L9.01,4.07C9.01,4.67,8.68,5,8.08,5Z" fill="currentColor"/><path d="M7,0.93C7,0.33,7.33,0,7.93,0L8.06,0C8.66,0,8.99,0.33,8.99,0.93L8.99,2L6.99,2Z" fill="currentColor"/><path d="M16.07,5L15.94,5C15.34,5,15.01,4.67,15.01,4.07L15.01,3L17.01,3L17.01,4.07C17.01,4.67,16.68,5,16.08,5Z" fill="currentColor"/><path d="M15,0.93C15,0.33,15.33,0,15.93,0L16.06,0C16.66,0,16.99,0.33,16.99,0.93L16.99,2L14.99,2Z" fill="currentColor"/><path d="M17.24,15.3C17.77,15.3,18.01,15.07,18.01,14.53L18.01,10.1C18.01,9.53,17.78,9.37,17.24,9.37L15.77,9.37C15.24,9.37,15.04,9.54,15.04,10.1L15.04,14.53C15.04,15.06,15.24,15.3,15.77,15.3Z" fill="currentColor"/><path d="M8.27,15.3C8.84,15.3,9,15.07,9,14.53L9,10.1C9,9.53,8.83,9.37,8.27,9.37L6.8,9.37C6.27,9.37,6.03,9.54,6.03,10.1L6.03,12.57C6.03,13.1,6.26,13.34,6.8,13.34L8,13.34L8,14.31L6.03,14.31L6.03,15.31Z" fill="currentColor"/><path d="M7.03,12.33L7.03,10.36L8,10.36L8,12.33Z" fill="currentColor"/><path d="M11.53,14.3L11.53,12.33L12.53,12.33L12.53,14.3Z" fill="currentColor"/><path d="M11.27,15.3L12.77,15.3C13.3,15.3,13.5,15.07,13.5,14.53L13.5,12.06C13.5,11.53,13.3,11.33,12.77,11.33L11.54,11.33L11.54,10.36L13.51,10.36L13.51,9.36L11.28,9.36C10.71,9.36,10.55,9.53,10.55,10.09L10.55,14.52C10.55,15.05,10.72,15.29,11.28,15.29Z" fill="currentColor"/><path d="M16.03,14.3L16.03,10.37L17,10.37L17,14.3Z" fill="currentColor"/></svg>