<svg xmlns="http://www.w3.org/2000/svg" viewBox="0 0 24 24" fill="currentColor"><path d="M18.17,16.52C18.77,16.52,19,16.3,19,15.7L19,10.8C19,10.2,18.77,9.98,18.17,9.98L16.55,9.98C15.95,9.98,15.72,10.2,15.72,10.8L15.72,15.7C15.72,16.3,15.95,16.52,16.55,16.52ZM9.23,20.5C6.48,20.5,5.5,19.52,5.5,16.77L5.5,9.22C5.5,7.1,6.05,5.75,7.8,5.49L8.5,6L8.5,4.89C8.5,4.17,8.78,3.99,9.25,3.99C9.72,3.99,10,4.17,10,4.89L10,6L10.77,5.49L13,5.49L15.23,5.49L16,6L16,4.89C16,4.17,16.28,3.99,16.75,3.99C17.22,3.99,17.5,4.17,17.5,4.89L17.5,6L18.2,5.49C19.95,5.74,20.5,7.09,20.5,9.22L20.5,16.77C20.5,19.53,19.52,20.5,16.77,20.5L13,20.5ZM9.45,16.52C10.05,16.52,10.28,16.3,10.28,15.7L10.28,10.8C10.28,10.2,10.05,9.98,9.45,9.98L7.82,9.98C7.22,9.98,7,10.2,7,10.8L7,13.52C7,14.12,7.23,14.35,7.82,14.35L9.18,14.35L9.18,15.42L7,15.42L7,16.52ZM8.1,13.25L8.1,11.07L9.18,11.07L9.18,13.25ZM12.45,15.42L12.45,13.25L13.55,13.25L13.55,15.42ZM13.83,16.52C14.43,16.52,14.63,16.3,14.63,15.7L14.63,12.98C14.63,12.38,14.43,12.15,13.83,12.15L12.45,12.15L12.45,11.08L14.63,11.08L14.63,9.98L12.18,9.98C11.58,9.98,11.37,10.2,11.37,10.8L11.37,15.7C11.37,16.3,11.58,16.52,12.18,16.52ZM16.83,15.42L16.83,11.07L17.9,11.07L17.9,15.42Z"/></svg>