<svg xmlns="http://www.w3.org/2000/svg" viewBox="0 0 24 24" fill="currentColor"><path d="M9.23,20.5C6.48,20.5,5.5,19.52,5.5,16.77L5.5,9.22C5.5,7.1,6.05,5.75,7.8,5.49L8.5,6L8.5,4.89C8.5,4.17,8.78,3.99,9.25,3.99C9.72,3.99,10,4.17,10,4.89L10,6L10.77,5.49L13,5.49L15.23,5.49L16,6L16,4.89C16,4.17,16.28,3.99,16.75,3.99C17.22,3.99,17.5,4.17,17.5,4.89L17.5,6L18.2,5.49C19.95,5.74,20.5,7.09,20.5,9.22L20.5,16.77C20.5,19.53,19.52,20.5,16.77,20.5L13,20.5ZM8.22,13.95L11.05,16.78C11.6,17.33,12,17.33,12.55,16.78L17.97,11.33C18.52,10.8,18.5,10.38,17.95,9.83L17.9,9.75C17.35,9.21,16.92,9.21,16.38,9.75L11.8,14.33L9.83,12.36C9.28,11.81,8.85,11.83,8.3,12.38L8.23,12.43C7.68,12.98,7.68,13.4,8.23,13.95Z"/></svg>