<svg xmlns="http://www.w3.org/2000/svg" viewBox="0 0 24 24" fill="currentColor"><path d="M15.98,15.48L14.53,14.7L15.63,13.6L16.78,14.25C17.61,14.7,16.93,15.99,15.98,15.47ZM10.41,18.82C11.2,19.18,12.08,19.38,13,19.38C16.5,19.38,19.38,16.5,19.38,13C19.38,12.08,19.17,11.2,18.82,10.4L19.94,9.29C20.54,10.4,20.88,11.66,20.88,13C20.88,17.33,17.33,20.88,13,20.88C11.66,20.88,10.4,20.54,9.29,19.94ZM21.55,5.52L19.07,8L18.01,9.06L14.25,12.82L13.14,13.93L9.08,17.99L8.01,19.06L5.58,21.49L5.56,21.51C5.24,21.84,4.89,21.84,4.56,21.51L4.49,21.44C4.17,21.12,4.17,20.76,4.49,20.44L6.94,17.99C5.82,16.62,5.14,14.88,5.14,12.99C5.14,8.67,8.69,5.12,13.02,5.12C14.91,5.12,16.65,5.79,18.01,6.92L20.49,4.44C20.81,4.12,21.16,4.12,21.48,4.44L21.56,4.52C21.87,4.83,21.88,5.18,21.58,5.49C21.57,5.5,21.57,5.51,21.56,5.52ZM12.27,12.66C12.26,12.57,12.25,12.48,12.25,12.38L12.25,8.55C12.25,8.1,12.55,7.8,13,7.8C13.45,7.8,13.75,8.1,13.75,8.55L13.75,11.18L16.93,8C15.84,7.14,14.48,6.63,13,6.63C9.5,6.63,6.63,9.5,6.63,13C6.63,14.48,7.13,15.84,8,16.93Z"/></svg>