<svg xmlns="http://www.w3.org/2000/svg" viewBox="0 0 24 24"><path d="M2.57,3.83C3.74,2.06,6.04,1.63,7.84,2.8C9.27,3.73,9.9,5.33,9.59,6.81C9.18,8.67,7.36,9.74,5.69,10.94L4.65,10.1C1.62,7.67,1.42,5.63,2.58,3.83Z" fill="currentColor"/><path d="M4.84,7.54C5.67,8.07,6.81,7.81,7.34,6.97C7.87,6.14,7.67,5,6.87,4.47C6,3.9,4.8,4.14,4.27,4.97C3.7,5.8,4,7,4.84,7.54Z" fill="currentColor"/><path d="M10.5,14.81L13.22,12.9L22.4,18.89C21.7,19.99,20.03,22.49,15.17,18.56Z" fill="currentColor"/><path d="M4.64,13.9L15.17,5.43C20.04,1.5,21.7,4,22.4,5.1L5.9,15.87L6.6,13.1C7.37,14.17,8.4,14.93,9.07,15.97C10.2,17.7,9.67,20,7.84,21.2C6.04,22.37,3.74,21.93,2.57,20.17C1.4,18.37,1.6,16.34,4.64,13.9Z" fill="currentColor"/><path d="M6.87,19.53C7.67,19,7.87,17.86,7.34,17.03C6.81,16.2,5.67,15.93,4.84,16.46C4.01,16.99,3.71,18.19,4.27,19.03C4.8,19.86,6,20.1,6.87,19.53Z" fill="currentColor"/></svg>