<svg xmlns="http://www.w3.org/2000/svg" viewBox="0 0 24 24"><path d="M2.8,21.13L1.23,23.2C0.53,24.13,0,23.83,0,23.2L0,6.97C0,3.3,1.3,2,4.97,2L15.04,2C18.71,2,20.01,3.3,20.01,6.97L20.01,9.07C18.83,8.39,17.47,8.01,16.01,8.01C13.99,8.01,12.15,8.75,10.74,9.98L4.94,9.98C4.34,9.98,4.01,10.31,4.01,10.91L4.01,11.04C4.01,11.64,4.34,11.97,4.94,11.97L9.09,11.97C8.73,12.59,8.45,13.26,8.27,13.97L4.94,13.97C4.34,13.97,4.01,14.3,4.01,14.9L4.01,15.03C4.01,15.63,4.34,15.96,4.94,15.96L8.01,15.96C8.01,15.97,8.01,15.98,8.01,15.99C8.01,17.45,8.4,18.81,9.07,19.99L5.11,19.99C4.08,19.99,3.44,20.32,2.81,21.12Z" fill="currentColor"/><path d="M15.07,7.97C15.67,7.97,16,7.64,16,7.04L16,6.91C16,6.31,15.67,5.98,15.07,5.98L4.94,5.98C4.34,5.98,4.01,6.31,4.01,6.91L4.01,7.04C4.01,7.64,4.34,7.97,4.94,7.97Z" fill="currentColor"/><path d="M20,16C20,13.73,18.27,12,16,12C13.73,12,12,13.73,12,16C12,18.27,13.73,20,16,20C18.27,20,20,18.27,20,16Z" fill="currentColor"/><path d="M10,16C10,12.7,12.7,10,16,10C19.3,10,22,12.7,22,16C22,19.3,19.3,22,16,22C12.7,22,10,19.3,10,16Z" fill="currentColor"/><path d="M23.6,23.4L23.47,23.53C23.04,23.96,22.57,23.96,22.14,23.53L18.44,19.83L19.91,18.36L23.61,22.06C24.04,22.49,24.04,22.96,23.61,23.39Z" fill="currentColor"/></svg>