<svg xmlns="http://www.w3.org/2000/svg" viewBox="0 0 24 24"><path d="M17.33,22L6.56,22C4.63,22,3.99,21.33,3.99,19.33L3.99,12.56C3.99,10.63,4.66,9.99,6.66,9.99L6.99,9.99L6.99,6.99C6.99,3.79,9.29,1.92,11.99,1.92C14.69,1.92,16.99,3.79,16.99,6.99L16.99,9.99L17.42,9.99C19.35,9.99,19.99,10.66,19.99,12.66L19.99,19.43C19.99,21.36,19.32,22,17.32,22Z" fill="currentColor"/><path d="M10.97,19.06C10.97,19.66,11.3,19.99,11.9,19.99L12.03,19.99C12.63,19.99,12.96,19.66,12.96,19.06L12.96,15.93C12.96,15.33,12.63,15,12.03,15L11.9,15C11.3,15,10.97,15.33,10.97,15.93Z" fill="currentColor"/><path d="M9,10L15,10L15,7C15,5,13.7,3.93,12,3.93C10.3,3.93,9,5,9,7Z" fill="currentColor"/></svg>