<svg xmlns="http://www.w3.org/2000/svg" viewBox="0 0 24 24" fill="currentColor"><path d="M8.92,20.5C7.47,20.5,6.99,20,6.99,18.5L6.99,13.42C6.99,11.97,7.49,11.49,8.99,11.49L17.07,11.49C18.52,11.49,19,11.99,19,13.49L19,18.57C19,20.02,18.5,20.5,17,20.5ZM15.25,12L15.25,7.8C15.25,6.21,14.38,5.5,13,5.5C11.62,5.5,10.75,6.21,10.38,7.8L10,8.5L9.63,7.8C9.25,5.49,11.08,4,13,4C14.92,4,16.75,5.49,16.75,7.8L16.75,12ZM10.25,18.83C10.6,19.18,10.9,19.18,11.25,18.83L12.99,17.08L14.74,18.83C15.09,19.18,15.39,19.18,15.74,18.83L15.81,18.75C16.16,18.4,16.16,18.1,15.81,17.76L14.07,16.01L15.81,14.26C16.16,13.91,16.16,13.61,15.81,13.26L15.74,13.19C15.38,12.84,15.08,12.84,14.74,13.19L12.99,14.94L11.25,13.19C10.89,12.84,10.59,12.84,10.25,13.19L10.17,13.26C9.82,13.62,9.82,13.92,10.17,14.26L11.92,16.01L10.17,17.76C9.82,18.11,9.82,18.41,10.17,18.75Z"/></svg>