<svg xmlns="http://www.w3.org/2000/svg" viewBox="0 0 24 24"><path d="M6.56,22C4.63,22,3.99,21.33,3.99,19.33L3.99,12.56C3.99,10.63,4.66,9.99,6.66,9.99L17.43,9.99C19.36,9.99,20,10.66,20,12.66L20,19.43C20,21.36,19.33,22,17.33,22Z" fill="currentColor"/><path d="M10.97,19.06C10.97,19.66,11.3,19.99,11.9,19.99L12.03,19.99C12.63,19.99,12.96,19.66,12.96,19.06L12.96,15.93C12.96,15.33,12.63,15,12.03,15L11.9,15C11.3,15,10.97,15.33,10.97,15.93Z" fill="currentColor"/><path d="M15,10.67L15,5.07C15,2.95,13.84,2,12,2C10.16,2,9,2.94,9,5.07L9,6.07L7,6.07L7,5.07C7,1.99,9.44,0,12,0C14.56,0,17,1.99,17,5.07L17,10.67Z" fill="currentColor"/></svg>