<svg xmlns="http://www.w3.org/2000/svg" viewBox="0 0 24 24" fill="currentColor"><path d="M6.1,19.85L4.92,21.4C4.4,22.1,4,21.87,4,21.4L4,9.23C4,6.47,4.97,5.5,7.73,5.5L15.28,5.5C18.03,5.5,19.01,6.47,19.01,9.23L19.01,10.8C18.12,10.29,17.1,10.01,16.01,10.01C14.49,10.01,13.11,10.56,12.05,11.48L7.7,11.48C7.25,11.48,7.01,11.73,7.01,12.18L7.01,12.28C7.01,12.73,7.25,12.98,7.7,12.98L10.82,12.98C10.55,13.44,10.34,13.94,10.2,14.48L7.7,14.48C7.25,14.48,7.01,14.72,7.01,15.17L7.01,15.27C7.01,15.72,7.25,15.97,7.7,15.97L10.01,15.97C10.01,15.98,10.01,15.98,10.01,15.99C10.01,17.09,10.3,18.11,10.8,18.99L7.83,18.99C7.06,18.99,6.58,19.24,6.11,19.84ZM15.3,9.98C15.75,9.98,16,9.73,16,9.28L16,9.18C16,8.73,15.75,8.48,15.3,8.48L7.71,8.48C7.25,8.48,7.01,8.73,7.01,9.18L7.01,9.28C7.01,9.73,7.25,9.98,7.71,9.98ZM19,16C19,14.3,17.7,13,16,13C14.3,13,13,14.3,13,16C13,17.7,14.3,19,16,19C17.7,19,19,17.7,19,16ZM11.5,16C11.5,13.52,13.52,11.5,16,11.5C18.48,11.5,20.5,13.52,20.5,16C20.5,18.48,18.48,20.5,16,20.5C13.52,20.5,11.5,18.48,11.5,16ZM21.7,21.55L21.6,21.65C21.28,21.97,20.93,21.97,20.61,21.65L17.83,18.87L18.93,17.77L21.71,20.54C22.03,20.87,22.03,21.22,21.71,21.54Z"/></svg>