<svg xmlns="http://www.w3.org/2000/svg" viewBox="0 0 24 24"><path d="M10,11C8,11,7.33,10.33,7.33,8.33L7.33,4.66C7.33,2.66,8,1.99,10,1.99L13.67,1.99C15.67,1.99,16.34,2.66,16.34,4.66L16.34,8.33C16.34,10.33,15.67,11,13.67,11Z" fill="currentColor"/><path d="M4.66,22C2.66,22,1.99,21.33,1.99,19.33L1.99,15.66C1.99,13.66,2.66,12.99,4.66,12.99L8.33,12.99C10.33,12.99,11,13.66,11,15.66L11,19.33C11,21.33,10.33,22,8.33,22Z" fill="currentColor"/><path d="M5.5,20.07C5.5,20.67,5.83,21,6.43,21L6.56,21C7.16,21,7.49,20.67,7.49,20.07L7.49,18.5L9.06,18.5C9.66,18.5,9.99,18.17,9.99,17.57L9.99,17.44C9.99,16.84,9.66,16.51,9.06,16.51L7.49,16.51L7.49,14.94C7.49,14.34,7.16,14.01,6.56,14.01L6.43,14.01C5.83,14.01,5.5,14.34,5.5,14.94L5.5,16.51L3.93,16.51C3.33,16.51,3,16.84,3,17.44L3,17.57C3,18.17,3.33,18.5,3.93,18.5L5.5,18.5Z" fill="currentColor"/><path d="M15.66,22C13.66,22,12.99,21.33,12.99,19.33L12.99,15.66C12.99,13.66,13.66,12.99,15.66,12.99L19.33,12.99C21.33,12.99,22,13.66,22,15.66L22,19.33C22,21.33,21.33,22,19.33,22Z" fill="currentColor"/><path d="M14.33,17.56C14.33,18.16,14.66,18.49,15.26,18.49L19.73,18.49C20.33,18.49,20.66,18.16,20.66,17.56L20.66,17.43C20.66,16.83,20.33,16.5,19.73,16.5L15.26,16.5C14.66,16.5,14.33,16.83,14.33,17.43Z" fill="currentColor"/><path d="M8.67,8.23C8.67,8.83,9,9.16,9.6,9.16L14.07,9.16C14.67,9.16,15,8.83,15,8.23L15,8.1C15,7.5,14.67,7.17,14.07,7.17L9.6,7.17C9,7.17,8.67,7.5,8.67,8.1Z" fill="currentColor"/><path d="M8.67,4.9C8.67,5.5,9,5.83,9.6,5.83L14.07,5.83C14.67,5.83,15,5.5,15,4.9L15,4.77C15,4.17,14.67,3.84,14.07,3.84L9.6,3.84C9,3.84,8.67,4.17,8.67,4.77Z" fill="currentColor"/></svg>