<svg xmlns="http://www.w3.org/2000/svg" viewBox="0 0 24 24"><path d="M18.33,11C18.33,6.85,15.14,3.67,11,3.67C6.85,3.67,3.67,6.86,3.67,11C3.67,15.15,6.86,18.33,11,18.33C15.15,18.33,18.33,15.14,18.33,11Z" fill="currentColor"/><path d="M0.67,11C0.67,5.21,5.22,0.67,11,0.67C16.79,0.67,21.33,5.22,21.33,11C21.33,16.79,16.78,21.33,11,21.33C5.21,21.33,0.67,16.78,0.67,11Z" fill="currentColor"/><path d="M21.67,23.57C21.14,23.57,20.64,23.37,19.87,22.5L16.37,18.83L18.84,16.36L22.44,19.79C23.37,20.59,23.57,21.12,23.57,21.66C23.57,22.69,22.7,23.56,21.67,23.56Z" fill="currentColor"/><path d="M6.94,12C6.34,12,6.01,11.67,6.01,11.07L6.01,10.94C6.01,10.34,6.34,10.01,6.94,10.01L15.07,10.01C15.67,10.01,16,10.34,16,10.94L16,11.07C16,11.67,15.67,12,15.07,12Z" fill="currentColor"/></svg>