<svg xmlns="http://www.w3.org/2000/svg" viewBox="0 0 24 24" fill="currentColor"><path d="M17.75,12.25C17.75,9.14,15.35,6.75,12.25,6.75C9.14,6.75,6.75,9.14,6.75,12.25C6.75,15.36,9.14,17.75,12.25,17.75C15.36,17.75,17.75,15.35,17.75,12.25ZM4.5,12.25C4.5,7.91,7.91,4.5,12.25,4.5C16.59,4.5,20,7.91,20,12.25C20,16.59,16.58,20,12.25,20C7.91,20,4.5,16.58,4.5,12.25ZM20.25,21.68C19.86,21.68,19.48,21.53,18.9,20.88L16.28,18.12L18.13,16.27L20.83,18.84C21.53,19.44,21.68,19.84,21.68,20.25C21.68,21.02,21.02,21.67,20.25,21.67ZM14.2,12.25C14.2,11.63,14.65,11.18,15.25,11.18C15.87,11.18,16.32,11.63,16.32,12.25C16.32,12.85,15.87,13.3,15.25,13.3C14.65,13.3,14.2,12.85,14.2,12.25ZM8.2,12.25C8.2,11.63,8.65,11.18,9.25,11.18C9.87,11.18,10.32,11.63,10.32,12.25C10.32,12.85,9.87,13.3,9.25,13.3C8.65,13.3,8.2,12.85,8.2,12.25ZM11.2,12.25C11.2,11.63,11.65,11.18,12.25,11.18C12.87,11.18,13.32,11.63,13.32,12.25C13.32,12.85,12.87,13.3,12.25,13.3C11.65,13.3,11.2,12.85,11.2,12.25Z"/></svg>