<svg xmlns="http://www.w3.org/2000/svg" viewBox="0 0 24 24"><path d="M4.66,22C2.66,22,1.99,21.33,1.99,19.33L1.99,4.66C1.99,2.66,2.66,1.99,4.66,1.99L8.33,1.99C10.33,1.99,11,2.66,11,4.66L11,19.33C11,21.33,10.33,22,8.33,22Z" fill="currentColor"/><path d="M5.5,14.57C5.5,15.17,5.83,15.5,6.43,15.5L6.56,15.5C7.16,15.5,7.49,15.17,7.49,14.57L7.49,13L9.06,13C9.66,13,9.99,12.67,9.99,12.07L9.99,11.94C9.99,11.34,9.66,11.01,9.06,11.01L7.49,11.01L7.49,9.44C7.49,8.84,7.16,8.51,6.56,8.51L6.43,8.51C5.83,8.51,5.5,8.84,5.5,9.44L5.5,11.01L3.93,11.01C3.33,11.01,3,11.34,3,11.94L3,12.07C3,12.67,3.33,13,3.93,13L5.5,13Z" fill="currentColor"/><path d="M15.66,22C13.66,22,12.99,21.33,12.99,19.33L12.99,4.66C12.99,2.66,13.66,1.99,15.66,1.99L19.33,1.99C21.33,1.99,22,2.66,22,4.66L22,19.33C22,21.33,21.33,22,19.33,22Z" fill="currentColor"/><path d="M20.07,13C20.67,13,21,12.67,21,12.07L21,11.94C21,11.34,20.67,11.01,20.07,11.01L15.27,11.01C14.67,11.01,14.34,11.34,14.34,11.94L14.34,12.07C14.34,12.67,14.67,13,15.27,13Z" fill="currentColor"/></svg>