<svg xmlns="http://www.w3.org/2000/svg" viewBox="0 0 24 24" fill="currentColor"><path d="M7.6,19.85L6.42,21.4C5.9,22.1,5.5,21.87,5.5,21.4L5.5,9.23C5.5,6.47,6.47,5.5,9.23,5.5L16.78,5.5C19.53,5.5,20.51,6.47,20.51,9.23L20.51,15.28C20.51,18.03,19.53,19.01,16.78,19.01L9.33,19.01C8.56,19.01,8.08,19.25,7.61,19.85ZM7.92,10.23L8.52,14.55C8.6,15,8.88,15.3,9.29,15.4C11.85,15.95,14.19,15.95,16.74,15.4C17.17,15.3,17.44,15,17.52,14.55L18.12,10.23C18.21,9.6,17.97,9.45,17.44,9.8L14.97,11.52L13.39,8.02C13.14,7.47,12.84,7.47,12.59,8.04L11.07,11.52L8.59,9.79C8.07,9.44,7.82,9.59,7.92,10.22Z"/></svg>