<svg xmlns="http://www.w3.org/2000/svg" viewBox="0 0 24 24" fill="currentColor"><path d="M10.43,17.5C11.33,17.5,12.34,18.1,12.79,18.89L13.8,20.73C13.74,20.63,12.27,20.63,12.22,20.73L13.23,18.89C13.68,18.09,14.69,17.5,15.59,17.5L18.51,17.5C19.02,17.5,19.02,17.5,19.02,17L19.02,7.49C19.02,6.99,19.02,6.99,18.51,6.99L7.51,6.99C7.01,6.99,7.01,6.99,7.01,7.49L7.01,17C7.01,17.5,7.01,17.5,7.51,17.5ZM10.43,19L7.5,19C6,19,5.5,18.5,5.5,17L5.5,7.49C5.5,5.99,6,5.49,7.5,5.49L18.5,5.49C20,5.49,20.51,5.99,20.51,7.49L20.51,17C20.51,18.5,20,19,18.5,19L15.58,19C15.13,19,14.75,19.23,14.53,19.62L13.53,21.45C13.16,22.12,12.86,22.12,12.48,21.45L11.48,19.62C11.26,19.22,10.88,19,10.44,19ZM9.25,15.25L9.25,16L16.75,16L16.75,15.25C16.75,14.5,16.52,14.15,15.83,13.88L15.23,13.65C14.18,13.23,14.03,13.15,14.03,12.88C14.03,12,14.75,12,14.75,10.53C14.75,9.33,14.21,8.43,12.98,8.43C11.83,8.43,11.27,9.33,11.27,10.53C11.27,12.01,11.95,12.01,11.95,12.88C11.95,13.16,11.82,13.25,10.75,13.68L10.17,13.91C9.47,14.15,9.25,14.51,9.25,15.26Z"/></svg>