<svg xmlns="http://www.w3.org/2000/svg" viewBox="0 0 24 24" fill="currentColor"><path d="M7.6,19.85L6.42,21.4C5.9,22.1,5.5,21.87,5.5,21.4L5.5,9.23C5.5,6.47,6.47,5.5,9.23,5.5L16.78,5.5C19.53,5.5,20.51,6.47,20.51,9.23L20.51,15.28C20.51,18.03,19.53,19.01,16.78,19.01L9.33,19.01C8.56,19.01,8.08,19.25,7.61,19.85ZM9.5,16.73L16.5,16.73C16.5,15.53,15.77,14.9,15.09,14.33C14.44,13.8,13.84,13.3,13.84,12.3L13.84,11.85L14.81,11.85C14.94,11.65,14.99,11.4,14.99,11.16L13.84,10.43C14.39,10.07,14.66,9.58,14.66,9C14.66,8.08,13.91,7.33,12.99,7.33C12.07,7.33,11.32,8.08,11.32,9C11.32,9.58,11.6,10.07,12.14,10.45L11,11.15C11,11.39,11.05,11.65,11.17,11.84L12.14,11.84L12.14,12.29C12.14,13.29,11.54,13.79,10.89,14.32C10.22,14.9,9.49,15.52,9.49,16.72Z"/></svg>