<svg xmlns="http://www.w3.org/2000/svg" viewBox="0 0 24 24"><path d="M21.33,22L2.66,22C0.66,22,-0.01,21.33,-0.01,19.33L-0.01,14L4.99,14L4.99,16.13C4.99,16.73,5.32,17.06,5.92,17.06L6.05,17.06C6.65,17.06,6.98,16.73,6.98,16.13L6.98,14L16.98,14L16.98,16.13C16.98,16.73,17.31,17.06,17.91,17.06L18.04,17.06C18.64,17.06,18.97,16.73,18.97,16.13L18.97,14L23.97,14L23.97,19.33C23.97,21.33,23.3,22,21.3,22Z" fill="currentColor"/><path d="M0,10.63C0,8.63,0.67,7.96,2.67,7.96L21.34,7.96C23.34,7.96,24.01,8.63,24.01,10.63L24.01,12L0.01,12Z" fill="currentColor"/><path d="M7.03,4.67C7.03,2.67,7.7,2,9.7,2L14.37,2C16.37,2,17.04,2.67,17.04,4.67L17.04,6L15.04,6L15.04,4L9.04,4L9.04,6L7.04,6Z" fill="currentColor"/></svg>