<svg xmlns="http://www.w3.org/2000/svg" viewBox="0 0 24 24" fill="currentColor"><path d="M7.62,19.33C8.13,18.23,9.28,17.5,10.5,17.5L16.78,17.5C18.76,17.5,19.01,17.25,19.01,15.27L19.01,9.22C19.01,7.24,18.76,6.99,16.78,6.99L9.23,6.99C7.25,6.99,7,7.24,7,9.22L7,20.55C7,20.6,7,20.6,7.1,20.39ZM8.97,19.98L8.45,21.05C7.7,22.6,5.5,22.02,5.5,20.54L5.5,9.22C5.5,6.47,6.48,5.49,9.23,5.49L16.78,5.49C19.53,5.49,20.51,6.47,20.51,9.22L20.51,15.27C20.51,18.03,19.53,19,16.78,19L10.5,19C9.73,19,9.3,19.28,8.98,19.98Z"/></svg>