<svg xmlns="http://www.w3.org/2000/svg" viewBox="0 0 24 24" fill="currentColor"><path d="M10.43,17.5C11.33,17.5,12.34,18.1,12.79,18.89L13.8,20.73C13.74,20.63,12.27,20.63,12.22,20.73L13.23,18.89C13.68,18.09,14.69,17.5,15.59,17.5L18.51,17.5C19.02,17.5,19.02,17.5,19.02,17L19.02,7.49C19.02,6.99,19.02,6.99,18.51,6.99L7.51,6.99C7.01,6.99,7.01,6.99,7.01,7.49L7.01,17C7.01,17.5,7.01,17.5,7.51,17.5ZM10.43,19L7.5,19C6,19,5.5,18.5,5.5,17L5.5,7.49C5.5,5.99,6,5.49,7.5,5.49L18.5,5.49C20,5.49,20.51,5.99,20.51,7.49L20.51,17C20.51,18.5,20,19,18.5,19L15.58,19C15.13,19,14.75,19.23,14.53,19.62L13.53,21.45C13.16,22.12,12.86,22.12,12.48,21.45L11.48,19.62C11.26,19.22,10.88,19,10.44,19ZM13.92,16.43C16.85,16.25,18.12,14.05,18.12,11.5C18.12,9.32,17.2,8.18,15.8,8.18C14.67,8.18,13.75,8.93,13.75,10.25C13.75,11.58,14.65,12.33,16.32,12.33C16.32,13.59,15.59,14.79,13.92,14.88ZM8.4,16.43C11.33,16.25,12.6,14,12.6,11.48C12.6,9.33,11.68,8.18,10.28,8.18C9.13,8.18,8.23,8.93,8.23,10.25C8.23,11.58,9.13,12.33,10.8,12.33C10.63,13.59,10.07,14.79,8.4,14.88Z"/></svg>