<svg xmlns="http://www.w3.org/2000/svg" viewBox="0 0 24 24" fill="currentColor"><path d="M8.48,15.95L8.48,18.5C8.48,19.32,8.64,19.98,8.92,20.5L5.93,20.5C4.48,20.5,4,20,4,18.5L4,13.42C4,11.97,4.5,11.49,6,11.49L6.25,11.49L6.25,10.74C6.25,8.34,7.98,6.94,10,6.94C10.26,6.94,10.52,6.96,10.77,7.01C10.74,7.25,10.72,7.52,10.72,7.79L10.72,8.53C10.49,8.47,10.25,8.43,9.99,8.43C8.72,8.43,7.74,9.23,7.74,10.73L7.74,11.48L8.96,11.48C8.62,11.96,8.47,12.65,8.47,13.41ZM15.23,18.29C15.23,18.75,15.47,18.99,15.92,18.99L16.02,18.99C16.47,18.99,16.72,18.75,16.72,18.29L16.72,15.95C16.72,15.5,16.47,15.25,16.02,15.25L15.92,15.25C15.47,15.25,15.23,15.5,15.23,15.95ZM20,20.5L11.92,20.5C10.47,20.5,9.99,20,9.99,18.5L9.99,13.42C9.99,11.97,10.49,11.49,11.99,11.49L12.24,11.49L12.24,7.79C12.24,5.39,13.97,3.99,15.99,3.99C18.02,3.99,19.74,5.39,19.74,7.79L18.24,7.79C18.24,6.29,17.27,5.49,15.99,5.49C14.72,5.49,13.74,6.29,13.74,7.79L13.74,11.49L20.06,11.49C21.51,11.49,21.99,11.99,21.99,13.49L21.99,18.57C21.99,20.02,21.49,20.5,19.99,20.5Z"/></svg>