<svg xmlns="http://www.w3.org/2000/svg" viewBox="0 0 24 24" fill="currentColor"><path d="M7.6,19.85L6.42,21.4C5.9,22.1,5.5,21.87,5.5,21.4L5.5,9.23C5.5,6.47,6.47,5.5,9.23,5.5L16.78,5.5C19.53,5.5,20.51,6.47,20.51,9.23L20.51,15.28C20.51,18.03,19.53,19.01,16.78,19.01L9.33,19.01C8.56,19.01,8.08,19.25,7.61,19.85ZM15.55,14.22C17.35,12.32,17.67,11.65,17.67,10.9C17.67,9.6,16.72,8.78,15.5,8.78C14.65,8.78,13.79,9.23,13,10.48C12.23,9.26,11.35,8.78,10.55,8.78C9.44,8.78,8.32,9.6,8.32,10.95C8.32,11.57,8.6,12.25,10.44,14.23L12.99,16.95Z"/></svg>