<svg xmlns="http://www.w3.org/2000/svg" viewBox="0 0 24 24" fill="currentColor"><path d="M7.95,19.12L6.79,20.28L5.57,21.5L5.54,21.53C5.22,21.85,4.87,21.85,4.55,21.53L4.47,21.45C4.15,21.13,4.15,20.78,4.47,20.45L5.43,19.5C4.55,18.74,3.99,17.63,3.99,16.38C3.99,15.68,4.27,14.79,4.59,13.96L6.79,8.51C7.26,7.31,8.31,6.91,8.99,6.91C9.21,6.16,9.94,5.51,10.66,5.51C11.56,5.51,12.26,6.23,12.26,7.13L12.26,8.51L13.66,8.51L13.66,7.13C13.66,6.23,14.39,5.51,15.31,5.51C16.01,5.51,16.73,6.16,16.98,6.91C17.23,6.91,17.52,6.97,17.82,7.1L20.46,4.46C20.78,4.14,21.13,4.14,21.45,4.46L21.53,4.54C21.84,4.85,21.85,5.2,21.55,5.51C21.54,5.52,21.54,5.53,21.53,5.54L18.95,8.12L12.55,14.51L12.2,14.87L10.82,16.25ZM20.63,16.38C20.63,14.88,19.41,13.65,17.85,13.65C16.38,13.65,15.15,14.88,15.15,16.38C15.15,17.9,16.37,19.13,17.85,19.13C19.41,19.13,20.63,17.91,20.63,16.38ZM5.37,16.38C5.37,17.25,5.77,18.02,6.4,18.52L10.25,14.67C9.75,14.05,8.98,13.64,8.13,13.64C6.6,13.64,5.37,14.87,5.37,16.37ZM12.14,17.08C11.81,18.89,10.46,20.18,8.78,20.45ZM13.77,15.45L19.62,9.6L21.42,13.95C21.75,14.73,22,15.65,22,16.38C22,18.65,20.15,20.5,17.85,20.5C15.63,20.5,13.78,18.7,13.78,16.17Z"/></svg>