<svg xmlns="http://www.w3.org/2000/svg" viewBox="0 0 24 24"><path d="M21.06,20C21.66,20,21.99,20.33,21.99,20.93L21.99,21.06C21.99,21.66,21.66,21.99,21.06,21.99L2.93,21.99C2.33,21.99,2,21.66,2,21.06L2,20.93C2,20.33,2.33,20,2.93,20Z" fill="currentColor"/><path d="M22.37,13.83C24.77,19.4,16.44,19.4,18.9,13.86L20.63,9.89Z" fill="currentColor"/><path d="M12.63,15.4C10.16,17.97,8.9,17.6,5.43,14.13C1.7,10.4,1.56,9.5,4.16,6.93L10.96,0.2L19.29,8.53Z" fill="currentColor"/><path d="M5.63,8.37L16.33,8.37L10.9,3Z" fill="currentColor"/></svg>