<svg xmlns="http://www.w3.org/2000/svg" viewBox="0 0 24 24"><path d="M1.47,22C0.44,22,0.04,21.6,0.04,20.57L0.07,15.44C0.07,14.41,0.47,14.01,1.5,14.01L22.57,14.01C23.6,14.01,24,14.41,24,15.44L24,20.57C24,21.6,23.6,22,22.57,22L21,22L21,19L19,19L19,22L17,22L17,19L15,19L15,22L9,22L9,19L7,19L7,22L5,22L5,19L3,19L3,22Z" fill="currentColor"/><path d="M11,22L13,22L13,17L11,17Z" fill="currentColor"/><path d="M1.43,7.5C0.4,7.5,0,7.1,0,6.07L0,5.94C0,4.91,0.4,4.51,1.43,4.51L18.66,4.51L18.66,7.51Z" fill="currentColor"/><path d="M19.17,1.9L23.24,5.1C24.07,5.77,24.07,6.23,23.24,6.9L19.14,10.1C18.44,10.67,18.01,10.43,18.01,9.53L18.01,2.46C18.01,1.53,18.44,1.33,19.18,1.89Z" fill="currentColor"/></svg>