<svg xmlns="http://www.w3.org/2000/svg" viewBox="0 0 24 24"><path d="M8.57,18C9.77,18,11.12,18.8,11.72,19.86L13.06,22.3C12.99,22.17,11.03,22.17,10.96,22.3L12.3,19.86C12.9,18.79,14.25,18,15.45,18L19.35,18C20.02,18,20.02,18,20.02,17.33L20.02,4.66C20.02,3.99,20.02,3.99,19.35,3.99L4.68,3.99C4.01,3.99,4.01,3.99,4.01,4.66L4.01,17.33C4.01,18,4.01,18,4.68,18Z" fill="currentColor"/><path d="M8.57,20L4.67,20C2.67,20,2,19.33,2,17.33L2,4.66C2,2.66,2.67,1.99,4.67,1.99L19.34,1.99C21.34,1.99,22.01,2.66,22.01,4.66L22.01,17.33C22.01,19.33,21.34,20,19.34,20L15.44,20C14.84,20,14.34,20.3,14.04,20.83L12.71,23.26C12.21,24.16,11.81,24.16,11.31,23.26L9.98,20.83C9.68,20.3,9.18,20,8.58,20Z" fill="currentColor"/><path d="M14.9,13.23C16.93,11.06,17.3,10.3,17.3,9.46C17.3,7.99,16.23,7.06,14.83,7.06C13.86,7.06,12.9,7.56,12,8.96C11.13,7.59,10.13,7.06,9.23,7.06C7.96,7.06,6.7,7.99,6.7,9.53C6.7,10.23,7,11,9.1,13.23L12,16.33Z" fill="currentColor"/></svg>