<svg xmlns="http://www.w3.org/2000/svg" viewBox="0 0 24 24" fill="currentColor"><path d="M10.43,17.5C11.33,17.5,12.34,18.1,12.79,18.89L13.8,20.73C13.74,20.63,12.27,20.63,12.22,20.73L13.23,18.89C13.68,18.09,14.69,17.5,15.59,17.5L18.51,17.5C19.02,17.5,19.02,17.5,19.02,17L19.02,7.49C19.02,6.99,19.02,6.99,18.51,6.99L7.51,6.99C7.01,6.99,7.01,6.99,7.01,7.49L7.01,17C7.01,17.5,7.01,17.5,7.51,17.5ZM10.43,19L7.5,19C6,19,5.5,18.5,5.5,17L5.5,7.49C5.5,5.99,6,5.49,7.5,5.49L18.5,5.49C20,5.49,20.51,5.99,20.51,7.49L20.51,17C20.51,18.5,20,19,18.5,19L15.58,19C15.13,19,14.75,19.23,14.53,19.62L13.53,21.45C13.16,22.12,12.86,22.12,12.48,21.45L11.48,19.62C11.26,19.22,10.88,19,10.44,19ZM9.18,9.28C9.18,9.73,9.4,9.98,9.78,9.98L16.13,9.98C16.58,9.98,16.83,9.75,16.83,9.38L16.83,9.17C16.83,8.72,16.62,8.48,16.23,8.48L9.87,8.48C9.42,8.48,9.18,8.68,9.18,9.08ZM9.18,15.28C9.18,15.73,9.4,15.98,9.78,15.98L13.58,15.98C14.03,15.98,14.28,15.75,14.28,15.38L14.28,15.17C14.28,14.72,14.07,14.48,13.68,14.48L9.87,14.48C9.42,14.48,9.18,14.68,9.18,15.08ZM9.18,12.28C9.18,12.73,9.4,12.98,9.78,12.98L16.13,12.98C16.58,12.98,16.83,12.75,16.83,12.38L16.83,12.17C16.83,11.72,16.62,11.48,16.23,11.48L9.87,11.48C9.42,11.48,9.18,11.68,9.18,12.08Z"/></svg>