<svg xmlns="http://www.w3.org/2000/svg" viewBox="0 0 24 24"><path d="M4.8,21.13L3.23,23.2C2.53,24.13,2,23.83,2,23.2L2,6.97C2,3.3,3.3,2,6.97,2L17.04,2C20.71,2,22.01,3.3,22.01,6.97L22.01,15.04C22.01,18.71,20.71,20.01,17.04,20.01L7.11,20.01C6.08,20.01,5.44,20.34,4.81,21.14Z" fill="currentColor"/><path d="M6.97,6L7.77,11.4C7.87,12.07,8.17,12.33,8.9,12.33L9.1,12.33C9.83,12.33,10.13,12.06,10.23,11.4L11.03,6C11.26,4.57,10.76,4,9.26,4L8.73,4C7.23,4,6.73,4.57,6.96,6Z" fill="currentColor"/><path d="M10.83,16C10.83,14.87,10.13,14.17,9,14.17C7.87,14.17,7.17,14.87,7.17,16C7.17,17.13,7.87,17.83,9,17.83C10.13,17.83,10.83,17.13,10.83,16Z" fill="currentColor"/><path d="M12.97,6L13.77,11.4C13.87,12.07,14.17,12.33,14.9,12.33L15.1,12.33C15.83,12.33,16.13,12.06,16.23,11.4L17.03,6C17.26,4.57,16.76,4,15.26,4L14.73,4C13.23,4,12.73,4.57,12.96,6Z" fill="currentColor"/><path d="M16.83,16C16.83,14.87,16.13,14.17,15,14.17C13.87,14.17,13.17,14.87,13.17,16C13.17,17.13,13.87,17.83,15,17.83C16.13,17.83,16.83,17.13,16.83,16Z" fill="currentColor"/></svg>