<svg xmlns="http://www.w3.org/2000/svg" viewBox="0 0 24 24" fill="currentColor"><path d="M20.25,20.18C20.5,20.66,20.5,20.66,20.5,20.25L20.5,12C20.5,11.5,20.5,11.5,20,11.5L16.04,11.5L16.04,10L20,10C21.5,10,22,10.5,22,12L22,20.25C22,22.33,19.7,22.35,18.92,20.91L18.4,19.95C18.05,19.28,17.6,19,16.82,19L13.5,19C12,19,11.5,18.5,11.5,17L11.5,16.04L12.55,16.04C12.71,16.04,12.86,16.04,13,16.03L13,17C13,17.5,13,17.5,13.5,17.5L16.82,17.5C18.05,17.5,19.17,18.18,19.72,19.24ZM5.5,15.75C5.5,16.18,5.5,16.18,5.74,15.72L6.23,14.76C6.84,13.66,7.91,13.01,9.13,13.01L12.5,13.01C13.01,13.01,13.01,13.01,13.01,12.51L13.01,7.5C13.01,7,13.01,7,12.51,7L6,7C5.5,7,5.5,7,5.5,7.5ZM4,15.75L4,7.5C4,6,4.5,5.5,6,5.5L12.5,5.5C14,5.5,14.51,6,14.51,7.5L14.51,12.51C14.51,14.01,14,14.51,12.5,14.51L9.13,14.51C8.36,14.51,7.93,14.79,7.55,15.46L7.08,16.41C6.33,17.86,4.01,17.84,4.01,15.76Z"/></svg>