<svg xmlns="http://www.w3.org/2000/svg" viewBox="0 0 24 24" fill="currentColor"><path d="M5.1,20.5C4.33,20.5,4.03,20.2,4.03,19.43L4.05,15.58C4.05,14.81,4.35,14.51,5.13,14.51L20.93,14.51C21.7,14.51,22,14.81,22,15.58L22,19.43C22,20.2,21.7,20.5,20.93,20.5L19.75,20.5L19.75,18.25L18.25,18.25L18.25,20.5L16.75,20.5L16.75,18.25L15.25,18.25L15.25,20.5L10.75,20.5L10.75,18.25L9.25,18.25L9.25,20.5L7.75,20.5L7.75,18.25L6.25,18.25L6.25,20.5ZM12.25,20.5L13.75,20.5L13.75,16.75L12.25,16.75ZM5.07,9.63C4.3,9.63,4,9.32,4,8.55L4,8.46C4,7.68,4.3,7.38,5.07,7.38L18,7.38L18,9.63ZM18.38,5.43L21.43,7.83C22.05,8.33,22.05,8.67,21.43,9.18L18.36,11.58C17.83,12,17.51,11.82,17.51,11.15L17.51,5.85C17.51,5.15,17.83,5,18.38,5.42Z"/></svg>