<svg xmlns="http://www.w3.org/2000/svg" viewBox="0 0 24 24"><path d="M4.8,21.13L3.23,23.2C2.53,24.13,2,23.83,2,23.2L2,6.97C2,3.3,3.3,2,6.97,2L17.04,2C20.71,2,22.01,3.3,22.01,6.97L22.01,15.04C22.01,18.71,20.71,20.01,17.04,20.01L7.11,20.01C6.08,20.01,5.44,20.34,4.81,21.14Z" fill="currentColor"/><path d="M11.93,12.63C16.43,12.63,17.5,10.1,17.5,8.4C17.5,5.4,15,3.83,12.33,3.83C10.03,3.83,8.3,5.1,7.4,5.93C6.93,6.46,6.9,6.86,7.33,7.4L7.96,8.17C8.43,8.74,8.79,8.74,9.26,8.24C9.93,7.64,11.09,6.84,12.43,6.84C13.43,6.84,14.5,7.21,14.5,8.44C14.5,9.51,13.63,9.64,11.93,9.64L11.53,9.64C10.8,9.64,10.53,9.91,10.53,10.61L10.53,11.64C10.53,12.37,10.8,12.64,11.5,12.64Z" fill="currentColor"/><path d="M13.83,16C13.83,14.87,13.13,14.17,12,14.17C10.87,14.17,10.17,14.87,10.17,16C10.17,17.13,10.87,17.83,12,17.83C13.13,17.83,13.83,17.13,13.83,16Z" fill="currentColor"/></svg>