<svg xmlns="http://www.w3.org/2000/svg" viewBox="0 0 24 24"><path d="M14.93,12.97C11.9,12.97,9.4,10.54,9.43,7.47C9.43,6.8,9.53,6.17,9.76,5.57C10.69,5.6,11.53,6.34,11.93,7.27L11.93,7.5C11.93,9.13,13.26,10.47,14.93,10.43C16.56,10.43,17.9,9.13,17.9,7.46C17.93,6.06,16.9,4.86,15.57,4.56C15,3.63,14.27,2.83,13.37,2.23C13.87,2.06,14.4,2,14.94,2C17.97,2,20.41,4.5,20.44,7.43C20.44,10.5,17.97,12.96,14.94,12.96Z" fill="currentColor"/><path d="M9.22,12.74L6.73,18.76L9.98,20.12L8.82,22.89L2.81,20.38L6.45,11.6Z" fill="currentColor"/><path d="M9.83,12.97C6.8,12.97,4.36,10.47,4.33,7.54C4.33,4.47,6.8,2.01,9.83,2.01C12.86,2.01,15.36,4.44,15.33,7.51C15.33,8.18,15.23,8.81,15,9.41C14.07,9.38,13.23,8.64,12.83,7.71L12.83,7.48C12.83,5.85,11.5,4.51,9.83,4.55C8.2,4.55,6.86,5.85,6.86,7.52C6.83,8.92,7.86,10.12,9.19,10.42C9.76,11.35,10.49,12.15,11.39,12.75C10.89,12.92,10.36,12.98,9.82,12.98Z" fill="currentColor"/><path d="M16.43,12.3L16.43,19L19.93,19L19.93,22L13.43,22L13.43,12.3Z" fill="currentColor"/></svg>