<svg xmlns="http://www.w3.org/2000/svg" viewBox="0 0 24 24" fill="currentColor"><path d="M12.25,6.75C9.14,6.75,6.75,9.14,6.75,12.25C6.75,15.36,9.14,17.75,12.25,17.75C15.36,17.75,17.75,15.35,17.75,12.25C17.75,9.14,15.35,6.75,12.25,6.75ZM12.25,4.5C16.59,4.5,20,7.91,20,12.25C20,16.59,16.58,20,12.25,20C7.91,20,4.5,16.58,4.5,12.25C4.5,7.91,7.91,4.5,12.25,4.5ZM20.25,21.68C19.86,21.68,19.48,21.53,18.9,20.88L16.28,18.12L18.13,16.27L20.83,18.84C21.53,19.44,21.68,19.84,21.68,20.25C21.68,21.02,21.02,21.67,20.25,21.67ZM9.5,14.95C9.14,14.6,9.14,14.25,9.5,13.9L11.17,12.23L9.52,10.6C9.14,10.25,9.17,9.87,9.52,9.53C9.87,9.18,10.22,9.18,10.57,9.53L12.22,11.18L13.89,9.51C14.27,9.13,14.62,9.15,14.96,9.51C15.32,9.86,15.32,10.2,14.96,10.56L13.29,12.23L14.96,13.88C15.34,14.23,15.32,14.61,14.96,14.95C14.61,15.3,14.27,15.3,13.92,14.95L12.21,13.3L10.56,14.95C10.19,15.33,9.84,15.3,9.49,14.95Z"/></svg>