<svg xmlns="http://www.w3.org/2000/svg" viewBox="0 0 24 24"><path d="M18.33,11C18.33,6.85,15.14,3.67,11,3.67C6.85,3.67,3.67,6.86,3.67,11C3.67,15.15,6.86,18.33,11,18.33C15.15,18.33,18.33,15.14,18.33,11Z" fill="currentColor"/><path d="M0.67,11C0.67,5.21,5.22,0.67,11,0.67C16.79,0.67,21.33,5.22,21.33,11C21.33,16.79,16.78,21.33,11,21.33C5.21,21.33,0.67,16.78,0.67,11Z" fill="currentColor"/><path d="M21.67,23.57C21.14,23.57,20.64,23.37,19.87,22.5L16.37,18.83L18.84,16.36L22.44,19.79C23.37,20.59,23.57,21.12,23.57,21.66C23.57,22.69,22.7,23.56,21.67,23.56Z" fill="currentColor"/><path d="M15.63,9.43L10.56,14.53C10.06,15.03,9.66,15.03,9.16,14.53L6.53,11.9C6.03,11.4,6.03,11,6.53,10.47L6.6,10.44C7.1,9.91,7.5,9.91,8,10.41L9.87,12.24L14.17,7.97C14.67,7.47,15.07,7.47,15.57,7.97L15.64,8.04C16.14,8.54,16.14,8.94,15.64,9.44Z" fill="currentColor"/></svg>