<svg xmlns="http://www.w3.org/2000/svg" viewBox="0 0 24 24"><path d="M8.57,20L4.67,20C2.67,20,2,19.33,2,17.33L2,4.66C2,2.66,2.67,1.99,4.67,1.99L19.34,1.99C21.34,1.99,22.01,2.66,22.01,4.66L22.01,17.33C22.01,19.33,21.34,20,19.34,20L15.44,20C14.84,20,14.34,20.3,14.07,20.83L12.7,23.3C12.2,24.2,11.8,24.2,11.3,23.3L9.93,20.83C9.66,20.3,9.16,20,8.56,20Z" fill="currentColor"/><path d="M15.4,13.63C17.8,11.1,18.23,10.2,18.23,9.2C18.23,7.47,16.96,6.37,15.33,6.37C14.2,6.37,13.06,6.97,12,8.64C10.97,7.01,9.8,6.37,8.73,6.37C7.26,6.37,5.76,7.47,5.76,9.27C5.76,10.1,6.13,11,8.59,13.64L11.99,17.27Z" fill="currentColor"/></svg>