<svg xmlns="http://www.w3.org/2000/svg" viewBox="0 0 24 24"><path d="M4.8,21.13L3.23,23.2C2.53,24.13,2,23.83,2,23.2L2,6.97C2,3.3,3.3,2,6.97,2L17.04,2C20.71,2,22.01,3.3,22.01,6.97L22.01,15.04C22.01,18.71,20.71,20.01,17.04,20.01L7.11,20.01C6.08,20.01,5.44,20.34,4.81,21.14Z" fill="currentColor"/><path d="M6,7.03C6,7.63,6.33,7.96,6.93,7.96L17.06,7.96C17.66,7.96,17.99,7.63,17.99,7.03L17.99,6.9C17.99,6.3,17.66,5.97,17.06,5.97L6.93,5.97C6.33,5.97,6,6.3,6,6.9Z" fill="currentColor"/><path d="M6,15.03C6,15.63,6.33,15.96,6.93,15.96L13.06,15.96C13.66,15.96,13.99,15.63,13.99,15.03L13.99,14.9C13.99,14.3,13.66,13.97,13.06,13.97L6.93,13.97C6.33,13.97,6,14.3,6,14.9Z" fill="currentColor"/><path d="M6,11.03C6,11.63,6.33,11.96,6.93,11.96L17.06,11.96C17.66,11.96,17.99,11.63,17.99,11.03L17.99,10.9C17.99,10.3,17.66,9.97,17.06,9.97L6.93,9.97C6.33,9.97,6,10.3,6,10.9Z" fill="currentColor"/></svg>