<svg xmlns="http://www.w3.org/2000/svg" viewBox="0 0 24 24"><path d="M5.5,22C2.47,22,0,19.53,0,16.5C0,15.57,0.37,14.37,0.8,13.27L3.73,6C4.36,4.4,5.76,3.87,6.66,3.87C6.96,2.87,7.93,2,8.89,2C10.09,2,11.02,2.97,11.02,4.17L11.02,6L12.89,6L12.89,4.17C12.89,2.97,13.86,2,15.09,2C16.02,2,16.99,2.87,17.32,3.87C18.22,3.87,19.59,4.47,20.22,6L23.22,13.27C23.65,14.3,23.99,15.54,23.99,16.5C23.99,19.53,21.52,22,18.46,22C15.49,22,13.03,19.6,13.03,16.23L13.03,14L10.96,14L10.96,16.23C10.96,19.6,8.49,22,5.49,22Z" fill="currentColor"/><path d="M9.13,16.5C9.13,14.5,7.5,12.87,5.5,12.87C3.47,12.87,1.83,14.5,1.83,16.5C1.83,18.53,3.46,20.17,5.5,20.17C7.5,20.17,9.13,18.54,9.13,16.5Z" fill="currentColor"/><path d="M22.17,16.5C22.17,14.5,20.54,12.87,18.47,12.87C16.5,12.87,14.87,14.5,14.87,16.5C14.87,18.53,16.5,20.17,18.47,20.17C20.54,20.17,22.17,18.54,22.17,16.5Z" fill="currentColor"/></svg>