<svg xmlns="http://www.w3.org/2000/svg" viewBox="0 0 24 24" fill="currentColor"><path d="M7.6,19.85L6.42,21.4C5.9,22.1,5.5,21.87,5.5,21.4L5.5,9.23C5.5,6.47,6.47,5.5,9.23,5.5L16.78,5.5C19.53,5.5,20.51,6.47,20.51,9.23L20.51,15.28C20.51,18.03,19.53,19.01,16.78,19.01L9.33,19.01C8.56,19.01,8.08,19.25,7.61,19.85ZM12.95,13.47C16.32,13.47,17.13,11.57,17.13,10.3C17.13,8.05,15.25,6.87,13.25,6.87C11.52,6.87,10.22,7.82,9.55,8.45C9.2,8.84,9.17,9.14,9.5,9.55L9.97,10.13C10.32,10.55,10.59,10.55,10.95,10.18C11.45,9.73,12.32,9.13,13.32,9.13C14.07,9.13,14.88,9.41,14.88,10.33C14.88,11.13,14.22,11.23,12.95,11.23L12.65,11.23C12.1,11.23,11.9,11.43,11.9,11.96L11.9,12.73C11.9,13.28,12.1,13.48,12.63,13.48ZM13,14.63C12.15,14.63,11.63,15.15,11.63,16C11.63,16.85,12.15,17.37,13,17.37C13.85,17.37,14.37,16.85,14.37,16C14.37,15.15,13.85,14.63,13,14.63Z"/></svg>