<svg xmlns="http://www.w3.org/2000/svg" viewBox="0 0 24 24" fill="currentColor"><path d="M16.71,21.63C16.25,21.63,16.05,21.38,16.16,20.95L19.36,5.05C19.46,4.62,19.76,4.38,20.21,4.38L20.3,4.38C20.75,4.38,20.96,4.62,20.85,5.05L17.65,20.95C17.55,21.38,17.25,21.63,16.8,21.63ZM5.7,21.63C5.25,21.63,5.05,21.38,5.16,20.95L8.36,5.05C8.46,4.62,8.75,4.38,9.21,4.38L9.3,4.38C9.75,4.38,9.96,4.62,9.85,5.05L6.65,20.95C6.55,21.38,6.25,21.63,5.8,21.63ZM5.75,20.13L5.75,18.63L17.5,18.63L17.5,20.13ZM6.5,15.87L6.5,14.37L18.25,14.37L18.25,15.87ZM7.75,11.63L7.75,10.13L19.25,10.13L19.25,11.63ZM9,7.38L9,5.88L20.25,5.88L20.25,7.38Z"/></svg>