<svg xmlns="http://www.w3.org/2000/svg" viewBox="0 0 24 24" fill="currentColor"><path d="M10.43,17.5C11.33,17.5,12.34,18.1,12.79,18.89L13.8,20.73C13.74,20.63,12.27,20.63,12.22,20.73L13.23,18.89C13.68,18.09,14.69,17.5,15.59,17.5L18.51,17.5C19.02,17.5,19.02,17.5,19.02,17L19.02,7.49C19.02,6.99,19.02,6.99,18.51,6.99L7.51,6.99C7.01,6.99,7.01,6.99,7.01,7.49L7.01,17C7.01,17.5,7.01,17.5,7.51,17.5ZM10.43,19L7.5,19C6,19,5.5,18.5,5.5,17L5.5,7.49C5.5,5.99,6,5.49,7.5,5.49L18.5,5.49C20,5.49,20.51,5.99,20.51,7.49L20.51,17C20.51,18.5,20,19,18.5,19L15.58,19C15.13,19,14.75,19.23,14.53,19.62L13.53,21.45C13.16,22.12,12.86,22.12,12.48,21.45L11.48,19.62C11.26,19.22,10.88,19,10.44,19ZM15.17,13.92C16.7,12.29,16.97,11.73,16.97,11.1C16.97,9.99,16.17,9.29,15.12,9.29C14.39,9.29,13.67,9.67,13,10.72C12.35,9.69,11.6,9.29,10.92,9.29C9.97,9.29,9.02,9.99,9.02,11.15C9.02,11.67,9.25,12.25,10.82,13.92L13,16.25Z"/></svg>