<svg xmlns="http://www.w3.org/2000/svg" viewBox="0 0 24 24"><path d="M4.83,20.44C5.51,18.98,7.04,18,8.67,18L17.04,18C19.68,18,20.01,17.67,20.01,15.03L20.01,6.96C20.01,4.32,19.68,3.99,17.04,3.99L6.97,3.99C4.33,3.99,4,4.32,4,6.96L4,22.06C4,22.13,4,22.13,4.13,21.85Z" fill="currentColor"/><path d="M6.63,21.3L5.93,22.73C4.93,24.8,2,24.03,2,22.06L2,6.96C2,3.29,3.3,1.99,6.97,1.99L17.04,1.99C20.71,1.99,22.01,3.29,22.01,6.96L22.01,15.03C22.01,18.7,20.71,20,17.04,20L8.67,20C7.64,20,7.07,20.37,6.64,21.3Z" fill="currentColor"/></svg>