<svg xmlns="http://www.w3.org/2000/svg" viewBox="0 0 24 24"><path d="M18,7.03C18,5.36,19.37,4.03,21,4.03C22.63,4,24,5.36,24,7.03C24,8.66,22.63,10,21,10C19.37,10,18,8.63,18,7.03Z" fill="currentColor"/><path d="M22,9.4L22,18L24,18L24,20L20,20L20,9.4Z" fill="currentColor"/><path d="M22.1,6.46C22.1,5.83,21.6,5.33,21,5.39C20.4,5.39,19.9,5.86,19.9,6.46C19.9,7.03,20.4,7.53,21,7.53C21.6,7.53,22.1,7.06,22.1,6.46Z" fill="currentColor"/><path d="M15.33,22L4.56,22C2.63,22,1.99,21.33,1.99,19.33L1.99,12.56C1.99,10.63,2.66,9.99,4.66,9.99L4.99,9.99L4.99,6.99C4.99,3.79,7.29,1.92,9.99,1.92C12.69,1.92,14.99,3.79,14.99,6.99L14.99,9.99L15.42,9.99C17.35,9.99,17.99,10.66,17.99,12.66L17.99,19.43C17.99,21.36,17.32,22,15.32,22Z" fill="currentColor"/><path d="M8.97,19.06C8.97,19.66,9.3,19.99,9.9,19.99L10.03,19.99C10.63,19.99,10.96,19.66,10.96,19.06L10.96,15.93C10.96,15.33,10.63,15,10.03,15L9.9,15C9.3,15,8.97,15.33,8.97,15.93Z" fill="currentColor"/><path d="M7,10L13,10L13,7C13,5,11.7,3.93,10,3.93C8.3,3.93,7,5,7,7Z" fill="currentColor"/></svg>