<svg xmlns="http://www.w3.org/2000/svg" viewBox="0 0 24 24"><path d="M8.57,20L4.67,20C2.67,20,2,19.33,2,17.33L2,4.66C2,2.66,2.67,1.99,4.67,1.99L19.34,1.99C21.34,1.99,22.01,2.66,22.01,4.66L22.01,17.33C22.01,19.33,21.34,20,19.34,20L15.44,20C14.84,20,14.34,20.3,14.07,20.83L12.7,23.3C12.2,24.2,11.8,24.2,11.3,23.3L9.93,20.83C9.66,20.3,9.16,20,8.56,20Z" fill="currentColor"/><path d="M13.47,17.33C17.97,17.06,19.94,13.66,19.94,9.76C19.94,6.43,18.51,4.66,16.37,4.66C14.64,4.66,13.2,5.79,13.2,7.83C13.2,9.86,14.6,11.03,17.17,11.03C17.17,12.93,16.07,14.8,13.47,14.93Z" fill="currentColor"/><path d="M5,17.33C9.5,17.06,11.43,13.6,11.43,9.73C11.43,6.43,10.03,4.66,7.86,4.66C6.13,4.66,4.73,5.79,4.73,7.83C4.73,9.86,6.13,11.03,8.7,11.03C8.43,12.93,7.57,14.8,5,14.93Z" fill="currentColor"/></svg>