<svg xmlns="http://www.w3.org/2000/svg" viewBox="0 0 24 24"><path d="M9,20.1L2.9,21.77C2.33,21.9,2.1,21.67,2.23,21.1L3.86,15C3.99,14.43,4.33,13.87,4.76,13.43L15.29,2.83C16.89,1.23,18.19,1.36,20.42,3.53C22.59,5.7,22.79,7.06,21.12,8.7L10.55,19.2C10.12,19.63,9.55,19.97,8.98,20.1Z" fill="currentColor"/><path d="M12.94,22C12.34,22,12.01,21.67,12.01,21.07L12.01,20.94C12.01,20.34,12.34,20.01,12.94,20.01L21.07,20.01C21.67,20.01,22,20.34,22,20.94L22,21.07C22,21.67,21.67,22,21.07,22Z" fill="currentColor"/></svg>