<svg xmlns="http://www.w3.org/2000/svg" viewBox="0 0 24 24" fill="currentColor"><path d="M20.5,20.9C20.5,21.67,20.2,21.97,19.43,21.97L15.58,21.95C14.81,21.95,14.51,21.65,14.51,20.88L14.51,5.07C14.51,4.3,14.81,4,15.58,4L19.43,4C20.2,4,20.5,4.3,20.5,5.07L20.5,6.25L18.25,6.25L18.25,7.75L20.5,7.75L20.5,9.25L18.25,9.25L18.25,10.75L20.5,10.75L20.5,15.25L18.25,15.25L18.25,16.75L20.5,16.75L20.5,18.25L18.25,18.25L18.25,19.75L20.5,19.75ZM20.5,13.75L20.5,12.25L16.75,12.25L16.75,13.75ZM9.63,20.93C9.63,21.7,9.32,22,8.55,22L8.46,22C7.68,22,7.38,21.7,7.38,20.93L7.38,8L9.63,8ZM5.43,7.62L7.83,4.57C8.33,3.95,8.67,3.95,9.18,4.57L11.58,7.64C12,8.17,11.82,8.49,11.15,8.49L5.85,8.49C5.15,8.49,5,8.17,5.42,7.61Z"/></svg>