<svg xmlns="http://www.w3.org/2000/svg" viewBox="0 0 24 24"><path d="M5.57,24L5.44,24C4.41,24,4.01,23.6,4.01,22.57L4.01,22L7.01,22L7.01,22.57C7.01,23.6,6.61,24,5.58,24Z" fill="currentColor"/><path d="M16.67,20L9.54,20L7.01,20L4.01,20L2.28,20L1.45,20C0.42,20,0.02,19.6,0.02,18.57L0.02,18.44C0.02,17.41,0.42,17.01,1.45,17.01L4.02,17.01L4.02,7.34C4.02,4.84,4.85,4.01,7.35,4.01L17.02,4.01L17.02,1.44C17.02,0.41,17.42,0.01,18.45,0.01L18.58,0.01C19.61,0.01,20.01,0.41,20.01,1.44L20.01,4.01L22.58,4.01C23.61,4.01,24.01,4.41,24.01,5.44L24.01,5.57C24.01,6.6,23.61,7,22.58,7L21.88,7L20.01,7L17.01,7L14.61,7L7.01,7L7.01,17L17.01,17L17.01,9L20.01,9L20.01,16.67C20.01,19.17,19.18,20,16.68,20Z" fill="currentColor"/></svg>