<svg xmlns="http://www.w3.org/2000/svg" viewBox="0 0 24 24"><path d="M19.87,21.86C20,22.14,20,22.14,20,22.07L20,6.97C20,4.33,19.67,4,17.03,4L6.96,4C4.32,4,3.99,4.33,3.99,6.97L3.99,15.04C3.99,17.68,4.32,18.01,6.96,18.01L15.33,18.01C16.96,18.01,18.49,18.99,19.17,20.45Z" fill="currentColor"/><path d="M18.07,22.73L17.37,21.3C16.94,20.37,16.37,20,15.34,20L6.97,20C3.3,20,2,18.7,2,15.03L2,6.96C2,3.29,3.3,1.99,6.97,1.99L17.04,1.99C20.71,1.99,22.01,3.29,22.01,6.96L22.01,22.06C22.01,24.03,19.08,24.79,18.08,22.73Z" fill="currentColor"/></svg>