<svg xmlns="http://www.w3.org/2000/svg" viewBox="0 0 24 24"><path d="M17.33,22L6.56,22C4.63,22,3.99,21.33,3.99,19.33L3.99,12.56C3.99,10.63,4.66,9.99,6.66,9.99L6.99,9.99L6.99,6.99C6.99,3.79,9.29,1.92,11.99,1.92C14.69,1.92,16.99,3.79,16.99,6.99L16.99,9.99L17.42,9.99C19.35,9.99,19.99,10.66,19.99,12.66L19.99,19.43C19.99,21.36,19.32,22,17.32,22Z" fill="currentColor"/><path d="M9,10L15,10L15,7C15,5,13.7,3.93,12,3.93C10.3,3.93,9,5,9,7Z" fill="currentColor"/><path d="M16.43,14.5C16.9,14.03,16.9,13.63,16.4,13.17L16.37,13.1C15.87,12.63,15.47,12.63,15,13.1L10.93,17.17L9.16,15.44C8.69,14.97,8.29,14.97,7.83,15.44L7.76,15.51C7.29,15.98,7.29,16.38,7.76,16.84L10.26,19.37C10.73,19.84,11.13,19.84,11.59,19.37Z" fill="currentColor"/></svg>