<svg xmlns="http://www.w3.org/2000/svg" viewBox="0 0 24 24"><path d="M5.97,15.93L5.97,19.33C5.97,20.43,6.18,21.31,6.56,22L2.57,22C0.64,22,0,21.33,0,19.33L0,12.56C0,10.63,0.67,9.99,2.67,9.99L3,9.99L3,8.99C3,5.79,5.3,3.92,8,3.92C8.35,3.92,8.7,3.95,9.03,4.01C8.99,4.34,8.96,4.69,8.96,5.05L8.96,6.04C8.66,5.96,8.33,5.91,7.99,5.91C6.29,5.91,4.99,6.98,4.99,8.98L4.99,9.98L6.62,9.98C6.16,10.61,5.96,11.54,5.96,12.55Z" fill="currentColor"/><path d="M14.97,19.06C14.97,19.66,15.3,19.99,15.9,19.99L16.03,19.99C16.63,19.99,16.96,19.66,16.96,19.06L16.96,15.93C16.96,15.33,16.63,15,16.03,15L15.9,15C15.3,15,14.97,15.33,14.97,15.93Z" fill="currentColor"/><path d="M21.33,22L10.56,22C8.63,22,7.99,21.33,7.99,19.33L7.99,12.56C7.99,10.63,8.66,9.99,10.66,9.99L10.99,9.99L10.99,5.06C10.99,1.86,13.29,-0.01,15.99,-0.01C18.69,-0.01,20.99,1.86,20.99,5.06L18.99,5.06C18.99,3.06,17.69,1.99,15.99,1.99C14.29,1.99,12.99,3.06,12.99,5.06L12.99,9.99L21.42,9.99C23.35,9.99,23.99,10.66,23.99,12.66L23.99,19.43C23.99,21.36,23.32,22,21.32,22Z" fill="currentColor"/></svg>