<svg xmlns="http://www.w3.org/2000/svg" viewBox="0 0 24 24"><path d="M21.66,21.58C22,22.22,22,22.22,22,21.67L22,10.67C22,10,22,10,21.33,10L16.06,10L16.06,8L21.33,8C23.33,8,24,8.67,24,10.67L24,21.67C24,24.44,20.93,24.47,19.9,22.54L19.2,21.27C18.73,20.37,18.13,20,17.1,20L12.67,20C10.67,20,10,19.33,10,17.33L10,16.06L11.4,16.06C11.61,16.06,11.81,16.05,12,16.04L12,17.33C12,18,12,18,12.67,18L17.1,18C18.73,18,20.23,18.91,20.96,20.32Z" fill="currentColor"/><path d="M2,15.67C2,16.24,2,16.24,2.32,15.63L2.97,14.34C3.78,12.88,5.21,12.01,6.84,12.01L11.34,12.01C12.01,12.01,12.01,12.01,12.01,11.34L12.01,4.67C12.01,4,12.01,4,11.34,4L2.67,4C2,4,2,4,2,4.67Z" fill="currentColor"/><path d="M0,15.67L0,4.67C0,2.67,0.67,2,2.67,2L11.34,2C13.34,2,14.01,2.67,14.01,4.67L14.01,11.34C14.01,13.34,13.34,14.01,11.34,14.01L6.84,14.01C5.81,14.01,5.24,14.38,4.74,15.28L4.11,16.55C3.11,18.48,0.01,18.45,0.01,15.68Z" fill="currentColor"/></svg>