<svg xmlns="http://www.w3.org/2000/svg" viewBox="0 0 24 24"><path d="M5.27,20.16L3.72,21.71L2.09,23.34L2.06,23.37C1.63,23.8,1.16,23.8,0.73,23.37L0.63,23.27C0.2,22.84,0.2,22.37,0.63,21.94L1.9,20.67C0.73,19.66,-0.01,18.17,-0.01,16.51C-0.01,15.58,0.36,14.38,0.79,13.28L3.72,6.01C4.35,4.41,5.75,3.88,6.65,3.88C6.95,2.88,7.92,2.01,8.88,2.01C10.08,2.01,11.01,2.98,11.01,4.18L11.01,6.01L12.88,6.01L12.88,4.18C12.88,2.98,13.85,2.01,15.08,2.01C16.01,2.01,16.98,2.88,17.31,3.88C17.64,3.88,18.03,3.96,18.42,4.14L21.94,0.62C22.37,0.19,22.84,0.19,23.27,0.62L23.37,0.72C23.79,1.14,23.8,1.6,23.4,2.02C23.39,2.03,23.38,2.04,23.37,2.05L19.93,5.49L11.4,14.02L10.93,14.49L9.09,16.33Z" fill="currentColor"/><path d="M22.17,16.5C22.17,14.5,20.54,12.87,18.47,12.87C16.5,12.87,14.87,14.5,14.87,16.5C14.87,18.53,16.5,20.17,18.47,20.17C20.54,20.17,22.17,18.54,22.17,16.5Z" fill="currentColor"/><path d="M1.83,16.5C1.83,17.66,2.36,18.69,3.2,19.36L8.33,14.23C7.66,13.4,6.64,12.86,5.5,12.86C3.47,12.86,1.83,14.49,1.83,16.49Z" fill="currentColor"/><path d="M10.86,17.44C10.41,19.85,8.61,21.57,6.37,21.93Z" fill="currentColor"/><path d="M13.03,15.27L20.83,7.47L23.23,13.27C23.66,14.3,24,15.54,24,16.5C24,19.53,21.53,22,18.47,22C15.5,22,13.04,19.6,13.04,16.23Z" fill="currentColor"/></svg>