<svg xmlns="http://www.w3.org/2000/svg" viewBox="0 0 24 24" fill="currentColor"><path d="M7.6,19.85L6.42,21.4C5.9,22.1,5.5,21.87,5.5,21.4L5.5,9.23C5.5,6.47,6.47,5.5,9.23,5.5L16.78,5.5C19.53,5.5,20.51,6.47,20.51,9.23L20.51,15.28C20.51,18.03,19.53,19.01,16.78,19.01L9.33,19.01C8.56,19.01,8.08,19.25,7.61,19.85ZM11.6,16.43C11.8,16.15,12.03,16,12.25,16L13.58,16C13.93,16,14.18,16.1,14.3,16.28L14.66,16.75C14.86,17.03,15.13,17.07,15.41,16.92L15.86,16.64C16.13,16.5,16.23,16.22,16.08,15.92L15.93,15.54C15.78,15.24,15.78,14.96,15.88,14.77L16.53,13.62C16.71,13.32,16.93,13.15,17.16,13.15L17.7,13.07C18.05,13.05,18.23,12.83,18.23,12.5L18.23,11.99C18.23,11.64,18.05,11.45,17.7,11.42L17.33,11.36C16.98,11.34,16.73,11.21,16.63,11.01L15.98,9.86C15.8,9.56,15.75,9.29,15.85,9.09L16.07,8.57C16.22,8.27,16.13,7.99,15.85,7.84L15.4,7.56C15.12,7.41,14.85,7.46,14.65,7.74L14.4,8.06C14.2,8.33,13.97,8.48,13.75,8.48L12.42,8.48C12.1,8.48,11.82,8.39,11.69,8.21L11.34,7.74C11.14,7.46,10.87,7.41,10.59,7.56L10.14,7.84C9.86,7.99,9.77,8.27,9.92,8.57L10.07,8.94C10.22,9.24,10.22,9.52,10.12,9.71L9.47,10.86C9.29,11.16,9.07,11.33,8.84,11.33L8.3,11.41C7.94,11.43,7.77,11.63,7.77,11.99L7.77,12.49C7.77,12.81,7.94,13.04,8.3,13.07L8.67,13.12C9.02,13.14,9.27,13.27,9.37,13.47L10.02,14.62C10.19,14.92,10.25,15.2,10.15,15.39L9.92,15.92C9.77,16.22,9.87,16.5,10.15,16.64L10.6,16.92C10.88,17.07,11.15,17.02,11.35,16.75ZM14.75,12.25C14.75,13.23,13.97,14,13,14C12.02,14,11.25,13.22,11.25,12.25C11.25,11.27,12.02,10.5,13,10.5C13.98,10.5,14.75,11.27,14.75,12.25Z"/></svg>