<svg xmlns="http://www.w3.org/2000/svg" viewBox="0 0 24 24" fill="currentColor"><path d="M22,12L22,21.25C22,21.75,21.53,21.92,21.05,21.33L19.9,19.85C19.43,19.23,18.95,19,18.17,19L13.5,19C12,19,11.5,18.5,11.5,17L11.5,16.05L12.55,16.05C14.82,16.05,16.05,14.82,16.05,12.54L16.05,9.99L20,9.99C21.5,9.99,22.01,10.5,22.01,12ZM4,16.75L4,7.5C4,6,4.5,5.5,6,5.5L12.5,5.5C14,5.5,14.51,6,14.51,7.5L14.51,12.5C14.51,14,14,14.51,12.5,14.51L7.83,14.51C7.06,14.51,6.58,14.73,6.11,15.35L4.96,16.83C4.49,17.43,4.01,17.26,4.01,16.76Z"/></svg>