<svg xmlns="http://www.w3.org/2000/svg" viewBox="0 0 24 24"><path d="M4.8,21.13L3.23,23.2C2.53,24.13,2,23.83,2,23.2L2,6.97C2,3.3,3.3,2,6.97,2L17.04,2C20.71,2,22.01,3.3,22.01,6.97L22.01,15.04C22.01,18.71,20.71,20.01,17.04,20.01L7.11,20.01C6.08,20.01,5.44,20.34,4.81,21.14Z" fill="currentColor"/><path d="M10.13,16.57C10.4,16.2,10.7,16,11,16L12.77,16C13.24,16,13.57,16.13,13.74,16.37L14.21,17C14.48,17.37,14.84,17.43,15.21,17.23L15.81,16.86C16.18,16.66,16.31,16.29,16.11,15.89L15.91,15.39C15.71,14.99,15.71,14.62,15.84,14.36L16.71,12.83C16.94,12.43,17.24,12.2,17.54,12.2L18.27,12.1C18.74,12.07,18.97,11.77,18.97,11.33L18.97,10.66C18.97,10.19,18.74,9.93,18.27,9.89L17.77,9.82C17.3,9.79,16.97,9.62,16.84,9.35L15.97,7.82C15.74,7.42,15.67,7.05,15.8,6.79L16.1,6.09C16.3,5.69,16.17,5.32,15.8,5.12L15.2,4.75C14.83,4.55,14.47,4.62,14.2,4.98L13.87,5.41C13.6,5.78,13.3,5.98,13,5.98L11.23,5.98C10.8,5.98,10.43,5.85,10.26,5.61L9.79,4.98C9.52,4.61,9.16,4.55,8.79,4.75L8.19,5.12C7.82,5.32,7.69,5.69,7.89,6.09L8.09,6.59C8.29,6.99,8.29,7.36,8.16,7.62L7.29,9.15C7.06,9.55,6.76,9.78,6.46,9.78L5.73,9.88C5.26,9.91,5.03,10.18,5.03,10.65L5.03,11.32C5.03,11.75,5.26,12.05,5.73,12.09L6.23,12.16C6.7,12.19,7.03,12.36,7.16,12.63L8.03,14.16C8.26,14.56,8.33,14.93,8.2,15.19L7.9,15.89C7.7,16.29,7.83,16.66,8.2,16.86L8.8,17.23C9.17,17.43,9.53,17.36,9.8,17Z" fill="currentColor"/><path d="M14.33,11C14.33,12.3,13.3,13.33,12,13.33C10.7,13.33,9.67,12.3,9.67,11C9.67,9.7,10.7,8.67,12,8.67C13.3,8.67,14.33,9.7,14.33,11Z" fill="currentColor"/></svg>