<svg xmlns="http://www.w3.org/2000/svg" viewBox="0 0 24 24"><path d="M8.57,20L4.67,20C2.67,20,2,19.33,2,17.33L2,4.66C2,2.66,2.67,1.99,4.67,1.99L19.34,1.99C21.34,1.99,22.01,2.66,22.01,4.66L22.01,17.33C22.01,19.33,21.34,20,19.34,20L15.44,20C14.84,20,14.34,20.3,14.07,20.83L12.7,23.3C12.2,24.2,11.8,24.2,11.3,23.3L9.93,20.83C9.66,20.3,9.16,20,8.56,20Z" fill="currentColor"/><path d="M6,7.03C6,7.63,6.33,7.96,6.93,7.96L17.06,7.96C17.66,7.96,17.99,7.63,17.99,7.03L17.99,6.9C17.99,6.3,17.66,5.97,17.06,5.97L6.93,5.97C6.33,5.97,6,6.3,6,6.9Z" fill="currentColor"/><path d="M6,15.03C6,15.63,6.33,15.96,6.93,15.96L13.06,15.96C13.66,15.96,13.99,15.63,13.99,15.03L13.99,14.9C13.99,14.3,13.66,13.97,13.06,13.97L6.93,13.97C6.33,13.97,6,14.3,6,14.9Z" fill="currentColor"/><path d="M6,11.03C6,11.63,6.33,11.96,6.93,11.96L17.06,11.96C17.66,11.96,17.99,11.63,17.99,11.03L17.99,10.9C17.99,10.3,17.66,9.97,17.06,9.97L6.93,9.97C6.33,9.97,6,10.3,6,10.9Z" fill="currentColor"/></svg>