<svg xmlns="http://www.w3.org/2000/svg" viewBox="0 0 24 24" fill="currentColor"><path d="M7.6,19.85L6.42,21.4C5.9,22.1,5.5,21.87,5.5,21.4L5.5,9.23C5.5,6.47,6.47,5.5,9.23,5.5L16.78,5.5C19.53,5.5,20.51,6.47,20.51,9.23L20.51,15.28C20.51,18.03,19.53,19.01,16.78,19.01L9.33,19.01C8.56,19.01,8.08,19.25,7.61,19.85ZM19.1,12.25C19.1,11.33,18.42,10.65,17.5,10.65C16.58,10.65,15.9,11.33,15.9,12.25C15.9,13.17,16.58,13.85,17.5,13.85C18.42,13.85,19.1,13.17,19.1,12.25ZM10.1,12.25C10.1,11.33,9.42,10.65,8.5,10.65C7.58,10.65,6.9,11.33,6.9,12.25C6.9,13.17,7.58,13.85,8.5,13.85C9.42,13.85,10.1,13.17,10.1,12.25ZM14.6,12.25C14.6,11.33,13.92,10.65,13,10.65C12.08,10.65,11.4,11.33,11.4,12.25C11.4,13.17,12.08,13.85,13,13.85C13.92,13.85,14.6,13.17,14.6,12.25Z"/></svg>