<svg xmlns="http://www.w3.org/2000/svg" viewBox="0 0 24 24" fill="currentColor"><path d="M17.75,12.25C17.75,9.14,15.35,6.75,12.25,6.75C9.14,6.75,6.75,9.14,6.75,12.25C6.75,15.36,9.14,17.75,12.25,17.75C15.36,17.75,17.75,15.35,17.75,12.25ZM4.5,12.25C4.5,7.91,7.91,4.5,12.25,4.5C16.59,4.5,20,7.91,20,12.25C20,16.59,16.58,20,12.25,20C7.91,20,4.5,16.58,4.5,12.25ZM20.25,21.68C19.86,21.68,19.48,21.53,18.9,20.88L16.28,18.12L18.13,16.27L20.83,18.84C21.53,19.44,21.68,19.84,21.68,20.25C21.68,21.02,21.02,21.67,20.25,21.67ZM9.21,13C8.75,13,8.51,12.75,8.51,12.3L8.51,12.21C8.51,11.75,8.75,11.51,9.21,11.51L15.3,11.51C15.75,11.51,16,11.75,16,12.21L16,12.3C16,12.75,15.75,13,15.3,13Z"/></svg>