<svg xmlns="http://www.w3.org/2000/svg" viewBox="0 0 24 24" fill="currentColor"><path d="M20,20.5L5.99,20.5C4.49,20.5,3.99,20,3.99,18.5L3.99,14.5L7.74,14.5L7.74,16.1C7.74,16.55,7.99,16.79,8.44,16.79L8.54,16.79C8.99,16.79,9.23,16.55,9.23,16.1L9.23,14.5L16.73,14.5L16.73,16.1C16.73,16.55,16.98,16.79,17.43,16.79L17.53,16.79C17.98,16.79,18.23,16.55,18.23,16.1L18.23,14.5L21.98,14.5L21.98,18.5C21.98,20,21.47,20.5,19.97,20.5ZM4,11.97C4,10.47,4.5,9.97,6,9.97L20.01,9.97C21.51,9.97,22.01,10.47,22.01,11.97L22.01,13L4.01,13ZM9.27,7.5C9.27,6,9.77,5.5,11.27,5.5L14.78,5.5C16.28,5.5,16.78,6,16.78,7.5L16.78,8.5L15.28,8.5L15.28,7L10.78,7L10.78,8.5L9.28,8.5Z"/></svg>