<svg xmlns="http://www.w3.org/2000/svg" viewBox="0 0 24 24"><path d="M8.57,20L4.67,20C2.67,20,2,19.33,2,17.33L2,4.66C2,2.66,2.67,1.99,4.67,1.99L19.34,1.99C21.34,1.99,22.01,2.66,22.01,4.66L22.01,17.33C22.01,19.33,21.34,20,19.34,20L15.44,20C14.84,20,14.34,20.3,14.07,20.83L12.7,23.3C12.2,24.2,11.8,24.2,11.3,23.3L9.93,20.83C9.66,20.3,9.16,20,8.56,20Z" fill="currentColor"/><path d="M5,18L19,18L19,16.63C19,15.23,18.57,14.6,17.27,14.06L16.17,13.63C14.17,12.83,13.9,12.7,13.9,12.16C13.9,10.56,15.23,10.56,15.23,7.76C15.23,5.56,14.23,3.86,11.96,3.86C9.79,3.86,8.76,5.56,8.76,7.76C8.76,10.56,10.03,10.56,10.03,12.16C10.03,12.69,9.8,12.86,7.76,13.66L6.73,14.06C5.43,14.59,5,15.23,5,16.63Z" fill="currentColor"/></svg>