<svg xmlns="http://www.w3.org/2000/svg" viewBox="0 0 24 24"><path d="M4.8,21.13L3.23,23.2C2.53,24.13,2,23.83,2,23.2L2,6.97C2,3.3,3.3,2,6.97,2L17.04,2C20.71,2,22.01,3.3,22.01,6.97L22.01,15.04C22.01,18.71,20.71,20.01,17.04,20.01L7.11,20.01C6.08,20.01,5.44,20.34,4.81,21.14Z" fill="currentColor"/><path d="M6.8,16.1C7.6,16.9,8.2,16.93,8.93,16.2L12,13.13L15.07,16.2C15.8,16.93,16.4,16.87,17.2,16.07L17.2,16.07C17.93,15.34,17.87,14.74,17.07,13.94L14.14,11.01L17.11,8.08C17.91,7.28,17.98,6.68,17.24,5.95L17.21,5.92C16.41,5.12,15.81,5.09,15.08,5.82L12.01,8.89L8.94,5.82C8.21,5.09,7.61,5.15,6.81,5.95L6.81,5.95C6.08,6.68,6.14,7.28,6.94,8.08L9.87,11.01L6.9,13.94C6.1,14.74,6.03,15.34,6.77,16.07Z" fill="currentColor"/></svg>