<svg xmlns="http://www.w3.org/2000/svg" viewBox="0 0 24 24"><path d="M7.47,20.53L2.9,21.76C2.33,21.89,2.1,21.66,2.23,21.09L3.46,16.56C3.59,15.99,3.93,15.43,4.36,14.99L15.96,3.29C17.23,1.99,18.29,2.12,20.09,3.86C21.82,5.59,21.99,6.69,20.66,8.03L9.03,19.63C8.6,20.06,8.03,20.4,7.46,20.53Z" fill="currentColor"/><path d="M11.94,22C11.34,22,11.01,21.67,11.01,21.07L11.01,20.94C11.01,20.34,11.34,20.01,11.94,20.01L21.07,20.01C21.67,20.01,22,20.34,22,20.94L22,21.07C22,21.67,21.67,22,21.07,22Z" fill="currentColor"/></svg>