<svg xmlns="http://www.w3.org/2000/svg" viewBox="0 0 24 24" fill="currentColor"><path d="M12.25,6.75C9.14,6.75,6.75,9.14,6.75,12.25C6.75,15.36,9.14,17.75,12.25,17.75C15.36,17.75,17.75,15.35,17.75,12.25C17.75,9.14,15.35,6.75,12.25,6.75ZM12.25,4.5C16.59,4.5,20,7.91,20,12.25C20,16.59,16.58,20,12.25,20C7.91,20,4.5,16.58,4.5,12.25C4.5,7.91,7.91,4.5,12.25,4.5ZM20.25,21.68C19.86,21.68,19.48,21.53,18.9,20.88L16.28,18.12L18.13,16.27L20.83,18.84C21.53,19.44,21.68,19.84,21.68,20.25C21.68,21.02,21.02,21.67,20.25,21.67ZM15.72,11.07L11.92,14.9C11.54,15.27,11.24,15.27,10.87,14.9L8.9,12.93C8.52,12.55,8.52,12.25,8.9,11.85L8.95,11.83C9.32,11.43,9.62,11.43,10,11.81L11.4,13.18L14.63,9.98C15,9.6,15.3,9.6,15.68,9.98L15.73,10.03C16.1,10.41,16.1,10.71,15.73,11.08Z"/></svg>