<svg xmlns="http://www.w3.org/2000/svg" viewBox="0 0 24 24" fill="currentColor"><path d="M19,12L19,13L7,13L7,12C7,10.5,7.5,10,9,10L9.63,10C11.13,10,11.48,9.53,10.98,8.1L10.75,7.41C10,5.16,11.5,4.01,12.98,4.01C14.46,4.01,15.98,5.19,15.23,7.46L15,8.11C14.53,9.54,14.87,10.01,16.38,10.01L17,10.01C18.5,10.01,19,10.51,19,12.01ZM7.75,20.5C7,19,7,19,7,14.48L19,14.48C19,19,19,19,19.75,20.5ZM14,6.5C14,5.96,13.55,5.51,13,5.51C12.45,5.51,12,5.96,12,6.5C12,7.05,12.45,7.5,13,7.5C13.55,7.5,14,7.05,14,6.5Z"/></svg>