<svg xmlns="http://www.w3.org/2000/svg" viewBox="0 0 24 24" fill="currentColor"><path d="M11.5,12.25C10,12.25,9.5,11.75,9.5,10.25L9.5,7.5C9.5,6,10,5.49,11.5,5.49L14.25,5.49C15.75,5.49,16.26,6,16.26,7.5L16.26,10.25C16.26,11.75,15.75,12.25,14.25,12.25ZM7.5,20.5C6,20.5,5.49,20,5.49,18.5L5.49,15.74C5.49,14.24,6,13.74,7.5,13.74L10.25,13.74C11.75,13.74,12.25,14.24,12.25,15.74L12.25,18.5C12.25,20,11.75,20.5,10.25,20.5ZM8.13,19.05C8.13,19.5,8.37,19.75,8.82,19.75L8.92,19.75C9.37,19.75,9.62,19.5,9.62,19.05L9.62,17.88L10.79,17.88C11.25,17.88,11.49,17.63,11.49,17.18L11.49,17.08C11.49,16.63,11.25,16.38,10.79,16.38L9.62,16.38L9.62,15.21C9.62,14.75,9.37,14.51,8.92,14.51L8.82,14.51C8.37,14.51,8.13,14.75,8.13,15.21L8.13,16.38L6.95,16.38C6.5,16.38,6.25,16.63,6.25,17.08L6.25,17.18C6.25,17.63,6.5,17.88,6.95,17.88L8.13,17.88ZM15.74,20.5C14.24,20.5,13.74,20,13.74,18.5L13.74,15.74C13.74,14.24,14.24,13.74,15.74,13.74L18.5,13.74C20,13.74,20.5,14.24,20.5,15.74L20.5,18.5C20.5,20,20,20.5,18.5,20.5ZM14.75,17.17C14.75,17.62,14.99,17.87,15.44,17.87L18.8,17.87C19.25,17.87,19.49,17.62,19.49,17.17L19.49,17.07C19.49,16.62,19.25,16.38,18.8,16.38L15.44,16.38C14.99,16.38,14.75,16.62,14.75,17.07ZM10.5,10.17C10.5,10.62,10.75,10.87,11.2,10.87L14.55,10.87C15,10.87,15.25,10.62,15.25,10.17L15.25,10.07C15.25,9.63,15,9.38,14.55,9.38L11.2,9.38C10.75,9.38,10.5,9.63,10.5,10.07ZM10.5,7.68C10.5,8.13,10.75,8.37,11.2,8.37L14.55,8.37C15,8.37,15.25,8.13,15.25,7.68L15.25,7.58C15.25,7.13,15,6.88,14.55,6.88L11.2,6.88C10.75,6.88,10.5,7.13,10.5,7.58Z"/></svg>