<svg xmlns="http://www.w3.org/2000/svg" viewBox="0 0 24 24" fill="currentColor"><path d="M18.4,19.85C17.93,19.25,17.45,19,16.67,19L10.22,19L20.48,8.74C20.49,8.9,20.5,9.06,20.5,9.23L20.5,21.4C20.5,21.87,20.1,22.1,19.58,21.4ZM21.55,5.52L20.11,6.96L8.14,18.93L5.57,21.5L5.55,21.52C5.23,21.84,4.88,21.84,4.55,21.52L4.48,21.45C4.16,21.12,4.16,20.77,4.48,20.45L6.56,18.36C5.81,17.79,5.51,16.81,5.51,15.27L5.51,9.22C5.51,6.47,6.48,5.49,9.23,5.49L16.79,5.49C17.75,5.49,18.49,5.61,19.05,5.88L20.49,4.44C20.81,4.12,21.17,4.12,21.49,4.44L21.56,4.52C21.88,4.83,21.89,5.18,21.59,5.49C21.58,5.5,21.57,5.51,21.56,5.51Z"/></svg>