<svg xmlns="http://www.w3.org/2000/svg" viewBox="0 0 24 24"><path d="M15.66,11C13.66,11,12.99,10.33,12.99,8.33L12.99,4.66C12.99,2.66,13.66,1.99,15.66,1.99L19.33,1.99C21.33,1.99,22,2.66,22,4.66L22,8.33C22,10.33,21.33,11,19.33,11Z" fill="currentColor"/><path d="M4.66,22C2.66,22,1.99,21.33,1.99,19.33L1.99,15.66C1.99,13.66,2.66,12.99,4.66,12.99L8.33,12.99C10.33,12.99,11,13.66,11,15.66L11,19.33C11,21.33,10.33,22,8.33,22Z" fill="currentColor"/><path d="M4.07,20C4.5,20.43,4.97,20.43,5.4,20L6.5,18.9L7.6,20C8.03,20.43,8.5,20.43,8.93,20L9,19.93C9.43,19.5,9.43,19.03,9,18.6L7.9,17.5L9,16.4C9.43,15.97,9.43,15.5,9,15.07L8.93,15C8.5,14.57,8.03,14.57,7.6,15L6.5,16.1L5.4,15C4.97,14.57,4.5,14.57,4.07,15L4,15.07C3.57,15.5,3.57,15.97,4,16.4L5.1,17.5L4,18.6C3.57,19.03,3.57,19.5,4,19.93Z" fill="currentColor"/><path d="M14.33,19.23C14.33,19.83,14.66,20.16,15.26,20.16L19.73,20.16C20.33,20.16,20.66,19.83,20.66,19.23L20.66,19.1C20.66,18.5,20.33,18.17,19.73,18.17L15.26,18.17C14.66,18.17,14.33,18.5,14.33,19.1Z" fill="currentColor"/><path d="M4.66,11C2.66,11,1.99,10.33,1.99,8.33L1.99,4.66C1.99,2.66,2.66,1.99,4.66,1.99L8.33,1.99C10.33,1.99,11,2.66,11,4.66L11,8.33C11,10.33,10.33,11,8.33,11Z" fill="currentColor"/><path d="M5.5,9.07C5.5,9.67,5.83,10,6.43,10L6.56,10C7.16,10,7.49,9.67,7.49,9.07L7.49,7.5L9.06,7.5C9.66,7.5,9.99,7.17,9.99,6.57L9.99,6.44C9.99,5.84,9.66,5.51,9.06,5.51L7.49,5.51L7.49,3.94C7.49,3.34,7.16,3.01,6.56,3.01L6.43,3.01C5.83,3.01,5.5,3.34,5.5,3.94L5.5,5.51L3.93,5.51C3.33,5.51,3,5.84,3,6.44L3,6.57C3,7.17,3.33,7.5,3.93,7.5L5.5,7.5Z" fill="currentColor"/><path d="M15.66,22C13.66,22,12.99,21.33,12.99,19.33L12.99,15.66C12.99,13.66,13.66,12.99,15.66,12.99L19.33,12.99C21.33,12.99,22,13.66,22,15.66L22,19.33C22,21.33,21.33,22,19.33,22Z" fill="currentColor"/><path d="M14.33,15.9C14.33,16.5,14.66,16.83,15.26,16.83L19.73,16.83C20.33,16.83,20.66,16.5,20.66,15.9L20.66,15.77C20.66,15.17,20.33,14.84,19.73,14.84L15.26,14.84C14.66,14.84,14.33,15.17,14.33,15.77Z" fill="currentColor"/><path d="M14.33,6.56C14.33,7.16,14.66,7.49,15.26,7.49L19.73,7.49C20.33,7.49,20.66,7.16,20.66,6.56L20.66,6.43C20.66,5.83,20.33,5.5,19.73,5.5L15.26,5.5C14.66,5.5,14.33,5.83,14.33,6.43Z" fill="currentColor"/></svg>