<svg xmlns="http://www.w3.org/2000/svg" viewBox="0 0 24 24" fill="currentColor"><path d="M8.18,22L8.08,22C7.31,22,7.01,21.7,7.01,20.93L7.01,20.5L9.26,20.5L9.26,20.93C9.26,21.7,8.96,22,8.19,22ZM16.5,19L11.16,19L9.26,19L7.01,19L5.71,19L5.09,19C4.32,19,4.02,18.7,4.02,17.93L4.02,17.83C4.02,17.06,4.32,16.76,5.09,16.76L7.02,16.76L7.02,9.51C7.02,7.63,7.64,7.01,9.51,7.01L16.77,7.01L16.77,5.08C16.77,4.31,17.07,4.01,17.84,4.01L17.94,4.01C18.71,4.01,19.01,4.31,19.01,5.08L19.01,7.01L20.94,7.01C21.71,7.01,22.01,7.31,22.01,8.08L22.01,8.18C22.01,8.95,21.71,9.25,20.94,9.25L20.41,9.25L19.01,9.25L16.76,9.25L14.96,9.25L9.26,9.25L9.26,16.75L16.76,16.75L16.76,10.75L19.01,10.75L19.01,16.5C19.01,18.38,18.39,19,16.51,19Z"/></svg>