<svg xmlns="http://www.w3.org/2000/svg" viewBox="0 0 24 24" fill="currentColor"><path d="M17.5,9.27C17.5,8.02,18.53,7.02,19.75,7.02C20.97,7,22,8.02,22,9.27C22,10.5,20.97,11.5,19.75,11.5C18.53,11.5,17.5,10.47,17.5,9.27ZM20.5,11.05L20.5,17.5L22,17.5L22,19L19,19L19,11.05ZM20.58,8.84C20.58,8.37,20.2,8,19.75,8.04C19.3,8.04,18.92,8.39,18.92,8.84C18.92,9.27,19.3,9.65,19.75,9.65C20.2,9.65,20.58,9.29,20.58,8.84ZM15.5,20.5L7.42,20.5C5.97,20.5,5.49,20,5.49,18.5L5.49,13.42C5.49,11.97,5.99,11.49,7.49,11.49L7.74,11.49L7.74,9.24C7.74,6.84,9.47,5.44,11.49,5.44C13.52,5.44,15.24,6.84,15.24,9.24L15.24,11.49L15.56,11.49C17.01,11.49,17.49,11.99,17.49,13.49L17.49,18.57C17.49,20.02,16.99,20.5,15.49,20.5ZM10.73,18.29C10.73,18.75,10.98,18.99,11.43,18.99L11.52,18.99C11.97,18.99,12.22,18.75,12.22,18.29L12.22,15.95C12.22,15.5,11.97,15.25,11.52,15.25L11.43,15.25C10.98,15.25,10.73,15.5,10.73,15.95ZM9.25,11.5L13.75,11.5L13.75,9.25C13.75,7.75,12.77,6.95,11.5,6.95C10.23,6.95,9.25,7.75,9.25,9.25Z"/></svg>