<svg xmlns="http://www.w3.org/2000/svg" viewBox="0 0 24 24"><path d="M24,10.67L24,23C24,23.67,23.37,23.9,22.73,23.1L21.2,21.13C20.57,20.3,19.93,20,18.9,20L12.67,20C10.67,20,10,19.33,10,17.33L10,16.06L11.4,16.06C14.43,16.06,16.07,14.42,16.07,11.39L16.07,7.99L21.34,7.99C23.34,7.99,24.01,8.66,24.01,10.66Z" fill="currentColor"/><path d="M0,17L0,4.67C0,2.67,0.67,2,2.67,2L11.34,2C13.34,2,14.01,2.67,14.01,4.67L14.01,11.34C14.01,13.34,13.34,14.01,11.34,14.01L5.11,14.01C4.08,14.01,3.44,14.31,2.81,15.14L1.28,17.11C0.65,17.91,0.01,17.68,0.01,17.01Z" fill="currentColor"/></svg>