<svg xmlns="http://www.w3.org/2000/svg" viewBox="0 0 24 24" fill="currentColor"><path d="M6.5,6.87C6.93,5.72,7.25,5.5,8.45,5.5L17.55,5.5C18.75,5.5,19.07,5.72,19.5,6.87L21.69,13C22.37,14.85,21.22,16.25,18.99,16.25C16.77,16.25,15.62,14.84,16.29,13L18.45,7L13.74,7L13.74,16.22C13.74,18.55,13.74,18.72,16.8,19.07C17.25,19.13,17.49,19.4,17.49,19.85L17.49,19.79C17.49,20.25,17.25,20.49,16.8,20.49L9.2,20.49C8.75,20.49,8.5,20.25,8.5,19.79L8.5,19.85C8.5,19.4,8.75,19.12,9.2,19.07C12.25,18.72,12.25,18.55,12.25,16.22L12.25,7L7.55,7L9.7,13C10.38,14.85,9.23,16.25,7,16.25C4.77,16.25,3.63,14.84,4.3,13ZM5.07,13L8.92,13L6.99,7.62ZM20.93,13L19,7.62L17.07,13Z"/></svg>