<svg xmlns="http://www.w3.org/2000/svg" viewBox="0 0 24 24" fill="currentColor"><path d="M10.43,19L7.5,19C6,19,5.5,18.5,5.5,17L5.5,7.49C5.5,5.99,6,5.49,7.5,5.49L18.5,5.49C20,5.49,20.51,5.99,20.51,7.49L20.51,17C20.51,18.5,20,19,18.5,19L15.58,19C15.13,19,14.75,19.23,14.55,19.62L13.52,21.47C13.15,22.15,12.85,22.15,12.47,21.47L11.45,19.62C11.24,19.22,10.87,19,10.42,19ZM7.75,17.5L18.25,17.5L18.25,16.47C18.25,15.42,17.93,14.95,16.95,14.54L16.13,14.22C14.63,13.62,14.42,13.52,14.42,13.12C14.42,11.92,15.42,11.92,15.42,9.82C15.42,8.17,14.67,6.89,12.97,6.89C11.34,6.89,10.57,8.17,10.57,9.82C10.57,11.92,11.52,11.92,11.52,13.12C11.52,13.52,11.35,13.64,9.82,14.25L9.05,14.54C8.07,14.94,7.75,15.42,7.75,16.47Z"/></svg>