<svg xmlns="http://www.w3.org/2000/svg" viewBox="0 0 24 24" fill="currentColor"><path d="M20.25,20.18C20.5,20.66,20.5,20.66,20.5,20.25L20.5,12C20.5,11.5,20.5,11.5,20,11.5L17.72,11.5L19.22,10L20,10C21.5,10,22,10.5,22,12L22,20.25C22,22.33,19.7,22.35,18.92,20.91L18.4,19.95C18.05,19.28,17.6,19,16.82,19L13.5,19C12.26,19,11.7,18.66,11.54,17.68L13,16.22L13,17C13,17.5,13,17.5,13.5,17.5L16.82,17.5C18.05,17.5,19.17,18.18,19.72,19.24ZM5.5,15.75C5.5,16.18,5.5,16.18,5.74,15.72L6.23,14.76C6.84,13.66,7.91,13.01,9.13,13.01L11.93,13.01L13,11.94L13,7.51C13,7.01,13,7.01,12.5,7.01L6,7.01C5.49,7.01,5.49,7.01,5.49,7.51ZM4,15.75L4,7.5C4,6,4.5,5.5,6,5.5L12.5,5.5C14,5.5,14.51,6,14.51,7.5L14.51,10.43L20.48,4.45C20.81,4.13,21.16,4.13,21.48,4.45L21.56,4.53C21.87,4.84,21.88,5.19,21.58,5.5C21.57,5.51,21.56,5.52,21.56,5.52L17.08,10L16.05,11.03L14.5,12.58L12.57,14.51L5.57,21.51L5.55,21.53C5.23,21.85,4.88,21.85,4.55,21.53L4.48,21.45C4.16,21.13,4.16,20.78,4.48,20.46L10.43,14.51L9.13,14.51C8.36,14.51,7.93,14.79,7.55,15.46L7.08,16.41C6.33,17.86,4.01,17.84,4.01,15.76Z"/></svg>