<svg xmlns="http://www.w3.org/2000/svg" viewBox="0 0 24 24"><path d="M4.8,21.13L3.23,23.2C2.53,24.13,2,23.83,2,23.2L2,6.97C2,3.3,3.3,2,6.97,2L17.04,2C20.71,2,22.01,3.3,22.01,6.97L22.01,15.04C22.01,18.71,20.71,20.01,17.04,20.01L7.11,20.01C6.08,20.01,5.44,20.34,4.81,21.14Z" fill="currentColor"/><path d="M10.5,16.53C10.5,17.6,10.9,18,11.93,18L12.03,18C13.1,18,13.5,17.6,13.5,16.57L13.5,12.5L17.57,12.5C18.6,12.5,19,12.1,19,11.03L19,10.93C19,9.9,18.6,9.5,17.53,9.5L13.5,9.5L13.5,5.47C13.5,4.4,13.1,4,12.07,4L11.97,4C10.9,4,10.5,4.4,10.5,5.43L10.5,9.5L6.43,9.5C5.4,9.5,5,9.9,5,10.97L5,11.07C5,12.1,5.4,12.5,6.47,12.5L10.5,12.5Z" fill="currentColor"/></svg>