<svg xmlns="http://www.w3.org/2000/svg" viewBox="0 0 24 24"><path d="M18.33,11C18.33,6.85,15.14,3.67,11,3.67C6.85,3.67,3.67,6.86,3.67,11C3.67,15.15,6.86,18.33,11,18.33C15.15,18.33,18.33,15.14,18.33,11Z" fill="currentColor"/><path d="M0.67,11C0.67,5.21,5.22,0.67,11,0.67C16.79,0.67,21.33,5.22,21.33,11C21.33,16.79,16.78,21.33,11,21.33C5.21,21.33,0.67,16.78,0.67,11Z" fill="currentColor"/><path d="M21.67,23.57C21.14,23.57,20.64,23.37,19.87,22.5L16.37,18.83L18.84,16.36L22.44,19.79C23.37,20.59,23.57,21.12,23.57,21.66C23.57,22.69,22.7,23.56,21.67,23.56Z" fill="currentColor"/><path d="M11.07,11.93L10.94,11.93C10.44,11.93,10.21,11.73,10.14,11.26L9.57,7.49C9.44,6.49,9.77,6.09,10.8,6.09L11.2,6.09C12.23,6.09,12.57,6.49,12.43,7.49L11.86,11.26C11.79,11.73,11.56,11.93,11.06,11.93Z" fill="currentColor"/><path d="M9.73,14.5C9.73,13.7,10.2,13.2,11,13.2C11.8,13.2,12.3,13.7,12.3,14.5C12.3,15.3,11.8,15.77,11,15.77C10.2,15.77,9.73,15.3,9.73,14.5Z" fill="currentColor"/></svg>