<svg xmlns="http://www.w3.org/2000/svg" viewBox="0 0 24 24" fill="currentColor"><path d="M8.92,20.5C7.47,20.5,6.99,20,6.99,18.5L6.99,13.42C6.99,11.97,7.49,11.49,8.99,11.49L17.07,11.49C18.52,11.49,19,11.99,19,13.49L19,18.57C19,20.02,18.5,20.5,17,20.5ZM12.23,18.29C12.23,18.75,12.48,18.99,12.93,18.99L13.02,18.99C13.47,18.99,13.72,18.75,13.72,18.29L13.72,15.95C13.72,15.5,13.47,15.25,13.02,15.25L12.93,15.25C12.48,15.25,12.23,15.5,12.23,15.95ZM15.25,12L15.25,7.8C15.25,6.21,14.38,5.5,13,5.5C11.62,5.5,10.75,6.21,10.75,7.8L10.75,8.55L9.25,8.55L9.25,7.8C9.25,5.49,11.08,4,13,4C14.92,4,16.75,5.49,16.75,7.8L16.75,12Z"/></svg>