<svg xmlns="http://www.w3.org/2000/svg" viewBox="0 0 24 24"><path d="M17.41,22C17.82,21.27,18,20.39,18,19.43L18,12.66C18,11.56,17.79,10.68,17.41,9.99L19,9.99L19,6.99C19,4.99,17.7,3.92,16,3.92C15.45,3.92,14.94,4.03,14.5,4.25C14.25,3.61,13.91,3.03,13.5,2.52C14.24,2.12,15.1,1.92,16,1.92C18.7,1.92,21,3.79,21,6.99L21,9.99L21.43,9.99C23.36,9.99,24,10.66,24,12.66L24,19.43C24,21.36,23.33,22,21.33,22Z" fill="currentColor"/><path d="M13.33,20L11.33,20L11.33,12L13.43,12C14,12,14,12,14,12.67L14,19.44C14,20.01,14,20.01,13.33,20.01Z" fill="currentColor"/><path d="M13.33,22L2.56,22C0.63,22,-0.01,21.33,-0.01,19.33L-0.01,12.56C-0.01,10.63,0.66,9.99,2.66,9.99L2.99,9.99L2.99,6.99C2.99,3.79,5.29,1.92,7.99,1.92C10.69,1.92,12.99,3.79,12.99,6.99L12.99,9.99L13.42,9.99C15.35,9.99,15.99,10.66,15.99,12.66L15.99,19.43C15.99,21.36,15.32,22,13.32,22Z" fill="currentColor"/><path d="M6.97,19.06C6.97,19.66,7.3,19.99,7.9,19.99L8.03,19.99C8.63,19.99,8.96,19.66,8.96,19.06L8.96,15.93C8.96,15.33,8.63,15,8.03,15L7.9,15C7.3,15,6.97,15.33,6.97,15.93Z" fill="currentColor"/><path d="M5,10L11,10L11,7C11,5,9.7,3.93,8,3.93C6.3,3.93,5,5,5,7Z" fill="currentColor"/></svg>