<svg xmlns="http://www.w3.org/2000/svg" viewBox="0 0 24 24"><path d="M18.33,11C18.33,6.85,15.14,3.67,11,3.67C6.85,3.67,3.67,6.86,3.67,11C3.67,15.15,6.86,18.33,11,18.33C15.15,18.33,18.33,15.14,18.33,11Z" fill="currentColor"/><path d="M0.67,11C0.67,5.21,5.22,0.67,11,0.67C16.79,0.67,21.33,5.22,21.33,11C21.33,16.79,16.78,21.33,11,21.33C5.21,21.33,0.67,16.78,0.67,11Z" fill="currentColor"/><path d="M21.67,23.57C21.14,23.57,20.64,23.37,19.87,22.5L16.37,18.83L18.84,16.36L22.44,19.79C23.37,20.59,23.57,21.12,23.57,21.66C23.57,22.69,22.7,23.56,21.67,23.56Z" fill="currentColor"/><path d="M8,14.83C7.83,15.36,8.03,15.46,8.47,15.16L11,13.36L13.5,15.16C13.93,15.46,14.13,15.36,14,14.83L13.23,11.83L15.5,10.06C15.9,9.73,15.83,9.49,15.3,9.46L12.37,9.23L11.3,6.56C11.1,6.06,10.87,6.06,10.67,6.56L9.67,9.23L6.67,9.46C6.14,9.49,6.07,9.73,6.5,10.06L8.77,11.83Z" fill="currentColor"/></svg>