<svg xmlns="http://www.w3.org/2000/svg" viewBox="0 0 24 24"><path d="M24,10.67L24,23C24,23.67,23.37,23.9,22.73,23.1L21.2,21.13C20.57,20.3,19.93,20,18.9,20L12.67,20C10.98,20,10.25,19.53,10.06,18.18L20.24,8L21.34,8C23.34,8,24.01,8.67,24.01,10.67Z" fill="currentColor"/><path d="M0,17L0,4.67C0,2.67,0.67,2,2.67,2L11.34,2C13.34,2,14.01,2.67,14.01,4.67L14.01,8.57L21.98,0.6C22.41,0.17,22.88,0.17,23.31,0.6L23.41,0.7C23.78,1.07,23.83,1.46,23.58,1.83C23.51,1.88,23.44,1.93,23.38,2L2.05,23.33C1.98,23.4,1.93,23.46,1.88,23.53C1.51,23.78,1.12,23.73,0.75,23.36L0.65,23.26C0.22,22.83,0.22,22.36,0.65,21.93L8.58,14L5.11,14C4.08,14,3.44,14.3,2.81,15.13L1.28,17.1C0.65,17.9,0.01,17.67,0.01,17Z" fill="currentColor"/></svg>