<svg xmlns="http://www.w3.org/2000/svg" viewBox="0 0 24 24" fill="currentColor"><path d="M10.43,19L7.5,19C6,19,5.5,18.5,5.5,17L5.5,7.49C5.5,5.99,6,5.49,7.5,5.49L18.5,5.49C20,5.49,20.51,5.99,20.51,7.49L20.51,17C20.51,18.5,20,19,18.5,19L15.58,19C15.13,19,14.75,19.23,14.55,19.62L13.52,21.47C13.15,22.15,12.85,22.15,12.47,21.47L11.45,19.62C11.24,19.22,10.87,19,10.42,19ZM15.55,14.22C17.35,12.32,17.67,11.65,17.67,10.9C17.67,9.6,16.72,8.78,15.5,8.78C14.65,8.78,13.79,9.23,13,10.48C12.23,9.26,11.35,8.78,10.55,8.78C9.44,8.78,8.32,9.6,8.32,10.95C8.32,11.57,8.6,12.25,10.44,14.23L12.99,16.95Z"/></svg>