<svg xmlns="http://www.w3.org/2000/svg" viewBox="0 0 24 24" fill="currentColor"><path d="M7.6,19.85L6.42,21.4C5.9,22.1,5.5,21.87,5.5,21.4L5.5,9.23C5.5,6.47,6.47,5.5,9.23,5.5L16.78,5.5C19.53,5.5,20.51,6.47,20.51,9.23L20.51,15.28C20.51,18.03,19.53,19.01,16.78,19.01L9.33,19.01C8.56,19.01,8.08,19.25,7.61,19.85ZM8.5,9.27C8.5,9.72,8.75,9.97,9.2,9.97L16.8,9.97C17.25,9.97,17.49,9.72,17.49,9.27L17.49,9.18C17.49,8.73,17.25,8.48,16.8,8.48L9.2,8.48C8.75,8.48,8.5,8.73,8.5,9.18ZM8.5,15.27C8.5,15.72,8.75,15.97,9.2,15.97L13.79,15.97C14.25,15.97,14.49,15.72,14.49,15.27L14.49,15.17C14.49,14.72,14.25,14.48,13.79,14.48L9.2,14.48C8.75,14.48,8.5,14.72,8.5,15.17ZM8.5,12.27C8.5,12.72,8.75,12.97,9.2,12.97L16.8,12.97C17.25,12.97,17.49,12.72,17.49,12.27L17.49,12.18C17.49,11.73,17.25,11.48,16.8,11.48L9.2,11.48C8.75,11.48,8.5,11.73,8.5,12.18Z"/></svg>