<svg xmlns="http://www.w3.org/2000/svg" viewBox="0 0 24 24"><path d="M18.66,7C18.66,6.07,17.93,5.33,17.03,5.33C16.1,5.33,15.33,6.06,15.33,7C15.33,7.93,16.1,8.67,17.03,8.67C17.93,8.67,18.66,7.94,18.66,7Z" fill="currentColor"/><path d="M13.97,14.03L12,16L10,16L10,18L8,18L8,20L6,20L6,22L2,22L2.03,18L9.99,10.04C9.78,9.4,9.67,8.7,9.67,7.96C9.67,4.49,12.47,1.66,16.04,1.66C19.57,1.66,22.34,4.43,22.34,7.96C22.34,9.63,21.74,11.23,20.51,12.46C19.28,13.69,17.64,14.33,16.04,14.33C15.29,14.33,14.61,14.22,13.95,14Z" fill="currentColor"/></svg>