<svg xmlns="http://www.w3.org/2000/svg" viewBox="0 0 24 24" fill="currentColor"><path d="M18.9,20.39C19,20.61,19,20.61,19,20.55L19,9.23C19,7.25,18.75,7,16.77,7L9.22,7C7.24,7,6.99,7.25,6.99,9.23L6.99,15.28C6.99,17.26,7.24,17.51,9.22,17.51L15.5,17.51C16.72,17.51,17.87,18.24,18.38,19.34ZM17.55,21.05L17.03,19.98C16.71,19.28,16.28,19,15.5,19L9.23,19C6.48,19,5.5,18.02,5.5,15.27L5.5,9.22C5.5,6.47,6.48,5.49,9.23,5.49L16.78,5.49C19.53,5.49,20.51,6.47,20.51,9.22L20.51,20.55C20.51,22.02,18.31,22.59,17.56,21.05Z"/></svg>