<svg xmlns="http://www.w3.org/2000/svg" viewBox="0 0 24 24"><path d="M8.57,20L4.67,20C2.67,20,2,19.33,2,17.33L2,4.66C2,2.66,2.67,1.99,4.67,1.99L19.34,1.99C21.34,1.99,22.01,2.66,22.01,4.66L22.01,17.33C22.01,19.33,21.34,20,19.34,20L15.44,20C14.84,20,14.34,20.3,14.07,20.83L12.7,23.3C12.2,24.2,11.8,24.2,11.3,23.3L9.93,20.83C9.66,20.3,9.16,20,8.56,20Z" fill="currentColor"/><path d="M18.63,8.77C19.36,8.07,19.33,7.5,18.6,6.77L18.53,6.67C17.8,5.94,17.23,5.94,16.5,6.67L10.4,12.77L7.77,10.14C7.04,9.41,6.47,9.44,5.74,10.17L5.64,10.24C4.91,10.97,4.91,11.54,5.64,12.27L9.41,16.04C10.14,16.77,10.68,16.77,11.41,16.04Z" fill="currentColor"/></svg>