<svg xmlns="http://www.w3.org/2000/svg" viewBox="0 0 24 24" fill="currentColor"><path d="M7.6,19.85L6.42,21.4C5.9,22.1,5.5,21.87,5.5,21.4L5.5,9.23C5.5,6.47,6.47,5.5,9.23,5.5L16.78,5.5C19.53,5.5,20.51,6.47,20.51,9.23L20.51,15.28C20.51,18.03,19.53,19.01,16.78,19.01L9.33,19.01C8.56,19.01,8.08,19.25,7.61,19.85ZM7.75,12.3C7.75,13.08,8.05,13.38,8.85,13.38L17.18,13.38C17.95,13.38,18.25,13.08,18.25,12.27L18.25,12.2C18.25,11.43,17.95,11.13,17.15,11.13L8.82,11.13C8.05,11.13,7.75,11.43,7.75,12.23Z"/></svg>