<svg xmlns="http://www.w3.org/2000/svg" viewBox="0 0 24 24"><path d="M22,22.53C22,23.56,21.6,23.96,20.57,23.96L15.44,23.93C14.41,23.93,14.01,23.53,14.01,22.5L14.01,1.43C14.01,0.4,14.41,0,15.44,0L20.57,0C21.6,0,22,0.4,22,1.43L22,3L19,3L19,5L22,5L22,7L19,7L19,9L22,9L22,15L19,15L19,17L22,17L22,19L19,19L19,21L22,21Z" fill="currentColor"/><path d="M22,13L22,11L17,11L17,13Z" fill="currentColor"/><path d="M7.5,22.57C7.5,23.6,7.1,24,6.07,24L5.94,24C4.91,24,4.51,23.6,4.51,22.57L4.51,5.34L7.51,5.34Z" fill="currentColor"/><path d="M1.9,4.83L5.1,0.76C5.77,-0.07,6.23,-0.07,6.9,0.76L10.1,4.86C10.67,5.56,10.43,5.99,9.53,5.99L2.46,5.99C1.53,5.99,1.33,5.56,1.89,4.82Z" fill="currentColor"/></svg>