<svg xmlns="http://www.w3.org/2000/svg" viewBox="0 0 24 24" fill="currentColor"><path d="M17.06,20.5C17.36,19.95,17.5,19.29,17.5,18.57L17.5,13.5C17.5,12.67,17.34,12.01,17.06,11.49L18.25,11.49L18.25,9.24C18.25,7.74,17.27,6.94,16,6.94C15.59,6.94,15.2,7.02,14.87,7.19C14.69,6.71,14.43,6.27,14.12,5.89C14.68,5.59,15.32,5.44,16,5.44C18.02,5.44,19.75,6.84,19.75,9.24L19.75,11.49L20.07,11.49C21.52,11.49,22,12,22,13.5L22,18.57C22,20.02,21.5,20.5,20,20.5ZM14,19L12.5,19L12.5,13L14.07,13C14.5,13,14.5,13,14.5,13.5L14.5,18.58C14.5,19.01,14.5,19.01,14,19.01ZM14,20.5L5.92,20.5C4.47,20.5,3.99,20,3.99,18.5L3.99,13.42C3.99,11.97,4.49,11.49,5.99,11.49L6.24,11.49L6.24,9.24C6.24,6.84,7.97,5.44,9.99,5.44C12.02,5.44,13.74,6.84,13.74,9.24L13.74,11.49L14.06,11.49C15.51,11.49,15.99,11.99,15.99,13.49L15.99,18.57C15.99,20.02,15.49,20.5,13.99,20.5ZM9.23,18.29C9.23,18.75,9.48,18.99,9.93,18.99L10.02,18.99C10.47,18.99,10.72,18.75,10.72,18.29L10.72,15.95C10.72,15.5,10.47,15.25,10.02,15.25L9.93,15.25C9.48,15.25,9.23,15.5,9.23,15.95ZM7.75,11.5L12.25,11.5L12.25,9.25C12.25,7.75,11.27,6.95,10,6.95C8.73,6.95,7.75,7.75,7.75,9.25Z"/></svg>