<svg xmlns="http://www.w3.org/2000/svg" viewBox="0 0 24 24"><path d="M18.33,11C18.33,6.85,15.14,3.67,11,3.67C6.85,3.67,3.67,6.86,3.67,11C3.67,15.15,6.86,18.33,11,18.33C15.15,18.33,18.33,15.14,18.33,11Z" fill="currentColor"/><path d="M0.67,11C0.67,5.21,5.22,0.67,11,0.67C16.79,0.67,21.33,5.22,21.33,11C21.33,16.79,16.78,21.33,11,21.33C5.21,21.33,0.67,16.78,0.67,11Z" fill="currentColor"/><path d="M21.67,23.57C21.14,23.57,20.64,23.37,19.87,22.5L16.37,18.83L18.84,16.36L22.44,19.79C23.37,20.59,23.57,21.12,23.57,21.66C23.57,22.69,22.7,23.56,21.67,23.56Z" fill="currentColor"/><path d="M13.6,11C13.6,10.17,14.2,9.57,15,9.57C15.83,9.57,16.43,10.17,16.43,11C16.43,11.8,15.83,12.4,15,12.4C14.2,12.4,13.6,11.8,13.6,11Z" fill="currentColor"/><path d="M5.6,11C5.6,10.17,6.2,9.57,7,9.57C7.83,9.57,8.43,10.17,8.43,11C8.43,11.8,7.83,12.4,7,12.4C6.2,12.4,5.6,11.8,5.6,11Z" fill="currentColor"/><path d="M9.6,11C9.6,10.17,10.2,9.57,11,9.57C11.83,9.57,12.43,10.17,12.43,11C12.43,11.8,11.83,12.4,11,12.4C10.2,12.4,9.6,11.8,9.6,11Z" fill="currentColor"/></svg>