<svg xmlns="http://www.w3.org/2000/svg" viewBox="0 0 24 24"><path d="M6.56,22C4.63,22,3.99,21.33,3.99,19.33L3.99,12.56C3.99,10.63,4.66,9.99,6.66,9.99L17.43,9.99C19.36,9.99,20,10.66,20,12.66L20,19.43C20,21.36,19.33,22,17.33,22Z" fill="currentColor"/><path d="M15,10.67L15,5.07C15,2.95,13.84,2,12,2C10.16,2,9,2.94,8.5,5.07L8,6L7.5,5.07C7,1.99,9.44,0,12,0C14.56,0,17,1.99,17,5.07L17,10.67Z" fill="currentColor"/><path d="M8.33,19.77C8.8,20.24,9.2,20.24,9.66,19.77L11.99,17.44L14.32,19.77C14.79,20.24,15.19,20.24,15.65,19.77L15.75,19.67C16.22,19.2,16.22,18.8,15.75,18.34L13.42,16.01L15.75,13.68C16.22,13.21,16.22,12.81,15.75,12.35L15.65,12.25C15.18,11.78,14.78,11.78,14.32,12.25L11.99,14.58L9.66,12.25C9.19,11.78,8.79,11.78,8.33,12.25L8.23,12.35C7.76,12.82,7.76,13.22,8.23,13.68L10.56,16.01L8.23,18.34C7.76,18.81,7.76,19.21,8.23,19.67Z" fill="currentColor"/></svg>