<svg xmlns="http://www.w3.org/2000/svg" viewBox="0 0 24 24" fill="currentColor"><path d="M7.6,19.85L6.42,21.4C5.9,22.1,5.5,21.87,5.5,21.4L5.5,9.23C5.5,6.47,6.47,5.5,9.23,5.5L16.78,5.5C19.53,5.5,20.51,6.47,20.51,9.23L20.51,15.28C20.51,18.03,19.53,19.01,16.78,19.01L9.33,19.01C8.56,19.01,8.08,19.25,7.61,19.85ZM10.65,15.33C10.65,14.67,10.18,14.2,9.53,14.2C8.88,14.2,8.4,14.67,8.4,15.33C8.4,15.98,8.88,16.45,9.53,16.45C10.18,16.45,10.65,15.98,10.65,15.33ZM10.65,12.33C10.65,11.67,10.18,11.2,9.53,11.2C8.88,11.2,8.4,11.67,8.4,12.33C8.4,12.98,8.88,13.45,9.53,13.45C10.18,13.45,10.65,12.98,10.65,12.33ZM16.92,16C17.37,16,17.62,15.75,17.62,15.3L17.62,15.21C17.62,14.75,17.37,14.51,16.92,14.51L12.93,14.51C12.48,14.51,12.23,14.75,12.23,15.21L12.23,15.3C12.23,15.75,12.48,16,12.93,16ZM10.65,9.32C10.65,8.67,10.18,8.2,9.53,8.2C8.88,8.2,8.4,8.67,8.4,9.32C8.4,9.98,8.88,10.45,9.53,10.45C10.18,10.45,10.65,9.98,10.65,9.32ZM16.92,13C17.37,13,17.62,12.75,17.62,12.3L17.62,12.21C17.62,11.75,17.37,11.51,16.92,11.51L12.93,11.51C12.48,11.51,12.23,11.75,12.23,12.21L12.23,12.3C12.23,12.75,12.48,13,12.93,13ZM16.92,10C17.37,10,17.62,9.75,17.62,9.3L17.62,9.21C17.62,8.75,17.37,8.51,16.92,8.51L12.93,8.51C12.48,8.51,12.23,8.75,12.23,9.21L12.23,9.3C12.23,9.75,12.48,10,12.93,10Z"/></svg>