<svg xmlns="http://www.w3.org/2000/svg" viewBox="0 0 24 24"><path d="M20,10.67L20,12L4,12L4,10.67C4,8.67,4.67,8,6.67,8L7.5,8C9.5,8,9.97,7.37,9.3,5.47L9,4.54C8,1.54,10,0.01,11.97,0.01C13.94,0.01,15.97,1.58,14.97,4.61L14.67,5.48C14.04,7.38,14.5,8.01,16.5,8.01L17.33,8.01C19.33,8.01,20,8.68,20,10.68Z" fill="currentColor"/><path d="M5,22C4,20,4,20,4,13.97L20,13.97C20,20,20,20,21,22Z" fill="currentColor"/><path d="M13.33,3.34C13.33,2.61,12.73,2.01,12,2.01C11.27,2.01,10.67,2.61,10.67,3.34C10.67,4.07,11.27,4.67,12,4.67C12.73,4.67,13.33,4.07,13.33,3.34Z" fill="currentColor"/></svg>