<svg xmlns="http://www.w3.org/2000/svg" viewBox="0 0 24 24"><path d="M4.8,21.13L3.23,23.2C2.53,24.13,2,23.83,2,23.2L2,6.97C2,3.3,3.3,2,6.97,2L17.04,2C20.71,2,22.01,3.3,22.01,6.97L22.01,15.04C22.01,18.71,20.71,20.01,17.04,20.01L7.11,20.01C6.08,20.01,5.44,20.34,4.81,21.14Z" fill="currentColor"/><path d="M15.4,13.63C17.8,11.1,18.23,10.2,18.23,9.2C18.23,7.47,16.96,6.37,15.33,6.37C14.2,6.37,13.06,6.97,12,8.64C10.97,7.01,9.8,6.37,8.73,6.37C7.26,6.37,5.76,7.47,5.76,9.27C5.76,10.1,6.13,11,8.59,13.64L11.99,17.27Z" fill="currentColor"/></svg>