<svg xmlns="http://www.w3.org/2000/svg" viewBox="0 0 24 24"><path d="M8.57,18C9.77,18,11.12,18.8,11.72,19.86L13.06,22.3C12.99,22.17,11.03,22.17,10.96,22.3L12.3,19.86C12.9,18.79,14.25,18,15.45,18L19.35,18C20.02,18,20.02,18,20.02,17.33L20.02,4.66C20.02,3.99,20.02,3.99,19.35,3.99L4.68,3.99C4.01,3.99,4.01,3.99,4.01,4.66L4.01,17.33C4.01,18,4.01,18,4.68,18Z" fill="currentColor"/><path d="M8.57,20L4.67,20C2.67,20,2,19.33,2,17.33L2,4.66C2,2.66,2.67,1.99,4.67,1.99L19.34,1.99C21.34,1.99,22.01,2.66,22.01,4.66L22.01,17.33C22.01,19.33,21.34,20,19.34,20L15.44,20C14.84,20,14.34,20.3,14.04,20.83L12.71,23.26C12.21,24.16,11.81,24.16,11.31,23.26L9.98,20.83C9.68,20.3,9.18,20,8.58,20Z" fill="currentColor"/><path d="M13.23,14.5L13.23,16.57C17.13,16.34,18.83,13.4,18.83,10C18.83,7.1,17.6,5.57,15.73,5.57C14.23,5.57,13,6.57,13,8.34C13,10.11,14.2,11.11,16.43,11.11C16.43,12.78,15.46,14.38,13.23,14.51Z" fill="currentColor"/><path d="M5.87,14.5L5.87,16.57C9.77,16.34,11.47,13.34,11.47,9.97C11.47,7.1,10.24,5.57,8.37,5.57C6.84,5.57,5.64,6.57,5.64,8.34C5.64,10.11,6.84,11.11,9.07,11.11C8.84,12.78,8.1,14.38,5.87,14.51Z" fill="currentColor"/></svg>