<svg xmlns="http://www.w3.org/2000/svg" viewBox="0 0 24 24"><path d="M4.8,21.13L3.23,23.2C2.53,24.13,2,23.83,2,23.2L2,6.97C2,3.3,3.3,2,6.97,2L17.04,2C20.71,2,22.01,3.3,22.01,6.97L22.01,15.04C22.01,18.71,20.71,20.01,17.04,20.01L7.11,20.01C6.08,20.01,5.44,20.34,4.81,21.14Z" fill="currentColor"/><path d="M5.23,8.3L6.03,14.07C6.13,14.67,6.5,15.07,7.06,15.2C10.46,15.93,13.59,15.93,16.99,15.2C17.56,15.07,17.92,14.67,18.02,14.07L18.82,8.3C18.95,7.47,18.62,7.27,17.92,7.73L14.62,10.03L12.52,5.36C12.19,4.63,11.79,4.63,11.45,5.39L9.42,10.02L6.12,7.72C5.42,7.25,5.09,7.45,5.22,8.29Z" fill="currentColor"/></svg>