<svg xmlns="http://www.w3.org/2000/svg" viewBox="0 0 24 24" fill="currentColor"><path d="M7.62,19.33C8.13,18.23,9.28,17.5,10.5,17.5L16.78,17.5C18.76,17.5,19.01,17.25,19.01,15.27L19.01,9.22C19.01,7.24,18.76,6.99,16.78,6.99L9.23,6.99C7.25,6.99,7,7.24,7,9.22L7,20.55C7,20.6,7,20.6,7.1,20.39ZM8.97,19.98L8.45,21.05C7.7,22.6,5.5,22.02,5.5,20.54L5.5,9.22C5.5,6.47,6.48,5.49,9.23,5.49L16.78,5.49C19.53,5.49,20.51,6.47,20.51,9.22L20.51,15.27C20.51,18.03,19.53,19,16.78,19L10.5,19C9.73,19,9.3,19.28,8.98,19.98ZM9.18,9.28C9.18,9.73,9.4,9.98,9.78,9.98L16.13,9.98C16.58,9.98,16.83,9.75,16.83,9.38L16.83,9.17C16.83,8.72,16.62,8.48,16.23,8.48L9.87,8.48C9.42,8.48,9.18,8.68,9.18,9.08ZM9.18,15.28C9.18,15.73,9.4,15.98,9.78,15.98L13.58,15.98C14.03,15.98,14.28,15.75,14.28,15.38L14.28,15.17C14.28,14.72,14.07,14.48,13.68,14.48L9.87,14.48C9.42,14.48,9.18,14.68,9.18,15.08ZM9.18,12.28C9.18,12.73,9.4,12.98,9.78,12.98L16.13,12.98C16.58,12.98,16.83,12.75,16.83,12.38L16.83,12.17C16.83,11.72,16.62,11.48,16.23,11.48L9.87,11.48C9.42,11.48,9.18,11.68,9.18,12.08Z"/></svg>