<svg xmlns="http://www.w3.org/2000/svg" viewBox="0 0 24 24" fill="currentColor"><path d="M7.6,19.85L6.42,21.4C5.9,22.1,5.5,21.87,5.5,21.4L5.5,9.23C5.5,6.47,6.47,5.5,9.23,5.5L16.78,5.5C19.53,5.5,20.51,6.47,20.51,9.23L20.51,15.28C20.51,18.03,19.53,19.01,16.78,19.01L9.33,19.01C8.56,19.01,8.08,19.25,7.61,19.85ZM18.83,12.27C18.83,9.05,16.23,6.45,13,6.45C9.77,6.45,7.17,9.05,7.17,12.27C7.17,15.5,9.78,18.1,13,18.1C16.23,18.1,18.83,15.5,18.83,12.27ZM8.78,13.03L10.45,13.03C10.55,14.1,10.77,15.18,11.25,16.2C9.93,15.63,8.98,14.45,8.78,13.03ZM13,16.38C12.38,15.3,12.05,14.18,11.93,13.02L14.08,13.02C13.95,14.17,13.63,15.3,13.01,16.38ZM8.78,11.52C9,10.07,9.96,8.9,11.25,8.32C10.8,9.35,10.55,10.44,10.45,11.52ZM14.75,16.2C15.22,15.17,15.44,14.1,15.55,13.03L17.25,13.03C17.03,14.45,16.07,15.63,14.75,16.2ZM14.07,11.52L11.92,11.52C12.05,10.34,12.37,9.25,12.99,8.17C13.61,9.24,13.94,10.34,14.06,11.52ZM17.25,11.52L15.55,11.52C15.45,10.42,15.2,9.35,14.75,8.3C16.08,8.9,17.02,10.08,17.25,11.52Z"/></svg>