<svg xmlns="http://www.w3.org/2000/svg" viewBox="0 0 24 24"><path d="M18.33,11C18.33,6.85,15.14,3.67,11,3.67C6.85,3.67,3.67,6.86,3.67,11C3.67,15.15,6.86,18.33,11,18.33C15.15,18.33,18.33,15.14,18.33,11Z" fill="currentColor"/><path d="M0.67,11C0.67,5.21,5.22,0.67,11,0.67C16.79,0.67,21.33,5.22,21.33,11C21.33,16.79,16.78,21.33,11,21.33C5.21,21.33,0.67,16.78,0.67,11Z" fill="currentColor"/><path d="M21.67,23.57C21.14,23.57,20.64,23.37,19.87,22.5L16.37,18.83L18.84,16.36L22.44,19.79C23.37,20.59,23.57,21.12,23.57,21.66C23.57,22.69,22.7,23.56,21.67,23.56Z" fill="currentColor"/><path d="M10.9,16C10.3,16,9.97,15.67,9.97,15.03L9.97,12L6.97,12C6.34,12,6,11.67,6,11.07L6,10.97C6,10.34,6.33,10,6.93,10L9.96,10L9.96,6.93C9.96,6.33,10.29,6,10.93,6L11.03,6C11.63,6,11.96,6.33,11.96,6.97L11.96,10L15.03,10C15.66,10,16,10.33,16,10.93L16,11.03C16,11.66,15.67,12,15.07,12L11.97,12L11.97,15.07C11.97,15.67,11.64,16,11,16Z" fill="currentColor"/></svg>