<svg xmlns="http://www.w3.org/2000/svg" viewBox="0 0 24 24" fill="currentColor"><path d="M7.49,11.57C5.21,9.75,5.06,8.22,5.93,6.87C6.8,5.54,8.53,5.22,9.88,6.1C10.95,6.8,11.43,8,11.19,9.11C10.88,10.5,9.52,11.3,8.27,12.2ZM7.63,9.66C8.25,10.05,9.11,9.86,9.5,9.23C9.9,8.61,9.75,7.75,9.15,7.35C8.5,6.93,7.6,7.11,7.2,7.73C6.77,8.35,7,9.25,7.63,9.66ZM11.88,15.11L13.91,13.67L20.8,18.17C20.27,18.99,19.02,20.87,15.38,17.92ZM15.38,8.07C19.03,5.13,20.28,7,20.8,7.83L8.43,15.9L8.95,13.83C9.53,14.63,10.3,15.2,10.8,15.98C11.65,17.28,11.25,19,9.88,19.9C8.53,20.78,6.81,20.45,5.93,19.13C5.05,17.78,5.2,16.26,7.48,14.43ZM9.15,18.65C9.75,18.25,9.9,17.39,9.5,16.77C9.11,16.15,8.25,15.95,7.63,16.34C7.01,16.74,6.78,17.64,7.2,18.27C7.6,18.89,8.5,19.08,9.15,18.65Z"/></svg>