<svg xmlns="http://www.w3.org/2000/svg" viewBox="0 0 24 24"><path d="M5.9,20.93L2.9,21.76C2.33,21.89,2.1,21.66,2.23,21.09L3.06,18.09C3.19,17.52,3.53,16.96,3.96,16.52L17.69,2.72C18.66,1.75,19.46,1.85,20.82,3.15C22.12,4.45,22.25,5.28,21.25,6.28L7.45,20.01C7.02,20.44,6.45,20.78,5.88,20.91Z" fill="currentColor"/><path d="M10.94,22C10.34,22,10.01,21.67,10.01,21.07L10.01,20.94C10.01,20.34,10.34,20.01,10.94,20.01L21.07,20.01C21.67,20.01,22,20.34,22,20.94L22,21.07C22,21.67,21.67,22,21.07,22Z" fill="currentColor"/></svg>