<svg xmlns="http://www.w3.org/2000/svg" viewBox="0 0 24 24" fill="currentColor"><path d="M15.23,14C15.9,16.49,17.06,18.21,18.08,18.02C19.28,17.82,19.73,15.09,19.18,11.92C19.08,11.39,18.96,10.88,18.83,10.4L20.06,9.17C20.34,10.09,20.51,10.95,20.6,11.5C21.1,14.22,21.65,19.32,18.02,19.98C16.88,20.18,15.72,19.7,13.3,17.6C12.96,17.3,12.65,17.07,12.33,16.89ZM10.55,16.53L10.08,17L7.47,19.62L5.58,21.5L5.55,21.53C5.23,21.85,4.88,21.85,4.56,21.53L4.48,21.45C4.16,21.13,4.16,20.78,4.48,20.45L7.42,17.51L7.41,17.05L7.98,16.94L7.99,16.94L7.33,17.05C6.88,17.12,6.48,16.97,6.18,16.62C5.13,15.2,4.86,13.62,5.38,11.92C5.53,11.49,5.85,11.22,6.3,11.15L8.75,10.72C10.23,10.44,10.95,9.92,11.66,8.6C13.25,5.77,14.23,4.94,15.31,4.75C16.81,4.49,17.9,5.19,18.69,6.24L20.49,4.45C20.81,4.13,21.16,4.13,21.48,4.45L21.56,4.52C21.88,4.85,21.88,5.2,21.56,5.52L19.48,7.6L18.27,8.81L16.39,10.69L15.72,11.36L14.86,12.22ZM16.25,14.27C16.17,13.89,16.1,13.53,16.03,13.19L17.44,11.79C17.47,11.89,17.5,12,17.52,12.13C17.72,13.28,17.15,13.86,16.25,14.28ZM7.59,21.63L10.13,19.09C10.22,19.52,10.31,19.96,10.43,20.37C10.75,21.52,10.58,21.82,9.4,22.02L8.97,22.1C8.09,22.25,7.73,22.17,7.58,21.63ZM17.49,7.43C17.03,6.8,16.53,6.47,16.05,6.55C15.17,6.71,14.68,8.2,14.7,10.23Z"/></svg>