<svg xmlns="http://www.w3.org/2000/svg" viewBox="0 0 24 24" fill="currentColor"><path d="M7.6,19.85L6.42,21.4C5.9,22.1,5.5,21.87,5.5,21.4L5.5,9.23C5.5,6.47,6.47,5.5,9.23,5.5L16.78,5.5C19.53,5.5,20.51,6.47,20.51,9.23L20.51,15.28C20.51,18.03,19.53,19.01,16.78,19.01L9.33,19.01C8.56,19.01,8.08,19.25,7.61,19.85ZM9.23,8.5L9.83,12.55C9.9,13.05,10.13,13.25,10.68,13.25L10.83,13.25C11.37,13.25,11.6,13.05,11.67,12.55L12.27,8.5C12.45,7.43,12.07,7,10.95,7L10.55,7C9.42,7,9.05,7.43,9.22,8.5ZM10.75,14.63C9.9,14.63,9.38,15.15,9.38,16C9.38,16.85,9.9,17.37,10.75,17.37C11.6,17.37,12.12,16.85,12.12,16C12.12,15.15,11.6,14.63,10.75,14.63ZM13.73,8.5L14.33,12.55C14.4,13.05,14.63,13.25,15.17,13.25L15.32,13.25C15.87,13.25,16.1,13.05,16.17,12.55L16.77,8.5C16.95,7.43,16.57,7,15.44,7L15.05,7C13.92,7,13.55,7.43,13.72,8.5ZM15.25,14.63C14.4,14.63,13.88,15.15,13.88,16C13.88,16.85,14.4,17.37,15.25,17.37C16.1,17.37,16.62,16.85,16.62,16C16.62,15.15,16.1,14.63,15.25,14.63Z"/></svg>