<svg xmlns="http://www.w3.org/2000/svg" viewBox="0 0 24 24" fill="currentColor"><path d="M11.5,12.25C10,12.25,9.5,11.75,9.5,10.25L9.5,7.5C9.5,6,10,5.49,11.5,5.49L14.25,5.49C15.75,5.49,16.26,6,16.26,7.5L16.26,10.25C16.26,11.75,15.75,12.25,14.25,12.25ZM7.5,20.5C6,20.5,5.49,20,5.49,18.5L5.49,15.74C5.49,14.24,6,13.74,7.5,13.74L10.25,13.74C11.75,13.74,12.25,14.24,12.25,15.74L12.25,18.5C12.25,20,11.75,20.5,10.25,20.5ZM15.74,20.5C14.24,20.5,13.74,20,13.74,18.5L13.74,15.74C13.74,14.24,14.24,13.74,15.74,13.74L18.5,13.74C20,13.74,20.5,14.24,20.5,15.74L20.5,18.5C20.5,20,20,20.5,18.5,20.5Z"/></svg>