<svg xmlns="http://www.w3.org/2000/svg" viewBox="0 0 24 24" fill="currentColor"><path d="M17.75,12.25C17.75,9.14,15.35,6.75,12.25,6.75C9.14,6.75,6.75,9.14,6.75,12.25C6.75,15.36,9.14,17.75,12.25,17.75C15.36,17.75,17.75,15.35,17.75,12.25ZM4.5,12.25C4.5,7.91,7.91,4.5,12.25,4.5C16.59,4.5,20,7.91,20,12.25C20,16.59,16.58,20,12.25,20C7.91,20,4.5,16.58,4.5,12.25ZM20.25,21.68C19.86,21.68,19.48,21.53,18.9,20.88L16.28,18.12L18.13,16.27L20.83,18.84C21.53,19.44,21.68,19.84,21.68,20.25C21.68,21.02,21.02,21.67,20.25,21.67ZM10,15.12C9.87,15.52,10.02,15.59,10.35,15.37L12.25,14.02L14.13,15.37C14.45,15.59,14.6,15.52,14.5,15.12L13.92,12.87L15.63,11.54C15.92,11.3,15.87,11.12,15.48,11.09L13.28,10.92L12.48,8.92C12.33,8.54,12.15,8.54,12,8.92L11.25,10.92L9,11.09C8.61,11.12,8.55,11.3,8.88,11.54L10.58,12.87Z"/></svg>