<svg xmlns="http://www.w3.org/2000/svg" viewBox="0 0 24 24"><path d="M3.33,3.83C3.9,2.3,4.33,2,5.93,2L18.06,2C19.66,2,20.09,2.3,20.66,3.83L23.59,12C24.49,14.47,22.96,16.33,19.99,16.33C17.02,16.33,15.49,14.46,16.39,12L19.26,4L12.99,4L12.99,16.3C12.99,19.4,12.99,19.63,17.06,20.1C17.66,20.17,17.99,20.53,17.99,21.13L17.99,21.06C17.99,21.66,17.66,21.99,17.06,21.99L6.93,21.99C6.33,21.99,6,21.66,6,21.06L6,21.13C6,20.53,6.33,20.16,6.93,20.1C11,19.63,11,19.4,11,16.3L11,4L4.73,4L7.6,12C8.5,14.47,6.97,16.33,4,16.33C1.03,16.33,-0.5,14.46,0.4,12Z" fill="currentColor"/><path d="M1.43,12L6.56,12L3.99,4.83Z" fill="currentColor"/><path d="M22.57,12L20,4.83L17.43,12Z" fill="currentColor"/></svg>