<svg xmlns="http://www.w3.org/2000/svg" viewBox="0 0 24 24" fill="currentColor"><path d="M7.6,19.85L6.42,21.4C5.9,22.1,5.5,21.87,5.5,21.4L5.5,9.23C5.5,6.47,6.47,5.5,9.23,5.5L16.78,5.5C19.53,5.5,20.51,6.47,20.51,9.23L20.51,15.28C20.51,18.03,19.53,19.01,16.78,19.01L9.33,19.01C8.56,19.01,8.08,19.25,7.61,19.85ZM9.1,16.08C9.7,16.68,10.15,16.7,10.7,16.15L13,13.85L15.3,16.15C15.85,16.7,16.3,16.65,16.9,16.05L16.9,16.05C17.45,15.51,17.4,15.06,16.8,14.46L14.61,12.26L16.83,10.06C17.43,9.46,17.48,9.01,16.93,8.46L16.91,8.44C16.31,7.84,15.86,7.82,15.31,8.37L13.01,10.67L10.7,8.37C10.16,7.82,9.71,7.86,9.11,8.46L9.11,8.46C8.56,9.01,8.6,9.46,9.21,10.06L11.4,12.26L9.17,14.46C8.57,15.06,8.52,15.51,9.08,16.05Z"/></svg>