<svg xmlns="http://www.w3.org/2000/svg" viewBox="0 0 24 24" fill="currentColor"><path d="M7.5,20.5C6,20.5,5.49,20,5.49,18.5L5.49,7.49C5.49,5.99,6,5.49,7.5,5.49L10.25,5.49C11.75,5.49,12.25,5.99,12.25,7.49L12.25,18.5C12.25,20,11.75,20.5,10.25,20.5ZM8.13,14.93C8.13,15.38,8.37,15.63,8.82,15.63L8.92,15.63C9.37,15.63,9.62,15.38,9.62,14.93L9.62,13.75L10.79,13.75C11.25,13.75,11.49,13.5,11.49,13.05L11.49,12.96C11.49,12.5,11.25,12.26,10.79,12.26L9.62,12.26L9.62,11.08C9.62,10.63,9.37,10.38,8.92,10.38L8.82,10.38C8.37,10.38,8.13,10.63,8.13,11.08L8.13,12.26L6.95,12.26C6.5,12.26,6.25,12.5,6.25,12.96L6.25,13.05C6.25,13.5,6.5,13.75,6.95,13.75L8.13,13.75ZM15.74,20.5C14.24,20.5,13.74,20,13.74,18.5L13.74,7.49C13.74,5.99,14.24,5.49,15.74,5.49L18.5,5.49C20,5.49,20.5,5.99,20.5,7.49L20.5,18.5C20.5,20,20,20.5,18.5,20.5ZM19.05,13.75C19.5,13.75,19.75,13.5,19.75,13.05L19.75,12.96C19.75,12.5,19.5,12.26,19.05,12.26L15.45,12.26C15,12.26,14.75,12.5,14.75,12.96L14.75,13.05C14.75,13.5,15,13.75,15.45,13.75Z"/></svg>