<svg xmlns="http://www.w3.org/2000/svg" viewBox="0 0 24 24" fill="currentColor"><path d="M17.75,12.25C17.75,9.14,15.35,6.75,12.25,6.75C9.14,6.75,6.75,9.14,6.75,12.25C6.75,15.36,9.14,17.75,12.25,17.75C15.36,17.75,17.75,15.35,17.75,12.25ZM4.5,12.25C4.5,7.91,7.91,4.5,12.25,4.5C16.59,4.5,20,7.91,20,12.25C20,16.59,16.58,20,12.25,20C7.91,20,4.5,16.58,4.5,12.25ZM20.25,21.68C19.86,21.68,19.48,21.53,18.9,20.88L16.28,18.12L18.13,16.27L20.83,18.84C21.53,19.44,21.68,19.84,21.68,20.25C21.68,21.02,21.02,21.67,20.25,21.67ZM12.3,12.95L12.21,12.95C11.83,12.95,11.66,12.8,11.6,12.45L11.18,9.62C11.08,8.87,11.33,8.57,12.1,8.57L12.4,8.57C13.17,8.57,13.43,8.87,13.32,9.62L12.89,12.45C12.84,12.8,12.67,12.95,12.29,12.95ZM11.3,14.88C11.3,14.27,11.65,13.9,12.25,13.9C12.85,13.9,13.23,14.27,13.23,14.88C13.23,15.48,12.85,15.83,12.25,15.83C11.65,15.83,11.3,15.48,11.3,14.88Z"/></svg>