<svg xmlns="http://www.w3.org/2000/svg" viewBox="0 0 24 24"><path d="M19.2,21.13C18.57,20.33,17.93,20,16.9,20L8.3,20L21.98,6.32C21.99,6.53,22,6.75,22,6.97L22,23.2C22,23.83,21.47,24.13,20.77,23.2Z" fill="currentColor"/><path d="M23.4,2.03L21.48,3.95L5.52,19.91L2.1,23.33L2.07,23.36C1.64,23.79,1.17,23.79,0.74,23.36L0.64,23.26C0.21,22.83,0.21,22.36,0.64,21.93L3.42,19.15C2.42,18.39,2.01,17.08,2.01,15.03L2.01,6.96C2.01,3.29,3.31,1.99,6.98,1.99L17.05,1.99C18.33,1.99,19.32,2.15,20.07,2.51L21.99,0.59C22.42,0.16,22.89,0.16,23.32,0.59L23.42,0.69C23.84,1.11,23.85,1.57,23.45,1.99C23.44,2,23.43,2.01,23.42,2.02Z" fill="currentColor"/></svg>