<svg xmlns="http://www.w3.org/2000/svg" viewBox="0 0 24 24" fill="currentColor"><path d="M10.43,19L7.5,19C6,19,5.5,18.5,5.5,17L5.5,7.49C5.5,5.99,6,5.49,7.5,5.49L18.5,5.49C20,5.49,20.51,5.99,20.51,7.49L20.51,17C20.51,18.5,20,19,18.5,19L15.58,19C15.13,19,14.75,19.23,14.55,19.62L13.52,21.47C13.15,22.15,12.85,22.15,12.47,21.47L11.45,19.62C11.24,19.22,10.87,19,10.42,19ZM8.5,9.27C8.5,9.72,8.75,9.97,9.2,9.97L16.8,9.97C17.25,9.97,17.49,9.72,17.49,9.27L17.49,9.18C17.49,8.73,17.25,8.48,16.8,8.48L9.2,8.48C8.75,8.48,8.5,8.73,8.5,9.18ZM8.5,15.27C8.5,15.72,8.75,15.97,9.2,15.97L13.79,15.97C14.25,15.97,14.49,15.72,14.49,15.27L14.49,15.17C14.49,14.72,14.25,14.48,13.79,14.48L9.2,14.48C8.75,14.48,8.5,14.72,8.5,15.17ZM8.5,12.27C8.5,12.72,8.75,12.97,9.2,12.97L16.8,12.97C17.25,12.97,17.49,12.72,17.49,12.27L17.49,12.18C17.49,11.73,17.25,11.48,16.8,11.48L9.2,11.48C8.75,11.48,8.5,11.73,8.5,12.18Z"/></svg>