<svg xmlns="http://www.w3.org/2000/svg" viewBox="0 0 24 24" fill="currentColor"><path d="M10.43,19L7.5,19C6,19,5.5,18.5,5.5,17L5.5,7.49C5.5,5.99,6,5.49,7.5,5.49L18.5,5.49C20,5.49,20.51,5.99,20.51,7.49L20.51,17C20.51,18.5,20,19,18.5,19L15.58,19C15.13,19,14.75,19.23,14.55,19.62L13.52,21.47C13.15,22.15,12.85,22.15,12.47,21.47L11.45,19.62C11.24,19.22,10.87,19,10.42,19ZM14.1,17C17.48,16.79,18.95,14.24,18.95,11.32C18.95,8.82,17.88,7.49,16.28,7.49C14.98,7.49,13.9,8.34,13.9,9.87C13.9,11.39,14.95,12.27,16.88,12.27C16.88,13.7,16.05,15.1,14.1,15.2ZM7.75,17C11.13,16.79,12.57,14.2,12.57,11.3C12.57,8.82,11.52,7.49,9.89,7.49C8.6,7.49,7.55,8.34,7.55,9.87C7.55,11.39,8.6,12.27,10.53,12.27C10.32,13.7,9.68,15.1,7.75,15.2Z"/></svg>