<svg xmlns="http://www.w3.org/2000/svg" viewBox="0 0 24 24"><path d="M4.8,21.13L3.23,23.2C2.53,24.13,2,23.83,2,23.2L2,6.97C2,3.3,3.3,2,6.97,2L17.04,2C20.71,2,22.01,3.3,22.01,6.97L22.01,15.04C22.01,18.71,20.71,20.01,17.04,20.01L7.11,20.01C6.08,20.01,5.44,20.34,4.81,21.14Z" fill="currentColor"/><path d="M19.77,11.03C19.77,6.73,16.3,3.26,12,3.26C7.7,3.26,4.23,6.73,4.23,11.03C4.23,15.33,7.7,18.8,12,18.8C16.3,18.8,19.77,15.33,19.77,11.03Z" fill="currentColor"/><path d="M6.37,12.04L8.6,12.04C8.73,13.47,9.03,14.91,9.67,16.27C7.9,15.5,6.64,13.94,6.37,12.04Z" fill="currentColor"/><path d="M12,16.5C11.17,15.07,10.73,13.57,10.57,12.03L13.44,12.03C13.27,13.56,12.84,15.06,12.01,16.5Z" fill="currentColor"/><path d="M6.37,10.03C6.67,8.1,7.94,6.53,9.67,5.76C9.07,7.13,8.74,8.59,8.6,10.03Z" fill="currentColor"/><path d="M14.33,16.27C14.96,14.9,15.26,13.47,15.4,12.04L17.67,12.04C17.37,13.94,16.1,15.51,14.34,16.27Z" fill="currentColor"/><path d="M13.43,10.03L10.56,10.03C10.73,8.46,11.16,7,11.99,5.56C12.82,6.99,13.26,8.46,13.42,10.03Z" fill="currentColor"/><path d="M17.67,10.03L15.4,10.03C15.27,8.56,14.93,7.13,14.33,5.73C16.1,6.53,17.36,8.1,17.66,10.03Z" fill="currentColor"/></svg>