<svg xmlns="http://www.w3.org/2000/svg" viewBox="0 0 24 24"><path d="M4.8,21.13L3.23,23.2C2.53,24.13,2,23.83,2,23.2L2,6.97C2,3.3,3.3,2,6.97,2L17.04,2C20.71,2,22.01,3.3,22.01,6.97L22.01,15.04C22.01,18.71,20.71,20.01,17.04,20.01L7.11,20.01C6.08,20.01,5.44,20.34,4.81,21.14Z" fill="currentColor"/><path d="M20.13,11C20.13,9.77,19.23,8.87,18,8.87C16.77,8.87,15.87,9.77,15.87,11C15.87,12.23,16.77,13.13,18,13.13C19.23,13.13,20.13,12.23,20.13,11Z" fill="currentColor"/><path d="M8.13,11C8.13,9.77,7.23,8.87,6,8.87C4.77,8.87,3.87,9.77,3.87,11C3.87,12.23,4.77,13.13,6,13.13C7.23,13.13,8.13,12.23,8.13,11Z" fill="currentColor"/><path d="M14.13,11C14.13,9.77,13.23,8.87,12,8.87C10.77,8.87,9.87,9.77,9.87,11C9.87,12.23,10.77,13.13,12,13.13C13.23,13.13,14.13,12.23,14.13,11Z" fill="currentColor"/></svg>