<svg xmlns="http://www.w3.org/2000/svg" viewBox="0 0 24 24" fill="currentColor"><path d="M16.73,20.73C15.55,20.73,14.5,20.05,12.47,17.58C11.55,16.4,10.75,16,9.25,16L6.7,16C6.25,16,5.88,15.77,5.65,15.4C4.88,13.8,4.88,12.2,5.65,10.6C5.87,10.22,6.25,10,6.7,10L9.2,10C10.7,10,11.5,9.6,12.42,8.42C14.5,5.93,15.6,5.27,16.7,5.27C20.58,5.27,20.75,10.92,20.75,12.83C20.75,15.6,20.42,20.72,16.72,20.72ZM19.25,13C19.25,9.77,18.32,7.17,17.13,7.17C15.9,7.17,14.95,9.78,14.95,13C14.95,16.23,15.9,18.83,17.13,18.83C18.33,18.83,19.25,16.23,19.25,13ZM10.02,16C9.02,16,9.02,18.1,9.17,19.8C9.3,21,9.08,21.25,7.88,21.25L7.45,21.25C6.25,21.25,6.02,21,6.2,19.83L6.77,16ZM17.61,12.9C17.61,14.08,16.93,14.55,15.98,14.8C15.92,13.43,15.92,12.4,15.98,11.03C16.93,11.27,17.61,11.72,17.61,12.9Z"/></svg>