<svg xmlns="http://www.w3.org/2000/svg" viewBox="0 0 24 24"><path d="M4.8,21.13L3.23,23.2C2.53,24.13,2,23.83,2,23.2L2,6.97C2,3.3,3.3,2,6.97,2L17.04,2C20.71,2,22.01,3.3,22.01,6.97L22.01,15.04C22.01,18.71,20.71,20.01,17.04,20.01L7.11,20.01C6.08,20.01,5.44,20.34,4.81,21.14Z" fill="currentColor"/><path d="M7.33,16.97L16.66,16.97C16.66,15.37,15.69,14.54,14.79,13.77C13.92,13.07,13.12,12.4,13.12,11.07L13.12,10.47L14.42,10.47C14.59,10.2,14.65,9.87,14.65,9.54L13.12,8.57C13.85,8.1,14.22,7.44,14.22,6.67C14.22,5.44,13.22,4.44,11.99,4.44C10.76,4.44,9.76,5.44,9.76,6.67C9.76,7.44,10.13,8.1,10.86,8.6L9.33,9.53C9.33,9.86,9.4,10.2,9.56,10.46L10.86,10.46L10.86,11.06C10.86,12.39,10.06,13.06,9.19,13.76C8.29,14.53,7.32,15.36,7.32,16.96Z" fill="currentColor"/></svg>