<svg xmlns="http://www.w3.org/2000/svg" viewBox="0 0 24 24"><path d="M18.33,11C18.33,6.85,15.14,3.67,11,3.67C6.85,3.67,3.67,6.86,3.67,11C3.67,15.15,6.86,18.33,11,18.33C15.15,18.33,18.33,15.14,18.33,11Z" fill="currentColor"/><path d="M0.67,11C0.67,5.21,5.22,0.67,11,0.67C16.79,0.67,21.33,5.22,21.33,11C21.33,16.79,16.78,21.33,11,21.33C5.21,21.33,0.67,16.78,0.67,11Z" fill="currentColor"/><path d="M21.67,23.57C21.14,23.57,20.64,23.37,19.87,22.5L16.37,18.83L18.84,16.36L22.44,19.79C23.37,20.59,23.57,21.12,23.57,21.66C23.57,22.69,22.7,23.56,21.67,23.56Z" fill="currentColor"/><path d="M7.33,14.6C6.86,14.13,6.86,13.67,7.33,13.2L9.56,10.97L7.36,8.8C6.86,8.33,6.89,7.83,7.36,7.37C7.83,6.9,8.29,6.9,8.76,7.37L10.96,9.57L13.19,7.34C13.69,6.84,14.16,6.87,14.62,7.34C15.09,7.81,15.09,8.27,14.62,8.74L12.39,10.97L14.62,13.17C15.12,13.64,15.09,14.14,14.62,14.6C14.15,15.07,13.69,15.07,13.22,14.6L10.95,12.4L8.75,14.6C8.25,15.1,7.78,15.07,7.32,14.6Z" fill="currentColor"/></svg>