<svg xmlns="http://www.w3.org/2000/svg" viewBox="0 0 24 24" fill="currentColor"><path d="M18,9.25C18,8.55,17.45,8,16.77,8C16.08,8,15.5,8.54,15.5,9.25C15.5,9.95,16.08,10.5,16.77,10.5C17.45,10.5,18,9.96,18,9.25ZM14.48,14.52L13,16L11.5,16L11.5,17.5L10,17.5L10,19L8.5,19L8.5,20.5L5.5,20.5L5.52,17.5L11.49,11.53C11.33,11.05,11.25,10.52,11.25,9.97C11.25,7.37,13.35,5.24,16.03,5.24C18.68,5.24,20.75,7.32,20.75,9.97C20.75,11.22,20.3,12.42,19.38,13.35C18.46,14.27,17.23,14.75,16.03,14.75C15.47,14.75,14.96,14.67,14.46,14.5Z"/></svg>