<svg xmlns="http://www.w3.org/2000/svg" viewBox="0 0 24 24" fill="currentColor"><path d="M15.2,13.73C12.93,13.73,11.05,11.9,11.07,9.6C11.07,9.1,11.15,8.63,11.32,8.18C12.02,8.2,12.65,8.75,12.95,9.45L12.95,9.62C12.95,10.85,13.94,11.85,15.2,11.82C16.42,11.82,17.42,10.85,17.42,9.59C17.45,8.54,16.67,7.64,15.68,7.42C15.25,6.72,14.7,6.12,14.03,5.67C14.4,5.54,14.8,5.5,15.21,5.5C17.48,5.5,19.31,7.37,19.33,9.57C19.33,11.87,17.48,13.72,15.21,13.72ZM10.92,13.55L9.05,18.07L11.48,19.09L10.62,21.17L6.11,19.28L8.84,12.7ZM11.37,13.73C9.1,13.73,7.27,11.85,7.25,9.65C7.25,7.35,9.1,5.51,11.37,5.51C13.64,5.51,15.52,7.33,15.5,9.63C15.5,10.13,15.42,10.61,15.25,11.06C14.55,11.04,13.92,10.48,13.62,9.78L13.62,9.61C13.62,8.39,12.62,7.38,11.37,7.41C10.15,7.41,9.14,8.39,9.14,9.64C9.12,10.69,9.89,11.59,10.89,11.81C11.32,12.51,11.87,13.11,12.54,13.56C12.17,13.69,11.77,13.73,11.36,13.73ZM16.32,13.23L16.32,18.25L18.95,18.25L18.95,20.5L14.07,20.5L14.07,13.23Z"/></svg>