<svg xmlns="http://www.w3.org/2000/svg" viewBox="0 0 24 24" fill="currentColor"><path d="M8.13,20.5C5.85,20.5,4,18.65,4,16.38C4,15.68,4.28,14.78,4.6,13.95L6.8,8.5C7.27,7.3,8.32,6.9,9,6.9C9.22,6.15,9.95,5.5,10.67,5.5C11.57,5.5,12.27,6.23,12.27,7.13L12.27,8.5L13.67,8.5L13.67,7.13C13.67,6.23,14.39,5.5,15.32,5.5C16.02,5.5,16.74,6.15,16.99,6.9C17.66,6.9,18.69,7.35,19.16,8.5L21.41,13.95C21.74,14.73,21.99,15.65,21.99,16.38C21.99,18.65,20.14,20.5,17.84,20.5C15.62,20.5,13.77,18.7,13.77,16.17L13.77,14.5L12.22,14.5L12.22,16.17C12.22,18.7,10.37,20.5,8.12,20.5ZM8.13,13.65C6.6,13.65,5.37,14.88,5.37,16.38C5.37,17.9,6.59,19.13,8.13,19.13C9.63,19.13,10.85,17.91,10.85,16.38C10.85,14.88,9.63,13.65,8.13,13.65ZM17.85,13.65C16.38,13.65,15.15,14.88,15.15,16.38C15.15,17.9,16.37,19.13,17.85,19.13C19.41,19.13,20.63,17.91,20.63,16.38C20.63,14.88,19.41,13.65,17.85,13.65Z"/></svg>