<svg xmlns="http://www.w3.org/2000/svg" viewBox="0 0 24 24" fill="currentColor"><path d="M10.43,17.5C11.33,17.5,12.34,18.1,12.79,18.89L13.8,20.73C13.74,20.63,12.27,20.63,12.22,20.73L13.23,18.89C13.68,18.09,14.69,17.5,15.59,17.5L18.51,17.5C19.02,17.5,19.02,17.5,19.02,17L19.02,7.49C19.02,6.99,19.02,6.99,18.51,6.99L7.51,6.99C7.01,6.99,7.01,6.99,7.01,7.49L7.01,17C7.01,17.5,7.01,17.5,7.51,17.5ZM10.43,19L7.5,19C6,19,5.5,18.5,5.5,17L5.5,7.49C5.5,5.99,6,5.49,7.5,5.49L18.5,5.49C20,5.49,20.51,5.99,20.51,7.49L20.51,17C20.51,18.5,20,19,18.5,19L15.58,19C15.13,19,14.75,19.23,14.53,19.62L13.53,21.45C13.16,22.12,12.86,22.12,12.48,21.45L11.48,19.62C11.26,19.22,10.88,19,10.44,19ZM17.22,10.85L12.63,15.45C12.15,15.92,11.8,15.92,11.33,15.45L8.95,13.07C8.48,12.6,8.48,12.24,8.95,11.77L9,11.7C9.48,11.22,9.83,11.22,10.3,11.7L11.97,13.37L15.85,9.49C16.32,9.02,16.68,9.02,17.15,9.49L17.22,9.54C17.7,10.02,17.7,10.37,17.22,10.84Z"/></svg>