<svg xmlns="http://www.w3.org/2000/svg" viewBox="0 0 24 24" fill="currentColor"><path d="M10.43,19L7.5,19C6,19,5.5,18.5,5.5,17L5.5,7.49C5.5,5.99,6,5.49,7.5,5.49L18.5,5.49C20,5.49,20.51,5.99,20.51,7.49L20.51,17C20.51,18.5,20,19,18.5,19L15.58,19C15.13,19,14.75,19.23,14.55,19.62L13.52,21.47C13.15,22.15,12.85,22.15,12.47,21.47L11.45,19.62C11.24,19.22,10.87,19,10.42,19ZM17.97,10.58C18.52,10.05,18.5,9.63,17.95,9.08L17.9,9C17.35,8.46,16.92,8.46,16.37,9L11.8,13.58L9.83,11.61C9.28,11.06,8.85,11.08,8.3,11.63L8.23,11.68C7.68,12.23,7.68,12.66,8.23,13.2L11.06,16.03C11.6,16.58,12.01,16.58,12.56,16.03Z"/></svg>