<svg xmlns="http://www.w3.org/2000/svg" viewBox="0 0 24 24"><path d="M21.66,21.58C22,22.22,22,22.22,22,21.67L22,10.67C22,10,22,10,21.33,10L18.3,10L20.3,8L21.33,8C23.33,8,24,8.67,24,10.67L24,21.67C24,24.44,20.93,24.47,19.9,22.54L19.2,21.27C18.73,20.37,18.13,20,17.1,20L12.67,20C11.01,20,10.27,19.54,10.06,18.24L12,16.3L12,17.33C12,18,12,18,12.67,18L17.1,18C18.73,18,20.23,18.91,20.96,20.32Z" fill="currentColor"/><path d="M2,15.67C2,16.24,2,16.24,2.32,15.63L2.97,14.34C3.78,12.88,5.21,12.01,6.84,12.01L10.57,12.01L12,10.58L12,4.68C12,4.01,12,4.01,11.33,4.01L2.66,4.01C1.99,4.01,1.99,4.01,1.99,4.68Z" fill="currentColor"/><path d="M0,15.67L0,4.67C0,2.67,0.67,2,2.67,2L11.34,2C13.34,2,14.01,2.67,14.01,4.67L14.01,8.57L21.98,0.6C22.41,0.17,22.88,0.17,23.31,0.6L23.41,0.7C23.83,1.12,23.84,1.58,23.44,2C23.43,2.01,23.42,2.02,23.41,2.03L17.44,8L16.07,9.37L14,11.44L11.43,14.01L2.1,23.34L2.07,23.37C1.64,23.8,1.17,23.8,0.74,23.37L0.64,23.27C0.21,22.84,0.21,22.37,0.64,21.94L8.57,14.01L6.84,14.01C5.81,14.01,5.24,14.38,4.74,15.28L4.11,16.55C3.11,18.48,0.01,18.45,0.01,15.68Z" fill="currentColor"/></svg>