<svg xmlns="http://www.w3.org/2000/svg" viewBox="0 0 24 24" fill="currentColor"><path d="M10.75,19.08L6.18,20.33C5.75,20.43,5.58,20.25,5.67,19.83L6.9,15.25C6.99,14.82,7.25,14.4,7.57,14.07L15.47,6.12C16.67,4.92,17.64,5.02,19.31,6.65C20.94,8.27,21.09,9.29,19.84,10.52L11.91,18.4C11.59,18.72,11.16,18.98,10.73,19.07ZM13.7,20.5C13.25,20.5,13.01,20.25,13.01,19.8L13.01,19.71C13.01,19.25,13.25,19.01,13.7,19.01L19.8,19.01C20.25,19.01,20.5,19.25,20.5,19.71L20.5,19.8C20.5,20.25,20.25,20.5,19.8,20.5Z"/></svg>