<svg xmlns="http://www.w3.org/2000/svg" viewBox="0 0 24 24" fill="currentColor"><path d="M15.74,12.25C14.24,12.25,13.74,11.75,13.74,10.25L13.74,7.5C13.74,6,14.24,5.49,15.74,5.49L18.5,5.49C20,5.49,20.5,6,20.5,7.5L20.5,10.25C20.5,11.75,20,12.25,18.5,12.25ZM7.5,20.5C6,20.5,5.49,20,5.49,18.5L5.49,15.74C5.49,14.24,6,13.74,7.5,13.74L10.25,13.74C11.75,13.74,12.25,14.24,12.25,15.74L12.25,18.5C12.25,20,11.75,20.5,10.25,20.5ZM7.05,19C7.38,19.32,7.73,19.32,8.05,19L8.88,18.17L9.7,19C10.02,19.32,10.38,19.32,10.7,19L10.75,18.95C11.07,18.63,11.07,18.27,10.75,17.95L9.93,17.13L10.75,16.3C11.07,15.98,11.07,15.63,10.75,15.3L10.7,15.25C10.38,14.93,10.02,14.93,9.7,15.25L8.88,16.08L8.05,15.25C7.73,14.93,7.38,14.93,7.05,15.25L7,15.3C6.68,15.63,6.68,15.98,7,16.3L7.82,17.13L7,17.95C6.68,18.27,6.68,18.63,7,18.95ZM14.75,18.42C14.75,18.87,14.99,19.12,15.44,19.12L18.8,19.12C19.25,19.12,19.49,18.87,19.49,18.42L19.49,18.33C19.49,17.88,19.25,17.63,18.8,17.63L15.44,17.63C14.99,17.63,14.75,17.88,14.75,18.33ZM7.5,12.25C6,12.25,5.49,11.75,5.49,10.25L5.49,7.5C5.49,6,6,5.49,7.5,5.49L10.25,5.49C11.75,5.49,12.25,6,12.25,7.5L12.25,10.25C12.25,11.75,11.75,12.25,10.25,12.25ZM8.13,10.8C8.13,11.25,8.37,11.5,8.82,11.5L8.92,11.5C9.37,11.5,9.62,11.25,9.62,10.8L9.62,9.63L10.79,9.63C11.25,9.63,11.49,9.38,11.49,8.93L11.49,8.83C11.49,8.38,11.25,8.13,10.79,8.13L9.62,8.13L9.62,6.96C9.62,6.5,9.37,6.26,8.92,6.26L8.82,6.26C8.37,6.26,8.13,6.5,8.13,6.96L8.13,8.13L6.95,8.13C6.5,8.13,6.25,8.38,6.25,8.83L6.25,8.93C6.25,9.38,6.5,9.63,6.95,9.63L8.13,9.63ZM15.74,20.5C14.24,20.5,13.74,20,13.74,18.5L13.74,15.74C13.74,14.24,14.24,13.74,15.74,13.74L18.5,13.74C20,13.74,20.5,14.24,20.5,15.74L20.5,18.5C20.5,20,20,20.5,18.5,20.5ZM14.75,15.92C14.75,16.38,14.99,16.62,15.44,16.62L18.8,16.62C19.25,16.62,19.49,16.38,19.49,15.92L19.49,15.83C19.49,15.38,19.25,15.13,18.8,15.13L15.44,15.13C14.99,15.13,14.75,15.38,14.75,15.83ZM14.75,8.92C14.75,9.37,14.99,9.62,15.44,9.62L18.8,9.62C19.25,9.62,19.49,9.37,19.49,8.92L19.49,8.82C19.49,8.37,19.25,8.13,18.8,8.13L15.44,8.13C14.99,8.13,14.75,8.37,14.75,8.82Z"/></svg>