<svg xmlns="http://www.w3.org/2000/svg" viewBox="0 0 24 24" fill="currentColor"><path d="M22,12L22,21.25C22,21.75,21.53,21.92,21.05,21.33L19.9,19.85C19.43,19.23,18.95,19,18.17,19L13.5,19C12.23,19,11.69,18.65,11.54,17.64L19.18,10L20,10C21.5,10,22.01,10.5,22.01,12ZM4,16.75L4,7.5C4,6,4.5,5.5,6,5.5L12.5,5.5C14,5.5,14.51,6,14.51,7.5L14.51,10.43L20.48,4.45C20.81,4.13,21.16,4.13,21.48,4.45L21.56,4.53C21.83,4.8,21.87,5.09,21.68,5.37C21.63,5.41,21.58,5.45,21.54,5.5L5.54,21.5C5.49,21.55,5.45,21.59,5.41,21.65C5.13,21.83,4.84,21.8,4.56,21.52L4.49,21.44C4.17,21.12,4.17,20.77,4.49,20.45L10.44,14.5L7.83,14.5C7.06,14.5,6.58,14.72,6.11,15.35L4.96,16.82C4.49,17.42,4.01,17.25,4.01,16.75Z"/></svg>