<svg xmlns="http://www.w3.org/2000/svg" viewBox="0 0 1100 1100"><path d="M550.35,777.5C549.65,777.5,549.65,776.8,549.65,776.8C539.85,777.5,530.75,778.2,523.05,779.6L462.15,655C483.15,632.6,511.85,623.5,549.65,623.5C587.45,623.5,616.85,632.6,638.55,655L577.65,779.6C569.25,778.2,560.15,777.5,550.35,777.5C550.35,776.8,550.35,777.5,550.35,777.5Z" fill="currentColor"/><path d="M397.05,897.9C427.15,897.9,442.55,875.5,451.65,853.1C467.05,848.2,476.85,836.3,481.75,820.9C499.95,820.9,513.95,812.5,523.05,797.8C531.45,795.7,539.85,795,550.35,795C560.15,795,568.55,795.7,576.95,797.8C586.05,812.5,600.05,820.9,618.25,820.9C623.85,836.3,633.65,848.2,648.35,853.1C658.15,875.5,672.85,897.9,703.65,897.9C741.45,897.9,758.95,846.1,745.65,805.5C750.55,767,742.85,736.9,719.75,717.3C710.65,681.6,687.55,656.4,653.95,645.9C649.05,641,644.15,636.1,639.25,631.9C657.45,584.3,642.05,538.8,592.35,512.2C600.75,492.6,605.65,476.5,605.65,462.5C605.65,427.5,579.05,404.4,549.65,404.4C520.25,404.4,494.35,427.5,494.35,462.5C494.35,477.2,498.55,492.6,506.95,512.2C457.25,538.8,441.85,584.3,460.75,632.6C455.85,636.8,450.95,641,446.75,645.9C412.45,656.4,389.35,681.6,380.25,717.3C357.85,736.9,349.45,766.3,354.35,805.5C341.05,845.4,358.55,897.9,397.05,897.9Z" fill="currentColor"/><path d="M433.45,851.7C425.75,868.5,415.95,880.4,397.05,880.4C373.95,880.4,362.05,849.6,369.05,818.8Z" fill="currentColor"/><path d="M371.85,800.6C367.65,769.1,373.25,748.1,388.65,733.4L464.95,816C461.45,827.9,455.15,834.2,443.95,837.7Z" fill="currentColor"/><path d="M398.45,718C406.15,690.7,422.25,673.2,447.45,664.1L507.65,788.7C500.65,800.6,492.25,804.8,477.55,803.4Z" fill="currentColor"/><path d="M529.35,520.6C517.45,493.3,511.85,477.2,511.85,462.5C511.85,436.6,527.95,421.9,549.65,421.9C571.35,421.9,588.15,436.6,588.15,462.5C588.15,477.2,582.55,493.3,569.25,520.6C621.75,542.3,639.25,578.7,623.85,622.8C602.85,611.6,576.95,606,549.65,606C521.65,606,496.45,611.6,475.45,622.8C460.05,579.4,477.55,542.3,529.35,520.6Z" fill="currentColor"/><path d="M653.25,664.1C677.75,673.2,693.85,691.4,702.25,718L622.45,803.4C607.75,804.8,599.35,800.6,592.35,789.4Z" fill="currentColor"/><path d="M711.35,733.4C727.45,748.1,732.35,769.8,728.15,800.6L656.05,837.7C645.55,834.2,639.25,827.9,635.05,816Z" fill="currentColor"/><path d="M730.95,818.8C737.95,849.6,726.05,880.4,703.65,880.4C684.75,880.4,674.95,869.2,666.55,851.7Z" fill="currentColor"/></svg>