<svg xmlns="http://www.w3.org/2000/svg" viewBox="0 0 1100 1100"><path d="M475.8,812.5C419.8,812.5,382,774.7,382,718L382,518.5C382,461.8,412.8,431,470.2,431L629.8,431C687.2,431,718,461.8,718,518.5L718,718C718,774.7,680.2,812.5,624.2,812.5Z" fill="currentColor"/><path d="M361,718C361,767,387.6,806.9,428.2,823.7L393.9,900L416.3,900L448.5,830.7C456.9,832.8,466,833.5,475.8,833.5L624.2,833.5C634,833.5,643.1,832.8,651.5,830.7L676,900L698.4,900L671.8,824.4C712.4,806.9,739,767.7,739,718L739,518.5C739,452,697,410,629.8,410L470.2,410C403,410,361,452,361,518.5Z" fill="currentColor"/><path d="M407.9,605.3C407.9,642.4,424,658.5,460.4,658.5L638.9,658.5C675.3,658.5,691.4,642.4,691.4,605.3L691.4,556.3C691.4,519.2,675.3,503.1,638.9,503.1L460.4,503.1C424,503.1,407.9,519.2,407.9,556.3Z" fill="currentColor"/><path d="M467.4,768.4C489.8,768.4,508.7,748.8,508.7,727.1C508.7,704,489.8,685.8,467.4,685.8C445.7,685.8,425.4,703.3,425.4,727.1C425.4,748.8,445.7,768.4,467.4,768.4Z" fill="currentColor"/><path d="M428.9,556.3C428.9,529,433.8,524.1,460.4,524.1L638.9,524.1C665.5,524.1,670.4,529,670.4,556.3L670.4,605.3C670.4,632.6,665.5,637.5,638.9,637.5L460.4,637.5C433.8,637.5,428.9,632.6,428.9,605.3Z" fill="currentColor"/><path d="M467.4,706.8C480,706.8,487.7,713.8,487.7,727.1C487.7,739,480,747.4,467.4,747.4C455.5,747.4,446.4,739,446.4,727.1C446.4,714.5,455.5,706.8,467.4,706.8Z" fill="currentColor"/><path d="M494.7,475.8L605.3,475.8L605.3,454.8L494.7,454.8Z" fill="currentColor"/><path d="M632.6,768.4C654.3,768.4,674.6,748.8,674.6,727.1C674.6,703.3,654.3,685.8,632.6,685.8C610.2,685.8,591.3,704,591.3,727.1C591.3,748.8,610.2,768.4,632.6,768.4Z" fill="currentColor"/><path d="M632.6,706.8C644.5,706.8,653.6,714.5,653.6,727.1C653.6,739,644.5,747.4,632.6,747.4C620,747.4,612.3,739,612.3,727.1C612.3,713.8,620,706.8,632.6,706.8Z" fill="currentColor"/></svg>