<svg xmlns="http://www.w3.org/2000/svg" viewBox="0 0 1100 1100"><path d="M350,800C295.87,800,250,753.42,250,700C250,650.83,288.95,607.16,425,590.5L425,400C425,345.87,471.58,300,525,300C578.42,300,625,345.87,625,400L625,600L750,600C804.13,600,850,646.58,850,700C850,753.42,804.13,800,750,800Z" fill="currentColor"/><path d="M750,900C860,900,950,808,950,700C950,592,860,500,750,500L725,500L725,400C725,290,633,200,525,200C417,200,325,290,325,400L325,502C227,514,150,600,150,700C150,808,240,900,350,900Z" fill="currentColor"/></svg>