<svg xmlns="http://www.w3.org/2000/svg" viewBox="0 0 1100 1100"><path d="M411,850C411,817,384,790,351,790C318,790,291,817,291,850C291,883,318,910,351,910C384,910,411,883,411,850Z" fill="currentColor"/><path d="M551,910C584,910,611,883,611,850C611,817,584,790,551,790C518,790,491,817,491,850C491,883,518,910,551,910Z" fill="currentColor"/><path d="M751,910C784,910,811,883,811,850C811,817,784,790,751,790C718,790,691,817,691,850C691,883,718,910,751,910Z" fill="currentColor"/><path d="M775,600C875,600,925,551,925,475C925,394,875,350,775,350L719,350C719,253,651,175,550,175C449,175,381,253,381,350L325,350C225,350,175,394,175,475C175,551,225,600,325,600Z" fill="currentColor"/></svg>