<svg xmlns="http://www.w3.org/2000/svg" viewBox="0 0 1100 1100"><path d="M801,700L601,700L601,590C601,499,624,475,700,475C779,475,801,499,801,590Z" fill="currentColor"/><path d="M635,351C635,315,664,285,700,285C736,285,765,315,765,351C765,386,736,415,700,415C664,415,635,386,635,351Z" fill="currentColor"/><path d="M900,300C900,235,865,200,800,200L500,200L500,800L800,800C865,800,900,765,900,700Z" fill="currentColor"/><path d="M400,200L267,266C223,288,200,326,200,375L200,800C200,865,231,884,289,855L400,800Z" fill="currentColor"/></svg>