<svg xmlns="http://www.w3.org/2000/svg" viewBox="0 0 1100 1100"><path d="M235,600L860,600C933,600,933,500,860,500L696,500L523,200L423,200L521,500L307,500L274,400L174,400Z" fill="currentColor"/><path d="M311,849C311,816,285,790,251,790C217,790,191,816,191,849C191,883,217,910,251,910C285,910,311,883,311,849Z" fill="currentColor"/><path d="M610,849C610,816,584,790,550,790C516,790,490,816,490,849C490,883,516,910,550,910C584,910,610,883,610,849Z" fill="currentColor"/><path d="M909,849C909,816,883,790,849,790C815,790,789,816,789,849C789,883,815,910,849,910C883,910,909,883,909,849Z" fill="currentColor"/></svg>