<svg xmlns="http://www.w3.org/2000/svg" viewBox="0 0 1100 1100"><path d="M610,700C610,587,516,490,400,490C285,490,190,587,190,700C190,813,285,910,400,910C516,910,610,813,610,700Z" fill="currentColor"/><path d="M290,700C290,641,340,590,400,590C461,590,510,641,510,700C510,759,461,810,400,810C340,810,290,759,290,700Z" fill="currentColor"/><path d="M300,543L500,543L500,290C500,235,454,190,400,190C346,190,300,235,300,290Z" fill="currentColor"/><path d="M600,400L900,400L900,300L600,300Z" fill="currentColor"/></svg>