<svg xmlns="http://www.w3.org/2000/svg" viewBox="0 0 1100 1100"><path d="M300,900L800,900L800,700L550,500L300,700Z" fill="currentColor"/><path d="M445.36,479.36C483.2,441.52,517.78,425,551,425C584.44,425,619.67,441.56,656.26,478.96L727.74,409.03C674.33,354.43,613.56,324.99,551,324.99C488.42,324.99,428.66,354.62,374.64,408.63Z" fill="currentColor"/><path d="M295.13,329.58C364.6,260.99,457.33,225,551,225C646.09,225,738.2,259.16,806.2,328.91L877.8,259.1C789.8,168.84,669.91,125.01,551,125.01C432.67,125.01,313.4,171.02,224.87,258.43Z" fill="currentColor"/></svg>