<svg xmlns="http://www.w3.org/2000/svg" viewBox="0 0 1100 1100"><path d="M710,550C710,341,638,170,550,170C462,170,390,341,390,550C390,759,462,930,550,930C638,930,710,759,710,550Z" fill="currentColor"/><path d="M550,270C583,270,610,396,610,550C610,704,583,830,550,830C517,830,490,704,490,550C490,396,517,270,550,270Z" fill="currentColor"/><path d="M930,550C930,345,755,170,550,170C341,170,170,345,170,550C170,755,341,930,550,930C755,930,930,755,930,550Z" fill="currentColor"/><path d="M550,270C701,270,830,399,830,550C830,701,701,830,550,830C396,830,270,701,270,550C270,399,396,270,550,270Z" fill="currentColor"/></svg>