<svg xmlns="http://www.w3.org/2000/svg" viewBox="0 0 1100 1100"><path d="M100,600L250,805L400,600Z" fill="currentColor"/><path d="M300,607L300,560C300,397.18,411.85,290,550,290C693.49,290,810,406.51,810,550C810,693.49,693.49,810,550,810L550,910C748.51,910,910,748.51,910,550C910,351.49,748.51,190,550,190C358.15,190,200,340.82,200,560L200,607Z" fill="currentColor"/><path d="M438,514C438,546,453,585,551,717C649,585,663,545,663,512C663,443,604,400,551,400C498,400,438,445,438,514Z" fill="currentColor"/></svg>