<svg xmlns="http://www.w3.org/2000/svg" viewBox="0 0 1100 1100"><path d="M400,1050L400,75L100,200L100,900Z" fill="currentColor"/><path d="M800,400L800,200L500,200L500,300L700,300L700,400Z" fill="currentColor"/><path d="M975,675C1043,675,1100,617,1100,550C1100,481,1043,425,975,425C906,425,850,481,850,550C850,617,906,675,975,675Z" fill="currentColor"/><path d="M500,500L500,700L600,700L600,500Z" fill="currentColor"/><path d="M500,500L500,600L900,600L900,500Z" fill="currentColor"/><path d="M800,700L700,700L700,800L500,800L500,900L800,900Z" fill="currentColor"/></svg>