<svg xmlns="http://www.w3.org/2000/svg" viewBox="0 0 1100 1100"><path d="M200,200L200,900L550,900L900,900L900,200Z" fill="currentColor"/><path d="M650,200C650,254,604,300,550,300C495,300,450,254,450,200Z" fill="currentColor"/><path d="M405,574C405,606,378,634,345,634C312,634,285,606,285,574C285,541,312,514,345,514C378,514,405,541,405,574Z" fill="currentColor"/><path d="M610,574C610,606,582,634,550,634C517,634,490,606,490,574C490,541,517,514,550,514C582,514,610,541,610,574Z" fill="currentColor"/><path d="M815,574C815,606,787,634,755,634C721,634,695,606,695,574C695,541,721,514,755,514C787,514,815,541,815,574Z" fill="currentColor"/></svg>