<svg xmlns="http://www.w3.org/2000/svg" viewBox="0 0 1100 1100"><path d="M200,900L300,900L300,800L800,800L800,900L900,900L900,575C900,526,888,477,866,433L834,367C812,323,774,300,725,300L650,300L650,200L450,200L450,300L375,300C326,300,288,323,266,367L234,433C212,477,200,526,200,575Z" fill="currentColor"/><path d="M285,650C285,614,315,585,350,585C386,585,415,614,415,650C415,685,386,715,350,715C315,715,285,685,285,650Z" fill="currentColor"/><path d="M685,650C685,614,714,585,750,585C785,585,815,614,815,650C815,685,785,715,750,715C714,715,685,685,685,650Z" fill="currentColor"/></svg>