<svg xmlns="http://www.w3.org/2000/svg" viewBox="0 0 1100 1100"><path d="M350,648L750,648C720,736,643,792,550,792C457,792,380,736,350,648Z" fill="currentColor"/><path d="M371,510C371,477,397,450,431,450C464,450,491,477,491,510C491,544,464,570,431,570C397,570,371,544,371,510Z" fill="currentColor"/><path d="M610,510C610,477,636,450,671,450C703,450,730,477,730,510C730,544,703,570,671,570C636,570,610,544,610,510Z" fill="currentColor"/><path d="M200,900L900,900L900,450L550,150L200,450Z" fill="currentColor"/></svg>