<svg xmlns="http://www.w3.org/2000/svg" viewBox="0 0 1100 1100"><path d="M411,850C411,816.46,384.54,790,351,790C317.46,790,291,816.46,291,850C291,883.54,317.46,910,351,910C384.54,910,411,883.54,411,850Z" fill="currentColor"/><path d="M611,850C611,816.46,584.54,790,551,790C517.46,790,491,816.46,491,850C491,883.54,517.46,910,551,910C584.54,910,611,883.54,611,850Z" fill="currentColor"/><path d="M811,850C811,816.46,784.54,790,751,790C717.46,790,691,816.46,691,850C691,883.54,717.46,910,751,910C784.54,910,811,883.54,811,850Z" fill="currentColor"/><path d="M775,600C875,600,925,551,925,475C925,394,875,350,775,350L719,350C719,253,651,175,550,175C449,175,381,253,381,350L325,350C225,350,175,394,175,475C175,551,225,600,325,600Z" fill="currentColor"/></svg>