<svg xmlns="http://www.w3.org/2000/svg" viewBox="0 0 1100 1100"><path d="M932,550C932,341,757,170,552,170L552,270C703,270,832,396,832,550C832,701,703,830,552,830C401,830,272,701,272,550C272,478,299,405,352,352L281,281C209,353,172,452,172,550C172,755,347,930,552,930C757,930,932,755,932,550Z" fill="currentColor"/><path d="M515,585L585,515L317,246L281,281L267,338Z" fill="currentColor"/><path d="M551,600C577,600,600,577,600,550C600,523,577,500,551,500C523,500,500,523,500,550C500,577,523,600,551,600Z" fill="currentColor"/></svg>