<svg xmlns="http://www.w3.org/2000/svg" viewBox="0 0 1100 1100"><path d="M200,900L900,900L900,700C798,700,747,674,700,600C653,674,615,700,551,700C486,700,447,674,400,600C353,674,302,700,200,700Z" fill="currentColor"/><path d="M300,460C329,460,360,436,360,399C360,377,352,363,300,239C248,363,240,377,240,400C240,437,272,460,300,460Z" fill="currentColor"/><path d="M550,460C578,460,610,437,610,400C610,377,602,363,550,239C498,363,490,377,490,399C490,436,521,460,550,460Z" fill="currentColor"/><path d="M800,460C828,460,860,437,860,400C860,377,852,363,800,239C748,363,740,377,740,399C740,436,771,460,800,460Z" fill="currentColor"/></svg>