<svg xmlns="http://www.w3.org/2000/svg" viewBox="0 0 1100 1100"><path d="M390,849C390,827.29,382.14,813.01,330,689.29C277.86,813.01,270,827.22,270,850C270,887.48,301.34,910,330,910C358.8,910,390,886.32,390,849Z" fill="currentColor"/><path d="M830,850C830,827.23,822.14,813.01,770,689.29C717.86,813,710,827.29,710,849C710,886.32,741.2,910,770,910C798.66,910,830,887.48,830,850Z" fill="currentColor"/><path d="M610,850C610,827.23,602.14,813.01,550,689.29C497.86,813,490,827.29,490,849C490,886.32,521.2,910,550,910C578.66,910,610,887.48,610,850Z" fill="currentColor"/><path d="M775,600C875,600,925,551,925,475C925,394,875,350,775,350L719,350C719,253,651,175,550,175C449,175,381,253,381,350L325,350C225,350,175,394,175,475C175,551,225,600,325,600Z" fill="currentColor"/></svg>