<svg xmlns="http://www.w3.org/2000/svg" viewBox="0 0 1100 1100"><path d="M775,600C875,600,925,548,925,468C925,392,875,340,775,340L719,340L719,334C719,243,651,175,550,175C449,175,381,243,381,334L381,340L325,340C225,340,175,392,175,468C175,548,225,600,325,600Z" fill="currentColor"/><path d="M291,738L291,739C352,801,352,801,292,860L345,913C404,854,404,854,467,914L519,860C459,801,459,800,520,738L467,685C405,746,405,746,345,686L345,685Z" fill="currentColor"/><path d="M580,738L580,739C641,801,641,801,581,860L634,913C693,854,693,854,756,914L808,860C748,801,748,800,809,738L756,685C694,746,694,746,634,686L634,685Z" fill="currentColor"/></svg>