<svg xmlns="http://www.w3.org/2000/svg" viewBox="0 0 1100 1100"><path d="M485,650C485,507,603,385,750,385C851,385,931,435,991,524L907,580C862,512,819,485,750,485C652,485,585,554,585,650C585,746,652,815,750,815C811,815,855,787,910,717L988,779C921,866,843,915,750,915C603,915,485,793,485,650Z" fill="currentColor"/><path d="M510,350C510,264,438,190,350,190C262,190,190,264,190,350C190,436,262,510,350,510C438,510,510,436,510,350Z" fill="currentColor"/><path d="M280,350C280,312,312,280,350,280C389,280,420,312,420,350C420,388,389,420,350,420C312,420,280,388,280,350Z" fill="currentColor"/></svg>