<svg xmlns="http://www.w3.org/2000/svg" viewBox="0 0 1100 1100"><path d="M300,900L400,900L400,800L700,800L700,900L800,900L800,750C800,717,794,684,781,654L739,546C726,516,703,500,670,500L430,500C398,500,374,516,361,546L319,654C306,684,300,717,300,750Z" fill="currentColor"/><path d="M515,344C515,325,507,297,450,170C393,297,385,326,385,345C385,385,419,410,450,410C481,410,515,384,515,344Z" fill="currentColor"/><path d="M715,344C715,325,707,297,650,170C593,297,585,326,585,345C585,385,619,410,650,410C681,410,715,384,715,344Z" fill="currentColor"/></svg>