<svg xmlns="http://www.w3.org/2000/svg" viewBox="0 0 1100 1100"><path d="M50,700L1050,700L1050,575C1050,526,1025,493,978,481L850,447L800,295C780,233,734,200,669,200L362,200C297,200,254,234,238,297L201,452L125,459C76,463,50,491,50,540Z" fill="currentColor"/><path d="M510,452L510,300L684,300L724,452Z" fill="currentColor"/><path d="M410,851C410,817,384,790,350,790C316,790,290,817,290,851C290,884,316,910,350,910C384,910,410,884,410,851Z" fill="currentColor"/><path d="M910,851C910,817,884,790,850,790C816,790,790,817,790,851C790,884,816,910,850,910C884,910,910,884,910,851Z" fill="currentColor"/></svg>