<svg xmlns="http://www.w3.org/2000/svg" viewBox="0 0 1100 1100"><path d="M364.64,260.36L550,445.72L735.36,260.36L664.65,189.65L550.01,304.29L435.37,189.65Z" fill="currentColor"/><path d="M500,375L500,556L600,556L600,375Z" fill="currentColor"/><path d="M839.64,364.64L654.28,550L839.64,735.36L910.35,664.65L795.71,550.01L910.35,435.37Z" fill="currentColor"/><path d="M725,500L544,500L544,600L725,600Z" fill="currentColor"/><path d="M735.36,839.64L550,654.28L364.64,839.64L435.35,910.35L549.99,795.71L664.63,910.35Z" fill="currentColor"/><path d="M600,725L600,544L500,544L500,725Z" fill="currentColor"/><path d="M260.36,735.36L445.72,550L260.36,364.64L189.65,435.35L304.29,549.99L189.65,664.63Z" fill="currentColor"/><path d="M375,600L556,600L556,500L375,500Z" fill="currentColor"/></svg>