<svg xmlns="http://www.w3.org/2000/svg" viewBox="0 0 1100 1100"><path d="M950,700L950,400C950,270,880,200,750,200L350,200C220,200,150,270,150,400L150,500C150,630,220,700,350,700Z" fill="currentColor"/><path d="M610,851C610,817,584,790,550,790C516,790,490,817,490,851C490,884,516,910,550,910C584,910,610,884,610,851Z" fill="currentColor"/><path d="M600,600L600,300L800,300L800,600Z" fill="currentColor"/><path d="M950,700L1040,700L1040,600L950,600Z" fill="currentColor"/><path d="M300,500L300,300L500,300L500,500Z" fill="currentColor"/></svg>