<svg xmlns="http://www.w3.org/2000/svg" viewBox="0 0 1100 1100"><path d="M448,250C676.5,250,800,368.73,800,504C800,603.82,734.34,655,647,655C566.8,655,500,613.19,500,550L400,550C400,682.21,526.6,755,647,755C782.06,755,900,665.78,900,504C900,312.27,732.3,150,448,150Z" fill="currentColor"/><path d="M651,850C432.84,850,300,727.8,300,590C300,492.68,365.22,445,451,445C533.2,445,600,486.81,600,550L700,550C700,417.79,573.4,345,451,345C316.58,345,200,431.52,200,590C200,785,378.16,950,651,950Z" fill="currentColor"/></svg>