<svg xmlns="http://www.w3.org/2000/svg" viewBox="0 0 1100 1100"><path d="M868,939L938,869L939,868L801.73,730.73L729.72,658.72L441.52,370.52L369.42,298.42L232,161L161,232L298.37,369.37C270.96,407.35,251.91,451.79,244.04,500L150,500L150,600L244.06,600C265.48,730.67,369.33,834.53,500,855.94L500,950L600,950L600,855.91C648.06,847.99,692.49,828.88,730.53,801.53Z" fill="currentColor"/><path d="M950,500L855.94,500C834.52,369.33,730.67,265.47,600,244.06L600,150L500,150L500,288L552.01,340.01C665.91,341.09,758.91,434.09,759.99,547.99L812,600L950,600Z" fill="currentColor"/><path d="M370.29,441.29L658.58,729.58C626.79,748.91,589.65,760,550,760C434.51,760,340,665.49,340,550C340,510.06,350.98,472.95,370.29,441.29Z" fill="currentColor"/></svg>