<svg xmlns="http://www.w3.org/2000/svg" viewBox="0 0 1100 1100"><path d="M200,900L900,900L900,375C900,326,874,300,825,300L300,300C235,300,200,335,200,400Z" fill="currentColor"/><path d="M300,600L300,400L800,400L800,600Z" fill="currentColor"/><path d="M500,400L600,400L600,100L500,100Z" fill="currentColor"/><path d="M400,200L700,200L700,100L400,100Z" fill="currentColor"/><path d="M285,750C285,714,315,685,350,685C386,685,415,714,415,750C415,785,386,815,350,815C315,815,285,785,285,750Z" fill="currentColor"/><path d="M685,750C685,714,714,685,750,685C785,685,815,714,815,750C815,785,785,815,750,815C714,815,685,785,685,750Z" fill="currentColor"/></svg>