<svg xmlns="http://www.w3.org/2000/svg" viewBox="0 0 1100 1100"><path d="M400,1050L400,75L100,200L100,900Z" fill="currentColor"/><path d="M500,900L800,900L800,800L500,800Z" fill="currentColor"/><path d="M500,300L600,300L600,200L500,200Z" fill="currentColor"/><path d="M600,700L1000,700L1000,400L600,400Z" fill="currentColor"/><path d="M737.5,417L737.5,333C737.5,295.06,766.01,265.5,800,265.5C833.99,265.5,862.5,295.06,862.5,333L862.5,417L937.5,417L937.5,333C937.5,254.94,876.01,190.5,800,190.5C723.99,190.5,662.5,254.94,662.5,333L662.5,417Z" fill="currentColor"/></svg>