<svg xmlns="http://www.w3.org/2000/svg" viewBox="0 0 1100 1100"><path d="M267.94,339.61L396.94,459.61L465.05,386.39L336.05,266.39Z" fill="currentColor"/><path d="M762.45,600C794.62,455.73,682.19,324,550,324C419.42,324,303.79,455.15,336.65,600Z" fill="currentColor"/><path d="M600,374L600,200L500,200L500,374Z" fill="currentColor"/><path d="M704.2,459.48L832.2,339.48L763.81,266.53L635.81,386.53Z" fill="currentColor"/><path d="M396.94,640.39L267.94,760.39L336.05,833.61L465.05,713.61Z" fill="currentColor"/><path d="M336.65,500C303.79,644.85,419.42,776,550,776C682.18,776,794.62,644.27,762.45,500Z" fill="currentColor"/><path d="M600,900L600,726L500,726L500,900Z" fill="currentColor"/><path d="M832.2,760.52L704.2,640.52L635.81,713.47L763.81,833.47Z" fill="currentColor"/><path d="M726,600L900,600L900,500L726,500Z" fill="currentColor"/><path d="M200,600L374,600L374,500L200,500Z" fill="currentColor"/></svg>