<svg xmlns="http://www.w3.org/2000/svg" viewBox="0 0 1100 1100"><path d="M880,775L1018,600L743,600Z" fill="currentColor"/><path d="M930,651L930,550C930,339.39,759.41,170,550,170C340.59,170,170,339.39,170,550C170,757.31,340.29,930,550,930L550,830C395.71,830,270,702.69,270,550C270,394.61,395.41,270,550,270C704.59,270,830,394.61,830,550L830,651Z" fill="currentColor"/><path d="M549,733L550,733L626,638C670,581,687,544,687,504C687,421,615,367,549,367C484,367,412,420,412,503C412,544,430,580,473,638Z" fill="currentColor"/><path d="M492,505C492,473,518,447,549,447C581,447,607,473,607,505C607,535,581,562,549,562C518,562,492,535,492,505Z" fill="currentColor"/></svg>