<svg xmlns="http://www.w3.org/2000/svg" viewBox="0 0 1100 1100"><path d="M340,550C340,434.51,434.51,340,550,340C665.49,340,760,434.51,760,550C760,665.49,665.49,760,550,760C434.51,760,340,665.49,340,550Z" fill="currentColor"/><path d="M860,550C860,379.49,720.51,240,550,240C379.49,240,240,379.49,240,550C240,720.51,379.49,860,550,860C720.51,860,860,720.51,860,550Z" fill="currentColor"/><path d="M290,500L150,500L150,600L290,600Z" fill="currentColor"/><path d="M600,950L600,810L500,810L500,950Z" fill="currentColor"/><path d="M950,500L810,500L810,600L950,600Z" fill="currentColor"/><path d="M600,290L600,150L500,150L500,290Z" fill="currentColor"/></svg>