<svg xmlns="http://www.w3.org/2000/svg" viewBox="0 0 1100 1100"><path d="M295,330C367,259,454,225,551,225C649,225,736,257,806,329L878,259C790,169,670,125,551,125C433,125,313,171,225,258Z" fill="currentColor"/><path d="M350,900L750,900L750,700L689,700L689,675C689,607,634,532,549,532C466,532,414,608,414,675L414,700L350,700Z" fill="currentColor"/><path d="M445,479C485,439,515,425,551,425C588,425,617,439,656,479L728,409C674,354,614,325,551,325C488,325,429,355,375,409Z" fill="currentColor"/><path d="M489,700L489,675C489,637,509,607,549,607C592,607,614,637,614,675L614,700Z" fill="currentColor"/></svg>