<svg xmlns="http://www.w3.org/2000/svg" viewBox="0 0 1100 1100"><path d="M800,900C865,900,900,865,900,800L900,600C900,368,833,290,550,290C267,290,200,368,200,600L200,800C200,865,235,900,300,900Z" fill="currentColor"/><path d="M300,900L300,722C300,557,434,500,550,500C666,500,800,557,800,722L800,900L700,900L700,722C700,628,640,600,550,600C460,600,400,628,400,722L400,900Z" fill="currentColor"/><path d="M350,424L450,424L450,200L350,200Z" fill="currentColor"/><path d="M650,424L750,424L750,200L650,200Z" fill="currentColor"/></svg>