<svg xmlns="http://www.w3.org/2000/svg" viewBox="0 0 1100 1100"><path d="M200,500L650,500L650,200L450,200C307,200,200,221,200,353Z" fill="currentColor"/><path d="M368,784C368,765,360,737,303,610C246,737,238,766,238,785C238,825,272,850,303,850C334,850,368,824,368,784Z" fill="currentColor"/><path d="M548,850C579,850,613,824,613,784C613,765,605,737,548,610C491,737,483,766,483,785C483,825,517,850,548,850Z" fill="currentColor"/><path d="M900,900L900,441C900,291.49,808.51,200,650,200L650,300C753.29,300,800,346.71,800,441L800,900Z" fill="currentColor"/></svg>