<svg xmlns="http://www.w3.org/2000/svg" viewBox="0 0 1100 1100"><path d="M600,900L900,900L900,800L600,800Z" fill="currentColor"/><path d="M304,845L814,635L855,737L947,698L830,414C811,369,782,327,747,293L674,224C640,191,599,184,556,201L268,321C225,338,202,373,201,420L201,518C200,567,210,617,229,662Z" fill="currentColor"/><path d="M361,589C395,574,433,590,446,625C459,657,444,696,410,709C378,723,339,707,325,674C313,641,329,603,361,589Z" fill="currentColor"/><path d="M684,455C716,441,756,457,770,490C782,522,767,562,735,574C701,588,663,573,649,540C635,506,651,468,684,455Z" fill="currentColor"/><path d="M304,845L327,900L435,900L392,798Z" fill="currentColor"/></svg>