<svg xmlns="http://www.w3.org/2000/svg" viewBox="0 0 1100 1100"><path d="M200,900L300,900L300,800L800,800L800,900L900,900L900,350C900,253,847,200,750,200L350,200C253,200,200,253,200,350Z" fill="currentColor"/><path d="M450,400L450,300L650,300L650,400Z" fill="currentColor"/><path d="M285,650C285,614,315,585,350,585C386,585,415,614,415,650C415,685,386,715,350,715C315,715,285,685,285,650Z" fill="currentColor"/><path d="M685,650C685,614,714,585,750,585C785,585,815,614,815,650C815,685,785,715,750,715C714,715,685,685,685,650Z" fill="currentColor"/></svg>