<svg xmlns="http://www.w3.org/2000/svg" viewBox="0 0 1100 1100"><path d="M550,925L700,700L400,700Z" fill="currentColor"/><path d="M232.66,304.34L396.66,459.34L465.35,386.66L301.35,231.66Z" fill="currentColor"/><path d="M762.45,600C794.62,455.73,682.19,324,550,324C419.42,324,303.79,455.15,336.65,600Z" fill="currentColor"/><path d="M600,374L600,150L500,150L500,374Z" fill="currentColor"/><path d="M704.45,459.23L867.45,304.23L798.54,231.76L635.54,386.76Z" fill="currentColor"/><path d="M381,500L381,600L718,600L718,500Z" fill="currentColor"/><path d="M726,600L950,600L950,500L726,500Z" fill="currentColor"/><path d="M150,600L374,600L374,500L150,500Z" fill="currentColor"/></svg>