<svg xmlns="http://www.w3.org/2000/svg" viewBox="0 0 1100 1100"><path d="M277,866C226,802,200,722,200,642C200,453,361,291,550,290C739,291,900,453,900,642C900,722,874,802,823,866L903,926C967,844,1000,742,1000,641C1000,398,794,190,550,190C306,190,100,398,100,641C100,742,133,844,197,926Z" fill="currentColor"/><path d="M650,640C650,586,604,540,552,540C496,540,450,586,450,640C450,694,496,740,552,740C604,740,650,694,650,640Z" fill="currentColor"/><path d="M515,675L585,605L395,415L325,487Z" fill="currentColor"/></svg>