<svg xmlns="http://www.w3.org/2000/svg" viewBox="0 0 1100 1100"><path d="M930,1000L1000,930L171,100L100,171L329.93,400.66C182.49,410.41,100,527.46,100,650C100,788,212,900,350,900L750,900C774.27,900,797.74,896.53,819.94,890.07Z" fill="currentColor"/><path d="M350,500L429.4,500L729.76,800L350,800C267.22,800,200,732.78,200,650C200,569.69,251.9,500,350,500Z" fill="currentColor"/><path d="M431.17,219.17L507.91,295.91C521.51,292.09,535.66,290,550,290C657.57,290,731.85,406.7,700.93,488.93L702.47,490.47C798.52,458.28,900,540.9,900,650C900,661.73,898.65,673.14,896.1,684.1L973.7,761.7C990.53,728.08,1000.01,690.14,1000.01,650.01C1000.01,522.01,910.01,410.01,800.01,400.01C800.01,304.01,687.01,190.01,550.01,190.01C507.27,190.01,466.69,201.1,431.18,219.18Z" fill="currentColor"/></svg>