<svg xmlns="http://www.w3.org/2000/svg" viewBox="0 0 1100 1100"><path d="M200,900L900,900L900,700C798,700,747,674,700,600C653,674,615,700,551,700C486,700,447,674,400,600C353,674,302,700,200,700Z" fill="currentColor"/><path d="M360,399C360,377.29,352.14,363.01,300,239.29C247.86,363.01,240,377.22,240,400C240,437.48,271.34,460,300,460C328.8,460,360,436.32,360,399Z" fill="currentColor"/><path d="M860,400C860,377.23,852.14,363.01,800,239.29C747.86,363,740,377.29,740,399C740,436.32,771.2,460,800,460C828.66,460,860,437.48,860,400Z" fill="currentColor"/><path d="M610,400C610,377.23,602.14,363.01,550,239.29C497.86,363,490,377.29,490,399C490,436.32,521.2,460,550,460C578.66,460,610,437.48,610,400Z" fill="currentColor"/></svg>