<svg xmlns="http://www.w3.org/2000/svg" viewBox="0 0 24 24"><path d="M17.43,8C16.4,8,16,7.6,16,6.57L16,1.6C16,0.57,16.27,0.43,17,1.17L22.83,7C23.56,7.73,23.43,8,22.4,8Z" fill="currentColor"/><path d="M8,22.4C8,23.43,7.73,23.57,7,22.83L1.17,17C0.44,16.27,0.57,16,1.6,16L6.57,16C7.6,16,8,16.4,8,17.43Z" fill="currentColor"/><path d="M1.6,8C0.57,8,0.43,7.73,1.17,7L7,1.17C7.73,0.44,8,0.57,8,1.6L8,6.57C8,7.6,7.6,8,6.57,8Z" fill="currentColor"/><path d="M17,22.83C16.27,23.56,16,23.43,16,22.4L16,17.43C16,16.4,16.4,16,17.43,16L22.4,16C23.43,16,23.57,16.27,22.83,17Z" fill="currentColor"/></svg>