<svg xmlns="http://www.w3.org/2000/svg" viewBox="0 0 24 24" fill="currentColor"><path d="M17.07,10C16.3,10,16,9.7,16,8.93L16,5.2C16,4.43,16.2,4.32,16.75,4.88L21.12,9.25C21.67,9.8,21.57,10,20.8,10ZM10,20.8C10,21.57,9.8,21.68,9.25,21.12L4.88,16.75C4.33,16.2,4.43,16,5.2,16L8.93,16C9.7,16,10,16.3,10,17.07ZM5.2,10C4.43,10,4.32,9.8,4.88,9.25L9.25,4.88C9.8,4.33,10,4.43,10,5.2L10,8.93C10,9.7,9.7,10,8.93,10ZM16.75,21.12C16.2,21.67,16,21.57,16,20.8L16,17.07C16,16.3,16.3,16,17.07,16L20.8,16C21.57,16,21.68,16.2,21.12,16.75Z"/></svg>