<svg xmlns="http://www.w3.org/2000/svg" viewBox="0 0 24 24" fill="currentColor"><path d="M5.73,20.5C4.08,20.5,3.55,19.4,4.43,17.9L11.61,5.58C12.41,4.2,13.63,4.2,14.43,5.58L21.58,17.9C22.46,19.4,21.9,20.5,20.25,20.5ZM13.02,15.37C12.18,15.37,11.62,15.92,11.62,16.77C11.62,17.6,12.17,18.12,13.02,18.12C13.85,18.12,14.37,17.6,14.37,16.77C14.37,15.92,13.85,15.37,13.02,15.37ZM12.05,13.02C12.14,13.55,12.37,13.75,12.89,13.75L13.1,13.75C13.62,13.75,13.85,13.55,13.94,13.02L14.47,10.02C14.67,8.92,14.32,8.5,13.25,8.5L12.74,8.5C11.67,8.5,11.32,8.93,11.52,10.02Z"/></svg>