<svg xmlns="http://www.w3.org/2000/svg" viewBox="0 0 24 24"><path d="M22,3.43L22,8.13C22,9.16,21.73,9.3,21,8.56L15.43,2.99C14.7,2.26,14.83,1.99,15.86,1.99L20.56,1.99C21.59,1.99,21.99,2.39,21.99,3.42Z" fill="currentColor"/><path d="M8.17,22L3.44,22C2.41,22,2.01,21.6,2.01,20.57L2.01,15.84C2.01,14.81,2.28,14.67,3.01,15.41L8.61,21.01C9.34,21.74,9.21,22.01,8.18,22.01Z" fill="currentColor"/><path d="M8.6,3L3,8.57C2.3,9.3,2,9.17,2,8.14L2,3.44C2,2.41,2.4,2.01,3.43,2.01L8.16,2.01C9.19,2.01,9.29,2.28,8.59,3.01Z" fill="currentColor"/><path d="M20.57,22L15.87,22C14.84,22,14.7,21.7,15.44,21L21.01,15.4C21.74,14.7,22.01,14.8,22.01,15.83L22.01,20.56C22.01,21.59,21.61,21.99,20.58,21.99Z" fill="currentColor"/></svg>