<svg xmlns="http://www.w3.org/2000/svg" viewBox="0 0 24 24" fill="currentColor"><path d="M20.5,6.57L20.5,10.1C20.5,10.87,20.3,10.97,19.75,10.42L15.57,6.24C15.02,5.69,15.12,5.49,15.89,5.49L19.42,5.49C20.19,5.49,20.49,5.79,20.49,6.56ZM10.13,20.5L6.58,20.5C5.81,20.5,5.51,20.2,5.51,19.43L5.51,15.88C5.51,15.11,5.71,15,6.26,15.56L10.46,19.76C11,20.3,10.91,20.51,10.13,20.51ZM10.45,6.25L6.25,10.43C5.72,10.98,5.5,10.88,5.5,10.11L5.5,6.58C5.5,5.81,5.8,5.51,6.57,5.51L10.12,5.51C10.89,5.51,10.97,5.71,10.44,6.26ZM19.43,20.5L15.9,20.5C15.13,20.5,15.03,20.27,15.58,19.75L19.76,15.55C20.3,15.02,20.51,15.1,20.51,15.87L20.51,19.42C20.51,20.19,20.21,20.49,19.44,20.49Z"/></svg>