<svg xmlns="http://www.w3.org/2000/svg" viewBox="0 0 24 24"><path d="M2.3,22C0.1,22,-0.6,20.53,0.57,18.53L10.14,2.1C11.21,0.27,12.84,0.27,13.91,2.1L23.44,18.53C24.61,20.53,23.87,22,21.67,22Z" fill="currentColor"/><path d="M13.83,17.03C13.83,15.9,13.13,15.16,12.03,15.16C10.9,15.16,10.16,15.89,10.16,17.03C10.16,18.13,10.89,18.83,12.03,18.83C13.13,18.83,13.83,18.13,13.83,17.03Z" fill="currentColor"/><path d="M10.73,12.03C10.86,12.73,11.16,13,11.86,13L12.13,13C12.83,13,13.13,12.73,13.26,12.03L13.96,8.03C14.23,6.56,13.76,6,12.33,6L11.66,6C10.23,6,9.76,6.57,10.03,8.03Z" fill="currentColor"/></svg>