<svg xmlns="http://www.w3.org/2000/svg" viewBox="0 0 24 24"><path d="M0,20.03C0,18.03,0.63,17.13,2.47,16.4L3.97,15.8C6.84,14.67,7.2,14.43,7.2,13.67C7.2,11.37,5.37,11.37,5.37,7.4C5.37,4.23,6.84,1.83,9.94,1.83C13.17,1.83,14.64,4.23,14.64,7.4C14.64,11.37,12.71,11.37,12.71,13.67C12.71,14.44,13.11,14.64,15.94,15.77L17.54,16.4C19.37,17.13,20.01,18.03,20.01,20.03L20.01,22L0.01,22Z" fill="currentColor"/><path d="M16.33,10.63C15.86,10.16,15.86,9.7,16.33,9.23L18.56,7L16.36,4.83C15.86,4.36,15.89,3.86,16.36,3.4C16.83,2.93,17.29,2.93,17.76,3.4L19.96,5.6L22.19,3.37C22.69,2.87,23.16,2.9,23.62,3.37C24.09,3.84,24.09,4.3,23.62,4.77L21.39,7L23.62,9.2C24.12,9.67,24.09,10.17,23.62,10.63C23.15,11.1,22.69,11.1,22.22,10.63L19.95,8.43L17.75,10.63C17.25,11.13,16.78,11.1,16.32,10.63Z" fill="currentColor"/></svg>