<svg xmlns="http://www.w3.org/2000/svg" viewBox="0 0 24 24" fill="currentColor"><path d="M4,19.1C4,17.9,4.38,17.35,5.5,16.92L6.93,16.38C7.47,16.16,7.7,15.87,7.72,15.33C7.67,14.42,6.45,14.41,6.45,11.7C6.45,9.67,7.35,8.45,9.2,8.45C11.08,8.45,11.99,9.59,12.05,11.5C10.8,12.6,10.02,14.21,10.02,16C10.02,17.79,10.8,19.41,12.05,20.5L4,20.5ZM11.13,7.32C11.48,6.12,12.32,5.45,13.7,5.45C15.65,5.45,16.55,6.67,16.55,8.7C16.55,9.23,16.5,9.65,16.43,10.01C16.29,10,16.16,9.99,16.02,9.99C15.1,9.99,14.23,10.2,13.46,10.56C13.2,9.05,12.41,7.88,11.13,7.31ZM16.02,13C14.32,13,13.02,14.3,13.02,16C13.02,17.7,14.32,19,16.02,19C17.73,19,19.02,17.7,19.02,16C19.02,14.3,17.73,13,16.02,13ZM16.02,11.5C18.5,11.5,20.52,13.52,20.52,16C20.52,18.48,18.5,20.5,16.02,20.5C13.55,20.5,11.52,18.48,11.52,16C11.52,13.52,13.55,11.5,16.02,11.5ZM21.72,21.55L21.63,21.65C21.3,21.97,20.95,21.97,20.63,21.65L17.85,18.87L18.96,17.77L21.73,20.54C22.05,20.87,22.05,21.22,21.73,21.54Z"/></svg>