<svg xmlns="http://www.w3.org/2000/svg" viewBox="0 0 24 24"><path d="M0,20.03C0,18.03,0.63,17.13,2.47,16.4L3.97,15.8C6.84,14.67,7.2,14.43,7.2,13.67C7.2,11.37,5.37,11.37,5.37,7.4C5.37,4.23,6.84,1.83,9.94,1.83C12.65,1.83,14.12,3.52,14.52,5.93L14.4,5.93C12.37,5.93,10.97,7.33,10.97,9.37C11,13.1,11.63,14.48,13.29,16.01C11.63,17.6,11.13,18.93,11.01,22L0.01,22Z" fill="currentColor"/><path d="M14.44,24C13.41,24,13.01,23.6,13.01,22.57C13.04,18.67,13.38,18.44,16.44,16C13.37,13.57,13.04,13.33,13.01,9.43C13.01,8.4,13.41,8,14.44,8L22.57,8C23.6,8,24,8.4,24,9.43C23.97,12.8,23.73,13.43,21.7,15.1C20.87,15.77,20.87,16.23,21.7,16.9C23.73,18.57,23.97,19.23,24,22.57C24,23.6,23.6,24,22.57,24Z" fill="currentColor"/><path d="M22.04,22C22.04,18.6,18.84,19.93,18.84,17.67L18.84,15.1L21.87,11.63C22.7,10.7,14.3,10.66,15.14,11.6L18.17,15.1L18.17,17.67C18.17,19.94,14.97,18.7,14.97,22Z" fill="currentColor"/></svg>