<svg xmlns="http://www.w3.org/2000/svg" viewBox="0 0 24 24" fill="currentColor"><path d="M10,17.5L10,16.1C10,14.72,10.47,14.07,11.8,13.67L12.84,13.31C12.54,14.45,11.93,14.62,11.93,15.27C11.93,15.72,12.05,15.95,12.48,16.07L14.2,16.67C14.85,16.87,15.3,17.13,15.58,17.5ZM13.05,7.93C13.26,6.36,14.1,5.5,15.57,5.5C17.42,5.5,18.25,6.68,18.25,8.8C18.25,11.5,17.18,11.35,17.18,12.27C17.18,12.72,17.33,12.95,17.73,13.08L19.47,13.68C20.77,14.07,21.25,14.73,21.25,16.1L21.25,17.5L17.21,17.5C16.78,16.42,15.9,15.62,14.67,15.25L13.86,14.97C14.16,14.39,14.51,13.27,14.51,11.8C14.51,10.01,13.97,8.72,13.06,7.93ZM4.75,20.5L4.75,19.1C4.75,17.72,5.22,17.07,6.55,16.67L8.2,16.1C8.6,15.95,8.78,15.75,8.78,15.27C8.78,14.39,7.75,14.39,7.75,11.8C7.75,9.68,8.57,8.5,10.32,8.5C12.18,8.5,13,9.68,13,11.8C13,14.4,11.93,14.4,11.93,15.27C11.93,15.72,12.05,15.95,12.48,16.07L14.2,16.67C15.53,17.07,16,17.72,16,19.1L16,20.5Z"/></svg>