<svg xmlns="http://www.w3.org/2000/svg" viewBox="0 0 24 24" fill="currentColor"><path d="M10.62,22C10.17,22,9.95,21.75,9.97,21.3L10.55,11.48C10.57,10.71,10.3,10.38,9.52,10.3L6.62,10C5.79,9.93,5.49,9.75,5.49,9.25C5.49,8.7,5.79,8.5,6.62,8.5L10.79,8.5C11.69,8.5,11.99,8.35,11.99,7.9C11.99,7.25,11.49,6.6,11.49,5.63C11.49,4.75,11.99,4,12.99,4C14.02,4,14.49,4.75,14.49,5.63C14.49,6.6,13.99,7.25,13.99,7.9C13.99,8.35,14.29,8.5,15.19,8.5L19.37,8.5C20.19,8.5,20.49,8.7,20.49,9.25C20.49,9.72,20.19,9.9,19.34,10L16.47,10.3C15.7,10.38,15.42,10.7,15.47,11.48L16.05,21.3C16.07,21.75,15.85,22,15.4,22L15.02,22C14.57,22,14.3,21.75,14.25,21.3L13.73,16.05C13.65,15.4,13.3,15.25,13,15.25C12.72,15.25,12.4,15.4,12.32,16.05L11.78,21.3C11.72,21.75,11.45,22,11,22Z"/></svg>