<svg xmlns="http://www.w3.org/2000/svg" viewBox="0 0 24 24" fill="currentColor"><path d="M4,19.02C4,17.52,4.47,16.85,5.85,16.3L6.98,15.85C9.13,15,9.4,14.82,9.4,14.25C9.4,12.53,8.03,12.53,8.03,9.55C8.03,7.17,9.13,5.37,11.46,5.37C13.88,5.37,14.98,7.17,14.98,9.55C14.98,9.8,14.97,10.03,14.95,10.24C12.09,11.02,10.01,13.62,10.01,16.75C10.01,18.14,10.42,19.43,11.13,20.5L4.01,20.5ZM16.75,13C14.64,13,13,14.63,13,16.75C13,18.85,14.65,20.5,16.75,20.5C18.87,20.5,20.5,18.86,20.5,16.75C20.5,14.62,18.88,13,16.75,13ZM16.75,11.5C19.65,11.5,22,13.85,22,16.75C22,19.62,19.65,22,16.75,22C13.88,22,11.5,19.62,11.5,16.75C11.5,13.85,13.88,11.5,16.75,11.5ZM13.17,19.27L19.27,13.17L20.33,14.23L14.23,20.33Z"/></svg>