<svg xmlns="http://www.w3.org/2000/svg" viewBox="0 0 24 24" fill="currentColor"><path d="M4,19.02C4,17.52,4.47,16.85,5.85,16.3L6.98,15.85C9.13,15,9.4,14.82,9.4,14.25C9.4,12.53,8.03,12.53,8.03,9.55C8.03,7.17,9.13,5.37,11.46,5.37C13.88,5.37,14.98,7.17,14.98,9.55C14.98,9.8,14.97,10.03,14.95,10.24C12.09,11.02,10.01,13.62,10.01,16.75C10.01,18.14,10.42,19.43,11.13,20.5L4.01,20.5ZM16.75,11.52C19.62,11.52,21.98,13.87,21.98,16.75C21.98,19.6,19.63,21.98,16.75,21.98C13.9,21.98,11.52,19.6,11.52,16.75C11.52,13.88,13.9,11.52,16.75,11.52ZM18.65,18.65C19.57,19.15,20.3,17.82,19.45,17.39L17.5,16.29L17.5,13.72C17.5,13.25,17.2,12.95,16.75,12.95C16.28,12.95,16,13.25,16,13.72L16,16.12C16,16.89,16.28,17.34,16.95,17.72Z"/></svg>