<svg xmlns="http://www.w3.org/2000/svg" viewBox="0 0 24 24" fill="currentColor"><path d="M13.75,17.82C13.75,17,14.15,16.4,15.05,15.89L16.27,15.22C16.57,15.05,16.7,14.94,16.7,14.55C16.7,13.89,15.95,13.44,15.95,11.92C15.95,10.65,16.6,9.65,17.82,9.65C19.17,9.65,19.79,10.65,19.79,11.92C19.79,13.44,19.02,13.89,19.02,14.55C19.02,14.94,19.1,15.07,19.37,15.22L20.7,15.89C21.58,16.34,22,17,22,17.82L22,20.5L13.75,20.5ZM4,17.82C4,17,4.43,16.4,5.33,15.89L6.53,15.22C6.83,15.05,6.98,14.94,6.98,14.55C6.98,13.44,6.2,13.44,6.2,11.92C6.2,10.65,6.83,9.65,8.08,9.65C9.43,9.65,10.05,10.65,10.05,11.92C10.05,13.44,9.28,13.92,9.28,14.55C9.28,14.94,9.38,15.07,9.65,15.22L10.95,15.89C11.85,16.37,12.25,17,12.25,17.82L12.25,20.5L4,20.5ZM10,8.03C10,8.43,9.87,8.48,9.57,8.25L7.38,6.58C7.07,6.36,7.07,6.15,7.38,5.93L9.57,4.23C9.87,4,10,4.05,10,4.43ZM9.15,7L9.15,5.5L16.97,5.5L16.97,7ZM16.42,8.25C16.12,8.47,15.99,8.42,15.99,8.02L15.99,4.42C15.99,4.04,16.12,3.99,16.42,4.22L18.65,5.92C18.95,6.14,18.95,6.35,18.65,6.57Z"/></svg>