<svg xmlns="http://www.w3.org/2000/svg" viewBox="0 0 24 24"><path d="M0,20.03C0,18.03,0.63,17.13,2.47,16.4L3.97,15.8C6.84,14.67,7.2,14.43,7.2,13.67C7.2,11.37,5.37,11.37,5.37,7.4C5.37,4.23,6.84,1.83,9.94,1.83C13.17,1.83,14.64,4.23,14.64,7.4C14.64,7.73,14.63,8.04,14.6,8.32C10.78,9.36,8,12.83,8,17C8,18.86,8.55,20.57,9.5,22L0,22Z" fill="currentColor"/><path d="M22,17C22,14.16,19.84,12,17,12C14.19,12,12,14.17,12,17C12,19.8,14.2,22,17,22C19.83,22,22,19.81,22,17Z" fill="currentColor"/><path d="M10,17C10,13.13,13.17,10,17,10C20.87,10,24,13.13,24,17C24,20.83,20.87,24,17,24C13.17,24,10,20.83,10,17Z" fill="currentColor"/><path d="M12.23,20.36L20.36,12.23L21.77,13.64L13.64,21.77Z" fill="currentColor"/></svg>