<svg xmlns="http://www.w3.org/2000/svg" viewBox="0 0 24 24" fill="currentColor"><path d="M11.27,8.48C11.47,6.94,12.28,6.1,13.7,6.1C15.48,6.1,16.28,7.23,16.28,9.27C16.28,10.04,16.19,10.56,16.05,10.95C15.33,11.63,14.87,12.62,14.87,13.74C14.87,14.79,15.17,15.7,15.39,16.18L15.17,16.31C14.81,16.53,14.5,16.8,14.25,17.1C13.83,16.41,13.19,15.81,12.36,15.41L11.96,15.21C12.27,14.7,12.69,13.59,12.69,12.15C12.69,10.58,12.15,9.3,11.26,8.48ZM4.02,20.5L4.02,19.15C4.02,18.1,4.5,17.35,5.67,16.75L6.6,16.28C6.95,16.11,7.14,15.96,7.14,15.48C7.14,14.65,6.15,14.4,6.15,12.15C6.15,10.35,6.95,8.98,8.62,8.98C10.4,8.98,11.19,10.35,11.19,12.15C11.19,14.4,10.16,14.65,10.16,15.48C10.16,15.93,10.31,16.05,10.69,16.25L11.69,16.75C12.89,17.35,13.34,18.1,13.34,19.15L13.34,20.5ZM14.85,20.5L14.85,19.47C14.85,18.57,15.13,18.1,15.95,17.6L16.76,17.13C17,16.98,17.18,16.85,17.18,16.5C17.18,15.81,16.38,15.51,16.38,13.75C16.38,12.4,17.23,11.5,18.41,11.5C19.58,11.5,20.43,12.4,20.43,13.75C20.43,15.5,19.58,15.8,19.58,16.5C19.58,16.83,19.76,16.95,20.01,17.1L20.86,17.61C21.68,18.08,21.98,18.56,21.98,19.48L21.98,20.51Z"/></svg>