<svg xmlns="http://www.w3.org/2000/svg" viewBox="0 0 24 24" fill="currentColor"><path d="M20.5,20.5L20.5,18.57C20.5,18.02,20.27,17.74,19.55,17.28L18.48,16.61C18.07,16.35,17.78,15.85,17.78,15.3C17.78,14.64,18.3,13.85,18.3,12.67C18.3,11.61,18.01,11.15,17.08,11.15C16.26,11.15,15.96,11.62,15.96,12.67C15.96,13.77,16.69,14.81,16.53,15.5C16.43,15.89,16.02,16.4,15.69,16.62L14.69,17.28C13.93,17.71,13.76,17.97,13.76,18.57L13.76,17.82C13.76,17.34,13.65,16.83,13.41,16.33C13.57,16.21,13.73,16.1,13.91,16L14.87,15.36C15.05,15.24,15.05,15.24,15.08,15.13C15.11,15,14.46,14.61,14.46,12.65C14.46,11.15,15.45,9.63,17.08,9.63C18.84,9.63,19.8,11.17,19.8,12.65C19.8,14.52,19.28,14.97,19.28,15.28C19.28,15.32,19.28,15.32,19.28,15.32L20.35,15.99C21.28,16.58,22,17.45,22,18.55L22,20.48ZM12.23,9.05L12,9.05C11.65,9.05,11.53,8.92,11.53,8.54L11.53,8.04C11.53,7.69,11.66,7.57,12.03,7.57L12.23,7.57C13.06,7.57,13.51,7.5,13.51,6.97C13.51,6.37,12.96,6.17,12.48,6.17C11.81,6.17,11.26,6.56,10.91,6.86C10.68,7.11,10.51,7.11,10.29,6.84L9.96,6.47C9.74,6.19,9.76,5.99,9.98,5.74C10.43,5.31,11.28,4.69,12.44,4.69C13.73,4.69,14.99,5.46,14.99,6.96C14.99,7.79,14.46,9.04,12.23,9.04ZM11.35,10.73C11.35,10.18,11.7,9.83,12.25,9.83C12.8,9.83,13.15,10.18,13.15,10.73C13.15,11.28,12.8,11.63,12.25,11.63C11.7,11.63,11.35,11.27,11.35,10.73ZM4,17.82C4,17,4.43,16.4,5.33,15.89L6.53,15.22C6.83,15.05,6.98,14.94,6.98,14.55C6.98,13.44,6.2,13.44,6.2,11.92C6.2,10.65,6.83,9.65,8.08,9.65C9.43,9.65,10.05,10.65,10.05,11.92C10.05,13.44,9.28,13.92,9.28,14.55C9.28,14.94,9.38,15.07,9.65,15.22L10.95,15.89C11.85,16.37,12.25,17,12.25,17.82L12.25,20.5L4,20.5Z"/></svg>