<svg xmlns="http://www.w3.org/2000/svg" viewBox="0 0 24 24" fill="currentColor"><path d="M4,19.02C4,17.52,4.47,16.85,5.85,16.3L6.98,15.85C9.13,15,9.4,14.82,9.4,14.25C9.4,12.53,8.03,12.53,8.03,9.55C8.03,7.17,9.13,5.37,11.46,5.37C13.49,5.37,14.59,6.64,14.89,8.45L14.8,8.45C13.28,8.45,12.23,9.5,12.23,11.03C12.25,13.83,12.72,14.86,13.97,16.01C12.72,17.2,12.35,18.2,12.26,20.5L4.01,20.5ZM14.83,22C14.06,22,13.76,21.7,13.76,20.93C13.78,18,14.04,17.83,16.33,16C14.03,14.18,13.78,14,13.76,11.07C13.76,10.3,14.06,10,14.83,10L20.93,10C21.7,10,22,10.3,22,11.07C21.98,13.6,21.8,14.07,20.27,15.33C19.65,15.83,19.65,16.17,20.27,16.68C21.8,17.93,21.98,18.42,22,20.93C22,21.7,21.7,22,20.93,22ZM20.53,20.5C20.53,17.95,18.13,18.95,18.13,17.25L18.13,15.33L20.4,12.72C21.02,12.03,14.73,12,15.36,12.7L17.63,15.33L17.63,17.25C17.63,18.96,15.23,18.03,15.23,20.5Z"/></svg>