<svg xmlns="http://www.w3.org/2000/svg" viewBox="0 0 24 24" fill="currentColor"><path d="M4,19.02C4,17.52,4.47,16.85,5.85,16.3L6.98,15.85C7.35,15.71,7.66,15.58,7.92,15.47C7.76,15.66,7.6,15.85,7.45,16.04C6.81,16.92,6.81,18.12,7.45,18.99C7.85,19.51,8.29,20.02,8.77,20.49L4,20.49ZM14.98,9.55C14.98,10.43,14.85,11.04,14.68,11.52C12.69,11.69,10.89,12.67,9.39,13.98C9.26,12.51,8.03,12.36,8.03,9.55C8.03,7.17,9.13,5.37,11.46,5.37C13.88,5.37,14.98,7.17,14.98,9.55ZM15.25,15.21C13.95,15.21,12.9,16.25,12.9,17.53C12.9,18.83,13.95,19.88,15.25,19.88C16.55,19.88,17.6,18.83,17.6,17.53C17.6,16.26,16.55,15.21,15.25,15.21ZM8.67,16.95C10.38,14.75,12.55,13,15.25,13C17.93,13,20.13,14.73,21.63,16.92C21.87,17.32,21.87,17.73,21.63,18.12C20.13,20.32,17.93,22,15.25,22C12.55,22,10.35,20.33,8.67,18.1C8.4,17.73,8.4,17.33,8.67,16.95Z"/></svg>