<svg xmlns="http://www.w3.org/2000/svg" viewBox="0 0 24 24" fill="currentColor"><path d="M5.5,19.02C5.5,17.52,5.97,16.85,7.35,16.3L8.48,15.85C8.88,15.69,9.21,15.56,9.48,15.45L10.89,14.04C10.78,12.52,9.53,12.4,9.53,9.55C9.53,7.17,10.63,5.37,12.96,5.37C15.02,5.37,16.12,6.67,16.41,8.52L20.48,4.45C20.8,4.13,21.15,4.13,21.47,4.45L21.55,4.53C21.87,4.84,21.87,5.19,21.57,5.5C21.56,5.51,21.56,5.52,21.55,5.52L16.39,10.68L6.57,20.5L5.57,21.5L5.55,21.52C5.23,21.84,4.88,21.84,4.55,21.52L4.48,21.45C4.16,21.12,4.16,20.77,4.48,20.45L5.51,19.42ZM15.02,14.2C15.02,14.21,15.02,14.23,15.02,14.25C15.02,14.83,15.32,14.98,17.45,15.83L18.65,16.3C20.02,16.85,20.5,17.52,20.5,19.02L20.5,20.5L8.73,20.5Z"/></svg>