<svg xmlns="http://www.w3.org/2000/svg" viewBox="0 0 24 24" fill="currentColor"><path d="M19.85,16.02C19.55,16.38,19.2,16.38,18.87,16.05L18.82,15.99C18.5,15.67,18.5,15.32,18.8,14.96C19.95,13.59,20.54,11.91,20.54,10.24C20.54,8.57,19.94,6.87,18.8,5.52C18.5,5.16,18.5,4.82,18.82,4.49L18.87,4.44C19.2,4.11,19.55,4.11,19.85,4.44C21.27,6.11,22,8.19,22,10.23C22,12.28,21.27,14.36,19.85,16.01ZM17.2,13.4C16.92,13.72,16.58,13.75,16.25,13.42L16.2,13.37C15.87,13.05,15.84,12.67,16.14,12.32C16.57,11.7,16.8,10.97,16.8,10.24C16.8,9.51,16.57,8.79,16.14,8.16C15.84,7.81,15.87,7.44,16.2,7.11L16.25,7.06C16.57,6.74,16.92,6.76,17.2,7.08C17.93,8.01,18.3,9.13,18.3,10.23C18.3,11.34,17.93,12.46,17.2,13.38ZM4,19.02C4,17.52,4.47,16.85,5.85,16.3L6.98,15.85C9.13,15,9.4,14.82,9.4,14.25C9.4,12.53,8.03,12.53,8.03,9.55C8.03,7.17,9.13,5.37,11.46,5.37C13.88,5.37,14.98,7.17,14.98,9.55C14.98,12.53,13.53,12.53,13.53,14.25C13.53,14.83,13.83,14.98,15.96,15.83L17.16,16.3C18.53,16.85,19.01,17.52,19.01,19.02L19.01,20.5L4.01,20.5Z"/></svg>