<svg xmlns="http://www.w3.org/2000/svg" viewBox="0 0 24 24"><path d="M0,20.03C0,18.03,0.63,17.13,2.47,16.4L3.97,15.8C6.84,14.67,7.2,14.43,7.2,13.67C7.2,11.37,5.37,11.37,5.37,7.4C5.37,4.23,6.84,1.83,9.94,1.83C13.17,1.83,14.64,4.23,14.64,7.4C14.64,7.73,14.63,8.04,14.6,8.32C10.78,9.36,8,12.83,8,17C8,18.86,8.55,20.57,9.5,22L0,22Z" fill="currentColor"/><path d="M10.03,17C10.03,13.17,13.2,10.03,17,10.03C20.83,10.03,23.97,13.16,23.97,17C23.97,20.8,20.84,23.97,17,23.97C13.2,23.97,10.03,20.8,10.03,17Z" fill="currentColor"/><path d="M19.53,19.53C20.76,20.2,21.73,18.43,20.6,17.86L18,16.39L18,12.96C18,12.33,17.6,11.93,17,11.93C16.37,11.93,16,12.33,16,12.96L16,16.16C16,17.19,16.37,17.79,17.27,18.29Z" fill="currentColor"/></svg>