<svg xmlns="http://www.w3.org/2000/svg" viewBox="0 0 24 24" fill="currentColor"><path d="M4,19.02C4,17.52,4.47,16.85,5.85,16.3L6.98,15.85C9.13,15,9.4,14.82,9.4,14.25C9.4,12.53,8.03,12.53,8.03,9.55C8.03,7.17,9.13,5.37,11.46,5.37C13.88,5.37,14.98,7.17,14.98,9.55C14.98,12.53,13.53,12.53,13.53,14.25C13.53,14.83,13.83,14.98,15.96,15.83L17.16,16.3C18.53,16.85,19.01,17.52,19.01,19.02L19.01,20.5L4.01,20.5ZM16.71,13.02C16.25,13.02,16.01,12.78,16.01,12.33L16.01,11.85C16.01,11.4,16.18,10.98,16.51,10.68L20.34,7.02L16.71,7.02C16.26,7.02,16.02,6.78,16.02,6.33L16.02,6.23C16.02,5.78,16.26,5.53,16.71,5.53L21.31,5.53C21.76,5.53,22.01,5.78,22.01,6.23L22.01,6.7C22.01,7.15,21.84,7.58,21.5,7.88L17.7,11.53L21.3,11.53C21.75,11.53,22,11.78,22,12.23L22,12.33C22,12.78,21.75,13.02,21.3,13.02Z"/></svg>