<svg xmlns="http://www.w3.org/2000/svg" viewBox="0 0 24 24" fill="currentColor"><path d="M4,19.02C4,17.52,4.47,16.85,5.85,16.3L6.98,15.85C9.13,15,9.4,14.82,9.4,14.25C9.4,12.53,8.03,12.53,8.03,9.55C8.03,7.17,9.13,5.37,11.46,5.37C13.88,5.37,14.98,7.17,14.98,9.55C14.98,12.53,13.53,12.53,13.53,14.25C13.53,14.83,13.83,14.98,15.96,15.83L17.16,16.3C18.53,16.85,19.01,17.52,19.01,19.02L19.01,20.5L4.01,20.5ZM16.25,11.97C15.89,11.62,15.89,11.28,16.25,10.92L17.92,9.25L16.27,7.62C15.89,7.27,15.92,6.9,16.27,6.55C16.62,6.2,16.97,6.2,17.32,6.55L18.97,8.2L20.64,6.53C21.02,6.15,21.37,6.18,21.71,6.53C22.07,6.88,22.07,7.23,21.71,7.58L20.04,9.25L21.71,10.9C22.09,11.25,22.07,11.63,21.71,11.97C21.36,12.33,21.02,12.33,20.66,11.97L18.96,10.32L17.31,11.97C16.94,12.35,16.59,12.33,16.24,11.97Z"/></svg>