<svg xmlns="http://www.w3.org/2000/svg" viewBox="0 0 24 24"><path d="M9.33,24L8.83,24C8.23,24,7.93,23.67,7.96,23.07L8.73,9.97C8.76,8.94,8.4,8.5,7.36,8.4L3.49,8C2.39,7.9,1.99,7.67,1.99,7C1.99,6.27,2.39,6,3.49,6L9.06,6C10.26,6,10.66,5.8,10.66,5.2C10.66,4.33,9.99,3.47,9.99,2.17C9.99,1,10.66,0,11.99,0C13.36,0,13.99,1,13.99,2.17C13.99,3.47,13.32,4.34,13.32,5.2C13.32,5.8,13.72,6,14.92,6L20.49,6C21.59,6,21.99,6.27,21.99,7C21.99,7.63,21.59,7.87,20.46,8L16.63,8.4C15.6,8.5,15.23,8.93,15.3,9.97L16.07,23.07C16.1,23.67,15.8,24,15.2,24L14.7,24C14.1,24,13.73,23.67,13.67,23.07L12.97,16.07C12.87,15.2,12.4,15,12,15C11.63,15,11.2,15.2,11.1,16.07L10.37,23.07C10.3,23.67,9.94,24,9.34,24Z" fill="currentColor"/></svg>