<svg xmlns="http://www.w3.org/2000/svg" viewBox="0 0 24 24" fill="currentColor"><path d="M4,8.4C4,9.9,4.45,10.63,5.75,11.33L6.22,11.58C8.27,12.65,8.64,12.6,8.64,13.17C8.64,14.9,7.27,14.9,7.27,17.88C7.27,20.25,8.37,22.05,10.7,22.05C13.12,22.05,14.22,20.25,14.22,17.88C14.22,17.81,14.22,17.74,14.22,17.68C13.42,17.27,12.67,16.98,11.97,16.8C10.49,16.58,10,16,10,14.5L10,10.73C10,8.99,10.14,8.1,11.53,6.92L4,6.92ZM16.13,5.58C16.53,5.37,16.98,5.37,17.38,5.58C21.71,7.8,22.01,8.22,22.01,10.7L22.01,14.22C22.01,14.82,21.81,15.12,21.28,15.25C20.31,15.48,19.05,15.85,17.61,16.83C17.01,17.3,16.5,17.3,15.9,16.83C14.53,15.87,13.3,15.5,12.36,15.25C11.73,15.12,11.51,14.88,11.51,14.35L11.51,10.7C11.51,8.28,11.81,7.85,16.14,5.58Z"/></svg>