<svg xmlns="http://www.w3.org/2000/svg" viewBox="0 0 24 24" fill="currentColor"><path d="M5.5,19.32C5.5,18.12,5.88,17.58,6.98,17.13L7.88,16.77C9.6,16.1,9.83,15.95,9.83,15.5C9.83,14.13,8.72,14.13,8.72,11.75C8.72,9.85,9.6,8.4,11.45,8.4C13.4,8.4,14.27,9.84,14.27,11.75C14.27,14.13,13.13,14.13,13.13,15.5C13.13,15.95,13.35,16.08,15.05,16.75L16.03,17.13C17.13,17.58,17.51,18.12,17.51,19.32L17.51,20.5L5.51,20.5ZM19.83,16.52C19.53,16.88,19.17,16.88,18.85,16.55L18.8,16.5C18.48,16.17,18.48,15.82,18.77,15.47C19.92,14.1,20.52,12.41,20.52,10.74C20.52,9.07,19.92,7.37,18.78,6.02C18.48,5.66,18.48,5.32,18.8,4.99L18.85,4.94C19.17,4.61,19.53,4.61,19.83,4.94C21.25,6.61,21.98,8.69,21.98,10.73C21.98,12.78,21.25,14.86,19.83,16.51ZM17.18,13.9C16.9,14.22,16.55,14.25,16.23,13.92L16.17,13.87C15.85,13.55,15.82,13.17,16.12,12.82C16.55,12.2,16.77,11.47,16.77,10.74C16.77,10.02,16.55,9.29,16.12,8.67C15.82,8.31,15.84,7.94,16.17,7.62L16.23,7.56C16.55,7.24,16.9,7.26,17.18,7.58C17.91,8.51,18.28,9.63,18.28,10.73C18.28,11.84,17.91,12.96,17.18,13.88Z"/></svg>