<svg xmlns="http://www.w3.org/2000/svg" viewBox="0 0 24 24" fill="currentColor"><path d="M14.5,12.42C14.5,11.52,14.82,11.05,15.68,10.79L16.8,10.4C17.08,10.3,17.2,10.17,17.2,9.85C17.2,9.03,16.5,9.03,16.5,7.5C16.5,6.06,17.08,5.28,18.23,5.28C19.43,5.28,20.01,6.05,20.01,7.5C20.01,9.03,19.28,9.03,19.28,9.85C19.28,10.17,19.38,10.3,19.63,10.4L20.85,10.79C21.7,11.04,22,11.52,22,12.42L22,14.5L14.5,14.5ZM15.6,22L10.4,22C9.63,22,9.5,21.75,9.93,21.1L13.01,16.6L16.08,21.1C16.51,21.75,16.38,22,15.61,22ZM4,12.42C4,11.52,4.3,11.05,5.18,10.79L6.3,10.4C6.6,10.3,6.7,10.17,6.7,9.85C6.7,9.03,6,9.03,6,7.5C6,6.06,6.58,5.28,7.71,5.28C8.93,5.28,9.51,6.05,9.51,7.5C9.51,9.03,8.78,9.03,8.78,9.85C8.78,10.17,8.85,10.3,9.13,10.4L10.33,10.79C11.18,11.04,11.51,11.52,11.51,12.42L11.51,14.5L4.01,14.5ZM4.73,17.5C4.28,17.5,4.03,17.25,4.03,16.8L4.03,16.71C4.03,16.25,4.28,16.01,4.73,16.01L21.3,16.01C21.75,16.01,22,16.25,22,16.71L22,16.8C22,17.25,21.75,17.5,21.3,17.5Z"/></svg>