<svg xmlns="http://www.w3.org/2000/svg" viewBox="0 0 24 24"><path d="M0,20.03C0,18.03,0.63,17.13,2.47,16.4L3.97,15.8C4.46,15.61,4.88,15.44,5.23,15.29C5.01,15.54,4.8,15.8,4.6,16.06C3.75,17.23,3.75,18.83,4.6,19.99C5.13,20.68,5.72,21.36,6.36,21.99L0,21.99Z" fill="currentColor"/><path d="M9.94,1.83C13.17,1.83,14.64,4.23,14.64,7.4C14.64,8.57,14.47,9.39,14.24,10.03C11.57,10.25,9.17,11.56,7.19,13.3C7.01,11.35,5.37,11.14,5.37,7.4C5.37,4.23,6.84,1.83,9.94,1.83Z" fill="currentColor"/><path d="M18.13,18.04C18.13,16.34,16.73,14.94,15,14.94C13.27,14.94,11.87,16.34,11.87,18.04C11.87,19.77,13.27,21.17,15,21.17C16.73,21.17,18.13,19.77,18.13,18.04Z" fill="currentColor"/><path d="M6.23,18.8C5.86,18.3,5.86,17.77,6.23,17.27C8.5,14.34,11.4,12,15,12C18.57,12,21.5,14.3,23.5,17.23C23.83,17.76,23.83,18.3,23.5,18.83C21.5,21.76,18.57,24,15,24C11.4,24,8.47,21.77,6.23,18.8Z" fill="currentColor"/></svg>