<svg xmlns="http://www.w3.org/2000/svg" viewBox="0 0 24 24" fill="currentColor"><path d="M13.75,19.52C13.75,18.45,14.15,18,15.12,17.57L16.15,17.12C16.47,16.97,16.62,16.85,16.62,16.45C16.62,15.72,15.77,15.8,15.77,13.67C15.77,11.95,16.45,11.03,17.88,11.03C19.3,11.03,20,11.95,20,13.67C20,15.8,19.15,15.72,19.15,16.45C19.15,16.85,19.28,16.97,19.6,17.12L20.63,17.57C21.6,18,22,18.45,22,19.52L22,20.5L13.75,20.5ZM4,19.52C4,18.48,4.38,18,5.35,17.57L6.4,17.12C6.77,16.97,6.87,16.8,6.87,16.45C6.87,15.77,6.02,15.77,6.02,13.67C6.02,11.95,6.7,11.03,8.13,11.03C9.57,11.03,10.25,11.95,10.25,13.67C10.25,15.77,9.4,15.77,9.4,16.45C9.4,16.82,9.5,16.97,9.85,17.12L10.9,17.57C11.88,18,12.25,18.45,12.25,19.52L12.25,20.5L4,20.5ZM5.13,9.25C4.35,9.25,4.05,8.95,4.05,8.18L4.05,6.58C4.05,5.81,4.35,5.51,5.13,5.51L20.93,5.51C21.7,5.51,22,5.81,22,6.58L22,8.18C22,8.95,21.7,9.25,20.93,9.25L19.75,9.25L19.75,7.75L18.25,7.75L18.25,9.25L16.75,9.25L16.75,7.75L15.25,7.75L15.25,9.25L10.75,9.25L10.75,7.75L9.25,7.75L9.25,9.25L7.75,9.25L7.75,7.75L6.25,7.75L6.25,9.25ZM12.25,9.25L13.75,9.25L13.75,7L12.25,7Z"/></svg>