<svg xmlns="http://www.w3.org/2000/svg" viewBox="0 0 24 24" fill="currentColor"><path d="M13,5.13C17.33,5.13,20.88,8.67,20.88,13C20.88,17.33,17.33,20.88,13,20.88C8.67,20.88,5.13,17.33,5.13,13C5.13,8.67,8.67,5.13,13,5.13ZM13,9.87C11.27,9.87,9.87,11.27,9.87,13C9.87,14.73,11.27,16.13,13,16.13C14.73,16.13,16.13,14.73,16.13,13C16.13,11.27,14.73,9.87,13,9.87ZM8.63,13C8.63,10.44,10.44,8.63,13,8.63L13,6.63C9.61,6.63,6.63,9.61,6.63,13ZM13,19.38C16.39,19.38,19.38,16.39,19.38,13L17.37,13C17.37,15.56,15.56,17.37,13,17.37Z"/></svg>