<svg xmlns="http://www.w3.org/2000/svg" viewBox="0 0 24 24" fill="currentColor"><path d="M14.75,17.78C15.87,18.9,16.9,18.83,17.84,17.87C18.77,16.95,18.77,15.9,17.7,14.78L15.52,12.6C16.47,11.65,17.57,11.6,18.52,12.6L19.2,13.3C21.07,15.2,20.97,17.78,19.37,19.35C17.74,21.02,15.17,21.1,13.27,19.22L12.57,18.55C11.6,17.55,11.62,16.5,12.57,15.55ZM12.72,6.8L13.42,7.49C14.4,8.47,14.37,9.54,13.42,10.49L11.25,8.27C10.1,7.14,9.07,7.19,8.15,8.17C7.23,9.07,7.2,10.14,8.28,11.27L10.45,13.44C9.53,14.37,8.43,14.42,7.47,13.42L6.78,12.75C4.9,10.82,5,8.27,6.63,6.67C8.22,5.02,10.82,4.92,12.72,6.8Z"/></svg>