<svg xmlns="http://www.w3.org/2000/svg" viewBox="0 0 24 24" fill="currentColor"><path d="M10.4,20.5C9.63,20.5,9.48,20.22,9.83,19.55L13,13.6L16.17,19.55C16.52,20.22,16.38,20.5,15.6,20.5ZM4.71,14.5C4.26,14.5,4.01,14.25,4.01,13.8L4.01,13.71C4.01,13.25,4.26,13.01,4.71,13.01L21.3,13.01C21.75,13.01,22,13.25,22,13.71L22,13.8C22,14.25,21.75,14.5,21.3,14.5ZM4,6.21C4,5.76,4.25,5.51,4.7,5.51L9.29,5.51C9.74,5.51,9.99,5.76,9.99,6.21L9.99,10.8C9.99,11.25,9.74,11.5,9.29,11.5L4.7,11.5C4.25,11.5,4,11.25,4,10.8ZM14.88,8.5C14.88,6.63,16.38,5.13,18.25,5.13C20.13,5.13,21.63,6.63,21.63,8.5C21.63,10.38,20.13,11.88,18.25,11.88C16.38,11.88,14.88,10.38,14.88,8.5Z"/></svg>