<svg xmlns="http://www.w3.org/2000/svg" viewBox="0 0 24 24" fill="currentColor"><path d="M12.37,13.58C13.44,14.53,14.94,14.53,16.05,13.4L18,11.43C19.2,10.23,19.07,8.79,18.15,7.86C17.25,6.96,15.84,6.8,14.6,8L13.85,8.73C13.15,8.46,12.4,8.36,11.55,8.38L13.27,6.66C15.17,4.76,17.79,4.86,19.47,6.53C21.05,8.1,21.33,10.71,19.34,12.73L17.37,14.75C15.63,16.55,13,16.58,11.3,15.08C10.9,14.73,10.65,14.33,10.5,13.98C11.15,13.28,11.75,13.02,12.37,13.58ZM8.64,11.25C10.39,9.45,12.99,9.42,14.69,10.89C15.09,11.25,15.37,11.64,15.52,12C14.87,12.72,14.27,12.97,13.64,12.42C12.57,11.47,11.07,11.47,9.97,12.6L8.02,14.57C6.82,15.77,6.95,17.21,7.87,18.14C8.77,19.04,10.17,19.2,11.42,18L12.17,17.27C12.9,17.55,13.62,17.62,14.47,17.62L12.72,19.32C10.95,21.05,8.45,21.17,6.72,19.62C5,18.07,4.62,15.37,6.67,13.27Z"/></svg>