<svg xmlns="http://www.w3.org/2000/svg" viewBox="0 0 24 24" fill="currentColor"><path d="M20,20.5L5.99,20.5C4.49,20.5,3.99,20,3.99,18.5L3.99,16L11.87,16L11.87,17.22C11.87,18,12.17,18.29,12.94,18.29L13.04,18.29C13.81,18.29,14.11,18,14.11,17.22L14.11,16L21.98,16L21.98,18.5C21.98,20,21.48,20.5,19.98,20.5ZM4,10.47C4,8.97,4.5,8.47,6,8.47L20.01,8.47C21.51,8.47,22.01,8.97,22.01,10.47L22.01,14.5L4.01,14.5ZM8.52,7.5C8.52,6,9.02,5.5,10.52,5.5L15.53,5.5C17.03,5.5,17.53,6,17.53,7.5L17.53,8.5L16.03,8.5L16.03,7L10.03,7L10.03,8.5L8.53,8.5Z"/></svg>