<svg xmlns="http://www.w3.org/2000/svg" viewBox="0 0 24 24" fill="currentColor"><path d="M15.02,13.85C14.88,14.02,14.73,14.05,14.5,13.92L13.83,13.52C13.6,13.4,13.55,13.25,13.62,13.02L13.85,12.22C13.92,11.99,13.9,11.82,13.77,11.6L13.23,10.64C13.1,10.42,12.95,10.32,12.72,10.27L11.9,10.07C11.67,10.01,11.58,9.89,11.58,9.64L11.58,8.84C11.58,8.59,11.67,8.46,11.9,8.41L12.72,8.21C12.95,8.15,13.1,8.06,13.23,7.83L13.77,6.88C13.9,6.65,13.92,6.48,13.85,6.26L13.62,5.45C13.55,5.23,13.6,5.08,13.83,4.95L14.5,4.55C14.73,4.43,14.88,4.46,15.02,4.63L15.63,5.23C15.77,5.4,15.95,5.48,16.2,5.48L17.3,5.48C17.55,5.48,17.73,5.4,17.88,5.23L18.48,4.63C18.63,4.46,18.78,4.43,19.01,4.55L19.68,4.95C19.91,5.08,19.96,5.23,19.88,5.45L19.66,6.26C19.58,6.48,19.61,6.65,19.73,6.88L20.28,7.83C20.41,8.06,20.56,8.15,20.79,8.21L21.61,8.41C21.84,8.46,21.93,8.58,21.93,8.84L21.93,9.64C21.93,9.89,21.84,10.01,21.61,10.07L20.79,10.27C20.56,10.32,20.41,10.42,20.28,10.64L19.73,11.6C19.61,11.82,19.58,11.99,19.66,12.22L19.88,13.02C19.96,13.25,19.91,13.4,19.68,13.52L19.01,13.92C18.78,14.05,18.63,14.02,18.48,13.85L17.88,13.25C17.73,13.07,17.56,13,17.3,13L16.2,13C15.96,13,15.77,13.07,15.63,13.25ZM7.52,21.35C7.38,21.52,7.22,21.55,7,21.42L6.32,21.02C6.1,20.9,6.05,20.75,6.12,20.52L6.35,19.72C6.42,19.49,6.4,19.32,6.27,19.1L5.72,18.14C5.6,17.92,5.45,17.82,5.22,17.77L4.4,17.57C4.17,17.52,4.07,17.39,4.07,17.14L4.07,16.34C4.07,16.09,4.17,15.96,4.4,15.91L5.22,15.71C5.45,15.65,5.6,15.56,5.72,15.33L6.27,14.38C6.4,14.15,6.42,13.98,6.35,13.76L6.12,12.96C6.05,12.73,6.1,12.58,6.32,12.45L7,12.06C7.23,11.93,7.38,11.96,7.52,12.13L8.13,12.73C8.27,12.9,8.45,12.98,8.7,12.98L9.8,12.98C10.05,12.98,10.23,12.9,10.38,12.73L10.98,12.13C11.13,11.96,11.28,11.93,11.51,12.06L12.18,12.45C12.41,12.58,12.46,12.73,12.38,12.96L12.16,13.76C12.08,13.98,12.11,14.16,12.23,14.38L12.78,15.33C12.91,15.56,13.06,15.65,13.29,15.71L14.11,15.91C14.34,15.96,14.43,16.08,14.43,16.34L14.43,17.14C14.43,17.39,14.34,17.52,14.11,17.57L13.29,17.77C13.06,17.82,12.91,17.92,12.78,18.14L12.23,19.1C12.11,19.32,12.08,19.5,12.16,19.72L12.38,20.52C12.46,20.75,12.41,20.9,12.18,21.02L11.51,21.42C11.28,21.55,11.13,21.52,10.98,21.35L10.38,20.75C10.23,20.57,10.06,20.5,9.8,20.5L8.7,20.5C8.46,20.5,8.27,20.58,8.13,20.75ZM10.9,16.75C10.9,15.85,10.17,15.1,9.27,15.1C8.35,15.1,7.6,15.85,7.6,16.75C7.6,17.65,8.35,18.4,9.27,18.4C10.17,18.4,10.9,17.65,10.9,16.75ZM18.4,9.25C18.4,8.35,17.65,7.6,16.73,7.6C15.83,7.6,15.1,8.35,15.1,9.25C15.1,10.15,15.83,10.9,16.73,10.9C17.65,10.9,18.4,10.15,18.4,9.25Z"/></svg>