<svg xmlns="http://www.w3.org/2000/svg" viewBox="0 0 24 24" fill="currentColor"><path d="M13.5,13.28C13.86,12.88,14.05,12.33,14.05,11.76C14.05,10.43,13.05,9.38,11.43,9.38L8.63,9.38C7.05,9.38,6,10.43,6,11.76C6,13.08,7.05,14.13,8.63,14.13L8.68,14.13C8.66,14.83,8.76,15.48,8.98,16.11L8.63,16.11C5.91,16.11,4,14.13,4,11.75C4,9.38,5.9,7.4,8.63,7.4L11.43,7.4C14.2,7.4,16.08,9.38,16.08,11.75C16.08,13.23,15.33,14.55,14.13,15.33C13.15,15.12,12.93,14.28,13.5,13.28ZM11.88,10.68C12.85,10.88,13.08,11.73,12.5,12.72C12.14,13.12,11.95,13.68,11.95,14.25C11.95,15.57,12.95,16.62,14.58,16.62L17.37,16.62C18.95,16.62,20,15.57,20,14.24C20,12.92,18.95,11.87,17.37,11.87L17.32,11.87C17.34,11.17,17.25,10.52,17.02,9.89L17.37,9.89C20.09,9.89,22,11.87,22,14.24C22,16.62,20.1,18.59,17.37,18.59L14.57,18.59C11.8,18.59,9.92,16.62,9.92,14.24C9.92,12.77,10.67,11.45,11.87,10.67Z"/></svg>