<svg xmlns="http://www.w3.org/2000/svg" viewBox="0 0 24 24" fill="currentColor"><path d="M4,6.03C4,4.53,4.5,4.02,6,4.02L14.33,4C15.1,4,15.63,4.2,16.18,4.75L16.98,5.5L16.36,5.5C15.3,5.5,14.25,5.92,13.47,6.69L7.16,13L6.04,13C4.54,13,4.04,12.5,4.04,11ZM21.25,14.42L14.52,21.15C13.47,22.22,12.78,22.22,11.7,21.17L7.85,17.3C6.78,16.25,6.78,15.55,7.83,14.47L14.55,7.74C15.1,7.19,15.6,6.99,16.38,6.99L20.93,6.99C21.7,6.99,22,7.29,22,8.06L22,12.59C22,13.36,21.8,13.86,21.25,14.41ZM19.75,10.75C19.75,9.93,19.08,9.25,18.25,9.25C17.42,9.25,16.75,9.93,16.75,10.75C16.75,11.57,17.42,12.25,18.25,12.25C19.08,12.25,19.75,11.57,19.75,10.75Z"/></svg>