<svg xmlns="http://www.w3.org/2000/svg" viewBox="0 0 24 24" fill="currentColor"><path d="M9.21,20.01L20.5,8.72L20.5,13C20.5,16.9,18.25,19.58,13.98,21.72C13.28,22.04,12.72,22.04,12.03,21.72C10.96,21.19,10.02,20.62,9.21,20.01ZM21.55,5.52L20,7.07L8.05,19.02L5.57,21.5L5.54,21.53C5.22,21.85,4.87,21.85,4.55,21.53L4.47,21.45C4.15,21.13,4.15,20.78,4.47,20.45L7.04,17.88C6.02,16.49,5.49,14.89,5.49,13.01L5.49,8.08C5.49,7.31,5.79,7.01,6.56,6.98C9.09,6.83,10.24,6.15,12.14,4.67C12.76,4.17,13.21,4.17,13.84,4.67C15.37,5.87,16.42,6.53,18.08,6.83L20.46,4.45C20.78,4.13,21.14,4.13,21.46,4.45L21.53,4.52C21.85,4.84,21.86,5.18,21.56,5.5C21.55,5.51,21.54,5.51,21.53,5.52Z"/></svg>