<svg xmlns="http://www.w3.org/2000/svg" viewBox="0 0 24 24" fill="currentColor"><path d="M17.13,5.5C19.05,5.5,20.5,6.95,20.5,8.88C20.5,10.8,19.05,12.25,17.13,12.25L8.88,12.25C6.95,12.25,5.5,10.8,5.5,8.88C5.5,6.95,6.95,5.5,8.88,5.5ZM6.93,17.13C6.93,18.25,7.75,19.1,8.88,19.1C10.02,19.1,10.85,18.25,10.85,17.13C10.85,16.02,10.02,15.15,8.88,15.15C7.75,15.15,6.93,16.03,6.93,17.13ZM15.15,8.88C15.15,9.98,15.98,10.85,17.13,10.85C18.25,10.85,19.08,9.97,19.08,8.88C19.08,7.75,18.25,6.9,17.13,6.9C15.98,6.9,15.15,7.75,15.15,8.88ZM17.13,13.75C19.05,13.75,20.5,15.2,20.5,17.13C20.5,19.05,19.05,20.5,17.13,20.5L8.88,20.5C6.95,20.5,5.5,19.05,5.5,17.13C5.5,15.2,6.95,13.75,8.88,13.75Z"/></svg>