<svg xmlns="http://www.w3.org/2000/svg" viewBox="0 0 24 24" fill="currentColor"><path d="M13.3,19.94C17.4,17.88,19,16.47,19,13L19,8.07C19,7.92,19.56,8.48,19.36,8.47C16.46,8.3,14.91,7.39,12.93,5.85C12.47,5.48,13.54,5.48,13.08,5.85C11.09,7.4,9.55,8.3,6.65,8.47C6.45,8.48,7.01,7.91,7.01,8.07L7.01,13C7.01,16.47,8.61,17.87,12.71,19.94C13.01,20.09,13.01,20.09,13.31,19.94ZM13.98,21.27C13.28,21.63,12.72,21.63,12.03,21.27C7.75,19.12,5.5,17.15,5.5,13L5.5,8.07C5.5,7.3,5.8,7,6.57,6.97C9.1,6.82,10.25,6.14,12.15,4.67C12.77,4.17,13.22,4.17,13.85,4.67C15.75,6.15,16.9,6.82,19.42,6.97C20.19,6.99,20.49,7.29,20.49,8.07L20.49,13C20.49,17.15,18.24,19.13,13.97,21.27Z"/></svg>