<svg xmlns="http://www.w3.org/2000/svg" viewBox="0 0 24 24" fill="currentColor"><path d="M16,16.75C18.27,16.75,19.75,15.27,19.75,13C19.75,10.73,18.27,9.25,16,9.25L10,9.25C7.74,9.25,6.25,10.73,6.25,13C6.25,15.27,7.74,16.75,10,16.75ZM10,18.25C7.11,18.25,4.75,15.89,4.75,13C4.75,10.11,7.11,7.75,10,7.75L16,7.75C18.89,7.75,21.25,10.11,21.25,13C21.25,15.89,18.89,18.25,16,18.25ZM10.02,10.88C8.8,10.88,7.92,11.78,7.92,13C7.92,14.18,8.8,15.12,10.02,15.12C11.25,15.12,12.14,14.17,12.14,13C12.14,11.78,11.25,10.88,10.02,10.88Z"/></svg>