<svg xmlns="http://www.w3.org/2000/svg" viewBox="0 0 24 24" fill="currentColor"><path d="M10.3,20.35C10.02,20.65,9.8,20.67,9.45,20.48L8.3,19.83C7.95,19.62,7.88,19.4,7.98,19.02L8.38,17.77C8.48,17.39,8.46,17.12,8.25,16.77L7.38,15.22C7.17,14.87,6.95,14.72,6.57,14.62L5.27,14.32C4.9,14.22,4.75,14.04,4.75,13.65L4.75,12.32C4.75,11.94,4.9,11.77,5.27,11.67L6.57,11.37C6.95,11.27,7.17,11.12,7.38,10.77L8.25,9.21C8.46,8.86,8.48,8.59,8.38,8.22L7.98,6.96C7.88,6.59,7.96,6.36,8.3,6.16L9.45,5.51C9.8,5.31,10.03,5.34,10.3,5.64L11.18,6.59C11.45,6.89,11.7,6.99,12.1,6.99L13.92,6.99C14.3,6.99,14.54,6.89,14.82,6.59L15.7,5.64C15.98,5.34,16.2,5.31,16.55,5.51L17.7,6.16C18.05,6.36,18.12,6.59,18.02,6.96L17.62,8.22C17.52,8.59,17.54,8.87,17.75,9.21L18.63,10.77C18.83,11.12,19.05,11.27,19.43,11.37L20.73,11.67C21.1,11.76,21.25,11.94,21.25,12.32L21.25,13.65C21.25,14.04,21.1,14.22,20.73,14.32L19.43,14.62C19.05,14.72,18.83,14.87,18.63,15.22L17.75,16.77C17.54,17.13,17.52,17.4,17.62,17.77L18.02,19.02C18.11,19.4,18.04,19.62,17.7,19.83L16.55,20.48C16.2,20.68,15.97,20.65,15.7,20.35L14.82,19.4C14.54,19.1,14.3,19,13.92,19L12.1,19C11.7,19,11.45,19.1,11.18,19.4ZM13.02,10.38C11.58,10.38,10.4,11.55,10.4,12.98C10.4,14.46,11.58,15.63,13.02,15.63C14.45,15.63,15.65,14.45,15.65,12.98C15.65,11.55,14.45,10.38,13.02,10.38Z"/></svg>