<svg xmlns="http://www.w3.org/2000/svg" viewBox="0 0 24 24" fill="currentColor"><path d="M6.58,12.25C5.81,12.25,5.51,11.95,5.51,11.18L5.51,6.58C5.51,5.81,5.81,5.51,6.58,5.51L11.18,5.51C11.95,5.51,12.25,5.81,12.25,6.58L12.25,11.18C12.25,11.95,11.95,12.25,11.18,12.25ZM14,19.5L14,18L15.5,18L15.5,19.5ZM14,15.5L14,14L15.5,14L15.5,15.5ZM16,17.5L16,16L17.5,16L17.5,17.5ZM18,15.5L18,14L19.5,14L19.5,15.5ZM7,10.75L10.75,10.75L10.75,7L7,7ZM8.13,9.63L8.13,8.13L9.63,8.13L9.63,9.63ZM20.5,11.17C20.5,11.94,20.2,12.24,19.43,12.24L14.83,12.24C14.06,12.24,13.76,11.94,13.76,11.17L13.76,6.57C13.76,5.8,14.06,5.5,14.83,5.5L19.43,5.5C20.2,5.5,20.5,5.8,20.5,6.57ZM19,10.75L19,7L15.25,7L15.25,10.75ZM17.88,9.63L16.38,9.63L16.38,8.13L17.88,8.13ZM5.5,14.83C5.5,14.06,5.8,13.76,6.57,13.76L11.17,13.76C11.94,13.76,12.24,14.06,12.24,14.83L12.24,19.43C12.24,20.2,11.94,20.5,11.17,20.5L6.57,20.5C5.8,20.5,5.5,20.2,5.5,19.43ZM7,15.25L7,19L10.75,19L10.75,15.25ZM8.13,16.38L9.63,16.38L9.63,17.88L8.13,17.88Z"/></svg>