<svg xmlns="http://www.w3.org/2000/svg" viewBox="0 0 24 24" fill="currentColor"><path d="M21.47,16.1C21.38,16.52,21.05,16.7,20.63,16.6L4.6,12.3C4.17,12.21,4,11.88,4.1,11.46L4.12,11.36C4.22,10.93,4.55,10.76,4.97,10.86L20.99,15.15C21.42,15.25,21.59,15.58,21.5,16ZM10.4,20.5C9.63,20.5,9.45,20.22,9.83,19.55L12.85,13.57L16.15,19.55C16.53,20.22,16.38,20.5,15.6,20.5ZM11.05,10.2C10.95,10.63,10.62,10.8,10.2,10.71L6.32,9.65C5.9,9.56,5.72,9.23,5.82,8.81L6.87,4.93C6.97,4.5,7.3,4.33,7.72,4.43L11.6,5.48C12.03,5.58,12.2,5.91,12.1,6.33ZM18.75,7.15C20.42,7.15,21.77,8.5,21.77,10.2C21.77,11.88,20.42,13.23,18.72,13.23C17.05,13.23,15.7,11.88,15.7,10.17C15.7,8.5,17.05,7.15,18.75,7.15Z"/></svg>