<svg xmlns="http://www.w3.org/2000/svg" viewBox="0 0 24 24" fill="currentColor"><path d="M18.17,15.83L14.33,19.7C13.25,20.75,12.55,20.75,11.5,19.68L4.75,12.93C4.2,12.38,4,11.88,4,11.11L4,6.59C4,5.81,4.3,5.51,5.07,5.51L9.63,5.51C10.4,5.51,10.9,5.72,11.45,6.26L13.5,8.31L12.65,9.17C12.1,9.71,11.85,10.24,11.75,11.02L11.15,14.87L15.03,14.27C15.8,14.17,16.3,13.89,16.85,13.34L17.68,12.5L18.2,13.02C19.25,14.09,19.25,14.8,18.18,15.85ZM7.75,7.75C6.93,7.75,6.25,8.43,6.25,9.25C6.25,10.07,6.93,10.75,7.75,10.75C8.57,10.75,9.25,10.07,9.25,9.25C9.25,8.43,8.57,7.75,7.75,7.75ZM12.93,13.08L13.25,10.7L19.47,4.4C19.92,3.95,20.37,3.75,21.3,4.62C22.22,5.54,22.02,6,21.54,6.48L15.32,12.75Z"/></svg>