<svg xmlns="http://www.w3.org/2000/svg" viewBox="0 0 24 24" fill="currentColor"><path d="M13.98,21.72C13.28,22.04,12.72,22.04,12.03,21.72C7.75,19.57,5.5,16.9,5.5,13L5.5,8.07C5.5,7.3,5.8,7,6.57,6.97C9.1,6.82,10.25,6.14,12.15,4.67C12.77,4.16,13.22,4.16,13.85,4.67C15.75,6.14,16.9,6.82,19.42,6.97C20.19,6.99,20.49,7.29,20.49,8.07L20.49,13C20.49,16.9,18.24,19.58,13.97,21.72ZM14.55,18.25C15,18.25,15.25,18,15.25,17.55L15.25,17.46C15.25,17,15,16.76,14.55,16.76L13.75,16.76L13.75,12.91C15.05,12.59,16,11.41,16,10.01C16,8.36,14.65,7.01,13,7.03C11.35,7.03,10,8.38,10,10.01C10,11.38,10.95,12.56,12.25,12.88L12.25,17.55C12.25,18,12.5,18.25,12.95,18.25ZM11.5,10.04C11.5,9.22,12.18,8.52,13,8.52C13.83,8.52,14.5,9.17,14.5,10.04C14.5,10.89,13.83,11.52,13,11.52C12.18,11.5,11.5,10.85,11.5,10.04Z"/></svg>