<svg xmlns="http://www.w3.org/2000/svg" viewBox="0 0 24 24" fill="currentColor"><path d="M6.21,8.5C5.76,8.5,5.51,8.25,5.51,7.8L5.51,7.71C5.51,7.25,5.76,7.01,6.21,7.01L19.8,7.01C20.25,7.01,20.5,7.25,20.5,7.71L20.5,7.8C20.5,8.25,20.25,8.5,19.8,8.5ZM10.38,7.6L9.18,7.1L9.42,6.52C10.35,4.4,10.7,4.14,13,4.14C15.3,4.14,15.65,4.39,16.58,6.52L16.82,7.1L15.62,7.6L15.38,6.98C14.78,5.4,14.78,5.4,13,5.4C11.22,5.4,11.22,5.4,10.62,6.98ZM9,20.48C7.5,20.3,7,19.73,7,18.13L7,10.01L19,10.01L19,18.13C19,19.73,18.5,20.3,17,20.48C14.47,20.68,11.52,20.68,8.99,20.48Z"/></svg>