<svg xmlns="http://www.w3.org/2000/svg" viewBox="0 0 24 24" fill="currentColor"><path d="M13.98,21.72C13.28,22.04,12.72,22.04,12.03,21.72C7.75,19.57,5.5,16.9,5.5,13L5.5,8.07C5.5,7.3,5.8,7,6.57,6.97C9.1,6.82,10.25,6.14,12.15,4.67C12.77,4.16,13.22,4.16,13.85,4.67C15.75,6.14,16.9,6.82,19.42,6.97C20.19,6.99,20.49,7.29,20.49,8.07L20.49,13C20.49,16.9,18.24,19.58,13.97,21.72ZM17.97,11.33C18.52,10.8,18.5,10.38,17.95,9.83L17.9,9.75C17.35,9.21,16.92,9.21,16.37,9.75L11.8,14.33L9.83,12.36C9.28,11.81,8.85,11.83,8.3,12.38L8.23,12.43C7.68,12.98,7.68,13.4,8.23,13.95L11.06,16.78C11.6,17.33,12.01,17.33,12.56,16.78Z"/></svg>