<svg xmlns="http://www.w3.org/2000/svg" viewBox="0 0 1100 1100"><path d="M752.79,753.75L966,877L1017,791L749.78,636.23L450,462.6L152,290L101,377L402.96,551.54C364.2,590.01,340,642.96,340,700C340,813,435,910,550,910C647.05,910,728.7,842.11,752.79,753.75Z" fill="currentColor"/><path d="M440,700C440,660.4,462.52,624.41,495.47,605.02L660,700.12C659.93,759.07,610.96,810,550,810C490,810,440,759,440,700Z" fill="currentColor"/><path d="M450,348.23L650,463.74L650,290C650,235,604,190,550,190C496,190,450,235,450,290Z" fill="currentColor"/></svg>