<svg xmlns="http://www.w3.org/2000/svg" viewBox="0 0 1100 1100"><path d="M680,550C680,480,620,420,550,420C479,420,420,480,420,550C420,620,479,680,550,680C620,680,680,620,680,550Z" fill="currentColor"/><path d="M265,550C265,392.61,393.41,265,550,265C707.49,265,835,392.51,835,550C835,706.59,707.39,835,550,835C393.51,835,265,706.49,265,550Z" fill="currentColor"/><path d="M935,550C935,337.49,762.51,165,550,165C338.59,165,165,337.39,165,550C165,761.51,338.49,935,550,935C762.61,935,935,761.41,935,550Z" fill="currentColor"/></svg>