<svg xmlns="http://www.w3.org/2000/svg" viewBox="0 0 1100 1100"><path d="M625.25,550.7C688.95,550.7,732.35,517.1,732.35,463.9C732.35,417,695.95,386.2,646.25,386.2C604.95,386.2,572.05,406.5,553.15,440.8C534.25,407.2,503.45,386.2,463.55,386.2C413.15,386.2,377.45,417,377.45,463.9C377.45,517.1,420.85,550.7,484.55,550.7Z" fill="currentColor"/><path d="M313.75,900L532.15,900L532.15,756.5L313.75,756.5Z" fill="currentColor"/><path d="M313.75,721.5L532.15,721.5L532.15,571L313.75,571Z" fill="currentColor"/><path d="M464.25,428.2C500.65,428.2,525.85,459,530.75,508.7L488.05,508.7C447.45,508.7,421.55,491.2,421.55,463.9C421.55,442.9,438.35,428.2,464.25,428.2Z" fill="currentColor"/><path d="M567.15,900L786.25,900L786.25,756.5L567.15,756.5Z" fill="currentColor"/><path d="M567.15,721.5L786.25,721.5L786.25,571L567.15,571Z" fill="currentColor"/><path d="M579.05,508.7C583.25,459,608.45,428.2,645.55,428.2C671.45,428.2,688.25,443.6,688.25,463.9C688.25,491.2,662.35,508.7,622.45,508.7Z" fill="currentColor"/></svg>